<?xml version="1.0" ?><!DOCTYPE svg  PUBLIC '-//W3C//DTD SVG 1.1//EN'  'http://www.w3.org/Graphics/SVG/1.1/DTD/svg11.dtd'><svg height="47.33" viewBox="100.926 78.684 180.399 47.33" width="180.399" xmlns="http://www.w3.org/2000/svg" xmlns:xlink="http://www.w3.org/1999/xlink"><defs><path d="M391 340l-133 -331c-6 -15 -7 -17 -16 -17s-10 2 -16 17l-145 364c-12 31 -33 31 -71 31v26c22 -2 53 -2 80 -2c25 0 69 0 93 2v-26c-15 0 -48 0 -48 -24c0 -4 0 -6 6 -19l119 -300l110 278c6 14 6 16 6 25c0 26 -14 38 -39 40v26c20 -2 53 -2 74 -2c19 0 44 1 63 2v-26 c-58 -2 -74 -42 -83 -64z" id="7615"/><path d="M151 404v-283c0 -91 40 -111 69 -111c42 0 69 46 69 115v56h18v-57c0 -74 -34 -132 -93 -132c-116 0 -116 112 -116 131v281h-87v16c85 2 120 92 122 195h18v-185h140v-26h-140z" id="7415"/><path d="M155 616c0 -23 -19 -41 -41 -41c-23 0 -41 19 -41 41c0 23 19 41 41 41c23 0 41 -19 41 -41zM38 427l115 11v-370c0 -36 2 -42 61 -42v-26c-23 2 -64 2 -88 2c-25 0 -68 0 -92 -2v26c64 0 68 5 68 43v278c0 48 -8 54 -64 54v26z" id="6915"/><path d="M153 404v-333c0 -45 12 -45 84 -45v-26c-27 2 -78 2 -107 2c-26 0 -72 0 -96 -2v26c64 0 68 5 68 43v335h-80v26h80v119c0 106 78 153 135 153c40 0 76 -23 76 -61c0 -26 -20 -34 -34 -34s-34 8 -34 34c0 25 21 32 29 34c-10 7 -25 11 -38 11c-43 0 -85 -52 -85 -135 v-121h116v-26h-114z" id="6615"/><path d="M150 236v-165c0 -45 12 -45 84 -45v-26c-27 2 -78 2 -107 2c-26 0 -72 0 -96 -2v26c64 0 68 5 68 43v278c0 48 -9 54 -68 54v26l116 11v-109h1c10 35 43 109 119 109c34 0 66 -20 66 -52c0 -28 -22 -35 -34 -35c-15 0 -34 10 -34 34c0 26 22 33 22 33c-7 3 -14 4 -21 4 c-75 0 -116 -90 -116 -186z" id="7215"/><path d="M197 612v-541c0 -45 12 -45 84 -45v-26c-32 2 -83 2 -117 2s-85 0 -117 -2v26c72 0 84 0 84 45v541c0 45 -12 45 -84 45v26c32 -2 83 -2 117 -2s85 0 117 2v-26c-72 0 -84 0 -84 -45z" id="4915"/><path d="M292 683l119 11v-614c0 -48 9 -54 68 -54v-26l-121 -8v73c-5 -7 -49 -73 -134 -73c-98 0 -191 92 -191 223c0 132 99 223 201 223c81 0 122 -64 126 -69v234c0 48 -9 54 -68 54v26zM358 120v198c0 18 0 21 -13 42c-23 36 -60 62 -106 62c-26 0 -142 -12 -142 -208 c0 -191 104 -206 133 -206c19 0 53 5 87 35c23 20 41 47 41 77z" id="6415"/><path d="M415 304v-235c0 -39 4 -43 68 -43v-26c-24 2 -69 2 -95 2s-70 0 -94 -2v26c64 0 68 5 68 43v239c0 48 -8 114 -82 114c-70 0 -126 -69 -126 -161v-192c0 -39 4 -43 68 -43v-26c-24 2 -69 2 -95 2s-70 0 -94 -2v26c64 0 68 5 68 43v278c0 48 -9 54 -68 54v26l118 11v-101 h1c15 40 56 101 135 101c118 0 128 -83 128 -134z" id="6e15"/><path d="M381 235h-290c0 -47 0 -106 31 -157c27 -44 70 -68 113 -68c52 0 107 34 129 102c4 12 5 14 12 14c2 0 8 0 8 -7c0 -21 -44 -127 -156 -127c-106 0 -201 96 -201 226c0 123 84 224 190 224c114 0 168 -89 168 -191c0 -10 0 -12 -4 -16zM92 250h239 c-1 112 -47 176 -115 176c-40 0 -117 -32 -124 -176z" id="6515"/><path d="M673 340c0 -200 -143 -356 -314 -356c-167 0 -313 153 -313 356s144 359 314 359c166 0 313 -154 313 -359zM360 2c110 0 237 110 237 351c0 233 -132 328 -238 328c-101 0 -237 -92 -237 -328c0 -237 124 -351 238 -351z" id="4f15"/></defs><g transform="scale(1.25)"><g transform="scale(0.02488,-0.02488)"><g transform="translate(3613.135,-3633.954)"><use xlink:href="#6915"/><use x="249" xlink:href="#6e15"/><use x="759" xlink:href="#6415"/><use x="1269" xlink:href="#6515"/><use x="1675" xlink:href="#6615"/><use x="1950" xlink:href="#4915"/><use x="2277" xlink:href="#6e15"/><use x="2760.877" xlink:href="#7415"/><use x="3114.877" xlink:href="#4f15"/><use x="3833.877" xlink:href="#7615"/><use x="4291.755" xlink:href="#6515"/><use x="4697.755" xlink:href="#7215"/></g></g></g></svg>