<?xml version="1.0" standalone="no"?>
<!DOCTYPE svg PUBLIC "-//W3C//DTD SVG 1.1//EN" "http://www.w3.org/Graphics/SVG/1.1/DTD/svg11.dtd" >
<svg>
<metadata>
Created by FontForge 20060822 at Fri Oct  6 18:21:47 2006
 By Wojciech Mula,,,
Copyright (C) 1997 American Mathematical Society. All Rights Reserved
</metadata>
<defs>
<font id="CMCSC10" horiz-adv-x="552" >
  <font-face 
    font-family="Computer Modern"
    font-weight="500"
    font-stretch="normal"
    units-per-em="1000"
    panose-1="2 0 6 3 0 0 0 0 0 0"
    ascent="750"
    descent="-250"
    x-height="514"
    cap-height="683"
    bbox="14 -250 1077 750"
    underline-thickness="0"
    underline-position="0"
    stemh="31"
    stemv="72"
    unicode-range="U+0020-U+F6BE"
  />
    <missing-glyph />
    <glyph glyph-name="Gamma" unicode="&#x393;" horiz-adv-x="683" 
d="M596 680l28 -225h-25c-16 137 -40 194 -188 194h-115c-47 0 -49 -7 -49 -40v-530c0 -35 0 -48 95 -48h33v-31c-36 3 -127 3 -168 3c-39 0 -117 0 -152 -3v31h24c77 0 79 11 79 47v524c0 36 -2 47 -79 47h-24v31h541z" />
    <glyph glyph-name="Delta" unicode="&#x394;" horiz-adv-x="902" 
d="M478 697l354 -675c1 -3 6 -12 6 -14c0 -8 -5 -8 -21 -8h-732c-16 0 -21 0 -21 8c0 2 5 11 6 14l354 675c8 15 10 19 27 19s19 -4 27 -19zM418 620l-285 -544h571z" />
    <glyph glyph-name="Theta" unicode="&#x398;" horiz-adv-x="844" 
d="M771 339c0 -200 -157 -361 -350 -361c-190 0 -349 159 -349 361c0 203 157 366 350 366c189 0 349 -161 349 -366zM422 1c108 0 252 91 252 338c0 246 -140 344 -253 344c-108 0 -252 -94 -252 -344c0 -242 140 -338 253 -338zM615 414v-144h-25v34h-337v-34h-25v144h25
v-34h337v34h25z" />
    <glyph glyph-name="Lambda" unicode="&#x39b;" horiz-adv-x="755" 
d="M401 695l214 -624c14 -40 31 -40 92 -40v-31c-39 1 -84 3 -123 3c-38 0 -109 0 -144 -3v31c27 0 84 0 84 30c0 5 -3 11 -4 15l-173 503l-164 -476c-2 -7 -5 -14 -5 -21c0 -24 24 -51 76 -51v-31c-31 1 -84 3 -113 3c-9 0 -60 -1 -93 -3v31c71 1 91 38 102 70l205 596
c5 13 7 19 22 19c17 0 19 -6 24 -21z" />
    <glyph glyph-name="Xi" unicode="&#x39e;" horiz-adv-x="727" 
d="M655 677l8 -156h-25c-1 19 -3 66 -14 78c-6 8 -75 8 -77 8h-367c-11 0 -73 0 -78 -9c-10 -14 -12 -57 -13 -77h-25l8 156h583zM66 0l-8 167h25c2 -42 4 -71 12 -86c6 -11 59 -11 84 -11h369c3 0 76 0 82 9c10 12 12 45 14 88h25l-8 -167h-595zM567 438v-172h-25v51h-357
v-51h-25v172h25v-51h357v51h25z" />
    <glyph glyph-name="Pi" unicode="&#x3a0;" horiz-adv-x="813" 
d="M655 602v-524c0 -36 2 -47 79 -47h24v-31c-35 3 -110 3 -148 3s-112 0 -147 -3v31h24c77 0 79 11 79 47v571h-319v-571c0 -36 2 -47 79 -47h24v-31c-35 3 -110 3 -148 3s-112 0 -147 -3v31h24c77 0 79 11 79 47v524c0 36 -2 47 -79 47h-24v31h703v-31h-24
c-77 0 -79 -11 -79 -47z" />
    <glyph glyph-name="Sigma" unicode="&#x3a3;" horiz-adv-x="786" 
d="M399 325l-260 -283h294c155 0 236 20 255 194h25l-28 -236h-587c-15 0 -25 0 -25 11c0 5 1 6 10 16l250 272l-261 361c0 23 2 23 26 23h587l28 -225h-25c-20 170 -93 194 -252 194h-249l216 -298c4 -5 6 -9 6 -12c0 -6 -9 -16 -10 -17z" />
    <glyph glyph-name="Upsilon" unicode="&#x3a5;" horiz-adv-x="844" 
d="M466 348v-269c0 -35 0 -48 95 -48h33v-31c-36 3 -132 3 -173 3s-136 0 -172 -3v31h33c95 0 95 14 95 48v269c0 113 -39 280 -169 280c-4 0 -97 0 -105 -80c-1 -5 -1 -13 -15 -13c-16 0 -16 9 -16 17c0 63 45 153 137 153c106 0 184 -88 212 -249h1c20 129 88 249 212 249
c92 0 137 -90 137 -153c0 -8 0 -17 -16 -17c-13 0 -14 7 -15 15c-8 71 -88 78 -105 78c-128 0 -169 -162 -169 -280z" />
    <glyph glyph-name="Phi" unicode="&#x3a6;" horiz-adv-x="786" 
d="M431 134v-55c0 -35 0 -48 95 -48h33v-31c-36 3 -129 3 -170 3s-133 0 -169 -3v31h33c95 0 95 14 95 48v56c-157 13 -276 102 -276 207c0 100 115 192 276 206v56c0 35 0 48 -95 48h-33v31c36 -3 129 -3 170 -3s133 0 169 3v-31h-33c-95 0 -95 -14 -95 -48v-55
c150 -11 282 -97 282 -208c0 -107 -128 -196 -282 -207zM348 158v367c-104 -12 -176 -66 -176 -184c0 -117 73 -171 176 -183zM431 526v-369c103 11 182 62 182 185c0 127 -85 174 -182 184z" />
    <glyph glyph-name="Psi" unicode="&#x3a8;" horiz-adv-x="844" 
d="M460 604v-445c128 28 152 153 153 241c1 102 27 154 95 154h38c16 0 24 0 24 -11c0 -9 -6 -10 -14 -11c-59 -9 -60 -93 -60 -139c-1 -60 -25 -236 -236 -258v-56c0 -35 0 -48 95 -48h33v-31c-36 3 -129 3 -170 3s-133 0 -169 -3v31h33c95 0 95 14 95 48v56
c-214 26 -230 209 -230 258c-1 116 -29 135 -65 139c-6 1 -9 6 -9 11c0 11 10 11 25 11h37c16 0 52 0 73 -39c15 -30 22 -61 22 -98c0 -57 1 -226 147 -257v444c0 35 0 48 -95 48h-33v31c36 -3 129 -3 170 -3s133 0 169 3v-31h-33c-95 0 -95 -14 -95 -48z" />
    <glyph glyph-name="Omega" unicode="&#x3a9;" horiz-adv-x="786" 
d="M724 162l-33 -162h-169c-22 0 -26 0 -26 20c0 70 31 149 55 211c31 77 59 149 59 224c0 152 -111 228 -218 228c-102 0 -217 -73 -217 -228c0 -75 29 -150 56 -217c27 -69 58 -148 58 -218c0 -20 -3 -20 -25 -20h-170l-33 162h25c5 -24 11 -59 19 -78c5 -11 9 -19 68 -19
h87c-15 58 -49 106 -88 162c-54 76 -100 143 -100 228c0 133 136 250 321 250c182 0 320 -116 320 -250c0 -88 -49 -158 -108 -240c-46 -64 -68 -106 -80 -150h87c61 0 64 8 69 24c8 21 13 48 18 73h25z" />
    <glyph glyph-name="arrowup" unicode="&#x2191;" 
d="M296 616v-777c0 -15 0 -33 -20 -33s-20 18 -20 33v777c-23 -24 -71 -74 -155 -104v31c85 32 138 85 175 150c42 -72 98 -121 175 -150v-31c-84 30 -132 80 -155 104z" />
    <glyph glyph-name="arrowdown" unicode="&#x2193;" 
d="M296 661v-777c23 24 71 74 155 104v-31c-85 -32 -138 -85 -175 -150c-42 72 -98 121 -175 150v31c84 -30 132 -80 155 -104v777c0 15 0 33 20 33s20 -18 20 -33z" />
    <glyph glyph-name="quotesingle" unicode="'" horiz-adv-x="319" 
d="M203 639l-33 -292h-22l-33 292c-2 16 -2 18 -2 26c0 42 37 46 46 46s46 -4 46 -46c0 -8 0 -10 -2 -26z" />
    <glyph glyph-name="exclamdown" unicode="&#xa1;" horiz-adv-x="319" 
d="M212 447c0 -29 -24 -53 -53 -53s-53 24 -53 53s24 53 53 53s53 -24 53 -53zM173 290l38 -444l1 -11c0 -33 -27 -51 -53 -51s-53 18 -53 51l39 456c1 17 4 22 14 22c12 0 13 -8 14 -23z" />
    <glyph glyph-name="questiondown" unicode="&#xbf;" horiz-adv-x="523" 
d="M300 447c0 -29 -24 -53 -53 -53s-53 24 -53 53s24 53 53 53s53 -24 53 -53zM260 301v-24c0 -67 -4 -164 -76 -256c-17 -23 -29 -38 -29 -98c0 -46 0 -106 95 -106c9 0 122 0 163 68c-38 -4 -54 23 -54 45c0 26 18 46 46 46c23 0 46 -14 46 -48c0 -81 -90 -133 -204 -133
c-145 0 -175 82 -175 135c0 42 16 76 50 103c113 91 113 195 113 240v16c0 18 0 24 12 24c3 0 12 0 13 -12z" />
    <glyph glyph-name="dotlessi" unicode="&#x131;" horiz-adv-x="302" 
d="M187 441v-368c0 -43 5 -48 76 -48v-25c-34 1 -86 3 -112 3s-78 -2 -112 -3v25c71 0 76 5 76 48v368c0 43 -5 48 -76 48v25c34 -1 86 -3 112 -3s78 2 112 3v-25c-71 0 -76 -5 -76 -48z" />
    <glyph glyph-name="dotlessj" unicode="&#xf6be;" horiz-adv-x="424" 
d="M248 116v323c0 39 -4 50 -76 50h-18v25c27 -2 111 -3 122 -3c5 0 59 0 95 3v-25c-54 0 -54 -4 -54 -65v-280c0 -17 0 -46 -1 -52c-12 -67 -78 -106 -145 -106c-72 0 -125 45 -125 98c0 29 20 43 42 43c23 0 41 -18 41 -41c0 -15 -7 -40 -43 -42c23 -28 61 -36 83 -36
c31 0 79 26 79 108z" />
    <glyph glyph-name="grave" unicode="`" 
d="M304 509l-158 122c-7 5 -19 14 -19 31s17 36 36 36c15 0 20 -7 32 -21l126 -149z" />
    <glyph glyph-name="acute" unicode="&#xb4;" 
d="M407 632l-159 -123l-17 19l122 145c14 17 21 25 36 25c19 0 36 -19 36 -36c0 -16 -12 -25 -18 -30z" />
    <glyph glyph-name="caron" unicode="&#x2c7;" 
d="M276 569l124 69l14 -20l-138 -102l-138 102l14 20z" />
    <glyph glyph-name="breve" unicode="&#x2d8;" 
d="M410 694h22c-1 -101 -73 -172 -156 -172s-155 71 -156 172h22c2 -85 69 -134 134 -134c64 0 132 48 134 134z" />
    <glyph glyph-name="macron" unicode="&#xaf;" 
d="M465 559h-378v31h378v-31z" />
    <glyph glyph-name="ring" unicode="&#x2da;" horiz-adv-x="813" 
d="M506 628c0 -45 -41 -87 -100 -87c-53 0 -99 38 -99 88c0 45 41 87 100 87c53 0 99 -38 99 -88zM406 563c38 0 75 13 75 66c0 65 -59 65 -75 65c-48 0 -74 -22 -74 -66c0 -35 17 -65 74 -65z" />
    <glyph glyph-name="cedilla" unicode="&#xb8;" horiz-adv-x="494" 
d="M310 -22v-32c19 -3 88 -14 88 -72c0 -47 -49 -77 -199 -77h-45v22h32c83 0 143 13 143 55c0 28 -27 54 -88 55v49h69z" />
    <glyph glyph-name="germandbls" unicode="&#xdf;" horiz-adv-x="915" 
d="M384 504v-136c0 -19 0 -24 -13 -24c-11 0 -11 6 -13 13c-4 32 -22 149 -149 149c-67 0 -107 -49 -107 -95c0 -30 16 -69 66 -89c6 -2 41 -10 62 -15c85 -20 101 -23 138 -61c0 -1 39 -41 39 -104c0 -79 -62 -156 -159 -156c-65 0 -117 23 -146 49c-4 -6 -14 -21 -19 -26
c-15 -22 -16 -23 -22 -23c-10 0 -10 8 -10 24v135c0 18 0 25 13 25c3 0 11 -1 12 -9c1 -27 4 -76 49 -111c43 -35 97 -39 123 -39c69 0 108 54 108 104c0 44 -27 71 -32 75c-23 21 -33 23 -87 36c-92 21 -112 25 -142 55c-12 12 -44 45 -44 101c0 78 66 146 157 146
c41 0 87 -12 125 -49c4 6 14 21 19 26c15 22 16 23 22 23c10 0 10 -8 10 -24zM828 504v-136c0 -19 0 -24 -13 -24c-11 0 -11 6 -13 13c-4 32 -22 149 -149 149c-67 0 -107 -49 -107 -95c0 -30 16 -69 66 -89c6 -2 41 -10 62 -15c85 -20 101 -23 138 -61c0 -1 39 -41 39 -104
c0 -79 -62 -156 -159 -156c-65 0 -117 23 -146 49c-4 -6 -14 -21 -19 -26c-15 -22 -16 -23 -22 -23c-10 0 -10 8 -10 24v135c0 18 0 25 13 25c3 0 11 -1 12 -9c1 -27 4 -76 49 -111c43 -35 97 -39 123 -39c69 0 108 54 108 104c0 44 -27 71 -32 75c-23 21 -33 23 -87 36
c-92 21 -112 25 -142 55c-12 12 -44 45 -44 101c0 78 66 146 157 146c41 0 87 -12 125 -49c4 6 14 21 19 26c15 22 16 23 22 23c10 0 10 -8 10 -24z" />
    <glyph glyph-name="ae" unicode="&#xe6;" horiz-adv-x="735" 
d="M707 194l-29 -194h-392v25c50 0 54 6 54 45v165h-132l-54 -136c-5 -11 -8 -19 -8 -30c0 -7 0 -41 44 -44v-25c-15 1 -60 3 -82 3c-23 0 -52 -1 -74 -3v25c58 1 78 40 90 69l158 394c-11 1 -21 1 -32 1h-27v25h443l19 -169h-25c-11 106 -31 144 -137 144h-76
c-35 0 -40 -3 -40 -43v-186h64c73 0 83 21 83 87h25v-199h-25c0 67 -11 87 -83 87h-64v-167c0 -40 5 -43 40 -43h77c118 0 141 44 158 169h25zM308 485l-90 -225h122v177c0 18 0 45 -32 48z" />
    <glyph glyph-name="oe" unicode="&#x153;" horiz-adv-x="824" 
d="M795 194l-29 -194h-312c-15 0 -26 0 -77 -9c-28 -5 -44 -5 -50 -5c-140 0 -265 115 -265 269c0 152 122 273 265 273c11 0 23 0 68 -8c34 -6 47 -6 59 -6h300l19 -169h-25c-10 109 -35 144 -141 144h-86c-35 0 -40 -3 -40 -43v-167h82c75 0 90 19 90 87h25v-199h-25
c0 68 -14 87 -90 87h-82v-186c0 -40 5 -43 40 -43h89c122 0 143 48 160 169h25zM330 8c71 0 79 33 85 84c3 27 3 120 3 165c0 66 0 144 -4 175c-6 45 -17 74 -84 74c-100 0 -185 -102 -185 -240c0 -142 82 -258 185 -258z" />
    <glyph glyph-name="oslash" unicode="&#xf8;" horiz-adv-x="635" 
d="M537 556l-57 -85c57 -42 105 -123 105 -216c0 -151 -121 -269 -267 -269c-65 0 -116 24 -142 41l-57 -83l-20 14l56 83c-66 55 -104 127 -104 214c0 149 118 273 267 273c47 0 95 -12 142 -42l57 84zM176 72l265 388c-34 29 -77 46 -123 46c-41 0 -108 -14 -154 -81
c-41 -60 -41 -145 -41 -170c0 -99 24 -148 53 -183zM459 441l-264 -387c36 -33 84 -46 123 -46c61 0 117 28 152 77c37 52 43 117 43 170c0 83 -17 142 -54 186z" />
    <glyph glyph-name="AE" unicode="&#xc6;" horiz-adv-x="974" 
d="M931 258l-42 -258h-516v31c66 0 77 0 77 45v237h-172l-81 -213c-4 -11 -5 -13 -5 -19c0 -25 22 -49 73 -50v-31c-32 1 -84 3 -115 3c-36 0 -79 -2 -102 -3v31c41 0 93 8 115 67l211 553c-12 1 -26 1 -38 1h-47v31h585l28 -225h-25c-16 134 -37 194 -183 194h-112
c-47 0 -49 -7 -49 -40v-268h94c97 0 108 33 108 117h25v-265h-25c0 85 -11 117 -108 117h-94v-242c0 -33 2 -40 49 -40h111c172 0 188 77 213 227h25zM406 649l-116 -305h160v260c0 16 0 44 -44 45z" />
    <glyph glyph-name="OE" unicode="&#x152;" horiz-adv-x="1091" 
d="M1048 258l-42 -258h-411c-25 0 -41 -2 -93 -14c-39 -8 -59 -8 -69 -8c-181 0 -347 154 -347 361s162 366 348 366c28 0 51 -5 86 -13c43 -9 64 -9 75 -9h396l28 -225h-25c-16 138 -41 194 -190 194h-126c-47 0 -49 -7 -49 -40v-242h117c102 0 120 27 120 117h25v-265h-25
c0 90 -19 117 -120 117h-117v-268c0 -33 2 -40 49 -40h128c172 0 192 74 217 227h25zM438 0c95 0 104 51 111 115c4 36 4 126 4 227c0 106 0 191 -5 234c-7 63 -20 107 -111 107c-134 0 -251 -138 -251 -329c0 -197 113 -354 252 -354z" />
    <glyph glyph-name="Oslash" unicode="&#xd8;" horiz-adv-x="844" 
d="M715 725l-74 -102c56 -45 130 -145 130 -284c0 -200 -157 -361 -350 -361c-71 0 -142 24 -201 65l-71 -99l-21 14l73 101c-31 28 -129 116 -129 280c0 203 157 366 350 366c103 0 173 -47 200 -66l72 100zM228 96l370 511c-60 59 -123 76 -177 76
c-51 0 -260 -22 -260 -344c0 -155 46 -216 67 -243zM614 587l-369 -511c44 -48 109 -76 177 -76c57 0 260 26 260 339c0 67 -7 173 -68 248z" />
    <glyph glyph-name="suppress" horiz-adv-x="319" 
d="M287 363l-234 -83l-10 30l234 82z" />
    <glyph glyph-name="exclam" unicode="!" horiz-adv-x="319" 
d="M212 665l-39 -456c-1 -17 -4 -22 -14 -22c-12 0 -13 8 -14 23l-39 455c0 33 27 51 53 51s53 -18 53 -51zM212 53c0 -29 -24 -53 -53 -53s-53 24 -53 53s24 53 53 53s53 -24 53 -53z" />
    <glyph glyph-name="quotedblright" unicode="&#x201d;" 
d="M147 611c-4 -6 -18 -23 -45 -23c-36 0 -53 27 -53 53s18 53 53 53c46 0 68 -50 68 -105c0 -118 -85 -194 -96 -194c-6 0 -11 5 -11 11c0 2 0 4 5 9c19 18 80 74 80 175c0 6 0 15 -1 21zM351 611c-4 -6 -18 -23 -45 -23c-36 0 -53 27 -53 53s18 53 53 53
c46 0 68 -50 68 -105c0 -118 -85 -194 -96 -194c-6 0 -11 5 -11 11c0 2 0 4 5 9c19 18 80 74 80 175c0 6 0 15 -1 21z" />
    <glyph glyph-name="numbersign" unicode="#" horiz-adv-x="902" 
d="M559 133l-87 -304c-4 -14 -7 -23 -21 -23c-11 0 -20 9 -20 20c0 4 3 13 4 18l83 289h-201l-87 -304c-4 -14 -7 -23 -21 -23c-11 0 -20 9 -20 20c0 4 3 13 4 18l83 289h-171c-14 0 -33 0 -33 20s19 20 34 20h182l43 154h-225c-15 0 -34 0 -34 20s19 20 33 20h238l87 304
c4 14 7 23 21 23c11 0 20 -9 20 -20c0 -4 -3 -13 -4 -18l-83 -289h201l87 304c4 14 7 23 21 23c11 0 20 -9 20 -20c0 -4 -3 -13 -4 -18l-83 -289h171c14 0 33 0 33 -20s-19 -20 -34 -20h-182l-43 -154h225c15 0 34 0 34 -20s-19 -20 -33 -20h-238zM329 173h201l43 154h-201z
" />
    <glyph glyph-name="dollar" unicode="$" 
d="M292 674v-271c51 -12 91 -22 130 -65c49 -52 58 -108 58 -143c0 -104 -78 -196 -188 -205v-46h-31v45c-131 7 -189 97 -189 189c0 49 40 51 46 51c25 0 46 -18 46 -46c0 -27 -19 -46 -46 -46c-4 0 -12 1 -16 2c17 -74 77 -114 159 -119v299c-56 13 -92 21 -134 63
c-43 43 -55 93 -55 131c0 94 75 183 189 191v46h31v-45c125 -7 188 -84 188 -176c0 -49 -43 -50 -46 -50c-21 0 -46 15 -46 46c0 28 20 46 46 46c7 0 13 -1 15 -2c-13 54 -65 100 -157 105zM261 410v263c-87 -8 -138 -70 -138 -130c0 -101 107 -126 138 -133zM292 311v-290
c92 11 137 82 137 144c0 46 -22 81 -42 100c-32 32 -66 40 -95 46z" />
    <glyph glyph-name="percent" unicode="%" horiz-adv-x="902" 
d="M830 145c0 -111 -60 -201 -138 -201s-154 82 -154 202c0 116 74 201 154 201c77 0 138 -88 138 -202zM694 -34c54 0 111 71 111 180c0 106 -56 179 -111 179c-19 0 -94 -10 -94 -180c0 -169 75 -179 94 -179zM733 712l-532 -754c-10 -14 -17 -14 -21 -14
c-10 0 -20 9 -20 20c0 3 0 7 10 21l472 667l-1 1c-62 -35 -119 -35 -139 -35c-87 0 -153 39 -161 44c20 -45 23 -89 23 -114c0 -111 -60 -201 -138 -201s-154 82 -154 202c0 116 74 201 154 201c35 0 59 -17 74 -31c75 -66 150 -79 202 -79c93 0 157 41 199 95
c7 9 11 15 21 15c11 0 20 -9 20 -20c0 -5 0 -7 -9 -18zM228 369c54 0 111 71 111 180c0 106 -56 179 -111 179c-19 0 -94 -10 -94 -180c0 -169 75 -179 94 -179z" />
    <glyph glyph-name="ampersand" unicode="&#x26;" horiz-adv-x="844" 
d="M746 121h25c-2 -85 -68 -143 -149 -143c-64 0 -125 27 -184 76c-64 -53 -126 -76 -190 -76c-105 0 -190 64 -190 150c0 53 26 79 66 120l104 104c-19 53 -41 121 -41 203c0 107 77 161 140 161c69 0 90 -78 90 -129c0 -28 -8 -79 -120 -194c-6 -6 -6 -8 -6 -10
c0 -18 72 -153 173 -268c20 23 43 49 76 98c29 41 57 83 82 126c0 1 4 8 4 19c0 28 -31 42 -68 42v31c27 -2 111 -3 122 -3c6 0 60 1 97 3v-31c-89 -1 -113 -39 -146 -91c-61 -98 -95 -151 -151 -214c44 -43 88 -86 146 -86c46 0 117 31 120 112zM281 408
c81 84 111 138 111 179c0 4 -1 107 -64 107c-31 0 -78 -28 -78 -117c0 -24 2 -87 31 -169zM238 331c-69 -67 -97 -95 -97 -172c0 -63 33 -150 115 -150c44 0 101 14 163 63c-102 105 -156 201 -181 259z" />
    <glyph glyph-name="quoteright" unicode="&#x2019;" horiz-adv-x="319" 
d="M204 611c-4 -6 -18 -23 -45 -23c-36 0 -53 27 -53 53s18 53 53 53c46 0 68 -50 68 -105c0 -118 -85 -194 -96 -194c-6 0 -11 5 -11 11c0 2 0 4 5 9c19 18 80 74 80 175c0 6 0 15 -1 21z" />
    <glyph glyph-name="parenleft" unicode="(" horiz-adv-x="436" 
d="M362 -240c0 -7 -4 -10 -10 -10c-13 0 -233 151 -233 500c0 162 50 320 154 433c17 19 66 67 79 67c6 0 10 -3 10 -10c0 -4 -2 -6 -4 -9c-52 -49 -181 -174 -181 -481c0 -312 136 -439 181 -481c3 -3 4 -6 4 -9z" />
    <glyph glyph-name="parenright" unicode=")" horiz-adv-x="436" 
d="M316 250c0 -351 -222 -500 -232 -500c-7 0 -11 4 -11 10c0 3 2 6 4 9c35 33 99 94 140 215c34 102 41 193 41 266c0 264 -95 401 -180 480c-1 1 -5 6 -5 10c0 6 4 10 11 10c11 0 232 -150 232 -500z" />
    <glyph glyph-name="asterisk" unicode="*" 
d="M287 515l14 -148c0 -4 2 -20 2 -22c0 -18 -15 -26 -27 -26c-21 0 -30 20 -26 27v5l15 164l-135 -94c-8 -6 -13 -8 -20 -8c-13 0 -27 10 -27 28c0 6 0 17 22 27l148 67l-149 67c-13 6 -21 12 -21 26c0 18 14 28 27 28c7 0 9 -1 19 -8l136 -94l-14 148c0 4 -2 20 -2 22
c0 18 15 26 27 26c26 0 27 -22 26 -37l-15 -159l135 94c8 6 13 8 20 8c13 0 27 -10 27 -28c0 -6 0 -17 -22 -27l-148 -67l149 -67c13 -6 21 -12 21 -26c0 -18 -14 -28 -27 -28c-7 0 -9 1 -19 8z" />
    <glyph glyph-name="plus" unicode="+" horiz-adv-x="844" 
d="M442 230v-297c0 -14 0 -33 -20 -33s-20 19 -20 33v297h-297c-14 0 -33 0 -33 20s19 20 33 20h297v297c0 14 0 33 20 33s20 -19 20 -33v-297h296c14 0 33 0 33 -20s-19 -20 -33 -20h-296z" />
    <glyph glyph-name="comma" unicode="," horiz-adv-x="319" 
d="M200 19c-14 -19 -37 -19 -41 -19c-36 0 -53 27 -53 53s18 53 53 53c45 0 65 -49 65 -105c0 -117 -82 -194 -93 -194c-6 0 -11 5 -11 11c0 4 0 5 10 13c11 11 72 72 72 170c0 10 0 12 -2 18z" />
    <glyph glyph-name="hyphen" unicode="-" horiz-adv-x="377" 
d="M305 187h-279v58h279v-58z" />
    <glyph glyph-name="period" unicode="." horiz-adv-x="319" 
d="M212 53c0 -29 -24 -53 -53 -53s-53 24 -53 53s24 53 53 53s53 -24 53 -53z" />
    <glyph glyph-name="slash" unicode="/" 
d="M475 712l-362 -942c-4 -11 -8 -20 -21 -20c-11 0 -20 9 -20 20c0 1 0 6 5 18l362 942c4 11 8 20 21 20c11 0 20 -9 20 -20c0 -1 0 -6 -5 -18z" />
    <glyph glyph-name="zero" unicode="0" 
d="M495 320c0 -72 -4 -161 -43 -236c-47 -88 -126 -106 -176 -106c-32 0 -121 7 -174 102c-42 77 -45 171 -45 240c0 121 15 182 44 240c37 72 107 106 175 106c65 0 135 -31 173 -104c37 -70 46 -144 46 -242zM276 0c23 0 101 7 124 125c12 59 12 142 12 206
c0 71 0 152 -14 205c-23 95 -93 108 -122 108c-35 0 -105 -18 -125 -118c-11 -57 -11 -124 -11 -195c0 -63 0 -152 13 -213c21 -96 84 -118 123 -118z" />
    <glyph glyph-name="one" unicode="1" 
d="M322 640v-561c0 -34 0 -48 96 -48h35v-31c-36 3 -127 3 -168 3s-132 0 -168 -3v31h35c96 0 96 14 96 48v519c-56 -27 -112 -27 -137 -27v31c74 0 139 15 188 64c23 0 23 -2 23 -26z" />
    <glyph glyph-name="two" unicode="2" 
d="M486 174l-28 -174h-392c0 23 0 25 10 35l217 229c78 83 102 151 102 208c0 88 -53 163 -145 163c-67 0 -123 -42 -144 -102c3 1 9 1 12 1c35 0 53 -26 53 -52c0 -41 -35 -53 -52 -53c-3 0 -53 0 -53 56c0 90 78 181 197 181c125 0 223 -77 223 -194
c0 -92 -59 -146 -122 -204c-18 -16 -64 -52 -81 -68c-5 -4 -87 -79 -136 -123h193c14 0 89 0 96 7c13 11 22 73 25 90h25z" />
    <glyph glyph-name="three" unicode="3" 
d="M263 337h-50c-17 0 -24 0 -24 11s6 11 24 12c63 4 88 6 118 41c42 51 42 118 42 128c0 85 -55 112 -104 112c-46 0 -113 -17 -141 -62c14 0 61 0 61 -50c0 -29 -20 -51 -51 -51c-29 0 -51 19 -51 52c0 80 83 136 186 136c101 0 192 -57 192 -138
c0 -59 -36 -138 -146 -176c110 -21 175 -100 175 -181c0 -100 -92 -193 -223 -193c-114 0 -213 64 -213 157c0 44 32 58 56 58c29 0 56 -20 56 -56c0 -35 -28 -60 -65 -55c41 -68 135 -76 163 -76c53 0 123 35 123 165c0 104 -46 166 -128 166z" />
    <glyph glyph-name="four" unicode="4" 
d="M402 651v-455h107v-31h-107v-87c0 -36 2 -47 79 -47h23v-31c-37 3 -101 3 -140 3s-104 0 -141 -3v31h23c77 0 79 11 79 47v87h-282v31l322 467c10 13 11 14 21 14c16 0 16 -6 16 -26zM331 574l-260 -378h260v378z" />
    <glyph glyph-name="five" unicode="5" 
d="M152 565v-198c16 16 60 53 135 53c115 0 199 -102 199 -219c0 -125 -105 -223 -228 -223c-115 0 -192 93 -192 184c0 41 30 52 49 52c33 0 50 -25 50 -49s-17 -49 -50 -49c-11 0 -14 1 -17 2c21 -63 83 -112 158 -112c41 0 83 19 112 61c29 45 29 105 29 140
c0 44 -2 96 -25 137c-16 27 -44 54 -87 54c-36 0 -92 -10 -133 -66c-9 -11 -10 -13 -18 -13c-13 0 -13 8 -13 26v297c0 16 0 24 10 24c1 0 3 0 12 -5c45 -18 92 -27 140 -27c36 0 85 5 139 27c10 5 12 5 13 5c7 0 10 -5 10 -11c0 -14 -75 -104 -200 -104c-13 0 -47 0 -93 14
z" />
    <glyph glyph-name="six" unicode="6" 
d="M148 346v-24c15 40 56 104 136 104c84 0 122 -39 149 -65c57 -58 61 -121 61 -157c0 -133 -101 -226 -216 -226c-104 0 -220 78 -220 339c0 217 139 349 276 349c93 0 134 -52 134 -108c0 -39 -30 -48 -46 -48c-22 0 -46 15 -46 46c0 45 41 45 54 45
c-24 35 -69 40 -94 40c-47 0 -188 -28 -188 -295zM278 6c53 0 81 26 100 54c26 40 26 88 26 144c0 51 0 100 -21 137c-35 63 -80 63 -100 63c-95 0 -133 -102 -133 -178c0 -41 5 -102 20 -141c6 -16 37 -79 108 -79z" />
    <glyph glyph-name="seven" unicode="7" 
d="M514 609l-142 -189c-57 -76 -79 -198 -79 -338v-49c0 -10 0 -55 -46 -55s-46 45 -46 55c0 30 0 203 143 396l102 138h-221c-15 0 -90 0 -101 -5c-14 -8 -24 -75 -27 -92h-25l33 206h25c3 -15 4 -25 56 -29c36 -3 40 -3 81 -3h256c0 -22 0 -24 -9 -35z" />
    <glyph glyph-name="eight" unicode="8" 
d="M338 362l60 -37c79 -49 96 -114 96 -158c0 -106 -98 -189 -219 -189c-107 0 -217 63 -217 173c0 106 95 155 153 185c-60 36 -124 73 -124 163c0 94 85 167 190 167c95 0 188 -56 188 -148c0 -73 -56 -121 -127 -156zM315 377c25 13 106 60 106 140
c0 74 -68 124 -146 124c-74 0 -144 -40 -144 -103c0 -49 36 -71 75 -95c22 -14 69 -43 109 -66zM235 320c-86 -41 -127 -106 -127 -169c0 -85 79 -145 169 -145c84 0 167 48 167 126c0 60 -49 90 -75 106z" />
    <glyph glyph-name="nine" unicode="9" 
d="M404 293v31c-11 -26 -46 -105 -136 -105c-80 0 -119 34 -153 69c-53 56 -57 118 -57 153c0 72 22 116 67 160c32 33 76 65 154 65c101 0 215 -75 215 -337c0 -214 -127 -351 -264 -351c-93 0 -146 43 -146 108c0 39 30 48 46 48c22 0 46 -15 46 -46c0 -17 -8 -46 -52 -46
c29 -35 87 -36 105 -36c59 0 175 41 175 287zM269 241c96 0 133 104 133 179c0 14 0 95 -20 145c-1 3 -30 76 -102 76c-50 0 -79 -21 -102 -53c-29 -41 -30 -82 -30 -148c0 -51 0 -101 22 -140c35 -59 80 -59 99 -59z" />
    <glyph glyph-name="colon" unicode=":" horiz-adv-x="319" 
d="M212 378c0 -29 -24 -53 -53 -53s-53 24 -53 53s24 53 53 53s53 -24 53 -53zM212 53c0 -29 -24 -53 -53 -53s-53 24 -53 53s24 53 53 53s53 -24 53 -53z" />
    <glyph glyph-name="semicolon" unicode=";" horiz-adv-x="319" 
d="M212 378c0 -29 -24 -53 -53 -53s-53 24 -53 53s24 53 53 53s53 -24 53 -53zM193 11c-8 -7 -19 -9 -26 -10c-1 -1 -3 -1 -8 -1c-36 0 -53 27 -53 53s18 53 53 53c54 0 56 -74 56 -103c0 -118 -74 -196 -84 -196c-6 0 -11 5 -11 11c0 4 1 5 8 13c65 74 65 151 65 180z" />
    <glyph glyph-name="less" unicode="&#x3c;" horiz-adv-x="844" 
d="M723 498l-553 -248l553 -248c8 -4 19 -8 19 -21c0 -14 -12 -20 -20 -20c-1 0 -5 0 -17 5l-585 262c-13 6 -19 12 -19 22c0 13 10 17 20 22l600 268c12 -1 21 -9 21 -21c0 -13 -11 -17 -19 -21z" />
    <glyph glyph-name="equal" unicode="=" horiz-adv-x="844" 
d="M737 327h-631c-15 0 -34 0 -34 20s19 20 33 20h633c14 0 33 0 33 -20s-19 -20 -34 -20zM738 133h-633c-14 0 -33 0 -33 20s19 20 34 20h631c15 0 34 0 34 -20s-19 -20 -33 -20z" />
    <glyph glyph-name="greater" unicode="&#x3e;" horiz-adv-x="844" 
d="M673 250l-553 248c-10 5 -19 9 -19 22c0 10 10 19 20 19c1 0 5 0 17 -5l585 -262c13 -6 19 -12 19 -22c0 -13 -10 -17 -20 -22l-600 -268c-15 2 -21 13 -21 20c0 13 9 17 19 22z" />
    <glyph glyph-name="question" unicode="?" horiz-adv-x="523" 
d="M260 249v-35c0 -18 0 -27 -13 -27c-12 0 -12 6 -12 24v44c0 87 39 168 100 229c14 14 33 34 33 90c0 41 -2 109 -119 109c-41 0 -107 -12 -140 -68c13 0 55 0 55 -45c0 -26 -18 -46 -46 -46c-23 0 -46 14 -46 48c0 67 65 133 180 133c159 0 199 -79 199 -135
c0 -41 -21 -78 -51 -99c-33 -22 -140 -95 -140 -222zM300 53c0 -29 -24 -53 -53 -53s-53 24 -53 53s24 53 53 53s53 -24 53 -53z" />
    <glyph glyph-name="at" unicode="@" horiz-adv-x="844" 
d="M631 457v-240c0 -13 0 -67 37 -67c66 0 78 87 78 186c0 224 -168 347 -325 347c-176 0 -324 -148 -324 -336c0 -177 135 -336 329 -336c144 0 252 48 289 64c6 3 8 3 23 3h9c16 0 23 0 23 -10c0 -9 -24 -17 -59 -30c-109 -38 -210 -49 -284 -49c-212 0 -355 172 -355 358
c0 197 156 358 350 358c176 0 349 -141 349 -365c0 -120 -23 -212 -107 -212c-42 0 -94 22 -103 73c-32 -43 -83 -73 -140 -73c-112 0 -209 95 -209 219s97 219 209 219c54 0 110 -27 149 -85h37c23 0 24 -1 24 -24zM562 265v164c0 19 0 22 -15 44c-37 52 -85 71 -125 71
c-75 0 -141 -85 -141 -197c0 -113 66 -197 141 -197c40 0 91 20 128 76c12 19 12 20 12 39z" />
    <glyph glyph-name="A" unicode="A" horiz-adv-x="813" 
d="M431 694l232 -626c10 -28 20 -37 84 -37h18v-31c-42 2 -88 3 -131 3c-38 0 -108 0 -144 -3v31c26 0 82 0 82 29c0 3 0 5 -5 18l-57 153h-266l-48 -130c-5 -12 -5 -14 -5 -20c0 -24 23 -50 74 -50v-31c-17 1 -74 3 -116 3c-40 0 -80 -2 -101 -3v31c89 1 105 46 114 69
l221 597c5 13 7 19 23 19c17 0 18 -4 25 -22zM377 592l-122 -330h244z" />
    <glyph glyph-name="B" unicode="B" horiz-adv-x="770" 
d="M58 683h378c134 0 233 -80 233 -169c0 -77 -78 -139 -175 -157c123 -13 204 -90 204 -174c0 -94 -96 -183 -234 -183h-406v31h24c77 0 79 11 79 47v527c0 36 -2 47 -79 47h-24v31zM244 366h156c113 0 172 78 172 148c0 56 -41 138 -143 138h-136c-47 0 -49 -7 -49 -40
v-246zM293 31h138c107 0 167 79 167 153c0 71 -50 160 -153 160h-201v-273c0 -33 2 -40 49 -40z" />
    <glyph glyph-name="C" unicode="C" horiz-adv-x="786" 
d="M713 681v-237c0 -21 0 -24 -16 -24c-13 0 -14 3 -16 17c-23 154 -125 237 -232 237c-69 0 -274 -38 -274 -333c0 -280 188 -332 276 -332c112 0 229 80 237 225c1 10 1 16 12 16c13 0 13 -7 13 -17c0 -119 -106 -255 -275 -255c-198 0 -366 160 -366 364
c0 203 168 363 365 363c103 0 164 -55 197 -89l52 77c8 12 12 12 16 12c11 0 11 -7 11 -24z" />
    <glyph glyph-name="D" unicode="D" horiz-adv-x="829" 
d="M57 683h378c178 0 321 -156 321 -347c0 -188 -145 -336 -321 -336h-378v31h24c77 0 79 11 79 47v527c0 36 -2 47 -79 47h-24v31zM295 31h113c78 0 142 32 183 78c47 54 65 126 65 227c0 76 -11 163 -56 222c-58 77 -136 94 -192 94h-113c-47 0 -49 -7 -49 -40v-541
c0 -33 2 -40 49 -40z" />
    <glyph glyph-name="E" unicode="E" horiz-adv-x="741" 
d="M698 258l-42 -258h-601v31h24c77 0 79 11 79 47v524c0 36 -2 47 -79 47h-24v31h586l28 -225h-25c-16 143 -48 194 -205 194h-143c-47 0 -49 -7 -49 -40v-240h98c99 0 113 30 113 117h25v-265h-25c0 87 -14 117 -113 117h-98v-267c0 -33 2 -40 49 -40h151
c177 0 201 74 226 227h25z" />
    <glyph glyph-name="F" unicode="F" horiz-adv-x="712" 
d="M625 680l28 -225h-25c-16 140 -44 194 -199 194h-133c-47 0 -49 -7 -49 -40v-253h94c98 0 110 31 110 117h25v-265h-25c0 86 -12 117 -110 117h-94v-246c0 -35 0 -48 95 -48h33v-31c-36 3 -127 3 -168 3c-39 0 -117 0 -152 -3v31h24c77 0 79 11 79 47v524
c0 36 -2 47 -79 47h-24v31h570z" />
    <glyph glyph-name="G" unicode="G" horiz-adv-x="851" 
d="M712 198v-174c0 -15 0 -23 -9 -23c-11 0 -51 40 -64 62c-35 -59 -121 -85 -200 -85c-203 0 -367 163 -367 364s166 363 365 363c106 0 165 -59 196 -89l52 77c8 12 12 12 16 12c11 0 11 -7 11 -24v-237c0 -21 0 -24 -16 -24c-13 0 -14 3 -16 17
c-23 155 -125 237 -231 237c-82 0 -274 -49 -274 -332c0 -281 190 -333 281 -333c12 0 167 0 167 121v64c0 34 0 48 -96 48h-35v31c36 -3 125 -3 166 -3c43 0 79 1 127 3v-31c-62 0 -73 0 -73 -44z" />
    <glyph glyph-name="H" unicode="H" horiz-adv-x="813" 
d="M655 605v-527c0 -36 2 -47 79 -47h24v-31c-35 3 -110 3 -148 3s-112 0 -147 -3v31h24c77 0 79 11 79 47v262h-319v-262c0 -36 2 -47 79 -47h24v-31c-35 3 -110 3 -148 3s-112 0 -147 -3v31h24c77 0 79 11 79 47v527c0 36 -2 47 -79 47h-24v31c35 -3 110 -3 148 -3
s112 0 147 3v-31h-24c-77 0 -79 -11 -79 -47v-234h319v234c0 36 -2 47 -79 47h-24v31c35 -3 110 -3 148 -3s112 0 147 3v-31h-24c-77 0 -79 -11 -79 -47z" />
    <glyph glyph-name="I" unicode="I" horiz-adv-x="405" 
d="M247 605v-527c0 -36 3 -47 82 -47h26v-31c-35 3 -114 3 -153 3c-38 0 -117 0 -152 -3v31h26c79 0 82 11 82 47v527c0 36 -3 47 -82 47h-26v31c35 -3 114 -3 153 -3c38 0 117 0 152 3v-31h-26c-79 0 -82 -11 -82 -47z" />
    <glyph glyph-name="J" unicode="J" horiz-adv-x="566" 
d="M335 149v455c0 35 0 48 -98 48h-36v31c38 -3 126 -3 168 -3c47 0 85 1 129 3v-31c-64 0 -77 0 -77 -42v-444c0 -33 0 -35 -1 -41c-13 -90 -100 -147 -191 -147c-97 0 -167 62 -167 134c0 44 34 58 56 58c28 0 56 -20 56 -56c0 -26 -12 -56 -64 -56c19 -32 66 -58 116 -58
c55 0 109 53 109 149z" />
    <glyph glyph-name="K" unicode="K" horiz-adv-x="843" 
d="M434 419l240 -337c36 -51 65 -51 111 -51v-31c-38 1 -80 3 -116 3c-38 0 -108 0 -143 -3v31c19 0 57 0 57 29c0 11 -10 26 -16 34l-194 271l-126 -114v-173c0 -36 2 -47 79 -47h24v-31c-35 3 -110 3 -148 3s-112 0 -147 -3v31h24c77 0 79 11 79 47v527c0 36 -2 47 -79 47
h-24v31c35 -3 110 -3 148 -3s112 0 147 3v-31h-24c-77 0 -79 -11 -79 -47v-320l333 300c16 15 21 26 21 35s-5 31 -43 32v31c34 -3 91 -3 127 -3c27 0 59 0 85 3v-31c-60 -1 -110 -27 -147 -61z" />
    <glyph glyph-name="L" unicode="L" horiz-adv-x="683" 
d="M624 258l-28 -258h-541v31h24c77 0 79 11 79 47v527c0 36 -2 47 -79 47h-24v31c35 -3 113 -3 152 -3c41 0 132 0 168 3v-31h-33c-95 0 -95 -14 -95 -48v-533c0 -33 2 -40 49 -40h94c184 0 198 127 209 227h25z" />
    <glyph glyph-name="M" unicode="M" horiz-adv-x="988" 
d="M262 665l232 -570l232 569c8 19 11 19 34 19h169v-31h-24c-77 0 -79 -11 -79 -47v-527c0 -36 2 -47 79 -47h24v-31c-37 3 -104 3 -143 3s-107 0 -144 -3v31h24c77 0 79 11 79 47v575l-1 1l-259 -636c-4 -9 -9 -18 -19 -18s-15 9 -19 18l-256 629l-1 -1v-541
c0 -27 0 -74 103 -74v-31c-35 1 -84 3 -117 3s-82 -2 -117 -3v31c103 0 103 47 103 74v500c0 36 -2 47 -79 47h-24v31h169c21 0 27 0 34 -18z" />
    <glyph glyph-name="N" unicode="N" horiz-adv-x="813" 
d="M256 669l371 -522v429c0 30 0 76 -103 76v31c35 -1 84 -3 117 -3s82 2 117 3v-31c-103 0 -103 -46 -103 -76v-548c0 -21 0 -28 -14 -28c-5 0 -10 0 -18 12l-437 617v-522c0 -30 0 -76 103 -76v-31c-35 1 -84 3 -117 3s-82 -2 -117 -3v31c103 0 103 46 103 76v518
c0 15 0 16 -1 18c-3 9 -74 9 -102 9v31h169c21 0 22 -1 32 -14z" />
    <glyph glyph-name="O" unicode="O" horiz-adv-x="844" 
d="M771 339c0 -200 -157 -361 -350 -361c-190 0 -349 159 -349 361c0 203 157 366 350 366c189 0 349 -161 349 -366zM422 4c102 0 246 89 246 350c0 241 -142 326 -247 326c-101 0 -246 -82 -246 -326c0 -256 139 -350 247 -350z" />
    <glyph glyph-name="P" unicode="P" horiz-adv-x="741" 
d="M249 316v-238c0 -36 2 -47 79 -47h24v-31c-35 3 -110 3 -148 3s-112 0 -147 -3v31h24c77 0 79 11 79 47v527c0 36 -2 47 -79 47h-24v31h365c141 0 247 -87 247 -186c0 -103 -117 -181 -239 -181h-181zM246 342h150c170 0 170 112 170 155c0 45 0 155 -170 155h-101
c-47 0 -49 -7 -49 -40v-270z" />
    <glyph glyph-name="Q" unicode="Q" horiz-adv-x="844" 
d="M557 6c30 -68 56 -97 102 -97c41 0 89 26 96 84c1 11 2 18 11 18c11 0 11 -11 11 -21c0 -53 -23 -184 -127 -184c-93 0 -110 93 -128 187c-1 0 -47 -15 -100 -15c-193 0 -350 161 -350 361c0 203 157 366 350 366c189 0 349 -161 349 -366c0 -162 -101 -285 -214 -333z
M353 15c-3 5 -15 24 -15 49c0 43 34 84 85 84c59 0 91 -47 119 -107c105 71 129 199 129 298c0 246 -139 341 -250 341c-106 0 -249 -91 -249 -341c0 -212 105 -298 181 -324zM514 25c-11 48 -31 101 -91 101c-40 0 -63 -32 -63 -62c0 -16 9 -61 62 -61c13 0 51 1 92 22z
" />
    <glyph glyph-name="R" unicode="R" horiz-adv-x="800" 
d="M470 340c39 -11 71 -30 92 -52c32 -32 36 -57 47 -127c18 -116 25 -161 78 -161c21 0 62 11 70 89c1 7 1 16 12 16c13 0 13 -11 13 -17c0 -28 -19 -110 -99 -110c-35 0 -91 9 -128 41c-43 39 -43 75 -43 144c0 70 0 95 -38 132c-17 16 -49 36 -103 36h-125v-253
c0 -36 2 -47 79 -47h24v-31c-36 3 -107 3 -146 3s-110 0 -146 -3v31h24c77 0 79 11 79 47v527c0 36 -2 47 -79 47h-24v31h324c151 0 273 -83 273 -180c0 -68 -64 -134 -184 -163zM367 353c113 0 184 43 184 150c0 149 -132 149 -219 149c-20 0 -51 0 -60 -1
c-24 -3 -26 -12 -26 -39v-259h121z" />
    <glyph glyph-name="S" unicode="S" horiz-adv-x="611" 
d="M244 420l136 -33c110 -27 158 -122 158 -202c0 -106 -82 -207 -207 -207c-103 0 -168 43 -196 72l-37 -60c-6 -9 -8 -12 -15 -12c-11 0 -11 7 -11 24v200c0 18 0 25 13 25c5 0 11 -2 12 -9c1 -34 4 -107 69 -158c55 -43 122 -51 164 -51c91 0 144 72 144 143
c0 54 -30 88 -36 95c-31 34 -51 39 -110 53c-16 4 -33 7 -49 11c-83 20 -113 27 -160 76c-13 15 -47 60 -47 124c0 106 89 194 205 194c96 0 142 -45 169 -72l37 59c8 12 8 13 15 13c11 0 11 -7 11 -24v-201c0 -19 0 -24 -13 -24c-11 0 -11 5 -13 18
c-14 102 -67 203 -205 203c-85 0 -142 -63 -142 -131c0 -36 21 -105 108 -126z" />
    <glyph glyph-name="T" unicode="T" horiz-adv-x="786" 
d="M714 677l19 -225h-25c-14 168 -35 194 -191 194c-19 0 -48 0 -58 -2c-22 -3 -22 -15 -22 -38v-527c0 -34 0 -48 105 -48h40v-31c-41 3 -144 3 -190 3s-148 0 -189 -3v31h40c105 0 105 14 105 48v527c0 23 0 35 -22 38c-10 2 -39 2 -58 2c-157 0 -177 -26 -191 -194h-25
l19 225h643z" />
    <glyph glyph-name="U" unicode="U" horiz-adv-x="813" 
d="M624 231v347c0 27 0 74 -103 74v31c36 -1 84 -3 119 -3c34 0 82 2 118 3v-31c-103 0 -103 -46 -103 -77v-360c0 -99 -85 -237 -235 -237c-141 0 -262 109 -262 251v376c0 36 -2 47 -79 47h-24v31c35 -3 110 -3 148 -3s112 0 147 3v-31h-24c-77 0 -79 -11 -79 -47v-379
c0 -188 121 -217 175 -217c101 0 202 81 202 222z" />
    <glyph glyph-name="V" unicode="V" horiz-adv-x="813" 
d="M668 587l-237 -589c-6 -15 -8 -20 -25 -20c-16 0 -18 6 -24 20l-249 616c-14 34 -22 38 -99 38v31c36 -1 79 -3 127 -3c38 0 109 0 144 3v-31c-28 0 -81 0 -81 -29c0 -4 3 -13 5 -17l207 -513l197 490c6 13 6 15 6 20c0 18 -14 48 -71 49v31c26 -1 84 -3 114 -3
c26 0 66 1 97 3v-31c-19 0 -85 0 -111 -65z" />
    <glyph glyph-name="W" unicode="W" horiz-adv-x="1105" 
d="M970 582l-201 -584c-5 -14 -7 -20 -20 -20s-16 9 -20 20l-177 515l-176 -515c-4 -11 -7 -20 -20 -20c-14 0 -16 8 -20 19l-211 616c-13 39 -32 39 -92 39v31c41 -1 84 -3 122 -3s108 0 143 3v-31c-28 0 -84 0 -84 -30c0 -3 0 -5 5 -18l169 -493l147 428c3 9 3 10 3 12
c0 4 -22 70 -28 80c-11 18 -24 21 -83 21v31c44 -2 87 -3 121 -3c38 0 107 0 143 3v-31c-27 0 -84 0 -84 -30c0 -4 3 -11 4 -15l171 -496l160 468c5 13 5 15 5 20c0 29 -31 52 -85 53v31c26 -1 90 -3 119 -3c30 0 61 1 91 3v-31c-76 -1 -93 -44 -102 -70z" />
    <glyph glyph-name="X" unicode="X" horiz-adv-x="813" 
d="M435 384l224 -317c23 -32 46 -36 96 -36h19v-31c-37 2 -99 3 -130 3c-38 0 -112 0 -147 -3v31c45 1 62 20 62 29c0 2 0 4 -8 15l-168 238l-154 -213c-7 -10 -10 -16 -10 -25c0 -16 14 -42 59 -44v-31c-40 3 -88 3 -128 3c-33 0 -75 -2 -111 -3v31c25 0 104 1 149 64
l176 245l-197 277c-18 26 -33 35 -95 35h-19v31c42 -2 88 -3 130 -3c39 0 112 0 148 3v-31c-38 0 -63 -16 -63 -29c0 -1 0 -6 7 -15l141 -197l123 170c11 15 11 22 11 27c0 19 -17 43 -59 44v31c36 -3 91 -3 128 -3c33 0 75 2 111 3v-31c-20 0 -103 0 -148 -63z" />
    <glyph glyph-name="Y" unicode="Y" horiz-adv-x="813" 
d="M657 588l-208 -315v-193c0 -39 3 -49 80 -49h23v-31c-36 3 -107 3 -146 3s-110 0 -146 -3v31h24c77 0 79 11 79 47v195l-226 345c-18 27 -37 34 -92 34h-19v31c42 -2 88 -3 131 -3c38 0 113 0 148 3v-31c-30 0 -68 -1 -68 -24c0 -2 0 -7 9 -20l193 -294l178 271
c7 11 11 17 11 29c0 27 -25 38 -54 38v31c26 -1 84 -3 115 -3c27 0 67 1 98 3v-31c-53 -1 -98 -15 -130 -64z" />
    <glyph glyph-name="Z" unicode="Z" horiz-adv-x="669" 
d="M589 648l-413 -614h182c189 0 211 93 219 233h25l-17 -267h-487c-21 0 -26 0 -26 17c0 7 0 10 7 20l413 615h-171c-139 0 -202 -51 -209 -194h-25l11 225h472c20 0 26 0 26 -16c0 -6 0 -9 -7 -19z" />
    <glyph glyph-name="bracketleft" unicode="[" horiz-adv-x="319" 
d="M281 -250h-142v1000h142v-40h-102v-920h102v-40z" />
    <glyph glyph-name="quotedblleft" unicode="&#x201c;" 
d="M201 477c4 6 18 23 45 23c36 0 53 -27 53 -53s-18 -53 -53 -53c-46 0 -68 50 -68 105c0 118 85 194 96 194c6 0 11 -5 11 -11c0 -2 0 -4 -5 -9c-19 -18 -80 -74 -80 -175c0 -6 0 -15 1 -21zM405 477c4 6 18 23 45 23c36 0 53 -27 53 -53s-18 -53 -53 -53
c-46 0 -68 50 -68 105c0 118 85 194 96 194c6 0 11 -5 11 -11c0 -2 0 -4 -5 -9c-19 -18 -80 -74 -80 -175c0 -6 0 -15 1 -21z" />
    <glyph glyph-name="bracketright" unicode="]" horiz-adv-x="319" 
d="M179 750v-1000h-142v40h102v920h-102v40h142z" />
    <glyph glyph-name="circumflex" unicode="&#x2c6;" 
d="M276 694l139 -135l-16 -19l-123 101l-123 -101l-16 19z" />
    <glyph glyph-name="dotaccent" unicode="&#x2d9;" horiz-adv-x="319" 
d="M212 616c0 -29 -24 -53 -53 -53s-53 24 -53 53s24 53 53 53s53 -24 53 -53z" />
    <glyph glyph-name="quoteleft" unicode="&#x2018;" horiz-adv-x="319" 
d="M114 477c4 6 18 23 45 23c36 0 53 -27 53 -53s-18 -53 -53 -53c-46 0 -68 50 -68 105c0 118 85 194 96 194c6 0 11 -5 11 -11c0 -2 0 -4 -5 -9c-19 -18 -80 -74 -80 -175c0 -6 0 -15 1 -21z" />
    <glyph glyph-name="a" unicode="a" horiz-adv-x="613" 
d="M329 509l172 -444c13 -35 22 -40 78 -40v-25c-24 1 -63 3 -97 3c-20 0 -79 -2 -106 -3v25c17 0 53 0 53 28c0 6 -13 40 -21 60l-22 56h-207c-34 -89 -34 -91 -34 -99c0 -9 3 -43 45 -45v-25c-20 1 -66 3 -83 3c-22 0 -51 -1 -73 -3v25c63 2 80 47 91 74l161 413
c5 13 7 19 21 19c11 0 16 -6 22 -22zM283 435l-94 -241h187z" />
    <glyph glyph-name="b" unicode="b" horiz-adv-x="580" 
d="M46 514h281c109 0 179 -64 179 -127c0 -58 -57 -103 -128 -118c87 -11 151 -66 151 -131c0 -70 -70 -138 -181 -138h-302v25c67 0 72 6 72 47v370c0 41 -5 47 -72 47v25zM184 278h112c104 0 130 73 130 109c0 24 -15 102 -106 102h-96c-35 0 -40 -3 -40 -43v-168z
M184 256v-188c0 -40 5 -43 40 -43h98c91 0 124 68 124 113c0 42 -27 118 -112 118h-150z" />
    <glyph glyph-name="c" unicode="c" horiz-adv-x="591" 
d="M540 504v-169c0 -19 0 -24 -13 -24c-10 0 -11 6 -13 13c-19 127 -104 179 -177 179c-45 0 -200 -24 -200 -246c0 -219 151 -246 201 -246c84 0 170 60 177 166c1 10 1 16 12 16c13 0 13 -7 13 -16c0 -87 -79 -191 -209 -191c-151 0 -280 119 -280 271s129 271 280 271
c75 0 124 -41 145 -63l39 51c8 10 9 12 15 12c10 0 10 -8 10 -24z" />
    <glyph glyph-name="d" unicode="d" horiz-adv-x="624" 
d="M45 514h281c144 0 247 -123 247 -261c0 -137 -106 -253 -247 -253h-281v25c67 0 72 6 72 47v370c0 41 -5 47 -72 47v25zM186 446v-378c0 -40 5 -43 40 -43h77c92 0 135 50 151 72c21 32 36 74 36 156c0 101 -22 143 -44 171c-14 18 -57 65 -143 65h-77
c-35 0 -40 -3 -40 -43z" />
    <glyph glyph-name="e" unicode="e" horiz-adv-x="557" 
d="M529 194l-29 -194h-457v25c67 0 72 6 72 47v367c0 41 -5 47 -72 47v25h445l19 -169h-25c-11 109 -37 144 -153 144h-102c-35 0 -40 -3 -40 -43v-165h70c74 0 86 20 86 87h25v-199h-25c0 67 -12 87 -86 87h-70v-185c0 -40 5 -43 40 -43h108c128 0 152 48 169 169h25z" />
    <glyph glyph-name="f" unicode="f" horiz-adv-x="535" 
d="M477 511l19 -169h-25c-10 112 -39 144 -149 144h-95c-35 0 -40 -3 -40 -43v-175h67c74 0 85 21 85 87h25v-199h-25c0 66 -11 87 -85 87h-67v-168c0 -50 15 -50 90 -50v-25c-29 1 -91 3 -123 3c-25 0 -78 -2 -111 -3v25c67 0 72 6 72 47v367c0 41 -5 47 -72 47v25h434z
" />
    <glyph glyph-name="g" unicode="g" horiz-adv-x="641" 
d="M539 137v-113c0 -15 0 -23 -9 -23c-11 0 -41 31 -50 45c-39 -55 -113 -60 -148 -60c-156 0 -281 122 -281 271c0 153 130 271 279 271c55 0 108 -22 145 -63l39 51c8 10 9 12 15 12c10 0 10 -8 10 -24v-169c0 -19 0 -24 -13 -24c-10 0 -11 6 -13 13
c-19 127 -103 179 -176 179c-49 0 -200 -27 -200 -246c0 -213 144 -246 205 -246c29 0 63 7 85 20c40 23 40 47 40 70v30c0 40 -4 51 -80 51h-20v25c35 -3 93 -3 129 -3c26 0 66 1 99 3v-25c-52 0 -56 -6 -56 -45z" />
    <glyph glyph-name="h" unicode="h" horiz-adv-x="613" 
d="M498 442v-370c0 -41 5 -47 72 -47v-25c-30 1 -86 3 -108 3s-79 -2 -108 -3v25c67 0 72 6 72 47v183h-239v-183c0 -41 5 -47 72 -47v-25c-30 1 -86 3 -108 3s-79 -2 -108 -3v25c67 0 72 6 72 47v370c0 41 -5 47 -72 47v25c30 -1 86 -3 108 -3s79 2 108 3v-25
c-67 0 -72 -6 -72 -47v-162h239v162c0 41 -5 47 -72 47v25c30 -1 86 -3 108 -3s79 2 108 3v-25c-67 0 -72 -6 -72 -47z" />
    <glyph glyph-name="i" unicode="i" horiz-adv-x="302" 
d="M187 441v-368c0 -43 5 -48 76 -48v-25c-34 1 -86 3 -112 3s-78 -2 -112 -3v25c71 0 76 5 76 48v368c0 43 -5 48 -76 48v25c34 -1 86 -3 112 -3s78 2 112 3v-25c-71 0 -76 -5 -76 -48z" />
    <glyph glyph-name="j" unicode="j" horiz-adv-x="424" 
d="M248 116v323c0 39 -4 50 -76 50h-18v25c27 -2 111 -3 122 -3c5 0 59 0 95 3v-25c-54 0 -54 -4 -54 -65v-280c0 -17 0 -46 -1 -52c-12 -67 -78 -106 -145 -106c-72 0 -125 45 -125 98c0 29 20 43 42 43c23 0 41 -18 41 -41c0 -15 -7 -40 -43 -42c23 -28 61 -36 83 -36
c31 0 79 26 79 108z" />
    <glyph glyph-name="k" unicode="k" horiz-adv-x="635" 
d="M331 313l173 -234c37 -51 58 -54 91 -54v-25c-27 2 -58 3 -85 3c-18 0 -84 -2 -104 -3v25c8 0 32 2 32 21c0 14 -12 33 -22 46l-133 179l-96 -85v-114c0 -41 5 -47 72 -47v-25c-30 1 -86 3 -108 3s-79 -2 -108 -3v25c67 0 72 6 72 47v370c0 41 -5 47 -72 47v25
c30 -1 86 -3 108 -3s79 2 108 3v-25c-67 0 -72 -6 -72 -47v-222l225 197c16 14 33 35 33 53c0 11 -6 17 -17 19v25c14 -1 66 -3 93 -3c25 0 40 1 63 3v-25c-43 -3 -64 -4 -253 -176z" />
    <glyph glyph-name="l" unicode="l" horiz-adv-x="513" 
d="M473 194l-19 -194h-411v25c67 0 72 6 72 47v370c0 41 -5 47 -72 47v25c36 -1 86 -3 111 -3c30 0 94 2 123 3v-25c-75 0 -90 0 -90 -50v-371c0 -40 5 -43 40 -43h63c140 0 150 89 158 169h25z" />
    <glyph glyph-name="m" unicode="m" horiz-adv-x="746" 
d="M202 496l172 -421l171 420c8 19 11 19 34 19h121v-25c-67 0 -72 -6 -72 -47v-370c0 -41 5 -47 72 -47v-25c-33 1 -69 3 -104 3s-84 -2 -104 -3v25c67 0 72 6 72 47v412l-1 1l-190 -467c-4 -9 -9 -18 -19 -18s-15 9 -19 18l-187 460l-1 -1v-376c0 -23 0 -76 72 -76v-25
c-25 2 -71 3 -86 3c-20 0 -65 -2 -86 -3v25c72 0 72 53 72 76v341c0 41 -5 47 -72 47v25h121c21 0 27 0 34 -18z" />
    <glyph glyph-name="n" unicode="n" horiz-adv-x="613" 
d="M193 501l277 -385v297c0 23 0 76 -72 76v25c25 -2 71 -3 86 -3c20 0 65 2 86 3v-25c-72 0 -72 -53 -72 -76v-387c0 -19 0 -26 -14 -26c-6 0 -9 0 -17 11l-314 436l-10 12v-358c0 -23 0 -76 72 -76v-25c-25 2 -71 3 -86 3c-20 0 -65 -2 -86 -3v25c72 0 72 53 72 76v381
c-20 7 -48 7 -72 7v25h120c19 0 21 0 30 -13z" />
    <glyph glyph-name="o" unicode="o" horiz-adv-x="635" 
d="M585 255c0 -151 -121 -269 -267 -269s-267 118 -267 269c0 149 118 273 267 273c148 0 267 -124 267 -273zM318 12c71 0 181 57 181 254c0 187 -113 237 -181 237c-67 0 -181 -49 -181 -237c0 -197 110 -254 181 -254z" />
    <glyph glyph-name="p" unicode="p" horiz-adv-x="557" 
d="M189 234v-162c0 -41 5 -47 72 -47v-25c-30 1 -86 3 -108 3s-79 -2 -108 -3v25c67 0 72 6 72 47v370c0 41 -5 47 -72 47v25h271c115 0 191 -69 191 -141c0 -76 -84 -139 -184 -139h-134zM186 257h109c126 0 126 77 126 116c0 40 0 116 -126 116h-69c-35 0 -40 -3 -40 -43
v-189z" />
    <glyph glyph-name="q" unicode="q" horiz-adv-x="635" 
d="M424 8c30 -66 59 -66 74 -66c25 0 63 13 69 52c1 10 2 17 11 17c11 0 11 -11 11 -19c0 -47 -24 -136 -98 -136c-70 0 -84 64 -100 140c-6 -2 -37 -10 -73 -10c-146 0 -267 118 -267 269c0 149 118 273 267 273c148 0 267 -124 267 -273c0 -128 -86 -216 -161 -247z
M258 23c-1 1 -7 11 -7 28c0 33 28 63 68 63c51 0 75 -47 90 -75c69 46 93 132 93 216c0 186 -107 248 -184 248s-184 -62 -184 -248c0 -154 74 -213 124 -232zM384 25c-11 45 -33 67 -65 67c-27 0 -46 -19 -46 -41c0 -5 2 -40 45 -40c35 0 64 13 66 14z" />
    <glyph glyph-name="r" unicode="r" horiz-adv-x="602" 
d="M363 255c75 -29 85 -80 93 -115c13 -64 19 -92 27 -108c6 -11 15 -24 35 -24c7 0 43 1 50 62c0 4 1 13 12 13c13 0 13 -10 13 -15c0 -20 -15 -82 -79 -82c-45 0 -85 15 -103 33c-32 31 -32 49 -32 105c0 44 0 68 -21 90c-31 31 -57 32 -82 32h-90v-174
c0 -41 5 -47 72 -47v-25c-26 1 -78 3 -107 3c-28 0 -76 -2 -106 -3v25c67 0 72 6 72 47v370c0 41 -5 47 -72 47v25h240c121 0 210 -65 210 -135c0 -61 -62 -106 -132 -124zM274 268c130 0 135 72 135 111c0 107 -85 110 -159 110c-18 0 -45 0 -52 -3c-10 -5 -12 -15 -12 -40
v-178h88z" />
    <glyph glyph-name="s" unicode="s" horiz-adv-x="457" 
d="M384 504v-136c0 -19 0 -24 -13 -24c-11 0 -11 6 -13 13c-4 32 -22 149 -149 149c-67 0 -107 -49 -107 -95c0 -30 16 -69 66 -89c6 -2 41 -10 62 -15c85 -20 101 -23 138 -61c0 -1 39 -41 39 -104c0 -79 -62 -156 -159 -156c-65 0 -117 23 -146 49c-4 -6 -14 -21 -19 -26
c-15 -22 -16 -23 -22 -23c-10 0 -10 8 -10 24v135c0 18 0 25 13 25c3 0 11 -1 12 -9c1 -27 4 -76 49 -111c43 -35 97 -39 123 -39c69 0 108 54 108 104c0 44 -27 71 -32 75c-23 21 -33 23 -87 36c-92 21 -112 25 -142 55c-12 12 -44 45 -44 101c0 78 66 146 157 146
c41 0 87 -12 125 -49c4 6 14 21 19 26c15 22 16 23 22 23c10 0 10 -8 10 -24z" />
    <glyph glyph-name="t" unicode="t" horiz-adv-x="591" 
d="M541 508l14 -169h-25c-9 127 -31 144 -139 144c-56 0 -59 0 -59 -43v-364c0 -40 4 -51 81 -51h21v-25c-39 3 -98 3 -138 3s-99 0 -138 -3v25h21c77 0 81 11 81 51v364c0 43 -3 43 -59 43c-111 0 -131 -18 -140 -144h-25l14 169h491z" />
    <glyph glyph-name="u" unicode="u" horiz-adv-x="613" 
d="M473 178v235c0 23 0 76 -72 76v25c28 -2 57 -3 85 -3c6 0 59 1 84 3v-25c-45 0 -71 -22 -72 -62v-266c-1 -73 -65 -175 -181 -175c-111 0 -191 81 -200 162c-2 13 -2 50 -2 75v217c0 43 -4 49 -72 49v25c30 -1 86 -3 108 -3s79 2 108 3v-25c-67 0 -72 -6 -72 -47v-269
c0 -150 102 -162 132 -162c68 0 154 51 154 167z" />
    <glyph glyph-name="v" unicode="v" horiz-adv-x="613" 
d="M502 423l-174 -414c-6 -14 -8 -20 -22 -20c-13 0 -15 7 -21 20l-186 440c-14 33 -20 40 -75 40v25c27 -2 68 -3 94 -3c19 0 79 2 105 3v-25c-17 0 -51 0 -51 -27c0 -4 0 -6 8 -24l150 -360l142 338c5 11 8 19 8 30c0 19 -7 40 -42 43v25c27 -2 55 -3 82 -3
c21 0 48 1 69 3v-25c-15 -1 -60 -3 -87 -66z" />
    <glyph glyph-name="w" unicode="w" horiz-adv-x="835" 
d="M733 417l-145 -408c-5 -14 -7 -20 -20 -20s-16 8 -21 22l-129 364l-130 -367c-4 -10 -7 -19 -20 -19s-16 8 -20 19l-159 447c-11 30 -23 34 -66 34v25c27 -2 71 -3 90 -3c25 0 75 2 105 3v-25c-17 0 -55 0 -55 -29c0 -6 4 -15 5 -19l123 -348l109 307c4 10 4 12 4 13
c0 2 -14 46 -22 57c-10 16 -21 19 -59 19v25c27 -2 71 -3 90 -3c25 0 75 2 105 3v-25c-19 0 -54 0 -54 -29c0 -6 0 -8 5 -21l123 -346l114 322c1 3 5 14 5 25c0 17 -9 47 -53 49v25c18 -1 64 -3 87 -3c21 0 47 1 68 3v-25c-35 -2 -61 -18 -80 -72z" />
    <glyph glyph-name="x" unicode="x" horiz-adv-x="613" 
d="M219 440l95 -129l79 106c7 8 15 20 15 37c0 25 -14 33 -30 35v25c20 -1 65 -3 92 -3c25 0 56 1 81 3v-25c-45 -1 -84 -18 -119 -62l-102 -137c11 -16 169 -236 183 -249c19 -16 42 -16 71 -16v-25c-31 2 -71 3 -95 3c-22 0 -80 -2 -108 -3v25c28 2 33 20 33 27
c0 8 -3 13 -7 18l-119 163c-32 -40 -62 -82 -93 -123c-16 -22 -24 -33 -24 -50c0 -20 11 -33 31 -35v-25c-14 1 -60 3 -92 3c-26 0 -56 -1 -81 -3v25c66 2 99 36 128 74l115 155l-138 190c-28 39 -36 45 -94 45v25c30 -2 69 -3 96 -3c21 0 82 2 107 3v-25
c-19 -1 -33 -11 -33 -28c0 -4 0 -9 9 -21z" />
    <glyph glyph-name="y" unicode="y" horiz-adv-x="613" 
d="M486 419l-145 -214v-130c0 -44 4 -50 72 -50v-25c-26 1 -78 3 -107 3c-28 0 -76 -2 -106 -3v25c67 0 72 6 72 47v134l-171 251c-18 26 -30 32 -82 32v25c30 -2 70 -3 97 -3c16 0 82 2 108 3v-25c-12 0 -41 0 -41 -20c0 -10 7 -20 12 -27l138 -203l123 182
c7 11 15 23 15 38c0 16 -7 28 -29 30v25c27 -2 55 -3 82 -3c21 0 49 1 70 3v-25c-39 -2 -72 -16 -108 -70z" />
    <glyph glyph-name="z" unicode="z" horiz-adv-x="502" 
d="M444 483l-308 -455h130c141 0 158 66 164 173h25l-12 -201h-366c-20 0 -26 0 -26 15c0 5 0 8 7 18l309 456h-123c-100 0 -150 -34 -156 -144h-25l8 169h354c19 0 26 0 26 -14c0 -4 0 -7 -7 -17z" />
    <glyph glyph-name="endash" unicode="&#x2013;" 
d="M538 255h-524v22h524v-22z" />
    <glyph glyph-name="emdash" unicode="&#x2014;" horiz-adv-x="1105" 
d="M1077 255h-1049v22h1049v-22z" />
    <glyph glyph-name="hungarumlaut" unicode="&#x2dd;" 
d="M266 636l-96 -124l-21 14l60 144c5 12 12 29 33 29c20 0 38 -17 38 -35c0 -10 -5 -17 -14 -28zM441 636l-96 -124l-21 14l60 144c5 12 12 29 33 29c20 0 38 -17 38 -35c0 -10 -5 -17 -14 -28z" />
    <glyph glyph-name="tilde" unicode="&#x2dc;" 
d="M434 668l17 -15c-54 -57 -75 -79 -114 -79c-25 0 -47 13 -71 27c-32 19 -48 22 -62 22c-28 0 -56 -14 -86 -49l-17 15c54 57 75 79 114 79c25 0 47 -13 71 -27c32 -19 48 -22 62 -22c28 0 56 14 86 49z" />
    <glyph glyph-name="dieresis" unicode="&#xa8;" 
d="M224 619c0 -31 -25 -50 -50 -50c-28 0 -50 24 -50 50s22 50 50 50c25 0 50 -19 50 -50zM428 619c0 -26 -22 -50 -50 -50c-25 0 -50 19 -50 50s25 50 50 50c28 0 50 -24 50 -50z" />
    <glyph glyph-name="space" unicode=" " horiz-adv-x="377" 
 />
  </font>
</defs>
</svg>
