<?xml version="1.0" ?><!DOCTYPE svg  PUBLIC '-//W3C//DTD SVG 1.1//EN'  'http://www.w3.org/Graphics/SVG/1.1/DTD/svg11.dtd'><svg height="60.212" viewBox="265.438 103.982 237.857 60.212" width="237.857" xmlns="http://www.w3.org/2000/svg" xmlns:xlink="http://www.w3.org/1999/xlink"><defs><path d="M261 229l14 -158c1 -14 1 -37 -26 -37c-14 0 -28 12 -25 27v5l14 164l-126 -93c-11 -8 -16 -9 -20 -9c-13 0 -27 12 -27 28s12 22 21 26l141 68l-141 67c-9 4 -21 10 -21 26s14 28 27 28c7 0 7 -1 20 -10l126 -92l-14 159v11c-3 13 10 26 26 26c25 0 26 -23 25 -36 l-14 -160l126 93c11 8 16 9 20 9c13 0 27 -12 27 -28s-12 -22 -21 -26l-142 -68l145 -68c14 -7 18 -17 18 -25c0 -16 -14 -28 -27 -28c-7 0 -25 13 -37 22z" id="0322"/><path d="M470 670l-164 -660c30 0 107 0 191 94c64 72 84 146 84 182c0 52 -27 79 -36 88c-4 4 -11 11 -11 23c0 20 22 44 46 44c10 0 40 -7 40 -67c0 -51 -24 -140 -34 -166c-17 -43 -47 -89 -80 -125c-90 -93 -169 -93 -206 -93c-4 -18 -45 -186 -49 -190c-2 -4 -6 -4 -8 -4 c-3 0 -11 0 -11 9c0 4 7 32 23 92c8 31 15 63 23 94c-90 7 -170 44 -170 140c0 23 0 45 54 187c17 44 17 66 17 70c0 32 -17 33 -26 33c-37 0 -77 -37 -101 -124c-4 -14 -5 -18 -14 -18c-7 0 -11 5 -11 9c0 8 37 153 129 153c47 0 79 -36 79 -81c0 -18 -5 -31 -18 -67 c-47 -124 -47 -147 -47 -169c0 -60 31 -102 114 -112l165 662c4 15 5 20 14 20c3 0 11 0 11 -9c0 -1 -4 -14 -4 -15z" id="2018"/><path d="M377 232v-265c0 -15 0 -31 -18 -31c-17 0 -17 17 -17 31v265h-265c-15 0 -31 0 -31 18c0 17 17 17 31 17h265v265c0 15 0 31 18 31c17 0 17 -17 17 -31v-265h265c15 0 31 0 31 -18c0 -17 -17 -17 -31 -17h-265z" id="2b16"/><path d="M327 712l-176 -462l176 -462c5 -12 5 -17 5 -18c0 -11 -9 -20 -20 -20c-14 0 -17 10 -22 22l-175 460c-5 12 -5 17 -5 18s0 6 5 18l176 462c4 11 8 20 21 20c11 0 20 -9 20 -20c0 -1 0 -6 -5 -18z" id="6821"/><path d="M273 232l-176 -462c-4 -11 -8 -20 -21 -20c-11 0 -20 9 -20 20c0 1 0 6 5 18l176 462l-176 462c-5 12 -5 17 -5 18c0 11 9 20 20 20c14 0 17 -10 22 -22l175 -460c5 -12 5 -17 5 -18s0 -6 -5 -18z" id="6921"/><path d="M643 321h-567c-15 0 -30 0 -30 17c0 18 17 18 34 18h559c17 0 34 0 34 -18c0 -17 -15 -17 -30 -17zM639 143h-559c-17 0 -34 0 -34 18c0 17 15 17 30 17h567c15 0 30 0 30 -17c0 -18 -17 -18 -34 -18z" id="3d15"/><path d="M159 717v-934c0 -14 0 -33 -20 -33s-20 19 -20 33v934c0 14 0 33 20 33s20 -19 20 -33z" id="6a21"/><path d="M301 119l49 196c1 2 4 15 4 16c0 8 -13 90 -79 90c-39 0 -86 -36 -120 -106c-19 -42 -50 -154 -50 -209c0 -59 23 -96 64 -96c47 0 91 43 113 71c14 19 14 21 19 38zM365 375c2 12 10 47 42 47c15 0 26 -11 26 -25c0 -6 -9 -42 -46 -192c-8 -29 -13 -51 -20 -76 c-9 -39 -12 -50 -12 -73c0 -20 2 -46 31 -46c41 0 60 63 75 122c4 15 5 20 14 20c6 0 10 -4 10 -9c0 -4 -14 -65 -30 -99c-18 -36 -42 -54 -72 -54s-77 17 -87 76c-28 -33 -75 -76 -130 -76c-68 0 -126 58 -126 157c0 148 122 294 235 294c52 0 79 -40 90 -66z" id="6118"/><path d="M170 111l350 586c9 15 15 17 25 17c11 0 15 -2 17 -22l61 -624c3 -30 4 -39 59 -39c15 0 24 0 24 -10c0 -19 -11 -19 -18 -19c-1 0 -45 2 -106 2h-57c-17 0 -37 -2 -54 -2c-6 0 -15 0 -15 11c0 18 11 18 22 18c16 0 67 2 67 32c0 19 -12 123 -15 149c-1 9 -1 17 -2 26 h-255l-76 -126c-13 -22 -19 -33 -19 -47c0 -24 19 -32 42 -34c6 0 14 -1 14 -10c0 -19 -12 -19 -18 -19c-28 0 -60 2 -89 2c-18 0 -63 -2 -81 -2c-7 0 -12 4 -12 10c0 18 8 18 19 19c48 3 82 23 117 82zM290 265h235l-34 336z" id="4118"/></defs><g transform="scale(1.25)"><g transform="scale(0.02488,-0.02488)"><g transform="translate(8826.919,-4627.612)"><use xlink:href="#6821"/><use x="388" xlink:href="#2018"/><use x="1059.88" xlink:href="#6a21"/><use x="1336.88" xlink:href="#4118"/></g></g><g transform="scale(0.02074,-0.02074)"><g transform="translate(13073.153,-5056.038)"><use xlink:href="#2b16"/></g></g><g transform="scale(0.02488,-0.02488)"><g transform="translate(11517.972,-4627.612)"><use xlink:href="#6a21"/><use x="277" xlink:href="#2018"/><use x="948.88" xlink:href="#6921"/></g></g><g transform="scale(0.02488,-0.02488)"><g transform="translate(13132.628,-4627.612)"><use xlink:href="#3d15"/></g></g><g transform="scale(0.02488,-0.02488)"><g transform="translate(14129.405,-4627.612)"><use xlink:href="#6821"/><use x="388" xlink:href="#6118"/><use x="902" xlink:href="#6921"/></g></g><g transform="scale(0.02074,-0.02074)"><g transform="translate(18497.337,-5056.038)"><use xlink:href="#0322"/></g></g></g></svg>