<?xml version="1.0" ?><!DOCTYPE svg  PUBLIC '-//W3C//DTD SVG 1.1//EN'  'http://www.w3.org/Graphics/SVG/1.1/DTD/svg11.dtd'><svg height="46.926" viewBox="320.717 109.835 127.484 46.926" width="127.484" xmlns="http://www.w3.org/2000/svg" xmlns:xlink="http://www.w3.org/1999/xlink"><defs><path d="M309 623l201 -575c4 -12 11 -30 20 -41c4 -4 5 -5 5 -9c0 -8 -7 -8 -11 -8h-19c-28 0 -30 0 -40 9c-14 13 -19 27 -24 42c-31 84 -63 176 -89 254c-91 -108 -234 -283 -250 -298c-6 -6 -17 -8 -21 -8c-16 0 -28 12 -28 26c0 13 8 21 20 33l260 263c8 8 9 9 9 10 c0 2 -103 301 -113 320c-16 29 -28 31 -43 33c-5 1 -11 2 -11 10c0 10 11 10 17 10c13 0 92 0 117 -71z" id="1518"/><path d="M643 321h-567c-15 0 -30 0 -30 17c0 18 17 18 34 18h559c17 0 34 0 34 -18c0 -17 -15 -17 -30 -17zM639 143h-559c-17 0 -34 0 -34 18c0 17 15 17 30 17h567c15 0 30 0 30 -17c0 -18 -17 -18 -34 -18z" id="3d15"/><path d="M457 374c0 -57 -57 -384 -223 -384c-9 0 -59 0 -95 31c-31 28 -34 69 -34 91c0 24 0 55 48 183c15 38 26 67 26 93c0 33 -17 33 -26 33c-38 0 -77 -38 -101 -124c-4 -14 -5 -18 -14 -18c-7 0 -11 5 -11 9c0 8 37 153 129 153c49 0 79 -38 79 -80c0 -20 -4 -30 -20 -71 c-27 -72 -50 -142 -50 -192c0 -37 12 -88 73 -88c120 0 180 234 180 276c0 52 -26 79 -36 88c-4 4 -11 11 -11 23c0 20 22 44 46 44c8 0 40 -4 40 -67z" id="7618"/><path d="M417 610l-134 -533c-4 -16 -4 -23 -4 -24c0 -15 0 -24 90 -24c26 0 33 0 33 -10c0 -19 -10 -19 -21 -19c-25 0 -52 2 -77 2h-156c-25 0 -51 -2 -76 -2c-5 0 -16 0 -16 10c0 19 7 19 32 19c106 0 108 10 118 49l134 537c5 18 5 20 5 23c0 11 -10 11 -34 11h-67 c-133 0 -154 -56 -196 -177c-4 -13 -6 -17 -14 -17c-6 0 -10 5 -10 10c0 1 3 12 4 14l61 180c6 18 7 19 30 19h547c20 0 26 0 26 -11c0 -3 0 -5 -2 -14l-29 -177c-3 -16 -3 -21 -13 -21c-6 0 -10 6 -10 10l1 12c6 37 10 75 10 90c0 78 -47 82 -147 82c-21 0 -54 0 -62 -2 c-15 -4 -17 -13 -23 -37z" id="5418"/></defs><g transform="scale(1.25)"><g transform="scale(0.02488,-0.02488)"><g transform="translate(10661.358,-4627.612)"><use xlink:href="#1518"/></g></g><g transform="scale(0.02488,-0.02488)"><g transform="translate(11510.135,-4627.612)"><use xlink:href="#3d15"/></g></g><g transform="scale(0.02488,-0.02488)"><g transform="translate(12506.911,-4627.612)"><use xlink:href="#7618"/><use x="810.767" xlink:href="#5418"/></g></g></g></svg>