<?xml version="1.0" ?><!DOCTYPE svg  PUBLIC '-//W3C//DTD SVG 1.1//EN'  'http://www.w3.org/Graphics/SVG/1.1/DTD/svg11.dtd'><svg height="53.239" viewBox="320.319 109.524 125.584 53.239" width="125.584" xmlns="http://www.w3.org/2000/svg" xmlns:xlink="http://www.w3.org/1999/xlink"><defs><path d="M643 321h-567c-15 0 -30 0 -30 17c0 18 17 18 34 18h559c17 0 34 0 34 -18c0 -17 -15 -17 -30 -17zM639 143h-559c-17 0 -34 0 -34 18c0 17 15 17 30 17h567c15 0 30 0 30 -17c0 -18 -17 -18 -34 -18z" id="3d15"/><path d="M446 402h-85c-5 -30 -54 -296 -72 -373c-11 -50 -53 -233 -155 -233c-39 0 -83 22 -83 65c0 38 30 55 50 55c19 0 34 -12 34 -32c0 -1 0 -45 -51 -49c18 -19 47 -19 50 -19c50 0 65 73 82 160c23 107 64 333 82 426h-64c-20 0 -26 0 -26 11c0 18 10 18 29 18h67 c23 131 33 167 51 202c20 39 62 71 105 71c44 0 86 -23 86 -65c0 -38 -30 -55 -50 -55c-19 0 -34 12 -34 32c0 17 12 46 51 50c-10 9 -31 18 -52 18c-26 0 -47 -23 -53 -47c-8 -32 -22 -103 -41 -206h81c18 0 26 0 26 -10c0 -19 -8 -19 -28 -19z" id="6618"/><path d="M417 610l-134 -533c-4 -16 -4 -23 -4 -24c0 -15 0 -24 90 -24c26 0 33 0 33 -10c0 -19 -10 -19 -21 -19c-25 0 -52 2 -77 2h-156c-25 0 -51 -2 -76 -2c-5 0 -16 0 -16 10c0 19 7 19 32 19c106 0 108 10 118 49l134 537c5 18 5 20 5 23c0 11 -10 11 -34 11h-67 c-133 0 -154 -56 -196 -177c-4 -13 -6 -17 -14 -17c-6 0 -10 5 -10 10c0 1 3 12 4 14l61 180c6 18 7 19 30 19h547c20 0 26 0 26 -11c0 -3 0 -5 -2 -14l-29 -177c-3 -16 -3 -21 -13 -21c-6 0 -10 6 -10 10l1 12c6 37 10 75 10 90c0 78 -47 82 -147 82c-21 0 -54 0 -62 -2 c-15 -4 -17 -13 -23 -37z" id="5418"/><path d="M266 639v-566c0 -36 2 -47 88 -47h30v-26c-48 1 -98 2 -146 2s-98 -1 -146 -2v26h30c86 0 88 12 88 47v527c-40 -24 -92 -30 -123 -30c0 21 0 23 1 25s6 2 9 2c56 2 115 17 154 64c14 0 15 -1 15 -22z" id="3115"/></defs><g transform="scale(1.25)"><g transform="scale(0.02488,-0.02488)"><g transform="translate(10677.56,-4627.612)"><use xlink:href="#5418"/><use x="1010.881" xlink:href="#6618"/></g></g><g transform="scale(0.02488,-0.02488)"><g transform="translate(12554.988,-4627.612)"><use xlink:href="#3d15"/><use x="996.777" xlink:href="#3115"/></g></g></g></svg>