<?xml version="1.0" ?><!DOCTYPE svg  PUBLIC '-//W3C//DTD SVG 1.1//EN'  'http://www.w3.org/Graphics/SVG/1.1/DTD/svg11.dtd'><svg height="57.671" viewBox="308.055 106.523 151.622 57.671" width="151.622" xmlns="http://www.w3.org/2000/svg" xmlns:xlink="http://www.w3.org/1999/xlink"><defs><path d="M261 229l14 -158c1 -14 1 -37 -26 -37c-14 0 -28 12 -25 27v5l14 164l-126 -93c-11 -8 -16 -9 -20 -9c-13 0 -27 12 -27 28s12 22 21 26l141 68l-141 67c-9 4 -21 10 -21 26s14 28 27 28c7 0 7 -1 20 -10l126 -92l-14 159v11c-3 13 10 26 26 26c25 0 26 -23 25 -36 l-14 -160l126 93c11 8 16 9 20 9c13 0 27 -12 27 -28s-12 -22 -21 -26l-142 -68l145 -68c14 -7 18 -17 18 -25c0 -16 -14 -28 -27 -28c-7 0 -25 13 -37 22z" id="0322"/><path d="M273 232l-176 -462c-4 -11 -8 -20 -21 -20c-11 0 -20 9 -20 20c0 1 0 6 5 18l176 462l-176 462c-5 12 -5 17 -5 18c0 11 9 20 20 20c14 0 17 -10 22 -22l175 -460c5 -12 5 -17 5 -18s0 -6 -5 -18z" id="6921"/><path d="M643 321h-567c-15 0 -30 0 -30 17c0 18 17 18 34 18h559c17 0 34 0 34 -18c0 -17 -15 -17 -30 -17zM639 143h-559c-17 0 -34 0 -34 18c0 17 15 17 30 17h567c15 0 30 0 30 -17c0 -18 -17 -18 -34 -18z" id="3d15"/><path d="M301 119l49 196c1 2 4 15 4 16c0 8 -13 90 -79 90c-39 0 -86 -36 -120 -106c-19 -42 -50 -154 -50 -209c0 -59 23 -96 64 -96c47 0 91 43 113 71c14 19 14 21 19 38zM365 375c2 12 10 47 42 47c15 0 26 -11 26 -25c0 -6 -9 -42 -46 -192c-8 -29 -13 -51 -20 -76 c-9 -39 -12 -50 -12 -73c0 -20 2 -46 31 -46c41 0 60 63 75 122c4 15 5 20 14 20c6 0 10 -4 10 -9c0 -4 -14 -65 -30 -99c-18 -36 -42 -54 -72 -54s-77 17 -87 76c-28 -33 -75 -76 -130 -76c-68 0 -126 58 -126 157c0 148 122 294 235 294c52 0 79 -40 90 -66z" id="6118"/><path d="M327 712l-176 -462l176 -462c5 -12 5 -17 5 -18c0 -11 -9 -20 -20 -20c-14 0 -17 10 -22 22l-175 460c-5 12 -5 17 -5 18s0 6 5 18l176 462c4 11 8 20 21 20c11 0 20 -9 20 -20c0 -1 0 -6 -5 -18z" id="6821"/></defs><g transform="scale(1.25)"><g transform="scale(0.02488,-0.02488)"><g transform="translate(10197.231,-4627.612)"><use xlink:href="#6821"/><use x="388" xlink:href="#6118"/><use x="902" xlink:href="#6921"/></g></g><g transform="scale(0.02074,-0.02074)"><g transform="translate(13780.246,-5056.038)"><use xlink:href="#0322"/></g></g><g transform="scale(0.02488,-0.02488)"><g transform="translate(12201.907,-4627.612)"><use xlink:href="#3d15"/></g></g><g transform="scale(0.02488,-0.02488)"><g transform="translate(13198.683,-4627.612)"><use xlink:href="#6821"/><use x="388" xlink:href="#6118"/><use x="902" xlink:href="#6921"/></g></g></g></svg>