<?xml version="1.0" ?><!DOCTYPE svg  PUBLIC '-//W3C//DTD SVG 1.1//EN'  'http://www.w3.org/Graphics/SVG/1.1/DTD/svg11.dtd'><svg height="97.142" viewBox="206.996 94.872 355.754 97.142" width="355.754" xmlns="http://www.w3.org/2000/svg" xmlns:xlink="http://www.w3.org/1999/xlink"><defs><path d="M261 229l14 -158c1 -14 1 -37 -26 -37c-14 0 -28 12 -25 27v5l14 164l-126 -93c-11 -8 -16 -9 -20 -9c-13 0 -27 12 -27 28s12 22 21 26l141 68l-141 67c-9 4 -21 10 -21 26s14 28 27 28c7 0 7 -1 20 -10l126 -92l-14 159v11c-3 13 10 26 26 26c25 0 26 -23 25 -36 l-14 -160l126 93c11 8 16 9 20 9c13 0 27 -12 27 -28s-12 -22 -21 -26l-142 -68l145 -68c14 -7 18 -17 18 -25c0 -16 -14 -28 -27 -28c-7 0 -25 13 -37 22z" id="0322"/><path d="M470 670l-164 -660c30 0 107 0 191 94c64 72 84 146 84 182c0 52 -27 79 -36 88c-4 4 -11 11 -11 23c0 20 22 44 46 44c10 0 40 -7 40 -67c0 -51 -24 -140 -34 -166c-17 -43 -47 -89 -80 -125c-90 -93 -169 -93 -206 -93c-4 -18 -45 -186 -49 -190c-2 -4 -6 -4 -8 -4 c-3 0 -11 0 -11 9c0 4 7 32 23 92c8 31 15 63 23 94c-90 7 -170 44 -170 140c0 23 0 45 54 187c17 44 17 66 17 70c0 32 -17 33 -26 33c-37 0 -77 -37 -101 -124c-4 -14 -5 -18 -14 -18c-7 0 -11 5 -11 9c0 8 37 153 129 153c47 0 79 -36 79 -81c0 -18 -5 -31 -18 -67 c-47 -124 -47 -147 -47 -169c0 -60 31 -102 114 -112l165 662c4 15 5 20 14 20c3 0 11 0 11 -9c0 -1 -4 -14 -4 -15z" id="2018"/><path d="M474 408c-21 13 -49 13 -51 13c-46 0 -80 -44 -95 -104l-35 -136c-16 -66 -20 -82 -20 -104c0 -41 19 -67 54 -67c45 0 103 41 130 129c3 8 4 13 13 13c6 0 10 -4 10 -9c0 -22 -54 -153 -156 -153c-37 0 -87 20 -103 79c-21 -41 -55 -79 -103 -79c-43 0 -90 19 -90 61 c0 32 26 53 50 53c19 0 34 -12 34 -32c0 -12 -8 -42 -44 -49c21 -13 46 -13 51 -13c53 0 82 55 97 115l34 137c12 48 18 71 18 93c0 24 -9 66 -54 66c-29 0 -96 -21 -130 -132c-2 -4 -4 -10 -12 -10c-7 0 -11 5 -11 9c0 22 54 153 156 153c18 0 80 -4 103 -79 c9 19 43 79 104 79c42 0 90 -19 90 -61c0 -27 -21 -53 -51 -53c-14 0 -33 8 -33 32c0 19 12 43 44 49z" id="7818"/><path d="M508 272c13 22 102 170 246 170c119 0 189 -115 189 -226c0 -118 -76 -227 -192 -227c-79 0 -138 42 -170 69c-22 19 -23 20 -90 101c-13 -22 -102 -170 -246 -170c-119 0 -189 115 -189 226c0 118 76 227 192 227c79 0 138 -42 170 -69c22 -19 23 -20 90 -101zM534 237 c28 -34 73 -97 101 -128c45 -49 86 -72 132 -72c84 0 154 79 154 179c0 90 -54 194 -160 194c-113 0 -189 -105 -227 -173zM465 194c-28 34 -73 97 -101 128c-45 49 -86 72 -132 72c-84 0 -154 -79 -154 -179c0 -90 54 -194 160 -194c113 0 189 105 227 173z" id="3122"/><path d="M104 -2177c0 0 25 -23 61 -23c81 0 127 188 145 261c33 139 62 306 88 459c110 654 246 1156 249 1167c55 204 111 313 187 313c55 0 109 -39 109 -93c0 -35 -25 -50 -49 -50c-23 0 -48 16 -48 49c0 25 17 47 50 49c-4 4 -29 23 -60 23c-39 0 -73 -129 -85 -178 c-34 -129 -71 -329 -108 -542c-54 -321 -119 -640 -196 -956c-71 -290 -128 -524 -280 -524c-61 0 -111 42 -111 93c0 35 25 50 49 50c23 0 48 -16 48 -49c0 -25 -17 -47 -49 -49z" id="5a24"/><path d="M327 712l-176 -462l176 -462c5 -12 5 -17 5 -18c0 -11 -9 -20 -20 -20c-14 0 -17 10 -22 22l-175 460c-5 12 -5 17 -5 18s0 6 5 18l176 462c4 11 8 20 21 20c11 0 20 -9 20 -20c0 -1 0 -6 -5 -18z" id="6821"/><path d="M503 669l-141 -560c-7 -28 -7 -49 -7 -53c0 -20 2 -46 31 -46c41 0 60 63 75 122c4 15 5 20 14 20c6 0 10 -4 10 -9c0 -4 -14 -65 -30 -99c-18 -36 -42 -54 -72 -54s-77 17 -87 76c-28 -33 -75 -76 -130 -76c-68 0 -126 58 -126 157c0 148 122 294 235 294 c52 0 79 -40 90 -66l61 243c1 3 3 11 3 17c0 10 -1 19 -50 19c-14 0 -22 0 -22 10c0 18 7 19 32 21c18 1 33 3 50 4c5 1 54 5 55 5c2 0 12 0 12 -10c0 -5 -2 -11 -3 -15zM301 119l49 196c1 2 4 15 4 16c0 8 -13 90 -79 90c-39 0 -86 -36 -120 -106 c-19 -42 -50 -154 -50 -209c0 -59 23 -96 64 -96c47 0 91 43 113 71c14 19 14 21 19 38z" id="6418"/><path d="M273 232l-176 -462c-4 -11 -8 -20 -21 -20c-11 0 -20 9 -20 20c0 1 0 6 5 18l176 462l-176 462c-5 12 -5 17 -5 18c0 11 9 20 20 20c14 0 17 -10 22 -22l175 -460c5 -12 5 -17 5 -18s0 -6 -5 -18z" id="6921"/><path d="M643 321h-567c-15 0 -30 0 -30 17c0 18 17 18 34 18h559c17 0 34 0 34 -18c0 -17 -15 -17 -30 -17zM639 143h-559c-17 0 -34 0 -34 18c0 17 15 17 30 17h567c15 0 30 0 30 -17c0 -18 -17 -18 -34 -18z" id="3d15"/><path d="M159 717v-934c0 -14 0 -33 -20 -33s-20 19 -20 33v934c0 14 0 33 20 33s20 -19 20 -33z" id="6a21"/><path d="M661 230h-545c-14 0 -33 0 -33 20s19 20 33 20h545c14 0 33 0 33 -20s-19 -20 -33 -20z" id="0022"/><path d="M170 111l350 586c9 15 15 17 25 17c11 0 15 -2 17 -22l61 -624c3 -30 4 -39 59 -39c15 0 24 0 24 -10c0 -19 -11 -19 -18 -19c-1 0 -45 2 -106 2h-57c-17 0 -37 -2 -54 -2c-6 0 -15 0 -15 11c0 18 11 18 22 18c16 0 67 2 67 32c0 19 -12 123 -15 149c-1 9 -1 17 -2 26 h-255l-76 -126c-13 -22 -19 -33 -19 -47c0 -24 19 -32 42 -34c6 0 14 -1 14 -10c0 -19 -12 -19 -18 -19c-28 0 -60 2 -89 2c-18 0 -63 -2 -81 -2c-7 0 -12 4 -12 10c0 18 8 18 19 19c48 3 82 23 117 82zM290 265h235l-34 336z" id="4118"/></defs><g transform="scale(1.25)"><g transform="scale(0.02488,-0.02488)"><g transform="translate(6947.738,-4860.191)"><use xlink:href="#6821"/><use x="388" xlink:href="#2018"/><use x="1059.88" xlink:href="#6a21"/><use x="1336.88" xlink:href="#4118"/><use x="2070.9" xlink:href="#6a21"/><use x="2347.9" xlink:href="#2018"/><use x="3019.78" xlink:href="#6921"/></g></g><g transform="scale(0.02488,-0.02488)"><g transform="translate(10633.295,-4860.191)"><use xlink:href="#3d15"/></g></g><g transform="scale(0.02488,-0.02488)"><g transform="translate(11630.072,-3499.068)"><use xlink:href="#5a24"/></g></g><g transform="scale(0.02074,-0.02074)"><g transform="translate(15151.216,-4583.64)"><use xlink:href="#3122"/></g><g transform="translate(14618.053,-6913.37)"><use xlink:href="#0022"/><use x="777" xlink:href="#3122"/></g></g><g transform="scale(0.02488,-0.02488)"><g transform="translate(13854.353,-4860.191)"><use xlink:href="#2018"/></g></g><g transform="scale(0.02074,-0.02074)"><g transform="translate(17425.875,-5335.043)"><use xlink:href="#0322"/></g></g><g transform="scale(0.02488,-0.02488)"><g transform="translate(14963.132,-4860.191)"><use xlink:href="#4118"/><use x="734" xlink:href="#2018"/><use x="1707.767" xlink:href="#6418"/><use x="2215.767" xlink:href="#7818"/></g></g></g></svg>