<?xml version="1.0" ?><!DOCTYPE svg  PUBLIC '-//W3C//DTD SVG 1.1//EN'  'http://www.w3.org/Graphics/SVG/1.1/DTD/svg11.dtd'><svg height="98.061" viewBox="274.088 95.162 219.581 98.061" width="219.581" xmlns="http://www.w3.org/2000/svg" xmlns:xlink="http://www.w3.org/1999/xlink"><defs><path d="M454 334h1c10 37 29 111 29 175c0 112 -56 182 -144 182c-27 0 -103 -7 -144 -81c13 0 44 0 44 -31c0 -17 -15 -49 -50 -49c-28 0 -34 22 -34 31c0 27 43 154 188 154c128 0 209 -111 209 -255c0 -137 -101 -481 -337 -481c-136 0 -178 115 -178 176 c0 159 144 302 285 302c90 0 125 -67 131 -123zM219 6c154 0 219 224 219 298c0 54 -21 133 -112 133c-104 0 -161 -101 -174 -131c-15 -37 -43 -140 -43 -184c0 -42 16 -116 110 -116z" id="4018"/><path d="M661 230h-545c-14 0 -33 0 -33 20s19 20 33 20h545c14 0 33 0 33 -20s-19 -20 -33 -20z" id="0021"/><path d="M366 615l-62 -250h144c132 0 213 103 213 184c0 9 0 105 -113 105h-130c-39 0 -43 -2 -52 -39zM535 357c81 -8 153 -58 153 -140c0 -101 -118 -217 -271 -217h-343c-20 0 -26 0 -26 11c0 18 10 18 29 18c70 0 72 10 81 45l135 538c4 15 4 21 4 23c0 11 0 19 -61 19 c-15 0 -24 0 -24 10c0 19 9 19 28 19h321c113 0 182 -60 182 -138c0 -92 -99 -168 -208 -188zM393 29c124 0 211 102 211 198c0 8 0 118 -118 118h-188l-70 -282c-2 -9 -4 -15 -4 -22c0 -8 1 -10 12 -11c6 -1 8 -1 22 -1h135z" id="4218"/><path d="M695 232l-91 -215c-7 -16 -8 -17 -30 -17h-502c-20 0 -26 0 -26 11c0 18 10 18 29 18c70 0 72 10 81 45l135 540c3 11 4 15 4 20c0 11 0 18 -62 18c-17 0 -24 0 -24 11c0 18 10 18 29 18h488c18 0 27 0 27 -11c0 -2 -2 -12 -2 -15l-21 -175c-2 -18 -6 -22 -13 -22 c-6 0 -11 3 -11 11c0 2 1 8 2 12c4 33 4 61 4 62c0 76 -25 109 -148 109h-143c-41 0 -43 -3 -52 -38l-62 -246h95c89 0 109 22 129 99c4 14 5 18 14 18c6 0 10 -5 10 -10l-57 -232c-4 -14 -5 -21 -14 -21c-6 0 -11 3 -11 10c0 3 1 7 3 11c7 30 7 39 7 49c0 30 -6 47 -84 47 h-99l-69 -276c-2 -9 -4 -15 -4 -22c0 -8 1 -10 12 -11c6 -1 8 -1 22 -1h146c160 0 203 60 262 200c9 20 9 22 11 23c3 3 5 4 9 4c6 0 10 -5 10 -10c0 -4 -3 -11 -4 -14z" id="4518"/><path d="M418 250l199 -200c11 -11 13 -13 13 -21c0 -11 -8 -20 -20 -20c-6 0 -12 3 -22 13l-200 200l-200 -200c-11 -11 -13 -13 -21 -13c-10 0 -20 9 -20 20c0 6 3 12 13 22l199 199l-199 200c-9 9 -13 13 -13 21c0 11 10 20 20 20c8 0 10 -2 21 -13l201 -200l200 200 c9 9 13 13 21 13c11 0 20 -9 20 -20c0 -8 -2 -10 -13 -21z" id="0221"/><path d="M643 321h-567c-15 0 -30 0 -30 17c0 18 17 18 34 18h559c17 0 34 0 34 -18c0 -17 -15 -17 -30 -17zM639 143h-559c-17 0 -34 0 -34 18c0 17 15 17 30 17h567c15 0 30 0 30 -17c0 -18 -17 -18 -34 -18z" id="3d15"/><path d="M535 597h-320c-16 0 -34 0 -34 18c0 19 17 19 34 19h336c-19 27 -25 51 -25 60c0 15 12 19 18 19c14 0 17 -12 20 -20c3 -12 10 -39 38 -58c6 -5 14 -10 14 -19c0 -11 -7 -14 -17 -20c-23 -13 -50 -32 -74 -62c-7 -10 -11 -16 -20 -16c-10 0 -19 9 -19 19 c0 14 37 49 49 60z" id="7e18"/><path d="M780 663l-338 -678c-7 -13 -9 -18 -26 -18s-19 5 -26 18l-338 678c-5 9 -5 11 -5 12c0 8 6 8 22 8h694c16 0 22 0 22 -8c0 -1 0 -3 -5 -12zM170 612l275 -551h1l274 551h-550z" id="7221"/><path d="M201 402l-78 -313c-3 -12 -3 -31 -3 -32c0 -22 2 -47 32 -47c58 0 104 70 125 120c7 16 8 17 9 18c2 4 6 4 8 4c6 0 10 -3 10 -9c0 -7 -54 -153 -155 -153c-56 0 -89 43 -89 90c0 13 3 23 11 58l66 264h-89c-19 0 -26 0 -26 10c0 19 9 19 29 19h94l39 159 c8 32 31 35 39 35c13 0 26 -9 26 -25c0 -7 0 -9 -4 -23l-37 -146h88c20 0 26 0 26 -11c0 -18 -10 -18 -29 -18h-92z" id="7418"/></defs><g transform="scale(1.25)"><rect height="0.995" width="33.976" x="350.958" y="120.272"/><g transform="scale(0.02488,-0.02488)"><g transform="translate(9263,-4851.302)"><use xlink:href="#7e18"/></g><g transform="translate(9168.03,-5104.078)"><use xlink:href="#7221"/><use x="1055.557" xlink:href="#0221"/></g><g transform="translate(11374.429,-4851.301)"><use xlink:href="#7e18"/></g><g transform="translate(11222.809,-5104.078)"><use xlink:href="#4518"/></g></g><g transform="scale(0.02488,-0.02488)"><g transform="translate(12284.029,-5104.078)"><use xlink:href="#3d15"/></g></g><g transform="scale(0.02488,-0.02488)"><g transform="translate(13280.806,-5104.078)"><use xlink:href="#0021"/></g><g transform="translate(14106.037,-4427.571)"><use xlink:href="#4018"/></g><g transform="translate(14833.493,-4174.794)"><use xlink:href="#7e18"/></g><g transform="translate(14676.434,-4427.571)"><use xlink:href="#4218"/></g><g transform="translate(14326.406,-5790.029)"><use xlink:href="#4018"/><use x="570.397" xlink:href="#7418"/></g></g></g></svg>