<?xml version="1.0" ?><!DOCTYPE svg  PUBLIC '-//W3C//DTD SVG 1.1//EN'  'http://www.w3.org/Graphics/SVG/1.1/DTD/svg11.dtd'><svg height="56.1" viewBox="210.982 108.094 346.081 56.1" width="346.081" xmlns="http://www.w3.org/2000/svg" xmlns:xlink="http://www.w3.org/1999/xlink"><defs><path d="M206 293l-33 -132l-22 -90c-5 -20 -14 -55 -16 -60c-8 -15 -22 -21 -34 -21c-15 0 -26 11 -26 25c0 5 11 52 18 78c5 18 16 63 20 82l28 108c7 31 17 70 17 92c0 30 -8 46 -31 46c-40 0 -59 -59 -74 -118c-6 -23 -7 -24 -15 -24c-7 0 -11 5 -11 9s14 65 32 101 c19 38 42 52 71 52c44 0 85 -31 88 -88c18 25 65 88 154 88c75 0 108 -43 111 -97c40 59 94 97 161 97c76 0 111 -45 111 -105c0 -58 -45 -176 -63 -224c-4 -11 -16 -43 -16 -69c0 -32 16 -33 26 -33c40 0 77 42 100 122c5 17 6 20 15 20c6 0 10 -4 10 -9 c0 -6 -35 -153 -128 -153c-48 0 -79 36 -79 81c0 18 5 31 14 55c22 60 61 169 61 225c0 40 -14 70 -54 70c-110 0 -162 -125 -164 -133l-60 -239c-9 -36 -14 -59 -44 -59c-15 0 -26 11 -26 25c0 4 6 30 10 45c2 11 21 85 29 115l25 103c12 47 12 67 12 73 c0 40 -14 70 -54 70c-39 0 -73 -16 -99 -40c-37 -32 -62 -82 -64 -88z" id="6d18"/><path d="M619 572l-361 -574c-10 -16 -15 -19 -27 -19c-14 0 -14 3 -17 24l-80 617c-3 25 -6 34 -57 34c-16 0 -23 0 -23 11c0 18 12 18 18 18c1 0 31 -2 104 -2h56c17 0 37 2 54 2c3 0 14 0 14 -10c0 -19 -9 -19 -24 -19c-11 0 -63 -2 -63 -31l70 -539l314 498c1 1 15 24 15 39 c0 12 -4 30 -41 33c-4 0 -13 1 -13 10c0 19 10 19 18 19c28 0 58 -2 87 -2c18 0 61 2 79 2c9 0 11 -6 11 -10c0 -18 -8 -18 -18 -19c-51 -4 -82 -28 -116 -82z" id="5618"/><path d="M747 695l-63 -255c-4 -18 -5 -19 -16 -19c-3 0 -13 0 -13 9c0 4 3 26 3 52c0 102 -49 193 -159 193c-95 0 -189 -56 -244 -120c-113 -131 -123 -305 -123 -337c0 -142 92 -210 198 -210c100 0 235 75 281 231c2 4 3 10 12 10c3 0 11 0 11 -9c0 -8 -26 -105 -113 -178 c-58 -49 -128 -83 -208 -83c-146 0 -263 104 -263 271c0 235 224 454 440 454c75 0 130 -34 165 -94l69 84c8 10 12 10 14 10s9 0 9 -9z" id="4318"/><path d="M254 669l-141 -560c-7 -28 -7 -49 -7 -53c0 -14 0 -46 30 -46c40 0 58 53 76 122c4 15 5 20 14 20c6 0 10 -4 10 -9c0 -4 -14 -67 -31 -100c-16 -31 -38 -53 -71 -53c-51 0 -88 40 -88 90c0 16 2 24 5 35l124 496c5 18 5 20 5 24c0 10 0 19 -51 19c-10 0 -20 0 -20 10 c0 18 7 19 31 21c18 1 33 3 50 4c18 2 54 5 55 5c2 0 12 0 12 -10c0 -5 -2 -11 -3 -15z" id="6c18"/><path d="M231 669l-73 -291c19 20 66 63 118 63c75 0 127 -65 127 -157c0 -145 -120 -294 -236 -294c-65 0 -122 53 -122 155c0 13 0 30 5 55c4 18 61 245 71 285l24 96c4 18 12 47 12 54c0 10 0 19 -51 19c-10 0 -20 0 -20 10c0 18 7 19 31 21c18 1 33 3 50 4c18 2 54 5 55 5 c2 0 12 0 12 -10c0 -5 -2 -11 -3 -15zM168 10c46 0 92 48 117 102c25 52 53 165 53 213c0 52 -20 96 -64 96c-68 0 -127 -89 -129 -97c-4 -13 -20 -77 -23 -90c-18 -70 -21 -89 -21 -122c0 -78 35 -102 67 -102z" id="6218"/><path d="M456 275c0 -141 -129 -285 -262 -285c-91 0 -153 71 -153 166c0 141 130 285 262 285c91 0 153 -71 153 -166zM195 10c39 0 94 26 135 93c38 61 59 168 59 208c0 70 -38 110 -87 110c-41 0 -97 -26 -142 -103c-28 -50 -52 -152 -52 -198c0 -70 37 -110 87 -110z" id="6f18"/><path d="M503 669l-141 -560c-7 -28 -7 -49 -7 -53c0 -20 2 -46 31 -46c41 0 60 63 75 122c4 15 5 20 14 20c6 0 10 -4 10 -9c0 -4 -14 -65 -30 -99c-18 -36 -42 -54 -72 -54s-77 17 -87 76c-28 -33 -75 -76 -130 -76c-68 0 -126 58 -126 157c0 148 122 294 235 294 c52 0 79 -40 90 -66l61 243c1 3 3 11 3 17c0 10 -1 19 -50 19c-14 0 -22 0 -22 10c0 18 7 19 32 21c18 1 33 3 50 4c5 1 54 5 55 5c2 0 12 0 12 -10c0 -5 -2 -11 -3 -15zM301 119l49 196c1 2 4 15 4 16c0 8 -13 90 -79 90c-39 0 -86 -36 -120 -106 c-19 -42 -50 -154 -50 -209c0 -59 23 -96 64 -96c47 0 91 43 113 71c14 19 14 21 19 38z" id="6418"/><path d="M297 326l-64 -255c-2 -7 -4 -15 -4 -20c0 -15 2 -22 81 -22c22 0 28 0 28 -11c0 -18 -12 -18 -21 -18c-22 0 -46 2 -68 2h-130c-19 0 -39 -2 -58 -2c-6 0 -15 0 -15 11c0 18 10 18 29 18c70 0 72 10 81 45l135 540c3 11 4 15 4 20c0 11 0 18 -62 18c-17 0 -24 0 -24 11 c0 18 10 18 29 18h474c18 0 27 0 27 -11c0 -2 -2 -12 -2 -15l-21 -175c-2 -18 -6 -22 -13 -22c-6 0 -11 3 -11 11c0 4 2 17 3 21c3 26 3 48 3 54c0 71 -18 108 -143 108h-134c-41 0 -43 -3 -52 -38l-65 -259h91c87 0 107 21 128 96c4 17 5 21 14 21c7 0 10 -6 10 -10 l-58 -233c-4 -16 -5 -20 -13 -20c-7 0 -11 4 -11 11c0 2 1 7 3 11c5 22 7 36 7 49c0 29 -6 46 -82 46h-96z" id="4618"/><path d="M429 713l-335 -941c-7 -21 -16 -22 -22 -22c-8 0 -18 7 -18 19c0 2 6 17 6 18l335 941c8 22 17 22 22 22c8 0 18 -7 18 -19c0 -2 -6 -17 -6 -18z" id="3d18"/><path d="M643 321h-567c-15 0 -30 0 -30 17c0 18 17 18 34 18h559c17 0 34 0 34 -18c0 -17 -15 -17 -30 -17zM639 143h-559c-17 0 -34 0 -34 18c0 17 15 17 30 17h567c15 0 30 0 30 -17c0 -18 -17 -18 -34 -18z" id="3d15"/><path d="M389 409c-13 9 -29 12 -45 12c-41 0 -67 -23 -79 -34c-25 -22 -52 -71 -55 -80c-3 -13 -7 -29 -11 -43c-5 -22 -11 -43 -16 -65c-6 -23 -43 -174 -46 -182c-6 -20 -25 -27 -36 -27c-15 0 -26 11 -26 25c0 5 11 52 18 78c5 18 16 63 20 82l28 108c7 31 17 70 17 92 c0 29 -7 46 -31 46c-40 0 -59 -58 -74 -118c-6 -23 -7 -24 -15 -24c-7 0 -11 5 -11 9c0 5 15 65 32 101c12 22 32 52 71 52c40 0 80 -26 87 -79c42 61 88 79 128 79c50 0 81 -28 81 -60c0 -30 -23 -54 -51 -54c-14 0 -33 8 -33 32c0 22 16 44 47 50z" id="7218"/><path d="M341 58c-20 -24 -55 -68 -119 -68c-41 0 -118 16 -118 118c0 30 5 68 49 187c15 38 26 67 26 93c0 32 -16 33 -26 33c-38 0 -77 -38 -101 -124c-4 -14 -5 -18 -14 -18c-7 0 -11 5 -11 9c0 8 37 153 129 153c48 0 79 -37 79 -80c0 -20 -5 -33 -17 -65 c-26 -67 -54 -147 -54 -204c0 -37 10 -82 62 -82c73 0 112 82 113 82c7 35 61 250 71 289c6 25 13 50 42 50c15 0 27 -10 27 -25c0 -3 0 -5 -7 -30l-41 -163c-6 -28 -13 -55 -20 -82c-10 -42 -13 -52 -13 -75c0 -13 0 -46 30 -46c40 0 58 53 76 122c4 15 5 20 14 20 c6 0 10 -4 10 -9c0 -3 -13 -62 -30 -98c-16 -34 -40 -55 -72 -55c-24 0 -72 12 -85 68z" id="7518"/><path d="M201 402l-78 -313c-3 -12 -3 -31 -3 -32c0 -22 2 -47 32 -47c58 0 104 70 125 120c7 16 8 17 9 18c2 4 6 4 8 4c6 0 10 -3 10 -9c0 -7 -54 -153 -155 -153c-56 0 -89 43 -89 90c0 13 3 23 11 58l66 264h-89c-19 0 -26 0 -26 10c0 19 9 19 29 19h94l39 159 c8 32 31 35 39 35c13 0 26 -9 26 -25c0 -7 0 -9 -4 -23l-37 -146h88c20 0 26 0 26 -11c0 -18 -10 -18 -29 -18h-92z" id="7418"/><path d="M301 119l49 196c1 2 4 15 4 16c0 8 -13 90 -79 90c-39 0 -86 -36 -120 -106c-19 -42 -50 -154 -50 -209c0 -59 23 -96 64 -96c47 0 91 43 113 71c14 19 14 21 19 38zM365 375c2 12 10 47 42 47c15 0 26 -11 26 -25c0 -6 -9 -42 -46 -192c-8 -29 -13 -51 -20 -76 c-9 -39 -12 -50 -12 -73c0 -20 2 -46 31 -46c41 0 60 63 75 122c4 15 5 20 14 20c6 0 10 -4 10 -9c0 -4 -14 -65 -30 -99c-18 -36 -42 -54 -72 -54s-77 17 -87 76c-28 -33 -75 -76 -130 -76c-68 0 -126 58 -126 157c0 148 122 294 235 294c52 0 79 -40 90 -66z" id="6118"/></defs><g transform="scale(1.25)"><g transform="scale(0.02488,-0.02488)"><g transform="translate(7139.904,-4627.612)"><use xlink:href="#4618"/><use x="768.994" xlink:href="#6118"/><use x="1282.994" xlink:href="#7218"/><use x="1751.192" xlink:href="#6118"/><use x="2265.192" xlink:href="#6418"/></g></g><g transform="scale(0.02488,-0.02488)"><g transform="translate(10190.873,-4627.612)"><use xlink:href="#3d15"/></g></g><g transform="scale(0.02488,-0.02488)"><g transform="translate(11187.65,-4627.612)"><use xlink:href="#4318"/><use x="771.816" xlink:href="#6f18"/><use x="1241.816" xlink:href="#7518"/><use x="1798.816" xlink:href="#6c18"/><use x="2111.808" xlink:href="#7518"/><use x="2668.808" xlink:href="#6d18"/><use x="3524.808" xlink:href="#6218"/><use x="3940.808" xlink:href="#3d18"/><use x="4429.808" xlink:href="#5618"/><use x="5217.398" xlink:href="#6f18"/><use x="5687.398" xlink:href="#6c18"/><use x="6000.389" xlink:href="#7418"/></g></g></g></svg>