<?xml version="1.0" ?><!DOCTYPE svg  PUBLIC '-//W3C//DTD SVG 1.1//EN'  'http://www.w3.org/Graphics/SVG/1.1/DTD/svg11.dtd'><svg height="52.617" viewBox="174.536 109.835 419.371 52.617" width="419.371" xmlns="http://www.w3.org/2000/svg" xmlns:xlink="http://www.w3.org/1999/xlink"><defs><path d="M206 293l-33 -132l-22 -90c-5 -20 -14 -55 -16 -60c-8 -15 -22 -21 -34 -21c-15 0 -26 11 -26 25c0 5 11 52 18 78c5 18 16 63 20 82l28 108c7 31 17 70 17 92c0 30 -8 46 -31 46c-40 0 -59 -59 -74 -118c-6 -23 -7 -24 -15 -24c-7 0 -11 5 -11 9s14 65 32 101 c19 38 42 52 71 52c44 0 85 -31 88 -88c18 25 65 88 154 88c75 0 108 -43 111 -97c40 59 94 97 161 97c76 0 111 -45 111 -105c0 -58 -45 -176 -63 -224c-4 -11 -16 -43 -16 -69c0 -32 16 -33 26 -33c40 0 77 42 100 122c5 17 6 20 15 20c6 0 10 -4 10 -9 c0 -6 -35 -153 -128 -153c-48 0 -79 36 -79 81c0 18 5 31 14 55c22 60 61 169 61 225c0 40 -14 70 -54 70c-110 0 -162 -125 -164 -133l-60 -239c-9 -36 -14 -59 -44 -59c-15 0 -26 11 -26 25c0 4 6 30 10 45c2 11 21 85 29 115l25 103c12 47 12 67 12 73 c0 40 -14 70 -54 70c-39 0 -73 -16 -99 -40c-37 -32 -62 -82 -64 -88z" id="6d18"/><path d="M221 340h-49c-20 0 -21 1 -21 8s4 8 11 9c4 0 27 2 32 2c33 3 67 5 97 44c34 44 38 94 38 122c0 96 -66 113 -101 113s-114 -12 -143 -78c4 2 9 2 13 2c21 0 39 -13 39 -39s-18 -39 -39 -39c-13 0 -39 6 -39 41c0 80 80 136 171 136c90 0 169 -57 169 -135 c0 -91 -73 -159 -149 -175c95 -11 175 -81 175 -178c0 -102 -85 -189 -196 -189c-106 0 -196 72 -196 164c0 37 26 45 43 45c20 0 42 -13 42 -42c0 -26 -18 -42 -42 -42c-5 0 -10 0 -15 2c27 -77 113 -103 166 -103c58 0 122 46 122 166c0 89 -39 166 -128 166z" id="3315"/><path d="M254 669l-141 -560c-7 -28 -7 -49 -7 -53c0 -14 0 -46 30 -46c40 0 58 53 76 122c4 15 5 20 14 20c6 0 10 -4 10 -9c0 -4 -14 -67 -31 -100c-16 -31 -38 -53 -71 -53c-51 0 -88 40 -88 90c0 16 2 24 5 35l124 496c5 18 5 20 5 24c0 10 0 19 -51 19c-10 0 -20 0 -20 10 c0 18 7 19 31 21c18 1 33 3 50 4c18 2 54 5 55 5c2 0 12 0 12 -10c0 -5 -2 -11 -3 -15z" id="6c18"/><path d="M296 318l-64 -255c-1 -5 -2 -12 -2 -17c0 -10 1 -17 61 -17c15 0 24 0 24 -10c0 -19 -11 -19 -19 -19c-19 0 -40 2 -59 2h-117c-19 0 -39 -2 -58 -2c-6 0 -15 0 -15 11c0 18 10 18 29 18c70 0 72 10 81 45l135 538c4 15 4 21 4 23c0 11 0 19 -61 19c-15 0 -24 0 -24 10 c0 19 9 19 28 19h309c126 0 192 -71 192 -149c0 -114 -138 -216 -276 -216h-168zM368 615l-68 -273h141c91 0 139 38 156 56c46 46 59 131 59 157c0 75 -62 99 -137 99h-99c-39 0 -43 -2 -52 -39z" id="5018"/><path d="M456 275c0 -141 -129 -285 -262 -285c-91 0 -153 71 -153 166c0 141 130 285 262 285c91 0 153 -71 153 -166zM195 10c39 0 94 26 135 93c38 61 59 168 59 208c0 70 -38 110 -87 110c-41 0 -97 -26 -142 -103c-28 -50 -52 -152 -52 -198c0 -70 37 -110 87 -110z" id="6f18"/><path d="M179 232h-53c-15 -64 -15 -89 -15 -103c0 -74 30 -119 87 -119c38 0 133 15 197 100c9 9 10 10 13 10c4 0 10 -5 10 -11c0 -13 -86 -119 -222 -119c-91 0 -151 73 -151 178c0 178 151 273 256 273c66 0 104 -40 104 -84c0 -18 -7 -76 -83 -105c-48 -18 -116 -20 -143 -20 zM131 252h42c42 0 202 0 202 105c0 38 -30 64 -74 64c-32 0 -127 -15 -170 -169z" id="6518"/><path d="M114 585v-225c34 36 77 55 128 55c97 0 175 -93 175 -213c0 -129 -98 -218 -201 -218c-106 0 -175 91 -175 178c0 28 15 42 38 42c19 0 38 -11 38 -38c0 -31 -25 -38 -38 -38c-4 0 -12 2 -16 3c18 -77 85 -123 151 -123c43 0 82 21 107 62c30 46 30 104 30 136 c0 171 -75 193 -110 193c-50 0 -94 -19 -126 -64c-5 -7 -7 -9 -12 -9c-10 0 -10 5 -10 23v290c0 20 1 21 6 21c1 0 3 0 14 -5c49 -22 94 -26 124 -26c50 0 91 12 126 27c8 4 10 4 11 4c6 0 6 -5 6 -13c-29 -29 -80 -79 -173 -79c-42 0 -83 13 -93 17z" id="3515"/><path d="M184 48c0 -24 -20 -48 -49 -48c-24 0 -48 20 -48 49c0 24 20 48 49 48c24 0 48 -20 48 -49z" id="3a18"/><path d="M43 -127l113 450c4 18 7 28 7 52c0 30 -8 46 -31 46c-40 0 -59 -59 -74 -118c-6 -23 -7 -24 -15 -24c-7 0 -11 5 -11 9s14 65 32 101c19 38 42 52 71 52c40 0 79 -26 87 -76c11 14 65 76 129 76c75 0 127 -65 127 -157c0 -147 -122 -294 -235 -294c-52 0 -79 39 -90 67 c-6 -23 -51 -195 -51 -207c0 -8 3 -15 49 -15c17 0 24 0 24 -11c0 -18 -12 -18 -18 -18c-21 0 -72 2 -93 2h-43c-13 0 -27 -2 -40 -2c-11 0 -12 8 -12 10c0 19 10 19 22 19c41 0 45 8 52 38zM216 312l-49 -196c-1 -5 -3 -13 -3 -16c0 -4 11 -90 79 -90c46 0 92 48 117 102 c25 52 53 165 53 213c0 52 -20 96 -64 96c-38 0 -71 -28 -82 -38c-16 -14 -44 -43 -51 -71z" id="7018"/><path d="M391 376c-20 43 -75 45 -88 45c-63 0 -117 -54 -143 -101c-36 -68 -53 -165 -53 -200c0 -50 22 -110 91 -110c38 0 133 15 197 100c9 9 10 10 13 10c4 0 10 -5 10 -11c0 -13 -86 -119 -222 -119c-102 0 -156 79 -156 166c0 142 131 285 262 285c69 0 115 -37 115 -85 c0 -40 -27 -60 -51 -60c-19 0 -34 12 -34 32c0 16 11 31 17 36c14 12 23 12 42 12z" id="6318"/><path d="M643 321h-567c-15 0 -30 0 -30 17c0 18 17 18 34 18h559c17 0 34 0 34 -18c0 -17 -15 -17 -30 -17zM639 143h-559c-17 0 -34 0 -34 18c0 17 15 17 30 17h567c15 0 30 0 30 -17c0 -18 -17 -18 -34 -18z" id="3d15"/><path d="M228 200c-23 5 -97 21 -97 97c0 41 35 144 166 144c78 0 116 -43 116 -85s-28 -53 -42 -53c-9 0 -28 6 -28 27c0 1 2 39 46 39c-10 36 -51 52 -93 52c-95 0 -113 -72 -113 -92c0 -45 43 -54 70 -60c54 -11 78 -16 103 -40c32 -32 32 -60 32 -75c0 -52 -45 -164 -197 -164 c-80 0 -140 37 -140 96c0 45 29 62 51 62c20 0 34 -11 34 -32c0 -22 -20 -53 -60 -48c20 -55 95 -58 116 -58c116 0 144 81 144 112c0 48 -45 64 -58 68c-6 1 -33 7 -50 10z" id="7318"/><path d="M417 155l-24 -155h-352v23l199 225c57 65 108 140 108 227c0 91 -57 160 -144 160c-61 0 -119 -42 -138 -127c4 2 10 3 16 3c14 0 40 -9 40 -40c0 -35 -30 -41 -40 -41c-12 0 -41 5 -41 44c0 90 67 187 177 187c105 0 199 -68 199 -186c0 -99 -71 -167 -132 -225 c-85 -82 -155 -153 -191 -192h192c14 0 86 0 91 8c4 6 12 18 22 89h18z" id="3215"/><path d="M389 409c-13 9 -29 12 -45 12c-41 0 -67 -23 -79 -34c-25 -22 -52 -71 -55 -80c-3 -13 -7 -29 -11 -43c-5 -22 -11 -43 -16 -65c-6 -23 -43 -174 -46 -182c-6 -20 -25 -27 -36 -27c-15 0 -26 11 -26 25c0 5 11 52 18 78c5 18 16 63 20 82l28 108c7 31 17 70 17 92 c0 29 -7 46 -31 46c-40 0 -59 -58 -74 -118c-6 -23 -7 -24 -15 -24c-7 0 -11 5 -11 9c0 5 15 65 32 101c12 22 32 52 71 52c40 0 80 -26 87 -79c42 61 88 79 128 79c50 0 81 -28 81 -60c0 -30 -23 -54 -51 -54c-14 0 -33 8 -33 32c0 22 16 44 47 50z" id="7218"/><path d="M281 669l-77 -307c41 52 91 79 148 79c76 0 111 -45 111 -105c0 -58 -45 -176 -63 -224c-4 -11 -16 -43 -16 -69c0 -32 16 -33 26 -33c40 0 77 42 100 122c5 17 6 20 15 20c6 0 10 -4 10 -9c0 -6 -35 -153 -128 -153c-48 0 -79 36 -79 81c0 18 5 31 14 55 c22 60 61 169 61 225c0 40 -14 70 -54 70c-77 0 -122 -60 -141 -89s-19 -30 -30 -72c-5 -22 -11 -43 -16 -65l-45 -181c-5 -11 -18 -24 -35 -24c-10 0 -27 4 -27 26c0 6 0 8 4 23l145 579c1 3 3 11 3 17c0 10 -1 19 -50 19c-14 0 -22 0 -22 10c0 18 7 19 32 21 c18 1 33 3 50 4c5 1 54 5 55 5c2 0 12 0 12 -10c0 -5 -2 -11 -3 -15z" id="6818"/><path d="M420 321c0 -73 -4 -154 -34 -223c-41 -95 -111 -114 -157 -114c-39 0 -116 14 -159 117c-31 76 -32 163 -32 220c0 78 4 171 44 246c38 72 99 94 147 94c52 0 111 -25 148 -95c42 -80 43 -184 43 -245zM229 0c35 0 94 19 115 128c12 59 12 139 12 204 c0 80 -1 147 -14 204c-19 82 -72 109 -113 109c-39 0 -95 -26 -114 -111c-13 -61 -13 -125 -13 -202c0 -56 0 -142 11 -201c14 -76 52 -131 116 -131z" id="3015"/><path d="M201 402l-78 -313c-3 -12 -3 -31 -3 -32c0 -22 2 -47 32 -47c58 0 104 70 125 120c7 16 8 17 9 18c2 4 6 4 8 4c6 0 10 -3 10 -9c0 -7 -54 -153 -155 -153c-56 0 -89 43 -89 90c0 13 3 23 11 58l66 264h-89c-19 0 -26 0 -26 10c0 19 9 19 29 19h94l39 159 c8 32 31 35 39 35c13 0 26 -9 26 -25c0 -7 0 -9 -4 -23l-37 -146h88c20 0 26 0 26 -11c0 -18 -10 -18 -29 -18h-92z" id="7418"/><path d="M301 119l49 196c1 2 4 15 4 16c0 8 -13 90 -79 90c-39 0 -86 -36 -120 -106c-19 -42 -50 -154 -50 -209c0 -59 23 -96 64 -96c47 0 91 43 113 71c14 19 14 21 19 38zM365 375c2 12 10 47 42 47c15 0 26 -11 26 -25c0 -6 -9 -42 -46 -192c-8 -29 -13 -51 -20 -76 c-9 -39 -12 -50 -12 -73c0 -20 2 -46 31 -46c41 0 60 63 75 122c4 15 5 20 14 20c6 0 10 -4 10 -9c0 -4 -14 -65 -30 -99c-18 -36 -42 -54 -72 -54s-77 17 -87 76c-28 -33 -75 -76 -130 -76c-68 0 -126 58 -126 157c0 148 122 294 235 294c52 0 79 -40 90 -66z" id="6118"/><path d="M266 639v-566c0 -36 2 -47 88 -47h30v-26c-48 1 -98 2 -146 2s-98 -1 -146 -2v26h30c86 0 88 12 88 47v527c-40 -24 -92 -30 -123 -30c0 21 0 23 1 25s6 2 9 2c56 2 115 17 154 64c14 0 15 -1 15 -22z" id="3115"/></defs><g transform="scale(1.25)"><g transform="scale(0.02488,-0.02488)"><g transform="translate(5927.021,-4627.612)"><use xlink:href="#3115"/></g></g><g transform="scale(0.02488,-0.02488)"><g transform="translate(6385.021,-4627.612)"><use xlink:href="#6118"/><use x="514" xlink:href="#7418"/><use x="867" xlink:href="#6d18"/><use x="1723" xlink:href="#6f18"/><use x="2193" xlink:href="#7318"/><use x="2654" xlink:href="#7018"/><use x="3145" xlink:href="#6818"/><use x="3708" xlink:href="#6518"/><use x="4161" xlink:href="#7218"/><use x="4629.198" xlink:href="#6518"/></g></g><g transform="scale(0.02488,-0.02488)"><g transform="translate(11744.997,-4627.612)"><use xlink:href="#3d15"/><use x="996.777" xlink:href="#3115"/><use x="1454.777" xlink:href="#3015"/><use x="1912.777" xlink:href="#3115"/></g></g><g transform="scale(0.02488,-0.02488)"><g transform="translate(14115.773,-4627.612)"><use xlink:href="#3a18"/></g></g><g transform="scale(0.02488,-0.02488)"><g transform="translate(14386.773,-4627.612)"><use xlink:href="#3315"/><use x="458" xlink:href="#3215"/><use x="916" xlink:href="#3515"/></g></g><g transform="scale(0.02488,-0.02488)"><g transform="translate(15760.773,-4627.612)"><use xlink:href="#5018"/><use x="766.994" xlink:href="#6118"/><use x="1280.994" xlink:href="#7318"/><use x="1741.994" xlink:href="#6318"/><use x="2162.994" xlink:href="#6118"/><use x="2676.994" xlink:href="#6c18"/></g></g></g></svg>