<?xml version="1.0" ?><!DOCTYPE svg  PUBLIC '-//W3C//DTD SVG 1.1//EN'  'http://www.w3.org/Graphics/SVG/1.1/DTD/svg11.dtd'><svg height="56.1" viewBox="233.393 108.094 298.836 56.1" width="298.836" xmlns="http://www.w3.org/2000/svg" xmlns:xlink="http://www.w3.org/1999/xlink"><defs><path d="M471 405c40 -29 66 -78 66 -139c0 -135 -127 -278 -262 -278c-14 0 -63 0 -107 39c-29 25 -44 61 -50 82l-71 -284c-5 -18 -6 -19 -14 -19c-10 0 -10 6 -10 8c0 3 1 7 3 15l152 607c33 133 144 268 272 268c78 0 130 -54 130 -126c0 -62 -40 -132 -109 -173zM441 420 c71 50 81 169 81 183c0 48 -26 81 -75 81c-76 0 -133 -57 -153 -76c-68 -68 -92 -165 -101 -201c-13 -53 -26 -106 -40 -158c-13 -52 -17 -69 -17 -94c0 -84 54 -147 139 -147c54 0 102 39 130 80c45 65 64 170 64 213c0 21 0 59 -31 88c-32 -12 -60 -12 -73 -12 c-28 0 -64 1 -64 24c0 30 51 30 73 30c19 0 40 0 67 -11zM323 402c13 -4 17 -5 42 -5c13 0 28 0 47 8c-14 6 -24 6 -40 6c-3 0 -28 0 -40 -4c-2 0 -7 -4 -9 -5z" id="0c18"/><path d="M201 402l-78 -313c-3 -12 -3 -31 -3 -32c0 -22 2 -47 32 -47c58 0 104 70 125 120c7 16 8 17 9 18c2 4 6 4 8 4c6 0 10 -3 10 -9c0 -7 -54 -153 -155 -153c-56 0 -89 43 -89 90c0 13 3 23 11 58l66 264h-89c-19 0 -26 0 -26 10c0 19 9 19 29 19h94l39 159 c8 32 31 35 39 35c13 0 26 -9 26 -25c0 -7 0 -9 -4 -23l-37 -146h88c20 0 26 0 26 -11c0 -18 -10 -18 -29 -18h-92z" id="7419"/><path d="M127 81c9 4 20 4 30 4c13 0 24 0 64 -16c21 -9 41 -16 62 -16c39 0 98 24 120 83c3 10 4 14 12 14c10 0 11 -6 11 -10c0 -23 -56 -150 -154 -150c-32 0 -49 21 -68 43c-20 25 -30 32 -51 32c-37 0 -69 -37 -85 -62c-7 -12 -8 -13 -14 -13s-11 2 -11 8c0 7 37 66 98 128 l101 93c45 41 99 89 132 128c-5 -1 -9 -1 -16 -1c-10 0 -26 0 -64 16c-21 9 -41 16 -62 16c-19 0 -67 -7 -84 -47c-3 -7 -4 -11 -12 -11c-9 0 -10 6 -10 9c0 21 44 112 117 112c29 0 46 -17 67 -42c19 -24 30 -33 51 -33c26 0 50 21 75 64c5 7 7 11 14 11c2 0 10 0 10 -8 s-35 -66 -105 -135c-14 -15 -40 -40 -100 -92c-50 -45 -85 -76 -128 -125z" id="7a19"/><path d="M263 249c0 -96 -14 -204 -64 -315c-49 -110 -134 -184 -145 -184c-3 0 -7 1 -7 6c0 2 1 3 2 5c49 50 170 177 170 489c0 311 -122 438 -170 488c-1 2 -2 3 -2 5c0 5 4 6 7 6c12 0 94 -73 142 -177c60 -129 67 -251 67 -323z" id="2915"/><path d="M366 615l-62 -250h144c132 0 213 103 213 184c0 9 0 105 -113 105h-130c-39 0 -43 -2 -52 -39zM535 357c81 -8 153 -58 153 -140c0 -101 -118 -217 -271 -217h-343c-20 0 -26 0 -26 11c0 18 10 18 29 18c70 0 72 10 81 45l135 538c4 15 4 21 4 23c0 11 0 19 -61 19 c-15 0 -24 0 -24 10c0 19 9 19 28 19h321c113 0 182 -60 182 -138c0 -92 -99 -168 -208 -188zM393 29c124 0 211 102 211 198c0 8 0 118 -118 118h-188l-70 -282c-2 -9 -4 -15 -4 -22c0 -8 1 -10 12 -11c6 -1 8 -1 22 -1h135z" id="4219"/><path d="M206 293l-33 -132l-22 -90c-5 -20 -14 -55 -16 -60c-8 -15 -22 -21 -34 -21c-15 0 -26 11 -26 25c0 5 11 52 18 78c5 18 16 63 20 82l28 108c7 31 17 70 17 92c0 30 -8 46 -31 46c-40 0 -58 -57 -74 -118c-6 -23 -7 -24 -15 -24c-7 0 -11 5 -11 9s14 64 32 100 c17 34 39 53 71 53c44 0 85 -31 88 -88c18 25 65 88 154 88c76 0 111 -45 111 -105c0 -57 -42 -169 -62 -224c-6 -14 -17 -44 -17 -69c0 -32 16 -33 26 -33c39 0 77 40 100 122c5 17 6 20 15 20c6 0 10 -4 10 -9c0 -6 -35 -153 -128 -153c-48 0 -79 36 -79 81 c0 18 5 31 14 55c20 54 61 168 61 225c0 40 -14 70 -54 70c-39 0 -73 -16 -99 -40c-37 -32 -62 -82 -64 -88z" id="6e19"/><path d="M456 275c0 -141 -129 -285 -262 -285c-91 0 -153 71 -153 166c0 141 130 285 262 285c91 0 153 -71 153 -166zM195 10c39 0 94 26 135 93c38 61 59 168 59 208c0 70 -38 110 -87 110c-41 0 -97 -26 -142 -103c-28 -50 -52 -152 -52 -198c0 -70 37 -110 87 -110z" id="6f19"/><path d="M429 713l-335 -941c-7 -21 -16 -22 -22 -22c-8 0 -18 7 -18 19c0 2 6 17 6 18l335 941c8 22 17 22 22 22c8 0 18 -7 18 -19c0 -2 -6 -17 -6 -18z" id="3d18"/><path d="M643 321h-567c-15 0 -30 0 -30 17c0 18 17 18 34 18h559c17 0 34 0 34 -18c0 -17 -15 -17 -30 -17zM639 143h-559c-17 0 -34 0 -34 18c0 17 15 17 30 17h567c15 0 30 0 30 -17c0 -18 -17 -18 -34 -18z" id="3d15"/><path d="M306 -244c0 -4 -2 -6 -7 -6c-12 0 -94 73 -142 177c-60 129 -67 251 -67 323c0 96 14 204 64 315c49 110 134 184 145 184c4 0 7 -2 7 -5s-2 -5 -2 -6c-49 -50 -170 -177 -170 -489s123 -440 169 -487c3 -3 3 -5 3 -6z" id="2815"/><path d="M206 293l-33 -132l-22 -90c-5 -20 -14 -55 -16 -60c-8 -15 -22 -21 -34 -21c-15 0 -26 11 -26 25c0 5 11 52 18 78c5 18 16 63 20 82l28 108c7 31 17 70 17 92c0 30 -8 46 -31 46c-40 0 -59 -59 -74 -118c-6 -23 -7 -24 -15 -24c-7 0 -11 5 -11 9s14 65 32 101 c19 38 42 52 71 52c44 0 85 -31 88 -88c18 25 65 88 154 88c75 0 108 -43 111 -97c40 59 94 97 161 97c76 0 111 -45 111 -105c0 -58 -45 -176 -63 -224c-4 -11 -16 -43 -16 -69c0 -32 16 -33 26 -33c40 0 77 42 100 122c5 17 6 20 15 20c6 0 10 -4 10 -9 c0 -6 -35 -153 -128 -153c-48 0 -79 36 -79 81c0 18 5 31 14 55c22 60 61 169 61 225c0 40 -14 70 -54 70c-110 0 -162 -125 -164 -133l-60 -239c-9 -36 -14 -59 -44 -59c-15 0 -26 11 -26 25c0 4 6 30 10 45c2 11 21 85 29 115l25 103c12 47 12 67 12 73 c0 40 -14 70 -54 70c-39 0 -73 -16 -99 -40c-37 -32 -62 -82 -64 -88z" id="6d19"/><path d="M254 669l-141 -560c-7 -28 -7 -49 -7 -53c0 -14 0 -46 30 -46c40 0 58 53 76 122c4 15 5 20 14 20c6 0 10 -4 10 -9c0 -4 -14 -67 -31 -100c-16 -31 -38 -53 -71 -53c-51 0 -88 40 -88 90c0 16 2 24 5 35l124 496c5 18 5 20 5 24c0 10 0 19 -51 19c-10 0 -20 0 -20 10 c0 18 7 19 31 21c18 1 33 3 50 4c18 2 54 5 55 5c2 0 12 0 12 -10c0 -5 -2 -11 -3 -15z" id="6c19"/><path d="M301 119l49 196c1 2 4 15 4 16c0 8 -13 90 -79 90c-39 0 -86 -36 -120 -106c-19 -42 -50 -154 -50 -209c0 -59 23 -96 64 -96c47 0 91 43 113 71c14 19 14 21 19 38zM365 375c2 12 10 47 42 47c15 0 26 -11 26 -25c0 -6 -9 -42 -46 -192c-8 -29 -13 -51 -20 -76 c-9 -39 -12 -50 -12 -73c0 -20 2 -46 31 -46c41 0 60 63 75 122c4 15 5 20 14 20c6 0 10 -4 10 -9c0 -4 -14 -65 -30 -99c-18 -36 -42 -54 -72 -54s-77 17 -87 76c-28 -33 -75 -76 -130 -76c-68 0 -126 58 -126 157c0 148 122 294 235 294c52 0 79 -40 90 -66z" id="6119"/><path d="M281 669l-103 -411c37 14 74 52 84 64c71 80 116 119 171 119c45 0 68 -30 68 -59c0 -32 -24 -55 -51 -55c-14 0 -33 8 -33 32c0 20 14 46 51 50c-7 6 -13 12 -36 12c-46 0 -85 -32 -142 -96c-14 -15 -50 -54 -86 -76c92 -12 145 -45 145 -104c0 -12 0 -13 -4 -31 c-4 -15 -8 -37 -8 -56c0 -38 13 -48 33 -48c51 0 72 70 86 122c4 16 5 20 14 20c6 0 10 -4 10 -9c0 -4 -13 -60 -34 -97c-8 -14 -32 -56 -78 -56c-51 0 -89 39 -89 97c0 5 0 17 4 32c3 15 3 19 3 25c0 48 -43 78 -115 86l-47 -187c-8 -31 -14 -53 -42 -53 c-10 0 -27 4 -27 26c0 6 0 8 4 23l143 572c5 18 5 20 5 24c0 10 0 19 -51 19c-10 0 -20 0 -20 10c0 18 7 19 31 21c18 1 33 3 50 4c18 2 54 5 55 5c2 0 12 0 12 -10c0 -5 -2 -11 -3 -15z" id="6b18"/><path d="M417 610l-134 -533c-4 -16 -4 -23 -4 -24c0 -15 0 -24 90 -24c26 0 33 0 33 -10c0 -19 -10 -19 -21 -19c-25 0 -52 2 -77 2h-156c-25 0 -51 -2 -76 -2c-5 0 -16 0 -16 10c0 19 7 19 32 19c106 0 108 10 118 49l134 537c5 18 5 20 5 23c0 11 -10 11 -34 11h-67 c-133 0 -154 -56 -196 -177c-4 -13 -6 -17 -14 -17c-6 0 -10 5 -10 10c0 1 3 12 4 14l61 180c6 18 7 19 30 19h547c20 0 26 0 26 -11c0 -3 0 -5 -2 -14l-29 -177c-3 -16 -3 -21 -13 -21c-6 0 -10 6 -10 10l1 12c6 37 10 75 10 90c0 78 -47 82 -147 82c-21 0 -54 0 -62 -2 c-15 -4 -17 -13 -23 -37z" id="5418"/><path d="M266 639v-566c0 -36 2 -47 88 -47h30v-26c-48 1 -98 2 -146 2s-98 -1 -146 -2v26h30c86 0 88 12 88 47v527c-40 -24 -92 -30 -123 -30c0 21 0 23 1 25s6 2 9 2c56 2 115 17 154 64c14 0 15 -1 15 -22z" id="3115"/></defs><g transform="scale(1.25)"><g transform="scale(0.02488,-0.02488)"><g transform="translate(7883.537,-4627.612)"><use xlink:href="#0c18"/></g></g><g transform="scale(0.02488,-0.02488)"><g transform="translate(8768.753,-4627.612)"><use xlink:href="#3d15"/><use x="996.777" xlink:href="#3115"/></g></g><g transform="scale(0.02488,-0.02488)"><g transform="translate(10223.53,-4627.612)"><use xlink:href="#3d18"/></g></g><g transform="scale(0.02488,-0.02488)"><g transform="translate(10712.53,-4627.612)"><use xlink:href="#2815"/></g></g><g transform="scale(0.02488,-0.02488)"><g transform="translate(11066.53,-4627.612)"><use xlink:href="#6b18"/></g></g><g transform="scale(0.02074,-0.02074)"><g transform="translate(13886.17,-5832.592)"><use xlink:href="#4219"/><use x="793.464" xlink:href="#6f19"/><use x="1263.464" xlink:href="#6c19"/><use x="1576.455" xlink:href="#7419"/><use x="1929.455" xlink:href="#7a19"/><use x="2428.015" xlink:href="#6d19"/><use x="3284.015" xlink:href="#6119"/><use x="3798.015" xlink:href="#6e19"/><use x="4382.015" xlink:href="#6e19"/></g></g><g transform="scale(0.02488,-0.02488)"><g transform="translate(15739.565,-4627.612)"><use xlink:href="#5418"/></g></g><g transform="scale(0.02488,-0.02488)"><g transform="translate(16448.559,-4627.612)"><use xlink:href="#2915"/></g></g></g></svg>