<?xml version="1.0" encoding="UTF-8" standalone="no"?>
<!DOCTYPE svg PUBLIC "-//W3C//DTD SVG 1.1//EN"
 "http://www.w3.org/Graphics/SVG/1.1/DTD/svg11.dtd">
<!-- Generated by graphviz version 2.38.0 (20140413.2041)
 -->
<!-- Title: topicsAndConcepts Pages: 1 -->
<svg width="1112pt" height="868pt"
 viewBox="0.00 0.00 1112.49 868.37" xmlns="http://www.w3.org/2000/svg" xmlns:xlink="http://www.w3.org/1999/xlink">
<g id="graph0" class="graph" transform="scale(1 1) rotate(0) translate(596.496 386.294)">
<title>topicsAndConcepts</title>
<polygon fill="white" stroke="none" points="-596.496,482.078 -596.496,-386.294 515.996,-386.294 515.996,482.078 -596.496,482.078"/>
<text text-anchor="middle" x="-40.25" y="457.678" font-family="Times,serif" font-size="12.00">Concepts (red ellipses) and topics (blue squares)</text>
<text text-anchor="middle" x="-40.25" y="470.678" font-family="Times,serif" font-size="12.00">coarse overview of the Physics Derivation Graph</text>
<!-- cosmology -->
<g id="node1" class="node"><title>cosmology</title>
<g id="a_node1"><a xlink:href="https://en.wikipedia.org/wiki/Cosmology" xlink:title="cosmology">
<polygon fill="none" stroke="blue" stroke-width="2" points="23.1569,256.624 -54.8431,256.624 -54.8431,292.624 23.1569,292.624 23.1569,256.624"/>
<text text-anchor="middle" x="-15.8431" y="278.324" font-family="Times,serif" font-size="14.00">cosmology</text>
</a>
</g>
</g>
<!-- Friedmann_equations -->
<g id="node21" class="node"><title>Friedmann_equations</title>
<g id="a_node21"><a xlink:href="https://en.wikipedia.org/wiki/Friedmann_equations" xlink:title="Friedmann\nequations">
<ellipse fill="none" stroke="red" stroke-width="2" cx="-0.806014" cy="143.786" rx="54.3945" ry="26.7407"/>
<text text-anchor="middle" x="-0.806014" y="139.986" font-family="Times,serif" font-size="14.00">Friedmann</text>
<text text-anchor="middle" x="-0.806014" y="154.986" font-family="Times,serif" font-size="14.00">equations</text>
</a>
</g>
</g>
<!-- cosmology&#45;&gt;Friedmann_equations -->
<g id="edge14" class="edge"><title>cosmology&#45;&gt;Friedmann_equations</title>
<path fill="none" stroke="black" d="M-13.7522,256.432C-11.5209,237.017 -7.92394,205.719 -5.08706,181.036"/>
<polygon fill="black" stroke="black" points="-8.54295,180.451 -3.92399,170.916 -1.58873,181.25 -8.54295,180.451"/>
</g>
<!-- Cosmological_equation_of_state -->
<g id="node24" class="node"><title>Cosmological_equation_of_state</title>
<g id="a_node24"><a xlink:href="https://en.wikipedia.org/wiki/Equation_of_state_(cosmology)" xlink:title="equation\nof state">
<ellipse fill="none" stroke="red" stroke-width="2" cx="-91.7936" cy="380.259" rx="45.9239" ry="26.7407"/>
<text text-anchor="middle" x="-91.7936" y="376.459" font-family="Times,serif" font-size="14.00">equation</text>
<text text-anchor="middle" x="-91.7936" y="391.459" font-family="Times,serif" font-size="14.00">of state</text>
</a>
</g>
</g>
<!-- cosmology&#45;&gt;Cosmological_equation_of_state -->
<g id="edge15" class="edge"><title>cosmology&#45;&gt;Cosmological_equation_of_state</title>
<path fill="none" stroke="black" d="M-29.0726,293.025C-39.7376,307.858 -55.0147,329.106 -67.8212,346.917"/>
<polygon fill="black" stroke="black" points="-65.1991,349.266 -73.8785,355.342 -70.8825,345.18 -65.1991,349.266"/>
</g>
<!-- quantum_mechanics -->
<g id="node2" class="node"><title>quantum_mechanics</title>
<g id="a_node2"><a xlink:href="https://en.wikipedia.org/wiki/Quantum_mechanics" xlink:title="quantum\nmechanics">
<polygon fill="none" stroke="blue" stroke-width="2" points="-331.706,-14.8688 -407.706,-14.8688 -407.706,23.1312 -331.706,23.1312 -331.706,-14.8688"/>
<text text-anchor="middle" x="-369.706" y="0.331246" font-family="Times,serif" font-size="14.00">quantum</text>
<text text-anchor="middle" x="-369.706" y="15.3312" font-family="Times,serif" font-size="14.00">mechanics</text>
</a>
</g>
</g>
<!-- Schrodingers_equation -->
<g id="node8" class="node"><title>Schrodingers_equation</title>
<g id="a_node8"><a xlink:href="https://en.wikipedia.org/wiki/Schr%C3%B6dinger_equation" xlink:title="Schrodinger&#39;s\nequation">
<ellipse fill="none" stroke="red" stroke-width="2" cx="-258.914" cy="-91.7509" rx="65.5227" ry="26.7407"/>
<text text-anchor="middle" x="-258.914" y="-95.5509" font-family="Times,serif" font-size="14.00">Schrodinger&#39;s</text>
<text text-anchor="middle" x="-258.914" y="-80.5509" font-family="Times,serif" font-size="14.00">equation</text>
</a>
</g>
</g>
<!-- quantum_mechanics&#45;&gt;Schrodingers_equation -->
<g id="edge2" class="edge"><title>quantum_mechanics&#45;&gt;Schrodingers_equation</title>
<path fill="none" stroke="black" stroke-width="2" d="M-347.552,-15.0415C-332.547,-28.0269 -312.379,-45.4807 -295.072,-60.4589"/>
<polygon fill="black" stroke="black" stroke-width="2" points="-297.202,-63.2442 -287.35,-67.1416 -292.621,-57.9511 -297.202,-63.2442"/>
</g>
<!-- particle_in_a_box -->
<g id="node9" class="node"><title>particle_in_a_box</title>
<g id="a_node9"><a xlink:href="https://en.wikipedia.org/wiki/Particle_in_a_box" xlink:title="particle\nin a box">
<ellipse fill="none" stroke="red" stroke-width="2" cx="-398.496" cy="133.652" rx="43.6818" ry="26.7407"/>
<text text-anchor="middle" x="-398.496" y="129.852" font-family="Times,serif" font-size="14.00">particle</text>
<text text-anchor="middle" x="-398.496" y="144.852" font-family="Times,serif" font-size="14.00">in a box</text>
</a>
</g>
</g>
<!-- quantum_mechanics&#45;&gt;particle_in_a_box -->
<g id="edge3" class="edge"><title>quantum_mechanics&#45;&gt;particle_in_a_box</title>
<path fill="none" stroke="black" stroke-width="2" d="M-373.954,23.2425C-378.251,42.576 -385.004,72.9537 -390.339,96.9552"/>
<polygon fill="black" stroke="black" stroke-width="2" points="-386.941,97.7981 -392.527,106.8 -393.774,96.2791 -386.941,97.7981"/>
</g>
<!-- quantum_harmonic_oscillator -->
<g id="node13" class="node"><title>quantum_harmonic_oscillator</title>
<g id="a_node13"><a xlink:href="https://en.wikipedia.org/wiki/Quantum_harmonic_oscillator" xlink:title="quantum_harmonic\noscillator">
<ellipse fill="none" stroke="red" stroke-width="2" cx="-504.107" cy="19.0019" rx="88.2768" ry="26.7407"/>
<text text-anchor="middle" x="-504.107" y="15.2019" font-family="Times,serif" font-size="14.00">quantum_harmonic</text>
<text text-anchor="middle" x="-504.107" y="30.2019" font-family="Times,serif" font-size="14.00">oscillator</text>
</a>
</g>
</g>
<!-- quantum_mechanics&#45;&gt;quantum_harmonic_oscillator -->
<g id="edge1" class="edge"><title>quantum_mechanics&#45;&gt;quantum_harmonic_oscillator</title>
<path fill="none" stroke="black" stroke-width="2" d="M-407.86,8.35281C-408.777,8.45424 -409.703,8.55666 -410.636,8.65997"/>
<polygon fill="black" stroke="black" stroke-width="2" points="-410.582,12.1753 -420.907,9.7963 -411.352,5.21772 -410.582,12.1753"/>
</g>
<!-- uncertainty_relation -->
<g id="node16" class="node"><title>uncertainty_relation</title>
<g id="a_node16"><a xlink:href="https://en.wikipedia.org/wiki/Uncertainty_principle" xlink:title="uncertainty\nrelation">
<ellipse fill="none" stroke="red" stroke-width="2" cx="-452.994" cy="-91.7386" rx="55.7232" ry="26.7407"/>
<text text-anchor="middle" x="-452.994" y="-95.5386" font-family="Times,serif" font-size="14.00">uncertainty</text>
<text text-anchor="middle" x="-452.994" y="-80.5386" font-family="Times,serif" font-size="14.00">relation</text>
</a>
</g>
</g>
<!-- quantum_mechanics&#45;&gt;uncertainty_relation -->
<g id="edge4" class="edge"><title>quantum_mechanics&#45;&gt;uncertainty_relation</title>
<path fill="none" stroke="black" stroke-width="2" d="M-386.56,-15.2695C-397.469,-27.8263 -411.946,-44.4904 -424.601,-59.0567"/>
<polygon fill="black" stroke="black" stroke-width="2" points="-427.493,-57.0494 -431.409,-66.8939 -422.209,-61.6402 -427.493,-57.0494"/>
</g>
<!-- classical_mechanics -->
<g id="node3" class="node"><title>classical_mechanics</title>
<g id="a_node3"><a xlink:href="https://en.wikipedia.org/wiki/Classical_mechanics" xlink:title="classical\nmechanics">
<polygon fill="none" stroke="blue" stroke-width="2" points="421.61,-68.7255 345.61,-68.7255 345.61,-30.7255 421.61,-30.7255 421.61,-68.7255"/>
<text text-anchor="middle" x="383.61" y="-53.5255" font-family="Times,serif" font-size="14.00">classical</text>
<text text-anchor="middle" x="383.61" y="-38.5255" font-family="Times,serif" font-size="14.00">mechanics</text>
</a>
</g>
</g>
<!-- work -->
<g id="node10" class="node"><title>work</title>
<g id="a_node10"><a xlink:href="https://en.wikipedia.org/wiki/Work_(physics)" xlink:title="work">
<ellipse fill="none" stroke="red" stroke-width="2" cx="482.411" cy="29.5096" rx="29.4969" ry="18"/>
<text text-anchor="middle" x="482.411" y="33.2096" font-family="Times,serif" font-size="14.00">work</text>
</a>
</g>
</g>
<!-- classical_mechanics&#45;&gt;work -->
<g id="edge5" class="edge"><title>classical_mechanics&#45;&gt;work</title>
<path fill="none" stroke="black" stroke-width="2" d="M407.527,-30.5449C422.369,-18.6425 441.436,-3.35106 456.616,8.8227"/>
<polygon fill="black" stroke="black" stroke-width="2" points="458.986,6.23706 464.598,15.2238 454.607,11.6979 458.986,6.23706"/>
</g>
<!-- F=m*a -->
<g id="node11" class="node"><title>F=m*a</title>
<g id="a_node11"><a xlink:href="https://en.wikipedia.org/wiki/Newton%27s_laws_of_motion#Newton.27s_second_law" xlink:title="F=m*a">
<ellipse fill="none" stroke="red" stroke-width="2" cx="260.063" cy="-28.7156" rx="36.2938" ry="18"/>
<text text-anchor="middle" x="260.063" y="-25.0156" font-family="Times,serif" font-size="14.00">F=m*a</text>
</a>
</g>
</g>
<!-- classical_mechanics&#45;&gt;F=m*a -->
<g id="edge6" class="edge"><title>classical_mechanics&#45;&gt;F=m*a</title>
<path fill="none" stroke="black" stroke-width="2" d="M345.534,-43.2504C332.652,-41.0598 318.15,-38.5936 304.799,-36.3233"/>
<polygon fill="black" stroke="black" stroke-width="2" points="305.306,-32.8592 294.86,-34.6331 304.132,-39.7601 305.306,-32.8592"/>
</g>
<!-- momentum -->
<g id="node14" class="node"><title>momentum</title>
<g id="a_node14"><a xlink:href="https://en.wikipedia.org/wiki/Momentum" xlink:title="momentum">
<ellipse fill="none" stroke="red" stroke-width="2" cx="460" cy="-150.892" rx="51.9908" ry="18"/>
<text text-anchor="middle" x="460" y="-147.192" font-family="Times,serif" font-size="14.00">momentum</text>
</a>
</g>
</g>
<!-- classical_mechanics&#45;&gt;momentum -->
<g id="edge7" class="edge"><title>classical_mechanics&#45;&gt;momentum</title>
<path fill="none" stroke="black" stroke-width="2" d="M397.978,-68.7542C410.012,-84.6912 427.3,-107.586 440.569,-125.158"/>
<polygon fill="black" stroke="black" stroke-width="2" points="437.9,-127.432 446.719,-133.303 443.486,-123.213 437.9,-127.432"/>
</g>
<!-- particle_physics -->
<g id="node4" class="node"><title>particle_physics</title>
<g id="a_node4"><a xlink:href="https://en.wikipedia.org/wiki/Particle_physics" xlink:title="particle\nphysics">
<polygon fill="none" stroke="blue" stroke-width="2" points="-45.6285,-211.472 -104.628,-211.472 -104.628,-173.472 -45.6285,-173.472 -45.6285,-211.472"/>
<text text-anchor="middle" x="-75.1285" y="-196.272" font-family="Times,serif" font-size="14.00">particle</text>
<text text-anchor="middle" x="-75.1285" y="-181.272" font-family="Times,serif" font-size="14.00">physics</text>
</a>
</g>
</g>
<!-- Dirac_equation -->
<g id="node15" class="node"><title>Dirac_equation</title>
<g id="a_node15"><a xlink:href="https://en.wikipedia.org/wiki/Dirac_equation" xlink:title="Dirac\nEquation">
<ellipse fill="none" stroke="red" stroke-width="2" cx="-121.972" cy="-70.1641" rx="47.2526" ry="26.7407"/>
<text text-anchor="middle" x="-121.972" y="-73.9641" font-family="Times,serif" font-size="14.00">Dirac</text>
<text text-anchor="middle" x="-121.972" y="-58.9641" font-family="Times,serif" font-size="14.00">Equation</text>
</a>
</g>
</g>
<!-- particle_physics&#45;&gt;Dirac_equation -->
<g id="edge8" class="edge"><title>particle_physics&#45;&gt;Dirac_equation</title>
<path fill="none" stroke="black" stroke-width="2" d="M-82.4478,-173.361C-89.3068,-155.453 -99.7366,-128.22 -108.16,-106.227"/>
<polygon fill="black" stroke="black" stroke-width="2" points="-104.905,-104.941 -111.75,-96.8539 -111.442,-107.444 -104.905,-104.941"/>
</g>
<!-- relativity -->
<g id="node5" class="node"><title>relativity</title>
<g id="a_node5"><a xlink:href="https://en.wikipedia.org/wiki/Theory_of_relativity" xlink:title="relativity">
<polygon fill="none" stroke="blue" stroke-width="2" points="31.1022,-9.74501 -35.8978,-9.74501 -35.8978,26.255 31.1022,26.255 31.1022,-9.74501"/>
<text text-anchor="middle" x="-2.3978" y="11.955" font-family="Times,serif" font-size="14.00">relativity</text>
</a>
</g>
</g>
<!-- relativity&#45;&gt;Dirac_equation -->
<g id="edge9" class="edge"><title>relativity&#45;&gt;Dirac_equation</title>
<g id="a_edge9"><a xlink:href="https://en.wikipedia.org/wiki/Dirac_equation">
<path fill="none" stroke="black" stroke-width="2" d="M-30.1311,-9.93303C-45.5236,-20.0278 -64.9407,-32.7619 -81.9519,-43.9182"/>
<polygon fill="black" stroke="black" stroke-width="2" points="-84.1517,-41.1752 -90.5944,-49.586 -80.3128,-47.0287 -84.1517,-41.1752"/>
</a>
</g>
</g>
<!-- relativity&#45;&gt;Friedmann_equations -->
<g id="edge16" class="edge"><title>relativity&#45;&gt;Friedmann_equations</title>
<path fill="none" stroke="black" d="M-2.18313,26.5333C-1.94445,46.8548 -1.55245,80.2312 -1.2476,106.188"/>
<polygon fill="black" stroke="black" points="2.25504,106.4 -1.12718,116.441 -4.74447,106.483 2.25504,106.4"/>
</g>
<!-- Einstein_field_equations -->
<g id="node22" class="node"><title>Einstein_field_equations</title>
<g id="a_node22"><a xlink:href="https://en.wikipedia.org/wiki/Einstein_field_equations" xlink:title="Einstein\nfield equations">
<ellipse fill="none" stroke="red" stroke-width="2" cx="56.116" cy="-93.44" rx="70.0071" ry="26.7407"/>
<text text-anchor="middle" x="56.116" y="-97.24" font-family="Times,serif" font-size="14.00">Einstein</text>
<text text-anchor="middle" x="56.116" y="-82.24" font-family="Times,serif" font-size="14.00">field equations</text>
</a>
</g>
</g>
<!-- relativity&#45;&gt;Einstein_field_equations -->
<g id="edge17" class="edge"><title>relativity&#45;&gt;Einstein_field_equations</title>
<g id="a_edge17"><a xlink:href="https://en.wikipedia.org/wiki/Mathematics_of_general_relativity#The_Einstein_field_equations">
<path fill="none" stroke="black" stroke-width="2" d="M8.0633,-9.92603C15.7739,-23.3268 26.5051,-41.9772 35.8708,-58.2545"/>
<polygon fill="black" stroke="black" stroke-width="2" points="32.8847,-60.0828 40.9057,-67.0049 38.9521,-56.5917 32.8847,-60.0828"/>
</a>
</g>
</g>
<!-- E=mc2 -->
<g id="node25" class="node"><title>E=mc2</title>
<g id="a_node25"><a xlink:href="https://en.wikipedia.org/wiki/Mass%E2%80%93energy_equivalence" xlink:title="E=mc²">
<ellipse fill="none" stroke="red" stroke-width="2" cx="136.098" cy="1.64331" rx="35.194" ry="18"/>
<text text-anchor="middle" x="136.098" y="5.34331" font-family="Times,serif" font-size="14.00">E=mc²</text>
</a>
</g>
</g>
<!-- relativity&#45;&gt;E=mc2 -->
<g id="edge10" class="edge"><title>relativity&#45;&gt;E=mc2</title>
<g id="a_edge10"><a xlink:href="https://en.wikipedia.org/wiki/Mass%E2%80%93energy_equivalence">
<path fill="none" stroke="black" stroke-width="2" d="M31.1283,6.65449C49.0431,5.79925 71.3505,4.73431 90.7884,3.80637"/>
<polygon fill="black" stroke="black" stroke-width="2" points="90.793,0.302257 100.949,3.32133 91.1268,7.29429 90.793,0.302257"/>
</a>
</g>
</g>
<!-- thermodynamics -->
<g id="node6" class="node"><title>thermodynamics</title>
<g id="a_node6"><a xlink:href="https://en.wikipedia.org/wiki/Thermodynamics" xlink:title="thermodynamics">
<polygon fill="none" stroke="blue" stroke-width="2" points="-285.774,353.157 -395.774,353.157 -395.774,389.157 -285.774,389.157 -285.774,353.157"/>
<text text-anchor="middle" x="-340.774" y="374.857" font-family="Times,serif" font-size="14.00">thermodynamics</text>
</a>
</g>
</g>
<!-- Plancks_Law -->
<g id="node18" class="node"><title>Plancks_Law</title>
<g id="a_node18"><a xlink:href="https://en.wikipedia.org/wiki/Planck%27s_law" xlink:title="Planck&#39;s\nLaw">
<ellipse fill="none" stroke="red" stroke-width="2" cx="-410.678" cy="261.943" rx="44.5955" ry="26.7407"/>
<text text-anchor="middle" x="-410.678" y="258.143" font-family="Times,serif" font-size="14.00">Planck&#39;s</text>
<text text-anchor="middle" x="-410.678" y="273.143" font-family="Times,serif" font-size="14.00">Law</text>
</a>
</g>
</g>
<!-- thermodynamics&#45;&gt;Plancks_Law -->
<g id="edge11" class="edge"><title>thermodynamics&#45;&gt;Plancks_Law</title>
<path fill="none" stroke="black" d="M-352.317,353.123C-362.226,337.641 -376.781,314.901 -388.876,296.004"/>
<polygon fill="black" stroke="black" points="-391.966,297.669 -394.41,287.36 -386.071,293.895 -391.966,297.669"/>
</g>
<!-- Ideal_gas_law -->
<g id="node23" class="node"><title>Ideal_gas_law</title>
<g id="a_node23"><a xlink:href="https://en.wikipedia.org/wiki/Ideal_gas_law" xlink:title="Ideal\ngas law">
<ellipse fill="none" stroke="red" stroke-width="2" cx="-217.44" cy="417.208" rx="41.9398" ry="26.7407"/>
<text text-anchor="middle" x="-217.44" y="413.408" font-family="Times,serif" font-size="14.00">Ideal</text>
<text text-anchor="middle" x="-217.44" y="428.408" font-family="Times,serif" font-size="14.00">gas law</text>
</a>
</g>
</g>
<!-- thermodynamics&#45;&gt;Ideal_gas_law -->
<g id="edge12" class="edge"><title>thermodynamics&#45;&gt;Ideal_gas_law</title>
<path fill="none" stroke="black" d="M-292.383,389.225C-282.867,392.779 -272.907,396.497 -263.471,400.021"/>
<polygon fill="black" stroke="black" points="-262.011,396.83 -253.867,403.607 -264.46,403.387 -262.011,396.83"/>
</g>
<!-- electromagnetism -->
<g id="node7" class="node"><title>electromagnetism</title>
<g id="a_node7"><a xlink:href="https://en.wikipedia.org/wiki/Electromagnetism" xlink:title="electromagnetism">
<polygon fill="none" stroke="blue" stroke-width="2" points="-343.461,-336.433 -459.461,-336.433 -459.461,-300.433 -343.461,-300.433 -343.461,-336.433"/>
<text text-anchor="middle" x="-401.461" y="-314.733" font-family="Times,serif" font-size="14.00">electromagnetism</text>
</a>
</g>
</g>
<!-- Maxwells_equations -->
<g id="node17" class="node"><title>Maxwells_equations</title>
<g id="a_node17"><a xlink:href="https://en.wikipedia.org/wiki/Maxwell%27s_equations" xlink:title="Maxwells\nequations">
<ellipse fill="none" stroke="red" stroke-width="2" cx="-298.186" cy="-232.073" rx="50.8235" ry="26.7407"/>
<text text-anchor="middle" x="-298.186" y="-235.873" font-family="Times,serif" font-size="14.00">Maxwells</text>
<text text-anchor="middle" x="-298.186" y="-220.873" font-family="Times,serif" font-size="14.00">equations</text>
</a>
</g>
</g>
<!-- electromagnetism&#45;&gt;Maxwells_equations -->
<g id="edge13" class="edge"><title>electromagnetism&#45;&gt;Maxwells_equations</title>
<path fill="none" stroke="black" d="M-379.559,-300.118C-366.147,-288.903 -348.676,-274.292 -333.361,-261.486"/>
<polygon fill="black" stroke="black" points="-331.009,-264.082 -325.583,-254.982 -335.499,-258.712 -331.009,-264.082"/>
</g>
<!-- Schrodingers_equation&#45;&gt;Maxwells_equations -->
<g id="edge26" class="edge"><title>Schrodingers_equation&#45;&gt;Maxwells_equations</title>
<g id="a_edge26"><a xlink:href="http://allofphysicsgraph.github.io/proofofconcept/reference_articles/derivations/2006_Ward_How_to_derive_the_schrodinger_equation.pdf">
<path fill="none" stroke="black" stroke-width="2" d="M-269.159,-128.358C-274.971,-149.123 -282.218,-175.017 -288.017,-195.738"/>
<polygon fill="black" stroke="black" stroke-width="2" points="-265.718,-129.048 -266.393,-118.475 -272.459,-127.161 -265.718,-129.048"/>
<polygon fill="black" stroke="black" stroke-width="2" points="-291.41,-194.875 -290.735,-205.448 -284.669,-196.762 -291.41,-194.875"/>
</a>
</g>
</g>
<!-- wave_equation -->
<g id="node20" class="node"><title>wave_equation</title>
<g id="a_node20"><a xlink:href="https://en.wikipedia.org/wiki/Wave_equation" xlink:title="wave\nequation">
<ellipse fill="none" stroke="red" stroke-width="2" cx="-350.47" cy="-154.342" rx="45.9239" ry="26.7407"/>
<text text-anchor="middle" x="-350.47" y="-158.142" font-family="Times,serif" font-size="14.00">wave</text>
<text text-anchor="middle" x="-350.47" y="-143.142" font-family="Times,serif" font-size="14.00">equation</text>
</a>
</g>
</g>
<!-- Schrodingers_equation&#45;&gt;wave_equation -->
<g id="edge21" class="edge"><title>Schrodingers_equation&#45;&gt;wave_equation</title>
<g id="a_edge21"><a xlink:href="http://allofphysicsgraph.github.io/proofofconcept/reference_articles/derivations/2006_Ward_How_to_derive_the_schrodinger_equation.pdf">
<path fill="none" stroke="black" stroke-width="2" d="M-301.395,-120.793C-304.905,-123.192 -308.441,-125.61 -311.919,-127.988"/>
<polygon fill="black" stroke="black" stroke-width="2" points="-299.026,-123.413 -292.746,-114.88 -302.976,-117.634 -299.026,-123.413"/>
<polygon fill="black" stroke="black" stroke-width="2" points="-314.121,-125.253 -320.401,-133.786 -310.17,-131.032 -314.121,-125.253"/>
</a>
</g>
</g>
<!-- particle_in_a_box&#45;&gt;Plancks_Law -->
<g id="edge23" class="edge"><title>particle_in_a_box&#45;&gt;Plancks_Law</title>
<g id="a_edge23"><a xlink:href="http://allofphysicsgraph.github.io/proofofconcept/reference_articles/derivations/derivation_of_plank_formula.pdf">
<path fill="none" stroke="black" stroke-width="2" d="M-401.999,170.541C-403.619,187.605 -405.539,207.83 -407.161,224.912"/>
<polygon fill="black" stroke="black" stroke-width="2" points="-405.479,170.17 -401.049,160.546 -398.51,170.832 -405.479,170.17"/>
<polygon fill="black" stroke="black" stroke-width="2" points="-403.698,225.46 -408.127,235.085 -410.666,224.798 -403.698,225.46"/>
</a>
</g>
</g>
<!-- harmonic_oscillator -->
<g id="node12" class="node"><title>harmonic_oscillator</title>
<g id="a_node12"><a xlink:href="https://en.wikipedia.org/wiki/Harmonic_oscillator" xlink:title="harmonic\noscillator">
<ellipse fill="none" stroke="red" stroke-width="2" cx="197" cy="121" rx="48.5816" ry="26.7407"/>
<text text-anchor="middle" x="197" y="117.2" font-family="Times,serif" font-size="14.00">harmonic</text>
<text text-anchor="middle" x="197" y="132.2" font-family="Times,serif" font-size="14.00">oscillator</text>
</a>
</g>
</g>
<!-- Dirac_equation&#45;&gt;Schrodingers_equation -->
<g id="edge20" class="edge"><title>Dirac_equation&#45;&gt;Schrodingers_equation</title>
<g id="a_edge20"><a xlink:href="http://allofphysicsgraph.github.io/proofofconcept/reference_articles/derivations/2013_Boyd_Dirac_Equation.pdf">
<path fill="none" stroke="black" stroke-width="2" d="M-177.923,-78.984C-181.046,-79.4763 -184.205,-79.9742 -187.373,-80.4735"/>
<polygon fill="black" stroke="black" stroke-width="2" points="-177.286,-82.4268 -167.953,-77.4123 -178.376,-75.5122 -177.286,-82.4268"/>
<polygon fill="black" stroke="black" stroke-width="2" points="-188.153,-77.0532 -197.486,-82.0677 -187.063,-83.9678 -188.153,-77.0532"/>
</a>
</g>
</g>
<!-- Kirchhoffs_Laws -->
<g id="node19" class="node"><title>Kirchhoffs_Laws</title>
<g id="a_node19"><a xlink:href="https://en.wikipedia.org/wiki/Kirchhoff%27s_circuit_laws" xlink:title="Kirchhoff&#39;s\nLaws">
<ellipse fill="none" stroke="red" stroke-width="2" cx="-275.133" cy="-355.424" rx="56.6372" ry="26.7407"/>
<text text-anchor="middle" x="-275.133" y="-359.224" font-family="Times,serif" font-size="14.00">Kirchhoff&#39;s</text>
<text text-anchor="middle" x="-275.133" y="-344.224" font-family="Times,serif" font-size="14.00">Laws</text>
</a>
</g>
</g>
<!-- Maxwells_equations&#45;&gt;Kirchhoffs_Laws -->
<g id="edge25" class="edge"><title>Maxwells_equations&#45;&gt;Kirchhoffs_Laws</title>
<g id="a_edge25"><a xlink:href="http://allofphysicsgraph.github.io/proofofconcept/reference_articles/derivations/derivation_of_kirchhoffs_laws.pdf">
<path fill="none" stroke="black" stroke-width="2" d="M-291.339,-268.712C-288.409,-284.386 -284.994,-302.658 -282.056,-318.377"/>
<polygon fill="black" stroke="black" stroke-width="2" points="-287.906,-268.025 -293.184,-258.838 -294.787,-269.311 -287.906,-268.025"/>
<polygon fill="black" stroke="black" stroke-width="2" points="-285.482,-319.098 -280.205,-328.284 -278.602,-317.812 -285.482,-319.098"/>
</a>
</g>
</g>
<!-- wave_equation&#45;&gt;uncertainty_relation -->
<g id="edge22" class="edge"><title>wave_equation&#45;&gt;uncertainty_relation</title>
<g id="a_edge22"><a xlink:href="http://allofphysicsgraph.github.io/proofofconcept/reference_articles/derivations/2010_Kessler_derivation_of_heisenberg_uncertainty_principle.pdf">
<path fill="none" stroke="black" stroke-width="2" d="M-391.138,-129.509C-397.175,-125.823 -403.417,-122.011 -409.509,-118.291"/>
<polygon fill="black" stroke="black" stroke-width="2" points="-392.706,-132.653 -382.347,-134.877 -389.058,-126.679 -392.706,-132.653"/>
<polygon fill="black" stroke="black" stroke-width="2" points="-407.927,-115.156 -418.286,-112.932 -411.575,-121.131 -407.927,-115.156"/>
</a>
</g>
</g>
<!-- wave_equation&#45;&gt;Maxwells_equations -->
<g id="edge24" class="edge"><title>wave_equation&#45;&gt;Maxwells_equations</title>
<g id="a_edge24"><a xlink:href="http://allofphysicsgraph.github.io/proofofconcept/site/derivations_generated_from_project/maxwell_to_electric_field_wave_equation.html">
<path fill="none" stroke="black" stroke-width="5" d="M-327.987,-187.768C-325.671,-191.211 -323.315,-194.713 -320.995,-198.163"/>
<polygon fill="black" stroke="black" stroke-width="5" points="-324.428,-185.22 -333.639,-179.365 -331.688,-190.104 -324.428,-185.22"/>
<polygon fill="black" stroke="black" stroke-width="5" points="-324.556,-200.708 -315.344,-206.564 -317.295,-195.824 -324.556,-200.708"/>
</a>
</g>
</g>
<!-- Cosmological_equation_of_state&#45;&gt;Ideal_gas_law -->
<g id="edge18" class="edge"><title>Cosmological_equation_of_state&#45;&gt;Ideal_gas_law</title>
<g id="a_edge18"><a xlink:href="https://en.wikipedia.org/wiki/Equation_of_state_(cosmology)">
<path fill="none" stroke="black" stroke-width="2" d="M-142.565,395.189C-151.447,397.801 -160.662,400.511 -169.464,403.099"/>
<polygon fill="black" stroke="black" stroke-width="2" points="-143.516,391.821 -132.935,392.357 -141.541,398.536 -143.516,391.821"/>
<polygon fill="black" stroke="black" stroke-width="2" points="-168.606,406.495 -179.188,405.959 -170.581,399.78 -168.606,406.495"/>
</a>
</g>
</g>
<!-- E=mc2&#45;&gt;F=m*a -->
<g id="edge19" class="edge"><title>E=mc2&#45;&gt;F=m*a</title>
<g id="a_edge19"><a xlink:href="http://www.mrelativity.net/relationshipef/the_relationship_between_e_and_f_p1.htm">
<path fill="none" stroke="black" stroke-width="2" d="M177.777,-8.56383C190.537,-11.6887 204.587,-15.1296 217.411,-18.27"/>
<polygon fill="black" stroke="black" stroke-width="2" points="178.568,-5.1541 168.022,-6.17486 176.903,-11.9532 178.568,-5.1541"/>
<polygon fill="black" stroke="black" stroke-width="2" points="216.838,-21.7332 227.384,-20.7125 218.503,-14.9341 216.838,-21.7332"/>
</a>
</g>
</g>
</g>
</svg>
