<?xml version="1.0" ?><!DOCTYPE svg  PUBLIC '-//W3C//DTD SVG 1.1//EN'  'http://www.w3.org/Graphics/SVG/1.1/DTD/svg11.dtd'><svg height="45.402" viewBox="346.351 117.704 73.889 45.402" width="73.889" xmlns="http://www.w3.org/2000/svg" xmlns:xlink="http://www.w3.org/1999/xlink"><defs><path d="M144 22l-47 -186c-7 -28 -13 -51 -42 -51c-15 0 -27 10 -27 25c0 6 2 12 3 17l145 579c8 32 30 35 39 35c13 0 26 -9 26 -25c0 -6 -8 -38 -13 -57l-45 -180c-4 -17 -13 -52 -13 -81c0 -47 18 -88 74 -88c63 0 102 54 114 71c13 16 13 18 18 38l70 278c8 30 29 34 38 34 c15 0 27 -10 27 -25c0 -4 -11 -47 -17 -71c-5 -18 -16 -63 -20 -82l-28 -108c-7 -30 -16 -66 -16 -89c0 -20 2 -46 31 -46c41 0 60 63 75 122c4 15 5 20 14 20c6 0 10 -4 10 -9c0 -4 -14 -65 -30 -99c-18 -36 -42 -54 -72 -54c-35 0 -77 21 -87 74c-23 -31 -67 -74 -131 -74 c-34 0 -71 9 -96 32z" id="1618"/><path d="M288 144c6 -83 49 -88 75 -88c109 0 191 143 191 229c0 39 -14 68 -35 89c-4 4 -11 11 -11 23c0 21 23 44 46 44c15 0 40 -12 40 -67c0 -85 -68 -384 -244 -384c-56 0 -86 36 -91 98c-32 -50 -80 -98 -146 -98c-101 0 -101 114 -101 137c0 33 4 136 73 253 c13 23 30 50 39 50c7 0 10 -5 10 -10c0 -2 0 -4 -8 -16c-70 -102 -86 -186 -86 -234c0 -14 2 -53 19 -79c22 -35 52 -35 67 -35c58 0 103 43 134 92c2 20 4 37 14 82c7 34 15 60 35 60c7 0 17 -5 17 -21c0 -14 -14 -69 -38 -125z" id="2118"/><path d="M420 321c0 -73 -4 -154 -34 -223c-41 -95 -111 -114 -157 -114c-39 0 -116 14 -159 117c-31 76 -32 163 -32 220c0 78 4 171 44 246c38 72 99 94 147 94c52 0 111 -25 148 -95c42 -80 43 -184 43 -245zM229 0c35 0 94 19 115 128c12 59 12 139 12 204 c0 80 -1 147 -14 204c-19 82 -72 109 -113 109c-39 0 -95 -26 -114 -111c-13 -61 -13 -125 -13 -202c0 -56 0 -142 11 -201c14 -76 52 -131 116 -131z" id="3016"/></defs><g transform="scale(1.25)"><g transform="scale(0.02488,-0.02488)"><g transform="translate(11526.599,-4627.612)"><use xlink:href="#2118"/><use x="644.88" xlink:href="#1618"/></g></g><g transform="scale(0.02074,-0.02074)"><g transform="translate(15307.651,-5782.76)"><use xlink:href="#3016"/></g></g></g></svg>