<?xml version="1.0" ?><!DOCTYPE svg  PUBLIC '-//W3C//DTD SVG 1.1//EN'  'http://www.w3.org/Graphics/SVG/1.1/DTD/svg11.dtd'><svg height="52.648" viewBox="100.895 78.933 198.74 52.648" width="198.74" xmlns="http://www.w3.org/2000/svg" xmlns:xlink="http://www.w3.org/1999/xlink"><defs><path d="M676 304v-235c0 -39 4 -43 68 -43v-26c-24 2 -69 2 -95 2s-70 0 -94 -2v26c64 0 68 5 68 43v239c0 48 -8 114 -82 114c-70 0 -126 -69 -126 -161v-192c0 -39 4 -43 68 -43v-26c-24 2 -69 2 -95 2s-70 0 -94 -2v26c64 0 68 5 68 43v239c0 48 -8 114 -82 114 c-70 0 -126 -69 -126 -161v-192c0 -39 4 -43 68 -43v-26c-24 2 -69 2 -95 2s-70 0 -94 -2v26c64 0 68 5 68 43v278c0 48 -9 54 -68 54v26l118 11v-101h1c15 40 56 101 135 101c56 0 115 -18 127 -100h1c18 54 65 100 133 100c119 0 128 -84 128 -134z" id="6d15"/><path d="M582 342l-114 -334c-4 -13 -7 -16 -15 -16c-7 0 -11 2 -16 17l-104 302l-103 -302c-5 -15 -9 -17 -16 -17c-8 0 -11 3 -15 16l-123 360c-11 33 -22 36 -66 36v26c21 -2 55 -2 77 -2c25 0 67 0 91 2v-26c-16 0 -50 0 -50 -26c0 -3 0 -5 5 -18l99 -289l92 268 c-21 63 -21 65 -76 65v26c23 -2 49 -2 74 -2c24 0 66 0 89 2v-26c-16 0 -50 0 -50 -26c0 -4 3 -12 5 -19l102 -295l94 272c2 7 4 16 4 23c0 25 -17 43 -48 45v26c17 -2 60 -2 79 -2c20 0 40 1 60 2v-26c-15 -1 -55 -3 -75 -62z" id="7715"/><path d="M607 253l-36 -253h-520v26c69 0 80 0 80 45v539c0 45 -11 45 -80 45v26h506l24 -221h-18c-14 133 -32 195 -187 195h-137c-40 0 -42 -5 -42 -39v-249h94c94 0 103 34 103 117h18v-260h-18c0 83 -9 117 -103 117h-94v-276c0 -34 2 -39 42 -39h139c176 0 189 80 211 227h18 z" id="4515"/><path d="M360 259v-144c0 -44 0 -96 41 -96c13 0 40 8 40 69v57h18v-56c0 -79 -53 -93 -74 -93c-44 0 -72 40 -74 84c-22 -57 -73 -88 -128 -88c-53 0 -143 22 -143 99c0 38 18 88 81 123c56 30 127 38 186 40v44c0 84 -55 128 -105 128c-35 0 -89 -18 -110 -81c3 1 8 2 12 2 c17 0 36 -11 36 -36c0 -28 -23 -36 -36 -36c-6 0 -36 2 -36 39c0 66 57 128 136 128c34 0 77 -10 114 -43c42 -39 42 -74 42 -140zM307 139v100c-32 -2 -87 -6 -135 -33c-58 -32 -71 -85 -71 -115c0 -46 39 -83 89 -83c55 0 117 44 117 131z" id="6115"/><path d="M261 264l126 -185c30 -44 41 -53 88 -53v-26c-17 1 -54 2 -72 2c-25 0 -68 0 -92 -2v26c12 0 30 3 30 21c0 13 -10 27 -22 45l-101 150l-69 -63v-110c0 -39 4 -43 68 -43v-26c-24 2 -68 2 -93 2s-69 0 -93 -2v26c64 0 68 5 68 43v534c0 48 -9 54 -68 54v26l119 11v-490 l151 138c1 0 21 19 21 39c0 14 -10 22 -24 23v26c27 -2 70 -2 98 -2l49 1c1 1 3 1 9 1v-26c-26 -1 -62 -6 -119 -54c-9 -8 -80 -73 -80 -75c0 -3 5 -9 6 -11z" id="6b15"/><path d="M150 236v-165c0 -45 12 -45 84 -45v-26c-27 2 -78 2 -107 2c-26 0 -72 0 -96 -2v26c64 0 68 5 68 43v278c0 48 -9 54 -68 54v26l116 11v-109h1c10 35 43 109 119 109c34 0 66 -20 66 -52c0 -28 -22 -35 -34 -35c-15 0 -34 10 -34 34c0 26 22 33 22 33c-7 3 -14 4 -21 4 c-75 0 -116 -90 -116 -186z" id="7215"/><path d="M381 235h-290c0 -47 0 -106 31 -157c27 -44 70 -68 113 -68c52 0 107 34 129 102c4 12 5 14 12 14c2 0 8 0 8 -7c0 -21 -44 -127 -156 -127c-106 0 -201 96 -201 226c0 123 84 224 190 224c114 0 168 -89 168 -191c0 -10 0 -12 -4 -16zM92 250h239 c-1 112 -47 176 -115 176c-40 0 -117 -32 -124 -176z" id="6515"/><path d="M198 321v-250c0 -45 11 -45 80 -45v-26c-29 2 -82 2 -113 2s-84 0 -113 -2v26c69 0 80 0 80 45v541c0 45 -11 45 -80 45v26h306c131 0 223 -88 223 -183s-94 -179 -223 -179h-160zM196 342h143c122 0 166 67 166 158c0 83 -37 157 -166 157h-101c-40 0 -42 -5 -42 -39 v-276z" id="5015"/><path d="M431 214c0 -126 -93 -222 -202 -222s-202 96 -202 222c0 128 93 228 202 228s202 -100 202 -228zM229 10c38 0 81 19 109 65c27 48 29 108 29 147c0 31 0 97 -31 144c-24 35 -62 60 -107 60c-51 0 -90 -32 -110 -65c-26 -45 -28 -97 -28 -139c0 -44 3 -100 28 -145 c23 -39 63 -67 110 -67z" id="6f15"/><path d="M411 438v-564c0 -39 4 -43 68 -43v-26c-24 2 -69 2 -95 2s-70 0 -94 -2v26c64 0 68 5 68 43v199c-13 -22 -56 -81 -133 -81c-100 0 -192 92 -192 223c0 132 98 223 200 223c67 0 109 -46 132 -99l30 99h16zM360 137v140c0 52 -40 143 -120 143c-77 0 -143 -89 -143 -206 c0 -111 58 -206 133 -206c24 0 60 8 91 43c3 3 39 43 39 86z" id="7115"/></defs><g transform="scale(1.25)"><g transform="scale(0.02488,-0.02488)"><g transform="translate(3613.135,-3633.954)"><use xlink:href="#6d15"/><use x="772" xlink:href="#6115"/><use x="1230" xlink:href="#6b15"/><use x="1687.877" xlink:href="#6515"/><use x="2093.877" xlink:href="#4515"/><use x="2721.877" xlink:href="#7115"/><use x="3205.877" xlink:href="#5015"/><use x="3807.755" xlink:href="#6f15"/><use x="4239.632" xlink:href="#7715"/><use x="4880.509" xlink:href="#6515"/><use x="5286.509" xlink:href="#7215"/></g></g></g></svg>