<?xml version="1.0" ?><!DOCTYPE svg  PUBLIC '-//W3C//DTD SVG 1.1//EN'  'http://www.w3.org/Graphics/SVG/1.1/DTD/svg11.dtd'><svg height="52.648" viewBox="100.833 78.933 216.471 52.648" width="216.471" xmlns="http://www.w3.org/2000/svg" xmlns:xlink="http://www.w3.org/1999/xlink"><defs><path d="M153 694v-625c0 -39 4 -43 68 -43v-26c-24 2 -68 2 -94 2c-25 0 -69 0 -93 -2v26c64 0 68 5 68 43v534c0 48 -9 54 -68 54v26z" id="6c15"/><path d="M392 341c119 -36 127 -109 133 -159c2 -22 4 -37 7 -58c6 -61 12 -124 67 -124c31 0 60 22 65 87c0 4 1 10 9 10c9 0 9 -7 9 -13c0 -17 -11 -100 -85 -100c-22 0 -73 4 -111 45c-30 34 -30 68 -30 135c0 68 0 95 -40 134c-14 13 -46 36 -103 36h-117v-263 c0 -45 11 -45 80 -45v-26c-29 2 -81 2 -112 2s-83 0 -112 -2v26c69 0 80 0 80 45v541c0 45 -11 45 -80 45v26h269c140 0 246 -85 246 -179c0 -80 -80 -144 -175 -163zM310 350c75 0 181 25 181 154c0 124 -97 153 -180 153h-73c-40 0 -42 -5 -42 -39v-268h114z" id="5215"/><path d="M863 593l-187 -592c-5 -15 -5 -17 -14 -17c-8 0 -11 2 -15 16l-170 542l-170 -542c-4 -14 -7 -16 -15 -16c-9 0 -9 2 -14 17l-195 618c-10 32 -14 38 -74 38v26c24 -2 68 -2 94 -2c31 0 81 0 110 2v-26c-20 0 -64 0 -64 -28c0 -2 0 -4 5 -18l163 -519l147 467 c1 3 3 9 3 13c0 3 -16 55 -20 64c-10 18 -22 21 -68 21v26c23 -2 68 -2 93 -2c31 0 81 0 110 2v-26c-19 0 -63 0 -63 -28c0 -4 1 -8 4 -18l163 -520l155 494c4 11 5 15 5 22c0 24 -19 49 -64 50v26c24 -2 68 -2 93 -2c18 0 53 1 70 2v-26c-58 -2 -73 -37 -82 -64z" id="5715"/><path d="M151 404v-283c0 -91 40 -111 69 -111c42 0 69 46 69 115v56h18v-57c0 -74 -34 -132 -93 -132c-116 0 -116 112 -116 131v281h-87v16c85 2 120 92 122 195h18v-185h140v-26h-140z" id="7415"/><path d="M360 259v-144c0 -44 0 -96 41 -96c13 0 40 8 40 69v57h18v-56c0 -79 -53 -93 -74 -93c-44 0 -72 40 -74 84c-22 -57 -73 -88 -128 -88c-53 0 -143 22 -143 99c0 38 18 88 81 123c56 30 127 38 186 40v44c0 84 -55 128 -105 128c-35 0 -89 -18 -110 -81c3 1 8 2 12 2 c17 0 36 -11 36 -36c0 -28 -23 -36 -36 -36c-6 0 -36 2 -36 39c0 66 57 128 136 128c34 0 77 -10 114 -43c42 -39 42 -74 42 -140zM307 139v100c-32 -2 -87 -6 -135 -33c-58 -32 -71 -85 -71 -115c0 -46 39 -83 89 -83c55 0 117 44 117 131z" id="6115"/><path d="M255 -16v-38c48 -8 78 -30 78 -67c0 -27 -14 -50 -62 -62c-41 -11 -106 -11 -109 -11h-38v16h27c61 0 129 4 129 56c0 36 -34 56 -78 57v49h53z" id="0b15"/><path d="M150 236v-165c0 -45 12 -45 84 -45v-26c-27 2 -78 2 -107 2c-26 0 -72 0 -96 -2v26c64 0 68 5 68 43v278c0 48 -9 54 -68 54v26l116 11v-109h1c10 35 43 109 119 109c34 0 66 -20 66 -52c0 -28 -22 -35 -34 -35c-15 0 -34 10 -34 34c0 26 22 33 22 33c-7 3 -14 4 -21 4 c-75 0 -116 -90 -116 -186z" id="7215"/><path d="M155 616c0 -23 -19 -41 -41 -41c-23 0 -41 19 -41 41c0 23 19 41 41 41c23 0 41 -19 41 -41zM38 427l115 11v-370c0 -36 2 -42 61 -42v-26c-23 2 -64 2 -88 2c-25 0 -68 0 -92 -2v26c64 0 68 5 68 43v278c0 48 -8 54 -64 54v26z" id="6915"/><path d="M52 683h318c163 0 290 -158 290 -347c0 -188 -129 -336 -290 -336h-318v26c69 0 80 0 80 45v541c0 45 -11 45 -80 45v26zM238 26h112c95 0 152 54 176 85c19 27 60 84 60 225c0 272 -153 321 -236 321h-112c-40 0 -42 -5 -42 -39v-553c0 -34 2 -39 42 -39z" id="4415"/><path d="M220 -169v-26c-24 2 -69 2 -95 2s-70 0 -94 -2v26c64 0 68 5 68 43v473c0 48 -9 54 -68 54v26l119 11v-73c28 40 77 73 137 73c103 0 190 -96 190 -222c0 -136 -101 -224 -201 -224c-53 0 -95 27 -124 69v-187c0 -39 4 -43 68 -43zM152 314v-198c0 -16 0 -22 13 -44 c30 -47 69 -64 105 -64c79 0 143 93 143 207s-60 205 -133 205c-50 0 -84 -30 -89 -34c-39 -37 -39 -58 -39 -72z" id="7015"/><path d="M622 680l17 -221h-18c-13 166 -28 195 -181 195c-18 0 -47 0 -55 -1c-18 -4 -18 -16 -18 -38v-542c0 -36 3 -47 86 -47h28v-26c-48 1 -98 2 -147 2s-99 -1 -147 -2v26h28c83 0 86 11 86 47v542c0 23 0 35 -19 38c-8 1 -37 1 -55 1c-154 0 -168 -29 -181 -195h-18l17 221 h577z" id="5415"/></defs><g transform="scale(1.25)"><g transform="scale(0.02488,-0.02488)"><g transform="translate(3613.135,-3633.954)"><use xlink:href="#7015"/><use x="510" xlink:href="#6115"/><use x="968" xlink:href="#7215"/><use x="1322" xlink:href="#7415"/><use x="1676" xlink:href="#6915"/><use x="1925" xlink:href="#6115"/><use x="2383" xlink:href="#6c15"/><use x="2632" xlink:href="#4415"/><use x="3338" xlink:href="#6915"/><use x="3587" xlink:href="#0b15"/><use x="3993" xlink:href="#5715"/><use x="4947" xlink:href="#5215"/><use x="5548.634" xlink:href="#5415"/></g></g></g></svg>