<?xml version="1.0" ?><!DOCTYPE svg  PUBLIC '-//W3C//DTD SVG 1.1//EN'  'http://www.w3.org/Graphics/SVG/1.1/DTD/svg11.dtd'><svg height="47.237" viewBox="100.584 78.528 277.688 47.237" width="277.688" xmlns="http://www.w3.org/2000/svg" xmlns:xlink="http://www.w3.org/1999/xlink"><defs><path d="M676 304v-235c0 -39 4 -43 68 -43v-26c-24 2 -69 2 -95 2s-70 0 -94 -2v26c64 0 68 5 68 43v239c0 48 -8 114 -82 114c-70 0 -126 -69 -126 -161v-192c0 -39 4 -43 68 -43v-26c-24 2 -69 2 -95 2s-70 0 -94 -2v26c64 0 68 5 68 43v239c0 48 -8 114 -82 114 c-70 0 -126 -69 -126 -161v-192c0 -39 4 -43 68 -43v-26c-24 2 -69 2 -95 2s-70 0 -94 -2v26c64 0 68 5 68 43v278c0 48 -9 54 -68 54v26l118 11v-101h1c15 40 56 101 135 101c56 0 115 -18 127 -100h1c18 54 65 100 133 100c119 0 128 -84 128 -134z" id="6d15"/><path d="M294 427l121 11v-358c0 -48 9 -54 68 -54v-26l-119 -8v93h-1c-8 -21 -41 -93 -126 -93c-72 0 -97 26 -110 39c-26 28 -26 71 -26 138v192c-1 40 -28 40 -68 40v26l121 11v-329c0 -52 7 -101 89 -101c74 0 119 73 119 157v182c0 48 -9 54 -68 54v26z" id="7515"/><path d="M363 691l222 -628c13 -37 31 -37 84 -37v-26c-24 2 -74 2 -100 2c-31 0 -83 0 -112 -2v26c19 0 62 0 62 27c0 4 0 6 -5 18l-60 170h-262l-53 -149c-2 -6 -4 -11 -4 -20c0 -12 7 -44 54 -46v-26c-24 2 -64 2 -89 2c-19 0 -59 0 -77 -2v26c35 0 75 11 94 65l212 600 c5 13 7 16 17 16s12 -3 17 -16zM323 611l-122 -344h244z" id="4115"/><path d="M431 214c0 -126 -93 -222 -202 -222s-202 96 -202 222c0 128 93 228 202 228s202 -100 202 -228zM229 10c38 0 81 19 109 65c27 48 29 108 29 147c0 31 0 97 -31 144c-24 35 -62 60 -107 60c-51 0 -90 -32 -110 -65c-26 -45 -28 -97 -28 -139c0 -44 3 -100 28 -145 c23 -39 63 -67 110 -67z" id="6f15"/><path d="M155 616c0 -23 -19 -41 -41 -41c-23 0 -41 19 -41 41c0 23 19 41 41 41c23 0 41 -19 41 -41zM38 427l115 11v-370c0 -36 2 -42 61 -42v-26c-23 2 -64 2 -88 2c-25 0 -68 0 -92 -2v26c64 0 68 5 68 43v278c0 48 -8 54 -64 54v26z" id="6915"/><path d="M292 683l119 11v-614c0 -48 9 -54 68 -54v-26l-121 -8v73c-5 -7 -49 -73 -134 -73c-98 0 -191 92 -191 223c0 132 99 223 201 223c81 0 122 -64 126 -69v234c0 48 -9 54 -68 54v26zM358 120v198c0 18 0 21 -13 42c-23 36 -60 62 -106 62c-26 0 -142 -12 -142 -208 c0 -191 104 -206 133 -206c19 0 53 5 87 35c23 20 41 47 41 77z" id="6415"/><path d="M309 422v-112c0 -17 0 -20 -9 -20c-3 0 -8 1 -9 6c-2 32 -8 132 -115 132c-101 0 -115 -55 -115 -81c0 -61 70 -75 125 -87c42 -8 77 -15 107 -46c13 -12 40 -39 40 -90c0 -78 -53 -132 -152 -132c-56 0 -91 26 -111 53c-6 -10 -21 -34 -27 -43c-5 -8 -6 -9 -11 -9 c-6 0 -7 1 -7 19v144c0 20 1 21 9 21s8 -1 11 -15c18 -88 49 -154 136 -154c92 0 116 54 116 96c0 36 -22 58 -35 70c-21 18 -43 22 -106 35c-29 6 -131 27 -131 117c0 58 40 116 151 116c17 0 62 -1 94 -35c3 4 12 14 15 18c12 15 13 16 17 16c6 0 7 -1 7 -19z" id="7315"/><path d="M205 671l336 -549v463c0 25 0 72 -80 72v26c23 -2 65 -2 90 -2s67 0 90 2v-26c-80 0 -80 -47 -80 -72v-563c0 -19 0 -22 -10 -22c-5 0 -8 0 -15 12l-371 607c-7 10 -7 12 -14 18v-539c0 -25 0 -72 80 -72v-26c-23 2 -65 2 -90 2s-67 0 -90 -2v26c80 0 80 47 80 72v553 c-3 1 -21 6 -61 6h-19v26h127c19 0 20 -1 27 -12z" id="4e15"/><path d="M381 235h-290c0 -47 0 -106 31 -157c27 -44 70 -68 113 -68c52 0 107 34 129 102c4 12 5 14 12 14c2 0 8 0 8 -7c0 -21 -44 -127 -156 -127c-106 0 -201 96 -201 226c0 123 84 224 190 224c114 0 168 -89 168 -191c0 -10 0 -12 -4 -16zM92 250h239 c-1 112 -47 176 -115 176c-40 0 -117 -32 -124 -176z" id="6515"/><path d="M415 304v-235c0 -39 4 -43 68 -43v-26c-24 2 -69 2 -95 2s-70 0 -94 -2v26c64 0 68 5 68 43v239c0 48 -8 114 -82 114c-70 0 -126 -69 -126 -161v-192c0 -39 4 -43 68 -43v-26c-24 2 -69 2 -95 2s-70 0 -94 -2v26c64 0 68 5 68 43v278c0 48 -9 54 -68 54v26l118 11v-101 h1c15 40 56 101 135 101c118 0 128 -83 128 -134z" id="6e15"/></defs><g transform="scale(1.25)"><g transform="scale(0.02488,-0.02488)"><g transform="translate(3613.135,-3633.954)"><use xlink:href="#4115"/><use x="693" xlink:href="#7315"/><use x="1052" xlink:href="#7315"/><use x="1411" xlink:href="#7515"/><use x="1921" xlink:href="#6d15"/><use x="2693" xlink:href="#6515"/><use x="3099" xlink:href="#4e15"/><use x="3792" xlink:href="#6415"/><use x="4302" xlink:href="#6915"/><use x="4551" xlink:href="#6d15"/><use x="5323" xlink:href="#6515"/><use x="5729" xlink:href="#6e15"/><use x="6239" xlink:href="#7315"/><use x="6598" xlink:href="#6915"/><use x="6847" xlink:href="#6f15"/><use x="7305" xlink:href="#6e15"/><use x="7815" xlink:href="#7315"/></g></g></g></svg>