<?xml version="1.0" ?><!DOCTYPE svg  PUBLIC '-//W3C//DTD SVG 1.1//EN'  'http://www.w3.org/Graphics/SVG/1.1/DTD/svg11.dtd'><svg height="52.803" viewBox="101.486 78.777 626.991 52.803" width="626.991" xmlns="http://www.w3.org/2000/svg" xmlns:xlink="http://www.w3.org/1999/xlink"><defs><path d="M153 694v-625c0 -39 4 -43 68 -43v-26c-24 2 -68 2 -94 2c-25 0 -69 0 -93 -2v26c64 0 68 5 68 43v534c0 48 -9 54 -68 54v26z" id="6c15"/><path d="M590 591l-227 -591c-5 -14 -6 -16 -17 -16s-12 2 -17 16l-238 621c-12 32 -23 36 -81 36v26c24 -2 71 -2 97 -2c33 0 80 0 112 2v-26c-21 0 -61 0 -61 -27c0 -5 2 -10 5 -17l206 -539l197 513c3 8 6 15 6 26c0 6 -2 41 -52 44v26c23 -2 64 -2 88 -2c25 0 51 0 74 2v-26 c-67 -1 -83 -44 -92 -66z" id="5615"/><path d="M676 304v-235c0 -39 4 -43 68 -43v-26c-24 2 -69 2 -95 2s-70 0 -94 -2v26c64 0 68 5 68 43v239c0 48 -8 114 -82 114c-70 0 -126 -69 -126 -161v-192c0 -39 4 -43 68 -43v-26c-24 2 -69 2 -95 2s-70 0 -94 -2v26c64 0 68 5 68 43v239c0 48 -8 114 -82 114 c-70 0 -126 -69 -126 -161v-192c0 -39 4 -43 68 -43v-26c-24 2 -69 2 -95 2s-70 0 -94 -2v26c64 0 68 5 68 43v278c0 48 -9 54 -68 54v26l118 11v-101h1c15 40 56 101 135 101c56 0 115 -18 127 -100h1c18 54 65 100 133 100c119 0 128 -84 128 -134z" id="6d15"/><path d="M150 236v-165c0 -45 12 -45 84 -45v-26c-27 2 -78 2 -107 2c-26 0 -72 0 -96 -2v26c64 0 68 5 68 43v278c0 48 -9 54 -68 54v26l116 11v-109h1c10 35 43 109 119 109c34 0 66 -20 66 -52c0 -28 -22 -35 -34 -35c-15 0 -34 10 -34 34c0 26 22 33 22 33c-7 3 -14 4 -21 4 c-75 0 -116 -90 -116 -186z" id="7215"/><path d="M863 593l-187 -592c-5 -15 -5 -17 -14 -17c-8 0 -11 2 -15 16l-170 542l-170 -542c-4 -14 -7 -16 -15 -16c-9 0 -9 2 -14 17l-195 618c-10 32 -14 38 -74 38v26c24 -2 68 -2 94 -2c31 0 81 0 110 2v-26c-20 0 -64 0 -64 -28c0 -2 0 -4 5 -18l163 -519l147 467 c1 3 3 9 3 13c0 3 -16 55 -20 64c-10 18 -22 21 -68 21v26c23 -2 68 -2 93 -2c31 0 81 0 110 2v-26c-19 0 -63 0 -63 -28c0 -4 1 -8 4 -18l163 -520l155 494c4 11 5 15 5 22c0 24 -19 49 -64 50v26c24 -2 68 -2 93 -2c18 0 53 1 70 2v-26c-58 -2 -73 -37 -82 -64z" id="5715"/><path d="M151 404v-283c0 -91 40 -111 69 -111c42 0 69 46 69 115v56h18v-57c0 -74 -34 -132 -93 -132c-116 0 -116 112 -116 131v281h-87v16c85 2 120 92 122 195h18v-185h140v-26h-140z" id="7415"/><path d="M349 350c-22 55 -80 74 -119 74c-59 0 -133 -55 -133 -207c0 -148 77 -207 141 -207c43 0 100 20 126 101c4 13 5 14 12 14s8 -3 8 -7c0 -11 -31 -126 -155 -126c-102 0 -196 91 -196 224c0 128 90 226 196 226c77 0 145 -54 145 -125c0 -35 -29 -38 -36 -38 c-13 0 -36 8 -36 36c0 35 28 35 47 35z" id="6315"/><path d="M294 427l121 11v-358c0 -48 9 -54 68 -54v-26l-119 -8v93h-1c-8 -21 -41 -93 -126 -93c-72 0 -97 26 -110 39c-26 28 -26 71 -26 138v192c-1 40 -28 40 -68 40v26l121 11v-329c0 -52 7 -101 89 -101c74 0 119 73 119 157v182c0 48 -9 54 -68 54v26z" id="7515"/><path d="M360 259v-144c0 -44 0 -96 41 -96c13 0 40 8 40 69v57h18v-56c0 -79 -53 -93 -74 -93c-44 0 -72 40 -74 84c-22 -57 -73 -88 -128 -88c-53 0 -143 22 -143 99c0 38 18 88 81 123c56 30 127 38 186 40v44c0 84 -55 128 -105 128c-35 0 -89 -18 -110 -81c3 1 8 2 12 2 c17 0 36 -11 36 -36c0 -28 -23 -36 -36 -36c-6 0 -36 2 -36 39c0 66 57 128 136 128c34 0 77 -10 114 -43c42 -39 42 -74 42 -140zM307 139v100c-32 -2 -87 -6 -135 -33c-58 -32 -71 -85 -71 -115c0 -46 39 -83 89 -83c55 0 117 44 117 131z" id="6115"/><path d="M415 304v-235c0 -39 4 -43 68 -43v-26c-24 2 -69 2 -95 2s-70 0 -94 -2v26c64 0 68 5 68 43v239c0 48 -8 114 -82 114c-70 0 -126 -69 -126 -161v-192c0 -39 4 -43 68 -43v-26c-24 2 -69 2 -95 2s-70 0 -94 -2v26c64 0 68 5 68 43v534c0 48 -9 54 -68 54v26l119 11v-355 h1c12 33 52 99 134 99c118 0 128 -83 128 -134z" id="6815"/><path d="M392 341c119 -36 127 -109 133 -159c2 -22 4 -37 7 -58c6 -61 12 -124 67 -124c31 0 60 22 65 87c0 4 1 10 9 10c9 0 9 -7 9 -13c0 -17 -11 -100 -85 -100c-22 0 -73 4 -111 45c-30 34 -30 68 -30 135c0 68 0 95 -40 134c-14 13 -46 36 -103 36h-117v-263 c0 -45 11 -45 80 -45v-26c-29 2 -81 2 -112 2s-83 0 -112 -2v26c69 0 80 0 80 45v541c0 45 -11 45 -80 45v26h269c140 0 246 -85 246 -179c0 -80 -80 -144 -175 -163zM310 350c75 0 181 25 181 154c0 124 -97 153 -180 153h-73c-40 0 -42 -5 -42 -39v-268h114z" id="5215"/><path d="M155 616c0 -23 -19 -41 -41 -41c-23 0 -41 19 -41 41c0 23 19 41 41 41c23 0 41 -19 41 -41zM38 427l115 11v-370c0 -36 2 -42 61 -42v-26c-23 2 -64 2 -88 2c-25 0 -68 0 -92 -2v26c64 0 68 5 68 43v278c0 48 -8 54 -64 54v26z" id="6915"/><path d="M438 679v-203c0 -17 0 -20 -9 -20c-7 0 -8 1 -11 19c-15 125 -81 200 -187 200c-85 0 -137 -71 -137 -136c0 -32 10 -64 38 -95c25 -27 48 -34 102 -48c56 -14 58 -14 65 -17c48 -12 93 -24 135 -88c11 -18 30 -58 30 -110c0 -106 -77 -197 -186 -197 c-48 0 -132 14 -182 80c-19 -38 -19 -40 -20 -43c-14 -31 -16 -36 -23 -36c-6 0 -7 1 -7 19v202c0 20 1 21 9 21c7 0 8 -1 9 -17c7 -140 107 -200 214 -200c87 0 138 77 138 149c0 56 -30 116 -87 140c-10 4 -60 17 -90 25c-80 21 -115 29 -152 75c-34 42 -41 86 -41 117 c0 102 82 183 184 183c63 0 121 -25 159 -80l30 66c4 9 6 13 12 13s7 -1 7 -19z" id="5315"/><path d="M415 304v-235c0 -39 4 -43 68 -43v-26c-24 2 -69 2 -95 2s-70 0 -94 -2v26c64 0 68 5 68 43v239c0 48 -8 114 -82 114c-70 0 -126 -69 -126 -161v-192c0 -39 4 -43 68 -43v-26c-24 2 -69 2 -95 2s-70 0 -94 -2v26c64 0 68 5 68 43v278c0 48 -9 54 -68 54v26l118 11v-101 h1c15 40 56 101 135 101c118 0 128 -83 128 -134z" id="6e15"/><path d="M381 235h-290c0 -47 0 -106 31 -157c27 -44 70 -68 113 -68c52 0 107 34 129 102c4 12 5 14 12 14c2 0 8 0 8 -7c0 -21 -44 -127 -156 -127c-106 0 -201 96 -201 226c0 123 84 224 190 224c114 0 168 -89 168 -191c0 -10 0 -12 -4 -16zM92 250h239 c-1 112 -47 176 -115 176c-40 0 -117 -32 -124 -176z" id="6515"/><path d="M220 -169v-26c-24 2 -69 2 -95 2s-70 0 -94 -2v26c64 0 68 5 68 43v473c0 48 -9 54 -68 54v26l119 11v-73c28 40 77 73 137 73c103 0 190 -96 190 -222c0 -136 -101 -224 -201 -224c-53 0 -95 27 -124 69v-187c0 -39 4 -43 68 -43zM152 314v-198c0 -16 0 -22 13 -44 c30 -47 69 -64 105 -64c79 0 143 93 143 207s-60 205 -133 205c-50 0 -84 -30 -89 -34c-39 -37 -39 -58 -39 -72z" id="7015"/><path d="M431 214c0 -126 -93 -222 -202 -222s-202 96 -202 222c0 128 93 228 202 228s202 -100 202 -228zM229 10c38 0 81 19 109 65c27 48 29 108 29 147c0 31 0 97 -31 144c-24 35 -62 60 -107 60c-51 0 -90 -32 -110 -65c-26 -45 -28 -97 -28 -139c0 -44 3 -100 28 -145 c23 -39 63 -67 110 -67z" id="6f15"/><path d="M205 671l336 -549v463c0 25 0 72 -80 72v26c23 -2 65 -2 90 -2s67 0 90 2v-26c-80 0 -80 -47 -80 -72v-563c0 -19 0 -22 -10 -22c-5 0 -8 0 -15 12l-371 607c-7 10 -7 12 -14 18v-539c0 -25 0 -72 80 -72v-26c-23 2 -65 2 -90 2s-67 0 -90 -2v26c80 0 80 47 80 72v553 c-3 1 -21 6 -61 6h-19v26h127c19 0 20 -1 27 -12z" id="4e15"/></defs><g transform="scale(1.25)"><g transform="scale(0.02488,-0.02488)"><g transform="translate(3613.135,-3633.954)"><use xlink:href="#5215"/><use x="680" xlink:href="#6515"/><use x="1086" xlink:href="#7015"/><use x="1596" xlink:href="#6c15"/><use x="1845" xlink:href="#6115"/><use x="2303" xlink:href="#6315"/><use x="2709" xlink:href="#6515"/><use x="3115" xlink:href="#5315"/><use x="3625" xlink:href="#7515"/><use x="4135" xlink:href="#6d15"/><use x="4907" xlink:href="#6d15"/><use x="5679" xlink:href="#6115"/><use x="6137" xlink:href="#7415"/><use x="6491" xlink:href="#6915"/><use x="6740" xlink:href="#6f15"/><use x="7198" xlink:href="#6e15"/><use x="7708" xlink:href="#4e15"/><use x="8401" xlink:href="#6f15"/><use x="8859" xlink:href="#7415"/><use x="9213" xlink:href="#6115"/><use x="9671" xlink:href="#7415"/><use x="10025" xlink:href="#6915"/><use x="10274" xlink:href="#6f15"/><use x="10732" xlink:href="#6e15"/><use x="11242" xlink:href="#5715"/><use x="12196" xlink:href="#6915"/><use x="12445" xlink:href="#7415"/><use x="12799" xlink:href="#6815"/><use x="13309" xlink:href="#5615"/><use x="13923.634" xlink:href="#6515"/><use x="14329.634" xlink:href="#6315"/><use x="14735.634" xlink:href="#7415"/><use x="15089.634" xlink:href="#6f15"/><use x="15547.634" xlink:href="#7215"/><use x="15901.634" xlink:href="#4e15"/><use x="16594.634" xlink:href="#6f15"/><use x="17052.634" xlink:href="#7415"/><use x="17406.634" xlink:href="#6115"/><use x="17864.634" xlink:href="#7415"/><use x="18218.634" xlink:href="#6915"/><use x="18467.634" xlink:href="#6f15"/><use x="18925.634" xlink:href="#6e15"/></g></g></g></svg>