<?xml version="1.0" ?><!DOCTYPE svg  PUBLIC '-//W3C//DTD SVG 1.1//EN'  'http://www.w3.org/Graphics/SVG/1.1/DTD/svg11.dtd'><svg height="52.897" viewBox="100.646 78.684 308.69 52.897" width="308.69" xmlns="http://www.w3.org/2000/svg" xmlns:xlink="http://www.w3.org/1999/xlink"><defs><path d="M365 379l220 -320c20 -28 30 -33 94 -33v-26c-24 2 -74 2 -100 2c-33 0 -82 0 -114 -2v26c35 2 44 19 44 27c0 3 0 6 -8 17l-174 254l-160 -232c-5 -7 -10 -14 -10 -27c0 -16 9 -36 40 -39v-26c-25 2 -72 2 -99 2c-24 0 -62 0 -85 -2v26c19 0 84 1 127 63l174 253 l-193 282c-22 31 -40 33 -95 33v26c24 -2 74 -2 100 -2c33 0 82 0 114 2v-26c-33 -1 -44 -18 -44 -27c0 -3 1 -6 8 -17l148 -216l132 191c7 10 12 18 12 30c0 16 -8 36 -40 39v26c25 -2 66 -2 99 -2c24 0 62 0 85 2v-26c-82 -1 -112 -44 -127 -65z" id="5815"/><path d="M150 694v-328c30 39 74 72 136 72c101 0 191 -94 191 -222c0 -136 -101 -224 -201 -224c-58 0 -101 32 -130 79l-29 -71h-18v603c0 48 -9 54 -68 54v26zM152 315v-198c0 -18 0 -20 11 -39c32 -58 77 -70 108 -70c24 0 142 11 142 209c0 189 -103 205 -133 205 c-19 0 -75 -5 -114 -65c-14 -21 -14 -24 -14 -42z" id="6215"/><path d="M579 594l-201 -321v-198c0 -49 9 -49 81 -49v-26c-29 2 -82 2 -113 2s-83 0 -112 -2v26c69 0 80 0 80 45v202l-221 352c-18 29 -34 32 -91 32v26c24 -2 74 -2 100 -2c33 0 82 0 114 2v-26c-14 0 -49 0 -49 -20c0 -7 1 -8 8 -20l197 -315l180 289c8 13 13 21 13 33 c0 19 -13 32 -38 33v26c24 -2 64 -2 89 -2s51 0 74 2v-26c-18 0 -72 -1 -111 -63z" id="5915"/><path d="M151 404v-283c0 -91 40 -111 69 -111c42 0 69 46 69 115v56h18v-57c0 -74 -34 -132 -93 -132c-116 0 -116 112 -116 131v281h-87v16c85 2 120 92 122 195h18v-185h140v-26h-140z" id="7415"/><path d="M294 427l121 11v-358c0 -48 9 -54 68 -54v-26l-119 -8v93h-1c-8 -21 -41 -93 -126 -93c-72 0 -97 26 -110 39c-26 28 -26 71 -26 138v192c-1 40 -28 40 -68 40v26l121 11v-329c0 -52 7 -101 89 -101c74 0 119 73 119 157v182c0 48 -9 54 -68 54v26z" id="7515"/><path d="M155 616c0 -23 -19 -41 -41 -41c-23 0 -41 19 -41 41c0 23 19 41 41 41c23 0 41 -19 41 -41zM38 427l115 11v-370c0 -36 2 -42 61 -42v-26c-23 2 -64 2 -88 2c-25 0 -68 0 -92 -2v26c64 0 68 5 68 43v278c0 48 -8 54 -64 54v26z" id="6915"/><path d="M153 404v-333c0 -45 12 -45 84 -45v-26c-27 2 -78 2 -107 2c-26 0 -72 0 -96 -2v26c64 0 68 5 68 43v335h-80v26h80v119c0 106 78 153 135 153c40 0 76 -23 76 -61c0 -26 -20 -34 -34 -34s-34 8 -34 34c0 25 21 32 29 34c-10 7 -25 11 -38 11c-43 0 -85 -52 -85 -135 v-121h116v-26h-114z" id="6615"/><path d="M561 612v-541c0 -45 11 -45 80 -45v-26c-29 2 -82 2 -113 2s-84 0 -113 -2v26c69 0 80 0 80 45v271h-298v-271c0 -45 11 -45 80 -45v-26c-29 2 -82 2 -113 2s-84 0 -113 -2v26c69 0 80 0 80 45v541c0 45 -11 45 -80 45v26c29 -2 82 -2 113 -2s84 0 113 2v-26 c-69 0 -80 0 -80 -45v-244h298v244c0 45 -11 45 -80 45v26c29 -2 82 -2 113 -2s84 0 113 2v-26c-69 0 -80 0 -80 -45z" id="4815"/><path d="M392 341c119 -36 127 -109 133 -159c2 -22 4 -37 7 -58c6 -61 12 -124 67 -124c31 0 60 22 65 87c0 4 1 10 9 10c9 0 9 -7 9 -13c0 -17 -11 -100 -85 -100c-22 0 -73 4 -111 45c-30 34 -30 68 -30 135c0 68 0 95 -40 134c-14 13 -46 36 -103 36h-117v-263 c0 -45 11 -45 80 -45v-26c-29 2 -81 2 -112 2s-83 0 -112 -2v26c69 0 80 0 80 45v541c0 45 -11 45 -80 45v26h269c140 0 246 -85 246 -179c0 -80 -80 -144 -175 -163zM310 350c75 0 181 25 181 154c0 124 -97 153 -180 153h-73c-40 0 -42 -5 -42 -39v-268h114z" id="5215"/><path d="M438 679v-203c0 -17 0 -20 -9 -20c-7 0 -8 1 -11 19c-15 125 -81 200 -187 200c-85 0 -137 -71 -137 -136c0 -32 10 -64 38 -95c25 -27 48 -34 102 -48c56 -14 58 -14 65 -17c48 -12 93 -24 135 -88c11 -18 30 -58 30 -110c0 -106 -77 -197 -186 -197 c-48 0 -132 14 -182 80c-19 -38 -19 -40 -20 -43c-14 -31 -16 -36 -23 -36c-6 0 -7 1 -7 19v202c0 20 1 21 9 21c7 0 8 -1 9 -17c7 -140 107 -200 214 -200c87 0 138 77 138 149c0 56 -30 116 -87 140c-10 4 -60 17 -90 25c-80 21 -115 29 -152 75c-34 42 -41 86 -41 117 c0 102 82 183 184 183c63 0 121 -25 159 -80l30 66c4 9 6 13 12 13s7 -1 7 -19z" id="5315"/><path d="M309 422v-112c0 -17 0 -20 -9 -20c-3 0 -8 1 -9 6c-2 32 -8 132 -115 132c-101 0 -115 -55 -115 -81c0 -61 70 -75 125 -87c42 -8 77 -15 107 -46c13 -12 40 -39 40 -90c0 -78 -53 -132 -152 -132c-56 0 -91 26 -111 53c-6 -10 -21 -34 -27 -43c-5 -8 -6 -9 -11 -9 c-6 0 -7 1 -7 19v144c0 20 1 21 9 21s8 -1 11 -15c18 -88 49 -154 136 -154c92 0 116 54 116 96c0 36 -22 58 -35 70c-21 18 -43 22 -106 35c-29 6 -131 27 -131 117c0 58 40 116 151 116c17 0 62 -1 94 -35c3 4 12 14 15 18c12 15 13 16 17 16c6 0 7 -1 7 -19z" id="7315"/><path d="M415 304v-235c0 -39 4 -43 68 -43v-26c-24 2 -69 2 -95 2s-70 0 -94 -2v26c64 0 68 5 68 43v239c0 48 -8 114 -82 114c-70 0 -126 -69 -126 -161v-192c0 -39 4 -43 68 -43v-26c-24 2 -69 2 -95 2s-70 0 -94 -2v26c64 0 68 5 68 43v278c0 48 -9 54 -68 54v26l118 11v-101 h1c15 40 56 101 135 101c118 0 128 -83 128 -134z" id="6e15"/><path d="M607 253l-36 -253h-520v26c69 0 80 0 80 45v539c0 45 -11 45 -80 45v26h506l24 -221h-18c-14 133 -32 195 -187 195h-137c-40 0 -42 -5 -42 -39v-249h94c94 0 103 34 103 117h18v-260h-18c0 83 -9 117 -103 117h-94v-276c0 -34 2 -39 42 -39h139c176 0 189 80 211 227h18 z" id="4515"/><path d="M431 214c0 -126 -93 -222 -202 -222s-202 96 -202 222c0 128 93 228 202 228s202 -100 202 -228zM229 10c38 0 81 19 109 65c27 48 29 108 29 147c0 31 0 97 -31 144c-24 35 -62 60 -107 60c-51 0 -90 -32 -110 -65c-26 -45 -28 -97 -28 -139c0 -44 3 -100 28 -145 c23 -39 63 -67 110 -67z" id="6f15"/><path d="M411 438v-564c0 -39 4 -43 68 -43v-26c-24 2 -69 2 -95 2s-70 0 -94 -2v26c64 0 68 5 68 43v199c-13 -22 -56 -81 -133 -81c-100 0 -192 92 -192 223c0 132 98 223 200 223c67 0 109 -46 132 -99l30 99h16zM360 137v140c0 52 -40 143 -120 143c-77 0 -143 -89 -143 -206 c0 -111 58 -206 133 -206c24 0 60 8 91 43c3 3 39 43 39 86z" id="7115"/></defs><g transform="scale(1.25)"><g transform="scale(0.02488,-0.02488)"><g transform="translate(3613.135,-3633.954)"><use xlink:href="#7315"/><use x="359" xlink:href="#7515"/><use x="869" xlink:href="#6215"/><use x="1379" xlink:href="#5215"/><use x="2059" xlink:href="#4815"/><use x="2752" xlink:href="#5315"/><use x="3262" xlink:href="#6f15"/><use x="3720" xlink:href="#6615"/><use x="3995" xlink:href="#4515"/><use x="4623" xlink:href="#7115"/><use x="5107" xlink:href="#5815"/><use x="5800" xlink:href="#6915"/><use x="6049" xlink:href="#6e15"/><use x="6532.877" xlink:href="#7415"/><use x="6886.877" xlink:href="#6f15"/><use x="7344.877" xlink:href="#4515"/><use x="7972.877" xlink:href="#7115"/><use x="8456.877" xlink:href="#5915"/></g></g></g></svg>