<?xml version="1.0" ?><!DOCTYPE svg  PUBLIC '-//W3C//DTD SVG 1.1//EN'  'http://www.w3.org/Graphics/SVG/1.1/DTD/svg11.dtd'><svg height="47.237" viewBox="101.113 78.777 207.495 47.237" width="207.495" xmlns="http://www.w3.org/2000/svg" xmlns:xlink="http://www.w3.org/1999/xlink"><defs><path d="M392 341c119 -36 127 -109 133 -159c2 -22 4 -37 7 -58c6 -61 12 -124 67 -124c31 0 60 22 65 87c0 4 1 10 9 10c9 0 9 -7 9 -13c0 -17 -11 -100 -85 -100c-22 0 -73 4 -111 45c-30 34 -30 68 -30 135c0 68 0 95 -40 134c-14 13 -46 36 -103 36h-117v-263 c0 -45 11 -45 80 -45v-26c-29 2 -81 2 -112 2s-83 0 -112 -2v26c69 0 80 0 80 45v541c0 45 -11 45 -80 45v26h269c140 0 246 -85 246 -179c0 -80 -80 -144 -175 -163zM310 350c75 0 181 25 181 154c0 124 -97 153 -180 153h-73c-40 0 -42 -5 -42 -39v-268h114z" id="5215"/><path d="M151 404v-283c0 -91 40 -111 69 -111c42 0 69 46 69 115v56h18v-57c0 -74 -34 -132 -93 -132c-116 0 -116 112 -116 131v281h-87v16c85 2 120 92 122 195h18v-185h140v-26h-140z" id="7415"/><path d="M360 259v-144c0 -44 0 -96 41 -96c13 0 40 8 40 69v57h18v-56c0 -79 -53 -93 -74 -93c-44 0 -72 40 -74 84c-22 -57 -73 -88 -128 -88c-53 0 -143 22 -143 99c0 38 18 88 81 123c56 30 127 38 186 40v44c0 84 -55 128 -105 128c-35 0 -89 -18 -110 -81c3 1 8 2 12 2 c17 0 36 -11 36 -36c0 -28 -23 -36 -36 -36c-6 0 -36 2 -36 39c0 66 57 128 136 128c34 0 77 -10 114 -43c42 -39 42 -74 42 -140zM307 139v100c-32 -2 -87 -6 -135 -33c-58 -32 -71 -85 -71 -115c0 -46 39 -83 89 -83c55 0 117 44 117 131z" id="6115"/><path d="M561 612v-541c0 -45 11 -45 80 -45v-26c-29 2 -82 2 -113 2s-84 0 -113 -2v26c69 0 80 0 80 45v271h-298v-271c0 -45 11 -45 80 -45v-26c-29 2 -82 2 -113 2s-84 0 -113 -2v26c69 0 80 0 80 45v541c0 45 -11 45 -80 45v26c29 -2 82 -2 113 -2s84 0 113 2v-26 c-69 0 -80 0 -80 -45v-244h298v244c0 45 -11 45 -80 45v26c29 -2 82 -2 113 -2s84 0 113 2v-26c-69 0 -80 0 -80 -45z" id="4815"/><path d="M150 236v-165c0 -45 12 -45 84 -45v-26c-27 2 -78 2 -107 2c-26 0 -72 0 -96 -2v26c64 0 68 5 68 43v278c0 48 -9 54 -68 54v26l116 11v-109h1c10 35 43 109 119 109c34 0 66 -20 66 -52c0 -28 -22 -35 -34 -35c-15 0 -34 10 -34 34c0 26 22 33 22 33c-7 3 -14 4 -21 4 c-75 0 -116 -90 -116 -186z" id="7215"/><path d="M292 683l119 11v-614c0 -48 9 -54 68 -54v-26l-121 -8v73c-5 -7 -49 -73 -134 -73c-98 0 -191 92 -191 223c0 132 99 223 201 223c81 0 122 -64 126 -69v234c0 48 -9 54 -68 54v26zM358 120v198c0 18 0 21 -13 42c-23 36 -60 62 -106 62c-26 0 -142 -12 -142 -208 c0 -191 104 -206 133 -206c19 0 53 5 87 35c23 20 41 47 41 77z" id="6415"/><path d="M438 679v-203c0 -17 0 -20 -9 -20c-7 0 -8 1 -11 19c-15 125 -81 200 -187 200c-85 0 -137 -71 -137 -136c0 -32 10 -64 38 -95c25 -27 48 -34 102 -48c56 -14 58 -14 65 -17c48 -12 93 -24 135 -88c11 -18 30 -58 30 -110c0 -106 -77 -197 -186 -197 c-48 0 -132 14 -182 80c-19 -38 -19 -40 -20 -43c-14 -31 -16 -36 -23 -36c-6 0 -7 1 -7 19v202c0 20 1 21 9 21c7 0 8 -1 9 -17c7 -140 107 -200 214 -200c87 0 138 77 138 149c0 56 -30 116 -87 140c-10 4 -60 17 -90 25c-80 21 -115 29 -152 75c-34 42 -41 86 -41 117 c0 102 82 183 184 183c63 0 121 -25 159 -80l30 66c4 9 6 13 12 13s7 -1 7 -19z" id="5315"/><path d="M381 235h-290c0 -47 0 -106 31 -157c27 -44 70 -68 113 -68c52 0 107 34 129 102c4 12 5 14 12 14c2 0 8 0 8 -7c0 -21 -44 -127 -156 -127c-106 0 -201 96 -201 226c0 123 84 224 190 224c114 0 168 -89 168 -191c0 -10 0 -12 -4 -16zM92 250h239 c-1 112 -47 176 -115 176c-40 0 -117 -32 -124 -176z" id="6515"/><path d="M431 214c0 -126 -93 -222 -202 -222s-202 96 -202 222c0 128 93 228 202 228s202 -100 202 -228zM229 10c38 0 81 19 109 65c27 48 29 108 29 147c0 31 0 97 -31 144c-24 35 -62 60 -107 60c-51 0 -90 -32 -110 -65c-26 -45 -28 -97 -28 -139c0 -44 3 -100 28 -145 c23 -39 63 -67 110 -67z" id="6f15"/><path d="M516 663l-394 -635h174c191 0 198 102 207 233h18l-14 -261h-439c-20 0 -22 0 -22 13c0 7 0 8 7 19l387 625h-165c-162 0 -192 -81 -198 -195h-18l10 221h425c21 0 22 -1 22 -20z" id="5a15"/></defs><g transform="scale(1.25)"><g transform="scale(0.02488,-0.02488)"><g transform="translate(3613.135,-3633.954)"><use xlink:href="#6115"/><use x="458" xlink:href="#6415"/><use x="968" xlink:href="#6415"/><use x="1478" xlink:href="#5a15"/><use x="2041" xlink:href="#6515"/><use x="2447" xlink:href="#7215"/><use x="2801" xlink:href="#6f15"/><use x="3259" xlink:href="#7415"/><use x="3613" xlink:href="#6f15"/><use x="4071" xlink:href="#5215"/><use x="4751" xlink:href="#4815"/><use x="5444" xlink:href="#5315"/></g></g></g></svg>