<?xml version="1.0" ?><!DOCTYPE svg  PUBLIC '-//W3C//DTD SVG 1.1//EN'  'http://www.w3.org/Graphics/SVG/1.1/DTD/svg11.dtd'><svg height="53.052" viewBox="101.113 78.777 419.57 53.052" width="419.57" xmlns="http://www.w3.org/2000/svg" xmlns:xlink="http://www.w3.org/1999/xlink"><defs><path d="M153 694v-625c0 -39 4 -43 68 -43v-26c-24 2 -68 2 -94 2c-25 0 -69 0 -93 -2v26c64 0 68 5 68 43v534c0 48 -9 54 -68 54v26z" id="6c15"/><path d="M390 342l-178 -439c-20 -50 -56 -106 -114 -106c-45 0 -86 29 -86 69c0 18 11 33 33 33c20 0 32 -15 32 -32s-10 -31 -33 -33c18 -18 43 -21 54 -21c63 0 89 69 134 187l-149 367c-13 32 -19 37 -73 37v26c22 -2 54 -2 81 -2c25 0 68 0 92 2v-26c-24 0 -47 -2 -47 -24 c0 -1 0 -8 5 -20l119 -292l109 270c5 12 7 17 7 27c0 8 -1 36 -39 39v26c20 -2 53 -2 74 -2c19 0 44 1 63 2v-26c-14 0 -59 -1 -84 -62z" id="7915"/><path d="M151 404v-283c0 -91 40 -111 69 -111c42 0 69 46 69 115v56h18v-57c0 -74 -34 -132 -93 -132c-116 0 -116 112 -116 131v281h-87v16c85 2 120 92 122 195h18v-185h140v-26h-140z" id="7415"/><path d="M349 350c-22 55 -80 74 -119 74c-59 0 -133 -55 -133 -207c0 -148 77 -207 141 -207c43 0 100 20 126 101c4 13 5 14 12 14s8 -3 8 -7c0 -11 -31 -126 -155 -126c-102 0 -196 91 -196 224c0 128 90 226 196 226c77 0 145 -54 145 -125c0 -35 -29 -38 -36 -38 c-13 0 -36 8 -36 36c0 35 28 35 47 35z" id="6315"/><path d="M294 427l121 11v-358c0 -48 9 -54 68 -54v-26l-119 -8v93h-1c-8 -21 -41 -93 -126 -93c-72 0 -97 26 -110 39c-26 28 -26 71 -26 138v192c-1 40 -28 40 -68 40v26l121 11v-329c0 -52 7 -101 89 -101c74 0 119 73 119 157v182c0 48 -9 54 -68 54v26z" id="7515"/><path d="M360 259v-144c0 -44 0 -96 41 -96c13 0 40 8 40 69v57h18v-56c0 -79 -53 -93 -74 -93c-44 0 -72 40 -74 84c-22 -57 -73 -88 -128 -88c-53 0 -143 22 -143 99c0 38 18 88 81 123c56 30 127 38 186 40v44c0 84 -55 128 -105 128c-35 0 -89 -18 -110 -81c3 1 8 2 12 2 c17 0 36 -11 36 -36c0 -28 -23 -36 -36 -36c-6 0 -36 2 -36 39c0 66 57 128 136 128c34 0 77 -10 114 -43c42 -39 42 -74 42 -140zM307 139v100c-32 -2 -87 -6 -135 -33c-58 -32 -71 -85 -71 -115c0 -46 39 -83 89 -83c55 0 117 44 117 131z" id="6115"/><path d="M622 680l17 -221h-18c-13 166 -28 195 -181 195c-18 0 -47 0 -55 -1c-18 -4 -18 -16 -18 -38v-542c0 -36 3 -47 86 -47h28v-26c-48 1 -98 2 -147 2s-99 -1 -147 -2v26h28c83 0 86 11 86 47v542c0 23 0 35 -19 38c-8 1 -37 1 -55 1c-154 0 -168 -29 -181 -195h-18l17 221 h577z" id="5415"/><path d="M544 681l24 -221h-18c-14 133 -31 195 -182 195h-129c-40 0 -42 -5 -42 -39v-262h90c93 0 102 33 102 117h18v-260h-18c0 84 -9 117 -102 117h-90v-256c0 -36 2 -46 78 -46h22v-26c-41 2 -89 2 -130 2c-31 0 -87 0 -116 -2v26c69 0 80 0 80 45v539c0 45 -11 45 -80 45v26 h493z" id="4615"/><path d="M621 199v-179c0 -18 -1 -19 -6 -19s-33 28 -50 69c-31 -57 -110 -86 -191 -86c-176 0 -328 153 -328 358c0 206 155 357 326 357c77 0 137 -36 186 -98l44 84c7 12 8 13 12 13c6 0 7 -1 7 -19v-237c0 -18 0 -20 -11 -20c-9 0 -9 2 -11 14c-19 139 -101 237 -214 237 c-97 0 -263 -70 -263 -331s169 -332 272 -332c31 0 161 9 161 119v66c0 36 -2 47 -88 47h-30v26c38 -1 116 -2 144 -2c27 0 81 0 105 2v-26c-62 0 -65 -5 -65 -43z" id="4715"/><path d="M150 236v-165c0 -45 12 -45 84 -45v-26c-27 2 -78 2 -107 2c-26 0 -72 0 -96 -2v26c64 0 68 5 68 43v278c0 48 -9 54 -68 54v26l116 11v-109h1c10 35 43 109 119 109c34 0 66 -20 66 -52c0 -28 -22 -35 -34 -35c-15 0 -34 10 -34 34c0 26 22 33 22 33c-7 3 -14 4 -21 4 c-75 0 -116 -90 -116 -186z" id="7215"/><path d="M155 616c0 -23 -19 -41 -41 -41c-23 0 -41 19 -41 41c0 23 19 41 41 41c23 0 41 -19 41 -41zM38 427l115 11v-370c0 -36 2 -42 61 -42v-26c-23 2 -64 2 -88 2c-25 0 -68 0 -92 -2v26c64 0 68 5 68 43v278c0 48 -8 54 -64 54v26z" id="6915"/><path d="M292 683l119 11v-614c0 -48 9 -54 68 -54v-26l-121 -8v73c-5 -7 -49 -73 -134 -73c-98 0 -191 92 -191 223c0 132 99 223 201 223c81 0 122 -64 126 -69v234c0 48 -9 54 -68 54v26zM358 120v198c0 18 0 21 -13 42c-23 36 -60 62 -106 62c-26 0 -142 -12 -142 -208 c0 -191 104 -206 133 -206c19 0 53 5 87 35c23 20 41 47 41 77z" id="6415"/><path d="M438 679v-203c0 -17 0 -20 -9 -20c-7 0 -8 1 -11 19c-15 125 -81 200 -187 200c-85 0 -137 -71 -137 -136c0 -32 10 -64 38 -95c25 -27 48 -34 102 -48c56 -14 58 -14 65 -17c48 -12 93 -24 135 -88c11 -18 30 -58 30 -110c0 -106 -77 -197 -186 -197 c-48 0 -132 14 -182 80c-19 -38 -19 -40 -20 -43c-14 -31 -16 -36 -23 -36c-6 0 -7 1 -7 19v202c0 20 1 21 9 21c7 0 8 -1 9 -17c7 -140 107 -200 214 -200c87 0 138 77 138 149c0 56 -30 116 -87 140c-10 4 -60 17 -90 25c-80 21 -115 29 -152 75c-34 42 -41 86 -41 117 c0 102 82 183 184 183c63 0 121 -25 159 -80l30 66c4 9 6 13 12 13s7 -1 7 -19z" id="5315"/><path d="M415 304v-235c0 -39 4 -43 68 -43v-26c-24 2 -69 2 -95 2s-70 0 -94 -2v26c64 0 68 5 68 43v239c0 48 -8 114 -82 114c-70 0 -126 -69 -126 -161v-192c0 -39 4 -43 68 -43v-26c-24 2 -69 2 -95 2s-70 0 -94 -2v26c64 0 68 5 68 43v278c0 48 -9 54 -68 54v26l118 11v-101 h1c15 40 56 101 135 101c118 0 128 -83 128 -134z" id="6e15"/><path d="M381 235h-290c0 -47 0 -106 31 -157c27 -44 70 -68 113 -68c52 0 107 34 129 102c4 12 5 14 12 14c2 0 8 0 8 -7c0 -21 -44 -127 -156 -127c-106 0 -201 96 -201 226c0 123 84 224 190 224c114 0 168 -89 168 -191c0 -10 0 -12 -4 -16zM92 250h239 c-1 112 -47 176 -115 176c-40 0 -117 -32 -124 -176z" id="6515"/><path d="M220 -169v-26c-24 2 -69 2 -95 2s-70 0 -94 -2v26c64 0 68 5 68 43v473c0 48 -9 54 -68 54v26l119 11v-73c28 40 77 73 137 73c103 0 190 -96 190 -222c0 -136 -101 -224 -201 -224c-53 0 -95 27 -124 69v-187c0 -39 4 -43 68 -43zM152 314v-198c0 -16 0 -22 13 -44 c30 -47 69 -64 105 -64c79 0 143 93 143 207s-60 205 -133 205c-50 0 -84 -30 -89 -34c-39 -37 -39 -58 -39 -72z" id="7015"/><path d="M431 214c0 -126 -93 -222 -202 -222s-202 96 -202 222c0 128 93 228 202 228s202 -100 202 -228zM229 10c38 0 81 19 109 65c27 48 29 108 29 147c0 31 0 97 -31 144c-24 35 -62 60 -107 60c-51 0 -90 -32 -110 -65c-26 -45 -28 -97 -28 -139c0 -44 3 -100 28 -145 c23 -39 63 -67 110 -67z" id="6f15"/></defs><g transform="scale(1.25)"><g transform="scale(0.02488,-0.02488)"><g transform="translate(3613.135,-3633.954)"><use xlink:href="#6115"/><use x="458" xlink:href="#7015"/><use x="968" xlink:href="#7015"/><use x="1478" xlink:href="#6c15"/><use x="1727" xlink:href="#7915"/><use x="2211" xlink:href="#4715"/><use x="2937" xlink:href="#7215"/><use x="3291" xlink:href="#6115"/><use x="3749" xlink:href="#6415"/><use x="4259" xlink:href="#6915"/><use x="4508" xlink:href="#6515"/><use x="4914" xlink:href="#6e15"/><use x="5397.877" xlink:href="#7415"/><use x="5751.877" xlink:href="#5415"/><use x="6340.512" xlink:href="#6f15"/><use x="6798.512" xlink:href="#5315"/><use x="7308.512" xlink:href="#6315"/><use x="7714.512" xlink:href="#6115"/><use x="8172.512" xlink:href="#6c15"/><use x="8421.512" xlink:href="#6115"/><use x="8879.512" xlink:href="#7215"/><use x="9233.512" xlink:href="#4615"/><use x="9757.146" xlink:href="#7515"/><use x="10267.146" xlink:href="#6e15"/><use x="10777.146" xlink:href="#6315"/><use x="11183.146" xlink:href="#7415"/><use x="11537.146" xlink:href="#6915"/><use x="11786.146" xlink:href="#6f15"/><use x="12244.146" xlink:href="#6e15"/></g></g></g></svg>