<?xml version="1.0" ?><!DOCTYPE svg  PUBLIC '-//W3C//DTD SVG 1.1//EN'  'http://www.w3.org/Graphics/SVG/1.1/DTD/svg11.dtd'><svg height="53.146" viewBox="100.646 78.684 121.783 53.146" width="121.783" xmlns="http://www.w3.org/2000/svg" xmlns:xlink="http://www.w3.org/1999/xlink"><defs><path d="M153 694v-625c0 -39 4 -43 68 -43v-26c-24 2 -68 2 -94 2c-25 0 -69 0 -93 -2v26c64 0 68 5 68 43v534c0 48 -9 54 -68 54v26z" id="6c15"/><path d="M676 304v-235c0 -39 4 -43 68 -43v-26c-24 2 -69 2 -95 2s-70 0 -94 -2v26c64 0 68 5 68 43v239c0 48 -8 114 -82 114c-70 0 -126 -69 -126 -161v-192c0 -39 4 -43 68 -43v-26c-24 2 -69 2 -95 2s-70 0 -94 -2v26c64 0 68 5 68 43v239c0 48 -8 114 -82 114 c-70 0 -126 -69 -126 -161v-192c0 -39 4 -43 68 -43v-26c-24 2 -69 2 -95 2s-70 0 -94 -2v26c64 0 68 5 68 43v278c0 48 -9 54 -68 54v26l118 11v-101h1c15 40 56 101 135 101c56 0 115 -18 127 -100h1c18 54 65 100 133 100c119 0 128 -84 128 -134z" id="6d15"/><path d="M390 342l-178 -439c-20 -50 -56 -106 -114 -106c-45 0 -86 29 -86 69c0 18 11 33 33 33c20 0 32 -15 32 -32s-10 -31 -33 -33c18 -18 43 -21 54 -21c63 0 89 69 134 187l-149 367c-13 32 -19 37 -73 37v26c22 -2 54 -2 81 -2c25 0 68 0 92 2v-26c-24 0 -47 -2 -47 -24 c0 -1 0 -8 5 -20l119 -292l109 270c5 12 7 17 7 27c0 8 -1 36 -39 39v26c20 -2 53 -2 74 -2c19 0 44 1 63 2v-26c-14 0 -59 -1 -84 -62z" id="7915"/><path d="M153 404v-333c0 -45 12 -45 84 -45v-26c-27 2 -78 2 -107 2c-26 0 -72 0 -96 -2v26c64 0 68 5 68 43v335h-80v26h80v119c0 106 78 153 135 153c40 0 76 -23 76 -61c0 -26 -20 -34 -34 -34s-34 8 -34 34c0 25 21 32 29 34c-10 7 -25 11 -38 11c-43 0 -85 -52 -85 -135 v-121h116v-26h-114z" id="6615"/><path d="M155 616c0 -23 -19 -41 -41 -41c-23 0 -41 19 -41 41c0 23 19 41 41 41c23 0 41 -19 41 -41zM38 427l115 11v-370c0 -36 2 -42 61 -42v-26c-23 2 -64 2 -88 2c-25 0 -68 0 -92 -2v26c64 0 68 5 68 43v278c0 48 -8 54 -64 54v26z" id="6915"/><path d="M309 422v-112c0 -17 0 -20 -9 -20c-3 0 -8 1 -9 6c-2 32 -8 132 -115 132c-101 0 -115 -55 -115 -81c0 -61 70 -75 125 -87c42 -8 77 -15 107 -46c13 -12 40 -39 40 -90c0 -78 -53 -132 -152 -132c-56 0 -91 26 -111 53c-6 -10 -21 -34 -27 -43c-5 -8 -6 -9 -11 -9 c-6 0 -7 1 -7 19v144c0 20 1 21 9 21s8 -1 11 -15c18 -88 49 -154 136 -154c92 0 116 54 116 96c0 36 -22 58 -35 70c-21 18 -43 22 -106 35c-29 6 -131 27 -131 117c0 58 40 116 151 116c17 0 62 -1 94 -35c3 4 12 14 15 18c12 15 13 16 17 16c6 0 7 -1 7 -19z" id="7315"/><path d="M220 -169v-26c-24 2 -69 2 -95 2s-70 0 -94 -2v26c64 0 68 5 68 43v473c0 48 -9 54 -68 54v26l119 11v-73c28 40 77 73 137 73c103 0 190 -96 190 -222c0 -136 -101 -224 -201 -224c-53 0 -95 27 -124 69v-187c0 -39 4 -43 68 -43zM152 314v-198c0 -16 0 -22 13 -44 c30 -47 69 -64 105 -64c79 0 143 93 143 207s-60 205 -133 205c-50 0 -84 -30 -89 -34c-39 -37 -39 -58 -39 -72z" id="7015"/></defs><g transform="scale(1.25)"><g transform="scale(0.02488,-0.02488)"><g transform="translate(3613.135,-3633.954)"><use xlink:href="#7315"/><use x="359" xlink:href="#6915"/><use x="608" xlink:href="#6d15"/><use x="1380" xlink:href="#7015"/><use x="1890" xlink:href="#6c15"/><use x="2139" xlink:href="#6915"/><use x="2388" xlink:href="#6615"/><use x="2663" xlink:href="#7915"/></g></g></g></svg>