<?xml version="1.0" ?><!DOCTYPE svg  PUBLIC '-//W3C//DTD SVG 1.1//EN'  'http://www.w3.org/Graphics/SVG/1.1/DTD/svg11.dtd'><svg height="52.648" viewBox="101.113 78.933 207.153 52.648" width="207.153" xmlns="http://www.w3.org/2000/svg" xmlns:xlink="http://www.w3.org/1999/xlink"><defs><path d="M365 379l220 -320c20 -28 30 -33 94 -33v-26c-24 2 -74 2 -100 2c-33 0 -82 0 -114 -2v26c35 2 44 19 44 27c0 3 0 6 -8 17l-174 254l-160 -232c-5 -7 -10 -14 -10 -27c0 -16 9 -36 40 -39v-26c-25 2 -72 2 -99 2c-24 0 -62 0 -85 -2v26c19 0 84 1 127 63l174 253 l-193 282c-22 31 -40 33 -95 33v26c24 -2 74 -2 100 -2c33 0 82 0 114 2v-26c-33 -1 -44 -18 -44 -27c0 -3 1 -6 8 -17l148 -216l132 191c7 10 12 18 12 30c0 16 -8 36 -40 39v26c25 -2 66 -2 99 -2c24 0 62 0 85 2v-26c-82 -1 -112 -44 -127 -65z" id="5815"/><path d="M579 594l-201 -321v-198c0 -49 9 -49 81 -49v-26c-29 2 -82 2 -113 2s-83 0 -112 -2v26c69 0 80 0 80 45v202l-221 352c-18 29 -34 32 -91 32v26c24 -2 74 -2 100 -2c33 0 82 0 114 2v-26c-14 0 -49 0 -49 -20c0 -7 1 -8 8 -20l197 -315l180 289c8 13 13 21 13 33 c0 19 -13 32 -38 33v26c24 -2 64 -2 89 -2s51 0 74 2v-26c-18 0 -72 -1 -111 -63z" id="5915"/><path d="M151 404v-283c0 -91 40 -111 69 -111c42 0 69 46 69 115v56h18v-57c0 -74 -34 -132 -93 -132c-116 0 -116 112 -116 131v281h-87v16c85 2 120 92 122 195h18v-185h140v-26h-140z" id="7415"/><path d="M360 259v-144c0 -44 0 -96 41 -96c13 0 40 8 40 69v57h18v-56c0 -79 -53 -93 -74 -93c-44 0 -72 40 -74 84c-22 -57 -73 -88 -128 -88c-53 0 -143 22 -143 99c0 38 18 88 81 123c56 30 127 38 186 40v44c0 84 -55 128 -105 128c-35 0 -89 -18 -110 -81c3 1 8 2 12 2 c17 0 36 -11 36 -36c0 -28 -23 -36 -36 -36c-6 0 -36 2 -36 39c0 66 57 128 136 128c34 0 77 -10 114 -43c42 -39 42 -74 42 -140zM307 139v100c-32 -2 -87 -6 -135 -33c-58 -32 -71 -85 -71 -115c0 -46 39 -83 89 -83c55 0 117 44 117 131z" id="6115"/><path d="M292 683l119 11v-614c0 -48 9 -54 68 -54v-26l-121 -8v73c-5 -7 -49 -73 -134 -73c-98 0 -191 92 -191 223c0 132 99 223 201 223c81 0 122 -64 126 -69v234c0 48 -9 54 -68 54v26zM358 120v198c0 18 0 21 -13 42c-23 36 -60 62 -106 62c-26 0 -142 -12 -142 -208 c0 -191 104 -206 133 -206c19 0 53 5 87 35c23 20 41 47 41 77z" id="6415"/><path d="M607 253l-36 -253h-520v26c69 0 80 0 80 45v539c0 45 -11 45 -80 45v26h506l24 -221h-18c-14 133 -32 195 -187 195h-137c-40 0 -42 -5 -42 -39v-249h94c94 0 103 34 103 117h18v-260h-18c0 83 -9 117 -103 117h-94v-276c0 -34 2 -39 42 -39h139c176 0 189 80 211 227h18 z" id="4515"/><path d="M431 214c0 -126 -93 -222 -202 -222s-202 96 -202 222c0 128 93 228 202 228s202 -100 202 -228zM229 10c38 0 81 19 109 65c27 48 29 108 29 147c0 31 0 97 -31 144c-24 35 -62 60 -107 60c-51 0 -90 -32 -110 -65c-26 -45 -28 -97 -28 -139c0 -44 3 -100 28 -145 c23 -39 63 -67 110 -67z" id="6f15"/><path d="M411 438v-564c0 -39 4 -43 68 -43v-26c-24 2 -69 2 -95 2s-70 0 -94 -2v26c64 0 68 5 68 43v199c-13 -22 -56 -81 -133 -81c-100 0 -192 92 -192 223c0 132 98 223 200 223c67 0 109 -46 132 -99l30 99h16zM360 137v140c0 52 -40 143 -120 143c-77 0 -143 -89 -143 -206 c0 -111 58 -206 133 -206c24 0 60 8 91 43c3 3 39 43 39 86z" id="7115"/></defs><g transform="scale(1.25)"><g transform="scale(0.02488,-0.02488)"><g transform="translate(3613.135,-3633.954)"><use xlink:href="#6115"/><use x="458" xlink:href="#6415"/><use x="968" xlink:href="#6415"/><use x="1478" xlink:href="#4515"/><use x="2106" xlink:href="#7115"/><use x="2590" xlink:href="#5815"/><use x="3283" xlink:href="#7415"/><use x="3637" xlink:href="#6f15"/><use x="4095" xlink:href="#4515"/><use x="4723" xlink:href="#7115"/><use x="5207" xlink:href="#5915"/></g></g></g></svg>