<?xml version="1.0" ?><!DOCTYPE svg  PUBLIC '-//W3C//DTD SVG 1.1//EN'  'http://www.w3.org/Graphics/SVG/1.1/DTD/svg11.dtd'><svg height="53.052" viewBox="101.113 78.777 282.78 53.052" width="282.78" xmlns="http://www.w3.org/2000/svg" xmlns:xlink="http://www.w3.org/1999/xlink"><defs><path d="M153 694v-625c0 -39 4 -43 68 -43v-26c-24 2 -68 2 -94 2c-25 0 -69 0 -93 -2v26c64 0 68 5 68 43v534c0 48 -9 54 -68 54v26z" id="6c15"/><path d="M431 214c0 -126 -93 -222 -202 -222s-202 96 -202 222c0 128 93 228 202 228s202 -100 202 -228zM229 10c38 0 81 19 109 65c27 48 29 108 29 147c0 31 0 97 -31 144c-24 35 -62 60 -107 60c-51 0 -90 -32 -110 -65c-26 -45 -28 -97 -28 -139c0 -44 3 -100 28 -145 c23 -39 63 -67 110 -67z" id="6f15"/><path d="M390 342l-178 -439c-20 -50 -56 -106 -114 -106c-45 0 -86 29 -86 69c0 18 11 33 33 33c20 0 32 -15 32 -32s-10 -31 -33 -33c18 -18 43 -21 54 -21c63 0 89 69 134 187l-149 367c-13 32 -19 37 -73 37v26c22 -2 54 -2 81 -2c25 0 68 0 92 2v-26c-24 0 -47 -2 -47 -24 c0 -1 0 -8 5 -20l119 -292l109 270c5 12 7 17 7 27c0 8 -1 36 -39 39v26c20 -2 53 -2 74 -2c19 0 44 1 63 2v-26c-14 0 -59 -1 -84 -62z" id="7915"/><path d="M151 404v-283c0 -91 40 -111 69 -111c42 0 69 46 69 115v56h18v-57c0 -74 -34 -132 -93 -132c-116 0 -116 112 -116 131v281h-87v16c85 2 120 92 122 195h18v-185h140v-26h-140z" id="7415"/><path d="M360 259v-144c0 -44 0 -96 41 -96c13 0 40 8 40 69v57h18v-56c0 -79 -53 -93 -74 -93c-44 0 -72 40 -74 84c-22 -57 -73 -88 -128 -88c-53 0 -143 22 -143 99c0 38 18 88 81 123c56 30 127 38 186 40v44c0 84 -55 128 -105 128c-35 0 -89 -18 -110 -81c3 1 8 2 12 2 c17 0 36 -11 36 -36c0 -28 -23 -36 -36 -36c-6 0 -36 2 -36 39c0 66 57 128 136 128c34 0 77 -10 114 -43c42 -39 42 -74 42 -140zM307 139v100c-32 -2 -87 -6 -135 -33c-58 -32 -71 -85 -71 -115c0 -46 39 -83 89 -83c55 0 117 44 117 131z" id="6115"/><path d="M622 680l17 -221h-18c-13 166 -28 195 -181 195c-18 0 -47 0 -55 -1c-18 -4 -18 -16 -18 -38v-542c0 -36 3 -47 86 -47h28v-26c-48 1 -98 2 -147 2s-99 -1 -147 -2v26h28c83 0 86 11 86 47v542c0 23 0 35 -19 38c-8 1 -37 1 -55 1c-154 0 -168 -29 -181 -195h-18l17 221 h577z" id="5415"/><path d="M150 236v-165c0 -45 12 -45 84 -45v-26c-27 2 -78 2 -107 2c-26 0 -72 0 -96 -2v26c64 0 68 5 68 43v278c0 48 -9 54 -68 54v26l116 11v-109h1c10 35 43 109 119 109c34 0 66 -20 66 -52c0 -28 -22 -35 -34 -35c-15 0 -34 10 -34 34c0 26 22 33 22 33c-7 3 -14 4 -21 4 c-75 0 -116 -90 -116 -186z" id="7215"/><path d="M381 235h-290c0 -47 0 -106 31 -157c27 -44 70 -68 113 -68c52 0 107 34 129 102c4 12 5 14 12 14c2 0 8 0 8 -7c0 -21 -44 -127 -156 -127c-106 0 -201 96 -201 226c0 123 84 224 190 224c114 0 168 -89 168 -191c0 -10 0 -12 -4 -16zM92 250h239 c-1 112 -47 176 -115 176c-40 0 -117 -32 -124 -176z" id="6515"/><path d="M220 -169v-26c-24 2 -69 2 -95 2s-70 0 -94 -2v26c64 0 68 5 68 43v473c0 48 -9 54 -68 54v26l119 11v-73c28 40 77 73 137 73c103 0 190 -96 190 -222c0 -136 -101 -224 -201 -224c-53 0 -95 27 -124 69v-187c0 -39 4 -43 68 -43zM152 314v-198c0 -16 0 -22 13 -44 c30 -47 69 -64 105 -64c79 0 143 93 143 207s-60 205 -133 205c-50 0 -84 -30 -89 -34c-39 -37 -39 -58 -39 -72z" id="7015"/><path d="M673 340c0 -200 -143 -356 -314 -356c-167 0 -313 153 -313 356s144 359 314 359c166 0 313 -154 313 -359zM360 2c110 0 237 110 237 351c0 233 -132 328 -238 328c-101 0 -237 -92 -237 -328c0 -237 124 -351 238 -351z" id="4f15"/><path d="M369 419l223 -341c30 -46 45 -52 93 -52v-26c-23 2 -64 2 -88 2c-33 0 -79 0 -111 -2v26c13 0 41 0 41 26c0 10 -7 23 -13 33l-189 290l-128 -127v-177c0 -45 11 -45 80 -45v-26c-29 2 -82 2 -113 2s-84 0 -113 -2v26c69 0 80 0 80 45v541c0 45 -11 45 -80 45v26 c29 -2 82 -2 113 -2s84 0 113 2v-26c-69 0 -80 0 -80 -45v-339l332 333c4 6 8 17 8 24s-4 25 -30 27v26c26 -2 73 -2 100 -2c20 0 45 1 65 2v-26c-56 -2 -94 -30 -130 -65z" id="4b15"/></defs><g transform="scale(1.25)"><g transform="scale(0.02488,-0.02488)"><g transform="translate(3613.135,-3633.954)"><use xlink:href="#6115"/><use x="458" xlink:href="#7015"/><use x="968" xlink:href="#7015"/><use x="1478" xlink:href="#6c15"/><use x="1727" xlink:href="#7915"/><use x="2211" xlink:href="#4f15"/><use x="2930" xlink:href="#7015"/><use x="3466.122" xlink:href="#6515"/><use x="3872.122" xlink:href="#7215"/><use x="4226.122" xlink:href="#6115"/><use x="4684.122" xlink:href="#7415"/><use x="5038.122" xlink:href="#6f15"/><use x="5496.122" xlink:href="#7215"/><use x="5850.122" xlink:href="#5415"/><use x="6438.756" xlink:href="#6f15"/><use x="6896.756" xlink:href="#4b15"/><use x="7615.756" xlink:href="#6515"/><use x="8021.756" xlink:href="#7415"/></g></g></g></svg>