<?xml version="1.0" ?><!DOCTYPE svg  PUBLIC '-//W3C//DTD SVG 1.1//EN'  'http://www.w3.org/Graphics/SVG/1.1/DTD/svg11.dtd'><svg height="52.648" viewBox="100.895 78.933 219.655 52.648" width="219.655" xmlns="http://www.w3.org/2000/svg" xmlns:xlink="http://www.w3.org/1999/xlink"><defs><path d="M153 694v-625c0 -39 4 -43 68 -43v-26c-24 2 -68 2 -94 2c-25 0 -69 0 -93 -2v26c64 0 68 5 68 43v534c0 48 -9 54 -68 54v26z" id="6c15"/><path d="M607 253l-36 -253h-520v26c69 0 80 0 80 45v539c0 45 -11 45 -80 45v26h506l24 -221h-18c-14 133 -32 195 -187 195h-137c-40 0 -42 -5 -42 -39v-249h94c94 0 103 34 103 117h18v-260h-18c0 83 -9 117 -103 117h-94v-276c0 -34 2 -39 42 -39h139c176 0 189 80 211 227h18 z" id="4515"/><path d="M151 404v-283c0 -91 40 -111 69 -111c42 0 69 46 69 115v56h18v-57c0 -74 -34 -132 -93 -132c-116 0 -116 112 -116 131v281h-87v16c85 2 120 92 122 195h18v-185h140v-26h-140z" id="7415"/><path d="M349 350c-22 55 -80 74 -119 74c-59 0 -133 -55 -133 -207c0 -148 77 -207 141 -207c43 0 100 20 126 101c4 13 5 14 12 14s8 -3 8 -7c0 -11 -31 -126 -155 -126c-102 0 -196 91 -196 224c0 128 90 226 196 226c77 0 145 -54 145 -125c0 -35 -29 -38 -36 -38 c-13 0 -36 8 -36 36c0 35 28 35 47 35z" id="6315"/><path d="M155 616c0 -23 -19 -41 -41 -41c-23 0 -41 19 -41 41c0 23 19 41 41 41c23 0 41 -19 41 -41zM38 427l115 11v-370c0 -36 2 -42 61 -42v-26c-23 2 -64 2 -88 2c-25 0 -68 0 -92 -2v26c64 0 68 5 68 43v278c0 48 -8 54 -64 54v26z" id="6915"/><path d="M360 259v-144c0 -44 0 -96 41 -96c13 0 40 8 40 69v57h18v-56c0 -79 -53 -93 -74 -93c-44 0 -72 40 -74 84c-22 -57 -73 -88 -128 -88c-53 0 -143 22 -143 99c0 38 18 88 81 123c56 30 127 38 186 40v44c0 84 -55 128 -105 128c-35 0 -89 -18 -110 -81c3 1 8 2 12 2 c17 0 36 -11 36 -36c0 -28 -23 -36 -36 -36c-6 0 -36 2 -36 39c0 66 57 128 136 128c34 0 77 -10 114 -43c42 -39 42 -74 42 -140zM307 139v100c-32 -2 -87 -6 -135 -33c-58 -32 -71 -85 -71 -115c0 -46 39 -83 89 -83c55 0 117 44 117 131z" id="6115"/><path d="M150 236v-165c0 -45 12 -45 84 -45v-26c-27 2 -78 2 -107 2c-26 0 -72 0 -96 -2v26c64 0 68 5 68 43v278c0 48 -9 54 -68 54v26l116 11v-109h1c10 35 43 109 119 109c34 0 66 -20 66 -52c0 -28 -22 -35 -34 -35c-15 0 -34 10 -34 34c0 26 22 33 22 33c-7 3 -14 4 -21 4 c-75 0 -116 -90 -116 -186z" id="7215"/><path d="M197 612v-541c0 -45 12 -45 84 -45v-26c-32 2 -83 2 -117 2s-85 0 -117 -2v26c72 0 84 0 84 45v541c0 45 -12 45 -84 45v26c32 -2 83 -2 117 -2s85 0 117 2v-26c-72 0 -84 0 -84 -45z" id="4915"/><path d="M292 683l119 11v-614c0 -48 9 -54 68 -54v-26l-121 -8v73c-5 -7 -49 -73 -134 -73c-98 0 -191 92 -191 223c0 132 99 223 201 223c81 0 122 -64 126 -69v234c0 48 -9 54 -68 54v26zM358 120v198c0 18 0 21 -13 42c-23 36 -60 62 -106 62c-26 0 -142 -12 -142 -208 c0 -191 104 -206 133 -206c19 0 53 5 87 35c23 20 41 47 41 77z" id="6415"/><path d="M415 304v-235c0 -39 4 -43 68 -43v-26c-24 2 -69 2 -95 2s-70 0 -94 -2v26c64 0 68 5 68 43v239c0 48 -8 114 -82 114c-70 0 -126 -69 -126 -161v-192c0 -39 4 -43 68 -43v-26c-24 2 -69 2 -95 2s-70 0 -94 -2v26c64 0 68 5 68 43v278c0 48 -9 54 -68 54v26l118 11v-101 h1c15 40 56 101 135 101c118 0 128 -83 128 -134z" id="6e15"/><path d="M381 235h-290c0 -47 0 -106 31 -157c27 -44 70 -68 113 -68c52 0 107 34 129 102c4 12 5 14 12 14c2 0 8 0 8 -7c0 -21 -44 -127 -156 -127c-106 0 -201 96 -201 226c0 123 84 224 190 224c114 0 168 -89 168 -191c0 -10 0 -12 -4 -16zM92 250h239 c-1 112 -47 176 -115 176c-40 0 -117 -32 -124 -176z" id="6515"/><path d="M411 438v-564c0 -39 4 -43 68 -43v-26c-24 2 -69 2 -95 2s-70 0 -94 -2v26c64 0 68 5 68 43v199c-13 -22 -56 -81 -133 -81c-100 0 -192 92 -192 223c0 132 98 223 200 223c67 0 109 -46 132 -99l30 99h16zM360 137v140c0 52 -40 143 -120 143c-77 0 -143 -89 -143 -206 c0 -111 58 -206 133 -206c24 0 60 8 91 43c3 3 39 43 39 86z" id="7115"/></defs><g transform="scale(1.25)"><g transform="scale(0.02488,-0.02488)"><g transform="translate(3613.135,-3633.954)"><use xlink:href="#6415"/><use x="510" xlink:href="#6515"/><use x="916" xlink:href="#6315"/><use x="1322" xlink:href="#6c15"/><use x="1571" xlink:href="#6115"/><use x="2029" xlink:href="#7215"/><use x="2383" xlink:href="#6515"/><use x="2789" xlink:href="#4915"/><use x="3116" xlink:href="#6e15"/><use x="3626" xlink:href="#6915"/><use x="3875" xlink:href="#7415"/><use x="4229" xlink:href="#6915"/><use x="4478" xlink:href="#6115"/><use x="4936" xlink:href="#6c15"/><use x="5185" xlink:href="#4515"/><use x="5813" xlink:href="#7115"/></g></g></g></svg>