<?xml version="1.0" ?><!DOCTYPE svg  PUBLIC '-//W3C//DTD SVG 1.1//EN'  'http://www.w3.org/Graphics/SVG/1.1/DTD/svg11.dtd'><svg height="53.083" viewBox="100.708 78.777 406.835 53.083" width="406.835" xmlns="http://www.w3.org/2000/svg" xmlns:xlink="http://www.w3.org/1999/xlink"><defs><path d="M209 667l216 -586l216 586c6 15 7 16 28 16h127v-26c-69 0 -80 0 -80 -45v-541c0 -45 11 -45 80 -45v-26c-27 2 -82 2 -111 2s-83 0 -110 -2v26c69 0 80 0 80 45v587h-1l-237 -642c-4 -10 -6 -16 -14 -16s-10 6 -14 16l-235 637h-1v-555c0 -25 0 -72 80 -72v-26 c-23 2 -65 2 -90 2s-67 0 -90 -2v26c80 0 80 47 80 72v514c0 45 -11 45 -80 45v26h128c21 0 22 -1 28 -16z" id="4d15"/><path d="M260 233l134 -174c24 -31 39 -33 89 -33v-26c-22 2 -54 2 -81 2c-25 0 -68 0 -92 -2v26c16 1 28 9 28 23c0 7 -12 22 -20 33l-87 113l-83 -102c-9 -12 -17 -23 -17 -41c0 -23 16 -25 22 -26v-26c-18 2 -62 2 -82 2c-18 0 -53 -1 -70 -2v26c27 1 74 5 119 59 c11 14 98 121 98 125c0 3 -5 9 -7 11l-115 149c-24 30 -36 34 -90 34v26c22 -2 54 -2 81 -2c25 0 68 0 92 2v-26c-17 -1 -27 -11 -27 -23c0 -5 0 -7 9 -18l88 -115l74 94c5 7 15 18 15 36c0 14 -8 24 -22 26v26c23 -2 54 -2 81 -2c18 0 53 1 70 2v-26 c-44 -1 -82 -17 -115 -55c-28 -33 -62 -77 -92 -116z" id="7815"/><path d="M151 404v-283c0 -91 40 -111 69 -111c42 0 69 46 69 115v56h18v-57c0 -74 -34 -132 -93 -132c-116 0 -116 112 -116 131v281h-87v16c85 2 120 92 122 195h18v-185h140v-26h-140z" id="7415"/><path d="M621 679v-237c0 -18 0 -20 -11 -20c-9 0 -9 2 -11 14c-19 139 -101 237 -214 237c-97 0 -263 -70 -263 -331c0 -260 163 -332 265 -332c108 0 208 86 216 226c1 9 1 12 9 12c9 0 9 -4 9 -14c0 -115 -95 -250 -248 -250c-172 0 -327 150 -327 358c0 206 155 357 326 357 c77 0 137 -36 186 -98l44 84c7 12 8 13 12 13c6 0 7 -1 7 -19z" id="4315"/><path d="M294 427l121 11v-358c0 -48 9 -54 68 -54v-26l-119 -8v93h-1c-8 -21 -41 -93 -126 -93c-72 0 -97 26 -110 39c-26 28 -26 71 -26 138v192c-1 40 -28 40 -68 40v26l121 11v-329c0 -52 7 -101 89 -101c74 0 119 73 119 157v182c0 48 -9 54 -68 54v26z" id="7515"/><path d="M182 616c0 -23 -19 -41 -41 -41c-23 0 -41 19 -41 41c0 23 19 41 41 41c23 0 41 -19 41 -41zM57 427l125 11v-493c0 -85 -51 -148 -120 -148c-51 0 -95 26 -95 66c0 22 14 37 36 37c23 0 36 -17 36 -36c0 -28 -25 -35 -32 -36c22 -14 49 -15 56 -15c59 0 68 78 68 128 v405c0 48 -8 55 -74 55v26z" id="6a15"/><path d="M360 259v-144c0 -44 0 -96 41 -96c13 0 40 8 40 69v57h18v-56c0 -79 -53 -93 -74 -93c-44 0 -72 40 -74 84c-22 -57 -73 -88 -128 -88c-53 0 -143 22 -143 99c0 38 18 88 81 123c56 30 127 38 186 40v44c0 84 -55 128 -105 128c-35 0 -89 -18 -110 -81c3 1 8 2 12 2 c17 0 36 -11 36 -36c0 -28 -23 -36 -36 -36c-6 0 -36 2 -36 39c0 66 57 128 136 128c34 0 77 -10 114 -43c42 -39 42 -74 42 -140zM307 139v100c-32 -2 -87 -6 -135 -33c-58 -32 -71 -85 -71 -115c0 -46 39 -83 89 -83c55 0 117 44 117 131z" id="6115"/><path d="M622 680l17 -221h-18c-13 166 -28 195 -181 195c-18 0 -47 0 -55 -1c-18 -4 -18 -16 -18 -38v-542c0 -36 3 -47 86 -47h28v-26c-48 1 -98 2 -147 2s-99 -1 -147 -2v26h28c83 0 86 11 86 47v542c0 23 0 35 -19 38c-8 1 -37 1 -55 1c-154 0 -168 -29 -181 -195h-18l17 221 h577z" id="5415"/><path d="M111 180c-19 -22 -19 -44 -19 -53c0 -35 21 -63 52 -68c5 -1 46 -1 69 -1c77 0 225 0 225 -136c0 -75 -99 -126 -209 -126c-114 0 -209 53 -209 125c0 50 41 90 93 103c-34 21 -44 59 -44 85c0 5 0 46 30 81c-10 10 -43 46 -43 103c0 83 68 145 147 145 c32 0 68 -10 98 -37c28 26 63 45 103 45c32 0 47 -20 47 -39c0 -13 -8 -23 -23 -23c-13 0 -22 9 -22 22c0 16 9 20 13 21c-5 3 -11 3 -15 3c-23 0 -64 -10 -92 -40c30 -31 38 -71 38 -97c0 -83 -68 -145 -147 -145c-40 0 -73 17 -92 32zM203 165c88 0 88 108 88 128 s0 128 -88 128s-88 -108 -88 -128s0 -128 88 -128zM229 -187c100 0 169 53 169 108c0 93 -114 93 -196 93c-68 0 -78 0 -103 -17c-22 -16 -39 -45 -39 -76c0 -55 69 -108 169 -108z" id="6715"/><path d="M155 616c0 -23 -19 -41 -41 -41c-23 0 -41 19 -41 41c0 23 19 41 41 41c23 0 41 -19 41 -41zM38 427l115 11v-370c0 -36 2 -42 61 -42v-26c-23 2 -64 2 -88 2c-25 0 -68 0 -92 -2v26c64 0 68 5 68 43v278c0 48 -8 54 -64 54v26z" id="6915"/><path d="M292 683l119 11v-614c0 -48 9 -54 68 -54v-26l-121 -8v73c-5 -7 -49 -73 -134 -73c-98 0 -191 92 -191 223c0 132 99 223 201 223c81 0 122 -64 126 -69v234c0 48 -9 54 -68 54v26zM358 120v198c0 18 0 21 -13 42c-23 36 -60 62 -106 62c-26 0 -142 -12 -142 -208 c0 -191 104 -206 133 -206c19 0 53 5 87 35c23 20 41 47 41 77z" id="6415"/><path d="M415 304v-235c0 -39 4 -43 68 -43v-26c-24 2 -69 2 -95 2s-70 0 -94 -2v26c64 0 68 5 68 43v239c0 48 -8 114 -82 114c-70 0 -126 -69 -126 -161v-192c0 -39 4 -43 68 -43v-26c-24 2 -69 2 -95 2s-70 0 -94 -2v26c64 0 68 5 68 43v278c0 48 -9 54 -68 54v26l118 11v-101 h1c15 40 56 101 135 101c118 0 128 -83 128 -134z" id="6e15"/><path d="M381 235h-290c0 -47 0 -106 31 -157c27 -44 70 -68 113 -68c52 0 107 34 129 102c4 12 5 14 12 14c2 0 8 0 8 -7c0 -21 -44 -127 -156 -127c-106 0 -201 96 -201 226c0 123 84 224 190 224c114 0 168 -89 168 -191c0 -10 0 -12 -4 -16zM92 250h239 c-1 112 -47 176 -115 176c-40 0 -117 -32 -124 -176z" id="6515"/><path d="M220 -169v-26c-24 2 -69 2 -95 2s-70 0 -94 -2v26c64 0 68 5 68 43v473c0 48 -9 54 -68 54v26l119 11v-73c28 40 77 73 137 73c103 0 190 -96 190 -222c0 -136 -101 -224 -201 -224c-53 0 -95 27 -124 69v-187c0 -39 4 -43 68 -43zM152 314v-198c0 -16 0 -22 13 -44 c30 -47 69 -64 105 -64c79 0 143 93 143 207s-60 205 -133 205c-50 0 -84 -30 -89 -34c-39 -37 -39 -58 -39 -72z" id="7015"/><path d="M431 214c0 -126 -93 -222 -202 -222s-202 96 -202 222c0 128 93 228 202 228s202 -100 202 -228zM229 10c38 0 81 19 109 65c27 48 29 108 29 147c0 31 0 97 -31 144c-24 35 -62 60 -107 60c-51 0 -90 -32 -110 -65c-26 -45 -28 -97 -28 -139c0 -44 3 -100 28 -145 c23 -39 63 -67 110 -67z" id="6f15"/></defs><g transform="scale(1.25)"><g transform="scale(0.02488,-0.02488)"><g transform="translate(3613.135,-3633.954)"><use xlink:href="#6515"/><use x="406" xlink:href="#7815"/><use x="890" xlink:href="#7015"/><use x="1400" xlink:href="#6115"/><use x="1858" xlink:href="#6e15"/><use x="2368" xlink:href="#6415"/><use x="2878" xlink:href="#4d15"/><use x="3728" xlink:href="#6115"/><use x="4186" xlink:href="#6715"/><use x="4644" xlink:href="#6e15"/><use x="5154" xlink:href="#6915"/><use x="5403" xlink:href="#7415"/><use x="5757" xlink:href="#7515"/><use x="6267" xlink:href="#6415"/><use x="6777" xlink:href="#6515"/><use x="7183" xlink:href="#5415"/><use x="7771.634" xlink:href="#6f15"/><use x="8229.634" xlink:href="#4315"/><use x="8896.634" xlink:href="#6f15"/><use x="9354.634" xlink:href="#6e15"/><use x="9864.634" xlink:href="#6a15"/><use x="10139.634" xlink:href="#7515"/><use x="10649.634" xlink:href="#6715"/><use x="11107.634" xlink:href="#6115"/><use x="11565.634" xlink:href="#7415"/><use x="11919.634" xlink:href="#6515"/></g></g></g></svg>