<?xml version="1.0" ?><!DOCTYPE svg  PUBLIC '-//W3C//DTD SVG 1.1//EN'  'http://www.w3.org/Graphics/SVG/1.1/DTD/svg11.dtd'><svg height="52.803" viewBox="100.708 78.777 167.531 52.803" width="167.531" xmlns="http://www.w3.org/2000/svg" xmlns:xlink="http://www.w3.org/1999/xlink"><defs><path d="M542 253l-24 -253h-467v26c69 0 80 0 80 45v541c0 45 -11 45 -80 45v26c29 -2 85 -2 116 -2c41 0 89 0 130 2v-26h-22c-76 0 -78 -10 -78 -46v-546c0 -34 2 -39 42 -39h93c171 0 184 128 192 227h18z" id="4c15"/><path d="M260 233l134 -174c24 -31 39 -33 89 -33v-26c-22 2 -54 2 -81 2c-25 0 -68 0 -92 -2v26c16 1 28 9 28 23c0 7 -12 22 -20 33l-87 113l-83 -102c-9 -12 -17 -23 -17 -41c0 -23 16 -25 22 -26v-26c-18 2 -62 2 -82 2c-18 0 -53 -1 -70 -2v26c27 1 74 5 119 59 c11 14 98 121 98 125c0 3 -5 9 -7 11l-115 149c-24 30 -36 34 -90 34v26c22 -2 54 -2 81 -2c25 0 68 0 92 2v-26c-17 -1 -27 -11 -27 -23c0 -5 0 -7 9 -18l88 -115l74 94c5 7 15 18 15 36c0 14 -8 24 -22 26v26c23 -2 54 -2 81 -2c18 0 53 1 70 2v-26 c-44 -1 -82 -17 -115 -55c-28 -33 -62 -77 -92 -116z" id="7815"/><path d="M360 259v-144c0 -44 0 -96 41 -96c13 0 40 8 40 69v57h18v-56c0 -79 -53 -93 -74 -93c-44 0 -72 40 -74 84c-22 -57 -73 -88 -128 -88c-53 0 -143 22 -143 99c0 38 18 88 81 123c56 30 127 38 186 40v44c0 84 -55 128 -105 128c-35 0 -89 -18 -110 -81c3 1 8 2 12 2 c17 0 36 -11 36 -36c0 -28 -23 -36 -36 -36c-6 0 -36 2 -36 39c0 66 57 128 136 128c34 0 77 -10 114 -43c42 -39 42 -74 42 -140zM307 139v100c-32 -2 -87 -6 -135 -33c-58 -32 -71 -85 -71 -115c0 -46 39 -83 89 -83c55 0 117 44 117 131z" id="6115"/><path d="M561 612v-541c0 -45 11 -45 80 -45v-26c-29 2 -82 2 -113 2s-84 0 -113 -2v26c69 0 80 0 80 45v271h-298v-271c0 -45 11 -45 80 -45v-26c-29 2 -82 2 -113 2s-84 0 -113 -2v26c69 0 80 0 80 45v541c0 45 -11 45 -80 45v26c29 -2 82 -2 113 -2s84 0 113 2v-26 c-69 0 -80 0 -80 -45v-244h298v244c0 45 -11 45 -80 45v26c29 -2 82 -2 113 -2s84 0 113 2v-26c-69 0 -80 0 -80 -45z" id="4815"/><path d="M292 683l119 11v-614c0 -48 9 -54 68 -54v-26l-121 -8v73c-5 -7 -49 -73 -134 -73c-98 0 -191 92 -191 223c0 132 99 223 201 223c81 0 122 -64 126 -69v234c0 48 -9 54 -68 54v26zM358 120v198c0 18 0 21 -13 42c-23 36 -60 62 -106 62c-26 0 -142 -12 -142 -208 c0 -191 104 -206 133 -206c19 0 53 5 87 35c23 20 41 47 41 77z" id="6415"/><path d="M438 679v-203c0 -17 0 -20 -9 -20c-7 0 -8 1 -11 19c-15 125 -81 200 -187 200c-85 0 -137 -71 -137 -136c0 -32 10 -64 38 -95c25 -27 48 -34 102 -48c56 -14 58 -14 65 -17c48 -12 93 -24 135 -88c11 -18 30 -58 30 -110c0 -106 -77 -197 -186 -197 c-48 0 -132 14 -182 80c-19 -38 -19 -40 -20 -43c-14 -31 -16 -36 -23 -36c-6 0 -7 1 -7 19v202c0 20 1 21 9 21c7 0 8 -1 9 -17c7 -140 107 -200 214 -200c87 0 138 77 138 149c0 56 -30 116 -87 140c-10 4 -60 17 -90 25c-80 21 -115 29 -152 75c-34 42 -41 86 -41 117 c0 102 82 183 184 183c63 0 121 -25 159 -80l30 66c4 9 6 13 12 13s7 -1 7 -19z" id="5315"/><path d="M415 304v-235c0 -39 4 -43 68 -43v-26c-24 2 -69 2 -95 2s-70 0 -94 -2v26c64 0 68 5 68 43v239c0 48 -8 114 -82 114c-70 0 -126 -69 -126 -161v-192c0 -39 4 -43 68 -43v-26c-24 2 -69 2 -95 2s-70 0 -94 -2v26c64 0 68 5 68 43v278c0 48 -9 54 -68 54v26l118 11v-101 h1c15 40 56 101 135 101c118 0 128 -83 128 -134z" id="6e15"/><path d="M381 235h-290c0 -47 0 -106 31 -157c27 -44 70 -68 113 -68c52 0 107 34 129 102c4 12 5 14 12 14c2 0 8 0 8 -7c0 -21 -44 -127 -156 -127c-106 0 -201 96 -201 226c0 123 84 224 190 224c114 0 168 -89 168 -191c0 -10 0 -12 -4 -16zM92 250h239 c-1 112 -47 176 -115 176c-40 0 -117 -32 -124 -176z" id="6515"/><path d="M220 -169v-26c-24 2 -69 2 -95 2s-70 0 -94 -2v26c64 0 68 5 68 43v473c0 48 -9 54 -68 54v26l119 11v-73c28 40 77 73 137 73c103 0 190 -96 190 -222c0 -136 -101 -224 -201 -224c-53 0 -95 27 -124 69v-187c0 -39 4 -43 68 -43zM152 314v-198c0 -16 0 -22 13 -44 c30 -47 69 -64 105 -64c79 0 143 93 143 207s-60 205 -133 205c-50 0 -84 -30 -89 -34c-39 -37 -39 -58 -39 -72z" id="7015"/></defs><g transform="scale(1.25)"><g transform="scale(0.02488,-0.02488)"><g transform="translate(3613.135,-3633.954)"><use xlink:href="#6515"/><use x="406" xlink:href="#7815"/><use x="890" xlink:href="#7015"/><use x="1400" xlink:href="#6115"/><use x="1858" xlink:href="#6e15"/><use x="2368" xlink:href="#6415"/><use x="2878" xlink:href="#4c15"/><use x="3453" xlink:href="#4815"/><use x="4146" xlink:href="#5315"/></g></g></g></svg>