<?xml version="1.0" ?><!DOCTYPE svg  PUBLIC '-//W3C//DTD SVG 1.1//EN'  'http://www.w3.org/Graphics/SVG/1.1/DTD/svg11.dtd'><svg height="47.237" viewBox="101.33 78.427 217.261 47.237" width="217.261" xmlns="http://www.w3.org/2000/svg" xmlns:xlink="http://www.w3.org/1999/xlink"><defs><path d="M391 340l-133 -331c-6 -15 -7 -17 -16 -17s-10 2 -16 17l-145 364c-12 31 -33 31 -71 31v26c22 -2 53 -2 80 -2c25 0 69 0 93 2v-26c-15 0 -48 0 -48 -24c0 -4 0 -6 6 -19l119 -300l110 278c6 14 6 16 6 25c0 26 -14 38 -39 40v26c20 -2 53 -2 74 -2c19 0 44 1 63 2v-26 c-58 -2 -74 -42 -83 -64z" id="7615"/><path d="M676 304v-235c0 -39 4 -43 68 -43v-26c-24 2 -69 2 -95 2s-70 0 -94 -2v26c64 0 68 5 68 43v239c0 48 -8 114 -82 114c-70 0 -126 -69 -126 -161v-192c0 -39 4 -43 68 -43v-26c-24 2 -69 2 -95 2s-70 0 -94 -2v26c64 0 68 5 68 43v239c0 48 -8 114 -82 114 c-70 0 -126 -69 -126 -161v-192c0 -39 4 -43 68 -43v-26c-24 2 -69 2 -95 2s-70 0 -94 -2v26c64 0 68 5 68 43v278c0 48 -9 54 -68 54v26l118 11v-101h1c15 40 56 101 135 101c56 0 115 -18 127 -100h1c18 54 65 100 133 100c119 0 128 -84 128 -134z" id="6d15"/><path d="M151 404v-283c0 -91 40 -111 69 -111c42 0 69 46 69 115v56h18v-57c0 -74 -34 -132 -93 -132c-116 0 -116 112 -116 131v281h-87v16c85 2 120 92 122 195h18v-185h140v-26h-140z" id="7415"/><path d="M431 214c0 -126 -93 -222 -202 -222s-202 96 -202 222c0 128 93 228 202 228s202 -100 202 -228zM229 10c38 0 81 19 109 65c27 48 29 108 29 147c0 31 0 97 -31 144c-24 35 -62 60 -107 60c-51 0 -90 -32 -110 -65c-26 -45 -28 -97 -28 -139c0 -44 3 -100 28 -145 c23 -39 63 -67 110 -67z" id="6f15"/><path d="M622 680l17 -221h-18c-13 166 -28 195 -181 195c-18 0 -47 0 -55 -1c-18 -4 -18 -16 -18 -38v-542c0 -36 3 -47 86 -47h28v-26c-48 1 -98 2 -147 2s-99 -1 -147 -2v26h28c83 0 86 11 86 47v542c0 23 0 35 -19 38c-8 1 -37 1 -55 1c-154 0 -168 -29 -181 -195h-18l17 221 h577z" id="5415"/><path d="M544 681l24 -221h-18c-14 133 -31 195 -182 195h-129c-40 0 -42 -5 -42 -39v-262h90c93 0 102 33 102 117h18v-260h-18c0 84 -9 117 -102 117h-90v-256c0 -36 2 -46 78 -46h22v-26c-41 2 -89 2 -130 2c-31 0 -87 0 -116 -2v26c69 0 80 0 80 45v539c0 45 -11 45 -80 45v26 h493z" id="4615"/><path d="M150 236v-165c0 -45 12 -45 84 -45v-26c-27 2 -78 2 -107 2c-26 0 -72 0 -96 -2v26c64 0 68 5 68 43v278c0 48 -9 54 -68 54v26l116 11v-109h1c10 35 43 109 119 109c34 0 66 -20 66 -52c0 -28 -22 -35 -34 -35c-15 0 -34 10 -34 34c0 26 22 33 22 33c-7 3 -14 4 -21 4 c-75 0 -116 -90 -116 -186z" id="7215"/><path d="M197 612v-541c0 -45 12 -45 84 -45v-26c-32 2 -83 2 -117 2s-85 0 -117 -2v26c72 0 84 0 84 45v541c0 45 -12 45 -84 45v26c32 -2 83 -2 117 -2s85 0 117 2v-26c-72 0 -84 0 -84 -45z" id="4915"/><path d="M415 304v-235c0 -39 4 -43 68 -43v-26c-24 2 -69 2 -95 2s-70 0 -94 -2v26c64 0 68 5 68 43v239c0 48 -8 114 -82 114c-70 0 -126 -69 -126 -161v-192c0 -39 4 -43 68 -43v-26c-24 2 -69 2 -95 2s-70 0 -94 -2v26c64 0 68 5 68 43v278c0 48 -9 54 -68 54v26l118 11v-101 h1c15 40 56 101 135 101c118 0 128 -83 128 -134z" id="6e15"/><path d="M381 235h-290c0 -47 0 -106 31 -157c27 -44 70 -68 113 -68c52 0 107 34 129 102c4 12 5 14 12 14c2 0 8 0 8 -7c0 -21 -44 -127 -156 -127c-106 0 -201 96 -201 226c0 123 84 224 190 224c114 0 168 -89 168 -191c0 -10 0 -12 -4 -16zM92 250h239 c-1 112 -47 176 -115 176c-40 0 -117 -32 -124 -176z" id="6515"/><path d="M673 340c0 -200 -143 -356 -314 -356c-167 0 -313 153 -313 356s144 359 314 359c166 0 313 -154 313 -359zM360 2c110 0 237 110 237 351c0 233 -132 328 -238 328c-101 0 -237 -92 -237 -328c0 -237 124 -351 238 -351z" id="4f15"/></defs><g transform="scale(1.25)"><g transform="scale(0.02488,-0.02488)"><g transform="translate(3613.135,-3622.701)"><use xlink:href="#4915"/><use x="327" xlink:href="#6e15"/><use x="810.877" xlink:href="#7415"/><use x="1164.877" xlink:href="#4f15"/><use x="1883.877" xlink:href="#7615"/><use x="2341.755" xlink:href="#6515"/><use x="2747.755" xlink:href="#7215"/><use x="3101.755" xlink:href="#4615"/><use x="3625.389" xlink:href="#7215"/><use x="3979.389" xlink:href="#6f15"/><use x="4437.389" xlink:href="#6d15"/><use x="5209.389" xlink:href="#5415"/><use x="5798.023" xlink:href="#6f15"/></g></g></g></svg>