<?xml version="1.0" ?><!DOCTYPE svg  PUBLIC '-//W3C//DTD SVG 1.1//EN'  'http://www.w3.org/Graphics/SVG/1.1/DTD/svg11.dtd'><svg height="47.33" viewBox="100.646 78.684 330.278 47.33" width="330.278" xmlns="http://www.w3.org/2000/svg" xmlns:xlink="http://www.w3.org/1999/xlink"><defs><path d="M676 304v-235c0 -39 4 -43 68 -43v-26c-24 2 -69 2 -95 2s-70 0 -94 -2v26c64 0 68 5 68 43v239c0 48 -8 114 -82 114c-70 0 -126 -69 -126 -161v-192c0 -39 4 -43 68 -43v-26c-24 2 -69 2 -95 2s-70 0 -94 -2v26c64 0 68 5 68 43v239c0 48 -8 114 -82 114 c-70 0 -126 -69 -126 -161v-192c0 -39 4 -43 68 -43v-26c-24 2 -69 2 -95 2s-70 0 -94 -2v26c64 0 68 5 68 43v278c0 48 -9 54 -68 54v26l118 11v-101h1c15 40 56 101 135 101c56 0 115 -18 127 -100h1c18 54 65 100 133 100c119 0 128 -84 128 -134z" id="6d15"/><path d="M365 379l220 -320c20 -28 30 -33 94 -33v-26c-24 2 -74 2 -100 2c-33 0 -82 0 -114 -2v26c35 2 44 19 44 27c0 3 0 6 -8 17l-174 254l-160 -232c-5 -7 -10 -14 -10 -27c0 -16 9 -36 40 -39v-26c-25 2 -72 2 -99 2c-24 0 -62 0 -85 -2v26c19 0 84 1 127 63l174 253 l-193 282c-22 31 -40 33 -95 33v26c24 -2 74 -2 100 -2c33 0 82 0 114 2v-26c-33 -1 -44 -18 -44 -27c0 -3 1 -6 8 -17l148 -216l132 191c7 10 12 18 12 30c0 16 -8 36 -40 39v26c25 -2 66 -2 99 -2c24 0 62 0 85 2v-26c-82 -1 -112 -44 -127 -65z" id="5815"/><path d="M52 683h318c129 0 211 -85 211 -168c0 -76 -67 -140 -163 -159c107 -7 189 -84 189 -174c0 -91 -83 -182 -211 -182h-344v26c69 0 80 0 80 45v541c0 45 -11 45 -80 45v26zM195 363h144c108 0 169 76 169 152c0 62 -44 142 -143 142h-128c-40 0 -42 -5 -42 -39v-255z M237 26h130c109 0 166 84 166 157s-50 164 -153 164h-185v-282c0 -34 2 -39 42 -39z" id="4215"/><path d="M150 694v-328c30 39 74 72 136 72c101 0 191 -94 191 -222c0 -136 -101 -224 -201 -224c-58 0 -101 32 -130 79l-29 -71h-18v603c0 48 -9 54 -68 54v26zM152 315v-198c0 -18 0 -20 11 -39c32 -58 77 -70 108 -70c24 0 142 11 142 209c0 189 -103 205 -133 205 c-19 0 -75 -5 -114 -65c-14 -21 -14 -24 -14 -42z" id="6215"/><path d="M151 404v-283c0 -91 40 -111 69 -111c42 0 69 46 69 115v56h18v-57c0 -74 -34 -132 -93 -132c-116 0 -116 112 -116 131v281h-87v16c85 2 120 92 122 195h18v-185h140v-26h-140z" id="7415"/><path d="M349 350c-22 55 -80 74 -119 74c-59 0 -133 -55 -133 -207c0 -148 77 -207 141 -207c43 0 100 20 126 101c4 13 5 14 12 14s8 -3 8 -7c0 -11 -31 -126 -155 -126c-102 0 -196 91 -196 224c0 128 90 226 196 226c77 0 145 -54 145 -125c0 -35 -29 -38 -36 -38 c-13 0 -36 8 -36 36c0 35 28 35 47 35z" id="6315"/><path d="M294 427l121 11v-358c0 -48 9 -54 68 -54v-26l-119 -8v93h-1c-8 -21 -41 -93 -126 -93c-72 0 -97 26 -110 39c-26 28 -26 71 -26 138v192c-1 40 -28 40 -68 40v26l121 11v-329c0 -52 7 -101 89 -101c74 0 119 73 119 157v182c0 48 -9 54 -68 54v26z" id="7515"/><path d="M155 616c0 -23 -19 -41 -41 -41c-23 0 -41 19 -41 41c0 23 19 41 41 41c23 0 41 -19 41 -41zM38 427l115 11v-370c0 -36 2 -42 61 -42v-26c-23 2 -64 2 -88 2c-25 0 -68 0 -92 -2v26c64 0 68 5 68 43v278c0 48 -8 54 -64 54v26z" id="6915"/><path d="M360 259v-144c0 -44 0 -96 41 -96c13 0 40 8 40 69v57h18v-56c0 -79 -53 -93 -74 -93c-44 0 -72 40 -74 84c-22 -57 -73 -88 -128 -88c-53 0 -143 22 -143 99c0 38 18 88 81 123c56 30 127 38 186 40v44c0 84 -55 128 -105 128c-35 0 -89 -18 -110 -81c3 1 8 2 12 2 c17 0 36 -11 36 -36c0 -28 -23 -36 -36 -36c-6 0 -36 2 -36 39c0 66 57 128 136 128c34 0 77 -10 114 -43c42 -39 42 -74 42 -140zM307 139v100c-32 -2 -87 -6 -135 -33c-58 -32 -71 -85 -71 -115c0 -46 39 -83 89 -83c55 0 117 44 117 131z" id="6115"/><path d="M153 404v-333c0 -45 12 -45 84 -45v-26c-27 2 -78 2 -107 2c-26 0 -72 0 -96 -2v26c64 0 68 5 68 43v335h-80v26h80v119c0 106 78 153 135 153c40 0 76 -23 76 -61c0 -26 -20 -34 -34 -34s-34 8 -34 34c0 25 21 32 29 34c-10 7 -25 11 -38 11c-43 0 -85 -52 -85 -135 v-121h116v-26h-114z" id="6615"/><path d="M415 304v-235c0 -39 4 -43 68 -43v-26c-24 2 -69 2 -95 2s-70 0 -94 -2v26c64 0 68 5 68 43v239c0 48 -8 114 -82 114c-70 0 -126 -69 -126 -161v-192c0 -39 4 -43 68 -43v-26c-24 2 -69 2 -95 2s-70 0 -94 -2v26c64 0 68 5 68 43v534c0 48 -9 54 -68 54v26l119 11v-355 h1c12 33 52 99 134 99c118 0 128 -83 128 -134z" id="6815"/><path d="M150 236v-165c0 -45 12 -45 84 -45v-26c-27 2 -78 2 -107 2c-26 0 -72 0 -96 -2v26c64 0 68 5 68 43v278c0 48 -9 54 -68 54v26l116 11v-109h1c10 35 43 109 119 109c34 0 66 -20 66 -52c0 -28 -22 -35 -34 -35c-15 0 -34 10 -34 34c0 26 22 33 22 33c-7 3 -14 4 -21 4 c-75 0 -116 -90 -116 -186z" id="7215"/><path d="M438 679v-203c0 -17 0 -20 -9 -20c-7 0 -8 1 -11 19c-15 125 -81 200 -187 200c-85 0 -137 -71 -137 -136c0 -32 10 -64 38 -95c25 -27 48 -34 102 -48c56 -14 58 -14 65 -17c48 -12 93 -24 135 -88c11 -18 30 -58 30 -110c0 -106 -77 -197 -186 -197 c-48 0 -132 14 -182 80c-19 -38 -19 -40 -20 -43c-14 -31 -16 -36 -23 -36c-6 0 -7 1 -7 19v202c0 20 1 21 9 21c7 0 8 -1 9 -17c7 -140 107 -200 214 -200c87 0 138 77 138 149c0 56 -30 116 -87 140c-10 4 -60 17 -90 25c-80 21 -115 29 -152 75c-34 42 -41 86 -41 117 c0 102 82 183 184 183c63 0 121 -25 159 -80l30 66c4 9 6 13 12 13s7 -1 7 -19z" id="5315"/><path d="M292 683l119 11v-614c0 -48 9 -54 68 -54v-26l-121 -8v73c-5 -7 -49 -73 -134 -73c-98 0 -191 92 -191 223c0 132 99 223 201 223c81 0 122 -64 126 -69v234c0 48 -9 54 -68 54v26zM358 120v198c0 18 0 21 -13 42c-23 36 -60 62 -106 62c-26 0 -142 -12 -142 -208 c0 -191 104 -206 133 -206c19 0 53 5 87 35c23 20 41 47 41 77z" id="6415"/><path d="M309 422v-112c0 -17 0 -20 -9 -20c-3 0 -8 1 -9 6c-2 32 -8 132 -115 132c-101 0 -115 -55 -115 -81c0 -61 70 -75 125 -87c42 -8 77 -15 107 -46c13 -12 40 -39 40 -90c0 -78 -53 -132 -152 -132c-56 0 -91 26 -111 53c-6 -10 -21 -34 -27 -43c-5 -8 -6 -9 -11 -9 c-6 0 -7 1 -7 19v144c0 20 1 21 9 21s8 -1 11 -15c18 -88 49 -154 136 -154c92 0 116 54 116 96c0 36 -22 58 -35 70c-21 18 -43 22 -106 35c-29 6 -131 27 -131 117c0 58 40 116 151 116c17 0 62 -1 94 -35c3 4 12 14 15 18c12 15 13 16 17 16c6 0 7 -1 7 -19z" id="7315"/><path d="M381 235h-290c0 -47 0 -106 31 -157c27 -44 70 -68 113 -68c52 0 107 34 129 102c4 12 5 14 12 14c2 0 8 0 8 -7c0 -21 -44 -127 -156 -127c-106 0 -201 96 -201 226c0 123 84 224 190 224c114 0 168 -89 168 -191c0 -10 0 -12 -4 -16zM92 250h239 c-1 112 -47 176 -115 176c-40 0 -117 -32 -124 -176z" id="6515"/><path d="M431 214c0 -126 -93 -222 -202 -222s-202 96 -202 222c0 128 93 228 202 228s202 -100 202 -228zM229 10c38 0 81 19 109 65c27 48 29 108 29 147c0 31 0 97 -31 144c-24 35 -62 60 -107 60c-51 0 -90 -32 -110 -65c-26 -45 -28 -97 -28 -139c0 -44 3 -100 28 -145 c23 -39 63 -67 110 -67z" id="6f15"/></defs><g transform="scale(1.25)"><g transform="scale(0.02488,-0.02488)"><g transform="translate(3613.135,-3633.954)"><use xlink:href="#7315"/><use x="359" xlink:href="#7515"/><use x="869" xlink:href="#6215"/><use x="1379" xlink:href="#7415"/><use x="1733" xlink:href="#7215"/><use x="2087" xlink:href="#6115"/><use x="2545" xlink:href="#6315"/><use x="2951" xlink:href="#7415"/><use x="3305" xlink:href="#5815"/><use x="3998" xlink:href="#6615"/><use x="4273" xlink:href="#7215"/><use x="4627" xlink:href="#6f15"/><use x="5085" xlink:href="#6d15"/><use x="5857" xlink:href="#4215"/><use x="6511" xlink:href="#6f15"/><use x="6969" xlink:href="#7415"/><use x="7323" xlink:href="#6815"/><use x="7833" xlink:href="#5315"/><use x="8343" xlink:href="#6915"/><use x="8592" xlink:href="#6415"/><use x="9102" xlink:href="#6515"/><use x="9508" xlink:href="#7315"/></g></g></g></svg>