<?xml version="1.0" ?><!DOCTYPE svg  PUBLIC '-//W3C//DTD SVG 1.1//EN'  'http://www.w3.org/Graphics/SVG/1.1/DTD/svg11.dtd'><svg height="52.803" viewBox="100.646 78.777 253.208 52.803" width="253.208" xmlns="http://www.w3.org/2000/svg" xmlns:xlink="http://www.w3.org/1999/xlink"><defs><path d="M542 253l-24 -253h-467v26c69 0 80 0 80 45v541c0 45 -11 45 -80 45v26c29 -2 85 -2 116 -2c41 0 89 0 130 2v-26h-22c-76 0 -78 -10 -78 -46v-546c0 -34 2 -39 42 -39h93c171 0 184 128 192 227h18z" id="4c15"/><path d="M582 342l-114 -334c-4 -13 -7 -16 -15 -16c-7 0 -11 2 -16 17l-104 302l-103 -302c-5 -15 -9 -17 -16 -17c-8 0 -11 3 -15 16l-123 360c-11 33 -22 36 -66 36v26c21 -2 55 -2 77 -2c25 0 67 0 91 2v-26c-16 0 -50 0 -50 -26c0 -3 0 -5 5 -18l99 -289l92 268 c-21 63 -21 65 -76 65v26c23 -2 49 -2 74 -2c24 0 66 0 89 2v-26c-16 0 -50 0 -50 -26c0 -4 3 -12 5 -19l102 -295l94 272c2 7 4 16 4 23c0 25 -17 43 -48 45v26c17 -2 60 -2 79 -2c20 0 40 1 60 2v-26c-15 -1 -55 -3 -75 -62z" id="7715"/><path d="M151 404v-283c0 -91 40 -111 69 -111c42 0 69 46 69 115v56h18v-57c0 -74 -34 -132 -93 -132c-116 0 -116 112 -116 131v281h-87v16c85 2 120 92 122 195h18v-185h140v-26h-140z" id="7415"/><path d="M155 616c0 -23 -19 -41 -41 -41c-23 0 -41 19 -41 41c0 23 19 41 41 41c23 0 41 -19 41 -41zM38 427l115 11v-370c0 -36 2 -42 61 -42v-26c-23 2 -64 2 -88 2c-25 0 -68 0 -92 -2v26c64 0 68 5 68 43v278c0 48 -8 54 -64 54v26z" id="6915"/><path d="M360 259v-144c0 -44 0 -96 41 -96c13 0 40 8 40 69v57h18v-56c0 -79 -53 -93 -74 -93c-44 0 -72 40 -74 84c-22 -57 -73 -88 -128 -88c-53 0 -143 22 -143 99c0 38 18 88 81 123c56 30 127 38 186 40v44c0 84 -55 128 -105 128c-35 0 -89 -18 -110 -81c3 1 8 2 12 2 c17 0 36 -11 36 -36c0 -28 -23 -36 -36 -36c-6 0 -36 2 -36 39c0 66 57 128 136 128c34 0 77 -10 114 -43c42 -39 42 -74 42 -140zM307 139v100c-32 -2 -87 -6 -135 -33c-58 -32 -71 -85 -71 -115c0 -46 39 -83 89 -83c55 0 117 44 117 131z" id="6115"/><path d="M415 304v-235c0 -39 4 -43 68 -43v-26c-24 2 -69 2 -95 2s-70 0 -94 -2v26c64 0 68 5 68 43v239c0 48 -8 114 -82 114c-70 0 -126 -69 -126 -161v-192c0 -39 4 -43 68 -43v-26c-24 2 -69 2 -95 2s-70 0 -94 -2v26c64 0 68 5 68 43v534c0 48 -9 54 -68 54v26l119 11v-355 h1c12 33 52 99 134 99c118 0 128 -83 128 -134z" id="6815"/><path d="M561 612v-541c0 -45 11 -45 80 -45v-26c-29 2 -82 2 -113 2s-84 0 -113 -2v26c69 0 80 0 80 45v271h-298v-271c0 -45 11 -45 80 -45v-26c-29 2 -82 2 -113 2s-84 0 -113 -2v26c69 0 80 0 80 45v541c0 45 -11 45 -80 45v26c29 -2 82 -2 113 -2s84 0 113 2v-26 c-69 0 -80 0 -80 -45v-244h298v244c0 45 -11 45 -80 45v26c29 -2 82 -2 113 -2s84 0 113 2v-26c-69 0 -80 0 -80 -45z" id="4815"/><path d="M392 341c119 -36 127 -109 133 -159c2 -22 4 -37 7 -58c6 -61 12 -124 67 -124c31 0 60 22 65 87c0 4 1 10 9 10c9 0 9 -7 9 -13c0 -17 -11 -100 -85 -100c-22 0 -73 4 -111 45c-30 34 -30 68 -30 135c0 68 0 95 -40 134c-14 13 -46 36 -103 36h-117v-263 c0 -45 11 -45 80 -45v-26c-29 2 -81 2 -112 2s-83 0 -112 -2v26c69 0 80 0 80 45v541c0 45 -11 45 -80 45v26h269c140 0 246 -85 246 -179c0 -80 -80 -144 -175 -163zM310 350c75 0 181 25 181 154c0 124 -97 153 -180 153h-73c-40 0 -42 -5 -42 -39v-268h114z" id="5215"/><path d="M438 679v-203c0 -17 0 -20 -9 -20c-7 0 -8 1 -11 19c-15 125 -81 200 -187 200c-85 0 -137 -71 -137 -136c0 -32 10 -64 38 -95c25 -27 48 -34 102 -48c56 -14 58 -14 65 -17c48 -12 93 -24 135 -88c11 -18 30 -58 30 -110c0 -106 -77 -197 -186 -197 c-48 0 -132 14 -182 80c-19 -38 -19 -40 -20 -43c-14 -31 -16 -36 -23 -36c-6 0 -7 1 -7 19v202c0 20 1 21 9 21c7 0 8 -1 9 -17c7 -140 107 -200 214 -200c87 0 138 77 138 149c0 56 -30 116 -87 140c-10 4 -60 17 -90 25c-80 21 -115 29 -152 75c-34 42 -41 86 -41 117 c0 102 82 183 184 183c63 0 121 -25 159 -80l30 66c4 9 6 13 12 13s7 -1 7 -19z" id="5315"/><path d="M309 422v-112c0 -17 0 -20 -9 -20c-3 0 -8 1 -9 6c-2 32 -8 132 -115 132c-101 0 -115 -55 -115 -81c0 -61 70 -75 125 -87c42 -8 77 -15 107 -46c13 -12 40 -39 40 -90c0 -78 -53 -132 -152 -132c-56 0 -91 26 -111 53c-6 -10 -21 -34 -27 -43c-5 -8 -6 -9 -11 -9 c-6 0 -7 1 -7 19v144c0 20 1 21 9 21s8 -1 11 -15c18 -88 49 -154 136 -154c92 0 116 54 116 96c0 36 -22 58 -35 70c-21 18 -43 22 -106 35c-29 6 -131 27 -131 117c0 58 40 116 151 116c17 0 62 -1 94 -35c3 4 12 14 15 18c12 15 13 16 17 16c6 0 7 -1 7 -19z" id="7315"/><path d="M220 -169v-26c-24 2 -69 2 -95 2s-70 0 -94 -2v26c64 0 68 5 68 43v473c0 48 -9 54 -68 54v26l119 11v-73c28 40 77 73 137 73c103 0 190 -96 190 -222c0 -136 -101 -224 -201 -224c-53 0 -95 27 -124 69v-187c0 -39 4 -43 68 -43zM152 314v-198c0 -16 0 -22 13 -44 c30 -47 69 -64 105 -64c79 0 143 93 143 207s-60 205 -133 205c-50 0 -84 -30 -89 -34c-39 -37 -39 -58 -39 -72z" id="7015"/></defs><g transform="scale(1.25)"><g transform="scale(0.02488,-0.02488)"><g transform="translate(3613.135,-3633.954)"><use xlink:href="#7315"/><use x="359" xlink:href="#7715"/><use x="999.877" xlink:href="#6115"/><use x="1457.877" xlink:href="#7015"/><use x="1967.877" xlink:href="#4c15"/><use x="2542.877" xlink:href="#4815"/><use x="3235.877" xlink:href="#5315"/><use x="3745.877" xlink:href="#7715"/><use x="4412.877" xlink:href="#6915"/><use x="4661.877" xlink:href="#7415"/><use x="5015.877" xlink:href="#6815"/><use x="5525.877" xlink:href="#5215"/><use x="6205.877" xlink:href="#4815"/><use x="6898.877" xlink:href="#5315"/></g></g></g></svg>