<?xml version="1.0" ?><!DOCTYPE svg  PUBLIC '-//W3C//DTD SVG 1.1//EN'  'http://www.w3.org/Graphics/SVG/1.1/DTD/svg11.dtd'><svg height="45.868" viewBox="356.383 110.862 55.167 45.868" width="55.167" xmlns="http://www.w3.org/2000/svg" xmlns:xlink="http://www.w3.org/1999/xlink"><defs><path d="M259 377l-58 -226c-10 -40 -10 -42 -26 -93c-12 -42 -20 -68 -49 -68c-9 0 -27 5 -27 26c0 6 0 8 8 24c82 175 107 262 129 337h-57c-25 0 -77 0 -129 -82c-5 -6 -6 -9 -13 -9c-6 0 -11 2 -11 8s32 59 58 88c46 49 80 49 103 49h329c18 0 37 0 37 -22 c0 -32 -33 -32 -46 -32h-112c-21 -90 -21 -161 -21 -167c0 -7 0 -93 27 -162c7 -15 7 -17 7 -22c0 -17 -18 -36 -39 -36c-41 0 -41 108 -41 122c0 80 17 153 44 265h-113z" id="1918"/><path d="M417 155l-24 -155h-352v23l199 225c57 65 108 140 108 227c0 91 -57 160 -144 160c-61 0 -119 -42 -138 -127c4 2 10 3 16 3c14 0 40 -9 40 -40c0 -35 -30 -41 -40 -41c-12 0 -41 5 -41 44c0 90 67 187 177 187c105 0 199 -68 199 -186c0 -99 -71 -167 -132 -225 c-85 -82 -155 -153 -191 -192h192c14 0 86 0 91 8c4 6 12 18 22 89h18z" id="3215"/></defs><g transform="scale(1.25)"><g transform="scale(0.02488,-0.02488)"><g transform="translate(11820.188,-4627.612)"><use xlink:href="#3215"/></g></g><g transform="scale(0.02488,-0.02488)"><g transform="translate(12278.188,-4627.612)"><use xlink:href="#1918"/></g></g></g></svg>