<?xml version="1.0" ?><!DOCTYPE svg  PUBLIC '-//W3C//DTD SVG 1.1//EN'  'http://www.w3.org/Graphics/SVG/1.1/DTD/svg11.dtd'><svg height="99.64" viewBox="91.001 111.413 585.832 99.64" width="585.832" xmlns="http://www.w3.org/2000/svg" xmlns:xlink="http://www.w3.org/1999/xlink"><defs><path d="M416 -859c0 -161 -22 -323 -66 -460c-69 -211 -176 -350 -271 -432c-9 -8 -11 -8 -24 -8c-10 0 -19 0 -19 10c0 3 2 6 4 8c180 183 300 448 300 882c0 240 -40 487 -148 679c-62 110 -116 165 -150 200c-2 2 -6 6 -6 10c0 10 9 10 19 10c13 0 15 0 22 -6 c24 -21 61 -60 75 -76c197 -225 264 -530 264 -817z" id="1124"/><path d="M206 293l-33 -132l-22 -90c-5 -20 -14 -55 -16 -60c-8 -15 -22 -21 -34 -21c-15 0 -26 11 -26 25c0 5 11 52 18 78c5 18 16 63 20 82l28 108c7 31 17 70 17 92c0 30 -8 46 -31 46c-40 0 -58 -57 -74 -118c-6 -23 -7 -24 -15 -24c-7 0 -11 5 -11 9s14 64 32 100 c17 34 39 53 71 53c44 0 85 -31 88 -88c18 25 65 88 154 88c76 0 111 -45 111 -105c0 -57 -42 -169 -62 -224c-6 -14 -17 -44 -17 -69c0 -32 16 -33 26 -33c39 0 77 40 100 122c5 17 6 20 15 20c6 0 10 -4 10 -9c0 -6 -35 -153 -128 -153c-48 0 -79 36 -79 81 c0 18 5 31 14 55c20 54 61 168 61 225c0 40 -14 70 -54 70c-39 0 -73 -16 -99 -40c-37 -32 -62 -82 -64 -88z" id="6e18"/><path d="M417 155l-24 -155h-352v23l199 225c57 65 108 140 108 227c0 91 -57 160 -144 160c-61 0 -119 -42 -138 -127c4 2 10 3 16 3c14 0 40 -9 40 -40c0 -35 -30 -41 -40 -41c-12 0 -41 5 -41 44c0 90 67 187 177 187c105 0 199 -68 199 -186c0 -99 -71 -167 -132 -225 c-85 -82 -155 -153 -191 -192h192c14 0 86 0 91 8c4 6 12 18 22 89h18z" id="3215"/><path d="M155 616c0 -23 -19 -41 -41 -41c-23 0 -41 19 -41 41c0 23 19 41 41 41c23 0 41 -19 41 -41zM38 427l115 11v-370c0 -36 2 -42 61 -42v-26c-23 2 -64 2 -88 2c-25 0 -68 0 -92 -2v26c64 0 68 5 68 43v278c0 48 -8 54 -64 54v26z" id="6915"/><path d="M582 342l-114 -334c-4 -13 -7 -16 -15 -16c-7 0 -11 2 -16 17l-104 302l-103 -302c-5 -15 -9 -17 -16 -17c-8 0 -11 3 -15 16l-123 360c-11 33 -22 36 -66 36v26c21 -2 55 -2 77 -2c25 0 67 0 91 2v-26c-16 0 -50 0 -50 -26c0 -3 0 -5 5 -18l99 -289l92 268 c-21 63 -21 65 -76 65v26c23 -2 49 -2 74 -2c24 0 66 0 89 2v-26c-16 0 -50 0 -50 -26c0 -4 3 -12 5 -19l102 -295l94 272c2 7 4 16 4 23c0 25 -17 43 -48 45v26c17 -2 60 -2 79 -2c20 0 40 1 60 2v-26c-15 -1 -55 -3 -75 -62z" id="7715"/><path d="M151 404v-283c0 -91 40 -111 69 -111c42 0 69 46 69 115v56h18v-57c0 -74 -34 -132 -93 -132c-116 0 -116 112 -116 131v281h-87v16c85 2 120 92 122 195h18v-185h140v-26h-140z" id="7415"/><path d="M643 321h-567c-15 0 -30 0 -30 17c0 18 17 18 34 18h559c17 0 34 0 34 -18c0 -17 -15 -17 -30 -17zM639 143h-559c-17 0 -34 0 -34 18c0 17 15 17 30 17h567c15 0 30 0 30 -17c0 -18 -17 -18 -34 -18z" id="3d15"/><path d="M415 304v-235c0 -39 4 -43 68 -43v-26c-24 2 -69 2 -95 2s-70 0 -94 -2v26c64 0 68 5 68 43v239c0 48 -8 114 -82 114c-70 0 -126 -69 -126 -161v-192c0 -39 4 -43 68 -43v-26c-24 2 -69 2 -95 2s-70 0 -94 -2v26c64 0 68 5 68 43v534c0 48 -9 54 -68 54v26l119 11v-355 h1c12 33 52 99 134 99c118 0 128 -83 128 -134z" id="6815"/><path d="M197 612v-541c0 -45 12 -45 84 -45v-26c-32 2 -83 2 -117 2s-85 0 -117 -2v26c72 0 84 0 84 45v541c0 45 -12 45 -84 45v26c32 -2 83 -2 117 -2s85 0 117 2v-26c-72 0 -84 0 -84 -45z" id="4915"/><path d="M309 422v-112c0 -17 0 -20 -9 -20c-3 0 -8 1 -9 6c-2 32 -8 132 -115 132c-101 0 -115 -55 -115 -81c0 -61 70 -75 125 -87c42 -8 77 -15 107 -46c13 -12 40 -39 40 -90c0 -78 -53 -132 -152 -132c-56 0 -91 26 -111 53c-6 -10 -21 -34 -27 -43c-5 -8 -6 -9 -11 -9 c-6 0 -7 1 -7 19v144c0 20 1 21 9 21s8 -1 11 -15c18 -88 49 -154 136 -154c92 0 116 54 116 96c0 36 -22 58 -35 70c-21 18 -43 22 -106 35c-29 6 -131 27 -131 117c0 58 40 116 151 116c17 0 62 -1 94 -35c3 4 12 14 15 18c12 15 13 16 17 16c6 0 7 -1 7 -19z" id="7315"/><path d="M381 235h-290c0 -47 0 -106 31 -157c27 -44 70 -68 113 -68c52 0 107 34 129 102c4 12 5 14 12 14c2 0 8 0 8 -7c0 -21 -44 -127 -156 -127c-106 0 -201 96 -201 226c0 123 84 224 190 224c114 0 168 -89 168 -191c0 -10 0 -12 -4 -16zM92 250h239 c-1 112 -47 176 -115 176c-40 0 -117 -32 -124 -176z" id="6515"/><path d="M466 -2162l512 2175c3 14 6 27 22 27c12 0 20 -9 20 -20c0 -5 -2 -14 -4 -21l-550 -2333c-6 -26 -9 -26 -42 -26l-231 1073l-68 -107c-1 1 -14 12 -14 16c0 1 0 3 7 12l131 206l216 -1002h1z" id="7224"/><path d="M661 230h-545c-14 0 -33 0 -33 20s19 20 33 20h545c14 0 33 0 33 -20s-19 -20 -33 -20z" id="0021"/><path d="M150 236v-165c0 -45 12 -45 84 -45v-26c-27 2 -78 2 -107 2c-26 0 -72 0 -96 -2v26c64 0 68 5 68 43v278c0 48 -9 54 -68 54v26l116 11v-109h1c10 35 43 109 119 109c34 0 66 -20 66 -52c0 -28 -22 -35 -34 -35c-15 0 -34 10 -34 34c0 26 22 33 22 33c-7 3 -14 4 -21 4 c-75 0 -116 -90 -116 -186z" id="7215"/><path d="M263 249c0 -96 -14 -204 -64 -315c-49 -110 -134 -184 -145 -184c-3 0 -7 1 -7 6c0 2 1 3 2 5c49 50 170 177 170 489c0 311 -122 438 -170 488c-1 2 -2 3 -2 5c0 5 4 6 7 6c12 0 94 -73 142 -177c60 -129 67 -251 67 -323z" id="2915"/><path d="M903 572l-329 -574c-8 -14 -11 -19 -21 -19c-12 0 -13 6 -14 23l-37 517l-298 -521c-9 -15 -11 -19 -21 -19c-12 0 -13 6 -14 23l-44 614c-2 32 -3 38 -50 38c-14 0 -22 0 -22 10c0 19 12 19 18 19c15 0 33 -2 48 -2h52c36 0 73 2 108 2c6 0 15 0 15 -11 c0 -18 -11 -18 -22 -18c-68 -1 -68 -26 -68 -37l37 -516l259 455l-3 36c-4 61 -4 62 -50 62c-17 0 -24 0 -24 10c0 19 12 19 18 19c15 0 33 -2 48 -2h52c36 0 73 2 108 2c5 0 15 0 15 -10c0 -19 -10 -19 -23 -19c-56 -1 -67 -20 -67 -32l36 -521l273 478c10 17 14 24 14 37 c0 31 -32 37 -52 38c-6 0 -14 1 -14 10c0 19 12 19 18 19c29 0 60 -2 90 -2c66 0 73 2 75 2c3 0 12 0 12 -11c0 -16 -9 -17 -18 -18c-60 -6 -82 -43 -105 -82z" id="5718"/><path d="M470 670l-164 -660c30 0 107 0 191 94c64 72 84 146 84 182c0 52 -27 79 -36 88c-4 4 -11 11 -11 23c0 20 22 44 46 44c10 0 40 -7 40 -67c0 -51 -24 -140 -34 -166c-17 -43 -47 -89 -80 -125c-90 -93 -169 -93 -206 -93c-4 -18 -45 -186 -49 -190c-2 -4 -6 -4 -8 -4 c-3 0 -11 0 -11 9c0 4 7 32 23 92c8 31 15 63 23 94c-90 7 -170 44 -170 140c0 23 0 45 54 187c17 44 17 66 17 70c0 32 -17 33 -26 33c-37 0 -77 -37 -101 -124c-4 -14 -5 -18 -14 -18c-7 0 -11 5 -11 9c0 8 37 153 129 153c47 0 79 -36 79 -81c0 -18 -5 -31 -18 -67 c-47 -124 -47 -147 -47 -169c0 -60 31 -102 114 -112l165 662c4 15 5 20 14 20c3 0 11 0 11 -9c0 -1 -4 -14 -4 -15z" id="2018"/><path d="M259 377l-58 -226c-10 -40 -10 -42 -26 -93c-12 -42 -20 -68 -49 -68c-9 0 -27 5 -27 26c0 6 0 8 8 24c82 175 107 262 129 337h-57c-25 0 -77 0 -129 -82c-5 -6 -6 -9 -13 -9c-6 0 -11 2 -11 8s32 59 58 88c46 49 80 49 103 49h329c18 0 37 0 37 -22 c0 -32 -33 -32 -46 -32h-112c-21 -90 -21 -161 -21 -167c0 -7 0 -93 27 -162c7 -15 7 -17 7 -22c0 -17 -18 -36 -39 -36c-41 0 -41 108 -41 122c0 80 17 153 44 265h-113z" id="1918"/><path d="M474 408c-21 13 -49 13 -51 13c-46 0 -80 -44 -95 -104l-35 -136c-16 -66 -20 -82 -20 -104c0 -41 19 -67 54 -67c45 0 103 41 130 129c3 8 4 13 13 13c6 0 10 -4 10 -9c0 -22 -54 -153 -156 -153c-37 0 -87 20 -103 79c-21 -41 -55 -79 -103 -79c-43 0 -90 19 -90 61 c0 32 26 53 50 53c19 0 34 -12 34 -32c0 -12 -8 -42 -44 -49c21 -13 46 -13 51 -13c53 0 82 55 97 115l34 137c12 48 18 71 18 93c0 24 -9 66 -54 66c-29 0 -96 -21 -130 -132c-2 -4 -4 -10 -12 -10c-7 0 -11 5 -11 9c0 22 54 153 156 153c18 0 80 -4 103 -79 c9 19 43 79 104 79c42 0 90 -19 90 -61c0 -27 -21 -53 -51 -53c-14 0 -33 8 -33 32c0 19 12 43 44 49z" id="7818"/><path d="M515 -1748l-39 36c-8 7 -22 23 -32 35c0 1 -37 42 -64 81c-157 232 -200 500 -200 737c0 166 23 327 66 459c69 211 176 350 271 432c9 8 11 8 24 8c12 0 19 0 19 -10c0 -2 0 -5 -3 -8c-175 -177 -301 -438 -301 -882c0 -240 40 -487 148 -679c62 -110 116 -165 152 -201 c2 -3 4 -5 4 -9c0 -9 -8 -10 -11 -10h-22c-1 0 -10 10 -12 11z" id="1024"/><path d="M306 -244c0 -4 -2 -6 -7 -6c-12 0 -94 73 -142 177c-60 129 -67 251 -67 323c0 96 14 204 64 315c49 110 134 184 145 184c4 0 7 -2 7 -5s-2 -5 -2 -6c-49 -50 -170 -177 -170 -489s123 -440 169 -487c3 -3 3 -5 3 -6z" id="2815"/><path d="M111 180c-19 -22 -19 -44 -19 -53c0 -35 21 -63 52 -68c5 -1 46 -1 69 -1c77 0 225 0 225 -136c0 -75 -99 -126 -209 -126c-114 0 -209 53 -209 125c0 50 41 90 93 103c-34 21 -44 59 -44 85c0 5 0 46 30 81c-10 10 -43 46 -43 103c0 83 68 145 147 145 c32 0 68 -10 98 -37c28 26 63 45 103 45c32 0 47 -20 47 -39c0 -13 -8 -23 -23 -23c-13 0 -22 9 -22 22c0 16 9 20 13 21c-5 3 -11 3 -15 3c-23 0 -64 -10 -92 -40c30 -31 38 -71 38 -97c0 -83 -68 -145 -147 -145c-40 0 -73 17 -92 32zM203 165c88 0 88 108 88 128 s0 128 -88 128s-88 -108 -88 -128s0 -128 88 -128zM229 -187c100 0 169 53 169 108c0 93 -114 93 -196 93c-68 0 -78 0 -103 -17c-22 -16 -39 -45 -39 -76c0 -55 69 -108 169 -108z" id="6715"/><path d="M415 304v-235c0 -39 4 -43 68 -43v-26c-24 2 -69 2 -95 2s-70 0 -94 -2v26c64 0 68 5 68 43v239c0 48 -8 114 -82 114c-70 0 -126 -69 -126 -161v-192c0 -39 4 -43 68 -43v-26c-24 2 -69 2 -95 2s-70 0 -94 -2v26c64 0 68 5 68 43v278c0 48 -9 54 -68 54v26l118 11v-101 h1c15 40 56 101 135 101c118 0 128 -83 128 -134z" id="6e15"/><path d="M550 230h-426c12 -134 127 -230 267 -230h159c14 0 33 0 33 -20s-19 -20 -33 -20h-162c-163 0 -305 124 -305 290c0 168 144 290 304 290h163c14 0 33 0 33 -20s-19 -20 -33 -20h-160c-136 0 -254 -94 -266 -230h426c14 0 33 0 33 -20s-19 -20 -33 -20z" id="3221"/></defs><g transform="scale(1.25)"><rect height="0.995" width="28.783" x="206.216" y="99.13"/><rect height="0.995" width="26.383" x="207.416" y="132.505"/><rect height="0.995" width="29.254" x="287.214" y="132.505"/><g transform="scale(0.02488,-0.02488)"><g transform="translate(3301.004,-5595.744)"><use xlink:href="#2018"/></g></g><g transform="scale(0.02488,-0.02488)"><g transform="translate(3972.884,-5595.744)"><use xlink:href="#2815"/></g></g><g transform="scale(0.02488,-0.02488)"><g transform="translate(4326.884,-5595.744)"><use xlink:href="#7818"/></g></g><g transform="scale(0.02488,-0.02488)"><g transform="translate(4882.884,-5595.744)"><use xlink:href="#2915"/><use x="631.777" xlink:href="#3d15"/></g></g><g transform="scale(0.02488,-0.02488)"><g transform="translate(6511.437,-5595.744)"><use xlink:href="#0021"/></g><g transform="translate(7288.437,-4024.329)"><use xlink:href="#7224"/></g></g><g transform="scale(0.02488,-0.02488)"><g transform="translate(8637.565,-4919.237)"><use xlink:href="#3215"/></g></g><g transform="scale(0.02488,-0.02488)"><g transform="translate(8336.671,-6281.695)"><use xlink:href="#5718"/></g></g><g transform="scale(0.02488,-0.02488)"><g transform="translate(9611.975,-5595.744)"><use xlink:href="#7315"/><use x="359" xlink:href="#6915"/><use x="608" xlink:href="#6e15"/></g></g><g transform="scale(0.02488,-0.02488)"><g transform="translate(10898.501,-4485.735)"><use xlink:href="#1024"/></g><g transform="translate(11543.957,-4919.237)"><use xlink:href="#6e18"/><use x="584" xlink:href="#1918"/></g><g transform="translate(11601.653,-6281.695)"><use xlink:href="#5718"/></g><g transform="translate(12767.987,-5595.744)"><use xlink:href="#7818"/></g><g transform="translate(13323.987,-4485.735)"><use xlink:href="#1124"/></g></g><g transform="scale(0.02488,-0.02488)"><g transform="translate(14390.183,-5595.744)"><use xlink:href="#7715"/><use x="667" xlink:href="#6815"/><use x="1177" xlink:href="#6515"/><use x="1583" xlink:href="#6e15"/></g></g><g transform="scale(0.02488,-0.02488)"><g transform="translate(16787.761,-5595.744)"><use xlink:href="#6e18"/><use x="861.777" xlink:href="#3221"/></g></g><g transform="scale(0.02488,-0.02488)"><g transform="translate(18593.315,-5595.744)"><use xlink:href="#4915"/><use x="327" xlink:href="#6e15"/><use x="810.877" xlink:href="#7415"/><use x="1164.877" xlink:href="#6515"/><use x="1570.877" xlink:href="#6715"/><use x="2028.877" xlink:href="#6515"/><use x="2434.877" xlink:href="#7215"/></g></g></g></svg>