<?xml version="1.0" ?><!DOCTYPE svg  PUBLIC '-//W3C//DTD SVG 1.1//EN'  'http://www.w3.org/Graphics/SVG/1.1/DTD/svg11.dtd'><svg height="53.581" viewBox="253.003 109.524 260.948 53.581" width="260.948" xmlns="http://www.w3.org/2000/svg" xmlns:xlink="http://www.w3.org/1999/xlink"><defs><path d="M266 639v-566c0 -36 2 -47 88 -47h30v-26c-48 1 -98 2 -146 2s-98 -1 -146 -2v26h30c86 0 88 12 88 47v527c-40 -24 -92 -30 -123 -30c0 21 0 23 1 25s6 2 9 2c56 2 115 17 154 64c14 0 15 -1 15 -22z" id="3116"/><path d="M155 616c0 -23 -19 -41 -41 -41c-23 0 -41 19 -41 41c0 23 19 41 41 41c23 0 41 -19 41 -41zM38 427l115 11v-370c0 -36 2 -42 61 -42v-26c-23 2 -64 2 -88 2c-25 0 -68 0 -92 -2v26c64 0 68 5 68 43v278c0 48 -8 54 -64 54v26z" id="6915"/><path d="M475 277l-115 -458c-8 -30 -29 -34 -38 -34c-15 0 -27 10 -27 25c0 6 2 12 3 17l116 460c5 19 9 35 9 64c0 40 -14 70 -54 70c-39 0 -73 -16 -99 -40c-37 -32 -62 -82 -64 -88l-33 -132l-22 -90c-5 -20 -14 -55 -16 -60c-8 -15 -22 -21 -34 -21c-15 0 -26 11 -26 25 c0 5 11 52 18 78c5 18 16 63 20 82l28 108c7 31 17 70 17 92c0 30 -8 46 -31 46c-40 0 -59 -59 -74 -118c-6 -23 -7 -24 -15 -24c-7 0 -11 5 -11 9s14 65 32 101c19 38 42 52 71 52c44 0 85 -31 88 -88c18 25 65 88 154 88c76 0 111 -45 111 -105c0 -27 -3 -39 -8 -59z" id="1118"/><path d="M643 321h-567c-15 0 -30 0 -30 17c0 18 17 18 34 18h559c17 0 34 0 34 -18c0 -17 -15 -17 -30 -17zM639 143h-559c-17 0 -34 0 -34 18c0 17 15 17 30 17h567c15 0 30 0 30 -17c0 -18 -17 -18 -34 -18z" id="3d15"/><path d="M443 503c0 -227 -152 -513 -288 -513c-105 0 -115 155 -115 201c0 220 149 513 289 513c82 0 114 -99 114 -201zM140 362h211c29 112 32 162 32 198c0 96 -22 124 -55 124c-44 0 -79 -48 -112 -108c-40 -71 -61 -155 -76 -214zM344 332h-212c-16 -66 -32 -134 -32 -199 c0 -99 25 -123 56 -123c42 0 77 47 106 98c36 63 57 126 82 224z" id="1218"/><path d="M309 422v-112c0 -17 0 -20 -9 -20c-3 0 -8 1 -9 6c-2 32 -8 132 -115 132c-101 0 -115 -55 -115 -81c0 -61 70 -75 125 -87c42 -8 77 -15 107 -46c13 -12 40 -39 40 -90c0 -78 -53 -132 -152 -132c-56 0 -91 26 -111 53c-6 -10 -21 -34 -27 -43c-5 -8 -6 -9 -11 -9 c-6 0 -7 1 -7 19v144c0 20 1 21 9 21s8 -1 11 -15c18 -88 49 -154 136 -154c92 0 116 54 116 96c0 36 -22 58 -35 70c-21 18 -43 22 -106 35c-29 6 -131 27 -131 117c0 58 40 116 151 116c17 0 62 -1 94 -35c3 4 12 14 15 18c12 15 13 16 17 16c6 0 7 -1 7 -19z" id="7315"/><path d="M415 304v-235c0 -39 4 -43 68 -43v-26c-24 2 -69 2 -95 2s-70 0 -94 -2v26c64 0 68 5 68 43v239c0 48 -8 114 -82 114c-70 0 -126 -69 -126 -161v-192c0 -39 4 -43 68 -43v-26c-24 2 -69 2 -95 2s-70 0 -94 -2v26c64 0 68 5 68 43v278c0 48 -9 54 -68 54v26l118 11v-101 h1c15 40 56 101 135 101c118 0 128 -83 128 -134z" id="6e15"/><path d="M417 155l-24 -155h-352v23l199 225c57 65 108 140 108 227c0 91 -57 160 -144 160c-61 0 -119 -42 -138 -127c4 2 10 3 16 3c14 0 40 -9 40 -40c0 -35 -30 -41 -40 -41c-12 0 -41 5 -41 44c0 90 67 187 177 187c105 0 199 -68 199 -186c0 -99 -71 -167 -132 -225 c-85 -82 -155 -153 -191 -192h192c14 0 86 0 91 8c4 6 12 18 22 89h18z" id="3216"/></defs><g transform="scale(1.25)"><g transform="scale(0.02488,-0.02488)"><g transform="translate(8510.066,-4627.612)"><use xlink:href="#1118"/></g></g><g transform="scale(0.02074,-0.02074)"><g transform="translate(10788.209,-5782.76)"><use xlink:href="#3116"/></g></g><g transform="scale(0.02488,-0.02488)"><g transform="translate(9562.133,-4627.612)"><use xlink:href="#7315"/><use x="359" xlink:href="#6915"/><use x="608" xlink:href="#6e15"/></g></g><g transform="scale(0.02488,-0.02488)"><g transform="translate(10848.659,-4627.612)"><use xlink:href="#1218"/></g></g><g transform="scale(0.02074,-0.02074)"><g transform="translate(13561.23,-5782.76)"><use xlink:href="#3116"/></g></g><g transform="scale(0.02488,-0.02488)"><g transform="translate(11984.837,-4627.612)"><use xlink:href="#3d15"/></g></g><g transform="scale(0.02488,-0.02488)"><g transform="translate(12981.614,-4627.612)"><use xlink:href="#1118"/></g></g><g transform="scale(0.02074,-0.02074)"><g transform="translate(16152.342,-5782.76)"><use xlink:href="#3216"/></g></g><g transform="scale(0.02488,-0.02488)"><g transform="translate(14033.681,-4627.612)"><use xlink:href="#7315"/><use x="359" xlink:href="#6915"/><use x="608" xlink:href="#6e15"/></g></g><g transform="scale(0.02488,-0.02488)"><g transform="translate(15320.207,-4627.612)"><use xlink:href="#1218"/></g></g><g transform="scale(0.02074,-0.02074)"><g transform="translate(18925.362,-5782.76)"><use xlink:href="#3216"/></g></g></g></svg>