<?xml version="1.0" ?><!DOCTYPE svg  PUBLIC '-//W3C//DTD SVG 1.1//EN'  'http://www.w3.org/Graphics/SVG/1.1/DTD/svg11.dtd'><svg height="90.262" viewBox="224.794 94.529 318.263 90.262" width="318.263" xmlns="http://www.w3.org/2000/svg" xmlns:xlink="http://www.w3.org/1999/xlink"><defs><path d="M454 334h1c10 37 29 111 29 175c0 112 -56 182 -144 182c-27 0 -103 -7 -144 -81c13 0 44 0 44 -31c0 -17 -15 -49 -50 -49c-28 0 -34 22 -34 31c0 27 43 154 188 154c128 0 209 -111 209 -255c0 -137 -101 -481 -337 -481c-136 0 -178 115 -178 176 c0 159 144 302 285 302c90 0 125 -67 131 -123zM219 6c154 0 219 224 219 298c0 54 -21 133 -112 133c-104 0 -161 -101 -174 -131c-15 -37 -43 -140 -43 -184c0 -42 16 -116 110 -116z" id="4018"/><path d="M619 572l-361 -574c-10 -16 -15 -19 -27 -19c-14 0 -14 3 -17 24l-80 617c-3 25 -6 34 -57 34c-16 0 -23 0 -23 11c0 18 12 18 18 18c1 0 31 -2 104 -2h56c17 0 37 2 54 2c3 0 14 0 14 -10c0 -19 -9 -19 -24 -19c-11 0 -63 -2 -63 -31l70 -539l314 498c1 1 15 24 15 39 c0 12 -4 30 -41 33c-4 0 -13 1 -13 10c0 19 10 19 18 19c28 0 58 -2 87 -2c18 0 61 2 79 2c9 0 11 -6 11 -10c0 -18 -8 -18 -18 -19c-51 -4 -82 -28 -116 -82z" id="5618"/><path d="M747 695l-63 -255c-4 -18 -5 -19 -16 -19c-3 0 -13 0 -13 9c0 4 3 26 3 52c0 102 -49 193 -159 193c-95 0 -189 -56 -244 -120c-113 -131 -123 -305 -123 -337c0 -142 92 -210 198 -210c100 0 235 75 281 231c2 4 3 10 12 10c3 0 11 0 11 -9c0 -8 -26 -105 -113 -178 c-58 -49 -128 -83 -208 -83c-146 0 -263 104 -263 271c0 235 224 454 440 454c75 0 130 -34 165 -94l69 84c8 10 12 10 14 10s9 0 9 -9z" id="4318"/><path d="M367 606l-136 -543c-2 -9 -4 -15 -4 -22c0 -8 1 -10 12 -11c6 -1 8 -1 22 -1h96c169 0 214 113 246 201c8 19 8 21 10 22c2 4 7 4 8 4c5 0 10 -4 10 -10c0 -3 -2 -9 -4 -14l-77 -213c-7 -18 -8 -19 -30 -19h-448c-20 0 -26 0 -26 11c0 18 10 18 29 18c70 0 72 10 81 45 l135 538c4 15 4 21 4 23c0 11 0 19 -61 19c-15 0 -24 0 -24 10c0 19 11 19 19 19c19 0 41 -2 60 -2h134c20 0 43 2 63 2c4 0 15 0 15 -10c0 -19 -7 -19 -34 -19c-88 0 -91 -10 -100 -48z" id="4c18"/><path d="M426 6c5 -77 18 -112 69 -112c44 0 96 36 118 99c3 11 5 16 11 16c5 0 9 -4 9 -10s-44 -193 -163 -193c-80 0 -80 75 -80 104c0 19 0 24 6 84c-32 -10 -65 -15 -99 -15c-145 0 -249 107 -249 264c0 231 216 461 430 461c140 0 248 -101 248 -266 c0 -181 -128 -363 -300 -432zM246 11c-4 7 -8 22 -8 33c0 49 46 103 100 103c66 0 80 -60 85 -111c188 110 223 358 223 432c0 130 -70 214 -174 214c-78 0 -177 -51 -251 -165c-66 -101 -92 -234 -92 -304c0 -92 38 -175 117 -202zM398 23c1 6 1 14 1 20 c0 50 -11 84 -61 84c-45 0 -80 -46 -80 -82c0 -44 35 -44 45 -44c28 0 59 6 95 22z" id="5118"/><path d="M377 232v-265c0 -15 0 -31 -18 -31c-17 0 -17 17 -17 31v265h-265c-15 0 -31 0 -31 18c0 17 17 17 31 17h265v265c0 15 0 31 18 31c17 0 17 -17 17 -31v-265h265c15 0 31 0 31 -18c0 -17 -17 -17 -31 -17h-265z" id="2b15"/><path d="M429 713l-335 -941c-7 -21 -16 -22 -22 -22c-8 0 -18 7 -18 19c0 2 6 17 6 18l335 941c8 22 17 22 22 22c8 0 18 -7 18 -19c0 -2 -6 -17 -6 -18z" id="3d18"/><path d="M643 321h-567c-15 0 -30 0 -30 17c0 18 17 18 34 18h559c17 0 34 0 34 -18c0 -17 -15 -17 -30 -17zM639 143h-559c-17 0 -34 0 -34 18c0 17 15 17 30 17h567c15 0 30 0 30 -17c0 -18 -17 -18 -34 -18z" id="3d15"/><path d="M368 609l-135 -537c-4 -16 -4 -21 -4 -23c0 -12 0 -20 62 -20c22 0 28 0 28 -11c0 -18 -12 -18 -20 -18c-20 0 -42 2 -62 2h-123c-18 0 -40 -2 -58 -2c-5 0 -15 0 -15 10c0 19 9 19 31 19c73 0 75 10 84 45l135 539c2 9 4 15 4 22c0 11 0 19 -62 19c-20 0 -28 0 -28 10 c0 19 11 19 19 19c20 0 43 -2 63 -2h123c18 0 40 2 58 2c3 0 14 0 14 -10c0 -19 -8 -19 -30 -19c-73 0 -75 -10 -84 -45z" id="4918"/><path d="M368 615l-66 -263h113c201 0 227 147 227 198c0 78 -64 104 -150 104h-72c-39 0 -43 -2 -52 -39zM507 340c38 -12 97 -43 97 -116c0 -8 0 -12 -5 -49c-1 -5 -13 -96 -13 -120c0 -45 16 -56 41 -56s66 18 90 89c2 8 4 14 12 14c6 0 11 -3 11 -10c0 -14 -35 -113 -116 -113 c-67 0 -125 33 -125 104c0 19 3 30 14 76c7 26 17 65 17 80c0 33 -18 93 -113 93h-120l-67 -269c-2 -8 -2 -15 -2 -16c0 -10 0 -18 61 -18c15 0 24 0 24 -10c0 -19 -11 -19 -19 -19c-18 0 -39 2 -57 2h-118c-19 0 -40 -2 -58 -2c-3 0 -14 0 -14 10c0 19 7 19 30 19 c69 0 71 10 80 45l135 538c4 15 4 21 4 23c0 11 0 19 -60 19c-19 0 -26 0 -26 10c0 19 9 19 29 19h271c139 0 218 -72 218 -150c0 -86 -97 -166 -221 -193z" id="5218"/><path d="M201 402l-78 -313c-3 -12 -3 -31 -3 -32c0 -22 2 -47 32 -47c58 0 104 70 125 120c7 16 8 17 9 18c2 4 6 4 8 4c6 0 10 -3 10 -9c0 -7 -54 -153 -155 -153c-56 0 -89 43 -89 90c0 13 3 23 11 58l66 264h-89c-19 0 -26 0 -26 10c0 19 9 19 29 19h94l39 159 c8 32 31 35 39 35c13 0 26 -9 26 -25c0 -7 0 -9 -4 -23l-37 -146h88c20 0 26 0 26 -11c0 -18 -10 -18 -29 -18h-92z" id="7418"/></defs><g transform="scale(1.25)"><rect height="0.995" width="26.914" x="397.532" y="113.527"/><g transform="scale(0.02488,-0.02488)"><g transform="translate(7576.045,-4832.968)"><use xlink:href="#5618"/></g></g><g transform="scale(0.02488,-0.02488)"><g transform="translate(8641.412,-4832.968)"><use xlink:href="#3d15"/></g></g><g transform="scale(0.02488,-0.02488)"><g transform="translate(9638.189,-4832.968)"><use xlink:href="#4918"/><use x="509.617" xlink:href="#5218"/></g></g><g transform="scale(0.02488,-0.02488)"><g transform="translate(11123.259,-4832.968)"><use xlink:href="#2b15"/></g></g><g transform="scale(0.02488,-0.02488)"><g transform="translate(12064.48,-4832.968)"><use xlink:href="#5118"/><use x="775" xlink:href="#3d18"/><use x="1264" xlink:href="#4318"/></g></g><g transform="scale(0.02488,-0.02488)"><g transform="translate(14322.518,-4832.968)"><use xlink:href="#2b15"/></g></g><g transform="scale(0.02488,-0.02488)"><g transform="translate(15263.739,-4832.968)"><use xlink:href="#4c18"/></g><g transform="translate(15977.971,-4156.461)"><use xlink:href="#4018"/><use x="570.397" xlink:href="#4918"/></g><g transform="translate(16056.415,-5518.919)"><use xlink:href="#4018"/><use x="570.397" xlink:href="#7418"/></g></g></g></svg>