<?xml version="1.0" ?><!DOCTYPE svg  PUBLIC '-//W3C//DTD SVG 1.1//EN'  'http://www.w3.org/Graphics/SVG/1.1/DTD/svg11.dtd'><svg height="47.237" viewBox="207.301 109.835 354.099 47.237" width="354.099" xmlns="http://www.w3.org/2000/svg" xmlns:xlink="http://www.w3.org/1999/xlink"><defs><path d="M344 61c-40 -71 -85 -71 -102 -71c-51 0 -137 19 -137 124c0 38 10 79 57 204c17 44 17 65 17 70c0 32 -16 33 -26 33c-37 0 -76 -36 -101 -124c-4 -14 -5 -18 -14 -18c-7 0 -11 5 -11 9c0 8 37 153 129 153c49 0 79 -38 79 -80c0 -20 -5 -33 -17 -64 c-45 -119 -52 -163 -52 -195c0 -17 0 -92 79 -92c31 0 47 17 58 28c1 2 33 40 33 64c0 22 0 33 4 50c4 22 46 191 56 230c6 24 13 49 42 49c15 0 27 -10 27 -25c0 -4 -9 -39 -14 -59l-42 -168c-4 -17 -13 -52 -13 -81c0 -46 18 -88 74 -88c52 0 89 40 117 101 c21 47 49 141 49 175c0 52 -26 79 -35 88c-5 4 -12 11 -12 23c0 20 22 44 46 44c9 0 40 -6 40 -67c0 -59 -37 -191 -60 -249c-28 -69 -73 -135 -149 -135c-38 0 -100 11 -122 71z" id="7718"/><path d="M206 293l-33 -132l-22 -90c-5 -20 -14 -55 -16 -60c-8 -15 -22 -21 -34 -21c-15 0 -26 11 -26 25c0 5 11 52 18 78c5 18 16 63 20 82l28 108c7 31 17 70 17 92c0 30 -8 46 -31 46c-40 0 -59 -59 -74 -118c-6 -23 -7 -24 -15 -24c-7 0 -11 5 -11 9s14 65 32 101 c19 38 42 52 71 52c44 0 85 -31 88 -88c18 25 65 88 154 88c75 0 108 -43 111 -97c40 59 94 97 161 97c76 0 111 -45 111 -105c0 -58 -45 -176 -63 -224c-4 -11 -16 -43 -16 -69c0 -32 16 -33 26 -33c40 0 77 42 100 122c5 17 6 20 15 20c6 0 10 -4 10 -9 c0 -6 -35 -153 -128 -153c-48 0 -79 36 -79 81c0 18 5 31 14 55c22 60 61 169 61 225c0 40 -14 70 -54 70c-110 0 -162 -125 -164 -133l-60 -239c-9 -36 -14 -59 -44 -59c-15 0 -26 11 -26 25c0 4 6 30 10 45c2 11 21 85 29 115l25 103c12 47 12 67 12 73 c0 40 -14 70 -54 70c-39 0 -73 -16 -99 -40c-37 -32 -62 -82 -64 -88z" id="6d18"/><path d="M206 293l-33 -132l-22 -90c-5 -20 -14 -55 -16 -60c-8 -15 -22 -21 -34 -21c-15 0 -26 11 -26 25c0 5 11 52 18 78c5 18 16 63 20 82l28 108c7 31 17 70 17 92c0 30 -8 46 -31 46c-40 0 -58 -57 -74 -118c-6 -23 -7 -24 -15 -24c-7 0 -11 5 -11 9s14 64 32 100 c17 34 39 53 71 53c44 0 85 -31 88 -88c18 25 65 88 154 88c76 0 111 -45 111 -105c0 -57 -42 -169 -62 -224c-6 -14 -17 -44 -17 -69c0 -32 16 -33 26 -33c39 0 77 40 100 122c5 17 6 20 15 20c6 0 10 -4 10 -9c0 -6 -35 -153 -128 -153c-48 0 -79 36 -79 81 c0 18 5 31 14 55c20 54 61 168 61 225c0 40 -14 70 -54 70c-39 0 -73 -16 -99 -40c-37 -32 -62 -82 -64 -88z" id="6e18"/><path d="M254 669l-141 -560c-7 -28 -7 -49 -7 -53c0 -14 0 -46 30 -46c40 0 58 53 76 122c4 15 5 20 14 20c6 0 10 -4 10 -9c0 -4 -14 -67 -31 -100c-16 -31 -38 -53 -71 -53c-51 0 -88 40 -88 90c0 16 2 24 5 35l124 496c5 18 5 20 5 24c0 10 0 19 -51 19c-10 0 -20 0 -20 10 c0 18 7 19 31 21c18 1 33 3 50 4c18 2 54 5 55 5c2 0 12 0 12 -10c0 -5 -2 -11 -3 -15z" id="6c18"/><path d="M456 275c0 -141 -129 -285 -262 -285c-91 0 -153 71 -153 166c0 141 130 285 262 285c91 0 153 -71 153 -166zM195 10c39 0 94 26 135 93c38 61 59 168 59 208c0 70 -38 110 -87 110c-41 0 -97 -26 -142 -103c-28 -50 -52 -152 -52 -198c0 -70 37 -110 87 -110z" id="6f18"/><path d="M179 232h-53c-15 -64 -15 -89 -15 -103c0 -74 30 -119 87 -119c38 0 133 15 197 100c9 9 10 10 13 10c4 0 10 -5 10 -11c0 -13 -86 -119 -222 -119c-91 0 -151 73 -151 178c0 178 151 273 256 273c66 0 104 -40 104 -84c0 -18 -7 -76 -83 -105c-48 -18 -116 -20 -143 -20 zM131 252h42c42 0 202 0 202 105c0 38 -30 64 -74 64c-32 0 -127 -15 -170 -169z" id="6518"/><path d="M740 578l-140 -558c-4 -17 -5 -20 -15 -20c-9 0 -11 6 -16 18l-238 593c-4 9 -4 11 -10 21l-135 -535c-2 -8 -4 -17 -4 -25c0 -36 32 -42 65 -43c4 0 14 -1 14 -10c0 -19 -11 -19 -18 -19c-14 0 -31 2 -45 2h-48c-20 0 -71 -2 -91 -2c-3 0 -13 0 -13 10c0 18 10 19 15 19 c66 3 90 24 102 73l133 530c1 3 3 11 3 13c0 9 -59 9 -64 9c-19 0 -26 0 -26 10c0 19 9 19 29 19h122c22 0 23 -1 30 -17l214 -532l113 451c3 14 4 17 4 26c0 18 -4 41 -64 43c-7 0 -15 0 -15 10c0 19 12 19 18 19c14 0 32 -2 46 -2h48c20 0 71 2 91 2c4 0 13 0 13 -11 c0 -17 -12 -18 -15 -18c-76 -3 -92 -33 -103 -76z" id="4e18"/><path d="M261 229l14 -158c1 -14 1 -37 -26 -37c-14 0 -28 12 -25 27v5l14 164l-126 -93c-11 -8 -16 -9 -20 -9c-13 0 -27 12 -27 28s12 22 21 26l141 68l-141 67c-9 4 -21 10 -21 26s14 28 27 28c7 0 7 -1 20 -10l126 -92l-14 159v11c-3 13 10 26 26 26c25 0 26 -23 25 -36 l-14 -160l126 93c11 8 16 9 20 9c13 0 27 -12 27 -28s-12 -22 -21 -26l-142 -68l145 -68c14 -7 18 -17 18 -25c0 -16 -14 -28 -27 -28c-7 0 -25 13 -37 22z" id="0321"/><path d="M643 321h-567c-15 0 -30 0 -30 17c0 18 17 18 34 18h559c17 0 34 0 34 -18c0 -17 -15 -17 -30 -17zM639 143h-559c-17 0 -34 0 -34 18c0 17 15 17 30 17h567c15 0 30 0 30 -17c0 -18 -17 -18 -34 -18z" id="3d15"/><path d="M389 409c-13 9 -29 12 -45 12c-41 0 -67 -23 -79 -34c-25 -22 -52 -71 -55 -80c-3 -13 -7 -29 -11 -43c-5 -22 -11 -43 -16 -65c-6 -23 -43 -174 -46 -182c-6 -20 -25 -27 -36 -27c-15 0 -26 11 -26 25c0 5 11 52 18 78c5 18 16 63 20 82l28 108c7 31 17 70 17 92 c0 29 -7 46 -31 46c-40 0 -59 -58 -74 -118c-6 -23 -7 -24 -15 -24c-7 0 -11 5 -11 9c0 5 15 65 32 101c12 22 32 52 71 52c40 0 80 -26 87 -79c42 61 88 79 128 79c50 0 81 -28 81 -60c0 -30 -23 -54 -51 -54c-14 0 -33 8 -33 32c0 22 16 44 47 50z" id="7218"/><path d="M341 58c-20 -24 -55 -68 -119 -68c-41 0 -118 16 -118 118c0 30 5 68 49 187c15 38 26 67 26 93c0 32 -16 33 -26 33c-38 0 -77 -38 -101 -124c-4 -14 -5 -18 -14 -18c-7 0 -11 5 -11 9c0 8 37 153 129 153c48 0 79 -37 79 -80c0 -20 -5 -33 -17 -65 c-26 -67 -54 -147 -54 -204c0 -37 10 -82 62 -82c73 0 112 82 113 82c7 35 61 250 71 289c6 25 13 50 42 50c15 0 27 -10 27 -25c0 -3 0 -5 -7 -30l-41 -163c-6 -28 -13 -55 -20 -82c-10 -42 -13 -52 -13 -75c0 -13 0 -46 30 -46c40 0 58 53 76 122c4 15 5 20 14 20 c6 0 10 -4 10 -9c0 -3 -13 -62 -30 -98c-16 -34 -40 -55 -72 -55c-24 0 -72 12 -85 68z" id="7518"/><path d="M201 402l-78 -313c-3 -12 -3 -31 -3 -32c0 -22 2 -47 32 -47c58 0 104 70 125 120c7 16 8 17 9 18c2 4 6 4 8 4c6 0 10 -3 10 -9c0 -7 -54 -153 -155 -153c-56 0 -89 43 -89 90c0 13 3 23 11 58l66 264h-89c-19 0 -26 0 -26 10c0 19 9 19 29 19h94l39 159 c8 32 31 35 39 35c13 0 26 -9 26 -25c0 -7 0 -9 -4 -23l-37 -146h88c20 0 26 0 26 -11c0 -18 -10 -18 -29 -18h-92z" id="7418"/><path d="M534 614l-118 -471c-24 -95 -122 -164 -213 -164c-72 0 -124 44 -124 107c0 65 42 75 60 75c30 0 40 -21 40 -37c0 -29 -26 -58 -59 -58c-4 0 -9 1 -13 2c12 -53 60 -69 94 -69c48 0 115 49 141 151l115 457c4 16 4 23 4 24c0 15 0 23 -80 23h-25c0 1 -8 1 -8 11 c0 18 12 18 21 18c42 0 86 -2 128 -2h55c18 0 37 2 54 2c4 0 13 0 13 -11c0 -18 -10 -18 -26 -18c-49 0 -51 -10 -59 -40z" id="4a18"/></defs><g transform="scale(1.25)"><g transform="scale(0.02488,-0.02488)"><g transform="translate(6988.548,-4627.612)"><use xlink:href="#4a18"/><use x="633.593" xlink:href="#6f18"/><use x="1103.593" xlink:href="#7518"/><use x="1660.593" xlink:href="#6c18"/><use x="1973.584" xlink:href="#6518"/></g></g><g transform="scale(0.02488,-0.02488)"><g transform="translate(9692.909,-4627.612)"><use xlink:href="#3d15"/></g></g><g transform="scale(0.02488,-0.02488)"><g transform="translate(10689.686,-4627.612)"><use xlink:href="#4e18"/><use x="888.456" xlink:href="#6518"/><use x="1341.456" xlink:href="#7718"/><use x="2067.366" xlink:href="#7418"/><use x="2420.366" xlink:href="#6f18"/><use x="2890.366" xlink:href="#6e18"/><use x="3696.587" xlink:href="#0321"/><use x="4418.809" xlink:href="#6d18"/><use x="5274.809" xlink:href="#6518"/><use x="5727.809" xlink:href="#7418"/><use x="6080.809" xlink:href="#6518"/><use x="6533.809" xlink:href="#7218"/></g></g></g></svg>