<?xml version="1.0" ?><!DOCTYPE svg  PUBLIC '-//W3C//DTD SVG 1.1//EN'  'http://www.w3.org/Graphics/SVG/1.1/DTD/svg11.dtd'><svg height="94.616" viewBox="282.461 94.659 203.822 94.616" width="203.822" xmlns="http://www.w3.org/2000/svg" xmlns:xlink="http://www.w3.org/1999/xlink"><defs><path d="M144 22l-47 -186c-7 -28 -13 -51 -42 -51c-15 0 -27 10 -27 25c0 6 2 12 3 17l145 579c8 32 30 35 39 35c13 0 26 -9 26 -25c0 -6 -8 -38 -13 -57l-45 -180c-4 -17 -13 -52 -13 -81c0 -47 18 -88 74 -88c63 0 102 54 114 71c13 16 13 18 18 38l70 278c8 30 29 34 38 34 c15 0 27 -10 27 -25c0 -4 -11 -47 -17 -71c-5 -18 -16 -63 -20 -82l-28 -108c-7 -30 -16 -66 -16 -89c0 -20 2 -46 31 -46c41 0 60 63 75 122c4 15 5 20 14 20c6 0 10 -4 10 -9c0 -4 -14 -65 -30 -99c-18 -36 -42 -54 -72 -54c-35 0 -77 21 -87 74c-23 -31 -67 -74 -131 -74 c-34 0 -71 9 -96 32z" id="1618"/><path d="M366 615l-62 -250h144c132 0 213 103 213 184c0 9 0 105 -113 105h-130c-39 0 -43 -2 -52 -39zM535 357c81 -8 153 -58 153 -140c0 -101 -118 -217 -271 -217h-343c-20 0 -26 0 -26 11c0 18 10 18 29 18c70 0 72 10 81 45l135 538c4 15 4 21 4 23c0 11 0 19 -61 19 c-15 0 -24 0 -24 10c0 19 9 19 28 19h321c113 0 182 -60 182 -138c0 -92 -99 -168 -208 -188zM393 29c124 0 211 102 211 198c0 8 0 118 -118 118h-188l-70 -282c-2 -9 -4 -15 -4 -22c0 -8 1 -10 12 -11c6 -1 8 -1 22 -1h135z" id="4218"/><path d="M695 232l-91 -215c-7 -16 -8 -17 -30 -17h-502c-20 0 -26 0 -26 11c0 18 10 18 29 18c70 0 72 10 81 45l135 540c3 11 4 15 4 20c0 11 0 18 -62 18c-17 0 -24 0 -24 11c0 18 10 18 29 18h488c18 0 27 0 27 -11c0 -2 -2 -12 -2 -15l-21 -175c-2 -18 -6 -22 -13 -22 c-6 0 -11 3 -11 11c0 2 1 8 2 12c4 33 4 61 4 62c0 76 -25 109 -148 109h-143c-41 0 -43 -3 -52 -38l-62 -246h95c89 0 109 22 129 99c4 14 5 18 14 18c6 0 10 -5 10 -10l-57 -232c-4 -14 -5 -21 -14 -21c-6 0 -11 3 -11 10c0 3 1 7 3 11c7 30 7 39 7 49c0 30 -6 47 -84 47 h-99l-69 -276c-2 -9 -4 -15 -4 -22c0 -8 1 -10 12 -11c6 -1 8 -1 22 -1h146c160 0 203 60 262 200c9 20 9 22 11 23c3 3 5 4 9 4c6 0 10 -5 10 -10c0 -4 -3 -11 -4 -14z" id="4518"/><path d="M418 250l199 -200c11 -11 13 -13 13 -21c0 -11 -8 -20 -20 -20c-6 0 -12 3 -22 13l-200 200l-200 -200c-11 -11 -13 -13 -21 -13c-10 0 -20 9 -20 20c0 6 3 12 13 22l199 199l-199 200c-9 9 -13 13 -13 21c0 11 10 20 20 20c8 0 10 -2 21 -13l201 -200l200 200 c9 9 13 13 21 13c11 0 20 -9 20 -20c0 -8 -2 -10 -13 -21z" id="0221"/><path d="M420 321c0 -73 -4 -154 -34 -223c-41 -95 -111 -114 -157 -114c-39 0 -116 14 -159 117c-31 76 -32 163 -32 220c0 78 4 171 44 246c38 72 99 94 147 94c52 0 111 -25 148 -95c42 -80 43 -184 43 -245zM229 0c35 0 94 19 115 128c12 59 12 139 12 204 c0 80 -1 147 -14 204c-19 82 -72 109 -113 109c-39 0 -95 -26 -114 -111c-13 -61 -13 -125 -13 -202c0 -56 0 -142 11 -201c14 -76 52 -131 116 -131z" id="3016"/><path d="M635 695l-54 -220c-4 -16 -5 -19 -14 -19c-3 0 -11 0 -11 9c0 4 5 31 5 57c0 95 -46 155 -144 155c-95 0 -180 -86 -180 -170c0 -34 13 -58 30 -75c18 -16 27 -19 94 -37c92 -24 110 -29 131 -50c38 -37 48 -74 48 -116c0 -125 -118 -250 -247 -250 c-93 0 -145 40 -169 76l-46 -60c-12 -15 -13 -16 -17 -16c-2 0 -10 0 -10 9c0 1 4 14 4 15l51 205c4 17 5 19 14 19c8 0 10 -5 10 -9c0 -2 -1 -7 -1 -10c-3 -10 -7 -34 -7 -53c0 -112 91 -147 173 -147c100 0 186 96 186 189c0 47 -20 70 -24 75c-21 22 -34 26 -85 40 c-30 7 -89 23 -100 27c-49 17 -94 61 -94 136c0 113 115 229 242 229c42 0 108 -11 141 -76c1 1 42 53 48 60c12 15 13 16 17 16c2 0 9 0 9 -9z" id="5318"/><path d="M643 321h-567c-15 0 -30 0 -30 17c0 18 17 18 34 18h559c17 0 34 0 34 -18c0 -17 -15 -17 -30 -17zM639 143h-559c-17 0 -34 0 -34 18c0 17 15 17 30 17h567c15 0 30 0 30 -17c0 -18 -17 -18 -34 -18z" id="3d15"/><path d="M535 597h-320c-16 0 -34 0 -34 18c0 19 17 19 34 19h336c-19 27 -25 51 -25 60c0 15 12 19 18 19c14 0 17 -12 20 -20c3 -12 10 -39 38 -58c6 -5 14 -10 14 -19c0 -11 -7 -14 -17 -20c-23 -13 -50 -32 -74 -62c-7 -10 -11 -16 -20 -16c-10 0 -19 9 -19 19 c0 14 37 49 49 60z" id="7e18"/><path d="M266 639v-566c0 -36 2 -47 88 -47h30v-26c-48 1 -98 2 -146 2s-98 -1 -146 -2v26h30c86 0 88 12 88 47v527c-40 -24 -92 -30 -123 -30c0 21 0 23 1 25s6 2 9 2c56 2 115 17 154 64c14 0 15 -1 15 -22z" id="3115"/></defs><g transform="scale(1.25)"><rect height="0.995" width="24.669" x="284.042" y="112.287"/><g transform="scale(0.02488,-0.02488)"><g transform="translate(9523.374,-4530.359)"><use xlink:href="#7e18"/></g><g transform="translate(9433.27,-4783.136)"><use xlink:href="#5318"/></g></g><g transform="scale(0.02488,-0.02488)"><g transform="translate(10371.458,-4783.136)"><use xlink:href="#3d15"/></g><g transform="translate(11682.915,-4106.629)"><use xlink:href="#3115"/></g></g><g transform="scale(0.02488,-0.02488)"><g transform="translate(11416.466,-5469.087)"><use xlink:href="#1618"/></g></g><g transform="scale(0.02074,-0.02074)"><g transform="translate(14401.928,-6792.205)"><use xlink:href="#3016"/></g></g><g transform="scale(0.02488,-0.02488)"><g transform="translate(12607.833,-4530.359)"><use xlink:href="#7e18"/></g><g transform="translate(12456.213,-4783.136)"><use xlink:href="#4518"/><use x="1005.664" xlink:href="#0221"/></g><g transform="translate(14618.158,-4530.359)"><use xlink:href="#7e18"/></g><g transform="translate(14461.099,-4783.136)"><use xlink:href="#4218"/></g></g></g></svg>