<?xml version="1.0" standalone="yes"?>

<svg version="1.1" viewBox="0.0 0.0 288.15223097112863 269.48818897637796" fill="none" stroke="none" stroke-linecap="square" stroke-miterlimit="10" xmlns="http://www.w3.org/2000/svg" xmlns:xlink="http://www.w3.org/1999/xlink"><clipPath id="p.0"><path d="m0 0l288.15222 0l0 269.4882l-288.15222 0l0 -269.4882z" clip-rule="nonzero"></path></clipPath><g clip-path="url(#p.0)"><path fill="#000000" fill-opacity="0.0" d="m0 0l288.15222 0l0 269.4882l-288.15222 0z" fill-rule="nonzero"></path><path fill="#000000" fill-opacity="0.0" d="m62.91601 170.05249c2.7401543 3.1618652 13.700787 11.6631775 16.440945 18.97113c2.740158 7.307968 0 20.73053 0 24.876648" fill-rule="nonzero"></path><path stroke="#6aa84f" stroke-width="2.0" stroke-linejoin="round" stroke-linecap="butt" d="m62.91601 170.05249c2.7401543 3.1618652 13.700787 11.6631775 16.440945 18.97113c2.740158 7.307968 0 20.73053 0 24.876648" fill-rule="nonzero"></path><path fill="#000000" fill-opacity="0.0" d="m8.895919 214.24158l227.49606 -193.00787" fill-rule="nonzero"></path><path stroke="#000000" stroke-width="8.0" stroke-linejoin="round" stroke-linecap="butt" d="m8.895919 214.24158l190.8941 -161.95474" fill-rule="evenodd"></path><path fill="#000000" stroke="#000000" stroke-width="8.0" stroke-linecap="butt" d="m208.33861 62.362934l19.135284 -33.56313l-36.232437 13.410919z" fill-rule="evenodd"></path><path fill="#000000" fill-opacity="0.0" d="m68.646355 31.58063l108.91338 0l0 79.81103l-108.91338 0z" fill-rule="nonzero"></path><path fill="#000000" d="m112.458855 81.16187q0 0.15625 -0.03125 0.34375q-0.015625 0.171875 -0.0625 0.375q-0.03125 0.1875 -0.09375 0.421875q-0.046875 0.234375 -0.125 0.5l-12.0 33.40625q-0.15625 0.421875 -0.40625 0.703125q-0.25 0.265625 -0.765625 0.4375q-0.5 0.15625 -1.28125 0.203125q-0.78125 0.0625 -1.953125 0.0625q-1.171875 0 -1.953125 -0.078125q-0.78125 -0.078125 -1.28125 -0.234375q-0.484375 -0.15625 -0.765625 -0.421875q-0.265625 -0.28125 -0.421875 -0.671875l-11.953125 -33.40625q-0.15625 -0.46875 -0.25 -0.8125q-0.09375 -0.359375 -0.125 -0.53125q-0.015625 -0.171875 -0.015625 -0.296875q0 -0.3125 0.15625 -0.546875q0.15625 -0.234375 0.53125 -0.359375q0.375 -0.140625 0.96875 -0.171875q0.609375 -0.046875 1.515625 -0.046875q1.125 0 1.8125 0.0625q0.6875 0.046875 1.046875 0.203125q0.375 0.15625 0.546875 0.390625q0.1875 0.234375 0.34375 0.59375l9.921875 28.984375l0.15625 0.46875l0.109375 -0.46875l9.8125 -28.984375q0.078125 -0.359375 0.265625 -0.59375q0.203125 -0.234375 0.5625 -0.390625q0.375 -0.15625 1.015625 -0.203125q0.65625 -0.0625 1.703125 -0.0625q0.90625 0 1.484375 0.046875q0.59375 0.03125 0.921875 0.1875q0.328125 0.15625 0.46875 0.375q0.140625 0.203125 0.140625 0.515625z" fill-rule="nonzero"></path><path fill="#000000" fill-opacity="0.0" d="m236.38321 214.24158l0 -193.00787" fill-rule="nonzero"></path><path stroke="#ff0000" stroke-width="4.0" stroke-linejoin="round" stroke-linecap="butt" stroke-dasharray="16.0,12.0" d="m236.38321 214.24158l0 -169.00787" fill-rule="evenodd"></path><path fill="#ff0000" stroke="#ff0000" stroke-width="4.0" stroke-linecap="butt" d="m242.99013 45.233696l-6.6069183 -18.15239l-6.6069336 18.15239z" fill-rule="evenodd"></path><path fill="#000000" fill-opacity="0.0" d="m19.052294 215.31976l223.1811 0" fill-rule="nonzero"></path><path stroke="#4a86e8" stroke-width="4.0" stroke-linejoin="round" stroke-linecap="butt" stroke-dasharray="16.0,12.0" d="m19.052294 215.31976l199.18109 0" fill-rule="evenodd"></path><path fill="#4a86e8" stroke="#4a86e8" stroke-width="4.0" stroke-linecap="butt" d="m218.2334 221.92668l18.15239 -6.6069183l-18.15239 -6.6069336z" fill-rule="evenodd"></path><path fill="#000000" fill-opacity="0.0" d="m84.646355 183.58063l108.91338 0l0 79.811035l-108.91338 0z" fill-rule="nonzero"></path><path fill="#4a86e8" d="m121.490105 225.05188q0 0.125 -0.015625 0.265625q-0.015625 0.140625 -0.046875 0.296875q-0.03125 0.15625 -0.078125 0.34375q-0.046875 0.1875 -0.109375 0.40625l-9.59375 26.71875q-0.125 0.34375 -0.328125 0.5625q-0.203125 0.21875 -0.609375 0.34375q-0.40625 0.125 -1.03125 0.171875q-0.625 0.046875 -1.5625 0.046875q-0.9375 0 -1.5625 -0.0625q-0.625 -0.0625 -1.015625 -0.1875q-0.390625 -0.125 -0.609375 -0.34375q-0.21875 -0.21875 -0.34375 -0.53125l-9.5625 -26.71875q-0.125 -0.375 -0.203125 -0.65625q-0.078125 -0.28125 -0.09375 -0.421875q-0.015625 -0.140625 -0.015625 -0.234375q0 -0.25 0.125 -0.4375q0.125 -0.1875 0.421875 -0.296875q0.296875 -0.109375 0.78125 -0.140625q0.484375 -0.03125 1.203125 -0.03125q0.90625 0 1.453125 0.046875q0.546875 0.046875 0.84375 0.171875q0.296875 0.125 0.4375 0.3125q0.140625 0.1875 0.265625 0.46875l7.9375 23.1875l0.125 0.375l0.09375 -0.375l7.84375 -23.1875q0.0625 -0.28125 0.21875 -0.46875q0.15625 -0.1875 0.453125 -0.3125q0.296875 -0.125 0.8125 -0.171875q0.515625 -0.046875 1.359375 -0.046875q0.71875 0 1.1875 0.03125q0.46875 0.03125 0.734375 0.15625q0.265625 0.125 0.375 0.296875q0.109375 0.171875 0.109375 0.421875z" fill-rule="nonzero"></path><path fill="#000000" fill-opacity="0.0" d="m77.98756 154.18167l108.9134 0l0 79.811035l-108.9134 0z" fill-rule="nonzero"></path><path fill="#6aa84f" d="m96.75318 173.8473q3.296875 0 5.5625 3.859375q2.265625 3.859375 2.265625 10.046875q0 6.671875 -2.4375 10.53125q-2.4375 3.84375 -5.640625 3.84375q-3.140625 0 -5.546875 -3.734375q-2.390625 -3.75 -2.390625 -10.15625q0 -6.421875 2.375 -10.40625q2.375 -3.984375 5.8125 -3.984375zm4.203125 13.46875q0 -12.34375 -4.34375 -12.34375q-4.453125 0 -4.453125 12.34375l8.796875 0zm-8.796875 1.21875q0 6.390625 1.1875 9.421875q1.203125 3.03125 3.21875 3.03125q4.34375 0 4.390625 -12.453125l-8.796875 0z" fill-rule="nonzero"></path><path fill="#000000" fill-opacity="0.0" d="m235.18767 175.91602l-42.61418 0" fill-rule="nonzero"></path><path stroke="#000000" stroke-width="2.0" stroke-linejoin="round" stroke-linecap="butt" d="m235.18767 175.91602l-42.61418 0" fill-rule="nonzero"></path><path fill="#000000" fill-opacity="0.0" d="m191.38058 175.11023l0 37.95276" fill-rule="nonzero"></path><path stroke="#000000" stroke-width="2.0" stroke-linejoin="round" stroke-linecap="butt" d="m191.38058 175.11023l0 37.95276" fill-rule="nonzero"></path><path fill="#000000" fill-opacity="0.0" d="m260.38977 128.2441l29.228333 0l0 33.88977l-29.228333 0z" fill-rule="nonzero"></path><path fill="#ff0000" d="m269.56165 147.83096l3.5 0l2.96875 8.84375l2.90625 -8.84375l3.421875 0l-4.40625 11.984375l-0.78125 2.171875q-0.4375 1.09375 -0.828125 1.65625q-0.390625 0.578125 -0.90625 0.9375q-0.5 0.359375 -1.25 0.546875q-0.734375 0.203125 -1.671875 0.203125q-0.953125 0 -1.875 -0.1875l-0.28125 -2.578125q0.765625 0.140625 1.390625 0.140625q1.140625 0 1.6875 -0.671875q0.5625 -0.671875 0.859375 -1.71875l-4.734375 -12.484375z" fill-rule="nonzero"></path><path fill="#000000" fill-opacity="0.0" d="m236.6459 79.580055l73.19684 0l0 79.81103l-73.19684 0z" fill-rule="nonzero"></path><path fill="#ff0000" d="m273.48965 121.05131q0 0.125 -0.015625 0.265625q-0.015625 0.140625 -0.046875 0.296875q-0.03125 0.15625 -0.078125 0.34375q-0.046875 0.1875 -0.109375 0.40625l-9.59375 26.718742q-0.125 0.34375 -0.328125 0.5625q-0.203125 0.21875 -0.609375 0.34375q-0.40625 0.125 -1.03125 0.171875q-0.625 0.046875 -1.5625 0.046875q-0.9375 0 -1.5625 -0.0625q-0.625 -0.0625 -1.015625 -0.1875q-0.390625 -0.125 -0.609375 -0.34375q-0.21875 -0.21875 -0.34375 -0.53125l-9.5625 -26.718742q-0.125 -0.375 -0.203125 -0.65625q-0.078125 -0.28125 -0.09375 -0.421875q-0.015625 -0.140625 -0.015625 -0.234375q0 -0.25 0.125 -0.4375q0.125 -0.1875 0.421875 -0.296875q0.296875 -0.109375 0.78125 -0.140625q0.484375 -0.03125 1.203125 -0.03125q0.90625 0 1.453125 0.046875q0.546875 0.046875 0.84375 0.171875q0.296875 0.125 0.4375 0.3125q0.140625 0.1875 0.265625 0.46875l7.9375 23.187492l0.125 0.375l0.09375 -0.375l7.84375 -23.187492q0.0625 -0.28125 0.21875 -0.46875q0.15625 -0.1875 0.453125 -0.3125q0.296875 -0.125 0.8125 -0.171875q0.515625 -0.046875 1.359375 -0.046875q0.71875 0 1.1875 0.03125q0.46875 0.03125 0.734375 0.15625q0.265625 0.125 0.375 0.296875q0.109375 0.171875 0.109375 0.421875z" fill-rule="nonzero"></path><path fill="#000000" fill-opacity="0.0" d="m108.38976 232.2441l29.22834 0l0 33.889755l-29.22834 0z" fill-rule="nonzero"></path><path fill="#4a86e8" d="m117.53039 264.2841l4.484375 -6.40625l-4.296875 -6.046875l4.015625 0l2.203125 3.421875l2.328125 -3.421875l3.8593826 0l-4.2187576 5.90625l4.6093826 6.546875l-4.0468826 0l-2.53125 -3.859375l-2.546875 3.859375l-3.859375 0z" fill-rule="nonzero"></path></g></svg>

