<?xml version="1.0" encoding="UTF-8" standalone="no"?><!DOCTYPE svg PUBLIC "-//W3C//DTD SVG 1.1//EN" "http://www.w3.org/Graphics/SVG/1.1/DTD/svg11.dtd"><!-- Generated by graphviz version 2.40.1 (20161225.0304)
 --><!-- Title: G Pages: 1 --><svg xmlns="http://www.w3.org/2000/svg" xmlns:xlink="http://www.w3.org/1999/xlink" width="558pt" height="263pt" viewBox="0.00 0.00 558.00 263.00">
<g id="graph0" class="graph" transform="scale(1 1) rotate(0) translate(4 259)">
<title>G</title>
<polygon fill="#ffffff" stroke="transparent" points="-4,4 -4,-259 553.9998,-259 553.9998,4 -4,4"/>
<g id="clust1" class="cluster">
<title>cluster_2</title>
<polygon fill="none" stroke="#ff0000" points="379.5029,-8 379.5029,-247 541.9998,-247 541.9998,-8 379.5029,-8"/>
<text text-anchor="middle" x="460.7514" y="-230.4" font-family="Times,serif" font-size="14.00" fill="#000000">expressions</text>
</g>
<!-- expression_1aB -->
<g id="node1" class="node">
<title>expression_1aB</title>
<ellipse fill="none" stroke="#000000" cx="460.7514" cy="-142" rx="72.9353" ry="18"/>
<text text-anchor="middle" x="460.7514" y="-137.8" font-family="Times,serif" font-size="14.00" fill="#000000">expression_1aB</text>
</g>
<!-- expression_2aA -->
<g id="node2" class="node">
<title>expression_2aA</title>
<ellipse fill="none" stroke="#000000" cx="460.7514" cy="-34" rx="73.4978" ry="18"/>
<text text-anchor="middle" x="460.7514" y="-29.8" font-family="Times,serif" font-size="14.00" fill="#000000">expression_2aA</text>
</g>
<!-- expression_1aB&#45;&gt;expression_2aA -->
<g id="edge1" class="edge">
<title>expression_1aB-&gt;expression_2aA</title>
<path fill="none" stroke="#000000" d="M460.7514,-123.9498C460.7514,-107.182 460.7514,-81.9403 460.7514,-62.46"/>
<polygon fill="#000000" stroke="#000000" points="464.2515,-62.3207 460.7514,-52.3207 457.2515,-62.3208 464.2515,-62.3207"/>
<text text-anchor="middle" x="449.3514" y="-83.8" font-family="Times,serif" font-size="14.00" fill="#000000">derivation</text>
</g>
<!-- expression_1aA -->
<g id="node3" class="node">
<title>expression_1aA</title>
<ellipse fill="none" stroke="#000000" cx="460.7514" cy="-196" rx="73.4978" ry="18"/>
<text text-anchor="middle" x="460.7514" y="-191.8" font-family="Times,serif" font-size="14.00" fill="#000000">expression_1aA</text>
</g>
<!-- Physics -->
<g id="node4" class="node">
<title>Physics</title>
<ellipse fill="none" stroke="#000000" cx="40.5433" cy="-108" rx="40.5867" ry="18"/>
<text text-anchor="middle" x="40.5433" y="-103.8" font-family="Times,serif" font-size="14.00" fill="#000000">Physics</text>
</g>
<!-- topic_1 -->
<g id="node5" class="node">
<title>topic_1</title>
<ellipse fill="none" stroke="#000000" cx="158.091" cy="-139" rx="40.0089" ry="18"/>
<text text-anchor="middle" x="158.091" y="-134.8" font-family="Times,serif" font-size="14.00" fill="#000000">topic_1</text>
</g>
<!-- Physics&#45;&gt;topic_1 -->
<g id="edge2" class="edge">
<title>Physics-&gt;topic_1</title>
<path fill="none" stroke="#000000" d="M75.4932,-117.2171C87.4549,-120.3716 101.0013,-123.9441 113.6128,-127.2701"/>
<polygon fill="#000000" stroke="#000000" points="112.9165,-130.7061 123.4784,-129.8719 114.7016,-123.9375 112.9165,-130.7061"/>
</g>
<!-- topic_2 -->
<g id="node7" class="node">
<title>topic_2</title>
<ellipse fill="none" stroke="#000000" cx="158.091" cy="-82" rx="40.0089" ry="18"/>
<text text-anchor="middle" x="158.091" y="-77.8" font-family="Times,serif" font-size="14.00" fill="#000000">topic_2</text>
</g>
<!-- Physics&#45;&gt;topic_2 -->
<g id="edge6" class="edge">
<title>Physics-&gt;topic_2</title>
<path fill="none" stroke="#000000" d="M77.0918,-99.916C88.1425,-97.4717 100.4226,-94.7555 112.0112,-92.1922"/>
<polygon fill="#000000" stroke="#000000" points="112.9608,-95.5669 121.9689,-89.9897 111.449,-88.7321 112.9608,-95.5669"/>
</g>
<!-- subtopic_1a -->
<g id="node6" class="node">
<title>subtopic_1a</title>
<ellipse fill="none" stroke="#000000" cx="292.7992" cy="-142" rx="57.9081" ry="18"/>
<text text-anchor="middle" x="292.7992" y="-137.8" font-family="Times,serif" font-size="14.00" fill="#000000">subtopic_1a</text>
</g>
<!-- topic_1&#45;&gt;subtopic_1a -->
<g id="edge3" class="edge">
<title>topic_1-&gt;subtopic_1a</title>
<path fill="none" stroke="#000000" d="M198.1432,-139.892C206.6864,-140.0822 215.935,-140.2882 225.1901,-140.4943"/>
<polygon fill="#000000" stroke="#000000" points="225.1267,-143.9937 235.2022,-140.7173 225.2826,-136.9954 225.1267,-143.9937"/>
</g>
<!-- subtopic_1a&#45;&gt;expression_1aB -->
<g id="edge5" class="edge">
<title>subtopic_1a-&gt;expression_1aB</title>
<path fill="none" stroke="#000000" d="M350.5988,-142C359.4486,-142 368.7293,-142 377.9903,-142"/>
<polygon fill="#000000" stroke="#000000" points="378.0105,-145.5001 388.0104,-142 378.0104,-138.5001 378.0105,-145.5001"/>
</g>
<!-- subtopic_1a&#45;&gt;expression_1aA -->
<g id="edge4" class="edge">
<title>subtopic_1a-&gt;expression_1aA</title>
<path fill="none" stroke="#000000" d="M333.0279,-154.9343C355.0337,-162.0096 382.6001,-170.8728 406.4853,-178.5524"/>
<polygon fill="#000000" stroke="#000000" points="405.5326,-181.9225 416.124,-181.6514 407.6753,-175.2584 405.5326,-181.9225"/>
</g>
<!-- subtopic_2a -->
<g id="node8" class="node">
<title>subtopic_2a</title>
<ellipse fill="none" stroke="#000000" cx="292.7992" cy="-62" rx="57.9081" ry="18"/>
<text text-anchor="middle" x="292.7992" y="-57.8" font-family="Times,serif" font-size="14.00" fill="#000000">subtopic_2a</text>
</g>
<!-- topic_2&#45;&gt;subtopic_2a -->
<g id="edge7" class="edge">
<title>topic_2-&gt;subtopic_2a</title>
<path fill="none" stroke="#000000" d="M196.3327,-76.3223C206.9211,-74.7502 218.6981,-73.0017 230.2832,-71.2817"/>
<polygon fill="#000000" stroke="#000000" points="231.0025,-74.7134 240.38,-69.7826 229.9744,-67.7893 231.0025,-74.7134"/>
</g>
<!-- subtopic_2a&#45;&gt;expression_2aA -->
<g id="edge8" class="edge">
<title>subtopic_2a-&gt;expression_2aA</title>
<path fill="none" stroke="#000000" d="M344.103,-53.4469C358.5845,-51.0327 374.6018,-48.3624 390.0094,-45.7937"/>
<polygon fill="#000000" stroke="#000000" points="390.7358,-49.221 400.024,-44.1241 389.5846,-42.3163 390.7358,-49.221"/>
</g>
</g>
</svg>