<?xml version="1.0" encoding="UTF-8" standalone="no"?><!DOCTYPE svg PUBLIC "-//W3C//DTD SVG 1.1//EN" "http://www.w3.org/Graphics/SVG/1.1/DTD/svg11.dtd"><!-- Generated by graphviz version 2.40.1 (20161225.0304)
 --><!-- Title: G Pages: 1 --><svg xmlns="http://www.w3.org/2000/svg" xmlns:xlink="http://www.w3.org/1999/xlink" width="2135pt" height="911pt" viewBox="0.00 0.00 2134.76 911.00">
<g id="graph0" class="graph" transform="scale(1 1) rotate(0) translate(4 907)">
<title>G</title>
<polygon fill="#ffffff" stroke="transparent" points="-4,4 -4,-907 2130.764,-907 2130.764,4 -4,4"/>
<g id="clust1" class="cluster">
<title>cluster_1</title>
<polygon fill="none" stroke="#0000ff" points="1894.0087,-8 1894.0087,-895 2118.764,-895 2118.764,-8 1894.0087,-8"/>
<text text-anchor="middle" x="2006.3864" y="-878.4" font-family="Times,serif" font-size="14.00" fill="#000000">variables and constants</text>
</g>
<g id="clust2" class="cluster">
<title>cluster_2</title>
<polygon fill="none" stroke="#ff0000" points="1583.704,-170 1583.704,-571 1874.0087,-571 1874.0087,-170 1583.704,-170"/>
<text text-anchor="middle" x="1728.8564" y="-554.4" font-family="Times,serif" font-size="14.00" fill="#000000">expressions</text>
</g>
<!-- t: time -->
<g id="node1" class="node">
<title>t: time</title>
<ellipse fill="none" stroke="#000000" cx="2006.3864" cy="-142" rx="35.9685" ry="18"/>
<text text-anchor="middle" x="2006.3864" y="-137.8" font-family="Times,serif" font-size="14.00" fill="#000000">t: time</text>
</g>
<!-- E: energy -->
<g id="node2" class="node">
<title>E: energy</title>
<ellipse fill="none" stroke="#000000" cx="2006.3864" cy="-682" rx="48.1157" ry="18"/>
<text text-anchor="middle" x="2006.3864" y="-677.8" font-family="Times,serif" font-size="14.00" fill="#000000">E: energy</text>
</g>
<!-- p: momentum -->
<g id="node3" class="node">
<title>p: momentum</title>
<ellipse fill="none" stroke="#000000" cx="2006.3864" cy="-304" rx="64.9102" ry="18"/>
<text text-anchor="middle" x="2006.3864" y="-299.8" font-family="Times,serif" font-size="14.00" fill="#000000">p: momentum</text>
</g>
<!-- F: force -->
<g id="node4" class="node">
<title>F: force</title>
<ellipse fill="none" stroke="#000000" cx="2006.3864" cy="-358" rx="41.1691" ry="18"/>
<text text-anchor="middle" x="2006.3864" y="-353.8" font-family="Times,serif" font-size="14.00" fill="#000000">F: force</text>
</g>
<!-- m: mass -->
<g id="node5" class="node">
<title>m: mass</title>
<ellipse fill="none" stroke="#000000" cx="2006.3864" cy="-790" rx="42.9132" ry="18"/>
<text text-anchor="middle" x="2006.3864" y="-785.8" font-family="Times,serif" font-size="14.00" fill="#000000">m: mass</text>
</g>
<!-- \\gamma: lorentz factor -->
<g id="node6" class="node">
<title>\\gamma: lorentz factor</title>
<ellipse fill="none" stroke="#000000" cx="2006.3864" cy="-844" rx="98.9723" ry="18"/>
<text text-anchor="middle" x="2006.3864" y="-839.8" font-family="Times,serif" font-size="14.00" fill="#000000">\gamma: lorentz factor</text>
</g>
<!-- v: velocity -->
<g id="node7" class="node">
<title>v: velocity</title>
<ellipse fill="none" stroke="#000000" cx="2006.3864" cy="-466" rx="52.1456" ry="18"/>
<text text-anchor="middle" x="2006.3864" y="-461.8" font-family="Times,serif" font-size="14.00" fill="#000000">v: velocity</text>
</g>
<!-- B: magnetic field -->
<g id="node8" class="node">
<title>B: magnetic field</title>
<ellipse fill="none" stroke="#000000" cx="2006.3864" cy="-34" rx="78.1656" ry="18"/>
<text text-anchor="middle" x="2006.3864" y="-29.8" font-family="Times,serif" font-size="14.00" fill="#000000">B: magnetic field</text>
</g>
<!-- E: electric field -->
<g id="node9" class="node">
<title>E: electric field</title>
<ellipse fill="none" stroke="#000000" cx="2006.3864" cy="-88" rx="70.6162" ry="18"/>
<text text-anchor="middle" x="2006.3864" y="-83.8" font-family="Times,serif" font-size="14.00" fill="#000000">E: electric field</text>
</g>
<!-- h: Planck constant -->
<g id="node10" class="node">
<title>h: Planck constant</title>
<ellipse fill="none" stroke="#000000" cx="2006.3864" cy="-250" rx="81.6828" ry="18"/>
<text text-anchor="middle" x="2006.3864" y="-245.8" font-family="Times,serif" font-size="14.00" fill="#000000">h: Planck constant</text>
</g>
<!-- a: acceleration -->
<g id="node11" class="node">
<title>a: acceleration</title>
<ellipse fill="none" stroke="#000000" cx="2006.3864" cy="-412" rx="67.1284" ry="18"/>
<text text-anchor="middle" x="2006.3864" y="-407.8" font-family="Times,serif" font-size="14.00" fill="#000000">a: acceleration</text>
</g>
<!-- i: sqrt of &#45;1 -->
<g id="node12" class="node">
<title>i: sqrt of -1</title>
<ellipse fill="none" stroke="#000000" cx="2006.3864" cy="-196" rx="54.4321" ry="18"/>
<text text-anchor="middle" x="2006.3864" y="-191.8" font-family="Times,serif" font-size="14.00" fill="#000000">i: sqrt of -1</text>
</g>
<!-- f: frequency -->
<g id="node13" class="node">
<title>f: frequency</title>
<ellipse fill="none" stroke="#000000" cx="2006.3864" cy="-736" rx="57.9057" ry="18"/>
<text text-anchor="middle" x="2006.3864" y="-731.8" font-family="Times,serif" font-size="14.00" fill="#000000">f: frequency</text>
</g>
<!-- S: entropy -->
<g id="node14" class="node">
<title>S: entropy</title>
<ellipse fill="none" stroke="#000000" cx="2006.3864" cy="-574" rx="51.0035" ry="18"/>
<text text-anchor="middle" x="2006.3864" y="-569.8" font-family="Times,serif" font-size="14.00" fill="#000000">S: entropy</text>
</g>
<!-- k_B: Boltzman constant -->
<g id="node15" class="node">
<title>k_B: Boltzman constant</title>
<ellipse fill="none" stroke="#000000" cx="2006.3864" cy="-628" rx="104.2554" ry="18"/>
<text text-anchor="middle" x="2006.3864" y="-623.8" font-family="Times,serif" font-size="14.00" fill="#000000">k_B: Boltzman constant</text>
</g>
<!-- \\Omega: configurations -->
<g id="node16" class="node">
<title>\\Omega: configurations</title>
<ellipse fill="none" stroke="#000000" cx="2006.3864" cy="-520" rx="102.4678" ry="18"/>
<text text-anchor="middle" x="2006.3864" y="-515.8" font-family="Times,serif" font-size="14.00" fill="#000000">\Omega: configurations</text>
</g>
<!-- F = m (dv/dt) = m a -->
<g id="node17" class="node">
<title>F = m (dv/dt) = m a</title>
<ellipse fill="none" stroke="#000000" cx="1728.8564" cy="-358" rx="87.2495" ry="18"/>
<text text-anchor="middle" x="1728.8564" y="-353.8" font-family="Times,serif" font-size="14.00" fill="#000000">F = m (dv/dt) = m a</text>
</g>
<!-- F = m (dv/dt) = m a&#45;&gt;t: time -->
<g id="edge9" class="edge">
<title>F = m (dv/dt) = m a-&gt;t: time</title>
<path fill="none" stroke="#000000" d="M1816.2679,-359.2654C1837.8154,-355.2744 1858.9924,-346.9626 1874.0087,-331 1923.7168,-278.1594 1845.688,-223.1121 1894.0087,-169 1910.4821,-150.5523 1937.1442,-143.6098 1960.3647,-141.3701"/>
<polygon fill="#000000" stroke="#000000" points="1960.6739,-144.857 1970.4031,-140.6626 1960.1818,-137.8744 1960.6739,-144.857"/>
</g>
<!-- F = m (dv/dt) = m a&#45;&gt;p: momentum -->
<g id="edge8" class="edge">
<title>F = m (dv/dt) = m a-&gt;p: momentum</title>
<path fill="none" stroke="#000000" d="M1794.6565,-346.0092C1819.5369,-341.4099 1848.0954,-336.0524 1874.0087,-331 1896.9677,-326.5237 1922.1279,-321.4375 1944.2902,-316.896"/>
<polygon fill="#000000" stroke="#000000" points="1945.1519,-320.2922 1954.2433,-314.8518 1943.7436,-313.4353 1945.1519,-320.2922"/>
</g>
<!-- F = m (dv/dt) = m a&#45;&gt;F: force -->
<g id="edge10" class="edge">
<title>F = m (dv/dt) = m a-&gt;F: force</title>
<path fill="none" stroke="#000000" d="M1816.2877,-358C1861.7935,-358 1915.8732,-358 1954.695,-358"/>
<polygon fill="#000000" stroke="#000000" points="1954.7201,-361.5001 1964.72,-358 1954.72,-354.5001 1954.7201,-361.5001"/>
</g>
<!-- F = m (dv/dt) = m a&#45;&gt;m: mass -->
<g id="edge7" class="edge">
<title>F = m (dv/dt) = m a-&gt;m: mass</title>
<path fill="none" stroke="#000000" d="M1815.8886,-355.8427C1837.833,-359.7437 1859.3065,-368.2328 1874.0087,-385 1929.4665,-448.247 1840.2101,-698.3358 1894.0087,-763 1908.3554,-780.2442 1931.6028,-787.5764 1953.2411,-790.3652"/>
<polygon fill="#000000" stroke="#000000" points="1953.062,-793.8645 1963.3588,-791.3696 1953.7536,-786.8988 1953.062,-793.8645"/>
</g>
<!-- F = m (dv/dt) = m a&#45;&gt;v: velocity -->
<g id="edge12" class="edge">
<title>F = m (dv/dt) = m a-&gt;v: velocity</title>
<path fill="none" stroke="#000000" d="M1816.2134,-359.6229C1837.0108,-363.7303 1857.8349,-371.3769 1874.0087,-385 1893.5835,-401.4876 1874.8682,-422.0102 1894.0087,-439 1907.9364,-451.3627 1926.5363,-458.3102 1944.5899,-462.144"/>
<polygon fill="#000000" stroke="#000000" points="1944.0627,-465.6056 1954.5303,-463.9682 1945.3263,-458.7206 1944.0627,-465.6056"/>
</g>
<!-- F = m (dv/dt) = m a&#45;&gt;a: acceleration -->
<g id="edge11" class="edge">
<title>F = m (dv/dt) = m a-&gt;a: acceleration</title>
<path fill="none" stroke="#000000" d="M1794.6565,-369.9908C1819.5369,-374.5901 1848.0954,-379.9476 1874.0087,-385 1896.6682,-389.418 1921.4719,-394.4299 1943.4215,-398.926"/>
<polygon fill="#000000" stroke="#000000" points="1942.788,-402.3689 1953.2876,-400.9515 1944.1958,-395.5119 1942.788,-402.3689"/>
</g>
<!-- p = \\gamma m v -->
<g id="node18" class="node">
<title>p = \\gamma m v</title>
<ellipse fill="none" stroke="#000000" cx="1728.8564" cy="-520" rx="74.336" ry="18"/>
<text text-anchor="middle" x="1728.8564" y="-515.8" font-family="Times,serif" font-size="14.00" fill="#000000">p = \gamma m v</text>
</g>
<!-- p = \\gamma m v&#45;&gt;p: momentum -->
<g id="edge16" class="edge">
<title>p = \\gamma m v-&gt;p: momentum</title>
<path fill="none" stroke="#000000" d="M1802.2875,-523.2829C1828.3627,-520.5132 1855.7433,-512.4165 1874.0087,-493 1923.7168,-440.1594 1845.688,-385.1121 1894.0087,-331 1903.8903,-319.9341 1917.438,-313.0081 1931.7098,-308.7536"/>
<polygon fill="#000000" stroke="#000000" points="1932.8431,-312.0768 1941.6699,-306.217 1931.1154,-305.2933 1932.8431,-312.0768"/>
</g>
<!-- p = \\gamma m v&#45;&gt;m: mass -->
<g id="edge19" class="edge">
<title>p = \\gamma m v-&gt;m: mass</title>
<path fill="none" stroke="#000000" d="M1735.6669,-538.0105C1753.8321,-583.4852 1807.9914,-703.5405 1894.0087,-763 1911.5176,-775.103 1933.8116,-781.8117 1953.9187,-785.5185"/>
<polygon fill="#000000" stroke="#000000" points="1953.4549,-788.9891 1963.8892,-787.1518 1954.5865,-782.0812 1953.4549,-788.9891"/>
</g>
<!-- p = \\gamma m v&#45;&gt;\\gamma: lorentz factor -->
<g id="edge18" class="edge">
<title>p = \\gamma m v-&gt;\\gamma: lorentz factor</title>
<path fill="none" stroke="#000000" d="M1733.3802,-538.0636C1747.4177,-590.2149 1795.3431,-742.0641 1894.0087,-817 1900.7849,-822.1464 1908.3997,-826.3287 1916.3894,-829.7251"/>
<polygon fill="#000000" stroke="#000000" points="1915.3224,-833.0641 1925.913,-833.3617 1917.8196,-826.5246 1915.3224,-833.0641"/>
</g>
<!-- p = \\gamma m v&#45;&gt;v: velocity -->
<g id="edge17" class="edge">
<title>p = \\gamma m v-&gt;v: velocity</title>
<path fill="none" stroke="#000000" d="M1788.5756,-509.1318C1814.8053,-504.2963 1845.9569,-498.4693 1874.0087,-493 1899.5918,-488.012 1927.9081,-482.2669 1951.7642,-477.3618"/>
<polygon fill="#000000" stroke="#000000" points="1952.6064,-480.7619 1961.6942,-475.3157 1951.1936,-473.9059 1952.6064,-480.7619"/>
</g>
<!-- \\nabla \\cross E = &#45;(\\del B)/(del t) -->
<g id="node19" class="node">
<title>\\nabla \\cross E = -(\\del B)/(del t)</title>
<ellipse fill="none" stroke="#000000" cx="1728.8564" cy="-196" rx="137.3049" ry="18"/>
<text text-anchor="middle" x="1728.8564" y="-191.8" font-family="Times,serif" font-size="14.00" fill="#000000">\nabla \cross E = -(\del B)/(del t)</text>
</g>
<!-- \\nabla \\cross E = &#45;(\\del B)/(del t)&#45;&gt;t: time -->
<g id="edge25" class="edge">
<title>\\nabla \\cross E = -(\\del B)/(del t)-&gt;t: time</title>
<path fill="none" stroke="#000000" d="M1805.7954,-181.0297C1856.3309,-171.1968 1920.6176,-158.6883 1962.6023,-150.5192"/>
<polygon fill="#000000" stroke="#000000" points="1963.365,-153.9365 1972.5125,-148.591 1962.0281,-147.0654 1963.365,-153.9365"/>
</g>
<!-- \\nabla \\cross E = &#45;(\\del B)/(del t)&#45;&gt;B: magnetic field -->
<g id="edge27" class="edge">
<title>\\nabla \\cross E = -(\\del B)/(del t)-&gt;B: magnetic field</title>
<path fill="none" stroke="#000000" d="M1745.3073,-178.1054C1773.0814,-149.0067 1832.3044,-91.6125 1894.0087,-61 1905.8257,-55.1374 1918.9846,-50.5053 1932.0167,-46.8583"/>
<polygon fill="#000000" stroke="#000000" points="1933.1486,-50.1799 1941.9335,-44.2574 1931.3727,-43.4089 1933.1486,-50.1799"/>
</g>
<!-- \\nabla \\cross E = &#45;(\\del B)/(del t)&#45;&gt;E: electric field -->
<g id="edge26" class="edge">
<title>\\nabla \\cross E = -(\\del B)/(del t)-&gt;E: electric field</title>
<path fill="none" stroke="#000000" d="M1759.6185,-178.3517C1792.1305,-160.3174 1845.3378,-132.5398 1894.0087,-115 1908.7194,-109.6986 1924.8876,-105.1229 1940.2626,-101.3222"/>
<polygon fill="#000000" stroke="#000000" points="1941.318,-104.6685 1950.2285,-98.9367 1939.6884,-97.8608 1941.318,-104.6685"/>
</g>
<!-- i (h/(2 \\pi)) (d/dt)\\Psi = H \\Psi -->
<g id="node20" class="node">
<title>i (h/(2 \\pi)) (d/dt)\\Psi = H \\Psi</title>
<ellipse fill="none" stroke="#000000" cx="1728.8564" cy="-250" rx="126.4088" ry="18"/>
<text text-anchor="middle" x="1728.8564" y="-245.8" font-family="Times,serif" font-size="14.00" fill="#000000">i (h/(2 \pi)) (d/dt)\Psi = H \Psi</text>
</g>
<!-- i (h/(2 \\pi)) (d/dt)\\Psi = H \\Psi&#45;&gt;t: time -->
<g id="edge50" class="edge">
<title>i (h/(2 \\pi)) (d/dt)\\Psi = H \\Psi-&gt;t: time</title>
<path fill="none" stroke="#000000" d="M1840.8837,-241.5934C1852.926,-237.1962 1864.3044,-231.1738 1874.0087,-223 1893.5835,-206.5124 1874.8682,-185.9898 1894.0087,-169 1912.0321,-153.0018 1937.8795,-146.0721 1960.2422,-143.223"/>
<polygon fill="#000000" stroke="#000000" points="1960.6473,-146.6999 1970.2312,-142.1833 1959.9225,-139.7375 1960.6473,-146.6999"/>
</g>
<!-- i (h/(2 \\pi)) (d/dt)\\Psi = H \\Psi&#45;&gt;h: Planck constant -->
<g id="edge49" class="edge">
<title>i (h/(2 \\pi)) (d/dt)\\Psi = H \\Psi-&gt;h: Planck constant</title>
<path fill="none" stroke="#000000" d="M1855.4392,-250C1875.3129,-250 1895.5225,-250 1914.4205,-250"/>
<polygon fill="#000000" stroke="#000000" points="1914.473,-253.5001 1924.473,-250 1914.473,-246.5001 1914.473,-253.5001"/>
</g>
<!-- i (h/(2 \\pi)) (d/dt)\\Psi = H \\Psi&#45;&gt;i: sqrt of &#45;1 -->
<g id="edge48" class="edge">
<title>i (h/(2 \\pi)) (d/dt)\\Psi = H \\Psi-&gt;i: sqrt of -1</title>
<path fill="none" stroke="#000000" d="M1806.8708,-235.7449C1828.6188,-231.7013 1852.2466,-227.243 1874.0087,-223 1899.0882,-218.1102 1926.7944,-212.4928 1950.3503,-207.6525"/>
<polygon fill="#000000" stroke="#000000" points="1951.0833,-211.075 1960.1718,-205.63 1949.6714,-204.2189 1951.0833,-211.075"/>
</g>
<!-- E = h f -->
<g id="node21" class="node">
<title>E = h f</title>
<ellipse fill="none" stroke="#000000" cx="1728.8564" cy="-466" rx="37.8357" ry="18"/>
<text text-anchor="middle" x="1728.8564" y="-461.8" font-family="Times,serif" font-size="14.00" fill="#000000">E = h f</text>
</g>
<!-- E = h f&#45;&gt;E: energy -->
<g id="edge52" class="edge">
<title>E = h f-&gt;E: energy</title>
<path fill="none" stroke="#000000" d="M1765.7766,-461.7936C1799.0102,-460.2438 1846.6984,-463.9686 1874.0087,-493 1923.7168,-545.8406 1845.688,-600.8879 1894.0087,-655 1907.6141,-670.236 1928.1695,-677.6242 1947.9959,-680.9967"/>
<polygon fill="#000000" stroke="#000000" points="1947.5586,-684.4694 1957.9455,-682.3806 1948.5231,-677.5362 1947.5586,-684.4694"/>
</g>
<!-- E = h f&#45;&gt;h: Planck constant -->
<g id="edge53" class="edge">
<title>E = h f-&gt;h: Planck constant</title>
<path fill="none" stroke="#000000" d="M1765.7766,-470.2064C1799.0102,-471.7562 1846.6984,-468.0314 1874.0087,-439 1923.7168,-386.1594 1845.688,-331.1121 1894.0087,-277 1900.9464,-269.2308 1909.6911,-263.5023 1919.2249,-259.3062"/>
<polygon fill="#000000" stroke="#000000" points="1920.4806,-262.5733 1928.574,-255.7362 1917.9834,-256.0339 1920.4806,-262.5733"/>
</g>
<!-- E = h f&#45;&gt;f: frequency -->
<g id="edge54" class="edge">
<title>E = h f-&gt;f: frequency</title>
<path fill="none" stroke="#000000" d="M1765.6613,-461.619C1799.0529,-459.8963 1847.058,-463.4607 1874.0087,-493 1906.499,-528.6109 1862.453,-672.5584 1894.0087,-709 1905.3181,-722.0604 1921.7322,-729.3898 1938.538,-733.3658"/>
<polygon fill="#000000" stroke="#000000" points="1937.9517,-736.8177 1948.4426,-735.3372 1939.3183,-729.9523 1937.9517,-736.8177"/>
</g>
<!-- \\lambda_{deBroglie} = h/p -->
<g id="node22" class="node">
<title>\\lambda_{deBroglie} = h/p</title>
<ellipse fill="none" stroke="#000000" cx="1728.8564" cy="-304" rx="116.8788" ry="18"/>
<text text-anchor="middle" x="1728.8564" y="-299.8" font-family="Times,serif" font-size="14.00" fill="#000000">\lambda_{deBroglie} = h/p</text>
</g>
<!-- \\lambda_{deBroglie} = h/p&#45;&gt;p: momentum -->
<g id="edge45" class="edge">
<title>\\lambda_{deBroglie} = h/p-&gt;p: momentum</title>
<path fill="none" stroke="#000000" d="M1846.1518,-304C1874.8841,-304 1904.875,-304 1931.0351,-304"/>
<polygon fill="#000000" stroke="#000000" points="1931.2385,-307.5001 1941.2385,-304 1931.2384,-300.5001 1931.2385,-307.5001"/>
</g>
<!-- \\lambda_{deBroglie} = h/p&#45;&gt;h: Planck constant -->
<g id="edge44" class="edge">
<title>\\lambda_{deBroglie} = h/p-&gt;h: Planck constant</title>
<path fill="none" stroke="#000000" d="M1804.2403,-290.2336C1826.7037,-286.0624 1851.366,-281.4147 1874.0087,-277 1894.3926,-273.0257 1916.5115,-268.5708 1936.7271,-264.4431"/>
<polygon fill="#000000" stroke="#000000" points="1937.6978,-267.8171 1946.7928,-262.3829 1936.2941,-260.9592 1937.6978,-267.8171"/>
</g>
<!-- S = k_B ln \\Omega -->
<g id="node23" class="node">
<title>S = k_B ln \\Omega</title>
<ellipse fill="none" stroke="#000000" cx="1728.8564" cy="-412" rx="85.8717" ry="18"/>
<text text-anchor="middle" x="1728.8564" y="-407.8" font-family="Times,serif" font-size="14.00" fill="#000000">S = k_B ln \Omega</text>
</g>
<!-- S = k_B ln \\Omega&#45;&gt;S: entropy -->
<g id="edge35" class="edge">
<title>S = k_B ln \\Omega-&gt;S: entropy</title>
<path fill="none" stroke="#000000" d="M1814.5027,-411.1401C1836.4334,-415.0539 1858.2465,-423.2251 1874.0087,-439 1908.5131,-473.532 1860.4116,-511.5846 1894.0087,-547 1907.2949,-561.0052 1926.4667,-568.297 1945.2238,-571.9434"/>
<polygon fill="#000000" stroke="#000000" points="1944.8285,-575.425 1955.2603,-573.574 1945.9511,-568.5156 1944.8285,-575.425"/>
</g>
<!-- S = k_B ln \\Omega&#45;&gt;k_B: Boltzman constant -->
<g id="edge36" class="edge">
<title>S = k_B ln \\Omega-&gt;k_B: Boltzman constant</title>
<path fill="none" stroke="#000000" d="M1814.377,-410.3955C1836.5717,-414.246 1858.5533,-422.5706 1874.0087,-439 1923.7168,-491.8406 1845.688,-546.8879 1894.0087,-601 1898.394,-605.9109 1903.5014,-610.0065 1909.0736,-613.415"/>
<polygon fill="#000000" stroke="#000000" points="1907.6989,-616.6472 1918.1757,-618.2243 1910.9691,-610.458 1907.6989,-616.6472"/>
</g>
<!-- S = k_B ln \\Omega&#45;&gt;\\Omega: configurations -->
<g id="edge37" class="edge">
<title>S = k_B ln \\Omega-&gt;\\Omega: configurations</title>
<path fill="none" stroke="#000000" d="M1814.7009,-413.3304C1835.9984,-417.3631 1857.4428,-425.0467 1874.0087,-439 1893.5835,-455.4876 1874.8682,-476.0102 1894.0087,-493 1899.6314,-497.9909 1906.0155,-502.0992 1912.8177,-505.4764"/>
<polygon fill="#000000" stroke="#000000" points="1911.7566,-508.8327 1922.3204,-509.6427 1914.5674,-502.4218 1911.7566,-508.8327"/>
</g>
<!-- domains of Physics -->
<g id="node24" class="node">
<title>domains of Physics</title>
<ellipse fill="none" stroke="#000000" cx="86.1386" cy="-304" rx="86.2774" ry="18"/>
<text text-anchor="middle" x="86.1386" y="-299.8" font-family="Times,serif" font-size="14.00" fill="#000000">domains of Physics</text>
</g>
<!-- classical mechanics (slow, big) -->
<g id="node25" class="node">
<title>classical mechanics (slow, big)</title>
<ellipse fill="none" stroke="#000000" cx="339.4441" cy="-350" rx="131.3341" ry="18"/>
<text text-anchor="middle" x="339.4441" y="-345.8" font-family="Times,serif" font-size="14.00" fill="#000000">classical mechanics (slow, big)</text>
</g>
<!-- domains of Physics&#45;&gt;classical mechanics (slow, big) -->
<g id="edge1" class="edge">
<title>domains of Physics-&gt;classical mechanics (slow, big)</title>
<path fill="none" stroke="#000000" d="M151.371,-315.8461C181.3939,-321.2983 217.4924,-327.8537 250.0014,-333.7573"/>
<polygon fill="#000000" stroke="#000000" points="249.5,-337.2234 259.9645,-335.5666 250.7508,-330.3361 249.5,-337.2234"/>
</g>
<!-- non&#45;relativistic quantum mechanics -->
<g id="node26" class="node">
<title>non-relativistic quantum mechanics</title>
<ellipse fill="none" stroke="#000000" cx="1154.583" cy="-291" rx="148.7557" ry="18"/>
<text text-anchor="middle" x="1154.583" y="-286.8" font-family="Times,serif" font-size="14.00" fill="#000000">non-relativistic quantum mechanics</text>
</g>
<!-- domains of Physics&#45;&gt;non&#45;relativistic quantum mechanics -->
<g id="edge2" class="edge">
<title>domains of Physics-&gt;non-relativistic quantum mechanics</title>
<path fill="none" stroke="#000000" d="M167.1616,-297.8232C322.7408,-286.7838 674.1057,-265.8238 969.7052,-277 986.9943,-277.6537 1005.1734,-278.65 1023.1066,-279.8164"/>
<polygon fill="#000000" stroke="#000000" points="1023.1198,-283.325 1033.3313,-280.5009 1023.5875,-276.3406 1023.1198,-283.325"/>
</g>
<!-- relativity -->
<g id="node27" class="node">
<title>relativity</title>
<ellipse fill="none" stroke="#000000" cx="339.4441" cy="-523" rx="45.8002" ry="18"/>
<text text-anchor="middle" x="339.4441" y="-518.8" font-family="Times,serif" font-size="14.00" fill="#000000">relativity</text>
</g>
<!-- domains of Physics&#45;&gt;relativity -->
<g id="edge3" class="edge">
<title>domains of Physics-&gt;relativity</title>
<path fill="none" stroke="#000000" d="M106.4394,-321.5515C151.906,-360.8604 261.9045,-455.9617 312.7961,-499.9609"/>
<polygon fill="#000000" stroke="#000000" points="310.5836,-502.6748 320.4374,-506.5674 315.1617,-497.3795 310.5836,-502.6748"/>
</g>
<!-- quantum field theory -->
<g id="node28" class="node">
<title>quantum field theory</title>
<ellipse fill="none" stroke="#000000" cx="339.4441" cy="-212" rx="92.0586" ry="18"/>
<text text-anchor="middle" x="339.4441" y="-207.8" font-family="Times,serif" font-size="14.00" fill="#000000">quantum field theory</text>
</g>
<!-- domains of Physics&#45;&gt;quantum field theory -->
<g id="edge4" class="edge">
<title>domains of Physics-&gt;quantum field theory</title>
<path fill="none" stroke="#000000" d="M115.9542,-287.0709C140.2033,-273.8676 175.6295,-255.8417 208.2771,-244 226.2083,-237.4961 245.9932,-231.8937 264.6416,-227.2768"/>
<polygon fill="#000000" stroke="#000000" points="265.6677,-230.6298 274.5688,-224.8835 264.027,-223.8248 265.6677,-230.6298"/>
</g>
<!-- Newton&#39;s laws of motion -->
<g id="node29" class="node">
<title>Newton's laws of motion</title>
<ellipse fill="none" stroke="#000000" cx="615.5362" cy="-350" rx="108.8502" ry="18"/>
<text text-anchor="middle" x="615.5362" y="-345.8" font-family="Times,serif" font-size="14.00" fill="#000000">Newton's laws of motion</text>
</g>
<!-- classical mechanics (slow, big)&#45;&gt;Newton&#39;s laws of motion -->
<g id="edge5" class="edge">
<title>classical mechanics (slow, big)-&gt;Newton's laws of motion</title>
<path fill="none" stroke="#000000" d="M470.6173,-350C479.124,-350 487.6656,-350 496.1124,-350"/>
<polygon fill="#000000" stroke="#000000" points="496.36,-353.5001 506.36,-350 496.3599,-346.5001 496.36,-353.5001"/>
</g>
<!-- fluid dynamics -->
<g id="node32" class="node">
<title>fluid dynamics</title>
<ellipse fill="none" stroke="#000000" cx="615.5362" cy="-458" rx="68.9007" ry="18"/>
<text text-anchor="middle" x="615.5362" y="-453.8" font-family="Times,serif" font-size="14.00" fill="#000000">fluid dynamics</text>
</g>
<!-- classical mechanics (slow, big)&#45;&gt;fluid dynamics -->
<g id="edge20" class="edge">
<title>classical mechanics (slow, big)-&gt;fluid dynamics</title>
<path fill="none" stroke="#000000" d="M370.6365,-367.5545C403.5899,-385.5123 457.4824,-413.2283 506.6111,-431 520.7526,-436.1155 536.2689,-440.6009 551.0452,-444.3709"/>
<polygon fill="#000000" stroke="#000000" points="550.5829,-447.862 561.1308,-446.8657 552.2638,-441.0668 550.5829,-447.862"/>
</g>
<!-- electrodynamics -->
<g id="node34" class="node">
<title>electrodynamics</title>
<ellipse fill="none" stroke="#000000" cx="865.0832" cy="-304" rx="74.1354" ry="18"/>
<text text-anchor="middle" x="865.0832" y="-299.8" font-family="Times,serif" font-size="14.00" fill="#000000">electrodynamics</text>
</g>
<!-- classical mechanics (slow, big)&#45;&gt;electrodynamics -->
<g id="edge22" class="edge">
<title>classical mechanics (slow, big)-&gt;electrodynamics</title>
<path fill="none" stroke="#000000" d="M417.8724,-335.5532C445.7965,-330.882 477.5258,-326.1106 506.6111,-323 600.1233,-312.9991 707.9485,-308.1866 780.7204,-305.9208"/>
<polygon fill="#000000" stroke="#000000" points="780.8614,-309.4183 790.7511,-305.6177 780.6499,-302.4215 780.8614,-309.4183"/>
</g>
<!-- kinematics -->
<g id="node36" class="node">
<title>kinematics</title>
<ellipse fill="none" stroke="#000000" cx="615.5362" cy="-404" rx="52.745" ry="18"/>
<text text-anchor="middle" x="615.5362" y="-399.8" font-family="Times,serif" font-size="14.00" fill="#000000">kinematics</text>
</g>
<!-- classical mechanics (slow, big)&#45;&gt;kinematics -->
<g id="edge28" class="edge">
<title>classical mechanics (slow, big)-&gt;kinematics</title>
<path fill="none" stroke="#000000" d="M414.8875,-364.7557C460.6119,-373.6988 517.9617,-384.9157 559.6258,-393.0647"/>
<polygon fill="#000000" stroke="#000000" points="559.1105,-396.5301 569.5965,-395.0148 560.4543,-389.6603 559.1105,-396.5301"/>
</g>
<!-- deBroglie wavelength -->
<g id="node43" class="node">
<title>deBroglie wavelength</title>
<ellipse fill="none" stroke="#000000" cx="1447.5824" cy="-304" rx="96.0893" ry="18"/>
<text text-anchor="middle" x="1447.5824" y="-299.8" font-family="Times,serif" font-size="14.00" fill="#000000">deBroglie wavelength</text>
</g>
<!-- non&#45;relativistic quantum mechanics&#45;&gt;deBroglie wavelength -->
<g id="edge42" class="edge">
<title>non-relativistic quantum mechanics-&gt;deBroglie wavelength</title>
<path fill="none" stroke="#000000" d="M1294.6466,-297.2144C1311.1816,-297.9481 1327.8261,-298.6866 1343.7355,-299.3924"/>
<polygon fill="#000000" stroke="#000000" points="1343.9301,-302.9044 1354.0755,-299.8512 1344.2405,-295.9113 1343.9301,-302.9044"/>
</g>
<!-- Schrödinger equation -->
<g id="node44" class="node">
<title>Schrödinger equation</title>
<ellipse fill="none" stroke="#000000" cx="1447.5824" cy="-250" rx="96.8257" ry="18"/>
<text text-anchor="middle" x="1447.5824" y="-245.8" font-family="Times,serif" font-size="14.00" fill="#000000">Schrödinger equation</text>
</g>
<!-- non&#45;relativistic quantum mechanics&#45;&gt;Schrödinger equation -->
<g id="edge46" class="edge">
<title>non-relativistic quantum mechanics-&gt;Schrödinger equation</title>
<path fill="none" stroke="#000000" d="M1252.1475,-277.3476C1286.8466,-272.4921 1325.6836,-267.0576 1359.5385,-262.3202"/>
<polygon fill="#000000" stroke="#000000" points="1360.4567,-265.7259 1369.8752,-260.8737 1359.4866,-258.7934 1360.4567,-265.7259"/>
</g>
<!-- special relativity -->
<g id="node30" class="node">
<title>special relativity</title>
<ellipse fill="none" stroke="#000000" cx="615.5362" cy="-583" rx="75.2518" ry="18"/>
<text text-anchor="middle" x="615.5362" y="-578.8" font-family="Times,serif" font-size="14.00" fill="#000000">special relativity</text>
</g>
<!-- relativity&#45;&gt;special relativity -->
<g id="edge13" class="edge">
<title>relativity-&gt;special relativity</title>
<path fill="none" stroke="#000000" d="M379.8859,-531.7888C424.4913,-541.4824 496.9324,-557.2252 549.7367,-568.7005"/>
<polygon fill="#000000" stroke="#000000" points="549.1736,-572.1598 559.6888,-570.8633 550.6602,-565.3195 549.1736,-572.1598"/>
</g>
<!-- general relativity -->
<g id="node31" class="node">
<title>general relativity</title>
<ellipse fill="none" stroke="#000000" cx="615.5362" cy="-523" rx="76.9603" ry="18"/>
<text text-anchor="middle" x="615.5362" y="-518.8" font-family="Times,serif" font-size="14.00" fill="#000000">general relativity</text>
</g>
<!-- relativity&#45;&gt;general relativity -->
<g id="edge14" class="edge">
<title>relativity-&gt;general relativity</title>
<path fill="none" stroke="#000000" d="M385.345,-523C424.2013,-523 480.9825,-523 528.4272,-523"/>
<polygon fill="#000000" stroke="#000000" points="528.7094,-526.5001 538.7094,-523 528.7093,-519.5001 528.7094,-526.5001"/>
</g>
<!-- Newton&#39;s laws of motion&#45;&gt;F = m (dv/dt) = m a -->
<g id="edge6" class="edge">
<title>Newton's laws of motion-&gt;F = m (dv/dt) = m a</title>
<path fill="none" stroke="#000000" d="M724.5676,-350.7835C941.4157,-352.3417 1423.7374,-355.8075 1631.0507,-357.2972"/>
<polygon fill="#000000" stroke="#000000" points="1631.2875,-360.7989 1641.3124,-357.3709 1631.3379,-353.7991 1631.2875,-360.7989"/>
</g>
<!-- special relativity&#45;&gt;p = \\gamma m v -->
<g id="edge15" class="edge">
<title>special relativity-&gt;p = \\gamma m v</title>
<path fill="none" stroke="#000000" d="M687.3995,-588.2623C845.4393,-598.4539 1234.6816,-615.9866 1555.704,-569 1597.6252,-562.8642 1643.7225,-549.4786 1677.8073,-538.246"/>
<polygon fill="#000000" stroke="#000000" points="1679.1615,-541.4837 1687.5343,-534.9916 1676.9405,-534.8454 1679.1615,-541.4837"/>
</g>
<!-- Navier&#45;Stokes equation -->
<g id="node33" class="node">
<title>Navier-Stokes equation</title>
<ellipse fill="none" stroke="#000000" cx="865.0832" cy="-458" rx="101.8863" ry="18"/>
<text text-anchor="middle" x="865.0832" y="-453.8" font-family="Times,serif" font-size="14.00" fill="#000000">Navier-Stokes equation</text>
</g>
<!-- fluid dynamics&#45;&gt;Navier&#45;Stokes equation -->
<g id="edge21" class="edge">
<title>fluid dynamics-&gt;Navier-Stokes equation</title>
<path fill="none" stroke="#000000" d="M684.3866,-458C705.4991,-458 729.305,-458 752.5397,-458"/>
<polygon fill="#000000" stroke="#000000" points="752.8066,-461.5001 762.8066,-458 752.8065,-454.5001 752.8066,-461.5001"/>
</g>
<!-- plasma physics -->
<g id="node38" class="node">
<title>plasma physics</title>
<ellipse fill="none" stroke="#000000" cx="1154.583" cy="-504" rx="69.5428" ry="18"/>
<text text-anchor="middle" x="1154.583" y="-499.8" font-family="Times,serif" font-size="14.00" fill="#000000">plasma physics</text>
</g>
<!-- fluid dynamics&#45;&gt;plasma physics -->
<g id="edge33" class="edge">
<title>fluid dynamics-&gt;plasma physics</title>
<path fill="none" stroke="#000000" d="M668.2752,-469.6114C695.6429,-475.1819 729.7019,-481.4102 760.4613,-485 868.557,-497.6155 994.2712,-501.8904 1074.1076,-503.3183"/>
<polygon fill="#000000" stroke="#000000" points="1074.5206,-506.8256 1084.5779,-503.4939 1074.6381,-499.8266 1074.5206,-506.8256"/>
</g>
<!-- Maxwell&#39;s equations -->
<g id="node35" class="node">
<title>Maxwell's equations</title>
<ellipse fill="none" stroke="#000000" cx="1154.583" cy="-214" rx="91.5127" ry="18"/>
<text text-anchor="middle" x="1154.583" y="-209.8" font-family="Times,serif" font-size="14.00" fill="#000000">Maxwell's equations</text>
</g>
<!-- electrodynamics&#45;&gt;Maxwell&#39;s equations -->
<g id="edge23" class="edge">
<title>electrodynamics-&gt;Maxwell's equations</title>
<path fill="none" stroke="#000000" d="M910.9553,-289.7392C960.9365,-274.201 1041.0459,-249.2965 1095.6522,-232.3205"/>
<polygon fill="#000000" stroke="#000000" points="1097.0284,-235.5579 1105.5386,-229.247 1094.9503,-228.8735 1097.0284,-235.5579"/>
</g>
<!-- electrodynamics&#45;&gt;plasma physics -->
<g id="edge31" class="edge">
<title>electrodynamics-&gt;plasma physics</title>
<path fill="none" stroke="#000000" d="M898.4466,-320.2188C921.33,-332.8584 950.8521,-352.3828 969.7052,-377 998.4262,-414.5021 969.6473,-446.4854 1005.7052,-477 1024.8269,-493.1821 1050.361,-501.0549 1074.8769,-504.5635"/>
<polygon fill="#000000" stroke="#000000" points="1074.5858,-508.0536 1084.9327,-505.7755 1075.4234,-501.1039 1074.5858,-508.0536"/>
</g>
<!-- Maxwell&#39;s equations&#45;&gt;\\nabla \\cross E = &#45;(\\del B)/(del t) -->
<g id="edge24" class="edge">
<title>Maxwell's equations-&gt;\\nabla \\cross E = -(\\del B)/(del t)</title>
<path fill="none" stroke="#000000" d="M1245.2614,-211.1578C1336.5063,-208.2978 1478.5995,-203.844 1585.1917,-200.503"/>
<polygon fill="#000000" stroke="#000000" points="1585.5079,-203.9949 1595.3933,-200.1833 1585.2885,-196.9984 1585.5079,-203.9949"/>
</g>
<!-- non&#45;relativistic particles -->
<g id="node37" class="node">
<title>non-relativistic particles</title>
<ellipse fill="none" stroke="#000000" cx="865.0832" cy="-404" rx="104.7441" ry="18"/>
<text text-anchor="middle" x="865.0832" y="-399.8" font-family="Times,serif" font-size="14.00" fill="#000000">non-relativistic particles</text>
</g>
<!-- kinematics&#45;&gt;non&#45;relativistic particles -->
<g id="edge29" class="edge">
<title>kinematics-&gt;non-relativistic particles</title>
<path fill="none" stroke="#000000" d="M668.4587,-404C692.3912,-404 721.6736,-404 750.2555,-404"/>
<polygon fill="#000000" stroke="#000000" points="750.3262,-407.5001 760.3262,-404 750.3261,-400.5001 750.3262,-407.5001"/>
</g>
<!-- non&#45;relativistic particles&#45;&gt;non&#45;relativistic quantum mechanics -->
<g id="edge41" class="edge">
<title>non-relativistic particles-&gt;non-relativistic quantum mechanics</title>
<path fill="none" stroke="#000000" d="M907.489,-387.4478C958.7093,-367.4551 1044.9334,-333.7994 1100.7857,-311.9986"/>
<polygon fill="#000000" stroke="#000000" points="1102.1187,-315.2356 1110.1615,-308.339 1099.5734,-308.7147 1102.1187,-315.2356"/>
</g>
<!-- non&#45;relativistic particles&#45;&gt;plasma physics -->
<g id="edge30" class="edge">
<title>non-relativistic particles-&gt;plasma physics</title>
<path fill="none" stroke="#000000" d="M939.4185,-416.682C950.0755,-420.3157 960.5239,-424.9893 969.7052,-431 991.4255,-445.2198 983.4794,-463.584 1005.7052,-477 1026.4653,-489.5313 1051.6119,-496.5359 1075.282,-500.3702"/>
<polygon fill="#000000" stroke="#000000" points="1074.92,-503.8542 1085.3189,-501.8263 1075.925,-496.9268 1074.92,-503.8542"/>
</g>
<!-- statistical mechanics -->
<g id="node40" class="node">
<title>statistical mechanics</title>
<ellipse fill="none" stroke="#000000" cx="1154.583" cy="-396" rx="90.8589" ry="18"/>
<text text-anchor="middle" x="1154.583" y="-391.8" font-family="Times,serif" font-size="14.00" fill="#000000">statistical mechanics</text>
</g>
<!-- non&#45;relativistic particles&#45;&gt;statistical mechanics -->
<g id="edge38" class="edge">
<title>non-relativistic particles-&gt;statistical mechanics</title>
<path fill="none" stroke="#000000" d="M968.7816,-401.1344C996.6698,-400.3638 1026.7743,-399.5318 1054.4637,-398.7667"/>
<polygon fill="#000000" stroke="#000000" points="1054.6477,-402.263 1064.5472,-398.488 1054.4543,-395.2657 1054.6477,-402.263"/>
</g>
<!-- thermodynamics -->
<g id="node41" class="node">
<title>thermodynamics</title>
<ellipse fill="none" stroke="#000000" cx="1154.583" cy="-450" rx="75.3021" ry="18"/>
<text text-anchor="middle" x="1154.583" y="-445.8" font-family="Times,serif" font-size="14.00" fill="#000000">thermodynamics</text>
</g>
<!-- non&#45;relativistic particles&#45;&gt;thermodynamics -->
<g id="edge39" class="edge">
<title>non-relativistic particles-&gt;thermodynamics</title>
<path fill="none" stroke="#000000" d="M942.2835,-416.2667C985.5476,-423.1412 1039.19,-431.6647 1081.7288,-438.4239"/>
<polygon fill="#000000" stroke="#000000" points="1081.3091,-441.901 1091.7345,-440.0137 1082.4076,-434.9877 1081.3091,-441.901"/>
</g>
<!-- magnetohydrodynamics -->
<g id="node39" class="node">
<title>magnetohydrodynamics</title>
<ellipse fill="none" stroke="#000000" cx="1447.5824" cy="-542" rx="103.6605" ry="18"/>
<text text-anchor="middle" x="1447.5824" y="-537.8" font-family="Times,serif" font-size="14.00" fill="#000000">magnetohydrodynamics</text>
</g>
<!-- plasma physics&#45;&gt;magnetohydrodynamics -->
<g id="edge32" class="edge">
<title>plasma physics-&gt;magnetohydrodynamics</title>
<path fill="none" stroke="#000000" d="M1217.0793,-512.1053C1257.0013,-517.283 1309.4935,-524.0908 1354.2997,-529.9019"/>
<polygon fill="#000000" stroke="#000000" points="1353.958,-533.3868 1364.3251,-531.2021 1354.8584,-526.4449 1353.958,-533.3868"/>
</g>
<!-- statistical mechanics&#45;&gt;S = k_B ln \\Omega -->
<g id="edge34" class="edge">
<title>statistical mechanics-&gt;S = k_B ln \\Omega</title>
<path fill="none" stroke="#000000" d="M1244.594,-398.431C1325.8899,-400.6356 1448.8102,-403.991 1555.704,-407 1580.9366,-407.7103 1608.237,-408.4923 1633.5368,-409.2227"/>
<polygon fill="#000000" stroke="#000000" points="1633.7725,-412.7309 1643.8694,-409.5213 1633.9747,-405.7338 1633.7725,-412.7309"/>
</g>
<!-- entropy -->
<g id="node42" class="node">
<title>entropy</title>
<ellipse fill="none" stroke="#000000" cx="1447.5824" cy="-434" rx="40.5712" ry="18"/>
<text text-anchor="middle" x="1447.5824" y="-429.8" font-family="Times,serif" font-size="14.00" fill="#000000">entropy</text>
</g>
<!-- thermodynamics&#45;&gt;entropy -->
<g id="edge40" class="edge">
<title>thermodynamics-&gt;entropy</title>
<path fill="none" stroke="#000000" d="M1228.1409,-445.9832C1280.7782,-443.1088 1350.2824,-439.3133 1396.8341,-436.7712"/>
<polygon fill="#000000" stroke="#000000" points="1397.191,-440.2571 1406.9852,-436.2169 1396.8092,-433.2675 1397.191,-440.2571"/>
</g>
<!-- deBroglie wavelength&#45;&gt;\\lambda_{deBroglie} = h/p -->
<g id="edge43" class="edge">
<title>deBroglie wavelength-&gt;\\lambda_{deBroglie} = h/p</title>
<path fill="none" stroke="#000000" d="M1543.9874,-304C1562.5405,-304 1582.2369,-304 1601.5925,-304"/>
<polygon fill="#000000" stroke="#000000" points="1601.6752,-307.5001 1611.6752,-304 1601.6752,-300.5001 1601.6752,-307.5001"/>
</g>
<!-- Schrödinger equation&#45;&gt;i (h/(2 \\pi)) (d/dt)\\Psi = H \\Psi -->
<g id="edge47" class="edge">
<title>Schrödinger equation-&gt;i (h/(2 \\pi)) (d/dt)\\Psi = H \\Psi</title>
<path fill="none" stroke="#000000" d="M1544.381,-250C1559.778,-250 1575.9539,-250 1592.0625,-250"/>
<polygon fill="#000000" stroke="#000000" points="1592.0762,-253.5001 1602.0762,-250 1592.0761,-246.5001 1592.0762,-253.5001"/>
</g>
<!-- Planck–Einstein relation -->
<g id="node45" class="node">
<title>Planck–Einstein relation</title>
<ellipse fill="none" stroke="#000000" cx="1447.5824" cy="-488" rx="108.2434" ry="18"/>
<text text-anchor="middle" x="1447.5824" y="-483.8" font-family="Times,serif" font-size="14.00" fill="#000000">Planck–Einstein relation</text>
</g>
<!-- Planck–Einstein relation&#45;&gt;E = h f -->
<g id="edge51" class="edge">
<title>Planck–Einstein relation-&gt;E = h f</title>
<path fill="none" stroke="#000000" d="M1545.5635,-480.3364C1591.6483,-476.7318 1644.4828,-472.5993 1681.5498,-469.7001"/>
<polygon fill="#000000" stroke="#000000" points="1681.8712,-473.1858 1691.5678,-468.9165 1681.3253,-466.2071 1681.8712,-473.1858"/>
</g>
</g>
</svg>