<?xml version="1.0" encoding="UTF-8" standalone="no"?><!DOCTYPE svg PUBLIC "-//W3C//DTD SVG 1.1//EN" "http://www.w3.org/Graphics/SVG/1.1/DTD/svg11.dtd"><!-- Generated by graphviz version 2.40.1 (20161225.0304)
 --><!-- Title: G Pages: 1 --><svg xmlns="http://www.w3.org/2000/svg" xmlns:xlink="http://www.w3.org/1999/xlink" width="713pt" height="209pt" viewBox="0.00 0.00 712.76 209.00">
<g id="graph0" class="graph" transform="scale(1 1) rotate(0) translate(4 205)">
<title>G</title>
<polygon fill="#ffffff" stroke="transparent" points="-4,4 -4,-205 708.7567,-205 708.7567,4 -4,4"/>
<g id="clust1" class="cluster">
<title>cluster_1</title>
<polygon fill="none" stroke="#0000ff" points="558.9998,-8 558.9998,-193 704.7567,-193 704.7567,-8 558.9998,-8"/>
<text text-anchor="middle" x="631.8783" y="-176.4" font-family="Times,serif" font-size="14.00" fill="#000000">variables and constants</text>
</g>
<g id="clust2" class="cluster">
<title>cluster_2</title>
<polygon fill="none" stroke="#ff0000" points="376.5029,-8 376.5029,-193 538.9998,-193 538.9998,-8 376.5029,-8"/>
<text text-anchor="middle" x="457.7514" y="-176.4" font-family="Times,serif" font-size="14.00" fill="#000000">expressions</text>
</g>
<!-- variable x -->
<g id="node1" class="node">
<title>variable x</title>
<ellipse fill="none" stroke="#000000" cx="631.3783" cy="-34" rx="49.2572" ry="18"/>
<text text-anchor="middle" x="631.3783" y="-29.8" font-family="Times,serif" font-size="14.00" fill="#000000">variable x</text>
</g>
<!-- variable y -->
<g id="node2" class="node">
<title>variable y</title>
<ellipse fill="none" stroke="#000000" cx="631.3783" cy="-88" rx="49.2572" ry="18"/>
<text text-anchor="middle" x="631.3783" y="-83.8" font-family="Times,serif" font-size="14.00" fill="#000000">variable y</text>
</g>
<!-- variable z -->
<g id="node3" class="node">
<title>variable z</title>
<ellipse fill="none" stroke="#000000" cx="631.3783" cy="-142" rx="48.6739" ry="18"/>
<text text-anchor="middle" x="631.3783" y="-137.8" font-family="Times,serif" font-size="14.00" fill="#000000">variable z</text>
</g>
<!-- expression_1aA -->
<g id="node4" class="node">
<title>expression_1aA</title>
<ellipse fill="none" stroke="#000000" cx="457.7514" cy="-88" rx="73.4978" ry="18"/>
<text text-anchor="middle" x="457.7514" y="-83.8" font-family="Times,serif" font-size="14.00" fill="#000000">expression_1aA</text>
</g>
<!-- expression_1aA&#45;&gt;variable x -->
<g id="edge4" class="edge">
<title>expression_1aA-&gt;variable x</title>
<path fill="none" stroke="#000000" d="M503.3698,-73.8121C528.2057,-66.0879 558.8974,-56.5424 584.0019,-48.7346"/>
<polygon fill="#000000" stroke="#000000" points="585.1677,-52.0375 593.6771,-45.7255 583.0888,-45.3533 585.1677,-52.0375"/>
</g>
<!-- expression_1aA&#45;&gt;variable y -->
<g id="edge5" class="edge">
<title>expression_1aA-&gt;variable y</title>
<path fill="none" stroke="#000000" d="M531.1331,-88C544.6436,-88 558.5988,-88 571.647,-88"/>
<polygon fill="#000000" stroke="#000000" points="571.8911,-91.5001 581.891,-88 571.891,-84.5001 571.8911,-91.5001"/>
</g>
<!-- expression_1aB -->
<g id="node5" class="node">
<title>expression_1aB</title>
<ellipse fill="none" stroke="#000000" cx="457.7514" cy="-142" rx="72.9353" ry="18"/>
<text text-anchor="middle" x="457.7514" y="-137.8" font-family="Times,serif" font-size="14.00" fill="#000000">expression_1aB</text>
</g>
<!-- expression_1aB&#45;&gt;variable y -->
<g id="edge8" class="edge">
<title>expression_1aB-&gt;variable y</title>
<path fill="none" stroke="#000000" d="M503.3698,-127.8121C528.2057,-120.0879 558.8974,-110.5424 584.0019,-102.7346"/>
<polygon fill="#000000" stroke="#000000" points="585.1677,-106.0375 593.6771,-99.7255 583.0888,-99.3533 585.1677,-106.0375"/>
</g>
<!-- expression_1aB&#45;&gt;variable z -->
<g id="edge7" class="edge">
<title>expression_1aB-&gt;variable z</title>
<path fill="none" stroke="#000000" d="M530.6301,-142C544.5331,-142 558.9257,-142 572.331,-142"/>
<polygon fill="#000000" stroke="#000000" points="572.3652,-145.5001 582.3652,-142 572.3652,-138.5001 572.3652,-145.5001"/>
</g>
<!-- expression_2aA -->
<g id="node6" class="node">
<title>expression_2aA</title>
<ellipse fill="none" stroke="#000000" cx="457.7514" cy="-34" rx="73.4978" ry="18"/>
<text text-anchor="middle" x="457.7514" y="-29.8" font-family="Times,serif" font-size="14.00" fill="#000000">expression_2aA</text>
</g>
<!-- expression_2aA&#45;&gt;variable x -->
<g id="edge12" class="edge">
<title>expression_2aA-&gt;variable x</title>
<path fill="none" stroke="#000000" d="M531.1331,-34C544.6436,-34 558.5988,-34 571.647,-34"/>
<polygon fill="#000000" stroke="#000000" points="571.8911,-37.5001 581.891,-34 571.891,-30.5001 571.8911,-37.5001"/>
</g>
<!-- Physics -->
<g id="node7" class="node">
<title>Physics</title>
<ellipse fill="none" stroke="#000000" cx="40.5433" cy="-61" rx="40.5867" ry="18"/>
<text text-anchor="middle" x="40.5433" y="-56.8" font-family="Times,serif" font-size="14.00" fill="#000000">Physics</text>
</g>
<!-- topic_1 -->
<g id="node8" class="node">
<title>topic_1</title>
<ellipse fill="none" stroke="#000000" cx="157.091" cy="-88" rx="40.0089" ry="18"/>
<text text-anchor="middle" x="157.091" y="-83.8" font-family="Times,serif" font-size="14.00" fill="#000000">topic_1</text>
</g>
<!-- Physics&#45;&gt;topic_1 -->
<g id="edge1" class="edge">
<title>Physics-&gt;topic_1</title>
<path fill="none" stroke="#000000" d="M76.7809,-69.395C87.7376,-71.9333 99.9132,-74.7539 111.4032,-77.4157"/>
<polygon fill="#000000" stroke="#000000" points="110.7443,-80.8557 121.2762,-79.703 112.3241,-74.0363 110.7443,-80.8557"/>
</g>
<!-- topic_2 -->
<g id="node10" class="node">
<title>topic_2</title>
<ellipse fill="none" stroke="#000000" cx="157.091" cy="-34" rx="40.0089" ry="18"/>
<text text-anchor="middle" x="157.091" y="-29.8" font-family="Times,serif" font-size="14.00" fill="#000000">topic_2</text>
</g>
<!-- Physics&#45;&gt;topic_2 -->
<g id="edge9" class="edge">
<title>Physics-&gt;topic_2</title>
<path fill="none" stroke="#000000" d="M76.7809,-52.605C87.7376,-50.0667 99.9132,-47.2461 111.4032,-44.5843"/>
<polygon fill="#000000" stroke="#000000" points="112.3241,-47.9637 121.2762,-42.297 110.7443,-41.1443 112.3241,-47.9637"/>
</g>
<!-- subtopic_1a -->
<g id="node9" class="node">
<title>subtopic_1a</title>
<ellipse fill="none" stroke="#000000" cx="290.7992" cy="-88" rx="57.9081" ry="18"/>
<text text-anchor="middle" x="290.7992" y="-83.8" font-family="Times,serif" font-size="14.00" fill="#000000">subtopic_1a</text>
</g>
<!-- topic_1&#45;&gt;subtopic_1a -->
<g id="edge2" class="edge">
<title>topic_1-&gt;subtopic_1a</title>
<path fill="none" stroke="#000000" d="M197.2079,-88C205.28,-88 213.9747,-88 222.6978,-88"/>
<polygon fill="#000000" stroke="#000000" points="222.9154,-91.5001 232.9153,-88 222.9153,-84.5001 222.9154,-91.5001"/>
</g>
<!-- subtopic_1a&#45;&gt;expression_1aA -->
<g id="edge3" class="edge">
<title>subtopic_1a-&gt;expression_1aA</title>
<path fill="none" stroke="#000000" d="M348.7224,-88C356.9808,-88 365.6084,-88 374.2365,-88"/>
<polygon fill="#000000" stroke="#000000" points="374.3434,-91.5001 384.3434,-88 374.3434,-84.5001 374.3434,-91.5001"/>
</g>
<!-- subtopic_1a&#45;&gt;expression_1aB -->
<g id="edge6" class="edge">
<title>subtopic_1a-&gt;expression_1aB</title>
<path fill="none" stroke="#000000" d="M331.2137,-101.0719C353.0118,-108.1224 380.2047,-116.9179 403.7898,-124.5464"/>
<polygon fill="#000000" stroke="#000000" points="402.7175,-127.878 413.3093,-127.6254 404.8718,-121.2177 402.7175,-127.878"/>
</g>
<!-- subtopic_2a -->
<g id="node11" class="node">
<title>subtopic_2a</title>
<ellipse fill="none" stroke="#000000" cx="290.7992" cy="-34" rx="57.9081" ry="18"/>
<text text-anchor="middle" x="290.7992" y="-29.8" font-family="Times,serif" font-size="14.00" fill="#000000">subtopic_2a</text>
</g>
<!-- topic_2&#45;&gt;subtopic_2a -->
<g id="edge10" class="edge">
<title>topic_2-&gt;subtopic_2a</title>
<path fill="none" stroke="#000000" d="M197.2079,-34C205.28,-34 213.9747,-34 222.6978,-34"/>
<polygon fill="#000000" stroke="#000000" points="222.9154,-37.5001 232.9153,-34 222.9153,-30.5001 222.9154,-37.5001"/>
</g>
<!-- subtopic_2a&#45;&gt;expression_2aA -->
<g id="edge11" class="edge">
<title>subtopic_2a-&gt;expression_2aA</title>
<path fill="none" stroke="#000000" d="M348.7224,-34C356.9808,-34 365.6084,-34 374.2365,-34"/>
<polygon fill="#000000" stroke="#000000" points="374.3434,-37.5001 384.3434,-34 374.3434,-30.5001 374.3434,-37.5001"/>
</g>
</g>
</svg>