<?xml version="1.0" ?><!DOCTYPE svg  PUBLIC '-//W3C//DTD SVG 1.1//EN'  'http://www.w3.org/Graphics/SVG/1.1/DTD/svg11.dtd'><svg height="52.648" viewBox="100.895 78.933 279.211 52.648" width="279.211" xmlns="http://www.w3.org/2000/svg" xmlns:xlink="http://www.w3.org/1999/xlink"><defs><path d="M153 694v-625c0 -39 4 -43 68 -43v-26c-24 2 -68 2 -94 2c-25 0 -69 0 -93 -2v26c64 0 68 5 68 43v534c0 48 -9 54 -68 54v26z" id="6c15"/><path d="M676 304v-235c0 -39 4 -43 68 -43v-26c-24 2 -69 2 -95 2s-70 0 -94 -2v26c64 0 68 5 68 43v239c0 48 -8 114 -82 114c-70 0 -126 -69 -126 -161v-192c0 -39 4 -43 68 -43v-26c-24 2 -69 2 -95 2s-70 0 -94 -2v26c64 0 68 5 68 43v239c0 48 -8 114 -82 114 c-70 0 -126 -69 -126 -161v-192c0 -39 4 -43 68 -43v-26c-24 2 -69 2 -95 2s-70 0 -94 -2v26c64 0 68 5 68 43v278c0 48 -9 54 -68 54v26l118 11v-101h1c15 40 56 101 135 101c56 0 115 -18 127 -100h1c18 54 65 100 133 100c119 0 128 -84 128 -134z" id="6d15"/><path d="M365 379l220 -320c20 -28 30 -33 94 -33v-26c-24 2 -74 2 -100 2c-33 0 -82 0 -114 -2v26c35 2 44 19 44 27c0 3 0 6 -8 17l-174 254l-160 -232c-5 -7 -10 -14 -10 -27c0 -16 9 -36 40 -39v-26c-25 2 -72 2 -99 2c-24 0 -62 0 -85 -2v26c19 0 84 1 127 63l174 253 l-193 282c-22 31 -40 33 -95 33v26c24 -2 74 -2 100 -2c33 0 82 0 114 2v-26c-33 -1 -44 -18 -44 -27c0 -3 1 -6 8 -17l148 -216l132 191c7 10 12 18 12 30c0 16 -8 36 -40 39v26c25 -2 66 -2 99 -2c24 0 62 0 85 2v-26c-82 -1 -112 -44 -127 -65z" id="5815"/><path d="M579 594l-201 -321v-198c0 -49 9 -49 81 -49v-26c-29 2 -82 2 -113 2s-83 0 -112 -2v26c69 0 80 0 80 45v202l-221 352c-18 29 -34 32 -91 32v26c24 -2 74 -2 100 -2c33 0 82 0 114 2v-26c-14 0 -49 0 -49 -20c0 -7 1 -8 8 -20l197 -315l180 289c8 13 13 21 13 33 c0 19 -13 32 -38 33v26c24 -2 64 -2 89 -2s51 0 74 2v-26c-18 0 -72 -1 -111 -63z" id="5915"/><path d="M349 350c-22 55 -80 74 -119 74c-59 0 -133 -55 -133 -207c0 -148 77 -207 141 -207c43 0 100 20 126 101c4 13 5 14 12 14s8 -3 8 -7c0 -11 -31 -126 -155 -126c-102 0 -196 91 -196 224c0 128 90 226 196 226c77 0 145 -54 145 -125c0 -35 -29 -38 -36 -38 c-13 0 -36 8 -36 36c0 35 28 35 47 35z" id="6315"/><path d="M294 427l121 11v-358c0 -48 9 -54 68 -54v-26l-119 -8v93h-1c-8 -21 -41 -93 -126 -93c-72 0 -97 26 -110 39c-26 28 -26 71 -26 138v192c-1 40 -28 40 -68 40v26l121 11v-329c0 -52 7 -101 89 -101c74 0 119 73 119 157v182c0 48 -9 54 -68 54v26z" id="7515"/><path d="M360 259v-144c0 -44 0 -96 41 -96c13 0 40 8 40 69v57h18v-56c0 -79 -53 -93 -74 -93c-44 0 -72 40 -74 84c-22 -57 -73 -88 -128 -88c-53 0 -143 22 -143 99c0 38 18 88 81 123c56 30 127 38 186 40v44c0 84 -55 128 -105 128c-35 0 -89 -18 -110 -81c3 1 8 2 12 2 c17 0 36 -11 36 -36c0 -28 -23 -36 -36 -36c-6 0 -36 2 -36 39c0 66 57 128 136 128c34 0 77 -10 114 -43c42 -39 42 -74 42 -140zM307 139v100c-32 -2 -87 -6 -135 -33c-58 -32 -71 -85 -71 -115c0 -46 39 -83 89 -83c55 0 117 44 117 131z" id="6115"/><path d="M381 235h-290c0 -47 0 -106 31 -157c27 -44 70 -68 113 -68c52 0 107 34 129 102c4 12 5 14 12 14c2 0 8 0 8 -7c0 -21 -44 -127 -156 -127c-106 0 -201 96 -201 226c0 123 84 224 190 224c114 0 168 -89 168 -191c0 -10 0 -12 -4 -16zM92 250h239 c-1 112 -47 176 -115 176c-40 0 -117 -32 -124 -176z" id="6515"/><path d="M155 616c0 -23 -19 -41 -41 -41c-23 0 -41 19 -41 41c0 23 19 41 41 41c23 0 41 -19 41 -41zM38 427l115 11v-370c0 -36 2 -42 61 -42v-26c-23 2 -64 2 -88 2c-25 0 -68 0 -92 -2v26c64 0 68 5 68 43v278c0 48 -8 54 -64 54v26z" id="6915"/><path d="M309 422v-112c0 -17 0 -20 -9 -20c-3 0 -8 1 -9 6c-2 32 -8 132 -115 132c-101 0 -115 -55 -115 -81c0 -61 70 -75 125 -87c42 -8 77 -15 107 -46c13 -12 40 -39 40 -90c0 -78 -53 -132 -152 -132c-56 0 -91 26 -111 53c-6 -10 -21 -34 -27 -43c-5 -8 -6 -9 -11 -9 c-6 0 -7 1 -7 19v144c0 20 1 21 9 21s8 -1 11 -15c18 -88 49 -154 136 -154c92 0 116 54 116 96c0 36 -22 58 -35 70c-21 18 -43 22 -106 35c-29 6 -131 27 -131 117c0 58 40 116 151 116c17 0 62 -1 94 -35c3 4 12 14 15 18c12 15 13 16 17 16c6 0 7 -1 7 -19z" id="7315"/><path d="M607 253l-36 -253h-520v26c69 0 80 0 80 45v539c0 45 -11 45 -80 45v26h506l24 -221h-18c-14 133 -32 195 -187 195h-137c-40 0 -42 -5 -42 -39v-249h94c94 0 103 34 103 117h18v-260h-18c0 83 -9 117 -103 117h-94v-276c0 -34 2 -39 42 -39h139c176 0 189 80 211 227h18 z" id="4515"/><path d="M411 438v-564c0 -39 4 -43 68 -43v-26c-24 2 -69 2 -95 2s-70 0 -94 -2v26c64 0 68 5 68 43v199c-13 -22 -56 -81 -133 -81c-100 0 -192 92 -192 223c0 132 98 223 200 223c67 0 109 -46 132 -99l30 99h16zM360 137v140c0 52 -40 143 -120 143c-77 0 -143 -89 -143 -206 c0 -111 58 -206 133 -206c24 0 60 8 91 43c3 3 39 43 39 86z" id="7115"/></defs><g transform="scale(1.25)"><g transform="scale(0.02488,-0.02488)"><g transform="translate(3613.135,-3633.954)"><use xlink:href="#6315"/><use x="406" xlink:href="#6c15"/><use x="655" xlink:href="#6115"/><use x="1113" xlink:href="#6915"/><use x="1362" xlink:href="#6d15"/><use x="2134" xlink:href="#4515"/><use x="2762" xlink:href="#7115"/><use x="3246" xlink:href="#5815"/><use x="3939" xlink:href="#6515"/><use x="4345" xlink:href="#7115"/><use x="4829" xlink:href="#7515"/><use x="5339" xlink:href="#6115"/><use x="5797" xlink:href="#6c15"/><use x="6046" xlink:href="#7315"/><use x="6405" xlink:href="#4515"/><use x="7033" xlink:href="#7115"/><use x="7517" xlink:href="#5915"/></g></g></g></svg>