<?xml version="1.0" ?><!DOCTYPE svg  PUBLIC '-//W3C//DTD SVG 1.1//EN'  'http://www.w3.org/Graphics/SVG/1.1/DTD/svg11.dtd'><svg height="52.928" viewBox="101.455 78.933 309.149 52.928" width="309.149" xmlns="http://www.w3.org/2000/svg" xmlns:xlink="http://www.w3.org/1999/xlink"><defs><path d="M153 694v-625c0 -39 4 -43 68 -43v-26c-24 2 -68 2 -94 2c-25 0 -69 0 -93 -2v26c64 0 68 5 68 43v534c0 48 -9 54 -68 54v26z" id="6c15"/><path d="M391 340l-133 -331c-6 -15 -7 -17 -16 -17s-10 2 -16 17l-145 364c-12 31 -33 31 -71 31v26c22 -2 53 -2 80 -2c25 0 69 0 93 2v-26c-15 0 -48 0 -48 -24c0 -4 0 -6 6 -19l119 -300l110 278c6 14 6 16 6 25c0 26 -14 38 -39 40v26c20 -2 53 -2 74 -2c19 0 44 1 63 2v-26 c-58 -2 -74 -42 -83 -64z" id="7615"/><path d="M381 235h-290c0 -47 0 -106 31 -157c27 -44 70 -68 113 -68c52 0 107 34 129 102c4 12 5 14 12 14c2 0 8 0 8 -7c0 -21 -44 -127 -156 -127c-106 0 -201 96 -201 226c0 123 84 224 190 224c114 0 168 -89 168 -191c0 -10 0 -12 -4 -16zM92 250h239 c-1 112 -47 176 -115 176c-40 0 -117 -32 -124 -176z" id="6515"/><path d="M151 404v-283c0 -91 40 -111 69 -111c42 0 69 46 69 115v56h18v-57c0 -74 -34 -132 -93 -132c-116 0 -116 112 -116 131v281h-87v16c85 2 120 92 122 195h18v-185h140v-26h-140z" id="7415"/><path d="M197 612v-541c0 -45 12 -45 84 -45v-26c-32 2 -83 2 -117 2s-85 0 -117 -2v26c72 0 84 0 84 45v541c0 45 -12 45 -84 45v26c32 -2 83 -2 117 -2s85 0 117 2v-26c-72 0 -84 0 -84 -45z" id="4915"/><path d="M294 427l121 11v-358c0 -48 9 -54 68 -54v-26l-119 -8v93h-1c-8 -21 -41 -93 -126 -93c-72 0 -97 26 -110 39c-26 28 -26 71 -26 138v192c-1 40 -28 40 -68 40v26l121 11v-329c0 -52 7 -101 89 -101c74 0 119 73 119 157v182c0 48 -9 54 -68 54v26z" id="7515"/><path d="M360 259v-144c0 -44 0 -96 41 -96c13 0 40 8 40 69v57h18v-56c0 -79 -53 -93 -74 -93c-44 0 -72 40 -74 84c-22 -57 -73 -88 -128 -88c-53 0 -143 22 -143 99c0 38 18 88 81 123c56 30 127 38 186 40v44c0 84 -55 128 -105 128c-35 0 -89 -18 -110 -81c3 1 8 2 12 2 c17 0 36 -11 36 -36c0 -28 -23 -36 -36 -36c-6 0 -36 2 -36 39c0 66 57 128 136 128c34 0 77 -10 114 -43c42 -39 42 -74 42 -140zM307 139v100c-32 -2 -87 -6 -135 -33c-58 -32 -71 -85 -71 -115c0 -46 39 -83 89 -83c55 0 117 44 117 131z" id="6115"/><path d="M111 180c-19 -22 -19 -44 -19 -53c0 -35 21 -63 52 -68c5 -1 46 -1 69 -1c77 0 225 0 225 -136c0 -75 -99 -126 -209 -126c-114 0 -209 53 -209 125c0 50 41 90 93 103c-34 21 -44 59 -44 85c0 5 0 46 30 81c-10 10 -43 46 -43 103c0 83 68 145 147 145 c32 0 68 -10 98 -37c28 26 63 45 103 45c32 0 47 -20 47 -39c0 -13 -8 -23 -23 -23c-13 0 -22 9 -22 22c0 16 9 20 13 21c-5 3 -11 3 -15 3c-23 0 -64 -10 -92 -40c30 -31 38 -71 38 -97c0 -83 -68 -145 -147 -145c-40 0 -73 17 -92 32zM203 165c88 0 88 108 88 128 s0 128 -88 128s-88 -108 -88 -128s0 -128 88 -128zM229 -187c100 0 169 53 169 108c0 93 -114 93 -196 93c-68 0 -78 0 -103 -17c-22 -16 -39 -45 -39 -76c0 -55 69 -108 169 -108z" id="6715"/><path d="M150 236v-165c0 -45 12 -45 84 -45v-26c-27 2 -78 2 -107 2c-26 0 -72 0 -96 -2v26c64 0 68 5 68 43v278c0 48 -9 54 -68 54v26l116 11v-109h1c10 35 43 109 119 109c34 0 66 -20 66 -52c0 -28 -22 -35 -34 -35c-15 0 -34 10 -34 34c0 26 22 33 22 33c-7 3 -14 4 -21 4 c-75 0 -116 -90 -116 -186z" id="7215"/><path d="M155 616c0 -23 -19 -41 -41 -41c-23 0 -41 19 -41 41c0 23 19 41 41 41c23 0 41 -19 41 -41zM38 427l115 11v-370c0 -36 2 -42 61 -42v-26c-23 2 -64 2 -88 2c-25 0 -68 0 -92 -2v26c64 0 68 5 68 43v278c0 48 -8 54 -64 54v26z" id="6915"/><path d="M52 683h318c163 0 290 -158 290 -347c0 -188 -129 -336 -290 -336h-318v26c69 0 80 0 80 45v541c0 45 -11 45 -80 45v26zM238 26h112c95 0 152 54 176 85c19 27 60 84 60 225c0 272 -153 321 -236 321h-112c-40 0 -42 -5 -42 -39v-553c0 -34 2 -39 42 -39z" id="4415"/><path d="M415 304v-235c0 -39 4 -43 68 -43v-26c-24 2 -69 2 -95 2s-70 0 -94 -2v26c64 0 68 5 68 43v239c0 48 -8 114 -82 114c-70 0 -126 -69 -126 -161v-192c0 -39 4 -43 68 -43v-26c-24 2 -69 2 -95 2s-70 0 -94 -2v26c64 0 68 5 68 43v278c0 48 -9 54 -68 54v26l118 11v-101 h1c15 40 56 101 135 101c118 0 128 -83 128 -134z" id="6e15"/><path d="M607 253l-36 -253h-520v26c69 0 80 0 80 45v539c0 45 -11 45 -80 45v26h506l24 -221h-18c-14 133 -32 195 -187 195h-137c-40 0 -42 -5 -42 -39v-249h94c94 0 103 34 103 117h18v-260h-18c0 83 -9 117 -103 117h-94v-276c0 -34 2 -39 42 -39h139c176 0 189 80 211 227h18 z" id="4515"/></defs><g transform="scale(1.25)"><g transform="scale(0.02488,-0.02488)"><g transform="translate(3613.135,-3633.954)"><use xlink:href="#4515"/><use x="628" xlink:href="#7615"/><use x="1059.756" xlink:href="#6115"/><use x="1517.756" xlink:href="#6c15"/><use x="1766.756" xlink:href="#7515"/><use x="2276.756" xlink:href="#6115"/><use x="2734.756" xlink:href="#7415"/><use x="3088.756" xlink:href="#6515"/><use x="3494.756" xlink:href="#4415"/><use x="4200.756" xlink:href="#6515"/><use x="4606.756" xlink:href="#6e15"/><use x="5116.756" xlink:href="#6915"/><use x="5365.756" xlink:href="#7415"/><use x="5719.756" xlink:href="#6515"/><use x="6125.756" xlink:href="#4915"/><use x="6452.756" xlink:href="#6e15"/><use x="6936.634" xlink:href="#7415"/><use x="7290.634" xlink:href="#6515"/><use x="7696.634" xlink:href="#6715"/><use x="8154.634" xlink:href="#7215"/><use x="8508.634" xlink:href="#6115"/><use x="8966.634" xlink:href="#6c15"/></g></g></g></svg>