<?xml version="1.0" ?><!DOCTYPE svg  PUBLIC '-//W3C//DTD SVG 1.1//EN'  'http://www.w3.org/Graphics/SVG/1.1/DTD/svg11.dtd'><svg height="47.33" viewBox="100.553 78.684 200.528 47.33" width="200.528" xmlns="http://www.w3.org/2000/svg" xmlns:xlink="http://www.w3.org/1999/xlink"><defs><path d="M197 612v-541c0 -45 12 -45 84 -45v-26c-32 2 -83 2 -117 2s-85 0 -117 -2v26c72 0 84 0 84 45v541c0 45 -12 45 -84 45v26c32 -2 83 -2 117 -2s85 0 117 2v-26c-72 0 -84 0 -84 -45z" id="4915"/><path d="M151 404v-283c0 -91 40 -111 69 -111c42 0 69 46 69 115v56h18v-57c0 -74 -34 -132 -93 -132c-116 0 -116 112 -116 131v281h-87v16c85 2 120 92 122 195h18v-185h140v-26h-140z" id="7415"/><path d="M349 350c-22 55 -80 74 -119 74c-59 0 -133 -55 -133 -207c0 -148 77 -207 141 -207c43 0 100 20 126 101c4 13 5 14 12 14s8 -3 8 -7c0 -11 -31 -126 -155 -126c-102 0 -196 91 -196 224c0 128 90 226 196 226c77 0 145 -54 145 -125c0 -35 -29 -38 -36 -38 c-13 0 -36 8 -36 36c0 35 28 35 47 35z" id="6315"/><path d="M294 427l121 11v-358c0 -48 9 -54 68 -54v-26l-119 -8v93h-1c-8 -21 -41 -93 -126 -93c-72 0 -97 26 -110 39c-26 28 -26 71 -26 138v192c-1 40 -28 40 -68 40v26l121 11v-329c0 -52 7 -101 89 -101c74 0 119 73 119 157v182c0 48 -9 54 -68 54v26z" id="7515"/><path d="M673 340c0 -200 -143 -356 -314 -356c-167 0 -313 153 -313 356s144 359 314 359c166 0 313 -154 313 -359zM360 2c110 0 237 110 237 351c0 233 -132 328 -238 328c-101 0 -237 -92 -237 -328c0 -237 124 -351 238 -351z" id="4f15"/><path d="M153 404v-333c0 -45 12 -45 84 -45v-26c-27 2 -78 2 -107 2c-26 0 -72 0 -96 -2v26c64 0 68 5 68 43v335h-80v26h80v119c0 106 78 153 135 153c40 0 76 -23 76 -61c0 -26 -20 -34 -34 -34s-34 8 -34 34c0 25 21 32 29 34c-10 7 -25 11 -38 11c-43 0 -85 -52 -85 -135 v-121h116v-26h-114z" id="6615"/><path d="M155 616c0 -23 -19 -41 -41 -41c-23 0 -41 19 -41 41c0 23 19 41 41 41c23 0 41 -19 41 -41zM38 427l115 11v-370c0 -36 2 -42 61 -42v-26c-23 2 -64 2 -88 2c-25 0 -68 0 -92 -2v26c64 0 68 5 68 43v278c0 48 -8 54 -64 54v26z" id="6915"/><path d="M292 683l119 11v-614c0 -48 9 -54 68 -54v-26l-121 -8v73c-5 -7 -49 -73 -134 -73c-98 0 -191 92 -191 223c0 132 99 223 201 223c81 0 122 -64 126 -69v234c0 48 -9 54 -68 54v26zM358 120v198c0 18 0 21 -13 42c-23 36 -60 62 -106 62c-26 0 -142 -12 -142 -208 c0 -191 104 -206 133 -206c19 0 53 5 87 35c23 20 41 47 41 77z" id="6415"/><path d="M309 422v-112c0 -17 0 -20 -9 -20c-3 0 -8 1 -9 6c-2 32 -8 132 -115 132c-101 0 -115 -55 -115 -81c0 -61 70 -75 125 -87c42 -8 77 -15 107 -46c13 -12 40 -39 40 -90c0 -78 -53 -132 -152 -132c-56 0 -91 26 -111 53c-6 -10 -21 -34 -27 -43c-5 -8 -6 -9 -11 -9 c-6 0 -7 1 -7 19v144c0 20 1 21 9 21s8 -1 11 -15c18 -88 49 -154 136 -154c92 0 116 54 116 96c0 36 -22 58 -35 70c-21 18 -43 22 -106 35c-29 6 -131 27 -131 117c0 58 40 116 151 116c17 0 62 -1 94 -35c3 4 12 14 15 18c12 15 13 16 17 16c6 0 7 -1 7 -19z" id="7315"/><path d="M415 304v-235c0 -39 4 -43 68 -43v-26c-24 2 -69 2 -95 2s-70 0 -94 -2v26c64 0 68 5 68 43v239c0 48 -8 114 -82 114c-70 0 -126 -69 -126 -161v-192c0 -39 4 -43 68 -43v-26c-24 2 -69 2 -95 2s-70 0 -94 -2v26c64 0 68 5 68 43v278c0 48 -9 54 -68 54v26l118 11v-101 h1c15 40 56 101 135 101c118 0 128 -83 128 -134z" id="6e15"/><path d="M431 214c0 -126 -93 -222 -202 -222s-202 96 -202 222c0 128 93 228 202 228s202 -100 202 -228zM229 10c38 0 81 19 109 65c27 48 29 108 29 147c0 31 0 97 -31 144c-24 35 -62 60 -107 60c-51 0 -90 -32 -110 -65c-26 -45 -28 -97 -28 -139c0 -44 3 -100 28 -145 c23 -39 63 -67 110 -67z" id="6f15"/></defs><g transform="scale(1.25)"><g transform="scale(0.02488,-0.02488)"><g transform="translate(3613.135,-3633.954)"><use xlink:href="#6615"/><use x="275" xlink:href="#7515"/><use x="785" xlink:href="#6e15"/><use x="1295" xlink:href="#6315"/><use x="1701" xlink:href="#7415"/><use x="2055" xlink:href="#6915"/><use x="2304" xlink:href="#6f15"/><use x="2762" xlink:href="#6e15"/><use x="3272" xlink:href="#4915"/><use x="3599" xlink:href="#7315"/><use x="3958" xlink:href="#4f15"/><use x="4677" xlink:href="#6415"/><use x="5187" xlink:href="#6415"/></g></g></g></svg>