<?xml version="1.0" ?><!DOCTYPE svg  PUBLIC '-//W3C//DTD SVG 1.1//EN'  'http://www.w3.org/Graphics/SVG/1.1/DTD/svg11.dtd'><svg height="52.897" viewBox="100.895 78.933 224.064 52.897" width="224.064" xmlns="http://www.w3.org/2000/svg" xmlns:xlink="http://www.w3.org/1999/xlink"><defs><path d="M153 694v-625c0 -39 4 -43 68 -43v-26c-24 2 -68 2 -94 2c-25 0 -69 0 -93 -2v26c64 0 68 5 68 43v534c0 48 -9 54 -68 54v26z" id="6c15"/><path d="M676 304v-235c0 -39 4 -43 68 -43v-26c-24 2 -69 2 -95 2s-70 0 -94 -2v26c64 0 68 5 68 43v239c0 48 -8 114 -82 114c-70 0 -126 -69 -126 -161v-192c0 -39 4 -43 68 -43v-26c-24 2 -69 2 -95 2s-70 0 -94 -2v26c64 0 68 5 68 43v239c0 48 -8 114 -82 114 c-70 0 -126 -69 -126 -161v-192c0 -39 4 -43 68 -43v-26c-24 2 -69 2 -95 2s-70 0 -94 -2v26c64 0 68 5 68 43v278c0 48 -9 54 -68 54v26l118 11v-101h1c15 40 56 101 135 101c56 0 115 -18 127 -100h1c18 54 65 100 133 100c119 0 128 -84 128 -134z" id="6d15"/><path d="M365 379l220 -320c20 -28 30 -33 94 -33v-26c-24 2 -74 2 -100 2c-33 0 -82 0 -114 -2v26c35 2 44 19 44 27c0 3 0 6 -8 17l-174 254l-160 -232c-5 -7 -10 -14 -10 -27c0 -16 9 -36 40 -39v-26c-25 2 -72 2 -99 2c-24 0 -62 0 -85 -2v26c19 0 84 1 127 63l174 253 l-193 282c-22 31 -40 33 -95 33v26c24 -2 74 -2 100 -2c33 0 82 0 114 2v-26c-33 -1 -44 -18 -44 -27c0 -3 1 -6 8 -17l148 -216l132 191c7 10 12 18 12 30c0 16 -8 36 -40 39v26c25 -2 66 -2 99 -2c24 0 62 0 85 2v-26c-82 -1 -112 -44 -127 -65z" id="5815"/><path d="M150 694v-328c30 39 74 72 136 72c101 0 191 -94 191 -222c0 -136 -101 -224 -201 -224c-58 0 -101 32 -130 79l-29 -71h-18v603c0 48 -9 54 -68 54v26zM152 315v-198c0 -18 0 -20 11 -39c32 -58 77 -70 108 -70c24 0 142 11 142 209c0 189 -103 205 -133 205 c-19 0 -75 -5 -114 -65c-14 -21 -14 -24 -14 -42z" id="6215"/><path d="M390 342l-178 -439c-20 -50 -56 -106 -114 -106c-45 0 -86 29 -86 69c0 18 11 33 33 33c20 0 32 -15 32 -32s-10 -31 -33 -33c18 -18 43 -21 54 -21c63 0 89 69 134 187l-149 367c-13 32 -19 37 -73 37v26c22 -2 54 -2 81 -2c25 0 68 0 92 2v-26c-24 0 -47 -2 -47 -24 c0 -1 0 -8 5 -20l119 -292l109 270c5 12 7 17 7 27c0 8 -1 36 -39 39v26c20 -2 53 -2 74 -2c19 0 44 1 63 2v-26c-14 0 -59 -1 -84 -62z" id="7915"/><path d="M151 404v-283c0 -91 40 -111 69 -111c42 0 69 46 69 115v56h18v-57c0 -74 -34 -132 -93 -132c-116 0 -116 112 -116 131v281h-87v16c85 2 120 92 122 195h18v-185h140v-26h-140z" id="7415"/><path d="M294 427l121 11v-358c0 -48 9 -54 68 -54v-26l-119 -8v93h-1c-8 -21 -41 -93 -126 -93c-72 0 -97 26 -110 39c-26 28 -26 71 -26 138v192c-1 40 -28 40 -68 40v26l121 11v-329c0 -52 7 -101 89 -101c74 0 119 73 119 157v182c0 48 -9 54 -68 54v26z" id="7515"/><path d="M579 594l-201 -321v-198c0 -49 9 -49 81 -49v-26c-29 2 -82 2 -113 2s-83 0 -112 -2v26c69 0 80 0 80 45v202l-221 352c-18 29 -34 32 -91 32v26c24 -2 74 -2 100 -2c33 0 82 0 114 2v-26c-14 0 -49 0 -49 -20c0 -7 1 -8 8 -20l197 -315l180 289c8 13 13 21 13 33 c0 19 -13 32 -38 33v26c24 -2 64 -2 89 -2s51 0 74 2v-26c-18 0 -72 -1 -111 -63z" id="5915"/><path d="M607 253l-36 -253h-520v26c69 0 80 0 80 45v539c0 45 -11 45 -80 45v26h506l24 -221h-18c-14 133 -32 195 -187 195h-137c-40 0 -42 -5 -42 -39v-249h94c94 0 103 34 103 117h18v-260h-18c0 83 -9 117 -103 117h-94v-276c0 -34 2 -39 42 -39h139c176 0 189 80 211 227h18 z" id="4515"/><path d="M411 438v-564c0 -39 4 -43 68 -43v-26c-24 2 -69 2 -95 2s-70 0 -94 -2v26c64 0 68 5 68 43v199c-13 -22 -56 -81 -133 -81c-100 0 -192 92 -192 223c0 132 98 223 200 223c67 0 109 -46 132 -99l30 99h16zM360 137v140c0 52 -40 143 -120 143c-77 0 -143 -89 -143 -206 c0 -111 58 -206 133 -206c24 0 60 8 91 43c3 3 39 43 39 86z" id="7115"/></defs><g transform="scale(1.25)"><g transform="scale(0.02488,-0.02488)"><g transform="translate(3613.135,-3633.954)"><use xlink:href="#6d15"/><use x="745.877" xlink:href="#7515"/><use x="1255.877" xlink:href="#6c15"/><use x="1504.877" xlink:href="#7415"/><use x="1858.877" xlink:href="#4515"/><use x="2486.877" xlink:href="#7115"/><use x="2970.877" xlink:href="#5815"/><use x="3663.877" xlink:href="#6215"/><use x="4147.755" xlink:href="#7915"/><use x="4631.755" xlink:href="#4515"/><use x="5259.755" xlink:href="#7115"/><use x="5743.755" xlink:href="#5915"/></g></g></g></svg>