<?xml version="1.0" encoding="UTF-8" standalone="no"?>
<!DOCTYPE svg PUBLIC "-//W3C//DTD SVG 1.1//EN"
 "http://www.w3.org/Graphics/SVG/1.1/DTD/svg11.dtd">
<!-- Generated by graphviz version 2.38.0 (20140413.2041)
 -->
<!-- Title: topicsAndConcepts Pages: 1 -->
<svg width="1074pt" height="848pt"
 viewBox="0.00 0.00 1073.83 848.04" xmlns="http://www.w3.org/2000/svg" xmlns:xlink="http://www.w3.org/1999/xlink">
<g id="graph0" class="graph" transform="scale(1 1) rotate(0) translate(630.1 353.31)">
<title>topicsAndConcepts</title>
<polygon fill="white" stroke="none" points="-630.1,494.726 -630.1,-353.31 443.733,-353.31 443.733,494.726 -630.1,494.726"/>
<text text-anchor="middle" x="-93.1834" y="470.326" font-family="Times,serif" font-size="12.00">Concepts (red ellipses) and topics (blue squares)</text>
<text text-anchor="middle" x="-93.1834" y="483.326" font-family="Times,serif" font-size="12.00">coarse overview of the Physics Derivation Graph</text>
<!-- cosmology -->
<g id="node1" class="node"><title>cosmology</title>
<polygon fill="none" stroke="blue" points="-95.1296,228.027 -173.13,228.027 -173.13,264.027 -95.1296,264.027 -95.1296,228.027"/>
<text text-anchor="middle" x="-134.13" y="249.727" font-family="Times,serif" font-size="14.00">cosmology</text>
</g>
<!-- Friedmann_equations -->
<g id="node19" class="node"><title>Friedmann_equations</title>
<g id="a_node19"><a xlink:href="https://en.wikipedia.org/wiki/Friedmann_equations" xlink:title="Friedmann\nequations">
<ellipse fill="none" stroke="red" stroke-width="2" cx="-128.537" cy="110.795" rx="54.3945" ry="26.7407"/>
<text text-anchor="middle" x="-128.537" y="106.995" font-family="Times,serif" font-size="14.00">Friedmann</text>
<text text-anchor="middle" x="-128.537" y="121.995" font-family="Times,serif" font-size="14.00">equations</text>
</a>
</g>
</g>
<!-- cosmology&#45;&gt;Friedmann_equations -->
<g id="edge13" class="edge"><title>cosmology&#45;&gt;Friedmann_equations</title>
<path fill="none" stroke="black" d="M-133.375,227.789C-132.537,207.512 -131.159,174.21 -130.088,148.31"/>
<polygon fill="black" stroke="black" points="-133.576,147.927 -129.665,138.08 -126.582,148.216 -133.576,147.927"/>
</g>
<!-- Cosmological_equation_of_state -->
<g id="node22" class="node"><title>Cosmological_equation_of_state</title>
<g id="a_node22"><a xlink:href="https://en.wikipedia.org/wiki/Equation_of_state_(cosmology)" xlink:title="equation\nof state">
<ellipse fill="none" stroke="red" stroke-width="2" cx="-76.6715" cy="366.843" rx="45.9239" ry="26.7407"/>
<text text-anchor="middle" x="-76.6715" y="363.043" font-family="Times,serif" font-size="14.00">equation</text>
<text text-anchor="middle" x="-76.6715" y="378.043" font-family="Times,serif" font-size="14.00">of state</text>
</a>
</g>
</g>
<!-- cosmology&#45;&gt;Cosmological_equation_of_state -->
<g id="edge14" class="edge"><title>cosmology&#45;&gt;Cosmological_equation_of_state</title>
<path fill="none" stroke="black" d="M-125.528,264.114C-117.09,281.855 -103.999,309.382 -93.491,331.477"/>
<polygon fill="black" stroke="black" points="-90.3009,330.036 -89.1667,340.57 -96.6224,333.042 -90.3009,330.036"/>
</g>
<!-- quantum_mechanics -->
<g id="node2" class="node"><title>quantum_mechanics</title>
<polygon fill="none" stroke="blue" points="288.696,31.4259 212.696,31.4259 212.696,69.4259 288.696,69.4259 288.696,31.4259"/>
<text text-anchor="middle" x="250.696" y="46.6259" font-family="Times,serif" font-size="14.00">quantum</text>
<text text-anchor="middle" x="250.696" y="61.6259" font-family="Times,serif" font-size="14.00">mechanics</text>
</g>
<!-- Schrodingers_equation -->
<g id="node8" class="node"><title>Schrodingers_equation</title>
<ellipse fill="none" stroke="red" cx="170.827" cy="-73.4516" rx="65.5227" ry="26.7407"/>
<text text-anchor="middle" x="170.827" y="-77.2516" font-family="Times,serif" font-size="14.00">Schrodinger&#39;s</text>
<text text-anchor="middle" x="170.827" y="-62.2516" font-family="Times,serif" font-size="14.00">equation</text>
</g>
<!-- quantum_mechanics&#45;&gt;Schrodingers_equation -->
<g id="edge1" class="edge"><title>quantum_mechanics&#45;&gt;Schrodingers_equation</title>
<path fill="none" stroke="black" d="M238.391,31.3415C226.416,12.7679 207.939,-15.8901 193.333,-38.5453"/>
<polygon fill="black" stroke="black" points="190.222,-36.9111 187.745,-47.2123 196.105,-40.7043 190.222,-36.9111"/>
</g>
<!-- particle_in_a_box -->
<g id="node9" class="node"><title>particle_in_a_box</title>
<ellipse fill="none" stroke="red" cx="285.444" cy="181.854" rx="43.6818" ry="26.7407"/>
<text text-anchor="middle" x="285.444" y="178.054" font-family="Times,serif" font-size="14.00">particle</text>
<text text-anchor="middle" x="285.444" y="193.054" font-family="Times,serif" font-size="14.00">in a box</text>
</g>
<!-- quantum_mechanics&#45;&gt;particle_in_a_box -->
<g id="edge2" class="edge"><title>quantum_mechanics&#45;&gt;particle_in_a_box</title>
<path fill="none" stroke="black" d="M255.748,69.5367C260.976,89.3098 269.27,120.681 275.766,145.249"/>
<polygon fill="black" stroke="black" points="279.163,144.405 278.335,154.968 272.396,146.195 279.163,144.405"/>
</g>
<!-- uncertainty_relation -->
<g id="node14" class="node"><title>uncertainty_relation</title>
<ellipse fill="none" stroke="red" cx="372.272" cy="-0.583008" rx="55.7232" ry="26.7407"/>
<text text-anchor="middle" x="372.272" y="-4.38301" font-family="Times,serif" font-size="14.00">uncertainty</text>
<text text-anchor="middle" x="372.272" y="10.617" font-family="Times,serif" font-size="14.00">relation</text>
</g>
<!-- quantum_mechanics&#45;&gt;uncertainty_relation -->
<g id="edge3" class="edge"><title>quantum_mechanics&#45;&gt;uncertainty_relation</title>
<path fill="none" stroke="black" d="M288.83,34.4263C298.955,30.178 310.06,25.519 320.77,21.0253"/>
<polygon fill="black" stroke="black" points="319.471,17.7748 330.046,17.1333 322.179,24.2297 319.471,17.7748"/>
</g>
<!-- classical_mechanics -->
<g id="node3" class="node"><title>classical_mechanics</title>
<polygon fill="none" stroke="blue" points="-444.023,-177.275 -520.023,-177.275 -520.023,-139.275 -444.023,-139.275 -444.023,-177.275"/>
<text text-anchor="middle" x="-482.023" y="-162.075" font-family="Times,serif" font-size="14.00">classical</text>
<text text-anchor="middle" x="-482.023" y="-147.075" font-family="Times,serif" font-size="14.00">mechanics</text>
</g>
<!-- work -->
<g id="node10" class="node"><title>work</title>
<ellipse fill="none" stroke="red" cx="-596.853" cy="-96.9655" rx="29.4969" ry="18"/>
<text text-anchor="middle" x="-596.853" y="-93.2655" font-family="Times,serif" font-size="14.00">work</text>
</g>
<!-- classical_mechanics&#45;&gt;work -->
<g id="edge4" class="edge"><title>classical_mechanics&#45;&gt;work</title>
<path fill="none" stroke="black" d="M-517.726,-139.212C-532.956,-131.081 -550.577,-121.673 -565.318,-113.802"/>
<polygon fill="black" stroke="black" points="-564.066,-110.503 -574.536,-108.881 -567.363,-116.678 -564.066,-110.503"/>
</g>
<!-- F=m*a -->
<g id="node11" class="node"><title>F=m*a</title>
<ellipse fill="none" stroke="red" cx="-361.262" cy="-113.577" rx="36.2938" ry="18"/>
<text text-anchor="middle" x="-361.262" y="-109.877" font-family="Times,serif" font-size="14.00">F=m*a</text>
</g>
<!-- classical_mechanics&#45;&gt;F=m*a -->
<g id="edge5" class="edge"><title>classical_mechanics&#45;&gt;F=m*a</title>
<path fill="none" stroke="black" d="M-443.813,-144.132C-429.777,-138.937 -413.885,-133.055 -399.819,-127.848"/>
<polygon fill="black" stroke="black" points="-398.581,-131.122 -390.418,-124.369 -401.011,-124.557 -398.581,-131.122"/>
</g>
<!-- momentum -->
<g id="node12" class="node"><title>momentum</title>
<ellipse fill="none" stroke="red" cx="-538.923" cy="-275.433" rx="51.9908" ry="18"/>
<text text-anchor="middle" x="-538.923" y="-271.733" font-family="Times,serif" font-size="14.00">momentum</text>
</g>
<!-- classical_mechanics&#45;&gt;momentum -->
<g id="edge6" class="edge"><title>classical_mechanics&#45;&gt;momentum</title>
<path fill="none" stroke="black" d="M-491.292,-177.359C-500.673,-196.676 -515.264,-226.718 -525.825,-248.464"/>
<polygon fill="black" stroke="black" points="-528.998,-246.987 -530.219,-257.511 -522.702,-250.045 -528.998,-246.987"/>
</g>
<!-- particle_physics -->
<g id="node4" class="node"><title>particle_physics</title>
<polygon fill="none" stroke="blue" points="43.1666,-237.078 -15.8334,-237.078 -15.8334,-199.078 43.1666,-199.078 43.1666,-237.078"/>
<text text-anchor="middle" x="13.6666" y="-221.878" font-family="Times,serif" font-size="14.00">particle</text>
<text text-anchor="middle" x="13.6666" y="-206.878" font-family="Times,serif" font-size="14.00">physics</text>
</g>
<!-- Dirac_equation -->
<g id="node13" class="node"><title>Dirac_equation</title>
<ellipse fill="none" stroke="red" cx="31.3607" cy="-83.8053" rx="47.2526" ry="26.7407"/>
<text text-anchor="middle" x="31.3607" y="-87.6053" font-family="Times,serif" font-size="14.00">Dirac</text>
<text text-anchor="middle" x="31.3607" y="-72.6053" font-family="Times,serif" font-size="14.00">Equation</text>
</g>
<!-- particle_physics&#45;&gt;Dirac_equation -->
<g id="edge7" class="edge"><title>particle_physics&#45;&gt;Dirac_equation</title>
<path fill="none" stroke="black" d="M16.2017,-198.84C18.8725,-178.573 23.1446,-146.154 26.474,-120.889"/>
<polygon fill="black" stroke="black" points="29.9532,-121.276 27.7897,-110.904 23.0132,-120.361 29.9532,-121.276"/>
</g>
<!-- relativity -->
<g id="node5" class="node"><title>relativity</title>
<polygon fill="none" stroke="blue" points="-70.3447,-44.5123 -137.345,-44.5123 -137.345,-8.51235 -70.3447,-8.51235 -70.3447,-44.5123"/>
<text text-anchor="middle" x="-103.845" y="-22.8123" font-family="Times,serif" font-size="14.00">relativity</text>
</g>
<!-- relativity&#45;&gt;Dirac_equation -->
<g id="edge8" class="edge"><title>relativity&#45;&gt;Dirac_equation</title>
<path fill="none" stroke="black" d="M-70.0755,-40.822C-53.8406,-47.7014 -34.0983,-56.0672 -16.3604,-63.5836"/>
<polygon fill="black" stroke="black" points="-17.3203,-66.9781 -6.7472,-67.6571 -14.5891,-60.5328 -17.3203,-66.9781"/>
</g>
<!-- relativity&#45;&gt;Friedmann_equations -->
<g id="edge15" class="edge"><title>relativity&#45;&gt;Friedmann_equations</title>
<path fill="none" stroke="black" d="M-107.124,-8.27898C-110.876,12.5869 -117.119,47.3016 -121.898,73.8795"/>
<polygon fill="black" stroke="black" points="-118.5,74.7595 -123.715,83.9821 -125.39,73.5205 -118.5,74.7595"/>
</g>
<!-- Einstein_field_equations -->
<g id="node20" class="node"><title>Einstein_field_equations</title>
<g id="a_node20"><a xlink:href="https://en.wikipedia.org/wiki/Einstein_field_equations" xlink:title="Einstein\nfield equations">
<ellipse fill="none" stroke="red" stroke-width="2" cx="-140.537" cy="-141.757" rx="70.0071" ry="26.7407"/>
<text text-anchor="middle" x="-140.537" y="-145.557" font-family="Times,serif" font-size="14.00">Einstein</text>
<text text-anchor="middle" x="-140.537" y="-130.557" font-family="Times,serif" font-size="14.00">field equations</text>
</a>
</g>
</g>
<!-- relativity&#45;&gt;Einstein_field_equations -->
<g id="edge16" class="edge"><title>relativity&#45;&gt;Einstein_field_equations</title>
<g id="a_edge16"><a xlink:href="https://en.wikipedia.org/wiki/Mathematics_of_general_relativity#The_Einstein_field_equations">
<path fill="none" stroke="black" stroke-width="2" d="M-109.578,-44.5193C-114.74,-60.7316 -122.483,-85.0529 -128.934,-105.315"/>
<polygon fill="black" stroke="black" stroke-width="2" points="-132.282,-104.292 -131.981,-114.883 -125.612,-106.416 -132.282,-104.292"/>
</a>
</g>
</g>
<!-- E=mc2 -->
<g id="node23" class="node"><title>E=mc2</title>
<ellipse fill="none" stroke="red" cx="-242.136" cy="-59.3395" rx="37.0935" ry="18"/>
<text text-anchor="middle" x="-242.136" y="-55.6395" font-family="Times,serif" font-size="14.00">E=mc2</text>
</g>
<!-- relativity&#45;&gt;E=mc2 -->
<g id="edge9" class="edge"><title>relativity&#45;&gt;E=mc2</title>
<path fill="none" stroke="black" d="M-137.675,-34.5428C-156.06,-38.907 -178.999,-44.3521 -198.694,-49.0272"/>
<polygon fill="black" stroke="black" points="-199.735,-45.677 -208.656,-51.392 -198.118,-52.4877 -199.735,-45.677"/>
</g>
<!-- thermodynamics -->
<g id="node6" class="node"><title>thermodynamics</title>
<polygon fill="none" stroke="blue" points="231.101,390.857 121.101,390.857 121.101,426.857 231.101,426.857 231.101,390.857"/>
<text text-anchor="middle" x="176.101" y="412.557" font-family="Times,serif" font-size="14.00">thermodynamics</text>
</g>
<!-- Plancks_Law -->
<g id="node16" class="node"><title>Plancks_Law</title>
<ellipse fill="none" stroke="red" cx="269.433" cy="312.811" rx="44.5955" ry="26.7407"/>
<text text-anchor="middle" x="269.433" y="309.011" font-family="Times,serif" font-size="14.00">Planck&#39;s</text>
<text text-anchor="middle" x="269.433" y="324.011" font-family="Times,serif" font-size="14.00">Law</text>
</g>
<!-- thermodynamics&#45;&gt;Plancks_Law -->
<g id="edge10" class="edge"><title>thermodynamics&#45;&gt;Plancks_Law</title>
<path fill="none" stroke="black" d="M193.656,390.792C206.543,377.529 224.363,359.192 239.485,343.631"/>
<polygon fill="black" stroke="black" points="237.178,340.982 246.658,336.249 242.199,345.86 237.178,340.982"/>
</g>
<!-- Ideal_gas_law -->
<g id="node21" class="node"><title>Ideal_gas_law</title>
<g id="a_node21"><a xlink:href="https://en.wikipedia.org/wiki/Ideal_gas_law" xlink:title="Ideal\ngas law">
<ellipse fill="none" stroke="red" stroke-width="2" cx="42.2487" cy="429.856" rx="41.9398" ry="26.7407"/>
<text text-anchor="middle" x="42.2487" y="426.056" font-family="Times,serif" font-size="14.00">Ideal</text>
<text text-anchor="middle" x="42.2487" y="441.056" font-family="Times,serif" font-size="14.00">gas law</text>
</a>
</g>
</g>
<!-- thermodynamics&#45;&gt;Ideal_gas_law -->
<g id="edge11" class="edge"><title>thermodynamics&#45;&gt;Ideal_gas_law</title>
<path fill="none" stroke="black" d="M120.885,417.519C111.676,418.964 102.162,420.457 93.0699,421.883"/>
<polygon fill="black" stroke="black" points="93.4438,425.367 83.0221,423.459 92.3588,418.452 93.4438,425.367"/>
</g>
<!-- electromagnetism -->
<g id="node7" class="node"><title>electromagnetism</title>
<polygon fill="none" stroke="blue" points="439.733,-264.297 323.733,-264.297 323.733,-228.297 439.733,-228.297 439.733,-264.297"/>
<text text-anchor="middle" x="381.733" y="-242.597" font-family="Times,serif" font-size="14.00">electromagnetism</text>
</g>
<!-- Maxwells_equations -->
<g id="node15" class="node"><title>Maxwells_equations</title>
<ellipse fill="none" stroke="red" cx="255.422" cy="-193.478" rx="50.8235" ry="26.7407"/>
<text text-anchor="middle" x="255.422" y="-197.278" font-family="Times,serif" font-size="14.00">Maxwells</text>
<text text-anchor="middle" x="255.422" y="-182.278" font-family="Times,serif" font-size="14.00">equations</text>
</g>
<!-- electromagnetism&#45;&gt;Maxwells_equations -->
<g id="edge12" class="edge"><title>electromagnetism&#45;&gt;Maxwells_equations</title>
<path fill="none" stroke="black" d="M338.618,-228.267C327.674,-223.691 315.835,-218.741 304.615,-214.049"/>
<polygon fill="black" stroke="black" points="305.945,-210.811 295.369,-210.182 303.244,-217.269 305.945,-210.811"/>
</g>
<!-- Schrodingers_equation&#45;&gt;Maxwells_equations -->
<g id="edge25" class="edge"><title>Schrodingers_equation&#45;&gt;Maxwells_equations</title>
<path fill="none" stroke="black" d="M194.955,-107.686C206.457,-124.005 220.172,-143.464 231.63,-159.721"/>
<polygon fill="black" stroke="black" points="197.805,-105.653 189.183,-99.4956 192.083,-109.686 197.805,-105.653"/>
<polygon fill="black" stroke="black" points="228.771,-161.74 237.393,-167.897 234.493,-157.707 228.771,-161.74"/>
</g>
<!-- wave_equation -->
<g id="node18" class="node"><title>wave_equation</title>
<ellipse fill="none" stroke="red" cx="290.562" cy="-97.4729" rx="45.9239" ry="26.7407"/>
<text text-anchor="middle" x="290.562" y="-101.273" font-family="Times,serif" font-size="14.00">wave</text>
<text text-anchor="middle" x="290.562" y="-86.2729" font-family="Times,serif" font-size="14.00">equation</text>
</g>
<!-- Schrodingers_equation&#45;&gt;wave_equation -->
<g id="edge20" class="edge"><title>Schrodingers_equation&#45;&gt;wave_equation</title>
<path fill="none" stroke="black" d="M240.034,-87.336C240.176,-87.3645 240.318,-87.393 240.46,-87.4215"/>
<polygon fill="black" stroke="black" points="240.486,-83.857 229.993,-85.3215 239.109,-90.7202 240.486,-83.857"/>
<polygon fill="black" stroke="black" points="236.291,-90.1547 246.784,-88.6902 237.668,-83.2914 236.291,-90.1547"/>
</g>
<!-- particle_in_a_box&#45;&gt;Plancks_Law -->
<g id="edge22" class="edge"><title>particle_in_a_box&#45;&gt;Plancks_Law</title>
<path fill="none" stroke="black" d="M280.945,218.65C278.773,236.419 276.171,257.7 273.991,275.532"/>
<polygon fill="black" stroke="black" points="277.477,218.173 282.165,208.671 284.426,219.022 277.477,218.173"/>
<polygon fill="black" stroke="black" points="277.45,276.079 272.763,285.58 270.502,275.229 277.45,276.079"/>
</g>
<!-- Dirac_equation&#45;&gt;Schrodingers_equation -->
<g id="edge19" class="edge"><title>Dirac_equation&#45;&gt;Schrodingers_equation</title>
<path fill="none" stroke="black" d="M88.7286,-79.5464C91.145,-79.367 93.5818,-79.1861 96.027,-79.0046"/>
<polygon fill="black" stroke="black" points="88.2911,-76.0692 78.5777,-80.3 88.8094,-83.05 88.2911,-76.0692"/>
<polygon fill="black" stroke="black" points="96.382,-82.488 106.095,-78.2571 95.8637,-75.5072 96.382,-82.488"/>
</g>
<!-- Kirchhoffs_Laws -->
<g id="node17" class="node"><title>Kirchhoffs_Laws</title>
<ellipse fill="none" stroke="red" cx="265.131" cy="-322.44" rx="56.6372" ry="26.7407"/>
<text text-anchor="middle" x="265.131" y="-326.24" font-family="Times,serif" font-size="14.00">Kirchhoff&#39;s</text>
<text text-anchor="middle" x="265.131" y="-311.24" font-family="Times,serif" font-size="14.00">Laws</text>
</g>
<!-- Maxwells_equations&#45;&gt;Kirchhoffs_Laws -->
<g id="edge24" class="edge"><title>Maxwells_equations&#45;&gt;Kirchhoffs_Laws</title>
<path fill="none" stroke="black" d="M258.214,-230.561C259.505,-247.714 261.036,-268.044 262.329,-285.215"/>
<polygon fill="black" stroke="black" points="261.699,-230.222 257.458,-220.513 254.718,-230.748 261.699,-230.222"/>
<polygon fill="black" stroke="black" points="258.858,-285.732 263.099,-295.441 265.838,-285.207 258.858,-285.732"/>
</g>
<!-- wave_equation&#45;&gt;uncertainty_relation -->
<g id="edge21" class="edge"><title>wave_equation&#45;&gt;uncertainty_relation</title>
<path fill="none" stroke="black" d="M317.723,-65.2656C326.294,-55.1021 335.775,-43.8605 344.395,-33.6388"/>
<polygon fill="black" stroke="black" points="314.952,-63.1225 311.181,-73.0235 320.303,-67.6353 314.952,-63.1225"/>
<polygon fill="black" stroke="black" points="347.319,-35.6009 351.09,-25.7 341.968,-31.0881 347.319,-35.6009"/>
</g>
<!-- wave_equation&#45;&gt;Maxwells_equations -->
<g id="edge23" class="edge"><title>wave_equation&#45;&gt;Maxwells_equations</title>
<path fill="none" stroke="black" d="M277.39,-133.46C274.519,-141.305 271.48,-149.606 268.609,-157.452"/>
<polygon fill="black" stroke="black" points="280.716,-134.555 280.867,-123.961 274.143,-132.149 280.716,-134.555"/>
<polygon fill="black" stroke="black" points="265.236,-156.483 265.086,-167.077 271.81,-158.889 265.236,-156.483"/>
</g>
<!-- Cosmological_equation_of_state&#45;&gt;Ideal_gas_law -->
<g id="edge17" class="edge"><title>Cosmological_equation_of_state&#45;&gt;Ideal_gas_law</title>
<g id="a_edge17"><a xlink:href="https://en.wikipedia.org/wiki/Equation_of_state_(cosmology)">
<path fill="none" stroke="black" stroke-width="2" d="M-33.4427,389.749C-22.2862,395.66 -10.3042,402.009 0.761226,407.873"/>
<polygon fill="black" stroke="black" stroke-width="2" points="-35.3963,392.675 -42.5937,384.9 -32.1188,386.489 -35.3963,392.675"/>
<polygon fill="black" stroke="black" stroke-width="2" points="2.60491,404.888 9.80237,412.663 -0.672575,411.074 2.60491,404.888"/>
</a>
</g>
</g>
<!-- E=mc2&#45;&gt;F=m*a -->
<g id="edge18" class="edge"><title>E=mc2&#45;&gt;F=m*a</title>
<g id="a_edge18"><a xlink:href="http://www.mrelativity.net/relationshipef/the_relationship_between_e_and_f_p1.htm">
<path fill="none" stroke="black" stroke-width="2" d="M-279.043,-76.1432C-293.748,-82.8384 -310.619,-90.5193 -325.235,-97.1743"/>
<polygon fill="black" stroke="black" stroke-width="2" points="-277.117,-79.1119 -269.466,-71.7827 -280.018,-72.7411 -277.117,-79.1119"/>
<polygon fill="black" stroke="black" stroke-width="2" points="-326.819,-94.0495 -334.47,-101.379 -323.918,-100.42 -326.819,-94.0495"/>
</a>
</g>
</g>
</g>
</svg>
