<?xml version="1.0" ?><!DOCTYPE svg  PUBLIC '-//W3C//DTD SVG 1.1//EN'  'http://www.w3.org/Graphics/SVG/1.1/DTD/svg11.dtd'><svg height="59.754" viewBox="297.943 109.244 168.419 59.754" width="168.419" xmlns="http://www.w3.org/2000/svg" xmlns:xlink="http://www.w3.org/1999/xlink"><defs><path d="M266 639v-566c0 -36 2 -47 88 -47h30v-26c-48 1 -98 2 -146 2s-98 -1 -146 -2v26h30c86 0 88 12 88 47v527c-40 -24 -92 -30 -123 -30c0 21 0 23 1 25s6 2 9 2c56 2 115 17 154 64c14 0 15 -1 15 -22z" id="3116"/><path d="M389 409c-13 9 -29 12 -45 12c-41 0 -67 -23 -79 -34c-25 -22 -52 -71 -55 -80c-3 -13 -7 -29 -11 -43c-5 -22 -11 -43 -16 -65c-6 -23 -43 -174 -46 -182c-6 -20 -25 -27 -36 -27c-15 0 -26 11 -26 25c0 5 11 52 18 78c5 18 16 63 20 82l28 108c7 31 17 70 17 92 c0 29 -7 46 -31 46c-40 0 -59 -58 -74 -118c-6 -23 -7 -24 -15 -24c-7 0 -11 5 -11 9c0 5 15 65 32 101c12 22 32 52 71 52c40 0 80 -26 87 -79c42 61 88 79 128 79c50 0 81 -28 81 -60c0 -30 -23 -54 -51 -54c-14 0 -33 8 -33 32c0 22 16 44 47 50z" id="7219"/><path d="M301 119l49 196c1 2 4 15 4 16c0 8 -13 90 -79 90c-39 0 -86 -36 -120 -106c-19 -42 -50 -154 -50 -209c0 -59 23 -96 64 -96c47 0 91 43 113 71c14 19 14 21 19 38zM365 375c2 12 10 47 42 47c15 0 26 -11 26 -25c0 -6 -9 -42 -46 -192c-8 -29 -13 -51 -20 -76 c-9 -39 -12 -50 -12 -73c0 -20 2 -46 31 -46c41 0 60 63 75 122c4 15 5 20 14 20c6 0 10 -4 10 -9c0 -4 -14 -65 -30 -99c-18 -36 -42 -54 -72 -54s-77 17 -87 76c-28 -33 -75 -76 -130 -76c-68 0 -126 58 -126 157c0 148 122 294 235 294c52 0 79 -40 90 -66z" id="6119"/><path d="M446 402h-85c-5 -30 -54 -296 -72 -373c-11 -50 -53 -233 -155 -233c-39 0 -83 22 -83 65c0 38 30 55 50 55c19 0 34 -12 34 -32c0 -1 0 -45 -51 -49c18 -19 47 -19 50 -19c50 0 65 73 82 160c23 107 64 333 82 426h-64c-20 0 -26 0 -26 11c0 18 10 18 29 18h67 c23 131 33 167 51 202c20 39 62 71 105 71c44 0 86 -23 86 -65c0 -38 -30 -55 -50 -55c-19 0 -34 12 -34 32c0 17 12 46 51 50c-10 9 -31 18 -52 18c-26 0 -47 -23 -53 -47c-8 -32 -22 -103 -41 -206h81c18 0 26 0 26 -10c0 -19 -8 -19 -28 -19z" id="6619"/><path d="M179 232h-53c-15 -64 -15 -89 -15 -103c0 -74 30 -119 87 -119c38 0 133 15 197 100c9 9 10 10 13 10c4 0 10 -5 10 -11c0 -13 -86 -119 -222 -119c-91 0 -151 73 -151 178c0 178 151 273 256 273c66 0 104 -40 104 -84c0 -18 -7 -76 -83 -105c-48 -18 -116 -20 -143 -20 zM131 252h42c42 0 202 0 202 105c0 38 -30 64 -74 64c-32 0 -127 -15 -170 -169z" id="6519"/><path d="M43 -127l113 450c4 18 7 28 7 52c0 30 -8 46 -31 46c-40 0 -59 -59 -74 -118c-6 -23 -7 -24 -15 -24c-7 0 -11 5 -11 9s14 65 32 101c19 38 42 52 71 52c40 0 79 -26 87 -76c11 14 65 76 129 76c75 0 127 -65 127 -157c0 -147 -122 -294 -235 -294c-52 0 -79 39 -90 67 c-6 -23 -51 -195 -51 -207c0 -8 3 -15 49 -15c17 0 24 0 24 -11c0 -18 -12 -18 -18 -18c-21 0 -72 2 -93 2h-43c-13 0 -27 -2 -40 -2c-11 0 -12 8 -12 10c0 19 10 19 22 19c41 0 45 8 52 38zM216 312l-49 -196c-1 -5 -3 -13 -3 -16c0 -4 11 -90 79 -90c46 0 92 48 117 102 c25 52 53 165 53 213c0 52 -20 96 -64 96c-38 0 -71 -28 -82 -38c-16 -14 -44 -43 -51 -71z" id="7018"/><path d="M643 321h-567c-15 0 -30 0 -30 17c0 18 17 18 34 18h559c17 0 34 0 34 -18c0 -17 -15 -17 -30 -17zM639 143h-559c-17 0 -34 0 -34 18c0 17 15 17 30 17h567c15 0 30 0 30 -17c0 -18 -17 -18 -34 -18z" id="3d15"/><path d="M535 597h-320c-16 0 -34 0 -34 18c0 19 17 19 34 19h336c-19 27 -25 51 -25 60c0 15 12 19 18 19c14 0 17 -12 20 -20c3 -12 10 -39 38 -58c6 -5 14 -10 14 -19c0 -11 -7 -14 -17 -20c-23 -13 -50 -32 -74 -62c-7 -10 -11 -16 -20 -16c-10 0 -19 9 -19 19 c0 14 37 49 49 60z" id="7e18"/><path d="M201 402l-78 -313c-3 -12 -3 -31 -3 -32c0 -22 2 -47 32 -47c58 0 104 70 125 120c7 16 8 17 9 18c2 4 6 4 8 4c6 0 10 -3 10 -9c0 -7 -54 -153 -155 -153c-56 0 -89 43 -89 90c0 13 3 23 11 58l66 264h-89c-19 0 -26 0 -26 10c0 19 9 19 29 19h94l39 159 c8 32 31 35 39 35c13 0 26 -9 26 -25c0 -7 0 -9 -4 -23l-37 -146h88c20 0 26 0 26 -11c0 -18 -10 -18 -29 -18h-92z" id="7419"/></defs><g transform="scale(1.25)"><g transform="scale(0.02488,-0.02488)"><g transform="translate(10018.716,-4627.612)"><use xlink:href="#7e18"/><use x="-5.613" xlink:href="#7018"/></g></g><g transform="scale(0.02074,-0.02074)"><g transform="translate(12600.871,-5832.592)"><use xlink:href="#6119"/><use x="514" xlink:href="#6619"/><use x="1102.77" xlink:href="#7419"/><use x="1455.77" xlink:href="#6519"/><use x="1908.77" xlink:href="#7219"/></g></g><g transform="scale(0.02488,-0.02488)"><g transform="translate(12785.76,-4627.612)"><use xlink:href="#3d15"/></g></g><g transform="scale(0.02488,-0.02488)"><g transform="translate(13788.15,-4627.612)"><use xlink:href="#7e18"/><use x="-5.613" xlink:href="#7018"/></g></g><g transform="scale(0.02074,-0.02074)"><g transform="translate(17122.737,-5782.76)"><use xlink:href="#3116"/></g></g></g></svg>