<?xml version="1.0" ?><!DOCTYPE svg  PUBLIC '-//W3C//DTD SVG 1.1//EN'  'http://www.w3.org/Graphics/SVG/1.1/DTD/svg11.dtd'><svg height="62.752" viewBox="78.677 116.441 629.419 62.752" width="629.419" xmlns="http://www.w3.org/2000/svg" xmlns:xlink="http://www.w3.org/1999/xlink"><defs><path d="M260 233l134 -174c24 -31 39 -33 89 -33v-26c-22 2 -54 2 -81 2c-25 0 -68 0 -92 -2v26c16 1 28 9 28 23c0 7 -12 22 -20 33l-87 113l-83 -102c-9 -12 -17 -23 -17 -41c0 -23 16 -25 22 -26v-26c-18 2 -62 2 -82 2c-18 0 -53 -1 -70 -2v26c27 1 74 5 119 59 c11 14 98 121 98 125c0 3 -5 9 -7 11l-115 149c-24 30 -36 34 -90 34v26c22 -2 54 -2 81 -2c25 0 68 0 92 2v-26c-17 -1 -27 -11 -27 -23c0 -5 0 -7 9 -18l88 -115l74 94c5 7 15 18 15 36c0 14 -8 24 -22 26v26c23 -2 54 -2 81 -2c18 0 53 1 70 2v-26 c-44 -1 -82 -17 -115 -55c-28 -33 -62 -77 -92 -116z" id="7815"/><path d="M417 155l-24 -155h-352v23l199 225c57 65 108 140 108 227c0 91 -57 160 -144 160c-61 0 -119 -42 -138 -127c4 2 10 3 16 3c14 0 40 -9 40 -40c0 -35 -30 -41 -40 -41c-12 0 -41 5 -41 44c0 90 67 187 177 187c105 0 199 -68 199 -186c0 -99 -71 -167 -132 -225 c-85 -82 -155 -153 -191 -192h192c14 0 86 0 91 8c4 6 12 18 22 89h18z" id="3215"/><path d="M661 230h-545c-14 0 -33 0 -33 20s19 20 33 20h545c14 0 33 0 33 -20s-19 -20 -33 -20z" id="0021"/><path d="M474 408c-21 13 -49 13 -51 13c-46 0 -80 -44 -95 -104l-35 -136c-16 -66 -20 -82 -20 -104c0 -41 19 -67 54 -67c45 0 103 41 130 129c3 8 4 13 13 13c6 0 10 -4 10 -9c0 -22 -54 -153 -156 -153c-37 0 -87 20 -103 79c-21 -41 -55 -79 -103 -79c-43 0 -90 19 -90 61 c0 32 26 53 50 53c19 0 34 -12 34 -32c0 -12 -8 -42 -44 -49c21 -13 46 -13 51 -13c53 0 82 55 97 115l34 137c12 48 18 71 18 93c0 24 -9 66 -54 66c-29 0 -96 -21 -130 -132c-2 -4 -4 -10 -12 -10c-7 0 -11 5 -11 9c0 22 54 153 156 153c18 0 80 -4 103 -79 c9 19 43 79 104 79c42 0 90 -19 90 -61c0 -27 -21 -53 -51 -53c-14 0 -33 8 -33 32c0 19 12 43 44 49z" id="7818"/><path d="M349 350c-22 55 -80 74 -119 74c-59 0 -133 -55 -133 -207c0 -148 77 -207 141 -207c43 0 100 20 126 101c4 13 5 14 12 14s8 -3 8 -7c0 -11 -31 -126 -155 -126c-102 0 -196 91 -196 224c0 128 90 226 196 226c77 0 145 -54 145 -125c0 -35 -29 -38 -36 -38 c-13 0 -36 8 -36 36c0 35 28 35 47 35z" id="6315"/><path d="M155 616c0 -23 -19 -41 -41 -41c-23 0 -41 19 -41 41c0 23 19 41 41 41c23 0 41 -19 41 -41zM38 427l115 11v-370c0 -36 2 -42 61 -42v-26c-23 2 -64 2 -88 2c-25 0 -68 0 -92 -2v26c64 0 68 5 68 43v278c0 48 -8 54 -64 54v26z" id="6915"/><path d="M417 155l-24 -155h-352v23l199 225c57 65 108 140 108 227c0 91 -57 160 -144 160c-61 0 -119 -42 -138 -127c4 2 10 3 16 3c14 0 40 -9 40 -40c0 -35 -30 -41 -40 -41c-12 0 -41 5 -41 44c0 90 67 187 177 187c105 0 199 -68 199 -186c0 -99 -71 -167 -132 -225 c-85 -82 -155 -153 -191 -192h192c14 0 86 0 91 8c4 6 12 18 22 89h18z" id="3216"/><path d="M377 232v-265c0 -15 0 -31 -18 -31c-17 0 -17 17 -17 31v265h-265c-15 0 -31 0 -31 18c0 17 17 17 31 17h265v265c0 15 0 31 18 31c17 0 17 -17 17 -31v-265h265c15 0 31 0 31 -18c0 -17 -17 -17 -31 -17h-265z" id="2b15"/><path d="M643 321h-567c-15 0 -30 0 -30 17c0 18 17 18 34 18h559c17 0 34 0 34 -18c0 -17 -15 -17 -30 -17zM639 143h-559c-17 0 -34 0 -34 18c0 17 15 17 30 17h567c15 0 30 0 30 -17c0 -18 -17 -18 -34 -18z" id="3d15"/><path d="M306 -244c0 -4 -2 -6 -7 -6c-12 0 -94 73 -142 177c-60 129 -67 251 -67 323c0 96 14 204 64 315c49 110 134 184 145 184c4 0 7 -2 7 -5s-2 -5 -2 -6c-49 -50 -170 -177 -170 -489s123 -440 169 -487c3 -3 3 -5 3 -6z" id="2815"/><path d="M283 143c0 -7 -36 -153 -128 -153c-48 0 -79 36 -79 81c0 18 6 34 12 50l70 186c8 22 21 55 21 81c0 32 -17 33 -26 33c-39 0 -77 -40 -101 -124c-4 -14 -5 -18 -14 -18c-7 0 -11 5 -11 9c0 8 37 153 129 153c49 0 79 -38 79 -80c0 -19 -7 -37 -10 -45l-70 -186 c-11 -30 -23 -60 -23 -87c0 -30 14 -33 26 -33c33 0 74 31 100 122c5 17 6 20 15 20c6 0 10 -4 10 -9zM275 624c0 -22 -23 -48 -50 -48c-12 0 -33 8 -33 33c0 26 26 48 49 48c22 0 34 -18 34 -33z" id="6918"/><path d="M263 249c0 -96 -14 -204 -64 -315c-49 -110 -134 -184 -145 -184c-3 0 -7 1 -7 6c0 2 1 3 2 5c49 50 170 177 170 489c0 311 -122 438 -170 488c-1 2 -2 3 -2 5c0 5 4 6 7 6c12 0 94 -73 142 -177c60 -129 67 -251 67 -323z" id="2915"/><path d="M309 422v-112c0 -17 0 -20 -9 -20c-3 0 -8 1 -9 6c-2 32 -8 132 -115 132c-101 0 -115 -55 -115 -81c0 -61 70 -75 125 -87c42 -8 77 -15 107 -46c13 -12 40 -39 40 -90c0 -78 -53 -132 -152 -132c-56 0 -91 26 -111 53c-6 -10 -21 -34 -27 -43c-5 -8 -6 -9 -11 -9 c-6 0 -7 1 -7 19v144c0 20 1 21 9 21s8 -1 11 -15c18 -88 49 -154 136 -154c92 0 116 54 116 96c0 36 -22 58 -35 70c-21 18 -43 22 -106 35c-29 6 -131 27 -131 117c0 58 40 116 151 116c17 0 62 -1 94 -35c3 4 12 14 15 18c12 15 13 16 17 16c6 0 7 -1 7 -19z" id="7315"/><path d="M415 304v-235c0 -39 4 -43 68 -43v-26c-24 2 -69 2 -95 2s-70 0 -94 -2v26c64 0 68 5 68 43v239c0 48 -8 114 -82 114c-70 0 -126 -69 -126 -161v-192c0 -39 4 -43 68 -43v-26c-24 2 -69 2 -95 2s-70 0 -94 -2v26c64 0 68 5 68 43v278c0 48 -9 54 -68 54v26l118 11v-101 h1c15 40 56 101 135 101c118 0 128 -83 128 -134z" id="6e15"/><path d="M381 235h-290c0 -47 0 -106 31 -157c27 -44 70 -68 113 -68c52 0 107 34 129 102c4 12 5 14 12 14c2 0 8 0 8 -7c0 -21 -44 -127 -156 -127c-106 0 -201 96 -201 226c0 123 84 224 190 224c114 0 168 -89 168 -191c0 -10 0 -12 -4 -16zM92 250h239 c-1 112 -47 176 -115 176c-40 0 -117 -32 -124 -176z" id="6515"/><path d="M220 -169v-26c-24 2 -69 2 -95 2s-70 0 -94 -2v26c64 0 68 5 68 43v473c0 48 -9 54 -68 54v26l119 11v-73c28 40 77 73 137 73c103 0 190 -96 190 -222c0 -136 -101 -224 -201 -224c-53 0 -95 27 -124 69v-187c0 -39 4 -43 68 -43zM152 314v-198c0 -16 0 -22 13 -44 c30 -47 69 -64 105 -64c79 0 143 93 143 207s-60 205 -133 205c-50 0 -84 -30 -89 -34c-39 -37 -39 -58 -39 -72z" id="7015"/><path d="M431 214c0 -126 -93 -222 -202 -222s-202 96 -202 222c0 128 93 228 202 228s202 -100 202 -228zM229 10c38 0 81 19 109 65c27 48 29 108 29 147c0 31 0 97 -31 144c-24 35 -62 60 -107 60c-51 0 -90 -32 -110 -65c-26 -45 -28 -97 -28 -139c0 -44 3 -100 28 -145 c23 -39 63 -67 110 -67z" id="6f15"/></defs><g transform="scale(1.25)"><g transform="scale(0.02488,-0.02488)"><g transform="translate(2904.742,-5109.927)"><use xlink:href="#6515"/><use x="406" xlink:href="#7815"/><use x="890" xlink:href="#7015"/><use x="1401.976" xlink:href="#2815"/><use x="1755.976" xlink:href="#3215"/></g></g><g transform="scale(0.02488,-0.02488)"><g transform="translate(5118.719,-5109.927)"><use xlink:href="#6918"/><use x="531.4" xlink:href="#7818"/></g></g><g transform="scale(0.02488,-0.02488)"><g transform="translate(6206.119,-5109.927)"><use xlink:href="#2915"/><use x="631.777" xlink:href="#3d15"/><use x="1628.554" xlink:href="#2815"/><use x="1982.554" xlink:href="#6315"/><use x="2388.554" xlink:href="#6f15"/><use x="2846.554" xlink:href="#7315"/><use x="3206.901" xlink:href="#2815"/></g></g><g transform="scale(0.02488,-0.02488)"><g transform="translate(9767.02,-5109.927)"><use xlink:href="#7818"/></g></g><g transform="scale(0.02488,-0.02488)"><g transform="translate(10323.02,-5109.927)"><use xlink:href="#2915"/><use x="354" xlink:href="#2915"/></g></g><g transform="scale(0.02074,-0.02074)"><g transform="translate(13232.968,-5634.63)"><use xlink:href="#3216"/></g></g><g transform="scale(0.02488,-0.02488)"><g transform="translate(11433.421,-5109.927)"><use xlink:href="#2b15"/><use x="719" xlink:href="#3215"/></g></g><g transform="scale(0.02488,-0.02488)"><g transform="translate(12610.421,-5109.927)"><use xlink:href="#6918"/></g></g><g transform="scale(0.02488,-0.02488)"><g transform="translate(13111.087,-5109.927)"><use xlink:href="#6315"/><use x="406" xlink:href="#6f15"/><use x="864" xlink:href="#7315"/><use x="1224.348" xlink:href="#2815"/></g></g><g transform="scale(0.02488,-0.02488)"><g transform="translate(14689.434,-5109.927)"><use xlink:href="#7818"/></g></g><g transform="scale(0.02488,-0.02488)"><g transform="translate(15245.434,-5109.927)"><use xlink:href="#2915"/><use x="520.666" xlink:href="#7315"/><use x="879.666" xlink:href="#6915"/><use x="1128.666" xlink:href="#6e15"/><use x="1640.527" xlink:href="#2815"/></g></g><g transform="scale(0.02488,-0.02488)"><g transform="translate(17239.961,-5109.927)"><use xlink:href="#7818"/></g></g><g transform="scale(0.02488,-0.02488)"><g transform="translate(17795.961,-5109.927)"><use xlink:href="#2915"/></g></g><g transform="scale(0.02488,-0.02488)"><g transform="translate(18149.961,-5109.927)"><use xlink:href="#0021"/></g></g><g transform="scale(0.02488,-0.02488)"><g transform="translate(18926.961,-5109.927)"><use xlink:href="#2815"/><use x="354" xlink:href="#7315"/><use x="713" xlink:href="#6915"/><use x="962" xlink:href="#6e15"/><use x="1473.861" xlink:href="#2815"/></g></g><g transform="scale(0.02488,-0.02488)"><g transform="translate(20754.822,-5109.927)"><use xlink:href="#7818"/></g></g><g transform="scale(0.02488,-0.02488)"><g transform="translate(21310.822,-5109.927)"><use xlink:href="#2915"/><use x="354" xlink:href="#2915"/></g></g><g transform="scale(0.02074,-0.02074)"><g transform="translate(26414.091,-5634.63)"><use xlink:href="#3216"/></g></g></g></svg>