<?xml version="1.0" ?><!DOCTYPE svg  PUBLIC '-//W3C//DTD SVG 1.1//EN'  'http://www.w3.org/Graphics/SVG/1.1/DTD/svg11.dtd'><svg height="97.048" viewBox="241.743 94.744 282.916 97.048" width="282.916" xmlns="http://www.w3.org/2000/svg" xmlns:xlink="http://www.w3.org/1999/xlink"><defs><path d="M470 670l-164 -660c30 0 107 0 191 94c64 72 84 146 84 182c0 52 -27 79 -36 88c-4 4 -11 11 -11 23c0 20 22 44 46 44c10 0 40 -7 40 -67c0 -51 -24 -140 -34 -166c-17 -43 -47 -89 -80 -125c-90 -93 -169 -93 -206 -93c-4 -18 -45 -186 -49 -190c-2 -4 -6 -4 -8 -4 c-3 0 -11 0 -11 9c0 4 7 32 23 92c8 31 15 63 23 94c-90 7 -170 44 -170 140c0 23 0 45 54 187c17 44 17 66 17 70c0 32 -17 33 -26 33c-37 0 -77 -37 -101 -124c-4 -14 -5 -18 -14 -18c-7 0 -11 5 -11 9c0 8 37 153 129 153c47 0 79 -36 79 -81c0 -18 -5 -31 -18 -67 c-47 -124 -47 -147 -47 -169c0 -60 31 -102 114 -112l165 662c4 15 5 20 14 20c3 0 11 0 11 -9c0 -1 -4 -14 -4 -15z" id="2018"/><path d="M661 230h-545c-14 0 -33 0 -33 20s19 20 33 20h545c14 0 33 0 33 -20s-19 -20 -33 -20z" id="0021"/><path d="M474 408c-21 13 -49 13 -51 13c-46 0 -80 -44 -95 -104l-35 -136c-16 -66 -20 -82 -20 -104c0 -41 19 -67 54 -67c45 0 103 41 130 129c3 8 4 13 13 13c6 0 10 -4 10 -9c0 -22 -54 -153 -156 -153c-37 0 -87 20 -103 79c-21 -41 -55 -79 -103 -79c-43 0 -90 19 -90 61 c0 32 26 53 50 53c19 0 34 -12 34 -32c0 -12 -8 -42 -44 -49c21 -13 46 -13 51 -13c53 0 82 55 97 115l34 137c12 48 18 71 18 93c0 24 -9 66 -54 66c-29 0 -96 -21 -130 -132c-2 -4 -4 -10 -12 -10c-7 0 -11 5 -11 9c0 22 54 153 156 153c18 0 80 -4 103 -79 c9 19 43 79 104 79c42 0 90 -19 90 -61c0 -27 -21 -53 -51 -53c-14 0 -33 8 -33 32c0 19 12 43 44 49z" id="7818"/><path d="M503 669l-141 -560c-7 -28 -7 -49 -7 -53c0 -20 2 -46 31 -46c41 0 60 63 75 122c4 15 5 20 14 20c6 0 10 -4 10 -9c0 -4 -14 -65 -30 -99c-18 -36 -42 -54 -72 -54s-77 17 -87 76c-28 -33 -75 -76 -130 -76c-68 0 -126 58 -126 157c0 148 122 294 235 294 c52 0 79 -40 90 -66l61 243c1 3 3 11 3 17c0 10 -1 19 -50 19c-14 0 -22 0 -22 10c0 18 7 19 32 21c18 1 33 3 50 4c5 1 54 5 55 5c2 0 12 0 12 -10c0 -5 -2 -11 -3 -15zM301 119l49 196c1 2 4 15 4 16c0 8 -13 90 -79 90c-39 0 -86 -36 -120 -106 c-19 -42 -50 -154 -50 -209c0 -59 23 -96 64 -96c47 0 91 43 113 71c14 19 14 21 19 38z" id="6418"/><path d="M643 321h-567c-15 0 -30 0 -30 17c0 18 17 18 34 18h559c17 0 34 0 34 -18c0 -17 -15 -17 -30 -17zM639 143h-559c-17 0 -34 0 -34 18c0 17 15 17 30 17h567c15 0 30 0 30 -17c0 -18 -17 -18 -34 -18z" id="3d15"/><path d="M306 -244c0 -4 -2 -6 -7 -6c-12 0 -94 73 -142 177c-60 129 -67 251 -67 323c0 96 14 204 64 315c49 110 134 184 145 184c4 0 7 -2 7 -5s-2 -5 -2 -6c-49 -50 -170 -177 -170 -489s123 -440 169 -487c3 -3 3 -5 3 -6z" id="2815"/><path d="M263 249c0 -96 -14 -204 -64 -315c-49 -110 -134 -184 -145 -184c-3 0 -7 1 -7 6c0 2 1 3 2 5c49 50 170 177 170 489c0 311 -122 438 -170 488c-1 2 -2 3 -2 5c0 5 4 6 7 6c12 0 94 -73 142 -177c60 -129 67 -251 67 -323z" id="2915"/><path d="M281 669l-103 -411c37 14 74 52 84 64c71 80 116 119 171 119c45 0 68 -30 68 -59c0 -32 -24 -55 -51 -55c-14 0 -33 8 -33 32c0 20 14 46 51 50c-7 6 -13 12 -36 12c-46 0 -85 -32 -142 -96c-14 -15 -50 -54 -86 -76c92 -12 145 -45 145 -104c0 -12 0 -13 -4 -31 c-4 -15 -8 -37 -8 -56c0 -38 13 -48 33 -48c51 0 72 70 86 122c4 16 5 20 14 20c6 0 10 -4 10 -9c0 -4 -13 -60 -34 -97c-8 -14 -32 -56 -78 -56c-51 0 -89 39 -89 97c0 5 0 17 4 32c3 15 3 19 3 25c0 48 -43 78 -115 86l-47 -187c-8 -31 -14 -53 -42 -53 c-10 0 -27 4 -27 26c0 6 0 8 4 23l143 572c5 18 5 20 5 24c0 10 0 19 -51 19c-10 0 -20 0 -20 10c0 18 7 19 31 21c18 1 33 3 50 4c18 2 54 5 55 5c2 0 12 0 12 -10c0 -5 -2 -11 -3 -15z" id="6b18"/><path d="M417 155l-24 -155h-352v23l199 225c57 65 108 140 108 227c0 91 -57 160 -144 160c-61 0 -119 -42 -138 -127c4 2 10 3 16 3c14 0 40 -9 40 -40c0 -35 -30 -41 -40 -41c-12 0 -41 5 -41 44c0 90 67 187 177 187c105 0 199 -68 199 -186c0 -99 -71 -167 -132 -225 c-85 -82 -155 -153 -191 -192h192c14 0 86 0 91 8c4 6 12 18 22 89h18z" id="3216"/></defs><g transform="scale(1.25)"><rect height="0.995" width="36.514" x="203.395" y="118.647"/><g transform="scale(0.02488,-0.02488)"><g transform="translate(8453.237,-4362.257)"><use xlink:href="#6418"/></g></g><g transform="scale(0.02074,-0.02074)"><g transform="translate(10750.027,-4797.696)"><use xlink:href="#3216"/></g></g><g transform="scale(0.02488,-0.02488)"><g transform="translate(8175.028,-5754.996)"><use xlink:href="#6418"/><use x="508" xlink:href="#7818"/></g></g><g transform="scale(0.02074,-0.02074)"><g transform="translate(11083.269,-6557.221)"><use xlink:href="#3216"/></g></g><g transform="scale(0.02488,-0.02488)"><g transform="translate(9690.87,-5038.765)"><use xlink:href="#2018"/></g></g><g transform="scale(0.02488,-0.02488)"><g transform="translate(10362.75,-5038.765)"><use xlink:href="#2815"/></g></g><g transform="scale(0.02488,-0.02488)"><g transform="translate(10716.75,-5038.765)"><use xlink:href="#7818"/></g></g><g transform="scale(0.02488,-0.02488)"><g transform="translate(11272.75,-5038.765)"><use xlink:href="#2915"/><use x="631.777" xlink:href="#3d15"/></g></g><g transform="scale(0.02488,-0.02488)"><g transform="translate(12901.303,-5038.765)"><use xlink:href="#0021"/><use x="777" xlink:href="#6b18"/></g></g><g transform="scale(0.02074,-0.02074)"><g transform="translate(17059.555,-5549.263)"><use xlink:href="#3216"/></g></g><g transform="scale(0.02488,-0.02488)"><g transform="translate(14623.269,-5038.765)"><use xlink:href="#2018"/></g></g><g transform="scale(0.02488,-0.02488)"><g transform="translate(15295.149,-5038.765)"><use xlink:href="#2815"/></g></g><g transform="scale(0.02488,-0.02488)"><g transform="translate(15649.149,-5038.765)"><use xlink:href="#7818"/></g></g><g transform="scale(0.02488,-0.02488)"><g transform="translate(16205.149,-5038.765)"><use xlink:href="#2915"/></g></g></g></svg>