<?xml version="1.0" ?><!DOCTYPE svg  PUBLIC '-//W3C//DTD SVG 1.1//EN'  'http://www.w3.org/Graphics/SVG/1.1/DTD/svg11.dtd'><svg height="70.253" viewBox="177.336 100.586 413.102 70.253" width="413.102" xmlns="http://www.w3.org/2000/svg" xmlns:xlink="http://www.w3.org/1999/xlink"><defs><path d="M281 669l-77 -307c41 52 91 79 148 79c76 0 111 -45 111 -105c0 -58 -45 -176 -63 -224c-4 -11 -16 -43 -16 -69c0 -32 16 -33 26 -33c40 0 77 42 100 122c5 17 6 20 15 20c6 0 10 -4 10 -9c0 -6 -35 -153 -128 -153c-48 0 -79 36 -79 81c0 18 5 31 14 55 c22 60 61 169 61 225c0 40 -14 70 -54 70c-77 0 -122 -60 -141 -89s-19 -30 -30 -72c-5 -22 -11 -43 -16 -65l-45 -181c-5 -11 -18 -24 -35 -24c-10 0 -27 4 -27 26c0 6 0 8 4 23l145 579c1 3 3 11 3 17c0 10 -1 19 -50 19c-14 0 -22 0 -22 10c0 18 7 19 32 21 c18 1 33 3 50 4c5 1 54 5 55 5c2 0 12 0 12 -10c0 -5 -2 -11 -3 -15z" id="6819"/><path d="M283 143c0 -7 -36 -153 -128 -153c-48 0 -79 36 -79 81c0 18 6 34 12 50l70 186c8 22 21 55 21 81c0 32 -17 33 -26 33c-39 0 -77 -40 -101 -124c-4 -14 -5 -18 -14 -18c-7 0 -11 5 -11 9c0 8 37 153 129 153c49 0 79 -38 79 -80c0 -19 -7 -37 -10 -45l-70 -186 c-11 -30 -23 -60 -23 -87c0 -30 14 -33 26 -33c33 0 74 31 100 122c5 17 6 20 15 20c6 0 10 -4 10 -9zM275 624c0 -22 -23 -48 -50 -48c-12 0 -33 8 -33 33c0 26 26 48 49 48c22 0 34 -18 34 -33z" id="6919"/><path d="M661 230h-545c-14 0 -33 0 -33 20s19 20 33 20h545c14 0 33 0 33 -20s-19 -20 -33 -20z" id="0021"/><path d="M291 227h-166c-9 -40 -11 -66 -11 -85c0 -97 56 -132 109 -132c30 0 67 12 105 37c5 4 7 5 10 5c6 0 9 -6 9 -12c0 -10 -63 -50 -127 -50c-99 0 -174 75 -174 186c0 157 135 255 258 255h34c18 0 29 0 29 -13c0 -16 -15 -16 -32 -16h-29c-89 0 -148 -55 -173 -146h162 c18 0 28 0 28 -13c0 -16 -17 -16 -32 -16z" id="0f18"/><path d="M260 436c-34 66 -59 123 -59 172c0 102 98 102 115 102s31 0 78 -10c35 -8 50 -11 50 -30c0 -16 -15 -37 -36 -37c-13 0 -36 13 -45 19c-30 17 -49 28 -80 28c-44 0 -57 -30 -57 -47c0 -48 60 -125 97 -172c25 -33 67 -88 67 -178c0 -133 -80 -295 -198 -295 c-80 0 -152 60 -152 167c0 117 92 250 220 281zM271 417c-136 -36 -173 -225 -173 -290c0 -93 56 -119 95 -119c89 0 131 157 131 235c0 65 -15 95 -53 174z" id="0e18"/><path d="M195 -4c0 -115 -77 -189 -85 -189c-5 0 -10 5 -10 10c0 2 0 4 11 16c58 65 64 130 64 163c0 5 0 19 -2 19c-1 0 -2 0 -4 -2c-9 -9 -20 -13 -33 -13c-34 0 -49 27 -49 49s16 48 48 48c41 0 60 -43 60 -101z" id="3b19"/><path d="M206 293l-33 -132l-22 -90c-5 -20 -14 -55 -16 -60c-8 -15 -22 -21 -34 -21c-15 0 -26 11 -26 25c0 5 11 52 18 78c5 18 16 63 20 82l28 108c7 31 17 70 17 92c0 30 -8 46 -31 46c-40 0 -58 -57 -74 -118c-6 -23 -7 -24 -15 -24c-7 0 -11 5 -11 9s14 64 32 100 c17 34 39 53 71 53c44 0 85 -31 88 -88c18 25 65 88 154 88c76 0 111 -45 111 -105c0 -57 -42 -169 -62 -224c-6 -14 -17 -44 -17 -69c0 -32 16 -33 26 -33c39 0 77 40 100 122c5 17 6 20 15 20c6 0 10 -4 10 -9c0 -6 -35 -153 -128 -153c-48 0 -79 36 -79 81 c0 18 5 31 14 55c20 54 61 168 61 225c0 40 -14 70 -54 70c-39 0 -73 -16 -99 -40c-37 -32 -62 -82 -64 -88z" id="6e19"/><path d="M643 321h-567c-15 0 -30 0 -30 17c0 18 17 18 34 18h559c17 0 34 0 34 -18c0 -17 -15 -17 -30 -17zM639 143h-559c-17 0 -34 0 -34 18c0 17 15 17 30 17h567c15 0 30 0 30 -17c0 -18 -17 -18 -34 -18z" id="3d15"/><path d="M254 669l-141 -560c-7 -28 -7 -49 -7 -53c0 -14 0 -46 30 -46c40 0 58 53 76 122c4 15 5 20 14 20c6 0 10 -4 10 -9c0 -4 -14 -67 -31 -100c-16 -31 -38 -53 -71 -53c-51 0 -88 40 -88 90c0 16 2 24 5 35l124 496c5 18 5 20 5 24c0 10 0 19 -51 19c-10 0 -20 0 -20 10 c0 18 7 19 31 21c18 1 33 3 50 4c18 2 54 5 55 5c2 0 12 0 12 -10c0 -5 -2 -11 -3 -15z" id="6c19"/><path d="M206 293l-33 -132l-22 -90c-5 -20 -14 -55 -16 -60c-8 -15 -22 -21 -34 -21c-15 0 -26 11 -26 25c0 5 11 52 18 78c5 18 16 63 20 82l28 108c7 31 17 70 17 92c0 30 -8 46 -31 46c-40 0 -59 -59 -74 -118c-6 -23 -7 -24 -15 -24c-7 0 -11 5 -11 9s14 65 32 101 c19 38 42 52 71 52c44 0 85 -31 88 -88c18 25 65 88 154 88c75 0 108 -43 111 -97c40 59 94 97 161 97c76 0 111 -45 111 -105c0 -58 -45 -176 -63 -224c-4 -11 -16 -43 -16 -69c0 -32 16 -33 26 -33c40 0 77 42 100 122c5 17 6 20 15 20c6 0 10 -4 10 -9 c0 -6 -35 -153 -128 -153c-48 0 -79 36 -79 81c0 18 5 31 14 55c22 60 61 169 61 225c0 40 -14 70 -54 70c-110 0 -162 -125 -164 -133l-60 -239c-9 -36 -14 -59 -44 -59c-15 0 -26 11 -26 25c0 4 6 30 10 45c2 11 21 85 29 115l25 103c12 47 12 67 12 73 c0 40 -14 70 -54 70c-39 0 -73 -16 -99 -40c-37 -32 -62 -82 -64 -88z" id="6d19"/><path d="M350 317l-93 -370c-25 -100 -116 -151 -185 -151c-41 0 -85 17 -85 58c0 30 24 52 50 52c22 0 34 -16 34 -32c0 -24 -19 -43 -43 -48c19 -10 40 -10 44 -10c55 0 102 56 121 130l95 377c4 18 7 28 7 52c0 35 -11 46 -32 46c-38 0 -88 -31 -128 -128 c-5 -10 -6 -14 -14 -14c-6 0 -10 4 -10 9c0 7 54 153 155 153c45 0 88 -32 88 -90c0 -4 0 -18 -4 -34zM391 624c0 -26 -26 -48 -49 -48c-22 0 -34 18 -34 33c0 22 23 48 50 48c12 0 33 -8 33 -33z" id="6a19"/><path d="M281 669l-103 -411c37 14 74 52 84 64c71 80 116 119 171 119c45 0 68 -30 68 -59c0 -32 -24 -55 -51 -55c-14 0 -33 8 -33 32c0 20 14 46 51 50c-7 6 -13 12 -36 12c-46 0 -85 -32 -142 -96c-14 -15 -50 -54 -86 -76c92 -12 145 -45 145 -104c0 -12 0 -13 -4 -31 c-4 -15 -8 -37 -8 -56c0 -38 13 -48 33 -48c51 0 72 70 86 122c4 16 5 20 14 20c6 0 10 -4 10 -9c0 -4 -13 -60 -34 -97c-8 -14 -32 -56 -78 -56c-51 0 -89 39 -89 97c0 5 0 17 4 32c3 15 3 19 3 25c0 48 -43 78 -115 86l-47 -187c-8 -31 -14 -53 -42 -53 c-10 0 -27 4 -27 26c0 6 0 8 4 23l143 572c5 18 5 20 5 24c0 10 0 19 -51 19c-10 0 -20 0 -20 10c0 18 7 19 31 21c18 1 33 3 50 4c18 2 54 5 55 5c2 0 12 0 12 -10c0 -5 -2 -11 -3 -15z" id="6b19"/></defs><g transform="scale(1.25)"><g transform="scale(0.02488,-0.02488)"><g transform="translate(6058.053,-4627.612)"><use xlink:href="#0f18"/></g></g><g transform="scale(0.02074,-0.02074)"><g transform="translate(7741.174,-5056.038)"><use xlink:href="#6919"/><use x="334" xlink:href="#3b19"/><use x="605" xlink:href="#6a19"/><use x="1011.86" xlink:href="#3b19"/><use x="1282.86" xlink:href="#6b19"/></g></g><g transform="scale(0.02488,-0.02488)"><g transform="translate(7996.787,-4627.612)"><use xlink:href="#0f18"/></g></g><g transform="scale(0.02074,-0.02074)"><g transform="translate(10066.907,-5832.592)"><use xlink:href="#6e19"/><use x="584" xlink:href="#3b19"/><use x="855" xlink:href="#6a19"/><use x="1261.86" xlink:href="#3b19"/><use x="1532.86" xlink:href="#6b19"/></g></g><g transform="scale(0.02488,-0.02488)"><g transform="translate(10422.074,-4627.612)"><use xlink:href="#3d15"/></g></g><g transform="scale(0.02488,-0.02488)"><g transform="translate(11418.85,-4627.612)"><use xlink:href="#0e18"/></g></g><g transform="scale(0.02074,-0.02074)"><g transform="translate(14262.633,-5056.038)"><use xlink:href="#6c19"/></g><g transform="translate(14941.944,-5903.559)"><use xlink:href="#6a19"/></g></g><g transform="scale(0.02488,-0.02488)"><g transform="translate(12860.302,-4627.612)"><use xlink:href="#0e18"/></g></g><g transform="scale(0.02074,-0.02074)"><g transform="translate(15991.818,-5056.038)"><use xlink:href="#6d19"/></g><g transform="translate(16671.13,-5942.412)"><use xlink:href="#6b19"/></g></g><g transform="scale(0.02488,-0.02488)"><g transform="translate(14591.889,-4627.612)"><use xlink:href="#0021"/><use x="999.221" xlink:href="#0e18"/></g></g><g transform="scale(0.02074,-0.02074)"><g transform="translate(19267.734,-5056.038)"><use xlink:href="#6c19"/></g><g transform="translate(19947.046,-5942.412)"><use xlink:href="#6b19"/></g></g><g transform="scale(0.02488,-0.02488)"><g transform="translate(17100.476,-4627.612)"><use xlink:href="#0e18"/></g></g><g transform="scale(0.02074,-0.02074)"><g transform="translate(21078.391,-5056.038)"><use xlink:href="#6d19"/></g><g transform="translate(21757.703,-5942.412)"><use xlink:href="#6819"/></g></g></g></svg>