<?xml version="1.0" ?><!DOCTYPE svg  PUBLIC '-//W3C//DTD SVG 1.1//EN'  'http://www.w3.org/Graphics/SVG/1.1/DTD/svg11.dtd'><svg height="62.752" viewBox="154.36 116.441 460.391 62.752" width="460.391" xmlns="http://www.w3.org/2000/svg" xmlns:xlink="http://www.w3.org/1999/xlink"><defs><path d="M661 230h-545c-14 0 -33 0 -33 20s19 20 33 20h545c14 0 33 0 33 -20s-19 -20 -33 -20z" id="0021"/><path d="M377 232v-265c0 -15 0 -31 -18 -31c-17 0 -17 17 -17 31v265h-265c-15 0 -31 0 -31 18c0 17 17 17 31 17h265v265c0 15 0 31 18 31c17 0 17 -17 17 -31v-265h265c15 0 31 0 31 -18c0 -17 -17 -17 -31 -17h-265z" id="2b15"/><path d="M474 408c-21 13 -49 13 -51 13c-46 0 -80 -44 -95 -104l-35 -136c-16 -66 -20 -82 -20 -104c0 -41 19 -67 54 -67c45 0 103 41 130 129c3 8 4 13 13 13c6 0 10 -4 10 -9c0 -22 -54 -153 -156 -153c-37 0 -87 20 -103 79c-21 -41 -55 -79 -103 -79c-43 0 -90 19 -90 61 c0 32 26 53 50 53c19 0 34 -12 34 -32c0 -12 -8 -42 -44 -49c21 -13 46 -13 51 -13c53 0 82 55 97 115l34 137c12 48 18 71 18 93c0 24 -9 66 -54 66c-29 0 -96 -21 -130 -132c-2 -4 -4 -10 -12 -10c-7 0 -11 5 -11 9c0 22 54 153 156 153c18 0 80 -4 103 -79 c9 19 43 79 104 79c42 0 90 -19 90 -61c0 -27 -21 -53 -51 -53c-14 0 -33 8 -33 32c0 19 12 43 44 49z" id="7818"/><path d="M327 712l-176 -462l176 -462c5 -12 5 -17 5 -18c0 -11 -9 -20 -20 -20c-14 0 -17 10 -22 22l-175 460c-5 12 -5 17 -5 18s0 6 5 18l176 462c4 11 8 20 21 20c11 0 20 -9 20 -20c0 -1 0 -6 -5 -18z" id="6821"/><path d="M273 232l-176 -462c-4 -11 -8 -20 -21 -20c-11 0 -20 9 -20 20c0 1 0 6 5 18l176 462l-176 462c-5 12 -5 17 -5 18c0 11 9 20 20 20c14 0 17 -10 22 -22l175 -460c5 -12 5 -17 5 -18s0 -6 -5 -18z" id="6921"/><path d="M643 321h-567c-15 0 -30 0 -30 17c0 18 17 18 34 18h559c17 0 34 0 34 -18c0 -17 -15 -17 -30 -17zM639 143h-559c-17 0 -34 0 -34 18c0 17 15 17 30 17h567c15 0 30 0 30 -17c0 -18 -17 -18 -34 -18z" id="3d15"/><path d="M417 155l-24 -155h-352v23l199 225c57 65 108 140 108 227c0 91 -57 160 -144 160c-61 0 -119 -42 -138 -127c4 2 10 3 16 3c14 0 40 -9 40 -40c0 -35 -30 -41 -40 -41c-12 0 -41 5 -41 44c0 90 67 187 177 187c105 0 199 -68 199 -186c0 -99 -71 -167 -132 -225 c-85 -82 -155 -153 -191 -192h192c14 0 86 0 91 8c4 6 12 18 22 89h18z" id="3215"/><path d="M417 155l-24 -155h-352v23l199 225c57 65 108 140 108 227c0 91 -57 160 -144 160c-61 0 -119 -42 -138 -127c4 2 10 3 16 3c14 0 40 -9 40 -40c0 -35 -30 -41 -40 -41c-12 0 -41 5 -41 44c0 90 67 187 177 187c105 0 199 -68 199 -186c0 -99 -71 -167 -132 -225 c-85 -82 -155 -153 -191 -192h192c14 0 86 0 91 8c4 6 12 18 22 89h18z" id="3216"/></defs><g transform="scale(1.25)"><g transform="scale(0.02488,-0.02488)"><g transform="translate(5255.279,-5109.927)"><use xlink:href="#6821"/><use x="388" xlink:href="#7818"/></g></g><g transform="scale(0.02074,-0.02074)"><g transform="translate(7436.743,-5634.63)"><use xlink:href="#3216"/></g></g><g transform="scale(0.02488,-0.02488)"><g transform="translate(6823.901,-5109.927)"><use xlink:href="#0021"/></g></g><g transform="scale(0.02488,-0.02488)"><g transform="translate(7823.123,-5109.927)"><use xlink:href="#3215"/></g></g><g transform="scale(0.02488,-0.02488)"><g transform="translate(8281.123,-5109.927)"><use xlink:href="#7818"/><use x="556" xlink:href="#6821"/><use x="944" xlink:href="#7818"/><use x="1500" xlink:href="#6921"/></g></g><g transform="scale(0.02488,-0.02488)"><g transform="translate(10391.344,-5109.927)"><use xlink:href="#2b15"/></g></g><g transform="scale(0.02488,-0.02488)"><g transform="translate(11332.565,-5109.927)"><use xlink:href="#6821"/><use x="388" xlink:href="#7818"/><use x="944" xlink:href="#6921"/></g></g><g transform="scale(0.02074,-0.02074)"><g transform="translate(15192.592,-5634.63)"><use xlink:href="#3216"/></g></g><g transform="scale(0.02488,-0.02488)"><g transform="translate(13066.966,-5109.927)"><use xlink:href="#6921"/></g></g><g transform="scale(0.02488,-0.02488)"><g transform="translate(13732.743,-5109.927)"><use xlink:href="#3d15"/></g></g><g transform="scale(0.02488,-0.02488)"><g transform="translate(14729.52,-5109.927)"><use xlink:href="#6821"/><use x="388" xlink:href="#7818"/></g></g><g transform="scale(0.02074,-0.02074)"><g transform="translate(18802.177,-5634.63)"><use xlink:href="#3216"/></g></g><g transform="scale(0.02488,-0.02488)"><g transform="translate(16075.921,-5109.927)"><use xlink:href="#6921"/><use x="610.221" xlink:href="#0021"/><use x="1609.443" xlink:href="#6821"/><use x="1997.443" xlink:href="#7818"/><use x="2553.443" xlink:href="#6921"/></g></g><g transform="scale(0.02074,-0.02074)"><g transform="translate(22813.499,-5634.63)"><use xlink:href="#3216"/></g></g></g></svg>