<?xml version="1.0" ?><!DOCTYPE svg  PUBLIC '-//W3C//DTD SVG 1.1//EN'  'http://www.w3.org/Graphics/SVG/1.1/DTD/svg11.dtd'><svg height="99.64" viewBox="300.557 96.413 168.384 99.64" width="168.384" xmlns="http://www.w3.org/2000/svg" xmlns:xlink="http://www.w3.org/1999/xlink"><defs><path d="M903 572l-329 -574c-8 -14 -11 -19 -21 -19c-12 0 -13 6 -14 23l-37 517l-298 -521c-9 -15 -11 -19 -21 -19c-12 0 -13 6 -14 23l-44 614c-2 32 -3 38 -50 38c-14 0 -22 0 -22 10c0 19 12 19 18 19c15 0 33 -2 48 -2h52c36 0 73 2 108 2c6 0 15 0 15 -11 c0 -18 -11 -18 -22 -18c-68 -1 -68 -26 -68 -37l37 -516l259 455l-3 36c-4 61 -4 62 -50 62c-17 0 -24 0 -24 10c0 19 12 19 18 19c15 0 33 -2 48 -2h52c36 0 73 2 108 2c5 0 15 0 15 -10c0 -19 -10 -19 -23 -19c-56 -1 -67 -20 -67 -32l36 -521l273 478c10 17 14 24 14 37 c0 31 -32 37 -52 38c-6 0 -14 1 -14 10c0 19 12 19 18 19c29 0 60 -2 90 -2c66 0 73 2 75 2c3 0 12 0 12 -11c0 -16 -9 -17 -18 -18c-60 -6 -82 -43 -105 -82z" id="5718"/><path d="M466 -2162l512 2175c3 14 6 27 22 27c12 0 20 -9 20 -20c0 -5 -2 -14 -4 -21l-550 -2333c-6 -26 -9 -26 -42 -26l-231 1073l-68 -107c-1 1 -14 12 -14 16c0 1 0 3 7 12l131 206l216 -1002h1z" id="7224"/><path d="M661 230h-545c-14 0 -33 0 -33 20s19 20 33 20h545c14 0 33 0 33 -20s-19 -20 -33 -20z" id="0021"/><path d="M643 321h-567c-15 0 -30 0 -30 17c0 18 17 18 34 18h559c17 0 34 0 34 -18c0 -17 -15 -17 -30 -17zM639 143h-559c-17 0 -34 0 -34 18c0 17 15 17 30 17h567c15 0 30 0 30 -17c0 -18 -17 -18 -34 -18z" id="3d15"/><path d="M417 155l-24 -155h-352v23l199 225c57 65 108 140 108 227c0 91 -57 160 -144 160c-61 0 -119 -42 -138 -127c4 2 10 3 16 3c14 0 40 -9 40 -40c0 -35 -30 -41 -40 -41c-12 0 -41 5 -41 44c0 90 67 187 177 187c105 0 199 -68 199 -186c0 -99 -71 -167 -132 -225 c-85 -82 -155 -153 -191 -192h192c14 0 86 0 91 8c4 6 12 18 22 89h18z" id="3215"/><path d="M301 119l49 196c1 2 4 15 4 16c0 8 -13 90 -79 90c-39 0 -86 -36 -120 -106c-19 -42 -50 -154 -50 -209c0 -59 23 -96 64 -96c47 0 91 43 113 71c14 19 14 21 19 38zM365 375c2 12 10 47 42 47c15 0 26 -11 26 -25c0 -6 -9 -42 -46 -192c-8 -29 -13 -51 -20 -76 c-9 -39 -12 -50 -12 -73c0 -20 2 -46 31 -46c41 0 60 63 75 122c4 15 5 20 14 20c6 0 10 -4 10 -9c0 -4 -14 -65 -30 -99c-18 -36 -42 -54 -72 -54s-77 17 -87 76c-28 -33 -75 -76 -130 -76c-68 0 -126 58 -126 157c0 148 122 294 235 294c52 0 79 -40 90 -66z" id="6118"/></defs><g transform="scale(1.25)"><rect height="0.995" width="28.783" x="292.592" y="87.13"/><rect height="0.995" width="26.383" x="293.792" y="120.505"/><g transform="scale(0.02488,-0.02488)"><g transform="translate(9983.134,-5113.429)"><use xlink:href="#0021"/></g><g transform="translate(10760.134,-3542.014)"><use xlink:href="#7224"/></g></g><g transform="scale(0.02488,-0.02488)"><g transform="translate(12109.262,-4436.922)"><use xlink:href="#3215"/></g></g><g transform="scale(0.02488,-0.02488)"><g transform="translate(11808.367,-5799.38)"><use xlink:href="#5718"/></g></g><g transform="scale(0.02488,-0.02488)"><g transform="translate(13194.782,-5113.429)"><use xlink:href="#3d15"/></g></g><g transform="scale(0.02488,-0.02488)"><g transform="translate(14191.559,-5113.429)"><use xlink:href="#6118"/></g></g></g></svg>