<?xml version="1.0" ?><!DOCTYPE svg  PUBLIC '-//W3C//DTD SVG 1.1//EN'  'http://www.w3.org/Graphics/SVG/1.1/DTD/svg11.dtd'><svg height="52.928" viewBox="297.824 109.835 172.044 52.928" width="172.044" xmlns="http://www.w3.org/2000/svg" xmlns:xlink="http://www.w3.org/1999/xlink"><defs><path d="M283 143c0 -7 -36 -153 -128 -153c-48 0 -79 36 -79 81c0 18 6 34 12 50l70 186c8 22 21 55 21 81c0 32 -17 33 -26 33c-39 0 -77 -40 -101 -124c-4 -14 -5 -18 -14 -18c-7 0 -11 5 -11 9c0 8 37 153 129 153c49 0 79 -38 79 -80c0 -19 -7 -37 -10 -45l-70 -186 c-11 -30 -23 -60 -23 -87c0 -30 14 -33 26 -33c33 0 74 31 100 122c5 17 6 20 15 20c6 0 10 -4 10 -9zM275 624c0 -22 -23 -48 -50 -48c-12 0 -33 8 -33 33c0 26 26 48 49 48c22 0 34 -18 34 -33z" id="6918"/><path d="M474 408c-21 13 -49 13 -51 13c-46 0 -80 -44 -95 -104l-35 -136c-16 -66 -20 -82 -20 -104c0 -41 19 -67 54 -67c45 0 103 41 130 129c3 8 4 13 13 13c6 0 10 -4 10 -9c0 -22 -54 -153 -156 -153c-37 0 -87 20 -103 79c-21 -41 -55 -79 -103 -79c-43 0 -90 19 -90 61 c0 32 26 53 50 53c19 0 34 -12 34 -32c0 -12 -8 -42 -44 -49c21 -13 46 -13 51 -13c53 0 82 55 97 115l34 137c12 48 18 71 18 93c0 24 -9 66 -54 66c-29 0 -96 -21 -130 -132c-2 -4 -4 -10 -12 -10c-7 0 -11 5 -11 9c0 22 54 153 156 153c18 0 80 -4 103 -79 c9 19 43 79 104 79c42 0 90 -19 90 -61c0 -27 -21 -53 -51 -53c-14 0 -33 8 -33 32c0 19 12 43 44 49z" id="7818"/><path d="M643 321h-567c-15 0 -30 0 -30 17c0 18 17 18 34 18h559c17 0 34 0 34 -18c0 -17 -15 -17 -30 -17zM639 143h-559c-17 0 -34 0 -34 18c0 17 15 17 30 17h567c15 0 30 0 30 -17c0 -18 -17 -18 -34 -18z" id="3d15"/><path d="M503 669l-141 -560c-7 -28 -7 -49 -7 -53c0 -20 2 -46 31 -46c41 0 60 63 75 122c4 15 5 20 14 20c6 0 10 -4 10 -9c0 -4 -14 -65 -30 -99c-18 -36 -42 -54 -72 -54s-77 17 -87 76c-28 -33 -75 -76 -130 -76c-68 0 -126 58 -126 157c0 148 122 294 235 294 c52 0 79 -40 90 -66l61 243c1 3 3 11 3 17c0 10 -1 19 -50 19c-14 0 -22 0 -22 10c0 18 7 19 32 21c18 1 33 3 50 4c5 1 54 5 55 5c2 0 12 0 12 -10c0 -5 -2 -11 -3 -15zM301 119l49 196c1 2 4 15 4 16c0 8 -13 90 -79 90c-39 0 -86 -36 -120 -106 c-19 -42 -50 -154 -50 -209c0 -59 23 -96 64 -96c47 0 91 43 113 71c14 19 14 21 19 38z" id="6418"/><path d="M263 -112c35 49 45 88 60 147l-1 1c-35 -37 -71 -46 -100 -46c-50 0 -118 22 -118 117c0 24 0 57 49 188c15 38 26 67 26 93c0 33 -17 33 -26 33c-39 0 -77 -40 -101 -124c-4 -14 -5 -18 -14 -18c-7 0 -11 5 -11 9c0 8 37 153 129 153c49 0 79 -38 79 -80 c0 -20 -6 -34 -17 -63c-27 -72 -54 -149 -54 -206c0 -27 5 -82 61 -82c48 0 81 34 101 62c8 11 8 13 13 31l74 294c8 30 29 34 38 34c15 0 27 -10 27 -25c0 -6 -2 -12 -3 -17l-98 -390c-28 -111 -129 -203 -229 -203c-57 0 -100 35 -100 86c0 49 35 61 51 61 c15 0 34 -8 34 -31s-20 -49 -50 -49c-2 0 -7 0 -10 1c15 -46 63 -48 75 -48c49 0 88 34 115 72z" id="7918"/></defs><g transform="scale(1.25)"><g transform="scale(0.02488,-0.02488)"><g transform="translate(9938.249,-4627.612)"><use xlink:href="#6418"/><use x="508" xlink:href="#7918"/></g></g><g transform="scale(0.02488,-0.02488)"><g transform="translate(11236.905,-4627.612)"><use xlink:href="#3d15"/></g></g><g transform="scale(0.02488,-0.02488)"><g transform="translate(12233.682,-4627.612)"><use xlink:href="#7918"/><use x="814.767" xlink:href="#6918"/><use x="1450.654" xlink:href="#6418"/><use x="1958.654" xlink:href="#7818"/></g></g></g></svg>