<?xml version="1.0" ?><!DOCTYPE svg  PUBLIC '-//W3C//DTD SVG 1.1//EN'  'http://www.w3.org/Graphics/SVG/1.1/DTD/svg11.dtd'><svg height="52.244" viewBox="337.488 110.862 92.535 52.244" width="92.535" xmlns="http://www.w3.org/2000/svg" xmlns:xlink="http://www.w3.org/1999/xlink"><defs><path d="M643 321h-567c-15 0 -30 0 -30 17c0 18 17 18 34 18h559c17 0 34 0 34 -18c0 -17 -15 -17 -30 -17zM639 143h-559c-17 0 -34 0 -34 18c0 17 15 17 30 17h567c15 0 30 0 30 -17c0 -18 -17 -18 -34 -18z" id="3d15"/><path d="M420 321c0 -73 -4 -154 -34 -223c-41 -95 -111 -114 -157 -114c-39 0 -116 14 -159 117c-31 76 -32 163 -32 220c0 78 4 171 44 246c38 72 99 94 147 94c52 0 111 -25 148 -95c42 -80 43 -184 43 -245zM229 0c35 0 94 19 115 128c12 59 12 139 12 204 c0 80 -1 147 -14 204c-19 82 -72 109 -113 109c-39 0 -95 -26 -114 -111c-13 -61 -13 -125 -13 -202c0 -56 0 -142 11 -201c14 -76 52 -131 116 -131z" id="3015"/><path d="M31 -173l98 390c33 133 140 224 228 224c69 0 134 -53 134 -160c0 -151 -128 -291 -241 -291c-39 0 -76 21 -96 71c-32 -123 -60 -243 -64 -252c-6 -14 -20 -24 -35 -24s-27 10 -27 25c0 6 2 12 3 17zM249 10c51 0 103 50 133 119c17 42 44 141 44 192 c0 59 -25 100 -70 100c-15 0 -113 -5 -164 -204c-3 -15 -28 -110 -28 -116c0 -12 17 -91 85 -91z" id="1a18"/></defs><g transform="scale(1.25)"><g transform="scale(0.02488,-0.02488)"><g transform="translate(11225.635,-4627.612)"><use xlink:href="#1a18"/></g></g><g transform="scale(0.02488,-0.02488)"><g transform="translate(12008.412,-4627.612)"><use xlink:href="#3d15"/><use x="996.777" xlink:href="#3015"/></g></g></g></svg>