<?xml version="1.0" ?><!DOCTYPE svg  PUBLIC '-//W3C//DTD SVG 1.1//EN'  'http://www.w3.org/Graphics/SVG/1.1/DTD/svg11.dtd'><svg height="62.811" viewBox="288.821 101.383 189.982 62.811" width="189.982" xmlns="http://www.w3.org/2000/svg" xmlns:xlink="http://www.w3.org/1999/xlink"><defs><path d="M420 321c0 -73 -4 -154 -34 -223c-41 -95 -111 -114 -157 -114c-39 0 -116 14 -159 117c-31 76 -32 163 -32 220c0 78 4 171 44 246c38 72 99 94 147 94c52 0 111 -25 148 -95c42 -80 43 -184 43 -245zM229 0c35 0 94 19 115 128c12 59 12 139 12 204 c0 80 -1 147 -14 204c-19 82 -72 109 -113 109c-39 0 -95 -26 -114 -111c-13 -61 -13 -125 -13 -202c0 -56 0 -142 11 -201c14 -76 52 -131 116 -131z" id="3016"/><path d="M291 227h-166c-9 -40 -11 -66 -11 -85c0 -97 56 -132 109 -132c30 0 67 12 105 37c5 4 7 5 10 5c6 0 9 -6 9 -12c0 -10 -63 -50 -127 -50c-99 0 -174 75 -174 186c0 157 135 255 258 255h34c18 0 29 0 29 -13c0 -16 -15 -16 -32 -16h-29c-89 0 -148 -55 -173 -146h162 c18 0 28 0 28 -13c0 -16 -17 -16 -32 -16z" id="0f18"/><path d="M192 250c0 -29 -24 -53 -53 -53s-53 24 -53 53s24 53 53 53s53 -24 53 -53z" id="0121"/><path d="M695 232l-91 -215c-7 -16 -8 -17 -30 -17h-502c-20 0 -26 0 -26 11c0 18 10 18 29 18c70 0 72 10 81 45l135 540c3 11 4 15 4 20c0 11 0 18 -62 18c-17 0 -24 0 -24 11c0 18 10 18 29 18h488c18 0 27 0 27 -11c0 -2 -2 -12 -2 -15l-21 -175c-2 -18 -6 -22 -13 -22 c-6 0 -11 3 -11 11c0 2 1 8 2 12c4 33 4 61 4 62c0 76 -25 109 -148 109h-143c-41 0 -43 -3 -52 -38l-62 -246h95c89 0 109 22 129 99c4 14 5 18 14 18c6 0 10 -5 10 -10l-57 -232c-4 -14 -5 -21 -14 -21c-6 0 -11 3 -11 10c0 3 1 7 3 11c7 30 7 39 7 49c0 30 -6 47 -84 47 h-99l-69 -276c-2 -9 -4 -15 -4 -22c0 -8 1 -10 12 -11c6 -1 8 -1 22 -1h146c160 0 203 60 262 200c9 20 9 22 11 23c3 3 5 4 9 4c6 0 10 -5 10 -10c0 -4 -3 -11 -4 -14z" id="4518"/><path d="M31 -173l98 390c33 133 140 224 228 224c69 0 134 -53 134 -160c0 -151 -128 -291 -241 -291c-39 0 -76 21 -96 71c-32 -123 -60 -243 -64 -252c-6 -14 -20 -24 -35 -24s-27 10 -27 25c0 6 2 12 3 17zM249 10c51 0 103 50 133 119c17 42 44 141 44 192 c0 59 -25 100 -70 100c-15 0 -113 -5 -164 -204c-3 -15 -28 -110 -28 -116c0 -12 17 -91 85 -91z" id="1a18"/><path d="M429 713l-335 -941c-7 -21 -16 -22 -22 -22c-8 0 -18 7 -18 19c0 2 6 17 6 18l335 941c8 22 17 22 22 22c8 0 18 -7 18 -19c0 -2 -6 -17 -6 -18z" id="3d18"/><path d="M643 321h-567c-15 0 -30 0 -30 17c0 18 17 18 34 18h559c17 0 34 0 34 -18c0 -17 -15 -17 -30 -17zM639 143h-559c-17 0 -34 0 -34 18c0 17 15 17 30 17h567c15 0 30 0 30 -17c0 -18 -17 -18 -34 -18z" id="3d15"/><path d="M535 597h-320c-16 0 -34 0 -34 18c0 19 17 19 34 19h336c-19 27 -25 51 -25 60c0 15 12 19 18 19c14 0 17 -12 20 -20c3 -12 10 -39 38 -58c6 -5 14 -10 14 -19c0 -11 -7 -14 -17 -20c-23 -13 -50 -32 -74 -62c-7 -10 -11 -16 -20 -16c-10 0 -19 9 -19 19 c0 14 37 49 49 60z" id="7e18"/><path d="M780 663l-338 -678c-7 -13 -9 -18 -26 -18s-19 5 -26 18l-338 678c-5 9 -5 11 -5 12c0 8 6 8 22 8h694c16 0 22 0 22 -8c0 -1 0 -3 -5 -12zM170 612l275 -551h1l274 551h-550z" id="7221"/></defs><g transform="scale(1.25)"><g transform="scale(0.02488,-0.02488)"><g transform="translate(9736.742,-4374.835)"><use xlink:href="#7e18"/></g><g transform="translate(9641.772,-4627.612)"><use xlink:href="#7221"/><use x="1055.557" xlink:href="#0121"/></g><g transform="translate(11348.17,-4374.835)"><use xlink:href="#7e18"/></g><g transform="translate(11196.55,-4627.612)"><use xlink:href="#4518"/></g></g><g transform="scale(0.02488,-0.02488)"><g transform="translate(12257.77,-4627.612)"><use xlink:href="#3d15"/></g></g><g transform="scale(0.02488,-0.02488)"><g transform="translate(13254.547,-4627.612)"><use xlink:href="#1a18"/><use x="505" xlink:href="#3d18"/><use x="994" xlink:href="#0f18"/></g></g><g transform="scale(0.02074,-0.02074)"><g transform="translate(17566.606,-5782.76)"><use xlink:href="#3016"/></g></g></g></svg>