<?xml version="1.0" ?><!DOCTYPE svg  PUBLIC '-//W3C//DTD SVG 1.1//EN'  'http://www.w3.org/Graphics/SVG/1.1/DTD/svg11.dtd'><svg height="56.062" viewBox="309.392 101.383 149.296 56.062" width="149.296" xmlns="http://www.w3.org/2000/svg" xmlns:xlink="http://www.w3.org/1999/xlink"><defs><path d="M780 663l-338 -678c-7 -13 -9 -18 -26 -18s-19 5 -26 18l-338 678c-5 9 -5 11 -5 12c0 8 6 8 22 8h694c16 0 22 0 22 -8c0 -1 0 -3 -5 -12zM170 612l275 -551h1l274 551h-550z" id="7221"/><path d="M192 250c0 -29 -24 -53 -53 -53s-53 24 -53 53s24 53 53 53s53 -24 53 -53z" id="0121"/><path d="M366 615l-62 -250h144c132 0 213 103 213 184c0 9 0 105 -113 105h-130c-39 0 -43 -2 -52 -39zM535 357c81 -8 153 -58 153 -140c0 -101 -118 -217 -271 -217h-343c-20 0 -26 0 -26 11c0 18 10 18 29 18c70 0 72 10 81 45l135 538c4 15 4 21 4 23c0 11 0 19 -61 19 c-15 0 -24 0 -24 10c0 19 9 19 28 19h321c113 0 182 -60 182 -138c0 -92 -99 -168 -208 -188zM393 29c124 0 211 102 211 198c0 8 0 118 -118 118h-188l-70 -282c-2 -9 -4 -15 -4 -22c0 -8 1 -10 12 -11c6 -1 8 -1 22 -1h135z" id="4218"/><path d="M643 321h-567c-15 0 -30 0 -30 17c0 18 17 18 34 18h559c17 0 34 0 34 -18c0 -17 -15 -17 -30 -17zM639 143h-559c-17 0 -34 0 -34 18c0 17 15 17 30 17h567c15 0 30 0 30 -17c0 -18 -17 -18 -34 -18z" id="3d15"/><path d="M535 597h-320c-16 0 -34 0 -34 18c0 19 17 19 34 19h336c-19 27 -25 51 -25 60c0 15 12 19 18 19c14 0 17 -12 20 -20c3 -12 10 -39 38 -58c6 -5 14 -10 14 -19c0 -11 -7 -14 -17 -20c-23 -13 -50 -32 -74 -62c-7 -10 -11 -16 -20 -16c-10 0 -19 9 -19 19 c0 14 37 49 49 60z" id="7e18"/><path d="M420 321c0 -73 -4 -154 -34 -223c-41 -95 -111 -114 -157 -114c-39 0 -116 14 -159 117c-31 76 -32 163 -32 220c0 78 4 171 44 246c38 72 99 94 147 94c52 0 111 -25 148 -95c42 -80 43 -184 43 -245zM229 0c35 0 94 19 115 128c12 59 12 139 12 204 c0 80 -1 147 -14 204c-19 82 -72 109 -113 109c-39 0 -95 -26 -114 -111c-13 -61 -13 -125 -13 -202c0 -56 0 -142 11 -201c14 -76 52 -131 116 -131z" id="3015"/></defs><g transform="scale(1.25)"><g transform="scale(0.02488,-0.02488)"><g transform="translate(10398.181,-4374.835)"><use xlink:href="#7e18"/></g><g transform="translate(10303.211,-4627.612)"><use xlink:href="#7221"/><use x="1055.557" xlink:href="#0121"/></g><g transform="translate(12015.048,-4374.835)"><use xlink:href="#7e18"/></g><g transform="translate(11857.989,-4627.612)"><use xlink:href="#4218"/></g></g><g transform="scale(0.02488,-0.02488)"><g transform="translate(12930.088,-4627.612)"><use xlink:href="#3d15"/><use x="996.777" xlink:href="#3015"/></g></g></g></svg>