<?xml version="1.0" ?><!DOCTYPE svg  PUBLIC '-//W3C//DTD SVG 1.1//EN'  'http://www.w3.org/Graphics/SVG/1.1/DTD/svg11.dtd'><svg height="46.894" viewBox="321.366 110.177 126.316 46.894" width="126.316" xmlns="http://www.w3.org/2000/svg" xmlns:xlink="http://www.w3.org/1999/xlink"><defs><path d="M619 572l-361 -574c-10 -16 -15 -19 -27 -19c-14 0 -14 3 -17 24l-80 617c-3 25 -6 34 -57 34c-16 0 -23 0 -23 11c0 18 12 18 18 18c1 0 31 -2 104 -2h56c17 0 37 2 54 2c3 0 14 0 14 -10c0 -19 -9 -19 -24 -19c-11 0 -63 -2 -63 -31l70 -539l314 498c1 1 15 24 15 39 c0 12 -4 30 -41 33c-4 0 -13 1 -13 10c0 19 10 19 18 19c28 0 58 -2 87 -2c18 0 61 2 79 2c9 0 11 -6 11 -10c0 -18 -8 -18 -18 -19c-51 -4 -82 -28 -116 -82z" id="5618"/><path d="M643 321h-567c-15 0 -30 0 -30 17c0 18 17 18 34 18h559c17 0 34 0 34 -18c0 -17 -15 -17 -30 -17zM639 143h-559c-17 0 -34 0 -34 18c0 17 15 17 30 17h567c15 0 30 0 30 -17c0 -18 -17 -18 -34 -18z" id="3d15"/><path d="M368 609l-135 -537c-4 -16 -4 -21 -4 -23c0 -12 0 -20 62 -20c22 0 28 0 28 -11c0 -18 -12 -18 -20 -18c-20 0 -42 2 -62 2h-123c-18 0 -40 -2 -58 -2c-5 0 -15 0 -15 10c0 19 9 19 31 19c73 0 75 10 84 45l135 539c2 9 4 15 4 22c0 11 0 19 -62 19c-20 0 -28 0 -28 10 c0 19 11 19 19 19c20 0 43 -2 63 -2h123c18 0 40 2 58 2c3 0 14 0 14 -10c0 -19 -8 -19 -30 -19c-73 0 -75 -10 -84 -45z" id="4918"/><path d="M368 615l-66 -263h113c201 0 227 147 227 198c0 78 -64 104 -150 104h-72c-39 0 -43 -2 -52 -39zM507 340c38 -12 97 -43 97 -116c0 -8 0 -12 -5 -49c-1 -5 -13 -96 -13 -120c0 -45 16 -56 41 -56s66 18 90 89c2 8 4 14 12 14c6 0 11 -3 11 -10c0 -14 -35 -113 -116 -113 c-67 0 -125 33 -125 104c0 19 3 30 14 76c7 26 17 65 17 80c0 33 -18 93 -113 93h-120l-67 -269c-2 -8 -2 -15 -2 -16c0 -10 0 -18 61 -18c15 0 24 0 24 -10c0 -19 -11 -19 -19 -19c-18 0 -39 2 -57 2h-118c-19 0 -40 -2 -58 -2c-3 0 -14 0 -14 10c0 19 7 19 30 19 c69 0 71 10 80 45l135 538c4 15 4 21 4 23c0 11 0 19 -60 19c-19 0 -26 0 -26 10c0 19 9 19 29 19h271c139 0 218 -72 218 -150c0 -86 -97 -166 -221 -193z" id="5218"/></defs><g transform="scale(1.25)"><g transform="scale(0.02488,-0.02488)"><g transform="translate(10681.252,-4627.612)"><use xlink:href="#5618"/></g></g><g transform="scale(0.02488,-0.02488)"><g transform="translate(11746.618,-4627.612)"><use xlink:href="#3d15"/></g></g><g transform="scale(0.02488,-0.02488)"><g transform="translate(12743.395,-4627.612)"><use xlink:href="#4918"/><use x="509.617" xlink:href="#5218"/></g></g></g></svg>