<?xml version="1.0" ?><!DOCTYPE svg  PUBLIC '-//W3C//DTD SVG 1.1//EN'  'http://www.w3.org/Graphics/SVG/1.1/DTD/svg11.dtd'><svg height="56.1" viewBox="285.113 108.094 194.638 56.1" width="194.638" xmlns="http://www.w3.org/2000/svg" xmlns:xlink="http://www.w3.org/1999/xlink"><defs><path d="M470 670l-164 -660c30 0 107 0 191 94c64 72 84 146 84 182c0 52 -27 79 -36 88c-4 4 -11 11 -11 23c0 20 22 44 46 44c10 0 40 -7 40 -67c0 -51 -24 -140 -34 -166c-17 -43 -47 -89 -80 -125c-90 -93 -169 -93 -206 -93c-4 -18 -45 -186 -49 -190c-2 -4 -6 -4 -8 -4 c-3 0 -11 0 -11 9c0 4 7 32 23 92c8 31 15 63 23 94c-90 7 -170 44 -170 140c0 23 0 45 54 187c17 44 17 66 17 70c0 32 -17 33 -26 33c-37 0 -77 -37 -101 -124c-4 -14 -5 -18 -14 -18c-7 0 -11 5 -11 9c0 8 37 153 129 153c47 0 79 -36 79 -81c0 -18 -5 -31 -18 -67 c-47 -124 -47 -147 -47 -169c0 -60 31 -102 114 -112l165 662c4 15 5 20 14 20c3 0 11 0 11 -9c0 -1 -4 -14 -4 -15z" id="2018"/><path d="M695 232l-91 -215c-7 -16 -8 -17 -30 -17h-502c-20 0 -26 0 -26 11c0 18 10 18 29 18c70 0 72 10 81 45l135 540c3 11 4 15 4 20c0 11 0 18 -62 18c-17 0 -24 0 -24 11c0 18 10 18 29 18h488c18 0 27 0 27 -11c0 -2 -2 -12 -2 -15l-21 -175c-2 -18 -6 -22 -13 -22 c-6 0 -11 3 -11 11c0 2 1 8 2 12c4 33 4 61 4 62c0 76 -25 109 -148 109h-143c-41 0 -43 -3 -52 -38l-62 -246h95c89 0 109 22 129 99c4 14 5 18 14 18c6 0 10 -5 10 -10l-57 -232c-4 -14 -5 -21 -14 -21c-6 0 -11 3 -11 10c0 3 1 7 3 11c7 30 7 39 7 49c0 30 -6 47 -84 47 h-99l-69 -276c-2 -9 -4 -15 -4 -22c0 -8 1 -10 12 -11c6 -1 8 -1 22 -1h146c160 0 203 60 262 200c9 20 9 22 11 23c3 3 5 4 9 4c6 0 10 -5 10 -10c0 -4 -3 -11 -4 -14z" id="4518"/><path d="M308 348l-38 -125c-14 -46 -59 -172 -71 -201c-8 -17 -51 -44 -73 -44c-4 0 -11 0 -11 7c0 1 0 3 10 30c116 300 149 512 149 569c0 11 -6 44 -48 44c-78 0 -102 -32 -120 -88c-10 -31 -60 -51 -76 -51c-6 0 -9 3 -10 3c21 115 162 191 272 191c52 0 67 -29 67 -57 c0 -8 -5 -60 -13 -110c-6 -32 -14 -75 -27 -123c16 10 37 10 45 10h266c29 80 95 234 119 253c34 26 55 27 58 27c8 0 11 -2 11 -8c0 -2 0 -4 -7 -14c-51 -98 -171 -360 -171 -558c0 -45 0 -95 46 -95c5 0 15 2 25 5c2 12 11 27 31 40c17 12 38 21 49 21c5 0 10 -2 10 -8 c0 -43 -101 -113 -181 -113c-65 0 -65 52 -65 107c0 63 7 143 59 298c-16 -10 -37 -10 -45 -10h-261z" id="4821"/><path d="M273 232l-176 -462c-4 -11 -8 -20 -21 -20c-11 0 -20 9 -20 20c0 1 0 6 5 18l176 462l-176 462c-5 12 -5 17 -5 18c0 11 9 20 20 20c14 0 17 -10 22 -22l175 -460c5 -12 5 -17 5 -18s0 -6 -5 -18z" id="6921"/><path d="M643 321h-567c-15 0 -30 0 -30 17c0 18 17 18 34 18h559c17 0 34 0 34 -18c0 -17 -15 -17 -30 -17zM639 143h-559c-17 0 -34 0 -34 18c0 17 15 17 30 17h567c15 0 30 0 30 -17c0 -18 -17 -18 -34 -18z" id="3d15"/><path d="M159 717v-934c0 -14 0 -33 -20 -33s-20 19 -20 33v934c0 14 0 33 20 33s20 -19 20 -33z" id="6a21"/></defs><g transform="scale(1.25)"><g transform="scale(0.02488,-0.02488)"><g transform="translate(9549.537,-4627.612)"><use xlink:href="#4821"/><use x="853.654" xlink:href="#6a21"/><use x="1130.654" xlink:href="#2018"/><use x="1802.533" xlink:href="#6921"/></g></g><g transform="scale(0.02488,-0.02488)"><g transform="translate(12017.847,-4627.612)"><use xlink:href="#3d15"/></g></g><g transform="scale(0.02488,-0.02488)"><g transform="translate(13014.624,-4627.612)"><use xlink:href="#4518"/><use x="782.623" xlink:href="#6a21"/><use x="1059.623" xlink:href="#2018"/><use x="1731.503" xlink:href="#6921"/></g></g></g></svg>