<?xml version="1.0" ?><!DOCTYPE svg  PUBLIC '-//W3C//DTD SVG 1.1//EN'  'http://www.w3.org/Graphics/SVG/1.1/DTD/svg11.dtd'><svg height="37.5" viewBox="174.787 147.212 111.449 37.5" width="111.449" xmlns="http://www.w3.org/2000/svg" xmlns:xlink="http://www.w3.org/1999/xlink"><defs><path d="M187 231h-53c-15 -61 -16 -92 -16 -104c0 -32 9 -116 87 -116c12 0 121 0 200 99c6 8 8 10 13 10c6 0 12 -7 12 -13c0 -12 -84 -118 -227 -118c-98 0 -157 79 -157 181c0 175 151 272 262 272c69 0 107 -41 107 -85c0 -14 -5 -73 -75 -103c-50 -21 -124 -23 -153 -23z M140 253h41c41 0 201 0 201 104c0 34 -27 63 -74 63c-26 0 -129 -15 -168 -167z" id="6510"/><path d="M687 327h-597c-15 0 -34 0 -34 20s19 20 33 20h599c14 0 33 0 33 -20s-19 -20 -34 -20zM688 133h-599c-14 0 -33 0 -33 20s19 20 34 20h597c15 0 34 0 34 -20s-19 -20 -33 -20z" id="3d7"/><path d="M45 -122l112 445c4 17 7 28 7 51c0 38 -14 46 -31 46c-36 0 -56 -48 -73 -119c-6 -22 -7 -23 -17 -23c-2 0 -12 0 -12 10c0 3 13 63 31 97c9 18 28 57 74 57c37 0 80 -21 90 -75c33 39 81 75 131 75c76 0 133 -66 133 -160c0 -147 -125 -293 -241 -293 c-51 0 -79 35 -92 64c-7 -25 -49 -188 -49 -200c0 -9 0 -16 50 -16c14 0 24 0 24 -11c0 -20 -13 -20 -18 -20c-32 0 -66 3 -99 3c-28 0 -57 -3 -84 -3c-8 0 -13 4 -13 12c0 19 11 19 23 19c44 0 46 7 54 41zM221 312l-49 -196c-3 -12 -3 -14 -3 -16c0 -6 13 -89 79 -89 c37 0 85 33 119 103c18 38 51 153 51 212s-24 94 -64 94c-17 0 -46 -7 -81 -38c-18 -15 -45 -43 -52 -70z" id="7010"/><path d="M88 59l58 231c13 52 16 63 16 84c0 38 -15 46 -31 46c-36 0 -56 -48 -73 -119c-6 -22 -7 -23 -17 -23c-2 0 -12 0 -12 10c0 3 13 62 31 97c9 18 28 57 74 57c45 0 87 -30 92 -87c17 23 66 87 156 87c25 0 57 -5 82 -26c28 -24 31 -58 32 -71c37 53 88 97 163 97 s115 -42 115 -107c0 -57 -42 -168 -61 -220c-9 -22 -18 -46 -18 -71c0 -23 7 -33 24 -33c55 0 87 71 102 124c5 15 5 18 15 18c3 0 12 0 12 -10c0 -8 -37 -154 -131 -154c-47 0 -82 35 -82 82c0 20 4 31 13 55c20 53 62 167 62 224c0 36 -11 70 -54 70 c-109 0 -162 -120 -165 -133c-9 -39 -46 -185 -60 -241c-8 -32 -14 -57 -45 -57c-15 0 -29 9 -29 27c0 5 9 39 13 59l20 76l28 116c8 30 15 58 15 83c0 33 -9 70 -54 70c-95 0 -148 -91 -163 -122c-1 -4 -9 -33 -13 -50c-5 -23 -11 -45 -17 -67l-22 -90 c-6 -25 -18 -72 -19 -74c-7 -20 -25 -28 -37 -28c-15 0 -29 9 -29 27c0 5 6 28 9 43z" id="6d10"/><path d="M258 683l-144 -578c-5 -19 -6 -24 -6 -48c0 -14 0 -46 30 -46c40 0 59 59 76 124c3 14 4 18 14 18c3 0 12 0 12 -10c0 -2 -12 -60 -30 -98c-17 -36 -42 -56 -75 -56c-47 0 -91 35 -91 92c0 16 2 23 5 34l126 500l3 20c0 8 -1 17 -49 17c-15 0 -25 0 -25 11 c0 19 11 20 19 21c26 2 99 10 122 10c13 0 13 -10 13 -11z" id="6c10"/><path d="M88 59l58 231c13 52 16 63 16 84c0 38 -14 46 -31 46c-36 0 -56 -48 -73 -119c-6 -22 -7 -23 -17 -23c-2 0 -12 0 -12 10c0 3 13 63 31 97c9 18 28 57 74 57c47 0 83 -32 91 -77c19 28 63 77 128 77c51 0 83 -30 83 -65c0 -36 -28 -59 -55 -59s-38 19 -38 35 c0 26 22 50 52 55c-1 0 -16 12 -42 12c-43 0 -72 -26 -80 -33c-24 -22 -52 -69 -56 -82c-6 -27 -24 -97 -32 -130c-4 -18 -38 -154 -40 -158c-7 -20 -25 -28 -37 -28c-15 0 -29 9 -29 27c0 5 6 28 9 43z" id="7210"/><path d="M469 273c0 -146 -135 -284 -268 -284c-93 0 -160 70 -160 169c0 142 134 284 268 284c90 0 160 -65 160 -169zM202 11c46 0 101 34 136 92c38 65 58 170 58 209c0 60 -30 108 -88 108c-28 0 -85 -15 -135 -92c-32 -51 -58 -159 -58 -208c0 -78 44 -109 87 -109z" id="6f10"/><path d="M206 400l-74 -295c-4 -17 -6 -24 -6 -48c0 -33 10 -46 31 -46c34 0 87 24 130 128c5 11 6 14 15 14c4 0 12 0 12 -10c0 -8 -57 -154 -159 -154c-54 0 -92 38 -92 92c0 18 4 35 76 319h-88c-20 0 -28 0 -28 12c0 19 10 19 30 19h94l39 159c9 35 37 36 40 36 c17 0 29 -10 29 -27c0 -6 -5 -26 -41 -168h88c18 0 28 0 28 -11c0 -20 -10 -20 -30 -20h-94z" id="7410"/><path d="M179 115l348 584c6 10 10 17 26 17c17 0 17 -4 19 -24l61 -625c3 -29 3 -36 65 -36c13 0 23 0 23 -11c0 -20 -12 -20 -18 -20c-25 0 -88 3 -113 3c-41 0 -84 -3 -125 -3c-2 0 -14 0 -14 11c0 20 10 20 24 20c20 0 72 3 72 33c0 10 -14 146 -16 167h-251l-76 -128 c-8 -14 -14 -25 -14 -37c0 -25 24 -33 47 -35c7 0 16 -1 16 -12c0 -19 -13 -19 -19 -19c-32 0 -67 3 -100 3c-28 0 -59 -3 -86 -3c-8 0 -13 5 -13 11c0 19 9 19 21 20c44 3 83 17 123 84zM299 262h229l-32 330z" id="4110"/><path d="M439 712l-342 -938c-6 -17 -9 -24 -22 -24c-11 0 -20 9 -20 20c0 1 0 5 5 18l347 953c3 6 10 9 17 9c11 0 20 -9 20 -20c0 -1 0 -5 -5 -18z" id="3d10"/><path d="M628 569l-360 -573c-8 -13 -12 -18 -28 -18c-13 0 -17 3 -20 23l-79 617c-3 25 -4 34 -60 34c-16 0 -25 0 -25 12c0 19 12 19 19 19c17 0 36 -2 54 -2s37 -1 55 -1c41 0 84 3 124 3c6 0 14 -2 14 -11c0 -20 -11 -20 -25 -20c-46 0 -69 -13 -69 -30l68 -529l307 488 c0 1 15 23 15 38c0 21 -19 31 -46 33c-7 0 -16 1 -16 12c0 19 13 19 19 19c32 0 66 -3 99 -3c27 0 56 3 82 3c8 0 13 -4 13 -12c0 -1 -1 -18 -13 -19c-37 -2 -79 -5 -128 -83z" id="5610"/></defs><g transform="scale(1.25)"><g transform="scale(0.01,-0.01)"><g transform="translate(14927,-13527)"><use xlink:href="#3d7"/><use x="1054.771" xlink:href="#5610"/><use x="1859.994" xlink:href="#6f10"/><use x="2343.994" xlink:href="#6c10"/><use x="2661.672" xlink:href="#7410"/><use x="3022.672" xlink:href="#3d10"/><use x="3467.116" xlink:href="#4110"/><use x="4217.116" xlink:href="#6d10"/><use x="5095.116" xlink:href="#7010"/><use x="5598.116" xlink:href="#6510"/><use x="6063.116" xlink:href="#7210"/><use x="6541.895" xlink:href="#6510"/></g></g></g></svg>