<?xml version="1.0" ?><!DOCTYPE svg  PUBLIC '-//W3C//DTD SVG 1.1//EN'  'http://www.w3.org/Graphics/SVG/1.1/DTD/svg11.dtd'><svg height="61.069" viewBox="308.741 101.383 155.815 61.069" width="155.815" xmlns="http://www.w3.org/2000/svg" xmlns:xlink="http://www.w3.org/1999/xlink"><defs><path d="M367 606l-136 -543c-2 -9 -4 -15 -4 -22c0 -8 1 -10 12 -11c6 -1 8 -1 22 -1h96c169 0 214 113 246 201c8 19 8 21 10 22c2 4 7 4 8 4c5 0 10 -4 10 -10c0 -3 -2 -9 -4 -14l-77 -213c-7 -18 -8 -19 -30 -19h-448c-20 0 -26 0 -26 11c0 18 10 18 29 18c70 0 72 10 81 45 l135 538c4 15 4 21 4 23c0 11 0 19 -61 19c-15 0 -24 0 -24 10c0 19 11 19 19 19c19 0 41 -2 60 -2h134c20 0 43 2 63 2c4 0 15 0 15 -10c0 -19 -7 -19 -34 -19c-88 0 -91 -10 -100 -48z" id="4c18"/><path d="M418 250l199 -200c11 -11 13 -13 13 -21c0 -11 -8 -20 -20 -20c-6 0 -12 3 -22 13l-200 200l-200 -200c-11 -11 -13 -13 -21 -13c-10 0 -20 9 -20 20c0 6 3 12 13 22l199 199l-199 200c-9 9 -13 13 -13 21c0 11 10 20 20 20c8 0 10 -2 21 -13l201 -200l200 200 c9 9 13 13 21 13c11 0 20 -9 20 -20c0 -8 -2 -10 -13 -21z" id="0221"/><path d="M43 -127l113 450c4 18 7 28 7 52c0 30 -8 46 -31 46c-40 0 -59 -59 -74 -118c-6 -23 -7 -24 -15 -24c-7 0 -11 5 -11 9s14 65 32 101c19 38 42 52 71 52c40 0 79 -26 87 -76c11 14 65 76 129 76c75 0 127 -65 127 -157c0 -147 -122 -294 -235 -294c-52 0 -79 39 -90 67 c-6 -23 -51 -195 -51 -207c0 -8 3 -15 49 -15c17 0 24 0 24 -11c0 -18 -12 -18 -18 -18c-21 0 -72 2 -93 2h-43c-13 0 -27 -2 -40 -2c-11 0 -12 8 -12 10c0 19 10 19 22 19c41 0 45 8 52 38zM216 312l-49 -196c-1 -5 -3 -13 -3 -16c0 -4 11 -90 79 -90c46 0 92 48 117 102 c25 52 53 165 53 213c0 52 -20 96 -64 96c-38 0 -71 -28 -82 -38c-16 -14 -44 -43 -51 -71z" id="7018"/><path d="M643 321h-567c-15 0 -30 0 -30 17c0 18 17 18 34 18h559c17 0 34 0 34 -18c0 -17 -15 -17 -30 -17zM639 143h-559c-17 0 -34 0 -34 18c0 17 15 17 30 17h567c15 0 30 0 30 -17c0 -18 -17 -18 -34 -18z" id="3d15"/><path d="M389 409c-13 9 -29 12 -45 12c-41 0 -67 -23 -79 -34c-25 -22 -52 -71 -55 -80c-3 -13 -7 -29 -11 -43c-5 -22 -11 -43 -16 -65c-6 -23 -43 -174 -46 -182c-6 -20 -25 -27 -36 -27c-15 0 -26 11 -26 25c0 5 11 52 18 78c5 18 16 63 20 82l28 108c7 31 17 70 17 92 c0 29 -7 46 -31 46c-40 0 -59 -58 -74 -118c-6 -23 -7 -24 -15 -24c-7 0 -11 5 -11 9c0 5 15 65 32 101c12 22 32 52 71 52c40 0 80 -26 87 -79c42 61 88 79 128 79c50 0 81 -28 81 -60c0 -30 -23 -54 -51 -54c-14 0 -33 8 -33 32c0 22 16 44 47 50z" id="7218"/><path d="M535 597h-320c-16 0 -34 0 -34 18c0 19 17 19 34 19h336c-19 27 -25 51 -25 60c0 15 12 19 18 19c14 0 17 -12 20 -20c3 -12 10 -39 38 -58c6 -5 14 -10 14 -19c0 -11 -7 -14 -17 -20c-23 -13 -50 -32 -74 -62c-7 -10 -11 -16 -20 -16c-10 0 -19 9 -19 19 c0 14 37 49 49 60z" id="7e18"/></defs><g transform="scale(1.25)"><g transform="scale(0.02488,-0.02488)"><g transform="translate(10321.904,-4374.835)"><use xlink:href="#7e18"/></g><g transform="translate(10283.305,-4627.612)"><use xlink:href="#4c18"/></g></g><g transform="scale(0.02488,-0.02488)"><g transform="translate(11227.28,-4627.612)"><use xlink:href="#3d15"/></g></g><g transform="scale(0.02488,-0.02488)"><g transform="translate(12190.984,-4627.612)"><use xlink:href="#7e18"/><use x="33.073" xlink:href="#7218"/><use x="723.75" xlink:href="#0221"/><use x="1728.585" xlink:href="#7e18"/><use x="1722.971" xlink:href="#7018"/></g></g></g></svg>