<?xml version="1.0" ?><!DOCTYPE svg  PUBLIC '-//W3C//DTD SVG 1.1//EN'  'http://www.w3.org/Graphics/SVG/1.1/DTD/svg11.dtd'><svg height="90.262" viewBox="317.538 94.529 138.246 90.262" width="138.246" xmlns="http://www.w3.org/2000/svg" xmlns:xlink="http://www.w3.org/1999/xlink"><defs><path d="M454 334h1c10 37 29 111 29 175c0 112 -56 182 -144 182c-27 0 -103 -7 -144 -81c13 0 44 0 44 -31c0 -17 -15 -49 -50 -49c-28 0 -34 22 -34 31c0 27 43 154 188 154c128 0 209 -111 209 -255c0 -137 -101 -481 -337 -481c-136 0 -178 115 -178 176 c0 159 144 302 285 302c90 0 125 -67 131 -123zM219 6c154 0 219 224 219 298c0 54 -21 133 -112 133c-104 0 -161 -101 -174 -131c-15 -37 -43 -140 -43 -184c0 -42 16 -116 110 -116z" id="4018"/><path d="M43 -127l113 450c4 18 7 28 7 52c0 30 -8 46 -31 46c-40 0 -59 -59 -74 -118c-6 -23 -7 -24 -15 -24c-7 0 -11 5 -11 9s14 65 32 101c19 38 42 52 71 52c40 0 79 -26 87 -76c11 14 65 76 129 76c75 0 127 -65 127 -157c0 -147 -122 -294 -235 -294c-52 0 -79 39 -90 67 c-6 -23 -51 -195 -51 -207c0 -8 3 -15 49 -15c17 0 24 0 24 -11c0 -18 -12 -18 -18 -18c-21 0 -72 2 -93 2h-43c-13 0 -27 -2 -40 -2c-11 0 -12 8 -12 10c0 19 10 19 22 19c41 0 45 8 52 38zM216 312l-49 -196c-1 -5 -3 -13 -3 -16c0 -4 11 -90 79 -90c46 0 92 48 117 102 c25 52 53 165 53 213c0 52 -20 96 -64 96c-38 0 -71 -28 -82 -38c-16 -14 -44 -43 -51 -71z" id="7018"/><path d="M297 326l-64 -255c-2 -7 -4 -15 -4 -20c0 -15 2 -22 81 -22c22 0 28 0 28 -11c0 -18 -12 -18 -21 -18c-22 0 -46 2 -68 2h-130c-19 0 -39 -2 -58 -2c-6 0 -15 0 -15 11c0 18 10 18 29 18c70 0 72 10 81 45l135 540c3 11 4 15 4 20c0 11 0 18 -62 18c-17 0 -24 0 -24 11 c0 18 10 18 29 18h474c18 0 27 0 27 -11c0 -2 -2 -12 -2 -15l-21 -175c-2 -18 -6 -22 -13 -22c-6 0 -11 3 -11 11c0 4 2 17 3 21c3 26 3 48 3 54c0 71 -18 108 -143 108h-134c-41 0 -43 -3 -52 -38l-65 -259h91c87 0 107 21 128 96c4 17 5 21 14 21c7 0 10 -6 10 -10 l-58 -233c-4 -16 -5 -20 -13 -20c-7 0 -11 4 -11 11c0 2 1 7 3 11c5 22 7 36 7 49c0 29 -6 46 -82 46h-96z" id="4618"/><path d="M643 321h-567c-15 0 -30 0 -30 17c0 18 17 18 34 18h559c17 0 34 0 34 -18c0 -17 -15 -17 -30 -17zM639 143h-559c-17 0 -34 0 -34 18c0 17 15 17 30 17h567c15 0 30 0 30 -17c0 -18 -17 -18 -34 -18z" id="3d15"/><path d="M535 597h-320c-16 0 -34 0 -34 18c0 19 17 19 34 19h336c-19 27 -25 51 -25 60c0 15 12 19 18 19c14 0 17 -12 20 -20c3 -12 10 -39 38 -58c6 -5 14 -10 14 -19c0 -11 -7 -14 -17 -20c-23 -13 -50 -32 -74 -62c-7 -10 -11 -16 -20 -16c-10 0 -19 9 -19 19 c0 14 37 49 49 60z" id="7e18"/><path d="M201 402l-78 -313c-3 -12 -3 -31 -3 -32c0 -22 2 -47 32 -47c58 0 104 70 125 120c7 16 8 17 9 18c2 4 6 4 8 4c6 0 10 -3 10 -9c0 -7 -54 -153 -155 -153c-56 0 -89 43 -89 90c0 13 3 23 11 58l66 264h-89c-19 0 -26 0 -26 10c0 19 9 19 29 19h94l39 159 c8 32 31 35 39 35c13 0 26 -9 26 -25c0 -7 0 -9 -4 -23l-37 -146h88c20 0 26 0 26 -11c0 -18 -10 -18 -29 -18h-92z" id="7418"/></defs><g transform="scale(1.25)"><rect height="0.995" width="23.011" x="314.951" y="113.527"/><g transform="scale(0.02488,-0.02488)"><g transform="translate(10710.973,-4580.191)"><use xlink:href="#7e18"/></g><g transform="translate(10566.154,-4832.968)"><use xlink:href="#4618"/></g></g><g transform="scale(0.02488,-0.02488)"><g transform="translate(11613.774,-4832.968)"><use xlink:href="#3d15"/></g></g><g transform="scale(0.02488,-0.02488)"><g transform="translate(12835.574,-4156.461)"><use xlink:href="#4018"/></g><g transform="translate(12658.782,-5518.919)"><use xlink:href="#4018"/><use x="570.397" xlink:href="#7418"/></g><g transform="translate(13637.5,-4832.968)"><use xlink:href="#7e18"/><use x="-5.613" xlink:href="#7018"/></g></g></g></svg>