<?xml version="1.0" ?><!DOCTYPE svg  PUBLIC '-//W3C//DTD SVG 1.1//EN'  'http://www.w3.org/Graphics/SVG/1.1/DTD/svg11.dtd'><svg height="56.1" viewBox="216.608 108.094 335.612 56.1" width="335.612" xmlns="http://www.w3.org/2000/svg" xmlns:xlink="http://www.w3.org/1999/xlink"><defs><path d="M206 293l-33 -132l-22 -90c-5 -20 -14 -55 -16 -60c-8 -15 -22 -21 -34 -21c-15 0 -26 11 -26 25c0 5 11 52 18 78c5 18 16 63 20 82l28 108c7 31 17 70 17 92c0 30 -8 46 -31 46c-40 0 -59 -59 -74 -118c-6 -23 -7 -24 -15 -24c-7 0 -11 5 -11 9s14 65 32 101 c19 38 42 52 71 52c44 0 85 -31 88 -88c18 25 65 88 154 88c75 0 108 -43 111 -97c40 59 94 97 161 97c76 0 111 -45 111 -105c0 -58 -45 -176 -63 -224c-4 -11 -16 -43 -16 -69c0 -32 16 -33 26 -33c40 0 77 42 100 122c5 17 6 20 15 20c6 0 10 -4 10 -9 c0 -6 -35 -153 -128 -153c-48 0 -79 36 -79 81c0 18 5 31 14 55c22 60 61 169 61 225c0 40 -14 70 -54 70c-110 0 -162 -125 -164 -133l-60 -239c-9 -36 -14 -59 -44 -59c-15 0 -26 11 -26 25c0 4 6 30 10 45c2 11 21 85 29 115l25 103c12 47 12 67 12 73 c0 40 -14 70 -54 70c-39 0 -73 -16 -99 -40c-37 -32 -62 -82 -64 -88z" id="6d18"/><path d="M619 572l-361 -574c-10 -16 -15 -19 -27 -19c-14 0 -14 3 -17 24l-80 617c-3 25 -6 34 -57 34c-16 0 -23 0 -23 11c0 18 12 18 18 18c1 0 31 -2 104 -2h56c17 0 37 2 54 2c3 0 14 0 14 -10c0 -19 -9 -19 -24 -19c-11 0 -63 -2 -63 -31l70 -539l314 498c1 1 15 24 15 39 c0 12 -4 30 -41 33c-4 0 -13 1 -13 10c0 19 10 19 18 19c28 0 58 -2 87 -2c18 0 61 2 79 2c9 0 11 -6 11 -10c0 -18 -8 -18 -18 -19c-51 -4 -82 -28 -116 -82z" id="5618"/><path d="M747 695l-63 -255c-4 -18 -5 -19 -16 -19c-3 0 -13 0 -13 9c0 4 3 26 3 52c0 102 -49 193 -159 193c-95 0 -189 -56 -244 -120c-113 -131 -123 -305 -123 -337c0 -142 92 -210 198 -210c100 0 235 75 281 231c2 4 3 10 12 10c3 0 11 0 11 -9c0 -8 -26 -105 -113 -178 c-58 -49 -128 -83 -208 -83c-146 0 -263 104 -263 271c0 235 224 454 440 454c75 0 130 -34 165 -94l69 84c8 10 12 10 14 10s9 0 9 -9z" id="4318"/><path d="M254 669l-141 -560c-7 -28 -7 -49 -7 -53c0 -14 0 -46 30 -46c40 0 58 53 76 122c4 15 5 20 14 20c6 0 10 -4 10 -9c0 -4 -14 -67 -31 -100c-16 -31 -38 -53 -71 -53c-51 0 -88 40 -88 90c0 16 2 24 5 35l124 496c5 18 5 20 5 24c0 10 0 19 -51 19c-10 0 -20 0 -20 10 c0 18 7 19 31 21c18 1 33 3 50 4c18 2 54 5 55 5c2 0 12 0 12 -10c0 -5 -2 -11 -3 -15z" id="6c18"/><path d="M231 669l-73 -291c19 20 66 63 118 63c75 0 127 -65 127 -157c0 -145 -120 -294 -236 -294c-65 0 -122 53 -122 155c0 13 0 30 5 55c4 18 61 245 71 285l24 96c4 18 12 47 12 54c0 10 0 19 -51 19c-10 0 -20 0 -20 10c0 18 7 19 31 21c18 1 33 3 50 4c18 2 54 5 55 5 c2 0 12 0 12 -10c0 -5 -2 -11 -3 -15zM168 10c46 0 92 48 117 102c25 52 53 165 53 213c0 52 -20 96 -64 96c-68 0 -127 -89 -129 -97c-4 -13 -20 -77 -23 -90c-18 -70 -21 -89 -21 -122c0 -78 35 -102 67 -102z" id="6218"/><path d="M456 275c0 -141 -129 -285 -262 -285c-91 0 -153 71 -153 166c0 141 130 285 262 285c91 0 153 -71 153 -166zM195 10c39 0 94 26 135 93c38 61 59 168 59 208c0 70 -38 110 -87 110c-41 0 -97 -26 -142 -103c-28 -50 -52 -152 -52 -198c0 -70 37 -110 87 -110z" id="6f18"/><path d="M179 232h-53c-15 -64 -15 -89 -15 -103c0 -74 30 -119 87 -119c38 0 133 15 197 100c9 9 10 10 13 10c4 0 10 -5 10 -11c0 -13 -86 -119 -222 -119c-91 0 -151 73 -151 178c0 178 151 273 256 273c66 0 104 -40 104 -84c0 -18 -7 -76 -83 -105c-48 -18 -116 -20 -143 -20 zM131 252h42c42 0 202 0 202 105c0 38 -30 64 -74 64c-32 0 -127 -15 -170 -169z" id="6518"/><path d="M429 713l-335 -941c-7 -21 -16 -22 -22 -22c-8 0 -18 7 -18 19c0 2 6 17 6 18l335 941c8 22 17 22 22 22c8 0 18 -7 18 -19c0 -2 -6 -17 -6 -18z" id="3d18"/><path d="M643 321h-567c-15 0 -30 0 -30 17c0 18 17 18 34 18h559c17 0 34 0 34 -18c0 -17 -15 -17 -30 -17zM639 143h-559c-17 0 -34 0 -34 18c0 17 15 17 30 17h567c15 0 30 0 30 -17c0 -18 -17 -18 -34 -18z" id="3d15"/><path d="M341 58c-20 -24 -55 -68 -119 -68c-41 0 -118 16 -118 118c0 30 5 68 49 187c15 38 26 67 26 93c0 32 -16 33 -26 33c-38 0 -77 -38 -101 -124c-4 -14 -5 -18 -14 -18c-7 0 -11 5 -11 9c0 8 37 153 129 153c48 0 79 -37 79 -80c0 -20 -5 -33 -17 -65 c-26 -67 -54 -147 -54 -204c0 -37 10 -82 62 -82c73 0 112 82 113 82c7 35 61 250 71 289c6 25 13 50 42 50c15 0 27 -10 27 -25c0 -3 0 -5 -7 -30l-41 -163c-6 -28 -13 -55 -20 -82c-10 -42 -13 -52 -13 -75c0 -13 0 -46 30 -46c40 0 58 53 76 122c4 15 5 20 14 20 c6 0 10 -4 10 -9c0 -3 -13 -62 -30 -98c-16 -34 -40 -55 -72 -55c-24 0 -72 12 -85 68z" id="7518"/><path d="M201 402l-78 -313c-3 -12 -3 -31 -3 -32c0 -22 2 -47 32 -47c58 0 104 70 125 120c7 16 8 17 9 18c2 4 6 4 8 4c6 0 10 -3 10 -9c0 -7 -54 -153 -155 -153c-56 0 -89 43 -89 90c0 13 3 23 11 58l66 264h-89c-19 0 -26 0 -26 10c0 19 9 19 29 19h94l39 159 c8 32 31 35 39 35c13 0 26 -9 26 -25c0 -7 0 -9 -4 -23l-37 -146h88c20 0 26 0 26 -11c0 -18 -10 -18 -29 -18h-92z" id="7418"/><path d="M534 614l-118 -471c-24 -95 -122 -164 -213 -164c-72 0 -124 44 -124 107c0 65 42 75 60 75c30 0 40 -21 40 -37c0 -29 -26 -58 -59 -58c-4 0 -9 1 -13 2c12 -53 60 -69 94 -69c48 0 115 49 141 151l115 457c4 16 4 23 4 24c0 15 0 23 -80 23h-25c0 1 -8 1 -8 11 c0 18 12 18 21 18c42 0 86 -2 128 -2h55c18 0 37 2 54 2c4 0 13 0 13 -11c0 -18 -10 -18 -26 -18c-49 0 -51 -10 -59 -40z" id="4a18"/></defs><g transform="scale(1.25)"><g transform="scale(0.02488,-0.02488)"><g transform="translate(7312.818,-4627.612)"><use xlink:href="#5618"/><use x="787.59" xlink:href="#6f18"/><use x="1257.59" xlink:href="#6c18"/><use x="1570.581" xlink:href="#7418"/></g></g><g transform="scale(0.02488,-0.02488)"><g transform="translate(9514.176,-4627.612)"><use xlink:href="#3d15"/></g></g><g transform="scale(0.02488,-0.02488)"><g transform="translate(10510.953,-4627.612)"><use xlink:href="#4a18"/><use x="633.593" xlink:href="#6f18"/><use x="1103.593" xlink:href="#7518"/><use x="1660.593" xlink:href="#6c18"/><use x="1973.584" xlink:href="#6518"/><use x="2426.584" xlink:href="#3d18"/><use x="2915.584" xlink:href="#4318"/><use x="3687.401" xlink:href="#6f18"/><use x="4157.401" xlink:href="#7518"/><use x="4714.401" xlink:href="#6c18"/><use x="5027.392" xlink:href="#7518"/><use x="5584.392" xlink:href="#6d18"/><use x="6440.392" xlink:href="#6218"/></g></g></g></svg>