<?xml version="1.0" ?><!DOCTYPE svg  PUBLIC '-//W3C//DTD SVG 1.1//EN'  'http://www.w3.org/Graphics/SVG/1.1/DTD/svg11.dtd'><svg height="56.069" viewBox="281.711 108.125 202.725 56.069" width="202.725" xmlns="http://www.w3.org/2000/svg" xmlns:xlink="http://www.w3.org/1999/xlink"><defs><path d="M903 572l-329 -574c-8 -14 -11 -19 -21 -19c-12 0 -13 6 -14 23l-37 517l-298 -521c-9 -15 -11 -19 -21 -19c-12 0 -13 6 -14 23l-44 614c-2 32 -3 38 -50 38c-14 0 -22 0 -22 10c0 19 12 19 18 19c15 0 33 -2 48 -2h52c36 0 73 2 108 2c6 0 15 0 15 -11 c0 -18 -11 -18 -22 -18c-68 -1 -68 -26 -68 -37l37 -516l259 455l-3 36c-4 61 -4 62 -50 62c-17 0 -24 0 -24 10c0 19 12 19 18 19c15 0 33 -2 48 -2h52c36 0 73 2 108 2c5 0 15 0 15 -10c0 -19 -10 -19 -23 -19c-56 -1 -67 -20 -67 -32l36 -521l273 478c10 17 14 24 14 37 c0 31 -32 37 -52 38c-6 0 -14 1 -14 10c0 19 12 19 18 19c29 0 60 -2 90 -2c66 0 73 2 75 2c3 0 12 0 12 -11c0 -16 -9 -17 -18 -18c-60 -6 -82 -43 -105 -82z" id="5718"/><path d="M281 669l-103 -411c37 14 74 52 84 64c71 80 116 119 171 119c45 0 68 -30 68 -59c0 -32 -24 -55 -51 -55c-14 0 -33 8 -33 32c0 20 14 46 51 50c-7 6 -13 12 -36 12c-46 0 -85 -32 -142 -96c-14 -15 -50 -54 -86 -76c92 -12 145 -45 145 -104c0 -12 0 -13 -4 -31 c-4 -15 -8 -37 -8 -56c0 -38 13 -48 33 -48c51 0 72 70 86 122c4 16 5 20 14 20c6 0 10 -4 10 -9c0 -4 -13 -60 -34 -97c-8 -14 -32 -56 -78 -56c-51 0 -89 39 -89 97c0 5 0 17 4 32c3 15 3 19 3 25c0 48 -43 78 -115 86l-47 -187c-8 -31 -14 -53 -42 -53 c-10 0 -27 4 -27 26c0 6 0 8 4 23l143 572c5 18 5 20 5 24c0 10 0 19 -51 19c-10 0 -20 0 -20 10c0 18 7 19 31 21c18 1 33 3 50 4c18 2 54 5 55 5c2 0 12 0 12 -10c0 -5 -2 -11 -3 -15z" id="6b18"/><path d="M263 249c0 -96 -14 -204 -64 -315c-49 -110 -134 -184 -145 -184c-3 0 -7 1 -7 6c0 2 1 3 2 5c49 50 170 177 170 489c0 311 -122 438 -170 488c-1 2 -2 3 -2 5c0 5 4 6 7 6c12 0 94 -73 142 -177c60 -129 67 -251 67 -323z" id="2915"/><path d="M643 321h-567c-15 0 -30 0 -30 17c0 18 17 18 34 18h559c17 0 34 0 34 -18c0 -17 -15 -17 -30 -17zM639 143h-559c-17 0 -34 0 -34 18c0 17 15 17 30 17h567c15 0 30 0 30 -17c0 -18 -17 -18 -34 -18z" id="3d15"/><path d="M306 -244c0 -4 -2 -6 -7 -6c-12 0 -94 73 -142 177c-60 129 -67 251 -67 323c0 96 14 204 64 315c49 110 134 184 145 184c4 0 7 -2 7 -5s-2 -5 -2 -6c-49 -50 -170 -177 -170 -489s123 -440 169 -487c3 -3 3 -5 3 -6z" id="2815"/><path d="M155 616c0 -23 -19 -41 -41 -41c-23 0 -41 19 -41 41c0 23 19 41 41 41c23 0 41 -19 41 -41zM38 427l115 11v-370c0 -36 2 -42 61 -42v-26c-23 2 -64 2 -88 2c-25 0 -68 0 -92 -2v26c64 0 68 5 68 43v278c0 48 -8 54 -64 54v26z" id="6915"/><path d="M309 422v-112c0 -17 0 -20 -9 -20c-3 0 -8 1 -9 6c-2 32 -8 132 -115 132c-101 0 -115 -55 -115 -81c0 -61 70 -75 125 -87c42 -8 77 -15 107 -46c13 -12 40 -39 40 -90c0 -78 -53 -132 -152 -132c-56 0 -91 26 -111 53c-6 -10 -21 -34 -27 -43c-5 -8 -6 -9 -11 -9 c-6 0 -7 1 -7 19v144c0 20 1 21 9 21s8 -1 11 -15c18 -88 49 -154 136 -154c92 0 116 54 116 96c0 36 -22 58 -35 70c-21 18 -43 22 -106 35c-29 6 -131 27 -131 117c0 58 40 116 151 116c17 0 62 -1 94 -35c3 4 12 14 15 18c12 15 13 16 17 16c6 0 7 -1 7 -19z" id="7315"/><path d="M415 304v-235c0 -39 4 -43 68 -43v-26c-24 2 -69 2 -95 2s-70 0 -94 -2v26c64 0 68 5 68 43v239c0 48 -8 114 -82 114c-70 0 -126 -69 -126 -161v-192c0 -39 4 -43 68 -43v-26c-24 2 -69 2 -95 2s-70 0 -94 -2v26c64 0 68 5 68 43v278c0 48 -9 54 -68 54v26l118 11v-101 h1c15 40 56 101 135 101c118 0 128 -83 128 -134z" id="6e15"/><path d="M420 321c0 -73 -4 -154 -34 -223c-41 -95 -111 -114 -157 -114c-39 0 -116 14 -159 117c-31 76 -32 163 -32 220c0 78 4 171 44 246c38 72 99 94 147 94c52 0 111 -25 148 -95c42 -80 43 -184 43 -245zM229 0c35 0 94 19 115 128c12 59 12 139 12 204 c0 80 -1 147 -14 204c-19 82 -72 109 -113 109c-39 0 -95 -26 -114 -111c-13 -61 -13 -125 -13 -202c0 -56 0 -142 11 -201c14 -76 52 -131 116 -131z" id="3015"/><path d="M301 119l49 196c1 2 4 15 4 16c0 8 -13 90 -79 90c-39 0 -86 -36 -120 -106c-19 -42 -50 -154 -50 -209c0 -59 23 -96 64 -96c47 0 91 43 113 71c14 19 14 21 19 38zM365 375c2 12 10 47 42 47c15 0 26 -11 26 -25c0 -6 -9 -42 -46 -192c-8 -29 -13 -51 -20 -76 c-9 -39 -12 -50 -12 -73c0 -20 2 -46 31 -46c41 0 60 63 75 122c4 15 5 20 14 20c6 0 10 -4 10 -9c0 -4 -14 -65 -30 -99c-18 -36 -42 -54 -72 -54s-77 17 -87 76c-28 -33 -75 -76 -130 -76c-68 0 -126 58 -126 157c0 148 122 294 235 294c52 0 79 -40 90 -66z" id="6118"/></defs><g transform="scale(1.25)"><g transform="scale(0.02488,-0.02488)"><g transform="translate(9422.144,-4627.612)"><use xlink:href="#3015"/><use x="735.777" xlink:href="#3d15"/></g></g><g transform="scale(0.02488,-0.02488)"><g transform="translate(11154.698,-4627.612)"><use xlink:href="#6118"/></g></g><g transform="scale(0.02488,-0.02488)"><g transform="translate(11835.364,-4627.612)"><use xlink:href="#7315"/><use x="359" xlink:href="#6915"/><use x="608" xlink:href="#6e15"/><use x="1119.861" xlink:href="#2815"/></g></g><g transform="scale(0.02488,-0.02488)"><g transform="translate(13309.225,-4627.612)"><use xlink:href="#6b18"/><use x="542.565" xlink:href="#5718"/></g></g><g transform="scale(0.02488,-0.02488)"><g transform="translate(14911.784,-4627.612)"><use xlink:href="#2915"/></g></g></g></svg>