<?xml version="1.0" ?><!DOCTYPE svg  PUBLIC '-//W3C//DTD SVG 1.1//EN'  'http://www.w3.org/Graphics/SVG/1.1/DTD/svg11.dtd'><svg height="62.752" viewBox="81.572 116.441 603.531 62.752" width="603.531" xmlns="http://www.w3.org/2000/svg" xmlns:xlink="http://www.w3.org/1999/xlink"><defs><path d="M231 669l-73 -291c19 20 66 63 118 63c75 0 127 -65 127 -157c0 -145 -120 -294 -236 -294c-65 0 -122 53 -122 155c0 13 0 30 5 55c4 18 61 245 71 285l24 96c4 18 12 47 12 54c0 10 0 19 -51 19c-10 0 -20 0 -20 10c0 18 7 19 31 21c18 1 33 3 50 4c18 2 54 5 55 5 c2 0 12 0 12 -10c0 -5 -2 -11 -3 -15zM168 10c46 0 92 48 117 102c25 52 53 165 53 213c0 52 -20 96 -64 96c-68 0 -127 -89 -129 -97c-4 -13 -20 -77 -23 -90c-18 -70 -21 -89 -21 -122c0 -78 35 -102 67 -102z" id="6218"/><path d="M474 408c-21 13 -49 13 -51 13c-46 0 -80 -44 -95 -104l-35 -136c-16 -66 -20 -82 -20 -104c0 -41 19 -67 54 -67c45 0 103 41 130 129c3 8 4 13 13 13c6 0 10 -4 10 -9c0 -22 -54 -153 -156 -153c-37 0 -87 20 -103 79c-21 -41 -55 -79 -103 -79c-43 0 -90 19 -90 61 c0 32 26 53 50 53c19 0 34 -12 34 -32c0 -12 -8 -42 -44 -49c21 -13 46 -13 51 -13c53 0 82 55 97 115l34 137c12 48 18 71 18 93c0 24 -9 66 -54 66c-29 0 -96 -21 -130 -132c-2 -4 -4 -10 -12 -10c-7 0 -11 5 -11 9c0 22 54 153 156 153c18 0 80 -4 103 -79 c9 19 43 79 104 79c42 0 90 -19 90 -61c0 -27 -21 -53 -51 -53c-14 0 -33 8 -33 32c0 19 12 43 44 49z" id="7818"/><path d="M377 232v-265c0 -15 0 -31 -18 -31c-17 0 -17 17 -17 31v265h-265c-15 0 -31 0 -31 18c0 17 17 17 31 17h265v265c0 15 0 31 18 31c17 0 17 -17 17 -31v-265h265c15 0 31 0 31 -18c0 -17 -17 -17 -31 -17h-265z" id="2b15"/><path d="M429 713l-335 -941c-7 -21 -16 -22 -22 -22c-8 0 -18 7 -18 19c0 2 6 17 6 18l335 941c8 22 17 22 22 22c8 0 18 -7 18 -19c0 -2 -6 -17 -6 -18z" id="3d18"/><path d="M643 321h-567c-15 0 -30 0 -30 17c0 18 17 18 34 18h559c17 0 34 0 34 -18c0 -17 -15 -17 -30 -17zM639 143h-559c-17 0 -34 0 -34 18c0 17 15 17 30 17h567c15 0 30 0 30 -17c0 -18 -17 -18 -34 -18z" id="3d15"/><path d="M306 -244c0 -4 -2 -6 -7 -6c-12 0 -94 73 -142 177c-60 129 -67 251 -67 323c0 96 14 204 64 315c49 110 134 184 145 184c4 0 7 -2 7 -5s-2 -5 -2 -6c-49 -50 -170 -177 -170 -489s123 -440 169 -487c3 -3 3 -5 3 -6z" id="2815"/><path d="M417 155l-24 -155h-352v23l199 225c57 65 108 140 108 227c0 91 -57 160 -144 160c-61 0 -119 -42 -138 -127c4 2 10 3 16 3c14 0 40 -9 40 -40c0 -35 -30 -41 -40 -41c-12 0 -41 5 -41 44c0 90 67 187 177 187c105 0 199 -68 199 -186c0 -99 -71 -167 -132 -225 c-85 -82 -155 -153 -191 -192h192c14 0 86 0 91 8c4 6 12 18 22 89h18z" id="3215"/><path d="M263 249c0 -96 -14 -204 -64 -315c-49 -110 -134 -184 -145 -184c-3 0 -7 1 -7 6c0 2 1 3 2 5c49 50 170 177 170 489c0 311 -122 438 -170 488c-1 2 -2 3 -2 5c0 5 4 6 7 6c12 0 94 -73 142 -177c60 -129 67 -251 67 -323z" id="2915"/><path d="M417 155l-24 -155h-352v23l199 225c57 65 108 140 108 227c0 91 -57 160 -144 160c-61 0 -119 -42 -138 -127c4 2 10 3 16 3c14 0 40 -9 40 -40c0 -35 -30 -41 -40 -41c-12 0 -41 5 -41 44c0 90 67 187 177 187c105 0 199 -68 199 -186c0 -99 -71 -167 -132 -225 c-85 -82 -155 -153 -191 -192h192c14 0 86 0 91 8c4 6 12 18 22 89h18z" id="3216"/><path d="M301 119l49 196c1 2 4 15 4 16c0 8 -13 90 -79 90c-39 0 -86 -36 -120 -106c-19 -42 -50 -154 -50 -209c0 -59 23 -96 64 -96c47 0 91 43 113 71c14 19 14 21 19 38zM365 375c2 12 10 47 42 47c15 0 26 -11 26 -25c0 -6 -9 -42 -46 -192c-8 -29 -13 -51 -20 -76 c-9 -39 -12 -50 -12 -73c0 -20 2 -46 31 -46c41 0 60 63 75 122c4 15 5 20 14 20c6 0 10 -4 10 -9c0 -4 -14 -65 -30 -99c-18 -36 -42 -54 -72 -54s-77 17 -87 76c-28 -33 -75 -76 -130 -76c-68 0 -126 58 -126 157c0 148 122 294 235 294c52 0 79 -40 90 -66z" id="6118"/></defs><g transform="scale(1.25)"><g transform="scale(0.02488,-0.02488)"><g transform="translate(2996.828,-5109.927)"><use xlink:href="#7818"/></g></g><g transform="scale(0.02074,-0.02074)"><g transform="translate(4262.023,-5634.63)"><use xlink:href="#3216"/></g></g><g transform="scale(0.02488,-0.02488)"><g transform="translate(4177.45,-5109.927)"><use xlink:href="#2b15"/><use x="941.221" xlink:href="#3215"/></g></g><g transform="scale(0.02488,-0.02488)"><g transform="translate(5576.671,-5109.927)"><use xlink:href="#7818"/></g></g><g transform="scale(0.02488,-0.02488)"><g transform="translate(6132.671,-5109.927)"><use xlink:href="#2815"/></g></g><g transform="scale(0.02488,-0.02488)"><g transform="translate(6486.671,-5109.927)"><use xlink:href="#6218"/><use x="416" xlink:href="#3d18"/></g></g><g transform="scale(0.02488,-0.02488)"><g transform="translate(7391.671,-5109.927)"><use xlink:href="#2815"/><use x="354" xlink:href="#3215"/></g></g><g transform="scale(0.02488,-0.02488)"><g transform="translate(8203.671,-5109.927)"><use xlink:href="#6118"/></g></g><g transform="scale(0.02488,-0.02488)"><g transform="translate(8717.671,-5109.927)"><use xlink:href="#2915"/><use x="354" xlink:href="#2915"/><use x="930.221" xlink:href="#2b15"/><use x="1871.443" xlink:href="#2815"/></g></g><g transform="scale(0.02488,-0.02488)"><g transform="translate(10943.114,-5109.927)"><use xlink:href="#6218"/><use x="416" xlink:href="#3d18"/></g></g><g transform="scale(0.02488,-0.02488)"><g transform="translate(11848.114,-5109.927)"><use xlink:href="#2815"/><use x="354" xlink:href="#3215"/></g></g><g transform="scale(0.02488,-0.02488)"><g transform="translate(12660.114,-5109.927)"><use xlink:href="#6118"/></g></g><g transform="scale(0.02488,-0.02488)"><g transform="translate(13174.114,-5109.927)"><use xlink:href="#2915"/><use x="354" xlink:href="#2915"/></g></g><g transform="scale(0.02074,-0.02074)"><g transform="translate(16653.181,-5634.63)"><use xlink:href="#3216"/></g></g><g transform="scale(0.02488,-0.02488)"><g transform="translate(14562.292,-5109.927)"><use xlink:href="#3d15"/><use x="996.777" xlink:href="#2815"/></g></g><g transform="scale(0.02488,-0.02488)"><g transform="translate(15913.069,-5109.927)"><use xlink:href="#7818"/></g></g><g transform="scale(0.02488,-0.02488)"><g transform="translate(16691.29,-5109.927)"><use xlink:href="#2b15"/><use x="941.221" xlink:href="#2815"/></g></g><g transform="scale(0.02488,-0.02488)"><g transform="translate(17986.511,-5109.927)"><use xlink:href="#6218"/><use x="416" xlink:href="#3d18"/></g></g><g transform="scale(0.02488,-0.02488)"><g transform="translate(18891.511,-5109.927)"><use xlink:href="#2815"/><use x="354" xlink:href="#3215"/></g></g><g transform="scale(0.02488,-0.02488)"><g transform="translate(19703.511,-5109.927)"><use xlink:href="#6118"/></g></g><g transform="scale(0.02488,-0.02488)"><g transform="translate(20217.511,-5109.927)"><use xlink:href="#2915"/><use x="354" xlink:href="#2915"/><use x="708" xlink:href="#2915"/></g></g><g transform="scale(0.02074,-0.02074)"><g transform="translate(25527.204,-5634.63)"><use xlink:href="#3216"/></g></g></g></svg>