<?xml version="1.0" ?><!DOCTYPE svg  PUBLIC '-//W3C//DTD SVG 1.1//EN'  'http://www.w3.org/Graphics/SVG/1.1/DTD/svg11.dtd'><svg height="45.06" viewBox="364.292 117.704 39.026 45.06" width="39.026" xmlns="http://www.w3.org/2000/svg" xmlns:xlink="http://www.w3.org/1999/xlink"><defs><path d="M263 -112c35 49 45 88 60 147l-1 1c-35 -37 -71 -46 -100 -46c-50 0 -118 22 -118 117c0 24 0 57 49 188c15 38 26 67 26 93c0 33 -17 33 -26 33c-39 0 -77 -40 -101 -124c-4 -14 -5 -18 -14 -18c-7 0 -11 5 -11 9c0 8 37 153 129 153c49 0 79 -38 79 -80 c0 -20 -6 -34 -17 -63c-27 -72 -54 -149 -54 -206c0 -27 5 -82 61 -82c48 0 81 34 101 62c8 11 8 13 13 31l74 294c8 30 29 34 38 34c15 0 27 -10 27 -25c0 -6 -2 -12 -3 -17l-98 -390c-28 -111 -129 -203 -229 -203c-57 0 -100 35 -100 86c0 49 35 61 51 61 c15 0 34 -8 34 -31s-20 -49 -50 -49c-2 0 -7 0 -10 1c15 -46 63 -48 75 -48c49 0 88 34 115 72z" id="7918"/></defs><g transform="scale(1.25)"><g transform="scale(0.02488,-0.02488)"><g transform="translate(12088.502,-4627.612)"><use xlink:href="#7918"/></g></g></g></svg>