<?xml version="1.0" ?><!DOCTYPE svg  PUBLIC '-//W3C//DTD SVG 1.1//EN'  'http://www.w3.org/Graphics/SVG/1.1/DTD/svg11.dtd'><svg height="46.894" viewBox="356.593 110.177 55.26 46.894" width="55.26" xmlns="http://www.w3.org/2000/svg" xmlns:xlink="http://www.w3.org/1999/xlink"><defs><path d="M903 572l-329 -574c-8 -14 -11 -19 -21 -19c-12 0 -13 6 -14 23l-37 517l-298 -521c-9 -15 -11 -19 -21 -19c-12 0 -13 6 -14 23l-44 614c-2 32 -3 38 -50 38c-14 0 -22 0 -22 10c0 19 12 19 18 19c15 0 33 -2 48 -2h52c36 0 73 2 108 2c6 0 15 0 15 -11 c0 -18 -11 -18 -22 -18c-68 -1 -68 -26 -68 -37l37 -516l259 455l-3 36c-4 61 -4 62 -50 62c-17 0 -24 0 -24 10c0 19 12 19 18 19c15 0 33 -2 48 -2h52c36 0 73 2 108 2c5 0 15 0 15 -10c0 -19 -10 -19 -23 -19c-56 -1 -67 -20 -67 -32l36 -521l273 478c10 17 14 24 14 37 c0 31 -32 37 -52 38c-6 0 -14 1 -14 10c0 19 12 19 18 19c29 0 60 -2 90 -2c66 0 73 2 75 2c3 0 12 0 12 -11c0 -16 -9 -17 -18 -18c-60 -6 -82 -43 -105 -82z" id="5718"/></defs><g transform="scale(1.25)"><g transform="scale(0.02488,-0.02488)"><g transform="translate(11814.951,-4627.612)"><use xlink:href="#5718"/></g></g></g></svg>