<?xml version="1.0" ?><!DOCTYPE svg  PUBLIC '-//W3C//DTD SVG 1.1//EN'  'http://www.w3.org/Graphics/SVG/1.1/DTD/svg11.dtd'><svg height="46.086" viewBox="361.142 110.333 45.775 46.086" width="45.775" xmlns="http://www.w3.org/2000/svg" xmlns:xlink="http://www.w3.org/1999/xlink"><defs><path d="M417 610l-134 -533c-4 -16 -4 -23 -4 -24c0 -15 0 -24 90 -24c26 0 33 0 33 -10c0 -19 -10 -19 -21 -19c-25 0 -52 2 -77 2h-156c-25 0 -51 -2 -76 -2c-5 0 -16 0 -16 10c0 19 7 19 32 19c106 0 108 10 118 49l134 537c5 18 5 20 5 23c0 11 -10 11 -34 11h-67 c-133 0 -154 -56 -196 -177c-4 -13 -6 -17 -14 -17c-6 0 -10 5 -10 10c0 1 3 12 4 14l61 180c6 18 7 19 30 19h547c20 0 26 0 26 -11c0 -3 0 -5 -2 -14l-29 -177c-3 -16 -3 -21 -13 -21c-6 0 -10 6 -10 10l1 12c6 37 10 75 10 90c0 78 -47 82 -147 82c-21 0 -54 0 -62 -2 c-15 -4 -17 -13 -23 -37z" id="5418"/></defs><g transform="scale(1.25)"><g transform="scale(0.02488,-0.02488)"><g transform="translate(11990.21,-4627.612)"><use xlink:href="#5418"/></g></g></g></svg>