<?xml version="1.0" ?><!DOCTYPE svg  PUBLIC '-//W3C//DTD SVG 1.1//EN'  'http://www.w3.org/Graphics/SVG/1.1/DTD/svg11.dtd'><svg height="88.583" viewBox="346.019 94.659 75.83 88.583" width="75.83" xmlns="http://www.w3.org/2000/svg" xmlns:xlink="http://www.w3.org/1999/xlink"><defs><path d="M903 572l-329 -574c-8 -14 -11 -19 -21 -19c-12 0 -13 6 -14 23l-37 517l-298 -521c-9 -15 -11 -19 -21 -19c-12 0 -13 6 -14 23l-44 614c-2 32 -3 38 -50 38c-14 0 -22 0 -22 10c0 19 12 19 18 19c15 0 33 -2 48 -2h52c36 0 73 2 108 2c6 0 15 0 15 -11 c0 -18 -11 -18 -22 -18c-68 -1 -68 -26 -68 -37l37 -516l259 455l-3 36c-4 61 -4 62 -50 62c-17 0 -24 0 -24 10c0 19 12 19 18 19c15 0 33 -2 48 -2h52c36 0 73 2 108 2c5 0 15 0 15 -10c0 -19 -10 -19 -23 -19c-56 -1 -67 -20 -67 -32l36 -521l273 478c10 17 14 24 14 37 c0 31 -32 37 -52 38c-6 0 -14 1 -14 10c0 19 12 19 18 19c29 0 60 -2 90 -2c66 0 73 2 75 2c3 0 12 0 12 -11c0 -16 -9 -17 -18 -18c-60 -6 -82 -43 -105 -82z" id="5718"/><path d="M206 293l-33 -132l-22 -90c-5 -20 -14 -55 -16 -60c-8 -15 -22 -21 -34 -21c-15 0 -26 11 -26 25c0 5 11 52 18 78c5 18 16 63 20 82l28 108c7 31 17 70 17 92c0 30 -8 46 -31 46c-40 0 -58 -57 -74 -118c-6 -23 -7 -24 -15 -24c-7 0 -11 5 -11 9s14 64 32 100 c17 34 39 53 71 53c44 0 85 -31 88 -88c18 25 65 88 154 88c76 0 111 -45 111 -105c0 -57 -42 -169 -62 -224c-6 -14 -17 -44 -17 -69c0 -32 16 -33 26 -33c39 0 77 40 100 122c5 17 6 20 15 20c6 0 10 -4 10 -9c0 -6 -35 -153 -128 -153c-48 0 -79 36 -79 81 c0 18 5 31 14 55c20 54 61 168 61 225c0 40 -14 70 -54 70c-39 0 -73 -16 -99 -40c-37 -32 -62 -82 -64 -88z" id="6e18"/><path d="M259 377l-58 -226c-10 -40 -10 -42 -26 -93c-12 -42 -20 -68 -49 -68c-9 0 -27 5 -27 26c0 6 0 8 8 24c82 175 107 262 129 337h-57c-25 0 -77 0 -129 -82c-5 -6 -6 -9 -13 -9c-6 0 -11 2 -11 8s32 59 58 88c46 49 80 49 103 49h329c18 0 37 0 37 -22 c0 -32 -33 -32 -46 -32h-112c-21 -90 -21 -161 -21 -167c0 -7 0 -93 27 -162c7 -15 7 -17 7 -22c0 -17 -18 -36 -39 -36c-41 0 -41 108 -41 122c0 80 17 153 44 265h-113z" id="1918"/><path d="M417 155l-24 -155h-352v23l199 225c57 65 108 140 108 227c0 91 -57 160 -144 160c-61 0 -119 -42 -138 -127c4 2 10 3 16 3c14 0 40 -9 40 -40c0 -35 -30 -41 -40 -41c-12 0 -41 5 -41 44c0 90 67 187 177 187c105 0 199 -68 199 -186c0 -99 -71 -167 -132 -225 c-85 -82 -155 -153 -191 -192h192c14 0 86 0 91 8c4 6 12 18 22 89h18z" id="3215"/></defs><g transform="scale(1.25)"><rect height="0.995" width="40.664" x="286.815" y="112.287"/><g transform="scale(0.02488,-0.02488)"><g transform="translate(11527.946,-4106.629)"><use xlink:href="#3215"/></g></g><g transform="scale(0.02488,-0.02488)"><g transform="translate(11985.946,-4106.629)"><use xlink:href="#6e18"/><use x="584" xlink:href="#1918"/></g><g transform="translate(11814.951,-5469.087)"><use xlink:href="#5718"/></g></g></g></svg>