<?xml version="1.0" standalone="no"?>
<!DOCTYPE svg PUBLIC "-//W3C//DTD SVG 1.1//EN" "http://www.w3.org/Graphics/SVG/1.1/DTD/svg11.dtd" >
<svg>
<metadata>
Created by FontForge 20060822 at Fri Oct  6 18:21:30 2006
 By Wojciech Mula,,,
Copyright (C) 1997 American Mathematical Society. All Rights Reserved
</metadata>
<defs>
<font id="CMBX9" horiz-adv-x="591" >
  <font-face 
    font-family="Computer Modern"
    font-weight="700"
    font-stretch="normal"
    units-per-em="1000"
    panose-1="2 0 8 3 0 0 0 0 0 0"
    ascent="750"
    descent="-250"
    x-height="444"
    cap-height="686"
    bbox="-58 -250 1195 750"
    underline-thickness="0"
    underline-position="0"
    stemh="49"
    stemv="117"
    unicode-range="U+0020-U+FB04"
  />
    <missing-glyph />
    <glyph glyph-name="ff" unicode="ff" horiz-adv-x="690" 
d="M547 395v-346h85v-49c-53 3 -111 3 -136 3c-48 0 -54 0 -128 -3v49h68v346h-216v-346h68v-49c-54 2 -80 3 -124 3c-43 0 -55 0 -123 -3v49h68v346h-77v49h77v98c0 118 145 158 274 158c21 0 79 0 122 -35c42 25 96 35 145 35c77 0 117 -44 117 -89c0 -40 -31 -64 -64 -64
c-29 0 -63 22 -63 64c0 16 5 30 16 43c2 2 2 3 2 4c0 2 -10 2 -13 2c-20 0 -104 -4 -104 -117v-99h126v-49h-120zM214 444h222v84c0 16 0 18 -5 22c-9 7 -21 23 -21 48c0 21 9 41 26 53c-25 8 -43 9 -61 9c-23 0 -75 -3 -116 -29c-45 -31 -45 -73 -45 -91v-96z" />
    <glyph glyph-name="fi" unicode="fi" horiz-adv-x="657" 
d="M368 449l179 5v-405h68v-49c-54 2 -80 3 -124 3c-43 0 -55 0 -123 -3v49h68v311c0 35 -5 35 -28 35h-188v-346h68v-49c-54 2 -80 3 -124 3c-43 0 -55 0 -123 -3v49h68v346h-77v49h77v98c0 118 146 158 276 158c113 0 157 -66 157 -118c0 -42 -30 -68 -67 -68
c-39 0 -67 28 -67 67c0 36 22 55 40 63c-29 16 -60 16 -71 16c-85 0 -163 -32 -163 -120v-96h154v5z" />
    <glyph glyph-name="fl" unicode="fl" horiz-adv-x="657" 
d="M547 694v-645h68v-49c-54 2 -80 3 -124 3c-43 0 -55 0 -123 -3v49h68v346h-216v-346h68v-49c-54 2 -80 3 -124 3c-43 0 -55 0 -123 -3v49h68v346h-77v49h77v98c0 115 137 158 275 158c20 0 45 0 79 -9c6 -2 7 -2 14 -2c3 0 5 0 8 1c5 0 53 3 62 4zM214 444h222v115
c-15 9 -26 26 -26 52c0 9 0 23 14 41c1 1 1 2 1 3c0 4 -43 5 -48 5c-18 0 -71 -1 -113 -26c-50 -31 -50 -75 -50 -94v-96z" />
    <glyph glyph-name="ffi" unicode="ffi" horiz-adv-x="986" 
d="M697 449l179 5v-405h68v-49c-54 2 -80 3 -124 3c-43 0 -55 0 -123 -3v49h68v311c0 35 -5 35 -28 35h-189v-346h68v-49c-54 2 -80 3 -124 3c-43 0 -55 0 -123 -3v49h68v346h-217v-346h68v-49c-54 2 -80 3 -124 3c-43 0 -55 0 -123 -3v49h68v346h-77v49h77v98
c0 121 151 158 273 158c23 0 80 0 125 -45c29 15 86 45 207 45c112 0 157 -65 157 -118c0 -42 -30 -68 -67 -68c-39 0 -67 28 -67 67c0 36 22 55 40 63c-30 16 -58 16 -71 16c-85 0 -164 -32 -164 -120v-96h155v5zM214 444h223v78c-20 11 -34 29 -34 59c0 40 26 57 41 63
c-29 16 -58 16 -70 16c-81 0 -160 -31 -160 -120v-96z" />
    <glyph glyph-name="ffl" unicode="ffl" horiz-adv-x="986" 
d="M876 694v-645h68v-49c-54 2 -80 3 -124 3c-43 0 -55 0 -123 -3v49h68v346h-217v-346h68v-49c-54 2 -80 3 -124 3c-43 0 -55 0 -123 -3v49h68v346h-217v-346h68v-49c-54 2 -80 3 -124 3c-43 0 -55 0 -123 -3v49h68v346h-77v49h77v98c0 119 148 158 274 158
c20 0 87 0 130 -41c49 25 109 41 199 41c20 0 46 0 80 -9c6 -2 7 -2 14 -2c3 0 5 0 8 1c5 0 53 3 62 4zM214 444h223v102c-18 12 -26 30 -26 52c0 26 11 43 26 52c-25 10 -47 10 -61 10s-70 0 -114 -28c-48 -31 -48 -73 -48 -92v-96zM765 444v115c-15 9 -26 26 -26 52
c0 9 0 23 14 41c1 1 1 2 1 3c0 4 -43 5 -48 5c-24 0 -75 -2 -116 -28c-48 -31 -48 -73 -48 -92v-96h223z" />
    <glyph glyph-name="Gamma" unicode="&#x393;" horiz-adv-x="710" 
d="M630 680l31 -243h-51c-15 114 -31 194 -194 194h-121v-582h135v-49c-41 3 -155 3 -202 3c-42 0 -151 0 -186 -3v49h108v582h-108v49h588z" />
    <glyph glyph-name="Delta" unicode="&#x394;" horiz-adv-x="986" 
d="M542 674l376 -645c7 -12 7 -14 7 -16c0 -13 -12 -13 -27 -13h-811c-15 0 -27 0 -27 13c0 2 0 4 7 16l377 647c14 24 30 24 48 24c22 0 35 0 50 -26zM443 556l-253 -432h505z" />
    <glyph glyph-name="Theta" unicode="&#x398;" horiz-adv-x="920" 
d="M853 339c0 -195 -136 -351 -394 -351c-253 0 -393 153 -393 351c0 197 134 359 394 359c253 0 393 -156 393 -359zM460 30c44 0 123 10 183 77c65 74 65 192 65 233c0 48 -3 142 -46 211c-55 87 -141 107 -203 107c-61 0 -146 -21 -199 -102c-44 -68 -49 -155 -49 -216
c0 -106 18 -174 63 -231c32 -39 95 -79 186 -79zM641 440v-192h-51v34h-261v-34h-51v192h51v-34h261v34h51z" />
    <glyph glyph-name="Lambda" unicode="&#x39b;" horiz-adv-x="827" 
d="M455 672l243 -623h86v-49c-41 3 -115 3 -159 3c-41 0 -142 0 -177 -3v49h95l-176 451l-166 -426c-4 -8 -4 -10 -5 -15c29 -10 68 -10 90 -10v-49c-42 2 -75 3 -131 3c-23 0 -62 0 -113 -3v49c16 0 37 0 55 2c31 4 32 5 39 21l235 601c9 23 17 27 42 27c31 0 34 -8 42 -28
z" />
    <glyph glyph-name="Xi" unicode="&#x39e;" horiz-adv-x="788" 
d="M723 674l9 -201h-51c-1 21 -2 66 -15 79c-7 7 -69 7 -81 7h-382c-16 0 -77 0 -83 -10c-8 -12 -11 -32 -13 -76h-51l9 201h658zM58 0l-9 212h51c2 -38 4 -71 14 -86c7 -11 71 -11 87 -11h386c4 0 77 0 86 9c11 12 13 52 15 88h51l-9 -212h-672zM624 451v-201h-51v43h-358
v-43h-51v201h51v-43h358v43h51z" />
    <glyph glyph-name="Pi" unicode="&#x3a0;" horiz-adv-x="924" 
d="M773 631v-582h108v-49c-35 3 -140 3 -181 3s-145 0 -180 -3v49h108v582h-333v-582h108v-49c-35 3 -140 3 -181 3s-145 0 -180 -3v49h108v582h-108v49h839v-49h-108z" />
    <glyph glyph-name="Sigma" unicode="&#x3a3;" horiz-adv-x="854" 
d="M493 322l-292 -254h271c138 0 244 18 265 194h51l-31 -262h-657c-14 0 -34 0 -34 20c0 9 5 13 14 21l286 250l-290 347c-9 11 -10 12 -10 23c0 25 15 25 34 25h657l31 -243h-51c-24 166 -108 194 -264 194h-207l229 -274c6 -8 10 -12 10 -20c0 -3 0 -11 -12 -21z" />
    <glyph glyph-name="Upsilon" unicode="&#x3a5;" horiz-adv-x="920" 
d="M532 345v-296h135v-49c-41 3 -160 3 -208 3s-166 0 -207 -3v49h135v296c0 48 -11 106 -35 151c-46 84 -107 84 -140 84c-48 0 -82 -4 -87 -28c-3 -16 -4 -23 -29 -23c-15 0 -30 0 -30 24c0 68 62 145 160 145c138 0 210 -130 233 -229h1c19 91 91 229 233 229
c98 0 160 -77 160 -145c0 -24 -15 -24 -30 -24c-12 0 -26 0 -29 18c-2 17 -5 33 -87 33c-33 0 -87 0 -132 -71c-36 -56 -43 -126 -43 -164z" />
    <glyph glyph-name="Phi" unicode="&#x3a6;" horiz-adv-x="854" 
d="M623 637h-135v-105c210 -13 300 -103 300 -189s-90 -176 -300 -189v-105h135v-49c-38 3 -157 3 -202 3s-163 0 -201 -3v49h135v106c-161 9 -289 82 -289 188c0 105 127 179 289 188v106h-135v49c38 -3 157 -3 202 -3s163 0 201 3v-49zM355 196v294
c-123 -15 -138 -84 -138 -147s15 -132 138 -147zM488 492v-298c138 14 149 90 149 149c0 58 -10 135 -149 149z" />
    <glyph glyph-name="Psi" unicode="&#x3a8;" horiz-adv-x="920" 
d="M520 637v-438c93 23 134 95 135 203c1 99 28 145 94 145h71c14 0 33 0 33 -20c0 -13 -11 -19 -16 -20c-17 -2 -27 -3 -39 -29c-9 -23 -10 -53 -10 -80c0 -23 -10 -114 -73 -170c-54 -48 -124 -68 -195 -73v-106h135v-49c-38 3 -157 3 -202 3s-163 0 -201 -3v49h135v106
c-211 20 -254 148 -256 267c0 6 -1 80 -44 85c-4 0 -21 2 -21 20c0 20 20 20 34 20h70c73 0 93 -64 94 -131c0 -61 4 -183 123 -215v436h-135v49c38 -3 157 -3 202 -3s163 0 201 3v-49h-135z" />
    <glyph glyph-name="Omega" unicode="&#x3a9;" horiz-adv-x="854" 
d="M801 202l-38 -202h-196c-22 0 -34 0 -34 29c0 71 32 163 46 204c28 82 52 152 52 224c0 99 -40 137 -56 153c-22 20 -71 48 -148 48c-35 0 -105 -5 -155 -56c-44 -44 -49 -108 -49 -145c0 -70 22 -138 52 -223c15 -45 46 -134 46 -206c0 -28 -12 -28 -33 -28h-197
l-38 202h51c8 -39 12 -62 18 -77c5 -10 9 -20 68 -20h71c-21 43 -38 65 -94 135c-52 64 -101 132 -101 217c0 108 92 241 361 241c268 0 361 -132 361 -241c0 -93 -59 -166 -118 -239c-43 -53 -60 -78 -77 -113h71c60 0 64 10 69 23c6 15 10 36 17 74h51z" />
    <glyph glyph-name="dotlessi" unicode="&#x131;" horiz-adv-x="328" 
d="M231 450v-401h61v-49c-56 2 -69 3 -118 3c-42 0 -55 -1 -122 -3v49h68v305c0 39 -7 39 -65 39v49z" />
    <glyph glyph-name="dotlessj" unicode="&#xf6be;" horiz-adv-x="361" 
d="M89 442l186 8v-489c0 -110 -100 -161 -186 -161c-78 0 -147 30 -147 94c0 39 29 65 65 65s65 -26 65 -65c0 -18 -6 -34 -18 -46c-1 -1 -2 -2 -2 -3c0 -3 28 -5 35 -5c58 0 77 65 77 120v393c0 40 -8 40 -75 40v49z" />
    <glyph glyph-name="grave" unicode="`" 
d="M225 682l121 -134l-31 -41l-157 80c-15 7 -38 20 -38 53c0 34 31 64 61 64c16 0 33 -9 44 -22z" />
    <glyph glyph-name="acute" unicode="&#xb4;" 
d="M433 587l-157 -80l-31 41c24 25 80 89 103 114c28 31 38 42 62 42c30 0 61 -30 61 -64c0 -33 -24 -46 -38 -53z" />
    <glyph glyph-name="caron" unicode="&#x2c7;" 
d="M296 603l136 52l22 -46l-159 -93l-158 93l22 46z" />
    <glyph glyph-name="breve" unicode="&#x2d8;" 
d="M440 694h40c-2 -114 -90 -188 -185 -188c-91 0 -182 71 -184 188h40c4 -87 84 -122 145 -122c57 0 140 33 144 122z" />
    <glyph glyph-name="macron" unicode="&#xaf;" 
d="M509 556h-427v55h427v-55z" />
    <glyph glyph-name="ring" unicode="&#x2da;" horiz-adv-x="892" 
d="M570 619c0 -37 -30 -83 -124 -83c-90 0 -124 43 -124 84c0 37 30 83 124 83c90 0 124 -43 124 -84zM446 576c47 0 73 3 73 44s-29 43 -73 43c-47 0 -73 -3 -73 -44s29 -43 73 -43z" />
    <glyph glyph-name="cedilla" unicode="&#xb8;" horiz-adv-x="525" 
d="M354 -12v-15c56 -10 98 -31 98 -83c0 -26 0 -92 -255 -92h-59v40h40c40 0 157 0 157 51c0 43 -57 50 -98 50v49h117z" />
    <glyph glyph-name="germandbls" unicode="&#xdf;" horiz-adv-x="616" 
d="M428 421c145 -63 155 -195 155 -241c0 -120 -98 -186 -217 -186c-78 0 -112 49 -112 88c0 34 25 53 52 53c29 0 52 -20 52 -52c0 -18 -7 -33 -22 -43c6 -3 13 -6 27 -6c98 0 98 112 98 145c0 91 -18 216 -159 225c-16 1 -16 15 -16 20c0 3 0 19 15 20c42 2 127 7 127 118
c0 33 -5 98 -102 98c-106 0 -106 -76 -106 -104v-556c-29 3 -38 3 -70 3c-29 0 -64 -1 -109 -3v49h68v346h-68v49h68v111c0 96 90 145 218 145c171 0 223 -79 223 -139c0 -27 -11 -101 -122 -140z" />
    <glyph glyph-name="ae" unicode="&#xe6;" horiz-adv-x="854" 
d="M788 215h-302c1 -41 6 -178 151 -178c67 0 115 35 132 79c5 14 8 20 26 20c6 0 26 0 26 -20s-45 -122 -190 -122c-73 0 -143 22 -191 64c-55 -62 -166 -64 -206 -64c-128 0 -196 42 -196 111c0 126 237 143 331 143v50c0 82 -44 115 -114 115c-38 0 -63 -4 -72 -6
c3 -3 20 -20 20 -49c0 -41 -31 -65 -65 -65c-31 0 -65 21 -65 66c0 94 136 94 185 94c35 0 124 0 187 -56c34 29 92 56 171 56c88 0 135 -33 158 -61c43 -52 47 -122 47 -148c0 -29 -11 -29 -33 -29zM486 251h237c-2 42 -6 162 -107 162c-126 0 -129 -137 -130 -162z
M369 211c-169 -6 -210 -63 -210 -105c0 -41 38 -72 90 -72c72 0 139 38 139 91c0 5 0 7 -3 14c-9 22 -14 47 -16 72z" />
    <glyph glyph-name="oe" unicode="&#x153;" horiz-adv-x="920" 
d="M853 215h-302c1 -41 6 -178 151 -178c67 0 115 35 132 79c5 14 8 20 26 20c6 0 26 0 26 -20s-45 -122 -190 -122c-122 0 -182 56 -203 75c-22 -23 -83 -75 -200 -75c-169 0 -260 104 -260 230c0 124 88 229 260 229c118 0 175 -50 199 -73c38 42 104 73 189 73
c88 0 135 -33 158 -61c43 -52 47 -122 47 -148c0 -29 -11 -29 -33 -29zM551 251h237c-2 42 -6 162 -107 162c-126 0 -129 -137 -130 -162zM293 34c39 0 86 15 113 56c26 39 28 93 28 139c0 55 0 184 -141 184c-139 0 -139 -127 -139 -184s0 -195 139 -195z" />
    <glyph glyph-name="oslash" unicode="&#xf8;" 
d="M516 531l-72 -113c103 -56 114 -156 114 -200c0 -119 -84 -224 -263 -224c-14 0 -60 0 -111 17l-76 -119l-33 22l72 113c-103 54 -114 149 -114 191c0 126 87 235 263 235c56 0 97 -13 112 -18l75 118zM180 80l200 312c-26 16 -58 21 -84 21c-146 0 -146 -119 -146 -194
c0 -58 1 -102 30 -139zM411 365l-200 -312c9 -5 39 -19 84 -19c146 0 146 110 146 185c0 49 0 107 -30 146z" />
    <glyph glyph-name="AE" unicode="&#xc6;" horiz-adv-x="1070" 
d="M1037 276l-47 -276h-576v49h81v257h-179l-106 -246c28 -11 61 -11 89 -11v-49c-45 2 -89 3 -134 3c-53 0 -66 -1 -122 -3v49h21c28 0 29 0 53 3c26 3 27 5 33 19l246 566h-75v49h652l31 -243h-51c-15 113 -31 194 -194 194h-128v-282h64c98 0 110 40 110 117h51v-283h-51
c0 77 -13 117 -110 117h-64v-257h132c183 0 201 101 223 227h51zM460 637l-122 -282h157v282h-35z" />
    <glyph glyph-name="OE" unicode="&#x152;" horiz-adv-x="1202" 
d="M1168 276l-47 -276h-454c-26 0 -71 -4 -92 -6c-46 -4 -66 -6 -97 -6c-253 0 -393 153 -393 351c0 201 138 359 393 359c32 0 59 -3 98 -6c66 -6 80 -6 91 -6h437l31 -243h-51c-15 117 -37 194 -199 194h-149v-257h93c90 0 123 25 123 117h51v-283h-51
c0 92 -32 117 -123 117h-93v-282h150c188 0 208 97 231 227h51zM610 197v292c0 149 -37 169 -127 169c-142 0 -247 -105 -247 -303c0 -201 97 -327 248 -327c90 0 126 22 126 169z" />
    <glyph glyph-name="Oslash" unicode="&#xd8;" horiz-adv-x="920" 
d="M758 722l-61 -85c136 -87 156 -224 156 -298c0 -195 -136 -351 -394 -351c-37 0 -113 2 -200 39l-63 -88l-35 25l60 84c-113 70 -155 186 -155 291c0 197 134 359 394 359c46 0 120 -5 199 -40l64 89zM265 109l357 498c-29 23 -83 51 -163 51c-68 0 -149 -22 -198 -89
c-48 -66 -50 -154 -50 -229c0 -90 5 -167 54 -231zM645 565l-349 -487c24 -18 77 -50 164 -50c81 0 166 30 209 103c37 63 39 138 39 209c0 41 -1 86 -9 126c-14 76 -45 107 -46 107c-2 0 -4 -2 -8 -8z" />
    <glyph glyph-name="suppress" horiz-adv-x="328" 
d="M333 354l-302 -77l-12 48l302 76z" />
    <glyph glyph-name="exclam" unicode="!" horiz-adv-x="360" 
d="M255 607l-49 -356c-3 -20 -3 -25 -27 -25c-18 0 -24 2 -27 25l-48 356c-3 21 -3 23 -3 27c0 46 40 72 79 72c35 0 78 -24 78 -72c0 -4 0 -6 -3 -27zM258 78c0 -41 -34 -78 -79 -78c-41 0 -78 33 -78 79c0 41 34 78 79 78c41 0 78 -33 78 -79z" />
    <glyph glyph-name="quotedblright" unicode="&#x201d;" horiz-adv-x="617" 
d="M171 556c-2 -2 -21 -19 -53 -19c-52 0 -79 39 -79 79c0 39 28 78 78 78c57 0 95 -55 95 -126c0 -140 -109 -225 -124 -225c-10 0 -22 12 -22 22c0 8 5 11 10 15c55 42 91 101 95 176zM427 556c-2 -2 -21 -19 -53 -19c-52 0 -79 39 -79 79c0 39 28 78 78 78
c57 0 95 -55 95 -126c0 -140 -109 -225 -124 -225c-10 0 -22 12 -22 22c0 8 5 11 10 15c55 42 91 101 95 176z" />
    <glyph glyph-name="numbersign" unicode="#" horiz-adv-x="986" 
d="M684 334l-52 -168h242c13 0 45 0 45 -32s-31 -32 -44 -32h-265l-85 -267c-4 -12 -9 -29 -32 -29c-17 0 -32 13 -32 32c0 3 2 11 4 19l78 245h-197l-85 -267c-4 -12 -9 -29 -32 -29c-17 0 -32 13 -32 32c0 3 2 11 4 19l78 245h-169c-13 0 -44 0 -44 32s32 32 45 32h190
l52 168h-242c-13 0 -45 0 -45 32s31 32 44 32h265l85 267c4 12 9 29 32 29c17 0 32 -13 32 -32c0 -3 -2 -11 -4 -19l-78 -245h197l85 267c4 12 9 29 32 29c17 0 32 -13 32 -32c0 -3 -2 -11 -4 -19l-78 -245h169c13 0 44 0 44 -32s-31 -32 -45 -32h-190zM420 334l-52 -168
h197l52 168h-197z" />
    <glyph glyph-name="dollar" unicode="$" 
d="M320 650v-220c51 -10 97 -22 148 -75c6 -6 57 -58 57 -144s-46 -202 -205 -216v-51h-49v51c-154 10 -205 109 -205 191c0 58 46 69 65 69c34 0 65 -25 65 -65c0 -27 -15 -63 -65 -65c30 -64 99 -77 140 -81v248c-43 9 -92 18 -143 64c-13 13 -62 62 -62 141
c0 98 64 192 205 202v51h49v-51c143 -8 205 -89 205 -177c0 -62 -52 -69 -65 -69c-31 0 -65 22 -65 65c0 28 16 61 62 65c-34 60 -116 65 -137 67zM271 440v210c-95 -9 -122 -65 -122 -104c0 -38 26 -88 122 -106zM320 282v-238c84 9 122 62 122 118c0 62 -52 108 -122 120z
" />
    <glyph glyph-name="percent" unicode="%" horiz-adv-x="986" 
d="M809 692l-583 -731c-10 -12 -20 -17 -30 -17c-17 0 -32 14 -32 32c0 11 6 19 13 28l494 619c-50 -17 -84 -19 -114 -19c-76 0 -140 23 -178 41c15 -40 15 -83 15 -97c0 -137 -72 -201 -152 -201c-85 0 -176 60 -176 202c0 136 87 201 176 201c44 0 69 -17 86 -30
c91 -63 174 -77 228 -77c126 0 186 70 208 95c6 7 16 12 25 12c17 0 32 -13 32 -32c0 -11 -3 -15 -12 -26zM245 387c34 0 98 30 98 162c0 126 -60 161 -98 161c-73 0 -73 -98 -73 -162c0 -62 0 -161 73 -161zM919 145c0 -137 -72 -201 -152 -201c-85 0 -176 60 -176 202
c0 136 87 201 176 201c77 0 152 -59 152 -202zM770 -16c34 0 98 30 98 162c0 126 -60 161 -98 161c-73 0 -73 -98 -73 -162c0 -62 0 -161 73 -161z" />
    <glyph glyph-name="ampersand" unicode="&#x26;" horiz-adv-x="920" 
d="M764 378l-30 -42c-100 -141 -116 -158 -189 -228c65 -58 110 -71 146 -71c17 0 106 6 111 80h51c-3 -85 -84 -129 -167 -129c-94 0 -176 37 -219 62c-73 -45 -139 -62 -203 -62c-118 0 -215 58 -215 151c0 58 38 89 65 112l105 85c-31 78 -42 136 -42 190
c0 121 105 180 185 180c81 0 116 -79 116 -134c0 -52 -46 -109 -148 -196c31 -65 72 -117 140 -192c8 -10 31 -33 40 -43c42 40 97 92 197 244c-24 10 -42 10 -68 10v49c61 -2 86 -3 120 -3s66 0 101 3v-49c-44 0 -84 0 -96 -17zM313 415c8 7 114 92 114 157
c0 29 -13 94 -64 94c-28 0 -79 -24 -79 -102c0 -74 26 -140 29 -149zM238 300c-43 -30 -56 -81 -56 -127c0 -41 15 -136 92 -136c71 0 126 29 150 42c-97 70 -162 173 -186 221z" />
    <glyph glyph-name="quoteright" unicode="&#x2019;" horiz-adv-x="328" 
d="M218 556c-2 -2 -21 -19 -53 -19c-52 0 -79 39 -79 79c0 39 28 78 78 78c57 0 95 -55 95 -126c0 -140 -109 -225 -124 -225c-10 0 -22 12 -22 22c0 8 5 11 10 15c55 42 91 101 95 176z" />
    <glyph glyph-name="parenleft" unicode="(" horiz-adv-x="460" 
d="M393 -234c0 -16 -16 -16 -20 -16c-22 0 -81 56 -89 63c-52 49 -174 196 -174 437c0 190 78 345 178 439c11 11 64 61 85 61c9 0 20 -3 20 -15c0 -6 -1 -7 -19 -24c-124 -120 -163 -294 -163 -461c0 -162 36 -340 167 -463c12 -12 15 -15 15 -21z" />
    <glyph glyph-name="parenright" unicode=")" horiz-adv-x="460" 
d="M349 250c0 -190 -78 -345 -178 -439c-11 -11 -64 -61 -85 -61c-8 0 -20 2 -20 16c0 5 1 6 19 23c124 120 163 294 163 461c0 187 -46 346 -168 464c-10 10 -14 14 -14 20c0 14 13 16 20 16c22 0 81 -56 89 -63c52 -49 174 -196 174 -437z" />
    <glyph glyph-name="asterisk" unicode="*" 
d="M317 493l22 -133c0 -2 2 -13 2 -14c0 -26 -24 -40 -45 -40c-24 0 -46 16 -46 40c0 2 0 6 2 15l22 132l-124 -91c-15 -11 -22 -11 -28 -11c-28 0 -46 27 -46 49c0 30 22 37 33 41l139 47l-140 47c-11 4 -32 12 -32 41c0 22 19 49 46 49c12 0 14 -2 28 -12l124 -90l-22 133
c0 2 -2 13 -2 14c0 26 24 40 45 40c24 0 46 -16 46 -40c0 -2 0 -6 -2 -15l-22 -132l124 91c15 11 22 11 28 11c28 0 46 -27 46 -49c0 -30 -22 -37 -33 -41l-139 -47l140 -47c11 -4 32 -12 32 -41c0 -22 -19 -49 -46 -49c-12 0 -14 2 -28 12z" />
    <glyph glyph-name="plus" unicode="+" horiz-adv-x="920" 
d="M492 218v-318c0 -13 0 -44 -32 -44s-32 31 -32 44v318h-318c-13 0 -44 0 -44 32s31 32 44 32h318v318c0 13 0 44 32 44s32 -31 32 -44v-318h317c13 0 44 0 44 -32s-31 -32 -44 -32h-317z" />
    <glyph glyph-name="comma" unicode="," horiz-adv-x="328" 
d="M215 17c-11 -9 -29 -17 -50 -17c-52 0 -79 39 -79 79c0 39 28 78 78 78c57 0 92 -57 92 -126c0 -139 -106 -225 -121 -225c-10 0 -22 12 -22 22c0 8 5 11 10 15c48 38 87 94 92 174z" />
    <glyph glyph-name="hyphen" unicode="-" horiz-adv-x="394" 
d="M327 172h-314v100h314v-100z" />
    <glyph glyph-name="period" unicode="." horiz-adv-x="328" 
d="M243 78c0 -41 -33 -78 -79 -78c-41 0 -78 33 -78 79c0 41 33 78 79 78c41 0 78 -33 78 -79z" />
    <glyph glyph-name="slash" unicode="/" 
d="M519 696l-388 -917c-6 -15 -12 -29 -33 -29c-17 0 -32 13 -32 32c0 2 0 8 6 22l388 917c6 15 12 29 33 29c17 0 32 -13 32 -32c0 -2 0 -8 -6 -22z" />
    <glyph glyph-name="zero" unicode="0" 
d="M545 319c0 -111 -6 -331 -250 -331c-246 0 -249 227 -249 331c0 110 6 337 250 337c246 0 249 -235 249 -337zM296 28c33 0 78 18 100 67c16 39 16 158 16 236c0 57 0 143 -8 191c-13 78 -76 94 -109 94c-26 0 -93 -11 -108 -91c-8 -47 -8 -131 -8 -194
c0 -55 0 -146 8 -199c13 -92 82 -104 109 -104z" />
    <glyph glyph-name="one" unicode="1" 
d="M364 623v-574h145v-49c-41 3 -159 3 -206 3c-45 0 -166 0 -204 -3v49h143v514c-56 -17 -110 -20 -134 -20h-20v49h20c20 0 127 0 204 57c9 7 11 7 23 7c29 0 29 -11 29 -33z" />
    <glyph glyph-name="two" unicode="2" 
d="M532 225l-31 -225h-442v19c0 20 0 21 11 32l223 220c53 54 96 120 96 192c0 83 -52 144 -134 144c-20 0 -65 -4 -100 -32c44 -12 53 -49 53 -71c0 -52 -42 -75 -74 -75c-35 0 -75 24 -75 76c0 92 97 151 221 151c145 0 252 -75 252 -192c0 -98 -77 -152 -161 -211
c-50 -35 -110 -82 -163 -125h143c17 0 91 0 104 5c15 7 24 78 26 92h51z" />
    <glyph glyph-name="three" unicode="3" 
d="M273 328h-47c-18 0 -29 0 -29 20c0 7 0 18 16 20c11 1 44 3 47 3c86 5 107 92 107 148c0 32 0 97 -87 97c-64 0 -105 -30 -113 -37c40 -9 59 -38 59 -71c0 -41 -29 -72 -72 -72c-40 0 -72 28 -72 73c0 81 80 147 203 147c149 0 224 -64 224 -139
c0 -61 -39 -130 -140 -165c113 -24 173 -93 173 -172c0 -92 -76 -192 -259 -192c-134 0 -234 60 -234 154c0 51 36 80 79 80c46 0 79 -32 79 -79c0 -23 -10 -62 -56 -75c46 -33 115 -35 127 -35c107 0 107 102 107 147c0 50 0 148 -112 148z" />
    <glyph glyph-name="four" unicode="4" 
d="M458 624v-420h100v-49h-100v-106h100v-49c-37 3 -126 3 -167 3s-141 0 -176 -3v49h115v106h-297v49l356 439c10 13 12 15 36 15c30 0 33 -5 33 -34zM342 515l-252 -311h252v311z" />
    <glyph glyph-name="five" unicode="5" 
d="M168 503v-127c42 26 85 34 131 34c152 0 233 -95 233 -209c0 -118 -95 -213 -266 -213c-126 0 -207 83 -207 170c0 53 39 72 70 72c32 0 69 -21 69 -70c0 -36 -22 -65 -64 -69c25 -32 73 -58 128 -58c125 0 125 99 125 171c0 79 0 166 -93 166c-39 0 -94 -8 -135 -55
c-11 -13 -13 -14 -26 -14c-24 0 -24 14 -24 32v295c0 15 0 28 15 28c2 0 4 0 17 -5c43 -15 94 -27 156 -27c52 0 107 9 158 27c11 5 13 5 15 5c16 0 16 -16 16 -20c0 -26 -58 -75 -80 -89c-75 -50 -139 -50 -167 -50c-21 0 -37 0 -71 6z" />
    <glyph glyph-name="six" unicode="6" 
d="M190 361v-17c16 30 54 76 118 76c62 0 114 -10 165 -54c59 -52 69 -107 69 -161c0 -135 -100 -217 -242 -217c-91 0 -161 35 -205 111c-43 72 -46 169 -46 218c0 248 165 339 310 339c112 0 153 -65 153 -127c0 -50 -38 -67 -65 -67c-33 0 -65 23 -65 65
c0 25 13 55 53 64c-24 23 -56 25 -74 25c-54 0 -107 -27 -136 -73c-10 -17 -35 -57 -35 -182zM298 33c103 0 103 73 103 174c0 100 0 172 -96 172c-70 0 -113 -65 -113 -169c0 -3 0 -83 13 -115c7 -17 34 -62 93 -62z" />
    <glyph glyph-name="seven" unicode="7" 
d="M565 595l-160 -180c-65 -73 -77 -194 -77 -323c0 -57 0 -62 -15 -83c-5 -5 -23 -21 -50 -21c-10 0 -65 2 -65 72c0 68 18 182 100 306c21 31 21 33 123 150h-166c-20 0 -96 0 -111 -6c-1 0 -16 -6 -27 -91h-51l35 257h51c2 -11 3 -18 23 -23c11 -3 151 -9 172 -9h228v-29
c0 -3 -1 -9 -10 -20z" />
    <glyph glyph-name="eight" unicode="8" 
d="M407 370c53 -30 135 -77 135 -183c0 -114 -86 -199 -248 -199c-133 0 -245 49 -245 173c0 101 75 141 128 169c-66 37 -95 95 -95 149c0 98 72 177 216 177c127 0 211 -51 211 -147c0 -56 -30 -104 -102 -139zM203 480l155 -83c41 22 73 59 73 111c0 66 -49 108 -138 108
c-55 0 -133 -11 -133 -77c0 -35 38 -56 43 -59zM229 301c-71 -41 -90 -93 -90 -139c0 -88 69 -129 158 -129c38 0 155 6 155 99c0 48 -36 67 -90 97c-18 10 -98 54 -133 72z" />
    <glyph glyph-name="nine" unicode="9" 
d="M401 283v18c-31 -54 -74 -76 -118 -76c-149 0 -234 90 -234 215c0 136 104 216 248 216c99 0 157 -44 191 -93c51 -78 54 -182 54 -234c0 -252 -157 -341 -296 -341c-116 0 -167 59 -167 127c0 50 38 67 65 67c33 0 65 -23 65 -65c0 -26 -13 -52 -47 -63
c31 -21 74 -21 82 -21c78 0 118 53 131 79c19 42 26 105 26 171zM286 266c96 0 114 117 114 163c0 34 0 89 -12 122c-3 9 -26 65 -89 65c-109 0 -109 -81 -109 -178c0 -99 0 -172 96 -172z" />
    <glyph glyph-name="colon" unicode=":" horiz-adv-x="328" 
d="M243 365c0 -43 -35 -78 -78 -78c-44 0 -79 35 -79 79c0 41 33 78 79 78c41 0 78 -33 78 -79zM243 78c0 -41 -33 -78 -79 -78c-41 0 -78 33 -78 79c0 41 33 78 79 78c41 0 78 -33 78 -79z" />
    <glyph glyph-name="semicolon" unicode=";" horiz-adv-x="328" 
d="M243 365c0 -43 -35 -78 -78 -78c-44 0 -79 35 -79 79c0 41 33 78 79 78c41 0 78 -33 78 -79zM205 10c-10 -6 -25 -10 -40 -10c-52 0 -79 39 -79 79c0 39 28 78 78 78c54 0 82 -55 82 -125c0 -136 -96 -226 -111 -226c-10 0 -22 12 -22 22c0 4 3 9 6 12
c19 18 77 71 86 170z" />
    <glyph glyph-name="exclamdown" unicode="&#xa1;" horiz-adv-x="360" 
d="M258 421c0 -41 -34 -78 -79 -78c-41 0 -78 33 -78 79c0 41 34 78 79 78c41 0 78 -33 78 -79zM104 -107l49 356c3 20 3 25 27 25c18 0 24 -2 27 -25l48 -356c3 -21 3 -23 3 -27c0 -46 -40 -72 -79 -72c-35 0 -78 24 -78 72c0 4 0 6 3 27z" />
    <glyph glyph-name="equal" unicode="=" horiz-adv-x="920" 
d="M808 334h-697c-13 0 -45 0 -45 32s31 32 44 32h699c13 0 44 0 44 -32s-31 -32 -45 -32zM809 102h-699c-13 0 -44 0 -44 32s32 32 45 32h697c13 0 45 0 45 -32s-31 -32 -44 -32z" />
    <glyph glyph-name="questiondown" unicode="&#xbf;" horiz-adv-x="558" 
d="M341 421c0 -41 -34 -78 -79 -78c-41 0 -78 33 -78 79c0 41 34 78 79 78c41 0 78 -33 78 -79zM237 220v24c0 22 0 30 25 30c26 0 26 -3 26 -47c0 -38 0 -127 -67 -222c-15 -20 -22 -30 -22 -84c0 -59 1 -81 69 -81c11 0 85 0 135 28c-10 4 -41 20 -41 62s34 65 65 65
c24 0 65 -16 65 -67c0 -80 -81 -128 -230 -128c-39 0 -196 0 -196 130c0 30 10 70 55 99c77 52 116 115 116 191z" />
    <glyph glyph-name="question" unicode="?" horiz-adv-x="558" 
d="M288 279v-23c0 -22 0 -30 -25 -30c-26 0 -26 3 -26 45c0 38 0 133 90 223c21 21 32 33 32 83c0 48 -2 83 -95 83c-18 0 -70 -1 -110 -28c17 -6 42 -24 42 -62c0 -42 -34 -65 -65 -65c-24 0 -65 16 -65 67c0 64 60 128 204 128c38 0 222 0 222 -130c0 -32 -15 -72 -63 -99
c-97 -54 -141 -114 -141 -192zM341 78c0 -41 -34 -78 -79 -78c-41 0 -78 33 -78 79c0 41 34 78 79 78c41 0 78 -33 78 -79z" />
    <glyph glyph-name="at" unicode="@" horiz-adv-x="920" 
d="M695 453v-229c0 -12 0 -57 32 -57c58 0 75 79 75 174c0 209 -146 319 -343 319c-218 0 -342 -133 -342 -313c0 -163 105 -313 346 -313c72 0 178 10 295 53c22 9 24 9 39 9h27c15 0 29 0 29 -16c0 -6 -4 -10 -6 -12c-5 -3 -26 -10 -40 -15c-100 -35 -221 -59 -343 -59
c-280 0 -398 175 -398 353c0 194 136 353 394 353c246 0 393 -148 393 -355c0 -38 -4 -218 -136 -218c-18 0 -91 0 -125 45c-21 -17 -67 -45 -134 -45c-141 0 -234 89 -234 220s93 220 234 220c52 0 120 -15 167 -84h38c31 0 32 -4 32 -30zM578 226v242
c-39 53 -95 59 -117 59c-62 0 -120 -53 -120 -180c0 -126 58 -180 120 -180c23 0 79 6 117 59z" />
    <glyph glyph-name="A" unicode="A" horiz-adv-x="892" 
d="M490 673l262 -624h97v-49c-38 3 -123 3 -165 3c-41 0 -142 0 -177 -3v49h94l-60 143h-277l-55 -132c28 -11 62 -11 89 -11v-49c-62 3 -94 3 -133 3c-53 0 -66 -1 -122 -3v49h21c17 0 36 1 53 3c25 3 25 4 32 20l253 601c11 27 26 27 44 27s33 0 44 -27zM403 521
l-118 -280h235z" />
    <glyph glyph-name="B" unicode="B" horiz-adv-x="840" 
d="M150 637h-108v49h444c165 0 255 -80 255 -172c0 -74 -64 -136 -174 -155c133 -15 207 -86 207 -173c0 -97 -86 -186 -257 -186h-475v49h108v588zM283 377h164c100 0 149 64 149 137c0 20 -4 123 -123 123h-190v-260zM283 49h192c108 0 148 70 148 139c0 32 -6 73 -35 109
c-34 40 -87 40 -103 40h-202v-288z" />
    <glyph glyph-name="C" unicode="C" horiz-adv-x="854" 
d="M788 669v-216c0 -27 -3 -29 -30 -29c-15 0 -27 0 -29 13c-26 159 -142 212 -230 212c-83 0 -164 -27 -211 -80c-41 -46 -65 -106 -65 -226c0 -68 7 -161 60 -221c67 -74 164 -85 218 -85c95 0 228 52 236 197c1 16 14 16 25 16c16 0 26 0 26 -22
c0 -120 -121 -240 -309 -240c-265 0 -413 157 -413 355c0 203 154 355 412 355c73 0 146 -22 203 -68l66 58c9 8 11 10 21 10c20 0 20 -11 20 -29z" />
    <glyph glyph-name="D" unicode="D" horiz-adv-x="906" 
d="M150 637h-108v49h441c210 0 357 -136 357 -348c0 -217 -157 -338 -356 -338h-442v49h108v588zM289 49h153c247 0 247 192 247 289c0 92 -7 163 -51 219c-44 55 -118 80 -197 80h-152v-588z" />
    <glyph glyph-name="E" unicode="E" horiz-adv-x="776" 
d="M743 276l-47 -276h-654v49h108v582h-108v49h637l31 -243h-51c-16 125 -47 194 -206 194h-158v-254h58c99 0 108 44 108 117h51v-283h-51c0 73 -10 117 -108 117h-58v-279h159c194 0 216 99 238 227h51z" />
    <glyph glyph-name="F" unicode="F" horiz-adv-x="743" 
d="M663 680l31 -243h-51c-15 119 -40 194 -201 194h-147v-266h54c97 0 106 43 106 117h51v-283h-51c0 74 -9 117 -106 117h-54v-267h135v-49c-41 3 -155 3 -202 3c-42 0 -151 0 -186 -3v49h108v582h-108v49h621z" />
    <glyph glyph-name="G" unicode="G" horiz-adv-x="929" 
d="M788 228v-199c0 -14 0 -29 -15 -29c-8 0 -69 28 -97 49c-52 -58 -150 -61 -196 -61c-270 0 -414 161 -414 355c0 203 154 355 412 355c73 0 146 -22 203 -68l66 58c9 8 11 10 21 10c20 0 20 -11 20 -29v-216c0 -27 -3 -29 -30 -29c-15 0 -27 0 -29 13
c-26 159 -142 212 -230 212c-43 0 -139 -7 -207 -75c-60 -61 -69 -155 -69 -230c0 -43 1 -154 60 -220c70 -77 170 -87 224 -87c33 0 67 6 93 19c43 22 43 51 43 72v100h-148v49c44 -3 156 -3 206 -3c43 0 130 0 169 3v-49h-82z" />
    <glyph glyph-name="H" unicode="H" horiz-adv-x="924" 
d="M773 637v-588h108v-49c-35 3 -140 3 -181 3s-145 0 -180 -3v49h108v283h-333v-283h108v-49c-35 3 -140 3 -181 3s-145 0 -180 -3v49h108v588h-108v49c35 -3 140 -3 181 -3s145 0 180 3v-49h-108v-256h333v256h-108v49c35 -3 140 -3 181 -3s145 0 180 3v-49h-108z" />
    <glyph glyph-name="I" unicode="I" horiz-adv-x="446" 
d="M295 637v-588h113v-49c-35 3 -144 3 -186 3s-150 0 -185 -3v49h113v588h-113v49c35 -3 144 -3 186 -3s150 0 185 3v-49h-113z" />
    <glyph glyph-name="J" unicode="J" horiz-adv-x="610" 
d="M460 637v-487c0 -102 -94 -162 -237 -162c-124 0 -200 51 -200 125c0 52 38 80 79 80c43 0 79 -30 79 -79c0 -23 -10 -54 -43 -71c28 -11 61 -15 81 -15c62 0 102 38 102 121v488h-140v49c38 -3 152 -3 197 -3c44 0 122 0 163 3v-49h-81z" />
    <glyph glyph-name="K" unicode="K" horiz-adv-x="925" 
d="M500 419l279 -351c11 -14 15 -19 68 -19h29v-49c-63 3 -136 3 -151 3c-42 0 -137 0 -174 -3v49c25 0 70 0 70 11c0 1 -6 8 -7 9l-214 270l-105 -85v-205h108v-49c-35 3 -140 3 -181 3s-145 0 -180 -3v49h108v588h-108v49c35 -3 140 -3 181 -3s145 0 180 3v-49h-108v-317
l379 306c-3 1 1 2 -8 4c-9 3 -32 7 -59 7v49c37 -3 104 -3 144 -3c13 0 69 0 108 3v-49h-17c-33 0 -72 0 -94 -18z" />
    <glyph glyph-name="L" unicode="L" horiz-adv-x="710" 
d="M661 276l-31 -276h-588v49h108v588h-108v49c35 -3 145 -3 187 -3c47 0 160 0 201 3v-49h-135v-588h107c183 0 200 158 208 227h51z" />
    <glyph glyph-name="M" unicode="M" horiz-adv-x="1121" 
d="M561 131l246 530c12 25 25 25 46 25h223v-49h-108v-588h108v-49c-35 3 -132 3 -172 3s-136 0 -171 -3v49h108v587h-1l-283 -610c-5 -10 -12 -26 -35 -26c-22 0 -30 17 -34 26l-277 597h-1v-545c0 -22 1 -23 29 -26c24 -3 26 -3 53 -3h26v-49c-66 3 -93 3 -137 3
c-43 0 -71 0 -136 -3v49h26c27 0 29 0 53 3c28 3 29 4 29 26v559h-108v49h224c21 0 35 0 47 -26z" />
    <glyph glyph-name="N" unicode="N" horiz-adv-x="924" 
d="M307 673l409 -467v402c0 22 -1 23 -29 26c-24 3 -26 3 -53 3h-26v49c66 -3 93 -3 137 -3c43 0 71 0 136 3v-49h-26c-27 0 -29 0 -53 -3c-28 -3 -29 -4 -29 -26v-575c0 -22 0 -33 -29 -33c-14 0 -18 0 -29 13l-508 580v-515c0 -22 1 -23 29 -26c24 -3 26 -3 53 -3h26v-49
c-66 3 -93 3 -137 3c-43 0 -71 0 -136 -3v49h26c27 0 29 0 53 3c28 3 29 4 29 26v559h-108v49h231c21 0 23 0 34 -13z" />
    <glyph glyph-name="O" unicode="O" horiz-adv-x="888" 
d="M822 339c0 -203 -139 -351 -378 -351s-378 149 -378 351c0 208 140 359 378 359c237 0 378 -150 378 -359zM444 34c73 0 144 37 181 106c31 61 40 125 40 214c0 70 -4 156 -53 221c-39 53 -102 80 -168 80c-80 0 -137 -40 -163 -73c-49 -64 -58 -139 -58 -228
c0 -66 4 -154 45 -222c43 -71 114 -98 176 -98z" />
    <glyph glyph-name="P" unicode="P" horiz-adv-x="808" 
d="M295 299v-250h108v-49c-35 3 -140 3 -181 3s-145 0 -180 -3v49h108v588h-108v49h427c171 0 272 -86 272 -196c0 -118 -119 -191 -262 -191h-184zM431 637h-142v-294h141c154 0 154 77 154 147c0 71 0 147 -153 147z" />
    <glyph glyph-name="Q" unicode="Q" horiz-adv-x="888" 
d="M612 17c40 -51 61 -54 92 -54c27 0 81 3 85 36c1 5 3 21 20 21c20 0 20 -20 20 -27c0 -73 -40 -187 -142 -187c-95 0 -116 80 -146 191c-47 -9 -85 -9 -97 -9c-239 0 -378 149 -378 351c0 208 140 359 378 359c237 0 378 -150 378 -359c0 -136 -65 -265 -210 -322z
M344 54c-1 5 -2 8 -2 19c0 53 51 84 102 84c68 0 108 -56 129 -86c98 66 98 216 98 269c0 87 -10 162 -50 223c-39 61 -108 92 -177 92c-71 0 -132 -33 -166 -77c-48 -63 -61 -139 -61 -238c0 -89 8 -228 127 -286zM526 46c-22 62 -56 71 -82 71c-31 0 -62 -16 -62 -44
c0 -12 10 -42 62 -42c12 0 42 0 82 15z" />
    <glyph glyph-name="R" unicode="R" horiz-adv-x="886" 
d="M571 339c99 -37 106 -91 117 -165c12 -86 20 -146 80 -146c28 0 59 20 64 69c1 10 2 24 25 24c11 0 26 -2 26 -24s-17 -109 -124 -109c-55 0 -118 7 -162 32c-60 35 -60 82 -60 145c0 67 0 91 -28 119c-29 30 -56 39 -97 39h-123v-274h108v-49c-36 3 -137 3 -178 3
s-141 0 -177 -3v49h108v588h-108v49h389c189 0 307 -81 307 -186c0 -84 -82 -137 -167 -161zM413 363c166 0 168 80 168 137c0 60 -3 137 -166 137h-126v-274h124z" />
    <glyph glyph-name="S" unicode="S" horiz-adv-x="657" 
d="M269 445l145 -31c95 -20 176 -103 176 -211c0 -103 -64 -215 -233 -215c-55 0 -144 10 -205 54c-19 -16 -41 -41 -47 -45c-9 -9 -11 -9 -19 -9c-20 0 -20 11 -20 29v181c0 24 0 30 26 30c24 0 24 -6 25 -24c8 -156 179 -167 239 -167c129 0 135 96 135 116
c0 44 -26 71 -27 73c-33 34 -50 37 -109 49c-15 4 -31 7 -47 10c-104 22 -137 29 -192 84c-9 10 -50 56 -50 128c0 100 70 201 230 201c54 0 119 -11 175 -55l44 43c12 11 13 12 22 12c20 0 20 -11 20 -29v-182c0 -24 -1 -29 -26 -29c-23 0 -23 5 -26 21
c-11 66 -50 174 -208 174c-101 0 -132 -58 -132 -105c0 -14 3 -81 104 -103z" />
    <glyph glyph-name="T" unicode="T" horiz-adv-x="823" 
d="M757 674l22 -243h-51c-10 109 -18 194 -165 194h-79v-576h153v-49c-44 3 -173 3 -225 3s-182 0 -226 -3v49h153v576h-79c-147 0 -156 -83 -166 -194h-51l22 243h692z" />
    <glyph glyph-name="U" unicode="U" horiz-adv-x="908" 
d="M758 608v-378c0 -126 -89 -242 -285 -242c-213 0 -323 111 -323 243v406h-108v49c35 -3 140 -3 181 -3s145 0 180 3v-49h-108v-413c0 -54 2 -187 182 -187c122 0 222 58 222 195v376c0 22 -1 23 -29 26c-24 3 -26 3 -53 3h-26v49c67 -3 98 -3 138 -3c46 0 75 0 137 3v-49
h-26c-27 0 -29 0 -53 -3c-28 -3 -29 -4 -29 -26z" />
    <glyph glyph-name="V" unicode="V" horiz-adv-x="892" 
d="M762 615l-271 -597c-12 -27 -26 -27 -45 -27s-33 0 -45 27l-281 619h-92v49c39 -3 119 -3 161 -3c41 0 141 0 176 3v-49h-92l217 -478l212 467c-26 11 -61 11 -87 11v49c52 -2 76 -3 132 -3c40 0 63 0 117 3v-49h-18c-74 0 -78 -9 -84 -22z" />
    <glyph glyph-name="W" unicode="W" horiz-adv-x="1221" 
d="M1101 614l-241 -609c-6 -11 -20 -14 -33 -14c-27 0 -32 12 -38 28l-179 451l-178 -451c-6 -16 -11 -28 -38 -28s-31 11 -38 28l-245 618h-85v49c45 -3 109 -3 156 -3c41 0 139 0 174 3v-49h-95l180 -457l142 359l-39 98h-85v49c45 -3 109 -3 156 -3c41 0 139 0 174 3v-49
h-95l180 -457l176 446c-29 11 -75 11 -101 11v49c44 -3 91 -3 135 -3c26 0 62 0 111 3v-49c-20 0 -36 0 -55 -2c-31 -3 -32 -4 -39 -21z" />
    <glyph glyph-name="X" unicode="X" horiz-adv-x="892" 
d="M499 394l259 -345h98v-49c-37 3 -125 3 -166 3c-42 0 -144 0 -180 -3v49h81l-177 237l-167 -215c-2 -3 -7 -9 -8 -11c32 -11 73 -11 89 -11v-49c-38 3 -112 3 -153 3c-57 0 -65 0 -138 -3v49h29c22 0 56 3 60 3c25 3 34 3 44 16l207 267l-226 302h-98v49
c37 -3 123 -3 165 -3c41 0 145 0 180 3v-49h-81l145 -194l134 172c6 6 6 8 8 11c-33 11 -73 11 -89 11v49c37 -3 112 -3 152 -3c51 0 59 0 138 3v-49h-28c-28 0 -34 0 -58 -3c-36 -3 -37 -5 -47 -18z" />
    <glyph glyph-name="Y" unicode="Y" horiz-adv-x="892" 
d="M758 617l-243 -343v-225h108v-49c-36 3 -137 3 -178 3s-141 0 -177 -3v49h108v225l-257 363h-97v49c37 -3 127 -3 168 -3c42 0 147 0 183 3v-49h-83l205 -290l190 267l7 13c-26 10 -50 10 -74 10v49c58 -2 84 -3 133 -3c51 0 70 1 119 3v-49h-21c-17 0 -35 -1 -52 -3
c-22 -3 -29 -3 -39 -17z" />
    <glyph glyph-name="Z" unicode="Z" horiz-adv-x="723" 
d="M647 633l-409 -580h142c197 0 223 107 232 233h51l-19 -286h-544c-22 0 -34 0 -34 28c0 9 0 15 8 26l411 583h-132c-110 0 -211 -34 -220 -194h-51l13 243h527c21 0 34 0 34 -26c0 -8 0 -14 -9 -27z" />
    <glyph glyph-name="bracketleft" unicode="[" horiz-adv-x="328" 
d="M302 -250h-171v1000h171v-64h-107v-872h107v-64z" />
    <glyph glyph-name="quotedblleft" unicode="&#x201c;" horiz-adv-x="617" 
d="M190 481c2 2 21 19 53 19c52 0 79 -39 79 -79c0 -39 -28 -78 -78 -78c-57 0 -95 55 -95 126c0 140 109 225 124 225c10 0 22 -12 22 -22c0 -8 -5 -11 -10 -15c-55 -42 -91 -101 -95 -176zM446 481c2 2 21 19 53 19c52 0 79 -39 79 -79c0 -39 -28 -78 -78 -78
c-57 0 -95 55 -95 126c0 140 109 225 124 225c10 0 22 -12 22 -22c0 -8 -5 -11 -10 -15c-55 -42 -91 -101 -95 -176z" />
    <glyph glyph-name="bracketright" unicode="]" horiz-adv-x="328" 
d="M197 750v-1000h-171v64h107v872h-107v64h171z" />
    <glyph glyph-name="circumflex" unicode="&#x2c6;" 
d="M296 694l162 -126l-30 -41l-133 80l-132 -80l-30 41z" />
    <glyph glyph-name="dotaccent" unicode="&#x2d9;" horiz-adv-x="328" 
d="M242 616c0 -44 -36 -78 -78 -78c-40 0 -78 32 -78 79c0 44 36 78 78 78c40 0 78 -32 78 -79z" />
    <glyph glyph-name="quoteleft" unicode="&#x2018;" horiz-adv-x="328" 
d="M111 481c2 2 21 19 53 19c52 0 79 -39 79 -79c0 -39 -28 -78 -78 -78c-57 0 -95 55 -95 126c0 140 109 225 124 225c10 0 22 -12 22 -22c0 -8 -5 -11 -10 -15c-55 -42 -91 -101 -95 -176z" />
    <glyph glyph-name="a" unicode="a" horiz-adv-x="575" 
d="M484 298v-214c0 -24 0 -34 64 -35c10 0 26 0 26 -24c0 -25 -14 -25 -33 -25h-49c-107 0 -107 48 -107 74c-27 -47 -79 -80 -155 -80c-72 0 -197 19 -197 118c0 111 168 154 334 154v32c0 79 -41 115 -113 115c-37 0 -61 -4 -71 -6c3 -3 20 -20 20 -49
c0 -41 -31 -65 -65 -65c-31 0 -65 21 -65 66c0 92 128 94 185 94c154 0 226 -67 226 -155zM367 139v93c-195 -9 -213 -87 -213 -120c0 -45 42 -78 93 -78c4 0 120 0 120 105z" />
    <glyph glyph-name="b" unicode="b" horiz-adv-x="657" 
d="M220 694v-292c19 14 72 48 152 48c148 0 245 -93 245 -228c0 -134 -102 -228 -258 -228c-71 0 -120 31 -152 63l-47 -57h-51v598c0 39 -8 39 -68 39v49zM226 346v-242c21 -32 61 -70 123 -70c20 0 81 4 114 60c21 36 21 88 21 130c0 66 0 186 -124 186
c-61 0 -109 -32 -134 -64z" />
    <glyph glyph-name="c" unicode="c" horiz-adv-x="525" 
d="M492 116c0 -3 -12 -55 -69 -90c-42 -26 -91 -32 -128 -32c-166 0 -256 102 -256 228c0 109 69 231 261 231c39 0 179 0 179 -94c0 -45 -34 -66 -65 -66c-34 0 -65 24 -65 65c0 14 4 30 13 41c1 1 3 4 3 5c0 5 -54 6 -61 6c-131 0 -132 -124 -132 -184
c0 -45 0 -189 142 -189c59 0 104 28 124 76c8 18 8 19 28 19c11 0 26 0 26 -16z" />
    <glyph glyph-name="d" unicode="d" horiz-adv-x="657" 
d="M368 686l179 8v-606c0 -39 8 -39 68 -39v-49l-185 -6v50c-32 -26 -82 -50 -145 -50c-152 0 -246 95 -246 228c0 129 95 228 258 228c48 0 95 -13 139 -45v193c0 39 -8 39 -68 39v49zM430 109v240c-31 39 -72 61 -122 61c-35 0 -83 -12 -109 -52c-26 -37 -27 -80 -27 -138
c0 -66 0 -186 124 -186c64 0 112 40 134 75z" />
    <glyph glyph-name="e" unicode="e" horiz-adv-x="542" 
d="M476 215h-310c0 -49 2 -178 144 -178c63 0 124 27 147 79c6 14 8 20 26 20c6 0 26 0 26 -20c0 -16 -42 -122 -207 -122c-170 0 -269 100 -269 231c0 120 84 228 255 228c49 0 109 -9 154 -46c65 -54 67 -142 67 -164c0 -28 -12 -28 -33 -28zM166 251h245
c-2 40 -6 162 -123 162c-115 0 -120 -116 -122 -162z" />
    <glyph glyph-name="f" unicode="f" horiz-adv-x="361" 
d="M232 395v-346h85v-49c-53 3 -111 3 -136 3c-48 0 -54 0 -128 -3v49h68v346h-77v49h77v99c0 112 108 157 213 157c78 0 117 -44 117 -89c0 -40 -31 -64 -64 -64c-29 0 -63 22 -63 64c0 16 5 30 16 43c2 2 2 3 2 4c0 2 -10 2 -13 2c-25 0 -103 -8 -103 -117v-99h125v-49
h-119z" />
    <glyph glyph-name="g" unicode="g" 
d="M216 85h50c99 0 152 0 210 -26c69 -32 82 -94 82 -129c0 -76 -88 -131 -263 -131c-193 0 -262 68 -262 128c0 22 10 65 86 86c-21 19 -42 53 -42 96c0 30 12 64 33 87c-18 15 -52 51 -52 106c0 65 52 148 205 148c48 0 94 -7 136 -32c19 14 61 38 110 38
c46 0 66 -35 66 -61c0 -30 -23 -46 -45 -46c-24 0 -45 18 -45 45c0 10 2 16 3 20c-13 -2 -33 -4 -60 -18c21 -21 40 -54 40 -95c0 -65 -52 -148 -205 -148c-44 0 -88 7 -125 26c-1 -1 -8 -11 -8 -31s8 -37 23 -50c17 -13 31 -13 63 -13zM263 193c90 0 90 64 90 109
c0 44 0 108 -90 108s-90 -64 -90 -109c0 -44 0 -108 90 -108zM322 -14h-121c-15 0 -79 0 -79 -58c0 -39 42 -89 174 -89c136 0 173 55 173 87c0 60 -116 60 -147 60z" />
    <glyph glyph-name="h" unicode="h" horiz-adv-x="657" 
d="M562 305v-256h68v-49c-76 3 -86 3 -127 3c-40 0 -52 0 -126 -3v49h68v265c0 75 -20 96 -58 96c-60 0 -152 -44 -152 -156v-205h68v-49c-76 3 -86 3 -127 3c-40 0 -52 0 -126 -3v49h68v549c0 39 -8 39 -68 39v49l179 8v-339c26 41 79 95 174 95c87 0 159 -26 159 -145z
" />
    <glyph glyph-name="i" unicode="i" horiz-adv-x="328" 
d="M240 616c0 -48 -40 -78 -78 -78c-45 0 -79 37 -79 79c0 39 33 78 79 78c36 0 78 -27 78 -79zM55 442l176 8v-401h61v-49c-56 2 -69 3 -118 3c-42 0 -55 -1 -122 -3v49h68v305c0 39 -7 39 -65 39v49z" />
    <glyph glyph-name="j" unicode="j" horiz-adv-x="361" 
d="M275 616c0 -41 -34 -78 -79 -78c-41 0 -78 33 -78 79c0 41 34 78 79 78c41 0 78 -33 78 -79zM89 442l186 8v-489c0 -110 -100 -161 -186 -161c-78 0 -147 30 -147 94c0 39 29 65 65 65s65 -26 65 -65c0 -18 -6 -34 -18 -46c-1 -1 -2 -2 -2 -3c0 -3 28 -5 35 -5
c58 0 77 65 77 120v393c0 40 -8 40 -75 40v49z" />
    <glyph glyph-name="k" unicode="k" horiz-adv-x="624" 
d="M354 276l176 -208c9 -11 13 -15 28 -18c11 -1 31 -1 47 -1v-49c-40 3 -67 3 -106 3c-34 0 -61 -1 -120 -3v49c11 0 27 0 27 9c0 5 -128 153 -131 157l-61 -45v-121h68v-49c-67 3 -78 3 -121 3c-42 0 -57 -1 -120 -3v49h68v549c0 39 -8 39 -68 39v49l179 8v-456l192 146
c-6 8 -9 11 -28 11v49c47 -2 86 -3 112 -3c21 0 50 0 82 3v-49c-65 0 -75 -8 -88 -17z" />
    <glyph glyph-name="l" unicode="l" horiz-adv-x="328" 
d="M231 694v-645h68v-49c-54 2 -80 3 -124 3c-43 0 -55 0 -123 -3v49h68v549c0 39 -8 39 -68 39v49z" />
    <glyph glyph-name="m" unicode="m" horiz-adv-x="986" 
d="M891 305v-256h68v-49c-76 3 -86 3 -127 3c-40 0 -52 0 -126 -3v49h68v265c0 76 -21 96 -59 96c-60 0 -152 -45 -152 -156v-205h68v-49c-76 3 -86 3 -127 3c-40 0 -52 0 -126 -3v49h68v265c0 76 -21 96 -59 96c-60 0 -152 -45 -152 -156v-205h68v-49c-76 3 -86 3 -127 3
c-40 0 -52 0 -126 -3v49h68v305c0 39 -8 39 -68 39v49l173 8v-105h1c7 15 56 105 180 105c44 0 132 -4 154 -94c19 31 70 94 174 94c88 0 159 -27 159 -145z" />
    <glyph glyph-name="n" unicode="n" horiz-adv-x="657" 
d="M562 305v-256h68v-49c-76 3 -86 3 -127 3c-40 0 -52 0 -126 -3v49h68v265c0 75 -20 96 -58 96c-60 0 -152 -44 -152 -156v-205h68v-49c-76 3 -86 3 -127 3c-40 0 -52 0 -126 -3v49h68v305c0 39 -8 39 -68 39v49l173 8v-105h1c7 15 56 105 179 105c87 0 159 -26 159 -145z
" />
    <glyph glyph-name="o" unicode="o" 
d="M558 218c0 -119 -84 -224 -263 -224c-172 0 -262 100 -262 224c0 126 87 235 263 235c170 0 262 -104 262 -235zM296 37c129 0 129 106 129 192c0 84 0 184 -130 184c-129 0 -129 -100 -129 -184c0 -87 0 -192 130 -192z" />
    <glyph glyph-name="p" unicode="p" horiz-adv-x="657" 
d="M294 -145v-49c-76 3 -86 3 -127 3c-40 0 -52 0 -126 -3v49h68v500c0 21 0 32 -19 35c-13 3 -29 3 -49 3v49l179 8v-48c19 14 74 48 155 48c151 0 242 -96 242 -228c0 -133 -101 -228 -258 -228c-19 0 -74 0 -133 45v-184h68zM226 345v-241c27 -41 70 -70 121 -70
c66 0 137 50 137 189c0 122 -55 184 -125 184c-68 0 -115 -40 -133 -62z" />
    <glyph glyph-name="q" unicode="q" horiz-adv-x="624" 
d="M548 450v-595h68v-49c-76 3 -86 3 -127 3c-40 0 -52 0 -126 -3v49h68v194c-40 -36 -92 -55 -145 -55c-151 0 -247 95 -247 228s100 228 257 228c66 0 116 -29 156 -78l51 78h45zM437 148v130c0 49 -48 129 -129 129c-12 0 -67 -2 -104 -57c-29 -44 -32 -97 -32 -129
c0 -127 58 -187 125 -187c42 0 92 20 128 75c12 19 12 20 12 39z" />
    <glyph glyph-name="r" unicode="r" horiz-adv-x="488" 
d="M220 218v-169h85v-49c-53 3 -111 3 -136 3c-48 0 -54 0 -128 -3v49h68v305c0 39 -8 39 -68 39v49l167 8v-109h1c22 58 65 109 135 109c59 0 111 -33 111 -84c0 -42 -32 -64 -64 -64c-28 0 -63 20 -63 64c0 16 5 33 16 44c-97 -3 -124 -119 -124 -192z" />
    <glyph glyph-name="s" unicode="s" horiz-adv-x="466" 
d="M397 424v-78c0 -24 -1 -29 -26 -29c-10 0 -24 0 -25 14c-2 27 -6 86 -118 86c-22 0 -115 0 -115 -60c0 -45 63 -55 111 -63c79 -13 111 -18 156 -56c18 -15 47 -47 47 -98c0 -146 -160 -146 -190 -146c-20 0 -73 0 -120 31l-27 -17c-22 -14 -24 -14 -31 -14
c-20 0 -20 11 -20 29v106c0 24 0 30 26 30c21 0 22 -3 27 -20c29 -92 94 -105 145 -105c22 0 116 0 116 72c0 57 -66 68 -148 82c-35 6 -166 28 -166 133c0 132 159 132 190 132c33 0 72 -4 104 -18c18 10 34 18 44 18c20 0 20 -11 20 -29z" />
    <glyph glyph-name="t" unicode="t" horiz-adv-x="460" 
d="M223 395v-274c0 -24 0 -84 58 -84c25 0 61 18 61 89v50h51v-53c0 -73 -48 -129 -126 -129c-62 0 -161 15 -161 129v272h-84v40c102 3 149 106 150 200h51v-191h151v-49h-151z" />
    <glyph glyph-name="u" unicode="u" horiz-adv-x="657" 
d="M377 442l185 8v-362c0 -39 8 -39 68 -39v-49l-179 -6v75c-51 -75 -119 -75 -150 -75c-97 0 -183 20 -183 129v231c0 39 -8 39 -68 39v49l185 8v-341c0 -53 4 -75 81 -75s129 50 129 130v190c0 39 -8 39 -68 39v49z" />
    <glyph glyph-name="v" unicode="v" horiz-adv-x="624" 
d="M523 374l-169 -351c-9 -19 -17 -28 -42 -28s-33 9 -42 28l-179 372h-63v49c59 -3 79 -3 115 -3c37 0 57 1 123 3v-49h-52l131 -272l120 249c5 8 5 10 6 14c-9 4 -18 9 -46 9v49c29 -3 61 -3 90 -3c28 0 53 0 81 3v-49c-63 0 -66 -7 -73 -21z" />
    <glyph glyph-name="w" unicode="w" horiz-adv-x="854" 
d="M761 373l-147 -352c-11 -26 -27 -26 -39 -26c-13 0 -28 0 -39 26l-109 262l-109 -260c-7 -17 -12 -28 -39 -28c-12 0 -28 0 -39 26l-156 374h-58v49c51 -3 88 -3 111 -3c36 0 55 1 122 3v-49h-54l107 -256l87 210c-6 15 -6 17 -19 46h-58v49c43 -3 92 -3 102 -3
c43 0 64 1 112 3v-49h-54l116 -279l106 254c3 7 3 8 5 16c-20 9 -43 9 -56 9v49c32 -2 63 -3 95 -3c27 0 52 0 80 3v-49c-58 0 -60 -6 -67 -22z" />
    <glyph glyph-name="x" unicode="x" horiz-adv-x="624" 
d="M358 245l172 -196h70v-49c-51 3 -88 3 -111 3c-33 0 -56 -1 -119 -3v49h35l-111 127l-98 -105c-1 -1 -7 -7 -7 -11c0 -7 17 -11 32 -11v-49c-45 3 -84 3 -102 3c-33 0 -59 0 -93 -3v49c46 0 81 0 99 19l135 146l-159 181h-70v49c51 -3 90 -3 110 -3c34 0 60 1 120 3v-49
h-36l99 -112l93 101c-7 7 -12 11 -34 11v49c45 -3 84 -3 102 -3c33 0 59 0 93 3v-49c-80 0 -87 -7 -98 -19z" />
    <glyph glyph-name="y" unicode="y" horiz-adv-x="624" 
d="M522 373l-219 -450c-31 -65 -93 -123 -171 -123c-59 0 -109 41 -109 95c0 38 28 60 60 60s60 -22 60 -60c0 -25 -12 -43 -29 -52c7 -3 13 -3 19 -3c77 0 115 78 150 160l-192 395h-63v49c59 -3 79 -3 115 -3c31 0 68 1 123 3v-49h-51l130 -268l119 244c5 10 5 11 5 12
c0 12 -43 12 -44 12v49c29 -2 60 -3 90 -3c28 0 53 0 81 3v-49c-63 0 -67 -7 -74 -22z" />
    <glyph glyph-name="z" unicode="z" horiz-adv-x="525" 
d="M461 396l-282 -353h87c131 0 150 59 159 162h51l-19 -205h-390c-19 0 -34 0 -34 24c0 10 1 13 11 26l283 354h-84c-111 0 -136 -41 -143 -139h-51l13 179h376c18 0 34 0 34 -23c0 -9 -1 -13 -11 -25z" />
    <glyph glyph-name="endash" unicode="&#x2013;" 
d="M591 254h-591v40h591v-40z" />
    <glyph glyph-name="emdash" unicode="&#x2014;" horiz-adv-x="1183" 
d="M1182 254h-1182v40h1182v-40z" />
    <glyph glyph-name="hungarumlaut" unicode="&#x2dd;" 
d="M283 601l-97 -88l-43 29l44 124c9 25 26 44 54 44c33 0 67 -29 67 -62c0 -25 -18 -41 -25 -47zM340 542l44 124c9 25 26 44 54 44c33 0 67 -29 67 -62c0 -25 -18 -41 -25 -47l-97 -88z" />
    <glyph glyph-name="tilde" unicode="&#x2dc;" 
d="M463 694l29 -28c-5 -5 -18 -19 -27 -29c-40 -40 -58 -59 -101 -59c-18 0 -42 5 -73 17c-39 14 -62 20 -84 20c-28 0 -55 -11 -79 -37l-29 28c5 5 18 19 27 29c40 40 58 59 101 59c18 0 42 -5 73 -17c39 -14 62 -20 84 -20c28 0 55 11 79 37z" />
    <glyph glyph-name="dieresis" unicode="&#xa8;" 
d="M253 622c0 -42 -34 -72 -72 -72c-43 0 -73 36 -73 72c0 40 32 73 73 73c36 0 72 -28 72 -73zM483 622c0 -36 -30 -72 -73 -72c-36 0 -72 28 -72 73c0 42 34 72 72 72c41 0 73 -33 73 -73z" />
    <glyph glyph-name="space" unicode=" " horiz-adv-x="394" 
 />
  </font>
</defs>
</svg>
