<?xml version="1.0" standalone="no"?>
<!DOCTYPE svg PUBLIC "-//W3C//DTD SVG 1.1//EN" "http://www.w3.org/Graphics/SVG/1.1/DTD/svg11.dtd" >
<svg>
<metadata>
Created by FontForge 20060822 at Fri Oct  6 18:21:18 2006
 By Wojciech Mula,,,
Copyright (C) 1997 American Mathematical Society. All Rights Reserved
</metadata>
<defs>
<font id="CMBX7" horiz-adv-x="647" >
  <font-face 
    font-family="Computer Modern"
    font-weight="700"
    font-stretch="normal"
    units-per-em="1000"
    panose-1="2 0 8 3 0 0 0 0 0 0"
    ascent="800"
    descent="-200"
    x-height="444"
    cap-height="686"
    bbox="-55 -250 1289 751"
    underline-thickness="0"
    underline-position="0"
    stemh="56"
    stemv="127"
    unicode-range="U+0020-U+FB04"
  />
    <missing-glyph />
    <glyph glyph-name="ff" unicode="ff" horiz-adv-x="761" 
d="M604 388v-332h84v-56c-7 0 -104 4 -143 4c-47 0 -124 -4 -128 -4v56h67v332h-242v-332h67v-56c-3 0 -78 4 -127 4c-46 0 -124 -4 -127 -4v56h67v332h-83v56h83v95c0 124 166 161 302 161c24 0 88 0 134 -36c27 15 73 36 156 36c89 0 127 -50 127 -94
c0 -46 -36 -69 -69 -69c-29 0 -68 21 -68 69c0 20 8 35 12 41c2 2 3 4 3 5s0 2 -11 2c-111 0 -111 -99 -111 -116v-94h136v-56h-129zM235 444h249v93c-18 11 -28 33 -28 56c0 34 22 52 23 53c-1 0 -28 8 -66 8c-91 0 -178 -29 -178 -118v-92z" />
    <glyph glyph-name="fi" unicode="fi" horiz-adv-x="726" 
d="M417 448l186 6v-398h67v-56c-3 0 -78 4 -127 4c-46 0 -124 -4 -127 -4v56h67v297c0 35 -6 35 -30 35h-211v-332h67v-56c-3 0 -78 4 -127 4c-46 0 -124 -4 -127 -4v56h67v332h-83v56h83v95c0 126 174 161 304 161c129 0 173 -70 173 -122c0 -43 -30 -72 -72 -72
c-40 0 -71 30 -71 71c0 35 20 55 34 62c-30 15 -63 15 -75 15c-24 0 -180 -1 -180 -118v-92h181c0 2 0 3 1 4z" />
    <glyph glyph-name="fl" unicode="fl" horiz-adv-x="726" 
d="M603 694v-638h67v-56c-3 0 -78 4 -127 4c-46 0 -124 -4 -127 -4v56h67v332h-241v-332h67v-56c-3 0 -78 4 -127 4c-46 0 -124 -4 -127 -4v56h67v332h-83v56h83v95c0 122 160 161 303 161c27 0 49 0 87 -9c6 -2 7 -2 14 -2zM235 444h248v106c-24 17 -28 45 -28 56
c0 9 2 25 11 39c2 2 2 3 2 4c0 4 -47 5 -53 5c-22 0 -79 -1 -122 -25c-58 -30 -58 -72 -58 -93v-92z" />
    <glyph glyph-name="ffi" unicode="ffi" horiz-adv-x="1089" 
d="M780 448l186 6v-398h67v-56c-3 0 -78 4 -127 4c-46 0 -124 -4 -127 -4v56h67v297c0 35 -6 35 -30 35h-212v-332h67v-56c-3 0 -78 4 -127 4c-46 0 -124 -4 -127 -4v56h67v332h-242v-332h67v-56c-3 0 -78 4 -127 4c-46 0 -124 -4 -127 -4v56h67v332h-83v56h83v95
c0 123 165 161 301 161c25 0 87 0 138 -46c61 34 145 46 228 46c127 0 173 -68 173 -122c0 -43 -30 -72 -72 -72c-40 0 -71 30 -71 71c0 35 20 55 34 62c-28 13 -51 15 -75 15c-23 0 -181 0 -181 -118v-92h182c0 2 0 3 1 4zM235 444h249v72c-26 14 -34 42 -34 61
c0 30 17 53 35 63c-2 1 -30 14 -73 14c-23 0 -177 0 -177 -118v-92z" />
    <glyph glyph-name="ffl" unicode="ffl" horiz-adv-x="1089" 
d="M966 694v-638h67v-56c-3 0 -78 4 -127 4c-46 0 -124 -4 -127 -4v56h67v332h-242v-332h67v-56c-3 0 -78 4 -127 4c-46 0 -124 -4 -127 -4v56h67v332h-242v-332h67v-56c-3 0 -78 4 -127 4c-46 0 -124 -4 -127 -4v56h67v332h-83v56h83v95c0 122 162 161 302 161
c27 0 99 -1 142 -43c33 18 99 43 222 43c27 0 49 0 87 -9c6 -2 7 -2 14 -2zM235 444h249v75c0 16 -1 17 -5 21c-21 20 -23 43 -23 53c0 33 22 53 22 53c-2 1 -28 8 -65 8c-85 0 -178 -27 -178 -118v-92zM597 444h249v106c-24 17 -28 45 -28 56c0 9 2 25 11 39c2 2 2 3 2 4
c0 4 -47 5 -53 5c-19 0 -83 -1 -130 -28c-51 -31 -51 -69 -51 -90v-92z" />
    <glyph glyph-name="Gamma" unicode="&#x393;" horiz-adv-x="773" 
d="M681 679l34 -239h-63c-17 131 -60 183 -196 183h-141v-567h134v-56c-26 2 -70 2 -96 3c-37 0 -74 1 -111 1c-8 0 -159 -2 -185 -4v56h107v567h-107v56h624z" />
    <glyph glyph-name="Delta" unicode="&#x394;" horiz-adv-x="1073" 
d="M599 676l397 -646c7 -10 7 -12 7 -16c0 -14 -13 -14 -28 -14h-878c-15 0 -28 0 -28 14c0 4 0 6 7 16l397 646c17 28 33 28 54 28h18c21 0 37 0 54 -28zM489 566l-268 -436h536z" />
    <glyph glyph-name="Theta" unicode="&#x398;" horiz-adv-x="1002" 
d="M926 339c0 -185 -136 -351 -426 -351c-286 0 -425 163 -425 351c0 186 134 359 426 359c289 0 425 -171 425 -359zM500 36c249 0 276 198 276 303c0 49 -5 150 -58 217c-60 76 -145 96 -218 96c-81 0 -161 -28 -211 -88c-52 -64 -64 -146 -64 -225c0 -51 5 -144 56 -208
c64 -81 158 -95 219 -95zM704 443v-198h-63v34h-281v-34h-63v198h63v-34h281v34h63z" />
    <glyph glyph-name="Lambda" unicode="&#x39b;" horiz-adv-x="896" 
d="M503 675l255 -619h88v-56c-18 1 -112 4 -158 4c-53 0 -132 0 -184 -4v56h91l-190 460l-182 -440c-3 -8 -4 -10 -4 -11c0 -9 73 -9 87 -9v-56c-5 0 -98 4 -142 4c-28 0 -100 -3 -114 -4v56h24c13 0 30 1 43 2c21 2 22 3 28 17l249 600c11 26 20 29 47 29h14
c20 0 36 0 48 -29z" />
    <glyph glyph-name="Xi" unicode="&#x39e;" horiz-adv-x="860" 
d="M785 673l10 -201h-63c-1 19 -3 66 -18 75c-7 5 -69 6 -81 6h-407c-13 0 -76 0 -84 -7c-12 -13 -14 -54 -15 -74h-63l10 201h711zM67 0l-10 211h63c2 -41 5 -68 15 -81c6 -10 78 -10 89 -10h411c14 0 79 0 87 8c14 11 16 64 17 83h63l-10 -211h-725zM677 451v-202h-63v41
h-369v-41h-63v202h63v-41h369v41h63z" />
    <glyph glyph-name="Pi" unicode="&#x3a0;" horiz-adv-x="1001" 
d="M837 623v-567h107v-56c-22 2 -161 4 -183 4c-16 0 -159 -2 -182 -4v56h107v567h-371v-567h107v-56c-22 2 -161 4 -183 4c-16 0 -159 -2 -182 -4v56h107v567h-107v56h887v-56h-107z" />
    <glyph glyph-name="Sigma" unicode="&#x3a3;" horiz-adv-x="931" 
d="M532 320l-294 -245h278c132 0 253 12 276 183h63l-34 -258h-710c-14 0 -36 0 -36 22c0 10 4 13 16 23l302 252l-307 334c-11 12 -11 16 -11 27c0 28 17 28 36 28h710l34 -239h-63c-10 73 -46 132 -100 158c-35 16 -100 25 -179 25h-221l237 -258c19 -19 19 -21 19 -29
c0 -10 -4 -13 -16 -23z" />
    <glyph glyph-name="Upsilon" unicode="&#x3a5;" horiz-adv-x="1002" 
d="M576 343v-287h134v-56c-48 4 -158 4 -210 4s-161 0 -209 -4v56h134v287c0 69 -29 233 -184 233c-86 0 -93 -15 -95 -25c-4 -24 -12 -24 -35 -24c-20 0 -36 0 -36 26c0 73 74 145 178 145c130 0 215 -108 247 -231h1c26 108 108 231 247 231c104 0 178 -72 178 -145
c0 -26 -16 -26 -36 -26c-24 0 -31 1 -35 24c-2 10 -7 25 -95 25c-155 0 -184 -165 -184 -233z" />
    <glyph glyph-name="Phi" unicode="&#x3a6;" horiz-adv-x="931" 
d="M662 630h-134v-86c0 -17 1 -18 13 -19c202 -14 314 -90 314 -182c0 -84 -97 -167 -316 -182c-10 -1 -11 -2 -11 -19v-86h134v-56c-48 4 -151 4 -203 4s-155 0 -203 -4v56h134v105c-246 19 -315 113 -315 182c0 71 71 163 315 182v105h-134v56c48 -4 151 -4 203 -4
s155 0 203 4v-56zM390 207v272c-119 -10 -159 -60 -159 -136c0 -78 43 -126 159 -136zM528 480v-274c130 8 171 59 171 137s-41 129 -171 137z" />
    <glyph glyph-name="Psi" unicode="&#x3a8;" horiz-adv-x="1002" 
d="M563 630v-419c113 20 151 100 152 188c1 86 28 144 103 144h73c15 0 35 0 35 -23c0 -20 -17 -22 -25 -23c-46 -6 -48 -74 -48 -98c0 -22 -10 -125 -99 -182c-57 -36 -121 -51 -191 -56v-105h134v-56c-48 4 -151 4 -203 4s-155 0 -203 -4v56h134v105
c-49 4 -136 17 -200 70c-59 50 -76 129 -77 166c-1 39 -2 94 -54 100c-5 1 -19 6 -19 23c0 23 21 23 36 23h72c102 0 103 -119 103 -123c1 -55 2 -179 139 -208v418h-134v56c48 -4 151 -4 203 -4s155 0 203 4v-56h-134z" />
    <glyph glyph-name="Omega" unicode="&#x3a9;" horiz-adv-x="931" 
d="M869 203l-41 -203h-217c-21 0 -36 0 -36 30c0 73 36 160 59 214c31 75 58 142 58 213c0 155 -119 195 -227 195c-111 0 -227 -43 -227 -195c0 -71 27 -137 59 -213c23 -57 58 -141 58 -214c0 -30 -14 -30 -35 -30h-218l-41 203h63c17 -88 17 -91 88 -91h73
c-19 36 -47 69 -96 122c-60 66 -114 135 -114 222c0 109 98 242 390 242c293 0 390 -133 390 -242c0 -92 -61 -163 -119 -228c-33 -35 -68 -75 -91 -116h73c71 0 71 3 88 91h63z" />
    <glyph glyph-name="dotlessi" unicode="&#x131;" horiz-adv-x="363" 
d="M254 450v-394h61v-56c-41 3 -81 4 -122 4c-45 0 -124 -4 -126 -4v56h67v291c0 39 -7 39 -64 39v56z" />
    <glyph glyph-name="dotlessj" unicode="&#xf6be;" horiz-adv-x="398" 
d="M110 442l194 8v-488c0 -114 -111 -162 -201 -162c-85 0 -158 30 -158 99c0 38 28 69 70 69c38 0 69 -28 69 -69c0 -22 -9 -37 -12 -40c-2 -3 -4 -6 -4 -8c0 -3 30 -5 34 -5c53 0 82 51 82 118v382c0 40 -8 40 -74 40v56z" />
    <glyph glyph-name="grave" unicode="`" 
d="M343 501l-168 76c-15 7 -41 24 -41 57c0 27 24 69 66 69c7 0 20 0 36 -12c3 -3 5 -3 38 -35l104 -103z" />
    <glyph glyph-name="acute" unicode="&#xb4;" 
d="M470 577l-167 -76l-36 52l137 133c5 5 19 17 42 17c42 0 66 -42 66 -69c0 -35 -28 -51 -42 -57z" />
    <glyph glyph-name="caron" unicode="&#x2c7;" 
d="M323 607l146 54l26 -58l-172 -88l-172 88l26 58z" />
    <glyph glyph-name="breve" unicode="&#x2d8;" 
d="M477 694h46c-3 -120 -103 -191 -200 -191s-197 70 -200 191h46c4 -90 97 -118 154 -118s150 28 154 118z" />
    <glyph glyph-name="macron" unicode="&#xaf;" 
d="M553 556h-460v62h460v-62z" />
    <glyph glyph-name="ring" unicode="&#x2da;" horiz-adv-x="967" 
d="M622 622c0 -32 -29 -83 -139 -83c-99 0 -138 43 -138 84c0 32 29 83 139 83c99 0 138 -43 138 -84zM484 581c46 0 75 0 75 42c0 41 -30 41 -76 41s-75 0 -75 -42c0 -41 30 -41 76 -41z" />
    <glyph glyph-name="cedilla" unicode="&#xb8;" horiz-adv-x="576" 
d="M387 -12v-9c39 -6 106 -21 106 -88c0 -37 -19 -96 -277 -96h-63v46h45c40 0 168 0 168 50c0 46 -70 48 -106 48v49h127z" />
    <glyph glyph-name="germandbls" unicode="&#xdf;" horiz-adv-x="668" 
d="M472 419c120 -53 156 -159 156 -239c0 -113 -94 -186 -231 -186c-79 0 -118 49 -118 92c0 33 22 57 56 57c32 0 56 -22 56 -56c0 -28 -17 -42 -18 -43c8 -3 15 -4 22 -4c103 0 103 108 103 139c0 40 0 208 -156 219c-19 1 -29 2 -29 23c0 22 11 22 28 23
c73 3 122 36 122 116c0 43 -14 94 -108 94c-113 0 -113 -71 -113 -101v-553c-27 4 -30 4 -65 4c-41 0 -121 -4 -122 -4v56h67v332h-67v56h67v110c0 91 87 146 234 146c176 0 237 -76 237 -140c0 -47 -31 -110 -121 -141z" />
    <glyph glyph-name="ae" unicode="&#xe6;" horiz-adv-x="931" 
d="M855 208h-326c4 -86 45 -163 171 -163c24 0 96 3 128 76c7 15 17 15 30 15c10 0 32 0 32 -22c0 -15 -39 -120 -203 -120c-66 0 -140 13 -204 61c-53 -57 -166 -61 -226 -61c-38 0 -209 0 -209 114c0 80 99 106 158 120c56 12 82 14 196 19v47c0 81 -47 113 -122 113
c-7 0 -72 -2 -72 -7c0 -2 1 -4 3 -7c3 -3 12 -18 12 -40c0 -38 -26 -69 -70 -69c-37 0 -69 26 -69 70c0 98 135 99 198 99c33 0 137 0 202 -56c38 29 100 56 186 56c46 0 119 -8 166 -60c54 -59 54 -137 54 -154c0 -31 -13 -31 -35 -31zM530 250h261c-2 66 -20 157 -120 157
c-138 0 -141 -130 -141 -157zM403 204c-31 -1 -91 -3 -148 -21c-35 -12 -81 -33 -81 -75c0 -34 35 -68 100 -68c55 0 148 20 148 85c0 7 0 8 -4 16c-4 11 -12 32 -15 63z" />
    <glyph glyph-name="oe" unicode="&#x153;" horiz-adv-x="1002" 
d="M926 208h-326c4 -86 45 -163 171 -163c24 0 96 3 128 76c7 15 17 15 30 15c10 0 32 0 32 -22c0 -15 -39 -120 -203 -120c-78 0 -162 20 -221 76c-70 -68 -162 -76 -217 -76c-191 0 -280 111 -280 231c0 114 85 228 280 228c79 0 158 -19 216 -73c67 65 157 73 205 73
c46 0 119 -8 166 -60c54 -59 54 -137 54 -154c0 -31 -13 -31 -35 -31zM601 250h261c-2 66 -20 157 -120 157c-138 0 -141 -130 -141 -157zM320 40c153 0 153 136 153 189s0 178 -153 178c-154 0 -154 -125 -154 -178s0 -189 154 -189z" />
    <glyph glyph-name="oslash" unicode="&#xf8;" 
d="M561 529l-75 -111c113 -62 120 -165 120 -200c0 -116 -88 -224 -283 -224c-44 0 -86 6 -118 16l-83 -120l-37 26l76 112c-75 34 -121 107 -121 190c0 118 85 235 283 235c20 0 71 -1 119 -17l82 119zM199 83l211 307c-12 6 -44 17 -87 17c-156 0 -156 -112 -156 -188
c0 -47 0 -102 32 -136zM439 351l-202 -295c34 -16 75 -16 86 -16c156 0 156 103 156 179c0 26 0 54 -5 81c-7 37 -25 59 -27 59s-7 -6 -8 -8z" />
    <glyph glyph-name="AE" unicode="&#xc6;" horiz-adv-x="1162" 
d="M342 302l-109 -239c25 -5 32 -7 85 -7v-56c-10 0 -104 4 -142 4c-47 0 -122 -4 -124 -4v56h29c14 0 33 1 47 2c25 3 26 4 32 16l255 556h-64v56h702l34 -239h-63c-17 136 -64 183 -198 183h-147v-272h73c85 0 115 23 115 110h63v-276h-63c0 87 -30 110 -115 110h-73v-246
h150c185 0 206 92 230 213h63l-51 -269h-614v56h80v246h-195zM493 630l-125 -272h169v272h-44z" />
    <glyph glyph-name="OE" unicode="&#x152;" horiz-adv-x="1304" 
d="M1264 269l-51 -269h-493c-4 0 -31 0 -109 -7c-55 -5 -82 -5 -92 -5c-289 0 -426 165 -426 351c0 187 135 359 426 359c8 0 37 0 93 -5c77 -7 101 -7 108 -7h475l34 -239h-63c-19 135 -64 183 -207 183h-165v-246h103c78 0 130 12 130 110h63v-276h-63
c0 98 -52 110 -130 110h-103v-272h171c178 0 211 80 236 213h63zM661 200v286c0 150 -42 166 -135 166c-185 0 -277 -129 -277 -297c0 -177 91 -321 277 -321c92 0 135 16 135 166z" />
    <glyph glyph-name="Oslash" unicode="&#xd8;" horiz-adv-x="1002" 
d="M825 719l-65 -84c121 -69 166 -192 166 -296c0 -185 -136 -351 -426 -351c-72 0 -147 11 -213 38l-71 -91l-39 32l63 83c-138 79 -165 210 -165 289c0 186 134 359 426 359c76 0 152 -13 213 -39l70 92zM288 111l385 496c-51 33 -113 45 -173 45
c-100 0 -170 -34 -208 -77c-51 -55 -66 -123 -66 -236c0 -76 5 -164 62 -228zM712 573l-384 -495c62 -40 135 -44 173 -44c274 0 274 214 274 305c0 95 -10 174 -63 234z" />
    <glyph glyph-name="suppress" horiz-adv-x="363" 
d="M363 346l-326 -72l-12 54l326 73z" />
    <glyph glyph-name="exclam" unicode="!" horiz-adv-x="397" 
d="M277 604l-46 -346c-3 -22 -4 -27 -32 -27c-29 0 -30 4 -33 28l-46 345c-1 8 -3 22 -3 27c0 47 41 75 82 75c37 0 81 -26 81 -75c0 -5 -2 -20 -3 -27zM280 81c0 -42 -34 -81 -82 -81c-42 0 -81 34 -81 82c0 42 34 81 82 81c42 0 81 -34 81 -82z" />
    <glyph glyph-name="quotedblright" unicode="&#x201d;" horiz-adv-x="667" 
d="M181 548c-1 0 -21 -17 -52 -17c-52 0 -82 39 -82 82c0 42 30 81 81 81c61 0 100 -58 100 -129c0 -143 -114 -228 -131 -228c-11 0 -25 15 -25 25c0 9 6 13 12 18c40 30 89 80 97 168zM451 548c-1 0 -21 -17 -52 -17c-52 0 -82 39 -82 82c0 42 30 81 81 81
c61 0 100 -58 100 -129c0 -143 -114 -228 -131 -228c-11 0 -25 15 -25 25c0 9 6 13 12 18c40 30 89 80 97 168z" />
    <glyph glyph-name="numbersign" unicode="#" horiz-adv-x="1073" 
d="M747 339l-61 -177h265c11 0 46 0 46 -36c0 -37 -38 -37 -52 -37h-285l-86 -251c-3 -8 -11 -32 -37 -32c-23 0 -37 18 -37 36c0 6 11 38 17 57l66 190h-206l-86 -251c-3 -8 -11 -32 -37 -32c-23 0 -37 18 -37 36c0 6 11 38 17 57l66 190h-173c-14 0 -52 0 -52 37
c0 36 35 36 46 36h205l61 177h-266c-11 0 -46 0 -46 36c0 37 38 37 52 37h286l85 250c3 9 12 32 37 32c23 0 37 -18 37 -36c0 -3 0 -8 -5 -22l-77 -224h206l85 250c3 9 12 32 37 32c23 0 37 -18 37 -36c0 -3 0 -8 -5 -22l-77 -224h172c14 0 52 0 52 -37
c0 -36 -35 -36 -46 -36h-204zM464 339l-61 -177h206l61 177h-206z" />
    <glyph glyph-name="dollar" unicode="$" 
d="M351 643v-211c183 -31 220 -155 220 -220c0 -83 -48 -202 -220 -217v-51h-56v51c-157 10 -220 99 -220 193c0 56 42 73 70 73c34 0 69 -24 69 -70c0 -13 -4 -58 -59 -68c30 -52 93 -68 140 -72v238c-56 12 -102 21 -155 66c-12 11 -65 60 -65 140c0 81 50 191 220 204v51
h56v-51c157 -8 220 -89 220 -179c0 -55 -41 -73 -70 -73c-37 0 -69 27 -69 69c0 57 54 70 55 70c-35 47 -105 55 -136 57zM295 443v200c-105 -9 -131 -65 -131 -99c0 -51 47 -86 131 -101zM351 278v-227c82 7 131 54 131 113c0 55 -49 102 -131 114z" />
    <glyph glyph-name="percent" unicode="%" horiz-adv-x="1073" 
d="M877 684l-627 -723c-5 -6 -15 -17 -31 -17c-20 0 -37 16 -37 37c0 5 1 15 13 29l524 604c-15 -5 -57 -17 -112 -17c-83 0 -149 24 -192 41c13 -38 14 -65 14 -90c0 -132 -75 -201 -165 -201c-100 0 -189 67 -189 202c0 129 85 201 189 201c46 0 70 -15 100 -34
c105 -66 201 -74 241 -74c131 0 196 69 217 92c8 7 16 16 32 16c18 0 36 -14 36 -37c0 -3 0 -14 -13 -29zM266 393c44 0 100 37 100 156c0 113 -52 155 -100 155c-75 0 -75 -93 -75 -155c0 -63 0 -156 75 -156zM997 145c0 -132 -75 -201 -165 -201c-100 0 -189 67 -189 202
c0 129 85 201 189 201c87 0 165 -65 165 -202zM834 -10c44 0 100 37 100 156c0 113 -52 155 -100 155c-75 0 -75 -93 -75 -155c0 -63 0 -156 75 -156z" />
    <glyph glyph-name="ampersand" unicode="&#x26;" horiz-adv-x="1002" 
d="M122 251l116 84c-36 78 -43 145 -43 185c0 122 109 186 201 186c84 0 132 -75 132 -138c0 -26 0 -71 -166 -199c57 -106 171 -210 189 -226c54 44 87 81 102 98c49 57 77 96 112 140c-18 5 -23 7 -64 7v56c7 0 86 -4 130 -4c34 0 68 1 102 4v-56h-24c-11 0 -62 0 -69 -8
c-2 -2 -3 -3 -15 -17c-1 -1 -1 -3 -27 -35c-57 -74 -118 -153 -204 -222c61 -45 107 -62 156 -62c11 0 108 0 113 71h63c-3 -90 -96 -127 -182 -127s-173 24 -240 58c-78 -43 -150 -58 -216 -58c-121 0 -231 52 -231 154c0 57 42 92 65 109zM342 413c23 18 123 92 123 155
c0 34 -19 92 -68 92c-33 0 -86 -26 -86 -100c0 -21 4 -83 31 -147zM259 294c-16 -11 -63 -43 -63 -121c0 -52 29 -129 106 -129c19 0 81 3 147 35c-87 58 -157 153 -190 215z" />
    <glyph glyph-name="quoteright" unicode="&#x2019;" horiz-adv-x="363" 
d="M234 548c-1 0 -21 -17 -52 -17c-52 0 -82 39 -82 82c0 42 30 81 81 81c61 0 100 -58 100 -129c0 -143 -114 -228 -131 -228c-11 0 -25 15 -25 25c0 9 6 13 12 18c40 30 89 80 97 168z" />
    <glyph glyph-name="parenleft" unicode="(" horiz-adv-x="505" 
d="M429 -231c0 -18 -19 -18 -23 -18c-22 0 -78 46 -99 66c-123 121 -185 266 -185 434c0 201 88 337 185 433c21 20 78 66 99 66c4 0 23 0 23 -18c0 -9 -5 -13 -10 -17c-153 -128 -186 -326 -186 -465c0 -212 75 -369 177 -457c16 -13 19 -16 19 -24z" />
    <glyph glyph-name="parenright" unicode=")" horiz-adv-x="505" 
d="M382 250c0 -201 -88 -337 -185 -433c-21 -20 -78 -66 -99 -66c-4 0 -23 0 -23 18c0 9 5 13 10 17c153 128 186 326 186 465c0 212 -75 369 -177 457c-16 13 -19 16 -19 24c0 18 19 18 23 18c22 0 78 -46 99 -66c123 -121 185 -266 185 -434z" />
    <glyph glyph-name="asterisk" unicode="*" 
d="M348 489l23 -122c2 -10 3 -16 3 -18c0 -23 -22 -43 -51 -43s-51 20 -51 43l25 139l-124 -85c-21 -14 -23 -16 -36 -16c-28 0 -50 25 -50 54c0 34 23 41 37 45l138 42l-138 42c-14 4 -37 11 -37 45c0 29 22 54 50 54c4 0 14 0 28 -10l133 -92l-23 122c-2 10 -3 16 -3 18
c0 23 22 43 51 43s51 -20 51 -43l-26 -140l134 92c10 7 16 10 27 10c28 0 50 -25 50 -54c0 -34 -22 -40 -37 -45l-135 -42l100 -31c59 -18 72 -22 72 -56c0 -29 -22 -54 -50 -54c-4 0 -14 0 -28 10z" />
    <glyph glyph-name="plus" unicode="+" horiz-adv-x="1002" 
d="M537 214v-341c0 -12 0 -48 -37 -48c-36 0 -36 37 -36 48v341h-341c-12 0 -48 0 -48 37c0 36 37 36 48 36h341v341c0 12 0 48 37 48c36 0 36 -37 36 -48v-341h341c12 0 48 0 48 -37c0 -36 -37 -36 -48 -36h-341z" />
    <glyph glyph-name="comma" unicode="," horiz-adv-x="363" 
d="M230 14c-11 -8 -20 -14 -48 -14c-52 0 -82 39 -82 82c0 42 30 81 81 81c60 0 96 -59 96 -129c0 -141 -110 -228 -127 -228c-11 0 -25 15 -25 25c0 9 6 14 11 18c23 17 82 63 94 165z" />
    <glyph glyph-name="hyphen" unicode="-" horiz-adv-x="434" 
d="M358 278v-111h-340v111h340z" />
    <glyph glyph-name="period" unicode="." horiz-adv-x="363" 
d="M263 81c0 -42 -34 -81 -82 -81c-42 0 -81 34 -81 82c0 42 34 81 82 81c42 0 81 -34 81 -82z" />
    <glyph glyph-name="slash" unicode="/" 
d="M565 691l-417 -913c-4 -8 -13 -28 -36 -28c-21 0 -37 16 -37 37c0 1 0 9 6 22l417 913c4 8 13 28 36 28c21 0 37 -16 37 -37c0 -1 0 -9 -6 -22z" />
    <glyph glyph-name="zero" unicode="0" 
d="M592 318c0 -127 -16 -330 -269 -330s-269 204 -269 330c0 122 13 338 269 338s269 -215 269 -338zM323 34c37 0 106 17 120 98c10 56 10 129 10 199c0 64 0 147 -11 194c-16 69 -81 85 -119 85c-41 0 -103 -18 -119 -83c-11 -48 -11 -127 -11 -196
c0 -227 17 -242 44 -265c24 -21 54 -32 86 -32z" />
    <glyph glyph-name="one" unicode="1" 
d="M399 621v-565h154v-56c-29 2 -81 3 -111 3c-36 0 -72 1 -108 1c-54 0 -174 0 -223 -4v56h158v501c-42 -14 -103 -21 -143 -21h-24v56h24c80 0 162 14 224 64c42 0 49 0 49 -35z" />
    <glyph glyph-name="two" unicode="2" 
d="M578 228l-34 -228h-476v24c0 20 1 21 13 33l238 211c58 51 110 115 110 192c0 86 -67 140 -152 140c-12 0 -58 -1 -94 -24c3 -1 40 -21 40 -69c0 -53 -42 -78 -78 -78c-30 0 -77 21 -77 79c0 95 102 148 238 148c159 0 272 -75 272 -195c0 -100 -83 -153 -164 -205
c-58 -37 -114 -78 -169 -119h137c23 0 83 0 104 4c18 4 27 75 29 87h63z" />
    <glyph glyph-name="three" unicode="3" 
d="M302 325h-53c-19 0 -32 0 -32 23c0 6 0 18 13 22c6 2 31 3 56 4c100 5 120 97 120 143c0 28 0 93 -98 93c-20 0 -73 -4 -114 -34c10 -3 50 -21 50 -72c0 -38 -26 -75 -76 -75c-39 0 -75 27 -75 77c0 83 84 150 220 150c160 0 240 -64 240 -142c0 -84 -67 -136 -139 -163
c114 -23 175 -93 175 -170c0 -84 -70 -193 -279 -193c-142 0 -253 55 -253 157c0 47 32 82 82 82c48 0 81 -35 81 -81c0 -43 -26 -66 -47 -75c43 -27 106 -32 133 -32c120 0 120 101 120 143c0 53 -5 143 -124 143z" />
    <glyph glyph-name="four" unicode="4" 
d="M606 154h-109v-98h109v-56c-25 2 -157 4 -179 4c-52 0 -142 0 -191 -4v56h124v98h-320v56l367 437c13 15 21 15 40 15h15c30 0 35 -5 35 -35v-417h109v-56zM373 524l-264 -314h264v314z" />
    <glyph glyph-name="five" unicode="5" 
d="M189 496v-119c48 28 100 33 139 33c172 0 250 -103 250 -209c0 -113 -96 -213 -285 -213c-135 0 -225 77 -225 169c0 51 38 75 74 75c35 0 73 -25 73 -74c0 -15 -4 -57 -54 -70c29 -33 81 -49 128 -49c138 0 138 99 138 166c0 72 0 159 -104 159c-95 0 -132 -40 -151 -61
c-8 -8 -15 -8 -25 -8c-29 0 -29 14 -29 34v296c0 15 0 31 18 31c2 0 4 0 18 -5c66 -22 128 -27 169 -27c46 0 105 6 171 28c12 4 14 4 16 4c18 0 18 -19 18 -23c0 -30 -69 -81 -98 -98c-74 -44 -143 -44 -167 -44c-12 0 -38 0 -74 5z" />
    <glyph glyph-name="six" unicode="6" 
d="M204 343c50 77 118 77 140 77c143 0 245 -82 245 -214s-102 -218 -262 -218c-234 0 -270 195 -270 330c0 236 165 338 334 338c126 0 166 -71 166 -132c0 -43 -29 -71 -70 -71c-42 0 -69 31 -69 69c0 31 18 56 47 67c-15 12 -41 21 -72 21c-21 0 -100 -3 -149 -72
c-36 -50 -40 -127 -40 -195zM326 39c116 0 116 75 116 168c0 91 0 167 -109 167c-86 0 -127 -83 -127 -155c0 -61 1 -180 120 -180z" />
    <glyph glyph-name="seven" unicode="7" 
d="M373 644h251c0 -37 0 -39 -2 -42c-1 -3 -3 -6 -5 -9l-170 -175c-60 -61 -89 -150 -89 -311c0 -67 0 -77 -16 -96c-5 -5 -22 -23 -54 -23c-5 0 -69 0 -69 77c0 153 84 292 152 365c34 36 47 47 74 77h-163c-70 0 -110 -4 -113 -5c-10 -1 -23 -29 -31 -86h-63l38 258h63
c2 -11 4 -24 42 -24c6 0 8 0 15 1l69 -3c24 -1 47 -3 71 -4z" />
    <glyph glyph-name="eight" unicode="8" 
d="M448 369c43 -22 141 -70 141 -181s-85 -200 -268 -200c-81 0 -264 14 -264 175c0 83 53 136 132 167c-10 6 -96 55 -96 148c0 97 71 178 233 178c38 0 227 0 227 -149c0 -57 -33 -103 -105 -138zM227 481l163 -82c44 24 75 57 75 107c0 67 -53 104 -145 104
c-88 0 -139 -22 -139 -73c0 -20 11 -38 46 -56zM253 298c-58 -29 -94 -73 -94 -135c0 -84 70 -124 166 -124c75 0 162 18 162 96c0 45 -38 64 -92 92z" />
    <glyph glyph-name="nine" unicode="9" 
d="M442 302c-52 -77 -116 -77 -140 -77c-141 0 -245 81 -245 215c0 130 105 216 268 216c215 0 264 -170 264 -328c0 -233 -151 -340 -319 -340c-132 0 -181 64 -181 132c0 43 29 71 70 71c42 0 69 -31 69 -69c0 -29 -14 -52 -41 -64c31 -19 72 -19 81 -19
c57 0 110 24 141 73c29 47 33 120 33 190zM313 271c71 0 127 61 127 164c0 1 0 86 -17 117c-10 19 -37 58 -97 58c-122 0 -122 -83 -122 -171c0 -92 0 -168 109 -168z" />
    <glyph glyph-name="colon" unicode=":" horiz-adv-x="363" 
d="M263 362c0 -42 -34 -81 -82 -81c-42 0 -81 34 -81 82c0 42 34 81 82 81c42 0 81 -34 81 -82zM263 81c0 -42 -34 -81 -82 -81c-42 0 -81 34 -81 82c0 42 34 81 82 81c42 0 81 -34 81 -82z" />
    <glyph glyph-name="semicolon" unicode=";" horiz-adv-x="363" 
d="M263 362c0 -42 -34 -81 -82 -81c-42 0 -81 34 -81 82c0 42 34 81 82 81c42 0 81 -34 81 -82zM219 8c-11 -5 -15 -8 -37 -8c-52 0 -82 39 -82 82c0 41 30 81 81 81c52 0 86 -50 86 -129c0 -137 -100 -228 -117 -228c-11 0 -25 15 -25 25c0 8 6 14 9 17c42 36 77 86 85 160
z" />
    <glyph glyph-name="exclamdown" unicode="&#xa1;" horiz-adv-x="397" 
d="M280 418c0 -42 -34 -81 -82 -81c-42 0 -81 34 -81 82c0 42 34 81 82 81c42 0 81 -34 81 -82zM120 -104l46 346c3 22 4 27 32 27c29 0 30 -4 33 -28l46 -345c1 -8 3 -22 3 -27c0 -47 -41 -75 -82 -75c-37 0 -81 26 -81 75c0 5 2 20 3 27z" />
    <glyph glyph-name="equal" unicode="=" horiz-adv-x="1002" 
d="M880 339h-759c-11 0 -46 0 -46 36c0 37 38 37 52 37h747c14 0 52 0 52 -37c0 -36 -35 -36 -46 -36zM874 89h-747c-14 0 -52 0 -52 37c0 36 35 36 46 36h759c11 0 46 0 46 -36c0 -37 -38 -37 -52 -37z" />
    <glyph glyph-name="questiondown" unicode="&#xbf;" horiz-adv-x="611" 
d="M369 418c0 -42 -34 -81 -82 -81c-42 0 -81 34 -81 82c0 42 34 81 82 81c42 0 81 -34 81 -82zM256 215v22c0 25 1 32 31 32c32 0 32 -3 32 -47c0 -41 0 -127 -84 -225c-17 -20 -21 -35 -21 -74c0 -56 2 -77 79 -77c18 0 87 0 138 24c-22 11 -34 35 -34 60
c0 37 25 69 70 69c38 0 69 -27 69 -70c0 -129 -192 -129 -248 -129c-43 0 -213 0 -213 130c0 63 45 91 66 104c71 44 115 102 115 181z" />
    <glyph glyph-name="question" unicode="?" horiz-adv-x="611" 
d="M319 285v-22c0 -25 -1 -32 -31 -32c-32 0 -32 3 -32 47c0 61 9 140 117 231c23 19 24 51 24 67c0 44 -3 78 -106 78c-14 0 -70 0 -111 -23c6 -3 34 -21 34 -61c0 -37 -25 -69 -70 -69c-38 0 -69 27 -69 70c0 61 51 129 221 129c42 0 240 0 240 -130
c0 -37 -20 -74 -69 -100c-112 -58 -148 -115 -148 -185zM369 81c0 -42 -34 -81 -82 -81c-42 0 -81 34 -81 82c0 42 34 81 82 81c42 0 81 -34 81 -82z" />
    <glyph glyph-name="at" unicode="@" horiz-adv-x="1002" 
d="M755 452v-226c0 -13 0 -54 32 -54c76 0 76 143 76 171c0 184 -132 311 -363 311c-242 0 -362 -140 -362 -307c0 -144 95 -307 367 -307c88 0 208 14 324 54c19 7 21 7 36 7h29c15 0 32 0 32 -18c0 -5 -3 -12 -8 -14c-3 -3 -182 -75 -413 -75c-315 0 -430 188 -430 353
c0 178 130 353 426 353c285 0 425 -165 425 -354c0 -77 -26 -220 -151 -220c-19 0 -97 1 -133 44c-46 -35 -100 -44 -143 -44c-162 0 -253 98 -253 221c0 122 90 221 253 221c83 0 141 -33 176 -74c8 -9 9 -10 25 -10h22c30 0 33 -4 33 -32zM628 233v228
c-40 56 -104 61 -126 61c-72 0 -129 -58 -129 -175s57 -175 129 -175c22 0 86 5 126 61z" />
    <glyph glyph-name="A" unicode="A" horiz-adv-x="967" 
d="M539 676l278 -620h99v-56c-14 1 -103 4 -165 4c-53 0 -130 0 -182 -4v56h90l-63 140h-305l-54 -121c-1 -2 -5 -10 -5 -11c0 -8 83 -8 86 -8v-56c-5 0 -98 4 -142 4c-45 0 -121 -4 -125 -4v56h30c17 0 27 0 46 2c25 3 26 4 32 16l269 602c13 28 25 28 56 28
c30 0 42 0 55 -28zM443 536l-127 -284h255z" />
    <glyph glyph-name="B" unicode="B" horiz-adv-x="914" 
d="M59 686h469c170 0 274 -76 274 -174c0 -66 -57 -130 -181 -153c155 -19 217 -97 217 -172c0 -100 -97 -187 -276 -187h-503v56h107v574h-107v56zM304 380h183c98 0 165 51 165 132c0 61 -39 118 -137 118h-211v-250zM304 56h214c116 0 164 66 164 133
c0 36 -13 145 -154 145h-224v-278z" />
    <glyph glyph-name="C" unicode="C" horiz-adv-x="931" 
d="M855 666v-213c0 -29 -3 -32 -32 -32h-7c-29 0 -29 2 -34 29c-20 104 -112 192 -241 192c-62 0 -146 -11 -215 -64c-68 -53 -88 -140 -88 -235c0 -79 14 -163 71 -220c60 -59 152 -79 234 -79c87 0 240 39 249 192c1 17 17 17 31 17c21 0 32 0 32 -25
c0 -124 -131 -240 -337 -240c-295 0 -443 166 -443 355c0 192 152 355 442 355c30 0 125 0 224 -68l67 58c10 9 12 10 24 10c23 0 23 -12 23 -32z" />
    <glyph glyph-name="D" unicode="D" horiz-adv-x="985" 
d="M57 686h468c228 0 384 -139 384 -348c0 -211 -163 -338 -383 -338h-469v56h107v574h-107v56zM308 56h176c269 0 269 192 269 282c0 91 0 292 -270 292h-175v-574z" />
    <glyph glyph-name="E" unicode="E" horiz-adv-x="844" 
d="M803 269l-51 -269h-695v56h107v567h-107v56h677l34 -239h-63c-20 144 -77 183 -217 183h-173v-243h66c86 0 114 24 114 110h63v-276h-63c0 87 -29 110 -114 110h-66v-268h183c172 0 215 70 242 213h63z" />
    <glyph glyph-name="F" unicode="F" horiz-adv-x="808" 
d="M717 679l34 -239h-63c-19 137 -68 183 -210 183h-163v-255h62c89 0 111 29 111 110h63v-276h-63c0 82 -23 110 -111 110h-62v-256h134v-56c-26 2 -70 2 -96 3c-37 0 -74 1 -111 1c-8 0 -159 -2 -185 -4v56h107v567h-107v56h660z" />
    <glyph glyph-name="G" unicode="G" horiz-adv-x="1011" 
d="M856 219v-187c0 -15 0 -32 -18 -32c-8 0 -68 26 -91 42c-51 -52 -167 -54 -221 -54c-336 0 -451 194 -451 355c0 193 153 355 442 355c32 0 124 0 225 -68l67 58c10 9 12 10 24 10c23 0 23 -12 23 -32v-213c0 -29 -3 -32 -32 -32h-7c-28 0 -29 3 -33 24
c-25 129 -131 197 -243 197c-62 0 -161 -13 -227 -74c-53 -50 -76 -123 -76 -224c0 -126 36 -189 83 -229c79 -67 189 -71 234 -71c150 0 150 56 150 82v93h-160v56c29 -2 79 -3 108 -3c41 0 82 -1 122 -1c62 0 155 3 170 4v-56h-89z" />
    <glyph glyph-name="H" unicode="H" horiz-adv-x="1001" 
d="M837 630v-574h107v-56c-22 2 -161 4 -183 4c-16 0 -159 -2 -182 -4v56h107v273h-371v-273h107v-56c-22 2 -161 4 -183 4c-16 0 -159 -2 -182 -4v56h107v574h-107v56c22 -2 161 -4 183 -4c16 0 159 2 182 4v-56h-107v-245h371v245h-107v56c22 -2 161 -4 183 -4
c16 0 159 2 182 4v-56h-107z" />
    <glyph glyph-name="I" unicode="I" horiz-adv-x="479" 
d="M315 630v-574h113v-56c-50 4 -136 4 -189 4s-138 0 -188 -4v56h113v574h-113v56c50 -4 136 -4 189 -4s138 0 188 4v-56h-113z" />
    <glyph glyph-name="J" unicode="J" horiz-adv-x="665" 
d="M500 630v-480c0 -99 -94 -162 -249 -162c-143 0 -215 50 -215 126c0 52 40 82 82 82c38 0 81 -27 81 -82c0 -28 -11 -50 -33 -66c34 -14 77 -14 81 -14c109 0 109 95 109 117v479h-139v56c27 -2 69 -3 96 -3c37 0 74 -1 110 -1c43 0 153 4 157 4v-56h-80z" />
    <glyph glyph-name="K" unicode="K" horiz-adv-x="1003" 
d="M544 415l301 -345c9 -11 12 -14 60 -14h39v-56c-2 0 -104 4 -147 4c-53 0 -131 0 -183 -4v56c40 0 42 0 64 6l-240 275l-123 -91v-190h107v-56c-22 2 -161 4 -183 4c-16 0 -159 -2 -182 -4v56h107v574h-107v56c22 -2 161 -4 183 -4c16 0 159 2 182 4v-56h-107v-306
l402 300c-24 6 -40 6 -58 6v56c6 0 104 -4 161 -4c45 0 106 4 107 4v-56h-27c-67 0 -74 -5 -86 -14z" />
    <glyph glyph-name="L" unicode="L" horiz-adv-x="773" 
d="M715 269l-34 -269h-624v56h107v574h-107v56c55 -4 123 -4 185 -4c35 0 71 1 107 1c24 0 77 1 100 3v-56h-134v-574h118c176 0 208 124 219 213h63z" />
    <glyph glyph-name="M" unicode="M" horiz-adv-x="1215" 
d="M607 125l264 534c13 27 31 27 50 27h230v-56h-107v-574h107v-56c-12 1 -117 4 -172 4c-45 0 -156 -3 -173 -4v56h107v571h-1l-297 -600c-13 -27 -33 -27 -42 -27c-26 0 -35 14 -42 28l-290 585h-1v-532c0 -20 1 -21 24 -23c15 -1 35 -2 50 -2h33v-56c-8 0 -104 4 -142 4
s-129 -3 -142 -4v56h33c12 0 62 0 71 6c2 2 3 3 3 19v549h-107v56h230c21 0 36 0 50 -28z" />
    <glyph glyph-name="N" unicode="N" horiz-adv-x="1001" 
d="M327 673l440 -469v401c0 20 -1 21 -24 23c-15 1 -35 2 -50 2h-33v56c8 0 104 -4 142 -4s129 3 142 4v-56h-33c-12 0 -62 0 -71 -6c-2 -2 -3 -3 -3 -19v-570c0 -30 -5 -35 -35 -35c-20 0 -23 0 -34 12l-534 569v-500c0 -20 1 -21 24 -23c15 -1 35 -2 50 -2h33v-56
c-8 0 -104 4 -142 4s-129 -3 -142 -4v56h33c12 0 62 0 71 6c2 2 3 3 3 19v549h-107v56h235c21 0 23 0 35 -13z" />
    <glyph glyph-name="O" unicode="O" horiz-adv-x="968" 
d="M892 339c0 -190 -135 -351 -409 -351c-268 0 -408 157 -408 351c0 192 134 359 409 359c269 0 408 -163 408 -359zM483 41c74 0 152 28 198 99c39 62 48 138 48 214c0 61 0 293 -246 293c-78 0 -147 -29 -189 -81c-50 -64 -56 -145 -56 -212c0 -55 4 -149 50 -217
c52 -75 133 -96 195 -96z" />
    <glyph glyph-name="P" unicode="P" horiz-adv-x="878" 
d="M315 292v-236h107v-56c-22 2 -161 4 -183 4c-16 0 -159 -2 -182 -4v56h107v574h-107v56h453c186 0 293 -90 293 -199c0 -110 -110 -195 -293 -195h-195zM476 630h-168v-287h166c166 0 166 79 166 144c0 64 0 143 -164 143z" />
    <glyph glyph-name="Q" unicode="Q" horiz-adv-x="968" 
d="M669 19c39 -50 71 -50 98 -50c65 0 85 11 88 29c1 7 3 24 22 24c22 0 22 -22 22 -29c0 -78 -51 -187 -153 -187c-100 0 -130 94 -159 191c-41 -8 -80 -9 -104 -9c-268 0 -408 157 -408 351c0 192 134 359 409 359c269 0 408 -163 408 -359c0 -99 -40 -251 -223 -320z
M373 60c-1 4 -1 6 -1 15c0 53 53 85 111 85c65 0 103 -43 140 -85c104 62 113 185 113 264c0 57 -5 144 -49 210c-52 75 -135 98 -204 98c-59 0 -144 -16 -202 -97c-48 -68 -50 -169 -50 -211c0 -76 7 -222 142 -279zM566 50c-21 47 -47 64 -83 64c-26 0 -65 -11 -65 -39
c0 -36 54 -36 66 -36c41 0 76 9 82 11z" />
    <glyph glyph-name="R" unicode="R" horiz-adv-x="959" 
d="M630 339c94 -35 102 -95 112 -162c10 -78 19 -143 84 -143c22 0 57 13 62 67c2 23 17 23 31 23s32 0 32 -25c0 -22 -16 -111 -135 -111c-231 0 -231 95 -231 175c0 72 0 96 -36 124c-41 33 -83 33 -102 33h-139v-264h107v-56c-27 2 -176 4 -179 4c-9 0 -155 -2 -179 -4
v56h107v574h-107v56h410c198 0 328 -80 328 -188c0 -97 -110 -142 -165 -159zM453 366c166 0 179 69 179 132c0 65 -14 132 -175 132h-149v-264h145z" />
    <glyph glyph-name="S" unicode="S" horiz-adv-x="718" 
d="M286 446l164 -32c96 -19 192 -96 192 -211c0 -96 -63 -215 -252 -215c-69 0 -155 9 -224 52c-11 -9 -36 -35 -47 -45c-7 -6 -9 -7 -21 -7c-23 0 -23 12 -23 32v176c0 29 3 32 32 32s30 -6 31 -26c2 -34 12 -91 82 -126c61 -29 137 -32 169 -32c151 0 151 102 151 113
c0 58 -50 96 -99 109c-8 2 -57 11 -86 16c-125 24 -173 34 -227 88c-30 31 -53 74 -53 127c0 93 68 201 249 201c57 0 124 -10 181 -48c6 -5 7 -5 8 -5s2 0 10 8l34 32c13 13 15 13 26 13c23 0 23 -12 23 -32v-176c0 -29 -3 -32 -32 -32c-28 0 -28 3 -33 29
c-24 130 -131 160 -217 160c-117 0 -147 -60 -147 -102c0 -43 36 -85 109 -99z" />
    <glyph glyph-name="T" unicode="T" horiz-adv-x="897" 
d="M822 673l24 -239h-63c-11 110 -25 183 -170 183h-89v-561h152v-56c-29 2 -76 3 -105 3c-41 0 -82 1 -123 1c-39 0 -79 -1 -119 -1c-27 0 -82 -1 -108 -3v56h152v561h-90c-145 0 -159 -74 -170 -183h-63l24 239h748z" />
    <glyph glyph-name="U" unicode="U" horiz-adv-x="984" 
d="M820 605v-375c0 -116 -86 -242 -310 -242c-239 0 -346 118 -346 243v399h-107v56c22 -2 161 -4 183 -4c16 0 159 2 182 4v-56h-107v-402c0 -70 12 -184 199 -184c114 0 235 42 235 190v371c0 20 -1 21 -24 23c-15 1 -35 2 -50 2h-33v56c10 0 104 -4 143 -4
c38 0 129 3 142 4v-56h-33c-12 0 -62 0 -71 -6c-2 -2 -3 -3 -3 -19z" />
    <glyph glyph-name="V" unicode="V" horiz-adv-x="967" 
d="M829 612l-288 -594c-11 -23 -17 -30 -50 -30h-15c-23 0 -36 0 -50 29l-297 613h-94v56c15 -1 112 -4 160 -4c54 0 130 0 183 4v-56h-88l234 -485l231 479c-26 5 -45 6 -84 6v56c5 0 104 -4 142 -4c34 0 104 3 119 4v-56h-27c-67 0 -70 -5 -76 -18z" />
    <glyph glyph-name="W" unicode="W" horiz-adv-x="1323" 
d="M1194 612l-246 -595c-10 -24 -16 -29 -49 -29c-24 0 -39 0 -51 29l-187 454l-188 -454c-12 -28 -21 -29 -50 -29c-34 0 -39 6 -49 29l-254 613h-87v56c10 0 114 -4 154 -4c32 0 164 3 180 4v-56h-91l191 -463l160 386l-32 77h-87v56c10 0 114 -4 154 -4c54 0 128 0 181 4
v-56h-92l192 -463l183 443c1 3 4 9 4 12c0 8 -73 8 -80 8h-18v56c4 0 114 -4 147 -4c37 0 73 1 110 4v-56h-23c-50 0 -65 0 -72 -18z" />
    <glyph glyph-name="X" unicode="X" horiz-adv-x="967" 
d="M543 390l276 -334h102v-56c-15 1 -103 4 -166 4c-53 0 -137 0 -187 -4v56h72l-187 227l-187 -220c29 -7 56 -7 82 -7v-56c-10 0 -105 4 -162 4c-47 0 -131 -4 -139 -4v56h39c16 0 37 1 53 2c29 2 30 3 41 15l227 266l-241 291h-102v56c14 -1 103 -4 165 -4
c53 0 138 0 188 4v-56h-72l152 -185l151 178c-30 7 -56 7 -82 7v56c10 0 105 -4 162 -4c51 0 128 4 138 4v-56h-38c-16 0 -38 -1 -54 -2c-29 -3 -30 -4 -41 -15z" />
    <glyph glyph-name="Y" unicode="Y" horiz-adv-x="967" 
d="M822 614l-267 -340v-218h107v-56c-19 1 -141 4 -179 4c-9 0 -155 -2 -179 -4v56h107v218l-279 356h-101v56c14 -1 106 -4 168 -4c52 0 142 0 191 4v-56h-75l215 -273l209 267c-24 6 -47 6 -69 6v56c17 -1 107 -4 144 -4c41 0 81 1 122 4v-56h-30c-15 0 -35 -1 -50 -2
c-24 -2 -25 -3 -34 -14z" />
    <glyph glyph-name="Z" unicode="Z" horiz-adv-x="789" 
d="M702 627l-439 -566h157c159 0 225 59 237 219h63l-20 -280h-590c-22 0 -35 0 -35 31c0 16 0 18 10 30l441 569h-142c-62 0 -216 -4 -228 -183h-63l14 239h571c21 0 35 0 35 -30c0 -15 -1 -16 -11 -29z" />
    <glyph glyph-name="bracketleft" unicode="[" horiz-adv-x="364" 
d="M331 677h-114v-854h114v-73h-187v1000h187v-73z" />
    <glyph glyph-name="quotedblleft" unicode="&#x201c;" horiz-adv-x="667" 
d="M216 483c1 0 21 17 52 17c52 0 82 -39 82 -82c0 -42 -30 -81 -81 -81c-61 0 -100 58 -100 129c0 143 114 228 131 228c11 0 25 -15 25 -25c0 -9 -6 -13 -12 -18c-40 -30 -89 -80 -97 -168zM486 483c1 0 21 17 52 17c52 0 82 -39 82 -82c0 -42 -30 -81 -81 -81
c-61 0 -100 58 -100 129c0 143 114 228 131 228c11 0 25 -15 25 -25c0 -9 -6 -13 -12 -18c-40 -30 -89 -80 -97 -168z" />
    <glyph glyph-name="bracketright" unicode="]" horiz-adv-x="364" 
d="M219 750v-1000h-187v73h114v854h-114v73h187z" />
    <glyph glyph-name="circumflex" unicode="&#x2c6;" 
d="M323 694l176 -122l-34 -53l-142 82l-142 -82l-34 53z" />
    <glyph glyph-name="dotaccent" unicode="&#x2d9;" horiz-adv-x="363" 
d="M263 613c0 -43 -36 -81 -82 -81c-45 0 -82 36 -82 82c0 43 36 81 82 81c45 0 82 -36 82 -82z" />
    <glyph glyph-name="quoteleft" unicode="&#x2018;" horiz-adv-x="363" 
d="M129 483c1 0 21 17 52 17c52 0 82 -39 82 -82c0 -42 -30 -81 -81 -81c-61 0 -100 58 -100 129c0 143 114 228 131 228c11 0 25 -15 25 -25c0 -9 -6 -13 -12 -18c-40 -30 -89 -80 -97 -168z" />
    <glyph glyph-name="a" unicode="a" horiz-adv-x="629" 
d="M528 295v-208c0 -23 0 -31 60 -31c21 0 36 0 36 -28s-16 -28 -35 -28h-59c-82 0 -109 25 -109 68c-17 -26 -64 -74 -170 -74c-100 0 -210 28 -210 121c0 148 311 152 360 152v27c0 85 -52 113 -122 113c-7 0 -71 -2 -71 -7c0 -2 1 -4 3 -7c3 -3 12 -18 12 -40
c0 -38 -26 -69 -70 -69c-37 0 -69 26 -69 70c0 99 140 99 198 99c180 0 246 -76 246 -158zM401 137v91c-100 -3 -234 -30 -234 -112c0 -45 48 -76 104 -76c6 0 53 0 91 23c39 24 39 53 39 74z" />
    <glyph glyph-name="b" unicode="b" horiz-adv-x="718" 
d="M242 694v-289c45 28 101 45 165 45c174 0 263 -106 263 -227c0 -132 -105 -229 -277 -229c-33 0 -99 4 -166 61c-9 -11 -29 -39 -38 -50c-5 -4 -6 -5 -22 -5h-45v591c0 39 -8 39 -67 39v56zM249 341v-229c33 -47 78 -72 132 -72c150 0 150 123 150 185
c0 61 0 179 -138 179c-63 0 -116 -29 -144 -63z" />
    <glyph glyph-name="c" unicode="c" horiz-adv-x="576" 
d="M535 114c0 -6 -15 -55 -72 -89c-40 -23 -91 -31 -140 -31c-189 0 -276 111 -276 228c0 93 59 231 282 231c58 0 192 -3 192 -99c0 -42 -29 -70 -70 -70c-39 0 -69 28 -69 69c0 22 9 37 11 40c1 1 2 2 2 4c0 4 -57 5 -63 5c-134 0 -146 -101 -146 -176
c0 -41 0 -181 161 -181c77 0 109 38 124 71c7 15 9 16 32 16c15 0 32 0 32 -18z" />
    <glyph glyph-name="d" unicode="d" horiz-adv-x="718" 
d="M408 686l187 8v-599c0 -39 8 -39 67 -39v-56l-194 -6v48c-40 -28 -93 -48 -157 -48c-171 0 -264 103 -264 227c0 127 98 229 277 229c33 0 89 -4 151 -42v183c0 39 -8 39 -67 39v56zM468 116v228c-3 4 -48 60 -132 60c-150 0 -150 -123 -150 -185c0 -59 0 -179 137 -179
c73 0 122 43 145 76z" />
    <glyph glyph-name="e" unicode="e" horiz-adv-x="592" 
d="M516 208h-337c2 -46 7 -163 165 -163c17 0 108 0 144 74c8 16 13 17 31 17c10 0 32 0 32 -22c0 -10 -18 -58 -77 -89c-50 -27 -108 -31 -144 -31c-198 0 -290 112 -290 231c0 118 88 228 273 228c55 0 129 -8 183 -62c48 -49 55 -124 55 -153c0 -30 -14 -30 -35 -30z
M179 250h273c-2 43 -9 157 -138 157s-134 -118 -135 -157z" />
    <glyph glyph-name="f" unicode="f" horiz-adv-x="398" 
d="M255 388v-332h84v-56c-7 0 -104 4 -143 4c-47 0 -124 -4 -128 -4v56h67v332h-83v56h83v96c0 113 114 160 230 160c85 0 126 -48 126 -94s-36 -69 -69 -69c-29 0 -68 21 -68 69c0 20 8 35 12 41c2 2 3 4 3 5s0 2 -11 2c-110 0 -110 -99 -110 -116v-94h135v-56h-128z" />
    <glyph glyph-name="g" unicode="g" 
d="M238 89h54c102 0 168 0 228 -27c83 -39 86 -111 86 -131c0 -79 -99 -132 -283 -132c-213 0 -283 69 -283 129c0 52 55 77 90 85c-26 26 -40 59 -40 96c0 31 9 60 32 88c-18 15 -53 47 -53 104c0 64 55 149 218 149c24 0 87 0 146 -32c30 22 75 38 116 38
c50 0 75 -36 75 -67c0 -34 -28 -51 -51 -51c-20 0 -50 15 -50 51c0 6 1 14 3 19c-21 -2 -44 -9 -60 -15c9 -8 40 -42 40 -93c0 -61 -50 -149 -219 -149c-21 0 -79 0 -131 25c-7 -9 -7 -20 -7 -26c0 -24 13 -39 23 -47c17 -14 31 -14 66 -14zM287 197c100 0 100 63 100 104
c0 40 0 103 -100 103c-99 0 -99 -64 -99 -104c0 -39 0 -103 99 -103zM353 -19h-133c-13 0 -82 0 -82 -52c0 -37 48 -84 185 -84c143 0 185 50 185 83c0 53 -130 53 -155 53z" />
    <glyph glyph-name="h" unicode="h" horiz-adv-x="718" 
d="M612 301v-245h67v-56c-1 0 -82 4 -131 4c-48 0 -129 -4 -130 -4v56h67v253c0 72 -19 95 -63 95c-60 0 -164 -39 -164 -155v-193h67v-56c-1 0 -82 4 -131 4c-48 0 -129 -4 -130 -4v56h67v535c0 39 -8 39 -67 39v56l187 8v-338c23 34 79 94 190 94c92 0 171 -26 171 -149z
" />
    <glyph glyph-name="i" unicode="i" horiz-adv-x="363" 
d="M262 613c0 -42 -34 -81 -82 -81c-42 0 -81 34 -81 82c0 42 34 81 82 81c42 0 81 -34 81 -82zM70 442l184 8v-394h61v-56c-41 3 -81 4 -122 4c-45 0 -124 -4 -126 -4v56h67v291c0 39 -7 39 -64 39v56z" />
    <glyph glyph-name="j" unicode="j" horiz-adv-x="398" 
d="M304 613c0 -42 -34 -81 -82 -81c-42 0 -81 34 -81 82c0 42 34 81 82 81c42 0 81 -34 81 -82zM110 442l194 8v-488c0 -114 -111 -162 -201 -162c-85 0 -158 30 -158 99c0 38 28 69 70 69c38 0 69 -28 69 -69c0 -22 -9 -37 -12 -40c-2 -3 -4 -6 -4 -8c0 -3 30 -5 34 -5
c53 0 82 51 82 118v382c0 40 -8 40 -74 40v56z" />
    <glyph glyph-name="k" unicode="k" horiz-adv-x="682" 
d="M242 242l183 131c3 2 10 7 12 9c-4 3 -7 6 -20 6v56c5 0 85 -4 129 -4c27 0 55 2 82 4v-56c-72 0 -78 -4 -92 -14l-143 -102l182 -198c12 -12 14 -14 21 -15c9 -3 30 -3 60 -3v-56c-36 3 -71 4 -107 4c-43 0 -87 -2 -130 -4v56c8 0 21 0 21 6c0 1 -1 2 -9 11l-126 137
l-69 -49v-105h67v-56c-1 0 -76 4 -124 4c-43 0 -118 -4 -124 -4v56h67v533c0 41 -6 41 -67 41v56l187 8v-452z" />
    <glyph glyph-name="l" unicode="l" horiz-adv-x="363" 
d="M254 694v-638h67v-56c-3 0 -78 4 -127 4c-46 0 -124 -4 -127 -4v56h67v535c0 39 -8 39 -67 39v56z" />
    <glyph glyph-name="m" unicode="m" horiz-adv-x="1073" 
d="M968 301v-245h67v-56c-1 0 -82 4 -131 4c-48 0 -129 -4 -130 -4v56h67v252c0 74 -19 96 -64 96c-57 0 -164 -37 -164 -155v-193h67v-56c-1 0 -82 4 -131 4c-48 0 -129 -4 -130 -4v56h67v252c0 74 -19 96 -64 96c-57 0 -164 -37 -164 -155v-193h67v-56c-1 0 -82 4 -131 4
c-48 0 -129 -4 -130 -4v56h67v291c0 39 -8 39 -67 39v56l181 8v-104c20 34 77 104 197 104c54 0 140 -7 165 -94c33 49 94 94 190 94c88 0 171 -24 171 -149z" />
    <glyph glyph-name="n" unicode="n" horiz-adv-x="718" 
d="M612 301v-245h67v-56c-1 0 -82 4 -131 4c-48 0 -129 -4 -130 -4v56h67v253c0 72 -19 95 -63 95c-60 0 -164 -39 -164 -155v-193h67v-56c-1 0 -82 4 -131 4c-48 0 -129 -4 -130 -4v56h67v291c0 39 -8 39 -67 39v56l181 8v-104c19 32 75 104 196 104c92 0 171 -26 171 -149
z" />
    <glyph glyph-name="o" unicode="o" 
d="M606 218c0 -116 -88 -224 -283 -224c-194 0 -283 107 -283 224c0 118 85 235 283 235c196 0 283 -116 283 -235zM323 45c144 0 144 99 144 185c0 80 0 177 -144 177s-144 -97 -144 -177c0 -86 0 -185 144 -185z" />
    <glyph glyph-name="p" unicode="p" horiz-adv-x="718" 
d="M316 -138v-56c-1 0 -82 4 -131 4c-48 0 -129 -4 -130 -4v56h67v489c0 19 0 30 -17 33c-13 2 -33 2 -50 2v56l187 8v-46c58 36 119 46 171 46c170 0 257 -106 257 -227c0 -132 -105 -229 -277 -229c-70 0 -119 26 -144 43v-175h67zM249 320v-209c12 -17 55 -71 131 -71
s151 53 151 183c0 108 -54 176 -139 176c-21 0 -80 -4 -128 -46c-14 -13 -15 -14 -15 -33z" />
    <glyph glyph-name="q" unicode="q" horiz-adv-x="682" 
d="M596 450v-588h67v-56c-1 0 -82 4 -131 4c-48 0 -129 -4 -130 -4v56h67v183c-42 -31 -95 -51 -157 -51c-174 0 -265 106 -265 227c0 131 103 229 274 229c68 0 126 -25 173 -77l46 77h56zM476 134v135c0 53 -55 130 -139 130c-76 0 -151 -52 -151 -178
c0 -121 63 -181 138 -181c62 0 118 34 152 94z" />
    <glyph glyph-name="r" unicode="r" horiz-adv-x="534" 
d="M242 210v-154h84v-56c-7 0 -104 4 -143 4c-47 0 -124 -4 -128 -4v56h67v291c0 39 -8 39 -67 39v56l174 8v-110h1c27 62 75 110 147 110c62 0 118 -34 118 -89c0 -39 -28 -68 -68 -68s-68 29 -68 68c0 25 13 42 14 43c-90 -5 -131 -104 -131 -194z" />
    <glyph glyph-name="s" unicode="s" horiz-adv-x="512" 
d="M432 421v-69c0 -29 -3 -32 -32 -32c-23 0 -29 2 -31 22c-3 24 -7 70 -120 70c-21 0 -121 0 -121 -56c0 -40 59 -49 116 -58c83 -13 126 -20 173 -59c23 -19 47 -51 47 -97c0 -148 -172 -148 -205 -148c-23 0 -77 0 -129 29c-6 -4 -22 -13 -28 -16
c-21 -13 -23 -13 -32 -13c-23 0 -23 12 -23 32v98c0 29 3 32 32 32c25 0 26 -2 32 -19c19 -54 54 -97 149 -97c24 0 123 0 123 68c0 52 -73 63 -134 72c-70 11 -202 31 -202 139c0 23 8 75 65 107c50 27 111 27 140 27c21 0 63 0 104 -13c4 -2 6 -2 7 -2c4 0 17 6 19 7
c16 8 19 8 26 8c24 0 24 -12 24 -32z" />
    <glyph glyph-name="t" unicode="t" horiz-adv-x="505" 
d="M245 388v-267c0 -27 1 -76 59 -76c20 0 62 11 62 80v48h63v-52c0 -81 -64 -127 -143 -127c-87 0 -168 28 -168 127v267h-90v46c106 3 153 108 154 201h63v-191h163v-56h-163z" />
    <glyph glyph-name="u" unicode="u" horiz-adv-x="718" 
d="M418 442l194 8v-355c0 -39 8 -39 67 -39v-56l-187 -6v71c-57 -71 -131 -71 -164 -71c-86 0 -197 11 -197 127v226c0 39 -8 39 -67 39v56l194 8v-340c0 -48 1 -70 87 -70c76 0 140 39 140 122v185c0 39 -8 39 -67 39v56z" />
    <glyph glyph-name="v" unicode="v" horiz-adv-x="682" 
d="M573 371l-179 -349c-14 -26 -23 -28 -53 -28s-40 2 -53 28l-187 366h-65v56c39 -3 78 -4 117 -4c43 0 87 2 130 4v-56h-47l137 -269l134 263c-12 4 -18 6 -44 6v56c30 -3 69 -4 99 -4c32 0 53 2 84 4v-56c-7 0 -32 0 -44 -1c-21 -2 -22 -3 -29 -16z" />
    <glyph glyph-name="w" unicode="w" horiz-adv-x="931" 
d="M829 369l-151 -348c-12 -27 -27 -27 -50 -27c-24 0 -39 0 -51 28l-112 259l-112 -260c-12 -27 -29 -27 -51 -27c-23 0 -38 0 -50 27l-159 367h-60v56c6 0 74 -4 112 -4c43 0 87 2 130 4v-56h-51l110 -252l92 212c1 2 4 9 4 12s0 5 -11 28h-60v56c30 -3 71 -4 101 -4
c42 0 115 4 118 4v-56h-50l120 -277l117 271c-16 4 -24 6 -54 6v56c35 -3 69 -4 104 -4c27 0 55 2 82 4v-56c-20 0 -28 0 -43 -2c-17 -2 -18 -3 -25 -17z" />
    <glyph glyph-name="x" unicode="x" horiz-adv-x="682" 
d="M395 242l179 -186h74v-56c-37 3 -75 4 -112 4c-46 0 -126 -4 -127 -4v56h26l-111 115l-108 -108c7 -5 11 -7 27 -7v-56c-13 1 -84 4 -111 4c-32 0 -65 -1 -97 -4v56c5 0 40 0 56 1c31 2 32 3 45 15l144 145l-164 171h-75v56c38 -3 75 -4 113 -4c42 0 121 4 127 4v-56h-27
l97 -101l94 95c-7 4 -14 6 -27 6v56c8 -1 77 -4 111 -4c32 0 65 1 97 4v-56c-43 0 -69 0 -93 -7z" />
    <glyph glyph-name="y" unicode="y" horiz-adv-x="682" 
d="M571 369l-227 -440c-45 -87 -123 -129 -197 -129c-66 0 -118 44 -118 100c0 43 32 65 65 65s65 -22 65 -65c0 -22 -9 -41 -26 -53c4 -1 6 -1 15 -1c35 0 89 18 122 78c3 5 33 63 39 76l-207 388h-66v56c3 0 73 -4 118 -4c47 0 128 4 131 4v-56h-46l138 -258l129 252
c-15 5 -19 6 -43 6v56c30 -3 69 -4 99 -4c28 0 56 2 84 4v-56c-4 0 -33 0 -45 -1c-21 -3 -22 -4 -30 -18z" />
    <glyph glyph-name="z" unicode="z" horiz-adv-x="576" 
d="M504 393l-299 -342h90c118 0 150 44 160 152h63l-20 -203h-423c-19 0 -35 0 -35 28c0 12 0 14 12 27l298 343h-83c-93 0 -139 -22 -147 -130h-63l14 176h408c18 0 35 0 35 -26c0 -8 0 -14 -10 -25z" />
    <glyph glyph-name="endash" unicode="&#x2013;" 
d="M642 251h-638v46h638v-46z" />
    <glyph glyph-name="emdash" unicode="&#x2014;" horiz-adv-x="1294" 
d="M1285 251h-1277v46h1277v-46z" />
    <glyph glyph-name="hungarumlaut" unicode="&#x2dd;" 
d="M307 591l-100 -83l-51 38l51 122c5 12 22 43 57 43c33 0 72 -30 72 -68c0 -28 -18 -43 -29 -52zM369 546l51 122c5 12 22 43 57 43c33 0 72 -30 72 -68c0 -28 -18 -43 -29 -52l-100 -83z" />
    <glyph glyph-name="tilde" unicode="&#x2dc;" 
d="M503 694l32 -33c-86 -84 -102 -99 -146 -99c-27 0 -51 10 -75 21c-36 16 -56 23 -80 23c-41 0 -74 -27 -91 -44l-32 33c86 84 102 99 146 99c27 0 51 -10 75 -21c36 -16 56 -23 80 -23c41 0 74 27 91 44z" />
    <glyph glyph-name="dieresis" unicode="&#xa8;" 
d="M274 620c0 -44 -35 -75 -75 -75c-41 0 -75 35 -75 75s34 75 75 75c40 0 75 -31 75 -75zM522 620c0 -40 -34 -75 -75 -75c-40 0 -75 31 -75 75s35 75 75 75c41 0 75 -35 75 -75z" />
    <glyph glyph-name="space" unicode=" " horiz-adv-x="434" 
 />
  </font>
</defs>
</svg>
