<?xml version="1.0" standalone="no"?>
<!DOCTYPE svg PUBLIC "-//W3C//DTD SVG 1.1//EN" "http://www.w3.org/Graphics/SVG/1.1/DTD/svg11.dtd" >
<svg>
<metadata>
Created by FontForge 20060822 at Fri Oct  6 18:21:01 2006
 By Wojciech Mula,,,
Copyright (C) 1997 American Mathematical Society. All Rights Reserved
</metadata>
<defs>
<font id="CMBX12" horiz-adv-x="562" >
  <font-face 
    font-family="Computer Modern"
    font-weight="700"
    font-stretch="normal"
    units-per-em="1000"
    panose-1="2 0 8 3 0 0 0 0 0 0"
    ascent="800"
    descent="-200"
    x-height="444"
    cap-height="686"
    bbox="-53 -251 1139 750"
    underline-thickness="0"
    underline-position="0"
    stemh="43"
    stemv="109"
    unicode-range="U+0020-U+FB04"
  />
    <missing-glyph />
    <glyph glyph-name="ff" unicode="ff" horiz-adv-x="656" 
d="M520 401v-358h87v-43c-24 2 -105 2 -134 2c-28 0 -103 0 -126 -2v43h69v358h-208v-358h69v-43c-23 2 -94 2 -121 2s-98 0 -121 -2v43h69v358h-74v43h74v101c0 119 146 155 264 155c17 0 75 0 115 -34c49 30 104 34 135 34c71 0 107 -42 107 -83c0 -44 -36 -59 -58 -59
c-26 0 -58 18 -58 58c0 21 9 38 24 48c-6 2 -8 3 -19 3c-33 0 -99 -16 -99 -120v-103h119v-43h-114zM203 444h213v115c-14 11 -20 27 -20 45c0 30 20 47 31 52c-8 3 -32 11 -67 11c-52 0 -157 -15 -157 -123v-100z" />
    <glyph glyph-name="fi" unicode="fi" horiz-adv-x="625" 
d="M347 448l173 5v-410h69v-43c-23 2 -94 2 -121 2s-98 0 -121 -2v43h69v322c0 35 -6 36 -31 36h-177v-358h69v-43c-23 2 -94 2 -121 2s-98 0 -121 -2v43h69v358h-74v43h74v101c0 121 152 155 266 155c101 0 146 -58 146 -113c0 -38 -28 -61 -61 -61c-34 0 -61 24 -61 61
c0 26 13 50 44 60c-30 20 -66 20 -77 20c-40 0 -158 -10 -158 -123v-100h144v4z" />
    <glyph glyph-name="fl" unicode="fl" horiz-adv-x="625" 
d="M520 694v-651h69v-43c-23 2 -94 2 -121 2s-98 0 -121 -2v43h69v358h-208v-358h69v-43c-23 2 -94 2 -121 2s-98 0 -121 -2v43h69v358h-74v43h74v101c0 117 141 155 265 155c11 0 44 0 71 -8c10 -3 12 -3 15 -3c4 0 56 4 65 5zM203 444h213v128c-20 15 -20 38 -20 44
c0 15 4 29 15 40c3 3 3 4 3 5c0 5 -46 6 -52 6c-71 0 -159 -24 -159 -123v-100z" />
    <glyph glyph-name="ffi" unicode="ffi" horiz-adv-x="937" 
d="M659 448l173 5v-410h69v-43c-23 2 -94 2 -121 2s-98 0 -121 -2v43h69v322c0 35 -6 36 -31 36h-177v-358h69v-43c-23 2 -94 2 -121 2s-98 0 -121 -2v43h69v358h-208v-358h69v-43c-23 2 -94 2 -121 2s-98 0 -121 -2v43h69v358h-74v43h74v101c0 121 150 155 263 155
c18 0 76 0 118 -44c54 31 117 44 197 44c101 0 146 -58 146 -113c0 -38 -28 -61 -61 -61c-34 0 -61 24 -61 61c0 26 13 50 44 60c-30 20 -66 20 -77 20c-40 0 -158 -10 -158 -123v-100h144v4zM203 444h213v92c-19 11 -27 30 -27 51c0 30 15 51 45 60c-27 18 -59 20 -76 20
c-80 0 -155 -34 -155 -123v-100z" />
    <glyph glyph-name="ffl" unicode="ffl" horiz-adv-x="937" 
d="M832 694v-651h69v-43c-23 2 -94 2 -121 2s-98 0 -121 -2v43h69v358h-208v-358h69v-43c-23 2 -94 2 -121 2s-98 0 -121 -2v43h69v358h-208v-358h69v-43c-23 2 -94 2 -121 2s-98 0 -121 -2v43h69v358h-74v43h74v101c0 121 150 155 263 155c19 0 83 0 122 -40
c69 37 149 40 192 40c11 0 44 0 71 -8c10 -3 12 -3 15 -3c4 0 56 4 65 5zM203 444h213v115c-10 7 -20 22 -20 45c0 27 16 45 31 52c-8 3 -32 11 -67 11c-52 0 -157 -14 -157 -123v-100zM728 444v128c-20 15 -20 38 -20 44c0 15 4 29 15 40c3 3 3 4 3 5c0 5 -46 6 -52 6
c-71 0 -159 -24 -159 -123v-100h213z" />
    <glyph glyph-name="Gamma" unicode="&#x393;" horiz-adv-x="675" 
d="M599 681l29 -237h-42c-14 120 -35 194 -190 194h-120v-595h133v-43c-49 2 -138 2 -191 2c-37 0 -151 0 -180 -2v43h106v595h-106v43h561z" />
    <glyph glyph-name="Delta" unicode="&#x394;" horiz-adv-x="937" 
d="M507 679l369 -655c2 -4 5 -10 5 -14c0 -10 -8 -10 -24 -10h-778c-16 0 -24 0 -24 10c0 4 3 10 5 14l371 657c10 18 19 19 37 19c16 0 27 0 39 -21zM419 566l-256 -454h511z" />
    <glyph glyph-name="Theta" unicode="&#x398;" horiz-adv-x="875" 
d="M812 340c0 -205 -139 -352 -375 -352c-235 0 -375 146 -375 352c0 207 139 358 375 358s375 -150 375 -358zM437 23c67 0 144 26 191 97c48 71 52 161 52 220c0 102 -16 170 -53 227c-36 57 -105 98 -190 98c-78 0 -150 -36 -190 -97c-42 -65 -53 -140 -53 -228
c0 -74 7 -166 64 -238c35 -42 97 -79 179 -79zM617 434v-180h-42v34h-276v-34h-42v180h42v-34h276v34h42z" />
    <glyph glyph-name="Lambda" unicode="&#x39b;" horiz-adv-x="787" 
d="M426 677l238 -634h84v-43c-24 2 -122 2 -153 2c-38 0 -135 0 -167 -2v43h95l-176 469l-166 -444c-1 -3 -5 -12 -5 -14c27 -11 70 -11 90 -11v-43c-23 2 -92 2 -120 2c-54 0 -65 0 -108 -2v43c84 0 87 7 93 24l229 610c6 17 9 23 33 23s27 -6 33 -23z" />
    <glyph glyph-name="Xi" unicode="&#x39e;" horiz-adv-x="750" 
d="M687 677l9 -190h-42c-2 59 -9 70 -13 77c-6 9 -71 9 -82 9h-369c-1 0 -74 0 -81 -8c-12 -14 -13 -59 -14 -78h-42l9 190h625zM56 0l-9 201h42c3 -44 4 -72 13 -85c7 -12 60 -12 86 -12h373c9 0 76 0 85 9c10 11 11 44 14 88h42l-9 -201h-637zM593 457v-210h-42v53h-353
v-53h-42v210h42v-53h353v53h42z" />
    <glyph glyph-name="Pi" unicode="&#x3a0;" horiz-adv-x="879" 
d="M735 638v-595h106v-43c-29 2 -136 2 -172 2s-143 0 -172 -2v43h106v595h-327v-595h106v-43c-29 2 -136 2 -172 2s-143 0 -172 -2v43h106v595h-106v43h803v-43h-106z" />
    <glyph glyph-name="Sigma" unicode="&#x3a3;" horiz-adv-x="812" 
d="M460 326l-289 -266h276c142 0 240 21 260 194h42l-29 -254h-629c-13 0 -29 0 -29 15c0 6 7 13 11 17l278 256l-289 366c0 28 1 32 29 32h629l29 -237h-42c-21 169 -111 194 -256 194h-213l225 -285c8 -10 8 -12 8 -15c0 -7 -3 -9 -11 -17z" />
    <glyph glyph-name="Upsilon" unicode="&#x3a5;" horiz-adv-x="875" 
d="M503 346v-303h133v-43c-49 2 -145 2 -199 2s-150 0 -199 -2v43h133v303c0 42 -8 110 -37 163c-45 83 -106 83 -134 83c-70 0 -89 -16 -92 -39c-2 -17 -6 -19 -23 -19c-13 0 -23 0 -23 20c0 62 53 144 148 144c89 0 185 -60 226 -229h1c41 165 135 229 227 229
c95 0 148 -82 148 -144c0 -20 -10 -20 -23 -20c-17 0 -21 2 -23 18c-3 20 -15 40 -92 40c-26 0 -84 0 -128 -74c-43 -70 -43 -157 -43 -172z" />
    <glyph glyph-name="Phi" unicode="&#x3a6;" horiz-adv-x="812" 
d="M596 643h-133v-105c233 -17 286 -129 286 -195s-53 -178 -286 -195v-105h133v-43c-42 2 -148 2 -195 2s-152 0 -194 -2v43h133v105c-199 17 -278 109 -278 195c0 85 78 178 278 195v105h-133v43c42 -2 148 -2 195 -2s152 0 194 2v-43zM340 183v320
c-126 -17 -142 -90 -142 -160s17 -143 142 -160zM463 504v-322c128 15 150 83 150 161s-22 146 -150 161z" />
    <glyph glyph-name="Psi" unicode="&#x3a8;" horiz-adv-x="875" 
d="M494 643v-456c92 23 130 100 131 218c1 91 19 145 88 145h70c17 0 29 0 29 -17c0 -13 -9 -15 -20 -16c-43 -6 -44 -81 -44 -121c0 -28 -10 -111 -61 -165s-120 -76 -193 -82v-106h133v-43c-42 2 -148 2 -195 2s-152 0 -194 -2v43h133v106c-34 4 -125 14 -185 82
c-59 66 -60 150 -60 192c0 2 -1 40 -13 68c-10 23 -24 24 -38 26c-9 2 -13 9 -13 16c0 17 14 17 29 17h70c55 0 87 -35 88 -135c1 -126 32 -199 122 -227v455h-133v43c42 -2 148 -2 195 -2s152 0 194 2v-43h-133z" />
    <glyph glyph-name="Omega" unicode="&#x3a9;" horiz-adv-x="812" 
d="M761 192l-34 -192h-189c-21 0 -29 0 -29 24c0 71 31 161 49 212c25 75 50 147 50 221c0 92 -31 131 -50 153c-3 3 -50 55 -153 55c-58 0 -109 -16 -151 -54c-12 -12 -51 -55 -51 -154c0 -70 23 -142 43 -199c28 -82 56 -164 56 -234c0 -24 -6 -24 -29 -24h-189l-34 192
h42c3 -19 11 -61 18 -77c4 -10 8 -20 67 -20h75c-18 44 -35 69 -83 131c-54 72 -107 141 -107 231c0 108 87 241 344 241c251 0 343 -129 343 -241c0 -90 -53 -159 -107 -231c-46 -60 -65 -87 -83 -131h75c60 0 63 9 68 23c6 16 13 50 17 74h42z" />
    <glyph glyph-name="dotlessi" unicode="&#x131;" horiz-adv-x="312" 
d="M217 450v-407h62v-43c-24 2 -88 2 -116 2c-27 0 -96 0 -119 -2v43h69v317c0 39 -7 39 -66 39v43z" />
    <glyph glyph-name="dotlessj" unicode="&#xf6be;" horiz-adv-x="343" 
d="M78 442l180 8v-495c0 -103 -93 -155 -177 -155c-72 0 -134 30 -134 88c0 35 25 59 59 59c33 0 59 -23 59 -59c0 -30 -20 -46 -25 -49c9 -2 22 -6 41 -6c61 0 73 77 73 122v404c0 21 0 34 -22 38c-15 2 -37 2 -54 2v43z" />
    <glyph glyph-name="grave" unicode="`" 
d="M216 679l112 -136l-27 -32l-156 86c-7 4 -31 19 -31 47c0 30 28 60 58 60c24 0 37 -17 44 -25z" />
    <glyph glyph-name="acute" unicode="&#xb4;" 
d="M411 595l-151 -84l-27 33l113 136c6 7 20 24 43 24c30 0 58 -30 58 -60c0 -29 -23 -42 -36 -49z" />
    <glyph glyph-name="caron" unicode="&#x2c7;" 
d="M280 595l130 55l20 -37l-150 -94l-149 95l20 36z" />
    <glyph glyph-name="breve" unicode="&#x2d8;" 
d="M420 694h33c-3 -116 -88 -184 -172 -184c-88 0 -170 71 -173 184h33c3 -85 76 -126 140 -126c60 0 136 39 139 126z" />
    <glyph glyph-name="macron" unicode="&#xaf;" 
d="M483 557h-405v48h405v-48z" />
    <glyph glyph-name="ring" unicode="&#x2da;" horiz-adv-x="849" 
d="M539 619c0 -37 -29 -83 -115 -83c-76 0 -114 39 -114 84c0 41 34 83 114 83c82 0 115 -42 115 -84zM425 569c38 0 72 3 72 51c0 49 -39 50 -73 50c-38 0 -72 -3 -72 -51c0 -49 39 -50 73 -50z" />
    <glyph glyph-name="cedilla" unicode="&#xb8;" horiz-adv-x="500" 
d="M335 -12v-22c41 -6 94 -24 94 -78c0 -61 -79 -74 -133 -81c-59 -7 -129 -4 -163 -6v33c7 1 14 1 23 1h28c24 0 136 0 136 52c0 31 -30 51 -94 52v49h109z" />
    <glyph glyph-name="germandbls" unicode="&#xdf;" horiz-adv-x="574" 
d="M390 424c101 -37 152 -137 152 -244c0 -127 -98 -186 -200 -186c-65 0 -102 42 -102 83c0 40 34 48 47 48c25 0 47 -19 47 -47c0 -30 -25 -42 -26 -43c8 -5 13 -8 31 -8c91 0 91 116 91 152c0 42 0 221 -137 232c-17 1 -22 1 -22 16c0 16 5 16 19 17c93 6 109 64 109 120
c0 26 0 103 -94 103c-97 0 -97 -79 -97 -107v-560c-17 2 -38 2 -73 2c-25 0 -77 0 -100 -2v43h69v358h-69v43h69v113c0 96 86 143 202 143c147 0 205 -71 205 -137c0 -37 -17 -104 -121 -139z" />
    <glyph glyph-name="ae" unicode="&#xe6;" horiz-adv-x="812" 
d="M751 221h-291c0 -43 2 -191 150 -191c44 0 103 22 127 85c4 13 6 17 22 17c6 0 21 0 21 -15c0 -19 -44 -123 -181 -123c-31 0 -117 4 -183 66c-45 -52 -131 -66 -195 -66c-102 0 -183 32 -183 106c0 136 247 145 313 147v53c0 81 -39 120 -109 120c-19 0 -43 0 -76 -9
c17 -11 24 -29 24 -48c0 -38 -29 -59 -59 -59c-27 0 -59 18 -59 60c0 84 118 89 174 89c30 0 117 0 176 -56c45 39 104 56 164 56c152 0 194 -109 194 -207c0 -25 -6 -25 -29 -25zM460 250h228c-2 50 -7 170 -103 170c-26 0 -70 -10 -98 -52c-19 -30 -25 -68 -27 -118z
M351 217c-33 -2 -202 -11 -202 -116c0 -39 35 -74 87 -74c77 0 134 49 134 98c0 2 0 4 -3 12c-9 21 -15 48 -16 80z" />
    <glyph glyph-name="oe" unicode="&#x153;" horiz-adv-x="875" 
d="M814 221h-291c0 -43 2 -191 150 -191c44 0 103 22 127 85c4 13 6 17 22 17c6 0 21 0 21 -15c0 -19 -44 -123 -181 -123c-21 0 -123 0 -192 77c-9 -10 -66 -77 -193 -77c-153 0 -246 96 -246 230s93 229 246 229c71 0 143 -22 191 -74c55 62 129 74 181 74
c152 0 194 -109 194 -207c0 -25 -6 -25 -29 -25zM523 250h228c-2 50 -7 170 -103 170c-26 0 -70 -10 -98 -52c-19 -30 -25 -68 -27 -118zM278 27c31 0 83 11 112 62c24 43 24 100 24 139c0 40 0 96 -25 135c-30 45 -75 57 -111 57c-136 0 -136 -132 -136 -192
c0 -58 0 -201 136 -201z" />
    <glyph glyph-name="oslash" unicode="&#xf8;" 
d="M490 533l-70 -114c98 -55 110 -152 110 -200c0 -126 -87 -225 -250 -225c-35 0 -76 6 -109 18l-72 -118l-27 18l69 114c-79 42 -110 119 -110 193c0 130 87 234 250 234c32 0 72 -5 110 -19l70 117zM170 74l196 321c-25 17 -56 25 -85 25c-50 0 -93 -21 -114 -55
c-27 -41 -27 -95 -27 -145c0 -58 0 -106 30 -146zM391 371l-196 -320v-1c16 -10 46 -23 85 -23c141 0 141 119 141 193c0 50 0 109 -30 151z" />
    <glyph glyph-name="AE" unicode="&#xc6;" horiz-adv-x="1018" 
d="M987 270l-43 -270h-552v43h80v265h-179l-99 -240c-1 -3 -4 -9 -4 -12c0 -13 78 -13 88 -13v-43c-23 2 -96 2 -124 2c-29 0 -89 0 -115 -2v43h19c22 0 27 0 52 3c26 4 27 4 34 22l238 575h-79v43h624l29 -237h-42c-14 119 -35 194 -191 194h-128v-292h67
c97 0 107 42 107 117h42v-277h-42c0 75 -10 117 -107 117h-67v-265h132c168 0 197 83 218 227h42zM432 643l-121 -292h161v292h-40z" />
    <glyph glyph-name="OE" unicode="&#x152;" horiz-adv-x="1143" 
d="M1112 270l-43 -270h-435c-31 0 -88 -6 -97 -7c-45 -5 -78 -5 -81 -5c-235 0 -375 146 -375 352c0 207 139 358 375 358c28 0 68 -3 101 -7c26 -3 51 -5 77 -5h418l29 -237h-42c-14 119 -37 194 -196 194h-148v-265h94c92 0 121 26 121 117h42v-277h-42
c0 91 -29 117 -121 117h-94v-292h150c172 0 204 81 225 227h42zM581 195v296c0 149 -33 174 -122 174c-129 0 -242 -97 -242 -310c0 -218 105 -334 243 -334c89 0 121 26 121 174z" />
    <glyph glyph-name="Oslash" unicode="&#xd8;" horiz-adv-x="875" 
d="M728 725l-63 -90c97 -61 147 -174 147 -295c0 -205 -139 -352 -375 -352c-96 0 -158 25 -198 43l-64 -90l-29 21l62 88c-106 68 -146 184 -146 290c0 207 139 358 375 358c90 0 152 -22 197 -44l64 91zM248 106l353 501c-45 40 -104 58 -164 58c-73 0 -155 -27 -200 -103
c-41 -68 -43 -150 -43 -222c0 -77 3 -170 54 -234zM626 579l-353 -500c63 -58 147 -58 164 -58c40 0 134 8 193 89c50 69 50 167 50 230c0 72 -2 170 -54 239z" />
    <glyph glyph-name="suppress" horiz-adv-x="312" 
d="M312 360l-284 -81l-11 41l284 82z" />
    <glyph glyph-name="exclam" unicode="!" horiz-adv-x="342" 
d="M241 613l-48 -374c-2 -19 -3 -22 -22 -22s-20 3 -22 22l-48 374c-2 14 -2 16 -2 27c0 44 41 66 72 66s72 -21 72 -66c0 -11 0 -13 -2 -27zM243 72c0 -40 -32 -72 -72 -72s-72 32 -72 72s32 72 72 72s72 -32 72 -72z" />
    <glyph glyph-name="quotedblright" unicode="&#x201d;" horiz-adv-x="581" 
d="M165 573c-8 -8 -26 -23 -55 -23c-47 0 -72 36 -72 72c0 39 27 72 71 72c56 0 89 -55 89 -121c0 -133 -102 -217 -116 -217c-6 0 -18 10 -18 19c0 4 1 5 10 13c56 45 89 107 91 185zM403 573c-8 -8 -26 -23 -55 -23c-47 0 -72 36 -72 72c0 39 27 72 71 72
c56 0 89 -55 89 -121c0 -133 -102 -217 -116 -217c-6 0 -18 10 -18 19c0 4 1 5 10 13c56 45 89 107 91 185z" />
    <glyph glyph-name="numbersign" unicode="#" horiz-adv-x="937" 
d="M582 113l-85 -279c-4 -13 -8 -28 -28 -28c-18 0 -28 14 -28 27c0 2 0 4 5 19l78 261h-196l-85 -279c-4 -13 -8 -28 -28 -28c-18 0 -28 14 -28 27c0 2 0 4 5 19l78 261h-168c-13 0 -40 0 -40 27c0 28 26 28 41 28h185l49 163h-234c-15 0 -41 0 -41 28c0 27 27 27 40 27
h252l85 280c4 13 8 28 28 28c18 0 28 -14 28 -27c0 -2 0 -4 -5 -19l-78 -262h196l85 280c4 13 8 28 28 28c18 0 28 -14 28 -27c0 -2 0 -4 -5 -19l-78 -262h168c13 0 40 0 40 -27c0 -28 -26 -28 -41 -28h-185l-49 -163h234c15 0 41 0 41 -28c0 -27 -27 -27 -40 -27h-252z
M345 168h197l49 163h-197z" />
    <glyph glyph-name="dollar" unicode="$" 
d="M302 656v-232c42 -9 93 -20 140 -70c37 -40 57 -93 57 -147c0 -87 -46 -199 -197 -212v-51h-43v51c-129 7 -197 90 -197 189c0 50 35 63 59 63c34 0 59 -24 59 -59c0 -47 -41 -60 -65 -60c21 -53 71 -84 144 -90v260c-46 10 -95 20 -145 71c-10 10 -52 57 -52 131
c0 99 63 190 197 199v51h43v-51c123 -5 197 -76 197 -176c0 -50 -37 -62 -59 -62c-30 0 -59 20 -59 59c0 24 14 58 63 59c-25 49 -73 73 -142 77zM259 433v223c-98 -8 -123 -71 -123 -110c0 -44 31 -96 123 -113zM302 288v-250c107 12 123 89 123 124c0 56 -41 112 -123 126
z" />
    <glyph glyph-name="percent" unicode="%" horiz-adv-x="937" 
d="M769 699l-559 -738c-7 -9 -13 -17 -26 -17c-15 0 -28 12 -28 28c0 9 4 14 11 23l484 639l-1 1c-36 -16 -78 -23 -120 -23c-73 0 -133 22 -173 42c15 -38 17 -80 17 -106c0 -139 -69 -201 -144 -201c-77 0 -168 55 -168 202c0 140 86 201 168 201c42 0 65 -17 86 -32
c65 -49 141 -74 212 -74c79 0 146 28 195 86c11 13 17 20 30 20s27 -10 27 -28c0 -9 -3 -12 -11 -23zM233 380c38 0 99 35 99 169c0 128 -58 168 -99 168c-73 0 -73 -103 -73 -169c0 -65 0 -168 73 -168zM874 145c0 -139 -69 -201 -144 -201c-77 0 -168 55 -168 202
c0 140 86 201 168 201c71 0 144 -57 144 -202zM733 -23c38 0 99 35 99 169c0 128 -58 168 -99 168c-73 0 -73 -103 -73 -169c0 -65 0 -168 73 -168z" />
    <glyph glyph-name="ampersand" unicode="&#x26;" horiz-adv-x="875" 
d="M604 281l65 96c2 3 6 9 6 12c0 12 -64 12 -73 12v43c24 -2 88 -2 115 -2c38 0 40 0 101 2v-43c-44 0 -84 0 -97 -18l-34 -51c-87 -130 -109 -158 -173 -223c43 -38 88 -78 143 -78c27 0 109 12 113 87h42c-2 -83 -79 -130 -160 -130c-99 0 -176 47 -206 65
c-47 -32 -112 -65 -195 -65c-114 0 -204 60 -204 148c0 54 29 80 77 122l88 80c-27 65 -42 131 -42 191c0 117 95 177 173 177c74 0 105 -75 105 -130c0 -64 -73 -133 -137 -193c45 -104 154 -222 177 -246c44 44 81 92 116 144zM298 416c30 26 64 67 64 68
c44 53 44 81 44 93c0 25 -11 96 -61 96c-45 0 -77 -47 -77 -102c0 -9 0 -77 30 -155zM227 306c-18 -14 -60 -47 -60 -134c0 -40 14 -141 96 -141c16 0 83 2 149 47c-36 26 -115 95 -185 228z" />
    <glyph glyph-name="quoteright" unicode="&#x2019;" horiz-adv-x="312" 
d="M211 573c-8 -8 -26 -23 -55 -23c-47 0 -72 36 -72 72c0 39 27 72 71 72c56 0 89 -55 89 -121c0 -133 -102 -217 -116 -217c-6 0 -18 10 -18 19c0 4 1 5 10 13c56 45 89 107 91 185z" />
    <glyph glyph-name="parenleft" unicode="(" horiz-adv-x="437" 
d="M374 -239c0 -12 -12 -12 -17 -12c-10 0 -12 0 -38 22c-142 116 -211 295 -211 479c0 180 68 364 212 479c26 21 28 21 37 21c5 0 17 0 17 -12c0 -4 -1 -5 -13 -17c-112 -113 -161 -275 -161 -472c0 -176 43 -352 155 -464c19 -18 19 -20 19 -24z" />
    <glyph glyph-name="parenright" unicode=")" horiz-adv-x="437" 
d="M328 249c0 -180 -68 -364 -212 -479c-26 -21 -28 -21 -37 -21c-5 0 -17 0 -17 12c0 4 1 5 13 17c112 113 161 275 161 472c0 176 -43 352 -155 464c-19 18 -19 20 -19 24c0 12 12 12 17 12c10 0 12 0 38 -22c142 -116 211 -295 211 -479z" />
    <glyph glyph-name="asterisk" unicode="*" 
d="M421 406l-124 94l13 -78c4 -26 12 -72 12 -79c0 -26 -24 -37 -42 -37c-15 0 -41 10 -41 37c0 4 0 6 3 23l22 134l-124 -94c-15 -11 -16 -12 -26 -12c-23 0 -42 20 -42 45c0 26 17 32 30 37l144 52l-145 52c-10 3 -29 10 -29 37c0 25 19 45 42 45c10 0 11 -1 26 -12
l124 -94l-22 134c-3 17 -3 19 -3 23c0 26 24 37 42 37c15 0 41 -10 41 -37c0 -4 0 -6 -3 -23l-22 -134l124 94c15 11 16 12 26 12c23 0 42 -20 42 -45c0 -26 -17 -32 -30 -37l-144 -52l145 -52c10 -3 29 -10 29 -37c0 -25 -19 -45 -42 -45c-10 0 -11 1 -26 12z" />
    <glyph glyph-name="plus" unicode="+" horiz-adv-x="875" 
d="M465 222v-308c0 -14 0 -40 -28 -40c-27 0 -27 27 -27 40v308h-308c-13 0 -40 0 -40 27c0 28 26 28 40 28h308v308c0 14 0 40 28 40c27 0 27 -27 27 -40v-308h307c14 0 40 0 40 -28c0 -27 -27 -27 -40 -27h-307z" />
    <glyph glyph-name="comma" unicode="," horiz-adv-x="312" 
d="M207 19c-4 -4 -22 -19 -51 -19c-47 0 -72 36 -72 72c0 39 27 72 71 72c55 0 85 -56 85 -120c0 -134 -99 -218 -112 -218c-6 0 -18 10 -18 19c0 5 2 7 9 13c82 70 87 153 88 181z" />
    <glyph glyph-name="hyphen" unicode="-" horiz-adv-x="375" 
d="M312 176h-300v92h300v-92z" />
    <glyph glyph-name="period" unicode="." horiz-adv-x="312" 
d="M228 72c0 -41 -33 -72 -72 -72s-72 31 -72 72s33 72 72 72s72 -31 72 -72z" />
    <glyph glyph-name="slash" unicode="/" 
d="M494 704l-376 -928c-6 -15 -10 -26 -29 -26c-13 0 -27 10 -27 28c0 2 0 6 5 18l376 928c6 14 10 26 29 26c13 0 27 -10 27 -28c0 -2 0 -6 -5 -18z" />
    <glyph glyph-name="zero" unicode="0" 
d="M517 319c0 -99 -1 -331 -237 -331s-236 235 -236 331c0 97 0 337 237 337c236 0 236 -241 236 -337zM281 21c24 0 51 10 71 30c30 30 45 44 45 280c0 61 0 142 -9 193c-14 84 -76 99 -108 99c-22 0 -94 -7 -108 -106c-8 -52 -8 -116 -8 -186c0 -235 16 -251 41 -276
c20 -21 44 -34 76 -34z" />
    <glyph glyph-name="one" unicode="1" 
d="M346 627v-584h137v-43c-42 2 -148 2 -195 2s-152 0 -194 -2v43h139v525c-40 -13 -93 -19 -128 -19h-19v43h19c22 0 133 0 207 64c32 0 34 0 34 -29z" />
    <glyph glyph-name="two" unicode="2" 
d="M505 215l-29 -215h-420v17c0 18 0 20 10 29l217 227c41 43 94 115 94 193c0 72 -44 147 -136 147c-21 0 -74 -4 -114 -50c31 -4 62 -25 62 -67c0 -46 -36 -67 -67 -67c-23 0 -66 15 -66 68c0 95 97 159 210 159c132 0 239 -71 239 -189c0 -96 -68 -147 -179 -230
c-15 -11 -106 -87 -144 -119h155c15 0 93 0 101 7c15 10 22 69 25 90h42z" />
    <glyph glyph-name="three" unicode="3" 
d="M261 331h-48c-20 0 -26 0 -26 17c0 4 0 11 6 14c4 2 24 3 36 4c38 2 64 4 90 38c32 41 36 87 36 117s0 99 -89 99c-6 0 -74 0 -116 -41c47 -7 57 -41 57 -64c0 -46 -35 -65 -64 -65c-26 0 -65 16 -65 66c0 81 82 140 194 140c139 0 211 -63 211 -138
c0 -79 -61 -141 -149 -168c155 -27 180 -122 180 -171c0 -100 -79 -191 -244 -191c-123 0 -223 54 -223 146c0 42 29 71 71 71c41 0 70 -29 70 -70c0 -30 -15 -61 -58 -70c48 -34 114 -37 135 -37c108 0 108 106 108 151c0 48 0 152 -112 152z" />
    <glyph glyph-name="four" unicode="4" 
d="M433 157v-114h97v-43c-27 2 -126 2 -160 2c-36 0 -135 0 -164 -2v43h109v114h-284v43l344 443c12 15 14 15 32 15c25 0 26 -4 26 -29v-429h97v-43h-97zM324 518l-247 -318h247v318z" />
    <glyph glyph-name="five" unicode="5" 
d="M154 519v-149c43 32 91 40 131 40c137 0 220 -87 220 -209c0 -124 -97 -213 -251 -213c-119 0 -198 84 -198 171c0 47 33 65 63 65c37 0 63 -27 63 -63c0 -22 -13 -62 -66 -62c34 -57 97 -71 134 -71c123 0 123 104 123 176c0 79 0 173 -92 173c-85 0 -121 -44 -133 -58
c-8 -10 -10 -11 -20 -11c-20 0 -20 11 -20 30v291c0 17 0 27 12 27c3 0 6 -2 13 -4c47 -17 95 -28 152 -28c56 0 105 11 151 27c10 5 12 5 13 5c12 0 12 -12 12 -17c0 -23 -52 -68 -83 -87c-67 -41 -124 -41 -148 -41c-15 0 -42 0 -76 8z" />
    <glyph glyph-name="six" unicode="6" 
d="M174 362v-27c40 85 104 85 124 85c119 0 216 -74 216 -214s-98 -218 -230 -218c-237 0 -237 262 -237 329c0 261 169 339 294 339c105 0 145 -61 145 -121c0 -44 -33 -61 -59 -61c-32 0 -59 23 -59 59c0 27 16 55 54 59c-24 25 -60 28 -79 28c-65 0 -116 -39 -138 -81
c-28 -54 -31 -116 -31 -177zM283 28c104 0 104 80 104 179c0 100 0 180 -99 180c-59 0 -112 -52 -112 -175c0 -9 0 -89 14 -122c4 -8 29 -62 93 -62z" />
    <glyph glyph-name="seven" unicode="7" 
d="M536 599l-150 -179c-63 -75 -77 -187 -77 -340c0 -44 0 -56 -13 -72c-7 -7 -21 -20 -46 -20c-8 0 -59 0 -59 67c0 49 9 139 68 255c31 59 44 75 160 216h-181c-16 0 -99 0 -108 -6c-17 -11 -25 -81 -26 -91h-42l33 247h42c2 -10 4 -21 29 -25c12 -2 161 -7 168 -7h211
c0 -33 0 -35 -9 -45z" />
    <glyph glyph-name="eight" unicode="8" 
d="M377 368c51 -28 137 -75 137 -184c0 -116 -87 -196 -235 -196c-132 0 -232 56 -232 171c0 52 19 121 132 171c-74 39 -101 99 -101 153c0 97 71 173 204 173c109 0 201 -44 201 -147c0 -78 -56 -115 -106 -141zM197 471l140 -79c57 33 75 76 75 117
c0 66 -48 111 -133 111c-23 0 -130 -2 -130 -82c0 -33 28 -56 48 -67zM220 306c-48 -27 -93 -73 -93 -146c0 -79 56 -132 155 -132c72 0 152 25 152 105c0 51 -43 75 -76 94z" />
    <glyph glyph-name="nine" unicode="9" 
d="M387 282v29c-32 -71 -82 -86 -124 -86c-120 0 -216 75 -216 214c0 137 98 217 236 217c231 0 231 -260 231 -327c0 -258 -154 -341 -281 -341c-103 0 -158 51 -158 121c0 44 33 61 59 61c32 0 59 -23 59 -59c0 -32 -21 -53 -50 -59c21 -16 57 -24 88 -24
c156 0 156 184 156 254zM273 258c84 0 113 99 113 169c0 33 -2 95 -12 125c-4 11 -27 68 -91 68c-109 0 -109 -87 -109 -183c0 -98 0 -179 99 -179z" />
    <glyph glyph-name="colon" unicode=":" horiz-adv-x="312" 
d="M228 372c0 -41 -33 -72 -72 -72s-72 31 -72 72s33 72 72 72s72 -31 72 -72zM228 72c0 -41 -33 -72 -72 -72s-72 31 -72 72s33 72 72 72s72 -31 72 -72z" />
    <glyph glyph-name="semicolon" unicode=";" horiz-adv-x="312" 
d="M228 372c0 -41 -33 -72 -72 -72s-72 31 -72 72s33 72 72 72s72 -31 72 -72zM198 12c-1 0 -16 -12 -42 -12c-47 0 -72 36 -72 72c0 38 27 72 71 72c56 0 76 -61 76 -119c0 -132 -90 -219 -103 -219c-6 0 -18 10 -18 19c0 4 0 6 10 15c31 31 73 86 78 172z" />
    <glyph glyph-name="exclamdown" unicode="&#xa1;" horiz-adv-x="342" 
d="M243 428c0 -40 -32 -72 -72 -72s-72 32 -72 72s32 72 72 72s72 -32 72 -72zM101 -113l48 374c2 19 3 22 22 22s20 -3 22 -22l48 -374c2 -14 2 -16 2 -27c0 -44 -41 -66 -72 -66s-72 21 -72 66c0 11 0 13 2 27z" />
    <glyph glyph-name="equal" unicode="=" horiz-adv-x="875" 
d="M771 331h-668c-15 0 -41 0 -41 28c0 27 27 27 40 27h670c13 0 40 0 40 -27c0 -28 -26 -28 -41 -28zM772 113h-670c-13 0 -40 0 -40 27c0 28 26 28 41 28h668c15 0 41 0 41 -28c0 -27 -27 -27 -40 -27z" />
    <glyph glyph-name="questiondown" unicode="&#xbf;" horiz-adv-x="531" 
d="M321 428c0 -40 -32 -72 -72 -72s-72 32 -72 72s32 72 72 72s72 -32 72 -72zM270 271v-32c0 -42 0 -132 -67 -230c-18 -26 -21 -42 -21 -87c0 -60 1 -89 71 -89c11 0 97 0 144 39c-33 8 -47 33 -47 58c0 37 27 59 59 59c29 0 59 -19 59 -60c0 -85 -93 -129 -220 -129
c-36 0 -186 0 -186 130c0 44 19 77 49 99c74 52 117 117 117 201v27c0 21 0 26 21 26c9 0 20 0 21 -12z" />
    <glyph glyph-name="question" unicode="?" horiz-adv-x="531" 
d="M270 269v-26c0 -21 0 -26 -21 -26c-8 0 -19 0 -21 10v32c0 38 0 140 90 233c18 17 30 30 30 85c0 50 -3 90 -97 90c-22 0 -79 -2 -120 -39c42 -8 49 -41 49 -58c0 -37 -27 -59 -59 -59c-29 0 -59 19 -59 60c0 67 64 129 194 129c36 0 212 0 212 -130
c0 -64 -45 -91 -66 -104c-75 -45 -132 -109 -132 -197zM321 72c0 -40 -32 -72 -72 -72s-72 32 -72 72s32 72 72 72s72 -32 72 -72z" />
    <glyph glyph-name="at" unicode="@" horiz-adv-x="875" 
d="M662 453v-231c0 -12 0 -60 34 -60c62 0 74 87 74 177c0 232 -160 328 -333 328c-209 0 -333 -132 -333 -320c0 -175 111 -320 336 -320c145 0 255 42 294 57c12 5 14 5 28 5h24c16 0 26 0 26 -12c0 -8 -7 -10 -15 -13c-134 -54 -259 -70 -356 -70
c-255 0 -379 162 -379 353c0 207 142 353 375 353c226 0 375 -139 375 -355c0 -14 0 -84 -22 -140c-25 -59 -63 -76 -104 -76c-15 0 -89 0 -122 47c-31 -28 -74 -47 -129 -47c-127 0 -223 81 -223 218c0 136 95 218 223 218c69 0 128 -31 160 -86h42c24 0 25 0 25 -26z
M553 221v252c-41 57 -101 59 -114 59c-60 0 -118 -54 -118 -185c0 -129 57 -185 118 -185c13 0 73 2 114 59z" />
    <glyph glyph-name="A" unicode="A" horiz-adv-x="849" 
d="M458 677l257 -634h95v-43c-25 2 -127 2 -159 2c-38 0 -135 0 -167 -2v43h94l-63 156h-268l-53 -130c-2 -4 -2 -6 -5 -15c28 -11 66 -11 88 -11v-43c-23 2 -96 2 -123 2c-29 0 -89 0 -115 -2v43h18c22 0 26 0 51 3c28 3 28 5 35 21l248 610c7 18 9 23 34 23
c24 0 26 -5 33 -23zM381 530l-117 -288h233z" />
    <glyph glyph-name="B" unicode="B" horiz-adv-x="799" 
d="M39 686h422c160 0 244 -80 244 -172c0 -47 -28 -129 -172 -156c121 -9 204 -78 204 -173c0 -96 -81 -185 -246 -185h-452v43h106v600h-106v43zM268 373h149c117 0 156 72 156 142c0 50 -21 128 -124 128h-181v-270zM268 43h184c115 0 149 81 149 144
c0 45 -17 153 -134 153h-199v-297z" />
    <glyph glyph-name="C" unicode="C" horiz-adv-x="812" 
d="M749 672v-218c0 -24 0 -26 -23 -26c-12 0 -21 0 -23 9c-30 176 -151 218 -226 218c-48 0 -148 -10 -212 -85c-47 -56 -62 -129 -62 -227c0 -138 32 -193 67 -231c56 -63 144 -81 209 -81c90 0 219 52 228 204c1 11 11 11 21 11c15 0 21 -1 21 -18
c0 -118 -115 -240 -293 -240c-245 0 -394 149 -394 355c0 210 154 355 393 355c74 0 141 -24 197 -72l75 72c22 0 22 -3 22 -26z" />
    <glyph glyph-name="D" unicode="D" horiz-adv-x="862" 
d="M38 686h421c188 0 340 -123 340 -349c0 -214 -148 -337 -340 -337h-421v43h106v600h-106v43zM271 43h150c90 0 157 33 192 79c35 47 50 99 50 216c0 129 -19 178 -48 219c-37 52 -107 86 -194 86h-150v-600z" />
    <glyph glyph-name="E" unicode="E" horiz-adv-x="738" 
d="M706 270l-43 -270h-625v43h106v595h-106v43h608l29 -237h-42c-15 129 -48 194 -201 194h-156v-263h59c96 0 106 42 106 117h42v-277h-42c0 76 -10 117 -106 117h-59v-289h156c174 0 211 78 232 227h42z" />
    <glyph glyph-name="F" unicode="F" horiz-adv-x="707" 
d="M630 681l29 -237h-42c-14 121 -39 194 -198 194h-143v-276h55c96 0 104 44 104 117h42v-277h-42c0 73 -8 117 -104 117h-55v-276h133v-43c-49 2 -138 2 -191 2c-37 0 -151 0 -180 -2v43h106v595h-106v43h592z" />
    <glyph glyph-name="G" unicode="G" horiz-adv-x="884" 
d="M749 230v-204c0 -16 0 -26 -12 -26c-3 0 -60 24 -94 56c-41 -53 -120 -68 -187 -68c-245 0 -394 149 -394 355c0 210 154 355 393 355c74 0 141 -24 197 -72l75 72c22 0 22 -3 22 -26v-218c0 -24 0 -26 -23 -26c-12 0 -21 0 -23 9c-30 176 -151 218 -226 218
c-48 0 -148 -10 -212 -85c-45 -53 -62 -123 -62 -226c0 -120 24 -181 63 -226c62 -73 161 -87 218 -87c42 0 73 10 93 23c40 25 40 53 40 74v102h-141v43c61 -2 127 -2 188 -2c32 0 139 0 163 2v-43h-78z" />
    <glyph glyph-name="H" unicode="H" horiz-adv-x="879" 
d="M735 643v-600h106v-43c-29 2 -136 2 -172 2s-143 0 -172 -2v43h106v292h-327v-292h106v-43c-29 2 -136 2 -172 2s-143 0 -172 -2v43h106v600h-106v43c29 -2 136 -2 172 -2s143 0 172 2v-43h-106v-265h327v265h-106v43c29 -2 136 -2 172 -2s143 0 172 2v-43h-106z" />
    <glyph glyph-name="I" unicode="I" horiz-adv-x="418" 
d="M275 643v-600h112v-43c-36 2 -136 2 -178 2s-142 0 -178 -2v43h112v600h-112v43c36 -2 136 -2 178 -2s142 0 178 2v-43h-112z" />
    <glyph glyph-name="J" unicode="J" horiz-adv-x="581" 
d="M436 643v-494c0 -103 -92 -161 -220 -161c-108 0 -185 51 -185 126c0 46 35 71 71 71c31 0 70 -22 70 -71c0 -30 -17 -59 -53 -68c39 -25 85 -25 92 -25c52 0 98 34 98 128v494h-138v43c49 -2 133 -2 185 -2c32 0 135 0 160 2v-43h-80z" />
    <glyph glyph-name="K" unicode="K" horiz-adv-x="880" 
d="M469 422l269 -360c10 -14 14 -19 68 -19h27v-43c-23 2 -117 2 -147 2c-38 0 -131 0 -163 -2v43c22 0 71 0 71 11c0 4 -4 9 -6 12l-209 279l-103 -88v-214h106v-43c-29 2 -136 2 -172 2s-143 0 -172 -2v43h106v600h-106v43c29 -2 136 -2 172 -2s143 0 172 2v-43h-106v-331
l374 319v1c-26 10 -50 11 -72 11v43c25 -2 103 -2 133 -2c45 0 47 0 107 2v-43c-89 0 -98 -8 -111 -19z" />
    <glyph glyph-name="L" unicode="L" horiz-adv-x="675" 
d="M628 270l-29 -270h-561v43h106v600h-106v43c29 -2 143 -2 180 -2c53 0 142 0 191 2v-43h-133v-600h107c180 0 196 158 203 227h42z" />
    <glyph glyph-name="M" unicode="M" horiz-adv-x="1067" 
d="M533 127l240 538c9 21 18 21 39 21h213v-43h-106v-600h106v-43c-27 2 -131 2 -165 2s-138 0 -165 -2v43h106v600h-1l-277 -622c-5 -11 -11 -21 -28 -21s-23 10 -28 21l-272 610h-1v-558c0 -22 1 -23 30 -27c24 -3 26 -3 53 -3h23v-43c-23 2 -102 2 -130 2s-106 0 -129 -2
v43h23c18 0 38 1 56 3c26 4 27 5 27 27v570h-106v43h213c21 0 30 0 39 -21z" />
    <glyph glyph-name="N" unicode="N" horiz-adv-x="879" 
d="M290 674l398 -479v418c0 22 -1 23 -30 27c-24 3 -26 3 -53 3h-23v43c23 -2 102 -2 130 -2s106 0 129 2v-43h-23c-18 0 -38 -1 -56 -3c-26 -4 -27 -5 -27 -27v-584c0 -23 0 -29 -24 -29c-13 0 -14 1 -25 13l-495 596v-536c0 -22 1 -23 30 -27c24 -3 26 -3 53 -3h23v-43
c-23 2 -102 2 -130 2s-106 0 -129 -2v43h23c18 0 38 1 56 3c26 4 27 5 27 27v570h-106v43h221c20 0 21 -1 31 -12z" />
    <glyph glyph-name="O" unicode="O" horiz-adv-x="844" 
d="M782 340c0 -211 -140 -352 -360 -352s-360 141 -360 352s137 358 360 358c222 0 360 -146 360 -358zM422 26c78 0 133 43 158 77c50 69 61 152 61 251c0 100 -12 162 -49 220c-29 45 -89 88 -170 88c-59 0 -131 -25 -175 -95c-41 -68 -44 -152 -44 -213
c0 -73 5 -167 53 -240c38 -57 101 -88 166 -88z" />
    <glyph glyph-name="P" unicode="P" horiz-adv-x="768" 
d="M276 305v-262h106v-43c-29 2 -136 2 -172 2s-143 0 -172 -2v43h106v600h-106v43h408c165 0 260 -85 260 -193c0 -103 -93 -188 -260 -188h-170zM410 643h-139v-300h139c155 0 155 84 155 150c0 68 0 150 -155 150z" />
    <glyph glyph-name="Q" unicode="Q" horiz-adv-x="844" 
d="M574 15c41 -68 73 -68 95 -68c28 0 83 8 89 49c1 8 2 19 15 19c15 0 15 -15 15 -24c0 -62 -30 -185 -133 -185c-91 0 -110 79 -136 192c-47 -10 -88 -10 -97 -10c-220 0 -360 141 -360 352s137 358 360 358c222 0 360 -146 360 -358c0 -118 -47 -263 -208 -325zM332 44
c-2 5 -5 11 -5 28c0 47 44 82 95 82c44 0 82 -23 123 -91c101 69 101 218 101 277c0 60 -3 150 -45 220c-47 79 -121 102 -179 102c-72 0 -137 -36 -173 -91c-42 -66 -51 -142 -51 -231c0 -59 0 -240 134 -296zM508 41c-16 47 -37 80 -85 80c-34 0 -63 -20 -63 -49
c0 -15 11 -48 62 -48c46 0 85 17 86 17z" />
    <glyph glyph-name="R" unicode="R" horiz-adv-x="839" 
d="M529 340c108 -33 115 -107 121 -160c8 -92 15 -159 79 -159c28 0 59 21 64 71c1 13 2 20 21 20c13 0 21 -3 21 -20c0 -14 -12 -104 -114 -104c-22 0 -104 1 -156 36c-51 34 -51 75 -51 142s0 89 -30 123c-22 26 -54 38 -94 38h-119v-284h106v-43c-29 2 -134 2 -170 2
s-140 0 -169 -2v43h106v600h-106v43h369c185 0 290 -84 290 -184c0 -54 -33 -126 -168 -162zM388 360c167 0 168 87 168 142c0 59 -3 141 -166 141h-119v-283h117z" />
    <glyph glyph-name="S" unicode="S" horiz-adv-x="625" 
d="M254 440l137 -31c109 -25 171 -115 171 -209c0 -106 -66 -212 -222 -212c-60 0 -142 13 -200 59c-25 -25 -34 -38 -45 -49c-10 -9 -11 -10 -18 -10c-15 0 -15 7 -15 26v188c0 23 0 26 21 26c20 0 20 -3 21 -21c8 -146 147 -176 235 -176c112 0 133 79 133 122
c0 51 -29 79 -42 92c-22 21 -34 23 -134 45c-104 23 -132 29 -184 81c-14 14 -50 61 -50 128c0 109 76 199 219 199c97 0 147 -39 172 -60l43 49c9 10 12 11 19 11c15 0 15 -7 15 -26v-188c0 -23 0 -26 -21 -26c-19 0 -19 1 -22 22c-21 131 -108 178 -205 178
s-130 -59 -130 -110c0 -14 3 -86 102 -108z" />
    <glyph glyph-name="T" unicode="T" horiz-adv-x="782" 
d="M720 677l20 -237h-42c-9 110 -17 194 -161 194h-80v-591h151v-43c-80 2 -156 2 -217 2c-34 0 -137 0 -217 -2v43h151v591h-81c-144 0 -152 -85 -161 -194h-42l20 237h659z" />
    <glyph glyph-name="U" unicode="U" horiz-adv-x="864" 
d="M720 613v-384c0 -126 -84 -241 -269 -241c-201 0 -307 110 -307 242v413h-106v43c29 -2 136 -2 172 -2s143 0 172 2v-43h-106v-420c0 -58 4 -192 179 -192c118 0 219 58 219 201v381c0 22 -1 23 -30 27c-24 3 -26 3 -53 3h-23v43c23 -2 101 -2 129 -2s106 0 129 2v-43
h-23c-18 0 -38 -1 -56 -3c-26 -4 -27 -5 -27 -27z" />
    <glyph glyph-name="V" unicode="V" horiz-adv-x="849" 
d="M724 620l-265 -608c-9 -21 -19 -21 -35 -21s-25 1 -34 21l-276 631h-90v43c25 -2 124 -2 156 -2c38 0 134 0 166 2v-43h-93l216 -493l205 468l5 14c-28 11 -65 11 -87 11v43c23 -2 94 -2 122 -2c8 0 80 0 111 2v-43h-17c-74 0 -78 -10 -84 -23z" />
    <glyph glyph-name="W" unicode="W" horiz-adv-x="1162" 
d="M1046 619l-229 -605c-7 -19 -12 -23 -31 -23c-22 0 -25 7 -31 23l-175 461l-174 -461c-6 -16 -9 -23 -31 -23s-25 7 -31 24l-238 628h-84v43c25 -2 120 -2 152 -2c36 0 134 0 163 2v-43h-94l178 -472l137 364l-41 108h-84v43c24 -2 121 -2 152 -2c38 0 131 0 163 2v-43
h-95l179 -472l168 446c4 9 4 11 4 12c0 14 -88 14 -100 14v43c24 -2 97 -2 126 -2c57 0 59 0 109 2v-43c-84 0 -86 -6 -93 -24z" />
    <glyph glyph-name="X" unicode="X" horiz-adv-x="849" 
d="M470 396l253 -353h96v-43c-25 2 -128 2 -160 2c-38 0 -138 0 -170 -2v43h83l-180 250l-178 -238c29 -12 80 -12 91 -12v-43c-25 2 -111 2 -142 2c-28 0 -109 0 -132 -2v43h27c28 0 33 1 58 3c35 3 38 6 47 18l201 268l-222 311h-97v43c27 -2 126 -2 160 -2
c41 0 135 0 171 2v-43h-83l149 -208l146 196c-30 12 -79 12 -91 12v43c25 -2 112 -2 143 -2c28 0 108 0 131 2v-43h-26c-29 0 -33 0 -59 -3c-33 -3 -37 -5 -47 -18z" />
    <glyph glyph-name="Y" unicode="Y" horiz-adv-x="849" 
d="M723 621l-235 -347v-231h107v-43c-32 2 -132 2 -170 2c-36 0 -141 0 -170 -2v43h106v231l-249 369h-96v43c27 -2 128 -2 162 -2c38 0 140 0 172 2v-43h-84l208 -308l192 285l7 12c-25 11 -51 11 -76 11v43c23 -2 95 -2 123 -2c30 0 85 0 113 2v-43h-19
c-76 0 -82 -9 -91 -22z" />
    <glyph glyph-name="Z" unicode="Z" horiz-adv-x="687" 
d="M616 640l-400 -594h146c199 0 218 116 226 233h42l-17 -279h-522c-22 0 -29 0 -29 23c0 9 0 13 8 25l400 595h-136c-130 0 -206 -52 -214 -194h-42l11 237h506c21 0 29 0 29 -22c0 -7 0 -12 -8 -24z" />
    <glyph glyph-name="bracketleft" unicode="[" horiz-adv-x="312" 
d="M287 -250h-159v1000h159v-55h-104v-890h104v-55z" />
    <glyph glyph-name="quotedblleft" unicode="&#x201c;" horiz-adv-x="581" 
d="M177 477c8 8 26 23 55 23c47 0 72 -36 72 -72c0 -39 -27 -72 -71 -72c-56 0 -89 55 -89 121c0 133 102 217 116 217c6 0 18 -10 18 -19c0 -4 -1 -5 -10 -13c-56 -45 -89 -107 -91 -185zM415 477c8 8 26 23 55 23c47 0 72 -36 72 -72c0 -39 -27 -72 -71 -72
c-56 0 -89 55 -89 121c0 133 102 217 116 217c6 0 18 -10 18 -19c0 -4 -1 -5 -10 -13c-56 -45 -89 -107 -91 -185z" />
    <glyph glyph-name="bracketright" unicode="]" horiz-adv-x="312" 
d="M183 750v-1000h-159v55h104v890h-104v55h159z" />
    <glyph glyph-name="circumflex" unicode="&#x2c6;" 
d="M281 694l152 -127l-26 -34l-126 85l-127 -85l-26 34z" />
    <glyph glyph-name="dotaccent" unicode="&#x2d9;" horiz-adv-x="312" 
d="M228 623c0 -39 -32 -72 -73 -72c-38 0 -72 31 -72 72c0 39 32 72 73 72c38 0 72 -31 72 -72z" />
    <glyph glyph-name="quoteleft" unicode="&#x2018;" horiz-adv-x="312" 
d="M101 477c8 8 26 23 55 23c47 0 72 -36 72 -72c0 -39 -27 -72 -71 -72c-56 0 -89 55 -89 121c0 133 102 217 116 217c6 0 18 -10 18 -19c0 -4 -1 -5 -10 -13c-56 -45 -89 -107 -91 -185z" />
    <glyph glyph-name="a" unicode="a" horiz-adv-x="546" 
d="M460 299v-216c0 -23 0 -39 63 -40c14 0 23 0 23 -21c0 -22 -8 -22 -29 -22h-51c-101 0 -101 43 -101 80c-20 -44 -69 -86 -146 -86c-69 0 -185 20 -185 111c0 111 159 155 317 155v40c0 82 -41 120 -109 120c-19 0 -43 0 -76 -9c17 -11 24 -29 24 -48
c0 -38 -29 -59 -59 -59c-27 0 -59 18 -59 60c0 84 118 89 174 89c141 0 214 -62 214 -154zM351 139v94c-98 -5 -206 -36 -206 -127c0 -46 41 -79 90 -79c32 0 116 18 116 112z" />
    <glyph glyph-name="b" unicode="b" horiz-adv-x="625" 
d="M208 694v-295c41 32 88 51 147 51c137 0 231 -90 231 -227c0 -145 -106 -229 -244 -229c-40 0 -95 11 -146 64c-16 -20 -33 -39 -50 -58h-42v604c0 39 -7 39 -69 39v43zM213 351v-254c14 -22 51 -70 119 -70c32 0 79 10 110 58c24 37 24 94 24 139c0 66 0 193 -124 193
c-42 0 -94 -18 -129 -66z" />
    <glyph glyph-name="c" unicode="c" horiz-adv-x="500" 
d="M468 117c0 -7 -31 -123 -188 -123c-147 0 -242 92 -242 228c0 115 70 231 248 231c54 0 169 -6 169 -88c0 -47 -38 -60 -59 -60c-25 0 -59 17 -59 59c0 25 13 40 16 43c2 1 3 2 3 3c0 5 -59 7 -66 7c-131 0 -132 -131 -132 -190c0 -45 0 -197 141 -197
c92 0 119 67 126 86c5 12 6 13 22 13c10 0 21 0 21 -12z" />
    <glyph glyph-name="d" unicode="d" horiz-adv-x="625" 
d="M347 686l173 8v-612c0 -39 7 -39 69 -39v-43l-178 -6v52c-39 -33 -86 -52 -141 -52c-133 0 -232 85 -232 228c0 140 101 228 243 228c69 0 113 -29 135 -48v202c0 39 -7 39 -69 39v43zM411 101v254c-33 44 -77 62 -118 62c-23 0 -82 -6 -113 -62
c-22 -38 -22 -88 -22 -135c0 -66 0 -193 124 -193c36 0 87 13 129 74z" />
    <glyph glyph-name="e" unicode="e" horiz-adv-x="513" 
d="M452 221h-301c0 -56 1 -191 146 -191c48 0 114 21 140 86c6 13 7 16 23 16c6 0 21 0 21 -15c0 -17 -45 -123 -196 -123s-254 91 -254 231c0 126 85 228 241 228c58 0 114 -13 156 -55c46 -47 53 -122 53 -152c0 -25 -6 -25 -29 -25zM151 250h238c-1 50 -10 170 -117 170
c-43 0 -78 -22 -97 -54c-21 -36 -22 -75 -24 -116z" />
    <glyph glyph-name="f" unicode="f" horiz-adv-x="343" 
d="M217 401v-358h87v-43c-24 2 -105 2 -134 2c-28 0 -103 0 -126 -2v43h69v358h-74v43h74v102c0 116 111 154 202 154c71 0 107 -42 107 -83c0 -44 -36 -59 -58 -59c-26 0 -58 18 -58 58c0 21 9 38 24 48c-6 2 -8 3 -19 3c-33 0 -99 -16 -99 -120v-103h119v-43h-114z" />
    <glyph glyph-name="g" unicode="g" 
d="M130 182c-11 -13 -12 -28 -12 -36c0 -19 12 -57 55 -64c5 -1 49 -1 74 -1c88 0 152 0 200 -24c25 -12 83 -41 83 -129c0 -75 -84 -129 -250 -129c-184 0 -249 67 -249 126c0 57 62 80 86 86c-21 16 -44 53 -44 96c0 36 18 71 35 90c-42 34 -52 75 -52 106
c0 70 55 147 193 147c51 0 90 -9 131 -33c21 18 62 39 105 39c42 0 60 -32 60 -56c0 -21 -14 -40 -40 -40s-40 19 -40 40c0 13 3 17 6 22c-17 -2 -41 -6 -70 -22c12 -10 41 -46 41 -97c0 -70 -55 -147 -193 -147c-15 0 -71 0 -119 26zM249 188c87 0 87 69 87 115
s0 115 -87 115s-87 -69 -87 -115s0 -115 87 -115zM305 -11h-114c-15 0 -78 0 -78 -64c0 -38 36 -94 168 -94s167 58 167 93c0 52 -70 65 -143 65z" />
    <glyph glyph-name="h" unicode="h" horiz-adv-x="625" 
d="M531 306v-263h69v-43c-23 2 -96 2 -124 2s-100 0 -123 -2v43h69v274c0 76 -21 100 -58 100c-64 0 -144 -53 -144 -161v-213h69v-43c-23 2 -96 2 -124 2s-100 0 -123 -2v43h69v561c0 39 -7 39 -69 39v43l173 8v-345h1c14 30 63 101 164 101c110 0 151 -49 151 -144z" />
    <glyph glyph-name="i" unicode="i" horiz-adv-x="312" 
d="M223 623c0 -41 -33 -72 -72 -72c-41 0 -72 34 -72 72s31 72 72 72c39 0 72 -31 72 -72zM47 442l170 8v-407h62v-43c-24 2 -88 2 -116 2c-27 0 -96 0 -119 -2v43h69v317c0 39 -7 39 -66 39v43z" />
    <glyph glyph-name="j" unicode="j" horiz-adv-x="343" 
d="M258 623c0 -40 -32 -72 -72 -72s-72 32 -72 72s32 72 72 72s72 -32 72 -72zM78 442l180 8v-495c0 -103 -93 -155 -177 -155c-72 0 -134 30 -134 88c0 35 25 59 59 59c33 0 59 -23 59 -59c0 -30 -20 -46 -25 -49c9 -2 22 -6 41 -6c61 0 73 77 73 122v404c0 21 0 34 -22 38
c-15 2 -37 2 -54 2v43z" />
    <glyph glyph-name="k" unicode="k" horiz-adv-x="593" 
d="M332 280l167 -216c11 -14 15 -17 29 -20c11 -1 31 -1 47 -1v-43c-42 2 -56 2 -107 2c-27 0 -93 0 -117 -2v43c14 0 34 0 34 10c0 1 0 3 -7 11l-121 156c-22 -18 -37 -31 -53 -43v-134h69v-43c-23 2 -92 2 -119 2s-96 0 -119 -2v43h69v561c0 39 -7 39 -69 39v43l173 8
v-460l182 146c2 2 8 6 8 10c0 8 -24 11 -36 11v43c23 -2 79 -2 105 -2c37 0 57 0 83 2v-43c-69 0 -80 -9 -92 -19z" />
    <glyph glyph-name="l" unicode="l" horiz-adv-x="312" 
d="M217 694v-651h69v-43c-23 2 -94 2 -121 2s-98 0 -121 -2v43h69v561c0 39 -7 39 -69 39v43z" />
    <glyph glyph-name="m" unicode="m" horiz-adv-x="937" 
d="M844 306v-263h69v-43c-23 2 -96 2 -124 2s-100 0 -123 -2v43h69v274c0 78 -22 100 -59 100c-63 0 -144 -52 -144 -161v-213h69v-43c-23 2 -96 2 -124 2s-100 0 -123 -2v43h69v274c0 78 -22 100 -59 100c-63 0 -144 -52 -144 -161v-213h69v-43c-23 2 -96 2 -124 2
s-100 0 -123 -2v43h69v317c0 39 -7 39 -69 39v43l169 8v-110h1c21 48 73 110 169 110c64 0 132 -15 148 -100c16 32 63 100 164 100c112 0 151 -52 151 -144z" />
    <glyph glyph-name="n" unicode="n" horiz-adv-x="625" 
d="M531 306v-263h69v-43c-23 2 -96 2 -124 2s-100 0 -123 -2v43h69v274c0 76 -21 100 -58 100c-64 0 -144 -53 -144 -161v-213h69v-43c-23 2 -96 2 -124 2s-100 0 -123 -2v43h69v317c0 39 -7 39 -69 39v43l169 8v-110h1c34 75 96 110 168 110c110 0 151 -49 151 -144z" />
    <glyph glyph-name="o" unicode="o" 
d="M530 219c0 -126 -87 -225 -250 -225c-157 0 -249 94 -249 225c0 130 87 234 250 234c157 0 249 -99 249 -234zM281 30c129 0 129 116 129 199c0 48 0 100 -20 136c-17 28 -53 55 -110 55c-43 0 -88 -18 -110 -58c-19 -36 -19 -86 -19 -133c0 -82 0 -199 130 -199z" />
    <glyph glyph-name="p" unicode="p" horiz-adv-x="625" 
d="M282 -151v-43c-23 2 -96 2 -124 2s-100 0 -123 -2v43h69v511c0 39 -7 39 -69 39v43l173 8v-52c40 32 91 52 150 52c135 0 228 -89 228 -227c0 -146 -107 -229 -244 -229c-60 0 -104 25 -129 47v-192h69zM213 350v-254c31 -47 74 -69 117 -69c64 0 136 51 136 196
c0 132 -59 191 -124 191c-39 0 -92 -16 -129 -64z" />
    <glyph glyph-name="q" unicode="q" horiz-adv-x="593" 
d="M520 450v-601h69v-43c-23 2 -96 2 -124 2s-100 0 -123 -2v43h69v202c-52 -49 -103 -57 -141 -57c-132 0 -232 85 -232 228c0 142 104 228 242 228c66 0 115 -32 150 -83l53 83h37zM416 119v168c0 46 -45 127 -123 127c-59 0 -135 -47 -135 -193c0 -135 60 -194 124 -194
c33 0 92 13 134 92z" />
    <glyph glyph-name="r" unicode="r" horiz-adv-x="459" 
d="M208 225v-182h87v-43c-24 2 -105 2 -134 2c-28 0 -103 0 -126 -2v43h69v317c0 39 -7 39 -69 39v43l164 8v-111h1c14 42 48 111 127 111c48 0 100 -28 100 -79c0 -41 -33 -58 -58 -58s-58 17 -58 58c0 18 7 35 21 46c-117 0 -124 -159 -124 -192z" />
    <glyph glyph-name="s" unicode="s" horiz-adv-x="443" 
d="M377 427v-86c0 -23 0 -26 -21 -26c-12 0 -20 0 -21 13c-2 25 -8 95 -119 95c-21 0 -110 0 -110 -65c0 -48 60 -59 124 -70c54 -10 88 -16 129 -50c20 -18 46 -51 46 -99c0 -133 -125 -145 -180 -145c-18 0 -72 0 -117 35l-26 -19c-20 -16 -22 -16 -29 -16
c-15 0 -15 7 -15 26v115c0 23 0 26 21 26c17 0 18 -1 24 -21c28 -97 91 -113 142 -113c21 0 112 0 112 77c0 42 -40 67 -80 76c-4 0 -37 6 -64 11c-31 5 -155 27 -155 132c0 130 150 130 180 130c36 0 73 -6 101 -22c5 3 16 10 20 13c15 9 17 9 23 9c15 0 15 -7 15 -26z" />
    <glyph glyph-name="t" unicode="t" horiz-adv-x="437" 
d="M211 401v-281c0 -23 0 -90 60 -90c31 0 61 29 61 95v52h42v-53c0 -74 -44 -130 -118 -130c-72 0 -154 23 -154 129v278h-81v33c99 3 147 102 148 201h42v-191h144v-43h-144z" />
    <glyph glyph-name="u" unicode="u" horiz-adv-x="625" 
d="M353 442l178 8v-368c0 -39 7 -39 69 -39v-43l-173 -6v81h-1c-43 -81 -117 -81 -141 -81c-107 0 -174 29 -174 129v237c0 39 -7 39 -69 39v43l178 8v-343c0 -55 4 -80 79 -80c78 0 123 61 123 137v196c0 39 -7 39 -69 39v43z" />
    <glyph glyph-name="v" unicode="v" horiz-adv-x="593" 
d="M495 378l-165 -361c-9 -20 -17 -22 -33 -22c-23 0 -25 5 -34 24l-176 382h-63v43c26 -2 84 -2 113 -2c27 0 97 0 120 2v-43h-55l129 -281l117 257c5 10 5 11 5 12c0 7 -22 12 -49 12v43c57 -2 59 -2 86 -2c41 0 43 0 79 2v-43c-63 0 -67 -8 -74 -23z" />
    <glyph glyph-name="w" unicode="w" horiz-adv-x="812" 
d="M720 377l-145 -358c-7 -18 -10 -24 -32 -24c-12 0 -23 0 -32 22l-106 263l-106 -265c-8 -20 -20 -20 -31 -20c-22 0 -26 7 -33 25l-153 381h-59v43c30 -2 78 -2 110 -2c27 0 95 0 118 2v-43h-57l108 -266l76 189c1 3 4 10 4 12c0 5 -10 29 -13 35c-4 9 -9 22 -12 30h-59
v43c50 -2 52 -2 103 -2c27 0 86 0 110 2v-43h-57l115 -285l105 260c4 10 4 11 4 12c0 13 -49 13 -58 13v43c36 -2 49 -2 90 -2c36 0 49 0 78 2v-43c-58 0 -61 -7 -68 -24z" />
    <glyph glyph-name="x" unicode="x" horiz-adv-x="593" 
d="M337 247l169 -204h70v-43c-28 2 -81 2 -111 2c-28 0 -95 0 -119 -2v43h42l-111 135l-100 -113c-7 -8 -7 -9 -7 -10c0 -7 21 -12 40 -12v-43c-28 2 -70 2 -99 2c-31 0 -33 0 -93 -2v43c83 0 90 7 102 21l130 147l-156 190h-71v43c28 -2 82 -2 112 -2c27 0 95 0 118 2v-43
h-42l99 -121l87 98c2 2 7 9 7 11c0 7 -21 12 -40 12v43c28 -2 71 -2 100 -2c34 0 36 0 92 2v-43c-83 0 -92 -8 -103 -21z" />
    <glyph glyph-name="y" unicode="y" horiz-adv-x="593" 
d="M495 379l-213 -461c-20 -44 -74 -118 -156 -118c-60 0 -104 42 -104 89c0 34 24 55 55 55c30 0 54 -21 54 -54c0 -38 -30 -50 -32 -51c11 -6 23 -6 27 -6c70 0 102 69 123 114c5 12 19 41 24 53l-185 401h-64v43c26 -2 85 -2 114 -2c28 0 96 0 120 2v-43h-55l128 -277
l117 252c1 3 4 9 4 12c0 13 -47 13 -48 13v43c57 -2 59 -2 86 -2c41 0 45 0 79 2v-43c-64 0 -68 -8 -74 -22z" />
    <glyph glyph-name="z" unicode="z" horiz-adv-x="500" 
d="M440 406l-277 -370h91c126 0 148 56 156 162h42l-17 -198h-375c-20 0 -29 0 -29 20c0 7 0 9 9 20l278 371h-90c-111 0 -133 -44 -139 -139h-42l11 172h362c19 0 29 0 29 -19c0 -6 0 -8 -9 -19z" />
    <glyph glyph-name="endash" unicode="&#x2013;" 
d="M561 258h-561v33h561v-33z" />
    <glyph glyph-name="emdash" unicode="&#x2014;" horiz-adv-x="1125" 
d="M1124 258h-1124v33h1124v-33z" />
    <glyph glyph-name="hungarumlaut" unicode="&#x2dd;" 
d="M271 611l-97 -95l-36 22l40 125c5 16 15 46 51 46c32 0 63 -28 63 -57c0 -21 -13 -33 -21 -41zM325 538l40 125c5 16 15 46 51 46c32 0 63 -28 63 -57c0 -21 -13 -33 -21 -41l-97 -95z" />
    <glyph glyph-name="tilde" unicode="&#x2dc;" 
d="M467 672l-52 -57c-17 -19 -42 -27 -67 -27c-26 0 -54 10 -69 16c-36 13 -61 21 -84 21c-37 0 -64 -22 -77 -37l-24 22l52 57c17 19 42 27 67 27c26 0 54 -10 69 -16c36 -13 61 -21 84 -21c37 0 64 22 77 37z" />
    <glyph glyph-name="dieresis" unicode="&#xa8;" 
d="M239 627c0 -39 -32 -67 -67 -67c-40 0 -68 33 -68 68c0 32 27 67 68 67c32 0 67 -25 67 -68zM457 627c0 -32 -27 -67 -68 -67c-32 0 -67 25 -67 68c0 39 32 67 67 67c40 0 68 -33 68 -68z" />
    <glyph glyph-name="space" unicode=" " horiz-adv-x="375" 
 />
  </font>
</defs>
</svg>
