<?xml version="1.0" standalone="no"?>
<!DOCTYPE svg PUBLIC "-//W3C//DTD SVG 1.1//EN" "http://www.w3.org/Graphics/SVG/1.1/DTD/svg11.dtd" >
<svg>
<metadata>
Created by FontForge 20060822 at Fri Oct  6 18:21:53 2006
 By Wojciech Mula,,,
Copyright (C) 1997 American Mathematical Society. All Rights Reserved
</metadata>
<defs>
<font id="CMDUNH10" horiz-adv-x="500" >
  <font-face 
    font-family="Computer Modern"
    font-weight="500"
    font-stretch="normal"
    units-per-em="1000"
    panose-1="2 0 6 3 0 0 0 0 0 0"
    ascent="800"
    descent="-200"
    x-height="431"
    cap-height="961"
    bbox="-40 -528 1010 1028"
    underline-thickness="0"
    underline-position="0"
    stemh="31"
    stemv="69"
    unicode-range="U+0020-U+FB04"
  />
    <missing-glyph />
    <glyph glyph-name="ff" unicode="ff" horiz-adv-x="583" 
d="M448 400v-322c0 -36 2 -47 76 -47h21v-31c-40 3 -87 3 -127 3c-28 0 -75 -2 -114 -3v31c67 0 78 0 78 45v324h-210v-324c0 -45 11 -45 78 -45v-31c-37 1 -86 3 -111 3s-78 -2 -111 -3v31c67 0 78 0 78 45v324h-79v31h79v263c0 160 97 289 210 289c72 0 108 -54 117 -74
c29 48 65 74 104 74c57 0 91 -52 91 -97c0 -30 -20 -45 -44 -45c-25 0 -43 18 -43 43c0 43 39 43 50 43c-17 31 -43 34 -54 34c-62 0 -92 -162 -92 -259v-271h118v-31h-115zM169 431h213v268c0 4 0 61 14 114c-28 4 -39 25 -39 44c0 25 18 43 43 43c5 0 7 0 10 -1
c-21 45 -61 62 -94 62c-81 0 -147 -123 -147 -266v-264z" />
    <glyph glyph-name="fi" unicode="fi" horiz-adv-x="555" 
d="M323 434l126 9v-367c0 -45 11 -45 78 -45v-31c-37 1 -86 3 -111 3s-78 -2 -111 -3v31c67 0 78 0 78 45v270c0 41 -7 54 -53 54h-158v-324c0 -45 11 -45 78 -45v-31c-37 1 -86 3 -111 3s-78 -2 -111 -3v31c67 0 78 0 78 45v324h-79v31h79v263c0 161 99 289 212 289
c82 0 129 -79 129 -156c0 -25 -16 -46 -46 -46c-27 0 -45 20 -45 46c0 30 24 46 45 46c6 0 12 -2 16 -3c-16 58 -55 91 -99 91c-82 0 -149 -123 -149 -266v-264h118c14 0 16 0 18 1c1 0 2 1 18 2z" />
    <glyph glyph-name="fl" unicode="fl" horiz-adv-x="555" 
d="M449 972v-896c0 -45 11 -45 78 -45v-31c-37 1 -86 3 -111 3s-78 -2 -111 -3v31c67 0 78 0 78 45v324h-211v-324c0 -45 11 -45 78 -45v-31c-37 1 -86 3 -111 3s-78 -2 -111 -3v31c67 0 78 0 78 45v324h-79v31h79v263c0 156 94 289 212 289c38 0 66 -13 78 -20zM169 431
h214v414c-17 7 -25 22 -25 39c0 26 17 37 25 40v20c-13 7 -38 17 -65 17c-86 0 -149 -128 -149 -266v-264z" />
    <glyph glyph-name="ffi" unicode="ffi" horiz-adv-x="833" 
d="M600 434l126 9v-367c0 -45 11 -45 78 -45v-31c-37 1 -86 3 -111 3s-78 -2 -111 -3v31c67 0 78 0 78 45v270c0 41 -7 54 -53 54h-158v-324c0 -45 11 -45 78 -45v-31c-37 1 -86 3 -111 3s-78 -2 -111 -3v31c67 0 78 0 78 45v324h-211v-324c0 -45 11 -45 78 -45v-31
c-37 1 -86 3 -111 3s-78 -2 -111 -3v31c67 0 78 0 78 45v324h-79v31h79v263c0 159 96 289 211 289c42 0 92 -22 120 -98c42 66 104 98 158 98c82 0 129 -79 129 -156c0 -25 -16 -46 -46 -46c-27 0 -45 20 -45 46c0 30 24 46 45 46c6 0 12 -2 16 -3c-16 58 -55 91 -99 91
c-82 0 -149 -123 -149 -266v-264h118c14 0 16 0 18 1c1 0 2 1 18 2zM169 695v-264h214v263c0 33 5 67 10 87c-25 4 -40 20 -40 46c0 31 25 46 46 46c5 0 11 -2 15 -3c-14 56 -52 91 -98 91c-79 0 -147 -121 -147 -266z" />
    <glyph glyph-name="ffl" unicode="ffl" horiz-adv-x="833" 
d="M726 972v-896c0 -45 11 -45 78 -45v-31c-37 1 -86 3 -111 3s-78 -2 -111 -3v31c67 0 78 0 78 45v324h-211v-324c0 -45 11 -45 78 -45v-31c-37 1 -86 3 -111 3s-78 -2 -111 -3v31c67 0 78 0 78 45v324h-211v-324c0 -45 11 -45 78 -45v-31c-37 1 -86 3 -111 3
s-78 -2 -111 -3v31c67 0 78 0 78 45v324h-79v31h79v263c0 159 96 289 211 289c57 0 106 -36 123 -92c35 48 86 92 155 92c38 0 66 -13 78 -20zM169 431h214v263c0 37 6 82 19 119c-32 3 -44 20 -44 44c0 43 41 43 52 43c-25 52 -71 61 -93 61c-83 0 -148 -124 -148 -266
v-264zM446 695v-264h214v414c-17 7 -25 22 -25 39c0 26 17 37 25 40v20c-13 7 -38 17 -65 17c-86 0 -149 -128 -149 -266z" />
    <glyph glyph-name="Gamma" unicode="&#x393;" horiz-adv-x="625" 
d="M554 958l28 -225h-25c-16 135 -37 194 -180 194h-103c-47 0 -49 -7 -49 -40v-808c0 -35 0 -48 95 -48h33v-31c-36 3 -127 3 -168 3c-39 0 -117 0 -152 -3v31h24c77 0 79 11 79 47v802c0 36 -2 47 -79 47h-24v31h521z" />
    <glyph glyph-name="Delta" unicode="&#x394;" horiz-adv-x="833" 
d="M440 973l343 -952c1 -3 3 -9 3 -12c0 -9 -7 -9 -23 -9h-694c-16 0 -23 0 -23 9c0 3 2 9 3 12l343 953c6 18 11 20 24 20c16 0 18 -5 24 -21zM385 863l-283 -787h566z" />
    <glyph glyph-name="Theta" unicode="&#x398;" horiz-adv-x="777" 
d="M721 478c0 -291 -158 -500 -333 -500c-172 0 -332 206 -332 500c0 292 157 505 333 505c172 0 332 -210 332 -505zM389 1c103 0 235 130 235 477s-130 483 -235 483c-110 0 -236 -142 -236 -483c0 -342 129 -477 236 -477zM567 567v-172h-25v48h-307v-48h-25v172h25v-48
h307v48h25z" />
    <glyph glyph-name="Lambda" unicode="&#x39b;" horiz-adv-x="694" 
d="M367 972l209 -900c10 -41 27 -41 86 -41v-31c-37 1 -87 3 -122 3c-38 0 -108 0 -143 -3v31c24 0 90 0 90 31c0 4 -2 9 -3 15l-167 718h-1l-159 -686c-4 -16 -4 -18 -4 -22c0 -30 31 -55 84 -56v-31c-32 1 -83 3 -113 3c-9 0 -60 -1 -93 -3v31c46 0 80 17 92 68l203 873
c4 17 5 22 21 22c15 0 16 -5 20 -22z" />
    <glyph glyph-name="Xi" unicode="&#x39e;" horiz-adv-x="666" 
d="M611 955l8 -156h-25c-2 41 -5 67 -12 78c-6 8 -65 8 -76 8h-346c-9 0 -70 0 -76 -8c-7 -11 -10 -37 -12 -78h-25l8 156h556zM50 0l-8 167h25c2 -44 4 -74 12 -87c7 -10 62 -10 80 -10h348c22 0 74 0 80 11c8 14 9 40 12 86h25l-8 -167h-566zM527 583v-172h-25v51h-338
v-51h-25v172h25v-51h338v51h25z" />
    <glyph glyph-name="Pi" unicode="&#x3a0;" horiz-adv-x="750" 
d="M613 880v-802c0 -36 2 -47 79 -47h24v-31c-35 3 -110 3 -148 3s-112 0 -147 -3v31h24c77 0 79 11 79 47v849h-299v-849c0 -36 2 -47 79 -47h24v-31c-35 3 -110 3 -148 3s-112 0 -147 -3v31h24c77 0 79 11 79 47v802c0 36 -2 47 -79 47h-24v31h683v-31h-24
c-77 0 -79 -11 -79 -47z" />
    <glyph glyph-name="Sigma" unicode="&#x3a3;" horiz-adv-x="722" 
d="M367 466l-258 -424h284c167 0 227 30 247 194h25l-28 -236h-555c-15 0 -25 0 -25 11c0 2 0 4 6 14l242 398l-249 515c0 23 2 23 26 23h555l28 -225h-25c-19 165 -82 194 -241 194h-240l209 -434c0 -1 6 -11 6 -15c0 -3 0 -5 -7 -15z" />
    <glyph glyph-name="Upsilon" unicode="&#x3a5;" horiz-adv-x="777" 
d="M433 550v-471c0 -35 0 -48 95 -48h33v-31c-36 3 -132 3 -173 3s-136 0 -172 -3v31h33c95 0 95 14 95 48v471c0 229 -41 356 -157 356c-51 0 -95 -43 -100 -132c-1 -10 -2 -16 -15 -16c-16 0 -16 6 -16 21c0 9 1 204 132 204c145 0 186 -147 200 -272h1
c12 124 56 272 200 272c132 0 132 -199 132 -204c0 -15 0 -21 -16 -21c-14 0 -14 5 -15 20c-4 67 -37 128 -100 128c-113 0 -157 -121 -157 -356z" />
    <glyph glyph-name="Phi" unicode="&#x3a6;" horiz-adv-x="722" 
d="M399 178v-99c0 -35 0 -48 95 -48h33v-31c-36 3 -129 3 -170 3s-133 0 -169 -3v31h33c95 0 95 14 95 48v99c-150 23 -260 151 -260 303c0 149 108 278 260 302v99c0 35 0 48 -95 48h-33v31c36 -3 128 -3 169 -3s134 0 170 3v-31h-33c-95 0 -95 -14 -95 -48v-99
c146 -17 266 -143 266 -303c0 -156 -118 -285 -266 -302zM316 202v557c-160 -41 -160 -215 -160 -279c0 -63 0 -237 160 -278zM399 760v-559c166 35 166 219 166 280c0 60 0 244 -166 279z" />
    <glyph glyph-name="Psi" unicode="&#x3a8;" horiz-adv-x="777" 
d="M427 882v-677c131 47 142 267 142 360c0 129 0 222 89 222h38c16 0 24 0 24 -11c0 -9 -6 -10 -14 -11c-49 -7 -54 -79 -54 -186c0 -69 -1 -362 -225 -400v-100c0 -35 0 -48 95 -48h33v-31c-36 3 -129 3 -170 3s-133 0 -169 -3v31h33c95 0 95 14 95 48v100
c-218 41 -219 325 -219 411c0 168 -30 172 -59 175c-6 1 -9 6 -9 11c0 11 10 11 25 11h37c55 0 89 -27 89 -183c0 -105 1 -346 136 -399v677c0 35 0 48 -95 48h-33v31c36 -3 128 -3 169 -3s134 0 170 3v-31h-33c-95 0 -95 -14 -95 -48z" />
    <glyph glyph-name="Omega" unicode="&#x3a9;" horiz-adv-x="722" 
d="M677 162l-33 -162h-159c-25 0 -26 0 -26 24c0 98 32 225 53 309c26 104 50 207 50 308c0 227 -113 320 -202 320c-85 0 -201 -88 -201 -320c0 -101 24 -205 48 -298c24 -95 55 -221 55 -319c0 -24 -2 -24 -25 -24h-160l-33 162h25c2 -8 11 -57 19 -76c4 -12 8 -21 66 -21
h82c-11 89 -47 168 -94 273c-48 106 -86 198 -86 302c0 195 140 343 305 343c161 0 304 -146 304 -343c0 -106 -40 -201 -89 -311c-44 -96 -80 -176 -91 -264h82c59 0 62 8 67 24c8 21 13 47 18 73h25z" />
    <glyph glyph-name="dotlessi" unicode="&#x131;" horiz-adv-x="277" 
d="M177 442v-367c0 -39 4 -44 70 -44v-31c-34 1 -69 3 -104 3c-24 0 -78 -2 -110 -3v31c67 0 78 0 78 45v269c0 49 -9 55 -74 55v31z" />
    <glyph glyph-name="dotlessj" unicode="&#xf6be;" horiz-adv-x="305" 
d="M210 442v-492c0 -91 -62 -155 -137 -155c-57 0 -113 28 -113 80c0 26 18 46 46 46s46 -20 46 -46c0 -27 -20 -41 -35 -45c26 -13 49 -13 54 -13c64 0 73 86 73 131v396c0 49 -9 56 -86 56v31z" />
    <glyph glyph-name="grave" unicode="`" 
d="M273 568l-154 237c-8 12 -10 15 -10 25c0 20 20 34 36 34c21 0 29 -16 34 -28l116 -256z" />
    <glyph glyph-name="acute" unicode="&#xb4;" 
d="M379 803l-154 -235l-21 13l116 254c7 15 13 29 34 29c16 0 36 -14 36 -34c0 -10 -3 -15 -11 -27z" />
    <glyph glyph-name="caron" unicode="&#x2c7;" 
d="M249 631l115 130l20 -16l-135 -166l-134 166l20 16z" />
    <glyph glyph-name="breve" unicode="&#x2d8;" 
d="M377 861h22c0 -89 -13 -284 -150 -284c-134 0 -149 192 -149 284h22c0 -93 16 -246 128 -246c122 0 127 185 127 246z" />
    <glyph glyph-name="macron" unicode="&#xaf;" 
d="M430 670h-361v31h361v-31z" />
    <glyph glyph-name="ring" unicode="&#x2da;" horiz-adv-x="750" 
d="M470 814c0 -101 -43 -181 -96 -181c-50 0 -95 76 -95 181c0 98 42 180 96 180c51 0 95 -78 95 -180zM375 655c14 0 70 7 70 159c0 155 -59 158 -70 158c-22 0 -71 -16 -71 -159s50 -158 71 -158z" />
    <glyph glyph-name="cedilla" unicode="&#xb8;" horiz-adv-x="444" 
d="M284 -22v-33c46 -7 83 -28 83 -71c0 -39 -33 -57 -74 -66c-47 -11 -114 -11 -118 -11h-44v22h31c93 0 136 17 136 55c0 31 -29 54 -83 55v49h69z" />
    <glyph glyph-name="germandbls" unicode="&#xdf;" 
d="M299 422c102 -31 172 -134 172 -248c0 -112 -89 -185 -175 -185c-58 0 -95 36 -95 76c0 25 19 37 36 37c20 0 36 -14 36 -36c0 -24 -19 -34 -30 -36c18 -17 41 -19 50 -19c38 0 103 33 103 162c0 104 -40 226 -159 236c-9 1 -9 9 -9 11c0 9 8 10 9 10c24 4 71 11 107 106
c23 63 24 130 24 169c0 171 -47 256 -96 256c-58 0 -100 -114 -100 -245v-716c-18 3 -35 3 -46 3c-13 0 -79 -2 -98 -3v31c67 0 78 0 78 45v324h-78v31h78v276c0 145 71 276 166 276s171 -124 171 -280c0 -143 -65 -245 -144 -281z" />
    <glyph glyph-name="ae" unicode="&#xe6;" horiz-adv-x="722" 
d="M668 231h-273c0 -217 137 -217 147 -217c62 0 108 47 123 97c5 16 6 20 15 20c5 0 13 -2 13 -12c0 -19 -42 -130 -155 -130c-30 0 -108 8 -167 89c-24 -49 -86 -89 -167 -89c-67 0 -159 24 -159 103c0 96 119 158 281 158v48c0 87 -55 128 -106 128
c-36 0 -83 -14 -108 -46c46 -1 51 -34 51 -46c0 -26 -18 -46 -46 -46c-26 0 -46 17 -46 47c0 67 71 113 151 113c64 0 124 -29 153 -77c51 61 107 77 151 77c109 0 167 -85 167 -196c0 -21 -3 -21 -25 -21zM396 252h231c-2 39 -7 174 -102 174c-36 0 -119 -28 -129 -174z
M326 229c-162 -6 -204 -83 -204 -137c0 -47 40 -81 87 -81c72 0 129 57 129 121c0 3 0 11 -3 22c-9 31 -9 51 -9 75z" />
    <glyph glyph-name="oe" unicode="&#x153;" horiz-adv-x="777" 
d="M724 231h-273c0 -217 137 -217 147 -217c62 0 108 47 123 97c5 16 6 20 15 20c5 0 13 -2 13 -12c0 -19 -42 -130 -155 -130c-61 0 -133 31 -177 104c-33 -56 -96 -104 -176 -104c-115 0 -213 100 -213 230s99 229 213 229c76 0 139 -44 175 -101c40 67 103 101 166 101
c109 0 167 -85 167 -196c0 -21 -3 -21 -25 -21zM452 252h231c-2 39 -7 174 -102 174c-36 0 -119 -28 -129 -174zM242 11c32 0 140 21 140 212c0 195 -122 203 -140 203c-25 0 -137 -10 -137 -203c0 -203 115 -212 137 -212z" />
    <glyph glyph-name="oslash" unicode="&#xf8;" 
d="M439 522l-67 -116c38 -28 92 -95 92 -193c0 -124 -96 -224 -215 -224c-42 0 -79 14 -102 27l-68 -118c-7 4 -9 4 -19 11l69 119c-54 38 -94 105 -94 185c0 129 96 235 215 235c43 0 81 -15 104 -30l66 115c7 -4 9 -4 19 -11zM146 59l192 333c-18 16 -49 34 -89 34
c-36 0 -86 -17 -116 -69c-27 -45 -29 -101 -29 -143c0 -56 5 -113 42 -155zM354 374l-191 -332c28 -24 62 -31 87 -31c39 0 87 18 116 64s29 106 29 139c0 41 -2 114 -41 160z" />
    <glyph glyph-name="AE" unicode="&#xc6;" horiz-adv-x="902" 
d="M874 258l-42 -258h-493v31c66 0 77 0 77 45v370h-160l-87 -341c-4 -14 -4 -16 -4 -19c0 -25 24 -54 82 -55v-31c-32 1 -84 3 -115 3c-40 0 -80 -2 -101 -3v31c49 0 91 14 105 69l211 829c-3 0 -26 0 -26 1h-63v31h560l28 -225h-25c-16 136 -36 194 -178 194h-95
c-47 0 -49 -7 -49 -40v-413h85c94 0 103 33 103 117h25v-265h-25c0 84 -9 117 -103 117h-85v-375c0 -33 2 -40 49 -40h95c168 0 181 79 206 227h25zM378 926l-114 -449h152v405c0 15 0 42 -38 44z" />
    <glyph glyph-name="OE" unicode="&#x152;" horiz-adv-x="1013" 
d="M985 258l-42 -258h-387c-22 0 -36 -1 -81 -12c-36 -8 -56 -10 -73 -10c-172 0 -332 206 -332 500c0 295 159 505 332 505c8 0 26 0 68 -10c55 -12 69 -12 86 -12h373l28 -225h-25c-16 135 -38 194 -181 194h-112c-47 0 -49 -7 -49 -40v-375h108c100 0 114 31 114 117h25
v-265h-25c0 86 -14 117 -114 117h-108v-413c0 -33 2 -40 49 -40h110c171 0 186 78 211 227h25zM402 0c102 0 106 95 110 191c2 51 2 228 2 290c0 264 -2 297 -5 326c-5 69 -11 154 -107 154c-124 0 -232 -195 -232 -463c0 -270 101 -498 232 -498z" />
    <glyph glyph-name="Oslash" unicode="&#xd8;" horiz-adv-x="777" 
d="M666 1004l-68 -134c37 -44 123 -172 123 -392c0 -291 -158 -500 -333 -500c-100 0 -167 67 -192 92l-63 -125l-21 12l66 134c-39 47 -122 172 -122 387c0 292 157 505 333 505c98 0 162 -64 191 -92l64 125zM204 142l354 705c-36 57 -91 114 -170 114s-146 -61 -189 -153
c-51 -110 -54 -240 -54 -330c0 -119 8 -237 59 -336zM573 819l-354 -705c32 -54 90 -114 170 -114c75 0 148 56 196 166c45 106 47 232 47 312c0 115 -7 235 -59 341z" />
    <glyph glyph-name="suppress" horiz-adv-x="277" 
d="M262 363l-225 -82l-10 29l225 82z" />
    <glyph glyph-name="exclam" unicode="!" horiz-adv-x="277" 
d="M192 932l-40 -722c-1 -18 -1 -23 -13 -23s-12 5 -13 24l-40 722c-3 51 37 61 53 61c13 0 56 -8 53 -62zM192 53c0 -29 -24 -53 -53 -53s-53 24 -53 53s24 53 53 53s53 -24 53 -53z" />
    <glyph glyph-name="quotedblright" unicode="&#x201d;" 
d="M153 867c0 -118 -83 -194 -94 -194c-5 0 -10 4 -10 11c0 3 0 5 12 17c63 62 70 134 70 166c0 4 0 18 -2 18c-1 0 -2 -1 -3 -3c-6 -6 -20 -16 -40 -16c-36 0 -53 27 -53 53s18 53 53 53c43 0 67 -45 67 -105zM347 867c0 -118 -83 -194 -94 -194c-5 0 -10 4 -10 11
c0 3 0 5 12 17c63 62 70 134 70 166c0 4 0 18 -2 18c-1 0 -2 -1 -3 -3c-6 -6 -20 -16 -40 -16c-36 0 -53 27 -53 53s18 53 53 53c43 0 67 -45 67 -105z" />
    <glyph glyph-name="numbersign" unicode="#" horiz-adv-x="833" 
d="M531 133l-94 -577c-3 -16 -5 -28 -21 -28c-11 0 -20 9 -20 20c0 2 1 10 2 13l93 572h-189l-94 -577c-3 -16 -5 -28 -21 -28c-11 0 -20 9 -20 20c0 2 1 10 2 13l93 572h-173c-14 0 -33 0 -33 20s19 20 34 20h179l25 154h-204c-15 0 -34 0 -34 20s19 20 33 20h212l94 577
c3 16 5 28 21 28c11 0 20 -9 20 -20c0 -2 -1 -10 -2 -13l-93 -572h189l94 577c3 16 5 28 21 28c11 0 20 -9 20 -20c0 -2 -1 -10 -2 -13l-93 -572h173c14 0 33 0 33 -20s-19 -20 -34 -20h-179l-25 -154h204c15 0 34 0 34 -20s-19 -20 -33 -20h-212zM309 173h189l25 154h-189z
" />
    <glyph glyph-name="dollar" unicode="$" 
d="M265 951v-404c48 -16 88 -30 125 -83c45 -66 53 -147 53 -197c0 -136 -68 -261 -178 -277v-46h-31v46c-165 10 -178 198 -178 256c0 11 0 55 46 55c20 0 46 -14 46 -46c0 -29 -21 -46 -46 -46c-9 0 -16 3 -19 4c9 -105 53 -185 151 -192v443c-57 20 -95 33 -130 88
c-46 70 -48 146 -48 173c0 120 63 241 178 257v46h31v-46c145 -8 178 -152 178 -238c0 -41 -21 -54 -46 -54c-22 0 -46 16 -46 46c0 25 16 46 46 46c10 0 17 -2 19 -3c-10 81 -47 164 -151 172zM234 558v393c-69 -12 -127 -90 -127 -196c0 -14 0 -76 33 -129
c25 -39 56 -57 94 -68zM265 453v-432c69 13 127 99 127 216c0 46 -9 99 -30 139c-28 50 -64 67 -97 77z" />
    <glyph glyph-name="percent" unicode="%" horiz-adv-x="833" 
d="M776 215c0 -141 -51 -271 -130 -271s-147 115 -147 271s68 271 147 271s130 -130 130 -271zM647 -34c56 0 104 110 104 249s-48 249 -104 249c-46 0 -66 -75 -71 -93c-15 -53 -15 -117 -15 -156c0 -46 1 -105 14 -155c4 -15 25 -94 72 -94zM687 991l-507 -1028
c-7 -14 -9 -19 -21 -19c-11 0 -20 9 -20 20c0 3 0 5 7 18l462 940h-1c-32 -26 -85 -52 -152 -52c-65 0 -114 24 -146 48c20 -61 24 -112 24 -161c0 -141 -51 -271 -130 -271s-147 115 -147 271s68 271 147 271c40 0 60 -28 76 -48c36 -48 94 -88 175 -88
c70 0 148 31 197 117c7 12 11 19 22 19c12 0 20 -9 20 -20c0 -5 -1 -7 -6 -17zM204 508c56 0 104 110 104 249s-48 249 -104 249c-46 0 -66 -75 -71 -93c-15 -53 -15 -117 -15 -156c0 -46 1 -105 14 -155c4 -15 25 -94 72 -94z" />
    <glyph glyph-name="ampersand" unicode="&#x26;" horiz-adv-x="777" 
d="M76 294l133 205c-39 124 -46 231 -46 290c0 138 67 205 137 205c72 0 86 -80 86 -165c0 -32 0 -97 -120 -282c37 -139 159 -364 185 -403c46 61 85 126 122 192c1 3 6 10 6 20c0 25 -25 44 -71 44v31c27 -2 111 -3 122 -3c6 0 60 1 97 3v-31c-88 -1 -108 -35 -145 -96
c-66 -110 -76 -127 -117 -184c8 -13 67 -111 120 -111c42 0 108 31 111 112h25c-2 -90 -71 -143 -139 -143c-70 0 -124 54 -159 95c-24 -25 -93 -95 -199 -95c-110 0 -182 97 -182 199c0 41 11 81 34 117zM258 576c103 161 103 225 103 255c0 115 -26 141 -60 141
c-75 0 -75 -126 -75 -158c0 -88 15 -175 32 -238zM218 471l-36 -54c-31 -48 -57 -89 -57 -197c0 -52 6 -99 17 -134c24 -76 70 -77 89 -77c79 0 144 49 176 85c-63 88 -154 273 -189 377z" />
    <glyph glyph-name="quoteright" unicode="&#x2019;" horiz-adv-x="277" 
d="M206 867c0 -118 -83 -194 -94 -194c-5 0 -10 4 -10 11c0 3 0 5 12 17c63 62 70 134 70 166c0 4 0 18 -2 18c-1 0 -2 -1 -3 -3c-6 -6 -20 -16 -40 -16c-36 0 -53 27 -53 53s18 53 53 53c43 0 67 -45 67 -105z" />
    <glyph glyph-name="parenleft" unicode="(" horiz-adv-x="388" 
d="M331 -518c0 -7 -4 -10 -10 -10c-22 0 -98 139 -101 143c-116 223 -121 508 -121 635c0 145 6 479 168 714c25 37 44 64 54 64c6 0 10 -3 10 -10c0 -2 -1 -5 -2 -7c-119 -183 -172 -386 -172 -761c0 -286 28 -540 164 -748c10 -16 10 -18 10 -20z" />
    <glyph glyph-name="parenright" unicode=")" horiz-adv-x="388" 
d="M289 250c0 -145 -6 -479 -168 -714c-25 -37 -44 -64 -54 -64c-6 0 -10 4 -10 10c0 2 0 4 11 20c141 217 163 486 163 748c0 411 -66 597 -172 760c-1 3 -2 5 -2 8c0 6 4 10 10 10c22 0 99 -140 101 -143c116 -223 121 -508 121 -635z" />
    <glyph glyph-name="asterisk" unicode="*" 
d="M261 792l14 -156l1 -14c0 -15 -13 -25 -26 -25c-16 0 -27 12 -27 25l15 170l-125 -92c-12 -9 -17 -9 -21 -9c-16 0 -27 15 -27 28c0 17 10 21 22 27l140 67l-142 67c-9 4 -20 9 -20 26c0 13 11 28 27 28c7 0 9 0 21 -10l125 -91l-15 170c0 13 11 25 27 25
c13 0 26 -10 26 -25l-15 -170l125 92c12 9 17 9 21 9c16 0 27 -15 27 -28c0 -17 -10 -21 -22 -27l-140 -67l142 -67c9 -4 20 -9 20 -26c0 -13 -11 -28 -27 -28c-7 0 -9 0 -21 10z" />
    <glyph glyph-name="plus" unicode="+" horiz-adv-x="777" 
d="M409 230v-280c0 -14 0 -33 -20 -33s-20 19 -20 33v280h-280c-14 0 -33 0 -33 20s19 20 33 20h280v280c0 14 0 33 20 33s20 -19 20 -33v-280h279c14 0 33 0 33 -20s-19 -20 -33 -20h-279z" />
    <glyph glyph-name="comma" unicode="," horiz-adv-x="277" 
d="M179 16l-2 -2c-10 -8 -22 -14 -38 -14c-36 0 -53 27 -53 53s18 53 53 53c40 0 64 -41 64 -105c0 -115 -79 -194 -91 -194c-5 0 -10 4 -10 11c0 4 1 5 7 11c44 47 72 108 72 172c0 14 -1 15 -2 15z" />
    <glyph glyph-name="hyphen" unicode="-" horiz-adv-x="333" 
d="M276 187h-265v58h265v-58z" />
    <glyph glyph-name="period" unicode="." horiz-adv-x="277" 
d="M192 53c0 -29 -24 -53 -53 -53s-53 24 -53 53s24 53 53 53s53 -24 53 -53z" />
    <glyph glyph-name="slash" unicode="/" 
d="M439 989l-341 -1489c-4 -17 -6 -28 -22 -28c-11 0 -20 9 -20 20c0 2 0 4 4 19l341 1489c4 17 6 28 22 28c11 0 20 -9 20 -20c0 -2 0 -4 -4 -19z" />
    <glyph glyph-name="zero" unicode="0" 
d="M460 459c0 -126 -5 -207 -30 -296c-28 -102 -88 -185 -181 -185c-125 0 -169 148 -181 187c-29 99 -29 224 -29 294c0 108 4 201 28 291c10 35 53 194 183 194c116 0 161 -130 172 -160c38 -110 38 -243 38 -325zM250 0c46 0 104 39 119 204c8 87 8 170 8 271
c0 67 0 195 -9 268s-36 179 -119 179c-72 0 -108 -85 -119 -188c-8 -75 -8 -170 -8 -259c0 -243 7 -340 40 -409c18 -36 47 -66 88 -66z" />
    <glyph glyph-name="one" unicode="1" 
d="M294 918v-839c0 -37 3 -48 93 -48h32v-31c-35 3 -122 3 -162 3s-127 0 -162 -3v31h32c90 0 93 12 93 48v781c-28 -20 -72 -39 -131 -39v31c95 0 156 50 182 92c23 0 23 -2 23 -26z" />
    <glyph glyph-name="two" unicode="2" 
d="M247 272l-138 -195h198c22 0 88 0 95 8c10 15 17 59 22 89h25l-28 -174h-371c0 23 0 25 8 37l175 288c91 150 125 254 125 359c0 109 -24 229 -129 229c-95 0 -136 -102 -145 -196c6 2 10 3 18 3c22 0 53 -15 53 -53c0 -29 -21 -52 -52 -52c-49 0 -53 41 -53 60
c0 99 44 269 187 269c136 0 212 -120 212 -263c0 -131 -76 -237 -145 -330z" />
    <glyph glyph-name="three" unicode="3" 
d="M234 487h-43c-17 0 -24 0 -24 11c0 9 7 10 8 10c3 1 8 2 32 5c61 6 131 13 131 240c0 143 -62 166 -96 166c-56 0 -122 -42 -142 -129c5 2 14 3 20 3c28 0 51 -19 51 -51c0 -28 -21 -50 -51 -50c-16 0 -51 8 -51 54c0 93 66 198 176 198c96 0 185 -77 185 -189
c0 -66 -26 -202 -152 -252c110 -24 179 -134 179 -257c0 -151 -97 -268 -213 -268c-127 0 -202 127 -202 238c0 61 53 61 56 61c25 0 56 -18 56 -56c0 -31 -21 -56 -56 -56c-5 0 -14 0 -20 3c20 -98 88 -162 164 -162c46 0 112 49 112 240c0 46 -2 101 -20 153
c-32 88 -80 88 -100 88z" />
    <glyph glyph-name="four" unicode="4" 
d="M34 287l305 654c6 13 6 14 17 14c15 0 15 -6 15 -26v-655h100v-31h-100v-165c0 -36 2 -47 76 -47h21v-31c-41 3 -94 3 -136 3s-94 0 -135 -3v31h21c74 0 76 11 76 47v165h-266c0 30 0 32 6 44zM299 801l-245 -527h246v527h-1z" />
    <glyph glyph-name="five" unicode="5" 
d="M132 836v-310c22 29 64 66 127 66c109 0 190 -139 190 -304c0 -184 -106 -310 -219 -310c-130 0 -180 151 -180 254c0 37 18 56 49 56c33 0 50 -25 50 -49s-16 -49 -50 -49c-13 0 -15 1 -21 4c13 -113 72 -188 150 -188c50 0 86 41 108 95c24 61 24 136 24 193
c0 67 -2 125 -16 174c-17 59 -43 102 -86 102c-82 0 -118 -71 -128 -90c-5 -9 -7 -13 -15 -13c-14 0 -14 8 -14 26v426c0 16 0 24 10 24c2 0 3 0 11 -4c19 -13 64 -41 134 -41c43 0 91 12 130 38c10 7 12 7 14 7c7 0 10 -4 10 -10c0 -16 -67 -118 -190 -118
c-30 0 -60 7 -88 21z" />
    <glyph glyph-name="six" unicode="6" 
d="M132 520v-28c16 50 48 107 125 107c62 0 109 -30 156 -113c41 -74 44 -139 44 -196c0 -70 -7 -132 -50 -203c-35 -59 -78 -109 -156 -109c-99 0 -154 101 -180 198c-22 82 -29 162 -29 275c0 308 130 493 263 493c93 0 127 -73 127 -134c0 -46 -36 -50 -46 -50
c-22 0 -46 15 -46 46s24 46 46 46c9 0 11 -1 15 -2c-12 41 -45 69 -95 69c-93 0 -174 -135 -174 -399zM250 6c64 0 92 67 102 105c15 52 15 112 15 180c0 97 0 286 -113 286c-118 0 -120 -174 -120 -235c0 -96 0 -336 116 -336z" />
    <glyph glyph-name="seven" unicode="7" 
d="M479 887l-144 -298c-20 -41 -46 -125 -58 -263c-8 -85 -9 -196 -9 -207v-86c0 -10 0 -55 -46 -55s-46 43 -46 61c0 99 17 326 131 562l118 244h-221c-13 0 -91 0 -98 -6c-13 -12 -22 -75 -25 -91h-25l33 206h25c4 -19 6 -32 128 -32h243c0 -22 0 -24 -6 -35z" />
    <glyph glyph-name="eight" unicode="8" 
d="M199 484l-63 58c-3 3 -67 62 -67 176s68 226 181 226c105 0 180 -97 180 -204c0 -103 -70 -180 -133 -225l51 -48c48 -44 109 -101 109 -230c0 -132 -80 -259 -208 -259c-120 0 -207 112 -207 239c0 110 61 201 157 267zM163 638l117 -107c41 32 106 104 106 208
c0 92 -52 180 -137 180c-78 0 -136 -74 -136 -158c0 -77 46 -119 50 -123zM217 467c-67 -44 -125 -135 -125 -249c0 -110 60 -212 158 -212c91 0 157 90 157 191c0 94 -45 136 -78 167c-37 35 -81 76 -112 103z" />
    <glyph glyph-name="nine" unicode="9" 
d="M367 400v30c-12 -41 -44 -107 -125 -107c-74 0 -113 45 -144 95c-49 77 -56 143 -56 214c0 70 7 135 55 210c33 52 78 102 156 102c84 0 138 -76 167 -167c30 -97 37 -192 37 -305c0 -296 -115 -494 -251 -494c-88 0 -139 60 -139 135c0 43 33 49 46 49
c22 0 46 -15 46 -46s-24 -46 -46 -46c-7 0 -13 2 -14 2c19 -50 67 -66 107 -66c96 0 161 151 161 394zM245 345c89 0 121 99 121 237c0 65 -5 141 -9 175c-12 89 -44 162 -103 162c-57 0 -88 -50 -105 -101c-17 -53 -17 -116 -17 -188c0 -95 0 -285 113 -285z" />
    <glyph glyph-name="colon" unicode=":" horiz-adv-x="277" 
d="M192 378c0 -29 -24 -53 -53 -53s-53 24 -53 53s24 53 53 53s53 -24 53 -53zM192 53c0 -29 -24 -53 -53 -53s-53 24 -53 53s24 53 53 53s53 -24 53 -53z" />
    <glyph glyph-name="semicolon" unicode=";" horiz-adv-x="277" 
d="M192 378c0 -29 -24 -53 -53 -53s-53 24 -53 53s24 53 53 53s53 -24 53 -53zM173 11c-8 -7 -19 -9 -26 -10c-1 -1 -3 -1 -8 -1c-36 0 -53 27 -53 53s18 53 53 53c54 0 56 -74 56 -103c0 -116 -72 -196 -83 -196c-5 0 -10 4 -10 11c0 3 0 5 7 13c64 74 64 152 64 180z" />
    <glyph glyph-name="exclamdown" unicode="&#xa1;" horiz-adv-x="277" 
d="M192 725c0 -29 -24 -53 -53 -53s-53 24 -53 53s24 53 53 53s53 -24 53 -53zM152 567l40 -722c3 -51 -37 -61 -53 -61c-13 0 -56 8 -53 62l40 722c1 18 1 23 13 23s12 -5 13 -24z" />
    <glyph glyph-name="equal" unicode="=" horiz-adv-x="777" 
d="M687 327h-597c-15 0 -34 0 -34 20s19 20 33 20h599c14 0 33 0 33 -20s-19 -20 -34 -20zM688 133h-599c-14 0 -33 0 -33 20s19 20 34 20h597c15 0 34 0 34 -20s-19 -20 -33 -20z" />
    <glyph glyph-name="questiondown" unicode="&#xbf;" horiz-adv-x="472" 
d="M275 725c0 -29 -24 -53 -53 -53s-53 24 -53 53s24 53 53 53s53 -24 53 -53zM235 573v-32c0 -118 -5 -258 -70 -398c-23 -49 -26 -86 -26 -153c0 -72 0 -173 85 -173c65 0 139 46 161 139c-4 -1 -6 -2 -16 -2c-26 0 -46 18 -46 46c0 30 24 46 46 46c7 0 46 -3 46 -50
c0 -99 -78 -201 -193 -201c-67 0 -166 36 -166 205c0 93 29 131 46 154c76 100 108 211 108 369v44c0 18 0 24 12 24c13 0 13 -10 13 -18z" />
    <glyph glyph-name="question" unicode="?" horiz-adv-x="472" 
d="M235 291v-77c0 -18 0 -27 -13 -27c-12 0 -12 6 -12 24v90c0 29 0 183 91 338c25 44 31 80 31 148c0 61 0 174 -110 174c-65 0 -121 -52 -137 -140c5 2 12 3 17 3c26 0 46 -18 46 -46c0 -30 -24 -46 -46 -46c-5 0 -46 1 -46 51c0 82 52 200 168 200c93 0 191 -51 191 -205
c0 -95 -37 -135 -57 -157c-112 -124 -123 -283 -123 -330zM275 53c0 -29 -24 -53 -53 -53s-53 24 -53 53s24 53 53 53s53 -24 53 -53z" />
    <glyph glyph-name="at" unicode="@" horiz-adv-x="777" 
d="M588 646v-360c0 -68 15 -81 34 -81c50 0 62 76 66 104c8 52 8 123 8 155c0 59 0 203 -74 331c-56 97 -136 166 -234 166c-157 0 -307 -195 -307 -475c0 -267 139 -475 311 -475c100 0 197 35 278 95h27c16 0 23 0 23 -10c0 -13 -88 -57 -137 -74
c-79 -28 -150 -33 -189 -33c-195 0 -338 226 -338 497c0 287 156 497 333 497c94 0 183 -59 247 -164c85 -140 85 -288 85 -355c0 -131 -5 -281 -101 -281c-52 0 -94 42 -101 97c-35 -64 -80 -97 -131 -97c-105 0 -199 127 -199 303s94 303 199 303c48 0 103 -32 141 -118
h33c25 0 26 -1 26 -25zM519 357v258c0 41 -36 90 -41 97c-15 21 -45 55 -89 55c-72 0 -131 -125 -131 -281s59 -281 131 -281c36 0 65 23 85 50c4 4 45 57 45 102z" />
    <glyph glyph-name="A" unicode="A" horiz-adv-x="750" 
d="M396 973l225 -901c8 -32 17 -41 80 -41h17v-31c-42 2 -88 3 -130 3c-38 0 -107 0 -143 -3v31c27 0 89 0 89 32c0 2 -2 7 -3 13l-62 249h-246l-54 -218c-4 -15 -4 -17 -4 -21c0 -28 29 -54 82 -55v-31c-32 1 -84 3 -115 3c-40 0 -80 -2 -101 -3v31c81 0 97 41 105 72
l217 870c4 18 8 21 22 21s17 -5 21 -21zM346 814l-115 -458h230z" />
    <glyph glyph-name="B" unicode="B" horiz-adv-x="708" 
d="M36 961h362c134 0 226 -113 226 -236c0 -107 -72 -200 -175 -223c111 -12 202 -114 202 -247c0 -134 -92 -255 -225 -255h-390v31h24c77 0 79 11 79 47v805c0 36 -2 47 -79 47h-24v31zM222 511h147c105 0 158 115 158 214c0 72 -30 205 -134 205h-122
c-47 0 -49 -7 -49 -40v-379zM271 31h123c110 0 157 126 157 225c0 40 -6 97 -32 150c-41 83 -91 83 -115 83h-182v-418c0 -33 2 -40 49 -40z" />
    <glyph glyph-name="C" unicode="C" horiz-adv-x="722" 
d="M665 959v-358c0 -21 0 -24 -16 -24c-14 0 -14 3 -16 24c-10 135 -55 351 -219 351c-108 0 -177 -102 -204 -163c-41 -94 -51 -189 -51 -309c0 -425 195 -471 255 -471c133 0 222 139 226 341c0 8 0 15 12 15c13 0 13 -6 13 -22c0 -137 -67 -365 -260 -365
c-181 0 -349 208 -349 503c0 292 166 502 349 502c75 0 136 -35 187 -115l48 101c6 13 7 14 14 14c11 0 11 -7 11 -24z" />
    <glyph glyph-name="D" unicode="D" horiz-adv-x="763" 
d="M35 961h363c177 0 309 -222 309 -489s-138 -472 -308 -472h-364v31h24c77 0 79 11 79 47v805c0 36 -2 47 -79 47h-24v31zM273 31h98c109 0 169 90 197 158c34 84 39 177 39 284c0 160 -16 227 -35 282c-18 48 -74 175 -201 175h-98c-47 0 -49 -7 -49 -40v-819
c0 -33 2 -40 49 -40z" />
    <glyph glyph-name="E" unicode="E" horiz-adv-x="680" 
d="M652 258l-42 -258h-577v31h24c77 0 79 11 79 47v802c0 36 -2 47 -79 47h-24v31h563l28 -225h-25c-16 139 -43 194 -196 194h-129c-47 0 -49 -7 -49 -40v-374h90c97 0 108 31 108 117h25v-265h-25c0 85 -11 117 -108 117h-90v-411c0 -33 2 -40 49 -40h133
c172 0 195 73 220 227h25z" />
    <glyph glyph-name="F" unicode="F" horiz-adv-x="652" 
d="M582 958l28 -225h-25c-16 138 -41 194 -191 194h-120c-47 0 -49 -7 -49 -40v-392h86c96 0 106 33 106 117h25v-265h-25c0 85 -10 117 -106 117h-86v-385c0 -35 0 -48 95 -48h33v-31c-36 3 -127 3 -168 3c-39 0 -117 0 -152 -3v31h24c77 0 79 11 79 47v802
c0 36 -2 47 -79 47h-24v31h549z" />
    <glyph glyph-name="G" unicode="G" horiz-adv-x="784" 
d="M666 198v-174c0 -15 0 -23 -9 -23c-11 0 -51 40 -64 62c-36 -62 -121 -85 -185 -85c-190 0 -352 214 -352 503c0 290 165 502 350 502c90 0 147 -53 187 -115l48 101c6 13 7 14 14 14c11 0 11 -7 11 -24v-358c0 -21 0 -24 -16 -24c-14 0 -14 3 -16 24
c-11 138 -56 351 -220 351c-64 0 -255 -50 -255 -471c0 -433 208 -472 265 -472c16 0 153 5 153 121v64c0 37 -3 48 -93 48h-32v31c36 -3 121 -3 161 -3c30 0 85 2 122 3v-31c-65 0 -69 -5 -69 -44z" />
    <glyph glyph-name="H" unicode="H" horiz-adv-x="750" 
d="M613 883v-805c0 -36 2 -47 79 -47h24v-31c-35 3 -110 3 -148 3s-112 0 -147 -3v31h24c77 0 79 11 79 47v406h-299v-406c0 -36 2 -47 79 -47h24v-31c-35 3 -110 3 -148 3s-112 0 -147 -3v31h24c77 0 79 11 79 47v805c0 36 -2 47 -79 47h-24v31c35 -3 110 -3 148 -3
s112 0 147 3v-31h-24c-77 0 -79 -11 -79 -47v-368h299v368c0 36 -2 47 -79 47h-24v31c35 -3 110 -3 148 -3s112 0 147 3v-31h-24c-77 0 -79 -11 -79 -47z" />
    <glyph glyph-name="I" unicode="I" horiz-adv-x="361" 
d="M225 883v-805c0 -36 3 -47 82 -47h26v-31c-35 3 -114 3 -153 3c-38 0 -117 0 -152 -3v31h26c79 0 82 11 82 47v805c0 36 -3 47 -82 47h-26v31c35 -3 113 -3 152 -3s118 0 153 3v-31h-26c-79 0 -82 -11 -82 -47z" />
    <glyph glyph-name="J" unicode="J" horiz-adv-x="513" 
d="M302 200v682c0 35 0 48 -98 48h-36v31c38 -3 126 -3 168 -3c47 0 85 1 129 3v-31c-47 0 -70 0 -75 -22c-2 -4 -2 -6 -2 -47v-624c0 -45 0 -47 -1 -53c-9 -128 -98 -206 -186 -206c-98 0 -160 93 -160 179c0 48 36 59 56 59c30 0 56 -20 56 -56s-28 -56 -56 -56
c-9 0 -12 1 -17 2c16 -63 65 -106 119 -106c62 0 103 100 103 200z" />
    <glyph glyph-name="K" unicode="K" horiz-adv-x="777" 
d="M397 591l242 -505c25 -53 47 -55 97 -55v-31c-44 2 -78 3 -112 3c-38 0 -104 0 -140 -3v31c21 0 69 0 69 36c0 4 0 6 -1 7c-2 9 -2 11 -8 23l-201 421l-118 -159v-281c0 -36 2 -47 79 -47h24v-31c-35 3 -110 3 -148 3s-112 0 -147 -3v31h24c77 0 79 11 79 47v805
c0 36 -2 47 -79 47h-24v31c35 -3 110 -3 148 -3s112 0 147 3v-31h-24c-77 0 -79 -11 -79 -47v-482l341 460c7 9 10 16 10 24c0 15 -15 43 -65 45v31c34 -3 91 -3 126 -3c27 0 58 0 85 3v-31c-21 -1 -76 -2 -121 -63z" />
    <glyph glyph-name="L" unicode="L" horiz-adv-x="625" 
d="M582 258l-28 -258h-521v31h24c77 0 79 11 79 47v805c0 36 -2 47 -79 47h-24v31c35 -3 113 -3 152 -3c41 0 132 0 168 3v-31h-33c-95 0 -95 -14 -95 -48v-811c0 -33 2 -40 49 -40h82c176 0 190 125 201 227h25z" />
    <glyph glyph-name="M" unicode="M" horiz-adv-x="916" 
d="M458 141l220 800c6 20 10 20 32 20h169v-31h-24c-77 0 -79 -11 -79 -47v-805c0 -36 2 -47 79 -47h24v-31c-37 3 -104 3 -143 3s-107 0 -144 -3v31h24c77 0 79 11 79 47v839h-1l-248 -897c-3 -12 -5 -20 -16 -20s-13 8 -16 20l-245 886h-1v-801c0 -27 0 -74 103 -74v-31
c-35 1 -84 3 -117 3s-82 -2 -117 -3v31c103 0 103 47 103 74v778c0 36 -2 47 -79 47h-24v31h169c25 0 26 -1 31 -20z" />
    <glyph glyph-name="N" unicode="N" horiz-adv-x="750" 
d="M226 946l358 -749h1v659c0 27 0 74 -103 74v31c35 -1 84 -3 117 -3s82 2 117 3v-31c-103 0 -103 -47 -103 -74v-830c0 -19 0 -26 -14 -26c-10 0 -11 3 -17 15l-417 872h-1v-782c0 -27 0 -74 103 -74v-31c-35 1 -84 3 -117 3s-82 -2 -117 -3v31c103 0 103 47 103 74v817
c-19 6 -54 8 -75 8h-28v31h165c20 0 21 -1 28 -15z" />
    <glyph glyph-name="O" unicode="O" horiz-adv-x="777" 
d="M721 478c0 -291 -158 -500 -333 -500c-172 0 -332 206 -332 500c0 292 157 505 333 505c172 0 332 -210 332 -505zM389 4c107 0 229 143 229 493c0 348 -135 461 -230 461c-93 0 -229 -111 -229 -461s122 -493 230 -493z" />
    <glyph glyph-name="P" unicode="P" horiz-adv-x="680" 
d="M227 455v-377c0 -36 2 -47 79 -47h24v-31c-35 3 -110 3 -148 3s-112 0 -147 -3v31h24c77 0 79 11 79 47v805c0 36 -2 47 -79 47h-24v31h350c142 0 239 -122 239 -255c0 -143 -109 -251 -232 -251h-165zM224 481h134c83 0 120 47 133 67c30 47 30 102 30 158
c0 55 0 114 -32 160c-25 37 -68 64 -131 64h-85c-47 0 -49 -7 -49 -40v-409z" />
    <glyph glyph-name="Q" unicode="Q" horiz-adv-x="777" 
d="M519 19c21 -83 48 -110 95 -110c43 0 85 30 91 84c1 10 2 18 11 18c11 0 11 -11 11 -21c0 -51 -19 -184 -121 -184c-107 0 -114 111 -119 194c-25 -11 -61 -22 -98 -22c-175 0 -333 209 -333 500c0 292 157 505 333 505c172 0 332 -210 332 -505
c0 -260 -121 -411 -202 -459zM325 19c-8 14 -17 39 -17 72c0 57 28 112 82 112c76 0 101 -70 118 -139c91 98 113 272 113 414c0 346 -127 480 -233 480c-101 0 -232 -129 -232 -480c0 -103 9 -184 32 -259c16 -55 56 -157 137 -200zM484 39c-6 71 -18 142 -93 142
c-54 0 -61 -70 -61 -90c0 -3 0 -88 59 -88c21 0 56 5 95 36z" />
    <glyph glyph-name="R" unicode="R" horiz-adv-x="736" 
d="M420 479c53 -22 125 -73 140 -189c4 -31 8 -74 12 -107c8 -78 14 -111 23 -138c9 -28 24 -45 47 -45c55 0 64 82 65 117c0 14 1 22 12 22c13 0 13 -9 13 -20c0 -8 0 -141 -94 -141c-62 0 -108 30 -131 62c-37 53 -37 86 -37 201c0 70 0 124 -30 171
c-36 56 -74 58 -101 58h-115v-392c0 -36 2 -47 79 -47h24v-31c-36 3 -107 3 -146 3s-110 0 -146 -3v31h24c77 0 79 11 79 47v805c0 36 -2 47 -79 47h-24v31h310c153 0 265 -117 265 -250c0 -102 -72 -199 -190 -232zM330 492c84 0 126 44 140 63c34 44 37 102 37 156
c0 53 -2 118 -41 163c-49 56 -110 56 -164 56c-19 0 -46 0 -56 -2c-22 -3 -22 -15 -22 -38v-398h106z" />
    <glyph glyph-name="S" unicode="S" horiz-adv-x="555" 
d="M472 959v-293c0 -19 0 -24 -13 -24c-11 0 -12 4 -13 24c-10 131 -43 289 -193 289c-79 0 -133 -91 -133 -195c0 -38 7 -94 34 -135c26 -40 51 -49 88 -62l92 -31c32 -11 88 -31 124 -99c18 -35 41 -88 41 -177c0 -152 -83 -278 -197 -278c-93 0 -150 45 -185 93
c-25 -52 -28 -63 -35 -77c-6 -14 -7 -16 -15 -16c-11 0 -11 7 -11 24v292c0 18 0 25 13 25c6 0 12 -2 12 -11c1 -47 5 -299 220 -299c80 0 134 99 134 214c0 55 -11 174 -103 206l-104 36c-43 15 -97 34 -133 100c-32 59 -39 111 -39 159c0 145 86 259 196 259
c43 0 112 -11 162 -89l32 74c5 11 6 15 15 15c11 0 11 -7 11 -24z" />
    <glyph glyph-name="T" unicode="T" horiz-adv-x="722" 
d="M666 955l19 -225h-25c-14 161 -29 194 -180 194c-19 0 -46 0 -57 -2c-18 -4 -18 -18 -18 -38v-805c0 -34 0 -48 105 -48h40v-31c-41 3 -144 3 -190 3s-148 0 -189 -3v31h40c105 0 105 14 105 48v805c0 23 0 34 -21 38c-10 2 -36 2 -54 2c-151 0 -166 -33 -180 -194h-25
l19 225h611z" />
    <glyph glyph-name="U" unicode="U" horiz-adv-x="750" 
d="M582 316v540c0 27 0 74 -103 74v31c36 -1 84 -3 119 -3c34 0 82 2 118 3v-31c-61 0 -103 -14 -103 -69v-510c0 -20 0 -56 -2 -74c-15 -176 -111 -299 -223 -299c-139 0 -252 156 -252 336v569c0 36 -2 47 -79 47h-24v31c35 -3 110 -3 148 -3s112 0 147 3v-31h-24
c-77 0 -79 -11 -79 -47v-579c0 -220 94 -295 165 -295c102 0 192 130 192 307z" />
    <glyph glyph-name="V" unicode="V" horiz-adv-x="750" 
d="M631 861l-235 -862c-4 -16 -6 -21 -22 -21c-15 0 -17 5 -21 21l-242 889c-11 42 -26 42 -94 42v31c26 -1 74 -3 126 -3c38 0 108 0 143 3v-31c-27 0 -88 0 -88 -31c0 -4 4 -17 4 -18l201 -739l194 712c4 14 4 18 4 22c0 25 -23 52 -80 54v31c26 -1 84 -3 114 -3
c26 0 67 1 97 3v-31c-80 0 -94 -44 -101 -69z" />
    <glyph glyph-name="W" unicode="W" horiz-adv-x="1027" 
d="M918 862l-201 -863c-3 -14 -7 -21 -18 -21c-12 0 -15 7 -18 20l-167 717h-1l-167 -717c-3 -13 -6 -20 -18 -20c-11 0 -15 7 -18 21l-207 891c-9 40 -27 40 -86 40v31c44 -2 87 -3 121 -3c38 0 105 0 141 3v-31c-27 0 -89 0 -89 -32c0 -3 0 -5 4 -20l165 -708h1l141 602
l-28 116c-9 37 -13 42 -86 42v31c41 -1 84 -3 122 -3s105 0 141 3v-31c-26 0 -90 0 -90 -32c0 -2 1 -4 3 -13l167 -715h1l159 684c4 16 4 18 4 20c0 22 -24 55 -94 56v31c38 -2 81 -3 119 -3c30 0 61 1 91 3v-31c-61 0 -83 -30 -92 -68z" />
    <glyph glyph-name="X" unicode="X" horiz-adv-x="750" 
d="M399 540l226 -470c13 -28 20 -39 87 -39h17v-31c-36 2 -96 3 -127 3c-38 0 -107 0 -143 -3v31c46 1 75 19 75 31c0 4 -2 10 -4 13l-177 368l-165 -341c-6 -11 -6 -13 -6 -19c0 -22 28 -51 77 -52v-31c-36 3 -91 3 -128 3c-25 0 -72 -2 -111 -3v31c68 0 109 21 131 66
l185 382l-198 413c-14 30 -27 38 -87 38h-17v31c36 -2 96 -3 127 -3c38 0 107 0 143 3v-31c-42 -1 -75 -18 -75 -31c0 -2 0 -4 5 -14l148 -310l139 286c2 5 5 10 5 17c0 16 -21 50 -77 52v31c40 -3 87 -3 127 -3c33 0 75 2 111 3v-31c-58 0 -106 -16 -130 -65z" />
    <glyph glyph-name="Y" unicode="Y" horiz-adv-x="750" 
d="M627 865l-210 -481v-304c0 -39 3 -49 80 -49h23v-31c-36 3 -107 3 -146 3s-110 0 -146 -3v31h24c77 0 79 11 79 47v306l-220 504c-16 36 -18 42 -102 42v31c36 -1 79 -3 127 -3c38 0 108 0 144 3v-31c-26 0 -78 0 -78 -28c0 -4 3 -14 5 -18l197 -452l187 428
c4 10 6 15 6 23c0 21 -17 46 -68 47v31c26 -1 84 -3 114 -3c31 0 66 1 97 3v-31c-42 0 -89 -11 -113 -65z" />
    <glyph glyph-name="Z" unicode="Z" horiz-adv-x="611" 
d="M548 925l-398 -891h172c185 0 205 93 213 233h25l-17 -267h-461c-21 0 -26 0 -26 17c0 7 0 9 6 21l398 892h-164c-162 0 -195 -79 -202 -194h-25l11 225h448c20 0 26 0 26 -16c0 -6 0 -8 -6 -20z" />
    <glyph glyph-name="bracketleft" unicode="[" horiz-adv-x="277" 
d="M158 988v-1476h97v-40h-137v1556h137v-40h-97z" />
    <glyph glyph-name="quotedblleft" unicode="&#x201c;" 
d="M272 725c0 -26 -18 -53 -53 -53c-43 0 -67 45 -67 105c0 118 83 194 94 194c5 0 10 -4 10 -11c0 -3 0 -5 -12 -17c-63 -62 -70 -134 -70 -166c0 -4 0 -18 2 -18c1 0 2 1 3 3c6 6 20 16 40 16c36 0 53 -27 53 -53zM466 725c0 -26 -18 -53 -53 -53c-43 0 -67 45 -67 105
c0 118 83 194 94 194c5 0 10 -4 10 -11c0 -3 0 -5 -12 -17c-63 -62 -70 -134 -70 -166c0 -4 0 -18 2 -18c1 0 2 1 3 3c6 6 20 16 40 16c36 0 53 -27 53 -53z" />
    <glyph glyph-name="bracketright" unicode="]" horiz-adv-x="277" 
d="M159 1028v-1556h-137v40h97v1476h-97v40h137z" />
    <glyph glyph-name="circumflex" unicode="&#x2c6;" 
d="M250 861l135 -222l-22 -13l-114 182l-113 -182l-22 14z" />
    <glyph glyph-name="dotaccent" unicode="&#x2d9;" horiz-adv-x="277" 
d="M192 616c0 -25 -20 -53 -54 -53c-30 0 -53 26 -53 53c0 25 20 53 54 53c30 0 53 -26 53 -53z" />
    <glyph glyph-name="quoteleft" unicode="&#x2018;" horiz-adv-x="277" 
d="M192 725c0 -26 -18 -53 -53 -53c-43 0 -67 45 -67 105c0 118 83 194 94 194c5 0 10 -4 10 -11c0 -3 0 -5 -12 -17c-63 -62 -70 -134 -70 -166c0 -4 0 -18 2 -18c1 0 2 1 3 3c6 6 20 16 40 16c36 0 53 -27 53 -53z" />
    <glyph glyph-name="a" unicode="a" 
d="M395 275v-200c0 -5 4 -50 37 -50c11 0 36 6 36 64v56h25v-56c0 -81 -61 -95 -82 -95c-47 0 -74 42 -78 82c-19 -47 -65 -87 -131 -87c-63 0 -160 25 -160 106c0 44 25 96 100 130c63 30 133 33 184 36v37c0 89 -57 128 -106 128c-32 0 -81 -11 -108 -46
c46 -1 51 -34 51 -46c0 -26 -18 -46 -46 -46c-26 0 -46 17 -46 47c0 66 69 113 151 113c48 0 98 -16 137 -55c36 -37 36 -76 36 -118zM326 140v100c-165 -6 -207 -89 -207 -144c0 -50 41 -85 90 -85c45 0 117 34 117 129z" />
    <glyph glyph-name="b" unicode="b" horiz-adv-x="555" 
d="M172 972v-595c16 18 59 65 137 65c114 0 212 -99 212 -226c0 -129 -104 -227 -223 -227c-74 0 -116 50 -131 73c-27 -47 -35 -61 -36 -62h-25v874c0 49 -8 56 -78 56v31zM175 320v-206c0 -18 0 -21 14 -42c24 -37 60 -61 105 -61c54 0 92 33 113 64c29 45 31 105 31 142
c0 41 -3 98 -29 139c-24 38 -60 64 -105 64c-24 0 -79 -8 -118 -64c-11 -16 -11 -17 -11 -36z" />
    <glyph glyph-name="c" unicode="c" horiz-adv-x="444" 
d="M359 386c-35 36 -98 37 -107 37c-53 0 -135 -42 -135 -205c0 -161 88 -204 141 -204c37 0 102 12 131 105c2 6 4 10 13 10c3 0 13 0 13 -10s-32 -130 -166 -130c-116 0 -215 99 -215 227c0 124 92 232 217 232c77 0 153 -39 153 -107c0 -30 -20 -47 -46 -47
c-28 0 -46 20 -46 46c0 13 6 43 47 46z" />
    <glyph glyph-name="d" unicode="d" horiz-adv-x="555" 
d="M305 961l144 11v-885c0 -49 8 -56 78 -56v-31l-147 -11v66c-25 -32 -70 -66 -134 -66c-114 0 -212 99 -212 226c0 129 105 227 223 227c54 0 97 -26 126 -62v494c0 49 -8 56 -78 56v31zM380 118v205c0 18 0 20 -11 37c-31 45 -73 60 -108 60c-54 0 -92 -33 -113 -64
c-29 -45 -31 -105 -31 -142c0 -41 3 -98 29 -139c24 -38 60 -64 105 -64c43 0 88 22 118 70c11 17 11 19 11 37z" />
    <glyph glyph-name="e" unicode="e" horiz-adv-x="444" 
d="M390 231h-279c0 -36 0 -102 30 -150c23 -37 63 -67 113 -67c10 0 100 0 135 103c2 8 4 14 13 14c5 0 13 -2 13 -12c0 -19 -45 -130 -167 -130c-115 0 -220 97 -220 231c0 125 92 228 208 228c125 0 179 -97 179 -196c0 -21 -3 -21 -25 -21zM112 252h237
c0 39 -10 174 -113 174c-34 0 -118 -25 -124 -174z" />
    <glyph glyph-name="f" unicode="f" horiz-adv-x="305" 
d="M178 400v-322c0 -36 2 -47 76 -47h21v-31c-40 3 -87 3 -127 3c-28 0 -75 -2 -114 -3v31c67 0 78 0 78 45v324h-79v31h79v268c0 136 60 284 155 284c56 0 90 -52 90 -97c0 -30 -20 -45 -44 -45c-25 0 -43 18 -43 43c0 43 39 43 51 43c-6 11 -25 34 -54 34
c-64 0 -92 -169 -92 -259v-271h117v-31h-114z" />
    <glyph glyph-name="g" unicode="g" 
d="M123 180c-17 -20 -17 -43 -17 -47c0 -32 21 -63 53 -67c7 -1 50 -1 75 -1c61 0 119 0 172 -28c51 -28 65 -79 65 -114c0 -78 -104 -129 -222 -129c-122 0 -221 55 -221 127c0 40 32 83 92 100c-31 20 -44 58 -44 89c0 35 18 68 31 83c-25 21 -47 59 -47 103
c0 77 69 146 162 146c22 0 64 -3 106 -36c42 41 86 47 106 47c39 0 51 -32 51 -49c0 -23 -19 -30 -29 -30c-16 0 -29 12 -29 29c0 12 5 23 16 27c-3 1 -8 1 -10 1c-18 0 -54 -5 -90 -39c25 -23 41 -60 41 -97c0 -77 -69 -146 -162 -146c-19 0 -60 3 -99 31zM222 172
c40 0 63 28 71 40c15 25 16 57 16 84c0 23 0 123 -87 123c-40 0 -63 -28 -71 -40c-15 -25 -16 -57 -16 -84c0 -23 0 -123 87 -123zM221 7h-59c-44 -3 -82 -40 -82 -86c0 -53 69 -104 170 -104c98 0 169 50 169 104c0 86 -112 86 -198 86z" />
    <glyph glyph-name="h" unicode="h" horiz-adv-x="555" 
d="M457 252v-191c1 -30 26 -30 78 -30v-31c-34 1 -86 3 -112 3c-27 0 -78 -2 -113 -3v31c67 0 78 0 78 45v233c0 57 -11 111 -74 111c-64 0 -135 -56 -135 -160v-184c0 -45 11 -45 78 -45v-31c-34 1 -86 3 -112 3c-27 0 -78 -2 -113 -3v31c67 0 78 0 78 45v798
c0 49 -8 56 -78 56v31l144 11v-626h1c16 36 60 96 144 96c58 0 91 -20 105 -37c31 -36 31 -67 31 -153z" />
    <glyph glyph-name="i" unicode="i" horiz-adv-x="277" 
d="M181 616c0 -32 -25 -53 -53 -53c-31 0 -53 26 -53 53c0 26 22 53 53 53c28 0 53 -21 53 -53zM37 431l140 11v-367c0 -39 4 -44 70 -44v-31c-34 1 -69 3 -104 3c-24 0 -78 -2 -110 -3v31c67 0 78 0 78 45v269c0 49 -9 55 -74 55v31z" />
    <glyph glyph-name="j" unicode="j" horiz-adv-x="305" 
d="M210 616c0 -29 -24 -53 -53 -53s-53 24 -53 53s24 53 53 53s53 -24 53 -53zM58 431l152 11v-492c0 -91 -62 -155 -137 -155c-57 0 -113 28 -113 80c0 26 18 46 46 46s46 -20 46 -46c0 -27 -20 -41 -35 -45c26 -13 49 -13 54 -13c64 0 73 86 73 131v396c0 49 -9 56 -86 56
v31z" />
    <glyph glyph-name="k" unicode="k" horiz-adv-x="527" 
d="M287 263l127 -179c38 -53 60 -53 97 -53v-31c-29 2 -58 3 -87 3c-21 0 -80 -2 -108 -3v31c19 0 36 4 36 23c0 18 -42 74 -119 180l-64 -55v-103c0 -45 11 -45 78 -45v-31c-40 2 -80 3 -110 3c-29 0 -76 -2 -109 -3v31c67 0 78 0 78 45v798c0 49 -8 56 -78 56v31l144 11
v-758l141 122c8 7 22 19 22 39c0 13 -10 24 -29 25v31c14 -1 76 -3 112 -3c28 0 41 0 70 3v-31c-21 -1 -63 -3 -126 -54c-10 -8 -81 -68 -81 -72c0 -3 5 -9 6 -11z" />
    <glyph glyph-name="l" unicode="l" horiz-adv-x="277" 
d="M177 972v-896c0 -45 11 -45 78 -45v-31c-37 1 -86 3 -111 3s-78 -2 -111 -3v31c67 0 78 0 78 45v798c0 49 -8 56 -78 56v31z" />
    <glyph glyph-name="m" unicode="m" horiz-adv-x="833" 
d="M735 252v-191c1 -30 26 -30 78 -30v-31c-34 1 -86 3 -112 3c-27 0 -78 -2 -113 -3v31c67 0 78 0 78 45v233c0 57 -11 111 -74 111c-64 0 -135 -56 -135 -160v-184c0 -45 11 -45 78 -45v-31c-34 1 -86 3 -112 3c-27 0 -78 -2 -113 -3v31c67 0 78 0 78 45v233
c0 57 -11 111 -74 111c-64 0 -135 -56 -135 -160v-184c0 -45 11 -45 78 -45v-31c-34 1 -86 3 -112 3c-27 0 -78 -2 -113 -3v31c67 0 78 0 78 45v268c0 49 -8 56 -78 56v31l141 11v-103h1c27 60 74 103 147 103c45 0 119 -11 133 -98c17 38 61 98 145 98c58 0 91 -20 105 -37
c31 -36 31 -67 31 -153z" />
    <glyph glyph-name="n" unicode="n" horiz-adv-x="555" 
d="M457 252v-191c1 -30 26 -30 78 -30v-31c-34 1 -86 3 -112 3c-27 0 -78 -2 -113 -3v31c67 0 78 0 78 45v233c0 57 -11 111 -74 111c-64 0 -135 -56 -135 -160v-184c0 -45 11 -45 78 -45v-31c-34 1 -86 3 -112 3c-27 0 -78 -2 -113 -3v31c67 0 78 0 78 45v268
c0 49 -8 56 -78 56v31l141 11v-103h1c27 60 74 103 147 103c58 0 91 -20 105 -37c31 -36 31 -67 31 -153z" />
    <glyph glyph-name="o" unicode="o" 
d="M471 214c0 -127 -101 -225 -222 -225c-117 0 -221 96 -221 225c0 125 97 234 222 234c121 0 221 -106 221 -234zM250 14c50 0 94 29 116 74c22 44 22 98 22 134c0 38 0 96 -26 139s-69 65 -113 65c-40 0 -87 -21 -114 -67c-24 -44 -24 -98 -24 -137c0 -36 0 -97 25 -141
c27 -46 71 -67 114 -67z" />
    <glyph glyph-name="p" unicode="p" horiz-adv-x="555" 
d="M253 -163v-31c-35 1 -86 3 -113 3c-26 0 -78 -2 -112 -3v31c67 0 78 0 78 45v468c0 44 -7 50 -78 50v31l144 11v-66c20 22 62 66 140 66c112 0 209 -99 209 -226c0 -129 -104 -227 -223 -227c-76 0 -118 54 -123 61v-168c0 -45 11 -45 78 -45zM175 337v-223
c0 -20 0 -21 14 -42c27 -41 65 -61 105 -61c74 0 144 84 144 205c0 113 -61 201 -134 201c-51 0 -100 -29 -129 -80z" />
    <glyph glyph-name="q" unicode="q" horiz-adv-x="527" 
d="M449 442v-560c0 -45 11 -45 78 -45v-31c-35 1 -86 3 -113 3c-26 0 -78 -2 -112 -3v31c67 0 78 0 78 45v179c-22 -29 -63 -72 -133 -72c-116 0 -213 101 -213 226c0 130 105 227 221 227c80 0 121 -63 134 -91l38 91h22zM383 136v141c0 53 -42 140 -122 140
c-74 0 -144 -83 -144 -202c0 -115 61 -204 134 -204c47 0 79 27 92 41c22 24 40 52 40 84z" />
    <glyph glyph-name="r" unicode="r" horiz-adv-x="391" 
d="M172 232v-154c0 -36 2 -47 76 -47h21v-31c-40 3 -87 3 -127 3c-28 0 -75 -2 -114 -3v31c67 0 78 0 78 45v268c0 49 -8 56 -78 56v31l139 11v-107h1c13 40 49 107 122 107c43 0 74 -29 74 -61s-25 -44 -43 -44c-22 0 -43 15 -43 43c0 26 20 38 23 39c-2 1 -4 1 -11 1
c-76 0 -118 -89 -118 -188z" />
    <glyph glyph-name="s" unicode="s" horiz-adv-x="394" 
d="M335 424v-101c0 -19 0 -24 -13 -24c-2 0 -11 0 -12 9c-2 31 -7 121 -117 121c-86 0 -112 -41 -112 -76c0 -58 67 -71 123 -82c42 -8 81 -16 114 -48c12 -12 42 -42 42 -95c0 -72 -46 -139 -161 -139c-21 0 -66 1 -110 43c-18 -19 -18 -21 -20 -23
c-19 -19 -20 -20 -25 -20c-11 0 -11 7 -11 24v132c0 18 0 25 13 25c10 0 11 -4 14 -17c19 -85 55 -142 139 -142c78 0 113 40 113 91c0 72 -82 88 -104 92c-72 14 -100 20 -132 46c-27 22 -43 50 -43 85c0 56 38 123 160 123c15 0 56 0 94 -28c4 3 14 12 17 16
c13 12 15 12 20 12c11 0 11 -7 11 -24z" />
    <glyph glyph-name="t" unicode="t" horiz-adv-x="388" 
d="M173 400v-278c0 -17 0 -108 67 -108c37 0 67 38 67 112v55h25v-57c0 -64 -28 -135 -99 -135c-36 0 -129 12 -129 135v276h-85v22c98 4 128 111 129 193h25v-184h143v-31h-143z" />
    <glyph glyph-name="u" unicode="u" horiz-adv-x="555" 
d="M310 431l147 11v-355c0 -49 8 -56 78 -56v-31l-144 -11v88h-1c-28 -60 -72 -88 -128 -88c-152 0 -152 91 -152 169v150c0 89 0 92 -78 92v31l147 11v-332c0 -52 4 -99 88 -99c73 0 121 68 121 155v178c0 49 -8 56 -78 56v31z" />
    <glyph glyph-name="v" unicode="v" horiz-adv-x="527" 
d="M416 333l-131 -325c-4 -10 -8 -19 -21 -19s-15 5 -21 19l-144 355c-13 31 -17 37 -80 37v31c30 -2 70 -3 97 -3c23 0 79 2 109 3v-31c-18 0 -57 0 -57 -26c0 -2 0 -4 6 -17l112 -279l102 255c4 11 6 15 6 24c0 19 -11 42 -48 43v31c17 -1 63 -3 87 -3c23 0 52 1 75 3v-31
c-66 -1 -83 -44 -92 -67z" />
    <glyph glyph-name="w" unicode="w" horiz-adv-x="722" 
d="M619 336l-117 -328c-4 -10 -7 -19 -20 -19s-16 8 -20 19l-102 284l-101 -283c-5 -14 -7 -20 -20 -20s-16 8 -21 22l-126 354c-12 32 -24 35 -74 35v31c36 -2 89 -3 93 -3c23 0 79 2 109 3v-31c-20 0 -59 0 -59 -27c0 -4 0 -6 5 -18l95 -267l86 242c-7 19 -18 49 -23 55
c-10 13 -26 15 -63 15v31c30 -2 59 -3 89 -3c24 0 75 2 104 3v-31c-20 0 -59 0 -59 -27c0 -5 1 -7 5 -19l99 -279l91 256c5 13 5 15 5 21c0 29 -22 47 -58 48v31c19 -1 64 -3 93 -3c22 0 51 1 73 3v-31c-35 -1 -66 -14 -84 -64z" />
    <glyph glyph-name="x" unicode="x" horiz-adv-x="527" 
d="M287 235l134 -173c23 -29 41 -31 95 -31v-31c-30 2 -69 3 -96 3c-22 0 -78 -2 -108 -3v31c27 1 36 16 36 25c0 6 -13 22 -21 33l-76 100c-61 -72 -90 -105 -90 -127c0 -15 7 -28 29 -31v-31c-24 1 -66 3 -95 3c-26 0 -57 -1 -83 -3v31c21 0 80 2 128 60l94 119l-99 129
c-47 60 -48 61 -118 61v31c27 -2 74 -3 95 -3c16 0 82 2 108 3v-31c-20 -1 -35 -10 -35 -25c0 -6 0 -8 9 -18l78 -101l62 78c5 6 15 19 15 35s-8 29 -29 31v31c13 -1 66 -3 96 -3c26 0 56 1 82 3v-31c-47 -1 -88 -16 -119 -52c-24 -26 -62 -75 -92 -113z" />
    <glyph glyph-name="y" unicode="y" horiz-adv-x="527" 
d="M415 336l-176 -427c-24 -57 -65 -114 -128 -114c-50 0 -92 36 -92 81c0 30 22 43 42 43c23 0 42 -16 42 -42c0 -16 -8 -38 -39 -42c19 -18 42 -18 47 -18c64 0 92 69 114 124c6 13 20 46 25 59l-150 365c-14 35 -33 35 -81 35v31c30 -2 70 -3 97 -3c17 0 83 2 109 3v-31
c-19 0 -56 0 -56 -26c0 -4 2 -8 6 -18l111 -269l101 246c5 12 6 14 6 24c0 25 -16 42 -47 43v31c22 -1 69 -3 87 -3c23 0 52 1 75 3v-31c-16 0 -67 -1 -93 -64z" />
    <glyph glyph-name="z" unicode="z" horiz-adv-x="444" 
d="M390 401l-278 -376h118c116 0 137 44 146 162h25l-17 -187h-330c-19 0 -26 0 -26 14c0 5 0 7 9 18l279 377h-114c-110 0 -129 -37 -135 -139h-25l11 161h320c18 0 26 0 26 -13c0 -4 0 -6 -9 -17z" />
    <glyph glyph-name="endash" unicode="&#x2013;" 
d="M499 255h-499v22h499v-22z" />
    <glyph glyph-name="emdash" unicode="&#x2014;" horiz-adv-x="1000" 
d="M999 255h-999v22h999v-22z" />
    <glyph glyph-name="hungarumlaut" unicode="&#x2dd;" 
d="M244 807l-94 -236c-6 2 -18 6 -23 7l53 253c3 14 10 33 34 33c14 0 36 -9 36 -33c0 -6 0 -9 -6 -24zM411 807l-94 -236c-6 2 -18 6 -23 7l53 253c3 14 10 33 34 33c14 0 36 -9 36 -33c0 -6 0 -9 -6 -24z" />
    <glyph glyph-name="tilde" unicode="&#x2dc;" 
d="M400 668l16 -15c-51 -56 -70 -78 -108 -78c-17 0 -35 7 -62 23c-17 10 -42 25 -65 25c-44 0 -82 -47 -82 -48l-16 15c51 56 70 78 108 78c17 0 35 -7 62 -23c17 -10 42 -25 65 -25c44 0 82 47 82 48z" />
    <glyph glyph-name="dieresis" unicode="&#xa8;" 
d="M203 619c0 -24 -20 -50 -50 -50c-28 0 -50 22 -50 50s22 50 50 50c30 0 50 -26 50 -50zM396 619c0 -28 -22 -50 -50 -50c-30 0 -50 26 -50 50s20 50 50 50c28 0 50 -22 50 -50z" />
    <glyph glyph-name="space" unicode=" " horiz-adv-x="333" 
 />
  </font>
</defs>
</svg>
