<?xml version="1.0" standalone="no"?>
<!DOCTYPE svg PUBLIC "-//W3C//DTD SVG 1.1//EN" "http://www.w3.org/Graphics/SVG/1.1/DTD/svg11.dtd" >
<svg>
<metadata>
Created by FontForge 20060822 at Fri Oct  6 18:22:24 2006
 By Wojciech Mula,,,
Copyright (C) 1997 American Mathematical Society. All Rights Reserved
</metadata>
<defs>
<font id="CMITT10" horiz-adv-x="525" >
  <font-face 
    font-family="Computer Modern"
    font-weight="500"
    font-style="italic"
    font-stretch="normal"
    units-per-em="1000"
    panose-1="2 0 6 9 0 0 0 0 0 0"
    ascent="800"
    descent="-200"
    x-height="437"
    cap-height="611"
    bbox="11 -233 669 696"
    underline-thickness="0"
    underline-position="0"
    slope="-14.04"
    stemh="61"
    stemv="69"
    unicode-range="U+0020-U+F6BE"
  />
    <missing-glyph />
    <glyph glyph-name="Gamma" unicode="&#x393;" 
d="M316 550l-122 -489h48c13 0 41 0 41 -28c0 -33 -27 -33 -42 -33h-162c-13 0 -40 0 -40 28c0 33 26 33 41 33h44l122 489h-29c-13 0 -41 0 -41 28c0 33 27 33 42 33h376c13 0 41 0 41 -28c0 -4 -2 -11 -3 -15l-21 -84c-6 -24 -17 -28 -35 -28c-6 0 -35 0 -35 28
c0 3 10 44 15 66h-240z" />
    <glyph glyph-name="Delta" unicode="&#x394;" 
d="M465 581l31 -540l1 -10c0 -31 -25 -31 -43 -31h-383c-20 0 -32 0 -32 17c0 6 2 8 8 20l308 553c18 33 40 33 63 33c37 0 45 -4 47 -42zM398 542l-262 -475h286z" />
    <glyph glyph-name="Theta" unicode="&#x398;" 
d="M586 526c0 -82 -67 -339 -100 -417c-43 -102 -88 -120 -226 -120c-121 0 -168 13 -168 96c0 87 69 343 96 409c44 107 84 128 230 128c118 0 168 -11 168 -96zM275 50c93 0 124 19 153 93c26 63 83 279 83 349c0 52 -21 69 -109 69c-108 0 -129 -28 -161 -115
c-13 -35 -74 -250 -74 -326c0 -50 15 -70 108 -70zM444 328l-14 -57c-7 -27 -18 -30 -36 -30c-10 0 -33 0 -35 31h-57c-4 -31 -28 -31 -36 -31c-31 0 -35 18 -35 28c0 4 2 10 3 15l14 57c6 26 19 29 36 29c10 0 33 0 35 -31h57c3 31 27 31 36 31c30 0 35 -17 35 -28
c0 -3 -2 -9 -3 -14z" />
    <glyph glyph-name="Lambda" unicode="&#x39b;" 
d="M317 365l-145 -304c31 0 55 0 55 -28c0 -33 -27 -33 -42 -33h-108c-13 0 -41 0 -41 28c0 33 27 33 42 33h23l255 527c17 35 35 35 57 35h10c17 0 41 0 41 -30l-9 -495v-37c24 0 49 0 49 -28c0 -33 -27 -33 -42 -33h-108c-13 0 -41 0 -41 28c0 33 27 33 42 33h29v27
c0 43 2 86 3 129c1 75 3 261 10 320l-1 1c-3 -10 -9 -25 -79 -173z" />
    <glyph glyph-name="Xi" unicode="&#x39e;" 
d="M223 611h370c13 0 41 0 41 -28c0 -5 -8 -36 -11 -48c-6 -20 -15 -25 -35 -25c-30 0 -35 17 -35 28c0 3 2 12 3 14h-311c-4 -42 -27 -42 -39 -42c-30 0 -35 17 -35 28c0 5 10 45 13 52c7 21 23 21 39 21zM118 59h319c7 43 19 47 40 47c29 0 35 -17 35 -28
c0 -4 -11 -45 -13 -53c-6 -25 -21 -25 -40 -25h-378c-13 0 -41 0 -41 28c0 7 7 31 12 53c7 25 23 25 35 25c30 0 35 -17 35 -28c0 -6 -3 -14 -4 -19zM266 347h167c2 35 27 35 37 35c7 0 35 0 35 -28c0 -4 -13 -54 -15 -62c-8 -30 -10 -39 -38 -39c-39 0 -34 28 -34 29v6
h-167c-3 -35 -28 -35 -37 -35c-7 0 -35 0 -35 28c0 4 2 10 3 15l14 57c7 29 21 29 36 29c34 0 34 -19 34 -35z" />
    <glyph glyph-name="Pi" unicode="&#x3a0;" 
d="M576 550l-122 -489h17c13 0 41 0 41 -28c0 -33 -29 -33 -42 -33h-119c-13 0 -40 0 -40 28c0 33 26 33 41 33h31l122 489h-211l-122 -489h17c13 0 41 0 41 -28c0 -33 -29 -33 -42 -33h-119c-13 0 -40 0 -40 28c0 33 26 33 41 33h32l122 489h-17c-13 0 -41 0 -41 28
c0 33 27 33 42 33h401c13 0 40 0 40 -28c0 -33 -27 -33 -42 -33h-31z" />
    <glyph glyph-name="Sigma" unicode="&#x3a3;" 
d="M337 281l-181 -218h275l14 57c6 25 9 37 38 37c22 0 34 -10 34 -28c0 -5 -12 -54 -19 -81c-11 -44 -12 -48 -46 -48h-364c-13 0 -41 0 -41 28c0 10 4 14 12 24l215 259l-85 251c-4 11 -5 14 -5 16c0 33 29 33 42 33h364c13 0 41 0 41 -28c0 -4 -2 -11 -3 -15l-21 -84
c-6 -24 -17 -28 -35 -28c-6 0 -35 0 -35 28c0 3 10 44 15 66h-285l77 -226c5 -13 5 -15 5 -18c0 -11 -4 -15 -12 -25z" />
    <glyph glyph-name="Upsilon" unicode="&#x3a5;" 
d="M393 383l-80 -322h28c13 0 40 0 40 -28c0 -33 -27 -33 -42 -33h-139c-13 0 -41 0 -41 28c0 33 27 33 42 33h42l60 243c27 109 37 149 37 196c0 43 -12 70 -44 70c-35 0 -56 -42 -66 -76c-7 -27 -21 -33 -42 -33c-8 0 -29 0 -29 21c0 33 58 140 149 140
c76 0 76 -72 76 -102c0 -2 0 -27 -1 -37h1c39 102 90 139 143 139c57 0 87 -44 87 -96c0 -62 -27 -65 -46 -65c-8 0 -29 0 -29 21c0 3 2 9 2 12c3 12 5 19 5 33c0 21 -6 43 -33 43c-74 0 -116 -170 -120 -187z" />
    <glyph glyph-name="Phi" unicode="&#x3a6;" 
d="M337 154l-24 -93h50c15 -3 24 -16 24 -28c0 -33 -27 -33 -44 -33h-147c-15 0 -43 0 -43 28c0 33 28 33 44 33h46l23 94c-111 13 -153 75 -153 125c0 74 86 158 228 177l24 93h-50c-9 1 -24 10 -24 28c0 33 26 33 44 33h147c16 0 42 0 42 -28c0 -33 -25 -33 -43 -33h-46
l-23 -94c101 -11 153 -68 153 -125c0 -75 -88 -158 -228 -177zM281 216l45 179c-75 -11 -142 -53 -142 -103c0 -44 51 -69 97 -76zM397 395l-45 -179c63 8 142 48 142 103c0 43 -51 69 -97 76z" />
    <glyph glyph-name="Psi" unicode="&#x3a8;" 
d="M435 550l-81 -328c83 28 106 113 118 158c18 67 41 103 93 103c6 0 36 0 36 -28c0 -16 -9 -29 -25 -32c-13 -3 -22 -5 -39 -64c-18 -67 -59 -182 -201 -205l-23 -93c16 0 43 0 47 -1c13 -4 21 -15 21 -27c0 -33 -26 -33 -44 -33h-135c-16 0 -43 0 -43 28
c0 33 27 33 44 33h40l23 96c-76 18 -106 73 -106 141c0 18 2 40 9 71c7 29 8 37 8 52c-15 2 -27 14 -27 29c0 33 30 33 38 33c37 0 59 -19 59 -64c0 -12 0 -21 -8 -52c-6 -28 -10 -48 -10 -70c0 -34 9 -69 53 -80l83 333c-16 0 -43 0 -47 1c-12 3 -21 14 -21 27
c0 33 26 33 43 33h136c15 0 43 0 43 -28c0 -33 -28 -33 -44 -33h-40z" />
    <glyph glyph-name="Omega" unicode="&#x3a9;" 
d="M390 61h61c6 33 15 47 34 47c16 0 28 -13 28 -28c0 -8 -10 -44 -13 -55c-7 -25 -21 -25 -40 -25h-103c-13 0 -41 0 -41 28c0 51 84 173 108 208c46 67 99 145 99 215c0 76 -56 110 -113 110c-81 0 -208 -72 -208 -225c0 -37 11 -96 16 -121c13 -69 13 -89 13 -115
c0 -100 -20 -100 -48 -100h-103c-13 0 -41 0 -41 28c0 5 4 21 12 49c3 13 7 31 29 31c16 0 28 -13 28 -28c0 -7 -3 -17 -4 -19h64c1 10 2 23 2 33c0 31 -7 70 -15 105c-15 68 -21 99 -21 142c0 182 158 281 277 281c98 0 181 -64 181 -172c0 -87 -61 -174 -112 -244
c-48 -67 -71 -100 -90 -145z" />
    <glyph glyph-name="arrowup" unicode="&#x2191;" 
d="M421 488l-112 -450c-3 -13 -11 -38 -39 -38c-22 0 -34 19 -34 33c0 7 2 11 2 13l109 433c-68 -51 -139 -73 -150 -73c-19 0 -29 15 -29 28c0 24 18 30 28 34c87 29 146 79 182 122c13 15 18 21 31 21c19 0 25 -16 27 -23c12 -32 34 -87 115 -120c11 -5 25 -11 25 -29
c0 -6 -4 -33 -30 -33c-14 0 -81 27 -125 82z" />
    <glyph glyph-name="arrowdown" unicode="&#x2193;" 
d="M258 123l112 451c4 15 12 37 39 37c18 0 33 -14 33 -33c0 -4 0 -6 -4 -21l-106 -425c73 53 140 73 150 73c15 0 28 -12 28 -28c0 -25 -16 -30 -26 -33c-71 -24 -136 -66 -184 -124c-12 -14 -17 -20 -30 -20c-19 0 -25 15 -30 28c-29 82 -88 106 -116 117
c-6 2 -21 9 -21 27c0 9 5 33 29 33c12 0 74 -21 126 -82z" />
    <glyph glyph-name="quotesingle" unicode="'" 
d="M447 559l-64 -203c-5 -16 -9 -28 -32 -28s-30 18 -30 28c0 5 0 7 3 21l37 196c2 12 9 49 50 49c23 0 41 -17 41 -40c0 -7 -1 -10 -5 -23z" />
    <glyph glyph-name="exclamdown" unicode="&#xa1;" 
d="M398 344c0 -29 -26 -55 -56 -55c-25 0 -45 20 -45 45c0 27 25 55 56 55c19 0 45 -13 45 -45zM170 -167l96 343c8 28 17 29 41 29c15 0 40 0 40 -28c0 -2 -3 -17 -4 -20l-75 -341c-9 -42 -43 -49 -56 -49c-31 0 -46 25 -46 45c0 8 2 15 4 21z" />
    <glyph glyph-name="questiondown" unicode="&#xbf;" 
d="M398 344c0 -29 -26 -55 -56 -55c-25 0 -45 20 -45 45c0 27 25 55 56 55c19 0 45 -13 45 -45zM361 -112c-1 1 -5 8 -5 21c0 28 24 49 49 49c22 0 41 -16 41 -40c0 -56 -81 -151 -233 -151c-103 0 -152 62 -152 120c0 81 78 124 115 145l97 54c28 15 44 24 44 45
c0 12 -6 13 -15 13c-1 0 -50 0 -65 -40c-8 -20 -23 -20 -33 -20c-22 0 -35 10 -35 28c0 35 51 93 135 93c62 0 77 -49 77 -74c0 -33 -20 -68 -48 -87c-8 -5 -94 -53 -105 -59c-62 -34 -103 -57 -103 -99c0 -36 38 -58 89 -58c53 0 117 21 147 60z" />
    <glyph glyph-name="dotlessi" unicode="&#x131;" 
d="M242 122l83 206c1 3 5 12 5 21c0 17 -12 27 -30 27c-20 0 -64 -17 -88 -92c-5 -15 -10 -25 -35 -25c-30 0 -34 20 -34 28c0 33 57 150 159 150c54 0 97 -36 97 -88c0 -17 -2 -23 -18 -63l-24 -60c-11 -27 -21 -54 -32 -80c-8 -21 -22 -57 -22 -64c0 -20 15 -27 30 -27
c30 0 70 32 87 91c4 12 8 26 35 26c34 0 35 -24 35 -28c0 -32 -57 -150 -159 -150c-53 0 -97 35 -97 88c0 20 3 27 8 40z" />
    <glyph glyph-name="dotlessj" unicode="&#xf6be;" 
d="M479 312l-90 -362c-18 -72 -85 -178 -195 -178c-22 0 -103 2 -103 64c0 31 23 53 50 53c25 0 41 -20 41 -40c0 -7 -2 -9 -2 -12c0 -4 8 -4 17 -4c70 0 114 87 123 125l90 363c4 15 4 17 4 21c0 24 -17 34 -37 34c-33 0 -81 -29 -109 -92c-7 -16 -11 -25 -36 -25
c-30 0 -34 20 -34 28c0 29 70 150 181 150c58 0 104 -38 104 -95c0 -9 0 -14 -4 -30z" />
    <glyph glyph-name="grave" unicode="`" 
d="M403 484l-115 57c-12 6 -27 13 -27 34c0 19 17 36 36 36c6 0 8 0 21 -7l118 -58c10 -5 23 -11 23 -29c0 -12 -14 -40 -36 -40c-6 0 -9 2 -20 7z" />
    <glyph glyph-name="acute" unicode="&#xb4;" 
d="M522 541l-150 -59c-9 -3 -12 -5 -18 -5c-27 0 -30 31 -30 40c0 18 12 23 27 29l149 60c8 3 12 5 19 5c17 0 33 -12 33 -33c0 -15 -7 -28 -30 -37z" />
    <glyph glyph-name="caron" unicode="&#x2c7;" 
d="M386 522l123 45c10 4 13 5 18 5c27 0 30 -26 30 -39c0 -14 -6 -24 -27 -31l-146 -48c-5 1 -7 1 -19 6l-108 43c-16 6 -23 17 -23 29c0 10 12 40 36 40c4 0 6 0 20 -7z" />
    <glyph glyph-name="breve" unicode="&#x2d8;" 
d="M292 573c25 -11 59 -11 104 -11c49 0 116 0 128 25c5 13 10 24 30 24c27 0 31 -22 31 -28c0 -9 -7 -29 -20 -43c-36 -42 -110 -42 -170 -42c-70 0 -165 0 -165 73c0 20 7 40 32 40c30 0 30 -23 30 -38z" />
    <glyph glyph-name="macron" unicode="&#xaf;" 
d="M547 514h-298c-13 0 -40 0 -40 28c0 35 26 35 42 35h298c13 0 40 0 40 -28c0 -35 -26 -35 -42 -35z" />
    <glyph glyph-name="ring" unicode="&#x2da;" 
d="M479 570c0 -35 -43 -71 -92 -71c-38 0 -62 22 -62 49c0 33 42 71 92 71c33 0 62 -17 62 -49zM395 530c20 0 45 14 45 34c0 21 -23 24 -31 24c-24 0 -45 -18 -45 -34c0 -13 12 -24 31 -24z" />
    <glyph glyph-name="cedilla" unicode="&#xb8;" 
d="M328 -11c65 -16 76 -60 76 -81c0 -15 -5 -74 -86 -100c-32 -10 -72 -16 -169 -16c-25 0 -32 20 -32 29c0 33 24 33 67 33c33 0 150 0 150 53c0 23 -41 27 -52 27c-31 1 -31 27 -31 28c0 4 8 36 13 54c4 18 9 29 36 29c29 0 34 -17 34 -28c0 -6 -4 -22 -6 -28z" />
    <glyph glyph-name="germandbls" unicode="&#xdf;" 
d="M331 486l-91 -454c-32 -162 -65 -260 -140 -260c-39 0 -65 30 -65 68c0 48 33 60 50 60c20 0 36 -12 41 -29h1c7 28 35 126 53 215l57 284h-33c-13 0 -41 0 -41 28c0 33 27 33 42 33h45c22 120 34 186 170 186c114 0 132 -53 132 -83c0 -21 -22 -91 -29 -111
c-18 -49 -34 -63 -49 -77c-39 -35 -43 -45 -43 -60c0 -22 15 -39 27 -53c37 -42 37 -77 37 -89c0 -60 -53 -150 -130 -150c-51 0 -88 33 -88 76c0 47 35 54 45 54c18 0 38 -13 38 -37c0 -17 -9 -26 -9 -27c4 -3 10 -5 15 -5c35 0 60 65 60 86c0 22 -15 39 -23 49
c-22 25 -41 53 -41 94c0 40 15 64 60 106c19 17 24 22 38 60c9 25 22 77 22 83c0 11 -15 23 -63 23c-56 0 -76 -10 -88 -70z" />
    <glyph glyph-name="ae" unicode="&#xe6;" 
d="M340 189c-1 -7 -4 -31 -4 -41c0 -24 6 -93 57 -93c7 0 64 0 109 45c10 10 18 10 21 10c15 0 28 -11 28 -28c0 -31 -84 -88 -160 -88c-33 0 -66 14 -88 51c-7 -31 -11 -51 -34 -51c-11 0 -27 6 -29 30c-16 -14 -41 -30 -73 -30c-55 0 -108 41 -108 115c0 59 42 142 99 199
c91 92 197 131 206 131c11 0 30 -6 30 -39c18 15 53 37 91 37c57 0 88 -46 88 -96c0 -82 -66 -152 -233 -152zM357 250c65 3 159 15 159 88c0 24 -11 38 -33 38c-41 0 -99 -54 -126 -126zM299 261l24 94c-139 -73 -195 -193 -195 -247c0 -43 25 -53 41 -53c25 0 55 29 81 70
c26 43 35 79 49 136z" />
    <glyph glyph-name="oe" unicode="&#x153;" 
d="M289 79c-27 -41 -69 -87 -121 -87c-56 0 -97 50 -97 143c0 136 95 304 194 304c63 0 82 -66 86 -84c37 47 85 82 134 82c57 0 88 -46 88 -96c0 -82 -66 -152 -233 -152c-1 -7 -4 -31 -4 -41c0 -24 6 -93 57 -93c7 0 64 0 109 45c10 10 18 10 21 10c15 0 28 -11 28 -28
c0 -31 -84 -88 -160 -88c-65 0 -92 51 -102 85zM357 250c65 3 159 15 159 88c0 24 -11 38 -33 38c-41 0 -99 -54 -126 -126zM170 53c51 0 130 129 130 244c0 4 0 81 -36 81c-49 0 -125 -135 -125 -248c0 -2 0 -77 31 -77z" />
    <glyph glyph-name="oslash" unicode="&#xf8;" 
d="M566 520l-96 -138c24 -33 29 -74 29 -104c0 -142 -115 -287 -232 -287c-10 0 -34 2 -59 15c-50 -67 -71 -101 -88 -125c-11 -14 -16 -21 -30 -21c-10 0 -32 9 -32 30c0 8 0 10 18 34l86 124c-28 46 -28 86 -28 105c0 147 118 287 231 287c3 0 29 -1 51 -11
c5 -2 6 -3 8 -3c3 0 6 4 9 9l83 120c11 16 23 16 27 16c11 0 32 -10 32 -30c0 -9 -4 -14 -9 -21zM200 102l190 272c-8 3 -20 4 -27 4c-82 0 -173 -113 -173 -222c0 -6 1 -32 10 -54zM433 329l-190 -272c9 -4 20 -4 26 -4c84 0 174 115 174 222c0 5 -1 34 -10 54z" />
    <glyph glyph-name="AE" unicode="&#xc6;" 
d="M392 286l-56 -225h122l17 67c7 28 11 43 33 43c16 0 28 -14 28 -28c0 -7 -29 -123 -32 -128c-8 -15 -20 -15 -37 -15h-195c-13 0 -41 0 -41 28c0 33 26 33 48 33l30 122h-110l-55 -122c11 0 38 0 38 -28c0 -33 -26 -33 -41 -33h-71c-13 0 -40 0 -40 28c0 33 22 33 57 33
l220 489c-32 0 -33 25 -33 28c0 33 27 33 42 33h281c13 0 41 0 41 -28c0 -4 -2 -11 -3 -15l-21 -84c-2 -8 -7 -28 -29 -28c-16 0 -28 13 -28 28c0 3 10 44 15 66h-114l-50 -203h107c13 0 41 0 41 -28c0 -33 -27 -33 -42 -33h-122zM364 550l-138 -306h98l77 306h-37z" />
    <glyph glyph-name="OE" unicode="&#x152;" 
d="M391 286l-56 -225h126l17 67c7 28 11 43 33 43c16 0 28 -14 28 -28c0 -7 -29 -123 -32 -128c-8 -15 -20 -15 -37 -15h-160c-26 0 -35 0 -56 -4c-36 -7 -43 -7 -63 -7c-114 0 -128 33 -128 87c0 98 78 364 86 387c40 117 67 159 200 159c20 0 27 0 55 -6
c24 -5 33 -5 47 -5h150c13 0 41 0 41 -28c0 -4 -2 -11 -3 -15l-21 -84c-2 -8 -7 -28 -29 -28c-16 0 -28 13 -28 28c0 3 10 44 15 66h-119l-50 -203h113c13 0 41 0 41 -28c0 -33 -27 -33 -42 -33h-128zM303 161l74 299c4 16 9 46 9 62c0 24 -9 39 -48 39
c-90 0 -111 -36 -136 -107c-14 -43 -76 -264 -76 -340c0 -24 0 -64 86 -64c36 0 65 8 91 111z" />
    <glyph glyph-name="Oslash" unicode="&#xd8;" 
d="M485 620l33 57c4 8 11 19 27 19c9 0 32 -7 32 -30c0 -8 -19 -40 -31 -60c33 -16 40 -47 40 -80c0 -82 -67 -339 -100 -417c-43 -102 -88 -120 -226 -120c-33 0 -43 0 -67 2l-24 -43c-15 -24 -20 -33 -36 -33c-7 0 -32 6 -32 30c0 6 0 8 14 32c4 6 12 23 16 29
c-31 15 -39 41 -39 79c0 87 69 343 96 409c44 107 84 128 230 128c33 0 43 0 67 -2zM170 73l280 487c-11 1 -35 1 -47 1c-102 0 -135 -14 -169 -101c-21 -53 -79 -262 -79 -337c0 -17 0 -36 15 -50zM508 538l-280 -487c11 -1 35 -1 47 -1c102 0 135 15 169 100
c23 60 79 268 79 338c0 21 -2 37 -15 50z" />
    <glyph glyph-name="visiblespace" unicode="&#x2420;" 
d="M534 212l-78 -314c-7 -30 -22 -30 -43 -30h-367c-17 0 -30 0 -30 17c0 3 0 5 4 19l76 306c3 13 9 30 29 30c8 0 17 -3 17 -15c0 -2 -1 -8 -2 -13l-75 -301h351l74 299c3 13 9 30 29 30c8 0 17 -3 17 -15c0 -3 -1 -8 -2 -13z" />
    <glyph glyph-name="exclam" unicode="!" 
d="M453 557l-96 -345c-8 -28 -19 -28 -41 -28c-14 0 -40 0 -40 28c0 2 3 16 4 19l75 341c11 49 52 50 56 50c30 0 46 -24 46 -44c0 -4 -1 -9 -4 -21zM326 55c0 -31 -29 -55 -56 -55c-22 0 -45 15 -45 45c0 31 28 55 56 55c21 0 45 -14 45 -45z" />
    <glyph glyph-name="quotedbl" unicode="&#x22;" 
d="M359 560l-65 -205c-5 -15 -9 -27 -31 -27c-31 0 -31 27 -31 28c0 3 0 5 2 13l38 202c2 12 10 51 50 51c30 0 42 -24 42 -40c0 -7 -3 -15 -5 -22zM536 562l-65 -207c-5 -15 -8 -27 -31 -27c-31 0 -31 27 -31 28c0 3 0 5 2 13l38 203c3 14 11 50 50 50c30 0 42 -24 42 -40
c0 -5 -1 -8 -5 -20z" />
    <glyph glyph-name="numbersign" unicode="#" 
d="M410 163l-51 -133c-4 -12 -11 -30 -35 -30c-18 0 -35 13 -35 35c0 12 37 105 46 128h-100l-51 -133c-4 -12 -11 -30 -35 -30c-18 0 -35 13 -35 35c0 12 37 105 46 128h-29c-11 0 -46 0 -46 35s35 35 47 35h55l55 146h-56c-12 0 -47 0 -47 35s34 35 46 35h84l50 133
c4 9 11 29 35 29c20 0 35 -17 35 -35c0 -6 0 -7 -6 -22l-39 -105h100l50 133c4 9 11 29 35 29c20 0 35 -17 35 -35c0 -6 0 -7 -6 -22l-39 -105h28c11 0 46 0 46 -35s-35 -35 -47 -35h-54l-55 -146h55c12 0 47 0 47 -35s-34 -35 -46 -35h-83zM317 379l-55 -146h100l55 146
h-100z" />
    <glyph glyph-name="sterling" unicode="&#xa3;" 
d="M300 275l-36 -139c-6 -23 -17 -42 -18 -44c40 -23 68 -34 92 -34c35 0 56 37 65 67c8 24 21 25 35 25c30 0 35 -17 35 -28c0 -26 -47 -128 -140 -128c-32 0 -65 9 -129 45c-44 -43 -89 -45 -99 -45c-34 0 -54 24 -54 50c0 38 39 78 94 78c15 0 32 -3 38 -5
c12 22 19 49 25 75l21 83h-24c-13 0 -40 0 -40 28c0 33 26 33 41 33h38l32 129c20 80 90 154 164 154c43 0 91 -27 91 -111c0 -41 -7 -94 -55 -94c-26 0 -41 19 -41 40c0 9 3 30 27 43c1 5 1 14 1 17c0 44 -15 44 -25 44c-36 0 -80 -50 -94 -105l-29 -117h42
c13 0 41 0 41 -28c0 -33 -29 -33 -42 -33h-56z" />
    <glyph glyph-name="percent" unicode="%" 
d="M592 634l-448 -695c-7 -10 -14 -22 -33 -22s-35 16 -35 35c0 8 3 14 10 26l448 694c7 11 14 22 33 22c21 0 35 -18 35 -35c0 -10 -4 -16 -10 -25zM508 92c0 -81 -56 -175 -119 -175c-34 0 -67 29 -67 91c0 81 56 175 119 175c34 0 67 -29 67 -91zM391 -21
c21 0 61 56 61 110c0 10 -3 32 -13 32c-21 0 -61 -56 -61 -110c0 -10 3 -32 13 -32zM356 603c0 -80 -56 -176 -119 -176c-50 0 -68 50 -68 91c0 73 52 176 120 176c42 0 67 -40 67 -91zM239 489c18 0 60 51 60 110c0 21 -5 33 -12 33c-21 0 -61 -55 -61 -110
c0 -6 1 -33 13 -33z" />
    <glyph glyph-name="ampersand" unicode="&#x26;" 
d="M581 411c24 -34 32 -74 32 -115c0 -136 -86 -307 -321 -307c-158 0 -244 90 -244 186c0 51 31 130 78 181c-1 2 -8 22 -8 49c0 101 87 217 191 217c52 0 109 -28 109 -87c0 -48 -34 -58 -50 -58c-19 0 -41 12 -41 40c0 13 5 25 14 34c-12 9 -27 10 -34 10
c-52 0 -116 -72 -120 -154c34 20 62 24 78 24c48 0 63 -40 63 -65c0 -41 -34 -95 -89 -95c-24 0 -53 9 -75 27c-35 -48 -47 -102 -47 -123c0 -66 63 -125 176 -125c207 0 251 165 251 243c0 14 -2 48 -20 77c-50 -27 -66 -38 -66 -62c0 -18 15 -25 16 -25c6 4 12 5 18 5
c18 0 33 -15 33 -33c0 -10 -7 -36 -39 -36c-50 0 -97 35 -97 89c0 60 51 91 85 110c57 34 95 56 127 165c6 20 22 28 35 28s33 -8 33 -33c0 -14 -25 -108 -88 -167zM208 345c7 -7 20 -13 30 -13c9 0 19 15 21 37c-14 -2 -29 -5 -51 -24z" />
    <glyph glyph-name="quoteright" unicode="&#x2019;" 
d="M408 512c-2 0 -9 0 -11 -1c-3 -2 -45 5 -45 44c0 25 22 56 57 56c42 0 63 -35 63 -75c0 -133 -143 -234 -177 -234c-19 0 -31 19 -31 31c0 17 12 23 20 27c81 43 113 102 124 152z" />
    <glyph glyph-name="parenleft" unicode="(" 
d="M425 -54c0 -7 -5 -28 -31 -28c-29 0 -83 60 -108 101c-35 59 -49 125 -49 184c0 299 293 491 337 491c26 0 31 -21 31 -28c0 -16 -10 -21 -25 -30c-189 -109 -274 -294 -274 -437c0 -147 80 -209 106 -230c3 -2 13 -9 13 -23z" />
    <glyph glyph-name="parenright" unicode=")" 
d="M442 409c0 -299 -293 -491 -337 -491c-20 0 -30 14 -30 28c0 16 9 21 24 30c191 110 274 296 274 437c0 84 -27 165 -98 223c-15 13 -20 17 -20 30c0 14 10 28 30 28c29 0 83 -60 108 -101c35 -59 49 -125 49 -184z" />
    <glyph glyph-name="asterisk" unicode="*" 
d="M356 254l-28 -125c-7 -33 -33 -39 -43 -39c-17 0 -26 13 -26 25c0 1 0 5 4 19l33 120l-126 -65c-14 -8 -16 -8 -23 -8c-20 0 -26 17 -26 25c0 12 7 28 31 40l126 59l-95 60c-10 6 -16 10 -16 24c0 21 21 41 42 41c3 0 11 0 23 -9l90 -64l28 122c3 11 10 42 42 42
c21 0 27 -16 27 -25c0 -3 -2 -11 -3 -14l-34 -125l125 65c14 7 15 8 23 8c23 0 26 -18 26 -26c0 -12 -6 -28 -32 -40l-124 -59l93 -58c10 -6 18 -11 18 -25c0 -20 -21 -41 -42 -41c-5 0 -11 0 -23 9z" />
    <glyph glyph-name="plus" unicode="+" 
d="M367 271l-38 -154c-4 -14 -12 -36 -37 -36c-20 0 -35 17 -35 35c0 4 0 6 4 20l34 135h-134c-11 0 -46 0 -46 35s34 35 46 35h151l39 156c2 9 8 34 36 34c21 0 35 -17 35 -35c0 -4 0 -6 -4 -20l-33 -135h132c11 0 46 0 46 -35s-34 -35 -46 -35h-150z" />
    <glyph glyph-name="comma" unicode="," 
d="M279 1c-3 -1 -5 -1 -10 -1c-40 0 -55 32 -55 53c0 31 27 72 73 72c30 0 68 -20 68 -77c0 -106 -125 -187 -170 -187c-23 0 -32 23 -32 31c0 21 19 27 25 29c29 8 73 28 101 80z" />
    <glyph glyph-name="hyphen" unicode="-" 
d="M499 271h-320c-11 0 -46 0 -46 35s34 35 46 35h320c11 0 46 0 46 -35s-34 -35 -46 -35z" />
    <glyph glyph-name="period" unicode="." 
d="M342 71c0 -35 -33 -71 -72 -71c-27 0 -55 18 -55 54c0 43 39 71 71 71c38 0 56 -30 56 -54z" />
    <glyph glyph-name="slash" unicode="/" 
d="M620 632l-507 -696c-7 -9 -16 -19 -32 -19c-20 0 -35 17 -35 35c0 11 3 14 12 27l509 698c5 6 12 17 30 17c21 0 35 -18 35 -35c0 -11 -5 -17 -12 -27z" />
    <glyph glyph-name="zero" unicode="0" 
d="M563 418c0 -212 -160 -429 -303 -429c-98 0 -146 99 -146 204c0 204 156 429 304 429c87 0 145 -83 145 -204zM275 50c104 0 220 206 220 364c0 89 -36 147 -93 147c-99 0 -216 -178 -216 -357c0 -81 27 -154 89 -154z" />
    <glyph glyph-name="one" unicode="1" 
d="M457 574l-129 -513h83c13 0 40 0 40 -28c0 -33 -26 -33 -41 -33h-251c-13 0 -40 0 -40 28c0 33 27 33 42 33h96l103 413c-50 -35 -91 -38 -105 -38c-27 0 -33 16 -33 28c0 13 8 31 27 33c28 2 83 6 151 102c8 12 14 20 29 20c28 0 31 -24 31 -28c0 -6 -2 -12 -3 -17z" />
    <glyph glyph-name="two" unicode="2" 
d="M176 103c34 -3 46 -4 118 -28c22 -7 57 -19 90 -19c48 0 97 42 118 112c5 18 15 24 34 24c18 0 35 -8 35 -28c0 -34 -65 -175 -189 -175c-41 0 -80 13 -119 29c-27 10 -63 24 -94 24c-9 0 -32 0 -43 -32c-8 -21 -23 -21 -34 -21c-31 0 -35 18 -35 28c0 16 25 85 70 134
c59 62 104 85 162 110c138 57 216 99 216 188c0 72 -57 112 -124 112c-40 0 -143 -22 -181 -137c-7 -21 -23 -21 -34 -21c-26 0 -34 14 -34 28c0 51 92 191 250 191c110 0 192 -71 192 -174c0 -135 -131 -196 -249 -245c-42 -18 -102 -43 -149 -100z" />
    <glyph glyph-name="three" unicode="3" 
d="M296 348h38c114 0 181 79 181 133c0 44 -38 80 -107 80c-48 0 -137 -19 -160 -84c-6 -17 -10 -27 -36 -27c-25 0 -34 14 -34 28c0 48 75 144 232 144c110 0 174 -65 174 -141c0 -60 -43 -128 -130 -170c17 -15 56 -49 56 -120c0 -140 -161 -202 -270 -202
c-92 0 -163 48 -163 129c0 27 8 70 51 70c30 0 42 -23 42 -40c0 -1 0 -22 -19 -38c-3 -2 -3 -4 -3 -6c0 -10 19 -54 93 -54c72 0 200 39 200 142c0 36 -19 95 -104 95h-40c-14 0 -42 0 -42 29c0 32 27 32 41 32z" />
    <glyph glyph-name="four" unicode="4" 
d="M273 -169l38 155c-19 6 -51 17 -74 22c-37 10 -50 10 -79 10c-28 0 -67 0 -84 -10c-8 -5 -12 -8 -20 -8c-19 0 -31 18 -31 31c0 19 18 29 18 30c50 28 266 168 363 533c5 15 19 28 36 28s33 -13 33 -33c0 -3 -29 -161 -150 -338c-57 -83 -118 -140 -153 -172
c15 0 38 0 82 -11c32 -8 -5 1 75 -22c10 42 10 44 25 102c14 55 18 71 46 71c21 0 33 -15 33 -32c0 -7 -12 -53 -18 -80c-6 -24 -18 -69 -18 -72s1 -4 14 -4c18 0 38 4 56 11c6 3 13 5 18 5c18 0 31 -17 31 -31c0 -40 -98 -46 -108 -46c-15 0 -21 1 -27 2l-40 -160
c-6 -23 -20 -34 -37 -34s-33 13 -33 33c0 3 0 5 4 20z" />
    <glyph glyph-name="five" unicode="5" 
d="M295 550l-46 -186c42 19 86 25 119 25c102 0 158 -74 158 -157c0 -132 -134 -243 -273 -243c-97 0 -168 53 -168 130c0 40 16 71 52 71c22 0 41 -16 41 -40c0 -16 -9 -32 -23 -41c13 -56 83 -59 99 -59c98 0 203 83 203 183c0 42 -21 95 -91 95c-85 0 -130 -40 -145 -53
c-10 -9 -13 -12 -28 -12c-26 0 -32 18 -32 28c0 4 0 6 4 20l67 270c7 30 21 30 42 30h269c13 0 41 0 41 -28c0 -33 -27 -33 -42 -33h-247z" />
    <glyph glyph-name="six" unicode="6" 
d="M213 345c28 21 84 51 152 51c126 0 162 -106 162 -156c0 -135 -128 -251 -258 -251c-80 0 -159 48 -159 187c0 34 6 190 113 316c60 71 151 130 247 130c95 0 117 -52 117 -86c0 -37 -19 -64 -51 -64c-36 0 -42 31 -42 39c0 15 6 29 18 38c-6 5 -15 12 -44 12
c-107 0 -218 -109 -255 -216zM270 50c93 0 188 91 188 189c0 13 -7 95 -99 95c-75 0 -148 -48 -171 -111c-1 -4 -9 -50 -9 -59c0 -34 9 -114 91 -114z" />
    <glyph glyph-name="seven" unicode="7" 
d="M110 452l79 147c9 17 12 23 35 23c10 0 33 0 35 -30c51 25 95 30 119 30c38 0 55 -17 77 -48c16 -21 20 -22 30 -22c23 0 74 11 112 54c11 13 14 16 33 16c29 0 35 -17 35 -28c0 -10 -7 -18 -11 -22c-63 -80 -221 -281 -291 -543c-4 -16 -10 -40 -38 -40
c-13 0 -33 8 -33 33c0 14 29 126 92 255c44 90 85 152 128 216c-13 -2 -19 -2 -29 -2c-37 0 -54 16 -79 47c-13 15 -18 17 -30 17c-50 0 -143 -32 -199 -127c-13 -20 -16 -25 -38 -25c-25 0 -34 14 -34 28c0 5 1 9 7 21z" />
    <glyph glyph-name="eight" unicode="8" 
d="M424 330c54 -18 105 -61 105 -125c0 -96 -120 -216 -269 -216c-103 0 -177 60 -177 148c0 99 95 168 183 193c-42 13 -96 49 -96 107c0 82 110 185 247 185c105 0 169 -58 169 -131c0 -88 -94 -143 -162 -161zM353 360c81 0 162 56 162 118c0 53 -51 83 -112 83
c-88 0 -163 -59 -163 -118c0 -52 53 -83 113 -83zM276 50c94 0 183 73 183 150c0 46 -36 99 -122 99c-100 0 -183 -76 -183 -149c0 -57 47 -100 122 -100z" />
    <glyph glyph-name="nine" unicode="9" 
d="M465 266c-26 -19 -83 -51 -152 -51c-125 0 -162 102 -162 156c0 139 133 251 263 251c79 0 154 -47 154 -184c0 -38 -8 -190 -107 -315c-58 -73 -145 -134 -240 -134c-20 0 -130 0 -130 87c0 39 20 63 51 63c27 0 41 -18 41 -40c0 -23 -9 -30 -16 -36
c19 -13 43 -13 55 -13c97 0 201 99 243 216zM319 277c84 0 168 62 175 134c1 13 1 15 5 22c1 3 1 7 1 10c0 49 -13 118 -87 118c-93 0 -193 -87 -193 -189c0 -14 7 -95 99 -95z" />
    <glyph glyph-name="colon" unicode=":" 
d="M418 377c0 -38 -34 -71 -72 -71c-33 0 -55 25 -55 54c0 37 35 71 72 71c30 0 55 -22 55 -54zM342 71c0 -35 -33 -71 -72 -71c-27 0 -55 18 -55 54c0 43 39 71 71 71c38 0 56 -30 56 -54z" />
    <glyph glyph-name="semicolon" unicode=";" 
d="M418 377c0 -38 -34 -71 -72 -71c-33 0 -55 25 -55 54c0 37 35 71 72 71c30 0 55 -22 55 -54zM263 0c-49 7 -49 50 -49 53c0 34 29 72 72 72c23 0 55 -11 55 -66c0 -117 -124 -198 -157 -198c-20 0 -31 21 -31 31c0 19 15 25 23 29c30 13 63 35 87 79z" />
    <glyph glyph-name="less" unicode="&#x3c;" 
d="M574 486l-342 -185l240 -178c6 -4 20 -15 20 -32c0 -20 -17 -35 -35 -35c-3 0 -13 0 -27 10l-279 209c-8 6 -18 14 -18 31c0 13 6 25 24 35l383 207c10 5 16 8 24 8c14 0 35 -9 35 -35c0 -6 0 -22 -25 -35z" />
    <glyph glyph-name="equal" unicode="=" 
d="M538 347h-360c-11 0 -45 0 -45 35s38 35 51 35h347c16 0 51 0 51 -35s-31 -35 -44 -35zM494 195h-347c-16 0 -51 0 -51 35s31 35 44 35h360c11 0 45 0 45 -35s-38 -35 -51 -35z" />
    <glyph glyph-name="greater" unicode="&#x3e;" 
d="M521 271l-383 -207c-10 -5 -16 -8 -24 -8c-14 0 -35 9 -35 35c0 6 0 22 25 35l342 185l-240 178c-6 4 -20 15 -20 32c0 20 17 35 35 35c3 0 13 0 27 -10l279 -209c8 -6 18 -14 18 -31c0 -13 -6 -25 -24 -35z" />
    <glyph glyph-name="question" unicode="?" 
d="M302 353l139 76c7 4 56 34 56 74c0 38 -41 58 -89 58c-45 0 -113 -17 -147 -60c1 -1 5 -8 5 -21c0 -29 -24 -49 -49 -49s-41 20 -41 40c0 53 79 151 233 151c100 0 152 -59 152 -120c0 -42 -24 -95 -95 -134c-36 -19 -71 -39 -106 -59c-41 -23 -55 -30 -55 -52
c0 -12 9 -12 16 -12c28 0 56 14 65 40c8 20 23 20 34 20c22 0 34 -10 34 -28c0 -35 -50 -93 -136 -93c-63 0 -77 52 -77 74c0 34 22 74 61 95zM326 55c0 -31 -29 -55 -56 -55c-22 0 -45 15 -45 45c0 31 28 55 56 55c21 0 45 -14 45 -45z" />
    <glyph glyph-name="at" unicode="@" 
d="M525 477c-2 25 -8 79 -75 79c-133 0 -284 -162 -284 -330c0 -100 57 -171 147 -171c37 0 80 14 118 43c13 9 14 10 32 10c10 0 38 0 38 -28c0 -24 -45 -46 -69 -57c-47 -23 -91 -29 -120 -29c-111 0 -202 85 -202 229c0 204 176 394 342 394c127 0 131 -125 131 -157
c0 -46 -17 -164 -57 -239c-24 -46 -85 -115 -156 -115c-55 0 -110 43 -110 141c0 129 98 258 195 258c36 0 60 -18 70 -28zM371 167c62 0 138 99 138 195c0 22 -8 82 -56 82c-60 0 -137 -98 -137 -194c0 -42 17 -83 55 -83z" />
    <glyph glyph-name="A" unicode="A" 
d="M463 588l-9 -527c26 0 52 0 52 -28c0 -33 -27 -33 -44 -33h-102c-16 0 -42 0 -42 28c0 14 6 26 19 31c5 2 31 2 46 2l2 104h-162l-50 -104c24 0 50 0 50 -28c0 -33 -28 -33 -44 -33h-102c-15 0 -43 0 -43 28c0 1 1 23 19 30c5 3 32 3 49 3l255 529c16 33 37 33 61 33
c27 0 45 0 45 -35zM397 540l-144 -314h132l13 313z" />
    <glyph glyph-name="B" unicode="B" 
d="M209 611h233c95 0 138 -59 138 -121c0 -89 -81 -150 -146 -170c45 -11 95 -46 95 -117c0 -92 -95 -203 -219 -203h-240c-13 0 -40 0 -40 28c0 33 27 33 42 33h34l122 489h-20c-13 0 -40 0 -40 28c0 33 26 33 41 33zM298 550l-50 -202h103c104 0 159 78 159 129
c0 8 0 73 -87 73h-125zM176 61h127c90 0 157 66 157 138c0 26 -10 88 -90 88h-137z" />
    <glyph glyph-name="C" unicode="C" 
d="M631 580l-37 -149c-7 -28 -20 -30 -36 -30c-6 0 -35 0 -35 29c0 6 2 7 2 27c0 63 -35 104 -92 104c-122 0 -260 -177 -260 -348c0 -83 38 -163 120 -163c32 0 131 18 167 130c7 21 23 21 34 21c22 0 34 -10 34 -28c0 -53 -93 -184 -241 -184c-116 0 -183 101 -183 223
c0 202 162 410 326 410c48 0 87 -16 121 -49c12 15 12 17 21 29c11 14 16 20 32 20c22 0 30 -17 30 -28c0 -3 -2 -11 -3 -14z" />
    <glyph glyph-name="D" unicode="D" 
d="M205 611h214c121 0 156 -117 156 -204c0 -197 -148 -407 -308 -407h-200c-13 0 -41 0 -41 28c0 33 27 33 42 33h29l122 489c-32 0 -55 0 -55 28c0 33 26 33 41 33zM289 550l-122 -489h96c133 0 241 179 241 329c0 36 -8 160 -119 160h-96z" />
    <glyph glyph-name="E" unicode="E" 
d="M238 286l-56 -225h266l17 66c8 34 11 44 39 44c31 0 35 -18 35 -28c0 -7 -29 -123 -32 -128c-8 -15 -20 -15 -37 -15h-396c-13 0 -41 0 -41 28c0 33 27 33 42 33h37l122 489h-23c-13 0 -40 0 -40 28c0 33 26 33 41 33h374c13 0 41 0 41 -28c0 -4 -2 -11 -3 -15l-21 -84
c-6 -24 -17 -28 -35 -28c-6 0 -35 0 -35 28c0 3 10 44 15 66h-244l-50 -203h130c12 50 14 57 42 57c6 0 35 0 35 -28c0 -7 -2 -12 -3 -18l-25 -99c-6 -25 -17 -30 -36 -30c-31 0 -35 18 -35 28c0 9 4 22 6 29h-130z" />
    <glyph glyph-name="F" unicode="F" 
d="M241 275l-54 -214h44c13 0 41 0 41 -28c0 -33 -29 -33 -42 -33h-154c-13 0 -41 0 -41 28c0 33 27 33 42 33h40l122 489h-26c-13 0 -40 0 -40 28c0 33 26 33 41 33h382c13 0 41 0 41 -28c0 -4 -2 -11 -3 -15l-21 -84c-6 -24 -17 -28 -35 -28c-6 0 -35 0 -35 28
c0 3 10 44 15 66h-249l-53 -214h135c12 49 14 57 43 57c22 0 34 -11 34 -28c0 -5 -6 -29 -10 -43c-2 -10 -8 -35 -11 -45c-13 -53 -15 -59 -43 -59c-30 0 -35 17 -35 28c0 7 5 22 7 29h-135z" />
    <glyph glyph-name="G" unicode="G" 
d="M503 209l-45 -181c-6 -24 -17 -28 -35 -28c-8 0 -39 0 -34 36c-23 -19 -68 -47 -123 -47c-101 0 -165 92 -165 216c0 201 154 417 309 417c55 0 91 -26 109 -46c7 9 13 19 20 28c9 11 14 18 30 18c22 0 30 -17 30 -28c0 -3 -2 -11 -3 -14l-37 -149
c-7 -28 -20 -30 -36 -30c-6 0 -35 0 -35 29c0 2 3 22 3 32c0 26 -8 99 -79 99c-108 0 -242 -180 -242 -357c0 -78 31 -154 101 -154c63 0 125 65 159 159h-34c-13 0 -40 0 -40 28c0 33 27 33 42 33h119c13 0 40 0 40 -28c0 -33 -23 -33 -54 -33z" />
    <glyph glyph-name="H" unicode="H" 
d="M576 550l-122 -489h17c13 0 41 0 41 -28c0 -33 -29 -33 -42 -33h-119c-13 0 -40 0 -40 28c0 33 26 33 41 33h31l57 226h-211l-57 -226h17c13 0 41 0 41 -28c0 -33 -29 -33 -42 -33h-119c-13 0 -40 0 -40 28c0 33 26 33 41 33h32l122 489h-17c-13 0 -41 0 -41 28
c0 33 27 33 42 33h119c13 0 40 0 40 -28c0 -33 -27 -33 -42 -33h-31l-50 -202h211l50 202c-33 0 -57 0 -57 28c0 33 27 33 42 33h119c13 0 40 0 40 -28c0 -33 -27 -33 -42 -33h-31z" />
    <glyph glyph-name="I" unicode="I" 
d="M435 550l-122 -489h101c13 0 40 0 40 -28c0 -33 -27 -33 -42 -33h-285c-13 0 -41 0 -41 28c0 33 27 33 42 33h115l122 489h-101c-13 0 -40 0 -40 28c0 33 26 33 41 33h286c13 0 41 0 41 -28c0 -33 -29 -33 -42 -33h-115z" />
    <glyph glyph-name="J" unicode="J" 
d="M546 550l-106 -427c-17 -69 -98 -134 -198 -134c-90 0 -148 38 -148 96c0 41 24 61 51 61s41 -19 41 -40c0 -23 -10 -31 -16 -36c23 -19 62 -20 73 -20c53 0 115 31 130 90l102 410h-74c-13 0 -40 0 -40 28c0 33 26 33 41 33h182c13 0 41 0 41 -28c0 -33 -29 -33 -42 -33
h-37z" />
    <glyph glyph-name="K" unicode="K" 
d="M567 550l-201 -192l93 -297c19 0 45 0 45 -28c0 -33 -27 -33 -42 -33h-75c-13 0 -41 0 -41 28c0 33 26 33 48 33l-78 250l-121 -116l-34 -134c32 0 55 0 55 -28c0 -33 -27 -33 -42 -33h-100c-13 0 -41 0 -41 28c0 33 27 33 42 33h29l122 489c-32 0 -55 0 -55 28
c0 33 26 33 41 33h101c13 0 41 0 41 -28c0 -33 -29 -33 -42 -33h-29l-66 -265l278 265c-29 0 -34 18 -34 28c0 33 27 33 42 33h88c13 0 41 0 41 -28c0 -33 -29 -33 -42 -33h-23z" />
    <glyph glyph-name="L" unicode="L" 
d="M316 550l-122 -489h240l17 66c9 34 11 44 39 44c6 0 35 0 35 -28c0 -5 -30 -124 -32 -128c-8 -15 -21 -15 -37 -15h-377c-13 0 -40 0 -40 28c0 33 26 33 41 33h44l122 489h-29c-13 0 -41 0 -41 28c0 33 27 33 42 33h162c13 0 40 0 40 -28c0 -33 -26 -33 -41 -33h-63z" />
    <glyph glyph-name="M" unicode="M" 
d="M593 550l-122 -489c19 0 45 0 45 -28c0 -33 -26 -33 -41 -33h-82c-13 0 -40 0 -40 28c0 33 27 33 42 33h18l118 472h-1c-25 -49 -25 -51 -50 -92l-120 -206c-17 -30 -44 -31 -46 -31c-29 0 -30 18 -34 65l-8 90c-10 133 -10 153 -10 161v16h-1l-119 -475
c19 0 45 0 45 -28c0 -33 -26 -33 -41 -33h-82c-13 0 -40 0 -40 28c0 33 27 33 42 33h19l122 489c-19 0 -46 0 -46 28c0 33 29 33 42 33h28c59 0 73 0 77 -25c1 -2 23 -242 23 -310h1c18 38 36 69 70 127l104 178c18 30 42 30 59 30h48c13 0 41 0 41 -28
c0 -33 -27 -33 -42 -33h-19z" />
    <glyph glyph-name="N" unicode="N" 
d="M570 550l-129 -519c-8 -31 -20 -31 -42 -31h-10c-41 0 -42 15 -45 37l-60 497h-1l-118 -473h17c13 0 41 0 41 -28c0 -33 -29 -33 -42 -33h-106c-13 0 -40 0 -40 28c0 33 26 33 41 33h32l122 489h-17c-13 0 -41 0 -41 28c0 33 27 33 42 33h40c68 0 76 0 80 -37l60 -497h1
l117 473c-33 0 -57 0 -57 28c0 33 27 33 42 33h106c13 0 40 0 40 -28c0 -33 -27 -33 -42 -33h-31z" />
    <glyph glyph-name="O" unicode="O" 
d="M586 526c0 -82 -67 -339 -100 -417c-43 -102 -88 -120 -226 -120c-121 0 -168 13 -168 96c0 87 69 343 96 409c44 107 84 128 230 128c118 0 168 -11 168 -96zM275 50c110 0 132 30 166 127c8 24 71 242 71 316c0 57 -28 68 -110 68c-105 0 -131 -21 -165 -127
c-14 -41 -70 -244 -70 -315c0 -51 24 -69 108 -69z" />
    <glyph glyph-name="P" unicode="P" 
d="M228 245l-46 -184h23c13 0 40 0 40 -28c0 -33 -27 -33 -42 -33h-129c-13 0 -41 0 -41 28c0 33 27 33 42 33h37l122 489h-23c-13 0 -40 0 -40 28c0 33 26 33 41 33h232c108 0 150 -76 150 -139c0 -107 -107 -227 -242 -227h-124zM304 550l-60 -244h105
c102 0 173 80 173 148c0 49 -33 96 -112 96h-106z" />
    <glyph glyph-name="Q" unicode="Q" 
d="M348 -125l-32 115c-11 -1 -43 -1 -56 -1c-121 0 -168 13 -168 96c0 87 69 343 96 409c44 107 84 128 230 128c118 0 168 -11 168 -96c0 -75 -48 -251 -60 -296c-48 -177 -83 -206 -133 -226c4 -15 33 -113 33 -119c0 -24 -26 -24 -37 -24h-9c-16 0 -27 0 -32 14zM311 171
h11c19 0 22 0 25 -10c7 -20 21 -72 27 -93c21 11 46 26 87 178c14 51 50 186 50 246c0 52 -21 69 -109 69c-108 0 -129 -28 -161 -115c-13 -35 -74 -250 -74 -326c0 -33 0 -70 99 -70h33c-20 74 -25 96 -25 97c0 24 26 24 37 24z" />
    <glyph glyph-name="R" unicode="R" 
d="M421 302c2 -2 38 -32 38 -84c0 -15 -3 -26 -13 -68c-14 -52 -16 -63 -16 -81c0 -14 2 -19 11 -19c16 0 29 22 37 51c8 24 21 24 35 24c8 0 34 0 34 -28c0 -21 -34 -108 -107 -108c-25 0 -78 11 -78 87c0 14 0 28 13 73c4 16 15 55 15 69c0 26 -15 57 -80 57h-84l-54 -214
h17c13 0 41 0 41 -28c0 -33 -29 -33 -42 -33h-119c-13 0 -40 0 -40 28c0 33 26 33 41 33h32l122 489h-17c-13 0 -41 0 -41 28c0 33 27 33 42 33h184c97 0 157 -57 157 -133c0 -67 -51 -139 -128 -176zM313 336c95 0 165 66 165 128c0 42 -31 86 -112 86h-72l-53 -214h72z
" />
    <glyph glyph-name="S" unicode="S" 
d="M592 580l-36 -144c-6 -24 -17 -28 -35 -28c-7 0 -35 0 -35 29c0 7 2 13 2 29c0 83 -58 95 -103 95c-84 0 -156 -66 -156 -126c0 -54 48 -66 92 -76c30 -7 90 -22 100 -25c52 -16 98 -64 98 -135c0 -97 -97 -210 -230 -210c-16 0 -102 0 -158 47c-3 -6 -16 -28 -17 -30
c-6 -9 -12 -17 -28 -17c-22 0 -30 18 -30 28c0 8 41 166 41 168c7 18 25 18 33 18c31 0 35 -18 35 -28c0 -3 -1 -8 -2 -9c-2 -11 -4 -26 -4 -31c0 -66 68 -85 132 -85c87 0 161 74 161 143c0 61 -44 72 -88 83l-67 17c-39 9 -134 32 -134 136c0 99 103 193 224 193
c28 0 88 -4 132 -48c5 10 11 20 17 29c6 11 12 19 29 19c22 0 30 -17 30 -28c0 -3 -2 -11 -3 -14z" />
    <glyph glyph-name="T" unicode="T" 
d="M435 550l-122 -489h44c13 0 41 0 41 -28c0 -33 -29 -33 -42 -33h-173c-13 0 -40 0 -40 28c0 33 26 33 41 33h59l122 489h-132l-16 -66c-6 -22 -15 -28 -35 -28c-6 0 -35 0 -35 28c0 3 0 5 3 15l20 81c8 31 19 31 42 31h392c13 0 41 0 41 -28c0 -4 -2 -11 -3 -15l-21 -84
c-6 -24 -17 -28 -35 -28c-6 0 -35 0 -35 28c0 3 10 44 15 66h-131z" />
    <glyph glyph-name="U" unicode="U" 
d="M588 550l-88 -355c-26 -105 -126 -206 -233 -206c-87 0 -148 69 -148 162c0 7 0 29 8 61l84 338h-22c-13 0 -40 0 -40 28c0 33 26 33 41 33h130c13 0 41 0 41 -28c0 -33 -29 -33 -42 -33h-37l-88 -354c-4 -18 -6 -35 -6 -46c0 -61 32 -100 80 -100c64 0 142 68 165 161
l84 339h-22c-13 0 -40 0 -40 28c0 33 26 33 41 33h130c13 0 41 0 41 -28c0 -33 -29 -33 -42 -33h-37z" />
    <glyph glyph-name="V" unicode="V" 
d="M588 550l-266 -525c-17 -33 -35 -33 -61 -33c-45 0 -45 9 -46 46v69c-2 137 -3 273 -3 410v33c-24 0 -49 0 -49 28c0 33 26 33 41 33h103c13 0 41 0 41 -28c0 -33 -29 -33 -42 -33h-23c1 -10 1 -21 1 -31v-324c0 -36 0 -90 -4 -121l1 -1c16 38 49 103 67 140l168 337
c-23 0 -48 0 -48 28c0 33 26 33 41 33h103c13 0 41 0 41 -28c0 -33 -29 -33 -42 -33h-23z" />
    <glyph glyph-name="W" unicode="W" 
d="M613 550l-203 -523c-5 -14 -14 -35 -48 -35c-35 0 -35 17 -35 43c0 37 2 104 4 142c1 57 3 98 5 116l-1 1c-8 -24 -43 -98 -53 -118c-10 -22 -42 -89 -52 -112c-30 -61 -35 -72 -70 -72c-9 0 -33 0 -33 25l2 13l57 520c-28 2 -30 21 -30 28c0 33 27 33 42 33h79
c13 0 40 0 40 -28c0 -33 -27 -33 -42 -33h-32l-40 -350c-6 -49 -9 -82 -18 -124h1c13 41 79 181 96 216c32 66 36 75 72 75c15 0 36 0 36 -34c0 -45 -2 -98 -4 -143c-2 -31 -5 -92 -10 -114h1c16 46 45 121 56 151l124 323h-18c-13 0 -41 0 -41 28c0 33 27 33 42 33h79
c13 0 40 0 40 -28c0 -33 -25 -33 -46 -33z" />
    <glyph glyph-name="X" unicode="X" 
d="M542 550l-169 -225l75 -264c33 0 57 0 57 -28c0 -33 -27 -33 -42 -33h-104c-13 0 -40 0 -40 28c0 33 23 33 53 33l-51 194l-140 -194c11 0 39 0 39 -28c0 -33 -27 -33 -42 -33h-103c-13 0 -41 0 -41 28c0 33 27 33 42 33h29l199 264l-64 225h-17c-13 0 -40 0 -40 28
c0 33 27 33 42 33h104c13 0 40 0 40 -28c0 -33 -24 -33 -52 -33l41 -146l108 146c-10 0 -39 0 -39 28c0 33 29 33 42 33h104c13 0 40 0 40 -28c0 -33 -26 -33 -41 -33h-30z" />
    <glyph glyph-name="Y" unicode="Y" 
d="M582 550l-224 -306l-46 -183h18c13 0 41 0 41 -28c0 -33 -29 -33 -42 -33h-119c-13 0 -40 0 -40 28c0 33 26 33 41 33h32l46 183l-71 306c-31 0 -55 0 -55 28c0 33 27 33 42 33h104c13 0 40 0 40 -28c0 -33 -24 -33 -54 -33c45 -212 45 -214 47 -236c17 34 40 66 63 98
l100 138c-11 0 -39 0 -39 28c0 33 27 33 42 33h104c13 0 40 0 40 -28c0 -33 -27 -33 -42 -33h-28z" />
    <glyph glyph-name="Z" unicode="Z" 
d="M606 550l-453 -489h274l17 69c9 35 12 44 40 44c30 0 35 -17 35 -28c0 -5 -30 -125 -33 -131c-8 -15 -20 -15 -37 -15h-360c-16 0 -35 0 -35 22c0 20 11 31 20 41l451 487h-258l-16 -66c-6 -22 -15 -28 -35 -28c-6 0 -35 0 -35 28c0 3 0 5 3 15l20 81c8 31 19 31 42 31
h343c15 0 35 0 35 -22c0 -16 -8 -29 -18 -39z" />
    <glyph glyph-name="bracketleft" unicode="[" 
d="M450 633l-164 -655h145c13 0 41 0 41 -28c0 -33 -29 -33 -42 -33h-181c-13 0 -41 0 -41 28c0 6 2 12 3 17l176 703c7 29 20 29 42 29h181c13 0 41 0 41 -28c0 -33 -29 -33 -42 -33h-159z" />
    <glyph glyph-name="backslash" unicode="\" 
d="M294 656l157 -684c4 -16 4 -18 4 -20c0 -18 -14 -35 -35 -35c-28 0 -33 23 -36 37l-157 684c-4 16 -4 18 -4 21c0 21 17 35 35 35c27 0 33 -23 36 -38z" />
    <glyph glyph-name="bracketright" unicode="]" 
d="M467 652l-176 -705c-7 -30 -21 -30 -42 -30h-181c-13 0 -41 0 -41 28c0 33 27 33 42 33h159l163 655h-144c-13 0 -41 0 -41 28c0 33 27 33 42 33h181c13 0 41 0 41 -28c0 -3 -1 -8 -3 -14z" />
    <glyph glyph-name="asciicircum" unicode="^" 
d="M404 542l-128 -65c-10 -6 -12 -6 -17 -6c-20 0 -32 20 -32 39c0 18 15 25 25 30l138 66c4 2 10 5 18 5s9 -1 22 -9l102 -63c9 -5 21 -13 21 -29c0 -12 -17 -39 -38 -39c-2 0 -9 0 -22 9z" />
    <glyph glyph-name="underscore" unicode="_" 
d="M407 -95h-319c-12 0 -47 0 -47 35s35 35 47 35h319c12 0 47 0 47 -35s-35 -35 -47 -35z" />
    <glyph glyph-name="quoteleft" unicode="&#x2018;" 
d="M364 471c16 0 55 0 55 -43c0 -29 -23 -56 -57 -56c-28 0 -62 20 -62 76c0 131 143 233 177 233c20 0 31 -21 31 -31c0 -17 -13 -24 -20 -28c-96 -50 -118 -121 -124 -151z" />
    <glyph glyph-name="a" unicode="a" 
d="M488 369l-65 -261c-2 -8 -4 -16 -4 -24c0 -6 1 -29 21 -29s35 56 39 75c8 30 11 42 39 42c34 0 35 -24 35 -28c0 -8 -14 -63 -33 -96c-8 -13 -31 -54 -81 -54c-54 0 -77 41 -82 53c-10 -10 -56 -53 -113 -53c-67 0 -118 58 -118 154c0 139 106 289 214 289
c19 0 52 -4 84 -40c3 9 15 25 35 25c17 0 33 -13 33 -33c0 -3 0 -5 -4 -20zM245 55c60 0 144 116 144 231c0 45 -14 90 -51 90c-60 0 -144 -119 -144 -232c0 -21 7 -89 51 -89z" />
    <glyph glyph-name="b" unicode="b" 
d="M302 566l-42 -167c33 24 70 38 104 38c78 0 133 -66 133 -160c0 -139 -113 -283 -229 -283c-71 0 -132 58 -132 160c0 13 0 33 8 65l83 331h-57c-13 0 -41 0 -41 28c0 33 29 33 42 33h93c13 0 41 0 41 -28c0 -6 -2 -12 -3 -17zM270 55c69 0 158 110 158 224
c0 59 -26 97 -65 97c-70 0 -159 -112 -159 -225c0 -38 15 -96 66 -96z" />
    <glyph glyph-name="c" unicode="c" 
d="M437 358c-12 14 -29 18 -47 18c-86 0 -184 -105 -184 -214c0 -107 83 -107 103 -107c110 0 143 28 163 46c4 3 11 9 22 9c16 0 35 -19 35 -36c0 -33 -70 -60 -86 -65c-44 -14 -95 -15 -130 -15c-30 0 -82 0 -123 40c-32 31 -53 71 -53 129c0 139 126 274 255 274
c72 0 120 -42 120 -95c0 -36 -21 -61 -51 -61c-21 0 -41 13 -41 40c0 24 10 32 17 37z" />
    <glyph glyph-name="d" unicode="d" 
d="M538 566l-115 -458c-2 -8 -4 -16 -4 -24c0 -6 1 -29 21 -29s35 56 39 75c8 30 11 42 39 42c34 0 35 -24 35 -28c0 -8 -14 -63 -33 -96c-8 -13 -31 -54 -81 -54c-54 0 -77 41 -82 53c-10 -10 -56 -53 -113 -53c-67 0 -118 58 -118 154c0 139 106 289 214 289
c19 0 52 -4 84 -40l38 153h-44c-13 0 -41 0 -41 28c0 33 27 33 42 33h81c13 0 41 0 41 -28c0 -6 -2 -12 -3 -17zM245 55c60 0 144 116 144 231c0 45 -14 90 -51 90c-60 0 -144 -119 -144 -232c0 -21 7 -89 51 -89z" />
    <glyph glyph-name="e" unicode="e" 
d="M260 189h-33c-19 0 -20 -1 -20 -26c0 -108 82 -108 102 -108c110 0 143 28 163 46c4 3 11 9 22 9c16 0 35 -19 35 -36c0 -33 -70 -60 -86 -65c-44 -14 -95 -15 -130 -15c-38 0 -83 0 -128 46c-27 26 -47 67 -47 125c0 145 129 272 254 272c73 0 124 -45 124 -104
c0 -21 -7 -84 -86 -118c-38 -17 -100 -26 -170 -26zM226 250h30c86 0 191 12 191 83c0 26 -23 43 -57 43c-57 0 -129 -48 -164 -126z" />
    <glyph glyph-name="f" unicode="f" 
d="M377 370l-63 -358c-8 -45 -18 -90 -34 -133c-10 -29 -52 -107 -126 -107c-65 0 -109 28 -109 73c0 29 21 55 50 55c17 0 41 -10 41 -40c0 -15 -2 -18 -6 -24c8 -2 13 -3 25 -3c48 0 75 97 95 212l57 325h-58c-13 0 -40 0 -40 28c0 33 26 33 41 33h67c11 58 6 37 13 70
c9 48 22 116 125 116c82 0 116 -33 116 -73c0 -34 -24 -55 -50 -55c-23 0 -41 17 -41 40c0 13 4 18 4 22s-27 5 -31 5c-39 0 -44 -17 -50 -43c-4 -13 -11 -54 -16 -82h78c13 0 41 0 41 -28c0 -33 -29 -33 -42 -33h-87z" />
    <glyph glyph-name="g" unicode="g" 
d="M528 369l-111 -447c-13 -52 -72 -150 -218 -150c-44 0 -131 0 -131 64c0 31 23 53 50 53c25 0 41 -20 41 -40c0 -8 -1 -11 -2 -14c17 -2 28 -2 44 -2c109 0 141 79 145 91c1 3 2 6 28 113c-34 -24 -71 -37 -104 -37c-73 0 -133 59 -133 159c0 138 113 278 228 278
c24 0 65 -7 97 -47c4 18 19 32 37 32c17 0 33 -13 33 -33c0 -3 0 -5 -4 -20zM271 61c72 0 158 113 158 219c0 40 -16 96 -66 96c-71 0 -157 -110 -157 -219c0 -51 21 -96 65 -96z" />
    <glyph glyph-name="h" unicode="h" 
d="M293 566l-42 -168c17 14 58 39 112 39c62 0 109 -35 109 -108c0 -56 -47 -185 -56 -210c-12 -30 -12 -32 -12 -43c0 -13 2 -21 14 -21c22 0 49 32 64 85c5 19 9 32 36 32c34 0 35 -24 35 -28c0 -20 -42 -150 -138 -150c-47 0 -80 35 -80 84c0 19 5 33 11 49
c12 33 57 156 57 203c0 24 -6 46 -41 46c-114 0 -163 -186 -201 -334c-6 -25 -12 -48 -40 -48c-17 0 -33 13 -33 33c0 4 0 6 4 20l126 503h-45c-13 0 -41 0 -41 28c0 33 27 33 42 33h81c13 0 41 0 41 -28c0 -6 -2 -12 -3 -17z" />
    <glyph glyph-name="i" unicode="i" 
d="M449 571c0 -30 -27 -48 -48 -48c-28 0 -42 22 -42 41c0 23 22 48 49 48c22 0 41 -15 41 -41zM242 122l83 206c1 3 5 12 5 21c0 17 -12 27 -30 27c-20 0 -64 -17 -88 -92c-5 -15 -10 -25 -35 -25c-30 0 -34 20 -34 28c0 33 57 150 159 150c54 0 97 -36 97 -88
c0 -17 -2 -23 -18 -63l-24 -60c-11 -27 -21 -54 -32 -80c-8 -21 -22 -57 -22 -64c0 -20 15 -27 30 -27c30 0 70 32 87 91c4 12 8 26 35 26c34 0 35 -24 35 -28c0 -32 -57 -150 -159 -150c-53 0 -97 35 -97 88c0 20 3 27 8 40z" />
    <glyph glyph-name="j" unicode="j" 
d="M542 571c0 -30 -27 -48 -48 -48c-28 0 -42 22 -42 41c0 23 22 48 49 48c22 0 41 -15 41 -41zM321 -37l89 358c4 15 4 17 4 21c0 24 -17 34 -37 34c-33 0 -81 -29 -109 -92c-7 -16 -11 -25 -36 -25c-30 0 -34 20 -34 28c0 29 70 150 181 150c58 0 104 -38 104 -95
c0 -9 0 -14 -4 -30l-90 -362c-22 -87 -102 -178 -202 -178c-63 0 -96 27 -96 64c0 31 23 53 50 53c25 0 41 -20 41 -40c0 -4 -2 -12 -3 -16c101 0 136 107 142 130z" />
    <glyph glyph-name="k" unicode="k" 
d="M302 566l-76 -302c22 12 45 31 91 82c62 66 111 91 156 91c46 0 67 -34 67 -79c0 -25 -4 -84 -54 -84c-22 0 -41 16 -41 40c0 18 10 32 23 41c3 3 4 4 4 21c-17 -1 -45 -3 -99 -57c-4 -4 -68 -71 -80 -81c52 -14 103 -42 103 -106c0 -27 -5 -26 -5 -43
c0 -30 22 -34 31 -34c37 0 56 70 60 85c5 18 9 32 36 32c34 0 35 -24 35 -28c0 -12 -34 -150 -132 -150c-49 0 -99 34 -99 96c0 24 5 25 5 41c0 47 -87 55 -120 57l-40 -160c-6 -22 -19 -34 -37 -34c-17 0 -33 13 -33 33c0 4 0 6 4 20l126 503h-57c-13 0 -41 0 -41 28
c0 33 29 33 42 33h93c13 0 41 0 41 -28c0 -6 -2 -12 -3 -17z" />
    <glyph glyph-name="l" unicode="l" 
d="M404 566l-114 -454c-4 -14 -4 -15 -4 -20c0 -34 49 -37 55 -37c43 0 63 70 69 91c4 14 9 26 34 26c34 0 35 -24 35 -28c0 -16 -37 -150 -139 -150c-52 0 -123 27 -123 97c0 6 0 14 4 30l107 429h-91c-13 0 -41 0 -41 28c0 33 29 33 42 33h128c13 0 41 0 41 -28
c0 -6 -2 -12 -3 -17z" />
    <glyph glyph-name="m" unicode="m" 
d="M111 238l40 162c3 11 8 31 30 31c6 0 25 -3 28 -28c17 14 47 34 87 34c55 0 74 -43 79 -60c29 34 66 60 113 60c42 0 83 -28 83 -97c0 -50 -22 -113 -41 -168c-16 -45 -24 -67 -24 -91c0 -19 6 -19 11 -20c17 -2 26 -14 26 -28c0 -10 -5 -33 -31 -33c-4 0 -63 0 -63 76
c0 18 2 41 19 88c33 94 46 139 46 172c0 22 -4 40 -27 40c-86 0 -142 -225 -166 -321c-14 -55 -15 -61 -43 -61c-6 0 -35 0 -35 28c0 8 29 122 52 191c4 14 27 90 27 123c0 22 -4 40 -27 40c-86 0 -142 -225 -166 -321c-14 -55 -15 -61 -43 -61c-6 0 -35 0 -35 28
c0 7 29 121 51 187c9 27 9 28 9 29z" />
    <glyph glyph-name="n" unicode="n" 
d="M129 47l70 279c2 8 3 12 3 24c0 8 -1 25 -13 25c-17 0 -33 -61 -36 -76c-7 -28 -10 -40 -39 -40c-30 0 -34 20 -34 28c0 9 14 65 30 96c18 33 44 54 79 54c24 0 61 -11 76 -55c37 37 77 55 121 55c61 0 99 -40 99 -104c0 -53 -44 -179 -52 -202c-7 -20 -17 -47 -17 -60
c0 -10 3 -16 9 -16c22 0 43 36 57 85c5 18 9 32 36 32c34 0 35 -24 35 -28c0 -16 -37 -150 -130 -150c-45 0 -75 34 -75 81c0 21 5 36 11 54c15 42 57 160 57 205c0 33 -12 42 -32 42c-50 0 -85 -51 -106 -90c-32 -63 -56 -149 -75 -225c-12 -49 -17 -67 -45 -67
c-17 0 -33 13 -33 33c0 4 0 6 4 20z" />
    <glyph glyph-name="o" unicode="o" 
d="M505 274c0 -146 -121 -280 -237 -280c-84 0 -141 70 -141 163c0 139 118 280 237 280c75 0 141 -57 141 -163zM270 55c76 0 167 112 167 221c0 43 -19 100 -74 100c-75 0 -167 -109 -167 -221c0 -52 23 -100 74 -100z" />
    <glyph glyph-name="p" unicode="p" 
d="M89 -161l122 488c1 4 3 16 3 19c0 5 -1 30 -21 30c-21 0 -34 -54 -40 -77c-8 -28 -10 -40 -39 -40c-30 0 -34 20 -34 28c0 11 14 64 33 96c14 26 39 54 81 54c13 0 58 -2 81 -53c28 25 67 53 114 53c71 0 118 -65 118 -153c0 -140 -106 -290 -214 -290
c-52 0 -84 38 -85 40l-48 -195h45c13 0 40 0 40 -28c0 -33 -27 -33 -42 -33h-151c-13 0 -41 0 -41 28c0 33 29 33 42 33h36zM294 55c60 0 144 116 144 231c0 45 -14 90 -51 90c-60 0 -144 -119 -144 -232c0 -21 7 -89 51 -89z" />
    <glyph glyph-name="q" unicode="q" 
d="M533 389l-137 -550h56c13 0 41 0 41 -28c0 -33 -27 -33 -42 -33h-198c-13 0 -41 0 -41 28c0 33 29 33 42 33h71l48 193c-36 -26 -73 -38 -105 -38c-71 0 -132 58 -132 160c0 143 116 283 228 283c51 0 81 -26 103 -53c16 38 22 53 42 53c15 0 28 -12 28 -28
c0 -4 0 -6 -4 -20zM270 55c69 0 158 110 158 224c0 59 -26 97 -65 97c-70 0 -159 -112 -159 -225c0 -38 15 -96 66 -96z" />
    <glyph glyph-name="r" unicode="r" 
d="M171 47l68 274c4 15 4 17 4 23c0 28 -20 32 -29 32c-28 0 -39 -45 -48 -82c-6 -22 -9 -35 -38 -35c-30 0 -34 20 -34 28c0 4 25 150 121 150c45 0 78 -27 91 -58c54 58 111 58 129 58c73 0 144 -33 144 -101c0 -50 -33 -62 -51 -62c-22 0 -41 16 -41 40c0 25 12 33 18 38
c-20 22 -59 24 -72 24c-50 0 -82 -38 -108 -83c-28 -51 -53 -124 -80 -232c-12 -49 -17 -67 -45 -67c-17 0 -33 13 -33 33c0 3 0 5 4 20z" />
    <glyph glyph-name="s" unicode="s" 
d="M430 361c-22 15 -54 15 -68 15c-10 0 -48 0 -78 -16c-33 -17 -40 -46 -40 -55c0 -29 37 -36 93 -46c47 -8 148 -26 148 -114c0 -43 -29 -90 -72 -117c-55 -33 -117 -34 -145 -34c-33 0 -169 1 -169 97c0 52 35 61 50 61c30 0 42 -24 42 -40c0 -17 -13 -33 -16 -36
c27 -21 82 -21 95 -21c29 0 70 3 106 22c34 18 48 50 48 67c0 38 -59 48 -90 54c-71 13 -88 16 -115 36c-27 21 -36 47 -36 70c0 42 36 133 181 133c95 0 142 -35 142 -87c0 -41 -27 -56 -47 -56c-10 0 -39 5 -39 39c0 10 3 21 10 28z" />
    <glyph glyph-name="t" unicode="t" 
d="M346 370l-64 -258c-4 -15 -4 -17 -4 -23c0 -28 21 -34 36 -34c44 0 88 42 109 89c8 18 12 28 36 28c34 0 35 -24 35 -28c0 -28 -71 -150 -181 -150c-64 0 -105 44 -105 95l67 281h-78c-13 0 -41 0 -41 28c0 33 29 33 42 33h93l37 150c2 9 9 36 38 36c18 0 33 -14 33 -33
c0 -3 0 -5 -4 -19l-33 -134h78c13 0 41 0 41 -28c0 -33 -27 -33 -42 -33h-93z" />
    <glyph glyph-name="u" unicode="u" 
d="M496 377l-67 -271c-4 -15 -4 -17 -4 -23c0 -12 3 -28 17 -28c19 0 34 60 39 80c6 23 9 37 37 37c34 0 35 -24 35 -28c0 -6 -12 -61 -33 -98c-14 -25 -39 -52 -79 -52c-38 0 -63 23 -74 43c-31 -30 -65 -43 -99 -43c-57 0 -109 36 -109 119c0 46 16 100 54 206
c6 17 10 27 10 39s-4 18 -11 18c-21 0 -45 -28 -62 -88c-4 -16 -8 -29 -36 -29c-30 0 -34 20 -34 28c0 21 41 150 134 150c40 0 77 -28 77 -83c0 -13 0 -21 -12 -55c-43 -117 -51 -157 -51 -187s8 -57 42 -57c75 0 111 145 117 168l43 173c2 7 9 35 37 35c13 0 33 -8 33 -33
c0 -4 0 -6 -4 -21z" />
    <glyph glyph-name="v" unicode="v" 
d="M536 360c0 -45 -47 -366 -215 -366c-76 0 -138 43 -138 130c0 47 18 99 55 198c7 19 8 21 8 30c0 17 -7 24 -21 24c-16 0 -53 -15 -76 -92c-5 -18 -13 -25 -35 -25c-30 0 -34 20 -34 28c0 30 52 150 147 150c51 0 88 -37 88 -86c0 -19 -5 -32 -11 -48
c-38 -100 -52 -145 -52 -179c0 -36 15 -69 70 -69c105 0 145 284 145 302c0 6 -1 20 -4 28c-4 10 -4 14 -4 16c0 20 18 36 36 36c34 0 41 -40 41 -77z" />
    <glyph glyph-name="w" unicode="w" 
d="M306 199l50 202c2 9 7 30 30 30c16 0 28 -14 28 -28c0 -3 -9 -37 -13 -55l-17 -67c-11 -42 -11 -44 -22 -90c-6 -21 -13 -50 -13 -72c0 -26 7 -64 57 -64c37 0 60 41 81 106c5 16 40 132 40 179c0 5 0 26 -9 44c-2 4 -4 10 -4 17c0 20 18 36 36 36c39 0 39 -52 39 -68
c0 -69 -48 -228 -61 -262c-23 -57 -58 -113 -123 -113c-23 0 -72 7 -99 56c-26 -40 -56 -56 -92 -56c-42 0 -118 22 -118 124c0 43 12 77 20 96c6 19 14 41 23 65c10 29 14 40 14 60c0 29 -10 30 -18 31c-27 3 -28 25 -28 28c0 1 1 33 32 33c8 0 71 -2 71 -87
c0 -32 -6 -49 -17 -79c-9 -27 -19 -53 -26 -73c-7 -18 -14 -39 -14 -70c0 -17 0 -67 62 -67c55 0 86 124 91 144z" />
    <glyph glyph-name="x" unicode="x" 
d="M258 122l43 175c2 6 3 16 3 22c0 32 -18 57 -51 57s-83 -28 -104 -91c-4 -14 -8 -26 -35 -26c-30 0 -34 20 -34 28c0 41 68 150 174 150c33 0 66 -10 93 -43c25 23 63 43 103 43c55 0 101 -37 101 -97c0 -63 -40 -66 -51 -66c-22 0 -41 16 -41 40c0 16 8 32 21 41
c-4 15 -17 21 -31 21c-16 0 -37 -9 -53 -25c-14 -16 -17 -28 -25 -58l-27 -108c-6 -24 -15 -60 -15 -73c0 -34 19 -57 51 -57c36 0 84 32 103 90c5 14 9 27 35 27c34 0 35 -24 35 -28c0 -38 -66 -150 -175 -150c-26 0 -61 6 -94 43c-32 -33 -75 -43 -101 -43
c-68 0 -102 51 -102 97c0 49 28 66 52 66c25 0 41 -20 41 -40c0 -4 -2 -26 -22 -40c4 -14 17 -22 32 -22c18 0 61 14 74 67z" />
    <glyph glyph-name="y" unicode="y" 
d="M535 377l-97 -390c-22 -88 -107 -215 -224 -215c-60 0 -104 39 -104 97c0 61 42 64 51 64c22 0 41 -15 41 -40c0 -1 0 -24 -21 -39c6 -15 18 -21 34 -21c69 0 138 85 159 185c-4 -2 -37 -24 -81 -24c-57 0 -120 32 -120 124c0 45 14 93 51 193c10 25 13 33 13 43
c0 11 -4 22 -17 22c-28 0 -55 -37 -70 -88c-5 -16 -8 -29 -36 -29c-30 0 -34 20 -34 28c0 25 46 150 142 150c42 0 83 -29 83 -85c0 -20 -12 -53 -22 -79c-32 -87 -41 -124 -41 -156c0 -19 2 -62 53 -62c89 0 125 143 154 263l19 73c4 15 10 40 38 40c13 0 33 -8 33 -33
c0 -4 0 -6 -4 -21z" />
    <glyph glyph-name="z" unicode="z" 
d="M240 105c12 -2 28 -4 58 -20c24 -14 38 -22 56 -22c32 0 83 28 106 101c4 12 8 26 35 26s34 -16 34 -28c0 -40 -68 -168 -178 -168c-33 0 -55 14 -78 30c-22 15 -33 21 -48 21s-44 -9 -61 -34c-8 -12 -13 -17 -33 -17c-29 0 -35 17 -35 28c0 17 41 73 91 123
c30 30 65 61 99 90c36 32 79 69 106 97c-12 5 -14 5 -35 18c-21 12 -35 18 -50 18c-27 0 -58 -25 -70 -62c-4 -13 -8 -26 -34 -26c-18 0 -35 8 -35 28c0 32 53 129 142 129c33 0 54 -15 77 -30c18 -11 31 -21 44 -21c4 0 10 0 26 25c12 21 15 26 38 26c22 0 34 -10 34 -28
c0 -20 -46 -90 -175 -201c-82 -70 -95 -83 -114 -103z" />
    <glyph glyph-name="braceleft" unicode="{" 
d="M439 564l-42 -170c-12 -48 -49 -77 -82 -92c15 -12 38 -32 38 -70c0 -12 -7 -42 -13 -62c-4 -19 -9 -38 -14 -56c-2 -11 -9 -38 -12 -48c-4 -17 -10 -44 -10 -49c0 -38 102 -39 111 -39c14 0 41 0 41 -28c0 -33 -28 -33 -44 -33c-33 0 -178 2 -178 99c0 12 7 42 13 62
c4 19 9 38 14 56c2 11 9 38 12 48c4 17 11 44 11 49c0 42 -103 44 -113 44c-12 0 -38 0 -38 28c0 32 27 33 33 33c70 1 148 11 164 75l42 170c24 98 147 113 221 113c14 0 42 0 42 -28c0 -32 -29 -33 -38 -33c-141 -2 -153 -49 -158 -69z" />
    <glyph glyph-name="bar" unicode="|" 
d="M459 638l-171 -685c-3 -13 -11 -36 -37 -36c-20 0 -35 17 -35 35c0 4 0 6 4 20l172 689c2 8 8 33 36 33c21 0 35 -18 35 -35c0 -5 0 -7 -4 -21z" />
    <glyph glyph-name="braceright" unicode="}" 
d="M432 537l-28 -112c-4 -15 -10 -39 -10 -45c0 -42 99 -44 118 -44c29 0 33 -18 33 -28c0 -22 -15 -33 -28 -33c-37 -1 -85 -4 -118 -18c-42 -20 -44 -27 -61 -97c-15 -57 -17 -68 -21 -81c-16 -66 -20 -81 -37 -100c-39 -41 -101 -62 -195 -62c-14 0 -42 0 -42 28
c0 17 12 33 28 33c40 1 137 2 162 50c3 7 14 53 21 80c5 18 24 98 27 108c8 30 24 67 82 92c-3 2 -38 26 -38 71c0 13 6 38 11 56c4 19 9 38 14 56l14 56c4 15 10 40 10 46c0 39 -98 40 -111 40c-14 0 -41 0 -41 28c0 33 29 33 43 33c27 0 179 0 179 -99
c0 -11 -7 -39 -12 -58z" />
    <glyph glyph-name="asciitilde" unicode="~" 
d="M583 579c0 -19 -28 -36 -59 -56s-59 -32 -84 -32c-35 0 -52 21 -67 41c-7 9 -11 14 -18 14c-16 0 -48 -18 -79 -42c-14 -10 -18 -13 -28 -13c-16 0 -30 15 -30 32c0 14 8 20 17 26c29 23 83 62 125 62c36 0 53 -22 68 -43c6 -8 11 -12 17 -12c23 0 69 34 83 44
c10 7 15 11 24 11c19 0 31 -19 31 -32z" />
    <glyph glyph-name="dieresis" unicode="&#xa8;" 
d="M352 567c0 -27 -26 -55 -56 -55c-29 0 -46 22 -46 45c0 27 25 55 56 55c32 0 46 -27 46 -45zM556 567c0 -27 -25 -55 -56 -55c-32 0 -46 27 -46 45c0 27 26 55 56 55c29 0 46 -22 46 -45z" />
    <glyph glyph-name="space" unicode=" " 
 />
  </font>
</defs>
</svg>
