<?xml version="1.0" standalone="no"?>
<!DOCTYPE svg PUBLIC "-//W3C//DTD SVG 1.1//EN" "http://www.w3.org/Graphics/SVG/1.1/DTD/svg11.dtd" >
<svg>
<metadata>
Created by FontForge 20060822 at Fri Oct  6 18:22:44 2006
 By Wojciech Mula,,,
Copyright (C) 1997 American Mathematical Society. All Rights Reserved
</metadata>
<defs>
<font id="CMMI6" horiz-adv-x="638" >
  <font-face 
    font-family="Computer Modern"
    font-weight="500"
    font-style="italic"
    font-stretch="normal"
    units-per-em="1000"
    panose-1="2 0 6 3 0 0 0 0 0 0"
    ascent="750"
    descent="-250"
    x-height="441"
    cap-height="683"
    bbox="11 -250 1241 750"
    underline-thickness="0"
    underline-position="0"
    slope="-14.04"
    stemh="35"
    stemv="85"
    unicode-range="U+0020-U+F739"
  />
    <missing-glyph />
    <glyph glyph-name="Gamma" unicode="&#x393;" horiz-adv-x="742" 
d="M435 605l-132 -526c-4 -15 -4 -20 -4 -21c0 -10 2 -13 32 -16c25 -2 30 -2 52 -2c26 0 39 0 39 -15c0 -25 -17 -25 -24 -25c-24 0 -52 3 -76 3c-27 0 -56 1 -83 1c-24 0 -47 -1 -71 -1c-22 0 -46 -3 -67 -3c-11 0 -17 7 -17 15c0 25 13 25 36 25c75 0 77 7 86 43l130 517
c4 16 4 22 4 32c-21 7 -46 7 -64 7c-19 0 -32 0 -32 15c0 25 14 25 33 25h531c25 0 33 0 30 -31l-18 -177c-2 -18 -3 -26 -19 -26c-5 0 -19 0 -19 17c0 8 4 27 4 63c0 82 -23 114 -155 114h-145c-42 0 -43 -2 -51 -34z" />
    <glyph glyph-name="Delta" unicode="&#x394;" horiz-adv-x="1027" 
d="M723 689l219 -662c1 -3 3 -10 3 -14c0 -13 -11 -13 -29 -13h-805c-23 0 -24 1 -24 8c0 3 0 5 10 16l556 670c11 13 17 20 39 20c23 0 25 -7 31 -25zM635 617l-443 -533h619z" />
    <glyph glyph-name="Theta" unicode="&#x398;" horiz-adv-x="934" 
d="M880 422c0 -230 -241 -443 -488 -443c-189 0 -309 122 -309 279c0 220 236 446 489 446c185 0 308 -119 308 -282zM401 14c102 0 197 54 256 117c121 130 125 286 125 314c0 151 -100 226 -218 226c-215 0 -382 -225 -382 -435c0 -153 104 -222 219 -222zM251 296l25 100
c4 15 6 23 20 23c12 0 19 -8 19 -16c0 -5 -3 -14 -4 -18h365c0 1 2 34 23 34c12 0 19 -8 19 -16c0 -4 -22 -88 -25 -99c-8 -33 -9 -38 -24 -38c-14 0 -18 10 -18 16c0 2 0 4 3 18h-365c0 -1 -1 -34 -23 -34c-16 0 -18 13 -18 15c0 1 0 4 3 15z" />
    <glyph glyph-name="Lambda" unicode="&#x39b;" horiz-adv-x="859" 
d="M212 122l362 572c8 12 13 20 33 20c16 0 23 -2 26 -27l81 -614c4 -28 4 -33 56 -33c13 0 27 0 27 -15c0 -20 -11 -25 -22 -25c-17 0 -37 3 -54 3c-35 0 -30 1 -59 1c-22 0 -43 -1 -65 -1s-46 -3 -67 -3c-16 0 -17 12 -17 15c0 25 14 25 30 25c14 0 68 3 68 26
c0 1 0 3 -2 14l-66 498l-298 -471c-5 -7 -15 -25 -15 -37c0 -21 21 -28 44 -30c7 0 20 -1 20 -15c0 -17 -8 -25 -21 -25c-24 0 -82 4 -106 4c-26 0 -56 -4 -81 -4c-9 0 -15 7 -15 15c0 23 13 24 26 25c42 4 75 19 115 82z" />
    <glyph glyph-name="Xi" unicode="&#x39e;" horiz-adv-x="907" 
d="M903 645l-20 -110c-3 -18 -9 -23 -21 -23s-18 6 -18 16c0 2 0 4 1 10c6 31 6 37 6 57c-19 2 -55 3 -75 3h-413c-15 0 -69 -1 -80 -5c-10 -2 -26 -51 -29 -59c-4 -16 -6 -22 -21 -22c-10 0 -18 5 -18 15c0 5 4 16 5 19l35 108c7 21 8 22 34 22h585c19 0 31 0 31 -16
c0 -4 0 -6 -2 -15zM224 78h415c15 0 74 0 86 5c6 3 19 34 28 62c8 26 9 30 23 30c4 0 19 0 19 -15c0 -3 -14 -47 -22 -71c-4 -15 -20 -67 -23 -76c-5 -13 -10 -13 -32 -13h-597c-19 0 -31 0 -31 16c0 11 21 118 25 138c3 14 5 21 21 21c9 0 18 -4 18 -16c0 -3 -3 -18 -4 -22
c-5 -27 -5 -38 -5 -55c32 -4 34 -4 79 -4zM325 391h377c4 14 4 17 8 32c4 13 6 21 21 21c9 0 18 -4 18 -15c0 -3 -11 -46 -17 -69c-14 -56 -5 -24 -19 -80c-4 -13 -6 -20 -21 -20c-10 0 -18 4 -18 16c0 5 6 28 9 37h-377c-4 -14 -4 -17 -8 -32c-4 -13 -6 -21 -21 -21
c-10 0 -18 4 -18 16c0 5 32 131 36 148c4 12 6 20 21 20c10 0 18 -4 18 -16c0 -5 -6 -28 -9 -37z" />
    <glyph glyph-name="Pi" unicode="&#x3a0;" horiz-adv-x="999" 
d="M885 594l-130 -521c-3 -10 -4 -14 -4 -18c0 -11 7 -11 25 -13c11 -1 26 -2 38 -2c23 0 32 0 35 -14c0 -4 -4 -16 -6 -19c-4 -7 -11 -7 -17 -7c-22 0 -47 3 -69 3c-23 0 -46 1 -69 1c-22 0 -44 -1 -67 -1c-22 0 -46 -3 -67 -3c-16 0 -17 10 -18 14c0 6 4 19 9 23
c4 3 6 3 28 3c75 0 77 7 86 43l139 556h-354l-141 -566c-3 -10 -4 -14 -4 -18c0 -11 7 -11 25 -13c11 -1 26 -2 38 -2c23 0 32 0 35 -14c0 -4 -4 -16 -6 -19c-4 -7 -11 -7 -17 -7c-22 0 -47 3 -69 3c-23 0 -46 1 -69 1c-22 0 -44 -1 -67 -1c-22 0 -46 -3 -67 -3
c-16 0 -17 10 -18 14c0 6 4 19 9 23c4 3 6 3 28 3c75 0 77 7 86 43l130 517c4 16 4 22 4 32c-21 7 -46 7 -64 7s-33 0 -33 15c0 25 15 25 34 25h699c19 0 31 0 31 -16c0 -24 -13 -24 -38 -24c-74 0 -76 -8 -85 -45z" />
    <glyph glyph-name="Sigma" unicode="&#x3a3;" horiz-adv-x="951" 
d="M539 323l-343 -272h305c41 0 142 4 189 22c63 26 106 93 128 145c12 26 13 27 25 27c18 0 18 -14 18 -15s-5 -14 -5 -15l-76 -194c-8 -20 -9 -21 -35 -21h-617c-18 0 -31 0 -31 15c0 7 2 9 14 18l344 273l-198 350c0 6 4 19 9 23c4 3 5 4 26 4h617c25 0 33 0 30 -31
l-18 -177c-2 -18 -3 -26 -19 -26c-5 0 -19 0 -19 17c0 3 2 18 2 35c0 58 -15 108 -65 125c-39 14 -119 17 -158 17h-277l162 -287c6 -10 6 -12 6 -14c0 -8 -2 -10 -14 -19z" />
    <glyph glyph-name="Upsilon" unicode="&#x3a5;" horiz-adv-x="736" 
d="M425 451c80 174 192 253 295 253c82 0 122 -59 122 -119c0 -44 -12 -54 -29 -54c-6 0 -17 1 -17 13c0 1 3 14 3 17c0 38 -42 61 -97 61c-122 0 -218 -130 -256 -284c-8 -31 -64 -257 -67 -266c-1 -8 -2 -10 -2 -14c0 -11 3 -14 34 -16c24 -2 49 -2 52 -2
c25 0 37 0 37 -15c0 -25 -17 -25 -24 -25c-26 0 -54 3 -80 3c-28 0 -55 1 -83 1c-27 0 -53 -1 -80 -1c-26 0 -54 -3 -80 -3c-10 0 -18 5 -18 15c0 25 13 25 35 25c68 0 96 1 108 23c2 5 8 25 11 38c1 7 36 146 41 167c30 118 34 134 34 182c0 26 -3 75 -25 114
c-33 58 -89 58 -106 58c-39 0 -68 -11 -86 -20c-33 -19 -41 -39 -47 -56c-4 -13 -16 -15 -23 -15c-4 0 -17 0 -17 12c0 34 71 161 196 161c118 0 170 -101 170 -225c0 -9 -1 -19 -1 -28z" />
    <glyph glyph-name="Phi" unicode="&#x3a6;" horiz-adv-x="833" 
d="M524 591l-13 -52c144 -7 264 -77 264 -169c0 -120 -185 -217 -363 -226c-3 -15 -9 -39 -10 -44c-9 -33 -10 -37 -10 -42c0 -11 3 -14 34 -16c24 -2 49 -2 52 -2c25 0 37 0 37 -15c0 -25 -17 -25 -24 -25c-24 0 -51 3 -76 3l-83 1c-28 0 -55 -1 -83 -1
c-24 0 -50 -3 -74 -3c-10 0 -18 5 -18 15c0 25 13 25 38 25c90 0 99 8 107 27c2 5 13 51 19 76c-170 14 -264 89 -264 170c0 116 174 214 364 227c19 82 20 83 20 85c0 13 -9 14 -35 16c-23 2 -47 2 -52 2c-25 0 -36 0 -36 15c0 25 16 25 24 25c24 0 51 -3 76 -3
c28 0 55 -1 83 -1s55 1 83 1c24 0 50 3 74 3c15 0 18 -11 18 -15c0 -25 -13 -25 -38 -25c-43 0 -68 -3 -80 -5c-23 -4 -26 -17 -34 -47zM503 506l-82 -329c183 10 250 119 250 203c0 28 -4 65 -50 94c-31 19 -68 29 -118 32zM333 192l79 314c-191 -10 -252 -127 -252 -204
c0 -66 44 -99 106 -115c32 -9 57 -10 58 -10c4 0 5 1 7 4z" />
    <glyph glyph-name="Psi" unicode="&#x3a8;" horiz-adv-x="781" 
d="M508 601l-105 -421c117 18 192 109 222 219c19 67 51 151 144 151h33c17 0 32 0 32 -15s-10 -17 -21 -18c-66 -10 -91 -97 -92 -100c-15 -53 -37 -131 -119 -197c-48 -39 -119 -70 -209 -76c-3 -15 -9 -39 -10 -44c-9 -33 -10 -37 -10 -42c0 -11 3 -14 34 -16
c24 -2 49 -2 52 -2c25 0 37 0 37 -15c0 -25 -17 -25 -24 -25c-24 0 -51 3 -76 3l-83 1c-28 0 -55 -1 -83 -1c-24 0 -50 -3 -74 -3c-10 0 -18 5 -18 15c0 25 13 25 38 25c92 0 100 8 108 29l18 75c-94 9 -201 54 -201 194c0 29 4 51 10 76c5 21 5 32 5 40c0 59 -29 62 -42 63
c-5 0 -17 2 -17 15c0 18 13 18 32 18h34c19 0 84 0 84 -93c0 -22 -5 -44 -8 -54c-10 -42 -10 -67 -10 -80c0 -28 0 -128 122 -145l107 428c1 6 4 15 4 19c0 13 -9 14 -35 16c-23 2 -47 2 -52 2c-25 0 -36 0 -36 15c0 25 16 25 24 25c24 0 51 -3 76 -3c28 0 55 -1 83 -1
s55 1 83 1c24 0 50 3 74 3c15 0 18 -11 18 -15c0 -25 -13 -25 -37 -25c-102 0 -104 -8 -112 -42z" />
    <glyph glyph-name="Omega" unicode="&#x3a9;" horiz-adv-x="946" 
d="M822 88l-37 -73c-9 -14 -10 -15 -34 -15h-157c-18 0 -31 0 -31 15c0 8 12 54 47 114c20 33 41 63 86 126c50 67 120 163 120 255c0 109 -92 161 -196 161c-144 0 -313 -101 -313 -291c0 -44 8 -85 21 -142c12 -49 23 -98 23 -148c0 -25 0 -33 -6 -62
c-6 -28 -7 -28 -35 -28h-157c-19 0 -25 0 -29 8c-1 2 -2 24 -3 36v6c-1 23 -2 64 -2 88c0 22 0 32 18 32c19 0 19 -13 19 -25c0 -10 2 -61 7 -66c6 -6 48 -6 57 -6h95c-3 48 -16 83 -58 160c-22 40 -57 104 -57 171c0 173 212 300 420 300c194 0 303 -101 303 -210
c0 -105 -99 -204 -191 -288c-23 -22 -84 -82 -111 -133h85c25 0 60 0 70 12c10 11 31 51 34 56c14 28 15 29 27 29c18 0 19 -13 19 -15c0 -4 -22 -45 -34 -67z" />
    <glyph glyph-name="alpha" unicode="&#x3b1;" horiz-adv-x="804" 
d="M587 141c7 -118 26 -118 41 -118c18 0 47 12 56 37c5 13 9 14 20 14c4 0 18 0 18 -14c0 -23 -38 -70 -97 -70c-61 0 -96 43 -111 86c-101 -72 -190 -86 -243 -86c-117 0 -195 75 -195 178c0 139 146 273 299 273c97 0 192 -58 205 -183c2 -23 2 -45 4 -68
c26 31 72 97 95 179c5 19 6 24 21 24c3 0 18 0 18 -14c0 -2 -23 -124 -131 -238zM506 112c-6 59 -5 122 -13 165c-14 78 -50 131 -120 131c-43 0 -107 -22 -152 -87c-42 -59 -58 -151 -58 -186c0 -72 45 -112 110 -112c46 0 135 12 233 89z" />
    <glyph glyph-name="beta" unicode="&#x3b2;" horiz-adv-x="698" 
d="M58 -164l148 594c40 159 185 274 319 274c92 0 159 -57 159 -139c0 -74 -57 -136 -107 -167c48 -34 75 -84 75 -143c0 -135 -143 -267 -299 -267c-81 0 -159 35 -193 106l-66 -264c-5 -19 -6 -24 -21 -24c-4 0 -19 0 -19 14c0 1 3 14 4 16zM476 396c-10 2 -12 2 -30 2
c-4 0 -42 0 -42 -3c0 -2 30 -2 33 -2c10 0 25 0 39 3zM529 420c72 51 78 155 78 169c0 59 -36 82 -85 82c-43 0 -107 -14 -177 -77c-77 -69 -96 -145 -108 -193c-14 -52 -27 -105 -40 -158c-6 -26 -14 -56 -14 -78c0 -94 81 -144 169 -144c152 0 212 169 212 265
c0 17 0 59 -35 88c-41 -14 -76 -14 -92 -14c-30 0 -86 0 -86 32c0 39 64 39 97 39c22 0 47 0 81 -11z" />
    <glyph glyph-name="gamma" unicode="&#x3b3;" horiz-adv-x="652" 
d="M484 141c53 143 132 281 135 285c4 5 11 5 15 5c9 0 18 -3 18 -14c0 -3 0 -5 -15 -30c-83 -153 -152 -332 -156 -370c-10 -88 -36 -173 -37 -176c-8 -26 -17 -56 -36 -56c-16 0 -19 19 -19 25c0 27 26 129 52 213c6 18 7 42 7 66c0 126 -35 269 -195 269
c-71 0 -147 -30 -169 -92c-5 -13 -6 -17 -20 -17c-4 0 -18 0 -18 14c0 41 82 178 221 178c153 0 205 -199 217 -300z" />
    <glyph glyph-name="delta" unicode="&#x3b4;" horiz-adv-x="566" 
d="M315 435c-30 46 -73 118 -73 176c0 13 3 104 120 104c21 0 41 -1 103 -14c52 -10 66 -13 66 -38c0 -22 -20 -44 -43 -44c-17 0 -44 15 -59 23c-25 14 -58 32 -95 32c-38 0 -54 -25 -54 -42c0 -49 101 -153 117 -168c30 -32 90 -92 90 -195c0 -152 -105 -281 -219 -281
c-118 0 -194 80 -194 178c0 97 80 228 241 269zM336 403c-133 -26 -184 -177 -184 -261c0 -94 66 -121 115 -121c87 0 137 124 137 207c0 45 -11 92 -68 175z" />
    <glyph glyph-name="epsilon1" horiz-adv-x="523" 
d="M377 222h-201c-7 -35 -7 -55 -7 -63c0 -115 87 -136 133 -136c47 0 90 20 120 38c11 7 13 7 16 7c10 0 16 -12 16 -22c0 -17 -81 -56 -154 -56c-121 0 -219 78 -219 199c0 156 161 242 292 242h48c19 0 34 0 34 -19c0 -21 -21 -21 -37 -21h-43c-80 0 -154 -34 -188 -129
h190c18 0 36 0 36 -19c0 -21 -21 -21 -36 -21z" />
    <glyph glyph-name="zeta" unicode="&#x3b6;" horiz-adv-x="571" 
d="M385 562c-113 -58 -237 -212 -237 -356c0 -61 25 -91 36 -103c27 -32 63 -42 134 -62c30 -8 80 -23 90 -26c42 -16 69 -52 69 -96c0 -49 -41 -123 -114 -123c-11 0 -39 1 -72 15c-12 4 -46 18 -46 33c0 10 10 17 17 17c5 0 10 -3 13 -6c38 -23 74 -26 89 -26
c34 0 47 36 47 55c0 43 -34 53 -77 65c-36 10 -38 10 -56 16c-56 16 -105 30 -139 63c-28 29 -59 66 -59 148c0 183 156 350 283 414c-8 17 -11 35 -11 53c0 10 0 55 25 55c6 0 17 -5 17 -17c0 -7 -5 -21 -5 -39c0 -21 2 -26 7 -38c29 10 49 10 69 10c44 0 94 -2 94 -33
c0 -38 -71 -38 -104 -38c-23 0 -48 0 -70 19zM499 578v1c-5 1 -14 2 -36 2s-23 0 -36 -3c10 -2 12 -2 29 -2c22 0 29 1 43 2z" />
    <glyph glyph-name="eta" unicode="&#x3b7;" horiz-adv-x="643" 
d="M601 272l-110 -438c-3 -13 -12 -49 -49 -49c-27 0 -36 21 -36 33c0 4 1 6 3 14l114 456c1 4 6 27 6 50c0 18 0 70 -63 70c-29 0 -71 -9 -113 -45c-38 -35 -76 -92 -85 -128c-6 -23 -10 -41 -17 -67l-22 -90c-5 -20 -14 -55 -16 -61c-8 -15 -25 -27 -43 -27s-35 11 -35 33
c0 6 12 56 19 84c7 25 13 51 20 76c5 22 15 63 22 90c7 28 17 68 17 84c0 10 0 51 -36 51c-31 0 -55 -29 -76 -112c-5 -16 -6 -23 -22 -23c-9 0 -18 4 -18 15c0 4 12 56 36 98c13 22 37 55 83 55c47 0 108 -25 114 -94c26 34 86 94 176 94c81 0 138 -37 138 -116
c0 -25 -2 -35 -7 -53z" />
    <glyph glyph-name="theta" unicode="&#x3b8;" horiz-adv-x="590" 
d="M545 480c0 -225 -163 -490 -320 -490c-93 0 -149 94 -149 224c0 229 164 490 320 490c100 0 149 -108 149 -224zM192 367h246c27 102 27 160 27 169c0 15 0 135 -70 135c-47 0 -138 -56 -203 -304zM428 327h-246c-22 -91 -26 -135 -26 -169s4 -135 70 -135
c55 0 146 78 202 304z" />
    <glyph glyph-name="iota" unicode="&#x3b9;" horiz-adv-x="466" 
d="M405 144c0 -6 -12 -59 -70 -104c-46 -36 -103 -50 -143 -50c-66 0 -104 42 -104 87c0 31 26 76 34 108c10 35 4 9 15 44c6 21 20 73 27 93c6 19 15 69 22 88c11 25 34 31 45 31c16 0 35 -10 35 -34c0 -9 -41 -174 -85 -288c-10 -26 -16 -41 -16 -60c0 -36 20 -36 30 -36
c47 0 142 29 172 119c3 9 5 16 19 16c18 0 19 -12 19 -14z" />
    <glyph glyph-name="kappa" unicode="&#x3ba;" horiz-adv-x="725" 
d="M223 225l-48 -192c-6 -23 -21 -43 -48 -43c-18 0 -35 11 -35 33c0 3 0 8 4 24l87 346c3 14 12 48 49 48c16 0 35 -10 35 -34c0 -6 -10 -46 -16 -69l-18 -73c46 14 91 45 143 81c51 36 122 85 190 85c36 0 44 -24 44 -39c0 -26 -24 -56 -57 -56c-17 0 -40 9 -40 39
c0 5 0 10 2 14c-38 -13 -75 -36 -130 -74c-15 -11 -56 -40 -89 -58c129 -5 211 -35 211 -110c0 -12 -5 -32 -5 -33c-5 -20 -5 -21 -5 -37c0 -13 1 -54 38 -54c51 0 79 74 89 112c5 17 7 23 21 23c18 0 19 -12 19 -14c0 -8 -35 -154 -132 -154c-57 0 -113 37 -113 104
c0 8 0 14 3 29c1 1 4 15 4 24c0 43 -40 69 -143 76c-20 1 -40 1 -60 2z" />
    <glyph glyph-name="lambda" unicode="&#x3bb;" horiz-adv-x="736" 
d="M433 286l-271 -278c-8 -8 -19 -20 -36 -20c-16 0 -36 11 -36 36c0 18 9 26 23 38l303 262l-120 264c-31 65 -49 70 -81 73c-6 1 -14 6 -14 16c0 17 17 17 31 17c110 0 129 -40 140 -65l263 -576c6 -13 13 -27 24 -36c4 -3 7 -7 7 -13c0 -14 -12 -14 -30 -14h-20
c-18 0 -26 0 -44 13c-1 0 -13 9 -20 23z" />
    <glyph glyph-name="mu" unicode="&#x3bc;" horiz-adv-x="750" 
d="M467 141l52 208c5 19 12 50 16 57c7 14 24 25 41 25c27 0 36 -21 36 -33c0 -5 -5 -25 -8 -37l-39 -153c-9 -37 -9 -39 -19 -77c-8 -33 -11 -44 -11 -57c0 -15 3 -51 37 -51c39 0 60 51 76 112c4 16 6 23 21 23c18 0 19 -12 19 -14c0 -5 -14 -63 -39 -103
c-19 -31 -45 -51 -81 -51c-22 0 -90 8 -109 73c-28 -28 -74 -73 -150 -73c-11 0 -72 0 -113 30c-28 -106 -42 -168 -47 -184c-5 -21 -14 -51 -49 -51c-27 0 -36 21 -36 33c0 3 1 6 3 14l140 561c3 13 12 48 49 48c16 0 35 -10 35 -34c0 -5 -10 -44 -15 -67
c-9 -33 -11 -41 -20 -78s-11 -45 -20 -78c-8 -33 -11 -46 -11 -72c0 -20 0 -89 88 -89c62 0 109 47 131 74c18 23 18 25 23 44z" />
    <glyph glyph-name="nu" unicode="&#x3bd;" horiz-adv-x="621" 
d="M272 427l-95 -382l15 4l8 3c112 38 281 142 340 350c9 33 35 39 47 39c16 0 35 -10 35 -34c0 -7 -22 -132 -154 -247c-88 -77 -209 -139 -343 -160h-17c-5 0 -20 0 -20 16c0 3 5 22 8 32l40 164l24 95c6 23 16 62 16 68c0 9 -2 11 -19 13c-1 0 -13 2 -30 2
c-16 0 -29 0 -29 15c0 23 12 25 30 26c26 2 28 2 57 5c8 0 67 5 69 5c16 0 17 -10 18 -14z" />
    <glyph glyph-name="xi" unicode="&#x3be;" horiz-adv-x="571" 
d="M244 289c-90 -43 -125 -119 -125 -157c0 -21 7 -45 53 -69c18 -9 64 -24 147 -50l83 -27c29 -10 71 -24 71 -80c0 -43 -38 -110 -111 -110c-6 0 -37 0 -78 14c-15 5 -55 18 -55 34c0 11 11 16 17 16c3 0 5 0 20 -8c47 -23 92 -23 97 -23c32 0 42 29 42 43
c0 12 -3 21 -16 28c-7 3 -78 26 -93 31c-51 16 -54 17 -114 38c-60 20 -127 59 -127 135c0 53 46 150 147 203c-35 19 -69 56 -69 107c0 31 15 144 193 189c-5 15 -6 20 -6 40c0 10 0 55 25 55c6 0 17 -5 17 -17c0 -7 -5 -21 -5 -39c0 -17 4 -30 5 -32c30 4 37 4 66 4
c42 0 98 0 98 -33c0 -38 -71 -38 -104 -38c-24 0 -51 0 -75 24c-68 -27 -121 -90 -121 -156c0 -27 9 -56 37 -78c43 14 76 14 100 14c46 0 96 -2 96 -33c0 -38 -70 -38 -109 -38c-20 0 -60 0 -106 13zM466 578v1c-7 1 -13 2 -37 2c-19 0 -25 0 -38 -2c11 -3 13 -3 33 -3
c23 0 30 1 42 2zM317 311c13 -2 19 -2 38 -2c4 0 47 0 47 3c0 2 -36 2 -40 2c-23 0 -28 0 -45 -3z" />
    <glyph glyph-name="pi" unicode="&#x3c0;" horiz-adv-x="726" 
d="M340 360l-48 -184c-14 -54 -14 -56 -34 -119c-11 -32 -23 -67 -58 -67c-20 0 -36 13 -36 34c0 10 13 35 22 51c13 26 81 161 115 285h-65c-82 0 -121 -45 -138 -69c-7 -9 -9 -11 -20 -11c-4 0 -18 0 -18 14c0 10 36 58 67 87c54 50 99 50 119 50h398c17 0 45 0 45 -30
c0 -41 -43 -41 -55 -41h-132c-13 -61 -13 -105 -13 -121c0 -51 6 -115 43 -181c2 -5 7 -13 7 -22c0 -22 -23 -46 -49 -46c-47 0 -61 101 -61 152c0 65 13 130 34 218h-123z" />
    <glyph glyph-name="rho" unicode="&#x3c1;" horiz-adv-x="639" 
d="M66 -168l96 385c33 133 155 224 263 224c103 0 171 -75 171 -172c0 -142 -138 -279 -275 -279c-66 0 -103 39 -118 63l-54 -217c-5 -17 -14 -51 -50 -51c-27 0 -36 21 -36 33c0 3 1 6 3 14zM320 23c46 0 100 31 136 89c34 55 54 154 54 194c0 67 -37 102 -87 102
c-43 0 -91 -28 -123 -68c-38 -48 -47 -86 -70 -176c-4 -18 -13 -52 -13 -54c0 -11 23 -87 103 -87z" />
    <glyph glyph-name="sigma" unicode="&#x3c3;" horiz-adv-x="716" 
d="M623 360h-119c17 -25 31 -61 31 -106c0 -146 -143 -264 -281 -264c-100 0 -181 64 -181 167c0 122 126 274 289 274h271c17 0 45 0 45 -30c0 -41 -43 -41 -55 -41zM256 23c45 0 97 23 135 65c52 59 65 146 65 175c0 77 -52 97 -110 97c-162 0 -196 -163 -196 -228
c0 -95 72 -109 106 -109z" />
    <glyph glyph-name="tau" unicode="&#x3c4;" horiz-adv-x="582" 
d="M373 360l-61 -321c-3 -15 -10 -51 -49 -51c-14 0 -35 10 -35 34c0 6 13 48 21 72l82 266h-95c-81 0 -121 -44 -138 -69c-7 -9 -9 -11 -20 -11c-4 0 -18 0 -18 14c0 10 36 58 67 87c54 50 99 50 119 50h333c17 0 45 0 45 -30c0 -41 -43 -41 -55 -41h-196z" />
    <glyph glyph-name="upsilon" unicode="&#x3c5;" horiz-adv-x="689" 
d="M638 359c0 -27 -11 -160 -94 -264c-37 -47 -99 -105 -186 -105c-92 0 -192 32 -192 142c0 17 0 46 45 158c11 27 24 60 24 82c0 23 -7 36 -27 36c-28 0 -81 -24 -109 -120c-3 -9 -6 -15 -20 -15s-18 9 -18 14c0 21 49 154 151 154c49 0 100 -31 100 -87
c0 -19 -11 -47 -20 -70c-32 -80 -47 -126 -47 -162c0 -12 1 -51 31 -74c27 -22 64 -25 86 -25c129 0 223 182 223 253c0 31 -12 57 -37 77c-7 5 -20 15 -20 33c0 27 28 56 56 56c13 0 54 -11 54 -83z" />
    <glyph glyph-name="phi" unicode="&#x3c6;" horiz-adv-x="742" 
d="M518 665l-55 -222c157 -11 228 -103 228 -189c0 -129 -156 -260 -342 -266c-6 -26 -42 -167 -43 -171c-3 -14 -5 -21 -20 -21c-4 0 -19 0 -19 14c0 3 7 29 10 44l34 134c-161 12 -228 105 -228 189c0 129 154 259 342 266l57 228c5 18 6 23 21 23c3 0 18 0 18 -14
c0 -1 0 -3 -3 -15zM319 21l97 389c-160 -14 -255 -135 -255 -248c0 -90 67 -135 158 -141zM454 410l-97 -389c165 14 256 140 256 248c0 90 -67 136 -159 141z" />
    <glyph glyph-name="chi" unicode="&#x3c7;" horiz-adv-x="767" 
d="M689 393l-265 -260c57 -137 57 -139 78 -180c12 -23 63 -124 99 -124c18 0 46 12 57 39c3 9 5 15 19 15c17 0 18 -11 18 -14c0 -19 -31 -73 -102 -73c-103 0 -131 49 -147 77c-27 48 -36 69 -89 194l-188 -183c-15 -15 -52 -53 -68 -68c-9 -7 -11 -10 -18 -10
c-9 0 -18 7 -18 18c0 2 0 5 4 10c3 5 14 15 18 19l171 168c15 14 50 50 65 63c11 9 12 11 20 20c-17 43 -116 304 -177 304c-4 0 -42 -2 -57 -42c-2 -5 -5 -12 -18 -12c-9 0 -19 4 -19 14c0 18 31 73 102 73c102 0 131 -49 144 -71c33 -57 49 -97 92 -200
c34 31 91 88 136 133c16 15 55 53 70 69l51 50c7 6 11 9 17 9c10 0 18 -7 18 -18c0 -7 -2 -10 -13 -20z" />
    <glyph glyph-name="psi" unicode="&#x3c8;" horiz-adv-x="819" 
d="M581 665l-161 -642c173 0 295 165 295 253c0 40 -21 64 -38 77c-6 5 -19 15 -19 34c0 26 28 55 56 55c11 0 54 -10 54 -83c0 -51 -24 -137 -35 -161c-9 -18 -30 -60 -74 -104c-95 -92 -185 -104 -247 -104l-44 -174c-3 -13 -5 -20 -20 -20c-7 0 -18 2 -18 14l44 182
c-125 7 -207 59 -207 149c0 24 9 63 44 149c11 27 24 60 24 82c0 23 -7 36 -27 36c-30 0 -81 -26 -109 -120c-3 -9 -6 -15 -20 -15s-18 9 -18 14c0 21 49 154 151 154c49 0 100 -31 100 -87c0 -18 -11 -46 -20 -68c-44 -111 -44 -133 -44 -150c0 -15 0 -53 39 -81
c21 -14 52 -26 96 -30l162 647c4 17 5 22 20 22c3 0 19 0 19 -14c0 -5 -2 -11 -3 -15z" />
    <glyph glyph-name="omega" unicode="&#x3c9;" horiz-adv-x="779" 
d="M383 138c19 -65 71 -65 85 -65c114 0 208 120 208 201c0 32 -14 60 -38 79c-7 6 -19 15 -19 34c0 26 28 55 56 55c16 0 54 -15 54 -83c0 -14 -8 -132 -68 -231c-34 -56 -109 -138 -208 -138c-49 0 -91 24 -111 88c-29 -37 -86 -88 -160 -88c-91 0 -133 76 -133 167
c0 60 17 140 81 232c19 27 29 42 41 42c9 0 18 -7 18 -18c0 -6 -3 -9 -12 -21c-66 -84 -86 -155 -86 -201c0 -57 27 -118 105 -118c76 0 130 63 139 73c0 12 3 150 59 150c24 0 31 -22 31 -36c0 -5 -3 -44 -42 -122z" />
    <glyph glyph-name="epsilon" unicode="&#x3b5;" horiz-adv-x="586" 
d="M186 221c-47 -21 -88 -66 -88 -104c0 -32 28 -53 56 -65c39 -15 86 -15 117 -15c90 0 139 9 168 52c4 8 8 13 16 13s16 -6 16 -16c0 -11 -46 -107 -215 -107c-124 0 -195 62 -195 132c0 51 35 96 88 128c-1 0 -40 28 -40 69c0 80 125 144 253 144c15 0 50 0 95 -17
c44 -17 57 -29 57 -45c0 -15 -14 -32 -32 -32c-9 0 -10 1 -21 8c-48 28 -91 28 -110 28c-102 0 -205 -33 -205 -85c0 -20 14 -38 42 -51c48 19 83 19 109 19c33 0 84 0 84 -32c0 -39 -65 -39 -96 -39c-17 0 -58 0 -99 15zM332 242c-13 2 -15 2 -36 2c-4 0 -42 0 -42 -3
c0 -2 29 -2 32 -2c23 0 34 1 46 3z" />
    <glyph glyph-name="theta1" unicode="&#x3d1;" horiz-adv-x="750" 
d="M617 329c-46 -172 -164 -339 -292 -339c-85 0 -162 26 -162 124c0 29 14 85 25 126c3 15 10 43 15 62c5 18 10 40 10 55c0 10 0 51 -36 51c-31 0 -55 -29 -76 -112c-5 -16 -6 -23 -22 -23c-9 0 -18 4 -18 15c0 4 12 56 36 98c13 22 37 55 83 55c60 0 113 -38 113 -96
c0 -12 -13 -62 -21 -93c-7 -31 -11 -45 -19 -80c-4 -16 -12 -46 -12 -70c0 -41 17 -79 88 -79c41 0 79 30 123 102c41 69 63 143 82 222c-93 23 -200 69 -200 174c0 99 85 183 168 183c102 0 139 -117 139 -217c0 -3 0 -57 -15 -126c14 -2 21 -4 35 -6c17 -3 26 -4 26 -16
c0 -4 -2 -19 -16 -19c-7 0 -53 9 -54 9zM542 379c9 39 24 100 24 160c0 63 -12 132 -66 132c-63 0 -129 -70 -129 -149c0 -62 45 -110 171 -143z" />
    <glyph glyph-name="pi1" unicode="&#x3d6;" horiz-adv-x="1021" 
d="M246 431h689c17 0 45 0 45 -30c0 -41 -43 -41 -53 -41h-28c12 -34 12 -60 12 -71c0 -114 -112 -299 -258 -299c-81 0 -126 57 -128 163c-57 -87 -138 -163 -241 -163c-91 0 -111 83 -111 137c0 114 69 199 98 233c-62 0 -76 0 -109 -15c-25 -11 -48 -31 -64 -53
c-8 -11 -9 -12 -20 -12c-4 0 -18 0 -18 14c0 10 36 58 67 87c54 50 99 50 119 50zM860 360h-543c-63 -67 -103 -143 -103 -206c0 -41 18 -93 80 -93c93 0 207 82 247 223c3 10 6 15 20 15c6 0 18 -2 18 -15c0 -2 0 -3 -2 -9c-9 -38 -10 -71 -10 -82c0 -56 16 -132 96 -132
c109 0 211 120 211 228c0 11 0 37 -14 71z" />
    <glyph glyph-name="rho1" horiz-adv-x="639" 
d="M169 86c-17 -78 -17 -110 -17 -121c0 -56 17 -69 143 -69c24 0 86 0 120 -4c30 -3 62 -8 62 -54c0 -29 -8 -32 -20 -32c-6 0 -17 0 -19 14c-1 6 -2 7 -19 9c-9 1 -11 1 -26 1c-26 0 -76 -5 -118 -5c-121 0 -165 29 -165 112c0 27 4 65 17 129c14 72 37 160 41 173
c34 106 144 202 257 202c103 0 171 -75 171 -172c0 -140 -136 -279 -276 -279c-65 0 -123 32 -151 96zM321 23c41 0 97 27 135 89c34 55 54 154 54 194c0 67 -37 102 -87 102c-36 0 -93 -21 -137 -87c-40 -62 -56 -156 -56 -191c0 -67 37 -107 91 -107z" />
    <glyph glyph-name="sigma1" unicode="&#x3c2;" horiz-adv-x="487" 
d="M415 7c0 -47 -42 -114 -111 -114c-2 0 -75 3 -75 28c0 12 11 16 17 16c3 0 8 -1 12 -3c16 -6 37 -8 46 -8c32 0 42 32 42 46c0 17 -9 28 -21 35c-4 3 -46 22 -62 30l-97 44c-36 18 -101 57 -101 137c0 111 129 223 310 223c4 0 120 0 120 -35c0 -11 -8 -23 -23 -23
c-5 0 -6 1 -15 4c-42 18 -66 21 -89 21c-123 0 -238 -69 -238 -158c0 -57 47 -79 89 -98l78 -37c11 -5 13 -5 43 -20c38 -17 75 -34 75 -88z" />
    <glyph glyph-name="phi1" unicode="&#x3d5;" horiz-adv-x="811" 
d="M346 -9c-7 -46 -30 -169 -31 -171c-8 -30 -35 -37 -46 -37c-17 0 -35 12 -35 33c0 14 39 132 47 156c4 10 5 14 9 27c-137 26 -208 104 -208 195c0 93 79 237 117 237c3 0 18 0 18 -14c0 -5 0 -7 -14 -20c-60 -61 -83 -167 -83 -194c0 -108 149 -131 192 -137
c29 100 109 375 290 375c88 0 141 -67 141 -150c0 -151 -166 -301 -360 -301c-11 0 -26 0 -37 1zM374 61h19c182 0 310 110 310 212c0 63 -51 97 -112 97c-66 0 -114 -44 -138 -68c-62 -65 -77 -146 -82 -176c-4 -20 -11 -57 -11 -61c0 -3 6 -4 14 -4z" />
    <glyph glyph-name="arrowlefttophalf" unicode="&#x21bc;" horiz-adv-x="1222" 
d="M221 276h866c16 0 41 0 41 -26s-25 -26 -41 -26h-963c-22 0 -31 0 -31 20c0 14 2 15 21 26c88 47 165 114 222 222c8 17 9 18 13 20c4 3 9 3 18 3c10 0 26 0 26 -15c0 -6 -45 -125 -172 -224z" />
    <glyph glyph-name="arrowleftbothalf" unicode="&#x21bd;" horiz-adv-x="1222" 
d="M1087 224h-866c128 -99 172 -219 172 -224c0 -15 -16 -15 -26 -15c-19 0 -20 1 -30 21c-55 104 -127 173 -223 224c-19 10 -21 11 -21 26c0 20 9 20 31 20h963c16 0 41 0 41 -26s-25 -26 -41 -26z" />
    <glyph glyph-name="arrowrighttophalf" unicode="&#x21c0;" horiz-adv-x="1222" 
d="M1097 224h-963c-16 0 -41 0 -41 26s25 26 41 26h866c-128 99 -172 219 -172 224c0 15 16 15 26 15c19 0 20 -1 30 -21c71 -136 164 -194 235 -230c9 -5 9 -12 9 -19c0 -21 -8 -21 -31 -21z" />
    <glyph glyph-name="arrowrightbothalf" unicode="&#x21c1;" horiz-adv-x="1222" 
d="M1000 224h-866c-16 0 -41 0 -41 26s25 26 41 26h963c23 0 31 0 31 -21c0 -14 -3 -16 -13 -20c-85 -45 -169 -111 -230 -227c-8 -17 -9 -18 -13 -20c-4 -3 -9 -3 -18 -3c-10 0 -26 0 -26 15c0 6 45 125 172 224z" />
    <glyph glyph-name="arrowhookleft" unicode="&#x21a9;" horiz-adv-x="379" 
d="M286 250c0 -6 -2 -26 -31 -26c-71 0 -162 50 -162 141s91 141 162 141c28 0 31 -20 31 -26c0 -14 -12 -25 -25 -26c-92 -5 -116 -56 -116 -89c0 -51 50 -86 108 -89c10 -1 33 -2 33 -26z" />
    <glyph glyph-name="arrowhookright" unicode="&#x21aa;" horiz-adv-x="379" 
d="M286 365c0 -91 -91 -141 -162 -141c-28 0 -31 20 -31 26c0 14 12 25 25 26c92 5 116 56 116 89c0 51 -50 86 -108 89c-10 1 -33 2 -33 26c0 6 2 26 31 26c71 0 162 -50 162 -141z" />
    <glyph glyph-name="triangleright" unicode="&#x22b2;" 
d="M556 223l-452 -261c-11 -7 -12 -7 -18 -7c-26 0 -26 26 -26 41v508c0 15 0 41 26 41c6 0 10 -2 21 -8l452 -261c8 -5 19 -11 19 -26c0 -14 -7 -18 -22 -27zM500 250l-388 224v-448z" />
    <glyph glyph-name="triangleleft" unicode="&#x22b3;" 
d="M82 278l452 260c10 6 12 7 18 7c26 0 26 -25 26 -41v-508c0 -16 0 -41 -26 -41c-4 0 -9 1 -23 9l-450 260c-7 4 -19 11 -19 26c0 14 11 22 22 28zM138 250l388 -224v448z" />
    <glyph glyph-name="zerooldstyle" unicode="&#xf730;" 
d="M563 213c0 -151 -78 -234 -244 -234c-163 0 -244 80 -244 234c0 150 76 239 244 239c158 0 244 -79 244 -239zM319 12c151 0 151 97 151 210c0 107 0 197 -151 197s-151 -90 -151 -197c0 -113 0 -210 151 -210z" />
    <glyph glyph-name="oneoldstyle" unicode="&#xf731;" 
d="M372 421v-336c0 -31 2 -37 28 -41c28 -4 48 -4 74 -4c36 0 44 0 44 -20s-14 -20 -21 -20c-27 0 -57 3 -84 3c-28 0 -55 1 -83 1s-57 -1 -85 -1c-26 0 -55 -3 -81 -3c-7 0 -21 0 -21 20s9 20 40 20c27 0 53 0 80 4c25 4 26 12 26 41v298c-52 -14 -107 -14 -119 -14
c-25 0 -33 0 -33 20s9 20 34 20c104 1 149 25 170 37c10 6 12 6 15 6c16 0 16 -12 16 -31z" />
    <glyph glyph-name="twooldstyle" unicode="&#xf732;" 
d="M94 42l223 126c76 42 136 75 136 139c0 73 -80 105 -170 105c-27 0 -101 -3 -136 -44c27 -8 29 -31 29 -39c0 -30 -25 -42 -41 -42c-13 0 -42 9 -42 44c0 61 57 121 213 121c49 0 246 -3 246 -145c0 -82 -72 -112 -162 -148c-41 -17 -84 -39 -158 -77v-1h179
c21 0 56 1 76 2c6 0 7 1 10 4c3 4 9 14 16 39c4 14 6 20 20 20c4 0 19 0 19 -15c0 -6 -32 -120 -32 -122c-4 -9 -11 -9 -30 -9h-378c-21 0 -32 0 -32 20c0 14 3 16 14 22z" />
    <glyph glyph-name="threeoldstyle" unicode="&#xf733;" 
d="M244 161l56 3c87 5 130 84 130 151c0 76 -59 103 -117 103c-54 0 -111 -11 -148 -50c37 -5 47 -32 47 -51c0 -33 -27 -51 -51 -51c-21 0 -52 13 -52 53c0 81 88 133 207 133c113 0 213 -56 213 -138c0 -72 -55 -139 -142 -166c102 -24 174 -93 174 -174
c0 -94 -98 -189 -247 -189c-127 0 -237 54 -237 151c0 41 31 57 56 57c27 0 55 -20 55 -55c0 -13 -5 -50 -52 -55c42 -53 140 -61 175 -61c79 0 141 50 141 152c0 87 -47 153 -145 153h-55c-19 0 -30 0 -30 16s10 17 22 18z" />
    <glyph glyph-name="fouroldstyle" unicode="&#xf734;" 
d="M459 431v-391h88c22 0 31 0 31 -20s-9 -20 -31 -20h-88v-111c0 -33 3 -36 21 -39c22 -4 54 -4 59 -4c25 0 33 0 33 -20c0 -10 -2 -20 -19 -20c-22 0 -47 3 -69 3c-23 0 -46 1 -69 1c-47 0 -11 -1 -70 -1c-21 0 -46 -3 -67 -3c-18 0 -19 10 -19 20c0 20 7 20 36 20
c77 0 77 5 77 43v111h-280c-25 0 -32 0 -32 25c0 14 0 16 10 27l331 394c13 15 14 16 32 16c26 0 26 -5 26 -31zM379 367l-274 -327h274v327z" />
    <glyph glyph-name="fiveoldstyle" unicode="&#xf735;" 
d="M184 344v-180c46 38 99 49 147 49c132 0 221 -104 221 -212c0 -120 -114 -216 -253 -216c-124 0 -213 84 -213 174c0 46 38 54 50 54c19 0 50 -13 50 -50c0 -28 -17 -49 -52 -51c26 -57 96 -90 163 -90c73 0 112 40 126 57c31 42 32 95 32 125c0 41 -4 82 -22 114
c-8 16 -38 62 -103 62c-42 0 -106 -10 -149 -64c-7 -9 -9 -12 -19 -12c-18 0 -18 10 -18 31v287c0 17 0 30 14 30c2 0 4 0 11 -3c25 -9 80 -28 157 -28c40 0 95 6 153 27c10 4 12 4 14 4c3 0 14 -2 14 -17c0 -17 -50 -54 -88 -73c-60 -30 -113 -31 -131 -31
c-48 0 -92 10 -104 13z" />
    <glyph glyph-name="sixoldstyle" unicode="&#xf736;" 
d="M175 330c32 57 86 96 155 96c37 0 100 -3 164 -65c45 -44 67 -89 67 -157c0 -73 -27 -116 -68 -157c-61 -58 -123 -68 -172 -68c-121 0 -244 86 -244 338c0 213 152 348 307 348c107 0 148 -55 148 -109c0 -33 -21 -50 -48 -50c-30 0 -47 23 -47 47c0 38 35 47 41 48
c-27 27 -71 30 -93 30c-79 0 -136 -49 -165 -94c-42 -69 -44 -147 -45 -207zM321 16c43 0 76 12 105 44c36 42 37 80 37 144c0 55 0 99 -31 139c-35 45 -72 50 -105 50c-99 0 -149 -89 -149 -166c0 -71 14 -120 27 -143c21 -35 59 -68 116 -68z" />
    <glyph glyph-name="sevenoldstyle" unicode="&#xf737;" 
d="M323 431h240c22 0 31 0 31 -20c0 -9 0 -11 -6 -17l-63 -74c-90 -101 -114 -128 -136 -168c-53 -100 -55 -229 -55 -314c0 -38 -23 -53 -48 -53c-13 0 -47 4 -47 56c0 212 138 368 187 423c20 22 46 53 69 80h-236c-33 0 -70 0 -100 -3c-13 -2 -21 -43 -27 -73
c-3 -13 -5 -21 -20 -21c-4 0 -19 1 -19 15l35 177c4 18 7 24 21 24c18 0 18 -13 18 -19c10 -6 12 -6 35 -8c39 -3 82 -5 121 -5z" />
    <glyph glyph-name="eightoldstyle" unicode="&#xf738;" 
d="M397 360c13 -7 46 -25 59 -33c71 -40 105 -98 105 -158c0 -111 -111 -190 -243 -190c-118 0 -241 60 -241 175c0 99 91 156 161 183l-45 25c-37 22 -84 69 -84 136c0 96 95 167 211 167c105 0 209 -53 209 -150c0 -90 -83 -131 -132 -155zM359 381c36 15 115 58 115 134
c0 71 -74 116 -156 116c-75 0 -154 -32 -154 -97c0 -45 37 -66 75 -87c19 -11 110 -61 120 -66zM417 238l-141 78c-32 -14 -136 -62 -136 -162c0 -86 88 -138 180 -138c86 0 178 41 178 120c0 57 -52 86 -81 102z" />
    <glyph glyph-name="nineoldstyle" unicode="&#xf739;" 
d="M463 111c-41 -69 -101 -94 -155 -94c-44 0 -105 7 -163 63c-28 28 -68 67 -68 154c0 47 12 98 65 146c38 36 87 72 180 72c129 0 239 -94 239 -327c0 -204 -139 -340 -293 -340c-23 0 -162 0 -162 107c0 33 21 50 48 50c30 0 47 -23 47 -47c0 -39 -32 -47 -38 -48
c33 -25 91 -25 104 -25c85 0 137 57 160 98c31 59 36 128 36 191zM310 50c97 0 150 84 150 164c0 55 -8 105 -25 136c-19 35 -56 68 -112 68c-61 0 -90 -23 -112 -47c-36 -40 -36 -82 -36 -139c0 -65 2 -96 31 -134c37 -48 84 -48 104 -48z" />
    <glyph glyph-name="period" unicode="." horiz-adv-x="379" 
d="M250 60c0 -32 -28 -60 -60 -60c-34 0 -61 27 -61 61c0 31 25 60 61 60c31 0 60 -25 60 -61z" />
    <glyph glyph-name="comma" unicode="," horiz-adv-x="379" 
d="M230 14c-11 -10 -25 -14 -40 -14c-40 0 -61 31 -61 61c0 29 21 60 60 60c48 0 74 -49 74 -112c0 -123 -90 -203 -104 -203c-8 0 -17 9 -17 18c0 6 3 8 13 18c25 22 75 77 75 172z" />
    <glyph glyph-name="less" unicode="&#x3c;" horiz-adv-x="962" 
d="M812 535l-600 -285l602 -285c17 -8 23 -17 23 -28c0 -14 -12 -26 -26 -26c-1 0 -8 0 -22 7l-641 304c-17 8 -23 16 -23 28c0 16 10 21 25 28l642 305c12 6 16 6 19 6c14 0 26 -12 26 -26c0 -16 -10 -21 -25 -28z" />
    <glyph glyph-name="slash" unicode="/" 
d="M538 702l-391 -926c-6 -14 -11 -26 -28 -26c-14 0 -26 12 -26 26c0 4 0 6 7 22l391 926c6 14 11 26 28 26c14 0 26 -12 26 -26c0 -4 0 -6 -7 -22z" />
    <glyph glyph-name="greater" unicode="&#x3e;" horiz-adv-x="962" 
d="M812 222l-642 -305c-12 -6 -16 -6 -19 -6c-14 0 -26 12 -26 26c0 16 10 21 25 28l600 285l-602 285c-17 8 -23 17 -23 28c0 14 12 26 26 26c1 0 8 0 22 -7l641 -304c17 -8 23 -16 23 -28c0 -16 -10 -21 -25 -28z" />
    <glyph glyph-name="star" 
d="M308 149l-118 -127c-10 -11 -14 -12 -18 -12c-8 0 -15 7 -15 15c0 6 35 68 53 99c26 46 26 48 44 82l-170 80c-11 5 -17 11 -17 18c0 5 3 15 16 15l196 -37l23 184c1 10 3 26 17 26c13 0 15 -12 17 -26l23 -184l71 13c16 4 117 24 125 24c13 0 16 -10 16 -15
c0 -7 -5 -12 -19 -19l-168 -79c18 -34 18 -36 45 -82c13 -24 52 -93 52 -99c0 -8 -7 -15 -15 -15c-6 0 -9 4 -14 8c-21 21 -41 43 -61 65c-9 10 -68 75 -72 75c-3 0 -9 -7 -11 -9z" />
    <glyph glyph-name="partialdiff" unicode="&#x2202;" horiz-adv-x="658" 
d="M255 611c6 -1 37 -7 37 -39c0 -24 -20 -56 -57 -56c-30 0 -40 22 -40 38c0 30 43 161 216 161c154 0 263 -114 263 -275c0 -125 -98 -461 -378 -461c-59 0 -113 12 -157 52c-41 38 -66 82 -66 134c0 12 0 114 94 198c103 92 192 94 233 94c79 0 140 -43 162 -117
c21 87 23 129 23 149c0 127 -78 192 -177 192c-71 0 -126 -30 -153 -70zM299 16c176 0 241 208 241 272c0 56 -30 136 -139 136c-83 0 -138 -42 -174 -88c-46 -60 -63 -186 -63 -203c0 -27 10 -117 135 -117z" />
    <glyph glyph-name="A" unicode="A" horiz-adv-x="924" 
d="M226 122l378 570c9 14 15 22 36 22c22 0 23 -9 26 -27l100 -615c4 -25 5 -32 67 -32c15 0 28 0 28 -15c0 -25 -16 -25 -22 -25c-19 0 -41 3 -61 3s-39 1 -59 1c-30 0 -103 -4 -133 -4c-12 0 -17 10 -17 15c0 25 16 25 29 25c10 0 68 0 68 26l-26 161h-301l-82 -123
c-3 -6 -14 -23 -14 -35c0 -22 22 -28 46 -29c3 0 17 -1 17 -15c0 -20 -11 -25 -22 -25c-24 0 -83 4 -107 4c-29 0 -62 -4 -90 -4c-7 0 -15 5 -15 15c0 23 12 24 26 25c56 4 90 24 128 82zM365 267h268l-52 325z" />
    <glyph glyph-name="B" unicode="B" horiz-adv-x="926" 
d="M210 83l131 521c4 16 4 22 4 32c-21 7 -46 7 -64 7s-33 0 -33 15c0 25 15 25 34 25h383c141 0 220 -71 220 -143c0 -91 -114 -164 -229 -182c125 -17 179 -83 179 -145c0 -100 -136 -213 -309 -213h-407c-20 0 -29 0 -32 14c0 6 4 19 9 23c4 3 6 3 28 3c75 0 77 7 86 43z
M374 372h182c123 0 227 84 227 166c0 42 -30 105 -134 105h-165c-42 0 -43 -2 -51 -34zM326 40h174c124 0 230 82 230 178c0 40 -21 121 -147 121h-218l-72 -296c12 -3 14 -3 33 -3z" />
    <glyph glyph-name="C" unicode="C" horiz-adv-x="883" 
d="M889 675l-59 -238c-5 -21 -10 -22 -23 -22c-5 0 -20 0 -20 15c0 2 3 20 3 37c0 105 -67 197 -196 197c-125 0 -232 -67 -285 -126c-110 -121 -119 -259 -119 -299c0 -190 163 -220 237 -220c111 0 268 66 316 222c3 10 7 14 19 14c9 0 18 -4 18 -14
c0 -5 -16 -94 -115 -173c-59 -46 -150 -89 -254 -89c-186 0 -326 116 -326 288c0 223 245 437 499 437c72 0 145 -23 199 -90l75 78c10 11 11 12 19 12c14 0 15 -12 15 -14s-1 -6 -3 -15z" />
    <glyph glyph-name="D" unicode="D" horiz-adv-x="998" 
d="M209 83l131 521c4 16 4 22 4 32c-21 7 -46 7 -64 7s-33 0 -33 15c0 25 14 25 34 25h383c164 0 280 -107 280 -266c0 -220 -224 -417 -450 -417h-376c-20 0 -29 0 -32 14c0 6 4 19 9 23c4 3 6 3 28 3c75 0 77 7 86 43zM435 609l-140 -566c12 -3 14 -3 33 -3h148
c117 0 208 52 260 110c96 106 109 266 109 299c0 138 -102 194 -219 194h-140c-43 0 -43 -2 -51 -34z" />
    <glyph glyph-name="E" unicode="E" horiz-adv-x="899" 
d="M367 332l-70 -289c12 -3 14 -3 33 -3h182c173 0 225 51 292 201c11 23 12 26 25 26c4 0 19 0 19 -15c0 -7 -90 -205 -102 -232c-7 -12 -7 -14 -10 -17c-4 -3 -6 -3 -26 -3h-594c-18 0 -31 0 -31 15c0 25 13 25 36 25c75 0 77 7 86 43l130 517c4 16 4 22 4 32
c-21 7 -46 7 -64 7c-19 0 -32 0 -32 15c0 25 14 25 33 25h578c25 0 33 0 30 -31l-18 -177c-2 -18 -3 -26 -19 -26c-5 0 -19 0 -19 17s4 39 4 57c0 97 -40 120 -173 120h-174c-42 0 -43 -2 -51 -34l-58 -233h110c94 0 121 15 143 97c3 13 5 20 20 20c17 0 19 -13 19 -14
l-60 -238c-4 -17 -6 -22 -20 -22c-17 0 -19 13 -19 14c6 20 9 31 9 55c0 31 -4 48 -94 48h-119z" />
    <glyph glyph-name="F" unicode="F" horiz-adv-x="775" 
d="M364 320l-60 -241c-4 -15 -4 -20 -4 -21c0 -11 3 -14 34 -16c24 -2 49 -2 52 -2c25 0 37 0 37 -15c0 -25 -17 -25 -24 -25c-24 0 -52 3 -76 3c-27 0 -56 1 -83 1c-24 0 -47 -1 -71 -1c-22 0 -46 -3 -67 -3c-16 0 -17 10 -18 14c0 6 4 19 9 23c4 3 6 3 28 3
c75 0 77 7 86 43l130 517c4 16 4 22 4 32c-21 7 -46 7 -64 7s-33 0 -33 15c0 25 15 25 34 25h562c25 0 33 0 30 -31l-18 -177c-2 -18 -3 -26 -19 -26c-5 0 -19 0 -19 17c0 3 4 38 4 60c0 92 -36 117 -167 117h-164c-42 0 -43 -2 -51 -34l-61 -245h107c94 0 118 18 140 97
c3 13 5 20 20 20c17 0 19 -13 19 -14l-60 -238c-4 -17 -6 -22 -20 -22c-17 0 -19 13 -19 14c4 14 10 43 10 57c0 33 -13 46 -93 46h-115z" />
    <glyph glyph-name="G" unicode="G" horiz-adv-x="952" 
d="M890 675l-59 -238c-5 -21 -10 -22 -23 -22c-5 0 -20 0 -20 15c0 2 3 20 3 37c0 108 -70 197 -196 197c-143 0 -247 -84 -280 -118c-101 -106 -125 -240 -125 -306c0 -168 133 -221 248 -221c13 0 79 0 137 24c66 27 76 66 81 88c3 12 21 80 21 86c0 11 -2 15 -35 18
c-19 1 -39 2 -58 2c-33 0 -40 0 -43 14c0 4 4 16 6 19c4 7 11 7 19 7c27 0 57 -3 84 -3c28 0 56 -1 83 -1c21 0 41 1 61 1c18 0 39 3 57 3c9 0 16 -6 16 -15c0 -25 -15 -25 -25 -25c-58 -1 -61 -1 -71 -40c-4 -14 -7 -27 -13 -51c-5 -21 -32 -132 -36 -140
c-2 -3 -7 -6 -11 -6c-15 0 -44 43 -50 56c-64 -65 -173 -77 -246 -77c-205 0 -330 129 -330 287c0 227 247 438 499 438c116 0 170 -56 195 -85c3 -2 4 -3 5 -3c2 0 9 7 10 8l65 68c10 11 11 12 19 12c14 0 15 -12 15 -14s-1 -6 -3 -15z" />
    <glyph glyph-name="H" unicode="H" horiz-adv-x="999" 
d="M887 602l-132 -529c-3 -10 -4 -14 -4 -18c0 -11 7 -11 25 -13c11 -1 26 -2 38 -2c23 0 32 0 35 -14c0 -4 -4 -16 -6 -19c-4 -7 -11 -7 -17 -7c-22 0 -47 3 -69 3c-23 0 -46 1 -69 1c-22 0 -44 -1 -67 -1c-22 0 -46 -3 -67 -3c-16 0 -17 10 -18 14c0 5 4 18 8 22s6 4 23 4
c77 1 80 7 88 26l67 269h-354l-65 -262c-3 -10 -4 -14 -4 -18c0 -11 7 -11 25 -13c11 -1 26 -2 38 -2c23 0 32 0 35 -14c0 -4 -4 -16 -6 -19c-4 -7 -11 -7 -17 -7c-22 0 -47 3 -69 3c-23 0 -46 1 -69 1c-22 0 -44 -1 -67 -1c-22 0 -46 -3 -67 -3c-16 0 -17 10 -18 14
c0 6 4 19 9 23c4 3 6 3 28 3c75 0 77 7 86 43l131 521c4 16 4 22 4 32c-21 7 -46 7 -64 7s-33 0 -33 15c0 25 17 25 23 25c22 0 47 -3 69 -3c23 0 46 -1 69 -1c22 0 45 1 67 1s46 3 67 3c10 0 17 -6 17 -16c0 -24 -14 -24 -32 -24c-80 0 -82 -8 -90 -41l-57 -227h354l58 229
c4 16 4 22 4 32c-21 7 -46 7 -64 7s-33 0 -33 15c0 25 17 25 23 25c22 0 47 -3 69 -3c23 0 46 -1 69 -1c22 0 45 1 67 1s46 3 67 3c10 0 17 -6 17 -16c0 -24 -14 -24 -32 -24c-80 0 -82 -8 -90 -41z" />
    <glyph glyph-name="I" unicode="I" horiz-adv-x="547" 
d="M434 601l-133 -530c-2 -9 -2 -10 -2 -17c0 -10 8 -10 24 -12c20 -2 42 -2 43 -2c23 0 32 0 35 -14c0 -3 -4 -16 -6 -20c-5 -6 -11 -6 -18 -6c-21 0 -46 3 -68 3c-25 0 -50 1 -74 1c-37 0 -24 -1 -72 -1c-21 0 -46 -3 -67 -3c-16 0 -17 10 -18 14c0 7 4 21 11 24
c3 2 5 2 28 2c78 0 81 9 89 42l131 523c4 15 4 21 4 22c0 9 -1 12 -25 14c-20 2 -39 2 -43 2c-20 0 -34 0 -34 15c0 25 17 25 23 25c21 0 46 -3 68 -3l74 -1c20 0 44 1 73 1c21 0 46 3 67 3c10 0 17 -6 17 -16c0 -24 -13 -24 -38 -24c-78 0 -81 -8 -89 -42z" />
    <glyph glyph-name="J" unicode="J" horiz-adv-x="681" 
d="M633 605l-117 -465c-23 -93 -134 -161 -242 -161c-93 0 -154 47 -154 111c0 48 30 79 69 79c31 0 47 -21 47 -44c0 -16 -10 -62 -67 -67c27 -44 89 -46 103 -46c63 0 132 55 153 138l114 456c2 7 4 14 4 19c0 13 -12 14 -34 16c-26 2 -34 2 -58 2c-26 0 -34 0 -37 14
c0 3 4 16 6 20c5 6 11 6 18 6c24 0 52 -2 76 -3c26 -1 57 -1 83 -1c20 0 39 1 58 1c18 0 39 3 57 3c9 0 15 -8 15 -15c0 -25 -14 -25 -30 -25c-54 0 -56 -6 -64 -38z" />
    <glyph glyph-name="K" unicode="K" horiz-adv-x="1025" 
d="M607 402l182 -325c12 -22 20 -36 72 -37c8 0 24 0 24 -15c0 -19 -11 -25 -22 -25c-16 0 -35 3 -52 3s-34 1 -51 1c-29 0 -103 -4 -132 -4c-11 0 -17 7 -17 15c0 25 15 25 27 25c45 1 45 16 45 29l-164 292l-174 -117c-11 -48 -11 -50 -25 -102c-6 -24 -6 -26 -11 -43
c-3 -15 -10 -40 -10 -44c0 -11 6 -11 26 -13c18 -2 36 -2 38 -2c21 0 33 0 33 -15c0 -25 -16 -25 -23 -25c-21 0 -46 3 -68 3c-23 0 -46 1 -69 1c-22 0 -44 -1 -67 -1c-22 0 -46 -3 -67 -3c-11 0 -17 7 -17 15c0 25 13 25 36 25c75 0 77 7 86 43l131 521c4 16 4 22 4 32
c-21 7 -46 7 -64 7c-19 0 -32 0 -32 15c0 25 16 25 22 25c22 0 47 -3 69 -3c23 0 46 -1 69 -1c22 0 45 1 67 1s46 3 67 3c14 0 17 -10 17 -15c0 -25 -14 -25 -32 -25c-80 0 -82 -8 -90 -41l-78 -311l435 294c3 2 12 8 13 9s2 2 5 4c4 3 25 19 25 32c0 5 0 12 -23 13
c-3 0 -17 1 -17 15c0 25 17 25 23 25c10 0 47 -2 59 -3c15 -1 49 -1 64 -1c24 0 52 3 74 3c8 0 14 -7 14 -14c0 -23 -13 -24 -23 -25c-33 -2 -61 -11 -95 -27c-56 -27 -191 -119 -293 -189c-16 -11 -17 -12 -17 -13s5 -11 6 -12z" />
    <glyph glyph-name="L" unicode="L" horiz-adv-x="846" 
d="M434 601l-138 -558c12 -3 14 -3 33 -3h123c180 0 230 95 275 208c5 12 8 19 21 19c11 0 19 -6 19 -16c0 -6 -78 -206 -88 -231c-7 -19 -8 -20 -34 -20h-530c-18 0 -31 0 -31 15c0 25 13 25 36 25c75 0 77 7 86 43l131 521c4 16 4 22 4 32c-21 7 -46 7 -64 7
c-19 0 -32 0 -32 15c0 25 16 25 22 25c23 0 49 -3 72 -3s46 -1 69 -1c27 0 56 1 83 1c24 0 50 3 74 3c15 0 17 -12 17 -15c0 -25 -12 -25 -36 -25c-102 0 -104 -9 -112 -42z" />
    <glyph glyph-name="M" unicode="M" horiz-adv-x="1161" 
d="M1077 602l-132 -529c-3 -10 -4 -14 -4 -18c0 -11 7 -11 25 -13c11 -1 26 -2 38 -2c23 0 32 0 35 -14c0 -4 -4 -16 -6 -19c-4 -7 -11 -7 -17 -7c-20 0 -44 3 -64 3l-69 1c-22 0 -45 -1 -67 -1c-20 0 -42 -3 -62 -3c-15 0 -16 10 -17 14c0 6 4 19 9 23c4 3 6 3 28 3
c75 0 77 7 86 43l140 559l-1 1l-434 -622c-7 -11 -15 -21 -30 -21c-16 0 -19 10 -23 28l-119 606h-1l-133 -533c-3 -11 -4 -15 -4 -21c0 -26 20 -39 66 -40c12 0 22 0 25 -14c0 -5 -1 -26 -22 -26c-17 0 -38 3 -56 3l-55 1c-24 0 -83 -4 -107 -4c-15 0 -16 10 -17 14
c0 15 7 25 21 26c81 3 99 30 109 71l124 493c4 16 4 22 4 32c-21 7 -46 7 -64 7s-33 0 -33 15c0 25 14 25 34 25h150c26 0 32 0 37 -27l111 -564l396 567c16 23 19 24 48 24h142c18 0 31 0 31 -15c0 -25 -14 -25 -32 -25c-80 0 -82 -8 -90 -41z" />
    <glyph glyph-name="N" unicode="N" horiz-adv-x="967" 
d="M880 573l-138 -550c-4 -18 -6 -23 -23 -23c-14 0 -16 3 -23 17l-314 595l-128 -511c-3 -11 -4 -15 -4 -21c0 -26 20 -39 66 -40c12 0 22 0 25 -14c0 -5 -1 -26 -22 -26c-17 0 -38 3 -56 3l-55 1c-24 0 -83 -4 -107 -4c-15 0 -16 10 -17 14c0 19 9 26 22 26
c83 3 98 33 108 71l132 527c-24 5 -58 5 -64 5c-23 0 -37 0 -37 15c0 25 15 25 34 25h144c24 0 25 -1 35 -18l273 -517l110 439c1 6 2 12 2 16c0 26 -19 39 -66 40c-8 0 -24 0 -24 15c0 12 5 25 22 25s38 -3 56 -3l55 -1c24 0 83 4 107 4c10 0 16 -6 16 -16
c0 -23 -16 -24 -22 -24c-76 -3 -96 -28 -107 -70z" />
    <glyph glyph-name="O" unicode="O" horiz-adv-x="934" 
d="M880 422c0 -230 -241 -443 -488 -443c-189 0 -309 122 -309 279c0 220 236 446 489 446c185 0 308 -119 308 -282zM402 17c90 0 188 47 258 128c93 109 118 245 118 308c0 152 -107 215 -214 215c-113 0 -213 -65 -267 -131c-104 -128 -106 -276 -106 -296
c0 -150 96 -224 211 -224z" />
    <glyph glyph-name="P" unicode="P" horiz-adv-x="779" 
d="M363 306l-58 -233c-3 -10 -4 -14 -4 -18c0 -11 6 -11 26 -13c18 -2 36 -2 38 -2c21 0 33 0 33 -15c0 -25 -16 -25 -23 -25c-21 0 -46 3 -68 3c-23 0 -46 1 -69 1c-22 0 -44 -1 -67 -1c-22 0 -46 -3 -67 -3c-11 0 -17 7 -17 15c0 25 13 25 36 25c75 0 77 7 86 43l131 521
c4 16 4 21 4 32c-21 7 -46 7 -64 7c-19 0 -32 0 -32 15c0 25 14 25 33 25h368c138 0 230 -70 230 -158c0 -121 -166 -219 -315 -219h-201zM435 609l-67 -267h171c57 0 120 11 165 45c56 43 69 126 69 156c0 76 -67 100 -158 100h-129c-42 0 -43 -2 -51 -34z" />
    <glyph glyph-name="Q" unicode="Q" horiz-adv-x="966" 
d="M550 7c20 -70 39 -92 83 -92c46 0 108 27 127 84c3 8 5 16 16 16c8 0 15 -7 15 -15c0 -25 -62 -194 -186 -194c-86 0 -101 75 -102 160c0 25 -1 26 -4 26c-2 0 -8 -2 -10 -2c-30 -7 -65 -11 -97 -11c-189 0 -309 122 -309 279c0 220 236 446 489 446
c185 0 308 -119 308 -282c0 -184 -153 -352 -330 -415zM318 29c-2 5 -3 16 -3 22c0 57 58 102 117 102c61 0 88 -43 108 -105c201 97 239 315 239 397c0 149 -98 223 -216 223c-213 0 -378 -221 -378 -433c0 -112 55 -179 133 -206zM500 32c-5 61 -23 88 -69 88
c-41 0 -83 -31 -83 -68s39 -37 53 -37c22 0 59 3 99 17z" />
    <glyph glyph-name="R" unicode="R" horiz-adv-x="922" 
d="M435 609l-63 -251h140c68 0 122 13 161 35c69 39 84 111 84 146c0 79 -73 104 -173 104h-98c-42 0 -43 -2 -51 -34zM640 340c43 -15 95 -50 95 -116c0 -8 -3 -29 -4 -39c-3 -26 -10 -81 -10 -104c0 -59 22 -69 49 -69c25 0 73 17 96 85c2 7 5 15 19 15c13 0 18 -9 18 -15
c0 -23 -44 -118 -138 -118c-87 0 -155 37 -155 111c0 18 4 32 15 78c6 23 15 57 15 69c0 48 -44 88 -132 88h-144l-63 -252c-3 -10 -4 -14 -4 -18c0 -11 7 -11 25 -13c11 -1 26 -2 38 -2c23 0 32 0 35 -14c0 -4 -4 -16 -6 -19c-4 -7 -11 -7 -17 -7c-21 0 -45 3 -67 3
c-73 1 -8 1 -69 1c-30 0 -103 -4 -133 -4c-15 0 -16 10 -17 14c0 6 4 19 9 23c4 3 6 3 28 3c75 0 77 7 86 43l131 521c4 16 4 22 4 32c-21 7 -46 7 -64 7s-33 0 -33 15c0 25 15 25 34 25h323c156 0 261 -72 261 -155c0 -98 -128 -166 -225 -188z" />
    <glyph glyph-name="S" unicode="S" horiz-adv-x="756" 
d="M747 675l-49 -196c-5 -18 -6 -23 -21 -23c-3 0 -18 0 -18 14c0 3 2 24 2 41c0 119 -82 156 -170 156c-112 0 -204 -80 -204 -157c0 -49 37 -83 91 -96c26 -6 75 -16 107 -23c73 -17 97 -22 139 -65c10 -11 37 -47 37 -102c0 -118 -126 -245 -283 -245
c-51 0 -148 10 -201 69c-2 -3 -48 -54 -49 -55c-14 -13 -15 -14 -21 -14c-14 0 -15 12 -15 14l52 214c5 19 11 20 21 20c8 0 18 -2 18 -15c0 -3 -1 -4 -2 -8c-5 -23 -5 -44 -5 -45c0 -130 152 -140 205 -140c118 0 210 91 210 174c0 57 -42 92 -88 103c-7 1 -84 19 -106 24
c-72 15 -103 22 -140 60c-17 17 -40 50 -40 98c0 114 128 226 276 226c61 0 129 -17 170 -70c17 18 39 42 51 56c11 12 13 14 21 14c14 0 15 -12 15 -14c0 -1 0 -3 -3 -15z" />
    <glyph glyph-name="T" unicode="T" horiz-adv-x="731" 
d="M520 602l-135 -542c0 -15 12 -16 35 -18c22 -1 43 -2 65 -2c31 0 38 0 41 -14c0 -4 -4 -16 -6 -19c-4 -7 -11 -7 -19 -7c-29 0 -61 3 -90 3c-30 0 -60 1 -90 1c-27 0 -53 -1 -93 -1c-27 0 -57 -3 -84 -3c-17 0 -19 13 -19 14c0 5 4 19 9 23c4 3 6 3 32 3c1 0 59 0 87 5
c28 4 33 13 40 41l135 547c-12 3 -14 3 -33 3h-91c-129 0 -160 -43 -205 -165c-9 -26 -10 -29 -24 -29c-17 0 -18 12 -18 15c0 1 0 4 4 16l65 182c7 21 9 21 35 21h650c20 0 31 0 31 -17l-27 -192c-2 -15 -4 -25 -20 -25c-11 0 -19 6 -19 16c0 3 2 14 3 17c4 31 6 58 6 72
c0 58 -15 89 -122 89h-92c-41 0 -43 -2 -51 -34z" />
    <glyph glyph-name="U" unicode="U" horiz-adv-x="838" 
d="M750 570l-85 -340c-38 -151 -185 -251 -321 -251c-134 0 -235 82 -235 201c0 12 0 25 6 50l57 229l22 88c6 23 15 60 18 70l1 19c-21 7 -46 7 -64 7s-33 0 -33 15c0 25 17 25 23 25c22 0 47 -3 69 -3c23 0 46 -1 69 -1c22 0 45 1 67 1s46 3 67 3c10 0 17 -6 17 -16
c0 -24 -14 -24 -32 -24c-80 0 -82 -8 -90 -41l-95 -378c-6 -23 -9 -46 -9 -70c0 -111 88 -135 147 -135c120 0 244 88 275 212l89 356c2 7 2 13 2 16c0 26 -19 39 -66 40c-8 0 -24 0 -24 15c0 12 5 25 22 25s38 -3 55 -3l55 -1c24 0 83 4 107 4c10 0 16 -6 16 -16
c0 -16 -8 -24 -21 -24c-81 -3 -98 -31 -109 -73z" />
    <glyph glyph-name="V" unicode="V" horiz-adv-x="729" 
d="M763 562l-393 -562c-10 -14 -15 -21 -35 -21c-22 0 -24 8 -28 26l-120 608c-4 22 -6 30 -65 30c-13 0 -27 0 -27 15c0 20 11 25 22 25c18 0 39 -3 57 -3l59 -1c22 0 43 1 65 1s46 3 67 3c16 0 17 -12 17 -15c0 -25 -15 -25 -28 -25c-45 0 -66 -11 -66 -23
c0 -4 0 -6 2 -16l102 -511l337 483c6 8 19 27 19 40c0 24 -34 26 -41 27c-7 0 -21 1 -21 15c0 12 5 25 22 25c24 0 83 -4 107 -4c28 0 59 4 85 4c14 0 15 -11 16 -14c0 -11 -6 -25 -17 -26c-40 -2 -75 -7 -116 -57c-7 -8 -17 -19 -20 -24z" />
    <glyph glyph-name="W" unicode="W" horiz-adv-x="1150" 
d="M1102 563l-352 -563c-9 -14 -16 -21 -33 -21c-19 0 -20 8 -23 28l-64 507l-320 -512c-9 -15 -17 -23 -34 -23c-19 0 -21 8 -24 28l-76 604c-3 27 -4 32 -53 32c-17 0 -27 0 -30 14c0 5 1 26 22 26c17 0 38 -3 56 -3c19 0 36 -1 55 -1c21 0 48 1 69 1c20 0 43 3 62 3
c14 0 17 -10 17 -15c0 -25 -15 -25 -28 -25c-59 0 -66 -14 -71 -24l64 -507l276 442c8 11 8 13 8 15c0 7 -7 57 -9 63c-6 11 -35 11 -53 11c-12 0 -26 0 -26 15c0 25 16 25 22 25c17 0 38 -3 55 -3c19 0 36 -1 55 -1c21 0 48 1 69 1c20 0 43 3 62 3c11 0 17 -7 17 -15
c0 -25 -15 -25 -26 -25c-67 -1 -72 -19 -72 -25l63 -506l290 462c6 9 15 23 15 36c0 23 -27 32 -54 33c-8 0 -21 1 -21 15c0 25 16 25 22 25c25 0 89 -4 114 -4s58 4 80 4c9 0 15 -7 15 -15c0 -23 -13 -24 -25 -25c-37 -3 -73 -14 -114 -80z" />
    <glyph glyph-name="X" unicode="X" horiz-adv-x="1001" 
d="M597 368l166 -301c10 -18 15 -27 77 -27c13 0 29 0 29 -15c0 -19 -10 -25 -22 -25c-19 0 -41 3 -61 3s-39 1 -59 1l-68 -1c-22 0 -46 -3 -67 -3c-16 0 -18 12 -18 15c0 24 16 25 23 25c32 2 52 16 52 22c0 2 -2 5 -6 13l-128 234l-229 -215c-1 -1 -3 -6 -5 -7
c-10 -14 -11 -19 -11 -24c0 -17 18 -22 32 -23c5 0 18 -1 18 -15c0 -25 -16 -25 -22 -25c-27 0 -93 4 -120 4c-31 0 -69 -4 -98 -4c-9 0 -15 8 -15 15c0 24 13 24 27 25c95 4 133 41 299 202c35 34 84 81 106 100l-150 274c-9 17 -15 27 -74 27c-20 0 -32 0 -32 15
c0 20 11 25 22 25c19 0 41 -3 61 -3s39 -1 59 -1l68 1c22 0 46 3 67 3c16 0 17 -12 17 -15c0 -24 -14 -25 -22 -25c-31 -2 -52 -16 -52 -22c0 -2 5 -11 6 -13l106 -194c12 10 74 70 81 77l81 75c31 31 40 40 40 54c0 18 -19 22 -32 23c-4 0 -18 1 -18 15c0 25 16 25 23 25
c19 0 41 -3 60 -3l59 -1c31 0 69 4 98 4c10 0 16 -9 16 -15c0 -24 -13 -24 -27 -25c-35 -2 -70 -9 -109 -32c-10 -6 -44 -30 -69 -53l-163 -156c-20 -20 -21 -21 -21 -22s5 -11 5 -12z" />
    <glyph glyph-name="Y" unicode="Y" horiz-adv-x="726" 
d="M724 561l-286 -288c-20 -85 -19 -76 -43 -174c-8 -33 -8 -35 -9 -52c21 -7 46 -7 64 -7s33 0 33 -15c0 -25 -17 -25 -23 -25c-21 0 -45 3 -67 3c-73 1 -8 1 -69 1c-30 0 -103 -4 -133 -4c-15 0 -16 10 -17 14c0 5 4 18 8 22s6 4 26 4c75 1 79 1 92 51l45 183l-168 342
c-9 18 -16 27 -76 27c-15 0 -28 0 -28 15c0 25 16 25 22 25c19 0 41 -3 61 -3s39 -1 59 -1l70 1c21 0 46 3 67 3c16 0 18 -12 18 -15c0 -25 -16 -25 -27 -25c-6 0 -54 0 -54 -16c0 -3 3 -11 5 -14l143 -291l235 237c29 30 52 52 52 68c0 14 -21 15 -31 16
c-18 1 -18 14 -18 15c0 19 10 25 22 25c24 0 84 -4 108 -4c28 0 59 4 86 4c8 0 15 -8 15 -15c0 -23 -13 -24 -25 -25c-66 -5 -96 -30 -132 -60z" />
    <glyph glyph-name="Z" unicode="Z" horiz-adv-x="837" 
d="M826 639l-602 -596h203c178 0 231 67 281 212c5 15 7 21 21 21c10 0 18 -5 18 -15c0 -7 -82 -252 -82 -253c-1 -1 -2 -2 -10 -8h-531c-19 0 -27 0 -27 12c0 17 12 30 17 35l602 596h-192c-110 0 -206 -23 -259 -173c-6 -17 -8 -21 -21 -21c-4 0 -19 0 -19 15
c0 3 3 12 4 16l57 181c7 22 9 22 35 22h493c21 0 28 0 28 -13c0 -15 -9 -24 -16 -31z" />
    <glyph glyph-name="flat" horiz-adv-x="509" 
d="M130 719v-294c27 20 72 36 127 36c84 0 158 -55 158 -141c0 -134 -115 -224 -176 -267c-24 -16 -110 -74 -127 -74c-19 0 -19 9 -19 31v708c0 21 0 32 19 32c18 0 18 -10 18 -31zM130 338v-309c96 72 192 173 192 292c0 40 -20 92 -78 92c-27 0 -53 -4 -77 -15
c-37 -16 -37 -36 -37 -60z" />
    <glyph glyph-name="natural" horiz-adv-x="509" 
d="M396 493v-677c0 -17 0 -33 -22 -33c-15 0 -15 14 -15 31v177l-214 -78c-14 -6 -16 -6 -18 -6c-15 0 -15 13 -15 31v761c0 17 0 33 22 33c15 0 15 -14 15 -31v-261l214 78c14 6 16 6 18 6c15 0 15 -13 15 -31zM149 9l210 77v336l-210 -77v-336z" />
    <glyph glyph-name="sharp" horiz-adv-x="509" 
d="M332 -22l-156 -50v-112c0 -19 0 -33 -22 -33c-15 0 -15 13 -15 31v102c-6 -2 -24 -9 -31 -9c-15 0 -15 13 -15 31v30c0 21 0 27 12 31c12 5 21 7 34 11v337c-6 -2 -24 -9 -31 -9c-15 0 -15 13 -15 31v30c0 21 0 27 12 31c12 5 21 7 34 11v181c0 18 0 34 22 34
c15 0 15 -15 15 -32v-171l156 50v181c0 19 0 33 22 33c15 0 15 -13 15 -31v-171c6 2 24 9 31 9c15 0 15 -13 15 -31v-31c0 -23 0 -26 -14 -31c-10 -4 -12 -4 -32 -10v-337c6 2 24 9 31 9c15 0 15 -13 15 -31v-31c0 -23 0 -26 -14 -31c-10 -4 -12 -4 -32 -10v-112
c0 -18 0 -34 -22 -34c-15 0 -15 15 -15 32v102zM332 409l-156 -50v-337l156 50v337z" />
    <glyph glyph-name="slurbelow" unicode="&#x2323;" horiz-adv-x="1222" 
d="M1128 358c0 -15 -79 -101 -182 -153c-138 -69 -263 -77 -336 -77c-143 0 -324 37 -467 169c-13 13 -50 47 -50 61c0 10 8 19 19 19c8 0 11 -4 21 -15c118 -137 305 -177 478 -177c172 0 359 41 477 176c10 12 13 16 21 16c10 0 19 -8 19 -19z" />
    <glyph glyph-name="slurabove" unicode="&#x2322;" horiz-adv-x="1222" 
d="M1128 143c0 -10 -8 -19 -19 -19c-7 0 -8 1 -29 25c-25 30 -84 90 -190 132c-121 48 -240 48 -280 48c-228 0 -384 -77 -474 -185c-16 -19 -17 -20 -24 -20c-10 0 -19 8 -19 19c0 14 73 101 177 159c127 70 253 84 341 84c71 0 204 -8 345 -87c98 -55 172 -142 172 -156z
" />
    <glyph glyph-name="lscript" unicode="&#x2113;" horiz-adv-x="518" 
d="M129 178c-1 12 -1 14 -1 30c0 195 138 496 265 496c58 0 72 -54 72 -91c0 -31 -9 -116 -91 -229c-47 -67 -106 -127 -165 -181c-11 -10 -11 -12 -11 -41c0 -19 0 -141 75 -141c49 0 97 33 147 74c7 6 10 9 15 9c10 0 19 -13 19 -20s-3 -9 -4 -10s-91 -86 -179 -86
c-90 0 -126 87 -137 147l-61 -52c-14 -13 -16 -13 -21 -13c-11 0 -18 15 -18 20c0 6 1 7 20 23c9 8 70 61 75 65zM207 250c118 108 221 248 221 366c0 21 -2 55 -35 55c-46 0 -86 -88 -101 -121c-46 -103 -80 -270 -85 -300z" />
    <glyph glyph-name="a" unicode="a" horiz-adv-x="674" 
d="M519 321l-42 -168c-7 -26 -17 -66 -17 -79c0 -15 3 -51 37 -51c39 0 60 51 76 112c4 16 6 23 21 23c18 0 19 -12 19 -14c0 -5 -14 -63 -39 -103c-19 -31 -45 -51 -81 -51c-22 0 -89 8 -108 71c-25 -25 -82 -71 -149 -71c-85 0 -161 62 -161 170c0 147 138 281 266 281
c62 0 96 -37 110 -60c3 15 20 41 48 41c18 0 35 -11 35 -33c0 -7 -10 -45 -15 -68zM389 131l44 177l3 14c0 7 -19 86 -94 86c-48 0 -99 -37 -129 -91c-32 -57 -53 -155 -53 -196c0 -71 39 -98 79 -98c25 0 76 11 131 73c14 15 14 17 19 35z" />
    <glyph glyph-name="b" unicode="b" horiz-adv-x="547" 
d="M281 664l-70 -278c19 17 71 55 132 55c90 0 162 -67 162 -170c0 -143 -134 -281 -268 -281c-82 0 -157 57 -157 169c0 12 0 28 5 52c4 14 43 172 51 202l46 184c5 20 5 22 6 39c-13 4 -20 7 -49 7c-16 0 -29 0 -29 15c0 24 13 25 30 26l112 9c12 1 32 2 32 -14
c0 -5 -2 -11 -3 -15zM193 316c-4 -18 -16 -66 -22 -89c-13 -53 -16 -69 -16 -100c0 -86 52 -104 83 -104c41 0 91 29 125 84c37 59 57 168 57 203c0 58 -29 98 -80 98c-58 0 -116 -49 -147 -92z" />
    <glyph glyph-name="c" unicode="c" horiz-adv-x="559" 
d="M464 384c-30 24 -83 24 -88 24c-76 0 -128 -52 -143 -69c-69 -85 -71 -201 -71 -204c0 -58 30 -112 113 -112c71 0 164 20 218 82c15 15 16 16 21 16c8 0 19 -11 19 -20c0 -11 -72 -111 -260 -111c-129 0 -198 83 -198 178c0 139 145 273 300 273c64 0 140 -22 140 -87
c0 -48 -34 -65 -58 -65c-21 0 -40 13 -40 38c0 37 34 54 47 57z" />
    <glyph glyph-name="d" unicode="d" horiz-adv-x="642" 
d="M605 664l-140 -556c-5 -18 -5 -21 -5 -34c0 -15 3 -51 37 -51c39 0 60 51 76 112c4 16 6 23 21 23c18 0 19 -12 19 -14c0 -5 -14 -63 -39 -103c-19 -31 -45 -51 -81 -51c-22 0 -89 8 -108 71c-25 -25 -82 -71 -149 -71c-85 0 -161 62 -161 170c0 147 138 281 266 281
c62 0 96 -37 110 -60c20 72 36 139 57 225c3 13 3 15 4 30c-13 5 -20 7 -50 7c-15 0 -28 0 -28 16c0 23 13 24 30 25l112 9c12 1 32 2 32 -14c0 -5 -2 -11 -3 -15zM389 131l44 177l3 14c0 7 -19 86 -94 86c-48 0 -99 -37 -129 -91c-32 -57 -53 -155 -53 -196
c0 -71 39 -98 79 -98c25 0 76 11 131 73c14 15 14 17 19 35z" />
    <glyph glyph-name="e" unicode="e" horiz-adv-x="589" 
d="M221 225h-44c-10 -39 -11 -72 -11 -80c0 -64 29 -122 110 -122c55 0 157 14 217 82c15 15 16 16 21 16c8 0 19 -11 19 -20c0 -12 -73 -111 -259 -111c-125 0 -194 86 -194 192c0 171 170 259 293 259c85 0 133 -40 133 -89c0 -15 -4 -76 -91 -105
c-52 -17 -128 -22 -194 -22zM186 258c107 0 274 0 274 93c0 36 -40 57 -87 57c-56 0 -154 -32 -187 -150z" />
    <glyph glyph-name="f" unicode="f" horiz-adv-x="600" 
d="M431 391l-62 -341c-2 -9 -23 -128 -67 -187c-18 -22 -57 -67 -112 -67c-40 0 -103 17 -103 73c0 39 31 61 57 61c24 0 41 -17 41 -38c0 -24 -18 -46 -38 -54c16 -7 38 -9 44 -9c25 0 42 20 56 44c9 17 14 27 45 199c4 18 18 95 57 319h-78c-18 0 -31 0 -31 15
c0 25 14 25 34 25h82c6 29 8 42 13 71c7 36 10 56 18 81c30 100 98 121 143 121c44 0 106 -18 106 -73c0 -39 -31 -61 -57 -61c-24 0 -41 17 -41 38c0 24 18 46 38 54c-14 7 -30 9 -46 9c-15 0 -24 -4 -36 -13c-15 -12 -17 -21 -22 -43c-4 -18 -4 -20 -34 -184h98
c18 0 31 0 31 -15c0 -25 -14 -25 -34 -25h-102z" />
    <glyph glyph-name="g" unicode="g" horiz-adv-x="607" 
d="M567 365l-107 -427c-23 -92 -118 -142 -249 -142c-54 0 -149 0 -149 63c0 33 26 61 58 61c14 0 40 -7 40 -39c0 -10 -4 -32 -26 -46c19 -4 32 -6 76 -6c30 0 70 0 116 35c41 31 48 59 59 100l22 90c-33 -28 -80 -54 -132 -54c-94 0 -163 69 -163 168
c0 136 132 273 266 273c66 0 100 -42 111 -59c6 28 30 40 47 40c18 0 35 -11 35 -33c0 -3 0 -8 -4 -24zM428 139l43 169c1 5 3 11 3 16c0 10 -21 84 -96 84c-39 0 -89 -25 -126 -84c-31 -50 -54 -150 -54 -194c0 -74 43 -97 80 -97c45 0 95 29 131 71c14 16 14 18 19 35z
" />
    <glyph glyph-name="h" unicode="h" horiz-adv-x="725" 
d="M333 664l-78 -311c40 45 93 88 172 88c81 0 138 -37 138 -116c0 -56 -45 -169 -60 -208c-9 -21 -16 -38 -16 -58c0 -21 8 -36 27 -36c51 0 92 59 108 111c6 19 7 24 21 24c18 0 19 -12 19 -14c0 -22 -50 -154 -151 -154c-55 0 -101 36 -101 87c0 17 7 33 13 50
c19 46 61 152 61 211c0 18 0 70 -63 70c-77 0 -129 -55 -162 -103c-28 -41 -33 -59 -37 -74c-5 -23 -10 -41 -17 -67c-6 -25 -17 -71 -22 -90c-5 -21 -14 -54 -17 -61c-13 -19 -31 -23 -41 -23c-15 0 -35 9 -35 34c0 2 0 7 4 23l140 559c4 16 4 18 4 30c-13 5 -20 7 -50 7
c-15 0 -28 0 -28 16c0 23 13 24 30 25l112 9c12 1 32 2 32 -14c0 -5 -2 -11 -3 -15z" />
    <glyph glyph-name="i" unicode="i" horiz-adv-x="445" 
d="M348 624c0 -25 -25 -55 -57 -55c-22 0 -40 15 -40 40c0 29 29 55 56 55c23 0 41 -16 41 -40zM288 275l-60 -150c-13 -31 -19 -46 -19 -66c0 -24 9 -36 27 -36c51 0 92 60 108 111c6 19 7 24 21 24c18 0 19 -12 19 -14c0 -22 -50 -154 -151 -154c-55 0 -101 36 -101 87
c0 17 5 30 18 60c13 34 13 36 25 65l52 128c2 7 8 22 8 42c0 23 -7 36 -27 36c-28 0 -81 -23 -109 -120c-3 -9 -6 -15 -20 -15s-18 9 -18 14c0 22 49 154 151 154c50 0 100 -31 100 -87c0 -17 -4 -27 -7 -36c-4 -9 -13 -33 -17 -43z" />
    <glyph glyph-name="j" unicode="j" horiz-adv-x="511" 
d="M464 624c0 -30 -30 -55 -56 -55c-25 0 -41 19 -41 40c0 24 25 55 57 55c16 0 40 -10 40 -40zM251 -45l94 373c1 3 3 17 3 30c0 25 -7 50 -37 50c-55 0 -111 -52 -140 -117c-7 -14 -8 -18 -22 -18s-18 8 -18 14c0 19 70 154 183 154c64 0 114 -40 114 -96
c0 -14 -3 -23 -5 -33l-90 -358c-30 -120 -150 -158 -217 -158c-41 0 -104 12 -104 65c0 37 30 59 57 59c14 0 40 -7 40 -39c0 -15 -7 -31 -22 -43c0 -1 -3 -3 -3 -4c0 -4 28 -5 31 -5c58 0 117 51 136 126z" />
    <glyph glyph-name="k" unicode="k" horiz-adv-x="660" 
d="M332 664l-99 -396c37 14 68 40 120 85c46 40 105 88 168 88c49 0 81 -32 81 -75c0 -50 -36 -66 -58 -66c-14 0 -40 7 -40 39c0 21 15 49 50 56c-9 10 -21 13 -34 13c-55 0 -107 -43 -157 -87c-40 -35 -61 -51 -85 -66c77 -7 164 -31 164 -108c0 -12 -5 -32 -5 -33
c-5 -20 -5 -21 -5 -37c0 -11 0 -54 38 -54c51 0 79 76 89 112c5 17 7 23 21 23c18 0 19 -12 19 -14c0 -8 -35 -154 -132 -154c-57 0 -113 38 -113 104c0 8 0 14 3 29c3 11 3 16 3 21c0 59 -72 75 -139 80c-7 -32 -47 -198 -54 -211c-13 -19 -31 -23 -41 -23
c-15 0 -35 9 -35 34c0 2 0 7 4 23l140 559c4 16 4 18 4 30c-13 4 -20 7 -49 7c-16 0 -29 0 -29 15c0 24 13 25 30 26l112 9c12 1 32 2 32 -14c0 -5 -2 -11 -3 -15z" />
    <glyph glyph-name="l" unicode="l" horiz-adv-x="401" 
d="M300 664l-140 -556c-3 -11 -5 -19 -5 -35c0 -10 0 -50 37 -50c35 0 58 41 76 112c4 16 6 23 21 23c18 0 19 -12 19 -14c0 -4 -13 -61 -40 -104c-14 -23 -38 -50 -80 -50c-56 0 -112 35 -112 96c0 14 2 23 5 34l122 486c4 16 4 18 4 30c-13 4 -20 7 -49 7
c-16 0 -29 0 -29 15c0 24 13 25 30 26l112 9c12 1 32 2 32 -14c0 -5 -2 -11 -3 -15z" />
    <glyph glyph-name="m" unicode="m" horiz-adv-x="1093" 
d="M473 86l39 156c8 32 18 72 18 96c0 19 0 70 -64 70c-54 0 -97 -30 -117 -49c-37 -37 -72 -90 -81 -124c-6 -23 -10 -41 -17 -67l-22 -90c-5 -20 -14 -55 -16 -61c-8 -15 -25 -27 -43 -27s-35 11 -35 33c0 6 12 56 19 84c7 25 13 51 20 76c5 22 15 63 22 90
c7 28 17 68 17 84s-2 51 -36 51c-32 0 -56 -33 -76 -112c-5 -16 -6 -23 -22 -23c-9 0 -18 4 -18 15c0 3 11 56 37 98c18 32 44 55 82 55s108 -19 113 -95c64 79 128 95 178 95c73 0 132 -31 138 -105c65 85 131 105 186 105c76 0 138 -34 138 -116c0 -58 -49 -179 -60 -207
c-9 -21 -16 -39 -16 -59c0 -30 14 -36 28 -36c46 0 89 53 107 111c6 19 7 24 21 24c18 0 19 -12 19 -14c0 -22 -50 -154 -151 -154c-55 0 -101 36 -101 87c0 17 7 33 13 50c18 45 61 152 61 211c0 19 0 70 -64 70c-54 0 -97 -30 -117 -49c-37 -37 -72 -90 -81 -124
c-6 -23 -10 -41 -17 -67l-22 -90c-5 -20 -14 -55 -16 -61c-8 -15 -25 -27 -43 -27s-35 11 -35 33c0 7 9 42 14 63z" />
    <glyph glyph-name="n" unicode="n" horiz-adv-x="769" 
d="M293 346c64 79 128 95 178 95c76 0 138 -34 138 -116c0 -56 -45 -169 -60 -208c-9 -21 -16 -38 -16 -58c0 -21 8 -36 27 -36c51 0 92 58 108 111c6 19 7 24 21 24c18 0 19 -12 19 -14c0 -22 -50 -154 -151 -154c-55 0 -101 36 -101 87c0 17 7 33 13 50
c18 45 61 152 61 211c0 19 0 70 -64 70c-54 0 -97 -30 -117 -49c-37 -37 -72 -90 -81 -124c-6 -23 -10 -41 -17 -67l-22 -90c-5 -20 -14 -55 -16 -61c-8 -15 -25 -27 -43 -27s-35 11 -35 33c0 6 12 56 19 84c7 25 13 51 20 76c5 22 15 63 22 90c7 28 17 68 17 84
c0 10 0 51 -36 51c-32 0 -56 -32 -76 -112c-5 -16 -6 -23 -22 -23c-9 0 -18 4 -18 15c0 4 12 57 37 98c18 32 44 55 82 55s108 -19 113 -95z" />
    <glyph glyph-name="o" unicode="o" horiz-adv-x="612" 
d="M568 263c0 -137 -143 -273 -299 -273c-109 0 -193 71 -193 178c0 140 147 273 298 273c117 0 194 -77 194 -178zM271 23c57 0 114 36 144 76c56 72 66 172 66 197c0 83 -57 112 -108 112c-49 0 -111 -27 -153 -88c-42 -60 -57 -151 -57 -185c0 -77 50 -112 108 -112z" />
    <glyph glyph-name="p" unicode="p" horiz-adv-x="642" 
d="M97 -121l113 449c2 9 3 12 3 29c0 10 0 51 -36 51c-31 0 -55 -29 -76 -112c-5 -16 -6 -23 -22 -23c-9 0 -18 4 -18 15c0 4 12 56 36 98c13 22 37 55 83 55c29 0 91 -12 109 -71c5 6 68 71 149 71c88 0 161 -66 161 -170c0 -143 -135 -281 -267 -281c-49 0 -86 24 -110 60
l-36 -146c-4 -15 -11 -41 -11 -46c0 -12 26 -12 50 -12c17 0 27 0 30 -14c0 -4 -4 -16 -6 -19c-4 -7 -11 -7 -17 -7c-17 0 -37 3 -54 3c-18 0 -37 1 -55 1c-29 0 -62 -4 -90 -4c-14 0 -15 11 -16 14c0 3 4 16 6 20c4 6 10 6 23 6c43 0 44 7 51 33zM285 301l-45 -177
c-1 -4 -3 -10 -3 -15c0 -8 20 -86 95 -86c42 0 89 29 123 81c39 61 59 172 59 206c0 61 -31 98 -79 98c-47 0 -95 -32 -127 -68c-18 -20 -18 -22 -23 -39z" />
    <glyph glyph-name="q" unicode="q" horiz-adv-x="570" 
d="M545 427l-136 -547c-5 -18 -5 -20 -5 -22c0 -12 26 -12 50 -12c16 0 29 0 29 -15c0 -25 -16 -25 -22 -25c-18 0 -39 3 -57 3c-19 0 -37 1 -55 1c-24 0 -84 -4 -108 -4c-9 0 -16 6 -16 15c0 25 14 25 29 25c65 1 65 2 78 53c4 18 35 142 36 146c-38 -32 -84 -55 -133 -55
c-84 0 -161 61 -161 170c0 146 137 281 267 281c67 0 102 -44 115 -67c19 30 62 67 74 67s15 -12 15 -14zM389 131l44 176l3 14c0 8 -18 87 -95 87c-39 0 -92 -27 -129 -91c-30 -51 -53 -152 -53 -196c0 -61 31 -98 80 -98c39 0 89 25 128 69c17 19 17 21 22 39z" />
    <glyph glyph-name="r" unicode="r" horiz-adv-x="579" 
d="M284 299l-23 -93c-6 -23 -43 -174 -46 -182c-6 -20 -25 -34 -45 -34c-18 0 -35 11 -35 33c0 6 12 56 19 84c7 25 13 51 20 76c5 22 15 63 22 90c7 28 17 68 17 85c0 21 -5 50 -36 50c-33 0 -57 -35 -76 -112c-5 -16 -6 -23 -22 -23c-9 0 -18 4 -18 15c0 6 15 63 37 100
c15 24 39 53 82 53c41 0 95 -20 110 -73c61 71 122 73 148 73c64 0 122 -25 122 -78c0 -39 -29 -63 -58 -63c-14 0 -40 7 -40 39c0 22 15 45 41 54c-26 15 -58 15 -67 15c-46 0 -75 -20 -87 -28c-39 -31 -62 -76 -65 -81z" />
    <glyph glyph-name="s" unicode="s" horiz-adv-x="584" 
d="M457 376c-23 28 -73 32 -98 32c-127 0 -127 -81 -127 -82c0 -39 48 -47 97 -56c48 -8 85 -14 117 -42c23 -20 37 -43 37 -76c0 -46 -40 -162 -227 -162c-117 0 -172 42 -172 97c0 47 32 68 58 68c27 0 41 -17 41 -38c0 -24 -17 -51 -52 -57c29 -33 91 -37 126 -37
c29 0 72 2 111 23c36 20 53 56 53 77c0 49 -58 60 -133 73c-26 4 -118 20 -118 101c0 43 37 144 190 144c65 0 141 -21 141 -88c0 -43 -29 -57 -49 -57c-23 0 -35 17 -35 33c0 15 11 40 40 47z" />
    <glyph glyph-name="t" unicode="t" horiz-adv-x="476" 
d="M269 391l-71 -283c-5 -19 -5 -21 -5 -35c0 -13 1 -50 38 -50c49 0 106 43 140 118c5 12 7 17 20 17c17 0 19 -11 19 -14c0 -17 -68 -154 -183 -154c-61 0 -113 38 -113 96c0 12 8 46 14 69l59 236h-101c-20 0 -29 0 -32 14c0 5 4 18 9 22c4 3 5 4 26 4h108l39 155
c9 32 35 39 47 39c16 0 35 -10 35 -34c0 -1 0 -7 -4 -22l-35 -138h102c18 0 31 0 31 -15c0 -25 -14 -25 -34 -25h-109z" />
    <glyph glyph-name="u" unicode="u" horiz-adv-x="737" 
d="M485 266l21 83c5 19 12 50 16 57c7 14 24 25 41 25c27 0 36 -21 36 -33c0 -5 -5 -25 -8 -37l-39 -153c-9 -37 -9 -39 -19 -77c-8 -34 -11 -44 -11 -58s3 -50 37 -50c39 0 60 49 76 112c4 16 6 23 21 23c18 0 19 -12 19 -14c0 -5 -14 -63 -40 -105
c-19 -30 -45 -49 -80 -49c-37 0 -90 17 -107 67c-26 -26 -67 -67 -135 -67c-78 0 -149 35 -149 130c0 36 12 82 47 170c11 27 24 61 24 82c0 23 -7 36 -27 36c-29 0 -81 -25 -109 -120c-3 -9 -6 -15 -20 -15s-18 9 -18 14c0 21 49 154 151 154c49 0 100 -31 100 -87
c0 -18 -2 -24 -13 -49c-44 -110 -56 -155 -56 -199c0 -18 0 -83 74 -83c43 0 75 26 86 36c40 38 44 54 51 82z" />
    <glyph glyph-name="v" unicode="v" horiz-adv-x="625" 
d="M573 359c0 -99 -79 -369 -246 -369c-71 0 -162 27 -162 134c0 21 0 51 46 166c11 27 24 61 24 82c0 23 -7 36 -27 36c-29 0 -81 -25 -109 -120c-3 -9 -6 -15 -20 -15s-18 9 -18 14c0 21 49 154 151 154c49 0 100 -31 100 -87c0 -18 -3 -26 -11 -47
c-43 -107 -57 -152 -57 -195c0 -19 0 -89 87 -89c117 0 189 201 189 253c0 38 -18 62 -38 77c-6 5 -19 15 -19 34c0 24 27 55 56 55c13 0 54 -11 54 -83z" />
    <glyph glyph-name="w" unicode="w" horiz-adv-x="893" 
d="M303 315l-13 -35c-31 -76 -46 -127 -46 -165c0 -52 26 -92 96 -92c41 0 71 21 101 82c-1 6 -1 12 -1 19c0 22 3 34 6 49c4 18 40 159 48 192c9 35 16 66 53 66c27 0 36 -21 36 -33c0 -4 -5 -23 -8 -35l-14 -56l-25 -101c-8 -31 -17 -68 -17 -94c0 -20 0 -89 87 -89
c126 0 173 230 173 253c0 31 -12 57 -37 77c-7 5 -20 15 -20 33c0 27 28 56 56 56c13 0 54 -11 54 -83c0 -41 -47 -369 -230 -369c-96 0 -129 43 -141 59l-8 10c-44 -69 -98 -69 -117 -69c-94 0 -171 40 -171 136c0 26 6 64 46 164c11 27 24 60 24 82c0 23 -7 36 -27 36
c-28 0 -81 -24 -109 -120c-3 -9 -6 -15 -20 -15s-18 9 -18 14c0 21 49 154 151 154c49 0 100 -31 100 -87c0 -16 -2 -22 -9 -39z" />
    <glyph glyph-name="x" unicode="x" horiz-adv-x="697" 
d="M563 393c-22 15 -52 15 -57 15c-32 0 -56 -19 -70 -34c-21 -24 -26 -42 -36 -81l-32 -130c-9 -35 -14 -57 -14 -76c0 -42 27 -64 65 -64c42 0 113 32 142 119c3 9 5 16 19 16c18 0 19 -12 19 -14c0 -33 -66 -154 -184 -154c-57 0 -105 28 -125 70
c-19 -31 -60 -70 -117 -70c-47 0 -110 21 -110 78c0 41 30 63 58 63c20 0 40 -13 40 -39c0 -8 -4 -41 -43 -54c23 -15 51 -15 57 -15c42 0 78 34 93 72c5 12 27 103 50 196c8 31 8 40 8 52c0 33 -15 65 -64 65s-117 -39 -142 -120c-3 -9 -6 -15 -20 -15s-18 9 -18 14
c0 35 68 154 183 154c75 0 113 -45 126 -70c11 19 51 70 117 70c51 0 110 -24 110 -78c0 -39 -29 -63 -58 -63c-14 0 -40 7 -40 39c0 15 8 44 43 54z" />
    <glyph glyph-name="y" unicode="y" horiz-adv-x="633" 
d="M596 384l-96 -385c-31 -125 -159 -203 -265 -203c-78 0 -125 40 -125 88c0 46 33 66 58 66c19 0 41 -11 41 -38c0 -9 -6 -48 -50 -56c23 -26 66 -27 75 -27c60 0 105 41 123 61c48 52 57 91 70 146c-53 -46 -100 -46 -114 -46c-78 0 -149 35 -149 130c0 36 12 82 47 170
c11 27 24 61 24 82c0 23 -7 36 -27 36c-28 0 -81 -23 -109 -120c-3 -9 -6 -15 -20 -15s-18 9 -18 14c0 22 49 154 151 154c50 0 100 -31 100 -87c0 -18 -3 -25 -13 -49c-44 -110 -56 -155 -56 -199c0 -18 0 -83 74 -83c43 0 75 26 86 36c40 38 44 54 51 82l31 125l21 83
c5 19 12 50 16 57c7 14 24 25 41 25c27 0 36 -21 36 -33c0 -3 -1 -7 -3 -14z" />
    <glyph glyph-name="z" unicode="z" horiz-adv-x="596" 
d="M189 90c9 2 18 2 23 2c24 0 48 -5 78 -11c26 -5 50 -10 74 -10c47 0 113 20 133 75c3 10 5 16 19 16c10 0 19 -5 19 -14c0 -36 -71 -158 -182 -158c-36 0 -57 18 -87 41c-18 15 -35 28 -59 28c-16 0 -55 -6 -95 -59c-6 -8 -8 -10 -18 -10c-4 0 -19 0 -19 14
c0 13 48 72 99 118c42 39 72 62 153 124c65 49 89 71 112 93c-22 1 -33 1 -84 11c-20 5 -46 10 -72 10c-21 0 -77 -3 -91 -38c-3 -8 -6 -14 -19 -14c-10 0 -18 4 -18 15c0 30 56 118 140 118c37 0 60 -19 86 -41c13 -11 34 -28 58 -28c32 0 59 30 77 56c7 11 10 13 20 13
c4 0 18 0 18 -14c0 -10 -38 -63 -95 -115c-43 -40 -83 -71 -151 -123c-53 -40 -88 -69 -119 -99z" />
    <glyph glyph-name="dotlessi" unicode="&#x131;" horiz-adv-x="445" 
d="M288 275l-60 -150c-13 -31 -19 -46 -19 -66c0 -24 9 -36 27 -36c51 0 92 60 108 111c6 19 7 24 21 24c18 0 19 -12 19 -14c0 -22 -50 -154 -151 -154c-55 0 -101 36 -101 87c0 17 5 30 18 60c13 34 13 36 25 65l52 128c2 7 8 22 8 42c0 23 -7 36 -27 36
c-28 0 -81 -23 -109 -120c-3 -9 -6 -15 -20 -15s-18 9 -18 14c0 22 49 154 151 154c50 0 100 -31 100 -87c0 -17 -4 -27 -7 -36c-4 -9 -13 -33 -17 -43z" />
    <glyph glyph-name="dotlessj" unicode="&#xf6be;" horiz-adv-x="479" 
d="M422 312l-90 -358c-28 -110 -130 -158 -208 -158c-68 0 -113 23 -113 64c0 33 26 60 58 60c14 0 40 -7 40 -39c0 -16 -9 -36 -27 -47c11 -2 23 -5 42 -5c60 0 109 57 126 126l94 373c1 3 3 17 3 30c0 30 -10 50 -37 50c-53 0 -109 -49 -139 -117c-7 -14 -8 -18 -22 -18
s-18 8 -18 14c0 19 69 154 182 154c64 0 114 -39 114 -96c0 -14 -3 -23 -5 -33z" />
    <glyph glyph-name="weierstrass" unicode="&#x2118;" horiz-adv-x="787" 
d="M224 125c15 -18 57 -60 73 -77c42 -45 54 -58 54 -101c0 -81 -74 -162 -146 -162c-67 0 -84 57 -84 108c0 43 15 123 41 185c-21 22 -47 49 -47 113c0 126 96 261 181 261c10 0 17 -5 17 -15c0 -16 -11 -17 -19 -18c-61 -8 -120 -111 -120 -199c0 -13 0 -46 24 -68
c111 188 267 257 379 257c100 0 162 -69 162 -161c0 -132 -129 -258 -256 -258c-66 0 -109 41 -109 90c0 16 5 48 33 48c12 0 25 -9 25 -24c0 -19 -17 -28 -20 -29c8 -52 64 -52 71 -52c41 0 88 24 123 71c37 51 57 138 57 183c0 67 -34 99 -88 99
c-140 0 -280 -115 -351 -251zM190 49c-22 -59 -33 -124 -33 -160c0 -40 9 -71 48 -71c43 0 87 49 87 99c0 24 -5 30 -17 42c-18 21 -66 70 -85 90z" />
    <glyph glyph-name="vector" 
d="M611 589h-356c-16 0 -41 0 -41 26s25 26 41 26h378c-12 16 -24 42 -24 53c0 12 11 26 26 26c4 0 18 -2 24 -19c5 -13 16 -40 52 -60c9 -5 21 -11 21 -26c0 -4 -2 -17 -18 -24c-21 -9 -59 -26 -94 -65c-8 -10 -14 -16 -25 -16c-14 0 -26 12 -26 26c0 17 30 42 42 53z" />
    <glyph glyph-name="tie" unicode="&#x2040;" horiz-adv-x="379" 
d="M823 561c0 -27 -13 -27 -21 -27c-17 0 -17 8 -17 24c-4 14 -4 18 -22 28c-62 36 -153 36 -177 36c-46 0 -95 -5 -139 -17c-87 -23 -95 -43 -103 -63c-4 -8 -14 -8 -17 -8c-4 0 -19 0 -19 14c0 49 109 117 282 117c144 0 233 -49 233 -104z" />
    <glyph glyph-name="space" unicode=" " horiz-adv-x="333" 
 />
  </font>
</defs>
</svg>
