<?xml version="1.0" standalone="no"?>
<!DOCTYPE svg PUBLIC "-//W3C//DTD SVG 1.1//EN" "http://www.w3.org/Graphics/SVG/1.1/DTD/svg11.dtd" >
<svg>
<metadata>
Created by FontForge 20060822 at Fri Oct  6 18:22:49 2006
 By Wojciech Mula,,,
Copyright (C) 1997 American Mathematical Society. All Rights Reserved
</metadata>
<defs>
<font id="CMMI7" horiz-adv-x="585" >
  <font-face 
    font-family="Computer Modern"
    font-weight="500"
    font-style="italic"
    font-stretch="normal"
    units-per-em="1000"
    panose-1="2 0 6 3 0 0 0 0 0 0"
    ascent="750"
    descent="-250"
    x-height="441"
    cap-height="683"
    bbox="-1 -250 1171 750"
    underline-thickness="0"
    underline-position="0"
    slope="-14.04"
    stemh="32"
    stemv="81"
    unicode-range="U+0020-U+F739"
  />
    <missing-glyph />
    <glyph glyph-name="Gamma" unicode="&#x393;" horiz-adv-x="693" 
d="M414 609l-134 -536c-3 -11 -3 -14 -3 -18c0 -14 10 -15 31 -17c25 -2 50 -2 52 -2c23 0 35 0 35 -14c0 -22 -15 -22 -22 -22c-25 0 -53 3 -79 3l-77 1c-29 0 -103 -4 -132 -4c-9 0 -16 5 -16 15c0 21 13 21 30 21c78 0 79 7 89 46l131 523c1 5 4 15 4 22
c0 10 -2 12 -23 14c-18 2 -37 2 -38 2c-20 0 -32 0 -32 14c0 22 13 22 32 22h503c25 0 32 0 29 -30l-18 -174c-2 -17 -3 -26 -18 -26c-14 0 -17 9 -17 17c0 20 5 46 5 67c0 84 -31 110 -147 110h-134c-42 0 -43 -3 -51 -34z" />
    <glyph glyph-name="Delta" unicode="&#x394;" horiz-adv-x="954" 
d="M683 688l200 -662c4 -11 4 -13 4 -14c0 -12 -12 -12 -29 -12h-763c-22 0 -23 1 -23 8c0 2 0 4 8 14l539 672c8 10 15 19 35 19c21 0 24 -8 29 -25zM598 617l-431 -537h594z" />
    <glyph glyph-name="Theta" unicode="&#x398;" horiz-adv-x="868" 
d="M829 425c0 -227 -231 -445 -469 -445c-172 0 -291 113 -291 274c0 225 231 449 470 449c177 0 290 -121 290 -278zM367 10c85 0 180 44 249 123c98 113 119 258 119 319c0 150 -94 223 -203 223c-89 0 -184 -51 -249 -126c-95 -111 -120 -248 -120 -320
c0 -155 103 -219 204 -219zM614 302h-349c0 -2 -3 -34 -22 -34c-2 0 -17 0 -17 16c0 6 24 99 28 113c3 11 5 20 19 20c11 0 16 -8 16 -15c0 -3 -2 -13 -4 -19h349c0 7 3 15 6 23c2 5 7 11 17 11c11 0 16 -8 16 -15c0 -4 -24 -100 -28 -113c-3 -13 -5 -21 -18 -21
c-2 0 -17 0 -17 16c0 6 2 13 4 18z" />
    <glyph glyph-name="Lambda" unicode="&#x39b;" horiz-adv-x="797" 
d="M193 120l352 572c8 13 13 21 31 21c20 0 20 -6 23 -29l71 -617c3 -23 4 -31 51 -31c16 0 28 0 28 -14c0 -22 -15 -22 -20 -22c-24 0 -83 4 -107 4c-29 0 -101 -4 -130 -4c-16 0 -16 13 -16 14c0 22 14 22 25 22c61 0 71 18 71 28c0 2 -1 10 -2 15l-57 498l-290 -470
c-5 -8 -16 -26 -16 -40c0 -24 26 -30 45 -31c4 0 18 -1 18 -14c0 -22 -16 -22 -21 -22c-30 0 -71 4 -103 4c-24 0 -53 -4 -76 -4c-9 0 -13 9 -13 14c0 11 5 21 15 22c35 3 73 6 121 84z" />
    <glyph glyph-name="Xi" unicode="&#x39e;" horiz-adv-x="844" 
d="M205 544l35 110c7 21 8 22 33 22h554c18 0 30 0 30 -14c0 -3 -1 -13 -2 -16l-20 -106c-4 -20 -4 -24 -19 -24c-16 0 -16 13 -16 14c0 3 1 8 1 12c6 30 6 40 6 57c-21 2 -52 3 -73 3h-392c-11 0 -72 0 -78 -6c-9 -7 -21 -41 -26 -58c-5 -16 -7 -22 -20 -22
c-9 0 -17 4 -17 14c0 1 4 12 4 14zM671 0h-566c-18 0 -30 0 -30 15c0 9 21 116 25 134c2 14 4 22 18 22c10 0 17 -5 17 -15c0 -3 -3 -18 -4 -23c-5 -27 -5 -41 -5 -55c30 -4 32 -4 77 -4h394c13 0 71 0 82 5c9 6 26 58 30 69c6 18 7 23 20 23s17 -8 17 -14
c0 -7 -38 -127 -44 -143c-5 -14 -8 -14 -31 -14zM702 412l-32 -127c-4 -16 -5 -22 -19 -22c-11 0 -16 8 -16 15c0 6 5 25 8 37h-360c-5 -22 -2 -10 -8 -32c-3 -11 -5 -20 -19 -20c-11 0 -16 8 -16 15l34 139c4 16 6 24 20 24c11 0 16 -8 16 -15c0 -6 -5 -25 -8 -37h360
c5 22 2 10 8 32c3 11 5 20 19 20c11 0 16 -8 16 -15c0 -1 -2 -11 -3 -14z" />
    <glyph glyph-name="Pi" unicode="&#x3a0;" horiz-adv-x="935" 
d="M841 601l-132 -526c-4 -15 -4 -21 -4 -22c0 -10 0 -12 22 -15c18 -2 22 -2 38 -2c23 0 33 0 33 -15c0 -21 -16 -21 -21 -21c-19 0 -44 2 -64 3c-17 1 -52 1 -69 1c-29 0 -101 -4 -130 -4c-9 0 -16 5 -16 15c0 21 13 21 30 21c78 0 80 8 88 42l141 565h-335l-142 -568
c-4 -15 -4 -21 -4 -22c0 -10 0 -12 22 -15c18 -2 22 -2 38 -2c23 0 33 0 33 -15c0 -21 -16 -21 -21 -21c-19 0 -44 2 -64 3c-17 1 -52 1 -69 1c-29 0 -101 -4 -130 -4c-9 0 -16 5 -16 15c0 21 13 21 30 21c78 0 79 7 89 46l131 523c1 5 4 15 4 22c0 10 -2 12 -23 14
c-18 2 -37 2 -38 2c-20 0 -32 0 -32 14c0 22 13 22 32 22h667c17 0 30 0 30 -14c0 -22 -13 -22 -30 -22c-77 0 -79 -8 -88 -42z" />
    <glyph glyph-name="Sigma" unicode="&#x3a3;" horiz-adv-x="886" 
d="M504 324l-336 -277h294c126 0 173 19 189 25c46 19 89 72 125 158c5 11 13 11 17 11c16 0 16 -13 16 -14c0 -5 -2 -11 -4 -16l-76 -192c-8 -18 -9 -19 -33 -19h-585c-17 0 -30 0 -30 14c0 7 2 8 14 18l331 272l-184 356c0 23 14 23 33 23h585c25 0 32 0 29 -30l-18 -174
c-2 -17 -3 -26 -18 -26c-14 0 -17 8 -17 17c0 6 2 17 2 39c0 59 -16 105 -58 120c-45 16 -122 18 -154 18h-265l151 -290c2 -3 5 -10 5 -15c0 -7 -2 -9 -13 -18z" />
    <glyph glyph-name="Upsilon" unicode="&#x3a5;" horiz-adv-x="677" 
d="M392 451c45 100 83 144 120 180c16 15 80 72 165 72c74 0 113 -55 113 -116c0 -44 -10 -55 -27 -55c-6 0 -15 2 -15 12c0 1 3 13 3 18c0 33 -32 62 -93 62c-110 0 -205 -118 -247 -287l-62 -245c-7 -32 -7 -34 -7 -37c0 -14 9 -15 33 -17s43 -2 52 -2c22 0 33 0 33 -15
c0 -21 -16 -21 -22 -21c-26 0 -55 3 -81 3c-25 0 -52 1 -77 1s-56 0 -81 -1c-24 -1 -51 -3 -74 -3c-10 0 -17 5 -17 15c0 21 13 21 32 21c70 0 101 1 110 32l46 187c36 141 38 151 38 204c0 77 -24 165 -123 165c-50 0 -109 -22 -127 -73c-4 -10 -7 -19 -23 -19
c-6 0 -15 2 -15 11c0 32 67 160 187 160c93 0 160 -66 160 -217c0 -24 0 -26 -1 -35z" />
    <glyph glyph-name="Phi" unicode="&#x3a6;" horiz-adv-x="769" 
d="M491 595l-13 -52c143 -9 248 -80 248 -171c0 -117 -166 -220 -349 -232c-19 -81 -19 -83 -19 -85c0 -14 10 -15 31 -17c25 -2 50 -2 52 -2c23 0 35 0 35 -14c0 -22 -15 -22 -22 -22c-25 0 -52 3 -77 3l-77 1l-78 -1c-24 0 -51 -3 -74 -3c-16 0 -17 12 -17 14
c0 22 10 22 40 22c93 0 95 7 107 54l12 50c-130 7 -247 75 -247 171c0 120 175 222 348 232c7 29 3 12 11 41c3 15 9 37 9 43c0 15 -6 16 -33 18c-22 2 -51 2 -52 2c-22 0 -33 0 -33 15c0 21 16 21 22 21c24 0 52 -3 77 -3l77 -1c22 0 55 1 78 1c24 0 50 3 74 3
c16 0 17 -13 17 -14c0 -22 -11 -22 -40 -22c-94 0 -95 -7 -107 -52zM297 168l87 347c-235 -20 -243 -198 -243 -219c0 -85 69 -120 156 -128zM471 515l-86 -347c207 18 242 159 242 219c0 20 0 62 -45 93c-21 14 -54 30 -111 35z" />
    <glyph glyph-name="Psi" unicode="&#x3a8;" horiz-adv-x="716" 
d="M473 601l-108 -430c125 24 188 125 216 227c24 86 57 154 140 154h31c18 0 30 0 30 -14c0 -12 -10 -13 -18 -14c-64 -8 -88 -95 -96 -125c-45 -165 -167 -248 -311 -259c-19 -81 -19 -83 -19 -85c0 -14 9 -15 33 -17s43 -2 52 -2c22 0 33 0 33 -15c0 -21 -16 -21 -22 -21
c-24 0 -52 3 -77 3l-77 1l-78 -1c-24 0 -51 -3 -74 -3c-10 0 -17 5 -17 15c0 21 11 21 40 21c93 0 95 7 107 54l12 50c-111 13 -188 72 -188 191c0 25 4 52 9 76c5 17 9 39 9 56c0 27 -6 57 -37 61c-8 1 -18 2 -18 14c0 14 14 14 30 14h31c21 0 80 0 80 -89
c0 -15 -3 -36 -10 -64c-8 -34 -11 -65 -11 -85c0 -64 23 -129 113 -145l109 435c4 15 4 17 4 23c0 12 -1 15 -31 18c-22 2 -31 2 -52 2c-24 0 -35 0 -35 14c0 22 15 22 22 22c24 0 52 -3 77 -3l77 -1l78 1c24 0 51 3 74 3c16 0 17 -12 17 -14c0 -22 -10 -22 -41 -22
c-92 0 -95 -10 -104 -46z" />
    <glyph glyph-name="Omega" unicode="&#x3a9;" horiz-adv-x="880" 
d="M575 69h84c16 0 58 0 67 10c9 12 28 46 30 51c13 25 13 27 16 29c4 7 11 7 14 7c15 0 17 -10 17 -14c0 -10 -57 -115 -67 -134c-10 -17 -11 -18 -34 -18h-147c-18 0 -30 0 -30 15c0 8 10 45 41 103c21 39 50 81 84 130c55 80 119 173 119 267c0 113 -90 160 -182 160
c-138 0 -301 -107 -301 -301c0 -47 12 -107 19 -140c17 -85 17 -115 17 -139c0 -13 0 -34 -5 -61c-6 -33 -7 -34 -35 -34h-147c-29 0 -31 1 -31 33v52c0 15 -1 29 -1 44c0 28 0 37 17 37s17 -11 17 -25c0 -11 0 -58 6 -66c5 -6 54 -6 55 -6h93c-2 60 -22 99 -60 176
c-21 43 -47 99 -47 158c0 170 201 300 403 300c178 0 285 -96 285 -207c0 -105 -94 -198 -160 -265c-62 -61 -104 -104 -137 -162z" />
    <glyph glyph-name="alpha" unicode="&#x3b1;" horiz-adv-x="742" 
d="M547 141c5 -123 22 -123 36 -123c12 0 43 6 57 44c2 6 4 10 17 10c5 0 17 0 17 -12c0 -21 -36 -70 -94 -70c-30 0 -81 12 -104 85c-56 -43 -139 -85 -231 -85c-116 0 -183 82 -183 174c0 140 141 277 288 277c100 0 175 -64 190 -163c2 -9 4 -76 5 -91
c42 54 75 115 93 181c7 22 7 25 21 25c5 0 17 0 17 -13c0 -11 -37 -144 -129 -239zM469 107c-5 53 -3 124 -9 167c-8 62 -31 139 -111 139c-35 0 -92 -17 -138 -77c-52 -69 -66 -178 -66 -207c0 -67 37 -111 103 -111c38 0 123 9 221 89z" />
    <glyph glyph-name="beta" unicode="&#x3b2;" horiz-adv-x="647" 
d="M43 -167l150 600c38 153 175 271 306 271c93 0 150 -61 150 -135c0 -43 -20 -112 -106 -171c45 -32 71 -84 71 -139c0 -135 -138 -271 -288 -271c-76 0 -151 35 -182 109l-67 -265c-6 -24 -6 -26 -21 -26c-3 0 -16 0 -16 12c0 2 0 4 3 15zM365 395c17 -3 31 -4 47 -4
s30 0 50 8c-14 4 -34 4 -41 4c-38 0 -45 -3 -56 -8zM499 378c-39 -15 -65 -15 -88 -15c-34 0 -81 1 -81 31c0 37 63 37 92 37c19 0 42 0 68 -8c4 -1 7 -2 9 -2c5 0 35 26 53 70c16 39 24 86 24 105c0 48 -28 80 -79 80c-129 0 -236 -129 -265 -226c-8 -29 -61 -245 -63 -250
c-4 -20 -4 -36 -4 -38c0 -86 69 -146 161 -146c62 0 112 40 137 73c63 81 68 198 68 204c0 26 -6 60 -32 85z" />
    <glyph glyph-name="gamma" unicode="&#x3b3;" horiz-adv-x="600" 
d="M447 140c45 122 121 265 133 286c3 5 12 5 15 5s16 0 16 -12c0 -4 -2 -8 -5 -13c-47 -87 -68 -134 -82 -165c-21 -48 -77 -183 -81 -218c-8 -72 -27 -146 -39 -185c-16 -52 -27 -52 -34 -52c-13 0 -17 13 -17 24c0 30 30 141 53 216c4 11 7 22 7 72
c0 102 -21 263 -182 263c-67 0 -141 -36 -162 -95c-5 -15 -6 -17 -19 -17c-3 0 -16 0 -16 12c0 3 12 67 73 122c28 26 79 58 138 58c163 0 197 -243 202 -301z" />
    <glyph glyph-name="delta" unicode="&#x3b4;" horiz-adv-x="519" 
d="M295 435c-35 60 -67 121 -67 174c0 61 42 105 117 105c32 0 78 -10 90 -12c54 -11 67 -13 67 -38c0 -20 -18 -42 -42 -42c-15 0 -51 21 -60 26c-22 12 -50 28 -84 28c-41 0 -55 -29 -55 -42c0 -46 75 -128 112 -170c31 -34 83 -91 83 -188c0 -146 -94 -288 -215 -288
c-99 0 -180 69 -180 175c0 105 84 234 234 272zM312 408c-140 -34 -178 -207 -178 -273c0 -83 54 -119 109 -119c84 0 133 135 133 217c0 72 -36 130 -64 175z" />
    <glyph glyph-name="epsilon1" horiz-adv-x="476" 
d="M349 224h-188c-9 -38 -9 -58 -9 -72c0 -114 83 -134 123 -134c41 0 83 19 118 42c6 4 8 5 12 5c15 0 15 -17 15 -20c0 -6 -2 -9 -22 -20c-53 -30 -95 -35 -125 -35c-116 0 -205 79 -205 196c0 152 149 245 282 245h43c19 0 33 0 33 -17c0 -19 -19 -19 -35 -19h-38
c-88 0 -153 -44 -183 -135h179c19 0 34 0 34 -17c0 -19 -19 -19 -34 -19z" />
    <glyph glyph-name="zeta" unicode="&#x3b6;" horiz-adv-x="519" 
d="M359 568c-105 -56 -229 -216 -229 -364c0 -42 10 -76 37 -106c25 -29 52 -37 129 -60c28 -8 74 -22 84 -26c36 -16 63 -49 63 -93c0 -52 -43 -123 -113 -123c-51 0 -109 33 -109 48c0 5 3 14 14 14c5 0 7 -2 13 -6c34 -24 65 -28 82 -28c33 0 50 32 50 59
c0 44 -37 56 -73 66c-127 39 -153 46 -186 79c-41 42 -56 89 -56 144c0 179 148 355 277 421c-10 21 -10 39 -10 51c0 17 0 55 23 55c9 0 16 -8 16 -16c0 -2 -1 -6 -2 -7c-2 -11 -4 -30 -4 -34c0 -18 5 -32 6 -36c26 10 49 10 66 10c37 0 89 -1 89 -31
c0 -37 -68 -37 -99 -37c-18 0 -48 0 -68 20zM487 582v1c-19 4 -23 5 -51 5c-15 0 -29 0 -45 -6c11 -6 13 -6 37 -6c28 0 45 2 59 6z" />
    <glyph glyph-name="eta" unicode="&#x3b7;" horiz-adv-x="588" 
d="M559 272l-109 -438c-3 -14 -12 -48 -48 -48c-16 0 -34 10 -34 32c0 1 0 6 4 21l113 449c5 19 7 28 7 55c0 24 -3 70 -59 70c-78 0 -128 -57 -160 -106c-20 -31 -20 -33 -31 -76c-5 -23 -11 -45 -17 -67c-6 -25 -17 -71 -22 -90c-5 -21 -13 -53 -18 -62s-21 -22 -39 -22
c-16 0 -34 10 -34 32c0 3 6 28 10 41l32 128c5 22 15 63 22 90s16 64 16 83c0 27 -7 49 -33 49c-39 0 -58 -50 -73 -108c-7 -27 -8 -30 -22 -30c-3 0 -17 0 -17 13c0 6 16 66 36 100c16 27 40 53 79 53c31 0 99 -15 106 -90c65 79 127 90 169 90c47 0 76 -14 93 -27
c37 -29 37 -71 37 -87c0 -23 -1 -27 -8 -55z" />
    <glyph glyph-name="theta" unicode="&#x3b8;" horiz-adv-x="544" 
d="M511 487c0 -224 -158 -497 -310 -497c-92 0 -138 98 -138 217c0 229 160 497 310 497c98 0 138 -112 138 -217zM176 365h231c21 84 29 142 29 181c0 19 0 130 -64 130c-59 0 -145 -95 -196 -311zM398 329h-231c-10 -37 -29 -115 -29 -181c0 -54 9 -130 64 -130
c44 0 84 47 115 99c30 49 53 103 81 212z" />
    <glyph glyph-name="iota" unicode="&#x3b9;" horiz-adv-x="422" 
d="M116 208l13 46c5 16 16 59 22 75c6 19 15 67 22 86c6 12 23 26 42 26c20 0 34 -14 34 -32c0 -4 -36 -160 -90 -304c-12 -30 -12 -45 -12 -52c0 -32 13 -35 27 -35c61 0 140 46 165 119c4 15 6 19 19 19c3 0 16 0 16 -13c0 -2 -9 -56 -65 -102c-41 -33 -92 -51 -137 -51
c-67 0 -98 45 -98 85c0 28 32 101 42 133z" />
    <glyph glyph-name="kappa" unicode="&#x3ba;" horiz-adv-x="668" 
d="M265 254c31 0 207 0 207 -106c0 -12 -2 -22 -5 -33c-6 -26 -6 -28 -6 -45c0 -27 8 -52 35 -52c51 0 77 75 88 114c5 19 6 24 20 24c3 0 16 0 16 -13c0 -1 -29 -153 -127 -153c-48 0 -106 32 -106 103c0 10 0 15 3 31c3 12 4 21 4 22c0 77 -138 81 -190 81
c-25 -100 -45 -182 -47 -187c-4 -17 -12 -50 -48 -50c-16 0 -34 10 -34 32c0 7 93 381 98 393c6 12 23 26 42 26c20 0 34 -14 34 -32c0 -5 -11 -49 -18 -73c-4 -18 -6 -26 -18 -73c25 7 52 18 130 76c53 41 121 92 188 92c26 0 42 -13 42 -38c0 -27 -24 -55 -56 -55
c-23 0 -39 14 -39 38c0 5 1 13 3 17c-32 -11 -56 -25 -125 -77c-6 -4 -54 -40 -91 -62z" />
    <glyph glyph-name="lambda" unicode="&#x3bb;" horiz-adv-x="677" 
d="M404 286l-262 -282c-3 -3 -15 -16 -34 -16c-14 0 -34 10 -34 34c0 17 8 25 20 35l295 266l-119 280c-25 57 -44 60 -65 63c-5 1 -15 2 -15 14c0 14 14 14 26 14c106 0 126 -45 133 -63l244 -576c4 -9 14 -32 26 -43c2 -2 5 -5 5 -10c0 -12 -10 -12 -29 -12h-20
c-16 0 -34 0 -53 24c-11 13 -68 158 -118 272z" />
    <glyph glyph-name="mu" unicode="&#x3bc;" horiz-adv-x="694" 
d="M54 -161l139 555c3 12 12 47 48 47c20 0 34 -14 34 -32c0 -4 -10 -42 -15 -63l-14 -56c-10 -39 -12 -46 -22 -90c-14 -54 -17 -67 -17 -93c0 -18 0 -89 82 -89c57 0 101 39 132 83c9 13 9 15 16 40l31 125l21 83c5 20 13 52 16 58c11 19 30 24 41 24c17 0 33 -12 33 -32
c0 -5 -11 -49 -17 -74l-23 -89c-5 -22 -15 -63 -22 -90c-7 -26 -15 -62 -15 -79c0 -27 7 -49 33 -49c42 0 61 59 73 107c7 27 8 31 22 31c3 0 16 0 16 -13c0 -4 -13 -61 -35 -100c-18 -31 -43 -53 -79 -53c-15 0 -84 3 -103 72c-2 -2 -58 -72 -144 -72c-36 0 -76 8 -107 29
c-24 -98 -44 -178 -46 -183c-4 -17 -12 -50 -48 -50c-16 0 -34 10 -34 32c0 1 0 6 4 21z" />
    <glyph glyph-name="nu" unicode="&#x3bd;" horiz-adv-x="572" 
d="M251 412l-93 -372c170 50 304 203 344 345c9 28 16 56 51 56c20 0 34 -14 34 -32c0 -2 -20 -132 -156 -253c-107 -95 -234 -142 -323 -156h-16c-4 0 -19 0 -19 14c0 4 5 24 30 124l50 202c4 13 9 33 9 39c0 9 0 15 -48 15c-12 0 -26 0 -26 14c0 21 12 22 28 23
c19 2 37 3 56 5c7 0 64 5 65 5c16 0 16 -13 16 -14c0 -5 -1 -11 -2 -15z" />
    <glyph glyph-name="xi" unicode="&#x3be;" horiz-adv-x="519" 
d="M271 -69l-102 36c-32 11 -128 45 -128 136c0 42 32 142 145 206c-47 28 -66 67 -66 107c0 65 48 152 186 189c-5 13 -5 35 -5 39c0 17 0 55 23 55c9 0 16 -8 16 -16c0 -2 -1 -6 -2 -7c-2 -11 -4 -23 -4 -34c0 -13 4 -29 4 -30c28 4 50 4 65 4c37 0 93 0 93 -31
c0 -37 -68 -37 -99 -37c-25 0 -50 0 -73 25c-75 -35 -116 -105 -116 -162c0 -24 7 -56 34 -78c41 14 71 14 95 14c35 0 92 0 92 -31c0 -37 -68 -37 -104 -37c-18 0 -61 0 -104 14c-85 -45 -120 -123 -120 -159c0 -58 54 -76 151 -110c11 -3 136 -46 144 -50
c21 -11 42 -31 42 -69c0 -46 -40 -109 -109 -109c-54 0 -124 30 -124 48c0 10 8 14 14 14c4 0 6 0 13 -6c43 -25 82 -28 97 -28c34 0 45 33 45 47c0 25 -13 29 -62 46c-9 3 -34 12 -41 14zM457 582v1c-16 4 -22 5 -53 5c-21 0 -29 0 -47 -5c12 -7 24 -7 40 -7
c40 0 52 4 60 6zM389 313v1c-19 4 -22 5 -53 5c-23 0 -32 0 -58 -6c19 -6 31 -6 50 -6c34 0 47 2 61 6z" />
    <glyph glyph-name="pi" unicode="&#x3c0;" horiz-adv-x="668" 
d="M311 363l-62 -238c-24 -90 -35 -135 -75 -135c-23 0 -35 16 -35 32c0 7 2 11 3 15c3 4 13 25 19 38c30 60 84 178 115 288h-61c-22 0 -84 0 -135 -70c-6 -9 -7 -11 -18 -11c-4 0 -17 0 -17 12c0 9 39 63 65 86c45 42 73 51 114 51h377c17 0 43 0 43 -29
c0 -5 -3 -21 -17 -31c-11 -8 -19 -8 -37 -8h-125c-14 -71 -14 -111 -14 -130c0 -82 18 -139 37 -176c6 -10 8 -14 8 -22c0 -24 -24 -45 -47 -45c-16 0 -29 4 -45 54c-6 22 -11 49 -11 89c0 79 22 170 37 230h-119z" />
    <glyph glyph-name="rho" unicode="&#x3c1;" horiz-adv-x="592" 
d="M54 -161l94 375c35 141 156 227 254 227c88 0 159 -63 159 -169c0 -146 -136 -282 -264 -282c-69 0 -101 47 -110 62c-10 -38 -38 -152 -52 -204c-7 -32 -15 -62 -51 -62c-16 0 -34 10 -34 32c0 1 0 6 4 21zM296 18c31 0 81 16 127 87c31 50 57 161 57 207
c0 72 -39 101 -80 101c-40 0 -90 -29 -126 -82c-29 -44 -35 -67 -65 -190c-3 -12 -9 -34 -9 -36c0 -13 22 -87 96 -87z" />
    <glyph glyph-name="sigma" unicode="&#x3c3;" horiz-adv-x="662" 
d="M585 363h-115c30 -45 30 -90 30 -106c0 -153 -144 -267 -270 -267c-102 0 -171 70 -171 163c0 120 120 278 280 278h256c17 0 43 0 43 -28c0 -7 -3 -21 -16 -32c-11 -8 -20 -8 -37 -8zM231 18c38 0 94 20 136 75c49 67 58 157 58 175c0 76 -52 95 -103 95
c-172 0 -190 -208 -190 -238c0 -71 45 -107 99 -107z" />
    <glyph glyph-name="tau" unicode="&#x3c4;" horiz-adv-x="526" 
d="M343 363l-62 -325c-3 -14 -10 -50 -48 -50c-8 0 -33 5 -33 32c0 6 0 7 5 23l99 320h-89c-23 0 -84 0 -135 -70c-6 -9 -7 -11 -18 -11c-4 0 -17 0 -17 12c0 8 37 61 66 87c52 48 84 50 113 50h315c17 0 43 0 43 -28c0 -40 -42 -40 -53 -40h-186z" />
    <glyph glyph-name="upsilon" unicode="&#x3c5;" horiz-adv-x="632" 
d="M595 363c0 -20 -10 -143 -78 -248c-20 -31 -88 -125 -192 -125s-182 42 -182 138c0 24 4 60 53 181c8 21 18 45 18 69s-8 35 -25 35c-39 0 -83 -40 -107 -122c-3 -11 -4 -16 -18 -16c-3 0 -17 0 -17 13c0 16 45 153 145 153c52 0 95 -35 95 -86c0 -17 -6 -32 -14 -51
c-43 -111 -53 -149 -53 -187c0 -14 0 -51 29 -76c28 -22 69 -23 80 -23c126 0 216 192 216 261c0 48 -30 73 -40 82c-4 3 -14 11 -14 28c0 25 28 53 54 53c2 0 50 0 50 -79z" />
    <glyph glyph-name="phi" unicode="&#x3c6;" horiz-adv-x="686" 
d="M492 681l-59 -239c122 -5 214 -80 214 -185c0 -136 -157 -262 -328 -269l-42 -168c-5 -21 -6 -24 -21 -24c-3 0 -16 0 -16 12c0 3 9 40 21 87c8 31 15 63 23 94c-111 4 -214 72 -214 185c0 134 151 261 328 269l57 229c4 17 5 22 20 22c5 0 17 0 17 -13zM291 17l99 397
c-171 -16 -247 -157 -247 -257c0 -94 71 -136 148 -140zM425 414l-99 -397c162 14 248 148 248 257c0 95 -72 137 -149 140z" />
    <glyph glyph-name="chi" unicode="&#x3c7;" horiz-adv-x="713" 
d="M648 394l-253 -260c23 -75 108 -310 163 -310c18 0 45 14 55 42c3 7 5 12 17 12c5 0 17 0 17 -13c0 -17 -30 -69 -97 -69c-24 0 -99 2 -132 61c-38 66 -71 162 -88 211c-14 -16 -53 -55 -69 -70l-84 -86c-21 -21 -71 -75 -92 -95c-9 -8 -12 -11 -19 -11
c-8 0 -16 8 -16 16c0 6 3 8 10 17l258 264c-46 129 -51 142 -76 195c-14 30 -55 115 -87 115c-15 0 -44 -10 -56 -42c-2 -7 -4 -12 -17 -12c-4 0 -17 0 -17 13c0 14 27 69 98 69c70 0 112 -24 136 -69c32 -60 41 -85 84 -203l242 248c11 11 13 14 21 14c9 0 16 -7 16 -16
c0 -7 -3 -10 -14 -21z" />
    <glyph glyph-name="psi" unicode="&#x3c8;" horiz-adv-x="755" 
d="M544 667l-162 -649c171 0 286 176 286 260c0 44 -24 69 -40 83c-4 3 -14 11 -14 28c0 26 28 53 54 53c3 0 50 -1 50 -79c0 -46 -21 -128 -35 -161c-18 -44 -45 -79 -72 -107c-105 -105 -197 -105 -236 -105l-43 -173c-4 -16 -6 -21 -20 -21c-4 0 -16 0 -16 13
c0 4 38 157 45 183c-75 4 -196 32 -196 147c0 18 0 41 50 167c11 30 19 49 19 72c0 24 -8 35 -25 35c-39 0 -83 -40 -107 -122c-3 -11 -4 -16 -18 -16c-3 0 -17 0 -17 13c0 16 45 153 145 153c51 0 95 -34 95 -86c0 -17 -7 -34 -15 -56c-50 -124 -50 -152 -50 -167
c0 -67 44 -102 126 -112l163 652c5 18 5 22 20 22c3 0 16 0 16 -12c0 -1 0 -5 -3 -15z" />
    <glyph glyph-name="omega" unicode="&#x3c9;" horiz-adv-x="719" 
d="M350 138c4 -15 17 -68 80 -68c112 0 201 126 201 206c0 46 -23 71 -39 85c-5 4 -14 12 -14 28c0 26 28 53 54 53c19 0 50 -18 50 -79c0 -26 -16 -167 -85 -263c-46 -62 -109 -110 -181 -110c-48 0 -87 23 -105 87c-30 -40 -85 -87 -153 -87c-85 0 -123 71 -123 159
c0 158 108 277 108 278c1 0 5 4 12 4c8 0 16 -8 16 -16c0 -3 -1 -6 -7 -14c-21 -29 -90 -122 -90 -214c0 -52 23 -117 98 -117c68 0 118 55 134 75c1 27 8 149 58 149c24 0 27 -22 27 -33c0 -26 -22 -86 -41 -123z" />
    <glyph glyph-name="epsilon" unicode="&#x3b5;" horiz-adv-x="539" 
d="M166 223c-68 -35 -85 -84 -85 -107c0 -25 17 -52 57 -67c36 -14 83 -14 108 -14c106 0 139 17 164 56c3 4 6 8 12 8c8 0 14 -6 14 -13c0 -16 -54 -106 -206 -106c-111 0 -183 57 -183 130c0 63 50 107 87 129c-1 1 -39 27 -39 68c0 80 121 144 243 144c15 0 50 0 93 -18
c19 -8 52 -22 52 -42c0 -17 -18 -32 -32 -32c-8 0 -14 5 -20 9c-45 28 -88 28 -104 28c-101 0 -198 -34 -198 -88c0 -22 15 -41 38 -52c49 20 92 20 106 20c43 0 81 -4 81 -31c0 -37 -59 -37 -91 -37c-29 0 -59 0 -97 15zM210 240c18 -4 38 -4 53 -4c37 0 40 1 55 7
c-20 4 -25 5 -47 5c-30 0 -50 -5 -61 -8z" />
    <glyph glyph-name="theta1" unicode="&#x3d1;" horiz-adv-x="689" 
d="M584 359l33 -6c15 -3 23 -5 23 -15c0 -5 -4 -15 -13 -15c-5 0 -33 5 -50 8c-40 -152 -151 -341 -284 -341c-76 0 -153 25 -153 120c0 22 5 47 10 69c2 9 16 62 19 77l15 57c6 26 8 33 8 51c0 27 -7 49 -33 49c-39 0 -58 -50 -73 -108c-7 -27 -8 -30 -22 -30
c-3 0 -17 0 -17 13c0 6 16 66 36 100c16 27 40 53 79 53c56 0 106 -37 106 -94c0 -13 -6 -39 -11 -58c-5 -18 -12 -49 -15 -57c-22 -90 -27 -108 -27 -135c0 -32 9 -79 82 -79c46 0 82 41 126 118c36 64 57 147 74 214c-78 22 -188 65 -188 172c0 92 79 182 162 182
c103 0 130 -129 130 -211c0 -11 0 -61 -17 -134zM504 378c13 53 26 113 26 171c0 63 -12 127 -61 127c-63 0 -126 -79 -126 -154c0 -97 117 -131 161 -144z" />
    <glyph glyph-name="pi1" unicode="&#x3d6;" horiz-adv-x="949" 
d="M224 431h654c16 0 43 0 43 -28c0 -33 -31 -40 -51 -40h-28c12 -33 12 -65 12 -71c0 -104 -102 -302 -250 -302c-119 0 -120 128 -120 162c-61 -105 -150 -162 -231 -162c-88 0 -103 83 -103 131c0 121 73 210 99 242c-63 0 -75 0 -106 -15c-31 -16 -49 -36 -62 -55
c-7 -9 -8 -11 -19 -11c-4 0 -17 0 -17 12c0 9 37 61 64 86c49 45 79 51 115 51zM807 363h-516c-89 -99 -103 -176 -103 -213c0 -18 4 -92 76 -92c94 0 199 89 238 223c3 10 4 16 18 16c4 0 17 0 17 -13c0 -3 -1 -4 -2 -10c-7 -28 -11 -59 -11 -89c0 -68 21 -127 91 -127
c108 0 205 129 205 234c0 3 -1 37 -13 71z" />
    <glyph glyph-name="rho1" horiz-adv-x="592" 
d="M153 88c-8 -39 -18 -88 -18 -127c0 -24 0 -47 32 -59c26 -9 64 -9 116 -9c111 0 161 0 161 -55c0 -32 -10 -32 -20 -32c-5 0 -17 0 -17 14c0 1 0 4 -2 5c-5 5 -38 5 -41 5c-31 0 -70 -5 -112 -5c-136 0 -156 44 -156 108c0 23 2 48 12 105c12 63 26 126 43 188
c36 128 151 215 251 215c88 0 159 -63 159 -169c0 -145 -135 -282 -265 -282c-47 0 -111 19 -143 98zM297 18c25 0 77 12 126 87c31 50 57 161 57 207c0 72 -39 101 -80 101c-39 0 -93 -28 -133 -93c-35 -59 -54 -156 -54 -196c0 -69 36 -106 84 -106z" />
    <glyph glyph-name="sigma1" unicode="&#x3c2;" horiz-adv-x="439" 
d="M382 5c0 -48 -43 -112 -108 -112c-16 0 -70 7 -70 26c0 3 4 14 14 14c3 0 5 -1 11 -4c19 -7 42 -8 44 -8c30 0 43 29 43 48c0 28 -17 37 -41 48c-31 16 -66 34 -93 46c-55 26 -132 62 -132 153c0 114 131 225 299 225c4 0 114 0 114 -33c0 -7 -6 -20 -21 -20
c-4 0 -6 1 -12 4c-30 12 -55 21 -89 21c-118 0 -230 -75 -230 -163c0 -61 46 -83 120 -118c30 -15 105 -50 119 -61c32 -25 32 -59 32 -66z" />
    <glyph glyph-name="phi1" unicode="&#x3d5;" horiz-adv-x="751" 
d="M316 -9c-20 -119 -29 -170 -36 -185c-8 -15 -28 -22 -39 -22s-34 5 -34 32c0 9 6 28 56 183c-129 28 -194 105 -194 194c0 43 26 147 82 216c19 22 23 22 32 22c3 0 16 0 16 -12c0 -4 -1 -6 -8 -13c-81 -90 -87 -202 -87 -203c0 -74 70 -124 180 -139c6 19 28 89 41 126
c28 75 101 251 239 251c78 0 131 -57 131 -146c0 -158 -165 -305 -345 -305c-11 0 -23 0 -34 1zM329 59c9 -1 23 -1 32 -1c172 0 298 116 298 217c0 52 -37 98 -106 98c-50 0 -103 -28 -148 -89c-48 -65 -56 -110 -76 -225z" />
    <glyph glyph-name="arrowlefttophalf" unicode="&#x21bc;" horiz-adv-x="1138" 
d="M195 275h826c17 0 40 0 40 -25c0 -24 -24 -24 -40 -24h-914c-21 0 -30 0 -30 19c0 6 0 13 9 19c42 23 154 85 221 227c11 22 12 23 30 23c13 0 24 0 24 -14c0 -8 -28 -74 -76 -136c-24 -29 -51 -57 -90 -89z" />
    <glyph glyph-name="arrowleftbothalf" unicode="&#x21bd;" horiz-adv-x="1138" 
d="M1021 226h-826c31 -26 60 -53 86 -84c51 -63 80 -133 80 -141c0 -14 -11 -14 -24 -14c-20 0 -20 1 -26 15c-60 129 -150 194 -216 231c-15 8 -18 10 -18 23c0 19 9 19 30 19h914c17 0 40 0 40 -25c0 -24 -24 -24 -40 -24z" />
    <glyph glyph-name="arrowrighttophalf" unicode="&#x21c0;" horiz-adv-x="1138" 
d="M1031 226h-914c-17 0 -40 0 -40 25c0 24 24 24 40 24h826c-31 26 -60 53 -86 84c-51 63 -80 133 -80 141c0 14 11 14 24 14c20 0 20 -1 26 -15c54 -117 136 -187 216 -231c17 -9 18 -10 18 -23c0 -19 -9 -19 -30 -19z" />
    <glyph glyph-name="arrowrightbothalf" unicode="&#x21c1;" horiz-adv-x="1138" 
d="M943 226h-826c-17 0 -40 0 -40 25c0 24 24 24 40 24h914c21 0 30 0 30 -19c0 -12 -2 -15 -9 -19c-39 -21 -154 -83 -221 -227c-11 -22 -12 -23 -30 -23c-13 0 -24 0 -24 14c0 8 28 74 76 136c24 29 51 57 90 89z" />
    <glyph glyph-name="arrowhookleft" unicode="&#x21a9;" horiz-adv-x="339" 
d="M261 251c0 -15 -9 -25 -30 -25c-65 0 -154 46 -154 135c0 85 86 134 154 134c23 0 30 -12 30 -25c0 -22 -21 -23 -30 -24c-71 -5 -105 -45 -105 -86c0 -39 34 -80 104 -85c10 -1 31 -2 31 -24z" />
    <glyph glyph-name="arrowhookright" unicode="&#x21aa;" horiz-adv-x="339" 
d="M261 360c0 -85 -86 -134 -154 -134c-23 0 -30 12 -30 25c0 22 21 23 30 24c71 5 105 45 105 86c0 39 -34 80 -104 85c-10 1 -31 2 -31 24c0 15 9 25 30 25c65 0 154 -46 154 -135z" />
    <glyph glyph-name="triangleright" unicode="&#x22b2;" 
d="M518 225l-429 -248c-12 -7 -13 -8 -19 -8c-25 0 -25 23 -25 39v485c0 16 0 39 25 39c6 0 7 -1 19 -8l429 -248c15 -9 21 -12 21 -26c0 -13 -7 -17 -21 -25zM466 251l-372 214v-429z" />
    <glyph glyph-name="triangleleft" unicode="&#x22b3;" 
d="M66 276l429 248c12 7 13 8 19 8c25 0 25 -23 25 -39v-485c0 -16 0 -39 -25 -39c-6 0 -7 1 -19 8l-429 248c-14 8 -21 12 -21 26c0 13 8 17 21 25zM118 250l372 -214v429z" />
    <glyph glyph-name="zerooldstyle" unicode="&#xf730;" 
d="M524 212c0 -155 -80 -232 -232 -232c-155 0 -232 80 -232 232c0 161 81 239 232 239c147 0 232 -75 232 -239zM292 8c143 0 143 102 143 214c0 106 0 201 -143 201s-143 -94 -143 -201c0 -112 0 -214 143 -214z" />
    <glyph glyph-name="oneoldstyle" unicode="&#xf731;" 
d="M343 421v-338c0 -33 3 -39 27 -43c13 -2 41 -4 70 -4c34 0 41 0 41 -18s-12 -18 -19 -18c-24 0 -52 2 -76 3c-26 1 -57 1 -83 1c-25 0 -52 -1 -78 -1s-55 -3 -81 -3c-7 0 -19 0 -19 18s8 18 35 18c25 0 54 0 79 4c23 5 24 14 24 43v302c-53 -13 -107 -13 -113 -13
c-22 0 -31 0 -31 18s8 18 34 18c99 1 145 27 162 37c8 6 10 6 13 6c15 0 15 -12 15 -30z" />
    <glyph glyph-name="twooldstyle" unicode="&#xf732;" 
d="M198 77h181c25 0 51 0 76 2c11 1 19 31 23 47c3 10 5 16 18 16c15 0 17 -11 17 -14c0 -4 -28 -110 -31 -117c-3 -11 -10 -11 -29 -11h-357c-22 0 -31 0 -31 19c0 4 0 11 7 15c6 4 195 120 221 135c58 35 125 75 125 140c0 69 -70 106 -160 106c-24 0 -100 -4 -132 -48
c30 -7 32 -31 32 -39c0 -29 -24 -41 -40 -41c-12 0 -41 8 -41 43c0 71 74 121 202 121c136 0 234 -45 234 -141c0 -80 -70 -112 -144 -145c-47 -21 -61 -27 -171 -87v-1z" />
    <glyph glyph-name="threeoldstyle" unicode="&#xf733;" 
d="M279 129h-50c-20 0 -29 0 -29 14c0 7 5 13 10 14c6 1 31 2 47 3c34 2 67 4 101 44c36 44 38 96 38 112c0 80 -57 106 -110 106c-15 0 -100 -2 -141 -53c26 -2 48 -20 48 -51s-23 -50 -50 -50c-19 0 -50 12 -50 52c0 79 86 131 196 131c109 0 202 -56 202 -135
c0 -91 -79 -149 -142 -169c98 -20 173 -90 173 -174c0 -96 -95 -187 -235 -187c-121 0 -225 58 -225 151c0 47 38 57 54 57c26 0 54 -19 54 -54c0 -34 -25 -54 -55 -55c40 -50 106 -67 170 -67c66 0 132 44 132 155c0 88 -42 156 -138 156z" />
    <glyph glyph-name="fouroldstyle" unicode="&#xf734;" 
d="M426 431v-395h81c21 0 30 0 30 -18s-9 -18 -30 -18h-81v-113c0 -28 0 -38 21 -42c1 0 21 -3 57 -3c20 0 29 0 29 -18c0 -6 0 -18 -17 -18c-29 0 -103 4 -132 4c-21 0 -44 -1 -65 -1s-46 -3 -67 -3c-17 0 -17 12 -17 18c0 18 8 18 34 18c73 0 73 6 73 45v113h-264
c-25 0 -31 0 -31 23c0 12 0 14 11 27l317 396c11 13 12 15 29 15c22 0 22 -6 22 -30zM349 365l-263 -329h263v329z" />
    <glyph glyph-name="fiveoldstyle" unicode="&#xf735;" 
d="M163 347v-183c39 34 91 48 141 48c121 0 209 -100 209 -211c0 -121 -111 -215 -240 -215c-116 0 -202 83 -202 176c0 45 37 52 49 52c20 0 49 -14 49 -50c0 -5 0 -48 -55 -48c24 -60 88 -98 157 -98c42 0 84 16 113 52c24 30 36 67 36 134c0 42 -3 90 -24 125
c-20 32 -50 55 -94 55c-37 0 -100 -9 -142 -63c-6 -8 -8 -12 -17 -12c-16 0 -16 11 -16 30v284c0 18 0 27 12 27c2 0 4 0 12 -3c55 -21 108 -27 147 -27c40 0 90 6 147 26c10 4 12 4 13 4c3 0 12 -1 12 -13c0 -18 -53 -57 -83 -72c-43 -23 -86 -31 -126 -31
c-48 0 -95 12 -98 13z" />
    <glyph glyph-name="sixoldstyle" unicode="&#xf736;" 
d="M156 326c19 41 64 99 148 99c115 0 218 -92 218 -221c0 -55 -13 -105 -67 -159c-57 -56 -115 -65 -160 -65c-113 0 -233 81 -233 337c0 213 144 347 292 347c91 0 140 -47 140 -109c0 -30 -20 -48 -47 -48s-46 20 -46 46c0 12 4 42 45 46c-24 33 -73 36 -91 36
c-71 0 -125 -43 -157 -98c-35 -59 -42 -132 -42 -211zM294 12c46 0 81 16 109 58c25 38 25 82 25 134c0 61 -1 103 -29 141c-19 27 -45 52 -99 52c-88 0 -141 -82 -141 -171c0 -49 5 -112 30 -152c19 -32 53 -62 105 -62z" />
    <glyph glyph-name="sevenoldstyle" unicode="&#xf737;" 
d="M279 431h244c21 0 30 0 30 -18c0 -9 -1 -10 -10 -21l-119 -145c-61 -75 -116 -142 -116 -376v-26c0 -15 0 -59 -47 -59c-22 0 -46 10 -46 55c0 149 68 288 163 403l84 103h-227c-25 0 -73 -1 -96 -3c-12 -2 -20 -43 -27 -76c-2 -10 -4 -18 -18 -18c-10 0 -17 5 -17 15
s29 151 34 174c3 16 5 24 19 24c17 0 17 -13 17 -19c13 -8 42 -9 64 -11c21 -1 47 -2 68 -2z" />
    <glyph glyph-name="eightoldstyle" unicode="&#xf738;" 
d="M362 361l56 -33c24 -14 104 -62 104 -159c0 -111 -107 -189 -231 -189c-110 0 -229 60 -229 173c0 93 79 152 157 183c-69 43 -70 44 -85 60c-18 20 -41 55 -41 102c0 95 91 166 200 166c95 0 198 -51 198 -149c0 -72 -56 -119 -129 -154zM331 379c29 15 108 58 108 136
c0 71 -69 120 -148 120c-70 0 -146 -34 -146 -101c0 -46 39 -69 71 -88zM251 318c-51 -22 -129 -77 -129 -165c0 -83 79 -141 171 -141c85 0 169 46 169 123c0 59 -52 90 -69 100z" />
    <glyph glyph-name="nineoldstyle" unicode="&#xf739;" 
d="M428 116c-9 -19 -51 -98 -148 -98c-78 0 -121 32 -157 66c-54 52 -61 111 -61 150c0 85 40 125 68 153c62 59 127 64 165 64c120 0 227 -90 227 -326c0 -207 -135 -339 -278 -339c-100 0 -154 42 -154 107c0 30 20 48 47 48s46 -20 46 -46c0 -16 -6 -40 -42 -46
c26 -26 65 -31 102 -31c72 0 119 46 144 88c37 61 41 137 41 210zM284 46c85 0 141 77 141 168c0 57 -7 107 -22 138c-6 12 -37 70 -108 70c-62 0 -90 -29 -109 -53c-29 -38 -30 -77 -30 -136s2 -97 25 -131c24 -36 55 -56 103 -56z" />
    <glyph glyph-name="period" unicode="." horiz-adv-x="339" 
d="M227 57c0 -30 -25 -57 -58 -57c-27 0 -57 22 -57 58c0 30 25 57 58 57c27 0 57 -22 57 -58z" />
    <glyph glyph-name="comma" unicode="," horiz-adv-x="339" 
d="M211 16c-1 0 -17 -16 -41 -16c-35 0 -58 26 -58 58c0 31 24 57 57 57c46 0 70 -47 70 -109c0 -119 -85 -199 -99 -199c-6 0 -14 7 -14 14c0 5 3 8 7 12c68 64 78 128 78 183z" />
    <glyph glyph-name="less" unicode="&#x3c;" horiz-adv-x="892" 
d="M762 526l-573 -276l574 -276c9 -4 21 -10 21 -25c0 -14 -11 -25 -25 -25c-2 0 -6 0 -20 7l-610 294c-10 5 -21 10 -21 26c0 13 10 20 22 26l611 294c12 6 17 6 18 6c14 0 25 -11 25 -25c0 -13 -10 -20 -22 -26z" />
    <glyph glyph-name="slash" unicode="/" 
d="M501 706l-373 -931c-5 -13 -10 -25 -27 -25c-11 0 -24 9 -24 25c0 4 0 6 6 19l373 931c5 13 10 25 27 25c11 0 24 -9 24 -25c0 -4 0 -6 -6 -19z" />
    <glyph glyph-name="greater" unicode="&#x3e;" horiz-adv-x="892" 
d="M762 224l-611 -294c-12 -6 -17 -6 -18 -6c-14 0 -25 11 -25 25c0 13 10 20 22 26l573 276l-574 276c-9 4 -21 10 -21 25c0 14 11 25 25 25c2 0 6 0 20 -7l610 -294c10 -5 21 -10 21 -26c0 -13 -10 -20 -22 -26z" />
    <glyph glyph-name="star" 
d="M525 287l-171 -80l79 -142c7 -13 19 -35 19 -39c0 -7 -6 -14 -13 -14c-6 0 -7 2 -15 10c-12 11 -83 90 -132 140c-26 -27 -53 -54 -78 -82c-39 -44 -60 -68 -69 -68c-7 0 -13 7 -13 14c0 2 0 4 7 16l91 166c-22 10 -180 83 -184 86c-3 4 -5 7 -5 11c0 9 9 13 14 13
c1 0 3 0 15 -2l184 -36l22 186c2 16 6 25 16 25c12 0 14 -12 16 -26l23 -185c27 6 193 38 198 38s14 -4 14 -13c0 -4 0 -10 -18 -18z" />
    <glyph glyph-name="partialdiff" unicode="&#x2202;" horiz-adv-x="610" 
d="M525 338h1c19 80 24 115 24 158c0 142 -89 189 -164 189c-17 0 -99 0 -149 -75c19 -2 39 -11 39 -38c0 -24 -21 -55 -56 -55s-40 28 -40 36c0 31 45 161 208 161c134 0 246 -98 246 -269c0 -142 -105 -465 -364 -465c-156 0 -210 114 -210 183c0 40 14 81 20 98
c36 90 152 195 292 195c94 0 139 -60 153 -118zM272 12c168 0 233 213 233 280c0 60 -32 136 -129 136c-113 0 -175 -92 -193 -138c-10 -25 -37 -123 -37 -162c0 -31 13 -116 126 -116z" />
    <glyph glyph-name="A" unicode="A" horiz-adv-x="859" 
d="M206 120l367 570c9 14 15 23 34 23s21 -7 24 -28l88 -617c3 -24 5 -32 63 -32c16 0 28 0 28 -15c0 -13 -7 -21 -20 -21c-18 0 -39 2 -57 3c-18 0 -41 1 -59 1c-29 0 -100 -4 -129 -4c-13 0 -16 10 -16 14c0 22 14 22 26 22c59 0 65 16 69 26l-24 166h-286l-80 -124
c-5 -9 -15 -26 -15 -38c0 -27 36 -29 44 -30c4 0 17 -1 17 -14c0 -22 -15 -22 -20 -22c-30 0 -71 4 -103 4c-27 0 -60 -4 -86 -4c-5 0 -14 4 -14 15c0 20 13 20 23 21c59 4 91 30 126 84zM338 264h257l-47 327z" />
    <glyph glyph-name="B" unicode="B" horiz-adv-x="863" 
d="M190 78l133 531c4 15 4 20 4 22c0 10 -2 12 -23 14c-18 2 -37 2 -38 2c-20 0 -32 0 -32 14c0 22 13 22 32 22h364c130 0 207 -66 207 -142c0 -86 -101 -162 -222 -184c106 -11 171 -72 171 -143c0 -99 -129 -214 -297 -214h-387c-18 0 -30 0 -30 15c0 21 13 21 30 21
c77 0 79 8 88 42zM350 369h164c134 0 225 92 225 173c0 38 -23 105 -125 105h-152c-42 0 -43 -3 -51 -34zM302 36h161c121 0 222 86 222 185c0 58 -36 120 -130 120h-212l-69 -274c-4 -15 -4 -20 -4 -21c0 -9 1 -10 32 -10z" />
    <glyph glyph-name="C" unicode="C" horiz-adv-x="819" 
d="M843 690l-62 -251c-5 -19 -5 -22 -21 -22c-5 0 -18 0 -18 13c0 6 3 13 3 41c0 112 -68 196 -184 196c-95 0 -200 -46 -269 -123c-115 -126 -122 -284 -122 -313c0 -158 118 -215 224 -215c121 0 261 84 302 221c3 11 5 16 18 16c5 0 17 0 17 -13c0 -8 -22 -95 -101 -162
c-103 -87 -199 -98 -253 -98c-179 0 -307 119 -307 282c0 226 238 441 481 441c123 0 179 -77 188 -89l73 77c9 10 11 12 18 12c10 0 13 -8 13 -13z" />
    <glyph glyph-name="D" unicode="D" horiz-adv-x="934" 
d="M189 78l133 531c4 15 4 20 4 22c0 10 -2 12 -22 14c-18 2 -22 2 -38 2c-22 0 -33 0 -33 14c0 22 12 22 32 22h364c163 0 264 -115 264 -261c0 -218 -213 -422 -435 -422h-357c-18 0 -30 0 -30 14c0 22 12 22 30 22c78 0 80 8 88 42zM413 613l-137 -546
c-4 -15 -4 -20 -4 -21c0 -9 1 -10 32 -10h136c123 0 209 64 248 109c100 114 110 287 110 310c0 136 -94 192 -206 192h-128c-42 0 -43 -3 -51 -34z" />
    <glyph glyph-name="E" unicode="E" horiz-adv-x="838" 
d="M792 231l-94 -213c-8 -18 -9 -18 -34 -18h-565c-18 0 -30 0 -30 14c0 22 12 22 30 22c78 0 79 7 89 46l131 523c1 5 4 15 4 22c0 10 -2 12 -22 14c-18 2 -22 2 -38 2c-22 0 -33 0 -33 14c0 22 12 22 32 22h550c25 0 32 0 29 -30l-18 -174c-2 -17 -3 -26 -18 -26
c-14 0 -17 9 -17 17c0 5 4 35 4 61c0 89 -33 116 -164 116h-163c-42 0 -43 -3 -51 -34l-60 -238h105c85 0 115 13 136 91c6 21 7 26 20 26c9 0 17 -4 17 -14c0 -1 0 -3 -3 -15l-55 -219c-4 -17 -5 -22 -19 -22c-16 0 -17 12 -17 14s0 3 3 12c4 17 7 34 7 45
c0 33 -12 46 -91 46h-112l-67 -268c-4 -15 -4 -20 -4 -21c0 -9 1 -10 32 -10h170c163 0 214 50 279 194c12 26 13 27 15 29c4 4 9 4 11 4c13 0 17 -8 17 -14c0 -1 0 -5 -6 -18z" />
    <glyph glyph-name="F" unicode="F" horiz-adv-x="724" 
d="M342 322l-62 -249c-3 -11 -3 -14 -3 -18c0 -14 10 -15 31 -17c25 -2 50 -2 52 -2c23 0 35 0 35 -14c0 -22 -15 -22 -22 -22c-25 0 -53 3 -79 3l-77 1c-29 0 -103 -4 -132 -4c-9 0 -16 5 -16 15c0 21 13 21 30 21c78 0 79 7 89 46l131 523c1 5 4 15 4 22
c0 10 -2 12 -23 14c-18 2 -37 2 -38 2c-20 0 -32 0 -32 14c0 22 13 22 32 22h534c25 0 32 0 29 -30l-18 -174c-2 -17 -3 -26 -18 -26c-14 0 -17 9 -17 17s4 29 4 62c0 83 -25 115 -158 115h-153c-42 0 -43 -3 -51 -34l-63 -251h100c85 0 114 15 134 93c5 18 6 24 20 24
c10 0 17 -5 17 -15c0 -2 -3 -17 -4 -20l-54 -212c-5 -18 -6 -23 -19 -23c-10 0 -17 5 -17 15c0 3 1 6 3 12c7 28 7 30 7 45c0 33 -13 45 -89 45h-107z" />
    <glyph glyph-name="G" unicode="G" horiz-adv-x="889" 
d="M843 690l-62 -251c-5 -19 -5 -22 -21 -22c-5 0 -18 0 -18 13c0 6 3 13 3 41c0 112 -68 196 -184 196c-56 0 -163 -16 -266 -118c-74 -75 -124 -209 -124 -316c0 -169 131 -217 231 -217c78 0 171 27 200 88c4 10 15 55 22 83c7 26 7 28 7 32c0 12 -1 16 -33 19
c-19 2 -39 2 -58 2c-25 0 -36 0 -36 14c0 22 15 22 22 22c25 0 54 -2 79 -3s58 -1 83 -1c35 0 77 4 110 4c8 0 15 -5 15 -15c0 -21 -15 -21 -22 -21c-59 -1 -60 -2 -72 -47c-3 -12 -17 -72 -22 -90l-19 -77c-5 -21 -7 -25 -16 -25c-12 0 -39 36 -49 58
c-52 -56 -145 -79 -233 -79c-192 0 -310 127 -310 282c0 226 238 441 481 441c123 0 179 -77 188 -89l73 77c9 10 11 12 18 12c10 0 13 -8 13 -13z" />
    <glyph glyph-name="H" unicode="H" horiz-adv-x="935" 
d="M841 602l-132 -527c-1 -6 -4 -16 -4 -22c0 -10 0 -12 22 -15c18 -2 22 -2 38 -2c23 0 33 0 33 -15c0 -21 -16 -21 -21 -21c-19 0 -44 2 -64 3c-17 1 -52 1 -69 1c-29 0 -101 -4 -130 -4c-9 0 -16 5 -16 15c0 21 13 21 30 21c78 0 80 8 88 42l65 259h-335l-66 -262
c-4 -15 -4 -21 -4 -22c0 -10 0 -12 22 -15c18 -2 22 -2 38 -2c23 0 33 0 33 -15c0 -21 -16 -21 -21 -21c-19 0 -44 2 -64 3c-17 1 -52 1 -69 1c-29 0 -101 -4 -130 -4c-9 0 -16 5 -16 15c0 21 13 21 30 21c78 0 80 8 88 42l133 531c4 15 4 20 4 22c0 10 -2 12 -23 14
c-18 2 -37 2 -38 2c-20 0 -32 0 -32 14c0 22 15 22 21 22c19 0 43 -2 63 -3c17 -1 52 -1 69 -1c29 0 102 4 131 4c13 0 16 -10 16 -14c0 -22 -13 -22 -30 -22c-77 0 -79 -8 -88 -42l-58 -232h335l59 236c4 15 4 21 4 22c0 10 -2 12 -23 14c-18 2 -37 2 -38 2
c-20 0 -32 0 -32 14c0 22 15 22 21 22c19 0 43 -2 63 -3c17 -1 52 -1 69 -1c29 0 102 4 131 4c13 0 16 -10 16 -14c0 -22 -12 -22 -34 -22c-74 0 -76 -8 -85 -45z" />
    <glyph glyph-name="I" unicode="I" horiz-adv-x="506" 
d="M413 604l-133 -529c-4 -15 -4 -21 -4 -22c0 -9 0 -13 23 -15c20 -2 41 -2 43 -2c20 0 32 0 32 -14c0 -22 -15 -22 -21 -22c-22 0 -47 3 -69 3l-69 1c-30 0 -105 -4 -135 -4c-16 0 -16 13 -16 14c0 22 10 22 37 22c75 0 78 10 86 43l133 531c2 8 4 15 4 21
c0 11 -7 12 -27 14c-17 2 -37 2 -38 2c-22 0 -33 0 -33 14c0 22 15 22 21 22c22 0 47 -3 69 -3l69 -1c22 0 46 1 68 1c21 0 46 3 67 3c9 0 16 -6 16 -15c0 -21 -12 -21 -37 -21c-75 0 -77 -9 -86 -43z" />
    <glyph glyph-name="J" unicode="J" horiz-adv-x="632" 
d="M597 606l-116 -463c-25 -100 -136 -163 -234 -163c-84 0 -145 45 -145 110c0 56 40 78 67 78c22 0 46 -15 46 -43c0 -18 -13 -65 -71 -65c23 -49 86 -52 100 -52c65 0 129 63 148 138l115 458c4 14 4 16 4 23c0 12 -3 15 -32 18c-25 2 -29 2 -52 2c-30 0 -39 0 -39 15
c0 21 15 21 22 21c25 0 54 -2 79 -3c22 0 56 -1 77 -1c24 0 84 4 108 4c7 0 15 -4 15 -15c0 -21 -14 -21 -26 -21c-56 0 -57 -6 -66 -41z" />
    <glyph glyph-name="K" unicode="K" horiz-adv-x="959" 
d="M572 402l171 -333c17 -32 48 -33 66 -33c10 0 23 0 23 -15c0 -14 -7 -21 -20 -21c-28 0 -68 4 -98 4c-28 0 -100 -4 -128 -4c-16 0 -17 13 -17 14c0 22 14 22 26 22c18 0 46 3 46 26c0 5 0 6 -7 19l-145 281l-166 -117c-37 -147 -47 -184 -47 -192c0 -10 0 -13 23 -15
c18 -2 37 -2 38 -2c20 0 32 0 32 -14c0 -22 -15 -22 -21 -22c-19 0 -44 2 -64 3c-17 1 -52 1 -69 1c-29 0 -101 -4 -130 -4c-16 0 -16 13 -16 14c0 22 12 22 30 22c78 0 80 8 88 42l133 531c4 15 4 20 4 22c0 10 -2 12 -22 14c-18 2 -22 2 -38 2c-22 0 -33 0 -33 14
c0 22 15 22 21 22c19 0 43 -2 63 -3c17 -1 52 -1 69 -1c29 0 102 4 131 4c10 0 16 -6 16 -15c0 -21 -14 -21 -30 -21c-78 0 -79 -8 -88 -42l-79 -315l417 294c13 9 44 31 44 49c0 11 -13 13 -25 14c-15 1 -15 13 -15 14c0 22 15 22 21 22c27 0 94 -4 121 -4c22 0 48 3 69 3
c6 0 13 -5 13 -13c0 -20 -12 -21 -23 -22c-71 -6 -133 -50 -265 -143l-101 -71c-23 -16 -24 -17 -24 -19c0 -1 2 -4 6 -12z" />
    <glyph glyph-name="L" unicode="L" horiz-adv-x="783" 
d="M412 601l-134 -534c-4 -15 -4 -20 -4 -21c0 -9 1 -10 32 -10h113c183 0 227 111 265 206c6 16 8 21 20 21c15 0 17 -11 17 -14c0 -8 -75 -202 -85 -229c-8 -19 -9 -20 -34 -20h-503c-18 0 -30 0 -30 15c0 21 13 21 30 21c77 0 79 8 88 42l133 531c4 15 4 20 4 22
c0 10 -2 12 -23 14c-18 2 -37 2 -38 2c-20 0 -32 0 -32 14c0 22 15 22 21 22c20 0 44 -3 65 -3s48 -1 69 -1c25 0 55 0 80 1c24 1 51 3 74 3c16 0 17 -13 17 -14c0 -22 -10 -22 -41 -22c-92 0 -95 -10 -104 -46z" />
    <glyph glyph-name="M" unicode="M" horiz-adv-x="1089" 
d="M1021 602l-132 -527c-1 -6 -4 -16 -4 -22c0 -10 0 -13 23 -15c18 -2 37 -2 38 -2c20 0 32 0 32 -14c0 -22 -15 -22 -21 -22c-28 0 -99 4 -127 4c-20 0 -43 -1 -63 -1s-43 -3 -62 -3c-16 0 -16 13 -16 14c0 22 12 22 30 22c78 0 80 8 88 42l141 566l-1 1l-420 -623
c-7 -11 -15 -22 -29 -22c-15 0 -17 9 -20 27l-107 608h-1l-133 -532c-4 -16 -4 -21 -4 -25c0 -14 0 -40 64 -42c9 0 22 -1 22 -14c0 -22 -15 -22 -20 -22c-24 0 -82 4 -106 4c-32 0 -74 -4 -104 -4c-14 0 -15 13 -15 14c0 21 13 22 21 22c80 3 95 37 104 71l126 502
c4 15 4 21 4 22c0 10 -2 12 -22 14c-18 2 -22 2 -38 2c-22 0 -34 0 -34 14c0 22 13 22 33 22h143c30 0 30 -1 35 -27l99 -563l386 570c13 19 14 20 43 20h136c18 0 30 0 30 -15c0 -21 -13 -21 -34 -21c-74 0 -76 -8 -85 -45z" />
    <glyph glyph-name="N" unicode="N" horiz-adv-x="904" 
d="M834 574l-139 -553c-5 -18 -5 -21 -21 -21c-10 0 -14 1 -22 17l-292 598l-128 -512c-4 -16 -4 -21 -4 -25c0 -14 0 -40 63 -42c11 0 23 -1 23 -15c0 -16 -10 -21 -20 -21c-24 0 -82 4 -106 4c-34 0 -71 -4 -104 -4c-7 0 -15 4 -15 15c0 20 14 21 21 21c78 3 95 33 104 71
l134 535c-21 4 -43 5 -64 5s-33 0 -33 14c0 22 13 22 32 22h137c24 0 26 0 34 -17l254 -520l109 436c3 11 4 16 4 24c0 25 -17 40 -64 41c-9 0 -22 1 -22 14c0 22 15 22 20 22c24 0 82 -4 106 -4c34 0 71 4 104 4c10 0 15 -8 15 -14c0 -21 -15 -22 -20 -22
c-80 -2 -96 -35 -106 -73z" />
    <glyph glyph-name="O" unicode="O" horiz-adv-x="868" 
d="M829 425c0 -227 -231 -445 -469 -445c-172 0 -291 113 -291 274c0 225 231 449 470 449c177 0 290 -121 290 -278zM368 13c78 0 169 41 239 121c93 107 124 253 124 326c0 145 -96 211 -200 211c-89 0 -186 -49 -253 -131c-92 -114 -106 -256 -106 -307
c0 -148 90 -220 196 -220z" />
    <glyph glyph-name="P" unicode="P" horiz-adv-x="727" 
d="M341 310l-59 -235c-4 -15 -4 -21 -4 -22c0 -10 0 -13 23 -15c18 -2 37 -2 38 -2c20 0 32 0 32 -14c0 -22 -15 -22 -21 -22c-19 0 -44 2 -64 3c-17 1 -52 1 -69 1c-29 0 -101 -4 -130 -4c-16 0 -16 13 -16 14c0 22 12 22 30 22c78 0 79 7 89 46l132 527c4 15 4 20 4 22
c0 10 -2 12 -22 14c-18 2 -22 2 -38 2c-22 0 -33 0 -33 14c0 22 12 22 32 22h350c137 0 219 -72 219 -156c0 -109 -143 -217 -312 -217h-181zM413 613l-68 -271h160c72 0 129 19 165 51c50 45 62 124 62 155c0 71 -58 99 -151 99h-117c-42 0 -43 -3 -51 -34z" />
    <glyph glyph-name="Q" unicode="Q" horiz-adv-x="899" 
d="M465 -60v54c-52 -13 -86 -14 -105 -14c-172 0 -291 113 -291 274c0 225 231 449 470 449c177 0 290 -121 290 -278c0 -177 -143 -354 -321 -417c18 -80 39 -97 79 -97c34 0 100 20 124 90c1 4 4 13 14 13c8 0 14 -7 14 -14c0 -22 -58 -194 -179 -194
c-82 0 -95 69 -95 134zM292 25c-3 7 -4 8 -4 26c0 53 55 100 111 100c59 0 85 -42 101 -105c183 91 232 306 232 406c0 146 -92 219 -201 219c-93 0 -190 -55 -253 -132c-91 -113 -112 -246 -112 -310c0 -134 74 -186 126 -204zM465 30c-3 77 -30 93 -66 93
c-42 0 -83 -34 -83 -72c0 -39 35 -39 51 -39c39 0 76 10 98 18z" />
    <glyph glyph-name="R" unicode="R" horiz-adv-x="860" 
d="M413 613l-64 -257h129c69 0 131 16 172 48c47 36 66 99 66 140c0 103 -115 103 -208 103h-64c-22 -3 -24 -6 -31 -34zM594 340c22 -8 49 -21 68 -42c28 -30 28 -62 28 -74c0 -10 0 -20 -4 -47s-10 -79 -10 -104c0 -54 19 -65 45 -65c42 0 79 41 93 85c3 10 5 17 18 17
c15 0 17 -11 17 -14c0 -18 -40 -116 -132 -116c-74 0 -147 31 -147 110c0 17 4 32 16 78c5 23 14 57 14 70c0 47 -37 90 -123 90h-136l-63 -253c-4 -15 -4 -21 -4 -22c0 -10 0 -12 22 -15c18 -2 22 -2 38 -2c23 0 33 0 33 -15c0 -21 -16 -21 -21 -21c-21 0 -46 3 -67 3
s-44 1 -64 1c-18 0 -47 -1 -66 -1c-20 0 -43 -3 -62 -3c-9 0 -16 5 -16 15c0 21 13 21 30 21c78 0 80 8 88 42l133 531c4 15 4 20 4 22c0 10 -2 12 -23 14c-18 2 -37 2 -38 2c-20 0 -32 0 -32 14c0 22 13 22 32 22h307c145 0 247 -68 247 -154c0 -89 -106 -161 -225 -189z
" />
    <glyph glyph-name="S" unicode="S" horiz-adv-x="701" 
d="M710 690l-52 -212c-4 -17 -5 -22 -20 -22c-5 0 -17 0 -17 14c0 9 4 32 4 45c0 95 -52 156 -160 156c-104 0 -193 -80 -193 -159c0 -57 42 -82 67 -91c9 -3 42 -11 63 -16c129 -30 144 -34 179 -70c22 -23 40 -63 40 -107c0 -118 -122 -248 -273 -248
c-60 0 -138 12 -191 70c-11 -12 -37 -44 -48 -56c-13 -13 -14 -14 -20 -14c-10 0 -14 6 -14 12c0 5 2 11 3 15l51 200c4 18 5 20 19 20c4 0 16 0 16 -13c0 -1 0 -2 -1 -6c-4 -18 -6 -40 -6 -50c0 -111 106 -142 194 -142c114 0 199 95 199 176c0 75 -61 97 -93 105
c-15 4 -65 15 -85 20c-68 16 -105 25 -139 65c-30 37 -33 77 -33 92c0 115 125 229 266 229c61 0 124 -18 162 -71l49 57c13 13 14 14 20 14c10 0 13 -8 13 -13z" />
    <glyph glyph-name="T" unicode="T" horiz-adv-x="674" 
d="M486 605l-132 -525c-4 -14 -4 -16 -4 -23c0 -12 2 -16 36 -19c19 -1 39 -2 58 -2c31 0 41 0 41 -14c0 -22 -15 -22 -23 -22c-27 0 -57 2 -84 3c-28 1 -62 1 -90 1s-58 -1 -86 -1s-58 -3 -86 -3c-15 0 -17 11 -17 14c0 22 9 22 45 22c105 0 108 10 117 47l132 526
c4 15 4 20 4 21c0 9 -1 10 -31 10h-42c-152 0 -185 -10 -243 -170c-6 -19 -8 -24 -21 -24c-15 0 -17 10 -17 14c0 5 4 14 5 18l63 177c7 21 9 21 34 21h615c18 0 30 0 30 -14l-27 -191c-2 -16 -4 -25 -19 -25c-10 0 -17 5 -17 15l2 11c7 52 7 65 7 81c0 36 -2 65 -47 79
c-25 8 -51 8 -112 8c-20 0 -55 0 -60 -1c-22 -2 -24 -5 -31 -34z" />
    <glyph glyph-name="U" unicode="U" horiz-adv-x="778" 
d="M707 574l-88 -351c-33 -131 -167 -243 -305 -243c-120 0 -222 74 -222 198c0 20 0 28 10 69l57 229l22 88c6 22 16 61 16 67c0 10 -2 12 -23 14c-18 2 -37 2 -38 2c-20 0 -32 0 -32 14c0 22 15 22 21 22c19 0 43 -2 63 -3c17 -1 52 -1 69 -1c29 0 102 4 131 4
c13 0 16 -10 16 -14c0 -22 -13 -22 -30 -22c-77 0 -79 -8 -88 -42l-97 -385c-6 -23 -9 -47 -9 -71c0 -99 71 -133 138 -133c82 0 199 51 255 179c13 31 86 332 101 397c1 4 2 9 2 14c0 25 -17 40 -64 41c-9 0 -22 1 -22 14c0 22 15 22 20 22c30 0 72 -4 105 -4s71 4 103 4
c10 0 15 -8 15 -14c0 -21 -15 -22 -20 -22c-80 -2 -96 -34 -106 -73z" />
    <glyph glyph-name="V" unicode="V" horiz-adv-x="674" 
d="M715 564l-382 -562c-10 -15 -15 -22 -34 -22s-20 6 -24 27l-109 608c-5 26 -6 32 -62 32c-11 0 -25 0 -25 14c0 19 11 22 20 22c25 0 86 -4 111 -4c29 0 100 4 129 4c16 0 17 -13 17 -14c0 -22 -13 -22 -30 -22c-7 0 -63 0 -63 -27c0 -4 0 -6 2 -15l91 -511l328 484
c11 16 18 26 18 40c0 15 -9 27 -41 29c-4 0 -18 1 -18 14c0 19 11 22 20 22c30 0 72 -4 104 -4c25 0 56 4 80 4c12 0 14 -11 14 -14c0 -20 -11 -21 -23 -22c-54 -4 -86 -29 -123 -83z" />
    <glyph glyph-name="W" unicode="W" horiz-adv-x="1074" 
d="M1036 565l-343 -564c-7 -12 -13 -21 -30 -21c-15 0 -20 5 -22 26l-55 508l-312 -514c-6 -11 -13 -20 -30 -20c-18 0 -19 7 -21 27l-67 609c-3 25 -3 31 -50 31c-16 0 -28 0 -28 15c0 17 10 21 20 21c30 0 72 -4 105 -4c29 0 100 4 129 4c13 0 16 -10 16 -14
c0 -22 -14 -22 -27 -22c-8 0 -70 0 -70 -29c0 -1 2 -11 2 -15l53 -490l275 452c-4 31 -6 59 -7 65c-3 10 -8 17 -51 17c-13 0 -26 0 -26 14c0 22 15 22 20 22c23 0 82 -4 105 -4c20 0 46 0 66 1c19 1 43 3 62 3c16 0 17 -13 17 -14c0 -22 -14 -22 -27 -22
c-12 0 -70 -1 -70 -29l55 -505l282 463c4 7 15 25 15 36c0 28 -33 34 -55 35c-4 0 -18 1 -18 14c0 22 16 22 21 22c33 0 76 -4 111 -4c24 0 53 4 76 4c8 0 14 -7 14 -14c0 -20 -12 -21 -23 -22c-49 -4 -73 -29 -94 -56z" />
    <glyph glyph-name="X" unicode="X" horiz-adv-x="936" 
d="M556 382l161 -318c9 -17 14 -28 72 -28c16 0 29 0 29 -14c0 -22 -16 -22 -21 -22c-16 0 -37 2 -54 3c-18 1 -42 1 -59 1c-21 0 -44 -1 -65 -1s-46 -3 -67 -3c-16 0 -17 13 -17 14c0 21 13 21 22 22c35 3 53 19 53 25c0 1 -1 3 -6 13l-121 237l-203 -199
c-22 -22 -35 -35 -35 -51c0 -21 21 -24 31 -25c6 0 18 -1 18 -15c0 -21 -16 -21 -21 -21c-17 0 -39 2 -57 3c-17 1 -42 1 -59 1c-30 0 -64 -4 -93 -4c-11 0 -14 10 -14 14c0 21 11 21 25 22c90 4 131 46 253 167c18 19 65 64 84 82l56 56l-140 276c-10 20 -15 30 -73 30
c-16 0 -29 0 -29 14c0 22 16 22 21 22c16 0 37 -2 54 -3c18 -1 42 -1 59 -1c21 0 44 1 65 1s46 3 67 3c16 0 17 -13 17 -14c0 -21 -14 -22 -21 -22c-34 -2 -53 -18 -53 -25c0 -4 3 -11 5 -14l101 -196c37 38 164 162 172 169c10 10 25 26 25 41c0 22 -25 24 -34 25
c-15 1 -15 13 -15 14c0 19 12 22 20 22c26 0 90 -4 116 -4c30 0 65 4 94 4c3 0 14 -3 14 -15c0 -20 -12 -20 -25 -21c-90 -5 -129 -44 -257 -170z" />
    <glyph glyph-name="Y" unicode="Y" horiz-adv-x="671" 
d="M678 563l-266 -280c-10 -10 -10 -12 -14 -27c-2 -4 -23 -91 -31 -123c-7 -27 -19 -75 -19 -81c0 -10 3 -12 22 -14c18 -2 22 -2 38 -2c22 0 34 0 34 -14c0 -22 -16 -22 -22 -22c-21 0 -46 3 -67 3s-44 1 -64 1c-18 0 -47 -1 -66 -1c-20 0 -43 -3 -62 -3
c-9 0 -16 5 -16 15c0 21 13 21 30 21c78 1 79 4 92 55l45 183l-155 342c-10 22 -14 31 -72 31c-14 0 -27 0 -27 14c0 19 12 22 20 22c25 0 89 -4 114 -4c30 0 104 4 134 4c16 0 16 -13 16 -14c0 -22 -13 -22 -26 -22c-6 0 -54 0 -54 -18c0 -1 0 -3 7 -17l132 -293l250 261
c6 6 11 13 17 22c7 9 13 17 13 26c0 6 0 17 -29 19c-5 0 -18 1 -18 14c0 22 15 22 20 22c30 0 72 -4 104 -4c26 0 56 4 81 4c8 0 14 -7 14 -14c0 -21 -12 -21 -23 -22c-13 -1 -50 -3 -91 -31c-22 -15 -42 -33 -61 -53z" />
    <glyph glyph-name="Z" unicode="Z" horiz-adv-x="778" 
d="M783 644l-583 -604h191c174 0 225 70 271 207c7 22 9 26 22 26c16 0 16 -13 16 -14s0 -3 -4 -16l-72 -223c-6 -19 -7 -20 -33 -20h-484c-18 0 -27 0 -27 11c0 16 10 26 17 33l583 603h-180c-129 0 -207 -37 -255 -178c-3 -10 -5 -16 -18 -16s-17 9 -17 14c0 3 0 4 4 16
l56 180c6 19 7 20 33 20h467c19 0 27 0 27 -11c0 -13 -6 -20 -14 -28z" />
    <glyph glyph-name="flat" horiz-adv-x="462" 
d="M111 720v-298c47 38 117 38 123 38c74 0 150 -53 150 -139c0 -135 -112 -227 -189 -281c-20 -14 -86 -60 -101 -60c-17 0 -17 10 -17 30v709c0 21 0 31 17 31s17 -10 17 -30zM111 338v-310c87 67 184 170 184 293c0 16 -4 93 -75 93c-38 0 -65 -10 -79 -17
c-30 -17 -30 -36 -30 -59z" />
    <glyph glyph-name="natural" horiz-adv-x="462" 
d="M364 490v-674c0 -18 0 -32 -20 -32c-14 0 -14 13 -14 30v178l-201 -75c-14 -6 -16 -6 -18 -6c-14 0 -14 13 -14 30v757c0 18 0 32 20 32c14 0 14 -13 14 -30v-261l201 75c14 6 16 6 18 6c14 0 14 -13 14 -30zM131 8l199 74v341l-199 -74v-341z" />
    <glyph glyph-name="sharp" horiz-adv-x="462" 
d="M305 -21l-149 -48v-115c0 -18 0 -32 -20 -32c-14 0 -14 13 -14 31v105c-6 -2 -24 -9 -31 -9c-14 0 -14 13 -14 30v28c0 23 0 26 13 31c12 4 17 6 32 10v341c-6 -2 -24 -9 -31 -9c-14 0 -14 13 -14 30v28c0 23 0 26 13 31c12 4 17 6 32 10v184c0 18 0 32 20 32
c14 0 14 -12 14 -30v-175l149 48v184c0 18 0 32 20 32c14 0 14 -13 14 -31v-174c6 2 24 9 31 9c14 0 14 -13 14 -30v-29c0 -21 0 -26 -13 -30l-32 -10v-341c6 2 24 9 31 9c14 0 14 -13 14 -30v-29c0 -21 0 -26 -13 -30l-32 -10v-115c0 -18 0 -32 -20 -32
c-14 0 -14 12 -14 30v106zM305 410l-149 -48v-341l149 48v341z" />
    <glyph glyph-name="slurbelow" unicode="&#x2323;" horiz-adv-x="1138" 
d="M1061 358c0 -16 -78 -104 -183 -156c-107 -55 -212 -72 -309 -72c-143 0 -254 40 -327 81c-101 57 -165 134 -165 147c0 10 9 17 17 17c7 0 8 -1 23 -18c97 -117 261 -174 452 -174c141 0 335 32 455 177c8 10 12 15 20 15s17 -7 17 -17z" />
    <glyph glyph-name="slurabove" unicode="&#x2322;" horiz-adv-x="1138" 
d="M1061 142c0 -10 -9 -17 -17 -17c-5 0 -7 1 -8 3c-3 2 -4 3 -15 16c-115 144 -294 187 -452 187c-55 0 -153 -3 -260 -47c-118 -47 -171 -114 -202 -152c-1 -3 -5 -7 -13 -7s-17 7 -17 17c0 13 63 98 180 165c54 30 164 78 312 78c113 0 217 -28 303 -74
c117 -62 189 -156 189 -169z" />
    <glyph glyph-name="lscript" unicode="&#x2113;" horiz-adv-x="478" 
d="M119 137l-38 -33c-7 -7 -34 -32 -41 -32c-8 0 -17 11 -17 18c0 6 1 7 17 21c10 8 67 59 74 66c0 49 0 84 15 151c11 50 34 132 78 217c16 30 83 159 166 159c66 0 66 -72 66 -87c0 -174 -189 -356 -244 -408c-12 -11 -12 -13 -13 -23c-2 -19 -2 -21 -2 -34
c0 -19 0 -136 68 -136c45 0 91 33 134 71c15 15 17 15 22 15c9 0 16 -13 16 -19c0 -12 -52 -49 -69 -59c-36 -23 -72 -36 -104 -36c-85 0 -118 84 -128 149zM191 251c24 23 79 77 130 149c86 123 86 212 86 224c0 36 -12 52 -35 52c-84 0 -163 -323 -181 -425z" />
    <glyph glyph-name="a" unicode="a" horiz-adv-x="619" 
d="M422 382c6 28 29 40 46 40c16 0 34 -10 34 -32c0 -5 -12 -52 -18 -78l-20 -76c-5 -22 -15 -63 -22 -90c-7 -26 -15 -62 -15 -79c0 -27 7 -49 33 -49c42 0 61 59 73 107c7 27 8 31 22 31c3 0 16 0 16 -13c0 -4 -13 -61 -35 -100c-18 -31 -43 -53 -79 -53
c-26 0 -84 10 -103 70c-40 -39 -88 -70 -142 -70c-86 0 -151 69 -151 166c0 144 130 285 258 285c48 0 82 -26 103 -59zM358 125l47 187c1 3 3 10 3 14c0 11 -19 87 -89 87c-28 0 -79 -15 -125 -95c-23 -40 -52 -150 -52 -203c0 -71 36 -97 73 -97c43 0 83 32 92 40
c22 19 44 39 51 67z" />
    <glyph glyph-name="b" unicode="b" horiz-adv-x="502" 
d="M264 664l-69 -278c30 26 74 55 126 55c69 0 150 -50 150 -167c0 -148 -133 -284 -258 -284c-83 0 -147 64 -147 165c0 12 0 25 5 49c2 13 57 232 66 266l23 92c6 23 16 63 16 70c0 8 0 15 -48 15c-12 0 -26 0 -26 14c0 21 14 22 22 23c25 2 108 10 128 10
c12 0 16 -9 16 -14c0 -1 -3 -14 -4 -16zM214 18c51 0 101 48 125 97c30 58 52 160 52 201c0 68 -34 97 -73 97c-36 0 -81 -22 -119 -66c-19 -22 -19 -24 -25 -43c-28 -113 -37 -147 -37 -184c0 -59 28 -102 77 -102z" />
    <glyph glyph-name="c" unicode="c" horiz-adv-x="510" 
d="M438 383c-25 28 -73 30 -87 30c-50 0 -102 -28 -140 -77c-52 -69 -66 -178 -66 -207c0 -62 32 -111 104 -111c18 0 135 0 213 92c8 8 10 10 16 10c8 0 17 -11 17 -17c0 -14 -79 -113 -248 -113c-125 0 -185 88 -185 174c0 139 139 277 289 277c54 0 132 -19 132 -87
c0 -48 -35 -64 -57 -64c-18 0 -39 10 -39 37c0 22 15 50 51 56z" />
    <glyph glyph-name="d" unicode="d" horiz-adv-x="594" 
d="M571 664l-139 -556c-3 -13 -5 -22 -5 -41c0 -27 7 -49 33 -49c42 0 61 59 73 107c7 27 8 31 22 31c3 0 16 0 16 -13c0 -4 -13 -61 -35 -100c-18 -31 -43 -53 -79 -53c-26 0 -84 10 -103 70c-40 -39 -88 -70 -142 -70c-86 0 -151 69 -151 166c0 144 130 285 258 285
c48 0 82 -26 103 -59l57 228c2 9 4 15 4 22c0 8 0 15 -48 15c-12 0 -26 0 -26 14c0 21 14 22 22 23c25 2 108 10 128 10c12 0 16 -9 16 -14c0 -1 -3 -14 -4 -16zM358 125l47 187c1 3 3 10 3 14c0 11 -19 87 -89 87c-28 0 -79 -15 -125 -95c-23 -40 -52 -150 -52 -203
c0 -71 36 -97 73 -97c43 0 83 32 92 40c22 19 44 39 51 67z" />
    <glyph glyph-name="e" unicode="e" horiz-adv-x="542" 
d="M224 228h-63c-12 -55 -12 -75 -12 -89c0 -81 40 -121 100 -121c18 0 135 0 213 92c8 8 10 10 16 10c8 0 17 -11 17 -17c0 -14 -79 -113 -248 -113c-117 0 -180 87 -180 188c0 171 162 263 282 263c69 0 124 -33 124 -88c0 -30 -14 -78 -88 -104
c-54 -19 -133 -21 -161 -21zM169 256h49c43 0 212 0 212 97c0 38 -37 60 -81 60c-28 0 -139 -12 -180 -157z" />
    <glyph glyph-name="f" unicode="f" horiz-adv-x="557" 
d="M407 395l-56 -309c-2 -12 -25 -135 -61 -202c-12 -22 -56 -88 -120 -88c-50 0 -97 26 -97 71c0 38 30 61 57 61c23 0 40 -15 40 -37c0 -6 -3 -42 -44 -55c19 -12 43 -12 44 -12c48 0 65 76 70 98c24 107 87 467 88 473h-74c-18 0 -31 0 -31 14c0 22 13 22 33 22h79
c21 116 29 161 49 198c27 50 76 75 120 75c51 0 100 -25 100 -71c0 -38 -30 -61 -57 -61c-23 0 -40 15 -40 37c0 6 3 42 44 55c-19 12 -46 12 -47 12c-24 0 -46 -21 -51 -43c-8 -29 -16 -75 -39 -202h93c18 0 31 0 31 -14c0 -22 -13 -22 -33 -22h-98z" />
    <glyph glyph-name="g" unicode="g" horiz-adv-x="557" 
d="M532 369l-109 -436c-14 -57 -81 -137 -238 -137c-56 0 -142 1 -142 61c0 38 29 61 57 61c20 0 39 -13 39 -37c0 -14 -7 -38 -32 -50c18 -4 31 -7 77 -7c25 0 68 0 112 37c38 34 45 61 56 103l22 90c-35 -31 -79 -54 -125 -54c-82 0 -152 61 -152 164
c0 143 131 277 256 277c52 0 86 -30 103 -57c4 19 23 38 46 38c16 0 34 -10 34 -32c0 -1 0 -6 -4 -21zM394 133l45 180c3 11 3 13 3 15c0 10 -19 85 -89 85c-34 0 -81 -20 -123 -90c-26 -44 -53 -156 -53 -200c0 -52 24 -95 75 -95c38 0 86 26 121 68c17 20 17 22 21 37z
" />
    <glyph glyph-name="h" unicode="h" horiz-adv-x="668" 
d="M313 664l-76 -306c37 43 90 83 163 83c47 0 76 -14 93 -27c37 -29 37 -71 37 -87c0 -56 -41 -162 -53 -193c-18 -45 -23 -58 -23 -81c0 -21 4 -35 25 -35c39 0 83 41 106 121c4 11 5 17 19 17c3 0 16 0 16 -13c0 -15 -44 -153 -144 -153c-51 0 -95 33 -95 86
c0 17 4 26 15 54c16 42 59 153 59 213c0 24 -3 70 -59 70c-78 0 -128 -57 -160 -106c-20 -32 -20 -33 -30 -71c-3 -15 -13 -53 -16 -68l-23 -89c-5 -21 -14 -57 -17 -63c-11 -21 -30 -26 -41 -26c-22 0 -34 17 -34 32c0 2 0 4 5 22l141 566c2 9 4 15 4 22c0 8 0 15 -48 15
c-12 0 -26 0 -26 14c0 21 14 22 22 23c25 2 108 10 128 10c12 0 16 -9 16 -14c0 -1 -3 -14 -4 -16z" />
    <glyph glyph-name="i" unicode="i" horiz-adv-x="404" 
d="M324 625c0 -27 -27 -55 -56 -55c-27 0 -40 21 -40 38c0 29 29 55 56 55c28 0 40 -22 40 -38zM120 117l63 161c25 62 31 77 31 100c0 27 -9 35 -25 35c-37 0 -81 -36 -107 -122c-3 -11 -4 -16 -18 -16c-3 0 -17 0 -17 13c0 17 46 153 145 153c55 0 95 -38 95 -85
c0 -10 -3 -22 -6 -32c-4 -12 -40 -103 -49 -127c-11 -26 -22 -53 -32 -80c-9 -22 -16 -41 -16 -64c0 -22 5 -35 25 -35c39 0 83 41 106 121c4 11 5 17 19 17c3 0 16 0 16 -13c0 -15 -44 -153 -144 -153c-55 0 -95 38 -95 85c0 17 5 29 9 42z" />
    <glyph glyph-name="j" unicode="j" horiz-adv-x="472" 
d="M439 625c0 -29 -29 -55 -56 -55c-28 0 -40 22 -40 38c0 27 27 55 56 55c27 0 40 -21 40 -38zM227 -49l96 383c1 5 3 19 3 30c0 32 -9 49 -34 49c-58 0 -110 -62 -135 -120c-7 -15 -8 -18 -20 -18c-3 0 -17 0 -17 13c0 14 64 153 175 153c60 0 107 -39 107 -94
c0 -15 -2 -24 -5 -35l-90 -358c-31 -122 -148 -158 -208 -158s-99 25 -99 63c0 32 26 59 57 59c20 0 39 -13 39 -37c0 -15 -8 -39 -34 -51c11 -4 23 -6 36 -6c59 0 112 58 129 127z" />
    <glyph glyph-name="k" unicode="k" horiz-adv-x="607" 
d="M313 664l-99 -399c41 17 74 48 116 88c51 47 103 88 160 88c53 0 77 -37 77 -70c0 -42 -30 -64 -57 -64c-23 0 -40 15 -40 37c0 15 9 49 52 56c-8 10 -21 13 -33 13c-56 0 -106 -47 -157 -95c-17 -15 -54 -48 -83 -66c42 -3 162 -17 162 -106c0 -11 -4 -28 -5 -31
c-6 -26 -6 -28 -6 -45c0 -27 8 -52 35 -52c49 0 76 71 88 114c5 19 6 24 20 24c3 0 16 0 16 -13c0 -1 -30 -153 -127 -153c-48 0 -106 32 -106 103c0 11 0 16 4 31c2 10 2 15 2 20c0 52 -57 75 -128 82c-4 -14 -47 -190 -49 -194c-6 -22 -19 -42 -46 -42
c-22 0 -34 17 -34 32c0 2 0 4 5 22l141 566c2 9 4 15 4 22c0 8 0 15 -48 15c-12 0 -26 0 -26 14c0 21 14 22 22 23c25 2 108 10 128 10c12 0 16 -9 16 -14c0 -1 -3 -14 -4 -16z" />
    <glyph glyph-name="l" unicode="l" horiz-adv-x="361" 
d="M282 664l-139 -556c-3 -11 -6 -30 -6 -41c0 -24 7 -49 34 -49c43 0 62 64 75 114c4 18 6 24 20 24c3 0 16 0 16 -13c0 -4 -14 -63 -35 -100c-26 -45 -56 -53 -80 -53c-48 0 -105 31 -105 95c0 10 1 21 4 31l124 494c2 9 4 15 4 22c0 8 0 15 -48 15c-11 0 -25 0 -25 14
c0 21 14 22 21 23c25 2 108 10 128 10c12 0 16 -9 16 -14c0 -1 -3 -14 -4 -16z" />
    <glyph glyph-name="m" unicode="m" horiz-adv-x="1013" 
d="M434 81l42 168c14 56 17 69 17 94c0 19 -1 70 -59 70c-75 0 -122 -52 -150 -92c-29 -41 -31 -49 -42 -90c-5 -23 -11 -45 -17 -67c-6 -25 -17 -71 -22 -90c-5 -21 -13 -53 -18 -62s-21 -22 -39 -22c-16 0 -34 10 -34 32c0 3 6 28 10 41l32 128c5 22 15 63 22 90
s16 64 16 83c0 27 -7 49 -33 49c-39 0 -58 -49 -73 -108c-7 -27 -8 -30 -22 -30c-3 0 -17 0 -17 13c0 5 14 62 36 99c13 23 36 54 79 54c41 0 100 -22 107 -91c30 40 86 91 169 91c51 0 122 -16 130 -101c32 42 87 101 177 101c47 0 76 -14 93 -27c37 -29 37 -71 37 -87
c0 -56 -41 -162 -53 -193c-18 -45 -23 -58 -23 -81c0 -21 4 -35 25 -35c40 0 83 41 106 121c4 11 5 17 19 17c3 0 16 0 16 -13c0 -15 -44 -153 -144 -153c-51 0 -95 33 -95 86c0 17 4 26 15 54c16 42 59 153 59 213c0 24 -3 70 -59 70c-78 0 -128 -57 -160 -106
c-20 -31 -20 -33 -31 -76c-5 -23 -11 -45 -17 -67c-6 -25 -17 -71 -22 -90c-5 -21 -13 -53 -18 -62s-21 -22 -39 -22c-16 0 -34 10 -34 32c0 5 9 39 14 59z" />
    <glyph glyph-name="n" unicode="n" horiz-adv-x="706" 
d="M122 63l32 128c5 22 15 63 22 90s16 64 16 83c0 27 -7 49 -33 49c-39 0 -58 -49 -73 -108c-7 -27 -8 -30 -22 -30c-3 0 -17 0 -17 13c0 5 14 62 36 99c13 23 36 54 79 54c41 0 100 -22 107 -91c30 40 86 91 169 91c53 0 130 -17 130 -114c0 -56 -41 -162 -53 -193
c-18 -45 -23 -58 -23 -81c0 -21 4 -35 25 -35c40 0 83 41 106 121c4 11 5 17 19 17c3 0 16 0 16 -13c0 -15 -44 -153 -144 -153c-51 0 -95 33 -95 86c0 17 4 26 15 54c16 42 59 153 59 213c0 19 -1 70 -59 70c-75 0 -122 -52 -150 -92c-29 -41 -31 -49 -42 -90
c-5 -23 -11 -45 -17 -67c-6 -25 -17 -71 -22 -90c-5 -21 -13 -53 -18 -62s-21 -22 -39 -22c-16 0 -34 10 -34 32c0 3 6 28 10 41z" />
    <glyph glyph-name="o" unicode="o" horiz-adv-x="563" 
d="M531 266c0 -144 -144 -276 -287 -276c-109 0 -182 75 -182 175c0 137 140 276 288 276c98 0 181 -64 181 -175zM245 18c50 0 110 32 148 91c44 70 56 169 56 193c0 74 -46 111 -100 111c-45 0 -103 -26 -146 -88c-39 -57 -58 -155 -58 -196c0 -79 50 -111 100 -111z" />
    <glyph glyph-name="p" unicode="p" horiz-adv-x="588" 
d="M75 -122l114 456c1 6 3 19 3 30c0 27 -7 49 -33 49c-39 0 -58 -50 -73 -108c-7 -27 -8 -30 -22 -30c-3 0 -17 0 -17 13c0 6 16 66 36 100c16 27 40 53 79 53c30 0 86 -13 103 -70c27 28 80 70 142 70c69 0 150 -50 150 -167c0 -149 -135 -284 -257 -284
c-60 0 -91 39 -103 59c-11 -42 -25 -96 -37 -149c-4 -15 -11 -41 -11 -46c0 -12 27 -12 49 -12c12 0 26 0 26 -14c0 -19 -11 -22 -20 -22c-33 0 -71 4 -105 4c-27 0 -60 -4 -86 -4c-5 0 -14 4 -14 15c0 21 14 21 27 21c40 0 42 8 49 36zM264 321l-50 -201
c-1 -4 -3 -11 -3 -15c0 -10 18 -87 89 -87c51 0 100 48 125 97c30 58 52 160 52 201c0 68 -34 97 -73 97c-32 0 -82 -15 -140 -92z" />
    <glyph glyph-name="q" unicode="q" horiz-adv-x="523" 
d="M509 412l-134 -536c-5 -17 -5 -19 -5 -22c0 -12 27 -12 49 -12c12 0 26 0 26 -14c0 -19 -11 -22 -20 -22c-31 0 -73 4 -107 4s-71 -4 -104 -4c-10 0 -15 8 -15 14c0 22 14 22 26 22c62 1 63 2 77 57c4 17 35 143 36 146c-22 -19 -69 -55 -126 -55c-86 0 -151 69 -151 166
c0 144 130 285 258 285c64 0 97 -46 107 -66c20 32 62 66 72 66c9 0 13 -8 13 -14c0 -5 -1 -11 -2 -15zM358 126l47 185c1 4 3 10 3 15c0 10 -19 87 -89 87c-28 0 -79 -15 -125 -95c-23 -40 -52 -150 -52 -203c0 -71 36 -97 73 -97c39 0 86 27 125 73c13 16 13 18 18 35z
" />
    <glyph glyph-name="r" unicode="r" horiz-adv-x="530" 
d="M235 202l-27 -108c-6 -25 -17 -69 -19 -75c-8 -20 -28 -29 -43 -29c-16 0 -34 10 -34 32c0 3 6 28 10 41l32 128c5 22 15 63 22 90s16 64 16 83c0 27 -7 49 -33 49c-39 0 -58 -47 -73 -108c-7 -27 -8 -30 -22 -30c-3 0 -17 0 -17 13c0 5 14 63 37 102c16 28 41 51 78 51
c24 0 85 -10 103 -71c44 50 89 71 141 71c51 0 106 -21 106 -73c0 -42 -33 -61 -56 -61s-40 15 -40 37c0 18 12 46 44 55c-20 13 -45 14 -55 14c-43 0 -70 -20 -81 -28c-32 -24 -61 -74 -63 -82c-2 -5 -25 -95 -26 -101z" />
    <glyph glyph-name="s" unicode="s" horiz-adv-x="539" 
d="M431 376c-22 34 -74 37 -95 37c-17 0 -52 -2 -79 -19c-22 -14 -40 -41 -40 -64c0 -22 18 -43 55 -50c6 -2 31 -6 40 -8c37 -7 138 -25 138 -117c0 -39 -34 -165 -218 -165c-97 0 -161 37 -161 97c0 44 29 67 58 67c21 0 39 -12 39 -37c0 -28 -22 -53 -55 -57
c23 -33 80 -42 120 -42c12 0 61 0 100 22c42 25 53 63 53 80c0 50 -64 62 -85 66c-69 12 -87 16 -113 36c-14 12 -35 36 -35 73c0 31 28 146 184 146c61 0 133 -22 133 -87c0 -51 -38 -57 -48 -57c-13 0 -33 9 -33 32c0 20 16 41 42 47z" />
    <glyph glyph-name="t" unicode="t" horiz-adv-x="431" 
d="M246 395l-72 -287c-2 -10 -6 -31 -6 -41c0 -36 14 -49 35 -49c55 0 106 56 134 119c8 17 9 19 21 19c3 0 16 0 16 -13s-63 -153 -174 -153c-57 0 -107 36 -107 95c0 13 9 49 15 74l59 236h-95c-18 0 -30 0 -30 14c0 22 13 22 32 22h102c44 174 31 126 38 151
c7 26 22 43 47 43c20 0 34 -14 34 -32c0 -4 -2 -9 -3 -14l-37 -148h95c17 0 30 0 30 -14c0 -22 -13 -22 -32 -22h-102z" />
    <glyph glyph-name="u" unicode="u" horiz-adv-x="675" 
d="M423 162l52 208c8 32 15 61 52 61c17 0 33 -12 33 -32c0 -5 -11 -49 -17 -74l-23 -89c-5 -22 -15 -63 -22 -90c-7 -26 -15 -62 -15 -79c0 -26 7 -49 33 -49c42 0 61 60 73 107c7 27 8 31 22 31c3 0 17 0 17 -13c0 -3 -14 -61 -36 -100c-19 -33 -45 -53 -79 -53
c-12 0 -79 2 -101 66c-33 -32 -67 -66 -130 -66c-35 0 -74 8 -103 32c-37 32 -37 78 -37 95c0 27 0 56 54 194c10 23 18 44 18 67c0 24 -8 35 -25 35c-39 0 -83 -40 -107 -122c-3 -11 -4 -16 -18 -16c-3 0 -17 0 -17 13c0 16 45 153 145 153c51 0 95 -34 95 -86
c0 -16 -6 -31 -14 -51c-28 -73 -56 -144 -56 -203c0 -18 0 -83 69 -83c62 0 102 54 121 85c2 1 11 39 16 59z" />
    <glyph glyph-name="v" unicode="v" horiz-adv-x="571" 
d="M534 363c0 -82 -70 -373 -238 -373c-76 0 -154 32 -154 131c0 36 11 79 54 190c10 23 18 44 18 67c0 24 -8 35 -25 35c-40 0 -83 -40 -107 -122c-3 -11 -4 -16 -18 -16c-3 0 -17 0 -17 13c0 16 45 153 145 153c51 0 95 -34 95 -86c0 -17 -6 -32 -14 -53
c-37 -93 -55 -149 -55 -195c0 -17 0 -89 81 -89c119 0 185 215 185 260c0 40 -20 66 -37 80c-7 6 -17 14 -17 31c0 26 28 53 54 53c3 0 50 -1 50 -79z" />
    <glyph glyph-name="w" unicode="w" horiz-adv-x="826" 
d="M526 319l-28 -112c-14 -57 -18 -73 -18 -100c0 -17 0 -89 81 -89c127 0 169 247 169 260c0 32 -13 60 -37 80c-7 6 -17 14 -17 31c0 26 28 53 54 53c7 0 50 -4 50 -79c0 -46 -27 -171 -70 -255c-20 -41 -64 -118 -153 -118c-61 0 -116 22 -139 67
c-45 -67 -94 -67 -113 -67c-54 0 -161 15 -161 133c0 31 0 51 57 197c5 13 14 35 14 58c0 24 -8 35 -25 35c-40 0 -83 -39 -108 -122c-3 -11 -4 -16 -18 -16c-3 0 -17 0 -17 13c0 17 45 153 146 153c54 0 95 -37 95 -85c0 -17 -4 -26 -21 -70c-20 -51 -48 -125 -48 -176
c0 -78 51 -92 90 -92c34 0 54 17 67 33c24 30 32 49 28 69c1 29 3 37 16 92c15 56 15 58 29 115c7 25 17 67 20 75c6 17 24 29 43 29c17 0 33 -12 33 -32c0 -5 -12 -53 -19 -80z" />
    <glyph glyph-name="x" unicode="x" horiz-adv-x="647" 
d="M249 106l34 137c9 34 21 84 21 104c0 48 -27 66 -60 66c-49 0 -112 -43 -137 -121c-5 -13 -6 -17 -19 -17c-3 0 -17 0 -17 13c0 30 64 153 176 153c56 0 102 -30 120 -71c22 38 62 71 112 71c40 0 104 -17 104 -73c0 -42 -33 -61 -56 -61s-40 15 -40 37c0 18 12 46 44 55
c-21 14 -52 14 -54 14c-33 0 -78 -25 -98 -102c-28 -111 -52 -202 -52 -228c0 -38 21 -65 61 -65c56 0 116 52 137 121c4 12 5 17 19 17c3 0 16 0 16 -13c0 -28 -61 -153 -176 -153c-40 0 -95 18 -119 71c-25 -42 -66 -71 -112 -71c-49 0 -105 23 -105 73c0 37 29 61 57 61
c23 0 40 -15 40 -37c0 -6 -3 -42 -44 -55c21 -14 51 -14 54 -14c51 0 84 54 94 88z" />
    <glyph glyph-name="y" unicode="y" horiz-adv-x="579" 
d="M556 377l-95 -378c-31 -125 -154 -203 -255 -203c-71 0 -119 37 -119 88c0 46 33 66 58 66c10 0 39 -6 39 -38c0 -1 0 -49 -54 -55c21 -33 68 -33 75 -33c53 0 93 33 120 64c42 50 53 92 66 147c-33 -30 -69 -45 -109 -45c-27 0 -69 5 -100 31c-39 32 -39 79 -39 96
c0 44 10 81 58 203c5 13 14 35 14 58c0 24 -8 35 -25 35c-40 0 -83 -39 -108 -122c-3 -11 -4 -16 -18 -16c-3 0 -17 0 -17 13c0 17 45 153 146 153c54 0 95 -37 95 -85c0 -17 -5 -29 -17 -61c-30 -77 -53 -140 -53 -194c0 -18 0 -83 68 -83c78 0 122 87 123 87
c3 11 34 137 40 161l21 83c5 20 13 52 16 58c11 19 30 24 41 24c17 0 33 -12 33 -32c0 -6 0 -8 -4 -22z" />
    <glyph glyph-name="z" unicode="z" horiz-adv-x="545" 
d="M168 88c6 1 21 1 23 1c18 0 26 0 72 -10c25 -6 50 -11 73 -11c49 0 108 24 127 74c4 11 6 16 18 16c6 0 17 -1 17 -13c0 -34 -67 -155 -174 -155c-32 0 -52 15 -83 45c-27 25 -42 26 -54 26c-34 0 -65 -23 -92 -61c-5 -8 -7 -10 -17 -10c-4 0 -17 0 -17 12
c0 9 29 53 89 112c19 20 46 45 124 107c95 76 113 94 139 121c-25 0 -32 0 -87 12c-14 3 -40 9 -63 9c-16 0 -72 -2 -87 -37c-4 -11 -6 -14 -18 -14c-7 0 -17 3 -17 12c0 30 54 117 134 117c23 0 45 -7 79 -41c30 -29 45 -30 57 -30c24 0 45 15 76 61c5 8 8 10 17 10
c4 0 17 0 17 -12s-38 -63 -99 -123c-29 -28 -104 -88 -125 -105c-85 -68 -103 -87 -129 -113z" />
    <glyph glyph-name="dotlessi" unicode="&#x131;" horiz-adv-x="398" 
d="M120 117l63 161c25 62 31 77 31 100c0 27 -9 35 -25 35c-37 0 -81 -36 -107 -122c-3 -11 -4 -16 -18 -16c-3 0 -17 0 -17 13c0 17 46 153 145 153c55 0 95 -38 95 -85c0 -10 -3 -22 -6 -32c-4 -12 -40 -103 -49 -127c-11 -26 -22 -53 -32 -80c-9 -22 -16 -41 -16 -64
c0 -22 5 -35 25 -35c39 0 83 41 106 121c4 11 5 17 19 17c3 0 16 0 16 -13c0 -15 -44 -153 -144 -153c-55 0 -95 38 -95 85c0 17 5 29 9 42z" />
    <glyph glyph-name="dotlessj" unicode="&#xf6be;" horiz-adv-x="441" 
d="M397 312l-90 -358c-29 -117 -134 -158 -200 -158c-64 0 -107 24 -107 63c0 32 25 59 57 59c20 0 39 -13 39 -37c0 -21 -13 -41 -33 -51c17 -5 22 -6 44 -6c61 0 104 65 120 127l96 383c1 5 3 19 3 30c0 31 -9 49 -34 49c-60 0 -111 -64 -135 -120c-7 -15 -8 -18 -20 -18
c-3 0 -17 0 -17 13c0 14 64 153 175 153c60 0 107 -39 107 -94c0 -15 -2 -24 -5 -35z" />
    <glyph glyph-name="weierstrass" unicode="&#x2118;" horiz-adv-x="730" 
d="M202 125c15 -16 52 -58 66 -75c43 -47 53 -59 53 -101c0 -83 -71 -163 -141 -163c-77 0 -77 80 -77 102c0 64 25 148 42 191c-18 18 -43 44 -43 108c0 134 97 264 173 264c6 0 16 -1 16 -13c0 -13 -9 -14 -16 -15c-68 -11 -119 -128 -119 -206c0 -18 3 -46 23 -65
c84 151 224 256 363 256c89 0 152 -62 152 -157c0 -138 -128 -261 -247 -261c-62 0 -102 40 -102 88c0 17 4 47 32 47c15 0 23 -11 23 -22c0 -10 -7 -23 -21 -28c3 -38 34 -57 68 -57c32 0 81 17 123 81c32 50 52 141 52 184c0 57 -27 97 -82 97c-121 0 -255 -94 -338 -255z
M169 50c-11 -33 -35 -123 -35 -171c0 -49 19 -65 46 -65c45 0 86 54 86 103c0 21 -5 31 -13 39c-27 32 -55 63 -84 94z" />
    <glyph glyph-name="vector" 
d="M579 591h-338c-17 0 -40 0 -40 25c0 24 24 24 40 24h359c-9 12 -24 40 -24 54c0 19 17 25 24 25c17 0 23 -15 25 -21c5 -13 14 -38 47 -58c9 -5 19 -11 19 -24c0 -16 -11 -21 -25 -27c-26 -12 -57 -33 -82 -62c-6 -8 -12 -15 -23 -15c-13 0 -25 11 -25 25
c0 16 35 47 43 54z" />
    <glyph glyph-name="tie" unicode="&#x2040;" horiz-adv-x="339" 
d="M755 562c0 -26 -11 -26 -19 -26c-16 0 -16 5 -16 22c-2 14 -4 22 -25 36c-40 24 -94 33 -152 33c-14 0 -70 0 -128 -18c-76 -23 -86 -49 -93 -65c-3 -8 -11 -8 -16 -8c-4 0 -17 0 -17 12c0 44 97 117 258 117c133 0 208 -52 208 -103z" />
    <glyph glyph-name="space" unicode=" " horiz-adv-x="333" 
 />
  </font>
</defs>
</svg>
