<?xml version="1.0" standalone="no"?>
<!DOCTYPE svg PUBLIC "-//W3C//DTD SVG 1.1//EN" "http://www.w3.org/Graphics/SVG/1.1/DTD/svg11.dtd" >
<svg>
<metadata>
Created by FontForge 20060822 at Fri Oct  6 18:24:43 2006
 By Wojciech Mula,,,
Copyright (C) 1997 American Mathematical Society. All Rights Reserved
</metadata>
<defs>
<font id="CMSSDC10" horiz-adv-x="475" >
  <font-face 
    font-family="Computer Modern"
    font-weight="500"
    font-stretch="normal"
    units-per-em="1000"
    panose-1="2 0 6 3 0 0 0 0 0 0"
    ascent="800"
    descent="-200"
    x-height="472"
    cap-height="694"
    bbox="-62 -222 949 769"
    underline-thickness="0"
    underline-position="0"
    stemh="81"
    stemv="111"
    unicode-range="U+0020-U+FB04"
  />
    <missing-glyph />
    <glyph glyph-name="ff" unicode="ff" horiz-adv-x="554" 
d="M186 408v-364c0 -34 -9 -44 -44 -44h-19c-36 0 -45 10 -45 45v363c-24 0 -53 0 -53 32s30 32 53 32v77c0 93 52 155 167 155c9 0 30 0 56 -5c28 -6 29 -7 29 -31v-28c0 -16 0 -25 -11 -25c-4 0 -6 1 -13 6c-20 14 -41 19 -61 19c-62 0 -62 -42 -62 -66v-102h45
c13 0 44 0 44 -32s-31 -32 -44 -32h-42zM449 408v-364c0 -34 -9 -44 -44 -44h-20c-38 0 -44 13 -44 44v505c0 93 52 155 167 155c9 0 30 0 56 -5c28 -6 29 -7 29 -31v-28c0 -16 0 -25 -11 -25c-4 0 -6 1 -13 6c-20 14 -41 19 -61 19c-62 0 -62 -42 -62 -66v-102h45
c13 0 44 0 44 -32s-31 -32 -44 -32h-42z" />
    <glyph glyph-name="fi" unicode="fi" horiz-adv-x="505" 
d="M450 651v-23c0 -34 -9 -44 -44 -44h-23c-38 0 -44 13 -44 44v23c0 34 9 44 44 44h23c38 0 44 -13 44 -44zM341 44v384c0 34 9 44 44 44h20c38 0 44 -13 44 -44v-384c0 -34 -9 -44 -44 -44h-20c-38 0 -44 13 -44 44zM78 45v363c-24 0 -53 0 -53 32s30 32 53 32v80
c0 110 63 152 136 152c10 0 23 0 44 -6c22 -6 22 -7 22 -30v-31c0 -15 0 -25 -11 -25c-5 0 -8 3 -13 8c-4 5 -15 20 -40 20c-30 0 -33 -34 -33 -62v-106h53c13 0 44 0 44 -32s-31 -32 -44 -32h-50v-364c0 -34 -9 -44 -44 -44h-19c-36 0 -45 10 -45 45z" />
    <glyph glyph-name="fl" unicode="fl" horiz-adv-x="505" 
d="M186 408v-364c0 -34 -9 -44 -44 -44h-19c-36 0 -45 10 -45 45v363c-24 0 -53 0 -53 32s30 32 53 32v80c0 110 63 152 136 152c10 0 23 0 44 -6c22 -6 22 -7 22 -30v-28c0 -16 0 -25 -11 -25c-4 0 -7 2 -10 5c-11 13 -26 20 -43 20c-30 0 -33 -34 -33 -62v-106h53
c13 0 44 0 44 -32s-31 -32 -44 -32h-50zM449 650v-606c0 -34 -9 -44 -44 -44h-20c-38 0 -44 13 -44 44v606c0 34 9 44 44 44h20c38 0 44 -13 44 -44z" />
    <glyph glyph-name="ffi" unicode="ffi" horiz-adv-x="769" 
d="M713 651v-23c0 -34 -9 -44 -44 -44h-23c-38 0 -44 13 -44 44v23c0 34 9 44 44 44h23c38 0 44 -13 44 -44zM604 44v384c0 34 9 44 44 44h20c38 0 44 -13 44 -44v-384c0 -34 -9 -44 -44 -44h-20c-38 0 -44 13 -44 44zM341 45v507c0 103 57 152 137 152c10 0 23 0 45 -6
c19 -5 20 -6 20 -28v-32c0 -16 0 -25 -11 -25c-4 0 -7 2 -12 8c-10 12 -26 19 -41 19c-30 0 -33 -34 -33 -62v-106h53c13 0 44 0 44 -32s-31 -32 -44 -32h-50v-364c0 -34 -9 -44 -44 -44h-19c-36 0 -45 10 -45 45zM186 408v-364c0 -34 -9 -44 -44 -44h-19
c-36 0 -45 10 -45 45v363c-24 0 -53 0 -53 32s30 32 53 32v78c0 99 55 154 151 154c10 0 24 0 49 -5c25 -6 25 -8 25 -31v-28c0 -16 0 -25 -11 -25c-5 0 -8 3 -11 5c-14 13 -32 20 -52 20c-46 0 -46 -42 -46 -64v-104h53c13 0 44 0 44 -32s-31 -32 -44 -32h-50z" />
    <glyph glyph-name="ffl" unicode="ffl" horiz-adv-x="769" 
d="M186 408v-364c0 -34 -9 -44 -44 -44h-19c-36 0 -45 10 -45 45v363c-24 0 -53 0 -53 32s30 32 53 32v78c0 99 55 154 151 154c10 0 24 0 49 -5c25 -6 25 -8 25 -31v-28c0 -16 0 -25 -11 -25c-5 0 -8 3 -11 5c-14 13 -32 20 -52 20c-46 0 -46 -42 -46 -64v-104h53
c13 0 44 0 44 -32s-31 -32 -44 -32h-50zM712 650v-606c0 -34 -9 -44 -44 -44h-20c-38 0 -44 13 -44 44v606c0 34 9 44 44 44h20c38 0 44 -13 44 -44zM449 408v-364c0 -34 -9 -44 -44 -44h-19c-36 0 -45 10 -45 45v507c0 110 63 152 136 152c10 0 23 0 44 -6
c22 -6 22 -7 22 -30v-28c0 -16 0 -25 -11 -25c-4 0 -7 2 -10 5c-11 13 -26 20 -43 20c-30 0 -33 -34 -33 -62v-106h53c13 0 44 0 44 -32s-31 -32 -44 -32h-50z" />
    <glyph glyph-name="Gamma" unicode="&#x393;" horiz-adv-x="513" 
d="M203 604v-560c0 -34 -9 -44 -44 -44h-33c-36 0 -45 10 -45 45v601c0 36 10 45 45 45h303c41 0 44 -17 44 -45c0 -44 -17 -45 -49 -45c-42 0 -148 3 -190 3h-31z" />
    <glyph glyph-name="Delta" unicode="&#x394;" horiz-adv-x="791" 
d="M486 655l248 -612c5 -12 6 -14 6 -19c0 -24 -21 -24 -38 -24h-613c-17 0 -38 0 -38 24c0 4 0 6 6 19l248 613c15 38 40 38 63 38h55c25 0 47 0 63 -39zM385 591l-189 -481h379z" />
    <glyph glyph-name="Theta" unicode="&#x398;" horiz-adv-x="738" 
d="M685 342c0 -102 -20 -195 -82 -267c-47 -55 -129 -94 -234 -94c-99 0 -186 35 -238 98c-62 76 -78 169 -78 263c0 97 17 198 85 277c51 60 135 94 231 94s180 -34 232 -94c65 -76 84 -176 84 -277zM369 48c200 0 200 230 200 295c0 51 -2 140 -38 207
c-40 75 -104 99 -162 99c-39 0 -118 -12 -165 -103c-34 -69 -35 -160 -35 -203c0 -65 0 -295 200 -295zM515 359v-21c0 -36 -11 -45 -47 -45h-198c-37 0 -47 10 -47 45v21c0 36 11 45 47 45h198c37 0 47 -10 47 -45z" />
    <glyph glyph-name="Lambda" unicode="&#x39b;" horiz-adv-x="583" 
d="M374 656l170 -614c2 -7 4 -13 4 -17c0 -25 -26 -25 -39 -25h-35c-22 0 -45 0 -56 40l-100 375c-18 67 -35 143 -37 169h-1c-2 -29 -19 -102 -29 -142c-12 -51 -24 -101 -38 -151l-69 -251c-11 -40 -34 -40 -56 -40h-15c-13 0 -39 0 -39 25c0 1 0 3 4 15l170 616
c10 38 34 38 55 38h56c21 0 44 0 55 -38z" />
    <glyph glyph-name="Xi" unicode="&#x39e;" horiz-adv-x="633" 
d="M587 644v-14c0 -44 -16 -44 -60 -44c-10 0 -176 2 -211 2c-32 0 -197 -2 -211 -2c-44 0 -60 0 -60 44v13c0 36 10 45 45 45h453c38 0 44 -13 44 -44zM40 45v13c0 44 16 44 61 44c11 0 179 -2 215 -2c30 0 202 2 215 2c45 0 61 0 61 -44v-14c0 -34 -9 -44 -44 -44h-463
c-36 0 -45 10 -45 45zM151 408h331c38 0 44 -13 44 -44v-12c0 -34 -9 -44 -44 -44h-332c-38 0 -44 13 -44 44v11c0 36 10 45 45 45z" />
    <glyph glyph-name="Pi" unicode="&#x3a0;" horiz-adv-x="677" 
d="M596 647v-603c0 -34 -9 -44 -44 -44h-34c-38 0 -44 13 -44 44v566h-271v-566c0 -34 -9 -44 -44 -44h-33c-36 0 -45 10 -45 45v601c0 36 10 45 45 45h426c38 0 44 -13 44 -44z" />
    <glyph glyph-name="Sigma" unicode="&#x3a3;" horiz-adv-x="686" 
d="M388 322l-162 -229h62c94 0 190 3 284 3c44 0 60 0 60 -44v-8c0 -34 -9 -44 -44 -44h-490c-13 0 -45 0 -45 32c0 9 4 16 11 26l199 279l-201 280c-9 13 -9 15 -9 34c0 40 18 43 45 43h490c41 0 44 -17 44 -45c0 -45 -16 -45 -60 -45c-65 0 -227 3 -292 3h-60l169 -235
c8 -11 10 -17 10 -25c0 -10 -1 -11 -11 -25z" />
    <glyph glyph-name="Upsilon" unicode="&#x3a5;" horiz-adv-x="738" 
d="M430 397v-353c0 -34 -9 -44 -44 -44h-33c-36 0 -45 10 -45 45v352c0 48 0 79 -11 131c-12 60 -35 93 -77 93c-35 0 -53 -30 -56 -61c-3 -37 -23 -37 -46 -37h-19c-17 0 -46 0 -46 36c0 75 67 154 166 154c88 0 130 -68 149 -169h1c18 93 57 169 150 169
c98 0 166 -79 166 -154c0 -36 -29 -36 -46 -36h-19c-32 0 -43 6 -46 38c-2 27 -19 60 -56 60s-62 -25 -76 -87c-10 -42 -12 -105 -12 -137z" />
    <glyph glyph-name="Phi" unicode="&#x3a6;" horiz-adv-x="686" 
d="M398 650v-63c178 -18 234 -130 234 -240c0 -112 -58 -223 -234 -240v-63c0 -34 -9 -44 -44 -44h-27c-36 0 -45 10 -45 45v62c-175 20 -229 133 -229 240c0 110 56 220 229 240v62c0 36 10 45 45 45h27c38 0 44 -13 44 -44zM282 174v346c-107 -24 -110 -122 -110 -173
s4 -149 110 -173zM398 521v-348c109 22 115 117 115 174c0 58 -6 153 -115 174z" />
    <glyph glyph-name="Psi" unicode="&#x3a8;" horiz-adv-x="738" 
d="M424 650v-471c94 34 98 162 98 238c0 127 8 198 89 198h30c13 0 44 0 44 -32c0 -9 -3 -29 -32 -32c-15 -26 -15 -76 -15 -135c0 -131 -31 -278 -214 -308v-64c0 -34 -9 -44 -44 -44h-27c-36 0 -45 10 -45 45v64c-207 33 -208 231 -208 325c0 68 -5 98 -15 117
c-28 3 -32 23 -32 32c0 32 32 32 45 32h29c69 0 89 -48 89 -181c0 -88 0 -216 92 -254v469c0 36 10 45 45 45h27c38 0 44 -13 44 -44z" />
    <glyph glyph-name="Omega" unicode="&#x3a9;" horiz-adv-x="686" 
d="M643 50v-6c0 -34 -9 -44 -44 -44h-162c-20 0 -45 0 -45 40c0 67 31 148 51 196c45 105 67 158 67 229c0 117 -53 184 -168 184c-100 0 -167 -52 -167 -184c0 -67 22 -124 55 -203c26 -60 63 -147 63 -223c0 -39 -25 -39 -44 -39h-162c-41 0 -45 15 -45 47
c0 47 16 47 54 47c15 0 30 -1 45 -1h57c13 0 15 0 22 -1c-15 46 -39 84 -72 135c-49 75 -95 146 -95 237c0 101 52 249 290 249c233 0 289 -144 289 -249c0 -92 -46 -163 -97 -241c-31 -46 -55 -85 -70 -131c6 1 8 1 22 1h57c15 0 30 1 45 1c36 0 54 0 54 -44z" />
    <glyph glyph-name="dotlessi" unicode="&#x131;" horiz-adv-x="219" 
d="M163 428v-384c0 -34 -9 -44 -44 -44h-19c-36 0 -45 10 -45 45v382c0 36 10 45 45 45h19c38 0 44 -13 44 -44z" />
    <glyph glyph-name="dotlessj" unicode="&#xf6be;" horiz-adv-x="245" 
d="M190 428v-453c0 -102 -51 -152 -128 -152c-50 0 -124 23 -124 41c0 3 7 23 8 29c6 19 8 23 16 23c3 0 5 -2 13 -6c7 -4 27 -14 52 -14c55 0 55 39 55 62v470c0 34 9 44 44 44h20c38 0 44 -13 44 -44z" />
    <glyph glyph-name="grave" unicode="`" 
d="M225 546l-135 122c-7 6 -10 9 -10 15c0 11 10 11 25 11h60c19 0 20 -1 28 -11l82 -112c6 -9 6 -13 6 -14c0 -11 -8 -11 -24 -11h-32z" />
    <glyph glyph-name="acute" unicode="&#xb4;" 
d="M384 668l-135 -122h-31c-15 0 -25 0 -25 11c0 2 0 4 8 15l80 111c8 10 9 11 28 11h61c16 0 24 0 24 -11c0 -6 -2 -8 -10 -15z" />
    <glyph glyph-name="caron" unicode="&#x2c7;" 
d="M376 632l-89 -112c-9 -10 -10 -11 -28 -11h-43c-20 0 -21 1 -30 12l-89 113c-7 8 -7 10 -7 13c0 11 8 11 24 11h32l91 -83l91 83h32c16 0 24 0 24 -11c0 -4 -1 -6 -8 -15z" />
    <glyph glyph-name="breve" unicode="&#x2d8;" 
d="M400 659c0 -49 -45 -104 -163 -104c-116 0 -163 54 -163 104c0 29 23 35 32 35c12 0 29 -6 32 -32c3 -27 69 -27 99 -27c20 0 95 0 99 24c1 10 4 35 32 35c10 0 32 -7 32 -35z" />
    <glyph glyph-name="macron" unicode="&#xaf;" 
d="M383 580h-291c-25 0 -26 1 -26 26v21c0 26 1 26 25 26h292c24 0 25 0 25 -26v-21c0 -26 -1 -26 -25 -26z" />
    <glyph glyph-name="ring" unicode="&#x2da;" horiz-adv-x="636" 
d="M423 620c0 -74 -90 -74 -106 -74c-15 0 -105 0 -105 74s90 74 106 74c15 0 105 0 105 -74zM318 584c27 0 52 2 52 36c0 35 -26 36 -53 36s-52 -2 -52 -36c0 -35 26 -36 53 -36z" />
    <glyph glyph-name="cedilla" unicode="&#xb8;" horiz-adv-x="422" 
d="M264 -46l-46 -104c-7 -15 -8 -15 -29 -15h-36c-15 0 -25 0 -25 11c0 2 0 4 6 14l68 106c8 12 9 13 28 13h13c15 0 25 0 25 -11c0 -4 -2 -10 -4 -14z" />
    <glyph glyph-name="germandbls" unicode="&#xdf;" horiz-adv-x="468" 
d="M346 437c76 -53 95 -151 95 -245c0 -31 0 -202 -171 -202c-32 0 -78 13 -78 28c0 2 0 4 8 29c6 17 8 22 17 22c2 0 3 -1 6 -3c7 -3 24 -12 44 -12c64 0 64 93 64 138c0 51 0 205 -95 216c-18 2 -19 3 -19 26v12c0 23 0 24 17 26c35 4 70 18 70 97c0 38 -8 71 -70 71
c-67 0 -70 -40 -70 -75v-521c0 -34 -9 -44 -44 -44h-19c-36 0 -45 10 -45 45v522c0 116 104 137 179 137c77 0 179 -24 179 -134c0 -52 -21 -105 -68 -133z" />
    <glyph glyph-name="ae" unicode="&#xe6;" horiz-adv-x="686" 
d="M615 232h-217c1 -43 5 -178 109 -178c35 0 80 12 118 63c4 5 7 8 12 8c10 0 10 -5 13 -24c1 -9 3 -28 3 -36c0 -17 -61 -75 -150 -75c-61 0 -115 21 -158 64c-40 -42 -119 -64 -189 -64c-91 0 -129 79 -129 133c0 135 207 141 260 143v65c0 97 -43 97 -66 97
c-25 0 -78 -4 -126 -50c-10 -9 -11 -10 -16 -10c-10 0 -11 6 -13 29c-1 8 -3 29 -3 36c0 8 0 11 26 24c33 15 71 30 136 30c20 0 89 0 135 -46c24 21 70 46 131 46c28 0 93 -6 132 -64c28 -43 36 -98 36 -147c0 -33 -8 -44 -44 -44zM399 279h171c-2 49 -5 144 -78 144
c-60 0 -89 -70 -93 -144zM287 218c-24 -1 -155 -8 -155 -93c0 -36 26 -71 67 -71c40 0 94 25 102 83c-12 36 -14 80 -14 81z" />
    <glyph glyph-name="oe" unicode="&#x153;" horiz-adv-x="738" 
d="M668 232h-217c1 -43 5 -178 109 -178c35 0 80 12 118 63c4 5 7 8 12 8c10 0 10 -5 13 -24c1 -9 3 -28 3 -36c0 -17 -61 -75 -150 -75c-34 0 -109 8 -159 67c-46 -52 -107 -67 -160 -67c-59 0 -120 20 -158 68c-53 65 -53 149 -53 181c0 74 14 130 51 178
c27 35 80 70 160 70c59 0 117 -19 158 -64c47 52 105 64 149 64c28 0 93 -6 132 -64c28 -43 36 -98 36 -147c0 -33 -8 -44 -44 -44zM452 279h171c-2 49 -5 144 -78 144c-60 0 -89 -70 -93 -144zM237 54c103 0 103 131 103 189c0 60 0 180 -103 180
c-106 0 -106 -122 -106 -180c0 -56 0 -189 106 -189z" />
    <glyph glyph-name="oslash" unicode="&#xf8;" 
d="M422 535l-47 -95c68 -63 73 -161 73 -208c0 -40 -3 -121 -56 -180c-45 -51 -111 -62 -155 -62c-37 0 -68 8 -82 13c-14 -29 -14 -31 -34 -69c-20 -40 -24 -49 -44 -49c-22 0 -33 19 -33 32c0 7 17 41 27 61c10 18 19 37 28 56c-73 63 -73 168 -73 198c0 62 10 129 51 183
c40 54 105 72 160 72c11 0 44 0 82 -15l47 92c5 11 12 24 31 24c22 0 33 -19 33 -32c0 -5 0 -7 -8 -21zM141 118l147 292c-5 3 -25 13 -51 13c-110 0 -110 -128 -110 -191c0 -38 0 -80 14 -114zM332 354l-145 -289c1 0 22 -11 50 -11c110 0 110 115 110 178
c0 48 0 83 -15 122z" />
    <glyph glyph-name="AE" unicode="&#xc6;" horiz-adv-x="819" 
d="M211 203l-61 -165c-14 -38 -38 -38 -59 -38h-17c-15 0 -37 0 -37 24c0 5 1 8 5 18l228 613c15 39 38 39 60 39h391c41 0 44 -17 44 -45c0 -43 -16 -45 -48 -45c-39 0 -136 3 -175 3h-22v-207h175c21 0 44 0 44 -41c0 -40 -24 -40 -44 -40h-175v-226h44c37 0 130 3 167 3
c31 0 47 -3 47 -44v-8c0 -34 -9 -44 -44 -44h-290c-36 0 -45 10 -45 45v158h-188zM362 608l-123 -330h160v330h-37z" />
    <glyph glyph-name="OE" unicode="&#x152;" horiz-adv-x="924" 
d="M570 319v-227c15 1 108 2 130 2c45 0 89 2 134 2c31 0 50 0 50 -44v-8c0 -34 -9 -44 -44 -44h-328c-28 0 -47 -3 -82 -9c-43 -7 -60 -10 -88 -10c-67 0 -172 18 -240 103c-67 85 -74 192 -74 258c0 107 21 203 85 277c56 65 145 94 229 94c28 0 45 -3 88 -10
c35 -6 54 -9 82 -9h315c41 0 44 -17 44 -45c0 -45 -18 -45 -51 -45c-46 0 -161 3 -207 3h-43v-207h231c21 0 44 0 44 -41c0 -40 -24 -40 -44 -40h-231zM346 45c102 0 103 57 103 181c0 40 1 80 1 121c0 109 0 179 -5 214c-7 54 -19 88 -99 88c-199 0 -199 -240 -199 -290
c0 -74 7 -152 43 -218c31 -58 86 -96 156 -96z" />
    <glyph glyph-name="Oslash" unicode="&#xd8;" horiz-adv-x="738" 
d="M593 714l-30 -61c89 -65 122 -183 122 -311c0 -102 -20 -195 -82 -267c-47 -55 -129 -94 -234 -94c-34 0 -83 4 -133 24l-24 -47c-14 -26 -18 -33 -37 -33c-13 0 -37 10 -37 34c0 9 10 29 17 43c5 8 15 29 19 37c-93 67 -121 187 -121 303c0 97 17 198 85 277
c51 60 135 94 231 94c29 0 78 -3 133 -25l30 58c6 12 12 23 31 23c13 0 37 -10 37 -34c0 -6 0 -8 -7 -21zM214 118l255 506c-19 11 -55 25 -100 25c-205 0 -205 -225 -205 -306c0 -90 7 -164 50 -225zM523 574l-254 -504c43 -24 81 -25 100 -25c205 0 205 216 205 298
c0 76 -4 167 -51 231z" />
    <glyph glyph-name="suppress" horiz-adv-x="219" 
d="M237 365l-235 -55c-16 -4 -18 -4 -22 -4c-19 0 -32 13 -32 32c0 25 22 30 33 33l236 55c16 4 18 4 21 4c18 0 32 -13 32 -32c0 -25 -22 -30 -33 -33z" />
    <glyph glyph-name="exclam" unicode="!" horiz-adv-x="305" 
d="M126 694h55c23 0 25 0 25 -23c0 -79 -4 -162 -5 -242c-1 -31 -4 -221 -5 -236c-2 -10 -9 -10 -26 -10h-34c-20 0 -21 1 -24 7c-3 5 -6 170 -6 191c-1 65 -6 226 -6 290c0 23 2 23 26 23zM206 62v-18c0 -34 -9 -44 -44 -44h-17c-36 0 -45 10 -45 45v17c0 34 9 44 44 44h18
c38 0 44 -13 44 -44z" />
    <glyph glyph-name="quotedblright" unicode="&#x201d;" 
d="M138 597l-50 -105c-7 -14 -8 -15 -29 -15c-19 0 -27 0 -27 12c0 5 3 13 4 17l24 82c-27 0 -28 1 -28 26v54c0 26 1 26 25 26h56c24 0 25 0 25 -26v-71zM323 597l-50 -105c-7 -14 -8 -15 -29 -15c-19 0 -27 0 -27 12c0 5 3 13 4 17l24 82c-27 0 -28 1 -28 26v54
c0 26 1 26 25 26h56c24 0 25 0 25 -26v-71z" />
    <glyph glyph-name="numbersign" unicode="#" horiz-adv-x="791" 
d="M495 115l-64 -253c-4 -15 -16 -29 -35 -29c-20 0 -35 17 -35 35c0 5 1 7 4 20l58 227h-131l-64 -253c-4 -15 -16 -29 -35 -29c-20 0 -35 17 -35 35c0 5 1 7 4 20l58 227h-116c-14 0 -51 0 -51 35s33 35 45 35h140l40 158h-180c-12 0 -45 0 -45 35s37 35 51 35h193l62 247
c2 9 9 34 36 34c20 0 35 -17 35 -35c0 -5 0 -6 -4 -20l-57 -226h131l62 247c2 9 9 34 36 34c20 0 35 -17 35 -35c0 -5 0 -6 -4 -20l-57 -226h115c14 0 51 0 51 -35s-33 -35 -45 -35h-139l-40 -158h179c12 0 45 0 45 -35s-37 -35 -51 -35h-192zM311 185h130l40 158h-130z" />
    <glyph glyph-name="dollar" unicode="$" 
d="M269 616v-201c96 -21 152 -110 152 -213c0 -93 -32 -190 -152 -210c0 -18 0 -48 -32 -48s-32 31 -32 48c-36 4 -69 13 -101 30c-5 3 -62 33 -62 50c0 4 9 53 11 59c0 3 2 12 11 12c3 0 5 0 14 -8c16 -13 57 -47 127 -57v228c-85 18 -152 95 -152 200c0 91 36 179 152 196
c0 17 0 48 32 48s32 -30 32 -47c29 -3 59 -12 84 -25c6 -3 52 -28 52 -43c0 -4 -9 -53 -11 -59c0 -3 -2 -12 -11 -12c-3 0 -5 0 -14 8c-30 24 -60 39 -100 44zM205 434v179c-47 -14 -53 -65 -53 -89c0 -18 5 -68 53 -90zM269 287v-205c44 16 53 65 53 101
c0 16 -2 78 -53 104z" />
    <glyph glyph-name="percent" unicode="%" horiz-adv-x="879" 
d="M698 689l-457 -723c-6 -10 -14 -22 -33 -22s-35 16 -35 35c0 10 4 17 10 26l457 723c6 9 14 22 33 22c20 0 35 -17 35 -35c0 -10 -4 -17 -10 -26zM825 145c0 -28 0 -201 -152 -201c-141 0 -155 141 -155 202c0 25 0 93 38 145c27 36 70 56 117 56
c152 0 152 -173 152 -202zM673 8c16 0 57 10 57 138c0 121 -38 137 -57 137c-54 0 -54 -86 -54 -138c0 -51 0 -137 54 -137zM360 548c0 -28 0 -201 -152 -201c-141 0 -155 141 -155 202c0 25 0 93 38 145c27 36 70 56 117 56c152 0 152 -173 152 -202zM208 411
c16 0 57 10 57 138c0 121 -38 137 -57 137c-54 0 -54 -86 -54 -138c0 -51 0 -137 54 -137z" />
    <glyph glyph-name="ampersand" unicode="&#x26;" horiz-adv-x="716" 
d="M92 262l86 75c-32 76 -41 146 -41 195c0 112 78 181 159 181c88 0 142 -81 142 -156c0 -65 -58 -129 -153 -213c30 -59 75 -122 126 -185c67 69 109 168 133 263c5 21 6 26 16 26c4 0 52 -14 61 -16c4 -2 11 -4 11 -13c0 -4 -18 -86 -63 -176c-22 -45 -49 -89 -97 -143
c42 -33 71 -33 85 -33c15 0 45 2 83 14c6 3 9 4 12 4c11 0 11 -10 11 -26v-34c0 -24 -1 -25 -40 -35c-22 -6 -46 -9 -69 -9c-52 0 -104 16 -156 56c-56 -34 -115 -56 -185 -56c-100 0 -173 76 -173 163c0 61 35 103 52 118zM258 407c50 48 85 91 85 150c0 28 -9 92 -47 92
c-34 0 -63 -39 -63 -98c0 -56 14 -107 25 -144zM206 276c-30 -24 -55 -47 -55 -108c0 -9 1 -101 65 -101c13 0 64 2 117 31c-27 30 -87 107 -127 178z" />
    <glyph glyph-name="quoteright" unicode="&#x2019;" horiz-adv-x="263" 
d="M185 597l-50 -105c-7 -14 -8 -15 -29 -15c-19 0 -27 0 -27 12c0 5 3 13 4 17l24 82c-27 0 -28 1 -28 26v54c0 26 1 26 25 26h56c24 0 25 0 25 -26v-71z" />
    <glyph glyph-name="parenleft" unicode="(" horiz-adv-x="369" 
d="M276 750h14c16 0 24 0 24 -11c0 -3 0 -5 -10 -17c-75 -98 -121 -230 -121 -458c0 -283 73 -396 125 -462c5 -7 6 -9 6 -13c0 -11 -8 -11 -24 -11h-14c-16 0 -18 0 -20 2c-15 12 -184 144 -184 484c0 147 29 295 117 412c32 43 65 72 70 73c1 1 3 1 17 1z" />
    <glyph glyph-name="parenright" unicode=")" horiz-adv-x="369" 
d="M79 750h13c16 0 18 0 20 -2c15 -12 184 -144 184 -484c0 -147 -29 -295 -117 -412c-32 -43 -65 -72 -70 -73c-1 -1 -3 -1 -17 -1h-13c-15 0 -25 0 -25 11c0 3 0 5 10 17c72 95 121 223 121 458c0 284 -74 396 -125 462c-6 8 -6 10 -6 13c0 11 10 11 25 11z" />
    <glyph glyph-name="asterisk" unicode="*" 
d="M264 514l128 -57c8 -4 25 -11 25 -35c0 -23 -21 -46 -44 -46c-11 0 -18 4 -28 14l-92 92c7 -41 26 -158 26 -167c0 -26 -25 -37 -42 -37s-42 11 -42 37c0 4 0 6 3 23l23 144l-93 -92c-9 -9 -14 -14 -27 -14c-24 0 -44 23 -44 46c0 24 17 31 25 35l128 57l-128 57
c-8 4 -25 11 -25 35c0 23 21 46 44 46c11 0 18 -4 28 -14l92 -92l-23 144c-3 17 -3 19 -3 23c0 26 25 37 42 37s42 -11 42 -37c0 -4 0 -6 -3 -23l-23 -144l93 92c9 9 14 14 27 14c24 0 44 -23 44 -46c0 -24 -17 -31 -25 -35z" />
    <glyph glyph-name="plus" unicode="+" horiz-adv-x="738" 
d="M404 229v-235c0 -12 0 -47 -35 -47s-35 35 -35 47v235h-234c-12 0 -47 0 -47 35s35 35 47 35h234v235c0 12 0 47 35 47s35 -35 35 -47v-235h234c12 0 47 0 47 -35s-35 -35 -47 -35h-234z" />
    <glyph glyph-name="comma" unicode="," horiz-adv-x="263" 
d="M185 80v-54c0 -16 0 -18 -8 -35c-22 -46 -22 -48 -42 -86c-7 -15 -8 -16 -29 -16c-19 0 -27 0 -27 12c0 6 24 86 28 99c-27 0 -28 1 -28 26v54c0 26 1 26 25 26h56c24 0 25 0 25 -26z" />
    <glyph glyph-name="hyphen" unicode="-" horiz-adv-x="316" 
d="M219 204h-164c-13 0 -44 0 -44 32s31 32 44 32h164c13 0 44 0 44 -32s-31 -32 -44 -32z" />
    <glyph glyph-name="period" unicode="." horiz-adv-x="263" 
d="M185 80v-54c0 -26 -1 -26 -25 -26h-55c-25 0 -26 1 -26 26v54c0 26 1 26 25 26h56c24 0 25 0 25 -26z" />
    <glyph glyph-name="slash" unicode="/" 
d="M416 696l-293 -889c-2 -7 -10 -29 -35 -29c-20 0 -35 17 -35 35c0 3 0 5 5 19l293 889c2 7 10 29 35 29c20 0 35 -17 35 -35c0 -3 0 -5 -5 -19z" />
    <glyph glyph-name="zero" unicode="0" 
d="M437 343c0 -123 0 -362 -200 -362s-200 239 -200 362s0 370 200 370s200 -247 200 -370zM237 45c89 0 89 152 89 312c0 154 0 292 -89 292c-69 0 -80 -92 -83 -114c-6 -53 -6 -117 -6 -178c0 -160 0 -312 89 -312z" />
    <glyph glyph-name="one" unicode="1" 
d="M303 669v-605h61c13 0 44 0 44 -32s-31 -32 -44 -32h-240c-13 0 -45 0 -45 32s32 32 45 32h67v531c-26 -9 -56 -15 -83 -15c-11 0 -41 0 -41 32c0 11 7 31 35 32c21 1 86 2 128 52c9 11 14 17 35 17c38 0 38 -26 38 -44z" />
    <glyph glyph-name="two" unicode="2" 
d="M56 75l171 215c46 58 85 127 85 199c0 16 -3 138 -102 138c-71 0 -95 -62 -109 -121c-4 -14 -5 -19 -14 -19c-6 0 -8 3 -15 12c-17 25 -32 46 -32 52c0 3 15 65 56 110c32 34 75 52 128 52c130 0 203 -106 203 -223c0 -98 -51 -153 -177 -288l-97 -110c7 1 9 1 20 1h122
c20 0 42 1 62 1c56 0 70 0 70 -44v-6c0 -34 -9 -44 -44 -44h-291c-36 0 -45 10 -45 45c0 18 0 20 9 30z" />
    <glyph glyph-name="three" unicode="3" 
d="M158 369v12c0 20 1 21 6 24c2 1 3 2 28 4c34 3 56 5 78 41c16 26 23 63 23 98c0 39 -4 90 -68 90c-19 0 -86 -6 -121 -85c-3 -7 -5 -12 -12 -12c-11 0 -38 52 -38 55c0 11 50 117 175 117c116 0 179 -66 179 -165c0 -86 -53 -143 -100 -172c66 -20 126 -68 126 -176
c0 -152 -91 -219 -206 -219c-124 0 -188 94 -188 108c0 3 5 32 6 38c3 21 4 27 14 27c5 0 6 -1 15 -14c51 -72 125 -79 149 -79c87 0 88 97 88 141c0 95 -24 141 -95 141h-34c-24 0 -25 0 -25 26z" />
    <glyph glyph-name="four" unicode="4" 
d="M33 261l197 409c11 23 18 24 42 24h52c35 0 44 -10 44 -44v-403h36c21 0 44 0 44 -41c0 -40 -24 -40 -44 -40h-36v-122c0 -34 -9 -44 -44 -44h-17c-38 0 -44 13 -44 44v122h-193c-38 0 -44 13 -44 44v18c0 17 0 19 7 33zM114 247h155v357c0 -12 -18 -56 -31 -87
c-46 -112 -108 -235 -124 -270z" />
    <glyph glyph-name="five" unicode="5" 
d="M176 608v-175c21 10 45 15 69 15c62 0 112 -28 138 -64c39 -54 44 -116 44 -164c0 -36 -2 -117 -57 -178c-29 -31 -82 -61 -159 -61c-124 0 -178 104 -178 115c0 1 25 63 38 63c7 0 10 -5 11 -9c37 -89 117 -89 126 -89c97 0 97 96 97 162c0 63 0 161 -62 161
c-55 0 -80 -44 -90 -60c-10 -18 -19 -20 -39 -20c-42 0 -43 22 -43 46v298c0 35 8 46 45 46h235c33 0 44 -8 44 -43c0 -36 -12 -43 -44 -43h-175z" />
    <glyph glyph-name="six" unicode="6" 
d="M376 666v-24c0 -16 0 -26 -11 -26c-2 0 -4 0 -16 7c-16 10 -37 15 -57 15c-127 0 -134 -161 -137 -247c19 48 54 83 111 83c67 0 106 -32 134 -79c33 -56 34 -110 34 -162c0 -72 -4 -125 -51 -186c-42 -55 -96 -66 -143 -66c-200 0 -200 270 -200 358c0 60 0 174 56 266
c49 78 126 108 193 108c10 0 32 0 56 -10c31 -12 31 -15 31 -37zM239 61c80 0 80 92 80 172c0 82 0 177 -76 177c-52 0 -86 -48 -86 -159c0 -75 8 -190 82 -190z" />
    <glyph glyph-name="seven" unicode="7" 
d="M304 601h-129c-20 0 -42 -1 -63 -1c-59 0 -72 0 -72 44v7c0 44 12 44 77 44h36c44 0 201 0 233 -1s48 -1 48 -43c0 -19 0 -21 -9 -33c-128 -195 -180 -386 -182 -596c0 -32 -31 -32 -44 -32h-29c-43 0 -44 19 -44 46c0 206 75 403 201 566c-7 -1 -14 -1 -23 -1z" />
    <glyph glyph-name="eight" unicode="8" 
d="M318 375c77 -25 116 -86 116 -176c0 -141 -74 -218 -197 -218c-119 0 -197 73 -197 218c0 74 27 147 116 176c-83 27 -103 92 -103 149c0 114 61 189 184 189c121 0 184 -73 184 -189c0 -53 -18 -122 -103 -149zM237 407c81 0 81 69 81 116c0 49 0 115 -81 115
s-81 -65 -81 -115c0 -47 0 -116 81 -116zM237 61c83 0 83 81 83 140c0 56 0 142 -83 142s-83 -86 -83 -142c0 -59 0 -140 83 -140z" />
    <glyph glyph-name="nine" unicode="9" 
d="M319 303c-27 -61 -63 -83 -111 -83c-75 0 -111 40 -136 84c-32 55 -32 111 -32 158c0 60 1 120 50 183c38 48 85 68 149 68c195 0 195 -267 195 -356c0 -77 -2 -187 -61 -280c-36 -55 -100 -96 -176 -96c-87 0 -127 53 -127 60c0 2 28 61 39 61c4 0 7 -1 12 -6
c10 -12 30 -35 75 -35c42 0 84 27 103 87c15 46 16 78 20 155zM231 284c87 0 87 139 87 157c0 102 -15 197 -78 197c-85 0 -85 -97 -85 -177c0 -81 0 -177 76 -177z" />
    <glyph glyph-name="colon" unicode=":" horiz-adv-x="263" 
d="M185 446v-54c0 -26 -1 -26 -25 -26h-56c-24 0 -25 0 -25 26v54c0 25 1 26 26 26h55c24 0 25 0 25 -26zM104 106h56c24 0 25 0 25 -26v-54c0 -26 -1 -26 -25 -26h-55c-25 0 -26 1 -26 26v54c0 26 1 26 25 26z" />
    <glyph glyph-name="semicolon" unicode=";" horiz-adv-x="263" 
d="M185 446v-54c0 -26 -1 -26 -25 -26h-56c-24 0 -25 0 -25 26v54c0 25 1 26 26 26h55c24 0 25 0 25 -26zM104 106h56c24 0 25 0 25 -26v-54c0 -16 0 -18 -8 -35c-22 -46 -22 -48 -42 -86c-7 -15 -8 -16 -29 -16c-19 0 -27 0 -27 12c0 6 24 86 28 99c-27 0 -28 1 -28 26v54
c0 26 1 26 25 26z" />
    <glyph glyph-name="exclamdown" unicode="&#xa1;" horiz-adv-x="305" 
d="M206 484v-18c0 -34 -9 -44 -44 -44h-18c-38 0 -44 13 -44 44v17c0 36 10 45 45 45h17c38 0 44 -13 44 -44zM136 345h34c20 0 21 -1 24 -6c3 -6 5 -171 6 -192c1 -65 6 -226 6 -291c0 -23 -2 -23 -25 -23h-55c-24 0 -26 0 -26 23c0 80 4 163 5 243c1 37 3 211 5 235
c1 11 10 11 26 11z" />
    <glyph glyph-name="equal" unicode="=" horiz-adv-x="738" 
d="M640 343h-542c-12 0 -45 0 -45 35s37 35 51 35h530c14 0 51 0 51 -35s-33 -35 -45 -35zM634 115h-530c-14 0 -51 0 -51 35s33 35 45 35h542c12 0 45 0 45 -35s-37 -35 -51 -35z" />
    <glyph glyph-name="questiondown" unicode="&#xbf;" horiz-adv-x="448" 
d="M264 484v-18c0 -34 -9 -44 -44 -44h-18c-38 0 -44 13 -44 44v17c0 36 10 45 45 45h17c38 0 44 -13 44 -44zM194 345h34c25 0 26 -1 26 -36c0 -51 0 -130 -71 -255c-14 -23 -19 -32 -19 -84c0 -61 6 -83 50 -83c29 0 83 7 135 53c7 7 11 10 15 10c7 0 8 -1 19 -29
c4 -12 12 -33 12 -36c0 -14 -87 -62 -184 -62c-91 0 -158 37 -158 152c0 27 2 76 39 114c63 63 77 133 77 217v15c0 23 1 24 25 24z" />
    <glyph glyph-name="question" unicode="?" horiz-adv-x="448" 
d="M254 244v-34c0 -27 -1 -27 -26 -27h-34c-24 0 -25 1 -25 24v43c0 56 20 140 91 227c15 20 24 30 24 80c0 53 -8 83 -72 83c-27 0 -74 -6 -115 -53c-5 -7 -8 -10 -13 -10c-7 0 -8 1 -19 29c-4 12 -11 33 -11 36c0 11 65 62 161 62c62 0 180 -11 180 -152
c0 -30 -6 -80 -46 -114c-79 -66 -95 -143 -95 -194zM264 62v-18c0 -34 -9 -44 -44 -44h-17c-36 0 -45 10 -45 45v17c0 34 9 44 44 44h18c38 0 44 -13 44 -44z" />
    <glyph glyph-name="at" unicode="@" horiz-adv-x="633" 
d="M512 98h43c16 0 24 0 24 -11s-80 -97 -212 -97c-100 0 -195 38 -249 116c-56 79 -65 168 -65 241c0 64 8 169 71 250c62 79 156 107 242 107c203 0 214 -191 214 -337c0 -56 0 -115 -38 -174c-25 -39 -75 -73 -146 -73c-22 0 -94 3 -142 69c-41 57 -41 133 -41 158
c0 33 0 227 184 227c29 0 54 -7 60 -9c-12 43 -45 75 -91 75c-72 0 -132 -33 -171 -98c-32 -53 -41 -129 -41 -195c0 -48 0 -293 216 -293c23 0 84 4 142 44zM397 184c15 0 82 3 82 163c0 72 -15 163 -83 163c-15 0 -82 -3 -82 -163c0 -72 15 -163 83 -163z" />
    <glyph glyph-name="A" unicode="A" horiz-adv-x="636" 
d="M403 656l193 -617c4 -11 4 -13 4 -14c0 -25 -24 -25 -38 -25h-34c-44 0 -49 13 -65 64l-33 107h-242l-42 -131c-7 -22 -13 -40 -57 -40h-16c-14 0 -38 0 -38 25c0 4 3 12 4 16l193 616c12 37 39 37 57 37h57c20 0 45 0 57 -38zM269 439l-58 -193h196l-56 185
c-11 37 -36 119 -42 157h-1c-4 -30 -21 -89 -39 -149z" />
    <glyph glyph-name="B" unicode="B" horiz-adv-x="634" 
d="M126 694h200c169 0 229 -87 229 -178c0 -80 -54 -134 -137 -153c125 -21 163 -98 163 -171c0 -93 -55 -192 -230 -192h-225c-36 0 -45 10 -45 45v604c0 36 10 45 45 45zM197 393h99c110 0 148 58 148 121c0 105 -126 105 -148 105h-99v-226zM197 75h124
c93 0 146 41 146 119c0 135 -134 135 -162 135h-108v-254z" />
    <glyph glyph-name="C" unicode="C" horiz-adv-x="606" 
d="M559 51c0 -8 -1 -9 -22 -24c-56 -36 -94 -46 -164 -46c-99 0 -177 30 -236 93c-71 77 -84 195 -84 273c0 68 8 176 73 259c60 77 151 107 245 107c63 0 107 -11 152 -28c21 -9 25 -10 25 -20s-10 -61 -13 -74c-1 -5 -3 -14 -12 -14c-3 0 -5 0 -14 7
c-32 22 -72 43 -137 43c-197 0 -197 -231 -197 -280c0 -101 21 -280 200 -280c70 0 103 13 150 47c12 9 14 9 17 9c9 0 10 -8 11 -12c1 -7 6 -53 6 -60z" />
    <glyph glyph-name="D" unicode="D" horiz-adv-x="687" 
d="M126 694h218c87 0 174 -33 225 -107c44 -63 64 -141 64 -245c0 -94 -17 -187 -79 -257c-55 -64 -139 -85 -209 -85h-219c-36 0 -45 10 -45 45v604c0 36 10 45 45 45zM200 75h112c202 0 202 187 202 267c0 81 0 277 -203 277h-111v-544z" />
    <glyph glyph-name="E" unicode="E" horiz-adv-x="566" 
d="M203 318v-226c18 2 108 2 132 2c47 0 94 2 141 2c31 0 50 0 50 -44v-8c0 -34 -9 -44 -44 -44h-356c-36 0 -45 10 -45 45v601c0 36 10 45 45 45h343c41 0 44 -17 44 -45c0 -45 -18 -45 -52 -45c-47 0 -165 3 -212 3h-46v-205h240c21 0 44 0 44 -41c0 -40 -24 -40 -44 -40
h-240z" />
    <glyph glyph-name="F" unicode="F" horiz-adv-x="540" 
d="M203 305v-261c0 -34 -9 -44 -44 -44h-33c-36 0 -45 10 -45 45v601c0 36 10 45 45 45h329c41 0 44 -17 44 -45c0 -45 -18 -45 -51 -45c-46 0 -159 3 -205 3h-40v-218h213c21 0 44 0 44 -41c0 -40 -24 -40 -44 -40h-213z" />
    <glyph glyph-name="G" unicode="G" horiz-adv-x="633" 
d="M569 310v-252c0 -23 -1 -24 -23 -35c-77 -39 -144 -42 -177 -42c-76 0 -174 21 -241 104c-75 93 -75 221 -75 262c0 72 9 186 83 272c51 58 133 94 234 94c46 0 102 -5 165 -39c25 -14 26 -15 26 -23c0 -10 -10 -61 -13 -74c-1 -5 -3 -14 -12 -14c-5 0 -6 1 -13 6
c-24 21 -67 58 -151 58c-197 0 -197 -230 -197 -280c0 -49 0 -280 197 -280c4 0 44 0 86 11v179h-62c-26 0 -27 1 -27 28v25c0 27 1 28 28 28h145c26 0 27 -1 27 -28z" />
    <glyph glyph-name="H" unicode="H" horiz-adv-x="677" 
d="M596 650v-606c0 -34 -9 -44 -44 -44h-34c-38 0 -44 13 -44 44v276h-271v-276c0 -34 -9 -44 -44 -44h-33c-36 0 -45 10 -45 45v604c0 36 10 45 45 45h33c38 0 44 -13 44 -44v-249h271v249c0 34 9 44 44 44h34c38 0 44 -13 44 -44z" />
    <glyph glyph-name="I" unicode="I" horiz-adv-x="283" 
d="M202 650v-606c0 -34 -9 -44 -44 -44h-33c-36 0 -45 10 -45 45v604c0 36 10 45 45 45h33c38 0 44 -13 44 -44z" />
    <glyph glyph-name="J" unicode="J" horiz-adv-x="450" 
d="M368 650v-503c0 -105 -66 -166 -165 -166c-55 0 -100 14 -141 34c-17 9 -22 11 -22 21c0 5 10 60 12 68s4 12 12 12c5 0 7 -2 13 -10c34 -40 79 -46 98 -46c74 0 74 75 74 93v497c0 34 9 44 44 44h31c38 0 44 -13 44 -44z" />
    <glyph glyph-name="K" unicode="K" horiz-adv-x="662" 
d="M361 407l244 -380c0 -27 -13 -27 -34 -27h-39c-26 0 -32 1 -46 23l-197 306l-97 -106v-179c0 -34 -9 -44 -44 -44h-22c-36 0 -45 10 -45 45v604c0 36 10 45 45 45h22c38 0 44 -13 44 -44v-289l286 312c19 21 32 21 52 21h37c14 0 33 0 33 -19c0 -7 -3 -10 -12 -20z" />
    <glyph glyph-name="L" unicode="L" horiz-adv-x="513" 
d="M203 650v-563c51 0 177 4 228 4c42 0 42 -23 42 -46c0 -30 -4 -45 -44 -45h-303c-36 0 -45 10 -45 45v604c0 36 10 45 45 45h33c38 0 44 -13 44 -44z" />
    <glyph glyph-name="M" unicode="M" horiz-adv-x="836" 
d="M490 371l97 281c8 24 14 42 59 42h64c38 0 44 -13 44 -44v-606c0 -34 -9 -44 -44 -44h-16c-38 0 -44 13 -44 44v540c0 -18 -71 -235 -75 -245l-96 -278c-12 -36 -24 -42 -63 -42c-25 0 -50 0 -63 39l-90 264c-15 44 -29 88 -42 132c-11 37 -31 99 -35 130h-1v-540
c0 -34 -9 -44 -44 -44h-15c-36 0 -45 10 -45 45v604c0 36 10 45 45 45h62c20 0 46 0 59 -39l90 -263l44 -136c21 -67 32 -107 35 -130h1c3 21 14 58 33 122z" />
    <glyph glyph-name="N" unicode="N" horiz-adv-x="677" 
d="M261 654l189 -442c21 -50 29 -67 41 -106h1v544c0 34 9 44 44 44h16c38 0 44 -13 44 -44v-606c0 -34 -9 -44 -44 -44h-73c-35 0 -49 7 -63 40l-189 442c-21 50 -29 67 -41 106h-1v-544c0 -34 -9 -44 -44 -44h-15c-36 0 -45 10 -45 45v604c0 36 10 45 45 45h72
c35 0 49 -7 63 -40z" />
    <glyph glyph-name="O" unicode="O" horiz-adv-x="697" 
d="M643 342c0 -84 -12 -191 -79 -270c-59 -70 -146 -91 -216 -91c-92 0 -168 35 -213 87c-70 81 -82 187 -82 274c0 132 29 206 66 261c49 71 134 110 229 110c59 0 169 -15 238 -125c55 -88 57 -203 57 -246zM348 53c37 0 105 15 143 103c28 66 30 139 30 202
c0 57 -1 134 -34 198c-40 77 -108 87 -139 87c-42 0 -100 -17 -136 -82c-37 -65 -37 -154 -37 -203c0 -80 5 -142 30 -201c37 -88 105 -104 143 -104z" />
    <glyph glyph-name="P" unicode="P" horiz-adv-x="608" 
d="M203 278v-234c0 -34 -9 -44 -44 -44h-33c-36 0 -45 10 -45 45v604c0 36 10 45 45 45h206c149 0 222 -84 222 -210c0 -161 -117 -206 -213 -206h-138zM200 619v-272h102c128 0 138 72 138 136c0 67 -12 136 -138 136h-102z" />
    <glyph glyph-name="Q" unicode="Q" horiz-adv-x="697" 
d="M565 -111h-60c-31 0 -31 1 -54 37l-36 61c-33 -6 -39 -6 -67 -6c-92 0 -168 35 -213 87c-70 81 -82 187 -82 274c0 132 29 206 66 261c49 71 134 110 229 110c59 0 169 -15 238 -125c55 -88 57 -203 57 -246c0 -35 -2 -115 -30 -186c-24 -61 -58 -101 -93 -124l64 -94
c14 -22 14 -24 14 -28c0 -21 -19 -21 -33 -21zM346 99l-24 39c-7 11 -17 29 -17 35c0 21 20 21 34 21h46c20 0 23 0 32 -12l50 -75c57 66 57 182 57 236c0 76 -5 145 -35 209c-29 59 -84 91 -141 91c-55 0 -105 -30 -133 -77c-40 -69 -43 -151 -43 -223
c0 -64 3 -134 31 -194c37 -81 102 -98 145 -98c2 0 24 0 24 4c0 2 -22 38 -26 44z" />
    <glyph glyph-name="R" unicode="R" horiz-adv-x="613" 
d="M417 324l150 -287c5 -10 6 -11 6 -15c0 -22 -22 -22 -35 -22h-42c-29 0 -32 3 -43 24l-148 291h-105v-271c0 -34 -9 -44 -44 -44h-30c-36 0 -45 10 -45 45v604c0 36 10 45 45 45h199c162 0 235 -84 235 -194c0 -112 -76 -157 -143 -176zM200 379h110
c119 0 136 58 136 120c0 64 -18 120 -135 120h-111v-240z" />
    <glyph glyph-name="S" unicode="S" horiz-adv-x="527" 
d="M474 195c0 -122 -65 -214 -211 -214c-59 0 -125 14 -192 55c-28 17 -29 18 -29 27c0 10 10 61 13 74c1 5 3 14 12 14c3 0 5 0 16 -10c71 -60 147 -67 179 -67c89 0 107 62 107 110c0 58 -37 94 -67 106c-8 3 -44 12 -65 18c-56 14 -87 22 -133 70c-5 5 -51 54 -51 134
c0 107 57 201 212 201c76 0 119 -20 153 -40c23 -13 24 -14 24 -22c0 -10 -10 -61 -13 -74c-1 -5 -3 -14 -12 -14c-5 0 -6 1 -12 7c-30 28 -69 56 -139 56c-62 0 -108 -28 -108 -99c0 -42 23 -64 33 -75c17 -16 30 -20 91 -36c53 -14 97 -25 138 -73c50 -59 54 -116 54 -148
z" />
    <glyph glyph-name="T" unicode="T" horiz-adv-x="644" 
d="M383 601v-557c0 -34 -9 -44 -44 -44h-33c-36 0 -45 10 -45 45v556c-16 0 -176 -3 -180 -3c-35 0 -47 6 -47 45c0 36 10 45 45 45h486c41 0 44 -17 44 -45c0 -38 -11 -45 -46 -45c-40 0 -140 3 -180 3z" />
    <glyph glyph-name="U" unicode="U" horiz-adv-x="656" 
d="M575 650v-422c0 -137 -76 -247 -245 -247c-168 0 -249 107 -249 247v421c0 36 10 45 45 45h33c38 0 44 -13 44 -44v-423c0 -57 7 -171 128 -171c126 0 133 116 133 172v422c0 34 9 44 44 44h23c38 0 44 -13 44 -44z" />
    <glyph glyph-name="V" unicode="V" horiz-adv-x="636" 
d="M607 650l-201 -611c-13 -39 -39 -39 -58 -39h-61c-21 0 -45 0 -58 40l-201 610c-5 14 -5 16 -5 19c0 25 21 25 37 25h34c20 0 45 0 58 -39l115 -352c8 -23 21 -68 31 -103c10 -31 23 -74 26 -94h1c9 49 48 169 70 235l103 313c12 37 29 40 58 40h19c16 0 37 0 37 -25
c0 -3 0 -5 -5 -19z" />
    <glyph glyph-name="W" unicode="W" horiz-adv-x="900" 
d="M876 654l-148 -615c-9 -39 -34 -39 -54 -39h-48c-22 0 -45 0 -55 41l-77 324c-17 71 -39 164 -47 222h-1c-7 -54 -43 -208 -46 -219l-77 -325c-10 -43 -33 -43 -55 -43h-43c-20 0 -45 0 -54 39l-148 615c-3 10 -3 12 -3 14c0 26 26 26 39 26h21c19 0 45 0 54 -38l83 -352
c14 -60 34 -146 38 -195h1c3 32 29 155 53 257l68 288c9 40 34 40 55 40h43c19 0 45 0 54 -39l79 -333c16 -69 37 -157 45 -215h1c6 52 31 158 46 220l78 329c9 38 35 38 58 38c18 0 43 0 43 -26c0 -2 0 -4 -3 -14z" />
    <glyph glyph-name="X" unicode="X" horiz-adv-x="636" 
d="M370 367l233 -340c0 -27 -12 -27 -33 -27h-56c-26 0 -32 2 -45 22l-158 252l-153 -252c-13 -22 -23 -22 -45 -22h-48c-16 0 -34 0 -34 21c0 4 0 7 8 19l213 327l-198 287c-7 10 -9 13 -9 20c0 20 19 20 34 20h56c26 0 32 -2 44 -21l132 -202l128 205c11 18 26 18 43 18
h49c14 0 34 0 34 -21c0 -5 -2 -7 -8 -17z" />
    <glyph glyph-name="Y" unicode="Y" horiz-adv-x="636" 
d="M607 653l-230 -376v-234c0 -38 -14 -43 -44 -43h-31c-35 0 -44 10 -44 44v234l-233 379c-2 3 -6 10 -6 16c0 21 21 21 35 21h41c18 0 48 0 70 -36l113 -189c26 -44 36 -61 48 -89c14 44 166 287 169 291c20 23 45 23 61 23h25c15 0 35 0 35 -21c0 -6 -2 -8 -9 -20z" />
    <glyph glyph-name="Z" unicode="Z" horiz-adv-x="580" 
d="M518 618l-323 -531l288 4c35 0 50 -2 50 -46c0 -30 -4 -45 -44 -45h-392c-39 0 -44 15 -44 45c0 19 0 21 9 35l324 533h-36c-76 0 -154 -3 -230 -3c-35 0 -54 0 -54 42c0 41 22 42 45 42h372c30 0 44 -6 44 -43c0 -17 0 -19 -9 -33z" />
    <glyph glyph-name="bracketleft" unicode="[" horiz-adv-x="293" 
d="M183 686v-844h44c13 0 44 0 44 -32s-31 -32 -44 -32h-105c-38 0 -44 13 -44 44v884c0 34 9 44 44 44h105c13 0 44 0 44 -32s-31 -32 -44 -32h-44z" />
    <glyph glyph-name="quotedblleft" unicode="&#x201c;" 
d="M253 665l-24 -82c27 0 28 -1 28 -26v-54c0 -26 -1 -26 -25 -26h-56c-24 0 -25 0 -25 26v71l50 105c7 14 8 15 29 15c19 0 27 0 27 -12c0 -5 -3 -13 -4 -17zM438 665l-24 -82c27 0 28 -1 28 -26v-54c0 -26 -1 -26 -25 -26h-56c-24 0 -25 0 -25 26v71l50 105
c7 14 8 15 29 15c19 0 27 0 27 -12c0 -5 -3 -13 -4 -17z" />
    <glyph glyph-name="bracketright" unicode="]" horiz-adv-x="293" 
d="M214 706v-884c0 -34 -9 -44 -44 -44h-105c-13 0 -44 0 -44 32s31 32 44 32h44v844h-44c-13 0 -44 0 -44 32s31 32 44 32h105c38 0 44 -13 44 -44z" />
    <glyph glyph-name="circumflex" unicode="&#x2c6;" 
d="M287 683l90 -113c7 -8 7 -10 7 -13c0 -11 -8 -11 -24 -11h-32l-91 82l-91 -82h-32c-16 0 -24 0 -24 11c0 4 2 7 8 15l88 111c9 11 12 11 30 11h43c18 0 19 -1 28 -11z" />
    <glyph glyph-name="dotaccent" unicode="&#x2d9;" horiz-adv-x="263" 
d="M193 648v-24c0 -37 -10 -47 -45 -47h-33c-36 0 -45 11 -45 47v24c0 39 11 47 45 47h33c35 0 45 -9 45 -47z" />
    <glyph glyph-name="quoteleft" unicode="&#x2018;" horiz-adv-x="263" 
d="M181 665l-24 -82c27 0 28 -1 28 -26v-54c0 -26 -1 -26 -25 -26h-56c-24 0 -25 0 -25 26v71l50 105c7 14 8 15 29 15c19 0 27 0 27 -12c0 -5 -3 -13 -4 -17z" />
    <glyph glyph-name="a" unicode="a" horiz-adv-x="452" 
d="M398 331v-287c0 -34 -9 -44 -44 -44h-20c-38 0 -44 13 -44 44v25c-16 -29 -61 -79 -133 -79c-78 0 -131 70 -131 142c0 148 207 157 250 159c10 1 11 2 11 19v20c0 98 -45 98 -67 98c-38 0 -84 -10 -125 -50c-10 -9 -11 -10 -16 -10c-10 0 -11 6 -13 29c-1 8 -3 29 -3 36
c0 11 5 13 24 23c41 20 81 31 137 31c121 0 174 -63 174 -156zM287 155v101c-48 -3 -156 -20 -156 -122c0 -42 27 -80 67 -80c17 0 89 10 89 101z" />
    <glyph glyph-name="b" unicode="b" horiz-adv-x="483" 
d="M164 650v-223c16 19 56 55 117 55c143 0 169 -150 169 -245c0 -29 0 -109 -40 -169c-39 -59 -98 -78 -148 -78c-49 0 -80 26 -95 45c-1 -35 -26 -35 -44 -35h-22c-36 0 -45 10 -45 45v604c0 36 10 45 45 45h19c38 0 44 -13 44 -44zM167 361v-267c8 -13 30 -40 68 -40
c104 0 104 121 104 184c0 61 0 180 -94 180c-14 0 -34 -4 -52 -15c-26 -18 -26 -24 -26 -42z" />
    <glyph glyph-name="c" unicode="c" horiz-adv-x="422" 
d="M395 62c0 -21 -59 -50 -60 -51c-40 -19 -79 -21 -97 -21c-52 0 -113 16 -153 64c-53 65 -53 152 -53 183c0 158 72 250 210 250c64 0 91 -12 130 -35c14 -8 17 -9 17 -18c0 -3 -6 -32 -7 -37c-4 -23 -5 -28 -14 -28c-3 0 -5 0 -14 9c-32 25 -56 39 -111 39
c-95 0 -100 -106 -100 -179c0 -52 0 -178 97 -178c74 0 113 44 126 57c6 8 8 9 13 9c10 0 11 -5 13 -28c1 -8 3 -29 3 -36z" />
    <glyph glyph-name="d" unicode="d" horiz-adv-x="483" 
d="M426 650v-606c0 -34 -9 -44 -44 -44h-23c-38 0 -44 13 -44 44c-3 -5 -40 -54 -107 -54c-36 0 -98 10 -141 81c-35 59 -35 138 -35 165c0 32 0 113 43 176c45 65 115 70 138 70c55 0 90 -31 105 -49v217c0 34 9 44 44 44h20c38 0 44 -13 44 -44zM315 101v283
c-2 2 -26 34 -68 34c-104 0 -104 -121 -104 -183s0 -181 94 -181c36 0 62 22 78 47z" />
    <glyph glyph-name="e" unicode="e" horiz-adv-x="438" 
d="M367 232h-238c0 -30 0 -178 118 -178c21 0 82 6 129 62c5 6 8 9 13 9c10 0 10 -5 13 -24c1 -9 3 -28 3 -36c0 -19 -44 -44 -63 -53c-31 -14 -62 -22 -99 -22c-98 0 -217 54 -217 249c0 198 117 248 205 248c116 0 180 -75 180 -212c0 -36 -12 -43 -44 -43zM130 279h195
c-2 51 -6 144 -93 144c-69 0 -98 -72 -102 -144z" />
    <glyph glyph-name="f" unicode="f" horiz-adv-x="290" 
d="M186 408v-364c0 -34 -9 -44 -44 -44h-19c-36 0 -45 10 -45 45v363c-24 0 -53 0 -53 32s30 32 53 32v77c0 96 56 155 166 155c9 0 30 0 56 -5c28 -6 29 -7 29 -31v-28c0 -16 0 -25 -11 -25c-4 0 -6 1 -13 6c-22 16 -43 19 -61 19c-61 0 -61 -42 -61 -66v-102h44
c13 0 44 0 44 -32s-31 -32 -44 -32h-41z" />
    <glyph glyph-name="g" unicode="g" horiz-adv-x="483" 
d="M426 438v-411c0 -109 -48 -214 -193 -214c-33 0 -90 4 -151 33c-15 8 -16 9 -16 30v23c0 15 0 26 11 26c3 0 5 0 13 -7c29 -18 75 -41 141 -41c63 0 84 51 84 123v93h-1c-28 -71 -80 -72 -100 -72c-25 0 -95 6 -139 63c-42 55 -43 123 -43 154c0 46 5 115 44 171
c40 58 103 73 145 73c35 0 69 -13 97 -58c0 41 0 58 44 58h20c38 0 44 -13 44 -44zM318 272v63c0 42 -28 83 -71 83c-86 0 -104 -105 -104 -180c0 -26 0 -153 93 -153c50 0 78 49 79 163c0 12 0 14 3 24z" />
    <glyph glyph-name="h" unicode="h" horiz-adv-x="483" 
d="M428 342v-298c0 -34 -9 -44 -44 -44h-23c-38 0 -44 13 -44 44v294c0 56 -12 80 -54 80c-47 0 -98 -44 -98 -135v-239c0 -34 -9 -44 -44 -44h-22c-36 0 -45 10 -45 45v604c0 36 10 45 45 45h19c38 0 44 -13 44 -44v-263h1c17 37 57 95 137 95c103 0 128 -60 128 -140z" />
    <glyph glyph-name="i" unicode="i" horiz-adv-x="219" 
d="M170 648v-28c0 -39 -11 -47 -45 -47h-33c-39 0 -44 14 -44 42v38c0 34 11 42 44 42h33c35 0 45 -9 45 -47zM55 45v382c0 36 10 45 45 45h19c38 0 44 -13 44 -44v-384c0 -34 -9 -44 -44 -44h-19c-36 0 -45 10 -45 45z" />
    <glyph glyph-name="j" unicode="j" horiz-adv-x="245" 
d="M190 651v-34c0 -34 -9 -44 -44 -44h-34c-38 0 -44 13 -44 44v34c0 34 9 44 44 44h34c38 0 44 -13 44 -44zM82 -41v469c0 34 9 44 44 44h20c38 0 44 -13 44 -44v-453c0 -102 -51 -152 -128 -152c-50 0 -124 23 -124 41c0 4 5 22 7 30c3 15 5 22 14 22c2 0 3 0 14 -6
c9 -6 28 -14 52 -14c57 0 57 38 57 63z" />
    <glyph glyph-name="k" unicode="k" horiz-adv-x="456" 
d="M262 285l155 -248c7 -10 7 -12 7 -16c0 -21 -20 -21 -34 -21h-28c-16 0 -31 0 -41 15l-123 198l-42 -44v-125c0 -34 -9 -44 -44 -44h-6c-36 0 -45 10 -45 45v604c0 36 10 45 45 45h9c38 0 44 -13 44 -44v-345l134 147c18 20 30 20 51 20h33c14 0 33 0 33 -19
c0 -7 -3 -10 -12 -20z" />
    <glyph glyph-name="l" unicode="l" horiz-adv-x="219" 
d="M163 650v-606c0 -34 -9 -44 -44 -44h-19c-36 0 -45 10 -45 45v604c0 36 10 45 45 45h19c38 0 44 -13 44 -44z" />
    <glyph glyph-name="m" unicode="m" horiz-adv-x="747" 
d="M693 342v-298c0 -34 -9 -44 -44 -44h-22c-36 0 -45 10 -45 45v293c0 55 -12 80 -54 80c-49 0 -99 -45 -99 -135v-239c0 -34 -9 -44 -44 -44h-22c-36 0 -45 10 -45 45v293c0 55 -12 80 -54 80c-49 0 -99 -45 -99 -135v-239c0 -34 -9 -44 -44 -44h-22c-36 0 -45 10 -45 45
v388c0 36 10 45 45 45h16c38 0 44 -13 44 -44v-53l1 -1c13 31 51 102 140 102c45 0 113 -9 126 -97c25 53 68 97 138 97c99 0 129 -53 129 -140z" />
    <glyph glyph-name="n" unicode="n" horiz-adv-x="483" 
d="M428 342v-298c0 -34 -9 -44 -44 -44h-23c-38 0 -44 13 -44 44v294c0 56 -12 80 -54 80c-47 0 -98 -44 -98 -135v-239c0 -34 -9 -44 -44 -44h-22c-36 0 -45 10 -45 45v388c0 36 10 45 45 45h16c38 0 44 -13 44 -44v-54h1c25 55 66 102 140 102c103 0 128 -60 128 -140z
" />
    <glyph glyph-name="o" unicode="o" 
d="M448 232c0 -40 -3 -121 -56 -180c-45 -51 -111 -62 -155 -62c-71 0 -127 27 -158 64c-46 56 -53 124 -53 178c0 62 10 129 51 183c40 54 105 72 160 72c51 0 116 -15 159 -70c47 -59 52 -138 52 -185zM237 60c100 0 100 117 100 184c0 66 0 179 -100 179
s-100 -112 -100 -179s0 -184 100 -184z" />
    <glyph glyph-name="p" unicode="p" horiz-adv-x="483" 
d="M167 35v-158c0 -34 -9 -44 -44 -44h-22c-36 0 -45 10 -45 45v549c0 36 10 45 45 45h19c44 0 44 -20 44 -48c30 33 72 58 124 58c134 0 162 -143 162 -244c0 -54 -5 -115 -41 -172c-32 -49 -89 -76 -146 -76c-29 0 -60 6 -96 45zM167 375v-282c2 -3 25 -39 68 -39
c104 0 104 154 104 182c0 30 0 176 -95 176c-30 0 -58 -15 -77 -37z" />
    <glyph glyph-name="q" unicode="q" horiz-adv-x="483" 
d="M426 438v-561c0 -34 -9 -44 -44 -44h-23c-38 0 -44 13 -44 44v166c-30 -39 -67 -53 -104 -53c-149 0 -179 146 -179 245c0 48 4 109 37 165c45 76 122 82 148 82c34 0 72 -12 101 -62v18c0 34 9 44 44 44h20c38 0 44 -13 44 -44zM318 109v221c0 41 -28 82 -72 82
c-103 0 -103 -150 -103 -178c0 -91 22 -180 95 -180c40 0 67 29 80 55z" />
    <glyph glyph-name="r" unicode="r" horiz-adv-x="320" 
d="M164 246v-202c0 -34 -9 -44 -44 -44h-19c-36 0 -45 10 -45 45v388c0 36 10 45 45 45h14c38 0 44 -13 44 -44v-66h1c29 84 87 114 131 114c16 0 16 -5 16 -26v-29c0 -24 -1 -25 -18 -26c-69 -6 -125 -63 -125 -155z" />
    <glyph glyph-name="s" unicode="s" horiz-adv-x="364" 
d="M342 140c0 -98 -51 -150 -154 -150c-13 0 -50 0 -97 17c-16 6 -65 24 -65 43c0 4 9 53 11 59c0 3 2 12 11 12c4 0 6 0 16 -10c44 -44 92 -52 122 -52c27 0 70 4 70 65c0 56 -43 65 -82 74c-34 7 -142 31 -142 148c0 127 96 141 155 141c55 0 87 -11 118 -27
c20 -10 21 -11 21 -19c0 -4 -5 -31 -7 -37c-4 -22 -5 -27 -14 -27c-4 0 -6 1 -11 5c-17 15 -50 43 -113 43c-38 0 -63 -14 -63 -59c0 -51 37 -59 81 -69c39 -8 71 -15 106 -54c25 -29 37 -65 37 -103z" />
    <glyph glyph-name="t" unicode="t" horiz-adv-x="345" 
d="M184 408v-269c0 -63 14 -79 34 -79c27 0 52 15 63 28c7 10 10 12 15 12c8 0 10 -4 15 -21c1 -5 7 -25 7 -29c0 -14 -70 -60 -151 -60c-70 0 -88 64 -88 131v287h-17c-13 0 -44 0 -44 32s32 32 45 32h19v90c0 36 10 45 45 45h13c38 0 44 -13 44 -44v-91h74
c13 0 44 0 44 -32s-31 -32 -44 -32h-74z" />
    <glyph glyph-name="u" unicode="u" horiz-adv-x="483" 
d="M428 428v-384c0 -34 -9 -44 -44 -44h-20c-38 0 -44 13 -44 44v31c-38 -85 -100 -85 -120 -85c-98 0 -146 37 -146 139v298c0 36 10 45 45 45h22c38 0 44 -13 44 -44v-306c0 -60 8 -79 60 -79c67 0 92 73 92 138v247c0 34 9 44 44 44h23c38 0 44 -13 44 -44z" />
    <glyph glyph-name="v" unicode="v" horiz-adv-x="430" 
d="M406 432l-111 -393c-11 -39 -35 -39 -56 -39h-48c-21 0 -45 0 -56 39l-114 408c4 25 21 25 38 25h12c38 0 47 -13 55 -40l90 -321l90 320c11 38 29 41 56 41h9c12 0 38 0 38 -25c0 -6 -2 -11 -3 -15z" />
    <glyph glyph-name="w" unicode="w" horiz-adv-x="641" 
d="M618 430l-93 -391c-9 -39 -35 -39 -54 -39h-48c-17 0 -38 0 -50 24c-3 7 -62 248 -68 330c0 -74 -65 -327 -67 -331c-12 -23 -32 -23 -49 -23h-19c-19 0 -45 0 -54 39l-92 389c-3 13 -4 16 -4 18c0 26 26 26 39 26h11c44 0 48 -19 54 -43l58 -246c8 -33 9 -36 13 -68h1
c4 30 11 57 19 92l52 220c6 25 11 45 51 45c13 0 41 0 50 -39l76 -320l76 320c9 39 33 39 58 39c18 0 43 0 43 -26c0 -5 -2 -11 -3 -16z" />
    <glyph glyph-name="x" unicode="x" horiz-adv-x="430" 
d="M255 244l148 -206c6 -8 8 -12 8 -18c0 -20 -20 -20 -34 -20h-24c-28 0 -33 4 -45 22l-96 156l-91 -155c-13 -23 -23 -23 -45 -23h-24c-15 0 -33 0 -33 20c0 3 0 9 8 20l142 204l-136 189c-6 9 -8 14 -8 19c0 20 19 20 33 20h24c31 0 34 -5 45 -21l85 -125l81 124
c13 19 18 22 45 22h24c14 0 33 0 33 -21c0 -6 -3 -11 -8 -18z" />
    <glyph glyph-name="y" unicode="y" horiz-adv-x="430" 
d="M403 428l-143 -479c-21 -69 -75 -126 -153 -126c-20 0 -59 4 -67 10c-5 4 -9 56 -9 64c0 10 5 14 12 14c2 0 2 -1 7 -3c28 -13 51 -14 58 -14c33 0 52 20 60 34c7 11 24 61 24 71c0 2 0 3 -4 15l-159 416c-5 13 -5 16 -5 18c0 24 22 24 37 24h12c46 0 50 -11 73 -73
c81 -214 82 -259 83 -281c2 24 10 78 41 185l37 129c11 40 30 40 59 40c20 0 42 0 42 -25c0 -2 0 -4 -5 -19z" />
    <glyph glyph-name="z" unicode="z" horiz-adv-x="411" 
d="M369 404l-224 -339h46c45 0 92 2 137 2c26 0 53 0 53 -34c0 -33 -30 -33 -44 -33h-267c-18 0 -44 0 -44 38c0 11 0 15 10 30l224 339h-38c-29 0 -101 -2 -130 -2c-24 0 -52 0 -52 33c0 34 30 34 45 34h250c18 0 44 0 44 -38c0 -11 0 -15 -10 -30z" />
    <glyph glyph-name="endash" unicode="&#x2013;" 
d="M430 260h-386c-13 0 -44 0 -44 32s31 32 44 32h386c13 0 44 0 44 -32s-31 -32 -44 -32z" />
    <glyph glyph-name="emdash" unicode="&#x2014;" horiz-adv-x="949" 
d="M905 260h-861c-13 0 -44 0 -44 32s31 32 44 32h861c13 0 44 0 44 -32s-31 -32 -44 -32z" />
    <glyph glyph-name="hungarumlaut" unicode="&#x2dd;" 
d="M230 669l-62 -109c-8 -14 -9 -14 -29 -14h-13c-16 0 -26 0 -26 12l24 115c4 20 5 21 27 21h61c16 0 24 0 24 -11c0 -2 0 -4 -6 -14zM388 669l-62 -109c-8 -14 -9 -14 -29 -14h-13c-16 0 -26 0 -26 12l24 115c4 20 5 21 27 21h61c16 0 24 0 24 -11c0 -2 0 -4 -6 -14z" />
    <glyph glyph-name="tilde" unicode="&#x2dc;" 
d="M356 694h14c20 0 25 0 25 -17c0 -40 -33 -102 -95 -102c-31 0 -57 14 -80 32c-13 10 -30 23 -45 23c-19 0 -29 -17 -32 -40c-2 -15 -4 -15 -25 -15h-13c-20 0 -26 0 -26 17c0 40 33 102 95 102c31 0 57 -14 80 -32c13 -10 30 -23 45 -23c19 0 29 17 32 40
c2 15 4 15 25 15z" />
    <glyph glyph-name="dieresis" unicode="&#xa8;" 
d="M203 651v-28c0 -32 -7 -44 -44 -44h-27c-37 0 -45 11 -45 45v26c0 35 9 45 45 45h27c39 0 44 -15 44 -44zM387 650v-26c0 -35 -9 -45 -45 -45h-27c-39 0 -44 15 -44 44v28c0 32 7 44 44 44h27c37 0 45 -11 45 -45z" />
    <glyph glyph-name="space" unicode=" " horiz-adv-x="316" 
 />
  </font>
</defs>
</svg>
