<?xml version="1.0" standalone="no"?>
<!DOCTYPE svg PUBLIC "-//W3C//DTD SVG 1.1//EN" "http://www.w3.org/Graphics/SVG/1.1/DTD/svg11.dtd" >
<svg>
<metadata>
Created by FontForge 20060822 at Fri Oct  6 18:25:15 2006
 By Wojciech Mula,,,
Copyright (C) 1997 American Mathematical Society. All Rights Reserved
</metadata>
<defs>
<font id="CMSSQ8" horiz-adv-x="625" >
  <font-face 
    font-family="Computer Modern"
    font-weight="500"
    font-stretch="normal"
    units-per-em="1000"
    panose-1="2 0 6 3 0 0 0 0 0 0"
    ascent="800"
    descent="-200"
    x-height="521"
    cap-height="684"
    bbox="-87 -208 1249 764"
    underline-thickness="0"
    underline-position="0"
    stemh="66"
    stemv="80"
    unicode-range="U+0020-U+FB04"
  />
    <missing-glyph />
    <glyph glyph-name="ff" unicode="ff" horiz-adv-x="729" 
d="M213 458v-414c0 -20 0 -44 -39 -44s-39 24 -39 44v414h-57c-13 0 -44 0 -44 32c0 31 32 31 44 31h57v47c0 91 94 136 191 136c16 0 41 -1 68 -5c39 -6 40 -7 40 -33v-14c0 -15 0 -28 -14 -28c-2 0 -4 0 -15 4c-29 10 -53 13 -83 13c-23 0 -50 -2 -73 -10
c-38 -14 -38 -22 -38 -43v-67h104c13 0 44 0 44 -32c0 -31 -32 -31 -44 -31h-102zM559 458v-414c0 -20 0 -44 -39 -44s-39 24 -39 44v524c0 91 94 136 191 136c16 0 41 -1 68 -5c39 -6 40 -7 40 -33v-14c0 -15 0 -28 -14 -28c-2 0 -4 0 -15 4c-29 10 -53 13 -83 13
c-23 0 -50 -2 -73 -10c-38 -14 -38 -22 -38 -43v-67h104c13 0 44 0 44 -32c0 -31 -32 -31 -44 -31h-102z" />
    <glyph glyph-name="fi" unicode="fi" horiz-adv-x="659" 
d="M568 651v-9c0 -36 -10 -44 -44 -44h-9c-36 0 -44 10 -44 44v9c0 36 10 44 44 44h9c36 0 44 -10 44 -44zM559 477v-433c0 -20 0 -44 -39 -44s-39 24 -39 44v433c0 20 0 44 39 44s39 -24 39 -44zM213 458v-414c0 -20 0 -44 -39 -44s-39 24 -39 44v414h-57
c-13 0 -44 0 -44 32c0 31 32 31 44 31h57v48c0 89 74 135 150 135c7 0 30 0 55 -6c27 -7 28 -8 28 -32v-15c0 -15 0 -28 -14 -28c-3 0 -6 1 -9 2c-17 9 -34 16 -62 16c-13 0 -34 -2 -52 -12c-20 -12 -20 -21 -20 -40v-68h113c12 0 44 0 44 -31c0 -32 -30 -32 -44 -32h-111z
" />
    <glyph glyph-name="fl" unicode="fl" horiz-adv-x="659" 
d="M213 458v-414c0 -20 0 -44 -39 -44s-39 24 -39 44v414h-57c-13 0 -44 0 -44 32c0 31 32 31 44 31h57v48c0 89 74 135 150 135c7 0 30 0 55 -6c27 -7 28 -8 28 -32v-14c0 -15 0 -28 -14 -28c-4 0 -7 1 -12 4c-20 9 -37 13 -59 13c-13 0 -34 -2 -52 -12
c-20 -12 -20 -21 -20 -40v-68h113c12 0 44 0 44 -31c0 -32 -30 -32 -44 -32h-111zM559 650v-606c0 -20 0 -44 -39 -44s-39 24 -39 44v606c0 20 0 44 39 44s39 -24 39 -44z" />
    <glyph glyph-name="ffi" unicode="ffi" horiz-adv-x="1006" 
d="M915 651v-9c0 -36 -10 -44 -44 -44h-9c-36 0 -44 10 -44 44v9c0 36 10 44 44 44h9c36 0 44 -10 44 -44zM906 477v-433c0 -20 0 -44 -39 -44s-39 24 -39 44v433c0 20 0 44 39 44s39 -24 39 -44zM560 458v-414c0 -20 0 -44 -39 -44s-39 24 -39 44v525c0 89 74 135 150 135
c7 0 30 0 55 -6c27 -6 28 -7 28 -32v-14c0 -15 0 -29 -14 -29c-4 0 -6 2 -12 5c-22 10 -41 13 -59 13c-13 0 -34 -2 -52 -12c-20 -12 -20 -21 -20 -40v-68h113c13 0 44 0 44 -32c0 -31 -32 -31 -44 -31h-111zM213 458v-414c0 -20 0 -44 -39 -44s-39 24 -39 44v414h-57
c-13 0 -44 0 -44 32c0 31 32 31 44 31h57v48c0 87 80 135 169 135c10 0 34 0 64 -6s31 -7 31 -32v-14c0 -15 0 -28 -14 -28c-3 0 -5 0 -15 5c-19 7 -39 12 -68 12c-21 0 -43 -3 -63 -11c-28 -13 -28 -21 -28 -42v-67h113c12 0 44 0 44 -31c0 -32 -30 -32 -44 -32h-111z" />
    <glyph glyph-name="ffl" unicode="ffl" horiz-adv-x="1006" 
d="M213 458v-414c0 -20 0 -44 -39 -44s-39 24 -39 44v414h-57c-13 0 -44 0 -44 32c0 31 32 31 44 31h57v48c0 87 80 135 169 135c10 0 34 0 64 -6s31 -7 31 -32v-14c0 -15 0 -28 -14 -28c-3 0 -5 0 -15 5c-19 7 -39 12 -68 12c-21 0 -43 -3 -63 -11c-28 -13 -28 -21 -28 -42
v-67h113c12 0 44 0 44 -31c0 -32 -30 -32 -44 -32h-111zM906 650v-606c0 -20 0 -44 -39 -44s-39 24 -39 44v606c0 20 0 44 39 44s39 -24 39 -44zM560 458v-414c0 -20 0 -44 -39 -44s-39 24 -39 44v525c0 89 74 135 150 135c7 0 30 0 55 -6c27 -7 28 -8 28 -32v-14
c0 -15 0 -28 -14 -28c-4 0 -7 1 -12 4c-20 9 -37 13 -59 13c-13 0 -34 -2 -52 -12c-20 -12 -20 -21 -20 -40v-68h113c13 0 44 0 44 -32c0 -31 -32 -31 -44 -31h-111z" />
    <glyph glyph-name="Gamma" unicode="&#x393;" horiz-adv-x="708" 
d="M611 616h-405v-572c0 -36 -10 -44 -44 -44h-6c-36 0 -44 10 -44 44v594c0 36 10 44 44 44h455c14 0 44 0 44 -33s-30 -33 -44 -33z" />
    <glyph glyph-name="Delta" unicode="&#x394;" horiz-adv-x="1041" 
d="M594 657l373 -620c3 -4 6 -11 6 -16c0 -21 -20 -21 -34 -21h-837c-14 0 -34 0 -34 21c0 6 1 7 9 20l373 620c20 33 48 33 71 33c24 0 51 0 73 -37zM509 614l-317 -526h634z" />
    <glyph glyph-name="Theta" unicode="&#x398;" horiz-adv-x="972" 
d="M902 341c0 -196 -181 -362 -417 -362c-232 0 -416 164 -416 362c0 193 178 364 417 364c236 0 416 -169 416 -364zM486 43c187 0 325 126 325 298c0 166 -132 301 -326 301c-190 0 -325 -132 -325 -301s135 -298 326 -298zM277 387h417c39 0 47 -11 47 -45
c0 -37 -12 -44 -47 -44h-417c-39 0 -47 11 -47 45c0 37 12 44 47 44z" />
    <glyph glyph-name="Lambda" unicode="&#x39b;" horiz-adv-x="736" 
d="M430 656l254 -615c5 -12 5 -17 5 -18c0 -23 -21 -23 -41 -23c-37 0 -51 4 -66 41l-146 357c-25 62 -66 162 -79 206c-12 -43 -53 -144 -78 -204l-148 -362c-6 -14 -16 -38 -54 -38c-8 0 -31 0 -31 23c0 1 0 6 5 18l253 613c16 38 33 40 63 40c27 0 47 0 63 -38z" />
    <glyph glyph-name="Xi" unicode="&#x39e;" horiz-adv-x="833" 
d="M729 603h-626c-20 0 -44 0 -44 39s24 39 44 39h626c20 0 44 0 44 -39s-24 -39 -44 -39zM736 0h-640c-20 0 -44 0 -44 39s24 39 44 39h640c20 0 44 0 44 -39s-24 -39 -44 -39zM649 315h-466c-20 0 -44 0 -44 39s24 39 44 39h466c20 0 44 0 44 -39s-24 -39 -44 -39z" />
    <glyph glyph-name="Pi" unicode="&#x3a0;" horiz-adv-x="812" 
d="M700 638v-594c0 -36 -10 -44 -44 -44h-6c-36 0 -44 10 -44 44v572h-400v-572c0 -36 -10 -44 -44 -44h-6c-36 0 -44 10 -44 44v594c0 36 10 44 44 44h500c36 0 44 -10 44 -44z" />
    <glyph glyph-name="Sigma" unicode="&#x3a3;" horiz-adv-x="902" 
d="M438 316l-232 -244h583c17 0 44 0 44 -36s-27 -36 -44 -36h-676c-13 0 -44 0 -44 32c0 10 5 18 12 25l263 276l-263 291c-7 7 -12 14 -12 27c0 33 30 33 44 33h676c14 0 44 0 44 -33s-30 -33 -44 -33h-576l226 -250c9 -10 12 -16 12 -26c0 -12 -4 -17 -13 -26z" />
    <glyph glyph-name="Upsilon" unicode="&#x3a5;" horiz-adv-x="972" 
d="M533 348v-304c0 -36 -10 -44 -44 -44h-6c-36 0 -44 10 -44 44v304c0 109 -40 286 -179 286c-15 0 -105 -3 -111 -89c-2 -29 -30 -29 -40 -29c-12 0 -40 0 -40 35c0 82 83 154 190 154c142 0 203 -135 226 -249h1c17 91 74 249 226 249c106 0 190 -72 190 -154
c0 -35 -28 -35 -40 -35c-14 0 -38 0 -40 33c-5 64 -67 85 -111 85c-139 0 -178 -177 -178 -286z" />
    <glyph glyph-name="Phi" unicode="&#x3a6;" horiz-adv-x="902" 
d="M495 640v-60c193 -14 338 -117 338 -238c0 -120 -144 -224 -338 -238v-60c0 -39 -14 -44 -45 -44s-46 4 -46 44v61c-179 11 -335 111 -335 237s156 226 335 237v61c0 41 16 44 46 44c33 0 45 -7 45 -44zM404 167v350c-179 -12 -243 -99 -243 -175c0 -77 65 -163 243 -175
zM495 517v-350c183 11 246 100 246 175s-64 164 -246 175z" />
    <glyph glyph-name="Psi" unicode="&#x3a8;" horiz-adv-x="972" 
d="M530 640v-471c115 17 186 97 187 228c1 145 46 209 136 209c20 0 49 0 49 -32c0 -14 -11 -29 -27 -31c-22 -2 -40 -5 -55 -47c-11 -34 -12 -66 -12 -102c0 -10 -1 -112 -70 -193c-55 -65 -138 -89 -208 -96v-61c0 -39 -14 -44 -45 -44s-46 4 -46 44v61
c-231 27 -275 182 -276 318c0 6 -1 115 -62 120c-31 3 -32 28 -32 31c0 32 29 32 49 32c23 0 68 0 101 -50c34 -54 35 -127 35 -130c0 -73 4 -228 185 -257v471c0 41 16 44 46 44c33 0 45 -7 45 -44z" />
    <glyph glyph-name="Omega" unicode="&#x3a9;" horiz-adv-x="902" 
d="M618 69h184c16 0 44 0 44 -35c0 -34 -29 -34 -44 -34h-208c-18 0 -44 0 -44 37c0 85 56 163 97 220c50 71 92 129 92 198c0 100 -122 187 -288 187s-288 -87 -288 -187c0 -69 44 -131 84 -186c52 -72 105 -147 105 -232c0 -37 -26 -37 -44 -37h-208c-16 0 -44 0 -44 35
c0 34 29 34 44 34h184c-12 49 -38 86 -96 152c-58 67 -119 139 -119 234c0 137 164 250 382 250c217 0 382 -113 382 -250c0 -95 -62 -168 -120 -234c-55 -64 -83 -103 -95 -152z" />
    <glyph glyph-name="dotlessi" unicode="&#x131;" horiz-adv-x="277" 
d="M177 477v-433c0 -20 0 -44 -39 -44s-39 24 -39 44v433c0 20 0 44 39 44s39 -24 39 -44z" />
    <glyph glyph-name="dotlessj" unicode="&#xf6be;" horiz-adv-x="312" 
d="M212 477v-486c0 -87 -71 -140 -153 -140c-37 0 -71 7 -86 10c-27 7 -60 14 -60 29c0 5 2 9 10 28c6 16 8 21 18 21c1 0 3 0 11 -3c14 -6 47 -19 91 -19c11 0 40 1 65 17c26 17 26 34 26 52v491c0 20 0 44 39 44s39 -24 39 -44z" />
    <glyph glyph-name="grave" unicode="`" 
d="M309 579l-187 84c-11 5 -17 8 -17 17c0 14 12 14 28 14h41l184 -91c0 -1 3 -5 3 -10c0 -14 -13 -14 -28 -14h-24z" />
    <glyph glyph-name="acute" unicode="&#xb4;" 
d="M503 663l-188 -84h-23c-16 0 -28 0 -28 14c0 9 6 12 16 17l170 84h42c15 0 28 0 28 -14c0 -5 -3 -9 -3 -10z" />
    <glyph glyph-name="caron" unicode="&#x2c7;" 
d="M512 641l-176 -85h-30c-18 0 -20 0 -33 7l-160 78c-14 7 -18 9 -18 17c0 14 13 14 28 14h24l165 -75l165 75h24c15 0 28 0 28 -14c0 -9 -7 -12 -17 -17z" />
    <glyph glyph-name="breve" unicode="&#x2d8;" 
d="M517 662c0 -57 -93 -57 -205 -57s-205 0 -205 57c0 18 13 32 32 32c9 0 15 -4 21 -9c14 -11 81 -11 152 -11c59 0 138 0 151 10c5 5 11 10 22 10c19 0 32 -14 32 -32z" />
    <glyph glyph-name="macron" unicode="&#xaf;" 
d="M509 611h-393c-27 0 -29 2 -29 29v9c0 26 2 28 28 28h394c27 0 28 -2 28 -28v-10c0 -26 -2 -28 -28 -28z" />
    <glyph glyph-name="ring" unicode="&#x2da;" horiz-adv-x="805" 
d="M542 643c0 -33 -65 -57 -140 -57c-67 0 -139 21 -139 58c0 33 65 57 140 57c67 0 139 -21 139 -58zM403 615c29 0 69 0 69 29c0 28 -41 28 -70 28s-69 0 -69 -29c0 -28 41 -28 70 -28z" />
    <glyph glyph-name="cedilla" unicode="&#xb8;" horiz-adv-x="555" 
d="M309 -23h6c16 0 28 0 28 -14c0 -5 0 -7 -16 -25l-61 -67c-13 -13 -14 -14 -33 -14h-15c-17 0 -28 0 -28 14c0 5 0 7 15 21c12 14 44 46 67 68c17 16 18 17 37 17z" />
    <glyph glyph-name="germandbls" unicode="&#xdf;" horiz-adv-x="590" 
d="M405 481c105 -65 149 -177 149 -270c0 -125 -98 -221 -222 -221c-12 0 -118 5 -118 31c0 5 6 19 9 29c4 10 7 18 18 18c2 0 4 -1 7 -2c40 -11 67 -13 83 -13c86 0 144 65 144 157c0 102 -56 239 -213 248c-15 1 -15 11 -15 28v6c0 22 0 29 21 29c122 2 173 43 173 75
c0 22 -45 45 -131 45c-13 0 -56 0 -89 -11c-43 -14 -43 -25 -43 -47v-539c0 -20 0 -44 -39 -44s-39 24 -39 44v543c0 23 0 61 74 92c58 25 115 25 136 25c107 0 210 -40 210 -108c0 -37 -25 -82 -115 -115z" />
    <glyph glyph-name="ae" unicode="&#xe6;" horiz-adv-x="902" 
d="M822 246h-330c7 -109 89 -193 187 -193c26 0 90 5 145 61c11 10 13 13 19 13c17 0 17 -31 17 -51c0 -24 -66 -58 -69 -59c-35 -18 -74 -27 -113 -27c-97 0 -170 53 -208 101c-55 -101 -232 -101 -255 -101c-104 0 -149 79 -149 139c0 120 201 155 345 155v67
c0 71 -42 126 -120 126c-57 0 -109 -11 -168 -48c-14 -9 -16 -9 -19 -9c-18 0 -18 42 -18 53c0 2 0 10 7 14c6 4 24 12 26 14c70 30 131 35 174 35c105 0 156 -60 177 -96c58 69 124 96 191 96c120 0 205 -92 205 -249c0 -41 -23 -41 -44 -41zM493 295h307
c-1 32 -8 178 -139 178c-78 0 -154 -69 -168 -178zM412 235c-48 -2 -102 -3 -158 -19c-24 -6 -111 -30 -111 -86c0 -48 55 -77 119 -77c9 0 154 0 154 107c0 17 -2 50 -4 75z" />
    <glyph glyph-name="oe" unicode="&#x153;" horiz-adv-x="972" 
d="M891 246h-330c7 -109 89 -193 187 -193c26 0 90 5 145 61c11 10 13 13 19 13c17 0 17 -31 17 -51c0 -24 -66 -58 -69 -59c-35 -18 -74 -27 -113 -27c-90 0 -177 47 -226 128c-49 -82 -132 -128 -218 -128c-140 0 -256 120 -256 273c0 152 116 273 256 273
c89 0 172 -50 216 -126c50 84 132 126 211 126c120 0 205 -92 205 -249c0 -41 -23 -41 -44 -41zM562 295h307c-1 32 -8 178 -139 178c-78 0 -154 -69 -168 -178zM303 53c90 0 177 71 177 217c0 140 -90 203 -177 203c-92 0 -179 -67 -179 -203c0 -141 84 -217 179 -217z" />
    <glyph glyph-name="oslash" unicode="&#xf8;" 
d="M551 554l-62 -90c24 -22 86 -93 86 -205c0 -150 -119 -269 -263 -269c-44 0 -85 11 -125 32l-68 -101c-9 -12 -16 -21 -32 -21c-17 0 -31 14 -31 31c0 9 1 11 15 33l65 95c-76 71 -87 156 -87 200c0 154 119 277 263 277c46 0 91 -14 127 -34l68 99c8 12 14 20 30 20
s31 -13 31 -31c0 -9 -1 -11 -17 -36zM172 112l232 339c-28 15 -61 22 -92 22c-88 0 -187 -54 -187 -214c0 -39 6 -101 47 -147zM453 410l-231 -337c27 -13 59 -20 90 -20c91 0 187 53 187 206c0 51 -9 106 -46 151z" />
    <glyph glyph-name="AE" unicode="&#xc6;" horiz-adv-x="1062" 
d="M236 208l-96 -174c-19 -34 -51 -34 -61 -34c-8 0 -29 0 -29 21c0 3 0 8 7 20l339 608c20 35 46 35 66 35h487c14 0 44 0 44 -33s-30 -33 -44 -33h-346v-231h311c14 0 44 0 44 -33s-30 -33 -44 -33h-311v-252h363c16 0 44 0 44 -35c0 -34 -29 -34 -44 -34h-412
c-36 0 -44 10 -44 44v164h-274zM464 618l-191 -344h237v344h-46z" />
    <glyph glyph-name="OE" unicode="&#x152;" horiz-adv-x="1201" 
d="M667 321v-252h437c16 0 44 0 44 -35c0 -34 -29 -34 -44 -34h-482c-30 0 -57 -4 -87 -10c-65 -11 -81 -11 -101 -11c-225 0 -414 161 -414 362c0 198 185 364 414 364c28 0 48 -2 95 -11c55 -9 74 -10 93 -10h465c14 0 44 0 44 -33s-30 -33 -44 -33h-420v-231h385
c14 0 44 0 44 -33s-30 -33 -44 -33h-385zM443 42c119 0 131 38 132 182c0 39 1 78 1 118c0 70 0 72 -1 132c-2 133 -17 168 -133 168c-198 0 -330 -138 -330 -288c0 -154 125 -312 331 -312z" />
    <glyph glyph-name="Oslash" unicode="&#xd8;" horiz-adv-x="972" 
d="M700 654l64 80c9 9 15 17 30 17c17 0 33 -15 33 -33c0 -11 -6 -18 -14 -27l-58 -73c99 -73 147 -180 147 -277c0 -196 -181 -362 -417 -362c-65 0 -142 13 -213 51c-17 -20 -65 -79 -65 -80c-9 -10 -15 -17 -30 -17c-18 0 -33 16 -33 33c0 10 5 17 15 30c5 5 17 18 57 69
c-70 50 -147 147 -147 276c0 193 178 364 417 364c46 0 125 -6 214 -51zM258 116l400 488c-42 19 -94 38 -173 38c-198 0 -327 -125 -327 -301c0 -69 21 -159 100 -225zM712 568l-399 -488c23 -11 80 -38 173 -38c195 0 327 120 327 299c0 51 -12 154 -101 227z" />
    <glyph glyph-name="suppress" horiz-adv-x="277" 
d="M276 408l-258 -77c-14 -5 -16 -5 -18 -5c-19 0 -32 16 -32 32c0 23 18 28 31 32l257 78c12 4 14 4 21 4c23 0 32 -19 32 -31c0 -23 -18 -28 -33 -33z" />
    <glyph glyph-name="exclam" unicode="!" horiz-adv-x="354" 
d="M157 694h40c25 0 28 -1 28 -26c0 -73 -4 -148 -5 -221c0 -40 -2 -213 -4 -242c-1 -14 -12 -14 -29 -14h-21c-19 0 -28 0 -29 16c0 8 -3 132 -3 149c-1 69 -6 242 -6 311c0 26 3 27 29 27zM225 53v-9c0 -36 -10 -44 -44 -44h-9c-36 0 -44 10 -44 44v9c0 36 10 44 44 44h9
c36 0 44 -10 44 -44z" />
    <glyph glyph-name="quotedblright" unicode="&#x201d;" 
d="M139 608l-46 -131c-7 -19 -10 -19 -27 -19c-10 0 -24 0 -24 14c0 3 1 4 3 15l24 110c-26 0 -27 3 -27 28v41c0 26 2 28 28 28h41c27 0 28 -2 28 -28v-58zM382 608l-46 -131c-7 -19 -10 -19 -27 -19c-10 0 -24 0 -24 14c0 3 1 4 3 15l24 110c-26 0 -27 3 -27 28v41
c0 26 2 28 28 28h41c27 0 28 -2 28 -28v-58z" />
    <glyph glyph-name="numbersign" unicode="#" horiz-adv-x="1041" 
d="M641 125l-85 -235c-3 -9 -10 -29 -35 -29c-20 0 -35 17 -35 35c0 6 11 35 17 53l64 176h-204l-85 -235c-3 -9 -10 -29 -35 -29c-20 0 -35 17 -35 35c0 6 11 35 17 53l64 176h-169c-14 0 -51 0 -51 35s33 35 45 35h201l60 166h-261c-12 0 -45 0 -45 35s37 35 51 35h281
l84 234c3 8 10 29 35 29c20 0 35 -17 35 -35c0 -5 0 -7 -6 -22l-74 -206h204l84 234c3 8 10 29 35 29c20 0 35 -17 35 -35c0 -5 0 -7 -6 -22l-74 -206h168c14 0 51 0 51 -35s-33 -35 -45 -35h-200l-60 -166h260c12 0 45 0 45 -35s-37 -35 -51 -35h-280zM389 195h204l60 166
h-204z" />
    <glyph glyph-name="dollar" unicode="$" 
d="M344 637v-235c161 -26 211 -132 211 -205c0 -95 -78 -189 -211 -205v-17c0 -12 0 -44 -31 -44c-32 0 -32 26 -32 60c-21 2 -63 5 -120 24c-62 20 -100 47 -101 49c0 1 -4 4 -4 10c0 4 5 28 6 34c3 15 4 23 16 23c4 0 6 0 15 -7c44 -30 107 -60 188 -67v262
c-44 9 -103 20 -156 68c-29 27 -56 70 -56 124c0 94 85 178 212 192v17c0 13 0 44 32 44c31 0 31 -32 31 -44v-17c26 -1 87 -5 164 -46c25 -14 26 -15 26 -24c0 -4 -5 -26 -6 -32c-2 -13 -4 -22 -16 -22c-3 0 -5 0 -14 6c-45 28 -90 48 -154 52zM281 415v221
c-78 -9 -136 -57 -136 -111c0 -45 40 -94 136 -110zM344 306v-248c71 10 135 60 135 125c0 61 -57 112 -135 123z" />
    <glyph glyph-name="percent" unicode="%" horiz-adv-x="1041" 
d="M823 702l-548 -752c-7 -9 -16 -19 -32 -19c-19 0 -35 16 -35 35c0 6 1 13 11 27l549 753c4 5 13 18 31 18c20 0 35 -17 35 -35c0 -6 -1 -13 -11 -27zM972 139c0 -118 -80 -208 -173 -208c-92 0 -174 88 -174 208c0 119 81 208 174 208s173 -90 173 -208zM799 -6
c51 0 100 60 100 145s-49 145 -100 145c-8 0 -98 0 -98 -145s90 -145 98 -145zM416 555c0 -117 -79 -208 -173 -208c-92 0 -174 88 -174 209c0 118 80 208 174 208c92 0 173 -88 173 -209zM243 410c52 0 100 61 100 146c0 82 -47 145 -100 145c-8 0 -98 0 -98 -146
c0 -145 91 -145 98 -145z" />
    <glyph glyph-name="ampersand" unicode="&#x26;" horiz-adv-x="937" 
d="M121 271l127 87c-29 67 -42 130 -42 188c0 111 91 169 170 169c91 0 148 -79 148 -156c0 -80 -93 -149 -184 -215c52 -96 144 -183 190 -219c164 117 216 282 238 348c1 6 7 11 14 11c3 0 8 -2 31 -8c11 -3 20 -5 20 -16c0 -8 -59 -236 -246 -374c19 -12 73 -41 143 -41
c26 0 68 4 112 20c3 1 8 3 12 3c14 0 14 -13 14 -28v-14c0 -25 -1 -26 -33 -34c-53 -13 -90 -13 -105 -13c-48 0 -118 8 -208 64c-91 -51 -178 -64 -242 -64c-132 0 -228 71 -228 168c0 77 67 122 69 124zM312 402c74 53 139 108 139 157c0 39 -24 93 -75 93
c-44 0 -96 -34 -96 -98c0 -7 0 -76 32 -152zM277 301l-90 -61c-17 -12 -55 -39 -55 -87c0 -58 60 -108 150 -108c56 0 124 14 179 41c-95 80 -152 158 -184 215z" />
    <glyph glyph-name="quoteright" unicode="&#x2019;" horiz-adv-x="347" 
d="M222 608l-46 -131c-7 -19 -10 -19 -27 -19c-10 0 -24 0 -24 14c0 3 1 4 3 15l24 110c-26 0 -27 3 -27 28v41c0 26 2 28 28 28h41c27 0 28 -2 28 -28v-58z" />
    <glyph glyph-name="parenleft" unicode="(" horiz-adv-x="486" 
d="M381 764h7c15 0 28 0 28 -14c0 -5 -3 -9 -3 -10c-136 -89 -226 -260 -226 -462c0 -108 26 -317 221 -459c4 -3 8 -7 8 -13c0 -14 -13 -14 -28 -14h-7c-18 0 -20 0 -43 16c-142 101 -231 276 -231 470c0 169 69 350 226 466c27 20 29 20 48 20z" />
    <glyph glyph-name="parenright" unicode=")" horiz-adv-x="486" 
d="M98 764h6c18 0 20 0 43 -16c142 -101 231 -276 231 -470c0 -169 -69 -350 -226 -466c-27 -20 -29 -20 -48 -20h-6c-16 0 -28 0 -28 14c0 7 2 9 13 17c185 137 215 343 215 455c0 84 -16 181 -64 277c-53 106 -127 160 -158 182c-6 6 -6 12 -6 13c0 14 12 14 28 14z" />
    <glyph glyph-name="asterisk" unicode="*" 
d="M487 366l-159 109l15 -191c1 -17 -2 -41 -31 -41c-19 0 -35 17 -31 32v5l15 195l-175 -118c-32 0 -39 20 -39 33c0 19 12 25 23 30l175 84l-175 83c-11 5 -23 11 -23 30c0 16 13 33 32 33c8 0 12 -1 23 -9l159 -109l-15 191c-2 22 5 41 31 41c30 0 32 -26 31 -42
l-15 -190l160 109c12 8 13 9 22 9c19 0 32 -17 32 -33c0 -19 -12 -25 -23 -30l-175 -84l175 -83c11 -5 23 -11 23 -30c0 -16 -13 -33 -32 -33c-8 0 -12 1 -23 9z" />
    <glyph glyph-name="plus" unicode="+" horiz-adv-x="972" 
d="M521 243v-334c0 -12 0 -47 -35 -47s-35 35 -35 47v334h-335c-12 0 -47 0 -47 35s35 35 47 35h335v334c0 12 0 47 35 47s35 -35 35 -47v-334h334c12 0 47 0 47 -35s-35 -35 -47 -35h-334z" />
    <glyph glyph-name="comma" unicode="," horiz-adv-x="347" 
d="M222 69v-41c0 -15 0 -17 -8 -39l-37 -107c-8 -20 -8 -21 -28 -21c-10 0 -24 0 -24 14c0 1 24 113 27 125c-26 0 -27 3 -27 28v41c0 26 2 28 28 28h41c27 0 28 -2 28 -28z" />
    <glyph glyph-name="hyphen" unicode="-" horiz-adv-x="416" 
d="M303 229h-245c-13 0 -44 0 -44 32c0 31 32 31 44 31h245c13 0 44 0 44 -32c0 -31 -32 -31 -44 -31z" />
    <glyph glyph-name="period" unicode="." horiz-adv-x="347" 
d="M222 69v-41c0 -26 -2 -28 -28 -28h-40c-27 0 -29 2 -29 29v40c0 26 2 28 28 28h41c27 0 28 -2 28 -28z" />
    <glyph glyph-name="slash" unicode="/" 
d="M547 705l-408 -885c-6 -12 -13 -28 -35 -28c-20 0 -35 17 -35 35c0 6 0 8 8 24l408 885c6 12 13 28 35 28c20 0 35 -17 35 -35c0 -6 0 -8 -8 -24z" />
    <glyph glyph-name="zero" unicode="0" 
d="M563 329c0 -75 0 -350 -251 -350s-251 275 -251 350c0 73 0 352 251 352s251 -278 251 -352zM312 42c171 0 171 184 171 298c0 112 0 278 -171 278s-171 -166 -171 -278c0 -114 0 -298 171 -298z" />
    <glyph glyph-name="one" unicode="1" 
d="M367 637v-574h112c14 0 44 0 44 -32c0 -31 -31 -31 -44 -31h-308c-14 0 -44 0 -44 32c0 31 31 31 44 31h112v514c-51 -23 -113 -25 -123 -25c-8 0 -40 0 -40 32c0 17 13 30 32 31c29 1 102 3 149 49c13 13 18 17 32 17c34 0 34 -29 34 -44z" />
    <glyph glyph-name="two" unicode="2" 
d="M74 54l196 156c33 26 95 70 129 102c35 34 77 80 77 151c0 106 -102 152 -197 152c-118 0 -151 -90 -167 -139c-2 -5 -5 -14 -15 -14s-45 37 -45 48c0 6 25 74 76 117c53 43 112 54 167 54c156 0 267 -89 267 -217c0 -74 -39 -129 -97 -179c-50 -42 -143 -101 -287 -216
h340c16 0 44 0 44 -35c0 -34 -29 -34 -44 -34h-412c-14 0 -44 0 -44 33c0 11 2 13 12 21z" />
    <glyph glyph-name="three" unicode="3" 
d="M208 353v7c0 17 0 22 8 26c4 2 30 4 45 5c55 3 88 5 125 29s64 60 64 106c0 60 -62 92 -135 92c-113 0 -174 -71 -192 -94c-4 -4 -8 -8 -14 -8c-12 0 -40 37 -40 45c0 14 94 120 246 120c122 0 222 -66 222 -155c0 -34 -11 -118 -127 -171c92 -27 162 -91 162 -172
c0 -105 -106 -204 -258 -204c-97 0 -190 37 -259 106c0 1 -3 5 -3 10c0 12 5 49 21 49c6 0 12 -6 18 -12c80 -76 174 -89 222 -89c102 0 165 64 165 141c0 71 -57 141 -168 141h-74c-27 0 -28 2 -28 28z" />
    <glyph glyph-name="four" unicode="4" 
d="M46 250l297 401c14 19 26 19 46 19h23c36 0 44 -10 44 -44v-390h89c14 0 44 0 44 -33s-30 -33 -44 -33h-89v-126c0 -21 0 -44 -41 -44c-40 0 -40 23 -40 44v126h-296c-36 0 -44 10 -44 44c0 20 0 22 11 36zM262 429l-142 -193h258v362h-1c-12 -26 -30 -51 -48 -76z" />
    <glyph glyph-name="five" unicode="5" 
d="M184 594v-200c43 24 90 35 144 35c139 0 234 -108 234 -224c0 -126 -121 -226 -269 -226c-146 0 -238 99 -238 113c0 6 26 46 38 46c6 0 8 -2 17 -12c66 -73 142 -83 182 -83c95 0 176 52 176 163c0 103 -57 160 -141 160c-46 0 -109 -11 -151 -60
c-10 -13 -16 -19 -34 -19c-35 0 -35 29 -35 46v281c0 37 10 46 44 46h325c14 0 44 0 44 -33s-30 -33 -44 -33h-292z" />
    <glyph glyph-name="six" unicode="6" 
d="M519 633v-8c0 -15 0 -28 -14 -28c-4 0 -8 2 -16 5c-49 16 -91 16 -104 16c-87 0 -143 -42 -171 -76c-62 -73 -65 -162 -67 -206c49 85 136 116 205 116c119 0 210 -105 210 -235c0 -95 -41 -137 -76 -172c-67 -65 -143 -66 -171 -66c-133 0 -253 94 -253 346
c0 209 148 356 323 356c42 0 84 -4 123 -20c11 -5 11 -9 11 -28zM153 207c11 -71 46 -164 162 -164c73 0 101 28 119 47c37 37 43 76 43 127c0 58 -9 89 -35 121c-41 48 -87 50 -120 50c-104 0 -168 -72 -168 -145c0 -23 2 -18 2 -26c0 -3 -1 -8 -3 -10z" />
    <glyph glyph-name="seven" unicode="7" 
d="M448 591h-352c-16 0 -44 0 -44 35c0 34 29 34 44 34h432c14 0 44 0 44 -33c0 -16 -4 -19 -30 -42c-58 -50 -250 -235 -255 -557c-1 -38 -24 -38 -43 -38c-36 0 -44 10 -44 44c0 30 4 130 42 240c36 103 88 186 140 247c38 45 47 49 66 70z" />
    <glyph glyph-name="eight" unicode="8" 
d="M221 356v1c-60 15 -152 63 -152 147c0 90 100 177 243 177s243 -87 243 -177c0 -82 -89 -131 -154 -148c81 -19 171 -82 171 -173c0 -105 -108 -204 -260 -204c-151 0 -260 98 -260 204c0 90 89 153 169 173zM312 388c143 0 168 73 168 115c0 115 -140 115 -168 115
s-168 0 -168 -115c0 -40 23 -115 168 -115zM312 43c49 0 175 10 175 141c0 88 -66 141 -175 141c-108 0 -175 -52 -175 -141c0 -41 15 -84 54 -110c36 -25 78 -31 121 -31z" />
    <glyph glyph-name="nine" unicode="9" 
d="M477 325c-43 -76 -125 -116 -205 -116c-119 0 -210 104 -210 235c0 69 21 116 69 163c67 65 134 74 185 74c127 0 246 -91 246 -345c0 -213 -143 -357 -305 -357c-15 0 -55 0 -99 16c-19 8 -68 29 -68 44c0 2 17 46 33 46c3 0 5 0 15 -8c29 -18 63 -34 120 -34
c66 0 213 35 219 282zM471 454c-11 74 -45 164 -156 164c-71 0 -102 -25 -125 -48c-34 -35 -43 -70 -43 -127c0 -55 8 -88 35 -120c38 -43 76 -50 120 -50c110 0 169 79 169 146c0 5 -3 25 -3 26c0 4 2 6 3 9z" />
    <glyph glyph-name="colon" unicode=":" horiz-adv-x="347" 
d="M222 493v-41c0 -26 -2 -28 -28 -28h-41c-27 0 -28 2 -28 28v40c0 27 2 29 29 29h40c27 0 28 -2 28 -28zM153 97h41c27 0 28 -2 28 -28v-41c0 -26 -2 -28 -28 -28h-40c-27 0 -29 2 -29 29v40c0 26 2 28 28 28z" />
    <glyph glyph-name="semicolon" unicode=";" horiz-adv-x="347" 
d="M222 493v-41c0 -26 -2 -28 -28 -28h-41c-27 0 -28 2 -28 28v40c0 27 2 29 29 29h40c27 0 28 -2 28 -28zM153 97h41c27 0 28 -2 28 -28v-41c0 -15 0 -17 -8 -39l-37 -107c-8 -20 -8 -21 -28 -21c-10 0 -24 0 -24 14c0 1 24 113 27 125c-26 0 -27 3 -27 28v41
c0 26 2 28 28 28z" />
    <glyph glyph-name="exclamdown" unicode="&#xa1;" horiz-adv-x="354" 
d="M225 512v-9c0 -36 -10 -44 -44 -44h-9c-36 0 -44 10 -44 44v9c0 36 10 44 44 44h9c36 0 44 -10 44 -44zM166 365h21c17 0 23 0 27 -9c3 -5 5 -172 5 -193c1 -92 6 -184 6 -276c0 -25 -3 -26 -28 -26h-40c-26 0 -29 1 -29 27c0 73 4 147 5 220c0 40 2 214 4 243
c1 14 12 14 29 14z" />
    <glyph glyph-name="equal" unicode="=" horiz-adv-x="972" 
d="M857 361h-743c-12 0 -45 0 -45 35s37 35 51 35h731c14 0 51 0 51 -35s-33 -35 -45 -35zM851 125h-731c-14 0 -51 0 -51 35s33 35 45 35h743c12 0 45 0 45 -35s-37 -35 -51 -35z" />
    <glyph glyph-name="questiondown" unicode="&#xbf;" horiz-adv-x="590" 
d="M326 512v-9c0 -36 -10 -44 -44 -44h-9c-36 0 -44 10 -44 44v9c0 36 10 44 44 44h9c36 0 44 -10 44 -44zM267 365h21c29 0 29 -1 29 -38c0 -49 0 -163 -130 -260c-15 -12 -38 -29 -38 -68c0 -78 68 -85 126 -85c73 0 143 18 201 48c10 6 12 6 15 6c11 0 13 -6 19 -21
c10 -27 10 -29 10 -32c0 -5 -3 -9 -3 -10c-26 -14 -118 -54 -239 -54c-86 0 -209 26 -209 149c0 67 42 99 60 113c110 81 110 168 110 211v15c0 24 1 26 28 26z" />
    <glyph glyph-name="question" unicode="?" horiz-adv-x="590" 
d="M317 251v-30c0 -29 -2 -30 -29 -30h-21c-28 0 -28 2 -28 26v39c0 102 73 185 162 238c33 21 39 46 39 62c0 85 -110 85 -154 85c-65 0 -130 -16 -183 -54c-15 1 -16 2 -24 21c-10 26 -10 28 -10 32c0 19 81 44 84 45c61 19 109 19 129 19c238 0 238 -133 238 -148
c0 -18 -3 -72 -67 -111c-36 -23 -136 -85 -136 -194zM326 53v-9c0 -36 -10 -44 -44 -44h-9c-36 0 -44 10 -44 44v9c0 36 10 44 44 44h9c36 0 44 -10 44 -44z" />
    <glyph glyph-name="at" unicode="@" horiz-adv-x="833" 
d="M723 100h12c15 0 28 0 28 -14c0 -5 -3 -9 -3 -10c-96 -66 -193 -86 -275 -86c-235 0 -416 165 -416 357c0 194 183 357 415 357c244 0 279 -193 279 -346c0 -165 -127 -238 -227 -238c-125 0 -227 101 -227 227c0 125 101 227 227 227c67 0 116 -31 119 -33
c-39 88 -123 100 -172 100c-185 0 -338 -132 -338 -294c0 -153 141 -294 343 -294c39 0 119 5 205 42c12 5 14 5 30 5zM536 183c82 0 151 72 151 164c0 91 -69 164 -151 164s-151 -72 -151 -164c0 -91 69 -164 151 -164z" />
    <glyph glyph-name="A" unicode="A" horiz-adv-x="805" 
d="M468 655l284 -614c2 -4 6 -14 6 -19c0 -22 -21 -22 -40 -22c-49 0 -52 6 -83 74l-52 112h-380l-68 -148c-17 -37 -43 -38 -57 -38c-8 0 -31 0 -31 22c0 7 3 13 6 19l284 616c17 37 42 37 65 37c40 0 51 -8 66 -39zM393 602l-160 -350h319z" />
    <glyph glyph-name="B" unicode="B" horiz-adv-x="819" 
d="M158 684h251c158 0 305 -75 305 -174c0 -79 -102 -131 -203 -152c133 -19 238 -86 238 -170c0 -105 -144 -188 -306 -188h-285c-36 0 -44 10 -44 44v596c0 36 10 44 44 44zM205 387h164c135 0 258 52 258 122c0 72 -144 109 -251 109h-171v-231zM205 66h204
c113 0 251 44 251 123c0 81 -140 135 -264 135h-191v-258z" />
    <glyph glyph-name="C" unicode="C" horiz-adv-x="798" 
d="M733 38c-98 -51 -153 -59 -239 -59c-249 0 -402 181 -402 363c0 186 158 363 400 363c55 0 94 -6 103 -7c55 -8 115 -26 120 -29c2 -1 7 -4 7 -13c0 -5 -6 -35 -7 -42c-5 -23 -6 -29 -18 -29c-2 0 -4 0 -17 7c-67 36 -125 47 -191 47c-176 0 -303 -140 -303 -297
c0 -146 114 -297 308 -297c89 0 133 14 195 48c24 14 26 14 29 14c18 0 18 -41 18 -57c0 -4 -1 -9 -3 -12z" />
    <glyph glyph-name="D" unicode="D" horiz-adv-x="888" 
d="M157 684h282c210 0 380 -158 380 -347c0 -190 -176 -337 -379 -337h-283c-36 0 -44 10 -44 44v596c0 36 10 44 44 44zM205 66h213c180 0 309 105 309 270c0 173 -129 282 -310 282h-212v-552z" />
    <glyph glyph-name="E" unicode="E" horiz-adv-x="777" 
d="M629 320h-423v-251h475c16 0 44 0 44 -35c0 -34 -29 -34 -44 -34h-525c-36 0 -44 10 -44 44v594c0 36 10 44 44 44h508c14 0 44 0 44 -33s-30 -33 -44 -33h-458v-230h423c14 0 44 0 44 -33s-30 -33 -44 -33z" />
    <glyph glyph-name="F" unicode="F" horiz-adv-x="743" 
d="M594 308h-388v-264c0 -36 -10 -44 -44 -44h-6c-36 0 -44 10 -44 44v594c0 36 10 44 44 44h490c14 0 44 0 44 -33s-30 -33 -44 -33h-440v-242h388c14 0 44 0 44 -33s-30 -33 -44 -33z" />
    <glyph glyph-name="G" unicode="G" horiz-adv-x="833" 
d="M749 336v-281c0 -15 0 -17 -3 -24c-18 -9 -124 -52 -258 -52c-230 0 -396 170 -396 363c0 189 162 363 398 363c74 0 139 -10 218 -40c29 -12 30 -13 30 -23c0 -4 -6 -34 -7 -41c-4 -23 -6 -30 -17 -30c-3 0 -5 0 -19 9c-52 32 -111 59 -206 59
c-179 0 -303 -142 -303 -297s124 -297 303 -297c39 0 102 4 180 30v223h-156c-27 0 -28 2 -28 28v9c0 27 2 29 29 29h207c27 0 28 -2 28 -28z" />
    <glyph glyph-name="H" unicode="H" horiz-adv-x="812" 
d="M700 640v-596c0 -36 -10 -44 -44 -44h-6c-36 0 -44 10 -44 44v279h-400v-279c0 -36 -10 -44 -44 -44h-6c-36 0 -44 10 -44 44v596c0 36 10 44 44 44h6c36 0 44 -10 44 -44v-251h400v251c0 36 10 44 44 44h6c36 0 44 -10 44 -44z" />
    <glyph glyph-name="I" unicode="I" horiz-adv-x="319" 
d="M206 640v-596c0 -36 -10 -44 -44 -44h-6c-36 0 -44 10 -44 44v596c0 36 10 44 44 44h6c36 0 44 -10 44 -44z" />
    <glyph glyph-name="J" unicode="J" horiz-adv-x="576" 
d="M485 640v-493c0 -125 -103 -168 -218 -168c-82 0 -151 20 -188 34c-21 8 -27 11 -27 22c0 3 5 32 6 37c4 19 5 27 17 27c3 0 5 0 16 -7c68 -47 133 -47 155 -47c124 0 147 54 147 107v488c0 41 16 44 46 44c31 0 46 -4 46 -44z" />
    <glyph glyph-name="K" unicode="K" horiz-adv-x="840" 
d="M441 402l327 -365c5 -6 10 -11 10 -18c0 -19 -19 -19 -33 -19h-24c-27 0 -34 2 -52 22l-295 328l-170 -132v-174c0 -36 -10 -44 -44 -44c-33 0 -45 7 -45 44v596c0 39 14 44 45 44c36 0 44 -10 44 -44v-333l465 362c19 15 43 15 55 15h15c15 0 31 0 31 -18
c0 -8 -5 -13 -12 -18z" />
    <glyph glyph-name="L" unicode="L" horiz-adv-x="708" 
d="M206 640v-574h405c14 0 44 0 44 -33s-30 -33 -44 -33h-455c-36 0 -44 10 -44 44v596c0 36 10 44 44 44h6c36 0 44 -10 44 -44z" />
    <glyph glyph-name="M" unicode="M" horiz-adv-x="1020" 
d="M579 251l186 398c16 35 45 35 64 35h28c38 0 46 -9 46 -46v-592c0 -25 0 -46 -42 -46s-42 21 -42 46v558h-1l-258 -548c-10 -22 -29 -35 -54 -35c-37 0 -48 25 -55 39l-255 542h-1v-556c0 -22 0 -46 -39 -46s-39 24 -39 46v592c0 38 9 46 46 46h28c28 0 47 -1 65 -39
l255 -544c10 25 21 50 32 75z" />
    <glyph glyph-name="N" unicode="N" horiz-adv-x="812" 
d="M266 647l353 -583v576c0 20 0 44 39 44s39 -24 39 -44v-596c0 -36 -10 -44 -44 -44h-37c-20 0 -48 0 -70 37l-353 583v-576c0 -20 0 -44 -39 -44s-39 24 -39 44v596c0 36 10 44 44 44h37c20 0 48 0 70 -37z" />
    <glyph glyph-name="O" unicode="O" horiz-adv-x="965" 
d="M895 341c0 -197 -181 -362 -413 -362s-413 165 -413 362c0 195 178 364 413 364c234 0 413 -169 413 -364zM482 45c187 0 319 136 319 309c0 166 -136 286 -319 286s-319 -119 -319 -286c0 -173 132 -309 319 -309z" />
    <glyph glyph-name="P" unicode="P" horiz-adv-x="784" 
d="M432 278h-225v-234c0 -36 -10 -44 -44 -44h-6c-36 0 -44 10 -44 44v596c0 36 10 44 44 44h266c160 0 292 -92 292 -204c0 -117 -144 -202 -283 -202zM407 618h-202v-276h201c155 0 220 65 220 138s-64 138 -219 138z" />
    <glyph glyph-name="Q" unicode="Q" horiz-adv-x="965" 
d="M802 -139h-20c-17 0 -25 0 -40 9c0 1 -20 20 -30 30c-32 32 -67 68 -93 99c-67 -20 -121 -20 -137 -20c-232 0 -413 165 -413 362c0 195 178 364 413 364c234 0 413 -169 413 -364c0 -98 -48 -228 -202 -312l117 -118c10 -10 24 -23 24 -32c0 -18 -18 -18 -32 -18z
M492 192h13c24 0 24 -1 37 -13c10 -9 49 -50 100 -99c124 64 161 175 161 261c0 167 -132 299 -321 299c-188 0 -321 -131 -321 -299c0 -171 135 -297 321 -297c15 0 43 0 84 10c-31 31 -61 62 -90 94c-16 18 -16 20 -16 25c0 19 17 19 32 19z" />
    <glyph glyph-name="R" unicode="R" horiz-adv-x="815" 
d="M517 318l241 -293c0 -25 -12 -25 -32 -25h-8c-19 0 -33 0 -48 19l-237 292h-228v-267c0 -41 -16 -44 -46 -44c-31 0 -46 4 -46 44v596c0 36 10 44 44 44h268c165 0 321 -80 321 -188c0 -65 -62 -142 -229 -178zM205 374h218c153 0 234 53 234 122c0 65 -72 122 -234 122
h-218v-244z" />
    <glyph glyph-name="S" unicode="S" horiz-adv-x="694" 
d="M624 188c0 -108 -112 -209 -280 -209c-161 0 -279 69 -281 70s-7 5 -7 13c0 4 6 34 7 41c4 23 6 30 17 30c3 0 5 0 16 -7c97 -62 186 -75 248 -75c120 0 197 63 197 126c0 36 -22 66 -52 86c-37 24 -63 29 -145 45c-105 21 -164 32 -219 82c-26 25 -56 63 -56 120
c0 99 109 195 281 195c57 0 121 -7 197 -40c29 -12 30 -13 30 -23c0 -4 -6 -34 -7 -41c-4 -23 -6 -30 -17 -30c-4 0 -6 0 -17 8c-59 39 -112 56 -187 56c-121 0 -197 -57 -197 -113c0 -31 18 -55 43 -72c36 -24 58 -28 180 -52c60 -12 136 -27 189 -79
c20 -21 60 -60 60 -131z" />
    <glyph glyph-name="T" unicode="T" horiz-adv-x="895" 
d="M495 615v-571c0 -36 -10 -44 -44 -44h-6c-36 0 -44 10 -44 44v571h-312c-14 0 -44 0 -44 33s30 33 44 33h717c14 0 44 0 44 -33s-30 -33 -44 -33h-311z" />
    <glyph glyph-name="U" unicode="U" horiz-adv-x="809" 
d="M696 640v-409c0 -143 -130 -252 -289 -252s-295 107 -295 252v409c0 36 10 44 44 44h6c36 0 44 -10 44 -44v-406c0 -129 106 -189 202 -189c101 0 208 65 208 189v406c0 21 0 44 40 44s40 -23 40 -44z" />
    <glyph glyph-name="V" unicode="V" horiz-adv-x="805" 
d="M768 645l-298 -615c-18 -37 -41 -37 -68 -37c-26 0 -49 0 -67 37l-298 615c-6 12 -6 14 -6 17c0 22 20 22 39 22c28 0 50 0 69 -39l272 -563l273 564c9 18 21 38 59 38c9 0 31 0 31 -22c0 -3 0 -5 -6 -17z" />
    <glyph glyph-name="W" unicode="W" horiz-adv-x="1152" 
d="M1120 643l-224 -611c-14 -39 -38 -39 -60 -39c-23 0 -46 0 -61 41l-130 361c-38 105 -61 169 -71 207c-10 -38 -27 -87 -75 -219l-126 -350c-14 -40 -39 -40 -59 -40s-44 0 -58 39l-225 615c-1 3 -3 9 -3 13c0 24 22 24 37 24c24 0 46 0 60 -40l125 -346
c32 -88 64 -177 73 -216h1c9 37 30 95 73 214l126 350c14 38 40 38 59 38c20 0 45 0 58 -37l164 -454c11 -31 31 -86 38 -113l59 173l141 390c8 21 20 41 53 41c5 0 29 0 29 -24c0 -5 -2 -12 -4 -17z" />
    <glyph glyph-name="X" unicode="X" horiz-adv-x="805" 
d="M442 361l306 -320c12 -13 14 -15 14 -22c0 -19 -18 -19 -32 -19h-33c-17 0 -33 0 -50 19l-253 288l-251 -287c-17 -20 -32 -20 -51 -20h-19c-14 0 -32 0 -32 19c0 1 0 8 10 19l294 323l-285 299c0 24 12 24 32 24h33c21 0 33 0 51 -20l218 -243l215 242
c19 21 31 21 52 21h18c14 0 33 0 33 -19c0 -6 -1 -7 -11 -18z" />
    <glyph glyph-name="Y" unicode="Y" horiz-adv-x="805" 
d="M768 646l-320 -373v-230c0 -40 -16 -43 -46 -43c-31 0 -46 4 -46 44v230l-320 372c-8 9 -10 12 -10 19c0 19 16 19 41 19c28 0 59 0 88 -34l258 -301l261 303c28 32 58 32 74 32c12 0 31 0 31 -19c0 -6 0 -8 -11 -19z" />
    <glyph glyph-name="Z" unicode="Z" horiz-adv-x="763" 
d="M680 613l-485 -547h462c14 0 44 0 44 -33s-30 -33 -44 -33h-544c-19 0 -44 0 -44 38c0 17 1 19 14 33l485 549h-437c-13 0 -44 0 -44 32s31 32 44 32h519c18 0 44 0 44 -37c0 -11 0 -18 -14 -34z" />
    <glyph glyph-name="bracketleft" unicode="[" horiz-adv-x="352" 
d="M211 701v-846h69c13 0 44 0 44 -32c0 -31 -32 -31 -44 -31h-102c-36 0 -44 10 -44 44v884c0 36 10 44 44 44h102c13 0 44 0 44 -32c0 -31 -32 -31 -44 -31h-69z" />
    <glyph glyph-name="quotedblleft" unicode="&#x201c;" 
d="M336 665l-24 -110c26 0 27 -3 27 -28v-41c0 -26 -2 -28 -28 -28h-41c-27 0 -28 2 -28 28v58l46 131c7 19 10 19 27 19c10 0 24 0 24 -14c0 -3 -1 -4 -3 -15zM579 665l-24 -110c26 0 27 -3 27 -28v-41c0 -26 -2 -28 -28 -28h-41c-27 0 -28 2 -28 28v58l46 131
c7 19 10 19 27 19c10 0 24 0 24 -14c0 -3 -1 -4 -3 -15z" />
    <glyph glyph-name="bracketright" unicode="]" horiz-adv-x="352" 
d="M217 720v-884c0 -36 -10 -44 -44 -44h-102c-13 0 -44 0 -44 32c0 31 32 31 44 31h69v846h-69c-13 0 -44 0 -44 32c0 31 32 31 44 31h102c36 0 44 -10 44 -44z" />
    <glyph glyph-name="circumflex" unicode="&#x2c6;" 
d="M336 694l175 -84c13 -6 18 -8 18 -17c0 -14 -13 -14 -28 -14h-24l-165 74l-165 -74h-24c-15 0 -28 0 -28 14c0 9 8 13 17 17l176 84h48z" />
    <glyph glyph-name="dotaccent" unicode="&#x2d9;" horiz-adv-x="347" 
d="M168 695h10c21 0 44 0 44 -43c0 -40 -17 -44 -45 -44h-8c-28 0 -45 4 -45 44c0 43 23 43 44 43z" />
    <glyph glyph-name="quoteleft" unicode="&#x2018;" horiz-adv-x="347" 
d="M219 665l-24 -110c26 0 27 -3 27 -28v-41c0 -26 -2 -28 -28 -28h-41c-27 0 -28 2 -28 28v58l46 131c7 19 10 19 27 19c10 0 24 0 24 -14c0 -3 -1 -4 -3 -15z" />
    <glyph glyph-name="a" unicode="a" horiz-adv-x="590" 
d="M490 355v-311c0 -20 0 -44 -39 -44s-39 24 -39 44v28c-46 -60 -133 -82 -199 -82c-94 0 -149 76 -149 148c0 84 87 167 346 173v40c0 68 -38 126 -120 126c-54 0 -106 -10 -167 -48c-14 -9 -16 -9 -19 -9c-18 0 -18 42 -18 53c0 2 0 10 7 14c6 4 24 12 26 14
c66 29 125 35 173 35c120 0 198 -83 198 -181zM410 162v110c-48 -2 -108 -5 -171 -28c-46 -17 -98 -50 -98 -105c0 -52 56 -86 120 -86c9 0 149 0 149 109z" />
    <glyph glyph-name="b" unicode="b" 
d="M178 650v-205c20 26 75 86 166 86c124 0 226 -119 226 -270c0 -157 -117 -271 -246 -271c-63 0 -111 33 -144 85v-31c0 -21 0 -44 -40 -44s-40 23 -40 44v606c0 20 0 44 39 44s39 -24 39 -44zM180 366v-198c0 -41 33 -75 38 -80c12 -11 35 -35 82 -35
c89 0 190 61 190 208c0 151 -97 207 -177 207c-46 0 -90 -20 -122 -66c-11 -16 -11 -18 -11 -36z" />
    <glyph glyph-name="c" unicode="c" horiz-adv-x="555" 
d="M520 74c0 -19 -55 -48 -79 -59c-59 -25 -111 -25 -126 -25c-150 0 -261 124 -261 271c0 136 98 275 266 275c71 0 111 -10 168 -38c24 -13 25 -14 25 -23c0 -5 -5 -27 -6 -33c-2 -11 -4 -21 -15 -21c-4 0 -6 0 -21 10c-48 28 -82 40 -151 40c-128 0 -186 -105 -186 -210
c0 -118 75 -206 181 -206c55 0 115 15 170 63c9 7 11 10 17 10c18 0 18 -41 18 -54z" />
    <glyph glyph-name="d" unicode="d" 
d="M524 650v-606c0 -21 0 -44 -40 -44s-40 23 -40 44v39c-27 -41 -78 -93 -159 -93c-125 0 -231 118 -231 270c0 156 114 271 241 271c58 0 111 -26 151 -81v200c0 20 0 44 39 44s39 -24 39 -44zM444 174v196c0 18 0 21 -13 39c-20 30 -55 59 -107 59
c-87 0 -190 -59 -190 -208c0 -148 95 -207 177 -207c43 0 71 19 92 40c23 22 41 50 41 81z" />
    <glyph glyph-name="e" unicode="e" horiz-adv-x="555" 
d="M474 246h-349c6 -103 85 -193 189 -193c49 0 113 17 165 64c7 6 11 10 17 10c17 0 17 -31 17 -51c0 -8 0 -12 -30 -33c-52 -36 -113 -53 -170 -53c-145 0 -264 121 -264 274c0 148 108 272 247 272c141 0 222 -105 222 -249c0 -41 -23 -41 -44 -41zM126 295h327
c-2 33 -9 178 -157 178c-83 0 -157 -73 -170 -178z" />
    <glyph glyph-name="f" unicode="f" horiz-adv-x="381" 
d="M213 458v-414c0 -20 0 -44 -39 -44s-39 24 -39 44v414h-57c-13 0 -44 0 -44 32c0 31 32 31 44 31h57v47c0 92 95 136 190 136c8 0 37 0 68 -5c39 -6 40 -7 40 -33v-14c0 -15 0 -28 -14 -28c-3 0 -5 1 -14 4c-36 12 -63 13 -83 13c-25 0 -49 -2 -73 -10
c-38 -13 -38 -22 -38 -43v-67h103c13 0 44 0 44 -32c0 -31 -32 -31 -44 -31h-101z" />
    <glyph glyph-name="g" unicode="g" 
d="M524 487v-452c0 -101 -80 -196 -220 -196c-82 0 -148 14 -198 29c-19 6 -19 8 -19 31v10c0 16 0 29 15 29c2 0 4 0 24 -7c50 -17 108 -29 178 -29c74 0 140 33 140 108v123h-1c-31 -66 -82 -112 -157 -112c-119 0 -232 98 -232 241c0 151 115 269 246 269
c66 0 113 -36 145 -95h1v51c0 20 0 44 39 44s39 -24 39 -44zM446 302v24c0 42 -35 142 -121 142c-104 0 -191 -93 -191 -206c0 -105 86 -178 177 -178c83 0 135 86 135 218z" />
    <glyph glyph-name="h" unicode="h" 
d="M525 361v-317c0 -21 0 -44 -40 -44s-40 23 -40 44v310c0 54 -12 114 -120 114c-88 0 -146 -73 -146 -165v-259c0 -21 0 -44 -40 -44s-40 23 -40 44v606c0 20 0 44 39 44s39 -24 39 -44v-229h1c27 51 83 110 177 110c116 0 170 -59 170 -170z" />
    <glyph glyph-name="i" unicode="i" horiz-adv-x="277" 
d="M186 651v-9c0 -36 -10 -44 -44 -44h-9c-36 0 -44 10 -44 44v9c0 36 10 44 44 44h9c36 0 44 -10 44 -44zM177 477v-433c0 -20 0 -44 -39 -44s-39 24 -39 44v433c0 20 0 44 39 44s39 -24 39 -44z" />
    <glyph glyph-name="j" unicode="j" horiz-adv-x="312" 
d="M212 651v-9c0 -36 -10 -44 -44 -44h-9c-36 0 -44 10 -44 44v9c0 36 10 44 44 44h9c36 0 44 -10 44 -44zM134 -14v491c0 20 0 44 39 44s39 -24 39 -44v-486c0 -87 -71 -140 -153 -140c-37 0 -71 7 -86 10c-27 7 -60 14 -60 29c0 4 4 15 9 29c4 13 6 20 16 20
c4 0 7 -2 11 -4c37 -14 70 -18 92 -18c14 0 41 1 67 17c26 17 26 35 26 52z" />
    <glyph glyph-name="k" unicode="k" horiz-adv-x="590" 
d="M327 312l222 -277c3 -4 7 -8 7 -15c0 -20 -17 -20 -36 -20c-30 0 -35 2 -50 21l-197 244l-98 -85v-136c0 -17 0 -44 -36 -44c-37 0 -37 26 -37 44v606c0 18 0 44 37 44s37 -26 37 -44v-378l266 231c21 18 34 18 59 18c21 0 37 0 37 -18c0 -8 -4 -12 -14 -20z" />
    <glyph glyph-name="l" unicode="l" horiz-adv-x="277" 
d="M177 650v-606c0 -20 0 -44 -39 -44s-39 24 -39 44v606c0 20 0 44 39 44s39 -24 39 -44z" />
    <glyph glyph-name="m" unicode="m" horiz-adv-x="972" 
d="M873 361v-317c0 -21 0 -44 -40 -44s-40 23 -40 44v310c0 56 -13 114 -121 114c-85 0 -146 -71 -146 -165v-259c0 -21 0 -44 -40 -44s-40 23 -40 44v310c0 56 -13 114 -121 114c-85 0 -146 -71 -146 -165v-259c0 -21 0 -44 -40 -44s-40 23 -40 44v433c0 20 0 44 39 44
c38 0 38 -25 38 -44v-58h1c37 69 98 112 179 112c89 0 148 -35 165 -118c26 53 83 118 182 118c112 0 170 -56 170 -170z" />
    <glyph glyph-name="n" unicode="n" 
d="M525 361v-317c0 -21 0 -44 -40 -44s-40 23 -40 44v310c0 54 -12 114 -120 114c-88 0 -146 -73 -146 -165v-259c0 -21 0 -44 -40 -44s-40 23 -40 44v433c0 20 0 44 39 44c38 0 38 -25 38 -44v-58h1c28 54 85 112 178 112c116 0 170 -59 170 -170z" />
    <glyph glyph-name="o" unicode="o" 
d="M577 259c0 -149 -119 -269 -265 -269s-265 120 -265 269c0 153 119 277 265 277c145 0 265 -123 265 -277zM312 55c85 0 185 51 185 215c0 159 -104 203 -185 203s-185 -45 -185 -203c0 -162 98 -215 185 -215z" />
    <glyph glyph-name="p" unicode="p" 
d="M180 75v-170c0 -21 0 -44 -40 -44s-40 23 -40 44v572c0 20 0 44 39 44s39 -24 39 -44v-33c52 68 118 87 168 87c123 0 224 -119 224 -270c0 -157 -117 -271 -246 -271c-78 0 -123 51 -144 85zM180 365v-198c0 -40 33 -74 38 -79c11 -11 35 -35 81 -35
c100 0 191 89 191 208c0 114 -81 205 -178 205c-32 0 -84 -12 -121 -65c-11 -16 -11 -17 -11 -36z" />
    <glyph glyph-name="q" unicode="q" 
d="M524 487v-582c0 -21 0 -44 -40 -44s-40 23 -40 44v183c-34 -56 -83 -98 -157 -98c-123 0 -233 115 -233 270c0 156 116 271 245 271c65 0 114 -36 146 -96h1v52c0 20 0 44 39 44s39 -24 39 -44zM446 191v134c0 43 -36 141 -121 141c-100 0 -191 -88 -191 -206
c0 -115 82 -207 178 -207c54 0 83 33 94 45c2 3 40 47 40 93z" />
    <glyph glyph-name="r" unicode="r" horiz-adv-x="416" 
d="M178 259v-215c0 -20 0 -44 -39 -44s-39 24 -39 44v433c0 19 0 44 38 44c37 0 37 -26 37 -44v-89h1c64 134 176 143 202 143c21 0 21 -7 21 -28v-14c0 -27 -3 -27 -23 -28c-103 -5 -198 -81 -198 -202z" />
    <glyph glyph-name="s" unicode="s" horiz-adv-x="479" 
d="M450 148c0 -53 -27 -158 -204 -158c-83 0 -150 25 -185 43c-20 11 -26 14 -26 24c0 4 5 28 6 34c3 15 4 23 16 23c4 0 6 0 14 -7c59 -38 121 -52 175 -52c19 0 131 0 131 86c0 28 -17 47 -35 60c-25 17 -43 20 -121 34c-40 8 -179 33 -179 152c0 111 103 149 205 149
c57 0 101 -8 153 -30c19 -7 26 -10 26 -21c0 -5 -5 -27 -6 -33c-2 -11 -4 -21 -15 -21c-3 0 -5 0 -21 9c-27 13 -68 34 -144 34c-17 0 -125 0 -125 -78c0 -45 50 -68 86 -75c11 -2 45 -9 67 -13c45 -8 92 -17 136 -57c30 -29 46 -65 46 -103z" />
    <glyph glyph-name="t" unicode="t" horiz-adv-x="451" 
d="M212 458v-306c0 -45 9 -97 55 -97c42 0 80 14 112 38c5 3 9 7 14 7c11 0 13 -8 16 -20c2 -8 7 -24 7 -27c0 -19 -66 -43 -69 -44c-50 -18 -94 -19 -108 -19c-83 0 -104 77 -104 145v323h-68c-13 0 -44 0 -44 32c0 31 32 31 44 31h70v105c0 19 0 44 38 44
c37 0 37 -26 37 -44v-105h139c13 0 44 0 44 -32c0 -31 -32 -31 -44 -31h-139z" />
    <glyph glyph-name="u" unicode="u" 
d="M525 477v-433c0 -20 0 -44 -39 -44s-39 24 -39 44v46c-26 -42 -87 -100 -190 -100c-85 0 -158 30 -158 149v338c0 21 0 44 40 44s40 -23 40 -44v-336c0 -62 13 -91 107 -91c92 0 159 54 159 143v284c0 21 0 44 40 44s40 -23 40 -44z" />
    <glyph glyph-name="v" unicode="v" horiz-adv-x="555" 
d="M521 479l-182 -446c-15 -36 -42 -36 -61 -36c-24 0 -46 0 -62 38l-182 444c-3 6 -5 12 -5 19c0 23 22 23 30 23c38 0 48 -24 54 -38l165 -405l166 407c15 36 44 36 53 36c7 0 29 0 29 -23c0 -7 -2 -13 -5 -19z" />
    <glyph glyph-name="w" unicode="w" horiz-adv-x="833" 
d="M800 477l-146 -443c-12 -37 -39 -37 -58 -37c-22 0 -46 0 -59 40l-79 243c-18 55 -37 115 -46 159h-1c-11 -51 -28 -105 -47 -162l-78 -237c-8 -23 -14 -43 -54 -43c-16 0 -41 0 -54 38l-146 442c-5 14 -5 16 -5 20c0 24 23 24 31 24c37 0 44 -22 51 -42l93 -282
c15 -47 25 -77 34 -115h1c10 39 19 65 34 112l95 288c5 15 13 39 48 39s43 -24 49 -41l131 -398l131 401c11 34 34 38 50 38c7 0 30 0 30 -24c0 -4 0 -6 -5 -20z" />
    <glyph glyph-name="x" unicode="x" horiz-adv-x="555" 
d="M310 269l211 -231c10 -11 10 -16 10 -19c0 -19 -16 -19 -34 -19c-26 0 -34 1 -49 19l-174 207l-168 -208c-15 -18 -30 -18 -48 -18c-17 0 -35 0 -35 19c0 3 0 8 11 20l204 230l-197 214c-10 11 -10 16 -10 19c0 19 16 19 34 19c21 0 35 0 53 -21l156 -178l153 180
c16 19 29 19 49 19c17 0 35 0 35 -19c0 -3 0 -8 -11 -20z" />
    <glyph glyph-name="y" unicode="y" horiz-adv-x="555" 
d="M521 480l-219 -517c-27 -65 -84 -112 -170 -112c-26 0 -52 2 -78 5c-11 2 -20 3 -20 54c0 9 4 17 15 17c1 0 3 0 7 -2c27 -7 53 -11 81 -11c76 0 93 37 100 52c2 5 2 7 14 34l-218 485c-2 3 -3 9 -3 13c0 23 21 23 30 23c11 0 40 0 56 -37l109 -248
c25 -58 48 -109 59 -154h1c15 65 163 412 165 415s14 24 47 24c6 0 29 0 29 -23c0 -7 -3 -13 -5 -18z" />
    <glyph glyph-name="z" unicode="z" horiz-adv-x="538" 
d="M484 452l-343 -389h317c13 0 44 0 44 -32c0 -31 -32 -31 -44 -31h-379c-18 0 -44 0 -44 37c0 16 2 18 14 32l343 389h-296c-13 0 -44 0 -44 32c0 31 32 31 44 31h358c18 0 44 0 44 -37c0 -16 -2 -18 -14 -32z" />
    <glyph glyph-name="endash" unicode="&#x2013;" 
d="M580 290h-536c-12 0 -44 0 -44 31c0 32 30 32 44 32h536c13 0 44 0 44 -32c0 -31 -32 -31 -44 -31z" />
    <glyph glyph-name="emdash" unicode="&#x2014;" horiz-adv-x="1250" 
d="M1205 290h-1161c-12 0 -44 0 -44 31c0 32 30 32 44 32h1161c13 0 44 0 44 -32c0 -31 -32 -31 -44 -31z" />
    <glyph glyph-name="hungarumlaut" unicode="&#x2dd;" 
d="M300 664l-104 -85h-25c-16 0 -29 0 -29 14c0 3 1 7 11 17l74 71c13 13 15 13 33 13h24c15 0 28 0 28 -14c0 -7 -2 -8 -12 -16zM508 664l-104 -85h-25c-16 0 -29 0 -29 14c0 3 1 7 11 17l74 71c13 13 15 13 33 13h24c15 0 28 0 28 -14c0 -7 -2 -8 -12 -16z" />
    <glyph glyph-name="tilde" unicode="&#x2dc;" 
d="M485 694h7c19 0 28 0 28 -18c0 -43 -46 -88 -120 -88c-22 0 -46 4 -100 24c-29 11 -52 19 -77 19c-4 0 -51 0 -56 -27c-3 -16 -7 -16 -28 -16h-6c-19 0 -29 0 -29 18c0 43 46 88 120 88c22 0 46 -4 100 -24c29 -11 52 -19 77 -19c4 0 51 0 56 27c3 16 7 16 28 16z" />
    <glyph glyph-name="dieresis" unicode="&#xa8;" 
d="M188 695h6c36 0 44 -10 44 -44c0 -39 -15 -43 -44 -43h-6c-36 0 -44 10 -44 44c0 39 15 43 44 43zM436 608h-6c-36 0 -44 10 -44 44c0 39 15 43 44 43h6c30 0 44 -5 44 -43c0 -36 -10 -44 -44 -44z" />
    <glyph glyph-name="space" unicode=" " horiz-adv-x="416" 
 />
  </font>
</defs>
</svg>
