<?xml version="1.0" standalone="no"?>
<!DOCTYPE svg PUBLIC "-//W3C//DTD SVG 1.1//EN" "http://www.w3.org/Graphics/SVG/1.1/DTD/svg11.dtd" >
<svg>
<metadata>
Created by FontForge 20060822 at Fri Oct  6 18:26:22 2006
 By Wojciech Mula,,,
Copyright (C) 1997 American Mathematical Society. All Rights Reserved
</metadata>
<defs>
<font id="CMTI8" horiz-adv-x="548" >
  <font-face 
    font-family="Computer Modern"
    font-weight="500"
    font-style="italic"
    font-stretch="normal"
    units-per-em="1000"
    panose-1="2 0 6 3 0 0 0 0 0 0"
    ascent="750"
    descent="-250"
    x-height="441"
    cap-height="683"
    bbox="-35 -250 1190 750"
    underline-thickness="0"
    underline-position="0"
    slope="-14.04"
    stemh="33"
    stemv="73"
    unicode-range="U+0020-U+FB04"
  />
    <missing-glyph />
    <glyph glyph-name="ff" unicode="ff" horiz-adv-x="658" 
d="M606 398l-57 -305c-1 -6 -30 -158 -69 -213c-15 -21 -70 -84 -148 -84c-52 0 -106 20 -106 67c0 31 22 55 51 55c11 0 35 -5 35 -34c0 -20 -13 -38 -32 -46c21 -14 48 -14 53 -14c33 0 55 20 69 35c24 24 30 36 44 84c15 55 16 60 27 117l64 338h-248l-61 -324
c-20 -107 -62 -278 -165 -278c-44 0 -88 23 -88 67c0 31 22 55 51 55c11 0 35 -5 35 -34c0 -22 -15 -40 -35 -48c7 -6 15 -12 38 -12c36 0 51 59 58 82c16 59 17 64 28 124l70 368h-66c-16 0 -28 0 -28 14c0 19 12 19 30 19h70l19 102c18 97 63 171 191 171
c83 0 119 -30 119 -67c0 -31 -22 -55 -51 -55c-11 0 -35 5 -35 34c0 4 0 32 32 45c-25 15 -54 15 -64 15c-51 0 -82 -25 -92 -41c-15 -23 -28 -87 -34 -118c-8 -45 -7 -41 -16 -86h248l22 115c7 36 32 158 139 158c52 0 97 -25 97 -67c0 -31 -22 -55 -51 -55
c-11 0 -35 5 -35 34c0 3 0 34 34 46c-18 14 -42 14 -45 14c-42 0 -53 -50 -61 -87c-4 -18 -16 -78 -30 -158h82c17 0 28 0 28 -14c0 -19 -11 -19 -29 -19h-88z" />
    <glyph glyph-name="fi" unicode="fi" horiz-adv-x="603" 
d="M289 398l-61 -323c-21 -113 -62 -279 -166 -279c-39 0 -87 21 -87 67c0 31 22 55 51 55c11 0 35 -5 35 -34c0 -22 -15 -40 -34 -48c0 0 15 -12 37 -12c35 0 50 55 57 80c16 58 19 75 31 137l67 357h-65c-16 0 -28 0 -28 14c0 19 12 19 29 19h71l18 97
c32 168 145 176 227 176c50 0 156 -3 156 -75c0 -35 -25 -57 -51 -57c-22 0 -36 14 -36 34c0 33 35 48 36 48c-26 19 -73 22 -103 22c-124 0 -139 -49 -160 -151l-18 -94h254c15 0 26 0 26 -12c0 -3 -1 -8 -2 -13l-78 -315c-3 -12 -3 -22 -3 -29c0 -12 0 -44 28 -44
c27 0 48 33 67 110c6 25 6 28 23 28c5 0 19 0 19 -13c0 -2 -13 -60 -34 -100c-17 -31 -41 -53 -77 -53c-46 0 -92 31 -92 92c0 10 0 16 5 36l70 280h-212z" />
    <glyph glyph-name="fl" unicode="fl" horiz-adv-x="630" 
d="M669 682l-146 -591c-3 -12 -3 -22 -3 -29c0 -12 0 -44 28 -44c27 0 48 33 67 110c6 25 6 28 23 28c5 0 19 0 19 -13c0 -2 -13 -60 -34 -100c-17 -31 -41 -53 -77 -53c-46 0 -92 31 -92 92c0 10 0 16 5 36l70 280h-240l-68 -357c-16 -84 -59 -245 -158 -245
c-43 0 -88 23 -88 67c0 31 22 55 51 55c11 0 35 -5 35 -34c0 -22 -15 -40 -35 -48c7 -6 15 -12 38 -12c21 0 47 0 86 205l70 369h-66c-15 0 -28 0 -28 14c0 19 12 19 30 19h70c25 135 32 172 66 214c49 59 130 59 161 59c99 0 133 -25 135 -64h1c2 9 6 22 9 35
c5 18 6 19 29 19h16c16 0 26 0 26 -12zM295 431h242l43 173h-1c-5 -9 -22 -22 -42 -22c-11 0 -35 5 -35 34s26 44 31 46c-23 12 -59 14 -79 14c-85 0 -108 -37 -120 -68c-9 -26 -9 -28 -39 -177z" />
    <glyph glyph-name="ffi" unicode="ffi" horiz-adv-x="946" 
d="M618 398l-59 -312c-2 -9 -29 -152 -70 -209c-9 -11 -66 -81 -151 -81c-61 0 -111 22 -111 67c0 31 22 55 51 55c11 0 35 -5 35 -34c0 -20 -13 -38 -32 -46c21 -13 52 -14 58 -14c30 0 55 16 77 38c23 24 29 42 39 76c12 41 22 82 30 124l63 336h-259l-60 -321
c-22 -115 -63 -281 -166 -281c-43 0 -88 23 -88 67c0 31 22 55 51 55c11 0 35 -5 35 -34c0 -22 -15 -40 -35 -48c7 -6 15 -12 38 -12c21 0 48 0 87 209l69 365h-65c-15 0 -29 0 -29 14c0 19 13 19 30 19h70c22 119 31 168 62 208c44 57 110 65 162 65c27 0 132 0 132 -67
c0 -31 -22 -55 -51 -55c-11 0 -35 5 -35 34s26 44 31 46c-26 14 -71 14 -76 14c-89 0 -108 -44 -117 -70c-14 -39 -22 -85 -38 -175h258l18 93c33 176 153 180 234 180c45 0 164 0 164 -74c0 -36 -25 -58 -51 -58c-22 0 -36 14 -36 34c0 2 1 36 37 47c-30 23 -89 23 -112 23
c-140 0 -149 -46 -184 -245h268c15 0 26 0 26 -12c0 -3 -1 -8 -2 -13l-78 -315c-3 -12 -3 -22 -3 -29c0 -12 0 -44 28 -44c27 0 48 33 67 110c6 25 6 28 23 28c5 0 19 0 19 -13c0 -2 -13 -60 -34 -100c-17 -31 -41 -53 -77 -53c-46 0 -92 31 -92 92c0 10 0 16 5 36l70 280
h-226z" />
    <glyph glyph-name="ffl" unicode="ffl" horiz-adv-x="960" 
d="M998 682l-146 -591c-3 -12 -3 -22 -3 -29c0 -12 0 -44 28 -44c27 0 48 33 67 110c6 25 6 28 23 28c5 0 19 0 19 -13c0 -2 -13 -60 -34 -100c-17 -31 -41 -53 -77 -53c-46 0 -92 31 -92 92c0 10 0 16 5 36l70 280h-240l-64 -336c-10 -53 -25 -105 -47 -154
c-23 -50 -90 -112 -169 -112c-61 0 -111 22 -111 67c0 31 22 55 51 55c11 0 35 -5 35 -34c0 -20 -13 -38 -32 -46c21 -13 52 -14 58 -14c52 0 92 52 101 72c16 33 35 118 44 164l64 338h-258l-62 -326c-19 -102 -60 -276 -165 -276c-43 0 -88 23 -88 67c0 31 22 55 51 55
c11 0 35 -5 35 -34c0 -22 -15 -40 -35 -48c7 -6 15 -12 38 -12c36 0 51 57 57 79c16 58 18 64 29 125l70 370h-65c-15 0 -28 0 -28 14c0 19 12 19 29 19h70l20 104c18 96 63 169 190 169c87 0 119 -33 119 -67c0 -31 -22 -55 -51 -55c-11 0 -35 5 -35 34c0 4 0 32 32 45
c-25 15 -54 15 -64 15c-56 0 -85 -30 -91 -39c-16 -27 -29 -94 -34 -120c-9 -44 -8 -42 -16 -86h259c23 130 31 173 70 218c47 55 132 55 157 55c99 0 133 -25 135 -64h1c2 9 6 22 9 35c5 18 6 19 29 19h16c16 0 26 0 26 -12zM624 431h242l43 173h-1c-5 -9 -22 -22 -42 -22
c-11 0 -35 5 -35 34s26 44 31 46c-23 12 -59 14 -79 14c-89 0 -110 -41 -120 -67c-10 -27 -17 -57 -39 -178z" />
    <glyph glyph-name="Gamma" unicode="&#x393;" horiz-adv-x="672" 
d="M400 611l-134 -538c-4 -15 -4 -17 -4 -21c0 -14 5 -14 28 -17c13 -1 30 -2 43 -2h7c15 0 29 0 29 -14c0 -19 -15 -19 -21 -19c-3 0 -46 3 -135 3h-61c-20 0 -43 -3 -62 -3c-9 0 -15 6 -15 14c0 19 11 19 33 19c61 0 67 9 76 43l133 533c2 7 4 15 4 22c0 16 -24 16 -55 16
c-19 0 -29 0 -29 15c0 18 12 18 29 18h448c15 0 28 0 28 -14l-1 -14l-20 -175c-2 -17 -3 -24 -20 -24c-7 0 -19 0 -19 16c0 6 2 18 3 24c3 27 3 32 3 54c0 66 -16 100 -127 100h-114c-31 0 -38 0 -47 -36z" />
    <glyph glyph-name="Delta" unicode="&#x394;" horiz-adv-x="877" 
d="M644 689l158 -664c2 -9 2 -11 2 -13c0 -12 -12 -12 -26 -12h-679c-16 0 -22 0 -22 8c0 2 0 4 8 14l497 674c12 17 22 18 34 18c19 0 23 -5 28 -25zM569 621l-406 -550h537z" />
    <glyph glyph-name="Theta" unicode="&#x398;" horiz-adv-x="822" 
d="M836 436c0 -237 -219 -457 -430 -457c-155 0 -252 116 -252 264c0 227 214 461 432 461c143 0 250 -104 250 -268zM413 9c191 0 341 241 341 455c0 137 -77 212 -175 212c-191 0 -342 -250 -342 -458c0 -143 84 -209 176 -209zM693 385l-23 -92c-4 -17 -8 -20 -21 -20
c-6 0 -19 0 -19 15c0 6 3 14 4 19h-294c-1 -18 -7 -34 -24 -34c-5 0 -19 0 -19 14c0 3 1 5 4 18l22 88c4 14 5 19 21 19c3 0 18 0 18 -14c0 -3 -3 -16 -4 -20h294l6 24c3 10 13 10 18 10s19 0 19 -14c0 -3 -1 -10 -2 -13z" />
    <glyph glyph-name="Lambda" unicode="&#x39b;" horiz-adv-x="741" 
d="M188 118l328 575c12 21 22 21 32 21c20 0 20 -6 22 -27l45 -624c2 -23 5 -30 44 -30c13 0 26 0 26 -14c0 -19 -15 -19 -20 -19c-10 0 -12 3 -100 3c-70 0 -108 -3 -110 -3c-9 0 -15 6 -15 14c0 19 13 19 23 19c68 1 66 25 65 44l-36 503l-271 -473c-1 -1 -15 -27 -15 -42
c0 -21 17 -30 38 -32c7 0 18 -1 18 -14c0 -19 -14 -19 -19 -19c-7 0 -26 3 -90 3c-69 0 -64 -3 -76 -3c-8 0 -14 7 -14 14c0 17 10 18 24 19c25 3 60 13 101 85z" />
    <glyph glyph-name="Xi" unicode="&#x39e;" horiz-adv-x="713" 
d="M794 662l-21 -116c-3 -17 -4 -22 -21 -22c-3 0 -18 0 -18 14c0 2 0 7 1 10c6 32 7 44 7 59c-13 2 -53 3 -62 3h-337c-11 0 -61 0 -68 -6c-7 -5 -18 -37 -23 -53c-9 -25 -9 -27 -24 -27c-5 0 -19 0 -19 14c0 1 0 2 3 12l33 108c5 18 10 18 31 18h490c15 0 28 0 28 -14z
M199 66h339c4 0 68 0 75 7c8 10 26 66 26 67c6 19 7 23 22 23c5 0 19 0 19 -14c0 -13 -34 -114 -41 -134c-5 -15 -7 -15 -29 -15h-502c-19 0 -28 0 -28 16c0 10 20 109 24 127c3 14 4 20 20 20c6 0 19 0 19 -15c0 -1 0 -4 -4 -23c-3 -14 -6 -37 -6 -45c0 -10 1 -10 6 -11
c17 -3 40 -3 60 -3zM240 305l27 108c3 13 5 19 20 19c9 0 19 -2 19 -15c0 -9 -5 -24 -7 -32h306c6 24 6 26 7 31c3 11 6 16 20 16c9 0 19 -2 19 -15c0 -4 -1 -6 -4 -19l-27 -107c-3 -13 -5 -19 -20 -19c-9 0 -19 2 -19 15c0 9 5 24 7 32h-306c-6 -24 -6 -26 -7 -31
c-3 -11 -6 -16 -20 -16c-10 0 -19 2 -19 15c0 3 1 6 4 18z" />
    <glyph glyph-name="Pi" unicode="&#x3a0;" horiz-adv-x="796" 
d="M781 604l-133 -533c-4 -15 -4 -21 -4 -22c0 -16 24 -16 55 -16c17 0 29 0 29 -14c0 -19 -14 -19 -20 -19c-5 0 -33 3 -118 3h-60c-8 -1 -52 -3 -57 -3c-9 0 -15 6 -15 14c0 19 12 19 27 19c66 0 73 6 82 43l142 571h-300l-144 -576c-4 -15 -4 -21 -4 -22
c0 -16 24 -16 55 -16c17 0 29 0 29 -14c0 -19 -14 -19 -20 -19c-5 0 -33 3 -118 3h-60c-8 -1 -52 -3 -57 -3c-9 0 -15 6 -15 14c0 19 11 19 33 19c61 0 67 9 76 43l133 533c2 7 4 15 4 22c0 16 -24 16 -55 16c-19 0 -29 0 -29 15c0 18 12 18 29 18h596c16 0 28 0 28 -14
c0 -19 -12 -19 -27 -19c-66 0 -73 -6 -82 -43z" />
    <glyph glyph-name="Sigma" unicode="&#x3a3;" horiz-adv-x="768" 
d="M468 325l-304 -282h256c161 0 220 29 277 172c9 20 9 22 24 22c3 0 19 0 19 -14c0 -2 0 -4 -5 -15l-72 -190c-7 -17 -8 -18 -31 -18h-518c-17 0 -28 0 -28 14c0 5 1 6 12 17l300 279l-150 352c0 21 12 21 30 21h518c22 0 30 0 27 -28l-20 -175c-2 -19 -4 -24 -21 -24
c-3 0 -18 0 -18 14c0 8 3 22 3 56c0 95 -31 124 -184 124h-234l126 -294c4 -10 4 -13 4 -14c0 -6 -1 -8 -11 -17z" />
    <glyph glyph-name="Upsilon" unicode="&#x3a5;" horiz-adv-x="822" 
d="M534 325l-63 -252c-4 -15 -4 -17 -4 -21c0 -14 5 -14 28 -17c13 -1 30 -2 43 -2h7c15 0 29 0 29 -14c0 -19 -15 -19 -21 -19c-23 0 -49 2 -72 3h-141c-7 0 -66 -3 -67 -3c-16 0 -16 13 -16 14c0 19 12 19 29 19h8c82 0 87 11 95 45l64 257c12 47 24 96 24 156
c0 64 -15 142 -102 142c-53 0 -100 -33 -117 -82c-4 -10 -7 -19 -24 -19c-3 0 -16 0 -16 11c0 28 61 161 175 161c112 0 136 -104 136 -189c0 -18 -2 -42 -3 -51h1c26 59 104 240 253 240c63 0 101 -45 101 -113c0 -54 -12 -59 -28 -59c-4 0 -16 0 -16 12c0 4 3 8 3 22
c0 27 -18 67 -78 67c-151 0 -210 -235 -228 -308z" />
    <glyph glyph-name="Phi" unicode="&#x3a6;" horiz-adv-x="768" 
d="M565 592l-11 -45c128 -9 220 -80 220 -171c0 -105 -130 -223 -323 -240c-6 -26 -6 -28 -10 -41c-3 -14 -9 -38 -9 -43c0 -14 5 -14 28 -17c13 -1 30 -2 43 -2h7c15 0 29 0 29 -14c0 -19 -15 -19 -21 -19c-4 0 -40 3 -138 3h-68c-21 -1 -46 -3 -67 -3c-16 0 -16 13 -16 14
c0 19 12 19 29 19h8c84 0 86 8 99 59c3 15 7 29 11 45c-135 12 -213 87 -213 170c0 112 140 223 315 239c7 28 20 78 20 85c0 11 -2 14 -28 17c-18 2 -27 2 -43 2h-8c-16 0 -28 0 -28 14c0 19 14 19 21 19c4 0 40 -3 138 -3h68c21 1 46 3 67 3c9 0 16 -4 16 -14
c0 -19 -11 -19 -29 -19h-8c-84 0 -86 -7 -99 -58zM383 165l88 353c-56 -7 -117 -28 -157 -70c-48 -51 -63 -125 -63 -160c0 -28 7 -63 39 -88c20 -15 48 -30 93 -35zM547 518l-88 -353c214 18 227 202 227 230c0 75 -53 115 -139 123z" />
    <glyph glyph-name="Psi" unicode="&#x3a8;" horiz-adv-x="822" 
d="M596 603l-108 -435c139 29 186 167 206 243c32 117 75 144 128 144h24c16 0 28 0 28 -14c0 -12 -10 -13 -16 -14c-58 -8 -79 -83 -92 -133c-34 -125 -121 -241 -286 -257c-7 -28 -20 -78 -20 -85c0 -14 5 -14 28 -17c13 -1 30 -2 43 -2h7c15 0 29 0 29 -14
c0 -19 -15 -19 -21 -19c-4 0 -40 3 -138 3h-68c-21 -1 -46 -3 -67 -3c-16 0 -16 13 -16 14c0 19 12 19 29 19h8c83 0 85 7 99 60c8 32 3 14 11 45c-117 15 -160 91 -160 181c0 40 8 74 15 101c4 18 7 37 7 55c0 42 -17 50 -31 52c-7 1 -17 2 -17 14c0 14 12 14 28 14h24
c19 0 71 0 71 -80c0 -4 0 -29 -11 -75c-11 -41 -14 -78 -14 -96c0 -53 13 -120 95 -137l111 441c2 7 4 15 4 23c0 11 -2 14 -28 17c-18 2 -27 2 -43 2h-8c-16 0 -28 0 -28 14c0 19 14 19 21 19c4 0 40 -3 138 -3h68c21 1 46 3 67 3c9 0 16 -4 16 -14c0 -19 -11 -19 -29 -19
h-8c-81 0 -87 -9 -96 -47z" />
    <glyph glyph-name="Omega" unicode="&#x3a9;" horiz-adv-x="768" 
d="M725 128l-56 -112c-8 -16 -11 -16 -32 -16h-131c-18 0 -28 0 -28 15c0 7 11 49 39 101c16 32 26 50 78 130c55 83 118 179 118 276c0 105 -76 154 -158 154c-122 0 -276 -110 -276 -311c0 -41 10 -104 13 -126c10 -66 14 -96 14 -134c0 -24 -1 -44 -6 -69
c-6 -35 -7 -36 -33 -36h-131c-26 0 -29 1 -29 31v98c0 21 0 30 19 30s19 -8 19 -26c0 -13 1 -50 3 -62c3 -9 30 -9 49 -9h77c0 55 -5 77 -43 170c-32 79 -42 118 -42 166c0 177 190 306 366 306c157 0 249 -94 249 -202c0 -107 -91 -206 -153 -273
c-94 -103 -110 -134 -127 -167h69c52 0 56 6 63 18c12 18 22 37 31 57c10 20 11 22 25 22c5 0 19 0 19 -14c0 -1 0 -6 -6 -17z" />
    <glyph glyph-name="dotlessi" unicode="&#x131;" horiz-adv-x="329" 
d="M287 306l-66 -174c-16 -42 -22 -59 -22 -82c0 -18 3 -32 22 -32c42 0 75 52 93 117c5 17 6 21 22 21c5 0 19 0 19 -13c0 -12 -41 -153 -136 -153c-51 0 -84 37 -84 83c0 18 7 36 11 46l70 186c13 35 20 54 20 77c0 18 -4 31 -22 31c-48 0 -79 -65 -94 -117
c-4 -18 -5 -21 -21 -21c-6 0 -19 0 -19 13s41 153 136 153c42 0 83 -28 83 -83c0 -20 -4 -30 -12 -52z" />
    <glyph glyph-name="dotlessj" unicode="&#xf6be;" horiz-adv-x="356" 
d="M332 314l-91 -366c-20 -80 -96 -152 -181 -152c-54 0 -95 21 -95 59c0 30 23 53 50 53c22 0 36 -14 36 -34c0 -1 -1 -29 -27 -43c12 -5 24 -7 36 -7c68 0 103 91 111 125l97 393c1 5 3 12 3 27c0 36 -13 44 -30 44c-32 0 -81 -25 -121 -122c-5 -13 -6 -16 -21 -16
c-5 0 -19 0 -19 12c0 13 59 154 164 154c53 0 93 -37 93 -92c0 -7 0 -15 -5 -35z" />
    <glyph glyph-name="grave" unicode="`" 
d="M415 513l-101 115c-13 15 -14 22 -14 28c0 23 24 40 41 40c16 0 22 -9 29 -22l80 -138c4 -7 5 -11 5 -14c0 -10 -16 -20 -22 -20c-2 0 -8 0 -18 11z" />
    <glyph glyph-name="acute" unicode="&#xb4;" 
d="M555 630l-169 -122c-7 -5 -10 -7 -14 -7c-11 0 -19 15 -19 21c0 7 8 15 11 18l154 143c1 1 14 13 28 13s31 -10 31 -31c0 -9 -2 -21 -22 -35z" />
    <glyph glyph-name="caron" unicode="&#x2c7;" 
d="M553 594l-135 -85c-9 -6 -11 -7 -15 -7c-5 0 -7 0 -18 11l-88 80c-8 7 -11 10 -11 17c0 9 13 22 21 22c2 0 7 0 17 -8l86 -65l123 67c10 6 14 6 16 6c13 0 17 -18 17 -22c0 -8 -3 -10 -13 -16z" />
    <glyph glyph-name="breve" unicode="&#x2d8;" 
d="M594 680c0 -35 -70 -161 -187 -161c-75 0 -119 55 -119 123c0 8 0 52 19 52c6 0 14 -5 14 -15c0 -3 -4 -17 -4 -30c0 -52 38 -88 94 -88c33 0 121 19 155 120c1 4 4 13 14 13c7 0 14 -6 14 -14z" />
    <glyph glyph-name="macron" unicode="&#xaf;" 
d="M565 557h-298c-16 0 -28 0 -28 14c0 22 12 22 30 22h298c15 0 29 0 29 -14c0 -22 -13 -22 -31 -22z" />
    <glyph glyph-name="ring" unicode="&#x2da;" horiz-adv-x="884" 
d="M701 646c0 -55 -62 -106 -125 -106c-40 0 -81 21 -81 70c0 53 60 105 125 105c45 0 81 -27 81 -69zM583 568c11 0 42 0 60 21c19 22 22 61 22 62c0 31 -26 36 -53 36c-9 0 -41 0 -60 -21c-18 -22 -21 -58 -21 -62c0 -31 25 -36 52 -36z" />
    <glyph glyph-name="cedilla" unicode="&#xb8;" horiz-adv-x="493" 
d="M266 7h12c16 0 28 0 28 -14c0 -1 0 -5 -9 -39c25 -4 66 -19 66 -58c0 -87 -145 -87 -208 -87c-33 0 -42 0 -42 14s13 14 28 14h13c30 0 140 0 140 58c0 24 -28 33 -51 35c-5 0 -18 1 -18 14c0 5 6 26 10 42c5 21 7 21 31 21z" />
    <glyph glyph-name="germandbls" unicode="&#xdf;" horiz-adv-x="576" 
d="M314 530l-85 -449c0 -1 -28 -146 -62 -203c-10 -17 -54 -82 -115 -82c-41 0 -72 28 -72 65s26 57 51 57c11 0 35 -5 35 -34c0 -14 -8 -40 -40 -48c2 -3 11 -12 27 -12c50 0 74 87 99 218l67 356h-65c-17 0 -28 0 -28 14c0 19 11 19 29 19h70l19 98
c27 140 105 175 213 175c101 0 152 -54 152 -115c0 -41 -29 -117 -95 -184c-25 -25 -47 -49 -47 -70c0 -24 26 -51 42 -68c17 -19 49 -55 49 -103c0 -76 -83 -174 -187 -174c-54 0 -108 25 -108 76c0 38 26 48 40 48c3 0 28 -2 28 -28c0 -2 0 -26 -27 -35
c16 -30 53 -33 67 -33c71 0 104 116 104 141c0 8 0 30 -27 60c-13 15 -35 40 -35 91c0 40 10 66 47 99c34 32 40 38 56 81c4 11 25 79 25 104c0 15 -5 82 -84 82c-111 0 -127 -61 -143 -146z" />
    <glyph glyph-name="ae" unicode="&#xe6;" horiz-adv-x="768" 
d="M531 228h-60c-6 -28 -11 -56 -11 -85c0 -68 29 -125 91 -125c38 0 107 19 163 91c7 10 8 12 15 12s20 -13 20 -21c0 -15 -81 -110 -199 -110c-62 0 -100 35 -121 70c-12 -52 -16 -70 -45 -70c-17 0 -27 13 -27 26c0 3 7 32 8 36c-48 -49 -88 -62 -121 -62
c-74 0 -147 40 -147 114c0 47 37 123 102 177c44 37 109 84 258 134c9 26 30 26 33 26c12 0 27 -6 27 -26c0 -6 -3 -19 -5 -25c46 33 94 51 142 51c63 0 111 -34 111 -87c0 -126 -192 -126 -234 -126zM479 256h46c38 0 196 0 196 98c0 41 -34 59 -68 59
c-56 0 -141 -44 -174 -157zM391 154l57 228c-193 -75 -273 -215 -273 -301c0 -63 65 -63 71 -63c73 0 137 104 145 136z" />
    <glyph glyph-name="oe" unicode="&#x153;" horiz-adv-x="768" 
d="M533 228h-58c-8 -35 -12 -68 -12 -90c0 -67 29 -120 88 -120c38 0 107 19 163 91c7 10 8 12 15 12s20 -13 20 -21c0 -15 -81 -110 -199 -110c-62 0 -111 33 -137 98c-55 -70 -116 -100 -167 -100c-77 0 -133 65 -133 161c0 144 120 294 241 294c41 0 92 -21 116 -89
c55 60 126 87 184 87c63 0 111 -34 111 -87c0 -122 -178 -126 -232 -126zM483 256h45c38 0 193 0 193 98c0 41 -34 59 -68 59c-47 0 -135 -35 -170 -157zM248 16c103 0 170 197 170 300c0 81 -40 99 -65 99c-38 0 -86 -37 -118 -105c-22 -47 -49 -155 -49 -202
c0 -44 17 -92 62 -92z" />
    <glyph glyph-name="oslash" unicode="&#xf8;" 
d="M574 511l-86 -112c41 -42 46 -98 46 -123c0 -145 -130 -288 -260 -288c-51 0 -85 24 -86 25l-79 -102c-17 -21 -18 -22 -24 -22s-13 6 -13 14c0 4 0 6 17 29l78 99c-28 29 -46 73 -46 125c0 143 129 287 260 287c43 0 74 -17 86 -25l87 112c8 11 9 12 15 12s14 -4 14 -14
c0 -5 0 -7 -9 -17zM196 70l247 318c-20 21 -43 27 -63 27c-43 0 -97 -30 -135 -87c-46 -69 -60 -167 -60 -199c0 -8 0 -35 11 -59zM459 362l-247 -319c2 -3 24 -27 63 -27c118 0 195 171 195 287c0 27 -7 49 -11 59z" />
    <glyph glyph-name="AE" unicode="&#xc6;" horiz-adv-x="946" 
d="M202 119l325 530c-7 1 -20 1 -24 1h-19c-15 0 -28 0 -28 14c0 19 12 19 29 19h490c22 0 30 0 27 -28l-20 -175c-2 -19 -4 -24 -21 -24c-3 0 -18 0 -18 14c0 1 0 11 2 19c2 19 4 44 4 62c0 64 -15 99 -125 99h-107c-31 0 -38 0 -47 -35l-67 -270h86c80 0 100 19 120 96
c4 16 5 21 21 21c4 0 19 0 19 -14c0 -4 -2 -11 -3 -15l-54 -217c-5 -20 -10 -21 -22 -21c-3 0 -19 0 -19 14c0 2 0 3 4 15c0 4 7 29 7 47c0 25 -5 41 -75 41h-93l-62 -250c-3 -13 -3 -16 -4 -27c9 -2 19 -2 28 -2h107c154 0 187 68 247 204c9 21 9 23 23 23c5 0 19 0 19 -14
c0 -5 -3 -13 -5 -17l-91 -211c-8 -17 -9 -18 -31 -18h-425c-15 0 -29 0 -29 14c0 19 14 19 24 19c45 0 52 4 61 39l60 240h-155l-127 -206c-5 -8 -16 -26 -16 -43c0 -21 17 -28 37 -30c5 0 17 -1 17 -14c0 -19 -15 -19 -19 -19c-5 0 -28 3 -92 3c-71 0 -72 -3 -83 -3
c-5 0 -14 4 -14 14c0 17 11 18 20 19c42 4 76 17 118 86zM381 345h143l65 261c4 15 4 17 4 21c0 8 0 19 -28 19z" />
    <glyph glyph-name="OE" unicode="&#x152;" horiz-adv-x="1056" 
d="M1057 229l-91 -211c-8 -17 -9 -18 -31 -18h-359c-16 0 -33 0 -79 -10c-43 -9 -60 -11 -80 -11c-141 0 -249 106 -249 264c0 229 217 461 431 461c27 0 46 -4 79 -12c39 -9 54 -9 69 -9h338c22 0 30 0 27 -28l-20 -175c-2 -19 -4 -24 -21 -24c-3 0 -18 0 -18 14
c0 3 0 8 1 10c3 26 5 41 5 70c0 70 -22 100 -128 100h-122c-31 0 -38 0 -47 -35l-61 -244h107c84 0 109 18 129 92c6 21 7 25 22 25c5 0 19 0 19 -14c0 -3 -1 -10 -2 -13l-55 -220c-4 -15 -6 -20 -21 -20c-6 0 -19 0 -19 15c0 3 2 8 2 12c2 4 8 30 8 46c0 30 -11 44 -85 44
h-113l-69 -276c-3 -13 -3 -16 -4 -27c9 -2 19 -2 28 -2h120c157 0 191 65 251 204c10 21 10 23 24 23c5 0 19 0 19 -14c0 -5 -3 -13 -5 -17zM582 189l81 326c8 31 13 62 13 94c0 26 0 67 -82 67c-157 0 -334 -206 -334 -441c0 -128 61 -228 168 -228c81 0 117 32 154 182z
" />
    <glyph glyph-name="Oslash" unicode="&#xd8;" horiz-adv-x="822" 
d="M856 713l-82 -91c39 -49 62 -109 62 -186c0 -237 -219 -457 -430 -457c-72 0 -128 25 -166 59l-79 -85c-11 -13 -14 -17 -21 -17c-4 0 -16 4 -16 16c0 5 0 7 17 24l76 84c-50 60 -63 131 -63 183c0 227 214 461 432 461c58 0 117 -17 166 -60l83 91c7 8 10 12 17 12
c5 0 16 -5 16 -16c0 -4 0 -6 -12 -18zM252 99l469 512c-4 6 -48 65 -142 65c-83 0 -170 -48 -227 -117c-100 -122 -122 -294 -122 -352c0 -19 0 -61 22 -108zM738 583l-468 -512c17 -19 58 -64 142 -64c65 0 159 28 240 130c77 99 109 261 109 336c0 38 -6 77 -23 110z" />
    <glyph glyph-name="suppress" horiz-adv-x="274" 
d="M343 357l-219 -72c-13 -5 -15 -5 -18 -5c-11 0 -14 9 -14 18c0 11 10 14 18 17l224 74c9 3 11 4 14 4c10 0 15 -10 15 -18c0 -9 -6 -13 -20 -18z" />
    <glyph glyph-name="exclam" unicode="!" horiz-adv-x="329" 
d="M381 647l-145 -439c-6 -17 -9 -17 -22 -17c-9 0 -19 0 -19 13c0 2 2 11 2 13l75 439c9 50 52 59 67 59c26 0 47 -17 47 -44c0 -9 -2 -16 -5 -24zM234 65c0 -34 -33 -65 -67 -65c-18 0 -46 11 -46 46c0 36 34 65 67 65c23 0 46 -16 46 -46z" />
    <glyph glyph-name="quotedblright" unicode="&#x201d;" horiz-adv-x="550" 
d="M306 597c-8 -6 -17 -14 -41 -14c-33 0 -47 22 -47 44c0 32 28 67 67 67s52 -31 52 -66c0 -123 -130 -239 -147 -239c-8 0 -14 7 -14 15c0 6 3 8 12 16c84 66 110 141 118 177zM499 597c-8 -6 -17 -14 -41 -14c-33 0 -47 22 -47 44c0 32 28 67 67 67s52 -31 52 -66
c0 -123 -130 -239 -147 -239c-8 0 -14 7 -14 15c0 6 3 8 12 16c84 66 110 141 118 177z" />
    <glyph glyph-name="numbersign" unicode="#" horiz-adv-x="877" 
d="M571 121l-152 -295c-6 -12 -10 -20 -24 -20c-13 0 -23 11 -23 23c0 5 1 6 8 20l139 272h-171l-152 -295c-6 -12 -10 -20 -24 -20c-13 0 -23 11 -23 23c0 5 1 6 8 20l139 272h-138c-14 0 -40 0 -40 23s21 23 35 23h168l85 166h-201c-14 0 -34 0 -34 23s24 23 39 23h220
l152 295c6 12 10 20 24 20c13 0 23 -11 23 -23c0 -5 -1 -6 -8 -20l-139 -272h171l152 295c6 12 10 20 24 20c13 0 23 -11 23 -23c0 -5 -1 -6 -8 -20l-139 -272h138c14 0 40 0 40 -23s-21 -23 -35 -23h-168l-85 -166h201c14 0 34 0 34 -23s-24 -23 -39 -23h-220zM544 167
l85 166h-172l-85 -166h172z" />
    <glyph glyph-name="sterling" unicode="&#xa3;" horiz-adv-x="815" 
d="M418 331l-40 -162c-6 -24 -16 -47 -30 -67c89 -53 108 -65 155 -65c63 0 116 44 135 98c5 14 6 16 21 16c6 0 18 0 18 -12c0 -36 -71 -149 -191 -149c-45 0 -79 17 -93 24c-36 18 -26 15 -78 45c-63 -62 -125 -69 -149 -69c-40 0 -73 17 -73 50c0 42 54 99 138 99
c22 0 43 -4 64 -11c7 18 11 33 27 99l26 104h-56c-15 0 -26 0 -26 12c0 21 11 21 28 21h63l40 163c21 84 111 179 214 179c76 0 127 -56 127 -138c0 -21 -1 -89 -54 -89c-22 0 -36 14 -36 34c0 1 0 46 52 49c0 20 0 116 -89 116c-57 0 -120 -55 -144 -150l-41 -164h85
c17 0 26 0 26 -13c0 -20 -12 -20 -29 -20h-90zM270 81c-23 10 -43 11 -56 11c-54 0 -77 -35 -77 -52c0 -13 11 -22 30 -22c15 0 59 5 103 63z" />
    <glyph glyph-name="percent" unicode="%" horiz-adv-x="877" 
d="M882 706l-680 -748c-7 -8 -13 -14 -23 -14s-23 8 -23 23c0 9 2 11 12 22l589 648v1c-52 -21 -92 -24 -118 -24c-50 0 -97 13 -139 41c0 -2 3 -28 3 -36c0 -124 -92 -272 -188 -272c-54 0 -104 46 -104 137c0 135 104 266 198 266c38 0 55 -21 69 -37
c27 -32 77 -71 162 -71c59 0 140 21 206 93c10 10 14 15 25 15c13 0 23 -11 23 -23c0 -8 -3 -11 -12 -21zM317 375c64 0 148 129 148 248c0 57 -20 99 -56 99c-91 0 -141 -199 -141 -267c0 -32 10 -80 49 -80zM840 216c0 -125 -92 -272 -188 -272c-57 0 -104 50 -104 137
c0 132 102 266 199 266c63 0 93 -64 93 -131zM654 -28c66 0 149 132 149 249c0 34 -11 98 -57 98c-90 0 -141 -199 -141 -268c0 -5 0 -79 49 -79z" />
    <glyph glyph-name="ampersand" unicode="&#x26;" horiz-adv-x="822" 
d="M720 466c34 -47 61 -97 61 -162c0 -93 -72 -325 -371 -325c-180 0 -278 97 -278 201c0 55 34 144 97 207c-11 27 -13 60 -13 68c0 124 110 260 224 260c69 0 116 -50 116 -117c0 -12 0 -77 -53 -77c-13 0 -35 6 -35 34c0 15 10 46 50 49c-2 59 -41 83 -78 83
c-89 0 -155 -138 -160 -259c37 24 75 34 104 34c51 0 70 -36 70 -64c0 -43 -43 -94 -103 -94c-27 0 -61 9 -89 34c-30 -58 -50 -132 -50 -174c0 -111 96 -157 200 -157c278 0 330 224 330 294c0 47 -15 90 -56 142c-85 -50 -129 -75 -129 -128c0 -13 2 -17 6 -24
c12 31 37 33 46 33c21 0 35 -15 35 -34c0 -15 -14 -48 -51 -48c-41 0 -74 30 -74 74c0 71 69 112 132 148c42 26 104 62 143 148c-19 3 -30 17 -30 33c0 25 22 49 49 49c17 0 35 -9 35 -33c0 -17 -25 -120 -128 -195zM289 377c7 -18 28 -45 63 -45c42 0 64 40 64 71
c0 22 -14 31 -32 31c-28 0 -60 -16 -95 -57z" />
    <glyph glyph-name="quoteright" unicode="&#x2019;" horiz-adv-x="329" 
d="M354 597c-8 -6 -17 -14 -41 -14c-33 0 -47 22 -47 44c0 32 28 67 67 67s52 -31 52 -66c0 -123 -130 -239 -147 -239c-8 0 -14 7 -14 15c0 6 3 8 12 16c84 66 110 141 118 177z" />
    <glyph glyph-name="parenleft" unicode="(" horiz-adv-x="438" 
d="M295 -238c0 -9 -7 -12 -14 -12c-16 0 -64 61 -91 128c-18 47 -31 111 -31 182c0 93 24 260 120 429c97 172 235 261 246 261c7 0 14 -3 14 -12c0 -2 0 -5 -2 -6c-1 -2 -2 -3 -18 -16c-232 -186 -304 -530 -304 -689c0 -112 28 -190 72 -251c7 -9 8 -10 8 -14z" />
    <glyph glyph-name="parenright" unicode=")" horiz-adv-x="438" 
d="M403 440c0 -93 -24 -260 -120 -429c-97 -172 -235 -261 -246 -261c-9 0 -14 4 -14 12c0 2 0 4 2 6c1 1 2 2 18 16c233 187 304 531 304 689c0 150 -51 221 -75 253c-4 6 -5 7 -5 12c0 8 5 12 14 12c16 0 64 -61 91 -128c18 -47 31 -111 31 -182z" />
    <glyph glyph-name="asterisk" unicode="*" 
d="M415 509l-26 -154c-3 -17 -12 -36 -35 -36c-18 0 -23 14 -23 20c0 5 3 12 4 16l52 154l-147 -90c-4 -3 -10 -6 -17 -6c-11 0 -22 7 -22 22c0 20 15 26 27 32l152 68l-117 65c-12 6 -16 12 -16 21c0 17 19 35 35 35c4 0 10 0 21 -10l96 -86l26 154c3 19 14 36 35 36
c14 0 23 -8 23 -20c0 -2 0 -4 -5 -17l-51 -154l147 91c9 6 15 6 18 6c17 0 21 -15 21 -22c0 -21 -18 -29 -27 -33l-152 -67l116 -64c17 -9 17 -16 17 -22c0 -19 -20 -35 -35 -35c-4 0 -10 0 -21 10z" />
    <glyph glyph-name="plus" unicode="+" horiz-adv-x="822" 
d="M491 227l-69 -279c-3 -10 -7 -27 -25 -27c-13 0 -23 10 -23 23c0 4 0 5 4 19l66 264h-264c-13 0 -35 0 -35 23s22 23 35 23h276l69 279c3 10 7 27 25 27c13 0 23 -10 23 -23c0 -4 0 -5 -4 -19l-66 -264h263c13 0 35 0 35 -23s-22 -23 -35 -23h-275z" />
    <glyph glyph-name="comma" unicode="," horiz-adv-x="329" 
d="M204 11c-8 -6 -15 -11 -37 -11c-35 0 -47 24 -47 44c0 29 25 67 68 67c32 0 49 -22 49 -63c0 -123 -127 -242 -145 -242c-8 0 -14 8 -14 15c0 5 3 8 9 12c26 22 93 78 117 178z" />
    <glyph glyph-name="hyphen" unicode="-" horiz-adv-x="384" 
d="M322 185h-207c-17 0 -27 0 -27 15c0 5 6 26 8 32c3 14 9 14 28 14h206c15 0 28 0 28 -14c0 -6 -6 -26 -8 -33c-4 -14 -9 -14 -28 -14z" />
    <glyph glyph-name="period" unicode="." horiz-adv-x="329" 
d="M234 66c0 -37 -35 -66 -67 -66c-24 0 -46 15 -46 45c0 38 36 66 67 66c23 0 46 -15 46 -45z" />
    <glyph glyph-name="slash" unicode="/" 
d="M639 707l-567 -939c-5 -9 -11 -18 -24 -18s-23 11 -23 23c0 1 0 7 8 20l567 939c5 9 11 18 24 18s23 -11 23 -23c0 -1 0 -7 -8 -20z" />
    <glyph glyph-name="zero" unicode="0" 
d="M585 488c0 -82 -38 -253 -92 -351c-47 -87 -126 -158 -224 -158c-142 0 -147 134 -147 175c0 82 41 259 94 353c60 106 138 158 223 158c146 0 146 -145 146 -177zM276 7c35 0 89 19 132 97c36 66 111 358 111 436c0 69 -44 97 -86 97c-109 0 -150 -129 -163 -169
c-10 -30 -79 -273 -79 -362c0 -65 37 -99 85 -99z" />
    <glyph glyph-name="one" unicode="1" 
d="M479 638l-141 -563c-2 -7 -4 -15 -4 -22c0 -13 4 -15 29 -18c14 -1 44 -2 46 -2h10c16 0 28 0 28 -14c0 -19 -14 -19 -21 -19c-23 0 -49 2 -72 3h-142c-7 0 -66 -3 -67 -3c-16 0 -17 13 -17 14c0 19 13 19 30 19h10c85 0 91 10 100 48l116 464c-43 -28 -83 -42 -117 -42
c-7 0 -18 2 -18 14c0 17 11 18 18 19c71 7 129 45 181 114c8 12 10 15 18 15c14 0 16 -11 16 -14s-1 -7 -3 -13z" />
    <glyph glyph-name="two" unicode="2" 
d="M168 81c5 1 18 1 19 1c31 0 69 -8 102 -15c27 -5 68 -14 100 -14c53 0 103 40 125 109c4 11 6 14 20 14c5 0 19 0 19 -12c0 -20 -55 -185 -173 -185c-42 0 -76 21 -100 36c-36 22 -64 39 -97 39c-38 0 -54 -54 -56 -60c-4 -13 -6 -15 -20 -15c-9 0 -19 0 -19 13
c0 17 44 163 200 246c118 62 217 136 217 286c0 85 -52 113 -98 113c-121 0 -203 -173 -203 -240c0 -21 7 -33 22 -33c61 0 100 99 100 128c0 15 -6 28 -8 30c-2 4 -5 10 -5 14c0 7 8 14 15 14c13 0 26 -34 26 -57c0 -42 -48 -157 -129 -157c-44 0 -58 37 -58 68
c0 71 92 261 243 261c93 0 171 -64 171 -173c0 -104 -56 -173 -248 -273c-37 -18 -115 -59 -165 -138z" />
    <glyph glyph-name="three" unicode="3" 
d="M317 351h28c170 0 182 177 182 196c0 63 -43 90 -93 90c-101 0 -192 -88 -192 -161c0 -20 7 -36 26 -36c25 0 59 23 59 56c0 10 -4 19 -9 28c-5 8 -5 10 -5 12c0 7 8 14 15 14c12 0 27 -29 27 -54c0 -47 -45 -84 -89 -84c-41 0 -62 33 -62 67c0 83 103 186 232 186
c100 0 157 -65 157 -138c0 -74 -62 -162 -162 -196c26 -13 79 -49 79 -130c0 -127 -138 -222 -265 -222c-92 0 -146 61 -146 130c0 27 8 76 53 76c25 0 36 -17 36 -33c0 -9 -5 -46 -50 -50c4 -69 59 -95 107 -95c132 0 189 133 189 225c0 74 -51 86 -83 86h-33
c-17 0 -28 0 -28 13c0 20 11 20 27 20z" />
    <glyph glyph-name="four" unicode="4" 
d="M440 199l-45 -181c5 -1 13 -1 17 -1c30 0 58 9 67 12c10 4 12 4 14 4c10 0 16 -14 16 -18c0 -18 -72 -31 -100 -31c-7 0 -16 0 -23 1l-27 -112c-12 -45 -17 -67 -49 -67c-17 0 -30 12 -30 28c0 7 5 25 41 167c-61 22 -63 22 -64 22c-37 12 -56 12 -79 12
c-28 0 -64 0 -84 -15c-10 -8 -26 -20 -32 -20c-8 0 -16 11 -16 18c0 17 29 31 42 38c3 2 38 28 89 82c126 135 198 310 245 489c3 9 10 38 42 38c9 0 29 -5 29 -28c0 -9 -33 -170 -153 -355c-69 -107 -142 -174 -186 -214h35c42 0 60 -6 140 -34l32 130c15 58 20 78 52 78
c11 0 30 -7 30 -29c0 -2 -1 -7 -3 -14z" />
    <glyph glyph-name="five" unicode="5" 
d="M304 569l-48 -193c34 24 76 43 130 43c95 0 143 -77 143 -160c0 -150 -140 -280 -274 -280c-94 0 -144 68 -144 142c0 23 4 86 57 86c20 0 37 -11 37 -35c0 -15 -9 -51 -56 -52c1 -66 43 -111 106 -111c40 0 103 23 148 99c32 53 52 153 52 190c0 36 -13 93 -71 93
c-78 0 -130 -53 -138 -61c-16 -16 -17 -17 -25 -17c-12 0 -16 9 -16 14c0 4 2 11 3 15l76 304c3 10 5 19 14 19c3 0 5 0 12 -5c38 -18 79 -27 123 -27c35 0 81 6 137 27c8 4 10 5 13 5c7 0 12 -5 12 -13c0 -10 -6 -15 -25 -29c-28 -22 -92 -67 -182 -67c-14 0 -45 0 -84 13z
" />
    <glyph glyph-name="six" unicode="6" 
d="M240 341c47 61 97 85 147 85c122 0 152 -115 152 -161c0 -144 -129 -286 -266 -286c-119 0 -148 105 -148 188c0 16 4 205 114 348c80 103 174 150 253 150c57 0 105 -24 105 -81c0 -46 -24 -66 -52 -66c-22 0 -35 13 -35 33c0 8 3 44 47 49c-6 24 -25 39 -66 39
c-16 0 -175 -2 -251 -298zM275 9c78 0 124 74 134 94c27 50 53 169 53 203c0 11 0 92 -80 92c-58 0 -106 -45 -133 -89c-47 -77 -53 -173 -53 -200c0 -74 38 -100 79 -100z" />
    <glyph glyph-name="seven" unicode="7" 
d="M149 447l99 202c7 14 8 16 22 16c8 0 19 0 19 -12c0 -4 -13 -31 -21 -47c56 48 106 59 138 59c42 0 49 -28 56 -67c6 -35 11 -46 30 -46c51 0 97 59 128 101c8 11 9 12 22 12c8 0 19 0 19 -12c0 -3 0 -5 -16 -27c-126 -179 -210 -384 -265 -596c-4 -15 -13 -51 -54 -51
c-21 0 -37 14 -37 35c0 8 23 116 102 275c47 93 90 159 145 244c-14 -6 -22 -9 -44 -9c-31 0 -45 18 -61 43c-17 24 -27 24 -38 24c-66 0 -152 -54 -204 -148c-11 -18 -11 -20 -13 -21c-3 -3 -8 -3 -14 -3c-8 0 -19 0 -19 12c0 5 1 6 6 16z" />
    <glyph glyph-name="eight" unicode="8" 
d="M421 358c24 -20 64 -52 71 -60c6 -7 33 -38 33 -94c0 -119 -126 -225 -254 -225c-86 0 -169 47 -169 139c0 106 95 177 195 222c-51 40 -80 64 -80 126c0 106 109 199 220 199c84 0 147 -49 147 -120c0 -39 -19 -122 -163 -187zM306 446l89 -68c73 33 139 99 139 170
c0 53 -39 91 -99 91c-79 0 -159 -63 -159 -131c0 -39 28 -61 30 -62zM273 9c95 0 187 77 187 158c0 47 -17 60 -83 111c-18 14 -51 40 -54 40c-15 0 -165 -83 -165 -202c0 -60 45 -107 115 -107z" />
    <glyph glyph-name="nine" unicode="9" 
d="M468 304c-32 -42 -81 -85 -147 -85c-115 0 -151 103 -151 161c0 155 137 285 270 285c88 0 144 -62 144 -184c0 -35 -12 -211 -108 -345c-72 -98 -160 -157 -248 -157c-57 0 -117 20 -117 82c0 43 22 65 52 65c22 0 35 -13 35 -33c0 -8 -3 -43 -46 -49
c14 -31 57 -35 78 -35c55 0 179 48 238 295zM327 247c63 0 113 53 140 101c46 86 47 193 47 194c0 53 -23 97 -74 97c-73 0 -119 -62 -132 -81c-38 -60 -61 -185 -61 -218c0 -49 20 -93 80 -93z" />
    <glyph glyph-name="colon" unicode=":" horiz-adv-x="329" 
d="M314 386c0 -37 -35 -66 -67 -66c-24 0 -46 15 -46 45c0 38 36 66 67 66c23 0 46 -15 46 -45zM234 66c0 -37 -35 -66 -67 -66c-24 0 -46 15 -46 45c0 38 36 66 67 66c23 0 46 -15 46 -45z" />
    <glyph glyph-name="semicolon" unicode=";" horiz-adv-x="329" 
d="M314 386c0 -37 -35 -66 -67 -66c-24 0 -46 15 -46 45c0 38 36 66 67 66c23 0 46 -15 46 -45zM195 6c-8 -4 -12 -6 -28 -6c-35 0 -47 24 -47 44c0 29 25 67 68 67s43 -44 43 -55c0 -122 -120 -250 -139 -250c-8 0 -14 8 -14 15c0 4 1 5 16 19c28 26 79 83 101 166z" />
    <glyph glyph-name="exclamdown" unicode="&#xa1;" horiz-adv-x="329" 
d="M331 454c0 -36 -34 -65 -67 -65c-23 0 -46 16 -46 46c0 34 33 65 67 65c18 0 46 -11 46 -46zM71 -147l145 439c6 17 9 17 22 17c9 0 19 0 19 -13c0 -2 -2 -11 -2 -13l-75 -439c-9 -50 -52 -59 -67 -59c-26 0 -47 17 -47 44c0 9 2 16 5 24z" />
    <glyph glyph-name="equal" unicode="=" horiz-adv-x="822" 
d="M793 333h-588c-14 0 -34 0 -34 23s24 23 39 23h578c14 0 40 0 40 -23s-21 -23 -35 -23zM736 121h-578c-14 0 -40 0 -40 23s21 23 35 23h588c14 0 34 0 34 -23s-24 -23 -39 -23z" />
    <glyph glyph-name="questiondown" unicode="&#xbf;" 
d="M441 454c0 -36 -34 -65 -67 -65c-23 0 -46 16 -46 46c0 34 33 65 67 65c18 0 46 -11 46 -46zM420 -14c-17 2 -32 11 -32 34c0 26 23 49 49 49c22 0 36 -14 36 -34c0 -48 -91 -250 -249 -250c-74 0 -132 48 -132 128c0 94 73 148 108 174l124 92c23 17 47 34 47 71
c0 31 -21 31 -27 31c-22 0 -62 -17 -80 -68c-4 -11 -7 -12 -20 -12c-6 0 -18 0 -18 12c0 25 45 96 120 96c50 0 66 -41 66 -72c0 -65 -40 -94 -90 -130l-110 -82c-26 -19 -79 -58 -79 -125c0 -62 47 -87 91 -87c85 0 160 81 196 173z" />
    <glyph glyph-name="question" unicode="?" 
d="M252 514c17 -2 32 -11 32 -34c0 -26 -23 -49 -49 -49c-22 0 -36 14 -36 34c0 48 91 250 249 250c74 0 132 -48 132 -128c0 -94 -73 -148 -108 -174l-124 -92c-23 -17 -47 -34 -47 -71c0 -31 21 -31 27 -31c22 0 62 17 80 68c4 11 7 12 20 12c6 0 18 0 18 -12
c0 -25 -45 -96 -120 -96c-50 0 -66 41 -66 72c0 65 40 94 90 130l110 82c26 19 79 58 79 125c0 62 -47 87 -91 87c-85 0 -160 -81 -196 -173zM344 65c0 -34 -33 -65 -67 -65c-18 0 -46 11 -46 46c0 36 34 65 67 65c23 0 46 -16 46 -46z" />
    <glyph glyph-name="at" unicode="@" horiz-adv-x="822" 
d="M722 457l-65 -257l-2 -20c0 -25 12 -25 18 -25c93 0 127 247 127 285c0 133 -84 236 -218 236c-189 0 -387 -206 -387 -422c0 -127 75 -236 222 -236c71 0 174 15 278 59c15 7 17 7 34 7c18 0 28 0 28 -12c0 -5 -4 -9 -8 -11c-41 -19 -180 -71 -332 -71
c-177 0 -260 130 -260 266c0 227 212 448 426 448c140 0 254 -98 254 -267c0 -59 -39 -310 -169 -310c-40 0 -76 22 -80 64c-23 -22 -78 -64 -143 -64c-93 0 -152 72 -152 163c0 141 129 277 255 277c63 0 106 -38 124 -84h24c17 0 28 0 28 -13zM606 276l38 149
c1 3 2 11 2 13c0 19 -21 101 -97 101c-92 0 -189 -139 -189 -262c0 -57 25 -122 87 -122c34 0 70 18 99 42c26 21 52 46 60 79z" />
    <glyph glyph-name="A" unicode="A" horiz-adv-x="796" 
d="M200 118l343 575c11 18 19 21 33 21c18 0 21 -5 23 -27l60 -621c2 -24 3 -33 52 -33c16 0 28 0 28 -14c0 -19 -14 -19 -19 -19c-11 0 -18 3 -105 3c-37 0 -76 -3 -111 -3c-13 0 -16 10 -16 14c0 19 12 19 27 19c61 1 62 23 60 43l-15 155h-253l-50 -84
c-16 -27 -40 -67 -40 -83c0 -21 16 -29 37 -31c6 0 18 -1 18 -14c0 -19 -15 -19 -20 -19s-28 3 -92 3c-67 0 -74 -3 -82 -3c-6 0 -14 4 -14 14c0 17 10 18 22 19c32 3 71 13 114 85zM327 264h230l-32 330z" />
    <glyph glyph-name="B" unicode="B" horiz-adv-x="754" 
d="M187 76l134 537c4 14 4 16 4 22c0 15 -28 15 -55 15c-17 0 -29 0 -29 14c0 19 12 19 29 19h324c110 0 182 -59 182 -138c0 -93 -101 -168 -204 -188c88 -10 149 -66 149 -140c0 -103 -123 -217 -270 -217h-345c-16 0 -28 0 -28 14c0 19 11 19 33 19c61 0 67 9 76 43z
M336 369h147c122 0 207 97 207 178c0 12 -2 103 -110 103h-136c-31 0 -38 0 -47 -35zM283 33h145c112 0 204 94 204 193c0 15 -5 115 -114 115h-189l-70 -279c-3 -13 -3 -16 -4 -27c9 -2 19 -2 28 -2z" />
    <glyph glyph-name="C" unicode="C" horiz-adv-x="768" 
d="M854 678l-60 -241c-5 -20 -9 -20 -22 -20c-6 0 -19 0 -19 13c0 3 4 26 4 52c0 103 -50 189 -155 189c-85 0 -182 -49 -250 -135c-84 -108 -108 -256 -108 -318c0 -146 95 -206 188 -206c87 0 223 62 275 231c2 10 11 10 18 10c9 0 19 0 19 -13c0 -5 -10 -47 -40 -95
c-59 -93 -168 -166 -283 -166c-148 0 -265 104 -265 273c0 232 222 452 439 452c63 0 122 -22 165 -87l65 76c9 11 14 11 18 11c10 0 14 -7 14 -12c0 -3 -2 -11 -3 -14z" />
    <glyph glyph-name="D" unicode="D" horiz-adv-x="809" 
d="M185 76l134 537c4 14 4 16 4 22c0 15 -28 15 -55 15c-17 0 -29 0 -29 14c0 19 12 19 29 19h325c139 0 229 -105 229 -251c0 -226 -201 -432 -399 -432h-319c-16 0 -28 0 -28 14c0 19 11 19 33 19c61 0 67 9 76 43zM399 615l-138 -553c-3 -13 -3 -16 -4 -27
c9 -2 19 -2 28 -2h122c99 0 188 54 243 135c63 92 89 241 89 298c0 127 -81 184 -178 184h-115c-31 0 -38 0 -47 -35z" />
    <glyph glyph-name="E" unicode="E" horiz-adv-x="727" 
d="M727 229l-91 -211c-8 -17 -9 -18 -31 -18h-502c-16 0 -28 0 -28 14c0 19 11 19 33 19c61 0 67 9 76 43l133 533c2 7 4 15 4 22c0 16 -24 16 -55 16c-19 0 -29 0 -29 15c0 18 12 18 29 18h488c15 0 28 0 28 -14l-1 -14l-20 -175c-2 -17 -3 -24 -20 -24c-7 0 -19 0 -19 16
c0 5 1 10 1 15c3 19 5 38 5 58c0 78 -29 105 -141 105h-140c-31 0 -38 0 -47 -36l-60 -241h90c79 0 103 16 123 92c5 21 6 25 22 25c6 0 19 0 19 -15c0 -3 -1 -5 -4 -18l-53 -213c-4 -16 -6 -21 -21 -21c-5 0 -19 0 -19 14c0 3 1 8 3 14c1 4 7 29 7 47c0 26 -7 42 -78 42
h-97l-69 -275c-3 -13 -3 -16 -4 -27c9 -2 19 -2 28 -2h142c162 0 200 65 260 204c10 21 10 23 24 23c5 0 19 0 19 -14c0 -5 -3 -13 -5 -17z" />
    <glyph glyph-name="F" unicode="F" horiz-adv-x="700" 
d="M328 324l-62 -251c-4 -15 -4 -17 -4 -21c0 -14 5 -14 28 -17c13 -1 30 -2 43 -2h7c15 0 29 0 29 -14c0 -19 -15 -19 -21 -19c-3 0 -46 3 -135 3h-61c-20 0 -43 -3 -62 -3c-9 0 -15 6 -15 14c0 19 11 19 33 19c61 0 67 9 76 43l133 533c2 7 4 15 4 22c0 16 -24 16 -55 16
c-19 0 -29 0 -29 15c0 18 12 18 29 18h475c15 0 28 0 28 -14l-1 -14l-20 -175c-2 -17 -3 -24 -20 -24c-7 0 -19 0 -19 16c0 5 2 18 3 24c1 12 3 39 3 51c0 75 -27 103 -136 103h-132c-31 0 -38 0 -47 -36l-63 -254h87c83 0 102 20 122 96c4 16 5 21 21 21c4 0 19 0 19 -14
c0 -4 -2 -11 -3 -15l-54 -217c-5 -20 -10 -21 -22 -21c-3 0 -19 0 -19 14c0 2 0 3 4 15c3 13 7 34 7 47c0 27 -9 41 -77 41h-94z" />
    <glyph glyph-name="G" unicode="G" horiz-adv-x="830" 
d="M854 678l-60 -241c-5 -20 -9 -20 -22 -20c-6 0 -19 0 -19 13c0 3 4 26 4 52c0 103 -50 189 -155 189c-85 0 -182 -49 -250 -135c-83 -107 -108 -255 -108 -317c0 -140 90 -207 194 -207c59 0 151 22 187 90c8 16 31 115 31 121c0 13 -4 15 -29 18c-14 1 -44 2 -46 2h-10
c-16 0 -28 0 -28 14c0 19 14 19 22 19c42 0 88 -3 132 -3c94 0 97 3 106 3c10 0 15 -8 15 -14c0 -12 -7 -19 -18 -19c-30 0 -47 -1 -55 -14c-6 -9 -14 -41 -23 -78c-5 -19 -33 -137 -37 -144c-3 -7 -9 -7 -10 -7c-13 0 -33 38 -39 55c-68 -67 -166 -76 -213 -76
c-156 0 -267 110 -267 273c0 232 222 452 439 452c63 0 122 -22 165 -87l65 76c9 11 14 11 18 11c10 0 14 -7 14 -12c0 -3 -2 -11 -3 -14z" />
    <glyph glyph-name="H" unicode="H" horiz-adv-x="796" 
d="M781 604l-133 -532c-2 -7 -4 -15 -4 -23c0 -16 24 -16 55 -16c17 0 29 0 29 -14c0 -19 -14 -19 -20 -19c-5 0 -33 3 -118 3h-60c-8 -1 -52 -3 -57 -3c-9 0 -15 6 -15 14c0 19 12 19 27 19c66 0 73 6 82 43l65 263h-300l-67 -268c-4 -15 -4 -21 -4 -22
c0 -16 24 -16 55 -16c17 0 29 0 29 -14c0 -19 -14 -19 -20 -19c-5 0 -33 3 -118 3h-60c-8 -1 -52 -3 -57 -3c-9 0 -15 6 -15 14c0 19 11 19 33 19c61 0 67 9 76 43l134 537c4 14 4 16 4 22c0 15 -28 15 -55 15c-17 0 -29 0 -29 14c0 19 14 19 20 19c2 0 51 -3 58 -3h119
c18 1 40 3 57 3c12 0 16 -9 16 -14c0 -19 -11 -19 -33 -19c-62 0 -68 -9 -76 -43l-58 -235h300l60 242c1 6 4 15 4 21c0 15 -28 15 -55 15c-17 0 -30 0 -30 14c0 19 15 19 21 19c2 0 51 -3 58 -3h119c18 1 40 3 57 3c12 0 16 -9 16 -14c0 -19 -12 -19 -31 -19
c-64 0 -69 -8 -79 -46z" />
    <glyph glyph-name="I" unicode="I" horiz-adv-x="412" 
d="M399 607l-134 -536c-4 -14 -4 -16 -4 -22c0 -16 28 -16 59 -16c18 0 30 0 30 -14c0 -19 -14 -19 -21 -19c-12 0 -46 2 -58 3h-128c-16 -1 -41 -3 -57 -3c-13 0 -16 10 -16 14c0 19 12 19 30 19c69 0 75 7 84 44l135 540c1 4 3 14 3 18c0 15 -33 15 -59 15
c-19 0 -30 0 -30 14c0 19 13 19 20 19s32 -3 123 -3h64c12 1 45 3 57 3c14 0 15 -12 15 -14c0 -19 -11 -19 -32 -19c-68 0 -73 -9 -81 -43z" />
    <glyph glyph-name="J" unicode="J" horiz-adv-x="562" 
d="M562 608l-117 -471c-19 -76 -108 -158 -210 -158c-76 0 -128 46 -128 109c0 68 50 74 59 74c26 0 42 -17 42 -39c0 -10 -8 -56 -61 -57c13 -45 56 -59 85 -59c56 0 116 63 136 142l116 465c0 1 3 11 3 17c0 13 -8 14 -31 17c-18 2 -26 2 -43 2h-9c-15 0 -29 0 -29 14
c0 19 14 19 22 19c42 0 87 -3 130 -3c91 0 97 3 106 3c11 0 14 -10 14 -14c0 -19 -12 -19 -27 -19c-43 0 -49 -6 -58 -42z" />
    <glyph glyph-name="K" unicode="K" horiz-adv-x="823" 
d="M529 413l150 -341c15 -35 30 -38 62 -39c4 0 18 -1 18 -14c0 -19 -15 -19 -19 -19c-13 0 -8 3 -92 3c-35 0 -72 -3 -106 -3c-9 0 -15 6 -15 14c0 18 13 19 24 19c20 1 43 5 43 29c0 5 0 7 -6 19l-124 282l-156 -122l-38 -151c-3 -14 -9 -36 -9 -41c0 -16 24 -16 55 -16
c17 0 29 0 29 -14c0 -19 -14 -19 -20 -19c-5 0 -33 3 -118 3h-60c-8 -1 -52 -3 -57 -3c-9 0 -15 6 -15 14c0 19 11 19 33 19c61 0 67 9 76 43l134 537c4 14 4 16 4 22c0 15 -28 15 -55 15c-17 0 -29 0 -29 14c0 19 14 19 20 19c2 0 51 -3 58 -3h119c18 1 40 3 57 3
c12 0 16 -9 16 -14c0 -19 -11 -19 -33 -19c-62 0 -68 -9 -76 -43l-78 -313l373 291c8 7 9 8 11 9l6 6c4 3 22 19 22 35c0 9 -7 14 -22 15c-2 0 -16 1 -16 14c0 19 15 19 21 19c32 0 68 -3 102 -3h40c7 0 35 3 36 3c9 0 13 -8 13 -14c0 -17 -11 -18 -19 -19
c-63 -7 -137 -64 -165 -86z" />
    <glyph glyph-name="L" unicode="L" horiz-adv-x="672" 
d="M398 603l-135 -541c-3 -13 -3 -16 -4 -27c9 -2 19 -2 28 -2h95c163 0 206 114 240 203c8 21 9 24 23 24c9 0 19 -2 19 -15c0 -1 0 -5 -5 -18l-77 -209c-7 -17 -8 -18 -31 -18h-448c-16 0 -28 0 -28 14c0 19 11 19 33 19c61 0 67 9 76 43l134 537c4 14 4 16 4 22
c0 15 -28 15 -55 15c-17 0 -29 0 -29 14c0 19 14 19 20 19c8 0 24 -3 124 -3c44 0 90 3 133 3c9 0 16 -4 16 -14c0 -19 -11 -19 -29 -19h-8c-81 0 -87 -10 -96 -47z" />
    <glyph glyph-name="M" unicode="M" horiz-adv-x="961" 
d="M940 604l-133 -532c-2 -7 -4 -15 -4 -23c0 -16 24 -16 55 -16c17 0 29 0 29 -14c0 -19 -14 -19 -20 -19c-5 0 -30 3 -114 3h-58c-15 -1 -38 -3 -53 -3c-9 0 -15 6 -15 14c0 19 12 19 27 19c66 0 73 6 82 43l138 556h-1l-380 -611c-6 -10 -13 -21 -30 -21
c-18 0 -19 8 -21 26l-74 598h-1l-131 -526c-1 -3 -4 -16 -4 -24c0 -29 18 -40 59 -41c5 0 18 -1 18 -14c0 -19 -15 -19 -19 -19c-10 0 -21 3 -99 3c-31 0 -66 -3 -96 -3c-9 0 -15 6 -15 14c0 18 13 19 19 19c71 3 87 34 97 75l127 505c4 14 4 16 4 22c0 15 -28 15 -55 15
c-17 0 -29 0 -29 14c0 19 12 19 29 19h129c28 0 28 -2 31 -26l70 -566l356 572c12 20 18 20 40 20h124c15 0 28 0 28 -14c0 -19 -12 -19 -31 -19c-64 0 -69 -8 -79 -46z" />
    <glyph glyph-name="N" unicode="N" horiz-adv-x="796" 
d="M774 576l-139 -557c-4 -15 -5 -19 -22 -19c-16 0 -17 2 -23 18l-233 585l-126 -505c-1 -3 -4 -16 -4 -24c0 -29 18 -40 59 -41c5 0 18 -1 18 -14c0 -19 -15 -19 -19 -19c-10 0 -21 3 -99 3c-31 0 -66 -3 -96 -3c-9 0 -15 6 -15 14c0 18 13 19 19 19c71 3 87 34 97 75
l135 536c-21 6 -51 6 -59 6c-17 0 -29 0 -29 14c0 19 12 19 29 19h117c22 0 23 -1 31 -19l209 -524l111 446c0 2 4 15 4 24c0 33 -28 39 -59 40c-5 0 -19 1 -19 14c0 19 15 19 20 19c7 0 23 -3 99 -3c72 0 90 3 96 3c10 0 15 -8 15 -14c0 -12 -6 -18 -17 -19
c-33 -2 -83 -4 -100 -74z" />
    <glyph glyph-name="O" unicode="O" horiz-adv-x="822" 
d="M836 436c0 -237 -219 -457 -430 -457c-155 0 -252 116 -252 264c0 227 214 461 432 461c143 0 250 -104 250 -268zM414 12c195 0 336 268 336 459c0 135 -79 202 -172 202c-85 0 -183 -58 -246 -158c-71 -111 -86 -240 -86 -294c0 -142 79 -209 168 -209z" />
    <glyph glyph-name="P" unicode="P" horiz-adv-x="727" 
d="M326 312l-60 -241c-4 -15 -4 -21 -4 -22c0 -16 24 -16 55 -16c17 0 29 0 29 -14c0 -19 -14 -19 -20 -19c-5 0 -33 3 -118 3h-60c-8 -1 -52 -3 -57 -3c-9 0 -15 6 -15 14c0 19 13 19 28 19c65 0 72 6 82 46l133 535c1 6 4 15 4 21c0 15 -28 15 -55 15c-17 0 -29 0 -29 14
c0 19 12 19 29 19h313c119 0 191 -69 191 -151c0 -113 -138 -220 -277 -220h-169zM399 615l-68 -273h141c36 0 106 5 157 59c37 40 53 124 53 154c0 72 -60 95 -133 95h-103c-31 0 -38 0 -47 -35z" />
    <glyph glyph-name="Q" unicode="Q" horiz-adv-x="822" 
d="M537 6c7 -87 26 -106 64 -106c29 0 87 19 115 101c1 4 4 13 14 13c7 0 14 -6 14 -14c0 -11 -46 -194 -166 -194c-71 0 -85 54 -85 107c0 20 3 53 6 80c-46 -13 -79 -14 -93 -14c-155 0 -252 116 -252 264c0 227 214 461 432 461c143 0 250 -104 250 -268
s-111 -351 -299 -430zM346 23c-2 7 -4 12 -4 25c0 49 46 103 104 103c65 0 82 -55 88 -106c176 101 216 333 216 419c0 141 -80 209 -172 209c-188 0 -337 -247 -337 -456c0 -135 71 -179 105 -194zM413 10c44 0 81 16 82 17c6 3 7 4 7 19c0 56 -18 77 -56 77
c-41 0 -76 -41 -76 -75c0 -38 32 -38 43 -38z" />
    <glyph glyph-name="R" unicode="R" horiz-adv-x="782" 
d="M549 339c60 -24 86 -66 86 -115c0 -14 -8 -74 -10 -92c-4 -30 -6 -55 -6 -70c0 -33 5 -55 36 -55c37 0 66 41 79 84c5 15 6 19 21 19c4 0 19 0 19 -14c0 -15 -35 -117 -122 -117c-54 0 -127 24 -127 108c0 20 10 60 18 89c5 21 12 49 12 64c0 44 -29 88 -107 88h-121
l-64 -257c-4 -15 -4 -21 -4 -22c0 -16 24 -16 55 -16c17 0 29 0 29 -14c0 -19 -14 -19 -20 -19c-13 0 -44 2 -57 3h-118c-18 -1 -39 -3 -57 -3c-9 0 -15 6 -15 14c0 19 11 19 33 19c61 0 67 9 76 43l134 537c4 14 4 16 4 22c0 15 -28 15 -55 15c-17 0 -29 0 -29 14
c0 19 12 19 29 19h274c131 0 218 -67 218 -150c0 -79 -82 -160 -211 -194zM449 356c18 0 92 0 149 42c53 39 70 112 70 153c0 71 -56 99 -145 99h-77c-31 0 -38 0 -47 -35l-64 -259h114z" />
    <glyph glyph-name="S" unicode="S" horiz-adv-x="603" 
d="M662 678l-51 -202c-5 -18 -5 -20 -21 -20c-7 0 -19 0 -19 13c0 6 5 26 5 59c0 77 -29 146 -130 146c-92 0 -175 -86 -175 -167c0 -44 24 -80 66 -93c8 -2 56 -14 60 -16c89 -23 107 -28 134 -56c26 -29 40 -68 40 -110c0 -124 -116 -253 -248 -253c-62 0 -124 16 -166 69
l-46 -57c-7 -9 -9 -12 -17 -12c-6 0 -14 2 -14 13c0 3 1 5 4 18l49 197c5 19 8 20 22 20c5 0 18 0 18 -12c0 -3 -1 -10 -1 -11c-4 -14 -7 -38 -7 -53c0 -101 77 -139 160 -139c95 0 180 94 180 185c0 58 -28 89 -77 103c-32 8 -63 16 -94 25c-37 9 -129 34 -129 147
c0 114 114 232 242 232c43 0 102 -10 142 -68l45 56c9 11 10 12 17 12c10 0 14 -7 14 -12c0 -3 -2 -11 -3 -14z" />
    <glyph glyph-name="T" unicode="T" horiz-adv-x="768" 
d="M576 607l-134 -537c0 -1 -3 -11 -3 -17c0 -13 7 -15 31 -18c17 -1 33 -2 50 -2h13c16 0 28 0 28 -14c0 -19 -14 -19 -21 -19c-39 0 -81 3 -121 3h-73c-39 0 -78 -3 -116 -3c-15 0 -17 10 -17 14c0 19 12 19 30 19h13c91 0 97 11 107 51l131 525c4 15 4 18 5 32
c-15 2 -40 2 -60 2c-134 0 -164 -16 -215 -160c-9 -27 -9 -29 -12 -31c-4 -3 -10 -3 -14 -3c-5 0 -19 0 -19 14c0 2 0 4 5 17l61 178c6 18 9 18 31 18h545c15 0 28 0 28 -14l-1 -14l-28 -178c-2 -14 -3 -21 -20 -21c-21 0 -19 14 -18 16c1 1 0 4 0 5v5l8 65c1 9 2 16 2 26
c0 72 -39 77 -137 77c-19 0 -50 0 -57 -2c-7 -1 -14 -3 -22 -34z" />
    <glyph glyph-name="U" unicode="U" horiz-adv-x="796" 
d="M774 576l-89 -359c-26 -107 -142 -238 -279 -238c-99 0 -191 66 -191 191c0 18 0 31 7 59l96 384c4 14 4 16 4 22c0 15 -28 15 -55 15c-17 0 -29 0 -29 14c0 19 14 19 20 19c2 0 51 -3 58 -3h119c18 1 40 3 57 3c12 0 16 -9 16 -14c0 -19 -11 -19 -33 -19
c-62 0 -68 -9 -76 -43l-97 -389c-5 -21 -10 -50 -10 -76c0 -100 65 -130 117 -130c102 0 210 96 240 217l89 357c0 2 4 15 4 24c0 33 -28 39 -59 40c-5 0 -19 1 -19 14c0 19 15 19 20 19c7 0 22 -3 97 -3c67 0 92 3 95 3c10 0 15 -8 15 -14c0 -12 -6 -18 -17 -19
c-33 -2 -83 -4 -100 -74z" />
    <glyph glyph-name="V" unicode="V" horiz-adv-x="796" 
d="M780 564l-356 -566c-7 -12 -12 -19 -32 -19s-20 6 -23 26l-79 613c-3 24 -4 32 -51 32c-13 0 -26 0 -26 14c0 19 15 19 20 19c9 0 16 -3 102 -3c36 0 75 3 110 3c9 0 15 -6 15 -14c0 -19 -12 -19 -27 -19c-51 -1 -61 -16 -58 -42l67 -518l306 489c8 13 17 27 17 42
c0 26 -27 28 -38 29c-3 0 -15 1 -15 14c0 19 14 19 19 19s29 -3 91 -3c71 0 68 3 79 3c8 0 14 -6 14 -14c0 -17 -11 -18 -19 -19c-31 -3 -68 -10 -116 -86z" />
    <glyph glyph-name="W" unicode="W" horiz-adv-x="1070" 
d="M1067 566l-318 -565c-12 -22 -22 -22 -33 -22c-10 0 -20 1 -21 18c0 3 -1 6 -1 8l-32 504l-287 -509c-12 -21 -23 -21 -32 -21c-20 0 -21 7 -22 28l-40 611c-2 25 -2 32 -43 32c-14 0 -26 0 -26 14c0 19 15 19 19 19c12 0 12 -3 99 -3c36 0 74 3 108 3c8 0 15 -5 15 -14
c0 -19 -12 -19 -22 -19c-69 -1 -68 -25 -67 -45l32 -495l262 463l-4 57c-2 13 -6 20 -43 20c-13 0 -25 0 -25 14c0 19 14 19 19 19c11 0 12 -3 98 -3c36 0 74 3 108 3c13 0 16 -10 16 -14c0 -19 -13 -19 -24 -19c-68 -1 -66 -26 -65 -45l32 -495l264 467c6 10 13 24 13 38
c0 26 -25 34 -47 35c-5 0 -18 1 -18 14c0 19 15 19 20 19c6 0 31 -3 96 -3c77 0 62 3 79 3c3 0 13 -3 13 -14c0 -17 -9 -18 -21 -19c-20 -2 -59 -7 -102 -84z" />
    <glyph glyph-name="X" unicode="X" horiz-adv-x="796" 
d="M519 378l138 -317c8 -19 18 -28 62 -28c16 0 27 0 27 -14c0 -19 -14 -19 -19 -19c-12 0 -15 3 -104 3c-37 0 -76 -3 -111 -3c-13 0 -16 10 -16 14c0 18 13 19 19 19c31 2 50 19 50 28c0 2 0 3 -4 12l-104 238l-196 -209c-5 -5 -8 -10 -15 -19c-5 -8 -9 -16 -9 -25
c0 -18 13 -24 28 -25c3 0 15 -2 15 -14c0 -19 -14 -19 -19 -19c-6 0 -31 3 -101 3c-75 0 -79 -3 -89 -3c-7 0 -14 6 -14 14c0 17 11 18 21 19c21 2 75 6 134 68l231 244l-120 276c-9 22 -19 29 -66 29c-10 0 -24 0 -24 14c0 19 15 19 20 19c9 0 18 -3 104 -3
c71 0 109 3 111 3c8 0 15 -5 15 -14c0 -18 -11 -18 -19 -19c-33 -3 -50 -20 -50 -28c0 -1 1 -4 4 -11l87 -199l158 168c5 5 6 7 9 13l4 4c7 8 12 18 12 28c0 17 -14 24 -28 25c-4 0 -16 2 -16 14c0 19 15 19 20 19c7 0 28 -3 100 -3c73 0 82 3 89 3c10 0 15 -8 15 -14
c0 -17 -11 -18 -23 -19c-27 -2 -79 -8 -152 -86z" />
    <glyph glyph-name="Y" unicode="Y" horiz-adv-x="796" 
d="M772 575l-267 -302c-3 -13 -26 -101 -43 -172c-9 -34 -12 -46 -12 -54c0 -14 32 -14 55 -14c18 0 30 0 30 -14c0 -19 -15 -19 -20 -19s-34 3 -117 3h-58c-18 -1 -39 -3 -57 -3c-9 0 -15 6 -15 14c0 19 13 19 26 19c71 1 72 2 89 67c4 18 42 169 42 172c0 2 0 4 -4 15
l-127 334c-7 20 -11 29 -63 29c-10 0 -24 0 -24 14c0 19 15 19 20 19c9 0 17 -3 105 -3c37 0 77 3 112 3c10 0 16 -7 16 -14c0 -19 -13 -19 -24 -19c-10 0 -51 -1 -51 -21c0 -5 3 -13 5 -17l111 -292l229 260c7 7 7 9 8 10c3 4 3 6 6 9c15 17 16 31 16 32
c0 15 -13 18 -28 19c-2 0 -16 1 -16 14c0 19 15 19 20 19s29 -3 91 -3c71 0 68 3 80 3c6 0 14 -5 14 -14c0 -17 -11 -18 -21 -19c-20 -2 -67 -6 -128 -75z" />
    <glyph glyph-name="Z" unicode="Z" horiz-adv-x="658" 
d="M728 646l-541 -610h161c176 0 213 85 253 208c8 23 9 25 24 25c3 0 19 0 19 -14c0 -1 0 -3 -4 -13l-70 -224c-6 -18 -9 -18 -31 -18h-429c-16 0 -25 0 -25 11c0 4 2 16 12 27l544 612h-152c-143 0 -197 -60 -234 -171c-7 -20 -8 -23 -22 -23c-5 0 -19 0 -19 14
c0 1 0 3 3 12l55 181c6 19 7 20 31 20h413c16 0 25 0 25 -11s-5 -17 -13 -26z" />
    <glyph glyph-name="bracketleft" unicode="[" horiz-adv-x="329" 
d="M362 704l-226 -908h60c15 0 28 0 28 -14c0 -2 -3 -20 -7 -25c-4 -7 -10 -7 -25 -7h-83c-15 0 -28 0 -28 14c0 4 2 11 3 15l238 951c5 20 7 20 30 20h83c15 0 28 0 28 -14c0 -4 -4 -21 -7 -26c-4 -6 -9 -6 -26 -6h-68z" />
    <glyph glyph-name="quotedblleft" unicode="&#x201c;" horiz-adv-x="550" 
d="M320 486c9 7 17 14 41 14c35 0 47 -24 47 -44c0 -29 -25 -67 -68 -67c-45 0 -52 44 -52 66c0 119 128 239 148 239c8 0 14 -8 14 -15c0 -5 -3 -8 -10 -14c-57 -44 -102 -103 -120 -179zM513 486c9 7 17 14 41 14c35 0 47 -24 47 -44c0 -29 -25 -67 -68 -67
c-45 0 -52 44 -52 66c0 119 128 239 148 239c8 0 14 -8 14 -15c0 -5 -3 -8 -10 -14c-57 -44 -102 -103 -120 -179z" />
    <glyph glyph-name="bracketright" unicode="]" horiz-adv-x="329" 
d="M368 721l-238 -951c-5 -20 -7 -20 -30 -20h-83c-15 0 -28 0 -28 14c0 4 4 21 7 26c4 6 9 6 26 6h68l227 908h-61c-15 0 -28 0 -28 14c0 2 3 20 7 25c4 7 10 7 25 7h83c15 0 28 0 28 -14c0 -4 -2 -11 -3 -15z" />
    <glyph glyph-name="circumflex" unicode="&#x2c6;" 
d="M460 682l85 -114c0 -1 7 -10 7 -15c0 -11 -15 -22 -22 -22c-6 0 -6 1 -17 13l-79 90l-130 -96c-7 -5 -10 -7 -14 -7c-10 0 -19 14 -19 21c0 8 3 10 12 17l146 118c8 7 14 7 15 7c4 0 8 -2 16 -12z" />
    <glyph glyph-name="dotaccent" unicode="&#x2d9;" horiz-adv-x="329" 
d="M374 626c0 -36 -34 -65 -67 -65c-23 0 -46 16 -46 46c0 34 33 65 67 65c18 0 46 -11 46 -46z" />
    <glyph glyph-name="quoteleft" unicode="&#x2018;" horiz-adv-x="329" 
d="M244 486c9 7 17 14 41 14c35 0 47 -24 47 -44c0 -29 -25 -67 -68 -67c-45 0 -52 44 -52 66c0 119 128 239 148 239c8 0 14 -8 14 -15c0 -5 -3 -8 -10 -14c-57 -44 -102 -103 -120 -179z" />
    <glyph glyph-name="a" unicode="a" 
d="M511 373l-70 -282c-3 -12 -3 -22 -3 -29c0 -12 0 -44 28 -44c27 0 48 33 67 110c6 25 6 28 23 28c5 0 19 0 19 -13c0 -2 -13 -60 -34 -100c-17 -31 -41 -53 -77 -53c-48 0 -81 31 -90 68c-21 -24 -70 -68 -129 -68c-75 0 -132 64 -132 160c0 143 121 291 239 291
c42 0 71 -21 92 -56c5 28 27 37 41 37c17 0 30 -12 30 -28c0 -5 -3 -16 -4 -21zM381 133l42 171l3 14c0 10 -11 95 -74 95c-28 0 -72 -20 -112 -93c-25 -46 -54 -164 -54 -211c0 -40 15 -91 62 -91c59 0 125 80 133 115z" />
    <glyph glyph-name="b" unicode="b" horiz-adv-x="493" 
d="M311 665l-69 -275c28 24 66 51 112 51c66 0 132 -52 132 -160c0 -149 -123 -291 -239 -291c-75 0 -127 64 -127 157c0 36 9 73 10 76l98 390c1 6 4 17 4 22c0 9 0 15 -48 15c-14 0 -26 0 -26 14c0 18 11 19 25 20l104 9c11 1 27 2 27 -13c0 -4 -2 -11 -3 -15zM248 18
c37 0 84 35 116 101c20 42 49 149 49 202c0 68 -31 92 -61 92c-37 0 -70 -30 -82 -40c-23 -22 -44 -46 -51 -77c-26 -98 -37 -141 -37 -180c0 -48 19 -98 66 -98z" />
    <glyph glyph-name="c" unicode="c" horiz-adv-x="493" 
d="M453 377c-18 34 -61 36 -73 36c-34 0 -96 -20 -142 -104c-25 -46 -48 -136 -48 -185c0 -68 35 -106 88 -106c55 0 134 25 188 91c9 10 10 12 16 12c7 0 20 -13 20 -21c0 -14 -81 -110 -225 -110c-96 0 -162 67 -162 169c0 147 135 282 265 282c70 0 117 -36 117 -86
c0 -40 -26 -60 -51 -60s-36 17 -36 33c0 3 0 40 43 49z" />
    <glyph glyph-name="d" unicode="d" 
d="M584 665l-143 -574c-3 -12 -3 -23 -3 -29c0 -12 0 -44 28 -44c27 0 48 33 67 110c6 25 6 28 23 28c5 0 19 0 19 -13c0 -2 -13 -60 -34 -100c-17 -31 -41 -53 -77 -53c-48 0 -81 31 -90 68c-21 -24 -70 -68 -129 -68c-75 0 -132 64 -132 160c0 143 121 291 239 291
c42 0 71 -21 92 -56l57 228c1 6 4 17 4 22c0 9 0 15 -48 15c-14 0 -26 0 -26 14c0 18 11 19 25 20l104 9c11 1 27 2 27 -13c0 -4 -2 -11 -3 -15zM381 133l42 171l3 14c0 10 -11 95 -74 95c-28 0 -72 -20 -112 -93c-25 -46 -54 -164 -54 -211c0 -40 15 -91 62 -91
c59 0 125 80 133 115z" />
    <glyph glyph-name="e" unicode="e" horiz-adv-x="493" 
d="M264 228h-57c-7 -30 -14 -73 -14 -96c0 -45 16 -114 85 -114c55 0 134 25 188 91c9 10 10 12 16 12c7 0 20 -13 20 -21c0 -14 -81 -110 -225 -110c-106 0 -158 88 -158 180c0 177 152 271 260 271c68 0 112 -37 112 -87c0 -126 -187 -126 -227 -126zM215 256h41
c37 0 191 0 191 98c0 40 -33 59 -68 59c-44 0 -131 -33 -164 -157z" />
    <glyph glyph-name="f" unicode="f" horiz-adv-x="329" 
d="M289 398l-59 -312c-22 -117 -63 -290 -168 -290c-39 0 -87 21 -87 67c0 31 22 55 51 55c11 0 35 -5 35 -34c0 -22 -15 -40 -34 -48c0 0 15 -12 37 -12c35 0 50 56 56 79c17 60 19 70 31 134l68 361h-65c-15 0 -28 0 -28 14c0 19 12 19 29 19h70l21 109
c7 38 31 164 136 164c45 0 90 -23 90 -67c0 -31 -22 -55 -51 -55c-11 0 -35 5 -35 34c0 24 18 41 34 47c-15 13 -36 13 -39 13c-37 0 -47 -48 -57 -96c-17 -78 -14 -70 -29 -149h82c15 0 29 0 29 -14c0 -19 -13 -19 -30 -19h-87z" />
    <glyph glyph-name="g" unicode="g" horiz-adv-x="493" 
d="M511 373l-110 -439c-16 -65 -87 -138 -214 -138c-62 0 -127 6 -127 58c0 33 25 54 50 54c22 0 36 -14 36 -34c0 -2 -2 -28 -25 -42c27 -8 53 -8 68 -8c18 0 62 0 104 44c29 32 35 56 46 98l21 84c-38 -33 -75 -50 -112 -50c-72 0 -133 58 -133 158c0 142 121 283 237 283
c52 0 80 -34 91 -54c5 20 22 35 42 35c17 0 30 -12 30 -28c0 -5 -3 -16 -4 -21zM383 141l41 165c2 9 3 11 3 15c0 12 -13 92 -75 92c-38 0 -85 -36 -116 -99c-22 -46 -48 -152 -48 -196c0 -46 19 -90 62 -90c59 0 124 77 133 113z" />
    <glyph glyph-name="h" unicode="h" 
d="M311 665l-73 -291c24 25 68 67 142 67c54 0 114 -22 114 -108c0 -58 -41 -166 -61 -219c-7 -20 -15 -41 -15 -64c0 -18 3 -32 22 -32c43 0 76 53 94 117c5 17 6 21 22 21c5 0 19 0 19 -13c0 -14 -42 -153 -137 -153c-51 0 -84 37 -84 83c0 18 6 34 13 52
c19 51 61 164 61 222c0 34 -10 66 -51 66c-108 0 -162 -130 -168 -154c-5 -22 -11 -43 -16 -65c-18 -71 -43 -174 -46 -179c-5 -14 -20 -25 -36 -25c-21 0 -31 15 -31 29c0 4 2 11 3 15l145 579c1 6 4 17 4 22c0 9 0 15 -48 15c-14 0 -26 0 -26 14c0 18 11 19 25 20l104 9
c11 1 27 2 27 -13c0 -4 -2 -11 -3 -15z" />
    <glyph glyph-name="i" unicode="i" horiz-adv-x="329" 
d="M337 623c0 -28 -27 -48 -49 -48c-18 0 -35 11 -35 35c0 28 27 48 49 48c17 0 35 -10 35 -35zM287 306l-66 -174c-16 -42 -22 -59 -22 -82c0 -18 3 -32 22 -32c42 0 75 52 93 117c5 17 6 21 22 21c5 0 19 0 19 -13c0 -12 -41 -153 -136 -153c-51 0 -84 37 -84 83
c0 18 7 36 11 46l70 186c13 35 20 54 20 77c0 18 -4 31 -22 31c-48 0 -79 -65 -94 -117c-4 -18 -5 -21 -21 -21c-6 0 -19 0 -19 13s41 153 136 153c42 0 83 -28 83 -83c0 -20 -4 -30 -12 -52z" />
    <glyph glyph-name="j" unicode="j" horiz-adv-x="329" 
d="M373 623c0 -25 -24 -48 -49 -48c-24 0 -36 18 -36 35c0 21 22 48 50 48c16 0 35 -10 35 -35zM170 -51l97 393c1 5 3 12 3 27c0 36 -13 44 -30 44c-25 0 -76 -16 -120 -122c-5 -13 -6 -16 -21 -16c-5 0 -19 0 -19 12c0 14 59 154 163 154c53 0 93 -37 93 -92
c0 -7 0 -15 -5 -35l-91 -366c-22 -88 -107 -152 -188 -152c-49 0 -87 22 -87 59c0 30 23 53 50 53c22 0 36 -14 36 -34c0 -8 -5 -32 -28 -44c3 -1 13 -6 29 -6c61 0 105 73 118 125z" />
    <glyph glyph-name="k" unicode="k" horiz-adv-x="493" 
d="M311 665l-100 -400c19 9 40 19 101 84c55 59 100 92 149 92c48 0 69 -34 69 -66c0 -39 -27 -58 -51 -58c-13 0 -35 6 -35 34s23 45 42 49c-4 6 -11 13 -26 13c-36 0 -76 -23 -132 -86c-7 -7 -48 -51 -84 -75c69 -12 138 -36 138 -107c0 -9 0 -15 -4 -31
c-4 -15 -7 -34 -7 -50c0 -37 14 -46 30 -46c44 0 64 61 78 118c4 15 6 20 22 20c5 0 19 0 19 -13c0 -6 -16 -64 -39 -101c-12 -18 -38 -52 -82 -52c-56 0 -93 43 -93 99c0 11 2 23 4 30c3 15 3 19 3 25c0 59 -71 77 -112 82l-49 -198c-7 -27 -23 -38 -41 -38
c-21 0 -31 15 -31 29c0 4 2 11 3 15l145 579c1 6 4 17 4 22c0 9 0 15 -48 15c-14 0 -26 0 -26 14c0 18 11 19 25 20l104 9c11 1 27 2 27 -13c0 -4 -2 -11 -3 -15z" />
    <glyph glyph-name="l" unicode="l" horiz-adv-x="274" 
d="M311 665l-143 -574c-3 -12 -3 -23 -3 -29c0 -12 0 -44 28 -44c36 0 53 66 67 118c4 16 5 20 21 20c5 0 19 0 19 -13c0 -4 -14 -62 -32 -98c-25 -48 -56 -55 -77 -55c-46 0 -92 31 -92 92c0 10 0 16 5 36l124 495c1 6 4 17 4 22c0 9 0 15 -48 15c-14 0 -26 0 -26 14
c0 18 11 19 25 20l104 9c11 1 27 2 27 -13c0 -4 -2 -11 -3 -15z" />
    <glyph glyph-name="m" unicode="m" horiz-adv-x="877" 
d="M268 274l-34 -136c-5 -20 -15 -61 -22 -86c-9 -38 -15 -62 -47 -62c-17 0 -30 12 -30 28c0 3 1 6 3 15l73 292c4 14 6 30 6 44c0 9 0 44 -28 44c-34 0 -52 -52 -67 -111c-6 -24 -7 -27 -23 -27c-6 0 -19 0 -19 13c0 5 15 65 33 99c20 35 44 54 78 54c49 0 86 -34 92 -80
c19 23 67 80 153 80c47 0 105 -18 113 -90c38 52 90 90 160 90c54 0 114 -22 114 -108c0 -58 -41 -166 -61 -219c-7 -20 -15 -41 -15 -64c0 -18 3 -32 22 -32c43 0 76 53 94 117c5 17 6 21 22 21c5 0 19 0 19 -13c0 -14 -42 -153 -137 -153c-51 0 -84 37 -84 83
c0 18 6 34 13 52c19 51 61 164 61 222c0 34 -10 66 -51 66s-74 -20 -92 -35c-44 -39 -71 -101 -74 -110l-16 -65c-11 -42 -11 -44 -16 -65c-5 -20 -15 -61 -22 -86c-9 -38 -15 -62 -47 -62c-17 0 -30 12 -30 28c0 5 3 16 4 21l63 251c8 30 8 49 8 57c0 41 -14 66 -52 66
c-110 0 -163 -139 -164 -139z" />
    <glyph glyph-name="n" unicode="n" horiz-adv-x="603" 
d="M266 268l-16 -65c-11 -42 -11 -44 -16 -65c-5 -20 -15 -61 -22 -86c-9 -38 -15 -62 -47 -62c-17 0 -30 12 -30 28c0 3 1 6 3 15l73 292c4 14 6 30 6 44c0 9 0 44 -28 44c-34 0 -52 -52 -67 -111c-6 -24 -7 -27 -23 -27c-6 0 -19 0 -19 13c0 5 15 65 33 99
c20 35 44 54 78 54c49 0 86 -34 92 -80c19 23 66 80 151 80c55 0 114 -22 114 -108c0 -58 -41 -166 -61 -219c-7 -20 -15 -41 -15 -64c0 -18 3 -32 22 -32c43 0 76 53 94 117c5 17 6 21 22 21c5 0 19 0 19 -13c0 -14 -42 -153 -137 -153c-51 0 -84 37 -84 83
c0 18 6 34 13 52c19 50 61 164 61 222c0 38 -12 66 -51 66c-35 0 -67 -14 -98 -41c-31 -29 -62 -88 -67 -104z" />
    <glyph glyph-name="o" unicode="o" 
d="M540 272c0 -144 -133 -282 -266 -282c-84 0 -159 59 -159 169c0 147 136 282 265 282c90 0 160 -65 160 -169zM275 18c48 0 102 37 134 92c41 68 56 165 56 197c0 70 -38 106 -86 106c-34 0 -93 -23 -136 -95c-32 -55 -53 -149 -53 -194c0 -80 47 -106 85 -106z" />
    <glyph glyph-name="p" unicode="p" 
d="M99 -123l115 465c1 5 3 12 3 27c0 9 0 44 -28 44c-34 0 -52 -52 -67 -111c-6 -24 -7 -27 -23 -27c-6 0 -19 0 -19 13c0 5 15 65 33 99c20 35 44 54 78 54c36 0 77 -20 89 -68c26 28 74 68 129 68c66 0 132 -52 132 -160c0 -151 -125 -291 -238 -291c-38 0 -70 18 -92 56
l-36 -145c-4 -16 -11 -43 -11 -48c0 -14 21 -14 49 -14c12 0 25 0 25 -14c0 -19 -14 -19 -19 -19c-8 0 -25 3 -96 3c-72 0 -77 -3 -86 -3c-12 0 -14 10 -14 14c0 19 13 19 24 19c38 0 44 5 52 38zM274 297l-43 -171c-1 -5 -3 -10 -3 -13c0 -7 10 -95 75 -95
c37 0 84 35 116 101c20 42 49 149 49 202c0 68 -31 92 -61 92c-28 0 -69 -18 -114 -77c-14 -20 -15 -22 -19 -39z" />
    <glyph glyph-name="q" unicode="q" horiz-adv-x="493" 
d="M521 414l-135 -539c-4 -15 -4 -21 -4 -22c0 -14 21 -14 49 -14c12 0 25 0 25 -14c0 -19 -14 -19 -19 -19c-9 0 -22 3 -102 3c-33 0 -69 -3 -100 -3c-9 0 -15 5 -15 14c0 19 12 19 24 19c64 1 64 3 78 56c6 28 32 132 36 146c-5 -4 -54 -51 -113 -51
c-75 0 -132 64 -132 160c0 143 121 291 239 291c49 0 79 -30 95 -63c13 21 49 63 63 63c7 0 14 -6 14 -14c0 -3 -1 -7 -3 -13zM381 133l43 171c1 3 2 11 2 13c0 11 -11 96 -74 96c-28 0 -72 -20 -112 -93c-25 -46 -54 -164 -54 -211c0 -40 15 -91 62 -91
c59 0 124 80 133 115z" />
    <glyph glyph-name="r" unicode="r" horiz-adv-x="452" 
d="M268 274l-61 -245c-4 -16 -14 -39 -42 -39c-17 0 -30 12 -30 28c0 3 1 6 3 15l73 292c4 14 6 30 6 44c0 9 0 44 -28 44c-34 0 -52 -52 -67 -111c-6 -24 -7 -27 -23 -27c-6 0 -19 0 -19 13c0 5 15 65 33 99c20 35 44 54 78 54c48 0 81 -31 90 -69c28 37 70 69 128 69
c34 0 106 -11 106 -69c0 -41 -31 -55 -50 -55c-13 0 -35 6 -35 34c0 8 2 34 34 46c-19 15 -47 16 -56 16c-90 0 -137 -125 -140 -139z" />
    <glyph glyph-name="s" unicode="s" horiz-adv-x="438" 
d="M401 371c-12 31 -46 42 -78 42c-78 0 -103 -58 -103 -86c0 -41 34 -48 78 -57c33 -7 121 -25 121 -114c0 -48 -41 -166 -198 -166c-88 0 -143 41 -143 97c0 42 25 62 52 62c21 0 35 -14 35 -33c0 -3 0 -41 -45 -49c21 -46 80 -49 101 -49c110 0 136 75 136 105
c0 51 -53 62 -75 66c-59 13 -70 15 -92 34c-21 17 -32 45 -32 71c0 38 32 147 167 147c57 0 116 -27 116 -86c0 -55 -40 -55 -44 -55c-17 0 -31 12 -31 30c0 2 0 32 35 41z" />
    <glyph glyph-name="t" unicode="t" horiz-adv-x="356" 
d="M271 398l-76 -307c-3 -12 -3 -22 -3 -29c0 -22 4 -44 29 -44c31 0 78 20 122 122c5 13 6 16 21 16c4 0 18 0 18 -12c0 -14 -58 -154 -163 -154c-49 0 -93 33 -93 92c0 10 0 16 5 36l70 280h-84c-15 0 -28 0 -28 14c0 19 12 19 30 19h90l39 155c2 9 10 39 42 39
c9 0 29 -5 29 -28c0 -5 0 -7 -4 -22l-36 -144h84c16 0 28 0 28 -14c0 -19 -12 -19 -29 -19h-91z" />
    <glyph glyph-name="u" unicode="u" horiz-adv-x="576" 
d="M540 383l-72 -292c-3 -12 -3 -22 -3 -29c0 -12 0 -44 28 -44c27 0 48 33 67 110c6 25 6 28 23 28c5 0 19 0 19 -13c0 -2 -13 -60 -34 -100c-17 -31 -41 -53 -77 -53c-26 0 -72 11 -87 61c-50 -58 -95 -61 -118 -61c-57 0 -122 29 -122 120c0 55 28 128 56 205
c9 23 17 44 17 67c0 18 -4 31 -22 31c-44 0 -77 -55 -95 -117c-4 -18 -5 -21 -21 -21c-6 0 -19 0 -19 13s41 153 137 153c42 0 83 -28 83 -83c0 -20 -4 -30 -12 -50c-32 -87 -57 -156 -57 -212c0 -17 0 -78 59 -78c67 0 109 78 114 98l68 275c2 9 10 40 42 40
c17 0 30 -10 30 -29c0 -3 0 -5 -4 -19z" />
    <glyph glyph-name="v" unicode="v" horiz-adv-x="493" 
d="M521 368c0 -51 -55 -378 -222 -378c-61 0 -134 27 -134 125c0 51 25 118 55 200c9 23 17 44 17 67c0 18 -4 31 -22 31c-44 0 -77 -55 -95 -117c-4 -18 -5 -21 -21 -21c-6 0 -19 0 -19 13s41 153 137 153c42 0 83 -28 83 -83c0 -20 -11 -48 -19 -72
c-34 -89 -49 -141 -49 -184c0 -15 0 -84 70 -84c113 0 165 234 165 272c0 27 -7 55 -27 76c-6 6 -13 13 -13 27c0 28 28 48 49 48c15 0 45 -10 45 -73z" />
    <glyph glyph-name="w" unicode="w" horiz-adv-x="713" 
d="M405 173l54 218c2 9 10 40 42 40c16 0 30 -10 30 -29c0 -3 -6 -29 -10 -43l-14 -56c-8 -34 -17 -67 -25 -101c-15 -59 -18 -73 -18 -100c0 -16 0 -84 71 -84c49 0 81 40 103 91c17 40 48 142 48 181c0 27 -7 55 -27 76c-6 6 -13 13 -13 27c0 28 28 48 49 48
c15 0 45 -10 45 -73c0 -54 -35 -192 -67 -261c-37 -82 -83 -117 -142 -117c-31 0 -93 8 -121 62c-38 -56 -75 -62 -103 -62c-50 0 -141 16 -141 127c0 43 10 80 54 198c9 23 17 44 17 67c0 18 -4 31 -22 31c-44 0 -77 -55 -95 -117c-4 -18 -5 -21 -21 -21c-6 0 -19 0 -19 13
s41 153 137 153c42 0 83 -28 83 -83c0 -20 -3 -28 -16 -61c-24 -64 -52 -140 -52 -192c0 -66 36 -87 77 -87c23 0 42 11 60 35c10 14 27 41 28 67c1 24 1 25 8 53z" />
    <glyph glyph-name="x" unicode="x" horiz-adv-x="494" 
d="M246 136l32 130c11 43 16 64 16 84c0 37 -19 63 -52 63s-93 -26 -124 -125c-3 -10 -6 -13 -19 -13c-6 0 -19 0 -19 13c0 27 59 153 164 153c61 0 91 -39 103 -63c27 40 61 63 102 63c33 0 94 -14 94 -69c0 -41 -31 -55 -50 -55c-13 0 -35 6 -35 34c0 29 26 45 35 48
c-2 1 -19 14 -45 14c-38 0 -72 -36 -88 -98c-11 -43 -22 -86 -32 -130c-9 -34 -21 -82 -21 -104c0 -41 21 -63 52 -63c29 0 91 22 123 125c3 10 7 13 20 13c4 0 19 0 19 -12c0 -30 -60 -154 -164 -154c-48 0 -86 26 -103 63c-24 -35 -57 -63 -102 -63c-44 0 -95 21 -95 69
c0 30 22 55 51 55c11 0 35 -5 35 -34c0 -22 -15 -40 -35 -48c6 -5 23 -14 45 -14c63 0 84 85 93 118z" />
    <glyph glyph-name="y" unicode="y" horiz-adv-x="521" 
d="M540 383l-98 -392c-23 -90 -118 -195 -230 -195c-60 0 -103 36 -103 87c0 50 35 61 51 61c23 0 36 -15 36 -33c0 -22 -17 -45 -45 -50c11 -26 36 -37 62 -37c44 0 82 30 108 63c38 50 51 101 60 140c-17 -15 -51 -37 -95 -37c-57 0 -122 29 -122 120c0 55 28 128 56 205
c9 23 17 44 17 67c0 18 -4 31 -22 31c-44 0 -77 -55 -95 -117c-4 -18 -5 -21 -21 -21c-6 0 -19 0 -19 13s41 153 137 153c42 0 83 -28 83 -83c0 -20 -4 -30 -12 -50c-32 -87 -57 -156 -57 -212c0 -17 0 -78 59 -78c67 0 109 78 114 98l68 275c2 9 10 40 42 40
c16 0 30 -10 30 -29c0 -4 -1 -5 -4 -19z" />
    <glyph glyph-name="z" unicode="z" horiz-adv-x="438" 
d="M358 266l-112 -101c-19 -18 -51 -50 -76 -76c30 0 40 0 75 -13c28 -10 46 -17 67 -17c46 0 97 34 114 82c4 13 5 17 20 17c6 0 19 0 19 -13c0 -30 -61 -155 -163 -155c-29 0 -47 14 -66 37c-26 28 -36 34 -54 34c-35 0 -64 -37 -77 -57c-8 -13 -9 -14 -22 -14
c-7 0 -19 0 -19 12c0 10 39 68 93 125c31 32 64 61 97 91c45 40 102 90 130 124c-20 1 -27 2 -65 16c-15 6 -37 14 -58 14c-6 0 -59 0 -79 -49c-4 -10 -7 -11 -19 -11c-6 0 -19 0 -19 12c0 27 49 117 126 117c24 0 42 -9 68 -37c15 -18 29 -34 50 -34c20 0 32 9 63 61
c6 9 8 10 20 10c8 0 19 0 19 -12s-37 -60 -56 -83c-16 -20 -18 -21 -76 -80z" />
    <glyph glyph-name="endash" unicode="&#x2013;" 
d="M558 252h-436c-15 0 -28 0 -28 14s13 14 28 14h436c15 0 28 0 28 -14s-13 -14 -28 -14z" />
    <glyph glyph-name="emdash" unicode="&#x2014;" horiz-adv-x="1097" 
d="M1079 252h-930c-15 0 -28 0 -28 14s13 14 28 14h930c15 0 28 0 28 -14s-13 -14 -28 -14z" />
    <glyph glyph-name="hungarumlaut" unicode="&#x2dd;" 
d="M425 635l-109 -120c-11 -12 -15 -12 -19 -12c-2 0 -21 5 -21 18c0 2 0 6 8 17l90 135c7 11 15 23 35 23c21 0 32 -17 32 -30s-10 -25 -16 -31zM590 635l-109 -120c-11 -12 -15 -12 -19 -12c-2 0 -21 5 -21 18c0 2 0 6 8 17l90 135c7 11 15 23 35 23c21 0 32 -17 32 -30
s-10 -25 -16 -31z" />
    <glyph glyph-name="tilde" unicode="&#x2dc;" 
d="M602 657c0 -11 -32 -36 -54 -53c-16 -14 -52 -41 -83 -41c-30 0 -44 22 -54 38c-17 26 -23 29 -35 29c-31 0 -86 -51 -95 -59c-5 -5 -8 -8 -14 -8c-7 0 -13 6 -13 14c0 11 33 37 53 53c25 20 56 41 83 41c30 0 43 -19 59 -44c13 -20 19 -23 30 -23c30 0 79 45 92 56
c9 9 13 11 17 11c8 0 14 -6 14 -14z" />
    <glyph glyph-name="dieresis" unicode="&#xa8;" 
d="M386 629c0 -33 -32 -61 -62 -61c-23 0 -44 15 -44 43c0 35 33 61 62 61c25 0 44 -17 44 -43zM577 629c0 -35 -33 -61 -62 -61c-25 0 -44 17 -44 43c0 33 32 61 62 61c23 0 44 -15 44 -43z" />
    <glyph glyph-name="space" unicode=" " horiz-adv-x="384" 
 />
  </font>
</defs>
</svg>
