<?xml version="1.0" standalone="no"?>
<!DOCTYPE svg PUBLIC "-//W3C//DTD SVG 1.1//EN" "http://www.w3.org/Graphics/SVG/1.1/DTD/svg11.dtd" >
<svg>
<metadata>
Created by FontForge 20060822 at Fri Oct  6 18:26:18 2006
 By Wojciech Mula,,,
Copyright (C) 1997 American Mathematical Society. All Rights Reserved
</metadata>
<defs>
<font id="CMTI7" horiz-adv-x="603" >
  <font-face 
    font-family="Computer Modern"
    font-weight="500"
    font-style="italic"
    font-stretch="normal"
    units-per-em="1000"
    panose-1="2 0 6 3 0 0 0 0 0 0"
    ascent="750"
    descent="-250"
    x-height="441"
    cap-height="683"
    bbox="-27 -250 1268 750"
    underline-thickness="0"
    underline-position="0"
    slope="-14.04"
    stemh="36"
    stemv="76"
    unicode-range="U+0020-U+FB04"
  />
    <missing-glyph />
    <glyph glyph-name="ff" unicode="ff" horiz-adv-x="736" 
d="M666 395l-57 -308c-10 -56 -24 -111 -46 -164c-34 -82 -113 -127 -184 -127c-54 0 -118 15 -118 67c0 31 22 55 51 55c11 0 35 -5 35 -34c0 -27 -23 -42 -29 -45c23 -14 52 -15 63 -15c32 0 57 17 79 39c21 21 29 31 44 84c16 57 16 59 27 117l61 331h-282l-58 -314
c-18 -100 -57 -285 -174 -285c-44 0 -95 21 -95 67c0 31 22 55 51 55c11 0 35 -5 35 -34c0 -4 0 -32 -32 -45c16 -15 38 -15 43 -15c39 0 56 65 62 88c17 65 18 68 30 135l64 348h-72c-15 0 -28 0 -28 14c0 22 13 22 30 22h77c22 123 30 166 59 207c47 64 126 66 165 66
c27 0 132 0 132 -67c0 -31 -22 -55 -51 -55c-11 0 -35 5 -35 34c0 27 23 42 29 45c-27 15 -68 15 -74 15c-46 0 -76 -13 -98 -36c-18 -20 -32 -94 -38 -123l-16 -86h282l24 123c10 51 39 150 144 150c55 0 105 -22 105 -67c0 -31 -22 -55 -51 -55c-11 0 -35 5 -35 34
c0 20 12 37 30 46c-12 9 -34 14 -49 14c-49 0 -61 -66 -69 -110l-25 -135h90c15 0 28 0 28 -14c0 -22 -13 -22 -30 -22h-94z" />
    <glyph glyph-name="fi" unicode="fi" horiz-adv-x="677" 
d="M309 395l-57 -313c-9 -49 -9 -51 -24 -106c-10 -38 -49 -180 -150 -180c-44 0 -95 21 -95 67c0 31 22 55 51 55c11 0 35 -5 35 -34c0 -4 0 -32 -32 -45c16 -15 38 -15 43 -15c20 0 51 0 89 208l67 363h-72c-16 0 -28 0 -28 14c0 22 12 22 30 22h77c24 135 31 174 84 226
c49 47 131 47 181 47c68 0 177 -1 177 -74c0 -34 -24 -58 -51 -58c-22 0 -36 14 -36 34s16 40 34 47c-29 23 -95 23 -123 23c-149 0 -157 -44 -193 -245h291c15 0 26 0 26 -12c0 -3 0 -7 -2 -13l-75 -300c-1 -3 -6 -24 -6 -41s4 -47 32 -47c37 0 54 59 68 111
c6 25 7 27 25 27c8 0 21 0 21 -13c0 -3 -14 -63 -38 -102c-22 -36 -48 -51 -79 -51c-44 0 -99 28 -99 94c0 7 0 14 5 34l69 277h-245z" />
    <glyph glyph-name="fl" unicode="fl" horiz-adv-x="707" 
d="M728 682l-143 -575c-6 -23 -6 -25 -6 -42s4 -47 32 -47c37 0 54 59 68 111c6 25 7 27 25 27c8 0 21 0 21 -13c0 -3 -14 -63 -38 -102c-22 -36 -48 -51 -79 -51c-44 0 -99 28 -99 94c0 7 0 14 5 34l69 277h-274l-57 -312c0 -1 -22 -119 -52 -189c-7 -16 -51 -98 -122 -98
c-44 0 -95 21 -95 67c0 31 22 55 51 55c11 0 35 -5 35 -34c0 -4 0 -32 -32 -45c16 -15 38 -15 42 -15c22 0 52 0 91 214l66 357h-72c-17 0 -28 0 -28 14c0 22 12 22 30 22h76c23 116 23 118 26 129c39 143 152 144 223 144c100 0 150 -14 152 -64h1c2 9 6 22 9 35
c5 18 6 19 29 19h20c16 0 26 0 26 -12zM316 431h276l43 173h-1c-5 -9 -22 -22 -42 -22c-11 0 -35 5 -35 34c0 27 23 42 29 45c-28 15 -81 15 -95 15c-33 0 -98 -2 -127 -50c-19 -32 -30 -92 -48 -195z" />
    <glyph glyph-name="ffi" unicode="ffi" horiz-adv-x="1060" 
d="M677 395l-56 -307c-2 -10 -28 -150 -70 -208c-15 -20 -75 -84 -166 -84c-26 0 -124 2 -124 67c0 31 22 55 51 55c11 0 35 -5 35 -34c0 -27 -23 -42 -29 -45c24 -14 61 -15 68 -15c17 0 45 4 79 33c30 27 36 45 46 76c14 43 24 87 32 132l61 330h-294l-58 -315
c-8 -44 -8 -46 -24 -102c-10 -40 -48 -182 -150 -182c-43 0 -95 21 -95 67c0 31 22 55 51 55c11 0 35 -5 35 -34c0 -20 -13 -38 -32 -46c11 -9 29 -14 43 -14c38 0 55 62 62 87c17 63 18 70 30 135l64 349h-71c-15 0 -29 0 -29 14c0 22 13 22 31 22h76l18 98
c30 164 135 175 221 175c50 0 146 -2 146 -66c0 -34 -24 -56 -51 -56c-11 0 -35 5 -35 34c0 27 23 42 29 45c-27 15 -79 15 -88 15c-120 0 -131 -57 -150 -158c-8 -36 -10 -50 -17 -87h295c21 118 30 167 72 212c56 60 129 61 203 61c72 0 182 0 182 -73
c0 -38 -26 -59 -51 -59c-22 0 -36 14 -36 34c0 13 9 38 35 47c-31 23 -94 23 -131 23c-117 0 -154 -24 -179 -131c-2 -9 -19 -96 -22 -114h306c15 0 26 0 26 -12c0 -3 0 -7 -2 -13l-75 -300c-1 -3 -6 -24 -6 -41s4 -47 32 -47c37 0 54 59 68 111c6 25 7 27 25 27
c8 0 21 0 21 -13c0 -3 -14 -63 -38 -102c-22 -36 -48 -51 -79 -51c-44 0 -99 28 -99 94c0 7 0 14 5 34l69 277h-260z" />
    <glyph glyph-name="ffl" unicode="ffl" horiz-adv-x="1075" 
d="M1096 682l-143 -575c-6 -23 -6 -25 -6 -42s4 -47 32 -47c37 0 54 59 68 111c6 25 7 27 25 27c8 0 21 0 21 -13c0 -3 -14 -63 -38 -102c-22 -36 -48 -51 -79 -51c-44 0 -99 28 -99 94c0 7 0 14 5 34l69 277h-274l-57 -311c0 -1 -27 -149 -70 -205
c-24 -30 -82 -83 -165 -83c-26 0 -124 2 -124 67c0 31 22 55 51 55c11 0 35 -5 35 -34c0 -27 -23 -42 -29 -45c24 -14 61 -15 68 -15c63 0 105 62 109 68c24 44 47 171 48 176l61 327h-295l-57 -313c-9 -50 -9 -52 -25 -107c-10 -38 -48 -179 -149 -179c-44 0 -95 21 -95 67
c0 31 22 55 51 55c11 0 35 -5 35 -34c0 -4 0 -32 -32 -45c16 -15 38 -15 43 -15c26 0 53 15 89 208l67 363h-72c-16 0 -28 0 -28 14c0 22 12 22 30 22h77l18 100c26 140 103 173 206 173c27 0 132 0 132 -67c0 -31 -22 -55 -51 -55c-11 0 -35 5 -35 34c0 27 23 42 29 45
c-27 15 -68 15 -74 15c-91 0 -108 -50 -115 -72c-8 -22 -14 -44 -37 -173h294l19 101c32 172 158 172 229 172c99 0 151 -13 153 -64h1c2 9 6 22 9 35c5 18 6 19 29 19h20c16 0 26 0 26 -12zM684 431h276l43 173h-1c-5 -9 -22 -22 -42 -22c-11 0 -35 5 -35 34
c0 27 23 42 29 45c-28 15 -81 15 -95 15c-132 0 -140 -43 -175 -245z" />
    <glyph glyph-name="Gamma" unicode="&#x393;" horiz-adv-x="734" 
d="M422 608l-133 -533c-4 -14 -4 -16 -4 -21c0 -13 8 -14 29 -16c18 -2 26 -2 43 -2h9c15 0 28 0 28 -14c0 -22 -14 -22 -22 -22c-45 0 -96 4 -142 4c-39 0 -83 -4 -121 -4c-13 0 -15 10 -15 14c0 22 11 22 32 22c65 0 70 8 79 44l131 524c2 7 4 15 4 23c0 16 -22 16 -56 16
c-17 0 -30 0 -30 14c0 22 13 22 31 22h476c22 0 30 0 27 -26l-19 -180c-2 -17 -3 -24 -22 -24c-10 0 -21 0 -21 17c0 7 5 39 5 71c0 70 -17 106 -134 106h-127c-33 0 -39 0 -48 -35z" />
    <glyph glyph-name="Delta" unicode="&#x394;" horiz-adv-x="955" 
d="M685 690l181 -663c1 -4 3 -10 3 -14c0 -13 -11 -13 -27 -13h-730c-16 0 -22 0 -22 8c0 1 0 3 8 13l518 672c15 20 24 20 39 20c24 0 25 -6 30 -23zM608 621l-422 -547h571z" />
    <glyph glyph-name="Theta" unicode="&#x398;" horiz-adv-x="896" 
d="M895 429c0 -233 -227 -449 -452 -449c-165 0 -274 115 -274 270c0 222 221 453 454 453c156 0 272 -107 272 -274zM450 10c197 0 359 223 359 445c0 158 -99 220 -193 220c-204 0 -361 -242 -361 -449c0 -140 86 -216 195 -216zM745 382l-22 -89c-4 -18 -8 -22 -24 -22
c-4 0 -20 0 -20 15c0 4 2 13 4 19h-318c0 -1 -6 -23 -7 -24c-4 -10 -13 -10 -20 -10c-5 0 -20 1 -20 14c0 3 1 11 2 14l24 95c4 15 6 20 23 20c5 0 21 0 21 -15c0 -3 0 -5 -4 -19h318c0 3 5 21 6 24c4 10 13 10 20 10c5 0 21 0 21 -15c0 -1 0 -3 -4 -17z" />
    <glyph glyph-name="Lambda" unicode="&#x39b;" horiz-adv-x="807" 
d="M204 119l343 574c8 14 12 20 34 20c18 0 23 -2 25 -27l59 -619c2 -23 4 -31 47 -31c15 0 26 0 26 -14c0 -22 -14 -22 -20 -22c-30 0 -66 4 -97 4c-39 0 -81 -4 -119 -4c-13 0 -16 10 -16 14c0 22 14 22 25 22c50 0 65 15 65 29l-2 13l-48 505l-287 -480
c-2 -3 -14 -24 -14 -37c0 -27 33 -29 40 -30c6 0 17 -1 17 -15c0 -21 -15 -21 -20 -21c-31 0 -67 4 -99 4c-23 0 -51 -4 -73 -4c-6 0 -14 4 -14 14c0 20 10 21 21 22c34 3 66 15 107 83z" />
    <glyph glyph-name="Xi" unicode="&#x39e;" horiz-adv-x="779" 
d="M846 662l-20 -117c-3 -19 -6 -23 -23 -23c-7 0 -21 0 -21 15l3 15c3 16 5 37 5 43c0 8 -1 9 -8 11c-13 2 -44 2 -58 2h-360c-10 0 -67 0 -72 -6c-9 -9 -19 -38 -24 -54c-8 -24 -9 -26 -26 -26c-6 0 -21 0 -21 14c0 1 0 4 4 15l34 107c6 18 10 18 31 18h528
c15 0 28 0 28 -14zM221 68h362c14 0 73 0 79 9c9 14 20 46 28 69c5 16 6 19 23 19c6 0 21 0 21 -14c0 -11 -36 -117 -43 -136c-5 -15 -7 -15 -29 -15h-540c-19 0 -28 0 -28 16c0 7 21 121 24 134c4 14 9 15 22 15c6 0 21 0 21 -14c0 -3 -2 -13 -3 -16c-1 -6 -7 -41 -7 -53
c0 -10 1 -10 10 -11c16 -2 43 -3 60 -3zM695 406l-29 -116c-3 -14 -5 -20 -23 -20c-5 0 -21 0 -21 15c0 5 6 26 8 33h-324c-4 -17 -7 -28 -8 -31c-3 -11 -5 -17 -22 -17c-5 0 -21 0 -21 14c0 3 1 6 3 13l29 117c4 15 7 20 23 20c5 0 21 0 21 -15c0 -5 -6 -26 -8 -33h324
c4 17 7 28 8 31c3 11 5 17 22 17c5 0 21 0 21 -15c0 -3 -2 -7 -3 -13z" />
    <glyph glyph-name="Pi" unicode="&#x3a0;" horiz-adv-x="865" 
d="M830 603l-134 -536c0 -1 -3 -13 -3 -17c0 -14 30 -14 57 -14c17 0 29 0 29 -14c0 -22 -14 -22 -21 -22c-38 0 -82 4 -121 4s-81 -4 -119 -4c-13 0 -15 10 -15 14c0 22 12 22 30 22c67 0 72 8 80 41l141 566h-323l-144 -576c0 -1 -3 -13 -3 -17c0 -14 30 -14 57 -14
c17 0 29 0 29 -14c0 -22 -14 -22 -21 -22c-38 0 -82 4 -121 4s-81 -4 -119 -4c-13 0 -15 10 -15 14c0 22 11 22 32 22c65 0 70 8 79 44l131 524c2 7 4 15 4 23c0 16 -22 16 -56 16c-17 0 -30 0 -30 14c0 22 13 22 31 22h627c17 0 28 0 28 -14c0 -22 -11 -22 -31 -22
c-65 0 -71 -7 -79 -40z" />
    <glyph glyph-name="Sigma" unicode="&#x3a3;" horiz-adv-x="838" 
d="M504 325l-315 -279h270c162 0 230 24 291 171c9 22 9 23 25 23c7 0 21 0 21 -14c0 -3 0 -5 -4 -14l-75 -194c-7 -17 -8 -18 -31 -18h-558c-17 0 -28 0 -28 14c0 6 1 7 12 17l316 282l-161 334c-5 10 -5 12 -5 14c0 22 12 22 30 22h558c22 0 30 0 27 -26l-19 -180
c-2 -17 -3 -24 -22 -24c-10 0 -21 0 -21 17c0 1 3 38 3 46c0 109 -47 131 -198 131h-252l140 -288c6 -12 6 -15 6 -17c0 -3 0 -8 -10 -17z" />
    <glyph glyph-name="Upsilon" unicode="&#x3a5;" horiz-adv-x="896" 
d="M572 325l-63 -253c-4 -14 -4 -16 -4 -18c0 -13 8 -14 29 -16c18 -2 26 -2 43 -2h9c15 0 28 0 28 -14c0 -22 -14 -22 -22 -22c-46 0 -97 4 -144 4c-46 0 -96 -4 -142 -4c-16 0 -16 13 -16 14c0 22 13 22 30 22h10c81 0 86 10 95 45l63 254c11 45 21 85 21 141
c0 52 -9 154 -111 154c-49 0 -104 -27 -122 -79c-4 -11 -7 -19 -26 -19c-5 0 -18 0 -18 11c0 33 67 160 185 160c146 0 146 -167 146 -202c0 -17 0 -29 -2 -43h1c56 129 145 245 267 245c78 0 112 -59 112 -116c0 -55 -17 -55 -30 -55c-6 0 -18 0 -18 12c0 2 3 11 3 20
c0 34 -28 66 -84 66c-68 0 -117 -45 -151 -91c-55 -76 -76 -162 -89 -214z" />
    <glyph glyph-name="Phi" unicode="&#x3a6;" horiz-adv-x="838" 
d="M489 139l-10 -43c-4 -14 -10 -38 -10 -42c0 -13 8 -14 29 -16c18 -2 26 -2 43 -2h9c15 0 28 0 28 -14c0 -22 -15 -22 -21 -22c-45 0 -95 4 -141 4c-45 0 -94 -4 -139 -4c-16 0 -16 13 -16 14c0 22 13 22 30 22h10c31 0 73 0 85 18c5 9 18 57 25 86
c-148 11 -234 88 -234 170c0 111 152 220 335 233l17 72c1 6 2 10 2 14c0 13 -6 14 -28 16c-18 2 -26 2 -43 2h-9c-15 0 -29 0 -29 14c0 22 16 22 22 22c45 0 95 -4 141 -4c45 0 94 4 139 4c10 0 16 -5 16 -15c0 -21 -13 -21 -30 -21h-10c-28 0 -71 0 -84 -17
c-7 -8 -18 -57 -25 -86c139 -10 238 -79 238 -171c0 -112 -149 -220 -340 -234zM417 168l87 347c-230 -24 -236 -200 -236 -220c0 -99 92 -122 149 -127zM583 516l-87 -349c212 17 242 169 242 221c0 94 -82 122 -155 128z" />
    <glyph glyph-name="Psi" unicode="&#x3a8;" horiz-adv-x="896" 
d="M634 603l-108 -433c114 20 184 111 218 236c31 116 79 146 134 146h27c15 0 28 0 28 -14c0 -12 -10 -13 -16 -14c-64 -9 -85 -87 -97 -129c-42 -152 -152 -243 -301 -255c-11 -40 -21 -78 -21 -86c0 -13 8 -14 29 -16c18 -2 26 -2 43 -2h9c15 0 28 0 28 -14
c0 -22 -15 -22 -21 -22c-45 0 -95 4 -141 4c-45 0 -94 -4 -139 -4c-16 0 -16 13 -16 14c0 22 13 22 30 22h10c31 0 73 0 85 18c5 9 18 57 25 86c-77 8 -175 49 -175 186c0 16 2 47 9 77c4 15 10 39 10 62c0 43 -15 56 -35 59c-9 1 -18 2 -18 14c0 14 13 14 28 14h27
c20 0 76 0 76 -87c0 -26 -6 -49 -10 -66c-9 -39 -12 -76 -12 -89c0 -46 13 -125 107 -141l111 446c1 5 2 10 2 14c0 13 -6 14 -28 16c-18 2 -26 2 -43 2h-9c-15 0 -29 0 -29 14c0 22 16 22 22 22c45 0 95 -4 141 -4c45 0 94 4 139 4c10 0 16 -5 16 -15
c0 -21 -13 -21 -30 -21h-10c-81 0 -87 -10 -95 -44z" />
    <glyph glyph-name="Omega" unicode="&#x3a9;" horiz-adv-x="838" 
d="M783 132l-59 -116c-8 -16 -11 -16 -32 -16h-146c-18 0 -28 0 -28 15c0 8 12 53 44 109c16 29 33 56 80 123c54 76 123 174 123 269c0 105 -80 159 -175 159c-137 0 -293 -113 -293 -300c0 -27 5 -74 18 -135c15 -70 20 -107 20 -146c0 -9 0 -34 -5 -63
c-6 -30 -7 -31 -33 -31h-146c-26 0 -29 1 -29 31v53c0 14 -1 28 -1 42c0 31 0 36 21 36s21 -6 21 -30c0 -10 0 -54 6 -61c4 -5 36 -6 50 -6h85c0 54 -15 93 -49 163c-25 53 -52 110 -52 173c0 173 196 302 387 302c161 0 269 -88 269 -205c0 -106 -88 -198 -176 -287
c-73 -73 -99 -112 -117 -146h76c54 0 59 6 66 15c11 17 20 34 31 57c13 24 14 25 29 25c6 0 21 0 21 -14c0 -5 -4 -12 -6 -16z" />
    <glyph glyph-name="dotlessi" unicode="&#x131;" horiz-adv-x="368" 
d="M211 247l27 69c8 21 16 41 16 63c0 31 -13 34 -25 34c-18 0 -66 -9 -99 -125c-3 -13 -9 -13 -21 -13c-8 0 -21 0 -21 13c0 18 46 153 144 153c55 0 90 -39 90 -84c0 -13 0 -16 -6 -33c-5 -15 -55 -142 -66 -173c-13 -32 -30 -75 -30 -99c0 -10 0 -34 24 -34
c51 0 84 69 97 117c5 18 6 21 24 21c8 0 21 0 21 -13c0 -16 -45 -153 -145 -153c-53 0 -89 38 -89 84c0 18 14 54 24 80c10 28 28 74 35 93z" />
    <glyph glyph-name="dotlessj" unicode="&#xf6be;" horiz-adv-x="397" 
d="M357 314l-91 -366c-20 -82 -101 -152 -191 -152c-54 0 -102 17 -102 59c0 30 23 53 50 53c22 0 36 -14 36 -34c0 -16 -12 -34 -24 -42c10 -4 21 -8 41 -8c66 0 105 82 116 125l95 382c4 16 4 23 4 34c0 26 -6 48 -33 48c-34 0 -86 -29 -126 -122c-6 -14 -7 -16 -23 -16
c-7 0 -21 0 -21 12c0 17 64 154 173 154c60 0 101 -41 101 -93c0 -9 -1 -18 -5 -34z" />
    <glyph glyph-name="grave" unicode="`" 
d="M443 511l-112 115c-11 11 -15 15 -15 28c0 20 22 42 44 42c16 0 23 -10 30 -21l90 -137c6 -9 7 -10 7 -14c0 -11 -18 -24 -26 -24c-4 0 -8 0 -18 11z" />
    <glyph glyph-name="acute" unicode="&#xb4;" 
d="M588 626l-175 -119c-10 -7 -13 -7 -16 -7c-12 0 -21 18 -21 24s2 7 12 16l165 143c4 4 15 13 29 13c15 0 32 -12 32 -33c0 -19 -12 -28 -26 -37z" />
    <glyph glyph-name="caron" unicode="&#x2c7;" 
d="M587 591l-144 -84c-7 -4 -11 -5 -14 -5s-5 0 -17 10l-97 79c-5 4 -11 11 -11 17c0 8 14 26 24 26c2 0 5 0 16 -8l94 -66l131 68c10 6 12 6 14 6c11 0 19 -16 19 -26c0 -7 -5 -11 -15 -17z" />
    <glyph glyph-name="breve" unicode="&#x2d8;" 
d="M631 680c0 -38 -75 -163 -197 -163c-82 0 -129 59 -129 127c0 6 0 50 19 50c6 0 14 -5 14 -15c0 -3 -4 -17 -4 -29c0 -53 43 -90 103 -90c38 0 132 21 166 121c1 4 4 13 14 13c7 0 14 -6 14 -14z" />
    <glyph glyph-name="macron" unicode="&#xaf;" 
d="M605 556h-324c-18 0 -28 0 -28 15c0 22 12 22 30 22h324c15 0 29 0 29 -14c0 -23 -13 -23 -31 -23z" />
    <glyph glyph-name="ring" unicode="&#x2da;" horiz-adv-x="953" 
d="M744 643c0 -51 -62 -104 -133 -104c-53 0 -89 29 -89 71c0 52 63 104 132 104c56 0 90 -32 90 -71zM618 567c10 0 44 0 63 20c17 20 22 53 22 62c0 25 -14 37 -56 37c-10 0 -44 0 -63 -21c-17 -18 -22 -51 -22 -62c0 -34 34 -36 56 -36z" />
    <glyph glyph-name="cedilla" unicode="&#xb8;" horiz-adv-x="544" 
d="M291 8h16c18 0 28 0 28 -15c0 -4 -5 -25 -9 -38c15 -2 72 -10 72 -58c0 -81 -126 -87 -222 -87h-30c-9 1 -14 7 -14 14c0 14 12 14 28 14h16c32 0 149 0 149 58c0 20 -21 32 -56 35c-6 0 -19 1 -19 14c0 4 7 31 10 42c6 21 7 21 31 21z" />
    <glyph glyph-name="germandbls" unicode="&#xdf;" horiz-adv-x="632" 
d="M335 534l-85 -461c-10 -53 -22 -106 -42 -156c-30 -78 -91 -121 -140 -121c-46 0 -79 28 -79 66c0 34 24 56 51 56c11 0 35 -5 35 -34c0 -6 -1 -25 -22 -41l-13 -8c4 -4 10 -11 28 -11c56 0 81 99 105 230l63 341h-72c-17 0 -28 0 -28 14c0 22 12 22 30 22h76l19 100
c31 165 147 173 222 173c125 0 167 -63 167 -115c0 -28 -18 -109 -102 -188c-12 -12 -44 -42 -44 -65s23 -46 43 -66c19 -19 56 -56 56 -107c0 -77 -87 -173 -197 -173c-63 0 -118 26 -118 76c0 32 19 49 41 49c20 0 29 -14 29 -27c0 -15 -9 -29 -24 -36
c16 -34 66 -34 72 -34c75 0 111 114 111 139c0 23 -12 42 -36 67c-25 25 -35 55 -35 89c0 42 7 63 67 115c49 42 64 156 64 164c0 48 -31 84 -91 84c-107 0 -133 -46 -151 -142z" />
    <glyph glyph-name="ae" unicode="&#xe6;" horiz-adv-x="838" 
d="M573 228h-65c-3 -12 -10 -48 -10 -82c0 -90 48 -128 99 -128c36 0 110 15 173 92c6 8 8 11 13 11c9 0 23 -16 23 -24c0 -15 -80 -107 -209 -107c-66 0 -107 34 -130 70c-13 -51 -18 -70 -48 -70c-16 0 -28 10 -28 27c0 13 4 26 6 33v1c-38 -35 -77 -61 -128 -61
c-81 0 -157 42 -157 115c0 35 26 117 117 186c68 51 150 86 248 118c10 4 11 5 12 7c7 12 16 25 36 25c21 0 29 -15 29 -27c0 -10 -3 -18 -5 -25c47 35 103 52 152 52c65 0 120 -32 120 -88c0 -125 -202 -125 -248 -125zM516 256h50c41 0 207 0 207 98c0 34 -29 59 -74 59
c-60 0 -150 -46 -183 -157zM425 156l55 224c-205 -74 -287 -212 -287 -297c0 -58 58 -65 79 -65c79 0 146 109 153 138z" />
    <glyph glyph-name="oe" unicode="&#x153;" horiz-adv-x="838" 
d="M576 228h-64c-4 -19 -11 -54 -11 -86c0 -86 45 -124 96 -124c36 0 110 15 173 92c6 8 8 11 13 11c9 0 23 -16 23 -24c0 -15 -80 -107 -209 -107c-74 0 -124 41 -148 99c-49 -61 -114 -101 -177 -101c-75 0 -143 57 -143 165c0 149 129 290 250 290c73 0 112 -51 126 -89
c39 40 111 87 196 87c65 0 120 -32 120 -88c0 -125 -201 -125 -245 -125zM520 256h49c40 0 204 0 204 98c0 34 -29 59 -74 59c-43 0 -141 -28 -179 -157zM273 16c35 0 85 27 124 94c31 56 54 157 54 203c0 66 -31 102 -72 102c-39 0 -84 -32 -117 -88
c-31 -56 -57 -171 -57 -215c0 -63 30 -96 68 -96z" />
    <glyph glyph-name="oslash" unicode="&#xf8;" 
d="M611 510l-89 -110c14 -15 51 -52 51 -129c0 -144 -136 -283 -272 -283c-47 0 -81 18 -92 25c-27 -32 -69 -86 -83 -102c-18 -21 -19 -22 -25 -22s-13 6 -13 14c0 6 12 21 20 31c18 21 52 65 78 97c-42 42 -50 90 -50 129c0 145 136 283 272 283c33 0 65 -8 93 -25l90 111
c10 12 11 13 16 13c6 0 14 -4 14 -14c0 -6 -1 -7 -10 -18zM217 69l258 318c-18 19 -41 28 -68 28c-51 0 -107 -35 -143 -88c-41 -60 -60 -149 -60 -195c0 -17 0 -37 13 -63zM492 362l-258 -319c8 -8 31 -27 68 -27c47 0 104 31 144 89c42 62 59 153 59 194c0 9 0 37 -13 63z
" />
    <glyph glyph-name="AE" unicode="&#xc6;" horiz-adv-x="1028" 
d="M219 120l337 527h-40c-16 0 -28 0 -28 14c0 22 12 22 30 22h522c22 0 30 0 27 -26l-19 -180c-2 -17 -3 -24 -22 -24c-10 0 -21 0 -21 17c0 8 5 37 5 72c0 67 -13 105 -130 105h-122c-33 0 -39 0 -48 -35l-66 -266h94c81 0 106 17 126 94c4 19 5 23 23 23c9 0 21 0 21 -15
c0 -3 -1 -5 -4 -18l-54 -217c-4 -17 -7 -20 -23 -20c-9 0 -21 0 -21 15c0 3 1 7 3 12c4 16 7 33 7 47c0 27 -6 43 -80 43h-101l-61 -245c-4 -15 -4 -17 -4 -27c9 -2 19 -2 28 -2h121c151 0 191 59 250 191c5 12 14 31 17 33c4 3 9 3 15 3c8 0 21 0 21 -14c0 -3 0 -5 -6 -17
l-94 -215c-7 -16 -8 -17 -31 -17h-454c-15 0 -29 0 -29 14c0 22 14 22 28 22c47 0 51 8 58 37l59 237h-167l-130 -204c-7 -11 -18 -28 -18 -42c0 -25 30 -27 39 -28c16 -1 16 -11 16 -14c0 -22 -16 -22 -21 -22c-31 0 -67 4 -99 4c-26 0 -57 -4 -82 -4c-12 0 -14 10 -14 14
c0 20 11 21 23 22c51 4 83 27 119 84zM409 346h153l65 261c4 14 4 16 4 18c0 13 -10 19 -32 19z" />
    <glyph glyph-name="OE" unicode="&#x152;" horiz-adv-x="1145" 
d="M1134 232l-94 -215c-7 -16 -8 -17 -31 -17h-389c-13 0 -31 0 -85 -10c-32 -6 -55 -10 -81 -10c-152 0 -271 106 -271 270c0 225 225 453 452 453c23 0 40 -2 75 -10c51 -10 65 -10 81 -10h367c22 0 30 0 27 -26l-19 -180c-2 -17 -3 -24 -22 -24c-10 0 -21 0 -21 17
c0 7 5 40 5 70c0 73 -19 107 -137 107h-135c-33 0 -39 0 -48 -35l-59 -239h117c89 0 116 18 137 95c5 19 5 22 23 22c6 0 21 0 21 -14c0 -4 -2 -11 -3 -15l-55 -220c-5 -18 -7 -21 -23 -21c-7 0 -21 0 -21 14c0 2 1 6 3 14c1 4 6 28 6 42c0 32 -10 47 -91 47h-123l-68 -272
c-4 -15 -4 -17 -4 -27c9 -2 19 -2 28 -2h136c153 0 195 57 255 191c5 12 14 31 17 33c4 3 9 3 15 3c8 0 21 0 21 -14c0 -3 0 -5 -6 -17zM624 179l84 339c7 29 12 48 12 88c0 32 -4 69 -89 69c-171 0 -354 -202 -354 -431c0 -127 66 -236 188 -236c74 0 121 19 159 171z" />
    <glyph glyph-name="Oslash" unicode="&#xd8;" horiz-adv-x="896" 
d="M845 641l-19 -21c45 -50 69 -114 69 -191c0 -233 -227 -449 -452 -449c-40 0 -115 7 -181 60c-19 -22 -54 -58 -82 -86c-18 -17 -19 -18 -24 -18c-10 0 -17 9 -17 16c0 5 0 7 18 24c5 6 18 19 23 25c20 20 44 44 59 61c-59 64 -70 141 -70 188c0 222 221 453 454 453
c65 0 129 -19 180 -61l79 83c22 21 23 22 28 22c9 0 17 -8 17 -16c0 -7 -5 -12 -38 -46zM275 99l495 510c-55 66 -137 66 -154 66c-79 0 -183 -37 -262 -140c-78 -101 -106 -252 -106 -319c0 -19 1 -69 27 -117zM789 582l-494 -509c54 -64 133 -65 155 -65
c111 0 202 67 244 116c106 124 122 289 122 340c0 21 0 73 -27 118z" />
    <glyph glyph-name="suppress" horiz-adv-x="309" 
d="M367 355l-232 -70c-15 -5 -17 -5 -18 -5c-12 0 -15 10 -15 20c0 7 4 13 19 18l239 71c2 0 12 4 13 4c12 0 15 -12 15 -20c0 -12 -6 -13 -21 -18z" />
    <glyph glyph-name="exclam" unicode="!" horiz-adv-x="368" 
d="M402 645l-143 -434c-6 -17 -9 -17 -24 -17c-12 0 -21 0 -21 13l75 445c8 50 51 62 70 62c23 0 48 -15 48 -45c0 -6 0 -9 -5 -24zM257 68c0 -33 -32 -68 -70 -68c-27 0 -48 19 -48 47c0 35 34 68 70 68c30 0 48 -23 48 -47z" />
    <glyph glyph-name="quotedblright" unicode="&#x201d;" 
d="M322 595c-1 -1 -19 -16 -44 -16s-48 13 -48 46c0 37 32 69 69 69c38 0 55 -30 55 -69c0 -121 -133 -240 -153 -240c-8 0 -14 8 -14 15c0 6 2 7 11 14c66 49 108 110 124 181zM528 595c-1 -1 -19 -16 -44 -16s-48 13 -48 46c0 37 32 69 69 69c38 0 55 -30 55 -69
c0 -121 -133 -240 -153 -240c-8 0 -14 8 -14 15c0 6 2 7 11 14c66 49 108 110 124 181z" />
    <glyph glyph-name="numbersign" unicode="#" horiz-adv-x="955" 
d="M615 116l-155 -290c-6 -12 -11 -20 -25 -20c-11 0 -24 8 -24 25c0 4 0 7 7 20l142 265h-185l-155 -290c-6 -12 -11 -20 -25 -20c-11 0 -24 8 -24 25c0 4 0 7 7 20l142 265h-151c-15 0 -38 0 -38 25c0 24 24 24 38 24h178l90 171h-213c-15 0 -38 0 -38 25
c0 24 24 24 38 24h240l155 289c6 12 11 20 25 20c11 0 24 -8 24 -25c0 -4 0 -7 -7 -20l-141 -264h184l155 289c6 12 11 20 25 20c11 0 24 -8 24 -25c0 -4 0 -7 -7 -20l-141 -264h151c14 0 37 0 37 -25c0 -24 -24 -24 -37 -24h-179l-90 -171h214c14 0 37 0 37 -25
c0 -24 -24 -24 -37 -24h-241zM587 165l90 171h-185l-90 -171h185z" />
    <glyph glyph-name="sterling" unicode="&#xa3;" horiz-adv-x="880" 
d="M448 329l-39 -160c-6 -24 -17 -46 -30 -67c91 -49 119 -64 168 -64c54 0 121 34 143 96c6 16 7 17 23 17c8 0 20 0 20 -12c0 -38 -74 -149 -205 -149c-21 0 -54 3 -101 24c-31 14 -55 30 -85 45c-29 -31 -91 -69 -157 -69c-41 0 -78 15 -78 50c0 42 54 99 146 99
c33 0 43 -3 69 -11c8 23 12 39 27 97c8 35 17 69 26 104h-62c-16 0 -26 0 -26 12c0 24 11 24 29 24h68l38 155c26 105 129 186 227 186c89 0 139 -66 139 -141c0 -26 -4 -86 -54 -86c-22 0 -36 14 -36 34c0 1 0 43 48 49c0 98 -61 116 -97 116c-52 0 -106 -42 -132 -97
c-17 -40 -33 -105 -59 -216h91c15 0 27 0 27 -12c0 -24 -12 -24 -30 -24h-98zM294 79c-29 12 -57 12 -61 12c-44 0 -79 -27 -79 -51c0 -13 13 -22 33 -22c30 0 76 19 107 61z" />
    <glyph glyph-name="percent" unicode="%" horiz-adv-x="955" 
d="M939 703l-716 -746c-8 -8 -12 -13 -22 -13c-15 0 -25 12 -25 25c0 9 4 12 12 21l619 646v1c-61 -24 -104 -24 -124 -24c-52 0 -103 11 -152 43c4 -19 4 -40 4 -41c0 -128 -97 -268 -197 -268c-65 0 -113 57 -113 141c0 128 105 262 208 262c40 0 58 -20 74 -37
c40 -43 104 -73 177 -73c85 0 164 37 222 99c4 4 10 11 21 11s24 -8 24 -25c0 -10 -4 -13 -12 -22zM340 375c71 0 154 131 154 245c0 38 -13 102 -62 102c-33 0 -72 -33 -96 -79c-28 -52 -49 -141 -49 -186c0 -64 29 -82 53 -82zM903 211c0 -128 -99 -267 -196 -267
c-70 0 -114 62 -114 141c0 127 104 262 208 262c58 0 102 -50 102 -136zM708 -28c71 0 154 130 154 245c0 56 -21 102 -61 102c-96 0 -146 -193 -146 -265c0 -55 24 -82 53 -82z" />
    <glyph glyph-name="ampersand" unicode="&#x26;" horiz-adv-x="896" 
d="M771 465c31 -44 67 -96 67 -167c0 -85 -68 -318 -391 -318c-197 0 -301 101 -301 203c0 46 30 136 100 203c-8 18 -15 42 -15 73c0 128 118 255 235 255c79 0 127 -54 127 -119c0 -28 -9 -74 -53 -74c-13 0 -35 6 -35 34c0 21 15 45 46 49c-5 57 -44 82 -85 82
c-104 0 -167 -154 -167 -259c34 21 72 34 112 34c44 0 75 -25 75 -65c0 -46 -48 -92 -108 -92c-36 0 -72 13 -97 35c-26 -45 -51 -120 -51 -170c0 -117 109 -161 219 -161c308 0 346 237 346 286c0 51 -19 89 -61 146c-71 -35 -134 -67 -134 -124c0 -10 3 -18 7 -26
c8 23 28 37 49 37c18 0 36 -9 36 -35c0 -23 -19 -50 -52 -50c-38 0 -81 24 -81 76c0 72 78 115 124 141c60 33 123 68 163 151c-18 4 -28 15 -28 33c0 29 24 51 51 51c18 0 36 -11 36 -34c0 -15 -24 -119 -134 -195zM309 378c14 -32 43 -46 71 -46c43 0 65 39 65 70
c0 7 0 31 -34 31c-38 0 -77 -28 -102 -55z" />
    <glyph glyph-name="quoteright" unicode="&#x2019;" horiz-adv-x="368" 
d="M376 595c-1 -1 -19 -16 -44 -16s-48 13 -48 46c0 37 32 69 69 69c38 0 55 -30 55 -69c0 -121 -133 -240 -153 -240c-8 0 -14 8 -14 15c0 6 2 7 11 14c66 49 108 110 124 181z" />
    <glyph glyph-name="parenleft" unicode="(" horiz-adv-x="485" 
d="M328 -237c0 -1 0 -12 -13 -12c-18 0 -72 66 -97 123c-38 89 -39 165 -39 201c0 145 47 293 127 425c95 158 238 250 252 250c7 0 14 -3 14 -12c0 -6 -3 -9 -9 -13c-76 -58 -154 -136 -221 -269c-70 -141 -104 -305 -104 -416c0 -44 4 -165 78 -257c12 -15 12 -17 12 -20z
" />
    <glyph glyph-name="parenright" unicode=")" horiz-adv-x="485" 
d="M431 426c0 -117 -36 -273 -121 -415c-106 -176 -248 -260 -259 -260s-14 6 -14 12s2 7 12 15c277 211 322 570 322 683c0 92 -20 185 -79 258c-11 13 -11 15 -11 19c0 8 5 12 14 12c16 0 72 -64 101 -133c32 -79 35 -154 35 -191z" />
    <glyph glyph-name="asterisk" unicode="*" 
d="M442 510l-24 -154c-6 -37 -34 -37 -37 -37c-14 0 -24 8 -24 21c0 2 0 4 5 17l52 153l-157 -92c-5 -3 -11 -7 -19 -7c-14 0 -23 12 -23 24c0 22 20 30 30 34l160 66l-127 64c-14 7 -16 13 -16 22c0 20 21 37 37 37c7 0 9 -2 19 -10l108 -89l24 153c6 36 30 38 37 38
c13 0 24 -8 24 -21c0 -3 0 -5 -5 -18l-51 -152l135 79c13 8 33 20 40 20c11 0 23 -8 23 -24c0 -22 -18 -29 -30 -34l-160 -66l126 -63c18 -9 18 -18 18 -22c0 -19 -20 -38 -38 -38c-7 0 -10 3 -19 10z" />
    <glyph glyph-name="plus" unicode="+" horiz-adv-x="896" 
d="M529 226l-74 -299c-3 -13 -8 -28 -27 -28c-9 0 -24 7 -24 25c0 4 1 5 4 19l71 283h-283c-13 0 -37 0 -37 24c0 25 22 25 37 25h295l75 300c3 11 7 27 26 27c11 0 24 -8 24 -25c0 -4 0 -6 -4 -20l-70 -282h282c14 0 38 0 38 -25c0 -24 -25 -24 -38 -24h-295z" />
    <glyph glyph-name="comma" unicode="," horiz-adv-x="368" 
d="M228 13c-8 -6 -17 -13 -41 -13c-27 0 -48 15 -48 46c0 33 29 69 70 69c35 0 52 -28 52 -66c0 -123 -131 -243 -151 -243c-7 0 -14 8 -14 15c0 5 1 6 14 16c60 48 101 107 118 176z" />
    <glyph glyph-name="hyphen" unicode="-" horiz-adv-x="426" 
d="M351 183h-225c-15 0 -28 0 -28 14c0 4 8 33 9 35c4 16 7 16 29 16h223c15 0 28 0 28 -14c0 -4 -7 -34 -8 -34c-4 -17 -6 -17 -28 -17z" />
    <glyph glyph-name="period" unicode="." horiz-adv-x="368" 
d="M257 68c0 -33 -33 -68 -70 -68c-30 0 -48 22 -48 47c0 35 34 68 70 68c30 0 48 -22 48 -47z" />
    <glyph glyph-name="slash" unicode="/" 
d="M678 705l-589 -936c-8 -13 -12 -19 -25 -19c-11 0 -24 8 -24 25c0 7 2 10 8 20l589 936c8 13 12 19 25 19c11 0 24 -8 24 -25c0 -7 -2 -10 -8 -20z" />
    <glyph glyph-name="zero" unicode="0" 
d="M623 482c0 -61 -49 -502 -327 -502c-122 0 -158 87 -158 180c0 68 35 257 109 371c73 112 165 133 219 133c148 0 157 -131 157 -182zM303 8c42 0 112 22 157 136c29 72 93 309 93 390c0 93 -70 102 -94 102c-92 0 -139 -83 -161 -143c-24 -65 -87 -294 -87 -380
c0 -97 70 -105 92 -105z" />
    <glyph glyph-name="one" unicode="1" 
d="M509 637l-140 -559c-4 -15 -4 -17 -4 -21c0 -16 5 -16 33 -19c14 -1 32 -2 46 -2h14c15 0 28 0 28 -14c0 -22 -14 -22 -22 -22c-48 0 -102 4 -151 4s-102 -4 -150 -4c-16 0 -16 13 -16 14c0 22 13 22 30 22h14c89 0 95 10 104 45l115 461c-63 -39 -109 -43 -125 -43
c-5 0 -19 0 -19 15c0 19 11 20 24 22c85 7 147 64 185 112c11 14 12 16 21 16c14 0 15 -12 15 -14c0 -3 -1 -10 -2 -13z" />
    <glyph glyph-name="two" unicode="2" 
d="M188 82l15 2c39 0 92 -10 109 -14c35 -6 79 -14 111 -14c62 0 111 45 131 106c4 12 6 14 22 14c7 0 21 0 21 -12c0 -26 -61 -184 -183 -184c-45 0 -85 24 -112 40c-35 20 -66 35 -100 35c-30 0 -49 -35 -57 -60c-4 -14 -6 -15 -22 -15c-9 0 -21 0 -21 12
c0 4 29 159 223 253c167 80 216 166 216 274c0 91 -62 117 -108 117c-129 0 -213 -170 -213 -237c0 -15 3 -35 24 -35c63 0 106 96 106 127c0 11 -4 23 -10 33c-2 3 -5 8 -5 12c0 7 8 14 15 14c14 0 28 -36 28 -58c0 -44 -52 -156 -135 -156c-35 0 -63 23 -63 71
c0 79 101 257 255 257c110 0 186 -75 186 -177c0 -107 -71 -180 -280 -278c-20 -10 -100 -49 -153 -127z" />
    <glyph glyph-name="three" unicode="3" 
d="M342 353h39c140 0 181 128 181 190c0 77 -60 93 -101 93c-108 0 -201 -87 -201 -159c0 -14 4 -37 28 -37c28 0 63 24 63 55c0 11 -6 22 -12 30c-2 3 -4 7 -4 11c0 7 8 14 15 14c12 0 29 -30 29 -54c0 -50 -51 -84 -92 -84s-68 28 -68 69c0 85 108 183 244 183
c100 0 169 -58 169 -140c0 -87 -81 -167 -170 -195c68 -28 88 -87 88 -131c0 -122 -141 -218 -279 -218c-93 0 -158 53 -158 131c0 24 6 74 52 74c25 0 36 -17 36 -33c0 -14 -9 -44 -46 -50c6 -65 61 -94 116 -94c131 0 199 116 199 219c0 60 -35 90 -96 90h-36
c-16 0 -26 0 -26 12c0 24 13 24 30 24z" />
    <glyph glyph-name="four" unicode="4" 
d="M473 191l-43 -171c5 -2 7 -2 18 -2c7 0 37 0 73 12c8 3 10 3 13 3c10 0 18 -15 18 -20c0 -12 -17 -16 -46 -23c-23 -6 -43 -8 -62 -8c-7 0 -16 0 -23 1l-27 -107c-11 -47 -17 -70 -51 -70c-15 0 -31 8 -31 30c0 4 0 6 4 21l35 142c-94 35 -118 35 -153 35
c-70 0 -78 -6 -101 -22c-16 -12 -18 -12 -22 -12c-9 0 -17 16 -17 20c0 7 7 21 39 36c15 7 100 72 179 182c82 115 136 247 172 384c3 12 11 42 44 42c20 0 32 -14 32 -30c0 -6 -37 -190 -174 -377c-60 -81 -116 -137 -175 -187h36c25 0 51 0 149 -35l41 162
c4 15 11 45 45 45c10 0 31 -6 31 -30c0 -5 0 -7 -4 -21z" />
    <glyph glyph-name="five" unicode="5" 
d="M323 565l-47 -189c40 27 89 42 138 42c93 0 154 -67 154 -163c0 -150 -147 -275 -287 -275c-89 0 -155 57 -155 144c0 14 0 83 56 83c21 0 37 -13 37 -35c0 -12 -8 -47 -51 -52c3 -74 58 -108 114 -108c42 0 103 20 149 85c45 62 60 169 60 196c0 45 -19 97 -79 97
c-89 0 -141 -53 -158 -70c-6 -7 -10 -7 -15 -7c-8 0 -18 3 -18 14c0 3 1 6 3 13l76 305c3 13 6 19 15 19c3 0 8 -3 12 -5c41 -18 84 -27 133 -27c47 0 97 9 142 26c15 6 17 6 19 6c7 0 12 -6 12 -12c0 -20 -58 -54 -83 -66c-56 -28 -106 -34 -137 -34c-28 0 -63 5 -90 13z
" />
    <glyph glyph-name="six" unicode="6" 
d="M254 334c26 32 78 91 161 91c124 0 164 -105 164 -163c0 -151 -140 -282 -278 -282c-161 0 -161 163 -161 194c0 54 12 221 127 354c71 82 164 136 256 136c72 0 114 -31 114 -82c0 -39 -20 -65 -52 -65c-30 0 -36 23 -36 33c0 1 1 40 43 49c-11 27 -37 36 -71 36
c-61 0 -123 -39 -167 -88c-56 -64 -81 -140 -100 -213zM303 12c68 0 111 47 127 68c51 66 69 206 69 221c0 28 -9 96 -90 96c-57 0 -107 -39 -139 -83c-54 -78 -57 -184 -57 -198c0 -67 36 -104 90 -104z" />
    <glyph glyph-name="seven" unicode="7" 
d="M159 447l103 202c8 14 9 15 24 15c8 0 20 0 20 -12c0 -3 -13 -31 -21 -47c56 46 111 59 146 59c36 0 49 -21 59 -61c7 -32 11 -51 35 -51c55 0 106 65 131 97c12 14 13 15 27 15c9 0 21 0 21 -12c0 -3 0 -5 -16 -25c-131 -178 -220 -383 -276 -597
c-3 -12 -13 -50 -55 -50c-22 0 -38 15 -38 36c0 9 22 115 105 278c42 81 86 148 147 239c-16 -6 -23 -9 -47 -9c-26 0 -40 11 -62 36c-15 18 -23 28 -44 28c-39 0 -148 -21 -224 -161c-4 -8 -10 -8 -20 -8s-21 0 -21 12c0 5 4 12 6 16z" />
    <glyph glyph-name="eight" unicode="8" 
d="M453 358l37 -27c32 -23 76 -55 76 -128c0 -119 -131 -223 -268 -223c-98 0 -183 51 -183 140c0 99 97 181 205 219c-56 41 -89 65 -89 129c0 103 112 196 233 196c78 0 159 -39 159 -121c0 -111 -129 -167 -170 -185zM426 378c117 55 143 126 143 166
c0 55 -45 91 -108 91c-84 0 -167 -59 -167 -126c0 -37 20 -51 53 -75c15 -11 49 -36 79 -56zM347 319c-113 -47 -171 -133 -171 -200c0 -66 55 -107 125 -107c100 0 196 73 196 154c0 46 -27 66 -56 86c-14 11 -51 37 -94 67z" />
    <glyph glyph-name="nine" unicode="9" 
d="M508 311c-23 -29 -77 -91 -160 -91c-129 0 -165 112 -165 163c0 151 142 281 284 281c129 0 156 -109 156 -191c0 -49 -15 -198 -94 -315c-70 -103 -171 -178 -277 -178c-18 0 -127 0 -127 83c0 35 18 64 52 64c30 0 36 -23 36 -33c0 -9 -6 -40 -41 -49
c17 -32 63 -33 82 -33c50 0 189 32 254 299zM353 248c62 0 113 46 138 83c56 81 59 184 59 203c0 66 -35 101 -84 101c-83 0 -132 -65 -147 -88c-33 -54 -56 -177 -56 -203c0 -13 1 -96 90 -96z" />
    <glyph glyph-name="colon" unicode=":" horiz-adv-x="368" 
d="M336 384c0 -33 -33 -68 -70 -68c-30 0 -48 22 -48 47c0 35 34 68 70 68c30 0 48 -22 48 -47zM257 68c0 -33 -33 -68 -70 -68c-30 0 -48 22 -48 47c0 35 34 68 70 68c30 0 48 -22 48 -47z" />
    <glyph glyph-name="semicolon" unicode=";" horiz-adv-x="368" 
d="M336 384c0 -33 -33 -68 -70 -68c-30 0 -48 22 -48 47c0 35 34 68 70 68c30 0 48 -22 48 -47zM217 7c-9 -4 -20 -7 -30 -7c-27 0 -48 15 -48 46c0 33 29 69 70 69c33 0 44 -25 44 -56c0 -127 -124 -253 -143 -253c-7 0 -14 8 -14 15c0 5 1 6 13 16c30 27 85 82 108 170z
" />
    <glyph glyph-name="exclamdown" unicode="&#xa1;" horiz-adv-x="368" 
d="M353 453c0 -35 -34 -68 -70 -68c-29 0 -48 22 -48 47c0 33 32 68 70 68c27 0 48 -19 48 -47zM90 -145l143 434c6 17 9 17 24 17c12 0 21 0 21 -13l-75 -445c-8 -50 -51 -62 -70 -62c-23 0 -48 15 -48 45c0 6 0 9 5 24z" />
    <glyph glyph-name="equal" unicode="=" horiz-adv-x="896" 
d="M852 336h-628c-15 0 -38 0 -38 25c0 24 24 24 38 24h628c14 0 37 0 37 -25c0 -24 -24 -24 -37 -24zM797 116h-628c-15 0 -38 0 -38 25c0 24 24 24 38 24h628c14 0 37 0 37 -25c0 -24 -24 -24 -37 -24z" />
    <glyph glyph-name="questiondown" unicode="&#xbf;" 
d="M470 453c0 -35 -34 -68 -70 -68c-29 0 -48 22 -48 47c0 33 32 68 70 68c27 0 48 -19 48 -47zM456 -14c-4 1 -28 6 -28 34c0 26 23 49 49 49c22 0 36 -14 36 -34c0 -50 -96 -249 -263 -249c-84 0 -142 55 -142 130c0 92 76 146 112 171l75 52c28 19 72 49 82 57
c9 7 25 28 25 50c0 21 -11 32 -31 32c-34 0 -71 -29 -83 -64c-5 -15 -5 -16 -22 -16c-11 0 -21 0 -21 13c0 26 48 95 127 95c53 0 71 -40 71 -74c0 -64 -43 -93 -94 -129c-33 -22 -130 -89 -144 -100c-31 -25 -55 -61 -55 -102c0 -54 45 -87 101 -87c70 0 153 53 205 172z
" />
    <glyph glyph-name="question" unicode="?" 
d="M528 428l-171 -117c-17 -12 -33 -36 -33 -57s11 -32 31 -32c34 0 71 29 83 64c5 15 5 16 22 16c10 0 21 0 21 -12c0 -26 -47 -96 -127 -96c-53 0 -71 40 -71 74c0 55 41 93 56 103l171 117c9 6 66 48 66 111c0 54 -45 87 -101 87c-70 0 -153 -53 -205 -172
c4 -1 28 -6 28 -34c0 -26 -23 -49 -49 -49c-22 0 -36 14 -36 34c0 50 96 249 263 249c84 0 142 -55 142 -130c0 -80 -65 -139 -90 -156zM374 68c0 -33 -32 -68 -70 -68c-27 0 -48 19 -48 47c0 35 34 68 70 68c30 0 48 -23 48 -47z" />
    <glyph glyph-name="at" unicode="@" horiz-adv-x="896" 
d="M773 457l-62 -246c-4 -16 -4 -23 -4 -29c0 -14 1 -27 18 -27c99 0 130 247 130 279c0 143 -96 242 -236 242c-199 0 -405 -202 -405 -416c0 -135 85 -242 241 -242c145 0 268 47 310 64c5 2 7 2 24 2c18 0 28 0 28 -12c0 -5 -4 -9 -8 -11c-20 -8 -177 -71 -355 -71
c-187 0 -282 129 -282 272c0 226 222 442 448 442c169 0 277 -120 277 -272c0 -62 -44 -305 -177 -305c-39 0 -80 19 -85 64c-55 -48 -109 -64 -153 -64c-94 0 -165 67 -165 168c0 138 134 272 268 272c84 0 123 -56 135 -84h27c17 0 28 0 28 -13zM654 278l36 144
c2 8 3 11 3 14c0 17 -23 103 -107 103c-96 0 -198 -133 -198 -258c0 -68 33 -126 96 -126c79 0 160 82 170 123z" />
    <glyph glyph-name="A" unicode="A" horiz-adv-x="865" 
d="M216 118l359 574c10 16 14 21 35 21c23 0 23 -5 26 -27l77 -617c3 -25 4 -33 55 -33c16 0 29 0 29 -14c0 -22 -16 -22 -21 -22c-32 0 -71 4 -104 4c-38 0 -81 -4 -118 -4c-14 0 -15 12 -15 14c0 22 12 22 28 22c31 0 53 7 60 25l-21 170h-275c-24 -40 -24 -42 -52 -84
c-34 -53 -42 -67 -42 -82c0 -22 20 -28 39 -29c4 0 16 -1 16 -14c0 -22 -14 -22 -20 -22c-31 0 -67 4 -99 4c-26 0 -57 -4 -82 -4c-10 0 -15 9 -15 14c0 20 12 21 23 22c43 4 77 18 117 82zM354 267h247l-41 330z" />
    <glyph glyph-name="B" unicode="B" horiz-adv-x="822" 
d="M207 77l133 531c2 7 4 15 4 23c0 16 -22 16 -56 16c-17 0 -30 0 -30 14c0 22 13 22 31 22h344c119 0 195 -63 195 -140c0 -89 -99 -164 -214 -186c86 -9 161 -61 161 -142c0 -102 -129 -215 -284 -215h-366c-16 0 -28 0 -28 14c0 22 12 22 30 22c67 0 72 8 80 41z
M359 369h160c124 0 219 88 219 174c0 47 -31 104 -120 104h-151c-33 0 -39 0 -48 -35zM307 36h160c110 0 215 83 215 186c0 67 -44 119 -124 119h-206l-69 -276c-4 -15 -4 -17 -4 -27c9 -2 19 -2 28 -2z" />
    <glyph glyph-name="C" unicode="C" horiz-adv-x="838" 
d="M910 678l-60 -241c-5 -20 -8 -20 -24 -20c-9 0 -21 0 -21 13c0 12 4 31 4 45c0 95 -50 192 -169 192c-103 0 -207 -59 -268 -134c-93 -116 -109 -253 -109 -305c0 -160 116 -212 210 -212c103 0 240 74 285 225c3 12 9 12 21 12c11 0 21 0 21 -13c0 -1 -14 -92 -115 -176
c-53 -43 -135 -84 -227 -84c-162 0 -287 108 -287 278c0 231 232 445 460 445c71 0 130 -26 171 -77c8 -10 8 -11 9 -11s7 7 9 9l61 69c7 7 9 10 17 10c14 0 14 -11 14 -12c0 -3 -1 -7 -2 -13z" />
    <glyph glyph-name="D" unicode="D" horiz-adv-x="881" 
d="M206 77l133 531c2 7 4 15 4 23c0 16 -22 16 -56 16c-17 0 -30 0 -30 14c0 22 13 22 31 22h343c140 0 247 -98 247 -257c0 -227 -213 -426 -417 -426h-337c-16 0 -28 0 -28 14c0 22 12 22 30 22c67 0 72 8 80 41zM421 612l-136 -547c-4 -15 -4 -17 -4 -27
c9 -2 19 -2 28 -2h136c70 0 170 25 248 121c67 83 98 228 98 300c0 151 -111 190 -194 190h-128c-33 0 -39 0 -48 -35z" />
    <glyph glyph-name="E" unicode="E" horiz-adv-x="793" 
d="M781 232l-94 -215c-7 -16 -8 -17 -31 -17h-534c-16 0 -28 0 -28 14c0 22 11 22 32 22c65 0 70 8 79 44l131 524c2 7 4 15 4 23c0 16 -22 16 -56 16c-17 0 -30 0 -30 14c0 22 13 22 31 22h519c22 0 30 0 27 -26l-19 -180c-2 -17 -3 -24 -22 -24c-10 0 -21 0 -21 17
c0 2 5 48 5 67c0 83 -33 110 -151 110h-153c-33 0 -39 0 -48 -35l-59 -237h99c86 0 109 19 129 93c5 21 6 24 23 24c7 0 21 0 21 -14c0 -3 -1 -10 -2 -13l-56 -223c-4 -16 -6 -20 -23 -20c-6 0 -21 0 -21 14c0 2 0 3 3 12c7 29 7 42 7 47c0 28 -6 44 -83 44h-106l-67 -270
c-4 -15 -4 -17 -4 -27c9 -2 19 -2 28 -2h161c157 0 202 58 262 191c5 12 14 31 17 33c4 3 9 3 15 3c8 0 21 0 21 -14c0 -3 0 -5 -6 -17z" />
    <glyph glyph-name="F" unicode="F" horiz-adv-x="763" 
d="M351 322l-62 -250c-4 -14 -4 -16 -4 -18c0 -13 8 -14 29 -16c18 -2 26 -2 43 -2h9c15 0 28 0 28 -14c0 -22 -14 -22 -22 -22c-45 0 -96 4 -142 4c-39 0 -83 -4 -121 -4c-13 0 -15 10 -15 14c0 22 11 22 32 22c65 0 70 8 79 44l131 524c2 7 4 15 4 23c0 16 -22 16 -56 16
c-17 0 -30 0 -30 14c0 22 13 22 31 22h505c22 0 30 0 27 -26l-19 -180c-2 -17 -3 -24 -22 -24c-10 0 -21 0 -21 17c0 4 5 45 5 68c0 79 -27 109 -145 109h-145c-33 0 -39 0 -48 -35l-62 -250h95c82 0 107 18 127 94c4 19 5 23 23 23c9 0 21 0 21 -15c0 -3 -1 -5 -4 -18
l-54 -217c-4 -17 -7 -20 -23 -20c-9 0 -21 0 -21 15c0 3 1 7 3 12c3 14 7 33 7 47c0 27 -7 43 -81 43h-102z" />
    <glyph glyph-name="G" unicode="G" horiz-adv-x="903" 
d="M911 678l-60 -241c-5 -20 -8 -20 -24 -20c-9 0 -21 0 -21 13c0 12 4 31 4 45c0 95 -50 192 -169 192c-93 0 -195 -49 -263 -127c-96 -112 -115 -257 -115 -310c0 -152 109 -214 219 -214c30 0 85 5 131 27c60 30 69 64 76 89c7 29 20 80 20 87c0 16 -5 16 -33 19
c-14 1 -32 2 -46 2h-14c-15 0 -28 0 -28 14c0 22 14 22 22 22c49 0 102 -4 152 -4c33 0 71 4 103 4c10 0 15 -8 15 -14c0 -22 -15 -22 -21 -22c-33 -1 -49 -1 -58 -14c-6 -7 -13 -39 -22 -75c-5 -19 -33 -137 -37 -144c-3 -7 -9 -7 -10 -7c-10 0 -29 25 -40 54
c-33 -36 -113 -74 -231 -74c-173 0 -290 115 -290 278c0 230 231 445 461 445c66 0 127 -23 171 -79c7 -8 8 -9 9 -9s7 7 9 9l61 69c7 7 9 10 17 10c14 0 14 -11 14 -12c0 -3 -1 -7 -2 -13z" />
    <glyph glyph-name="H" unicode="H" horiz-adv-x="865" 
d="M830 604l-134 -537c0 -1 -3 -13 -3 -17c0 -14 30 -14 57 -14c17 0 29 0 29 -14c0 -22 -14 -22 -21 -22c-38 0 -82 4 -121 4s-81 -4 -119 -4c-13 0 -15 10 -15 14c0 22 12 22 30 22c67 0 72 8 80 41l65 260h-323l-68 -270c0 -1 -3 -13 -3 -17c0 -14 30 -14 57 -14
c17 0 29 0 29 -14c0 -22 -14 -22 -21 -22c-38 0 -82 4 -121 4s-81 -4 -119 -4c-13 0 -15 10 -15 14c0 22 12 22 30 22c67 0 72 8 80 41l133 531c2 7 4 15 4 23c0 16 -22 16 -56 16c-17 0 -30 0 -30 14c0 22 16 22 21 22c39 0 82 -4 122 -4c39 0 81 4 119 4c8 0 15 -5 15 -14
c0 -22 -11 -22 -31 -22c-65 0 -71 -7 -79 -40l-58 -234h323l59 238c4 14 4 16 4 20c0 16 -22 16 -56 16c-17 0 -30 0 -30 14c0 22 16 22 21 22c39 0 82 -4 122 -4c39 0 81 4 119 4c8 0 15 -5 15 -14c0 -22 -11 -22 -31 -22c-65 0 -71 -7 -80 -43z" />
    <glyph glyph-name="I" unicode="I" horiz-adv-x="454" 
d="M421 606l-133 -533c-4 -14 -4 -16 -4 -20c0 -10 0 -13 23 -15c17 -2 36 -2 38 -2c17 0 29 0 29 -14c0 -22 -15 -22 -21 -22c-40 0 -85 4 -126 4c-40 0 -84 -4 -124 -4c-14 0 -15 12 -15 14c0 22 11 22 33 22c68 0 74 8 82 41l133 531c2 7 4 15 4 23c0 16 -26 16 -61 16
c-17 0 -30 0 -30 14c0 22 16 22 22 22c40 0 84 -4 125 -4c40 0 85 4 124 4c10 0 16 -5 16 -15c0 -21 -12 -21 -32 -21c-72 0 -75 -9 -83 -41z" />
    <glyph glyph-name="J" unicode="J" horiz-adv-x="617" 
d="M599 608l-117 -470c-20 -81 -114 -158 -217 -158c-81 0 -136 46 -136 109c0 53 32 72 59 72c35 0 41 -27 41 -38c0 -16 -11 -52 -55 -57c12 -40 52 -58 89 -58c56 0 120 60 140 141l114 457c4 15 4 17 4 21c0 12 -1 15 -28 18c-18 2 -29 2 -46 2h-11c-15 0 -28 0 -28 14
c0 22 14 22 22 22c45 0 96 -4 142 -4c32 0 68 4 99 4c11 0 14 -10 14 -14c0 -22 -13 -22 -25 -22c-48 0 -53 -5 -61 -39z" />
    <glyph glyph-name="K" unicode="K" horiz-adv-x="895" 
d="M567 413l167 -341c12 -24 23 -35 60 -36c10 0 23 0 23 -14c0 -16 -8 -22 -19 -22c-27 0 -60 4 -88 4c-38 0 -80 -4 -117 -4c-9 0 -15 6 -15 15c0 21 14 21 23 21c10 0 43 1 43 25c0 1 0 7 -6 18l-139 283l-169 -125l-36 -143c-4 -15 -10 -39 -10 -44c0 -14 30 -14 57 -14
c17 0 29 0 29 -14c0 -22 -14 -22 -21 -22c-38 0 -82 4 -121 4s-81 -4 -119 -4c-13 0 -15 10 -15 14c0 22 12 22 30 22c67 0 72 8 80 41l133 531c2 7 4 15 4 23c0 16 -22 16 -56 16c-17 0 -30 0 -30 14c0 22 16 22 21 22c39 0 82 -4 122 -4c39 0 81 4 119 4c8 0 15 -5 15 -14
c0 -22 -11 -22 -31 -22c-65 0 -71 -7 -79 -40l-78 -312l394 290c4 3 7 6 10 9c2 2 4 3 6 6c8 6 24 20 24 33c0 6 -3 13 -20 14c-2 0 -16 1 -16 14c0 22 16 22 22 22c37 0 79 -4 117 -4c22 0 49 4 70 4c3 0 13 -3 13 -14c0 -20 -10 -21 -21 -22c-54 -5 -109 -38 -170 -83z
" />
    <glyph glyph-name="L" unicode="L" horiz-adv-x="734" 
d="M421 603l-134 -538c-4 -15 -4 -17 -4 -27c9 -2 19 -2 28 -2h106c168 0 215 111 248 195c10 25 11 26 14 29s9 3 14 3c7 0 21 0 21 -15c0 -5 -3 -12 -5 -17l-80 -213c-7 -17 -8 -18 -31 -18h-476c-16 0 -28 0 -28 14c0 22 12 22 30 22c67 0 72 8 80 41l133 531
c2 7 4 15 4 23c0 16 -22 16 -56 16c-17 0 -30 0 -30 14c0 22 16 22 21 22c39 0 83 -4 123 -4c46 0 96 4 141 4c10 0 16 -5 16 -15c0 -21 -13 -21 -30 -21h-10c-81 0 -87 -10 -95 -44z" />
    <glyph glyph-name="M" unicode="M" horiz-adv-x="1042" 
d="M1001 604l-134 -537c0 -1 -3 -13 -3 -17c0 -14 30 -14 57 -14c17 0 29 0 29 -14c0 -22 -15 -22 -20 -22c-37 0 -78 4 -116 4c-37 0 -78 -4 -114 -4c-13 0 -15 10 -15 14c0 22 12 22 30 22c67 0 72 8 80 41l138 554h-1l-395 -609c-9 -14 -14 -22 -33 -22
c-17 0 -20 7 -23 25l-89 596l-1 1l-130 -524c-1 -3 -3 -14 -3 -22c0 -27 17 -39 60 -40c5 0 18 -1 18 -14c0 -22 -15 -22 -20 -22c-32 0 -69 4 -102 4s-69 -4 -101 -4c-10 0 -14 7 -14 14c0 15 6 21 18 22c42 2 84 9 100 72l125 500c2 7 4 15 4 23c0 16 -22 16 -56 16
c-17 0 -30 0 -30 14c0 22 13 22 31 22h135c23 0 29 0 33 -25l84 -569l373 575c11 17 14 19 40 19h128c17 0 28 0 28 -14c0 -22 -11 -22 -31 -22c-65 0 -71 -7 -80 -43z" />
    <glyph glyph-name="N" unicode="N" horiz-adv-x="865" 
d="M822 572l-138 -553c-4 -16 -5 -19 -25 -19c-15 0 -18 1 -25 16l-253 583l-125 -501c-1 -3 -3 -14 -3 -22c0 -27 17 -39 60 -40c5 0 18 -1 18 -14c0 -22 -15 -22 -20 -22c-32 0 -69 4 -102 4s-69 -4 -101 -4c-10 0 -14 7 -14 14c0 15 6 21 18 22c41 2 84 9 100 72l132 531
c0 8 -53 8 -59 8c-17 0 -30 0 -30 14c0 22 13 22 31 22h122c21 0 24 0 32 -18l227 -525l111 441c4 16 4 22 4 26c0 21 -8 38 -60 40c-5 0 -19 1 -19 14c0 22 16 22 21 22c32 0 69 -4 102 -4c32 0 69 4 100 4c9 0 15 -5 15 -14c0 -15 -7 -21 -18 -22c-57 -2 -87 -18 -101 -75
z" />
    <glyph glyph-name="O" unicode="O" horiz-adv-x="896" 
d="M895 429c0 -233 -227 -449 -452 -449c-165 0 -274 115 -274 270c0 222 221 453 454 453c156 0 272 -107 272 -274zM451 13c203 0 354 250 354 449c0 156 -104 209 -190 209c-190 0 -350 -210 -350 -441c0 -159 97 -217 186 -217z" />
    <glyph glyph-name="P" unicode="P" horiz-adv-x="793" 
d="M350 310l-61 -243c0 -1 -3 -13 -3 -17c0 -14 30 -14 57 -14c17 0 29 0 29 -14c0 -22 -14 -22 -21 -22c-38 0 -82 4 -121 4s-81 -4 -119 -4c-13 0 -15 10 -15 14c0 22 11 22 32 22c65 0 70 8 79 44l132 531c4 14 4 16 4 20c0 16 -22 16 -56 16c-17 0 -30 0 -30 14
c0 22 13 22 31 22h330c123 0 205 -67 205 -154c0 -113 -142 -219 -298 -219h-175zM421 612l-67 -270h156c51 0 106 10 153 47c45 36 66 114 66 159c0 35 -10 99 -143 99h-117c-33 0 -39 0 -48 -35z" />
    <glyph glyph-name="Q" unicode="Q" horiz-adv-x="896" 
d="M583 7c12 -79 29 -104 72 -104c32 0 95 19 122 98c1 5 4 13 14 13c7 0 14 -6 14 -14c0 -16 -52 -194 -174 -194c-87 0 -90 81 -90 126c0 20 1 42 2 62c-42 -12 -77 -14 -100 -14c-165 0 -274 115 -274 270c0 222 221 453 454 453c156 0 272 -107 272 -274
c0 -173 -129 -352 -312 -422zM379 25c-4 9 -4 20 -4 25c0 56 55 101 107 101c65 0 85 -51 96 -106c179 94 228 306 228 409c0 161 -102 217 -191 217c-204 0 -357 -242 -357 -445c0 -49 11 -159 121 -201zM544 30c0 58 -13 93 -61 93c-42 0 -80 -37 -80 -72
c0 -39 32 -39 48 -39c35 0 69 9 93 18z" />
    <glyph glyph-name="R" unicode="R" horiz-adv-x="852" 
d="M592 340c28 -10 91 -41 91 -116c0 -23 -5 -59 -8 -83c-3 -26 -6 -45 -6 -72c0 -31 3 -61 41 -61s68 43 80 83c5 16 6 19 23 19c6 0 21 0 21 -14c0 -18 -39 -116 -127 -116c-62 0 -136 26 -136 109c0 18 10 58 18 87c5 21 12 49 12 63c0 46 -36 89 -119 89h-132l-65 -261
c0 -1 -3 -13 -3 -17c0 -14 30 -14 57 -14c17 0 29 0 29 -14c0 -22 -15 -22 -20 -22c-38 0 -81 4 -120 4c-38 0 -80 -4 -117 -4c-13 0 -15 10 -15 14c0 22 12 22 30 22c67 0 72 8 80 41l133 531c2 7 4 15 4 23c0 16 -22 16 -56 16c-17 0 -30 0 -30 14c0 22 13 22 31 22h289
c132 0 233 -64 233 -153c0 -97 -121 -168 -218 -190zM484 356c208 0 231 140 231 189c0 31 -8 60 -47 81c-37 19 -87 21 -110 21h-89c-33 0 -39 0 -48 -35l-63 -256h126z" />
    <glyph glyph-name="S" unicode="S" horiz-adv-x="661" 
d="M705 678l-50 -202c-5 -20 -9 -20 -24 -20c-10 0 -21 0 -21 13c0 7 4 19 4 52c0 20 0 75 -38 113c-31 31 -74 37 -103 37c-99 0 -186 -83 -186 -163c0 -19 4 -47 33 -73c19 -16 32 -19 93 -34c19 -4 86 -21 96 -24c58 -17 107 -71 107 -149c0 -118 -117 -248 -262 -248
c-117 0 -161 49 -179 70l-46 -56c-12 -13 -13 -14 -20 -14c-8 0 -15 3 -15 12c0 3 2 11 3 14l50 201c5 20 8 20 24 20c8 0 20 0 20 -12c0 -3 -1 -10 -1 -11c-6 -24 -6 -42 -6 -48c0 -121 113 -140 173 -140c102 0 191 91 191 180c0 83 -64 99 -104 108c-12 4 -45 11 -57 15
c-47 11 -6 0 -51 12c-80 21 -117 81 -117 144c0 112 118 228 256 228c18 0 105 0 153 -70l48 60c8 10 12 10 17 10c14 0 14 -11 14 -12c0 -3 -1 -8 -2 -13z" />
    <glyph glyph-name="T" unicode="T" horiz-adv-x="838" 
d="M613 607l-132 -529c-4 -15 -4 -17 -4 -21c0 -12 0 -16 31 -19c3 0 34 -2 50 -2h15c16 0 28 0 28 -14c0 -22 -14 -22 -22 -22c-52 0 -108 4 -160 4s-106 -4 -157 -4c-8 0 -17 3 -17 14c0 22 12 22 30 22h16c91 0 97 10 106 48l131 524c3 13 4 21 4 30c-9 2 -19 2 -28 2
h-74c-127 0 -151 -53 -193 -167c-9 -26 -10 -27 -26 -27c-6 0 -21 0 -21 14c0 5 2 11 4 15l65 183c6 18 9 18 31 18h587c15 0 28 0 28 -14c0 -3 0 -5 -1 -14l-26 -179c-3 -22 -9 -23 -23 -23c-7 0 -21 0 -21 15c0 1 0 3 3 19c5 39 7 67 7 77c0 78 -39 83 -147 83
c-19 0 -50 0 -56 -1c-14 -1 -21 -2 -28 -32z" />
    <glyph glyph-name="U" unicode="U" horiz-adv-x="865" 
d="M822 572l-88 -355c-26 -105 -145 -237 -294 -237c-114 0 -205 76 -205 194c0 9 0 28 7 55l95 379c2 7 4 15 4 23c0 16 -22 16 -56 16c-17 0 -30 0 -30 14c0 22 16 22 21 22c39 0 82 -4 122 -4c39 0 81 4 119 4c8 0 15 -5 15 -14c0 -22 -11 -22 -31 -22
c-65 0 -71 -7 -79 -40l-97 -389c-4 -15 -9 -44 -9 -70c0 -104 74 -132 128 -132c111 0 221 95 250 213l88 352c4 16 4 22 4 26c0 21 -8 38 -60 40c-5 0 -19 1 -19 14c0 22 16 22 21 22c31 0 68 -4 100 -4s68 4 98 4c9 0 15 -5 15 -14c0 -15 -7 -21 -18 -22
c-56 -2 -87 -17 -101 -75z" />
    <glyph glyph-name="V" unicode="V" horiz-adv-x="865" 
d="M834 564l-371 -563c-10 -15 -14 -21 -36 -21c-19 0 -24 3 -27 25l-96 610c-4 25 -5 32 -53 32c-16 0 -27 0 -27 15c0 21 15 21 20 21c31 0 68 -4 101 -4c38 0 80 4 117 4c10 0 16 -7 16 -14c0 -22 -13 -22 -28 -22s-58 -3 -58 -27c0 -2 2 -10 2 -13l81 -519l322 490
c1 2 7 10 7 11c1 2 1 3 3 7c3 5 8 15 8 24c0 24 -30 27 -38 27c-2 0 -16 1 -16 14c0 19 11 22 20 22c31 0 68 -4 100 -4c24 0 54 4 77 4c10 0 15 -9 15 -14c0 -20 -12 -21 -22 -22c-43 -4 -75 -19 -117 -83z" />
    <glyph glyph-name="W" unicode="W" horiz-adv-x="1159" 
d="M1141 565l-331 -565c-11 -18 -18 -20 -34 -20c-17 0 -23 1 -25 27l-43 508l-302 -515c-11 -18 -18 -20 -34 -20c-17 0 -23 1 -25 27l-52 610c-2 22 -3 30 -47 30c-12 0 -25 0 -25 14c0 22 15 22 20 22c29 0 65 -4 95 -4c38 0 80 4 117 4c14 0 15 -12 15 -14
c0 -22 -14 -22 -23 -22c-68 -1 -67 -23 -65 -41l43 -498l277 473c-2 18 -5 49 -6 52c-2 8 -6 14 -44 14c-12 0 -25 0 -25 14c0 22 15 22 20 22c29 0 65 -4 95 -4c38 0 80 4 117 4c14 0 15 -12 15 -14c0 -22 -14 -22 -24 -22c-62 -1 -65 -23 -65 -28l44 -511l276 470
c5 9 13 22 13 36c0 19 -18 31 -48 33c-5 0 -18 1 -18 14c0 22 15 22 20 22c34 0 73 -4 108 -4c23 0 52 4 74 4c8 0 14 -7 14 -14c0 -8 -4 -21 -15 -22c-30 -2 -67 -6 -112 -82z" />
    <glyph glyph-name="X" unicode="X" horiz-adv-x="865" 
d="M556 376l155 -314c8 -15 13 -26 65 -26c15 0 28 0 28 -14c0 -19 -11 -22 -20 -22c-32 0 -70 4 -103 4c-39 0 -82 -4 -120 -4c-13 0 -15 10 -15 14c0 20 12 21 20 22c16 1 36 6 48 24l-123 251l-207 -209c-5 -5 -10 -12 -15 -19c-7 -10 -10 -15 -10 -24
c0 -16 11 -21 26 -23c3 0 16 -2 16 -14c0 -22 -16 -22 -21 -22c-34 0 -74 4 -109 4c-28 0 -61 -4 -88 -4c-5 0 -14 4 -14 14c0 21 12 21 23 22c39 3 87 13 157 83l225 227l-134 273c-8 17 -14 28 -66 28c-16 0 -28 0 -28 14c0 22 15 22 20 22c32 0 69 -4 102 -4
c39 0 82 4 120 4c10 0 16 -7 16 -14c0 -21 -14 -22 -18 -22c-38 -3 -50 -20 -50 -25c0 -1 1 -3 5 -11l98 -199l167 170c8 8 26 26 26 43c0 16 -15 21 -26 22c-4 0 -16 2 -16 14c0 22 15 22 20 22c34 0 74 -4 109 -4c28 0 61 4 88 4c10 0 15 -9 15 -14c0 -21 -12 -21 -23 -22
c-55 -4 -99 -25 -157 -83z" />
    <glyph glyph-name="Y" unicode="Y" horiz-adv-x="865" 
d="M812 564l-263 -281c-8 -8 -9 -12 -12 -23c-3 -14 -25 -101 -30 -124c-7 -28 -20 -78 -20 -85c0 -15 26 -15 56 -15c18 0 30 0 30 -14c0 -22 -15 -22 -21 -22c-38 0 -81 4 -120 4c-38 0 -80 -4 -117 -4c-13 0 -15 10 -15 14c0 22 12 22 28 22c71 1 72 2 88 66
c20 77 31 121 43 172l-149 346c-8 19 -18 27 -65 27c-16 0 -27 0 -27 15c0 21 15 21 20 21c32 0 70 -4 104 -4c39 0 83 4 121 4c13 0 16 -10 16 -14c0 -22 -14 -22 -24 -22c-9 0 -50 0 -50 -18c0 -1 0 -3 6 -15l125 -291l241 257c4 4 4 6 8 11c3 3 3 5 7 8
c11 13 16 25 16 32c0 13 -16 15 -27 16c-8 1 -16 5 -16 14c0 22 16 22 21 22c31 0 68 -4 100 -4c25 0 55 4 78 4c10 0 15 -9 15 -14c0 -20 -12 -21 -22 -22c-57 -5 -106 -41 -145 -83z" />
    <glyph glyph-name="Z" unicode="Z" horiz-adv-x="720" 
d="M777 645l-568 -605h176c165 0 217 69 262 205c9 27 10 28 26 28c6 0 21 0 21 -14c0 -1 0 -3 -4 -13l-73 -228c-6 -18 -9 -18 -31 -18h-462c-16 0 -25 0 -25 11c0 15 10 25 16 32l568 604h-167c-153 0 -206 -64 -245 -175c-5 -16 -6 -19 -23 -19c-8 0 -21 0 -21 14
c0 6 2 13 4 18l56 178c6 19 7 20 31 20h447c16 0 25 0 25 -11c0 -13 -6 -20 -13 -27z" />
    <glyph glyph-name="bracketleft" unicode="[" horiz-adv-x="368" 
d="M383 701l-226 -902h67c17 0 28 0 28 -15c0 -4 -4 -22 -7 -26c-4 -8 -10 -8 -26 -8h-92c-15 0 -28 0 -28 14c0 4 2 11 3 15l238 951c5 20 7 20 30 20h92c15 0 28 0 28 -14c0 -5 -5 -24 -7 -28c-5 -7 -10 -7 -27 -7h-73z" />
    <glyph glyph-name="quotedblleft" unicode="&#x201c;" 
d="M343 484c6 5 23 16 44 16c27 0 48 -15 48 -46c0 -33 -29 -69 -70 -69c-35 0 -54 27 -54 69c0 122 133 240 153 240c7 0 14 -8 14 -15c0 -5 -2 -7 -9 -13c-73 -54 -112 -117 -126 -182zM549 484c6 5 23 16 44 16c27 0 48 -15 48 -46c0 -33 -29 -69 -70 -69
c-35 0 -54 27 -54 69c0 122 133 240 153 240c7 0 14 -8 14 -15c0 -5 -2 -7 -9 -13c-73 -54 -112 -117 -126 -182z" />
    <glyph glyph-name="bracketright" unicode="]" horiz-adv-x="368" 
d="M389 721l-238 -951c-5 -20 -7 -20 -30 -20h-92c-15 0 -28 0 -28 14c0 5 5 24 7 28c5 7 10 7 27 7h74l225 902h-67c-17 0 -28 0 -28 15c0 4 4 22 7 26c4 8 10 8 26 8h92c15 0 28 0 28 -14c0 -4 -2 -11 -3 -15z" />
    <glyph glyph-name="circumflex" unicode="&#x2c6;" 
d="M487 682l93 -113c8 -10 9 -10 9 -15c0 -11 -19 -25 -26 -25c-6 0 -14 7 -17 11l-85 93l-138 -97c-8 -6 -9 -6 -13 -6c-14 0 -21 19 -21 23c0 7 2 10 12 17l155 117c4 3 10 7 15 7c6 0 9 -4 16 -12z" />
    <glyph glyph-name="dotaccent" unicode="&#x2d9;" horiz-adv-x="368" 
d="M396 627c0 -35 -34 -68 -70 -68c-29 0 -48 22 -48 47c0 33 32 68 70 68c27 0 48 -19 48 -47z" />
    <glyph glyph-name="quoteleft" unicode="&#x2018;" horiz-adv-x="368" 
d="M261 484c6 5 23 16 44 16c27 0 48 -15 48 -46c0 -33 -29 -69 -70 -69c-35 0 -54 27 -54 69c0 122 133 240 153 240c7 0 14 -8 14 -15c0 -5 -2 -7 -9 -13c-73 -54 -112 -117 -126 -182z" />
    <glyph glyph-name="a" unicode="a" 
d="M547 371l-66 -264c-6 -23 -6 -25 -6 -42s4 -47 32 -47c37 0 54 59 68 111c6 25 7 27 25 27c8 0 21 0 21 -13c0 -3 -14 -63 -38 -102c-22 -36 -48 -51 -79 -51c-36 0 -83 20 -96 68c-20 -21 -73 -68 -137 -68c-74 0 -142 57 -142 164c0 146 127 287 249 287
c36 0 73 -15 98 -56c1 3 11 37 44 37c15 0 31 -8 31 -30c0 -4 0 -6 -4 -21zM414 136l42 166c2 7 3 11 3 14c0 10 -13 97 -81 97c-40 0 -88 -35 -120 -94c-28 -54 -53 -164 -53 -206c0 -52 23 -95 69 -95c15 0 46 5 87 41c23 22 45 46 53 77z" />
    <glyph glyph-name="b" unicode="b" horiz-adv-x="544" 
d="M329 665l-69 -275c23 18 65 51 119 51c79 0 142 -63 142 -163c0 -145 -126 -288 -249 -288c-72 0 -137 55 -137 161c0 13 0 36 9 72l97 386c4 14 4 16 4 22c0 9 0 16 -48 16c-13 0 -26 0 -26 14c0 21 13 22 26 23l108 9c11 1 27 2 27 -13c0 -4 -2 -11 -3 -15zM273 18
c32 0 82 26 119 96c25 47 53 159 53 205c0 48 -21 94 -68 94c-50 0 -103 -49 -133 -97c-6 -10 -43 -144 -43 -197c0 -65 30 -101 72 -101z" />
    <glyph glyph-name="c" unicode="c" horiz-adv-x="544" 
d="M485 377c-17 31 -60 36 -77 36c-43 0 -91 -23 -131 -74c-46 -58 -68 -164 -68 -211c0 -81 46 -110 96 -110s137 19 198 92c7 8 10 11 15 11c9 0 23 -16 23 -24c0 -13 -76 -107 -237 -107c-111 0 -174 78 -174 172c0 142 137 279 277 279c55 0 125 -22 125 -87
c0 -48 -33 -59 -50 -59c-25 0 -36 17 -36 33c0 17 10 41 39 49z" />
    <glyph glyph-name="d" unicode="d" 
d="M621 665l-140 -559c-1 -3 -6 -24 -6 -41s4 -47 32 -47c37 0 54 59 68 111c6 25 7 27 25 27c8 0 21 0 21 -13c0 -3 -14 -63 -38 -102c-22 -36 -48 -51 -79 -51c-36 0 -83 20 -96 68c-20 -21 -73 -68 -137 -68c-74 0 -142 57 -142 164c0 146 127 287 249 287
c42 0 76 -21 99 -56l56 227c4 14 4 16 4 19c0 9 0 16 -48 16c-13 0 -26 0 -26 14c0 21 13 22 26 23l108 9c11 1 27 2 27 -13c0 -4 -2 -11 -3 -15zM414 136l42 166c2 7 3 11 3 14c0 10 -13 97 -81 97c-40 0 -88 -35 -120 -94c-28 -54 -53 -164 -53 -206c0 -52 23 -95 69 -95
c15 0 46 5 87 41c23 22 45 46 53 77z" />
    <glyph glyph-name="e" unicode="e" horiz-adv-x="544" 
d="M287 228h-62c-7 -30 -13 -61 -13 -92c0 -63 28 -118 93 -118c50 0 137 19 198 92c7 8 10 11 15 11c9 0 23 -16 23 -24c0 -13 -77 -107 -236 -107c-108 0 -170 80 -170 185c0 176 159 266 271 266c70 0 121 -34 121 -88c0 -125 -197 -125 -240 -125zM233 256h47
c39 0 199 0 199 98c0 36 -31 59 -73 59c-12 0 -128 -2 -173 -157z" />
    <glyph glyph-name="f" unicode="f" horiz-adv-x="368" 
d="M309 395l-59 -321c-6 -34 -15 -68 -24 -102c-13 -48 -52 -176 -148 -176c-46 0 -95 22 -95 67c0 31 22 55 51 55c11 0 35 -5 35 -34c0 -4 0 -32 -32 -45c17 -15 38 -15 42 -15c22 0 51 0 91 216l65 355h-71c-16 0 -28 0 -28 14c0 22 12 22 30 22h76l24 124
c6 31 29 149 138 149c52 0 98 -24 98 -67c0 -31 -22 -55 -51 -55c-11 0 -35 5 -35 34c0 20 13 38 32 46c-12 10 -28 14 -44 14c-40 0 -50 -48 -60 -97c-5 -21 -17 -82 -28 -148h89c15 0 29 0 29 -14c0 -22 -13 -22 -31 -22h-94z" />
    <glyph glyph-name="g" unicode="g" horiz-adv-x="544" 
d="M546 371l-108 -435c-16 -63 -84 -140 -228 -140c-68 0 -132 5 -132 58c0 33 25 54 50 54c22 0 36 -14 36 -34c0 -1 0 -27 -24 -41c24 -9 59 -9 73 -9c103 0 140 82 148 103c0 2 28 110 31 123c-27 -23 -69 -50 -119 -50c-84 0 -143 69 -143 161c0 140 125 280 247 280
c39 0 74 -17 98 -54c6 20 23 35 44 35c15 0 31 -8 31 -30c0 -4 0 -6 -4 -21zM415 141l40 163l3 14c0 9 -12 95 -81 95c-33 0 -79 -25 -114 -85c-31 -53 -56 -165 -56 -207c0 -52 23 -93 69 -93c64 0 131 82 139 113z" />
    <glyph glyph-name="h" unicode="h" 
d="M329 665l-75 -299c8 9 63 75 154 75c63 0 123 -28 123 -111c0 -55 -42 -164 -60 -211c-8 -23 -17 -45 -17 -67c0 -27 11 -34 25 -34c44 0 80 55 97 117c5 18 6 21 24 21c8 0 21 0 21 -13c0 -16 -45 -153 -145 -153c-46 0 -89 30 -89 84c0 13 0 20 10 45
c17 45 64 167 64 226c0 33 -12 68 -56 68c-38 0 -75 -16 -102 -40c-48 -45 -74 -109 -77 -119c-11 -45 -22 -90 -34 -134c-8 -35 -21 -87 -22 -90c-2 -9 -10 -40 -43 -40c-18 0 -32 11 -32 30c0 5 0 7 4 21l142 567c1 5 4 19 4 23c0 9 0 16 -48 16c-13 0 -26 0 -26 14
c0 21 13 22 26 23l108 9c11 1 27 2 27 -13c0 -4 -2 -11 -3 -15z" />
    <glyph glyph-name="i" unicode="i" horiz-adv-x="368" 
d="M357 623c0 -24 -24 -48 -49 -48c-24 0 -36 17 -36 35c0 22 22 48 50 48c20 0 35 -14 35 -35zM211 247l27 69c8 21 16 41 16 63c0 31 -13 34 -25 34c-18 0 -66 -9 -99 -125c-3 -13 -9 -13 -21 -13c-8 0 -21 0 -21 13c0 18 46 153 144 153c55 0 90 -39 90 -84
c0 -13 0 -16 -6 -33c-5 -15 -55 -142 -66 -173c-13 -32 -30 -75 -30 -99c0 -10 0 -34 24 -34c51 0 84 69 97 117c5 18 6 21 24 21c8 0 21 0 21 -13c0 -16 -45 -153 -145 -153c-53 0 -89 38 -89 84c0 18 14 54 24 80c10 28 28 74 35 93z" />
    <glyph glyph-name="j" unicode="j" horiz-adv-x="368" 
d="M398 623c0 -25 -24 -48 -49 -48c-24 0 -36 18 -36 35c0 21 22 48 50 48c16 0 35 -10 35 -35zM191 -51l95 382c4 16 4 23 4 34c0 26 -6 48 -33 48c-32 0 -84 -26 -125 -122c-6 -14 -7 -16 -23 -16c-7 0 -21 0 -21 12c0 17 64 154 172 154c60 0 101 -41 101 -93
c0 -9 -1 -18 -5 -34l-91 -366c-22 -90 -114 -152 -198 -152c-58 0 -94 24 -94 59c0 30 23 53 50 53c22 0 36 -14 36 -34c0 -10 -7 -32 -26 -43c9 -4 23 -7 34 -7c62 0 110 70 124 125z" />
    <glyph glyph-name="k" unicode="k" horiz-adv-x="544" 
d="M329 665l-100 -400c28 12 54 31 112 88c58 58 104 88 153 88c48 0 74 -32 74 -67c0 -36 -25 -57 -51 -57c-13 0 -35 6 -35 34c0 24 17 42 38 48c-3 6 -11 14 -28 14c-50 0 -97 -43 -143 -88c-52 -52 -82 -71 -85 -73c62 -8 150 -30 150 -106c0 -6 -2 -18 -5 -33
c-6 -24 -6 -41 -6 -45c0 -37 13 -50 34 -50c45 0 68 69 80 118c5 17 6 20 24 20c8 0 21 0 21 -13c0 -3 -32 -153 -128 -153c-62 0 -101 47 -101 101c0 10 0 13 4 28c3 15 3 19 3 25c0 57 -68 77 -121 82l-47 -188c-5 -19 -12 -48 -45 -48c-18 0 -32 11 -32 30c0 5 0 7 4 21
l142 567c1 5 4 19 4 23c0 9 0 16 -48 16c-13 0 -26 0 -26 14c0 21 13 22 26 23l108 9c11 1 27 2 27 -13c0 -4 -2 -11 -3 -15z" />
    <glyph glyph-name="l" unicode="l" horiz-adv-x="309" 
d="M329 665l-140 -559c-1 -3 -6 -24 -6 -41s4 -47 32 -47c38 0 55 65 69 118c4 17 5 20 23 20c8 0 21 0 21 -13c0 -4 -13 -60 -35 -99c-27 -46 -58 -54 -81 -54c-44 0 -99 28 -99 94c0 7 0 14 5 34l123 491c2 7 4 15 4 22c0 9 0 16 -48 16c-13 0 -26 0 -26 14
c0 21 13 22 26 23l108 9c11 1 27 2 27 -13c0 -4 -2 -11 -3 -15z" />
    <glyph glyph-name="m" unicode="m" horiz-adv-x="955" 
d="M463 88l21 84c5 22 18 75 24 96c6 26 13 53 13 76c0 32 -10 69 -57 69c-53 0 -87 -28 -101 -39c-45 -38 -78 -114 -78 -115c-3 -11 -18 -73 -33 -135c-6 -22 -19 -72 -23 -89c-4 -15 -11 -45 -45 -45c-15 0 -31 8 -31 30c0 7 9 42 14 64c4 15 14 53 17 68l28 108
c8 35 21 86 21 105c0 12 0 48 -31 48s-50 -40 -67 -109c-7 -28 -8 -29 -26 -29c-8 0 -21 0 -21 13c0 6 16 67 37 100c15 25 37 53 80 53c39 0 93 -23 99 -86c23 26 74 86 163 86c46 0 114 -13 123 -96c41 53 94 96 171 96c69 0 123 -33 123 -111c0 -55 -42 -164 -60 -211
c-8 -23 -17 -45 -17 -67c0 -27 11 -34 25 -34c44 0 80 55 97 117c5 18 6 21 24 21c8 0 21 0 21 -13c0 -16 -45 -153 -145 -153c-46 0 -89 30 -89 84c0 13 0 20 10 45c17 46 64 167 64 226c0 33 -11 68 -57 68c-40 0 -75 -17 -105 -44c-41 -38 -71 -104 -73 -110
c-1 -7 -14 -57 -17 -67c-3 -15 -13 -53 -16 -68c-6 -22 -19 -72 -23 -89c-4 -15 -11 -45 -45 -45c-15 0 -31 8 -31 30c0 6 10 46 16 68z" />
    <glyph glyph-name="n" unicode="n" horiz-adv-x="661" 
d="M304 356c30 38 84 85 163 85c69 0 123 -33 123 -111c0 -55 -42 -164 -60 -211c-8 -23 -17 -45 -17 -67c0 -27 11 -34 25 -34c44 0 80 55 97 117c5 18 6 21 24 21c8 0 21 0 21 -13c0 -16 -45 -153 -145 -153c-46 0 -89 30 -89 84c0 13 0 20 10 45c17 46 64 167 64 226
c0 33 -11 68 -57 68c-40 0 -75 -17 -105 -44c-41 -38 -71 -104 -73 -110c-1 -7 -14 -57 -17 -67c-3 -15 -13 -53 -16 -68c-6 -22 -19 -72 -23 -89c-4 -15 -11 -45 -45 -45c-15 0 -31 8 -31 30c0 7 9 42 14 64c4 15 14 53 17 68l28 108c8 35 21 86 21 105c0 12 0 48 -31 48
s-50 -40 -67 -109c-7 -28 -8 -29 -26 -29c-8 0 -21 0 -21 13c0 6 16 67 37 100c15 25 37 53 80 53c40 0 92 -24 99 -85z" />
    <glyph glyph-name="o" unicode="o" 
d="M579 269c0 -139 -135 -279 -278 -279c-99 0 -171 70 -171 172c0 140 135 279 278 279c103 0 171 -75 171 -172zM302 18c53 0 109 39 140 87c43 68 58 164 58 198c0 89 -58 110 -93 110c-44 0 -95 -27 -130 -74c-48 -62 -68 -167 -68 -211c0 -96 65 -110 93 -110z" />
    <glyph glyph-name="p" unicode="p" 
d="M116 -123l113 454c4 16 4 23 4 34c0 12 0 48 -31 48s-50 -40 -67 -109c-7 -28 -8 -29 -26 -29c-8 0 -21 0 -21 13c0 6 16 67 37 100c15 25 37 53 80 53c28 0 80 -13 96 -68c19 21 72 68 137 68c78 0 142 -63 142 -164c0 -144 -126 -287 -249 -287c-54 0 -85 34 -99 56
l-37 -148c-4 -15 -9 -38 -9 -44c0 -12 27 -12 45 -12c19 0 29 0 29 -15c0 -21 -15 -21 -20 -21c-32 0 -69 4 -102 4c-27 0 -58 -4 -84 -4c-8 0 -14 5 -14 14c0 22 12 22 26 22c37 0 43 6 50 35zM294 295l-41 -165c-2 -9 -3 -11 -3 -15c0 -14 14 -97 81 -97
c27 0 78 18 121 97c24 45 52 154 52 204c0 52 -24 94 -69 94c-63 0 -132 -81 -141 -118z" />
    <glyph glyph-name="q" unicode="q" horiz-adv-x="544" 
d="M557 414l-136 -543c0 -1 -2 -13 -2 -17c0 -12 26 -12 48 -12c14 0 26 0 26 -14c0 -22 -14 -22 -20 -22c-32 0 -70 4 -104 4c-33 0 -70 -4 -102 -4c-10 0 -15 6 -15 15c0 21 13 21 26 21c62 1 63 3 76 53c6 28 32 132 36 146c-6 -5 -58 -51 -119 -51
c-76 0 -142 58 -142 164c0 146 128 287 248 287c42 0 79 -21 103 -62c16 28 55 62 66 62c7 0 14 -6 14 -14c0 -3 -1 -7 -3 -13zM414 135l41 166c2 10 3 11 3 15c0 8 -12 97 -81 97c-40 0 -90 -36 -120 -98c-29 -57 -52 -161 -52 -203c0 -48 21 -94 68 -94
c66 0 133 86 141 117z" />
    <glyph glyph-name="r" unicode="r" horiz-adv-x="500" 
d="M267 186l-27 -108c-5 -21 -14 -57 -17 -64c-4 -8 -17 -24 -39 -24c-15 0 -31 8 -31 30c0 7 9 42 14 64c4 15 14 53 17 68l28 108c8 35 21 86 21 105c0 12 0 48 -31 48s-50 -40 -67 -109c-7 -28 -8 -29 -26 -29c-8 0 -21 0 -21 13c0 6 16 67 37 100c15 25 37 53 80 53
c28 0 80 -13 96 -68c57 66 111 68 138 68c59 0 121 -18 121 -69c0 -41 -31 -55 -50 -55c-13 0 -35 6 -35 34c0 17 9 35 30 45c-23 16 -57 17 -68 17c-44 0 -73 -22 -93 -45c-44 -50 -55 -93 -61 -117c-5 -22 -11 -43 -16 -65z" />
    <glyph glyph-name="s" unicode="s" horiz-adv-x="485" 
d="M429 372c-16 36 -59 41 -82 41c-95 0 -112 -66 -112 -84c0 -41 44 -49 74 -55c54 -10 79 -15 108 -39c24 -21 37 -49 37 -79c0 -45 -39 -166 -210 -166c-92 0 -154 37 -154 97c0 42 25 62 52 62c21 0 35 -14 35 -33c0 -11 -6 -40 -41 -49c21 -43 79 -49 110 -49
c120 0 145 76 145 103c0 51 -56 61 -103 70c-37 7 -116 22 -116 103c0 39 33 147 176 147c58 0 126 -23 126 -87c0 -48 -32 -54 -44 -54c-25 0 -32 17 -32 30c0 26 26 40 31 42z" />
    <glyph glyph-name="t" unicode="t" horiz-adv-x="397" 
d="M290 395l-72 -289c-1 -3 -6 -24 -6 -41c0 -10 0 -47 34 -47c27 0 79 16 126 122c6 14 7 16 23 16c7 0 20 0 20 -12c0 -16 -64 -154 -172 -154c-52 0 -101 32 -101 94c0 7 0 14 5 34l69 277h-92c-16 0 -28 0 -28 14c0 22 12 22 30 22h99l38 152c2 9 10 42 44 42
c18 0 32 -12 32 -30c0 -4 0 -6 -4 -20l-36 -144h92c16 0 28 0 28 -14c0 -22 -12 -22 -30 -22h-99z" />
    <glyph glyph-name="u" unicode="u" horiz-adv-x="632" 
d="M581 389l-70 -282c-6 -23 -6 -25 -6 -42s4 -47 32 -47c37 0 54 59 68 111c6 25 7 27 25 27c8 0 21 0 21 -13c0 -3 -14 -63 -38 -102c-22 -36 -48 -51 -79 -51c-30 0 -78 14 -94 63c-29 -29 -64 -63 -126 -63c-56 0 -132 24 -132 124c0 39 12 85 48 179c18 48 25 64 25 87
c0 22 -8 33 -25 33c-24 0 -69 -16 -100 -125c-3 -13 -9 -13 -21 -13c-8 0 -21 0 -21 13c0 17 46 153 145 153c49 0 89 -34 89 -84c0 -19 -4 -30 -11 -49c-27 -69 -59 -152 -59 -209c0 -47 20 -81 66 -81c70 0 117 79 124 108l65 262c3 14 13 43 45 43c21 0 32 -15 32 -30
c0 -2 -1 -3 -3 -12z" />
    <glyph glyph-name="v" unicode="v" horiz-adv-x="544" 
d="M558 364c0 -72 -64 -374 -231 -374c-59 0 -144 22 -144 128c0 23 0 53 47 175c18 48 25 64 25 87c0 22 -8 33 -25 33c-24 0 -69 -16 -100 -125c-3 -13 -9 -13 -21 -13c-8 0 -21 0 -21 13c0 17 46 153 145 153c49 0 89 -34 89 -84c0 -9 0 -19 -9 -44
c-28 -71 -60 -153 -60 -208c0 -69 39 -87 77 -87c116 0 171 231 171 271c0 29 -9 55 -29 75c-5 6 -13 13 -13 27c0 25 26 51 52 51c7 0 47 -3 47 -78z" />
    <glyph glyph-name="w" unicode="w" horiz-adv-x="779" 
d="M439 173l53 215c4 14 13 43 45 43c21 0 32 -15 32 -30c0 -4 -12 -52 -19 -78c-2 -9 -2 -11 -31 -123c-12 -49 -17 -70 -17 -96c0 -74 47 -86 77 -86c46 0 82 32 110 96c18 42 47 137 47 175c0 29 -9 55 -29 75c-5 6 -13 13 -13 27c0 25 26 51 52 51c7 0 47 -3 47 -78
c0 -56 -34 -186 -65 -252c-32 -67 -78 -122 -152 -122c-32 0 -99 6 -131 64c-41 -63 -89 -64 -109 -64c-69 0 -153 27 -153 131c0 35 12 80 47 172c18 48 25 64 25 87c0 22 -8 33 -25 33c-24 0 -69 -16 -100 -125c-3 -13 -9 -13 -21 -13c-8 0 -21 0 -21 13
c0 17 46 153 145 153c49 0 89 -34 89 -84c0 -19 -4 -30 -10 -45c-35 -90 -58 -154 -58 -204c0 -52 24 -90 84 -90c10 0 36 0 61 33c13 16 32 48 33 70c0 11 1 26 7 52z" />
    <glyph glyph-name="x" unicode="x" horiz-adv-x="544" 
d="M528 396c-19 17 -45 17 -50 17c-30 0 -72 -20 -94 -107c-9 -33 -24 -95 -34 -137c-10 -40 -17 -66 -17 -86c0 -43 25 -65 57 -65c52 0 106 51 127 116c6 20 7 22 24 22c7 0 21 0 21 -12c0 -32 -64 -154 -174 -154c-50 0 -89 24 -110 62c-11 -16 -48 -62 -108 -62
c-49 0 -102 21 -102 69c0 31 22 55 51 55c11 0 35 -5 35 -34c0 -4 0 -32 -32 -45c18 -17 44 -17 49 -17c40 0 76 38 91 97l34 137c8 32 19 76 19 97c0 40 -22 64 -56 64c-35 0 -99 -29 -129 -125c-3 -12 -8 -13 -21 -13c-8 0 -21 0 -21 13c0 30 63 153 173 153
c44 0 85 -19 110 -62c18 27 55 62 109 62c24 0 101 -8 101 -69c0 -41 -31 -55 -50 -55c-13 0 -35 6 -35 34c0 6 0 31 32 45z" />
    <glyph glyph-name="y" unicode="y" horiz-adv-x="573" 
d="M580 389l-98 -396c-23 -92 -125 -197 -243 -197c-65 0 -109 37 -109 87s35 61 51 61c23 0 36 -15 36 -33c0 -16 -11 -42 -41 -49c10 -27 36 -38 64 -38c36 0 76 20 109 58c44 51 56 101 68 149c-35 -30 -68 -41 -103 -41c-59 0 -132 25 -132 124c0 38 11 84 48 179
c18 48 25 64 25 87c0 22 -8 33 -25 33c-24 0 -69 -16 -100 -125c-3 -13 -9 -13 -21 -13c-8 0 -21 0 -21 13c0 17 46 153 145 153c49 0 89 -34 89 -84c0 -19 -5 -31 -11 -48c-30 -76 -59 -155 -59 -210c0 -43 16 -81 65 -81c75 0 120 88 124 106l65 264c4 15 14 43 45 43
c21 0 32 -15 32 -30c0 -2 -1 -3 -3 -12z" />
    <glyph glyph-name="z" unicode="z" horiz-adv-x="485" 
d="M189 89c33 0 43 0 83 -12c25 -7 47 -14 70 -14c43 0 100 26 119 80c4 12 5 15 22 15c9 0 21 0 21 -13c0 -34 -67 -155 -172 -155c-34 0 -51 16 -79 43c-20 21 -31 28 -51 28c-37 0 -68 -37 -83 -59c-7 -11 -7 -12 -22 -12c-10 0 -21 0 -21 12c0 11 44 71 89 116
c38 39 88 80 109 99c89 74 98 84 138 125c-17 1 -28 2 -62 12c-26 8 -49 14 -70 14c-10 0 -64 -1 -82 -45c-4 -10 -8 -11 -21 -11c-8 0 -21 0 -21 12c0 29 53 117 134 117c34 0 53 -18 74 -40c17 -17 31 -31 53 -31c19 0 32 8 63 57c8 14 9 14 24 14c10 0 21 0 21 -12
c0 -3 -14 -59 -203 -219c-43 -36 -104 -87 -133 -121z" />
    <glyph glyph-name="endash" unicode="&#x2013;" 
d="M602 252h-470c-15 0 -28 0 -28 14s13 14 28 14h470c15 0 28 0 28 -14s-13 -14 -28 -14z" />
    <glyph glyph-name="emdash" unicode="&#x2014;" horiz-adv-x="1206" 
d="M1168 252h-999c-15 0 -28 0 -28 14s13 14 28 14h999c15 0 28 0 28 -14s-13 -14 -28 -14z" />
    <glyph glyph-name="hungarumlaut" unicode="&#x2dd;" 
d="M302 538l95 136c9 13 22 22 37 22c19 0 33 -13 33 -31c0 -15 -5 -20 -20 -36c-8 -9 -29 -30 -37 -39c-26 -29 -63 -68 -81 -85c-2 -1 -7 -3 -10 -3c-6 0 -24 9 -24 20c0 5 2 9 7 16zM478 538l95 136c9 13 22 22 37 22c19 0 33 -13 33 -31c0 -15 -5 -20 -20 -36
c-8 -9 -29 -30 -37 -39c-26 -29 -63 -68 -81 -85c-2 -1 -7 -3 -10 -3c-6 0 -24 9 -24 20c0 5 2 9 7 16z" />
    <glyph glyph-name="tilde" unicode="&#x2dc;" 
d="M640 659c0 -13 -44 -45 -59 -57c-22 -15 -56 -38 -85 -38c-28 0 -43 15 -57 36c-15 21 -23 31 -39 31c-31 0 -79 -39 -103 -59c-6 -6 -8 -8 -13 -8c-6 0 -14 4 -14 14c0 7 1 8 25 28c28 24 79 67 120 67c31 0 47 -22 58 -37c13 -18 21 -30 38 -30c28 0 75 37 94 53
c15 14 17 14 22 14c7 0 13 -6 13 -14z" />
    <glyph glyph-name="dieresis" unicode="&#xa8;" 
d="M409 629c0 -31 -30 -63 -65 -63c-32 0 -46 24 -46 45c0 30 31 63 65 63c31 0 46 -23 46 -45zM613 629c0 -30 -31 -63 -65 -63c-31 0 -46 23 -46 45c0 31 30 63 65 63c32 0 46 -24 46 -45z" />
    <glyph glyph-name="space" unicode=" " horiz-adv-x="426" 
 />
  </font>
</defs>
</svg>
