<?xml version="1.0" standalone="no"?>
<!DOCTYPE svg PUBLIC "-//W3C//DTD SVG 1.1//EN" "http://www.w3.org/Graphics/SVG/1.1/DTD/svg11.dtd" >
<svg>
<metadata>
Created by FontForge 20060822 at Fri Oct  6 18:21:24 2006
 By Wojciech Mula,,,
Copyright (C) 1997 American Mathematical Society. All Rights Reserved
</metadata>
<defs>
<font id="CMBX8" horiz-adv-x="612" >
  <font-face 
    font-family="Computer Modern"
    font-weight="700"
    font-stretch="normal"
    units-per-em="1000"
    panose-1="2 0 8 3 0 0 0 0 0 0"
    ascent="750"
    descent="-250"
    x-height="444"
    cap-height="686"
    bbox="-59 -250 1235 750"
    underline-thickness="0"
    underline-position="0"
    stemh="52"
    stemv="122"
    unicode-range="U+0020-U+FB04"
  />
    <missing-glyph />
    <glyph glyph-name="ff" unicode="ff" horiz-adv-x="714" 
d="M568 392v-340h82v-52c-77 3 -79 3 -136 3c-60 0 -70 0 -128 -3v52h66v340h-224v-340h66v-52c-58 3 -68 3 -124 3s-66 0 -124 -3v52h66v340h-79v52h79v96c0 124 155 161 282 161c18 0 85 0 131 -35c52 31 114 35 146 35c82 0 124 -45 124 -92c0 -44 -36 -66 -66 -66
c-31 0 -66 22 -66 66c0 16 5 32 16 44c2 2 2 3 2 4c0 2 -10 2 -13 2c-33 0 -63 -14 -79 -32c-27 -30 -27 -69 -27 -85v-98h129v-52h-123zM222 444h230v99c-17 12 -26 32 -26 53s8 42 25 54c-25 8 -47 9 -63 9c-93 0 -166 -35 -166 -120v-95z" />
    <glyph glyph-name="fi" unicode="fi" horiz-adv-x="680" 
d="M386 448l182 6v-402h66v-52c-58 3 -68 3 -124 3s-66 0 -124 -3v52h66v305c0 35 -6 35 -31 35h-193v-340h66v-52c-58 3 -68 3 -124 3s-66 0 -124 -3v52h66v340h-79v52h79v96c0 126 162 161 285 161c114 0 167 -61 167 -121c0 -40 -28 -69 -69 -69c-40 0 -69 28 -69 69
c0 28 13 51 38 63c-27 14 -49 16 -73 16c-80 0 -169 -28 -169 -120v-95h164v4z" />
    <glyph glyph-name="fl" unicode="fl" horiz-adv-x="680" 
d="M568 694v-642h66v-52c-58 3 -68 3 -124 3s-66 0 -124 -3v52h66v340h-224v-340h66v-52c-58 3 -68 3 -124 3s-66 0 -124 -3v52h66v340h-79v52h79v96c0 121 147 161 284 161c17 0 49 0 80 -8c14 -4 16 -4 20 -4c8 0 41 2 50 3c4 1 17 2 22 2zM222 444h230v112
c-16 11 -26 32 -26 53c0 7 2 25 12 40c1 1 3 4 3 5c0 4 -45 5 -50 5c-63 0 -169 -16 -169 -120v-95z" />
    <glyph glyph-name="ffi" unicode="ffi" horiz-adv-x="1020" 
d="M726 448l182 6v-402h66v-52c-58 3 -68 3 -124 3s-66 0 -124 -3v52h66v305c0 35 -6 35 -31 35h-193v-340h66v-52c-58 3 -68 3 -124 3s-66 0 -124 -3v52h66v340h-224v-340h66v-52c-58 3 -68 3 -124 3s-66 0 -124 -3v52h66v340h-79v52h79v96c0 126 160 161 281 161
c22 0 86 0 132 -45c55 30 122 45 212 45c114 0 167 -61 167 -121c0 -40 -28 -69 -69 -69c-40 0 -69 28 -69 69c0 28 13 51 38 63c-27 14 -49 16 -73 16c-80 0 -169 -28 -169 -120v-95h164v4zM222 444h230v77c-31 18 -33 51 -33 59c0 36 24 56 40 64c-32 15 -61 15 -71 15
c-89 0 -166 -33 -166 -120v-95z" />
    <glyph glyph-name="ffl" unicode="ffl" horiz-adv-x="1020" 
d="M908 694v-642h66v-52c-58 3 -68 3 -124 3s-66 0 -124 -3v52h66v340h-224v-340h66v-52c-58 3 -68 3 -124 3s-66 0 -124 -3v52h66v340h-224v-340h66v-52c-58 3 -68 3 -124 3s-66 0 -124 -3v52h66v340h-79v52h79v96c0 124 155 161 282 161c45 0 101 -7 137 -41
c74 39 164 41 205 41c17 0 49 0 80 -8c14 -4 16 -4 20 -4c8 0 41 2 50 3c4 1 17 2 22 2zM222 444h230v100c-24 17 -26 44 -26 52c0 26 13 44 26 54c-24 8 -51 9 -63 9c-38 0 -82 -6 -119 -29c-48 -30 -48 -73 -48 -91v-95zM562 444h230v112c-16 11 -26 32 -26 53
c0 7 2 25 12 40c1 1 3 4 3 5c0 4 -45 5 -50 5c-63 0 -169 -16 -169 -120v-95z" />
    <glyph glyph-name="Gamma" unicode="&#x393;" horiz-adv-x="734" 
d="M650 680l33 -243h-56c-15 117 -39 191 -196 191h-127v-576h135v-52c-37 3 -159 3 -203 3s-151 0 -189 -3v52h108v576h-108v52h603z" />
    <glyph glyph-name="Delta" unicode="&#x394;" horiz-adv-x="1020" 
d="M566 673l392 -654c0 -19 -7 -19 -28 -19h-840c-21 0 -28 0 -28 19l393 654c15 25 25 28 52 28h6c20 0 36 0 53 -28zM462 556l-257 -428h514z" />
    <glyph glyph-name="Theta" unicode="&#x398;" horiz-adv-x="952" 
d="M884 339c0 -193 -138 -353 -408 -353s-408 160 -408 353c0 195 136 361 408 361c271 0 408 -165 408 -361zM476 30c90 0 161 36 200 86c41 53 61 118 61 223c0 48 -3 148 -53 219c-61 84 -150 100 -208 100c-62 0 -147 -18 -205 -96c-55 -75 -56 -184 -56 -223
c0 -106 21 -173 63 -226c38 -46 107 -83 198 -83zM668 442v-196h-56v34h-272v-34h-56v196h56v-34h272v34h56z" />
    <glyph glyph-name="Lambda" unicode="&#x39b;" horiz-adv-x="854" 
d="M474 673l249 -621h86v-52c-80 3 -82 3 -163 3c-42 0 -140 0 -177 -3v52h93l-180 449l-171 -425c-3 -6 -3 -8 -5 -16c30 -8 70 -8 89 -8v-52c-79 3 -81 3 -133 3c-26 0 -79 0 -118 -3v52h19c15 0 30 1 45 3c23 2 24 3 30 18l242 600c10 24 17 28 47 28c21 0 36 0 47 -28z
" />
    <glyph glyph-name="Xi" unicode="&#x39e;" horiz-adv-x="816" 
d="M748 673l10 -203h-56c-1 19 -3 66 -16 77c-8 8 -69 8 -82 8h-392c-14 0 -71 0 -81 -7c-14 -9 -16 -61 -17 -78h-56l10 203h680zM61 0l-10 213h56c2 -49 5 -72 15 -85c6 -10 81 -10 88 -10h396c31 0 78 0 87 9c13 11 15 62 16 86h56l-10 -213h-694zM646 450v-200h-56v41
h-364v-41h-56v200h56v-41h364v41h56z" />
    <glyph glyph-name="Pi" unicode="&#x3a0;" horiz-adv-x="954" 
d="M799 628v-576h108v-52c-38 3 -139 3 -182 3c-44 0 -145 0 -183 -3v52h108v576h-346v-576h108v-52c-38 3 -139 3 -182 3c-44 0 -145 0 -183 -3v52h108v576h-108v52h860v-52h-108z" />
    <glyph glyph-name="Sigma" unicode="&#x3a3;" horiz-adv-x="884" 
d="M510 322l-293 -251h272c140 0 248 17 271 191h56l-33 -262h-680c-14 0 -35 0 -35 21c0 9 4 12 14 21l294 252l-298 342c-9 10 -10 11 -10 24c0 26 16 26 35 26h680l33 -243h-56c-25 172 -128 191 -271 191h-212l237 -271c9 -11 10 -17 10 -20c0 -9 -4 -12 -14 -21z" />
    <glyph glyph-name="Upsilon" unicode="&#x3a5;" horiz-adv-x="952" 
d="M551 344v-292h135v-52c-37 3 -165 3 -210 3s-172 0 -209 -3v52h135v292c0 45 -9 109 -42 161c-46 75 -106 75 -136 75c-85 0 -88 -17 -90 -33c-3 -19 -18 -19 -33 -19c-16 0 -33 0 -33 25c0 73 69 147 169 147c127 0 210 -109 239 -230h1c39 150 130 230 238 230
c99 0 169 -74 169 -147c0 -25 -17 -25 -33 -25c-21 0 -30 0 -33 24c-4 23 -40 28 -90 28c-32 0 -83 0 -130 -66c-29 -41 -47 -106 -47 -170z" />
    <glyph glyph-name="Phi" unicode="&#x3a6;" horiz-adv-x="884" 
d="M639 634h-135v-105c161 -6 312 -73 312 -186s-151 -180 -312 -186v-105h135v-52c-37 3 -158 3 -203 3s-166 0 -203 -3v52h135v105c-180 13 -300 87 -300 186s120 173 300 186v105h-135v52c37 -3 158 -3 203 -3s166 0 203 3v-52zM368 200v286c-117 -14 -146 -68 -146 -143
c0 -74 27 -129 146 -143zM504 487v-288c129 11 158 68 158 144c0 74 -28 133 -158 144z" />
    <glyph glyph-name="Psi" unicode="&#x3a8;" horiz-adv-x="952" 
d="M538 634v-430c62 13 89 43 103 61c33 44 39 109 39 135c1 107 37 145 98 145h72c14 0 34 0 34 -21c0 -11 -9 -19 -17 -21c-18 -2 -27 -4 -38 -25c-12 -24 -13 -52 -13 -79c0 -25 -8 -106 -74 -168c-50 -46 -133 -68 -204 -74v-105h135v-52c-37 3 -158 3 -203 3
s-166 0 -203 -3v52h135v106c-179 15 -264 106 -266 262c0 23 -5 46 -17 65c-10 15 -18 16 -33 18c-8 1 -18 8 -18 21c0 21 21 21 35 21h71c91 0 98 -98 98 -127c1 -79 11 -183 130 -213v429h-135v52c37 -3 158 -3 203 -3s166 0 203 3v-52h-135z" />
    <glyph glyph-name="Omega" unicode="&#x3a9;" horiz-adv-x="884" 
d="M830 204l-39 -204h-206c-21 0 -35 0 -35 29c0 73 33 162 54 216c29 78 52 144 52 212c0 84 -32 129 -54 149c-42 36 -94 52 -160 52c-55 0 -109 -12 -152 -46c-51 -41 -62 -105 -62 -155c0 -71 25 -139 53 -213c22 -60 53 -144 53 -215c0 -29 -13 -29 -34 -29h-207
l-39 204h56c5 -25 11 -57 18 -75c5 -11 9 -20 69 -20h73c-19 37 -39 63 -86 118c-58 67 -116 137 -116 230c0 104 89 243 374 243s374 -139 374 -243c0 -94 -57 -161 -131 -248c-34 -40 -54 -68 -71 -100h73c61 0 64 10 69 22c8 19 13 48 18 73h56z" />
    <glyph glyph-name="dotlessi" unicode="&#x131;" horiz-adv-x="340" 
d="M241 451v-399h59v-52c-49 3 -78 3 -119 3c-53 0 -64 0 -122 -3v52h66v301c0 38 -7 38 -63 38v52z" />
    <glyph glyph-name="dotlessj" unicode="&#xf6be;" horiz-adv-x="374" 
d="M98 443l189 8v-489c0 -113 -105 -163 -193 -163c-87 0 -153 34 -153 97c0 40 28 68 68 68c38 0 67 -28 67 -67c0 -20 -7 -34 -17 -46c-1 -2 -2 -3 -2 -4c0 -4 30 -6 35 -6c59 0 79 65 79 120v391c0 21 0 32 -20 36c-13 3 -35 3 -53 3v52z" />
    <glyph glyph-name="grave" unicode="`" 
d="M236 679l123 -129l-33 -45l-163 78c-9 5 -39 19 -39 54c0 31 28 67 64 67c24 0 40 -17 48 -25z" />
    <glyph glyph-name="acute" unicode="&#xb4;" 
d="M449 583l-163 -78l-32 45l124 131c13 14 28 23 46 23c36 0 64 -36 64 -67c0 -35 -30 -49 -39 -54z" />
    <glyph glyph-name="caron" unicode="&#x2c7;" 
d="M306 604l141 53l24 -50l-165 -91l-165 91l24 50z" />
    <glyph glyph-name="breve" unicode="&#x2d8;" 
d="M455 694h42c-2 -116 -96 -187 -191 -187s-189 71 -191 187h42c2 -83 85 -118 149 -118s147 35 149 118z" />
    <glyph glyph-name="macron" unicode="&#xaf;" 
d="M527 558h-442v58h442v-58z" />
    <glyph glyph-name="ring" unicode="&#x2da;" horiz-adv-x="922" 
d="M591 620c0 -33 -28 -83 -131 -83c-92 0 -130 42 -130 84c0 33 28 83 131 83c92 0 130 -42 130 -84zM461 579c48 0 74 2 74 42c0 41 -31 41 -75 41c-48 0 -74 -2 -74 -42c0 -41 31 -41 75 -41z" />
    <glyph glyph-name="cedilla" unicode="&#xb8;" horiz-adv-x="544" 
d="M367 -14v-13c31 -5 102 -19 102 -85c0 -52 -56 -71 -103 -81c-54 -10 -109 -12 -163 -12h-61v42h43c36 0 162 0 162 50c0 46 -67 50 -102 50v49h122z" />
    <glyph glyph-name="germandbls" unicode="&#xdf;" horiz-adv-x="637" 
d="M446 420c96 -43 157 -123 157 -240c0 -116 -95 -187 -225 -187c-78 0 -115 49 -115 91c0 33 23 55 54 55c29 0 54 -19 54 -54c0 -28 -17 -42 -22 -45c8 -4 11 -5 27 -5c101 0 101 113 101 144c0 123 -38 216 -165 223c-5 1 -16 4 -16 21c0 20 12 20 27 21
c79 4 120 43 120 117c0 39 -9 98 -106 98c-109 0 -109 -75 -109 -103v-556c-22 3 -36 3 -76 3c-34 0 -53 0 -106 -3v52h66v340h-66v52h66v110c0 100 95 147 227 147c168 0 230 -74 230 -140c0 -37 -20 -105 -123 -141z" />
    <glyph glyph-name="ae" unicode="&#xe6;" horiz-adv-x="884" 
d="M816 212h-313c2 -41 8 -172 161 -172c42 0 104 16 129 77c7 17 12 19 29 19c7 0 28 0 28 -21c0 -18 -42 -122 -196 -122c-79 0 -144 21 -197 63c-54 -59 -165 -63 -211 -63c-37 0 -205 0 -205 113c0 129 247 139 340 143v48c0 75 -38 116 -116 116c-17 0 -51 -2 -76 -7
c1 -1 21 -19 21 -51c0 -38 -28 -67 -68 -67c-33 0 -67 24 -67 68c0 98 139 99 193 99c33 0 128 0 192 -57c57 45 119 57 179 57c54 0 114 -11 159 -58c48 -51 52 -130 52 -155c0 -30 -12 -30 -34 -30zM503 251h250c-1 40 -6 162 -114 162c-130 0 -135 -131 -136 -162z
M382 209c-79 -4 -219 -21 -219 -103c0 -39 40 -71 95 -71c71 0 143 34 143 90c0 5 0 6 -4 15c-12 32 -14 53 -15 69z" />
    <glyph glyph-name="oe" unicode="&#x153;" horiz-adv-x="952" 
d="M884 212h-313c2 -41 8 -172 161 -172c42 0 104 16 129 77c7 17 12 19 29 19c7 0 28 0 28 -21c0 -18 -42 -122 -196 -122c-113 0 -180 45 -211 76c-60 -59 -136 -76 -209 -76c-176 0 -268 106 -268 232c0 119 86 230 269 230c120 0 178 -47 206 -73c35 34 94 73 198 73
c54 0 114 -11 159 -58c48 -51 52 -130 52 -155c0 -30 -12 -30 -34 -30zM571 251h250c-1 40 -6 162 -114 162c-130 0 -135 -131 -136 -162zM303 35c146 0 146 141 146 194c0 54 0 184 -147 184c-146 0 -146 -131 -146 -184c0 -54 0 -194 147 -194z" />
    <glyph glyph-name="oslash" unicode="&#xf8;" 
d="M534 530l-72 -111c84 -45 116 -128 116 -201c0 -118 -86 -225 -272 -225c-40 0 -79 5 -116 17l-78 -119l-34 24l73 111c-87 45 -117 124 -117 192c0 125 88 237 272 237c13 0 63 0 117 -18l77 117zM186 80l207 313c-3 2 -36 20 -87 20c-150 0 -150 -118 -150 -194
c0 -48 0 -102 30 -139zM425 364l-205 -310c33 -19 75 -19 86 -19c150 0 150 108 150 184c0 58 -1 108 -31 145z" />
    <glyph glyph-name="AE" unicode="&#xc6;" horiz-adv-x="1107" 
d="M1073 275l-49 -275h-593v52h81v252h-183l-103 -228l-5 -15c29 -9 58 -9 87 -9v-52c-79 3 -81 3 -136 3c-46 0 -77 0 -126 -3v52h23c17 0 35 1 52 3c24 3 25 4 32 19l252 560h-69v52h670l33 -243h-56c-15 118 -39 191 -197 191h-134v-278h67c94 0 112 34 112 115h56v-282
h-56c0 81 -18 115 -112 115h-67v-252h137c177 0 205 87 228 223h56zM478 634l-125 -278h159v278h-34z" />
    <glyph glyph-name="OE" unicode="&#x152;" horiz-adv-x="1243" 
d="M1209 275l-49 -275h-469c-10 0 -38 -1 -105 -8c-25 -3 -61 -6 -92 -6c-265 0 -407 157 -407 353c0 199 140 361 407 361c14 0 39 0 111 -8c40 -4 72 -6 86 -6h451l33 -243h-56c-17 126 -49 191 -202 191h-156v-252h96c86 0 127 18 127 115h56v-282h-56
c0 97 -41 115 -127 115h-96v-278h158c181 0 211 87 234 223h56zM631 198v290c0 151 -39 170 -131 170c-156 0 -259 -113 -259 -303c0 -199 100 -327 259 -327c92 0 131 20 131 170z" />
    <glyph glyph-name="Oslash" unicode="&#xd8;" horiz-adv-x="952" 
d="M786 721l-62 -84c123 -74 160 -201 160 -298c0 -193 -138 -353 -408 -353c-59 0 -136 8 -207 40l-66 -89l-37 28l61 83c-146 88 -159 233 -159 291c0 195 136 361 408 361c69 0 143 -12 207 -40l66 89zM273 110l370 498c-38 30 -97 50 -167 50c-54 0 -139 -12 -198 -78
c-59 -68 -61 -171 -61 -240c0 -77 4 -166 56 -230zM678 575l-370 -498c33 -26 91 -49 168 -49c86 0 157 29 199 77c54 64 60 144 60 235s-7 171 -57 235z" />
    <glyph glyph-name="suppress" horiz-adv-x="340" 
d="M345 350l-313 -74l-12 50l313 75z" />
    <glyph glyph-name="exclam" unicode="!" horiz-adv-x="372" 
d="M263 608l-48 -352c-3 -21 -4 -27 -29 -27s-26 5 -29 28l-48 351c-2 18 -3 22 -3 26c0 49 44 74 80 74s80 -24 80 -74c0 -4 -1 -9 -3 -26zM266 80c0 -44 -36 -80 -80 -80s-80 36 -80 80s36 80 80 80s80 -36 80 -80z" />
    <glyph glyph-name="quotedblright" unicode="&#x201d;" horiz-adv-x="636" 
d="M175 553c-11 -10 -30 -19 -54 -19c-52 0 -80 39 -80 80s29 80 80 80c56 0 97 -55 97 -127c0 -142 -111 -227 -129 -227c-10 0 -22 12 -22 22c0 9 5 13 14 19c56 43 89 100 94 172zM437 553c-11 -10 -30 -19 -54 -19c-52 0 -80 39 -80 80s29 80 80 80c56 0 97 -55 97 -127
c0 -142 -111 -227 -129 -227c-10 0 -22 12 -22 22c0 9 5 13 14 19c56 43 89 100 94 172z" />
    <glyph glyph-name="numbersign" unicode="#" horiz-adv-x="1020" 
d="M710 337l-56 -174h254c12 0 44 0 44 -34s-36 -34 -50 -34h-272l-85 -259c-4 -13 -13 -30 -35 -30c-19 0 -34 15 -34 34c0 3 0 5 5 19l78 236h-201l-85 -259c-4 -13 -13 -30 -35 -30c-19 0 -34 15 -34 34c0 3 0 5 5 19l78 236h-169c-14 0 -50 0 -50 34s32 34 44 34h198
l56 174h-254c-12 0 -44 0 -44 34s36 34 50 34h272l85 259c4 13 13 30 35 30c19 0 34 -15 34 -34c0 -3 0 -5 -5 -19l-78 -236h201l85 259c4 13 13 30 35 30c19 0 34 -15 34 -34c0 -3 0 -5 -5 -19l-78 -236h169c14 0 50 0 50 -34s-32 -34 -44 -34h-198zM438 337l-56 -174h200
l56 174h-200z" />
    <glyph glyph-name="dollar" unicode="$" 
d="M332 648v-217c175 -29 212 -154 212 -220c0 -81 -44 -202 -212 -217v-50h-52v50c-163 11 -212 112 -212 192c0 50 34 71 68 71c39 0 67 -28 67 -67c0 -41 -31 -65 -63 -68c29 -54 85 -71 140 -76v244c-44 9 -96 19 -147 64c-32 30 -65 77 -65 143c0 89 58 192 212 203v50
h52v-50c138 -7 212 -80 212 -179c0 -56 -44 -71 -68 -71c-31 0 -67 23 -67 68c0 27 14 60 61 67c-16 26 -53 56 -138 63zM280 442v206c-82 -7 -126 -50 -126 -103c0 -42 36 -87 126 -103zM332 279v-233c81 8 126 57 126 116c0 61 -54 106 -126 117z" />
    <glyph glyph-name="percent" unicode="%" horiz-adv-x="1020" 
d="M952 145c0 -133 -72 -201 -158 -201c-94 0 -182 66 -182 202c0 130 84 201 182 201c83 0 158 -64 158 -202zM797 -14c41 0 99 37 99 159c0 127 -61 160 -99 160c-74 0 -74 -98 -74 -159c0 -62 0 -160 74 -160zM838 690l-604 -730c-12 -14 -24 -16 -30 -16
c-18 0 -34 16 -34 34c0 12 5 19 14 29l508 613c-38 -13 -84 -19 -115 -19c-52 0 -120 13 -183 41c7 -19 14 -53 14 -93c0 -138 -75 -202 -158 -202c-94 0 -182 66 -182 202c0 130 84 201 182 201c46 0 72 -17 89 -29c89 -61 174 -78 237 -78c94 0 161 35 209 89
c9 10 16 18 31 18c19 0 34 -15 34 -34c0 -12 -4 -16 -12 -26zM253 389c37 0 99 32 99 160c0 121 -58 159 -99 159c-74 0 -74 -97 -74 -160c0 -61 0 -159 74 -159z" />
    <glyph glyph-name="ampersand" unicode="&#x26;" horiz-adv-x="952" 
d="M828 116h56c-3 -86 -87 -130 -174 -130c-109 0 -190 42 -228 61c-54 -34 -129 -61 -209 -61c-124 0 -222 59 -222 153c0 59 42 92 67 112l108 85c-11 26 -43 100 -43 189c0 120 105 183 192 183c81 0 123 -75 123 -137c0 -52 -45 -107 -155 -197
c39 -79 108 -159 184 -233c106 91 198 231 206 243c-23 8 -41 8 -63 8v52c54 -3 81 -3 118 -3c22 0 73 0 103 3v-52h-17c-1 0 -61 0 -73 -10c-3 -1 -19 -23 -23 -28c-74 -101 -131 -178 -212 -248c49 -41 98 -68 149 -68c20 0 109 6 113 78zM325 414c58 51 117 103 117 157
c0 34 -17 95 -65 95c-45 0 -83 -42 -83 -100c0 -38 7 -89 31 -152zM245 297c-46 -32 -59 -80 -59 -125c0 -46 20 -134 98 -134c14 0 80 1 150 40c-82 56 -151 149 -189 219z" />
    <glyph glyph-name="quoteright" unicode="&#x2019;" horiz-adv-x="340" 
d="M224 553c-11 -10 -30 -19 -54 -19c-52 0 -80 39 -80 80s29 80 80 80c56 0 97 -55 97 -127c0 -142 -111 -227 -129 -227c-10 0 -22 12 -22 22c0 9 5 13 14 19c56 43 89 100 94 172z" />
    <glyph glyph-name="parenleft" unicode="(" horiz-adv-x="476" 
d="M407 -232c0 -10 -6 -18 -21 -18c-22 0 -117 72 -180 172c-74 118 -92 239 -92 328c0 160 55 312 180 436c20 19 73 64 92 64c15 0 21 -8 21 -18c0 -7 -1 -8 -17 -23c-127 -113 -170 -288 -170 -459c0 -172 45 -347 172 -462c12 -10 15 -13 15 -20z" />
    <glyph glyph-name="parenright" unicode=")" horiz-adv-x="476" 
d="M361 250c0 -160 -55 -312 -180 -436c-20 -19 -73 -64 -92 -64c-17 0 -21 11 -21 18c0 8 5 12 17 23c127 113 170 288 170 459c0 172 -45 347 -172 462c-11 9 -15 13 -15 20s4 18 21 18c22 0 117 -72 180 -172c74 -118 92 -239 92 -328z" />
    <glyph glyph-name="asterisk" unicode="*" 
d="M330 490l22 -125c1 -4 3 -15 3 -17c0 -23 -22 -42 -49 -42s-49 19 -49 42c0 3 2 10 2 13l23 129l-126 -90c-15 -10 -21 -11 -29 -11c-27 0 -48 26 -48 52s17 38 34 43l137 44l-137 44c-16 5 -34 17 -34 43s21 52 48 52c8 0 14 -1 29 -11l126 -90l-22 125
c-1 4 -3 15 -3 17c0 23 22 42 49 42s49 -19 49 -42c0 -3 -2 -10 -2 -13l-23 -129l126 90c15 10 21 11 29 11c27 0 48 -26 48 -52s-17 -38 -34 -43l-137 -44l154 -51c6 -4 17 -11 17 -36c0 -26 -21 -52 -48 -52c-8 0 -14 1 -29 11z" />
    <glyph glyph-name="plus" unicode="+" horiz-adv-x="952" 
d="M510 216v-328c0 -12 0 -46 -34 -46s-34 33 -34 46v328h-328c-12 0 -46 0 -46 34s33 34 46 34h328v328c0 12 0 46 34 46s34 -33 34 -46v-328h328c12 0 46 0 46 -34s-33 -34 -46 -34h-328z" />
    <glyph glyph-name="comma" unicode="," horiz-adv-x="340" 
d="M221 16c-14 -12 -33 -16 -51 -16c-52 0 -80 39 -80 80s29 80 80 80c55 0 94 -54 94 -127c0 -141 -108 -227 -126 -227c-10 0 -22 12 -22 22c0 9 6 13 12 19c69 53 89 119 93 169z" />
    <glyph glyph-name="hyphen" unicode="-" horiz-adv-x="408" 
d="M339 170h-325v105h325v-105z" />
    <glyph glyph-name="period" unicode="." horiz-adv-x="340" 
d="M250 80c0 -44 -36 -80 -80 -80s-80 36 -80 80s36 80 80 80s80 -36 80 -80z" />
    <glyph glyph-name="slash" unicode="/" 
d="M538 694l-401 -916c-6 -13 -15 -28 -35 -28c-19 0 -34 15 -34 34c0 6 3 16 6 22l401 916c7 15 17 28 35 28c19 0 34 -15 34 -34c0 -6 -3 -16 -6 -22z" />
    <glyph glyph-name="zero" unicode="0" 
d="M564 319c0 -111 -6 -333 -258 -333c-251 0 -258 221 -258 333c0 114 8 339 258 339c249 0 258 -223 258 -339zM306 28c42 0 70 21 78 30c31 30 45 44 45 273c0 58 0 135 -8 184c-15 95 -91 101 -115 101c-38 0 -100 -19 -113 -90c-10 -50 -10 -123 -10 -195
c0 -234 15 -248 47 -276c21 -17 49 -27 76 -27z" />
    <glyph glyph-name="one" unicode="1" 
d="M379 624v-572h148v-52c-37 3 -167 3 -212 3s-177 0 -213 -3v52h150v510c-58 -17 -112 -20 -138 -20h-22v52h22c78 0 158 16 219 64c40 0 46 0 46 -34z" />
    <glyph glyph-name="two" unicode="2" 
d="M551 228l-33 -228h-457v21c0 20 1 21 12 32l221 206c59 55 112 122 112 203c0 77 -50 144 -140 144c-31 0 -71 -8 -99 -29c13 -5 47 -24 47 -71c0 -52 -42 -77 -77 -77c-28 0 -76 19 -76 78c0 94 101 151 229 151c152 0 261 -77 261 -195c0 -57 -25 -107 -95 -162
c-43 -33 -97 -63 -231 -168h138c17 0 94 0 105 6c6 3 19 23 27 89h56z" />
    <glyph glyph-name="three" unicode="3" 
d="M284 327h-49c-18 0 -31 0 -31 21c0 20 10 21 41 23c54 3 72 4 101 35c3 4 37 41 37 113c0 30 0 96 -93 96c-9 0 -69 0 -113 -38c48 -12 56 -50 56 -72c0 -46 -34 -74 -74 -74c-30 0 -74 20 -74 76c0 82 81 151 211 151c149 0 231 -62 231 -142
c0 -109 -110 -152 -137 -163c108 -24 171 -92 171 -174c0 -87 -72 -193 -268 -193c-138 0 -242 61 -242 158c0 52 37 82 81 82c47 0 81 -33 81 -81c0 -49 -36 -70 -53 -77c50 -32 107 -35 128 -35c113 0 113 102 113 147c0 50 -1 147 -117 147z" />
    <glyph glyph-name="four" unicode="4" 
d="M474 625v-419h104v-52h-104v-102h104v-52c-45 3 -127 3 -175 3c-43 0 -144 0 -181 -3v52h119v102h-307v52l365 438c12 15 19 15 40 15c29 0 35 -3 35 -34zM354 515l-258 -309h258v309z" />
    <glyph glyph-name="five" unicode="5" 
d="M176 501v-123c40 25 86 34 134 34c161 0 241 -99 241 -211c0 -118 -97 -215 -275 -215c-130 0 -215 82 -215 172c0 54 41 74 72 74c36 0 72 -26 72 -72c0 -33 -20 -65 -62 -71c27 -34 77 -56 129 -56c130 0 130 101 130 170c0 76 0 167 -96 167c-39 0 -101 -9 -141 -57
c-10 -12 -13 -14 -28 -14c-27 0 -27 15 -27 34v294c0 14 0 31 17 31c3 0 5 0 13 -4c65 -22 122 -28 167 -28c55 0 114 10 163 27c11 5 13 5 15 5c10 0 18 -6 18 -21c0 -26 -60 -76 -86 -93c-75 -48 -143 -48 -169 -48c-6 0 -40 0 -72 5z" />
    <glyph glyph-name="six" unicode="6" 
d="M194 347c22 35 63 74 124 74c63 0 118 -10 173 -57c58 -50 70 -102 70 -159c0 -135 -102 -219 -251 -219c-228 0 -259 203 -259 331c0 245 165 341 321 341c117 0 158 -69 158 -130c0 -42 -29 -69 -68 -69s-67 29 -67 67s27 60 51 66c-21 18 -45 23 -73 23
c-52 0 -115 -24 -148 -85c-28 -51 -31 -126 -31 -183zM309 33c109 0 109 78 109 173s0 172 -102 172c-80 0 -120 -76 -120 -166c0 -4 0 -85 17 -119c15 -32 47 -60 96 -60z" />
    <glyph glyph-name="seven" unicode="7" 
d="M583 592l-172 -189c-2 -2 -53 -58 -66 -189c-5 -57 -5 -103 -5 -128c0 -45 0 -60 -16 -77c-4 -5 -21 -23 -51 -23c-7 0 -68 0 -68 75c0 48 10 157 81 275c31 49 31 51 142 175h-163c-18 0 -101 0 -113 -6c-5 -2 -19 -20 -28 -89h-56l38 260h56c1 -13 2 -23 44 -26
c11 -1 23 0 33 -1c33 -2 93 -5 124 -5h232v-18c0 -20 0 -22 -12 -34z" />
    <glyph glyph-name="eight" unicode="8" 
d="M425 370c39 -20 136 -72 136 -183c0 -112 -85 -201 -257 -201c-140 0 -253 50 -253 175c0 60 26 123 130 169c-54 30 -96 83 -96 150c0 98 74 178 223 178c60 0 219 -11 219 -150c0 -78 -60 -115 -102 -138zM215 480l157 -82c56 33 72 72 72 110c0 66 -50 107 -141 107
c-60 0 -135 -13 -135 -76c0 -32 28 -49 47 -59zM404 212l-114 60c-18 9 -50 26 -52 26s-92 -38 -92 -137c0 -84 65 -128 162 -128c61 0 158 14 158 99c0 47 -46 71 -62 80z" />
    <glyph glyph-name="nine" unicode="9" 
d="M418 299c-16 -26 -56 -75 -124 -75c-89 0 -131 22 -174 57c-63 54 -69 118 -69 159c0 136 105 218 257 218c90 0 159 -34 202 -102c44 -70 51 -158 51 -228c0 -244 -154 -342 -306 -342c-120 0 -173 60 -173 130c0 42 29 69 68 69s67 -29 67 -67c0 -44 -35 -61 -46 -65
c31 -20 72 -20 82 -20c72 0 119 43 139 84c21 46 26 106 26 182zM296 267c75 0 120 68 120 170c0 58 0 178 -107 178c-115 0 -115 -85 -115 -176c0 -94 0 -172 102 -172z" />
    <glyph glyph-name="colon" unicode=":" horiz-adv-x="340" 
d="M250 364c0 -44 -36 -80 -80 -80s-80 36 -80 80s36 80 80 80s80 -36 80 -80zM250 80c0 -44 -36 -80 -80 -80s-80 36 -80 80s36 80 80 80s80 -36 80 -80z" />
    <glyph glyph-name="semicolon" unicode=";" horiz-adv-x="340" 
d="M250 364c0 -44 -36 -80 -80 -80s-80 36 -80 80s36 80 80 80s80 -36 80 -80zM210 9c-12 -6 -17 -9 -40 -9c-52 0 -80 39 -80 80c0 44 32 80 79 80c54 0 84 -53 84 -127c0 -135 -97 -227 -115 -227c-10 0 -22 12 -22 22c0 8 4 11 11 17c60 55 79 122 83 164z" />
    <glyph glyph-name="exclamdown" unicode="&#xa1;" horiz-adv-x="372" 
d="M266 420c0 -44 -36 -80 -80 -80s-80 36 -80 80s36 80 80 80s80 -36 80 -80zM109 -108l48 352c3 21 4 27 29 27s26 -5 29 -28l48 -351c2 -18 3 -22 3 -26c0 -49 -44 -74 -80 -74s-80 24 -80 74c0 4 1 9 3 26z" />
    <glyph glyph-name="equal" unicode="=" horiz-adv-x="952" 
d="M840 337h-728c-12 0 -44 0 -44 34s36 34 50 34h716c14 0 50 0 50 -34s-32 -34 -44 -34zM834 95h-716c-14 0 -50 0 -50 34s32 34 44 34h728c12 0 44 0 44 -34s-36 -34 -50 -34z" />
    <glyph glyph-name="questiondown" unicode="&#xbf;" horiz-adv-x="578" 
d="M351 420c0 -44 -36 -80 -80 -80s-80 36 -80 80s36 80 80 80s80 -36 80 -80zM243 215v25c0 22 0 31 28 31s28 -5 28 -47c0 -41 0 -127 -74 -222c-14 -19 -22 -30 -22 -81c0 -57 1 -80 73 -80c22 0 89 1 136 26c-27 13 -38 37 -38 61c0 45 35 68 68 68c26 0 67 -17 67 -69
c0 -128 -194 -128 -238 -128c-39 0 -203 0 -203 129c0 18 4 66 56 99c36 23 119 79 119 188z" />
    <glyph glyph-name="question" unicode="?" horiz-adv-x="578" 
d="M299 284v-24c0 -22 0 -31 -28 -31s-28 5 -28 46c0 52 2 135 106 231c25 23 25 54 25 72c0 44 -1 81 -101 81c-28 0 -71 -3 -109 -25c13 -6 39 -24 39 -62c0 -45 -35 -68 -68 -68c-26 0 -67 17 -67 69c0 59 50 128 211 128c44 0 99 -3 147 -22c61 -24 83 -69 83 -107
c0 -24 -8 -69 -68 -101c-109 -58 -142 -121 -142 -187zM351 80c0 -44 -36 -80 -80 -80s-80 36 -80 80s36 80 80 80s80 -36 80 -80z" />
    <glyph glyph-name="at" unicode="@" horiz-adv-x="952" 
d="M721 454v-231c0 -12 0 -55 32 -55c75 0 75 141 75 174c0 202 -144 317 -352 317c-231 0 -352 -138 -352 -312c0 -158 103 -312 356 -312c99 0 211 19 309 55c20 8 22 8 38 8h26c15 0 31 0 31 -18c0 -3 -1 -7 -5 -11s-5 -5 -33 -14c-84 -29 -215 -62 -366 -62
c-294 0 -412 180 -412 354c0 189 135 354 408 354c269 0 408 -161 408 -355c0 -63 -15 -220 -141 -220c-30 0 -99 4 -130 45c-40 -31 -87 -45 -139 -45c-149 0 -243 92 -243 221c0 127 92 221 243 221c70 0 131 -25 174 -83h39c32 0 34 -4 34 -31zM599 228v238
c-39 54 -98 60 -121 60c-69 0 -125 -58 -125 -179s56 -179 125 -179c23 0 82 6 121 60z" />
    <glyph glyph-name="A" unicode="A" horiz-adv-x="922" 
d="M508 675l270 -623h98v-52c-63 3 -130 3 -168 3c-42 0 -141 0 -178 -3v52h93l-61 139h-287l-51 -116l-5 -14c29 -9 61 -9 88 -9v-52c-79 3 -81 3 -136 3c-46 0 -75 0 -126 -3v52h24c23 0 25 0 51 3c24 3 25 4 32 19l261 601c11 26 26 26 48 26c21 0 36 0 47 -26zM419 522
l-121 -279h242z" />
    <glyph glyph-name="B" unicode="B" horiz-adv-x="869" 
d="M155 634h-108v52h455c168 0 264 -79 264 -173c0 -77 -72 -136 -178 -154c140 -15 212 -89 212 -172c0 -102 -94 -187 -265 -187h-488v52h108v582zM291 378h171c98 0 156 56 156 135c0 51 -26 121 -129 121h-198v-256zM291 52h201c99 0 154 55 154 137
c0 58 -25 147 -144 147h-211v-284z" />
    <glyph glyph-name="C" unicode="C" horiz-adv-x="884" 
d="M816 669v-215c0 -30 -4 -31 -33 -31c-23 0 -30 0 -33 20c-25 142 -135 205 -237 205c-46 0 -151 -7 -222 -84c-61 -67 -63 -177 -63 -221c0 -104 20 -173 65 -222c39 -43 113 -83 223 -83c132 0 237 80 244 184c1 25 3 29 28 29c17 0 28 0 28 -24
c0 -122 -125 -241 -322 -241c-277 0 -426 161 -426 357c0 198 152 357 425 357c104 0 168 -37 212 -68l66 58c11 10 14 10 23 10c22 0 22 -12 22 -31z" />
    <glyph glyph-name="D" unicode="D" horiz-adv-x="937" 
d="M155 634h-108v52h453c212 0 369 -132 369 -349c0 -209 -155 -337 -368 -337h-454v52h108v582zM298 52h161c256 0 256 190 256 287c0 96 0 295 -257 295h-160v-582z" />
    <glyph glyph-name="E" unicode="E" horiz-adv-x="802" 
d="M768 275l-49 -275h-672v52h108v576h-108v52h654l33 -243h-56c-18 142 -67 191 -211 191h-163v-249h60c94 0 111 35 111 115h56v-282h-56c0 80 -17 115 -111 115h-60v-275h166c182 0 218 80 242 223h56z" />
    <glyph glyph-name="F" unicode="F" horiz-adv-x="768" 
d="M684 680l33 -243h-56c-17 130 -54 191 -204 191h-153v-262h56c96 0 108 40 108 115h56v-282h-56c0 75 -12 115 -108 115h-56v-262h135v-52c-37 3 -159 3 -203 3s-151 0 -189 -3v52h108v576h-108v52h637z" />
    <glyph glyph-name="G" unicode="G" horiz-adv-x="962" 
d="M816 224v-193c0 -14 0 -31 -17 -31c-8 0 -65 24 -93 45c-33 -37 -104 -59 -209 -59c-292 0 -429 171 -429 357c0 198 152 357 425 357c104 0 168 -37 212 -68l66 58c11 10 14 10 23 10c22 0 22 -12 22 -31v-215c0 -30 -4 -31 -33 -31c-23 0 -30 0 -33 20
c-25 142 -135 205 -237 205c-46 0 -151 -7 -222 -84c-60 -66 -63 -174 -63 -220c0 -128 31 -188 74 -231c38 -37 112 -75 221 -75c18 0 59 1 97 18c47 20 47 50 47 70v98h-153v52c38 -3 164 -3 210 -3c87 0 103 0 177 3v-52h-85z" />
    <glyph glyph-name="H" unicode="H" horiz-adv-x="954" 
d="M799 634v-582h108v-52c-38 3 -139 3 -182 3c-44 0 -145 0 -183 -3v52h108v279h-346v-279h108v-52c-38 3 -139 3 -182 3c-44 0 -145 0 -183 -3v52h108v582h-108v52c38 -3 139 -3 183 -3c43 0 144 0 182 3v-52h-108v-251h346v251h-108v52c38 -3 139 -3 183 -3
c43 0 144 0 182 3v-52h-108z" />
    <glyph glyph-name="I" unicode="I" horiz-adv-x="459" 
d="M304 634v-582h113v-52c-37 3 -145 3 -188 3s-150 0 -187 -3v52h113v582h-113v52c37 -3 145 -3 188 -3s150 0 187 3v-52h-113z" />
    <glyph glyph-name="J" unicode="J" horiz-adv-x="631" 
d="M475 634v-484c0 -104 -97 -164 -242 -164c-129 0 -208 49 -208 128c0 48 34 81 81 81s81 -33 81 -81c0 -29 -14 -55 -39 -70c36 -16 72 -16 80 -16c58 0 104 34 104 121v485h-140v52c37 -3 152 -3 196 -3c86 0 88 0 168 3v-52h-81z" />
    <glyph glyph-name="K" unicode="K" horiz-adv-x="956" 
d="M518 418l288 -349c11 -13 14 -17 65 -17h33v-52c-52 2 -103 3 -155 3c-42 0 -137 0 -174 -3v52c22 0 67 0 67 9c0 3 -6 9 -7 11l-220 266l-111 -87v-199h108v-52c-38 3 -139 3 -182 3c-44 0 -145 0 -183 -3v52h108v582h-108v52c38 -3 139 -3 183 -3c43 0 144 0 182 3v-52
h-108v-312l388 303c-26 9 -46 9 -64 9v52c63 -3 130 -3 144 -3c25 0 85 0 115 3v-52h-21c-29 0 -70 0 -91 -16z" />
    <glyph glyph-name="L" unicode="L" horiz-adv-x="734" 
d="M683 275l-33 -275h-603v52h108v582h-108v52c38 -3 146 -3 190 -3s165 0 202 3v-52h-135v-582h110c186 0 205 154 213 223h56z" />
    <glyph glyph-name="M" unicode="M" horiz-adv-x="1159" 
d="M579 130l252 527c14 28 26 29 49 29h228v-52h-108v-582h108v-52c-41 3 -128 3 -173 3s-132 0 -173 -3v52h108v580h-1l-288 -603c-6 -12 -14 -29 -39 -29c-21 0 -31 12 -40 30l-281 589h-1v-540c0 -20 1 -21 27 -24c23 -3 27 -3 53 -3h28v-52c-79 3 -81 3 -139 3
s-60 0 -139 -3v52h28c9 0 38 1 51 2c28 3 29 4 29 25v555h-108v52h228c22 0 36 0 50 -30z" />
    <glyph glyph-name="N" unicode="N" horiz-adv-x="954" 
d="M316 672l421 -465v400c0 20 -1 21 -27 24c-23 3 -27 3 -53 3h-28v52c79 -3 81 -3 139 -3s60 0 139 3v-52h-28c-9 0 -38 -1 -51 -2c-28 -3 -29 -4 -29 -25v-573c0 -24 -1 -34 -31 -34c-15 0 -20 0 -31 12l-520 576v-509c0 -20 1 -21 27 -24c23 -3 27 -3 53 -3h28v-52
c-79 3 -81 3 -139 3s-60 0 -139 -3v52h28c9 0 38 1 51 2c28 3 29 4 29 25v555h-108v52h234c21 0 22 -1 35 -14z" />
    <glyph glyph-name="O" unicode="O" horiz-adv-x="920" 
d="M851 339c0 -196 -136 -353 -392 -353c-250 0 -391 152 -391 353c0 204 140 361 391 361c255 0 392 -160 392 -361zM460 35c74 0 145 34 184 98c33 55 47 117 47 221c0 64 -4 150 -52 215c-41 55 -108 84 -180 84c-89 0 -149 -44 -175 -78c-45 -60 -56 -128 -56 -221
c0 -51 2 -145 42 -213c52 -88 133 -106 190 -106z" />
    <glyph glyph-name="P" unicode="P" horiz-adv-x="835" 
d="M304 296v-244h108v-52c-38 3 -139 3 -182 3c-44 0 -145 0 -183 -3v52h108v582h-108v52h438c180 0 281 -89 281 -197c0 -107 -102 -193 -281 -193h-181zM448 634h-150v-291h149c159 0 159 77 159 146s0 145 -158 145z" />
    <glyph glyph-name="Q" unicode="Q" horiz-adv-x="920" 
d="M636 16c41 -50 68 -50 93 -50c16 0 83 0 87 31c1 8 3 24 21 24c21 0 21 -21 21 -28c0 -75 -44 -187 -147 -187c-99 0 -124 92 -151 189c-45 -9 -88 -9 -100 -9c-255 0 -392 156 -392 353c0 204 140 361 391 361c255 0 392 -160 392 -361c0 -139 -66 -263 -215 -323z
M355 55c-1 5 -2 13 -2 18c0 51 49 85 106 85c65 0 105 -47 134 -86c104 66 104 213 104 267c0 61 -4 158 -56 228c-45 60 -114 86 -182 86c-61 0 -135 -22 -183 -88c-51 -71 -54 -170 -54 -226c0 -114 19 -229 133 -284zM542 47c-17 41 -38 69 -83 69c-29 0 -64 -14 -64 -43
c0 -31 35 -40 65 -40c8 0 46 0 82 14z" />
    <glyph glyph-name="R" unicode="R" horiz-adv-x="915" 
d="M596 340c98 -37 106 -96 114 -163c11 -85 19 -149 82 -149c17 0 58 10 63 72c1 14 7 23 28 23c12 0 28 -3 28 -25c0 -23 -17 -112 -129 -112c-47 0 -118 6 -162 31c-64 37 -64 82 -64 149c0 68 0 89 -30 118c-27 28 -62 38 -100 38h-128v-270h108v-52
c-39 3 -135 3 -179 3s-141 0 -180 -3v52h108v582h-108v52h398c193 0 316 -81 316 -187c0 -70 -60 -130 -165 -159zM428 364c168 0 173 76 173 135c0 62 -7 135 -170 135h-133v-270h130z" />
    <glyph glyph-name="S" unicode="S" horiz-adv-x="680" 
d="M275 446l152 -31c100 -20 185 -103 185 -213c0 -98 -62 -216 -242 -216c-52 0 -144 7 -214 53l-30 -29c-23 -23 -24 -24 -36 -24c-22 0 -22 12 -22 31v180c0 23 0 31 28 31c11 0 27 0 28 -16c1 -32 5 -93 68 -132c56 -35 129 -42 177 -42c128 0 142 84 142 115
c0 44 -27 98 -113 116l-123 25c-44 9 -107 21 -159 80c-34 39 -48 81 -48 124c0 97 70 202 239 202c80 0 136 -21 182 -54l31 30c23 23 24 24 36 24c22 0 22 -12 22 -31v-180c0 -24 -1 -31 -28 -31c-25 0 -26 5 -29 24c-4 24 -15 86 -71 129c-53 40 -120 42 -143 42
c-107 0 -138 -60 -138 -104s34 -88 106 -103z" />
    <glyph glyph-name="T" unicode="T" horiz-adv-x="852" 
d="M784 673l23 -243h-56c-10 117 -25 191 -169 191h-82v-569h152v-52c-38 3 -179 3 -227 3c-47 0 -188 0 -226 -3v52h152v569h-82c-144 0 -159 -74 -169 -191h-56l23 243h717z" />
    <glyph glyph-name="U" unicode="U" horiz-adv-x="938" 
d="M783 607v-377c0 -123 -87 -244 -296 -244c-220 0 -332 112 -332 245v403h-108v52c38 -3 139 -3 183 -3c43 0 144 0 182 3v-52h-108v-409c0 -55 2 -187 187 -187c122 0 226 54 226 194v375c0 20 -1 21 -27 24c-23 3 -27 3 -53 3h-28v52c79 -3 81 -3 141 -3s62 0 141 3v-52
h-28c-9 0 -38 -1 -51 -2c-28 -3 -29 -4 -29 -25z" />
    <glyph glyph-name="V" unicode="V" horiz-adv-x="922" 
d="M789 613l-280 -597c-12 -26 -26 -26 -49 -26c-21 0 -36 0 -49 27l-289 617h-93v52c74 -3 88 -3 165 -3c42 0 140 0 177 3v-52h-91l223 -476l212 454c0 1 6 12 6 13c-27 9 -60 9 -86 9v52c79 -3 81 -3 135 -3c28 0 82 0 122 3v-52h-22c-71 0 -75 -7 -81 -21z" />
    <glyph glyph-name="W" unicode="W" horiz-adv-x="1262" 
d="M1140 612l-242 -593c-7 -18 -12 -29 -42 -29c-18 0 -31 3 -41 27l-184 453l-184 -454c-11 -26 -28 -26 -41 -26c-30 0 -35 11 -42 29l-250 615h-87v52c53 -2 107 -3 160 -3c43 0 136 0 174 3v-52h-93l184 -454l149 364l-37 90h-86v52c53 -2 107 -3 160 -3
c43 0 136 0 174 3v-52h-94l185 -454l176 431c1 2 4 11 5 14c-30 9 -76 9 -100 9v52c85 -3 87 -3 135 -3c28 0 81 0 116 3v-52h-19c-67 0 -69 -6 -76 -22z" />
    <glyph glyph-name="X" unicode="X" horiz-adv-x="922" 
d="M517 392l266 -340h99v-52c-63 3 -131 3 -169 3c-43 0 -144 0 -181 -3v52h78l-181 231l-178 -220v-3c36 -8 76 -8 85 -8v-52c-74 3 -91 3 -154 3c-72 0 -74 0 -142 -3v52h32c30 0 32 0 57 3c33 3 34 4 44 16l214 266l-232 297h-99v52c63 -3 131 -3 169 -3
c43 0 144 0 181 3v-52h-78l147 -188l144 178c-8 3 -16 5 -18 6c-31 4 -63 4 -68 4v52c63 -3 131 -3 155 -3c72 0 74 0 142 3v-52h-32c-30 0 -32 0 -57 -3c-33 -3 -34 -4 -44 -16z" />
    <glyph glyph-name="Y" unicode="Y" horiz-adv-x="922" 
d="M784 615l-252 -340v-223h107v-52c-39 3 -134 3 -178 3s-141 0 -180 -3v52h108v222l-266 360h-99v52c51 -3 119 -3 172 -3c42 0 148 0 184 3v-52h-80l208 -281l201 272c-27 9 -42 9 -72 9v52c85 -3 87 -3 136 -3c36 0 79 0 124 3v-52h-24c-18 0 -35 -1 -53 -3
c-24 -2 -27 -3 -36 -16z" />
    <glyph glyph-name="Z" unicode="Z" horiz-adv-x="748" 
d="M669 630l-421 -573h147c184 0 226 86 236 229h56l-20 -286h-565c-21 0 -34 0 -34 29c0 14 0 16 10 29l423 576h-136c-111 0 -213 -32 -224 -191h-56l13 243h548c20 0 34 0 34 -28c0 -12 0 -14 -11 -28z" />
    <glyph glyph-name="bracketleft" unicode="[" horiz-adv-x="340" 
d="M312 682h-109v-864h109v-68h-177v1000h177v-68z" />
    <glyph glyph-name="quotedblleft" unicode="&#x201c;" horiz-adv-x="636" 
d="M198 481c11 10 30 19 54 19c52 0 80 -39 80 -80s-29 -80 -80 -80c-56 0 -97 55 -97 127c0 142 111 227 129 227c10 0 22 -12 22 -22c0 -9 -5 -13 -14 -19c-56 -43 -89 -100 -94 -172zM460 481c11 10 30 19 54 19c52 0 80 -39 80 -80s-29 -80 -80 -80
c-56 0 -97 55 -97 127c0 142 111 227 129 227c10 0 22 -12 22 -22c0 -9 -5 -13 -14 -19c-56 -43 -89 -100 -94 -172z" />
    <glyph glyph-name="bracketright" unicode="]" horiz-adv-x="340" 
d="M204 750v-1000h-177v68h109v864h-109v68h177z" />
    <glyph glyph-name="circumflex" unicode="&#x2c6;" 
d="M306 694l169 -124l-32 -46l-137 81l-137 -81l-32 46z" />
    <glyph glyph-name="dotaccent" unicode="&#x2d9;" horiz-adv-x="340" 
d="M250 615c0 -44 -36 -80 -81 -80c-42 0 -80 35 -80 80c0 44 36 80 81 80c42 0 80 -35 80 -80z" />
    <glyph glyph-name="quoteleft" unicode="&#x2018;" horiz-adv-x="340" 
d="M116 481c11 10 30 19 54 19c52 0 80 -39 80 -80s-29 -80 -80 -80c-56 0 -97 55 -97 127c0 142 111 227 129 227c10 0 22 -12 22 -22c0 -9 -5 -13 -14 -19c-56 -43 -89 -100 -94 -172z" />
    <glyph glyph-name="a" unicode="a" horiz-adv-x="595" 
d="M502 296v-211c0 -23 0 -33 62 -33c14 0 30 0 30 -26s-15 -26 -34 -26h-53c-97 0 -108 38 -108 68c-13 -20 -56 -75 -159 -75c-109 0 -205 34 -205 119c0 122 195 155 345 156v29c0 72 -35 116 -115 116c-39 0 -68 -5 -76 -7c1 -1 21 -19 21 -51c0 -38 -28 -67 -68 -67
c-33 0 -67 24 -67 68c0 99 143 99 192 99c163 0 235 -69 235 -159zM380 137v93c-130 -3 -223 -46 -223 -116c0 -48 47 -79 99 -79c4 0 124 0 124 102z" />
    <glyph glyph-name="b" unicode="b" horiz-adv-x="680" 
d="M228 694v-289c25 17 79 46 156 46c157 0 255 -96 255 -229c0 -129 -100 -229 -269 -229c-59 0 -111 19 -156 62l-46 -55h-56v595c0 39 -7 39 -66 39v52zM234 344v-237c11 -17 53 -72 127 -72c143 0 143 127 143 190c0 62 0 184 -131 184c-70 0 -121 -40 -139 -65z" />
    <glyph glyph-name="c" unicode="c" horiz-adv-x="544" 
d="M509 115c0 -6 -15 -56 -68 -89c-41 -25 -91 -33 -136 -33c-174 0 -264 105 -264 229c0 113 76 233 268 233c41 0 186 0 186 -99c0 -42 -30 -68 -68 -68c-36 0 -67 27 -67 67c0 14 4 29 12 41c3 3 4 5 4 6c0 4 -56 6 -63 6c-134 0 -137 -122 -137 -182
c0 -43 0 -186 149 -186c32 0 99 9 127 75c7 18 10 18 29 18c12 0 28 0 28 -18z" />
    <glyph glyph-name="d" unicode="d" horiz-adv-x="680" 
d="M386 686l182 8v-603c0 -39 7 -39 66 -39v-52l-188 -7v49c-26 -20 -76 -49 -149 -49c-159 0 -256 98 -256 229c0 129 99 229 268 229c37 0 89 -6 143 -43v187c0 39 -7 39 -66 39v52zM446 111v236c-34 43 -81 62 -127 62c-143 0 -143 -127 -143 -190c0 -60 0 -184 130 -184
c34 0 93 10 140 76z" />
    <glyph glyph-name="e" unicode="e" horiz-adv-x="561" 
d="M492 212h-323c2 -56 7 -172 155 -172c28 0 113 7 145 77c8 17 12 19 29 19c7 0 28 0 28 -21c0 -14 -38 -122 -214 -122c-178 0 -278 103 -278 233c0 118 85 229 263 229c23 0 113 0 169 -56c50 -49 60 -115 60 -158c0 -29 -13 -29 -34 -29zM169 251h259
c-1 39 -6 162 -130 162s-128 -122 -129 -162z" />
    <glyph glyph-name="f" unicode="f" horiz-adv-x="374" 
d="M241 392v-340h82v-52c-77 3 -79 3 -136 3c-60 0 -70 0 -128 -3v52h66v340h-79v52h79v97c0 119 117 160 218 160c84 0 124 -46 124 -92c0 -44 -36 -66 -66 -66c-31 0 -66 22 -66 66c0 16 5 32 16 44c2 2 2 3 2 4c0 2 -10 2 -13 2c-82 0 -105 -62 -105 -117v-98h128v-52
h-122z" />
    <glyph glyph-name="g" unicode="g" 
d="M224 87h52c91 0 152 0 206 -22c21 -8 96 -39 96 -136c0 -71 -83 -131 -272 -131c-213 0 -272 75 -272 128c0 48 45 76 87 87c-26 25 -41 60 -41 96c0 33 13 65 33 89c-18 16 -52 46 -52 104c0 61 49 149 211 149c63 0 104 -12 140 -32c29 23 74 39 113 39
c47 0 70 -35 70 -65c0 -28 -21 -48 -48 -48s-47 20 -47 48c0 5 1 15 4 21c-14 -2 -34 -5 -61 -19c6 -5 40 -40 40 -94c0 -61 -49 -149 -211 -149c-37 0 -86 5 -127 25c-5 -7 -8 -18 -8 -28c0 -24 13 -39 23 -49c15 -13 34 -13 64 -13zM272 195c95 0 95 65 95 107
c0 40 0 106 -95 106s-95 -65 -95 -107c0 -40 0 -106 95 -106zM334 -17h-127c-15 0 -80 0 -80 -56c0 -38 47 -86 179 -86c137 0 179 51 179 85c0 57 -121 57 -151 57z" />
    <glyph glyph-name="h" unicode="h" horiz-adv-x="680" 
d="M584 303v-251h66v-52c-54 3 -88 3 -127 3c-38 0 -73 0 -127 -3v52h66v262c0 78 -23 95 -58 95c-64 0 -160 -45 -160 -156v-201h66v-52c-54 3 -88 3 -127 3c-38 0 -73 0 -127 -3v52h66v543c0 39 -7 39 -66 39v52l182 8v-335c21 31 76 92 181 92c89 0 165 -26 165 -148z
" />
    <glyph glyph-name="i" unicode="i" horiz-adv-x="340" 
d="M250 615c0 -43 -35 -80 -80 -80c-43 0 -80 34 -80 80s37 80 80 80c45 0 80 -37 80 -80zM62 443l179 8v-399h59v-52c-49 3 -78 3 -119 3c-53 0 -64 0 -122 -3v52h66v301c0 38 -7 38 -63 38v52z" />
    <glyph glyph-name="j" unicode="j" horiz-adv-x="374" 
d="M287 615c0 -44 -36 -80 -80 -80s-80 36 -80 80s36 80 80 80s80 -36 80 -80zM98 443l189 8v-489c0 -113 -105 -163 -193 -163c-87 0 -153 34 -153 97c0 40 28 68 68 68c38 0 67 -28 67 -67c0 -20 -7 -34 -17 -46c-1 -2 -2 -3 -2 -4c0 -4 30 -6 35 -6c59 0 79 65 79 120
v391c0 21 0 32 -20 36c-13 3 -35 3 -53 3v52z" />
    <glyph glyph-name="k" unicode="k" horiz-adv-x="646" 
d="M370 274l180 -205c12 -14 18 -17 57 -17h19v-52c-32 3 -95 3 -109 3c-45 0 -62 0 -120 -3v52c8 0 23 0 23 7c0 5 -118 137 -134 154l-65 -48v-113h66v-52c-51 3 -79 3 -121 3c-38 0 -69 0 -120 -3v52h66v543c0 39 -7 39 -66 39v52l182 8v-454l195 143c-4 6 -7 9 -22 9v52
c55 -3 72 -3 111 -3c50 0 52 0 87 3v-52c-67 0 -75 -6 -89 -16z" />
    <glyph glyph-name="l" unicode="l" horiz-adv-x="340" 
d="M241 694v-642h66v-52c-58 3 -68 3 -124 3s-66 0 -124 -3v52h66v543c0 39 -7 39 -66 39v52z" />
    <glyph glyph-name="m" unicode="m" horiz-adv-x="1020" 
d="M924 303v-251h66v-52c-54 3 -88 3 -127 3c-38 0 -73 0 -127 -3v52h66v262c0 78 -23 95 -58 95c-64 0 -160 -45 -160 -156v-201h66v-52c-54 3 -88 3 -127 3c-38 0 -73 0 -127 -3v52h66v262c0 78 -23 95 -58 95c-64 0 -160 -45 -160 -156v-201h66v-52c-54 3 -88 3 -127 3
c-38 0 -73 0 -127 -3v52h66v300c0 39 -7 39 -66 39v52l175 8v-102h1c12 22 66 102 187 102c68 0 135 -14 159 -92c21 31 76 92 181 92c92 0 165 -28 165 -148z" />
    <glyph glyph-name="n" unicode="n" horiz-adv-x="680" 
d="M584 303v-251h66v-52c-54 3 -88 3 -127 3c-38 0 -73 0 -127 -3v52h66v262c0 78 -23 95 -58 95c-64 0 -160 -45 -160 -156v-201h66v-52c-54 3 -88 3 -127 3c-38 0 -73 0 -127 -3v52h66v300c0 39 -7 39 -66 39v52l175 8v-102h1c12 22 66 102 187 102c89 0 165 -26 165 -148
z" />
    <glyph glyph-name="o" unicode="o" 
d="M578 218c0 -118 -86 -225 -272 -225c-184 0 -272 106 -272 225c0 125 88 237 272 237c183 0 272 -111 272 -237zM306 40c137 0 137 103 137 190c0 81 0 183 -137 183s-137 -101 -137 -183c0 -87 0 -190 137 -190z" />
    <glyph glyph-name="p" unicode="p" horiz-adv-x="680" 
d="M300 -142v-52c-54 3 -88 3 -127 3c-38 0 -73 0 -127 -3v52h66v497c0 19 0 30 -17 33c-12 3 -30 3 -49 3v52l182 8v-47c48 32 104 47 161 47c161 0 250 -103 250 -228c0 -135 -105 -230 -269 -230c-35 0 -84 6 -136 44v-179h66zM234 342v-236c33 -49 81 -71 126 -71
c73 0 144 54 144 188c0 114 -53 181 -132 181c-71 0 -121 -41 -138 -62z" />
    <glyph glyph-name="q" unicode="q" horiz-adv-x="646" 
d="M568 451v-593h66v-52c-54 3 -88 3 -127 3c-38 0 -73 0 -127 -3v52h66v188c-65 -53 -131 -53 -149 -53c-155 0 -256 94 -256 229c0 132 102 229 265 229c69 0 119 -28 163 -78l49 78h50zM452 150v125c0 51 -51 129 -133 129c-69 0 -143 -50 -143 -183
c0 -124 59 -186 131 -186c33 0 86 12 129 70c16 23 16 27 16 45z" />
    <glyph glyph-name="r" unicode="r" horiz-adv-x="506" 
d="M228 214v-162h82v-52c-77 3 -79 3 -136 3c-60 0 -70 0 -128 -3v52h66v300c0 39 -7 39 -66 39v52l169 8v-107l1 -1c15 38 56 108 141 108c58 0 114 -32 114 -87c0 -39 -29 -66 -66 -66s-66 26 -66 66c0 28 16 44 16 45c-96 -3 -127 -116 -127 -195z" />
    <glyph glyph-name="s" unicode="s" horiz-adv-x="483" 
d="M411 424v-73c0 -24 -1 -31 -28 -31c-12 0 -26 0 -28 16c-2 28 -7 82 -119 82c-21 0 -118 0 -118 -59c0 -44 55 -53 146 -68c38 -6 90 -14 134 -55c23 -21 43 -51 43 -95c0 -148 -165 -148 -196 -148c-21 0 -74 0 -124 30l-26 -17c-21 -13 -23 -13 -32 -13
c-22 0 -22 12 -22 31v103c0 23 0 31 28 31c22 0 24 -2 29 -19c16 -47 45 -104 147 -104c31 0 119 2 119 72c0 55 -74 67 -124 75c-65 11 -108 18 -148 46c-25 19 -51 48 -51 93c0 134 163 134 197 134c17 0 64 0 106 -17c34 17 37 17 45 17c22 0 22 -12 22 -31z" />
    <glyph glyph-name="t" unicode="t" horiz-adv-x="476" 
d="M231 392v-272c0 -27 1 -80 59 -80c23 0 61 16 61 85v49h56v-51c0 -79 -56 -130 -132 -130c-85 0 -166 27 -166 130v269h-86v42c100 2 151 102 152 201h56v-191h156v-52h-156z" />
    <glyph glyph-name="u" unicode="u" horiz-adv-x="680" 
d="M396 443l188 8v-360c0 -39 7 -39 66 -39v-52l-182 -7v70c-54 -70 -121 -70 -154 -70c-98 0 -192 18 -192 130v229c0 39 -7 39 -66 39v52l188 8v-342c0 -51 3 -74 84 -74s134 51 134 127v190c0 39 -7 39 -66 39v52z" />
    <glyph glyph-name="v" unicode="v" horiz-adv-x="646" 
d="M543 371l-174 -348c-14 -28 -30 -28 -46 -28c-31 0 -36 11 -45 28l-185 369h-63v52c43 -3 85 -3 117 -3c51 0 62 0 123 3v-52h-48l135 -268l123 247c5 9 5 11 6 13c-10 5 -17 8 -43 8v52c30 -3 83 -3 90 -3c43 0 45 0 83 3v-52c-62 0 -65 -5 -73 -21z" />
    <glyph glyph-name="w" unicode="w" horiz-adv-x="884" 
d="M790 371l-150 -348c-12 -28 -28 -28 -43 -28c-30 0 -34 9 -43 30l-112 258l-112 -258c-9 -21 -13 -30 -43 -30c-14 0 -31 0 -43 28l-158 369h-58v52c35 -3 91 -3 113 -3c47 0 63 0 121 3v-52h-50l108 -251l86 200c2 5 3 8 5 15c-5 10 -13 29 -16 36h-57v52
c30 -3 85 -3 102 -3c21 0 67 0 112 3v-52h-51l118 -274l109 252c2 4 3 8 5 14c-21 8 -37 8 -53 8v52c32 -3 62 -3 94 -3c45 0 47 0 82 3v-52c-57 0 -59 -4 -66 -21z" />
    <glyph glyph-name="x" unicode="x" horiz-adv-x="646" 
d="M372 244l177 -192h70v-52c-35 3 -97 3 -112 3c-49 0 -62 0 -120 -3v52h30l-112 122l-108 -113c5 -4 10 -9 29 -9v-52c-35 3 -97 3 -103 3c-18 0 -64 0 -95 -3v52h17c62 0 72 7 83 18l139 145l-163 177h-70v52c35 -3 94 -3 112 -3c49 0 62 0 120 3v-52h-30l99 -107l85 88
c1 1 7 7 7 10c0 6 -17 9 -27 9v52c35 -3 93 -3 102 -3c20 0 65 0 95 3v-52c-52 0 -82 0 -98 -17z" />
    <glyph glyph-name="y" unicode="y" horiz-adv-x="646" 
d="M543 371l-235 -461c-14 -27 -74 -111 -171 -111c-64 0 -113 45 -113 98c0 41 30 63 63 63c32 0 62 -22 62 -62c0 -22 -9 -42 -29 -54c5 -2 9 -3 18 -3c16 0 59 5 97 54c7 10 15 20 56 105l-198 392h-63v52c40 -3 94 -3 117 -3c44 0 65 0 123 3v-52h-47l134 -264l122 241
c2 4 5 10 5 13c0 10 -40 10 -41 10v52c30 -3 83 -3 90 -3c43 0 45 0 83 3v-52c-62 0 -64 -4 -73 -21z" />
    <glyph glyph-name="z" unicode="z" horiz-adv-x="544" 
d="M479 396l-290 -349h88c128 0 150 57 159 159h56l-20 -206h-404c-19 0 -34 0 -34 26c0 9 0 14 11 27l290 349h-83c-105 0 -138 -34 -145 -136h-56l13 178h391c18 0 34 0 34 -25c0 -7 0 -11 -10 -23z" />
    <glyph glyph-name="endash" unicode="&#x2013;" 
d="M612 253h-612v42h612v-42z" />
    <glyph glyph-name="emdash" unicode="&#x2014;" horiz-adv-x="1225" 
d="M1224 253h-1224v42h1224v-42z" />
    <glyph glyph-name="hungarumlaut" unicode="&#x2dd;" 
d="M294 598l-101 -87l-46 33l47 121c4 11 18 46 56 46c32 0 70 -30 70 -66c0 -25 -17 -39 -26 -47zM351 544l47 121c4 11 18 46 56 46c32 0 70 -30 70 -66c0 -25 -17 -39 -26 -47l-101 -87z" />
    <glyph glyph-name="tilde" unicode="&#x2dc;" 
d="M480 694l30 -30c-46 -44 -34 -35 -55 -56c-19 -18 -44 -36 -81 -36c-17 0 -38 4 -70 16c-33 13 -62 24 -88 24c-42 0 -74 -28 -84 -40l-30 30c46 44 34 35 55 56c19 18 44 36 81 36c17 0 38 -4 70 -16c33 -13 62 -24 88 -24c42 0 74 28 84 40z" />
    <glyph glyph-name="dieresis" unicode="&#xa8;" 
d="M261 621c0 -34 -28 -73 -74 -73c-35 0 -73 27 -73 74c0 43 36 73 73 73c44 0 74 -36 74 -74zM498 621c0 -43 -36 -73 -73 -73c-44 0 -74 36 -74 74c0 34 28 73 74 73c35 0 73 -27 73 -74z" />
    <glyph glyph-name="space" unicode=" " horiz-adv-x="408" 
 />
  </font>
</defs>
</svg>
