<?xml version="1.0" ?><!DOCTYPE svg  PUBLIC '-//W3C//DTD SVG 1.1//EN'  'http://www.w3.org/Graphics/SVG/1.1/DTD/svg11.dtd'><svg height="60.646" viewBox="231.725 108.094 305.843 60.646" width="305.843" xmlns="http://www.w3.org/2000/svg" xmlns:xlink="http://www.w3.org/1999/xlink"><defs><path d="M470 670l-164 -660c30 0 107 0 191 94c64 72 84 146 84 182c0 52 -27 79 -36 88c-4 4 -11 11 -11 23c0 20 22 44 46 44c10 0 40 -7 40 -67c0 -51 -24 -140 -34 -166c-17 -43 -47 -89 -80 -125c-90 -93 -169 -93 -206 -93c-4 -18 -45 -186 -49 -190c-2 -4 -6 -4 -8 -4 c-3 0 -11 0 -11 9c0 4 7 32 23 92c8 31 15 63 23 94c-90 7 -170 44 -170 140c0 23 0 45 54 187c17 44 17 66 17 70c0 32 -17 33 -26 33c-37 0 -77 -37 -101 -124c-4 -14 -5 -18 -14 -18c-7 0 -11 5 -11 9c0 8 37 153 129 153c47 0 79 -36 79 -81c0 -18 -5 -31 -18 -67 c-47 -124 -47 -147 -47 -169c0 -60 31 -102 114 -112l165 662c4 15 5 20 14 20c3 0 11 0 11 -9c0 -1 -4 -14 -4 -15z" id="2018"/><path d="M661 230h-545c-14 0 -33 0 -33 20s19 20 33 20h545c14 0 33 0 33 -20s-19 -20 -33 -20z" id="0021"/><path d="M327 712l-176 -462l176 -462c5 -12 5 -17 5 -18c0 -11 -9 -20 -20 -20c-14 0 -17 10 -22 22l-175 460c-5 12 -5 17 -5 18s0 6 5 18l176 462c4 11 8 20 21 20c11 0 20 -9 20 -20c0 -1 0 -6 -5 -18z" id="6821"/><path d="M159 717v-934c0 -14 0 -33 -20 -33s-20 19 -20 33v934c0 14 0 33 20 33s20 -19 20 -33z" id="6a21"/><path d="M273 232l-176 -462c-4 -11 -8 -20 -21 -20c-11 0 -20 9 -20 20c0 1 0 6 5 18l176 462l-176 462c-5 12 -5 17 -5 18c0 11 9 20 20 20c14 0 17 -10 22 -22l175 -460c5 -12 5 -17 5 -18s0 -6 -5 -18z" id="6921"/><path d="M643 321h-567c-15 0 -30 0 -30 17c0 18 17 18 34 18h559c17 0 34 0 34 -18c0 -17 -15 -17 -30 -17zM639 143h-559c-17 0 -34 0 -34 18c0 17 15 17 30 17h567c15 0 30 0 30 -17c0 -18 -17 -18 -34 -18z" id="3d15"/><path d="M471 405c40 -29 66 -78 66 -139c0 -135 -127 -278 -262 -278c-14 0 -63 0 -107 39c-29 25 -44 61 -50 82l-71 -284c-5 -18 -6 -19 -14 -19c-10 0 -10 6 -10 8c0 3 1 7 3 15l152 607c33 133 144 268 272 268c78 0 130 -54 130 -126c0 -62 -40 -132 -109 -173zM441 420 c71 50 81 169 81 183c0 48 -26 81 -75 81c-76 0 -133 -57 -153 -76c-68 -68 -92 -165 -101 -201c-13 -53 -26 -106 -40 -158c-13 -52 -17 -69 -17 -94c0 -84 54 -147 139 -147c54 0 102 39 130 80c45 65 64 170 64 213c0 21 0 59 -31 88c-32 -12 -60 -12 -73 -12 c-28 0 -64 1 -64 24c0 30 51 30 73 30c19 0 40 0 67 -11zM323 402c13 -4 17 -5 42 -5c13 0 28 0 47 8c-14 6 -24 6 -40 6c-3 0 -28 0 -40 -4c-2 0 -7 -4 -9 -5z" id="0c19"/><path d="M263 249c0 -96 -14 -204 -64 -315c-49 -110 -134 -184 -145 -184c-3 0 -7 1 -7 6c0 2 1 3 2 5c49 50 170 177 170 489c0 311 -122 438 -170 488c-1 2 -2 3 -2 5c0 5 4 6 7 6c12 0 94 -73 142 -177c60 -129 67 -251 67 -323z" id="2915"/><path d="M306 -244c0 -4 -2 -6 -7 -6c-12 0 -94 73 -142 177c-60 129 -67 251 -67 323c0 96 14 204 64 315c49 110 134 184 145 184c4 0 7 -2 7 -5s-2 -5 -2 -6c-49 -50 -170 -177 -170 -489s123 -440 169 -487c3 -3 3 -5 3 -6z" id="2815"/><path d="M420 321c0 -73 -4 -154 -34 -223c-41 -95 -111 -114 -157 -114c-39 0 -116 14 -159 117c-31 76 -32 163 -32 220c0 78 4 171 44 246c38 72 99 94 147 94c52 0 111 -25 148 -95c42 -80 43 -184 43 -245zM229 0c35 0 94 19 115 128c12 59 12 139 12 204 c0 80 -1 147 -14 204c-19 82 -72 109 -113 109c-39 0 -95 -26 -114 -111c-13 -61 -13 -125 -13 -202c0 -56 0 -142 11 -201c14 -76 52 -131 116 -131z" id="3015"/><path d="M463 253v-85c62 82 88 160 101 204c4 18 5 21 14 21c3 0 11 0 11 -9c0 -1 -24 -127 -126 -249c0 -61 0 -125 31 -125c24 0 47 22 56 47c3 8 4 11 12 11c3 0 10 0 10 -9c0 -13 -27 -69 -81 -69c-43 0 -74 28 -88 84c-71 -60 -145 -84 -207 -84c-102 0 -156 79 -156 166 c0 142 131 285 262 285c106 0 161 -91 161 -188zM400 98c-1 11 -2 16 -2 36c0 25 1 51 1 76c0 84 0 211 -97 211c-45 0 -101 -31 -142 -101c-31 -55 -53 -157 -53 -200c0 -47 20 -110 91 -110c35 0 114 9 202 88z" id="0b19"/><path d="M301 119l49 196c1 2 4 15 4 16c0 8 -13 90 -79 90c-39 0 -86 -36 -120 -106c-19 -42 -50 -154 -50 -209c0 -59 23 -96 64 -96c47 0 91 43 113 71c14 19 14 21 19 38zM365 375c2 12 10 47 42 47c15 0 26 -11 26 -25c0 -6 -9 -42 -46 -192c-8 -29 -13 -51 -20 -76 c-9 -39 -12 -50 -12 -73c0 -20 2 -46 31 -46c41 0 60 63 75 122c4 15 5 20 14 20c6 0 10 -4 10 -9c0 -4 -14 -65 -30 -99c-18 -36 -42 -54 -72 -54s-77 17 -87 76c-28 -33 -75 -76 -130 -76c-68 0 -126 58 -126 157c0 148 122 294 235 294c52 0 79 -40 90 -66z" id="6118"/></defs><g transform="scale(1.25)"><g transform="scale(0.02488,-0.02488)"><g transform="translate(7762.897,-4627.612)"><use xlink:href="#2815"/></g></g><g transform="scale(0.02488,-0.02488)"><g transform="translate(8116.897,-4627.612)"><use xlink:href="#6118"/></g></g><g transform="scale(0.02074,-0.02074)"><g transform="translate(10353.746,-5832.592)"><use xlink:href="#0c19"/></g></g><g transform="scale(0.02488,-0.02488)"><g transform="translate(9380.22,-4627.612)"><use xlink:href="#0021"/><use x="999.221" xlink:href="#6118"/></g></g><g transform="scale(0.02074,-0.02074)"><g transform="translate(13067.927,-5731.29)"><use xlink:href="#0b19"/></g></g><g transform="scale(0.02488,-0.02488)"><g transform="translate(11438.007,-4627.612)"><use xlink:href="#2915"/></g></g><g transform="scale(0.02488,-0.02488)"><g transform="translate(11792.007,-4627.612)"><use xlink:href="#6821"/><use x="388" xlink:href="#2018"/></g></g><g transform="scale(0.02074,-0.02074)"><g transform="translate(15374.264,-5731.29)"><use xlink:href="#0b19"/></g></g><g transform="scale(0.02488,-0.02488)"><g transform="translate(13360.572,-4627.612)"><use xlink:href="#6a21"/><use x="277" xlink:href="#2018"/></g></g><g transform="scale(0.02074,-0.02074)"><g transform="translate(17122.779,-5832.592)"><use xlink:href="#0c19"/></g></g><g transform="scale(0.02488,-0.02488)"><g transform="translate(14800.674,-4627.612)"><use xlink:href="#6921"/></g></g><g transform="scale(0.02488,-0.02488)"><g transform="translate(15466.451,-4627.612)"><use xlink:href="#3d15"/><use x="996.777" xlink:href="#3015"/></g></g></g></svg>