<?xml version="1.0" ?><!DOCTYPE svg  PUBLIC '-//W3C//DTD SVG 1.1//EN'  'http://www.w3.org/Graphics/SVG/1.1/DTD/svg11.dtd'><svg height="81.399" viewBox="326.11 96.664 115.772 81.399" width="115.772" xmlns="http://www.w3.org/2000/svg" xmlns:xlink="http://www.w3.org/1999/xlink"><defs><path d="M446 402h-85c-5 -30 -54 -296 -72 -373c-11 -50 -53 -233 -155 -233c-39 0 -83 22 -83 65c0 38 30 55 50 55c19 0 34 -12 34 -32c0 -1 0 -45 -51 -49c18 -19 47 -19 50 -19c50 0 65 73 82 160c23 107 64 333 82 426h-64c-20 0 -26 0 -26 11c0 18 10 18 29 18h67 c23 131 33 167 51 202c20 39 62 71 105 71c44 0 86 -23 86 -65c0 -38 -30 -55 -50 -55c-19 0 -34 12 -34 32c0 17 12 46 51 50c-10 9 -31 18 -52 18c-26 0 -47 -23 -53 -47c-8 -32 -22 -103 -41 -206h81c18 0 26 0 26 -10c0 -19 -8 -19 -28 -19z" id="6618"/><path d="M643 321h-567c-15 0 -30 0 -30 17c0 18 17 18 34 18h559c17 0 34 0 34 -18c0 -17 -15 -17 -30 -17zM639 143h-559c-17 0 -34 0 -34 18c0 17 15 17 30 17h567c15 0 30 0 30 -17c0 -18 -17 -18 -34 -18z" id="3d15"/><path d="M417 155l-24 -155h-352v23l199 225c57 65 108 140 108 227c0 91 -57 160 -144 160c-61 0 -119 -42 -138 -127c4 2 10 3 16 3c14 0 40 -9 40 -40c0 -35 -30 -41 -40 -41c-12 0 -41 5 -41 44c0 90 67 187 177 187c105 0 199 -68 199 -186c0 -99 -71 -167 -132 -225 c-85 -82 -155 -153 -191 -192h192c14 0 86 0 91 8c4 6 12 18 22 89h18z" id="3215"/><path d="M288 144c6 -83 49 -88 75 -88c109 0 191 143 191 229c0 39 -14 68 -35 89c-4 4 -11 11 -11 23c0 21 23 44 46 44c15 0 40 -12 40 -67c0 -85 -68 -384 -244 -384c-56 0 -86 36 -91 98c-32 -50 -80 -98 -146 -98c-101 0 -101 114 -101 137c0 33 4 136 73 253 c13 23 30 50 39 50c7 0 10 -5 10 -10c0 -2 0 -4 -8 -16c-70 -102 -86 -186 -86 -234c0 -14 2 -53 19 -79c22 -35 52 -35 67 -35c58 0 103 43 134 92c2 20 4 37 14 82c7 34 15 60 35 60c7 0 17 -5 17 -21c0 -14 -14 -69 -38 -125z" id="2118"/><path d="M259 377l-58 -226c-10 -40 -10 -42 -26 -93c-12 -42 -20 -68 -49 -68c-9 0 -27 5 -27 26c0 6 0 8 8 24c82 175 107 262 129 337h-57c-25 0 -77 0 -129 -82c-5 -6 -6 -9 -13 -9c-6 0 -11 2 -11 8s32 59 58 88c46 49 80 49 103 49h329c18 0 37 0 37 -22 c0 -32 -33 -32 -46 -32h-112c-21 -90 -21 -161 -21 -167c0 -7 0 -93 27 -162c7 -15 7 -17 7 -22c0 -17 -18 -36 -39 -36c-41 0 -41 108 -41 122c0 80 17 153 44 265h-113z" id="1918"/></defs><g transform="scale(1.25)"><rect height="0.995" width="26.122" x="270.888" y="108.417"/><g transform="scale(0.02488,-0.02488)"><g transform="translate(11089.96,-3951.104)"><use xlink:href="#2118"/></g></g><g transform="scale(0.02488,-0.02488)"><g transform="translate(10887.791,-5313.562)"><use xlink:href="#3215"/></g></g><g transform="scale(0.02488,-0.02488)"><g transform="translate(11345.791,-5313.562)"><use xlink:href="#1918"/></g></g><g transform="scale(0.02488,-0.02488)"><g transform="translate(12263.732,-4627.612)"><use xlink:href="#3d15"/></g></g><g transform="scale(0.02488,-0.02488)"><g transform="translate(13260.508,-4627.612)"><use xlink:href="#6618"/></g></g></g></svg>