<?xml version="1.0" ?><!DOCTYPE svg  PUBLIC '-//W3C//DTD SVG 1.1//EN'  'http://www.w3.org/Graphics/SVG/1.1/DTD/svg11.dtd'><svg height="52.437" viewBox="320.188 103.982 127.653 52.437" width="127.653" xmlns="http://www.w3.org/2000/svg" xmlns:xlink="http://www.w3.org/1999/xlink"><defs><path d="M377 232v-265c0 -15 0 -31 -18 -31c-17 0 -17 17 -17 31v265h-265c-15 0 -31 0 -31 18c0 17 17 17 31 17h265v265c0 15 0 31 18 31c17 0 17 -17 17 -31v-265h265c15 0 31 0 31 -18c0 -17 -17 -17 -31 -17h-265z" id="2b16"/><path d="M643 321h-567c-15 0 -30 0 -30 17c0 18 17 18 34 18h559c17 0 34 0 34 -18c0 -17 -15 -17 -30 -17zM639 143h-559c-17 0 -34 0 -34 18c0 17 15 17 30 17h567c15 0 30 0 30 -17c0 -18 -17 -18 -34 -18z" id="3d15"/><path d="M170 111l350 586c9 15 15 17 25 17c11 0 15 -2 17 -22l61 -624c3 -30 4 -39 59 -39c15 0 24 0 24 -10c0 -19 -11 -19 -18 -19c-1 0 -45 2 -106 2h-57c-17 0 -37 -2 -54 -2c-6 0 -15 0 -15 11c0 18 11 18 22 18c16 0 67 2 67 32c0 19 -12 123 -15 149c-1 9 -1 17 -2 26 h-255l-76 -126c-13 -22 -19 -33 -19 -47c0 -24 19 -32 42 -34c6 0 14 -1 14 -10c0 -19 -12 -19 -18 -19c-28 0 -60 2 -89 2c-18 0 -63 -2 -81 -2c-7 0 -12 4 -12 10c0 18 8 18 19 19c48 3 82 23 117 82zM290 265h235l-34 336z" id="4118"/></defs><g transform="scale(1.25)"><g transform="scale(0.02488,-0.02488)"><g transform="translate(10663.362,-4627.612)"><use xlink:href="#4118"/></g></g><g transform="scale(0.02074,-0.02074)"><g transform="translate(13672.437,-5056.038)"><use xlink:href="#2b16"/></g></g><g transform="scale(0.02488,-0.02488)"><g transform="translate(12295.313,-4627.612)"><use xlink:href="#3d15"/></g></g><g transform="scale(0.02488,-0.02488)"><g transform="translate(13292.089,-4627.612)"><use xlink:href="#4118"/></g></g></g></svg>