<?xml version="1.0" ?><!DOCTYPE svg  PUBLIC '-//W3C//DTD SVG 1.1//EN'  'http://www.w3.org/Graphics/SVG/1.1/DTD/svg11.dtd'><svg height="56.1" viewBox="350.52 108.094 67.141 56.1" width="67.141" xmlns="http://www.w3.org/2000/svg" xmlns:xlink="http://www.w3.org/1999/xlink"><defs><path d="M429 713l-335 -941c-7 -21 -16 -22 -22 -22c-8 0 -18 7 -18 19c0 2 6 17 6 18l335 941c8 22 17 22 22 22c8 0 18 -7 18 -19c0 -2 -6 -17 -6 -18z" id="3d18"/><path d="M391 376c-20 43 -75 45 -88 45c-63 0 -117 -54 -143 -101c-36 -68 -53 -165 -53 -200c0 -50 22 -110 91 -110c38 0 133 15 197 100c9 9 10 10 13 10c4 0 10 -5 10 -11c0 -13 -86 -119 -222 -119c-102 0 -156 79 -156 166c0 142 131 285 262 285c69 0 115 -37 115 -85 c0 -40 -27 -60 -51 -60c-19 0 -34 12 -34 32c0 16 11 31 17 36c14 12 23 12 42 12z" id="6318"/><path d="M301 119l49 196c1 2 4 15 4 16c0 8 -13 90 -79 90c-39 0 -86 -36 -120 -106c-19 -42 -50 -154 -50 -209c0 -59 23 -96 64 -96c47 0 91 43 113 71c14 19 14 21 19 38zM365 375c2 12 10 47 42 47c15 0 26 -11 26 -25c0 -6 -9 -42 -46 -192c-8 -29 -13 -51 -20 -76 c-9 -39 -12 -50 -12 -73c0 -20 2 -46 31 -46c41 0 60 63 75 122c4 15 5 20 14 20c6 0 10 -4 10 -9c0 -4 -14 -65 -30 -99c-18 -36 -42 -54 -72 -54s-77 17 -87 76c-28 -33 -75 -76 -130 -76c-68 0 -126 58 -126 157c0 148 122 294 235 294c52 0 79 -40 90 -66z" id="6118"/></defs><g transform="scale(1.25)"><g transform="scale(0.02488,-0.02488)"><g transform="translate(11632.663,-4627.612)"><use xlink:href="#6318"/><use x="421" xlink:href="#3d18"/><use x="910" xlink:href="#6118"/></g></g></g></svg>