<?xml version="1.0" ?><!DOCTYPE svg  PUBLIC '-//W3C//DTD SVG 1.1//EN'  'http://www.w3.org/Graphics/SVG/1.1/DTD/svg11.dtd'><svg height="56.062" viewBox="303.749 101.383 160.65 56.062" width="160.65" xmlns="http://www.w3.org/2000/svg" xmlns:xlink="http://www.w3.org/1999/xlink"><defs><path d="M619 572l-361 -574c-10 -16 -15 -19 -27 -19c-14 0 -14 3 -17 24l-80 617c-3 25 -6 34 -57 34c-16 0 -23 0 -23 11c0 18 12 18 18 18c1 0 31 -2 104 -2h56c17 0 37 2 54 2c3 0 14 0 14 -10c0 -19 -9 -19 -24 -19c-11 0 -63 -2 -63 -31l70 -539l314 498c1 1 15 24 15 39 c0 12 -4 30 -41 33c-4 0 -13 1 -13 10c0 19 10 19 18 19c28 0 58 -2 87 -2c18 0 61 2 79 2c9 0 11 -6 11 -10c0 -18 -8 -18 -18 -19c-51 -4 -82 -28 -116 -82z" id="5618"/><path d="M661 230h-545c-14 0 -33 0 -33 20s19 20 33 20h545c14 0 33 0 33 -20s-19 -20 -33 -20z" id="0021"/><path d="M297 326l-64 -255c-2 -7 -4 -15 -4 -20c0 -15 2 -22 81 -22c22 0 28 0 28 -11c0 -18 -12 -18 -21 -18c-22 0 -46 2 -68 2h-130c-19 0 -39 -2 -58 -2c-6 0 -15 0 -15 11c0 18 10 18 29 18c70 0 72 10 81 45l135 540c3 11 4 15 4 20c0 11 0 18 -62 18c-17 0 -24 0 -24 11 c0 18 10 18 29 18h474c18 0 27 0 27 -11c0 -2 -2 -12 -2 -15l-21 -175c-2 -18 -6 -22 -13 -22c-6 0 -11 3 -11 11c0 4 2 17 3 21c3 26 3 48 3 54c0 71 -18 108 -143 108h-134c-41 0 -43 -3 -52 -38l-65 -259h91c87 0 107 21 128 96c4 17 5 21 14 21c7 0 10 -6 10 -10 l-58 -233c-4 -16 -5 -20 -13 -20c-7 0 -11 4 -11 11c0 2 1 7 3 11c5 22 7 36 7 49c0 29 -6 46 -82 46h-96z" id="4618"/><path d="M643 321h-567c-15 0 -30 0 -30 17c0 18 17 18 34 18h559c17 0 34 0 34 -18c0 -17 -15 -17 -30 -17zM639 143h-559c-17 0 -34 0 -34 18c0 17 15 17 30 17h567c15 0 30 0 30 -17c0 -18 -17 -18 -34 -18z" id="3d15"/><path d="M535 597h-320c-16 0 -34 0 -34 18c0 19 17 19 34 19h336c-19 27 -25 51 -25 60c0 15 12 19 18 19c14 0 17 -12 20 -20c3 -12 10 -39 38 -58c6 -5 14 -10 14 -19c0 -11 -7 -14 -17 -20c-23 -13 -50 -32 -74 -62c-7 -10 -11 -16 -20 -16c-10 0 -19 9 -19 19 c0 14 37 49 49 60z" id="7e18"/><path d="M780 663l-338 -678c-7 -13 -9 -18 -26 -18s-19 5 -26 18l-338 678c-5 9 -5 11 -5 12c0 8 6 8 22 8h694c16 0 22 0 22 -8c0 -1 0 -3 -5 -12zM170 612l275 -551h1l274 551h-550z" id="7221"/></defs><g transform="scale(1.25)"><g transform="scale(0.02488,-0.02488)"><g transform="translate(10267.59,-4374.835)"><use xlink:href="#7e18"/></g><g transform="translate(10122.77,-4627.612)"><use xlink:href="#4618"/></g></g><g transform="scale(0.02488,-0.02488)"><g transform="translate(11170.39,-4627.612)"><use xlink:href="#3d15"/></g></g><g transform="scale(0.02488,-0.02488)"><g transform="translate(12167.167,-4627.612)"><use xlink:href="#0021"/></g><g transform="translate(13039.137,-4374.835)"><use xlink:href="#7e18"/></g><g transform="translate(12944.167,-4627.612)"><use xlink:href="#7221"/><use x="833.336" xlink:href="#5618"/></g></g></g></svg>