<?xml version="1.0" ?><!DOCTYPE svg  PUBLIC '-//W3C//DTD SVG 1.1//EN'  'http://www.w3.org/Graphics/SVG/1.1/DTD/svg11.dtd'><svg height="52.928" viewBox="316.766 109.524 134.67 52.928" width="134.67" xmlns="http://www.w3.org/2000/svg" xmlns:xlink="http://www.w3.org/1999/xlink"><defs><path d="M619 572l-361 -574c-10 -16 -15 -19 -27 -19c-14 0 -14 3 -17 24l-80 617c-3 25 -6 34 -57 34c-16 0 -23 0 -23 11c0 18 12 18 18 18c1 0 31 -2 104 -2h56c17 0 37 2 54 2c3 0 14 0 14 -10c0 -19 -9 -19 -24 -19c-11 0 -63 -2 -63 -31l70 -539l314 498c1 1 15 24 15 39 c0 12 -4 30 -41 33c-4 0 -13 1 -13 10c0 19 10 19 18 19c28 0 58 -2 87 -2c18 0 61 2 79 2c9 0 11 -6 11 -10c0 -18 -8 -18 -18 -19c-51 -4 -82 -28 -116 -82z" id="5618"/><path d="M643 321h-567c-15 0 -30 0 -30 17c0 18 17 18 34 18h559c17 0 34 0 34 -18c0 -17 -15 -17 -30 -17zM639 143h-559c-17 0 -34 0 -34 18c0 17 15 17 30 17h567c15 0 30 0 30 -17c0 -18 -17 -18 -34 -18z" id="3d15"/><path d="M747 695l-63 -255c-4 -18 -5 -19 -16 -19c-3 0 -13 0 -13 9c0 4 3 26 3 52c0 102 -49 193 -159 193c-95 0 -189 -56 -244 -120c-113 -131 -123 -305 -123 -337c0 -142 92 -210 198 -210c100 0 235 75 281 231c2 4 3 10 12 10c3 0 11 0 11 -9c0 -8 -26 -105 -113 -178 c-58 -49 -128 -83 -208 -83c-146 0 -263 104 -263 271c0 235 224 454 440 454c75 0 130 -34 165 -94l69 84c8 10 12 10 14 10s9 0 9 -9z" id="4318"/><path d="M426 6c5 -77 18 -112 69 -112c44 0 96 36 118 99c3 11 5 16 11 16c5 0 9 -4 9 -10s-44 -193 -163 -193c-80 0 -80 75 -80 104c0 19 0 24 6 84c-32 -10 -65 -15 -99 -15c-145 0 -249 107 -249 264c0 231 216 461 430 461c140 0 248 -101 248 -266 c0 -181 -128 -363 -300 -432zM246 11c-4 7 -8 22 -8 33c0 49 46 103 100 103c66 0 80 -60 85 -111c188 110 223 358 223 432c0 130 -70 214 -174 214c-78 0 -177 -51 -251 -165c-66 -101 -92 -234 -92 -304c0 -92 38 -175 117 -202zM398 23c1 6 1 14 1 20 c0 50 -11 84 -61 84c-45 0 -80 -46 -80 -82c0 -44 35 -44 45 -44c28 0 59 6 95 22z" id="5118"/></defs><g transform="scale(1.25)"><g transform="scale(0.02488,-0.02488)"><g transform="translate(10539.323,-4627.612)"><use xlink:href="#5118"/></g></g><g transform="scale(0.02488,-0.02488)"><g transform="translate(11592.1,-4627.612)"><use xlink:href="#3d15"/></g></g><g transform="scale(0.02488,-0.02488)"><g transform="translate(12588.877,-4627.612)"><use xlink:href="#4318"/><use x="771.816" xlink:href="#5618"/></g></g></g></svg>