<?xml version="1.0" ?><!DOCTYPE svg  PUBLIC '-//W3C//DTD SVG 1.1//EN'  'http://www.w3.org/Graphics/SVG/1.1/DTD/svg11.dtd'><svg height="57.286" viewBox="290.767 108.094 187.503 57.286" width="187.503" xmlns="http://www.w3.org/2000/svg" xmlns:xlink="http://www.w3.org/1999/xlink"><defs><path d="M420 321c0 -73 -4 -154 -34 -223c-41 -95 -111 -114 -157 -114c-39 0 -116 14 -159 117c-31 76 -32 163 -32 220c0 78 4 171 44 246c38 72 99 94 147 94c52 0 111 -25 148 -95c42 -80 43 -184 43 -245zM229 0c35 0 94 19 115 128c12 59 12 139 12 204 c0 80 -1 147 -14 204c-19 82 -72 109 -113 109c-39 0 -95 -26 -114 -111c-13 -61 -13 -125 -13 -202c0 -56 0 -142 11 -201c14 -76 52 -131 116 -131z" id="3016"/><path d="M391 376c-20 43 -75 45 -88 45c-63 0 -117 -54 -143 -101c-36 -68 -53 -165 -53 -200c0 -50 22 -110 91 -110c38 0 133 15 197 100c9 9 10 10 13 10c4 0 10 -5 10 -11c0 -13 -86 -119 -222 -119c-102 0 -156 79 -156 166c0 142 131 285 262 285c69 0 115 -37 115 -85 c0 -40 -27 -60 -51 -60c-19 0 -34 12 -34 32c0 16 11 31 17 36c14 12 23 12 42 12z" id="6318"/><path d="M291 227h-166c-9 -40 -11 -66 -11 -85c0 -97 56 -132 109 -132c30 0 67 12 105 37c5 4 7 5 10 5c6 0 9 -6 9 -12c0 -10 -63 -50 -127 -50c-99 0 -174 75 -174 186c0 157 135 255 258 255h34c18 0 29 0 29 -13c0 -16 -15 -16 -32 -16h-29c-89 0 -148 -55 -173 -146h162 c18 0 28 0 28 -13c0 -16 -17 -16 -32 -16z" id="0f18"/><path d="M429 713l-335 -941c-7 -21 -16 -22 -22 -22c-8 0 -18 7 -18 19c0 2 6 17 6 18l335 941c8 22 17 22 22 22c8 0 18 -7 18 -19c0 -2 -6 -17 -6 -18z" id="3d18"/><path d="M643 321h-567c-15 0 -30 0 -30 17c0 18 17 18 34 18h559c17 0 34 0 34 -18c0 -17 -15 -17 -30 -17zM639 143h-559c-17 0 -34 0 -34 18c0 17 15 17 30 17h567c15 0 30 0 30 -17c0 -18 -17 -18 -34 -18z" id="3d15"/><path d="M389 -855l423 876c6 12 9 19 21 19s20 -9 20 -20c0 -5 -1 -6 -6 -17l-456 -944c-7 -15 -9 -19 -25 -19c-11 0 -13 1 -19 15l-198 435l-52 -39c-9 -8 -11 -8 -14 -8c-6 0 -10 4 -10 11c0 4 1 5 12 14l99 75c9 8 11 8 14 8c7 0 9 -6 13 -14z" id="7021"/><path d="M144 22l-47 -186c-7 -28 -13 -51 -42 -51c-15 0 -27 10 -27 25c0 6 2 12 3 17l145 579c8 32 30 35 39 35c13 0 26 -9 26 -25c0 -6 -8 -38 -13 -57l-45 -180c-4 -17 -13 -52 -13 -81c0 -47 18 -88 74 -88c63 0 102 54 114 71c13 16 13 18 18 38l70 278c8 30 29 34 38 34 c15 0 27 -10 27 -25c0 -4 -11 -47 -17 -71c-5 -18 -16 -63 -20 -82l-28 -108c-7 -30 -16 -66 -16 -89c0 -20 2 -46 31 -46c41 0 60 63 75 122c4 15 5 20 14 20c6 0 10 -4 10 -9c0 -4 -14 -65 -30 -99c-18 -36 -42 -54 -72 -54c-35 0 -77 21 -87 74c-23 -31 -67 -74 -131 -74 c-34 0 -71 9 -96 32z" id="1618"/><path d="M266 639v-566c0 -36 2 -47 88 -47h30v-26c-48 1 -98 2 -146 2s-98 -1 -146 -2v26h30c86 0 88 12 88 47v527c-40 -24 -92 -30 -123 -30c0 21 0 23 1 25s6 2 9 2c56 2 115 17 154 64c14 0 15 -1 15 -22z" id="3115"/></defs><g transform="scale(1.25)"><rect height="0.995" width="44.517" x="328.099" y="97.424"/><g transform="scale(0.02488,-0.02488)"><g transform="translate(9711.349,-4627.612)"><use xlink:href="#6318"/></g></g><g transform="scale(0.02488,-0.02488)"><g transform="translate(10410.125,-4627.612)"><use xlink:href="#3d15"/><use x="996.777" xlink:href="#3115"/></g></g><g transform="scale(0.02488,-0.02488)"><g transform="translate(11864.902,-4627.612)"><use xlink:href="#3d18"/></g><g transform="translate(12353.902,-3955.736)"><use xlink:href="#7021"/></g><g transform="translate(13187.238,-4627.612)"><use xlink:href="#0f18"/></g></g><g transform="scale(0.02074,-0.02074)"><g transform="translate(16293.445,-5782.76)"><use xlink:href="#3016"/></g></g><g transform="scale(0.02488,-0.02488)"><g transform="translate(13984.639,-4627.612)"><use xlink:href="#1618"/></g></g><g transform="scale(0.02074,-0.02074)"><g transform="translate(17482.744,-5782.76)"><use xlink:href="#3016"/></g></g></g></svg>