<?xml version="1.0" ?><!DOCTYPE svg  PUBLIC '-//W3C//DTD SVG 1.1//EN'  'http://www.w3.org/Graphics/SVG/1.1/DTD/svg11.dtd'><svg height="63.2" viewBox="235.173 100.994 298.455 63.2" width="298.455" xmlns="http://www.w3.org/2000/svg" xmlns:xlink="http://www.w3.org/1999/xlink"><defs><path d="M661 230h-545c-14 0 -33 0 -33 20s19 20 33 20h545c14 0 33 0 33 -20s-19 -20 -33 -20z" id="0021"/><path d="M327 712l-176 -462l176 -462c5 -12 5 -17 5 -18c0 -11 -9 -20 -20 -20c-14 0 -17 10 -22 22l-175 460c-5 12 -5 17 -5 18s0 6 5 18l176 462c4 11 8 20 21 20c11 0 20 -9 20 -20c0 -1 0 -6 -5 -18z" id="6821"/><path d="M347 645l-147 -133c-2 2 -11 11 -11 12s0 2 7 11l113 144c10 12 14 17 26 17c14 0 27 -12 27 -27c0 -11 -3 -13 -15 -24z" id="0115"/><path d="M273 232l-176 -462c-4 -11 -8 -20 -21 -20c-11 0 -20 9 -20 20c0 1 0 6 5 18l176 462l-176 462c-5 12 -5 17 -5 18c0 11 9 20 20 20c14 0 17 -10 22 -22l175 -460c5 -12 5 -17 5 -18s0 -6 -5 -18z" id="6921"/><path d="M643 321h-567c-15 0 -30 0 -30 17c0 18 17 18 34 18h559c17 0 34 0 34 -18c0 -17 -15 -17 -30 -17zM639 143h-559c-17 0 -34 0 -34 18c0 17 15 17 30 17h567c15 0 30 0 30 -17c0 -18 -17 -18 -34 -18z" id="3d15"/><path d="M306 -244c0 -4 -2 -6 -7 -6c-12 0 -94 73 -142 177c-60 129 -67 251 -67 323c0 96 14 204 64 315c49 110 134 184 145 184c4 0 7 -2 7 -5s-2 -5 -2 -6c-49 -50 -170 -177 -170 -489s123 -440 169 -487c3 -3 3 -5 3 -6z" id="2815"/><path d="M263 249c0 -96 -14 -204 -64 -315c-49 -110 -134 -184 -145 -184c-3 0 -7 1 -7 6c0 2 1 3 2 5c49 50 170 177 170 489c0 311 -122 438 -170 488c-1 2 -2 3 -2 5c0 5 4 6 7 6c12 0 94 -73 142 -177c60 -129 67 -251 67 -323z" id="2915"/><path d="M417 155l-24 -155h-352v23l199 225c57 65 108 140 108 227c0 91 -57 160 -144 160c-61 0 -119 -42 -138 -127c4 2 10 3 16 3c14 0 40 -9 40 -40c0 -35 -30 -41 -40 -41c-12 0 -41 5 -41 44c0 90 67 187 177 187c105 0 199 -68 199 -186c0 -99 -71 -167 -132 -225 c-85 -82 -155 -153 -191 -192h192c14 0 86 0 91 8c4 6 12 18 22 89h18z" id="3216"/><path d="M170 111l350 586c9 15 15 17 25 17c11 0 15 -2 17 -22l61 -624c3 -30 4 -39 59 -39c15 0 24 0 24 -10c0 -19 -11 -19 -18 -19c-1 0 -45 2 -106 2h-57c-17 0 -37 -2 -54 -2c-6 0 -15 0 -15 11c0 18 11 18 22 18c16 0 67 2 67 32c0 19 -12 123 -15 149c-1 9 -1 17 -2 26 h-255l-76 -126c-13 -22 -19 -33 -19 -47c0 -24 19 -32 42 -34c6 0 14 -1 14 -10c0 -19 -12 -19 -18 -19c-28 0 -60 2 -89 2c-18 0 -63 -2 -81 -2c-7 0 -12 4 -12 10c0 18 8 18 19 19c48 3 82 23 117 82zM290 265h235l-34 336z" id="4118"/></defs><g transform="scale(1.25)"><g transform="scale(0.02488,-0.02488)"><g transform="translate(7873.765,-4627.58)"><use xlink:href="#2815"/></g><g transform="translate(8227.895,-4627.612)"><use xlink:href="#0115"/></g></g><g transform="scale(0.02488,-0.02488)"><g transform="translate(8685.895,-4627.612)"><use xlink:href="#4118"/></g></g><g transform="scale(0.02488,-0.02488)"><g transform="translate(9419.895,-4627.58)"><use xlink:href="#2915"/></g></g><g transform="scale(0.02074,-0.02074)"><g transform="translate(12101.859,-5038.788)"><use xlink:href="#3216"/></g></g><g transform="scale(0.02488,-0.02488)"><g transform="translate(10768.304,-4627.612)"><use xlink:href="#3d15"/></g></g><g transform="scale(0.02488,-0.02488)"><g transform="translate(11765.08,-4627.612)"><use xlink:href="#6821"/><use x="388" xlink:href="#4118"/></g></g><g transform="scale(0.02074,-0.02074)"><g transform="translate(15459.524,-5056.038)"><use xlink:href="#3216"/></g></g><g transform="scale(0.02488,-0.02488)"><g transform="translate(13289.481,-4627.612)"><use xlink:href="#6921"/><use x="610.221" xlink:href="#0021"/><use x="1609.443" xlink:href="#6821"/><use x="1997.443" xlink:href="#4118"/><use x="2731.443" xlink:href="#6921"/></g></g><g transform="scale(0.02074,-0.02074)"><g transform="translate(19684.378,-5056.038)"><use xlink:href="#3216"/></g></g></g></svg>