<?xml version="1.0" standalone="no"?>
<!DOCTYPE svg PUBLIC "-//W3C//DTD SVG 1.1//EN" "http://www.w3.org/Graphics/SVG/1.1/DTD/svg11.dtd" >
<svg>
<metadata>
Created by FontForge 20060822 at Fri Oct  6 18:21:40 2006
 By Wojciech Mula,,,
Copyright (C) 1997 American Mathematical Society. All Rights Reserved
</metadata>
<defs>
<font id="CMBXTI10" horiz-adv-x="591" >
  <font-face 
    font-family="Computer Modern"
    font-weight="700"
    font-style="italic"
    font-stretch="normal"
    units-per-em="1000"
    panose-1="2 0 8 3 0 0 0 0 0 0"
    ascent="800"
    descent="-200"
    x-height="452"
    cap-height="686"
    bbox="-29 -250 1274 754"
    underline-thickness="0"
    underline-position="0"
    slope="-14.04"
    stemh="47"
    stemv="107"
    unicode-range="U+0020-U+FB04"
  />
    <missing-glyph />
    <glyph glyph-name="ff" unicode="ff" horiz-adv-x="755" 
d="M687 397l-55 -302c-2 -9 -28 -152 -75 -213c-12 -16 -74 -84 -164 -84c-63 0 -118 28 -118 80c0 41 33 74 71 74c30 0 50 -19 50 -46c0 -14 -6 -45 -39 -63c12 -6 24 -9 38 -9c35 0 75 37 89 80c16 46 25 95 34 143l63 340h-238l-56 -304c-1 -7 -27 -149 -68 -212
c-4 -6 -54 -83 -130 -83c-55 0 -108 28 -108 79c0 45 36 75 71 75c30 0 50 -19 50 -46c0 -16 -8 -47 -41 -64c14 -8 28 -8 30 -8c34 0 48 58 51 72c14 54 14 56 23 106l71 385h-86c-15 0 -32 0 -32 18c0 29 17 29 34 29h93l15 84c26 143 111 174 211 174s135 -40 135 -80
c0 -41 -34 -74 -71 -74c-30 0 -50 19 -50 46c0 20 10 47 37 62c-20 10 -42 10 -48 10c-39 0 -64 -15 -75 -27c-12 -12 -21 -58 -26 -81c-4 -17 -15 -76 -22 -114h238l18 96c10 53 39 162 167 162c63 0 120 -26 120 -80c0 -41 -34 -74 -71 -74c-30 0 -50 19 -50 46
c0 37 29 58 39 64c-11 5 -17 8 -38 8c-34 0 -42 -36 -45 -51c-10 -40 -31 -160 -33 -171h104c15 0 32 0 32 -18c0 -29 -17 -29 -35 -29h-110z" />
    <glyph glyph-name="fi" unicode="fi" horiz-adv-x="674" 
d="M331 397l-58 -316c-10 -52 -22 -103 -41 -152c-32 -82 -93 -131 -149 -131c-54 0 -102 30 -102 79c0 44 35 75 71 75c30 0 50 -19 50 -46c0 -24 -14 -52 -43 -65c12 -7 24 -7 26 -7c30 0 41 49 46 71c13 55 14 61 24 115l69 377h-86c-15 0 -32 0 -32 18c0 29 18 29 35 29
h92c16 93 29 164 90 213c54 44 124 45 187 45s191 -1 191 -85c0 -51 -40 -77 -71 -77c-30 0 -50 19 -50 46c0 28 18 52 40 64c-36 16 -91 16 -109 16c-131 0 -136 -26 -171 -222h288c15 0 28 0 28 -14c0 -3 -1 -10 -2 -13l-79 -314c-4 -14 -6 -24 -6 -44c0 -23 7 -31 19 -31
c34 0 52 75 60 108c7 25 8 26 32 26c15 0 28 0 28 -14c0 -4 -13 -60 -39 -102c-13 -20 -38 -54 -85 -54c-56 0 -116 33 -116 97c0 6 0 13 4 29l70 279h-211z" />
    <glyph glyph-name="fl" unicode="fl" horiz-adv-x="703" 
d="M745 662l-140 -560c-4 -16 -6 -24 -6 -43c0 -23 7 -31 19 -31c34 0 52 75 60 108c7 25 8 26 32 26c15 0 28 0 28 -14c0 -4 -13 -60 -39 -102c-13 -20 -38 -54 -85 -54c-56 0 -116 33 -116 97c0 6 0 13 4 29l70 279h-241l-58 -317c-6 -33 -15 -66 -24 -99
c-45 -162 -129 -183 -166 -183c-54 0 -102 30 -102 79c0 45 36 75 71 75c30 0 50 -19 50 -46c0 -42 -36 -63 -43 -66c3 -2 12 -6 26 -6c30 0 41 49 46 70c13 56 13 58 22 104l72 389h-87c-14 0 -31 0 -31 18c0 29 17 29 34 29h92l15 80c32 174 155 178 227 178
c89 0 150 -20 152 -79h1l11 43c7 27 8 28 32 28h50c15 0 28 0 28 -14c0 -1 0 -3 -4 -18zM340 444h244l34 139h-1c-3 -6 -25 -35 -61 -35c-30 0 -50 19 -50 46c0 18 8 44 35 61c-25 11 -53 11 -63 11c-84 0 -96 -36 -104 -60c-6 -18 -14 -46 -34 -162z" />
    <glyph glyph-name="ffi" unicode="ffi" horiz-adv-x="1044" 
d="M688 397l-62 -330c-7 -38 -18 -75 -31 -111c-49 -134 -158 -158 -208 -158c-59 0 -123 23 -123 80c0 41 33 74 71 74c30 0 50 -19 50 -46c0 -25 -15 -50 -38 -63c19 -9 40 -9 42 -9c42 0 82 44 93 74c17 46 26 95 35 143l64 346h-250l-57 -311c-1 -7 -27 -147 -69 -209
c-16 -25 -61 -79 -122 -79c-55 0 -102 31 -102 79c0 44 35 75 71 75c30 0 50 -19 50 -46c0 -24 -14 -52 -43 -65c12 -7 24 -7 26 -7c30 0 41 50 46 72c8 35 16 69 22 104l71 387h-86c-15 0 -32 0 -32 18c0 29 18 29 35 29h92l14 77c31 167 138 181 225 181
c28 0 151 0 151 -79c0 -45 -36 -75 -71 -75c-30 0 -50 19 -50 46c0 8 2 41 36 61c-25 11 -54 11 -62 11c-91 0 -100 -42 -113 -98c-5 -22 -16 -83 -23 -124h249l13 69c35 189 179 189 273 189c76 0 197 -2 197 -85c0 -51 -40 -77 -71 -77c-30 0 -50 19 -50 46
c0 28 18 52 40 64c-37 16 -94 16 -116 16c-140 0 -145 -28 -179 -222h303c15 0 28 0 28 -14c0 -3 -1 -10 -2 -13l-79 -314c-4 -14 -6 -24 -6 -44c0 -23 7 -31 19 -31c34 0 52 75 60 108c7 25 8 26 32 26c15 0 28 0 28 -14c0 -4 -13 -60 -39 -102c-13 -20 -38 -54 -85 -54
c-56 0 -116 33 -116 97c0 6 0 13 4 29l70 279h-225z" />
    <glyph glyph-name="ffl" unicode="ffl" horiz-adv-x="1059" 
d="M1100 662l-140 -560c-4 -16 -6 -24 -6 -43c0 -23 7 -31 19 -31c34 0 52 75 60 108c7 25 8 26 32 26c15 0 28 0 28 -14c0 -4 -13 -60 -39 -102c-13 -20 -38 -54 -85 -54c-56 0 -116 33 -116 97c0 6 0 13 4 29l70 279h-240l-60 -324c-1 -7 -26 -138 -77 -197
c-15 -17 -75 -78 -164 -78c-58 0 -123 23 -123 80c0 41 33 74 71 74c30 0 50 -19 50 -46c0 -25 -15 -50 -38 -63c16 -8 37 -9 42 -9c32 0 54 21 65 33c22 22 27 31 38 73c14 51 16 60 26 113l63 344h-249l-56 -304c-5 -27 -12 -55 -18 -82c-9 -35 -19 -66 -26 -84
c-36 -88 -97 -129 -148 -129c-54 0 -102 30 -102 79c0 44 35 75 71 75c30 0 50 -19 50 -46c0 -24 -14 -52 -43 -65c10 -6 20 -7 26 -7c30 0 41 52 46 74c8 36 16 72 22 104l71 385h-86c-15 0 -32 0 -32 18c0 29 17 29 34 29h93l15 84c26 143 111 174 211 174
s135 -40 135 -80c0 -41 -34 -74 -71 -74c-30 0 -50 19 -50 46c0 20 10 47 37 62c-20 10 -42 10 -48 10c-39 0 -64 -15 -75 -27c-12 -12 -22 -59 -26 -81c-4 -17 -15 -76 -22 -114h250c27 153 45 258 241 258c88 0 150 -20 152 -79h1l11 43c7 27 8 28 32 28h50
c15 0 28 0 28 -14c0 -1 0 -3 -4 -18zM696 444h243l34 139h-1c-3 -6 -25 -35 -61 -35c-30 0 -50 19 -50 46c0 18 8 44 35 61c-25 11 -53 11 -63 11c-80 0 -94 -35 -100 -51c-12 -32 -19 -68 -37 -171z" />
    <glyph glyph-name="Gamma" unicode="&#x393;" horiz-adv-x="697" 
d="M462 631l-145 -581c24 -3 26 -3 62 -3h36c14 0 32 0 32 -18c0 -29 -19 -29 -31 -29c-57 0 -117 3 -175 3c-51 0 -104 -3 -155 -3c-11 0 -22 5 -22 18c0 29 18 29 35 29h22c12 0 28 1 40 2c18 1 19 2 23 16l141 566c-6 0 -39 2 -49 2h-22c-14 0 -31 0 -31 18
c0 29 17 29 34 29h472c14 0 30 0 32 -17l-23 -198c-2 -19 -3 -26 -29 -26c-10 0 -28 0 -28 19c0 2 0 4 2 12c4 33 4 35 4 62c0 96 -49 101 -158 101c-22 0 -53 0 -67 -2z" />
    <glyph glyph-name="Delta" unicode="&#x394;" horiz-adv-x="944" 
d="M691 684l169 -649c4 -14 4 -18 4 -19c0 -16 -15 -16 -30 -16h-724c-16 0 -24 0 -24 10c0 4 0 6 9 16l502 661c18 24 29 24 52 24c30 0 35 -2 42 -27zM570 561l-338 -445h454z" />
    <glyph glyph-name="Theta" unicode="&#x398;" horiz-adv-x="885" 
d="M895 449c0 -214 -163 -466 -456 -466c-147 0 -278 70 -278 251c0 200 158 469 458 469c142 0 276 -68 276 -254zM449 21c61 0 147 26 215 120c73 98 106 274 106 345c0 26 0 181 -161 181c-71 0 -166 -39 -232 -147c-62 -103 -91 -263 -91 -322c0 -138 88 -177 163 -177z
M705 404l-32 -128c-6 -24 -13 -24 -30 -24c-10 0 -28 0 -28 18c0 4 2 12 3 16h-207c0 -3 -6 -23 -8 -26c-5 -8 -12 -8 -24 -8c-10 0 -28 0 -28 18c0 4 1 10 2 14l32 128c6 24 13 24 30 24c10 0 28 0 28 -18c0 -4 -2 -12 -3 -16h207c0 3 6 23 8 26c5 8 12 8 24 8
c10 0 28 0 28 -18c0 -4 -1 -10 -2 -14z" />
    <glyph glyph-name="Lambda" unicode="&#x39b;" horiz-adv-x="806" 
d="M488 494l-254 -436c24 -10 56 -11 61 -11c9 0 26 0 26 -18c0 -29 -20 -29 -27 -29c-37 0 -76 3 -114 3c-29 0 -61 -3 -89 -3c-13 0 -19 10 -19 18c0 28 18 29 28 29c61 1 73 16 86 38l349 602c14 24 25 24 46 24c24 0 33 0 35 -29l51 -633c13 -1 28 -2 41 -2h7
c15 0 32 0 32 -18c0 -29 -20 -29 -28 -29c-43 0 -88 3 -131 3c-49 0 -99 -3 -147 -3c-11 0 -22 5 -22 18c0 29 15 29 39 29c20 0 46 2 65 5z" />
    <glyph glyph-name="Xi" unicode="&#x39e;" horiz-adv-x="767" 
d="M840 636l-27 -131c-4 -19 -5 -24 -29 -24c-11 0 -28 0 -28 19c0 2 0 4 2 15c6 28 6 36 6 49c-18 2 -43 3 -62 3h-344c-13 0 -58 0 -69 -5c-7 -3 -19 -40 -24 -57c-7 -21 -9 -24 -31 -24c-10 0 -28 0 -28 18c0 2 4 14 5 18l40 134c7 22 7 24 34 24h526c16 0 32 0 32 -19
c0 -5 0 -7 -3 -20zM737 173l-46 -151c-6 -21 -7 -22 -33 -22h-538c-16 0 -32 0 -32 19c0 9 30 156 34 172c4 14 16 14 28 14c10 0 28 0 28 -18c0 -3 -1 -8 -3 -16c-7 -33 -8 -49 -8 -52c0 -7 1 -7 9 -8c16 -3 38 -3 57 -3h347c11 0 69 0 75 7c9 11 19 43 25 61
c8 26 9 29 32 29c10 0 28 0 28 -18c0 -6 -2 -10 -3 -14zM247 279l38 153c5 22 12 24 30 24c11 0 28 0 28 -19c0 -9 -5 -24 -7 -32h299c8 33 8 35 9 36c4 15 16 15 27 15s28 0 28 -19c0 -3 0 -5 -4 -19l-37 -149c-5 -20 -9 -23 -30 -23c-9 0 -28 0 -28 19c0 5 6 26 8 32h-299
c-7 -28 -7 -30 -9 -34c-4 -14 -9 -17 -28 -17c-9 0 -28 0 -28 19c0 3 2 11 3 14z" />
    <glyph glyph-name="Pi" unicode="&#x3a0;" horiz-adv-x="896" 
d="M882 615l-141 -566c6 0 39 -2 49 -2h22c14 0 31 0 31 -18c0 -29 -19 -29 -28 -29c-50 0 -103 3 -154 3c-50 0 -102 -3 -151 -3c-11 0 -22 5 -22 18c0 29 18 29 35 29h22c12 0 28 1 40 2c18 1 19 2 23 16l142 568h-287l-146 -584c6 0 39 -2 49 -2h22c14 0 31 0 31 -18
c0 -29 -19 -29 -28 -29c-50 0 -103 3 -154 3c-50 0 -102 -3 -151 -3c-11 0 -22 5 -22 18c0 29 18 29 35 29h22c12 0 28 1 40 2c18 1 19 2 23 16l141 566c-6 0 -39 2 -49 2h-22c-14 0 -31 0 -31 18c0 29 17 29 34 29h713c15 0 32 0 32 -18c0 -29 -18 -29 -35 -29h-22
c-12 0 -28 -1 -40 -2c-18 -1 -19 -2 -23 -16z" />
    <glyph glyph-name="Sigma" unicode="&#x3a3;" horiz-adv-x="826" 
d="M559 324l-325 -260h224c144 0 220 27 279 168c10 25 10 26 32 26c10 0 28 0 28 -18c0 -2 0 -5 -5 -17l-76 -202c-8 -21 -11 -21 -34 -21h-555c-15 0 -32 0 -32 18c0 9 4 12 15 21l322 258l-173 345c-2 4 -5 9 -5 15c0 29 18 29 35 29h555c22 0 35 0 31 -32l-21 -182
c-3 -23 -6 -27 -29 -27c-13 0 -28 0 -28 21c0 13 3 30 3 44c0 105 -52 129 -182 129h-192l140 -280c4 -8 6 -11 6 -16c0 -9 -5 -13 -13 -19z" />
    <glyph glyph-name="Upsilon" unicode="&#x3a5;" horiz-adv-x="885" 
d="M594 329l-70 -279c24 -3 26 -3 62 -3h36c14 0 32 0 32 -18c0 -29 -19 -29 -31 -29c-59 0 -120 3 -180 3c-58 0 -118 -3 -176 -3c-4 0 -23 0 -23 18c0 29 18 29 35 29h36c44 0 66 4 67 4c5 1 6 2 9 15l75 298c8 33 12 68 12 102c0 55 -11 129 -95 129
c-30 0 -80 -5 -94 -45c-8 -19 -17 -19 -35 -19c-17 0 -27 0 -27 14c0 36 70 158 186 158c125 0 150 -121 150 -198v-22h1c33 64 114 220 260 220c71 0 114 -49 114 -115c0 -57 -17 -57 -39 -57c-15 0 -34 0 -26 26c-1 12 -4 38 -73 38c-120 0 -177 -149 -206 -266z" />
    <glyph glyph-name="Phi" unicode="&#x3a6;" horiz-adv-x="826" 
d="M509 152l-25 -102c24 -3 26 -3 62 -3h36c14 0 32 0 32 -18c0 -29 -19 -29 -30 -29c-57 0 -117 3 -175 3c-57 0 -115 -3 -171 -3c-4 0 -23 0 -23 18c0 29 18 29 35 29h36c44 0 66 4 67 4c5 1 6 2 9 15l22 87c-128 11 -213 68 -213 156c0 78 78 202 308 224l25 103
c-24 3 -26 3 -61 3h-36c-15 0 -32 0 -32 18c0 29 19 29 30 29c57 0 117 -3 175 -3c56 0 114 3 170 3c8 0 23 -2 23 -18c0 -29 -16 -29 -34 -29h-36c-12 0 -36 -1 -46 -2c-26 -2 -27 -3 -31 -17l-21 -86c140 -11 222 -70 222 -157c0 -86 -89 -207 -318 -225zM393 191l76 304
c-20 -4 -85 -16 -122 -69c-30 -45 -43 -120 -43 -145c0 -38 16 -76 89 -90zM595 496l-76 -307c33 4 90 19 123 59c39 47 52 130 52 157c0 21 0 79 -99 91z" />
    <glyph glyph-name="Psi" unicode="&#x3a8;" horiz-adv-x="885" 
d="M423 195l110 441c-24 3 -26 3 -61 3h-36c-15 0 -32 0 -32 18c0 29 19 29 30 29c57 0 117 -3 175 -3c56 0 114 3 170 3c8 0 23 -2 23 -18c0 -29 -16 -29 -34 -29h-36c-12 0 -36 -1 -46 -2c-26 -2 -27 -3 -31 -17l-105 -423c87 27 137 98 167 208c24 90 44 142 113 142h66
c15 0 32 0 32 -18c0 -8 -4 -16 -18 -18c-24 -4 -43 -15 -67 -105c-41 -155 -142 -233 -291 -252c-12 -2 -13 -3 -17 -16l-22 -88c24 -3 26 -3 62 -3h36c14 0 32 0 32 -18c0 -29 -19 -29 -30 -29c-57 0 -117 3 -175 3c-57 0 -115 -3 -171 -3c-4 0 -23 0 -23 18
c0 29 18 29 35 29h36c44 0 66 4 67 4c5 1 6 2 9 15l22 88c-40 6 -176 25 -176 180c0 27 5 56 12 85c10 39 10 60 10 61c0 29 -10 30 -19 31c-18 2 -18 17 -18 18c0 18 18 18 32 18h66c19 0 64 0 64 -67c0 -20 -5 -47 -11 -71c-14 -54 -16 -88 -16 -102c0 -55 20 -96 66 -112
z" />
    <glyph glyph-name="Omega" unicode="&#x3a9;" horiz-adv-x="826" 
d="M178 178l-1 -43c0 -31 1 -32 10 -33c12 -3 27 -3 39 -3h71c-6 42 -18 71 -50 139c-28 58 -49 105 -49 166c0 141 131 299 386 299c204 0 274 -98 274 -196c0 -115 -93 -209 -176 -293c-69 -69 -91 -102 -99 -115h59c22 0 51 0 60 12c8 13 21 40 27 53c15 31 16 32 36 32
c11 0 28 0 28 -18c0 -8 -62 -141 -71 -161c-8 -17 -10 -17 -33 -17h-149c-15 0 -32 0 -32 18c0 48 85 199 108 239c41 73 104 184 104 286c0 107 -84 124 -136 124c-134 0 -249 -110 -249 -335c0 -33 0 -35 2 -60c5 -69 5 -71 5 -127c0 -92 -14 -132 -15 -134
c-5 -11 -12 -11 -30 -11h-149c-25 0 -33 1 -32 31l6 136c1 24 4 29 29 29c9 0 27 0 27 -18z" />
    <glyph glyph-name="dotlessi" unicode="&#x131;" horiz-adv-x="355" 
d="M326 324l-90 -238c-1 -2 -8 -27 -8 -40c0 -18 9 -18 14 -18c57 0 84 95 92 121c4 13 9 13 28 13c15 0 28 0 28 -14c0 -21 -49 -156 -153 -156c-54 0 -105 33 -105 89c0 15 3 23 9 39l90 238c1 2 8 27 8 40c0 18 -9 18 -14 18c-57 0 -84 -95 -92 -121
c-4 -13 -9 -13 -28 -13c-15 0 -28 0 -28 14c0 21 49 156 153 156c54 0 105 -33 105 -89c0 -15 -3 -23 -9 -39z" />
    <glyph glyph-name="dotlessj" unicode="&#xf6be;" horiz-adv-x="385" 
d="M371 326l-94 -378c-22 -88 -117 -150 -204 -150c-58 0 -102 27 -102 72c0 38 32 72 71 72c31 0 50 -21 50 -46c0 -20 -13 -47 -34 -60c2 0 9 -2 15 -2c60 0 90 89 98 119l97 389c4 16 6 24 6 43c0 30 -12 31 -21 31c-26 0 -75 -18 -117 -117c-8 -16 -9 -17 -31 -17
c-15 0 -28 0 -28 14c0 17 66 156 181 156c60 0 117 -34 117 -97c0 -6 0 -13 -4 -29z" />
    <glyph glyph-name="grave" unicode="`" 
d="M411 671l68 -120c0 -1 6 -10 6 -16c0 -14 -26 -33 -35 -33c-7 0 -12 4 -19 10l-107 87c-9 8 -20 16 -20 37c0 35 37 63 64 63c26 0 37 -17 43 -28z" />
    <glyph glyph-name="acute" unicode="&#xb4;" 
d="M570 597l-153 -89c-5 -3 -10 -6 -16 -6c-16 0 -28 27 -28 33c0 7 6 14 12 19l122 114c20 19 33 31 55 31c25 0 47 -20 47 -48c0 -31 -25 -46 -39 -54z" />
    <glyph glyph-name="caron" unicode="&#x2c7;" 
d="M585 586l-154 -85c-11 0 -13 0 -24 9l-101 75c-7 5 -14 11 -14 20c0 8 17 35 32 35c4 0 8 -2 16 -6l97 -54l127 56c9 4 12 5 15 5c20 0 23 -35 23 -36c0 -10 -4 -12 -17 -19z" />
    <glyph glyph-name="breve" unicode="&#x2d8;" 
d="M629 676c0 -40 -76 -161 -200 -161c-75 0 -133 50 -133 127c0 27 3 52 22 52c10 0 18 -9 18 -18c0 -7 -3 -11 -3 -25c0 -53 53 -77 102 -77c40 0 130 20 158 104c2 5 5 16 18 16c10 0 18 -8 18 -18z" />
    <glyph glyph-name="macron" unicode="&#xaf;" 
d="M599 561h-317c-15 0 -32 0 -32 18c0 32 17 32 35 32h317c15 0 32 0 32 -18c0 -32 -17 -32 -35 -32z" />
    <glyph glyph-name="ring" unicode="&#x2da;" horiz-adv-x="948" 
d="M750 645c0 -45 -45 -101 -139 -101c-61 0 -98 23 -98 66c0 47 47 101 139 101c64 0 98 -26 98 -66zM620 580c17 0 45 0 59 16c12 15 16 47 16 53c0 25 -25 26 -52 26c-20 0 -44 0 -59 -16c-12 -14 -17 -48 -17 -53c0 -26 28 -26 53 -26z" />
    <glyph glyph-name="cedilla" unicode="&#xb8;" horiz-adv-x="532" 
d="M275 19h42c14 0 32 0 32 -18c0 -5 0 -7 -8 -36c39 -6 70 -23 70 -61c0 -78 -111 -91 -247 -91c-40 0 -52 0 -52 18s17 18 32 18h16c32 0 145 0 145 54c0 25 -36 30 -53 31c-4 0 -21 1 -21 18c0 4 8 38 10 45c6 21 9 22 34 22z" />
    <glyph glyph-name="germandbls" unicode="&#xdf;" horiz-adv-x="665" 
d="M370 542l-89 -478c-7 -35 -16 -70 -28 -104c-50 -151 -152 -162 -175 -162c-52 0 -91 32 -91 78c0 47 37 76 71 76c30 0 50 -19 50 -46c0 -28 -19 -56 -47 -67c9 -5 17 -5 18 -5c53 0 73 105 89 193l68 370h-86c-15 0 -32 0 -32 18c0 29 18 29 35 29h92l14 77
c33 181 170 181 240 181c140 0 192 -50 192 -110c0 -17 0 -37 -53 -108l-72 -97c-8 -11 -23 -35 -23 -46c0 -19 37 -56 47 -67c36 -37 53 -71 53 -109c0 -89 -98 -173 -203 -173c-68 0 -116 35 -116 85c0 37 25 64 57 64c28 0 40 -20 40 -37c0 -2 0 -26 -21 -43l-12 -9
c14 -19 39 -24 52 -24c62 0 83 123 83 128c0 26 -16 44 -29 58c-27 29 -31 63 -31 87c0 61 21 87 62 131c15 17 25 27 41 78c1 5 20 65 20 85c0 17 -7 71 -85 71c-100 0 -115 -37 -131 -124z" />
    <glyph glyph-name="ae" unicode="&#xe6;" horiz-adv-x="826" 
d="M561 218h-45c-13 -54 -13 -79 -13 -88c0 -78 44 -102 92 -102c24 0 96 7 162 81c5 7 8 10 15 10c10 0 31 -23 31 -32c0 -14 -69 -95 -209 -95c-45 0 -90 11 -125 40c-13 -37 -46 -40 -53 -40c-17 0 -37 7 -40 36c-53 -36 -98 -36 -113 -36c-107 0 -174 44 -174 114
c0 18 10 107 120 187c82 60 199 98 260 116c11 37 42 43 54 43c30 0 39 -22 41 -33c35 19 84 33 134 33c70 0 129 -34 129 -96c0 -138 -203 -138 -266 -138zM525 254h21c55 0 216 0 216 103c0 28 -19 59 -66 59c-25 0 -73 -9 -113 -49c-27 -29 -47 -71 -58 -113zM397 122
l61 244c-70 -27 -135 -71 -175 -116c-81 -87 -81 -170 -81 -174c0 -47 51 -48 67 -48c64 0 120 62 128 94z" />
    <glyph glyph-name="oe" unicode="&#x153;" horiz-adv-x="826" 
d="M566 218h-44c-13 -53 -14 -70 -14 -92c0 -17 0 -98 87 -98c24 0 96 7 162 81c5 7 8 10 15 10c10 0 31 -23 31 -32c0 -13 -68 -95 -210 -95c-85 0 -134 37 -154 70c-55 -52 -114 -74 -172 -74c-72 0 -161 36 -161 162c0 137 100 306 271 306c49 0 102 -17 135 -69
c57 48 128 65 186 65c70 0 129 -34 129 -96c0 -138 -200 -138 -261 -138zM531 254c72 0 231 0 231 103c0 28 -19 59 -66 59c-43 0 -84 -23 -106 -45c-17 -18 -40 -47 -59 -117zM270 24c22 0 80 14 117 104c19 45 50 164 50 212c0 59 -30 80 -62 80c-39 0 -86 -28 -118 -118
c-7 -23 -45 -153 -45 -206c0 -42 20 -72 58 -72z" />
    <glyph glyph-name="oslash" unicode="&#xf8;" 
d="M501 437l86 108c9 11 12 15 20 15c7 0 18 -5 18 -18c0 -6 0 -7 -11 -21l-82 -103c39 -31 57 -74 57 -131c0 -134 -104 -299 -293 -299c-41 0 -74 9 -95 19c-67 -84 -67 -86 -80 -101c-18 -20 -19 -21 -26 -21c-9 0 -18 8 -18 18c0 6 0 8 18 30l75 92
c-49 42 -57 92 -57 132c0 134 104 299 293 299c41 0 74 -9 95 -19zM215 82l252 314c-23 24 -54 24 -63 24c-53 0 -112 -35 -144 -101c-27 -56 -50 -163 -50 -200c0 -16 3 -30 5 -37zM487 362l-252 -313c22 -25 54 -25 63 -25c53 0 112 35 144 101c27 56 50 163 50 200
c0 16 -3 30 -5 37z" />
    <glyph glyph-name="AE" unicode="&#xc6;" horiz-adv-x="1022" 
d="M403 306l-155 -249c21 -8 50 -10 59 -10s26 0 26 -18c0 -29 -18 -29 -27 -29c-38 0 -78 3 -116 3c-32 0 -66 -3 -98 -3c-13 0 -19 10 -19 18c0 29 19 29 28 29c76 1 86 18 99 38l346 554h-40c-15 0 -32 0 -32 18c0 29 18 29 35 29h531c22 0 35 0 31 -32l-21 -182
c-3 -23 -6 -27 -29 -27c-13 0 -28 0 -28 21c0 5 2 19 3 24c2 19 3 24 3 48c0 99 -56 101 -164 101h-45c-24 0 -25 -1 -29 -16l-67 -270h50c76 0 97 22 116 94c6 20 8 23 30 23c10 0 28 0 28 -18c0 -5 -2 -11 -3 -16l-56 -224c-6 -23 -13 -23 -30 -23c-10 0 -28 0 -28 18
c0 3 0 4 2 13c2 7 8 31 8 46c0 30 -15 40 -70 40h-59l-64 -258c7 -1 14 -1 23 -1h80c154 0 194 83 244 200c12 26 12 27 34 27c10 0 28 0 28 -18c0 -6 -3 -12 -5 -17l-95 -222c-7 -17 -12 -17 -33 -17h-462c-14 0 -32 0 -32 18c0 29 18 29 35 29h8c22 0 24 0 32 1
c14 2 15 2 18 16l60 242h-150zM609 637l-177 -284h133l70 283c-7 1 -18 1 -26 1z" />
    <glyph glyph-name="OE" unicode="&#x152;" horiz-adv-x="1140" 
d="M1140 239l-95 -222c-7 -17 -12 -17 -33 -17h-372c-22 0 -48 -2 -90 -8c-43 -6 -66 -9 -94 -9c-132 0 -276 60 -276 251c0 206 163 469 456 469c18 0 39 -1 92 -9c35 -5 61 -8 83 -8h347c22 0 35 0 31 -32l-21 -182c-3 -23 -6 -27 -29 -27c-13 0 -28 0 -28 21
c0 9 5 34 5 68c0 105 -58 105 -178 105h-50c-27 0 -28 -1 -32 -16l-60 -243h76c79 0 107 18 127 92c6 22 7 25 31 25c10 0 28 0 28 -18c0 -3 -1 -6 -3 -13l-56 -226c-6 -24 -13 -24 -30 -24c-10 0 -28 0 -28 18c0 2 1 6 2 10c2 12 6 30 6 44c0 29 -8 45 -80 45h-85l-71 -285
c7 -1 14 -1 23 -1h95c159 0 200 79 252 200c12 26 12 27 34 27c10 0 28 0 28 -18c0 -6 -3 -12 -5 -17zM624 176l83 334c5 19 13 63 13 89c0 38 -10 68 -89 68c-205 0 -315 -274 -315 -452c0 -128 60 -196 154 -196c67 0 118 14 154 157z" />
    <glyph glyph-name="Oslash" unicode="&#xd8;" horiz-adv-x="885" 
d="M786 663l67 77c12 14 18 14 21 14c8 0 21 -8 21 -20c0 -6 0 -8 -18 -27c-19 -23 -39 -45 -59 -67c12 -10 77 -65 77 -191c0 -214 -163 -466 -456 -466c-76 0 -128 18 -167 39l-67 -75c-15 -14 -16 -15 -22 -15c-11 0 -21 11 -21 20c0 7 5 12 18 27l59 67
c-23 21 -78 69 -78 188c0 200 158 469 458 469c76 0 133 -21 167 -40zM296 111l444 501c-18 23 -58 55 -131 55c-55 0 -143 -22 -209 -107c-81 -107 -116 -335 -116 -378c0 -10 0 -40 12 -71zM761 575l-444 -502c23 -30 69 -54 131 -54c57 0 155 19 228 132
c51 79 96 279 96 350c0 12 0 44 -11 74z" />
    <glyph glyph-name="suppress" horiz-adv-x="296" 
d="M386 354l-268 -72c-14 -4 -17 -4 -18 -4c-14 0 -19 12 -19 24c0 18 9 20 22 24l268 72c2 1 14 4 18 4c16 0 19 -14 19 -24c0 -18 -9 -21 -22 -24z" />
    <glyph glyph-name="exclam" unicode="!" horiz-adv-x="386" 
d="M423 627l-141 -390c-6 -17 -7 -18 -30 -18c-13 0 -31 0 -27 17v11l54 386c10 71 76 78 88 78c44 0 63 -31 63 -56c0 -9 -2 -13 -7 -28zM287 87c0 -48 -46 -87 -88 -87c-35 0 -62 24 -62 60c0 49 47 87 88 87c38 0 62 -27 62 -60z" />
    <glyph glyph-name="quotedblright" unicode="&#x201d;" horiz-adv-x="620" 
d="M332 564c-7 -6 -26 -17 -52 -17c-39 0 -61 25 -61 58c0 40 35 89 90 89c31 0 67 -18 67 -83c0 -131 -148 -258 -171 -258c-12 0 -18 14 -18 20c0 7 5 11 12 15c56 39 109 98 133 176zM567 564c-7 -6 -26 -17 -52 -17c-39 0 -61 25 -61 58c0 40 35 89 90 89
c31 0 67 -18 67 -83c0 -131 -148 -258 -171 -258c-12 0 -18 14 -18 20c0 7 5 11 12 15c56 39 109 98 133 176z" />
    <glyph glyph-name="numbersign" unicode="#" horiz-adv-x="944" 
d="M610 108l-149 -280c-6 -11 -12 -22 -29 -22s-31 14 -31 31c0 6 1 8 7 19l133 252h-165l-149 -280c-6 -11 -12 -22 -29 -22s-31 14 -31 31c0 6 1 8 7 19l133 252h-136c-15 0 -46 0 -46 31c0 30 28 30 40 30h176l86 163h-206c-12 0 -40 0 -40 30c0 31 31 31 46 31h233
l148 279c6 11 12 22 29 22s31 -14 31 -31c0 -6 -1 -8 -7 -19l-132 -251h165l148 279c6 11 12 22 29 22s31 -14 31 -31c0 -6 -1 -8 -7 -19l-132 -251h135c15 0 46 0 46 -31c0 -30 -28 -30 -40 -30h-174l-86 -163h204c12 0 41 0 41 -30c0 -31 -32 -31 -47 -31h-232zM575 169
l86 163h-165l-86 -163h165z" />
    <glyph glyph-name="sterling" unicode="&#xa3;" horiz-adv-x="868" 
d="M460 324l-41 -161c-1 -6 -7 -28 -26 -58c44 -20 102 -46 159 -46c9 0 103 0 133 84c4 10 11 10 28 10c14 0 28 0 28 -14c0 -40 -76 -147 -220 -147c-55 0 -87 13 -183 51c-49 -38 -109 -51 -156 -51c-61 0 -81 23 -81 48c0 43 54 99 150 99c2 0 26 0 53 -5l49 190h-46
c-15 0 -29 0 -29 14c0 3 4 21 8 26c4 7 10 7 25 7h53l39 156c22 88 106 179 240 179c98 0 142 -73 142 -142c0 -59 -25 -102 -75 -102c-31 0 -50 21 -50 46c0 21 15 66 69 71c-4 53 -33 91 -86 91c-94 0 -121 -100 -130 -133l-42 -166h76c17 0 28 0 28 -15
c0 -3 -4 -21 -7 -26c-4 -6 -9 -6 -26 -6h-82zM267 66c-24 6 -27 6 -47 6c-30 0 -54 -14 -54 -31c0 -10 9 -13 19 -13c6 0 47 1 82 38z" />
    <glyph glyph-name="percent" unicode="%" horiz-adv-x="944" 
d="M933 693l-705 -735c-8 -8 -13 -14 -26 -14s-30 9 -30 31c0 11 2 14 16 28l595 623h-1c-41 -13 -75 -15 -99 -15c-86 0 -142 34 -152 40c1 -7 1 -18 1 -25c0 -108 -70 -279 -195 -279c-35 0 -119 16 -119 133c0 122 84 270 212 270c37 0 56 -14 77 -34
c46 -46 111 -70 177 -70c78 0 152 33 205 91c5 5 13 13 26 13c17 0 31 -14 31 -31c0 -10 -7 -20 -13 -26zM340 383c81 0 138 166 138 251c0 8 -1 80 -48 80c-19 0 -57 -13 -83 -90c-10 -30 -42 -142 -42 -189c0 -33 14 -52 35 -52zM901 222c0 -109 -71 -278 -195 -278
c-46 0 -119 25 -119 133c0 116 80 270 213 270c36 0 101 -19 101 -125zM709 -20c81 0 138 165 138 250c0 25 -5 81 -48 81c-96 0 -125 -278 -125 -279c0 -34 15 -52 35 -52z" />
    <glyph glyph-name="ampersand" unicode="&#x26;" horiz-adv-x="885" 
d="M776 460c27 -40 58 -89 58 -162c0 -26 -7 -315 -390 -315c-213 0 -303 87 -303 198c0 55 31 149 93 211c-8 21 -10 48 -10 58c0 111 85 261 235 261c77 0 130 -48 130 -114c0 -65 -44 -86 -73 -86c-18 0 -49 8 -49 46c0 29 19 62 62 70c-13 36 -44 48 -70 48
c-79 0 -113 -112 -133 -222c41 16 73 16 81 16c52 0 76 -26 76 -64c0 -42 -33 -99 -109 -99c-33 0 -65 10 -80 17c-18 -47 -38 -119 -38 -168c0 -95 70 -136 192 -136c87 0 163 17 217 55c88 64 112 171 112 218c0 23 -1 65 -51 137c-12 -7 -50 -25 -71 -39
c-32 -23 -43 -43 -45 -70c1 1 21 35 62 35c34 0 50 -23 50 -47c0 -32 -26 -72 -74 -72c-53 0 -94 35 -94 84c0 73 72 113 143 154c37 20 80 45 116 102c-23 6 -38 21 -38 46c0 39 34 72 72 72c25 0 50 -15 50 -47c0 -13 -13 -104 -121 -187zM324 381c10 -30 35 -39 53 -39
c33 0 52 35 52 71c0 7 0 20 -22 20s-53 -13 -83 -52z" />
    <glyph glyph-name="quoteright" unicode="&#x2019;" horiz-adv-x="355" 
d="M371 564c-7 -6 -26 -17 -52 -17c-39 0 -61 25 -61 58c0 40 35 89 90 89c31 0 67 -18 67 -83c0 -131 -148 -258 -171 -258c-12 0 -18 14 -18 20c0 7 5 11 12 15c56 39 109 98 133 176z" />
    <glyph glyph-name="parenleft" unicode="(" horiz-adv-x="473" 
d="M561 725l-19 -17c-226 -192 -290 -551 -290 -692c0 -37 3 -145 61 -231c11 -14 11 -16 11 -20c0 -14 -14 -14 -18 -14c-25 0 -81 77 -105 138c-32 81 -32 156 -32 185c0 222 111 445 244 576c37 36 115 100 136 100c8 0 18 -3 18 -14c0 -6 -4 -10 -6 -11z" />
    <glyph glyph-name="parenright" unicode=")" horiz-adv-x="473" 
d="M430 427c0 -149 -61 -400 -257 -586c-27 -27 -102 -90 -124 -90c-6 0 -17 2 -17 14c0 6 1 7 19 23c240 203 295 571 295 697c0 140 -47 210 -66 239c-3 4 -6 7 -6 12c0 11 10 14 18 14c27 0 81 -81 99 -122c27 -63 39 -131 39 -201z" />
    <glyph glyph-name="asterisk" unicode="*" 
d="M438 495l-13 -137c-5 -52 -49 -52 -53 -52c-21 0 -34 14 -34 29c0 4 0 6 6 19l56 140l-120 -80c-28 -19 -30 -19 -41 -19c-14 0 -32 9 -32 35c0 33 28 43 40 47l143 51l-119 51c-17 7 -20 16 -20 27c0 29 30 55 54 55c7 0 13 0 26 -13l86 -87l13 137c5 52 49 52 53 52
c21 0 34 -14 34 -29c0 -4 0 -6 -6 -19l-56 -141l133 89c11 7 16 11 28 11c14 0 32 -9 32 -35c0 -33 -28 -43 -40 -47l-143 -51l119 -51c17 -7 20 -16 20 -27c0 -29 -30 -55 -54 -55c-7 0 -13 0 -26 13z" />
    <glyph glyph-name="plus" unicode="+" horiz-adv-x="885" 
d="M530 220l-73 -292c-2 -8 -7 -30 -31 -30c-17 0 -31 14 -31 31c0 3 1 8 3 15l69 276h-271c-15 0 -43 0 -43 31c0 30 29 30 43 30h286l73 291c2 9 8 31 32 31c13 0 30 -10 30 -31c0 -4 0 -6 -4 -20l-68 -271h271c12 0 43 0 43 -31c0 -30 -32 -30 -43 -30h-286z" />
    <glyph glyph-name="comma" unicode="," horiz-adv-x="355" 
d="M230 14c-3 -2 -22 -14 -48 -14c-47 0 -61 34 -61 58c0 39 35 89 90 89c43 0 65 -33 65 -80c0 -131 -146 -261 -169 -261c-10 0 -18 11 -18 20c0 6 1 7 17 20c37 26 97 81 124 168z" />
    <glyph glyph-name="hyphen" unicode="-" horiz-adv-x="414" 
d="M338 175h-213c-15 0 -33 0 -33 19c0 3 10 43 11 50c6 23 7 25 35 25h217c14 0 32 0 32 -18c0 -3 -8 -33 -12 -49c-6 -24 -7 -27 -37 -27z" />
    <glyph glyph-name="period" unicode="." horiz-adv-x="355" 
d="M272 88c0 -47 -45 -88 -90 -88c-29 0 -60 18 -60 59c0 50 48 88 89 88c36 0 61 -24 61 -59z" />
    <glyph glyph-name="slash" unicode="/" 
d="M671 695l-574 -922c-7 -11 -14 -23 -31 -23s-31 14 -31 31c0 8 4 14 10 24l574 922c7 11 14 23 31 23s31 -14 31 -31c0 -8 -4 -14 -10 -24z" />
    <glyph glyph-name="zero" unicode="0" 
d="M636 481c0 -67 -36 -282 -125 -393c-68 -84 -152 -105 -219 -105c-161 0 -177 108 -177 177c0 82 40 252 94 348c58 100 145 153 251 153c157 0 176 -106 176 -180zM300 19c100 0 136 108 146 138c24 70 90 315 90 386c0 47 -33 82 -85 82c-56 0 -103 -42 -120 -73
c-41 -77 -113 -382 -113 -447c0 -55 38 -86 82 -86z" />
    <glyph glyph-name="one" unicode="1" 
d="M515 630l-145 -580c27 -3 28 -3 59 -3h33c14 0 32 0 32 -18c0 -29 -19 -29 -30 -29c-53 0 -108 3 -162 3c-52 0 -105 -3 -156 -3c-20 0 -22 13 -22 18c0 29 17 29 35 29h31c15 0 30 0 44 2c22 2 23 3 27 18l112 447c-43 -20 -91 -29 -117 -29c-21 0 -23 12 -23 19
c0 26 17 27 25 28c67 5 142 28 219 118c6 6 10 11 20 11c19 0 21 -15 21 -18s-1 -7 -3 -13z" />
    <glyph glyph-name="two" unicode="2" 
d="M203 102c35 0 72 -2 116 -7c11 -1 73 -7 105 -7c65 0 106 38 120 79c5 15 6 16 29 16c15 0 28 0 28 -15c0 -27 -64 -185 -190 -185c-44 0 -79 22 -111 42c-32 21 -64 41 -98 41c-22 0 -39 -15 -55 -69c-4 -14 -8 -14 -29 -14c-14 0 -27 0 -27 14c0 15 39 163 215 255
c45 23 107 58 154 121c44 61 49 163 49 166c0 68 -46 86 -84 86c-115 0 -201 -141 -201 -215c0 -27 12 -28 19 -28c57 0 99 87 99 116c0 11 -5 22 -11 32c-2 3 -5 7 -5 11c0 5 3 10 8 13c3 4 8 7 13 7c15 0 31 -35 31 -61c0 -46 -54 -154 -139 -154c-42 0 -69 31 -69 75
c0 79 103 240 260 240c104 0 188 -53 188 -165c0 -113 -62 -176 -266 -280c-30 -15 -97 -49 -149 -114z" />
    <glyph glyph-name="three" unicode="3" 
d="M338 358h28c29 0 85 0 121 54c25 36 42 122 42 147c0 54 -39 66 -75 66c-97 0 -186 -77 -186 -149c0 -13 4 -28 19 -28c24 0 55 23 55 52c0 11 -5 21 -10 29c-2 2 -6 7 -6 12s3 10 8 13c3 4 8 7 13 7c15 0 32 -37 32 -59c0 -46 -45 -90 -95 -90c-40 0 -71 27 -71 71
c0 79 102 178 245 178c101 0 170 -46 170 -134c0 -60 -38 -159 -153 -199c45 -22 72 -63 72 -122c0 -120 -109 -223 -278 -223c-98 0 -161 56 -161 133c0 82 58 90 73 90c33 0 50 -23 50 -46c0 -20 -14 -63 -64 -70c12 -50 57 -71 101 -71c61 0 108 32 128 71
c26 49 42 139 42 160c0 61 -51 61 -70 61h-32c-19 0 -32 0 -32 15c0 2 4 22 8 26c3 5 4 6 26 6z" />
    <glyph glyph-name="four" unicode="4" 
d="M480 171l-36 -147c13 0 39 1 67 10c7 2 8 3 12 3c13 0 24 -22 24 -27c0 -22 -81 -33 -116 -33c-5 -25 -19 -79 -27 -111c-4 -16 -16 -60 -65 -60c-29 0 -45 20 -45 42c0 7 12 52 18 78l18 73c-71 24 -88 29 -138 29c-68 0 -79 -7 -93 -16c-14 -10 -17 -12 -22 -12
c-12 0 -24 21 -24 27c0 18 31 32 38 35c8 4 100 65 189 201c51 78 103 190 141 336c5 18 16 62 66 62c9 0 44 -4 44 -43c0 -7 -48 -295 -345 -543h20c47 0 77 -10 136 -30c18 75 19 78 30 119c7 29 18 72 67 72c24 0 45 -14 45 -42c0 -6 0 -8 -4 -23z" />
    <glyph glyph-name="five" unicode="5" 
d="M312 504l-30 -119c46 25 84 30 115 30c87 0 168 -43 168 -155c0 -137 -113 -277 -298 -277c-103 0 -148 72 -148 139c0 90 59 103 81 103c25 0 53 -14 53 -50c0 -26 -18 -72 -75 -77c10 -47 45 -72 90 -72c23 0 88 8 124 84c22 49 52 178 52 213c0 21 -10 56 -52 56
c-29 0 -83 -8 -135 -59c-14 -14 -14 -15 -28 -15c-5 0 -24 0 -24 18c0 5 2 11 3 16l76 302c3 10 5 20 16 20c4 0 6 -1 16 -6c42 -18 88 -26 133 -26c54 0 103 11 150 28c10 4 12 4 14 4c10 0 15 -9 15 -14c0 -15 -12 -26 -30 -41c-93 -84 -180 -94 -223 -94
c-27 0 -54 5 -57 5c-2 0 -3 -1 -6 -13z" />
    <glyph glyph-name="six" unicode="6" 
d="M293 360c51 64 101 64 120 64c136 0 164 -102 164 -152c0 -131 -99 -289 -279 -289c-117 0 -166 75 -166 186c0 46 17 229 118 355c87 108 194 137 264 137c94 0 114 -56 114 -92c0 -62 -38 -89 -73 -89c-36 0 -50 23 -50 46c0 29 21 62 61 70c-10 20 -32 26 -53 26
c-58 0 -115 -40 -144 -79c-22 -29 -47 -69 -76 -183zM301 26c68 0 98 49 113 88c11 29 50 172 50 217c0 32 -17 57 -61 57c-132 0 -166 -256 -166 -291c0 -27 13 -71 64 -71z" />
    <glyph glyph-name="seven" unicode="7" 
d="M150 461l95 184c8 16 11 16 31 16c17 0 28 0 28 -14c0 -6 -10 -25 -13 -30c51 34 102 44 133 44s48 -13 62 -56c12 -33 18 -43 36 -43c52 0 102 58 125 86c10 12 11 13 31 13c14 0 28 0 28 -14c0 -4 0 -6 -12 -20c-27 -36 -88 -116 -144 -236
c-47 -100 -83 -196 -120 -338c-5 -17 -18 -70 -77 -70c-32 0 -52 22 -52 49c0 9 18 105 97 253c54 103 132 209 159 246c-14 -4 -16 -5 -37 -5c-24 0 -40 7 -63 17c-23 9 -34 13 -52 13c-64 0 -157 -33 -202 -108c-10 -17 -11 -18 -32 -18c-14 0 -28 0 -28 14c0 3 1 6 7 17z
" />
    <glyph glyph-name="eight" unicode="8" 
d="M483 367c39 -27 84 -60 84 -141c0 -105 -92 -243 -273 -243c-115 0 -185 51 -185 135c0 130 124 191 169 213c-15 9 -57 44 -57 113c0 92 78 217 238 217c86 0 159 -35 159 -117c0 -104 -92 -154 -135 -177zM445 395c70 42 98 103 98 151c0 54 -38 76 -90 76
c-102 0 -141 -64 -141 -103c0 -29 13 -38 58 -71zM317 302c-91 -51 -121 -136 -121 -186c0 -56 35 -90 104 -90c109 0 165 73 165 132c0 39 -17 51 -62 83c-10 8 -56 41 -86 61z" />
    <glyph glyph-name="nine" unicode="9" 
d="M460 286c-43 -53 -81 -65 -120 -65c-142 0 -165 110 -165 152c0 4 0 122 85 207c80 79 164 81 199 81c110 0 162 -70 162 -182c0 -36 -14 -226 -120 -363c-72 -92 -168 -133 -250 -133c-63 0 -126 23 -126 95c0 65 43 86 72 86c36 0 50 -23 50 -46c0 -27 -18 -59 -56 -69
c17 -22 51 -23 62 -23c59 0 109 43 131 72c14 20 42 57 76 188zM349 257c137 0 168 274 168 295c0 22 -9 70 -59 70c-59 0 -99 -36 -119 -91c-17 -45 -51 -179 -51 -217c0 -22 9 -57 61 -57z" />
    <glyph glyph-name="colon" unicode=":" horiz-adv-x="355" 
d="M346 384c0 -47 -46 -87 -89 -87c-36 0 -61 24 -61 59c0 47 45 88 90 88c26 0 60 -15 60 -60zM272 88c0 -47 -45 -88 -90 -88c-29 0 -60 18 -60 59c0 50 48 88 89 88c36 0 61 -24 61 -59z" />
    <glyph glyph-name="semicolon" unicode=";" horiz-adv-x="355" 
d="M346 384c0 -47 -46 -87 -89 -87c-36 0 -61 24 -61 59c0 47 45 88 90 88c26 0 60 -15 60 -60zM219 8c-1 0 -16 -8 -37 -8c-47 0 -61 34 -61 58c0 41 37 89 89 89c44 0 58 -33 58 -73c0 -136 -140 -268 -161 -268c-10 0 -18 11 -18 20c0 7 3 9 11 16c30 24 90 78 119 166z
" />
    <glyph glyph-name="exclamdown" unicode="&#xa1;" horiz-adv-x="386" 
d="M375 440c0 -49 -47 -87 -88 -87c-38 0 -62 27 -62 60c0 48 46 87 88 87c35 0 62 -24 62 -60zM89 -127l141 390c6 17 7 18 30 18c20 0 31 0 27 -28l-54 -386c-10 -71 -76 -78 -88 -78c-44 0 -63 31 -63 56c0 9 2 13 7 28z" />
    <glyph glyph-name="equal" unicode="=" horiz-adv-x="885" 
d="M846 332h-625c-12 0 -40 0 -40 30c0 31 31 31 46 31h613c15 0 46 0 46 -31c0 -30 -28 -30 -40 -30zM784 108h-613c-15 0 -46 0 -46 31c0 30 28 30 40 30h625c12 0 41 0 41 -30c0 -31 -32 -31 -47 -31z" />
    <glyph glyph-name="questiondown" unicode="&#xbf;" 
d="M477 440c0 -49 -47 -87 -88 -87c-38 0 -62 27 -62 60c0 48 46 87 88 87c35 0 62 -24 62 -60zM420 -61c-3 1 -38 8 -38 47s34 70 70 70c30 0 50 -19 50 -46c0 -66 -101 -221 -256 -221c-92 0 -144 50 -144 124c0 67 36 128 109 176l123 79c20 13 41 27 41 59
c0 10 -5 18 -16 18c-14 0 -59 -9 -77 -58c-5 -14 -8 -14 -28 -14c-17 0 -28 0 -28 15c0 30 53 93 135 93c18 0 71 -6 71 -74c0 -39 -14 -76 -43 -102c-15 -12 -32 -23 -133 -88c-50 -33 -96 -62 -96 -123c0 -67 69 -69 87 -69c68 0 132 47 173 114z" />
    <glyph glyph-name="question" unicode="?" 
d="M349 411l144 94c51 33 63 73 63 101c0 67 -69 69 -87 69c-68 0 -132 -47 -173 -114c3 -1 38 -8 38 -47s-34 -70 -70 -70c-30 0 -50 19 -50 46c0 66 101 221 256 221c92 0 144 -50 144 -124c0 -67 -36 -128 -109 -176l-123 -79c-20 -13 -41 -27 -41 -59
c0 -10 5 -18 16 -18c14 0 59 9 77 58c5 14 8 14 28 14c16 0 28 0 28 -14c0 -33 -55 -94 -135 -94c-18 0 -71 6 -71 74c0 28 9 82 65 118zM389 87c0 -48 -46 -87 -88 -87c-35 0 -62 24 -62 60c0 49 47 87 88 87c38 0 62 -27 62 -60z" />
    <glyph glyph-name="at" unicode="@" horiz-adv-x="885" 
d="M715 482h29c16 0 28 0 28 -14c0 -9 -29 -119 -34 -137c-2 -9 -34 -129 -34 -147s7 -21 14 -21c89 0 123 247 123 288c0 149 -100 215 -228 215c-255 0 -394 -239 -394 -423c0 -136 83 -215 232 -215c97 0 192 22 282 57c16 6 18 6 34 6h20c16 0 28 0 28 -14
c0 -1 0 -9 -8 -12c-1 -1 -166 -73 -358 -73c-172 0 -285 86 -285 255c0 209 163 455 450 455c165 0 282 -85 282 -254c0 -79 -46 -321 -188 -321c-12 0 -74 0 -100 43c-34 -23 -76 -43 -131 -43c-91 0 -168 49 -168 158c0 122 96 282 271 282c52 0 112 -20 135 -85zM610 246
l55 223c-16 51 -60 62 -85 62c-106 0 -169 -176 -169 -270c0 -24 5 -98 71 -98c55 0 119 47 128 83z" />
    <glyph glyph-name="A" unicode="A" horiz-adv-x="865" 
d="M646 682l66 -616c2 -15 3 -16 15 -18c8 -1 24 -1 33 -1h13c15 0 32 0 32 -18c0 -29 -18 -29 -28 -29c-45 0 -92 3 -137 3c-49 0 -99 -3 -147 -3c-22 0 -22 17 -22 18c0 29 17 29 39 29c20 0 46 1 65 5l-15 140h-232l-81 -135c24 -9 59 -10 60 -10c8 0 26 0 26 -18
c0 -29 -20 -29 -28 -29c-37 0 -77 3 -115 3c-32 0 -67 -3 -98 -3c-19 0 -19 17 -19 18c0 29 17 29 31 29c72 1 83 19 94 37l365 602c15 25 25 25 47 25c30 0 33 -3 36 -29zM525 517l-168 -278h198z" />
    <glyph glyph-name="B" unicode="B" horiz-adv-x="816" 
d="M184 65l143 572c-12 1 -38 2 -49 2h-22c-15 0 -32 0 -32 18c0 29 18 29 35 29h380c105 0 192 -41 192 -136c0 -79 -66 -166 -203 -192c80 -7 150 -48 150 -133c0 -94 -92 -225 -282 -225h-400c-15 0 -32 0 -32 18c0 29 18 29 35 29h22c12 0 28 1 40 2c18 1 19 2 23 16z
M449 623l-62 -248h139c119 0 173 106 173 182c0 82 -63 82 -83 82h-131c-31 0 -32 -1 -36 -16zM329 47h141c126 0 173 119 173 198c0 94 -68 94 -91 94h-174l-72 -291c7 -1 14 -1 23 -1z" />
    <glyph glyph-name="C" unicode="C" horiz-adv-x="826" 
d="M905 670l-56 -224c-5 -20 -7 -20 -32 -20c-20 0 -31 0 -31 15c0 7 3 13 3 43c0 94 -46 172 -145 172c-67 0 -164 -25 -233 -109c-88 -108 -113 -300 -113 -345c0 -21 0 -83 46 -125c44 -41 107 -47 139 -47c79 0 209 52 257 209c3 9 12 9 27 9s28 0 28 -14
c0 -9 -22 -98 -107 -166c-77 -62 -157 -85 -230 -85c-148 0 -295 70 -295 262c0 212 173 458 467 458c25 0 103 0 166 -68l86 68c15 0 27 0 27 -14c0 -1 0 -4 -4 -19z" />
    <glyph glyph-name="D" unicode="D" horiz-adv-x="875" 
d="M184 65l143 572c-12 1 -38 2 -49 2h-22c-15 0 -32 0 -32 18c0 29 18 29 35 29h376c124 0 250 -63 250 -240c0 -202 -152 -446 -421 -446h-368c-15 0 -32 0 -32 18c0 29 18 29 35 29h22c12 0 28 1 40 2c18 1 19 2 23 16zM454 623l-143 -575c7 -1 14 -1 23 -1h104
c100 0 183 44 235 127c46 75 84 255 84 309c0 132 -101 156 -172 156h-95c-31 0 -32 -1 -36 -16z" />
    <glyph glyph-name="E" unicode="E" horiz-adv-x="756" 
d="M756 239l-95 -222c-7 -17 -12 -17 -33 -17h-532c-15 0 -32 0 -32 18c0 29 18 29 35 29h22c12 0 28 1 40 2c18 1 19 2 23 16l141 566c-6 0 -39 2 -49 2h-22c-14 0 -31 0 -31 18c0 29 17 29 34 29h516c14 0 30 0 32 -17l-23 -198c-2 -19 -3 -26 -29 -26c-10 0 -28 0 -28 19
c0 4 2 17 3 21c3 26 3 29 3 48c0 106 -65 106 -187 106c-27 0 -68 0 -82 -2l-63 -255h42c79 0 97 25 115 95c5 19 8 22 30 22c10 0 28 0 28 -18c0 -3 -1 -6 -3 -13l-56 -226c-6 -24 -13 -24 -30 -24c-10 0 -28 0 -28 18c0 2 1 7 3 14c4 18 7 38 7 45c0 30 -14 40 -69 40h-51
l-70 -281c7 -1 14 -1 23 -1h100c163 0 206 77 259 200c12 26 12 27 34 27c10 0 28 0 28 -18c0 -6 -3 -12 -5 -17z" />
    <glyph glyph-name="F" unicode="F" horiz-adv-x="727" 
d="M384 317l-67 -267c24 -3 26 -3 62 -3h36c14 0 32 0 32 -18c0 -29 -19 -29 -31 -29c-57 0 -117 3 -175 3c-51 0 -104 -3 -155 -3c-11 0 -22 5 -22 18c0 29 18 29 35 29h22c12 0 28 1 40 2c18 1 19 2 23 16l141 566c-6 0 -39 2 -49 2h-22c-14 0 -31 0 -31 18
c0 29 17 29 34 29h501c14 0 30 0 32 -17l-23 -198c-2 -19 -3 -26 -29 -26c-10 0 -28 0 -28 19c0 2 0 4 2 12c2 18 4 42 4 59c0 104 -64 104 -177 104c-26 0 -63 0 -77 -2l-66 -267h36c79 0 96 25 114 95c5 19 8 22 30 22c10 0 28 0 28 -18c0 -3 -1 -6 -3 -13l-56 -226
c-6 -24 -13 -24 -30 -24c-10 0 -28 0 -28 18c0 3 2 11 2 14c5 16 8 36 8 46c0 27 -10 39 -68 39h-45z" />
    <glyph glyph-name="G" unicode="G" horiz-adv-x="895" 
d="M789 212l-47 -191c-3 -12 -5 -21 -17 -21c-7 0 -49 24 -75 47c-55 -49 -131 -64 -192 -64c-153 0 -295 74 -295 261c0 216 175 459 466 459c25 0 103 0 166 -68l86 68c15 0 27 0 27 -14c0 -1 0 -4 -4 -19l-56 -224c-5 -20 -7 -20 -32 -20c-20 0 -31 0 -31 15
c0 8 3 12 3 44c0 88 -42 171 -145 171c-65 0 -166 -25 -237 -115c-82 -106 -108 -293 -108 -338c0 -64 20 -101 49 -128c27 -24 78 -45 139 -45c62 0 126 33 143 89c3 10 26 100 26 104c0 6 -48 6 -60 6h-34c-14 0 -32 0 -32 18c0 29 19 29 31 29c55 0 112 -3 167 -3
c42 0 86 3 127 3c16 0 20 -12 20 -18c0 -29 -16 -29 -40 -29c-11 0 -22 0 -33 -2c-7 -1 -9 -1 -12 -15z" />
    <glyph glyph-name="H" unicode="H" horiz-adv-x="896" 
d="M883 620l-142 -571c6 0 39 -2 49 -2h22c14 0 31 0 31 -18c0 -29 -19 -29 -28 -29c-50 0 -103 3 -154 3c-50 0 -102 -3 -151 -3c-11 0 -22 5 -22 18c0 29 18 29 35 29h22c12 0 28 1 40 2c18 1 19 2 23 16l67 268h-287l-71 -284c6 0 39 -2 49 -2h22c14 0 31 0 31 -18
c0 -29 -19 -29 -28 -29c-50 0 -103 3 -154 3c-50 0 -102 -3 -151 -3c-11 0 -22 5 -22 18c0 29 18 29 35 29h22c12 0 28 1 40 2c18 1 19 2 23 16l143 572c-12 1 -38 2 -49 2h-22c-15 0 -32 0 -32 18c0 29 19 29 29 29c50 0 103 -3 154 -3c50 0 101 3 150 3c11 0 22 -5 22 -18
c0 -29 -17 -29 -34 -29l-62 -1c-19 -2 -20 -3 -24 -18l-59 -240h287l64 257c-12 1 -38 2 -49 2h-22c-15 0 -32 0 -32 18c0 29 19 29 29 29c50 0 103 -3 154 -3c50 0 101 3 150 3c11 0 22 -5 22 -18c0 -29 -17 -29 -34 -29l-62 -1c-19 -2 -20 -3 -24 -18z" />
    <glyph glyph-name="I" unicode="I" horiz-adv-x="471" 
d="M459 620l-142 -571c17 -1 44 -2 51 -2h25c15 0 32 0 32 -18c0 -29 -19 -29 -30 -29c-52 0 -106 3 -159 3c-51 0 -104 -3 -155 -3c-12 0 -22 5 -22 18c0 29 17 29 35 29h24c11 0 30 0 41 1c20 2 21 3 25 17l142 572c-11 0 -46 2 -51 2h-24c-15 0 -32 0 -32 18
c0 29 18 29 29 29c52 0 106 -3 159 -3c52 0 105 3 156 3c21 0 22 -15 22 -18c0 -29 -18 -29 -35 -29h-25c-12 0 -29 -1 -41 -2c-20 -1 -21 -2 -25 -17z" />
    <glyph glyph-name="J" unicode="J" horiz-adv-x="610" 
d="M599 622l-120 -482c-18 -74 -99 -157 -249 -157c-91 0 -158 40 -158 109c0 67 53 96 89 96c40 0 63 -27 63 -58c0 -27 -18 -73 -69 -87c26 -24 65 -24 71 -24c55 0 104 51 124 130l121 487c-23 3 -25 3 -64 3h-39c-14 0 -31 0 -31 18c0 29 18 29 30 29
c56 0 115 -3 172 -3c44 0 89 3 132 3c15 0 20 -11 20 -18c0 -29 -17 -29 -35 -29h-8c-10 0 -22 0 -33 -1c-12 -2 -13 -3 -16 -16z" />
    <glyph glyph-name="K" unicode="K" horiz-adv-x="894" 
d="M586 419l156 -353c7 -15 8 -19 55 -19c13 0 30 0 30 -18c0 -29 -18 -29 -27 -29c-39 0 -80 3 -120 3c-48 0 -97 -3 -144 -3c-12 0 -22 6 -22 18c0 29 17 29 35 29c3 0 33 0 53 7l-125 283l-109 -83l-51 -205c6 0 39 -2 49 -2h22c14 0 31 0 31 -18c0 -29 -19 -29 -28 -29
c-50 0 -103 3 -154 3c-50 0 -102 -3 -151 -3c-11 0 -22 5 -22 18c0 29 18 29 35 29h22c37 0 58 4 59 4l147 586c-12 1 -38 2 -49 2h-22c-15 0 -32 0 -32 18c0 29 19 29 29 29c50 0 103 -3 154 -3c50 0 101 3 150 3c11 0 22 -5 22 -18c0 -29 -17 -29 -34 -29l-62 -1
c-19 -2 -20 -3 -24 -18l-72 -289l397 300c-20 7 -48 8 -49 8c-9 0 -26 1 -26 18c0 29 19 29 29 29c42 0 87 -3 130 -3c28 0 59 3 86 3c10 0 18 -8 18 -18c0 -28 -19 -29 -26 -29c-58 -2 -84 -13 -118 -38z" />
    <glyph glyph-name="L" unicode="L" horiz-adv-x="697" 
d="M459 620l-142 -572c7 -1 14 -1 23 -1h58c154 0 205 136 233 211c5 16 13 16 28 16c9 0 28 0 28 -18c0 -4 -2 -10 -5 -17l-80 -218c-8 -21 -11 -21 -34 -21h-472c-15 0 -32 0 -32 18c0 29 18 29 35 29h22c12 0 28 1 40 2c18 1 19 2 23 16l143 572c-12 1 -38 2 -49 2h-22
c-15 0 -32 0 -32 18c0 29 19 29 29 29c52 0 106 -3 158 -3c57 0 115 3 172 3c8 0 23 -2 23 -18c0 -29 -16 -29 -34 -29h-36c-12 0 -36 -1 -46 -2c-26 -2 -27 -3 -31 -17z" />
    <glyph glyph-name="M" unicode="M" horiz-adv-x="1072" 
d="M1060 620l-142 -571c6 0 39 -2 49 -2h22c14 0 31 0 31 -18c0 -29 -19 -29 -28 -29c-48 0 -98 3 -146 3c-47 0 -96 -3 -142 -3c-11 0 -22 5 -22 18c0 29 18 29 35 29h22c12 0 28 1 40 2c18 1 19 2 23 16l138 556l-1 1l-393 -597c-10 -15 -16 -25 -41 -25
c-22 0 -27 8 -30 29l-92 578h-1l-137 -550c24 -10 60 -10 69 -10c14 0 31 0 31 -18c0 -29 -19 -29 -27 -29c-38 0 -80 3 -119 3c-38 0 -78 -3 -115 -3c-17 0 -20 14 -20 18c0 29 18 29 34 29c25 0 46 3 57 5c27 6 28 10 32 25l140 560c-12 1 -38 2 -49 2h-22
c-15 0 -32 0 -32 18c0 29 18 29 35 29h193c27 0 33 -2 37 -28l83 -519l346 524c14 22 22 23 46 23h184c15 0 32 0 32 -18c0 -29 -17 -29 -34 -29l-62 -1c-19 -2 -20 -3 -24 -18z" />
    <glyph glyph-name="N" unicode="N" horiz-adv-x="896" 
d="M881 610l-146 -586c-6 -24 -11 -24 -34 -24c-22 0 -23 1 -31 16l-294 568l-131 -527c24 -10 60 -10 69 -10c14 0 31 0 31 -18c0 -29 -19 -29 -27 -29c-38 0 -80 3 -119 3c-38 0 -78 -3 -115 -3c-17 0 -20 14 -20 18c0 29 18 29 34 29c25 0 46 3 57 5c27 6 28 10 32 25
l136 546c1 3 3 10 3 11c0 3 0 5 -43 5h-27c-15 0 -32 0 -32 18c0 29 18 29 35 29h185c23 0 24 -1 33 -17l240 -463l106 423c-25 10 -61 10 -70 10c-14 0 -31 0 -31 18c0 29 20 29 28 29c38 0 79 -3 118 -3c38 0 78 3 115 3c11 0 20 -7 20 -18c0 -29 -17 -29 -31 -29
c-8 0 -34 0 -57 -5c-29 -6 -30 -9 -34 -24z" />
    <glyph glyph-name="O" unicode="O" horiz-adv-x="854" 
d="M865 453c0 -211 -158 -470 -441 -470c-148 0 -264 76 -264 246c0 201 155 474 443 474c138 0 262 -70 262 -250zM434 25c58 0 131 29 195 123c63 92 104 283 104 353c0 56 -18 162 -140 162c-54 0 -140 -26 -205 -133c-54 -90 -91 -265 -91 -337c0 -29 3 -82 33 -121
c18 -22 52 -47 104 -47z" />
    <glyph glyph-name="P" unicode="P" horiz-adv-x="787" 
d="M380 302l-63 -253c6 0 39 -2 49 -2h22c14 0 31 0 31 -18c0 -29 -19 -29 -28 -29c-50 0 -103 3 -154 3c-50 0 -102 -3 -151 -3c-11 0 -22 5 -22 18c0 29 18 29 35 29h22c12 0 28 1 40 2c18 1 19 2 23 16l143 572c-12 1 -38 2 -49 2h-22c-15 0 -32 0 -32 18
c0 29 18 29 35 29h363c88 0 203 -30 203 -151c0 -125 -125 -233 -290 -233h-155zM454 623l-70 -280h115c94 0 130 38 140 54c34 48 50 151 50 169c0 73 -76 73 -157 73h-46c-27 0 -28 -1 -32 -16z" />
    <glyph glyph-name="Q" unicode="Q" horiz-adv-x="854" 
d="M575 11c19 -61 45 -61 64 -61c6 0 76 0 96 53c2 6 6 15 18 15c10 0 18 -8 18 -18c0 -15 -49 -194 -171 -194c-89 0 -90 85 -90 117c0 14 3 56 4 70c-20 -5 -54 -10 -90 -10c-148 0 -264 76 -264 246c0 201 155 474 443 474c138 0 262 -70 262 -250
c0 -125 -68 -357 -290 -442zM352 46c0 87 79 109 110 109c58 0 81 -41 98 -89c149 104 176 391 176 427c0 21 0 79 -35 123c-17 20 -52 47 -108 47c-57 0 -142 -30 -206 -131c-65 -104 -98 -284 -98 -342c0 -56 15 -113 63 -144zM516 41c0 55 -14 78 -53 78
c-38 0 -75 -30 -75 -64c0 -32 30 -32 46 -32c38 0 74 14 82 18z" />
    <glyph glyph-name="R" unicode="R" horiz-adv-x="859" 
d="M623 339c60 -26 81 -68 81 -108c0 -6 0 -10 -7 -50c-13 -82 -13 -90 -13 -106c0 -26 2 -56 38 -56c29 0 55 29 71 78c6 20 10 20 29 20c11 0 28 0 28 -18c0 -13 -33 -116 -134 -116c-33 0 -176 3 -176 112c0 16 2 25 15 77c7 25 15 59 15 75c0 78 -69 78 -84 78h-106
l-69 -276c6 0 39 -2 49 -2h22c14 0 31 0 31 -18c0 -29 -19 -29 -28 -29c-49 0 -101 3 -151 3c-49 0 -100 -3 -148 -3c-11 0 -22 5 -22 18c0 29 18 29 35 29h22c12 0 28 1 40 2c18 1 19 2 23 16l143 572c-12 1 -38 2 -49 2h-22c-15 0 -32 0 -32 18c0 29 18 29 35 29h330
c105 0 236 -34 236 -151c0 -91 -85 -167 -202 -196zM488 361c51 0 103 9 143 42c41 36 56 137 56 158c0 78 -84 78 -162 78h-45c-22 0 -22 -1 -26 -16l-65 -262h99z" />
    <glyph glyph-name="S" unicode="S" horiz-adv-x="650" 
d="M699 670l-48 -192c-5 -20 -7 -20 -30 -20c-16 0 -28 0 -28 15c0 3 4 27 4 48c0 100 -56 139 -131 139c-109 0 -150 -95 -150 -141c0 -63 52 -76 69 -80l68 -17c64 -16 95 -23 126 -60c37 -45 37 -90 37 -111c0 -110 -88 -268 -265 -268c-79 0 -137 23 -169 55
c-62 -52 -23 -21 -54 -46c-9 -8 -10 -9 -20 -9c-4 0 -18 0 -18 14c0 2 1 7 2 12l50 200c5 19 7 19 30 19c14 0 27 0 27 -14c0 -2 0 -6 -1 -9c-4 -15 -6 -30 -6 -46c0 -105 96 -129 163 -129c113 0 155 108 155 159c0 69 -47 81 -86 90c-32 9 -34 9 -64 16
c-49 12 -89 22 -120 64c-21 29 -31 61 -31 97c0 94 82 247 259 247c60 0 104 -16 139 -49c4 -3 4 -4 5 -4l52 44c10 8 10 9 20 9c6 0 19 0 19 -15c0 -3 -1 -5 -4 -18z" />
    <glyph glyph-name="T" unicode="T" horiz-adv-x="796" 
d="M619 612l-140 -562c20 -2 50 -3 71 -3h44c15 0 32 0 32 -18c0 -29 -17 -29 -31 -29c-65 0 -132 3 -197 3c-64 0 -129 -3 -193 -3c-4 0 -24 0 -24 18c0 29 18 29 35 29h45c49 0 78 4 82 5l143 575c-16 1 -18 1 -42 1c-129 0 -157 -37 -204 -173c-7 -20 -10 -21 -30 -21
c-10 0 -28 0 -28 18c0 6 12 40 19 60l50 144c7 19 11 19 33 19h556c16 0 32 0 32 -19c0 -2 0 -4 -2 -15l-28 -181c-4 -26 -12 -26 -30 -26c-11 0 -28 0 -28 19c0 1 0 4 2 14s8 49 8 80c0 63 -23 81 -120 81h-35c-15 -1 -16 -1 -20 -16z" />
    <glyph glyph-name="U" unicode="U" horiz-adv-x="880" 
d="M866 610l-97 -390c-25 -101 -123 -237 -311 -237c-146 0 -240 69 -240 190c0 26 5 51 7 58l102 406c-12 1 -38 2 -49 2h-22c-15 0 -32 0 -32 18c0 29 19 29 29 29c50 0 103 -3 154 -3c50 0 101 3 150 3c11 0 22 -5 22 -18c0 -29 -17 -29 -34 -29l-62 -1
c-19 -2 -20 -3 -24 -18l-101 -405c-7 -30 -12 -48 -12 -82c0 -25 4 -56 32 -79c22 -17 55 -24 85 -24c110 0 212 63 247 203l99 396c-25 10 -61 10 -70 10c-14 0 -31 0 -31 18c0 29 20 29 27 29c39 0 80 -3 119 -3c38 0 77 3 114 3c11 0 20 -7 20 -18c0 -29 -17 -29 -31 -29
c-8 0 -34 0 -57 -5c-29 -6 -30 -9 -34 -24z" />
    <glyph glyph-name="V" unicode="V" horiz-adv-x="865" 
d="M857 601l-381 -595c-15 -23 -25 -23 -47 -23c-33 0 -33 5 -37 31l-84 607c-2 15 -3 15 -16 17c-10 1 -21 1 -31 1h-11c-14 0 -32 0 -32 18c0 29 20 29 28 29c43 0 89 -3 133 -3c49 0 99 3 147 3c11 0 22 -5 22 -18c0 -29 -17 -29 -37 -29c-15 0 -46 -1 -65 -5l65 -471
l297 466c-24 9 -55 10 -58 10c-9 0 -26 0 -26 18c0 29 20 29 27 29c37 0 77 -3 115 -3c31 0 64 3 94 3c13 0 19 -10 19 -18c0 -29 -18 -29 -31 -29c-16 0 -65 -1 -82 -26c-2 -2 -3 -3 -9 -12z" />
    <glyph glyph-name="W" unicode="W" horiz-adv-x="1159" 
d="M1160 602l-350 -593c-15 -25 -25 -26 -45 -26c-23 0 -30 1 -33 29l-40 437l-261 -442c-14 -24 -26 -24 -44 -24c-29 0 -30 6 -32 31l-57 623c-19 2 -25 2 -42 2h-7c-15 0 -32 0 -32 18c0 29 20 29 28 29c41 0 86 -3 128 -3c48 0 98 3 145 3c11 0 22 -5 22 -18
c0 -29 -17 -29 -39 -29c-20 0 -46 -1 -65 -5l41 -449l207 351l-9 101c-13 1 -28 2 -41 2h-7c-15 0 -32 0 -32 18c0 29 19 29 28 29c41 0 85 -3 127 -3c48 0 98 3 146 3c21 0 21 -17 21 -18c0 -29 -16 -29 -39 -29c-20 0 -46 -2 -65 -5l41 -449l262 442v1
c-28 10 -69 11 -72 11c-7 0 -25 0 -25 18c0 29 20 29 28 29c39 0 80 -3 120 -3c29 0 60 3 88 3c13 0 19 -11 19 -18c0 -28 -17 -29 -32 -29c-57 -2 -70 -16 -82 -37z" />
    <glyph glyph-name="X" unicode="X" horiz-adv-x="865" 
d="M580 394l134 -331c5 -12 6 -13 21 -15c9 -1 24 -1 33 -1h12c15 0 32 0 32 -18c0 -29 -18 -29 -28 -29c-44 0 -90 3 -135 3c-49 0 -100 -3 -149 -3c-20 0 -22 13 -22 18c0 28 19 29 27 29c4 0 32 1 63 7l-92 227l-205 -223c26 -10 55 -11 63 -11c4 0 22 -1 22 -18
c0 -29 -18 -29 -28 -29c-43 0 -88 3 -131 3c-37 0 -75 -3 -111 -3c-17 0 -20 13 -20 18c0 29 17 29 36 29c68 1 97 14 120 38l232 252l-116 286c-5 12 -6 13 -21 15c-9 1 -24 1 -33 1h-12c-15 0 -32 0 -32 18c0 29 20 29 28 29c44 0 90 -3 135 -3c49 0 100 3 149 3
c12 0 22 -5 22 -18c0 -29 -17 -29 -27 -29c-4 0 -29 0 -63 -7l74 -183l165 179c-23 9 -57 11 -60 11c-9 0 -26 1 -26 18c0 29 19 29 28 29c43 0 88 -3 131 -3c37 0 75 3 111 3c12 0 20 -7 20 -18c0 -29 -16 -29 -34 -29c-64 0 -98 -12 -122 -38z" />
    <glyph glyph-name="Y" unicode="Y" horiz-adv-x="865" 
d="M848 599l-281 -325l-56 -225c12 -1 38 -2 49 -2h22c15 0 32 0 32 -18c0 -29 -19 -29 -29 -29c-49 0 -101 3 -151 3c-49 0 -100 -3 -148 -3c-11 0 -22 5 -22 18c0 29 18 29 35 29h22c11 0 29 0 40 1c19 3 20 4 24 18l52 208l-128 349c-5 12 -6 13 -20 15c-9 1 -24 1 -33 1
h-12c-14 0 -32 0 -32 18c0 29 20 29 28 29c45 0 92 -3 138 -3c50 0 102 3 151 3c10 0 22 -4 22 -18c0 -29 -18 -29 -31 -29c-23 0 -37 -1 -61 -4l103 -284l241 280c-16 6 -33 8 -50 8c-8 0 -26 0 -26 18c0 29 20 29 28 29c37 0 77 -3 115 -3c32 0 65 3 96 3
c13 0 19 -10 19 -18c0 -29 -18 -29 -30 -29c-73 -1 -89 -19 -107 -40z" />
    <glyph glyph-name="Z" unicode="Z" horiz-adv-x="708" 
d="M773 639l-514 -588h118c179 0 221 104 255 208c8 23 9 25 31 25c10 0 28 0 28 -18c0 -3 -2 -12 -3 -15l-73 -230c-7 -21 -13 -21 -34 -21h-459c-17 0 -28 0 -28 14c0 18 9 28 16 36l514 589h-111c-125 0 -194 -53 -233 -169c-8 -23 -9 -25 -31 -25c-10 0 -28 0 -28 18
c0 2 4 16 5 18l55 185c6 20 14 20 34 20h444c15 0 27 0 27 -14c0 -12 -5 -24 -13 -33z" />
    <glyph glyph-name="bracketleft" unicode="[" horiz-adv-x="356" 
d="M381 689l-220 -878h57c15 0 32 0 32 -18c0 -6 -6 -29 -8 -34c-5 -9 -13 -9 -30 -9h-91c-15 0 -32 0 -32 18c0 5 2 11 3 16l236 943c6 23 11 23 34 23h91c15 0 32 0 32 -18c0 -5 -7 -30 -9 -33c-5 -10 -12 -10 -29 -10h-66z" />
    <glyph glyph-name="quotedblleft" unicode="&#x201c;" horiz-adv-x="620" 
d="M316 484c15 11 33 16 52 16c47 0 61 -34 61 -58c0 -39 -35 -89 -90 -89c-53 0 -68 47 -68 82c0 129 147 259 172 259c10 0 18 -11 18 -20c0 -6 -1 -7 -14 -17c-46 -32 -102 -85 -131 -173zM551 484c15 11 33 16 52 16c47 0 61 -34 61 -58c0 -39 -35 -89 -90 -89
c-53 0 -68 47 -68 82c0 129 147 259 172 259c10 0 18 -11 18 -20c0 -6 -1 -7 -14 -17c-46 -32 -102 -85 -131 -173z" />
    <glyph glyph-name="bracketright" unicode="]" horiz-adv-x="356" 
d="M389 716l-236 -943c-6 -23 -11 -23 -34 -23h-91c-15 0 -32 0 -32 18c0 5 7 30 9 33c5 10 12 10 29 10h66l220 878h-57c-15 0 -32 0 -32 18c0 6 6 29 8 34c5 9 13 9 30 9h91c15 0 32 0 32 -18c0 -5 -2 -11 -3 -16z" />
    <glyph glyph-name="circumflex" unicode="&#x2c6;" 
d="M452 612l-131 -82c-4 -2 -9 -6 -16 -6c-20 0 -27 32 -27 33c0 4 1 11 15 21l153 107c7 5 12 9 19 9c3 0 8 0 18 -11l98 -106c10 -11 10 -18 10 -19c0 -12 -22 -34 -34 -34c-2 0 -8 0 -19 10z" />
    <glyph glyph-name="dotaccent" unicode="&#x2d9;" horiz-adv-x="355" 
d="M409 635c0 -43 -42 -87 -89 -87c-38 0 -62 28 -62 60c0 44 43 87 89 87c41 0 62 -32 62 -60z" />
    <glyph glyph-name="quoteleft" unicode="&#x2018;" horiz-adv-x="355" 
d="M248 484c15 11 33 16 52 16c47 0 61 -34 61 -58c0 -39 -35 -89 -90 -89c-53 0 -68 47 -68 82c0 129 147 259 172 259c10 0 18 -11 18 -20c0 -6 -1 -7 -14 -17c-46 -32 -102 -85 -131 -173z" />
    <glyph glyph-name="a" unicode="a" 
d="M559 372l-67 -270c-4 -16 -6 -24 -6 -43c0 -23 7 -31 19 -31c34 0 52 75 60 108c7 25 8 26 32 26c15 0 28 0 28 -14c0 -4 -13 -60 -39 -102c-13 -20 -38 -54 -85 -54c-39 0 -84 16 -103 51c-24 -19 -71 -51 -132 -51c-76 0 -160 41 -160 160c0 134 100 300 268 300
c26 0 65 -5 97 -38c13 13 30 21 47 21c28 0 45 -19 45 -42c0 -4 0 -6 -4 -21zM389 118l59 236c-11 40 -39 62 -74 62c-26 0 -81 -15 -115 -112c-11 -28 -46 -151 -46 -205c0 -57 34 -71 57 -71c31 0 73 15 116 72c1 8 1 11 3 18z" />
    <glyph glyph-name="b" unicode="b" horiz-adv-x="532" 
d="M338 660l-59 -236c16 10 53 28 98 28c76 0 160 -41 160 -160c0 -132 -98 -300 -269 -300c-72 0 -156 37 -156 158c0 10 0 36 9 72l103 415c-12 1 -30 2 -42 2c-9 0 -27 0 -27 18c0 29 20 29 31 30l123 6c14 1 32 2 32 -17c0 -5 -2 -11 -3 -16zM270 28c19 0 78 9 114 112
c11 28 46 151 46 205c0 57 -34 71 -57 71c-38 0 -78 -25 -104 -57c-10 -11 -10 -13 -17 -39c-7 -31 -14 -56 -22 -92c-16 -61 -22 -87 -22 -121c0 -14 0 -79 62 -79z" />
    <glyph glyph-name="c" unicode="c" horiz-adv-x="532" 
d="M459 395c-19 20 -46 21 -57 21c-30 0 -92 -15 -131 -87c-27 -52 -55 -174 -55 -213c0 -57 31 -88 86 -88c15 0 116 0 190 83c7 7 11 7 14 7c10 0 30 -24 30 -32c0 -12 -39 -51 -93 -72c-54 -20 -116 -22 -142 -22c-147 0 -194 86 -194 168c0 130 106 292 296 292
c83 0 127 -43 127 -92c0 -43 -30 -78 -72 -78s-50 31 -50 46c0 3 1 49 51 67z" />
    <glyph glyph-name="d" unicode="d" 
d="M632 660l-140 -558c-4 -16 -6 -24 -6 -43c0 -23 7 -31 19 -31c34 0 52 75 60 108c7 25 8 26 32 26c15 0 28 0 28 -14c0 -4 -13 -60 -39 -102c-13 -20 -38 -54 -85 -54c-39 0 -84 16 -103 51c-24 -19 -71 -51 -132 -51c-76 0 -160 41 -160 160c0 134 100 300 268 300
c23 0 59 -4 91 -32l53 217c-12 1 -30 2 -42 2c-9 0 -27 0 -27 18c0 29 20 29 31 30l123 6c14 1 32 2 32 -17c0 -5 -2 -11 -3 -16zM389 118l59 236c-11 40 -39 62 -74 62c-26 0 -81 -15 -115 -112c-11 -28 -46 -151 -46 -205c0 -57 34 -71 57 -71c31 0 73 15 116 72
c1 8 1 11 3 18z" />
    <glyph glyph-name="e" unicode="e" horiz-adv-x="532" 
d="M274 218h-40c-9 -34 -16 -73 -16 -98c0 -59 29 -92 85 -92c14 0 115 0 189 83c7 7 11 7 14 7c10 0 30 -24 30 -32c0 -12 -39 -51 -93 -72c-51 -19 -110 -22 -141 -22c-125 0 -192 67 -192 175c0 154 119 285 292 285c74 0 130 -36 130 -96c0 -138 -198 -138 -258 -138z
M243 254c61 0 224 0 224 103c0 32 -23 59 -65 59c-34 0 -78 -16 -106 -50c-29 -32 -39 -62 -53 -112z" />
    <glyph glyph-name="f" unicode="f" horiz-adv-x="400" 
d="M343 397l-60 -324c-8 -44 -13 -63 -26 -106c-47 -148 -130 -169 -167 -169c-59 0 -109 30 -109 79c0 44 35 75 71 75c30 0 50 -19 50 -46c0 -16 -8 -47 -41 -64c14 -8 28 -8 30 -8c33 0 47 53 50 68c13 50 15 61 25 114l70 381h-86c-15 0 -32 0 -32 18c0 29 18 29 35 29
h92l18 98c9 51 38 160 162 160c66 0 113 -32 113 -79c0 -45 -36 -75 -71 -75c-30 0 -50 19 -50 46c0 28 18 52 40 64c-14 7 -28 8 -32 8c-14 0 -29 -12 -34 -25c-7 -14 -31 -150 -39 -197h104c14 0 32 0 32 -18c0 -29 -18 -29 -35 -29h-110z" />
    <glyph glyph-name="g" unicode="g" horiz-adv-x="532" 
d="M559 369l-108 -433c-22 -87 -118 -138 -239 -138c-74 0 -153 8 -153 70c0 45 36 74 71 74c31 0 50 -21 50 -46c0 -13 -7 -39 -28 -56c12 -3 35 -6 62 -6c54 0 111 29 135 122l17 71c-34 -19 -65 -27 -97 -27c-90 0 -162 52 -162 158c0 129 97 294 267 294
c36 0 68 -10 97 -37c9 9 20 20 47 20c28 0 45 -19 45 -42c0 -2 0 -8 -4 -24zM389 117l59 239c-12 44 -44 60 -74 60c-26 0 -77 -15 -110 -98c-14 -35 -49 -156 -49 -211c0 -22 5 -71 58 -71c48 0 107 46 116 81z" />
    <glyph glyph-name="h" unicode="h" 
d="M338 660l-65 -259c43 35 83 51 134 51c79 0 138 -30 138 -113c0 -57 -45 -175 -59 -212c-13 -34 -23 -60 -23 -81c0 -18 9 -18 14 -18c57 0 84 95 92 121c4 13 9 13 28 13c15 0 28 0 28 -14c0 -21 -49 -156 -153 -156c-54 0 -105 33 -105 89c0 15 3 25 12 50
c18 45 64 168 64 228c0 19 0 57 -43 57c-91 0 -147 -94 -154 -122l-62 -249c-12 -48 -50 -53 -62 -53c-27 0 -46 18 -46 43c0 5 0 7 4 22l144 580c-12 1 -30 2 -42 2c-9 0 -27 0 -27 18c0 29 20 29 31 30l123 6c14 1 32 2 32 -17c0 -5 -2 -11 -3 -16z" />
    <glyph glyph-name="i" unicode="i" horiz-adv-x="355" 
d="M372 646c0 -35 -34 -69 -71 -69c-29 0 -49 21 -49 48c0 35 34 69 71 69c30 0 49 -22 49 -48zM141 120l90 238c1 2 8 27 8 40c0 18 -9 18 -14 18c-57 0 -84 -95 -92 -121c-4 -13 -9 -13 -28 -13c-15 0 -28 0 -28 14c0 21 49 156 153 156c54 0 105 -33 105 -89
c0 -15 -3 -23 -9 -39l-90 -238c-1 -2 -8 -27 -8 -40c0 -18 9 -18 14 -18c57 0 84 95 92 121c4 13 9 13 28 13c15 0 28 0 28 -14c0 -21 -49 -156 -153 -156c-54 0 -105 33 -105 89c0 15 3 23 9 39z" />
    <glyph glyph-name="j" unicode="j" horiz-adv-x="355" 
d="M413 646c0 -35 -34 -69 -71 -69c-30 0 -49 22 -49 48c0 35 34 69 71 69c29 0 49 -21 49 -48zM172 -47l97 389c4 16 6 24 6 43c0 30 -12 31 -21 31c-16 0 -71 -7 -118 -117c-8 -16 -9 -17 -31 -17c-15 0 -28 0 -28 14c0 17 66 156 182 156c60 0 117 -34 117 -97
c0 -6 0 -13 -4 -29l-94 -378c-23 -92 -125 -150 -214 -150c-57 0 -93 31 -93 71c0 41 34 73 71 73c31 0 50 -21 50 -46c0 -17 -10 -41 -26 -54c-6 -5 -7 -5 -7 -6s0 -2 7 -2c47 0 91 59 106 119z" />
    <glyph glyph-name="k" unicode="k" horiz-adv-x="532" 
d="M338 660l-97 -386c24 15 41 29 81 71c64 68 113 107 169 107c57 0 71 -49 71 -79c0 -66 -44 -87 -73 -87c-31 0 -50 21 -50 46c0 33 26 67 67 72c-3 12 -15 12 -18 12c-38 0 -81 -25 -149 -101c-2 -1 -36 -38 -72 -64c72 -8 158 -31 158 -107c0 -10 -2 -20 -4 -30
c-8 -32 -8 -50 -8 -52c0 -32 13 -34 22 -34c36 0 56 48 71 107c7 26 8 27 32 27c15 0 28 0 28 -14c0 -8 -35 -156 -136 -156c-65 0 -118 42 -118 102c0 11 1 16 3 25c3 11 3 16 3 21c0 53 -62 69 -92 74c-21 -85 -43 -175 -45 -181c-11 -28 -38 -41 -59 -41
c-27 0 -46 18 -46 43c0 5 0 7 4 22l144 580c-12 1 -30 2 -42 2c-9 0 -27 0 -27 18c0 29 20 29 31 30l123 6c14 1 32 2 32 -17c0 -5 -2 -11 -3 -16z" />
    <glyph glyph-name="l" unicode="l" horiz-adv-x="296" 
d="M338 660l-140 -558c-4 -16 -6 -24 -6 -43c0 -23 7 -31 19 -31c34 0 52 75 60 108c7 25 8 26 32 26c15 0 28 0 28 -14c0 -4 -13 -60 -39 -102c-13 -20 -38 -54 -85 -54c-56 0 -116 33 -116 97c0 6 0 13 4 29l129 519c-12 1 -30 2 -42 2c-9 0 -27 0 -27 18
c0 29 20 29 31 30l123 6c14 1 32 2 32 -17c0 -5 -2 -11 -3 -16z" />
    <glyph glyph-name="m" unicode="m" horiz-adv-x="944" 
d="M305 294l-62 -248c-13 -52 -56 -54 -63 -54c-21 0 -45 12 -45 43c0 5 0 7 4 22l71 285c4 16 6 24 6 43c0 23 -7 31 -19 31c-34 0 -52 -75 -60 -108c-7 -25 -8 -26 -32 -26c-15 0 -28 0 -28 14c0 4 13 60 39 102c13 20 38 54 85 54c32 0 92 -12 112 -69
c66 69 132 69 153 69s112 0 134 -76c34 34 80 76 160 76c79 0 138 -30 138 -113c0 -57 -45 -175 -59 -212c-13 -34 -23 -60 -23 -81c0 -18 9 -18 14 -18c57 0 84 95 92 121c4 13 9 13 28 13c15 0 28 0 28 -14c0 -21 -49 -156 -153 -156c-54 0 -105 33 -105 89
c0 15 3 25 12 50c18 45 64 168 64 228c0 19 0 57 -43 57c-90 0 -147 -93 -154 -122l-61 -246c-13 -51 -52 -56 -64 -56c-21 0 -45 12 -45 43c0 7 10 47 16 71l42 168c11 43 15 60 15 85c0 19 0 57 -43 57c-91 0 -147 -93 -154 -122z" />
    <glyph glyph-name="n" unicode="n" horiz-adv-x="650" 
d="M305 294l-62 -248c-13 -52 -56 -54 -63 -54c-21 0 -45 12 -45 43c0 5 0 7 4 22l71 285c4 16 6 24 6 43c0 23 -7 31 -19 31c-34 0 -52 -75 -60 -108c-7 -25 -8 -26 -32 -26c-15 0 -28 0 -28 14c0 4 13 60 39 102c13 20 38 54 85 54c32 0 92 -12 112 -69
c66 69 132 69 153 69c79 0 138 -30 138 -113c0 -57 -45 -175 -59 -212c-13 -34 -23 -60 -23 -81c0 -18 9 -18 14 -18c57 0 84 95 92 121c4 13 9 13 28 13c15 0 28 0 28 -14c0 -21 -49 -156 -153 -156c-54 0 -105 33 -105 89c0 15 3 25 12 50c18 45 64 168 64 228
c0 19 0 57 -43 57c-91 0 -147 -93 -154 -122z" />
    <glyph glyph-name="o" unicode="o" 
d="M595 284c0 -126 -101 -292 -298 -292c-119 0 -190 65 -190 168c0 125 100 292 298 292c119 0 190 -65 190 -168zM299 28c51 0 107 33 136 96c25 53 51 165 51 204c0 71 -48 88 -83 88c-51 0 -107 -33 -136 -96c-25 -53 -51 -165 -51 -204c0 -71 48 -88 83 -88z" />
    <glyph glyph-name="p" unicode="p" 
d="M92 -131l118 473c4 16 6 24 6 43c0 23 -7 31 -19 31c-34 0 -52 -75 -60 -108c-7 -25 -8 -26 -32 -26c-15 0 -28 0 -28 14c0 4 13 60 39 102c13 20 38 54 85 54c39 0 84 -16 103 -51c24 19 71 51 132 51c76 0 160 -41 160 -160c0 -134 -100 -300 -268 -300
c-23 0 -59 4 -91 32l-42 -170c13 -1 29 -1 43 -1c10 0 27 -1 27 -18c0 -29 -20 -29 -27 -29c-34 0 -70 3 -105 3c-29 0 -61 -3 -89 -3c-9 0 -19 6 -19 18c0 29 17 29 32 29c30 0 31 1 35 16zM313 326l-59 -236c11 -40 39 -62 74 -62c26 0 81 15 115 112c11 28 46 151 46 205
c0 57 -34 71 -57 71c-31 0 -73 -15 -116 -72c-1 -8 -1 -11 -3 -18z" />
    <glyph glyph-name="q" unicode="q" horiz-adv-x="532" 
d="M572 420l-142 -566c13 -1 29 -1 43 -1c10 0 27 -1 27 -18c0 -29 -20 -29 -27 -29c-35 0 -72 3 -108 3c-34 0 -70 -3 -104 -3c-17 0 -20 13 -20 18c0 29 18 29 36 29c1 0 21 0 34 1c12 1 13 2 16 16l37 150c-16 -10 -53 -28 -98 -28c-76 0 -160 41 -160 160
c0 134 100 300 268 300c26 0 65 -5 97 -38c29 25 83 38 85 38c15 0 18 -14 18 -18s-1 -10 -2 -14zM387 110l61 244c-11 40 -39 62 -74 62c-26 0 -81 -15 -115 -112c-11 -28 -46 -151 -46 -205c0 -57 34 -71 57 -71c50 0 108 47 117 82z" />
    <glyph glyph-name="r" unicode="r" horiz-adv-x="501" 
d="M311 318l-68 -272c-13 -52 -56 -54 -63 -54c-21 0 -45 12 -45 43c0 5 0 7 4 22l71 285c4 16 6 24 6 43c0 23 -7 31 -19 31c-34 0 -52 -75 -60 -108c-7 -25 -8 -26 -32 -26c-15 0 -28 0 -28 14c0 4 13 60 39 102c13 20 38 54 85 54c49 0 89 -23 106 -54
c43 43 90 54 128 54c73 0 127 -36 127 -89c0 -45 -34 -77 -72 -77c-31 0 -50 21 -50 46c0 4 1 46 47 67c-20 16 -44 17 -55 17c-70 0 -115 -75 -121 -98z" />
    <glyph glyph-name="s" unicode="s" horiz-adv-x="486" 
d="M418 392c-23 24 -59 24 -69 24c-106 0 -106 -77 -106 -78c0 -37 41 -45 71 -51c53 -10 78 -15 107 -38c37 -29 44 -63 44 -85c0 -33 -20 -96 -72 -133c-54 -38 -118 -39 -146 -39c-97 0 -162 36 -162 99c0 49 35 78 72 78c17 0 49 -8 49 -46c0 -46 -42 -65 -49 -68
c33 -27 80 -27 93 -27c139 0 139 95 139 96c0 46 -53 56 -105 66c-31 6 -117 23 -117 108c0 31 20 84 53 112c18 15 53 42 131 42c79 0 135 -33 135 -88c0 -49 -37 -69 -62 -69s-44 16 -44 41c0 3 0 39 38 56z" />
    <glyph glyph-name="t" unicode="t" horiz-adv-x="385" 
d="M302 397l-74 -295c-4 -16 -6 -24 -6 -43c0 -30 12 -31 21 -31c26 0 75 18 117 117c8 16 9 17 31 17c15 0 28 0 28 -14c0 -17 -66 -156 -181 -156c-60 0 -117 34 -117 97c0 6 0 13 4 29l70 279h-72c-15 0 -32 0 -32 18c0 29 17 29 35 29h81l36 146c12 47 50 53 63 53
c28 0 45 -19 45 -42c0 -8 -11 -52 -18 -78c-6 -23 -9 -36 -19 -79h71c14 0 31 0 31 -18c0 -29 -17 -29 -34 -29h-80z" />
    <glyph glyph-name="u" unicode="u" horiz-adv-x="620" 
d="M591 379l-69 -277c-4 -16 -6 -24 -6 -43c0 -23 7 -31 19 -31c34 0 52 75 60 108c7 25 8 26 32 26c15 0 28 0 28 -14c0 -4 -13 -60 -39 -102c-13 -20 -38 -54 -85 -54c-39 0 -84 16 -103 51c-49 -46 -91 -51 -119 -51c-83 0 -148 35 -148 126c0 56 28 128 60 214
c6 14 18 45 18 66c0 18 -9 18 -14 18c-57 0 -84 -95 -92 -121c-4 -13 -9 -13 -28 -13c-15 0 -28 0 -28 14c0 21 49 156 153 156c54 0 105 -33 105 -89c0 -17 -5 -29 -14 -54c-24 -63 -58 -152 -58 -212c0 -22 2 -69 52 -69c30 0 55 16 69 29c28 28 29 32 33 50l69 281
c12 50 51 56 64 56c21 0 45 -12 45 -43c0 -5 0 -7 -4 -22z" />
    <glyph glyph-name="v" unicode="v" horiz-adv-x="532" 
d="M555 365c0 -52 -56 -373 -234 -373c-62 0 -159 17 -159 130c0 51 21 109 59 210c6 14 18 45 18 66c0 18 -9 18 -14 18c-57 0 -84 -95 -92 -121c-4 -13 -9 -13 -28 -13c-15 0 -28 0 -28 14c0 21 49 156 153 156c54 0 105 -33 105 -89c0 -17 -4 -28 -14 -53
c-25 -66 -57 -151 -57 -207c0 -31 8 -75 64 -75c112 0 154 242 154 246c0 30 -19 51 -39 65c-10 8 -24 18 -24 42c0 36 37 72 72 72c19 0 64 -14 64 -88z" />
    <glyph glyph-name="w" unicode="w" horiz-adv-x="767" 
d="M414 98c-2 9 -2 14 -2 24c0 28 14 82 24 122c7 31 26 106 34 136c4 19 16 64 65 64c21 0 45 -12 45 -43c0 -10 -6 -34 -15 -67c-27 -104 -51 -196 -51 -231c0 -31 8 -75 64 -75c43 0 72 34 93 83c23 53 47 148 47 163c0 30 -19 51 -39 65c-10 8 -24 18 -24 42
c0 36 37 72 72 72c19 0 64 -14 64 -88c0 -50 -32 -174 -62 -243c-35 -80 -84 -130 -157 -130c-42 0 -102 8 -136 51c-22 -28 -57 -51 -106 -51c-70 0 -168 21 -168 132c0 51 22 111 59 208c6 14 18 45 18 66c0 18 -9 18 -14 18c-57 0 -84 -95 -92 -121
c-4 -13 -9 -13 -28 -13c-15 0 -28 0 -28 14c0 21 49 156 153 156c54 0 105 -33 105 -89c0 -17 -5 -30 -12 -47c-31 -84 -58 -154 -58 -210c0 -17 0 -78 71 -78c33 0 59 27 78 70z" />
    <glyph glyph-name="x" unicode="x" horiz-adv-x="560" 
d="M415 327l-54 -222c-3 -12 -3 -22 -3 -28c0 -10 0 -49 51 -49c43 0 103 36 129 120c5 14 9 14 29 14c15 0 28 0 28 -14c0 -32 -66 -156 -191 -156c-55 0 -102 19 -125 53c-16 -19 -51 -53 -102 -53c-61 0 -109 36 -109 88c0 46 34 78 72 78c31 0 50 -21 50 -46
c0 -4 0 -49 -51 -68c15 -16 37 -16 40 -16c41 0 66 45 80 100l32 130c9 36 22 88 22 109c0 11 0 49 -51 49c-40 0 -102 -34 -128 -120c-5 -14 -9 -14 -29 -14c-15 0 -28 0 -28 14c0 32 66 156 190 156c59 0 103 -21 126 -53c40 47 79 53 102 53c59 0 109 -35 109 -88
c0 -47 -35 -78 -72 -78c-31 0 -50 21 -50 46c0 4 0 49 51 68c-16 16 -36 16 -41 16c-40 0 -68 -51 -77 -89z" />
    <glyph glyph-name="y" unicode="y" horiz-adv-x="561" 
d="M591 379l-96 -386c-24 -97 -135 -195 -261 -195c-74 0 -127 34 -127 87c0 43 32 76 72 76c18 0 49 -8 49 -46s-30 -59 -45 -66c20 -14 43 -15 52 -15c77 0 139 92 158 182c-15 -10 -44 -24 -84 -24c-83 0 -148 35 -148 126c0 56 28 128 60 214c6 14 18 45 18 66
c0 18 -9 18 -14 18c-57 0 -84 -95 -92 -121c-4 -13 -9 -13 -28 -13c-15 0 -28 0 -28 14c0 21 49 156 153 156c54 0 105 -33 105 -89c0 -17 -5 -29 -14 -54c-24 -63 -58 -152 -58 -212c0 -22 2 -69 52 -69c31 0 55 17 63 24c30 25 34 40 37 52l72 286c13 53 57 54 63 54
c21 0 45 -12 45 -43c0 -5 0 -7 -4 -22z" />
    <glyph glyph-name="z" unicode="z" horiz-adv-x="490" 
d="M318 346h-71c-33 -2 -41 -7 -46 -16c-6 -12 -8 -12 -28 -12c-13 0 -28 0 -28 14c0 30 55 120 142 120c27 0 49 -10 79 -33c21 -17 42 -35 67 -35c15 0 39 39 51 57c7 10 8 11 28 11c16 0 28 0 28 -14c0 -16 -53 -81 -110 -137c-27 -26 -77 -67 -117 -99
c-70 -58 -95 -83 -117 -106h48c22 0 46 1 68 2c85 1 136 2 158 57c5 11 11 11 28 11c14 0 28 0 28 -15c0 -34 -69 -159 -181 -159c-36 0 -57 16 -85 38c-20 15 -38 30 -63 30c-31 0 -59 -30 -78 -58c-6 -9 -7 -10 -27 -10c-16 0 -28 0 -28 14c0 19 63 90 110 137
c27 26 77 67 117 99c70 58 95 83 117 106h-21c-15 0 -54 -2 -69 -2z" />
    <glyph glyph-name="endash" unicode="&#x2013;" 
d="M597 256h-466c-14 0 -31 0 -31 18s17 18 31 18h466c14 0 31 0 31 -18s-17 -18 -31 -18z" />
    <glyph glyph-name="emdash" unicode="&#x2014;" horiz-adv-x="1182" 
d="M1157 256h-995c-14 0 -31 0 -31 18s17 18 31 18h995c14 0 31 0 31 -18s-17 -18 -31 -18z" />
    <glyph glyph-name="hungarumlaut" unicode="&#x2dd;" 
d="M438 609l-101 -94c-11 -10 -18 -10 -20 -10c-4 0 -32 10 -32 27c0 4 0 6 7 17l68 118c6 11 24 34 54 34c29 0 49 -21 49 -47c0 -22 -15 -35 -25 -45zM469 549l68 118c6 11 24 34 54 34c29 0 49 -21 49 -47c0 -22 -15 -35 -25 -45l-101 -94c-11 -10 -18 -10 -20 -10
c-4 0 -32 10 -32 27c0 4 0 6 7 17z" />
    <glyph glyph-name="tilde" unicode="&#x2dc;" 
d="M641 676c0 -14 -45 -49 -61 -62c-25 -20 -57 -39 -86 -39c-18 0 -37 5 -68 39c-11 14 -21 22 -35 22c-27 0 -66 -32 -88 -51c-6 -6 -11 -10 -18 -10c-13 0 -18 12 -18 18c0 13 41 46 57 58c18 14 56 43 90 43c20 0 40 -8 61 -32c19 -22 29 -29 42 -29c29 0 72 37 85 48
c9 9 13 13 21 13c10 0 18 -8 18 -18z" />
    <glyph glyph-name="dieresis" unicode="&#xa8;" 
d="M419 639c0 -43 -41 -80 -82 -80c-32 0 -57 23 -57 56c0 40 39 80 82 80c33 0 57 -23 57 -56zM624 639c0 -44 -42 -80 -81 -80c-40 0 -58 31 -58 56c0 39 38 80 82 80c27 0 57 -17 57 -56z" />
    <glyph glyph-name="space" unicode=" " horiz-adv-x="414" 
 />
  </font>
</defs>
</svg>
