<?xml version="1.0" standalone="no"?>
<!DOCTYPE svg PUBLIC "-//W3C//DTD SVG 1.1//EN" "http://www.w3.org/Graphics/SVG/1.1/DTD/svg11.dtd" >
<svg>
<metadata>
Created by FontForge 20060822 at Fri Oct  6 18:21:04 2006
 By Wojciech Mula,,,
Copyright (C) 1997 American Mathematical Society. All Rights Reserved
</metadata>
<defs>
<font id="CMBX5" horiz-adv-x="758" >
  <font-face 
    font-family="Computer Modern"
    font-weight="700"
    font-stretch="normal"
    units-per-em="1000"
    panose-1="2 0 8 3 0 0 0 0 0 0"
    ascent="800"
    descent="-200"
    x-height="444"
    cap-height="686"
    bbox="-40 -250 1483 756"
    underline-thickness="0"
    underline-position="0"
    stemh="67"
    stemv="133"
    unicode-range="U+0020-U+FB04"
  />
    <missing-glyph />
    <glyph glyph-name="ff" unicode="ff" horiz-adv-x="912" 
d="M716 377v-310h90v-67c-35 2 -93 4 -149 4c-46 0 -92 -1 -138 -4v67h72v310h-310v-310h72v-67c-53 4 -131 4 -135 4c-45 0 -89 -1 -134 -4v67h72v310h-100v67h100v90c0 141 223 168 354 168c29 0 109 0 161 -39c61 36 141 39 172 39c99 0 139 -53 139 -99
c0 -48 -37 -74 -74 -74c-32 0 -73 23 -73 74c0 13 3 25 9 37c1 1 1 2 1 3c0 2 -1 3 -13 3c-6 0 -54 0 -89 -27c-35 -29 -35 -70 -35 -86v-89h160v-67h-152zM273 444h318v84c-25 16 -33 40 -33 62c0 25 11 42 16 47c-33 9 -73 9 -82 9c-75 0 -118 -12 -148 -25
c-71 -29 -71 -70 -71 -91v-86z" />
    <glyph glyph-name="fi" unicode="fi" horiz-adv-x="872" 
d="M520 447l196 8v-388h72v-67c-53 4 -131 4 -135 4c-45 0 -89 -1 -134 -4v67h72v274c0 34 -6 36 -34 36h-276v-310h72v-67c-53 4 -131 4 -135 4c-45 0 -89 -1 -134 -4v67h72v310h-100v67h100v90c0 148 248 168 357 168c164 0 200 -80 200 -127c0 -56 -44 -78 -77 -78
s-76 23 -76 77c0 36 22 55 24 57c-35 15 -76 15 -89 15c-44 0 -99 -5 -147 -23c-75 -30 -75 -71 -75 -93v-86h246c0 1 0 2 1 3z" />
    <glyph glyph-name="fl" unicode="fl" horiz-adv-x="872" 
d="M716 694v-627h72v-67c-53 4 -131 4 -135 4c-45 0 -89 -1 -134 -4v67h72v310h-310v-310h72v-67c-53 4 -131 4 -135 4c-45 0 -89 -1 -134 -4v67h72v310h-100v67h100v90c0 139 217 168 357 168c32 0 68 0 112 -11c7 -2 8 -2 13 -2c8 0 65 4 78 5zM273 444h318v97
c-23 13 -33 36 -33 62c0 6 0 18 6 32c1 2 2 4 2 5c0 6 -63 6 -69 6c-42 0 -100 -2 -152 -24c-72 -30 -72 -71 -72 -92v-86z" />
    <glyph glyph-name="ffi" unicode="ffi" horiz-adv-x="1308" 
d="M1224 67v-67c-53 4 -131 4 -135 4c-45 0 -89 -1 -134 -4v67h72v274c0 34 -6 36 -34 36h-276v-310h72v-67c-53 4 -131 4 -135 4c-45 0 -89 -1 -134 -4v67h72v310h-311v-310h72v-67c-53 4 -131 4 -135 4c-45 0 -89 -1 -134 -4v67h72v310h-100v67h100v90
c0 146 240 168 352 168c28 0 115 0 165 -52c46 25 132 52 276 52c164 0 200 -80 200 -127c0 -56 -44 -78 -77 -78s-76 23 -76 77c0 36 22 55 24 57c-35 15 -76 15 -89 15c-44 0 -99 -5 -147 -23c-75 -30 -75 -71 -75 -93v-86h246c0 1 0 2 1 3l196 8v-388h72zM273 444h319v63
c-28 14 -39 40 -39 67c0 31 16 50 23 57c-34 15 -69 15 -86 15c-49 0 -102 -6 -146 -25c-71 -29 -71 -70 -71 -91v-86z" />
    <glyph glyph-name="ffl" unicode="ffl" horiz-adv-x="1308" 
d="M1224 67v-67c-53 4 -131 4 -135 4c-45 0 -89 -1 -134 -4v67h72v310h-310v-310h72v-67c-53 4 -131 4 -135 4c-45 0 -89 -1 -134 -4v67h72v310h-311v-310h72v-67c-53 4 -131 4 -135 4c-45 0 -89 -1 -134 -4v67h72v310h-100v67h100v90c0 146 237 168 354 168
c29 0 125 0 170 -48c90 43 197 48 269 48c32 0 68 0 112 -11c7 -2 8 -2 13 -2c8 0 65 4 78 5v-627h72zM273 444h319v84c-23 13 -33 36 -33 62c0 27 13 44 15 47c-34 9 -68 9 -82 9c-60 0 -108 -8 -148 -25c-71 -29 -71 -70 -71 -91v-86zM709 444h318v97
c-23 13 -33 36 -33 62c0 6 0 18 6 32c1 2 2 4 2 5c0 6 -63 6 -69 6c-42 0 -100 -2 -152 -24c-72 -30 -72 -71 -72 -92v-86z" />
    <glyph glyph-name="Gamma" unicode="&#x393;" horiz-adv-x="897" 
d="M781 678l39 -206h-83c-25 127 -108 139 -211 139h-172v-544h132v-67c-50 4 -152 4 -206 4c-32 0 -125 -1 -188 -4v67h106v544h-106v67h689z" />
    <glyph glyph-name="Delta" unicode="&#x394;" horiz-adv-x="1241" 
d="M722 680l422 -649c6 -10 7 -10 7 -15c0 -16 -16 -16 -30 -16h-1000c-14 0 -30 0 -30 16c0 5 2 7 8 17l421 647c19 29 33 31 60 31h82c27 0 42 -3 60 -31zM584 606l-306 -470h612z" />
    <glyph glyph-name="Theta" unicode="&#x398;" horiz-adv-x="1161" 
d="M1063 338c0 -169 -132 -355 -483 -355c-346 0 -482 183 -482 355c0 174 134 365 483 365c344 0 482 -188 482 -365zM581 42c181 0 327 78 327 297c0 212 -131 308 -328 308c-187 0 -327 -89 -327 -308c0 -213 138 -297 328 -297zM826 447v-204h-83v34h-325v-34h-83v204
h83v-34h325v34h83z" />
    <glyph glyph-name="Lambda" unicode="&#x39b;" horiz-adv-x="1033" 
d="M607 679l266 -612h90v-67c-55 2 -98 4 -163 4c-18 0 -119 -1 -182 -4v67h85l-220 506l-220 -506h85v-67c-46 2 -104 4 -150 4c-47 0 -79 0 -128 -4v67h90l267 612c11 26 20 32 52 32h75c21 0 39 0 53 -32z" />
    <glyph glyph-name="Xi" unicode="&#x39e;" horiz-adv-x="1000" 
d="M903 669l12 -187h-83c-1 32 -11 56 -20 58c-12 3 -63 4 -78 4h-468c-32 0 -71 -3 -75 -3c-21 -4 -23 -58 -23 -59h-83l12 187h806zM89 0l-12 194h83c2 -54 18 -64 20 -64c7 -3 52 -5 84 -5h472c28 0 66 0 83 4c8 2 20 20 21 65h83l-12 -194h-822zM782 458v-221h-83v48
h-398v-48h-83v221h83v-48h398v48h83z" />
    <glyph glyph-name="Pi" unicode="&#x3a0;" horiz-adv-x="1152" 
d="M955 611v-544h106v-67c-66 3 -163 4 -184 4c-35 0 -125 -1 -184 -4v67h106v544h-445v-544h106v-67c-66 3 -163 4 -184 4c-35 0 -125 -1 -184 -4v67h106v544h-106v67h969v-67h-106z" />
    <glyph glyph-name="Sigma" unicode="&#x3a3;" horiz-adv-x="1080" 
d="M609 318l-299 -234h299c70 0 138 6 179 17c36 10 97 47 112 122h83l-39 -223h-808c-14 0 -38 0 -38 25c0 8 5 17 14 24l333 260l-333 311c-12 11 -14 14 -14 32c0 34 16 34 38 34h808l39 -206h-83c-17 76 -80 112 -119 123c-59 15 -165 16 -183 16h-256l270 -253
c10 -9 13 -12 13 -23c0 -12 -5 -16 -16 -25z" />
    <glyph glyph-name="Upsilon" unicode="&#x3a5;" horiz-adv-x="1161" 
d="M659 342v-275h132v-67c-50 4 -155 4 -210 4s-160 0 -210 -4v67h132v275c0 35 -6 104 -58 167c-53 65 -118 65 -150 65c-33 0 -98 0 -103 -23c-5 -26 -13 -27 -37 -27h-20c-16 0 -37 0 -37 28c0 87 96 151 212 151c155 0 242 -132 271 -239c46 156 150 239 270 239
c116 0 212 -64 212 -151c0 -28 -21 -28 -37 -28h-20c-16 0 -32 0 -37 21c-3 15 -5 29 -103 29c-33 0 -98 0 -152 -68c-41 -52 -55 -112 -55 -164z" />
    <glyph glyph-name="Phi" unicode="&#x3a6;" horiz-adv-x="1080" 
d="M734 619h-132v-104c238 -9 381 -77 381 -172s-144 -163 -381 -172v-104h132v-67c-52 4 -147 4 -202 4s-149 0 -201 -4v67h132v105c-143 3 -365 51 -365 171s222 168 365 171v105h-132v67c52 -4 146 -4 201 -4s150 0 202 4v-67zM463 227v232c-82 -4 -201 -18 -201 -116
c0 -99 122 -112 201 -116zM602 459v-232c87 0 217 15 217 116s-129 116 -217 116z" />
    <glyph glyph-name="Psi" unicode="&#x3a8;" horiz-adv-x="1161" 
d="M642 619v-390c104 11 188 61 191 172c1 23 2 65 31 97c31 32 58 39 92 39h69c17 0 38 0 38 -28c0 -25 -18 -27 -28 -28c-60 -6 -62 -58 -63 -80c-2 -50 -28 -131 -114 -178c-55 -29 -124 -47 -216 -52v-104h132v-67c-52 4 -147 4 -202 4s-149 0 -201 -4v67h132v105
c-90 4 -160 26 -203 51c-88 52 -109 123 -111 194c-1 23 -20 59 -59 64c-16 1 -32 3 -32 28c0 28 21 28 38 28h69c69 0 121 -44 123 -135c2 -100 68 -160 175 -172v389h-132v67c52 -4 146 -4 201 -4s150 0 202 4v-67h-132z" />
    <glyph glyph-name="Omega" unicode="&#x3a9;" horiz-adv-x="1080" 
d="M1000 188l-47 -188h-255c-20 0 -38 0 -38 32c0 78 45 160 82 227c35 64 69 128 69 198c0 159 -159 190 -271 190c-152 0 -270 -55 -270 -190c0 -72 36 -137 74 -206c30 -55 77 -140 77 -219c0 -32 -18 -32 -38 -32h-255l-47 188h83c16 -68 19 -69 87 -69h84
c-29 45 -94 103 -116 122c-93 84 -121 153 -121 215c0 109 106 247 443 247c334 0 442 -136 442 -247c0 -102 -74 -170 -155 -245c-39 -37 -65 -66 -82 -92h84c68 0 71 1 87 69h83z" />
    <glyph glyph-name="dotlessi" unicode="&#x131;" horiz-adv-x="436" 
d="M298 452v-385h65v-67c-43 3 -86 4 -129 4c-44 0 -89 -1 -133 -4v67h72v271c0 39 -7 39 -69 39v67z" />
    <glyph glyph-name="dotlessj" unicode="&#xf6be;" horiz-adv-x="476" 
d="M150 444l204 8v-487c0 -118 -118 -167 -223 -167c-98 0 -171 35 -171 106c0 43 31 75 75 75c43 0 75 -31 75 -75c0 -15 -3 -27 -11 -41c0 -1 -1 -2 -1 -3c0 -4 33 -6 38 -6c46 0 93 36 93 114v369c0 21 0 33 -22 37c-15 3 -39 3 -57 3v67z" />
    <glyph glyph-name="grave" unicode="`" 
d="M277 685l164 -103l-35 -76l-184 60c-16 5 -53 17 -53 62c0 36 28 72 66 72c18 0 35 -10 42 -15z" />
    <glyph glyph-name="acute" unicode="&#xb4;" 
d="M536 566l-184 -60l-35 76l166 105c10 6 20 13 40 13c38 0 66 -36 66 -72c0 -45 -37 -57 -53 -62z" />
    <glyph glyph-name="caron" unicode="&#x2c7;" 
d="M379 615l166 56l30 -78l-196 -81l-196 81l30 78z" />
    <glyph glyph-name="breve" unicode="&#x2d8;" 
d="M552 694h56c-4 -128 -130 -183 -229 -183s-225 55 -229 183h56c4 -97 140 -101 173 -101c32 0 169 4 173 101z" />
    <glyph glyph-name="macron" unicode="&#xaf;" 
d="M640 562h-522v71h522v-71z" />
    <glyph glyph-name="ring" unicode="&#x2da;" horiz-adv-x="1113" 
d="M718 628c0 -39 -42 -84 -161 -84c-118 0 -161 44 -161 84c0 33 35 83 161 83c124 0 161 -49 161 -83zM557 586c54 0 80 0 80 42c0 41 -27 41 -80 41c-54 0 -80 0 -80 -42c0 -41 27 -41 80 -41z" />
    <glyph glyph-name="cedilla" unicode="&#xb8;" horiz-adv-x="677" 
d="M313 -10h42c138 0 212 -27 212 -102c0 -53 -54 -76 -115 -88c-63 -13 -127 -15 -191 -15h-69v56h54c38 0 188 0 188 47c0 40 -54 46 -102 46h-19v56z" />
    <glyph glyph-name="germandbls" unicode="&#xdf;" horiz-adv-x="762" 
d="M547 414c33 -16 158 -76 158 -234c0 -111 -99 -188 -252 -188c-91 0 -131 54 -131 100c0 36 26 62 62 62c33 0 61 -24 61 -61c0 -23 -11 -37 -14 -41c4 -2 8 -4 20 -4c116 0 116 103 116 132c0 114 -47 202 -176 208c-15 1 -29 2 -29 28c0 27 14 27 33 28
c87 4 131 42 131 114c0 60 -39 88 -120 88c-125 0 -125 -67 -125 -96v-550c-27 4 -67 4 -74 4c-14 0 -84 -1 -123 -4v67h72v310h-72v67h72v108c0 98 100 150 251 150c195 0 257 -80 257 -144c0 -81 -70 -124 -117 -144z" />
    <glyph glyph-name="ae" unicode="&#xe6;" horiz-adv-x="1080" 
d="M986 197h-377c8 -64 39 -93 69 -111c48 -28 109 -32 140 -32c62 0 104 24 122 61c11 19 14 20 39 20h7c14 0 38 0 38 -25c0 -12 -20 -60 -79 -90c-56 -28 -129 -28 -148 -28c-66 0 -156 10 -232 62c-45 -58 -147 -62 -252 -62c-69 0 -242 0 -242 120c0 68 67 95 180 115
c51 9 132 17 196 17h27v43c0 79 -53 113 -142 113c-18 0 -48 0 -85 -8c9 -12 14 -28 14 -45c0 -43 -31 -75 -75 -75c-40 0 -75 28 -75 76c0 108 148 108 220 108c41 0 159 0 228 -62c65 47 141 62 218 62c59 0 123 -9 177 -53c61 -51 70 -137 70 -173c0 -33 -17 -33 -38 -33
zM608 248h315c-4 70 -27 152 -146 152c-142 0 -166 -91 -169 -152zM477 193c-5 0 -41 -1 -74 -4c-24 -1 -199 -16 -199 -76c0 -37 43 -65 121 -65c52 0 168 5 168 75c0 11 -2 20 -5 30c-7 18 -9 26 -11 40z" />
    <glyph glyph-name="oe" unicode="&#x153;" horiz-adv-x="1161" 
d="M1066 197h-377c8 -64 39 -93 69 -111c48 -28 109 -32 140 -32c62 0 104 24 122 61c11 19 14 20 39 20h7c14 0 38 0 38 -25c0 -12 -20 -60 -79 -90c-56 -28 -129 -28 -148 -28c-93 0 -187 19 -256 81c-33 -32 -106 -81 -249 -81c-232 0 -315 128 -315 233
c0 109 87 231 315 231c130 0 206 -40 247 -78c74 66 168 78 238 78c59 0 123 -9 177 -53c61 -51 70 -137 70 -173c0 -33 -17 -33 -38 -33zM688 248h315c-4 70 -27 152 -146 152c-142 0 -166 -91 -169 -152zM372 48c176 0 182 123 182 181c0 54 -4 171 -182 171
c-176 0 -182 -115 -182 -170c0 -56 4 -182 182 -182z" />
    <glyph glyph-name="oslash" unicode="&#xf8;" 
d="M515 438l98 122l43 -36l-85 -107c118 -62 130 -158 130 -200c0 -106 -87 -225 -322 -225c-29 0 -83 2 -136 16l-98 -123l-43 36l86 108c-110 50 -131 139 -131 188c0 110 85 239 322 239c16 0 79 0 136 -18zM233 85l241 302c-37 13 -77 13 -95 13
c-176 0 -189 -93 -189 -181c0 -39 1 -98 43 -134zM524 359l-239 -300c37 -11 73 -11 94 -11c173 0 189 79 189 171c0 47 -4 106 -44 140z" />
    <glyph glyph-name="AE" unicode="&#xc6;" horiz-adv-x="1338" 
d="M1282 229l-58 -229h-685v67h79v230h-235l-106 -230h83v-67c-29 1 -92 4 -151 4c-46 0 -92 -1 -138 -4v67h102l256 552h-47v67h820l39 -206h-83c-25 128 -110 139 -212 139h-179v-255h95c69 0 121 6 124 83h83v-233h-83c-3 77 -55 83 -124 83h-95v-230h192
c117 0 205 18 240 162h83zM533 619l-118 -255h203v255h-85z" />
    <glyph glyph-name="OE" unicode="&#x152;" horiz-adv-x="1500" 
d="M1443 229l-58 -229h-561c-19 0 -54 -2 -98 -7c-83 -9 -103 -10 -133 -10c-325 0 -478 170 -478 355c0 186 149 365 479 365c19 0 44 0 116 -8c47 -5 86 -9 114 -9h539l39 -206h-83c-25 132 -123 139 -222 139h-197v-230h128c66 0 137 2 140 83h83v-233h-83
c-3 81 -75 83 -140 83h-128v-255h211c135 0 212 24 249 162h83zM605 39c126 0 151 31 153 167c1 46 1 92 1 138c0 61 0 63 -1 128c-2 137 -17 175 -154 175c-234 0 -325 -145 -325 -292c0 -148 84 -316 326 -316z" />
    <glyph glyph-name="Oslash" unicode="&#xd8;" horiz-adv-x="1161" 
d="M952 714l-70 -79c135 -73 181 -198 181 -297c0 -169 -132 -355 -483 -355c-73 0 -161 8 -244 39l-81 -92l-46 42l68 77c-150 83 -179 211 -179 289c0 174 134 365 483 365c119 0 194 -22 243 -40l82 93zM333 112l441 496c-64 33 -138 39 -194 39
c-122 0 -202 -31 -251 -80c-48 -47 -75 -111 -75 -229c0 -45 3 -163 79 -226zM826 573l-440 -496c66 -35 147 -38 195 -38c116 0 205 28 258 82c56 58 68 139 68 217c0 152 -49 206 -81 235z" />
    <glyph glyph-name="suppress" horiz-adv-x="436" 
d="M420 333l-358 -66l-12 66l358 66z" />
    <glyph glyph-name="exclam" unicode="!" horiz-adv-x="474" 
d="M322 603l-41 -332c-4 -30 -10 -32 -36 -32h-14c-26 0 -32 2 -36 32l-41 332c-2 15 -2 17 -2 28c0 49 43 80 86 80s86 -31 86 -80c0 -11 0 -13 -2 -28zM324 86c0 -47 -39 -86 -86 -86s-86 39 -86 86s39 86 86 86s86 -39 86 -86z" />
    <glyph glyph-name="quotedblright" unicode="&#x201d;" horiz-adv-x="769" 
d="M199 535c-1 0 -20 -13 -48 -13c-53 0 -86 40 -86 86s33 86 86 86c61 0 106 -57 106 -134c0 -147 -121 -232 -142 -232c-14 0 -30 18 -30 30s7 17 13 21c22 15 88 58 101 156zM492 535c-1 0 -20 -13 -48 -13c-53 0 -86 40 -86 86s33 86 86 86c61 0 106 -57 106 -134
c0 -147 -121 -232 -142 -232c-14 0 -30 18 -30 30s7 17 13 21c22 15 88 58 101 156z" />
    <glyph glyph-name="numbersign" unicode="#" horiz-adv-x="1241" 
d="M862 341l-71 -182h301c10 0 52 0 52 -43s-45 -43 -58 -43h-330l-93 -234c-4 -10 -13 -33 -42 -33c-24 0 -43 19 -43 43l85 224h-226l-93 -234c-4 -10 -13 -33 -42 -33c-24 0 -43 19 -43 43l85 224h-188c-13 0 -58 0 -58 43s41 43 52 43h230l71 182h-301
c-10 0 -52 0 -52 43s45 43 58 43h330l93 234c4 10 13 33 42 33c24 0 43 -19 43 -43c0 -8 -2 -14 -6 -23l-80 -201h227l93 234c4 10 13 33 42 33c24 0 43 -19 43 -43c0 -8 -2 -14 -6 -23l-80 -201h189c13 0 58 0 58 -43s-41 -43 -52 -43h-230zM543 341l-71 -182h227l71 182
h-227z" />
    <glyph glyph-name="dollar" unicode="$" 
d="M413 634v-200c224 -36 247 -172 247 -221c0 -89 -60 -206 -247 -220v-49h-67v49c-38 2 -248 14 -248 197c0 55 39 78 75 78c43 0 75 -32 75 -75c0 -28 -14 -57 -47 -70c25 -38 81 -58 145 -63v227c-67 11 -120 24 -177 68c-26 20 -71 67 -71 140c0 71 46 192 248 206v49
h67v-49c79 -3 247 -27 247 -183c0 -58 -42 -78 -75 -78c-41 0 -75 29 -75 75c0 30 16 56 44 68c-27 30 -71 46 -141 51zM346 446v188c-104 -7 -150 -52 -150 -94c0 -72 117 -89 150 -94zM413 276v-216c118 11 149 69 149 108c0 54 -55 94 -149 108z" />
    <glyph glyph-name="percent" unicode="%" horiz-adv-x="1241" 
d="M1002 667l-701 -701c-13 -13 -22 -22 -40 -22c-24 0 -43 19 -43 43c0 16 8 26 17 35l576 576c-48 -11 -86 -11 -106 -11c-87 0 -150 18 -217 41c1 -2 12 -37 12 -79c0 -121 -75 -202 -192 -202c-123 0 -210 79 -210 202c0 117 82 201 210 201c54 0 83 -16 108 -29
c101 -54 201 -79 287 -79c132 0 203 54 244 91c10 10 18 17 34 17c24 0 43 -20 43 -43c0 -18 -9 -27 -22 -40zM310 403c51 0 107 38 107 146c0 103 -53 145 -107 145c-87 0 -87 -88 -87 -146c0 -56 0 -145 87 -145zM1144 145c0 -116 -72 -201 -192 -201
c-123 0 -210 79 -210 202c0 117 82 201 210 201c116 0 192 -80 192 -202zM954 0c51 0 107 38 107 146c0 103 -53 145 -107 145c-87 0 -87 -88 -87 -146c0 -56 0 -145 87 -145z" />
    <glyph glyph-name="ampersand" unicode="&#x26;" horiz-adv-x="1161" 
d="M980 111h83c-3 -93 -104 -128 -208 -128c-69 0 -176 10 -278 54c-118 -53 -205 -54 -238 -54c-147 0 -262 54 -262 161c0 69 56 104 100 131c34 21 80 49 103 62c-25 54 -42 114 -42 179c0 128 119 195 222 195c95 0 163 -70 163 -148c0 -74 -105 -142 -203 -206
c66 -108 175 -192 207 -215c97 68 150 128 244 235h-63v67c34 -1 93 -4 144 -4c42 0 76 0 120 4v-67h-101c-105 -120 -177 -203 -283 -276c65 -37 121 -51 175 -51c41 0 114 5 117 61zM394 408c70 44 146 100 146 155c0 41 -27 92 -80 92c-36 0 -100 -25 -100 -99
c0 -17 2 -79 34 -148zM306 287c-23 -13 -79 -44 -79 -115c0 -60 48 -122 132 -122c3 0 78 0 143 28c-64 39 -146 127 -196 209z" />
    <glyph glyph-name="quoteright" unicode="&#x2019;" horiz-adv-x="436" 
d="M266 535c-1 0 -20 -13 -48 -13c-53 0 -86 40 -86 86s33 86 86 86c61 0 106 -57 106 -134c0 -147 -121 -232 -142 -232c-14 0 -30 18 -30 30s7 17 13 21c22 15 88 58 101 156z" />
    <glyph glyph-name="parenleft" unicode="(" horiz-adv-x="597" 
d="M499 -228c0 -22 -23 -22 -28 -22c-35 0 -122 75 -142 94c-133 125 -180 278 -180 406c0 129 45 279 186 413c18 16 104 87 136 87c5 0 28 0 28 -22c0 -7 -4 -14 -9 -18c-65 -48 -118 -104 -157 -183c-63 -126 -63 -240 -63 -277c0 -163 55 -340 217 -458
c4 -3 12 -9 12 -20z" />
    <glyph glyph-name="parenright" unicode=")" horiz-adv-x="597" 
d="M448 250c0 -129 -45 -279 -186 -413c-18 -16 -104 -87 -136 -87c-21 0 -28 11 -28 22c0 2 0 11 10 19c38 29 106 80 156 182c63 126 63 240 63 277c0 159 -52 336 -218 458c-2 2 -11 9 -11 20c0 12 8 22 28 22c35 0 122 -75 142 -94c133 -125 180 -278 180 -406z" />
    <glyph glyph-name="asterisk" unicode="*" 
d="M409 485l21 -115c1 -8 3 -15 3 -18c0 -26 -26 -46 -54 -46s-54 20 -54 46c0 3 1 10 2 13l22 120l-139 -83c-15 -8 -33 -19 -45 -19c-26 0 -52 24 -52 57c0 38 30 46 41 49l143 39l-143 39c-11 3 -41 11 -41 49c0 33 26 57 52 57c11 0 14 -2 28 -10l156 -92l-21 115
c-1 8 -3 15 -3 18c0 26 26 46 54 46s54 -20 54 -46c0 -3 -1 -10 -2 -13l-22 -120l139 83c15 8 33 19 45 19c26 0 52 -24 52 -57c0 -38 -30 -46 -41 -49l-143 -39l143 -39c11 -3 41 -11 41 -49c0 -33 -26 -57 -52 -57c-11 0 -14 2 -28 10z" />
    <glyph glyph-name="plus" unicode="+" horiz-adv-x="1161" 
d="M624 207v-386c0 -10 0 -54 -43 -54s-43 44 -43 54v386h-386c-10 0 -54 0 -54 43s44 43 54 43h386v386c0 10 0 54 43 54s43 -44 43 -54v-386h385c10 0 54 0 54 -43s-44 -43 -54 -43h-385z" />
    <glyph glyph-name="comma" unicode="," horiz-adv-x="436" 
d="M262 11c-4 -3 -21 -11 -44 -11c-53 0 -86 40 -86 86c0 49 36 86 85 86c63 0 103 -60 103 -134c0 -145 -117 -232 -138 -232c-14 0 -30 18 -30 30s5 16 18 25c38 26 81 74 92 150z" />
    <glyph glyph-name="hyphen" unicode="-" horiz-adv-x="516" 
d="M419 282v-120h-386v120h386z" />
    <glyph glyph-name="period" unicode="." horiz-adv-x="436" 
d="M304 86c0 -47 -39 -86 -86 -86s-86 39 -86 86s39 86 86 86s86 -39 86 -86z" />
    <glyph glyph-name="slash" unicode="/" 
d="M652 681l-470 -903c-8 -16 -21 -28 -41 -28c-24 0 -43 20 -43 43c0 10 3 17 8 26l470 903c8 16 21 28 41 28c24 0 43 -20 43 -43c0 -10 -3 -17 -8 -26z" />
    <glyph glyph-name="zero" unicode="0" 
d="M685 317c0 -174 -48 -334 -306 -334c-254 0 -306 156 -306 334c0 172 44 344 306 344c265 0 306 -176 306 -344zM379 39c37 0 117 9 141 89c15 49 15 143 15 204c0 66 0 149 -16 195c-20 58 -81 78 -140 78c-70 0 -122 -28 -139 -73c-17 -48 -17 -127 -17 -200
c0 -72 1 -153 14 -202c22 -81 103 -91 142 -91z" />
    <glyph glyph-name="one" unicode="1" 
d="M459 623v-556h181v-67c-49 4 -191 4 -248 4s-199 0 -248 -4v67h181v488c-73 -25 -150 -25 -162 -25h-27v67h27c23 0 152 0 237 64h21c32 0 38 -7 38 -38z" />
    <glyph glyph-name="two" unicode="2" 
d="M669 211l-39 -211h-541v31c0 22 0 26 17 38l279 203c64 46 125 105 125 183c0 92 -88 139 -186 139c-23 0 -60 -2 -96 -20c5 -5 26 -26 26 -62c0 -55 -43 -83 -83 -83c-33 0 -82 24 -82 84c0 147 221 148 268 148c198 0 312 -81 312 -205c0 -104 -83 -150 -195 -212
c-43 -23 -104 -61 -168 -102h149c34 0 77 0 101 3c9 2 23 27 30 66h83z" />
    <glyph glyph-name="three" unicode="3" 
d="M363 320h-69c-19 0 -35 0 -35 28c0 7 0 24 18 28c7 1 52 3 63 3c120 5 145 94 145 136c0 48 -21 90 -119 90c-33 0 -85 -6 -126 -35c2 -1 40 -22 40 -71c0 -51 -40 -81 -81 -81c-37 0 -81 26 -81 82c0 93 93 161 253 161c179 0 269 -66 269 -148
c0 -92 -79 -142 -138 -162c97 -23 179 -81 179 -170c0 -78 -67 -198 -314 -198c-191 0 -290 67 -290 166c0 54 37 88 87 88s86 -37 86 -86c0 -32 -15 -57 -36 -72c51 -33 129 -35 150 -35c136 0 145 88 145 138c0 55 -12 138 -146 138z" />
    <glyph glyph-name="four" unicode="4" 
d="M701 155h-131v-88h131v-67c-53 4 -148 4 -204 4c-54 0 -161 0 -210 -4v67h141v88h-371v67l362 430c12 15 16 17 42 17h71c32 0 38 -7 38 -38v-409h131v-67zM445 580l-301 -358h301v358z" />
    <glyph glyph-name="five" unicode="5" 
d="M233 491v-110c46 24 96 34 156 34c201 0 280 -113 280 -214c0 -110 -99 -218 -321 -218c-159 0 -259 72 -259 170c0 56 43 81 79 81c40 0 79 -30 79 -79c0 -14 -3 -48 -40 -69c48 -41 122 -42 139 -42c167 0 167 103 167 163c0 59 0 152 -129 152
c-110 0 -152 -41 -167 -56c-18 -17 -19 -18 -40 -18c-33 0 -38 7 -38 39v301c0 14 0 36 22 36c3 0 5 0 15 -4c66 -18 132 -28 200 -28c93 0 164 19 203 29c7 3 9 3 11 3c22 0 22 -23 22 -28c0 -15 -2 -17 -15 -30c-42 -43 -132 -116 -284 -116c-2 0 -42 0 -80 4z" />
    <glyph glyph-name="six" unicode="6" 
d="M234 345c41 53 104 81 171 81c165 0 276 -87 276 -220c0 -91 -45 -138 -98 -173c-70 -46 -139 -50 -199 -50c-210 0 -307 125 -307 336c0 214 159 342 380 342c159 0 187 -86 187 -137c0 -54 -41 -77 -75 -77c-40 0 -75 29 -75 75c0 40 27 60 35 65c-26 18 -61 18 -72 18
c-78 0 -137 -31 -166 -62c-50 -55 -53 -108 -57 -198zM384 44c140 0 140 80 140 163s0 163 -132 163c-99 0 -155 -75 -155 -149c0 -81 14 -177 147 -177z" />
    <glyph glyph-name="seven" unicode="7" 
d="M254 646l218 -2h249c0 -16 0 -45 -1 -49c-2 -5 -4 -9 -8 -13l-102 -93l-62 -55c-66 -62 -132 -123 -134 -366c0 -18 0 -44 -22 -65c-6 -5 -23 -20 -53 -20c-11 0 -75 4 -75 82c0 54 11 174 111 306c32 42 59 66 130 131h-182c-34 0 -78 0 -103 -3c-10 -1 -11 -2 -17 -8
c-12 -17 -18 -38 -22 -58h-83l43 234h83c1 -9 4 -21 30 -21z" />
    <glyph glyph-name="eight" unicode="8" 
d="M527 367c101 -40 154 -104 154 -181c0 -203 -256 -203 -305 -203c-102 0 -299 11 -299 179c0 95 68 143 144 171c-35 18 -103 65 -103 147c0 151 155 181 265 181c82 0 257 -8 257 -154c0 -46 -22 -100 -113 -140zM452 401c57 22 88 57 88 105c0 90 -105 99 -167 99
c-119 0 -155 -25 -155 -70c0 -30 24 -41 93 -71zM503 208l-200 88c-70 -28 -110 -71 -110 -133c0 -103 112 -119 190 -119c136 0 182 35 182 92c0 45 -58 70 -62 72z" />
    <glyph glyph-name="nine" unicode="9" 
d="M524 300c-34 -43 -87 -81 -171 -81c-167 0 -276 89 -276 220c0 65 22 125 103 174c65 40 124 48 201 48c211 0 300 -131 300 -333c0 -221 -155 -345 -362 -345c-34 0 -205 0 -205 137c0 54 41 77 75 77c40 0 75 -29 75 -75c0 -41 -29 -61 -30 -62c31 -16 74 -16 84 -16
c35 0 114 6 164 71c40 53 41 127 42 185zM366 275c82 0 155 56 155 157c0 77 -14 173 -140 173c-147 0 -147 -88 -147 -166c0 -83 0 -164 132 -164z" />
    <glyph glyph-name="colon" unicode=":" horiz-adv-x="436" 
d="M304 358c0 -47 -39 -86 -86 -86s-86 39 -86 86s39 86 86 86s86 -39 86 -86zM304 86c0 -47 -39 -86 -86 -86s-86 39 -86 86s39 86 86 86s86 -39 86 -86z" />
    <glyph glyph-name="semicolon" unicode=";" horiz-adv-x="436" 
d="M304 358c0 -47 -39 -86 -86 -86s-86 39 -86 86s39 86 86 86s86 -39 86 -86zM249 5c-11 -4 -13 -5 -31 -5c-53 0 -86 40 -86 86c0 49 36 86 85 86c60 0 91 -60 91 -133c0 -142 -106 -233 -126 -233c-14 0 -30 18 -30 30c0 11 5 16 13 22c42 34 76 87 84 147z" />
    <glyph glyph-name="exclamdown" unicode="&#xa1;" horiz-adv-x="474" 
d="M324 414c0 -47 -39 -86 -86 -86s-86 39 -86 86s39 86 86 86s86 -39 86 -86zM154 -103l41 332c4 30 10 32 36 32h14c26 0 32 -2 36 -32l41 -332c2 -15 2 -17 2 -28c0 -49 -43 -80 -86 -80s-86 31 -86 80c0 11 0 13 2 28z" />
    <glyph glyph-name="equal" unicode="=" horiz-adv-x="1161" 
d="M1011 341h-861c-10 0 -52 0 -52 43s45 43 58 43h849c13 0 58 0 58 -43s-41 -43 -52 -43zM1005 73h-849c-13 0 -58 0 -58 43s41 43 52 43h861c10 0 52 0 52 -43s-45 -43 -58 -43z" />
    <glyph glyph-name="questiondown" unicode="&#xbf;" horiz-adv-x="718" 
d="M425 414c0 -47 -39 -86 -86 -86s-86 39 -86 86s39 86 86 86s86 -39 86 -86zM298 218v10c0 29 5 33 34 33h14c33 0 35 -7 35 -43c0 -111 -41 -165 -109 -230c-13 -12 -24 -23 -24 -65c0 -51 5 -69 98 -69c34 0 104 1 148 19c-1 1 -24 20 -24 56c0 46 34 75 75 75
c38 0 75 -26 75 -76c0 -130 -178 -130 -273 -130c-49 0 -109 0 -163 22c-69 27 -86 74 -86 109c0 38 18 76 69 103c131 69 131 142 131 186z" />
    <glyph glyph-name="question" unicode="?" horiz-adv-x="718" 
d="M381 299v-22c0 -35 -8 -38 -35 -38h-14c-29 0 -34 5 -34 33v32c0 92 66 160 136 207c17 12 36 25 36 62c0 47 -13 73 -125 73c-23 0 -76 0 -121 -19c1 -1 24 -20 24 -56c0 -46 -34 -75 -75 -75c-38 0 -75 26 -75 76c0 130 192 130 249 130c48 0 110 -1 168 -20
c50 -15 105 -49 105 -111c0 -39 -24 -78 -79 -103c-117 -51 -160 -102 -160 -169zM425 86c0 -47 -39 -86 -86 -86s-86 39 -86 86s39 86 86 86s86 -39 86 -86z" />
    <glyph glyph-name="at" unicode="@" horiz-adv-x="1161" 
d="M870 451v-223c0 -13 0 -49 31 -49c69 0 79 115 79 165c0 160 -124 302 -400 302c-283 0 -399 -150 -399 -299c0 -128 91 -299 404 -299c186 0 332 41 382 56c11 3 13 3 28 3h33c14 0 35 0 35 -22c0 -7 -4 -14 -10 -18c-5 -3 -30 -11 -46 -15c-163 -47 -312 -60 -422 -60
c-109 0 -229 14 -338 85c-91 59 -149 160 -149 270c0 163 128 355 483 355c349 0 482 -188 482 -355c0 -97 -49 -224 -175 -224c-31 0 -100 4 -136 46c-27 -19 -82 -46 -173 -46c-199 0 -288 111 -288 224c0 114 90 224 288 224c136 0 191 -58 216 -84h38c35 0 37 -8 37 -36
zM737 253v188c-24 39 -76 74 -155 74c-101 0 -158 -69 -158 -168s57 -168 158 -168c78 0 130 34 155 74z" />
    <glyph glyph-name="A" unicode="A" horiz-adv-x="1113" 
d="M650 676l290 -609h102v-67c-56 2 -107 4 -167 4c-42 0 -129 -2 -181 -4v67h83l-70 146h-360l-69 -146h83v-67c-33 1 -98 4 -152 4c-46 0 -91 -1 -137 -4v67h102l290 611c16 33 32 33 55 33h76c38 0 43 -10 55 -35zM527 592l-148 -312h297z" />
    <glyph glyph-name="B" unicode="B" horiz-adv-x="1056" 
d="M100 686h511c188 0 308 -77 308 -175c0 -74 -77 -130 -198 -152c151 -17 238 -86 238 -170c0 -103 -113 -189 -310 -189h-549v67h106v552h-106v67zM345 385h223c119 0 196 55 196 125c0 51 -46 109 -165 109h-254v-234zM345 67h257c113 0 193 47 193 124
c0 53 -35 138 -183 138h-267v-262z" />
    <glyph glyph-name="C" unicode="C" horiz-adv-x="1080" 
d="M983 668v-217c0 -30 -5 -35 -35 -35h-24c-15 0 -31 0 -34 18c-8 34 -21 98 -94 150c-68 47 -133 52 -175 52c-119 0 -196 -28 -251 -65c-79 -55 -100 -146 -100 -228c0 -206 136 -293 355 -293c146 0 268 67 275 176c2 30 9 32 35 32h13c19 0 35 0 35 -28
c0 -137 -147 -247 -388 -247c-352 0 -497 185 -497 360c0 180 152 360 495 360c34 0 150 0 263 -70l69 59c12 10 14 11 28 11c30 0 30 -14 30 -35z" />
    <glyph glyph-name="D" unicode="D" horiz-adv-x="1137" 
d="M96 686h512c255 0 431 -140 431 -349c0 -198 -171 -337 -431 -337h-512v67h106v552h-106v67zM350 67h218c300 0 307 179 307 271c0 131 -37 186 -88 224c-59 43 -145 57 -220 57h-217v-552z" />
    <glyph glyph-name="E" unicode="E" horiz-adv-x="977" 
d="M921 229l-58 -229h-771v67h106v544h-106v67h749l39 -206h-83c-27 129 -123 139 -234 139h-209v-226h89c64 0 120 4 122 83h83v-233h-83c-2 79 -58 83 -122 83h-89v-251h223c121 0 224 14 261 162h83z" />
    <glyph glyph-name="F" unicode="F" horiz-adv-x="937" 
d="M821 678l39 -206h-83c-25 129 -121 139 -226 139h-197v-238h83c67 0 117 6 119 83h83v-233h-83c-2 77 -52 83 -119 83h-83v-239h132v-67c-50 4 -152 4 -206 4c-32 0 -125 -1 -188 -4v67h106v544h-106v67h729z" />
    <glyph glyph-name="G" unicode="G" horiz-adv-x="1169" 
d="M983 203v-168c0 -14 0 -35 -22 -35c-8 0 -57 20 -78 31c-56 -45 -165 -48 -266 -48c-78 0 -257 0 -394 107c-70 55 -125 146 -125 253c0 180 152 360 495 360c34 0 150 0 263 -70l69 59c12 10 14 11 28 11c30 0 30 -14 30 -35v-217c0 -30 -5 -35 -35 -35h-24
c-15 0 -31 0 -34 18c-8 34 -21 98 -94 150c-68 47 -133 52 -175 52c-119 0 -196 -28 -251 -65c-82 -57 -100 -153 -100 -227c0 -227 161 -294 380 -294c177 0 177 33 177 72v81h-181v67c51 -4 188 -4 246 -4c83 0 137 2 192 4v-67h-101z" />
    <glyph glyph-name="H" unicode="H" horiz-adv-x="1152" 
d="M955 619v-552h106v-67c-66 3 -163 4 -184 4c-35 0 -125 -1 -184 -4v67h106v256h-445v-256h106v-67c-66 3 -163 4 -184 4c-35 0 -125 -1 -184 -4v67h106v552h-106v67c66 -3 163 -4 184 -4c35 0 125 1 184 4v-67h-106v-229h445v229h-106v67c66 -3 163 -4 184 -4
c35 0 125 1 184 4v-67h-106z" />
    <glyph glyph-name="I" unicode="I" horiz-adv-x="549" 
d="M353 619v-552h111v-67c-61 4 -128 4 -189 4s-128 0 -189 -4v67h111v552h-111v67c61 -4 128 -4 189 -4s128 0 189 4v-67h-111z" />
    <glyph glyph-name="J" unicode="J" horiz-adv-x="774" 
d="M580 619v-469c0 -98 -92 -167 -272 -167c-51 0 -242 0 -242 130c0 61 47 88 87 88c39 0 86 -28 86 -87c0 -36 -21 -59 -23 -61c40 -14 83 -14 91 -14c89 0 125 45 125 113v467h-137v67c50 -4 147 -4 201 -4c70 0 116 2 163 4v-67h-79z" />
    <glyph glyph-name="K" unicode="K" horiz-adv-x="1154" 
d="M629 409l352 -342h95v-67c-52 3 -100 4 -153 4c-59 0 -123 -1 -182 -4v67h52l-277 269l-162 -106v-163h106v-67c-66 3 -163 4 -184 4c-35 0 -125 -1 -184 -4v67h106v552h-106v67c66 -3 163 -4 184 -4c35 0 125 1 184 4v-67h-106v-290l444 290h-42v67c24 -1 102 -4 171 -4
c43 0 86 0 129 4v-67h-107z" />
    <glyph glyph-name="L" unicode="L" horiz-adv-x="897" 
d="M820 229l-39 -229h-689v67h106v552h-106v67c64 -3 155 -4 188 -4c54 0 156 0 206 4v-67h-132v-552h152c88 0 203 17 231 162h83z" />
    <glyph glyph-name="M" unicode="M" horiz-adv-x="1394" 
d="M1290 619h-106v-552h106v-67c-50 2 -112 4 -172 4c-59 0 -125 -2 -171 -4v67h106v549h-1l-325 -587c-16 -29 -38 -29 -54 -29s-38 0 -54 29l-317 573h-1v-535h106v-67c-41 2 -93 4 -152 4c-58 0 -112 -2 -151 -4v67h106v552h-106v67h235c18 0 40 0 56 -29l302 -546
l302 546c16 29 38 29 56 29h235v-67z" />
    <glyph glyph-name="N" unicode="N" horiz-adv-x="1152" 
d="M364 674l500 -478v423h-106v67c41 -2 93 -4 152 -4c58 0 112 2 151 4v-67h-106v-581c0 -32 -7 -38 -38 -38h-15c-22 0 -23 0 -38 14l-575 549v-496h106v-67c-41 2 -93 4 -152 4c-58 0 -112 -2 -151 -4v67h106v552h-106v67h235c18 0 24 0 37 -12z" />
    <glyph glyph-name="O" unicode="O" horiz-adv-x="1122" 
d="M1024 338c0 -175 -135 -355 -463 -355c-327 0 -463 179 -463 355c0 180 135 365 463 365c327 0 463 -184 463 -365zM561 47c206 0 291 124 291 308c0 68 -12 159 -78 217c-65 57 -148 69 -213 69s-153 -13 -215 -70c-65 -62 -76 -150 -76 -216c0 -168 71 -308 291 -308z
" />
    <glyph glyph-name="P" unicode="P" horiz-adv-x="1016" 
d="M358 282v-215h106v-67c-66 3 -163 4 -184 4c-35 0 -125 -1 -184 -4v67h106v552h-106v67h494c199 0 329 -87 329 -205c0 -125 -150 -199 -317 -199h-244zM562 619h-212v-276h211c173 0 186 70 186 138c0 70 -13 138 -185 138z" />
    <glyph glyph-name="Q" unicode="Q" horiz-adv-x="1122" 
d="M781 17c42 -39 70 -39 106 -39c91 0 93 13 95 25c4 18 18 22 25 22c25 0 25 -26 25 -31c0 -85 -65 -188 -173 -188c-101 0 -137 84 -180 185c-59 -8 -108 -8 -118 -8c-327 0 -463 179 -463 355c0 180 135 365 463 365c327 0 463 -184 463 -365c0 -140 -84 -266 -243 -321
zM433 64c-1 4 -1 7 -1 12c0 60 63 89 127 89c72 0 114 -41 162 -88c117 54 139 170 139 261c0 64 -11 159 -72 221c-64 64 -146 82 -227 82c-97 0 -174 -27 -232 -87c-46 -49 -67 -128 -67 -216c0 -120 39 -229 171 -274zM647 53c-28 48 -61 56 -88 56c-20 0 -71 -6 -71 -33
c0 -31 50 -31 73 -31c18 0 46 0 86 8z" />
    <glyph glyph-name="R" unicode="R" horiz-adv-x="1102" 
d="M734 340c85 -38 97 -100 102 -129c4 -19 13 -68 16 -82c10 -51 37 -90 88 -90c20 0 54 11 59 65c2 26 22 26 41 26c20 0 42 0 42 -29c0 -20 -15 -118 -154 -118c-69 0 -132 8 -170 25c-79 37 -79 89 -79 166c0 59 0 83 -38 109c-40 27 -89 32 -124 32h-167v-248h106v-67
c-44 2 -106 4 -180 4c-75 0 -142 -2 -180 -4v67h106v552h-106v67h442c218 0 367 -81 367 -190c0 -63 -52 -123 -171 -156zM531 371c159 0 202 47 202 124c0 81 -45 124 -202 124h-181v-248h181z" />
    <glyph glyph-name="S" unicode="S" horiz-adv-x="838" 
d="M344 437l143 -24c71 -12 137 -23 206 -93c10 -11 48 -55 48 -123c0 -67 -42 -214 -288 -214c-88 0 -188 11 -256 49c-20 -20 -22 -20 -30 -28c-23 -21 -25 -21 -39 -21c-30 0 -30 14 -30 35v174c0 31 5 36 36 36h12c13 0 33 0 35 -19c3 -57 10 -159 273 -159
c182 0 187 98 187 114c0 66 -76 100 -131 110c-24 4 -134 22 -167 28c-49 8 -128 22 -186 75c-40 37 -59 80 -59 125c0 88 69 201 282 201c70 0 151 -10 219 -53l44 42c11 11 17 11 28 11c30 0 30 -14 30 -35v-175c0 -30 -5 -35 -35 -35h-13c-29 0 -32 5 -36 27
c-22 110 -107 157 -238 157c-132 0 -181 -55 -181 -103c0 -76 110 -95 146 -102z" />
    <glyph glyph-name="T" unicode="T" horiz-adv-x="1041" 
d="M946 669l27 -206h-83c-15 112 -61 139 -171 139h-120v-535h149v-67c-48 4 -173 4 -227 4s-179 0 -227 -4v67h149v535h-120c-110 0 -156 -27 -171 -139h-83l27 206h850z" />
    <glyph glyph-name="U" unicode="U" horiz-adv-x="1133" 
d="M935 619v-388c0 -115 -91 -248 -355 -248c-266 0 -382 121 -382 249v387h-106v67c66 -3 163 -4 184 -4c35 0 125 1 184 4v-67h-106v-388c0 -100 44 -181 229 -181c136 0 258 43 258 184v385h-106v67c33 -2 88 -4 153 -4s123 3 153 4v-67h-106z" />
    <glyph glyph-name="V" unicode="V" horiz-adv-x="1113" 
d="M963 619l-313 -606c-16 -30 -33 -30 -54 -30h-78c-24 0 -39 1 -56 33l-311 603h-98v67c56 -2 107 -4 164 -4c60 0 121 1 181 4v-67h-81l270 -523l270 523h-80v67c29 -1 92 -4 151 -4c43 0 90 1 133 4v-67h-98z" />
    <glyph glyph-name="W" unicode="W" horiz-adv-x="1516" 
d="M1377 619l-257 -603c-9 -21 -14 -33 -52 -33h-63c-19 0 -39 0 -52 30l-195 458l-194 -458c-13 -30 -33 -30 -52 -30h-63c-21 0 -39 0 -53 33l-256 603h-90v67c42 -2 93 -4 157 -4c39 0 127 2 179 4v-67h-86l216 -506l197 464l-18 42h-89v67c42 -2 93 -4 157 -4
c63 0 131 2 178 4v-67h-85l216 -506l215 506h-96v67c36 -1 107 -4 152 -4c39 0 85 0 124 4v-67h-90z" />
    <glyph glyph-name="X" unicode="X" horiz-adv-x="1113" 
d="M628 380l305 -313h110v-67c-62 2 -114 4 -171 4s-133 0 -189 -4v67h55l-207 213l-207 -213h66v-67c-44 2 -116 4 -168 4c-62 0 -109 -2 -151 -4v67h122l273 280l-264 272h-111v67c61 -2 110 -4 171 -4c57 0 133 0 189 4v-67h-55l167 -172l167 172h-67v67
c44 -2 108 -4 169 -4c58 0 110 2 150 4v-67h-121z" />
    <glyph glyph-name="Y" unicode="Y" horiz-adv-x="1113" 
d="M951 619l-320 -344v-208h105v-67c-43 2 -103 4 -179 4c-75 0 -142 -2 -180 -4v67h106v207l-320 345h-110v67c60 -2 112 -4 176 -4c57 0 137 0 193 4v-67h-58l230 -247l229 247h-57v67c37 -1 104 -4 156 -4c46 0 93 1 139 4v-67h-110z" />
    <glyph glyph-name="Z" unicode="Z" horiz-adv-x="919" 
d="M808 618l-498 -545h187c85 0 233 5 250 167h83l-23 -240h-671c-30 0 -38 5 -38 37c0 20 0 22 13 35l500 547h-173c-42 0 -223 0 -237 -139h-83l16 206h649c24 0 38 -1 38 -35c0 -18 0 -20 -13 -33z" />
    <glyph glyph-name="bracketleft" unicode="[" horiz-adv-x="438" 
d="M390 664h-130v-828h130v-86h-216v1000h216v-86z" />
    <glyph glyph-name="quotedblleft" unicode="&#x201c;" horiz-adv-x="769" 
d="M277 487c1 0 20 13 48 13c53 0 86 -40 86 -86s-33 -86 -86 -86c-61 0 -106 57 -106 134c0 147 121 232 142 232c14 0 30 -18 30 -30s-7 -17 -13 -21c-22 -15 -88 -58 -101 -156zM570 487c1 0 20 13 48 13c53 0 86 -40 86 -86s-33 -86 -86 -86c-61 0 -106 57 -106 134
c0 147 121 232 142 232c14 0 30 -18 30 -30s-7 -17 -13 -21c-22 -15 -88 -58 -101 -156z" />
    <glyph glyph-name="bracketright" unicode="]" horiz-adv-x="438" 
d="M265 750v-1000h-216v86h130v828h-130v86h216z" />
    <glyph glyph-name="circumflex" unicode="&#x2c6;" 
d="M379 694l201 -114l-40 -73l-161 84l-161 -84l-40 73z" />
    <glyph glyph-name="dotaccent" unicode="&#x2d9;" horiz-adv-x="436" 
d="M304 611c0 -45 -38 -83 -86 -83c-46 0 -86 36 -86 84c0 45 38 83 86 83c46 0 86 -36 86 -84z" />
    <glyph glyph-name="quoteleft" unicode="&#x2018;" horiz-adv-x="436" 
d="M170 487c1 0 20 13 48 13c53 0 86 -40 86 -86s-33 -86 -86 -86c-61 0 -106 57 -106 134c0 147 121 232 142 232c14 0 30 -18 30 -30s-7 -17 -13 -21c-22 -15 -88 -58 -101 -156z" />
    <glyph glyph-name="a" unicode="a" horiz-adv-x="738" 
d="M606 290v-213c21 -10 58 -10 71 -10h6c21 0 38 0 38 -33c0 -34 -7 -34 -71 -34c-75 0 -145 0 -153 60c-31 -45 -104 -68 -202 -68c-39 0 -232 0 -232 128c0 74 76 109 195 131c99 18 202 16 215 17v19c0 79 -52 113 -142 113c-17 0 -47 0 -84 -8c9 -12 14 -28 14 -45
c0 -43 -31 -75 -75 -75c-40 0 -75 28 -75 76c0 108 148 108 219 108c213 0 276 -86 276 -166zM473 133v87c-48 -2 -277 -10 -277 -99c0 -46 55 -73 126 -73c6 0 59 0 100 16c51 19 51 45 51 69z" />
    <glyph glyph-name="b" unicode="b" horiz-adv-x="838" 
d="M281 694v-285c31 16 98 43 195 43c213 0 298 -120 298 -229c0 -123 -105 -231 -314 -231c-51 0 -123 10 -193 60l-28 -52h-83v580c0 39 -8 39 -72 39v67zM289 311v-182c23 -32 72 -81 157 -81c178 0 178 122 178 176s0 172 -164 172c-42 0 -104 -10 -152 -49
c-19 -15 -19 -16 -19 -36z" />
    <glyph glyph-name="c" unicode="c" horiz-adv-x="677" 
d="M466 389c-10 2 -32 5 -76 5c-112 0 -175 -43 -175 -169c0 -63 20 -105 55 -131c39 -30 91 -40 141 -40c85 0 113 35 127 62c9 16 12 16 41 16c23 0 42 0 42 -22c0 -11 -24 -65 -90 -94c-57 -24 -124 -24 -151 -24c-236 0 -315 128 -315 230c0 76 48 234 323 234
c68 0 217 0 217 -108c0 -47 -34 -76 -75 -76c-43 0 -75 32 -75 75c0 15 3 30 11 42z" />
    <glyph glyph-name="d" unicode="d" horiz-adv-x="838" 
d="M486 686l197 8v-588c0 -39 8 -39 72 -39v-67l-205 -8v49c-46 -28 -109 -49 -186 -49c-212 0 -299 120 -299 229c0 119 99 231 313 231c79 0 140 -20 180 -41v169c0 39 -8 39 -72 39v67zM550 132v181c0 20 0 21 -21 38c-42 34 -92 45 -136 45c-178 0 -178 -122 -178 -176
c0 -53 0 -172 163 -172c57 0 122 20 172 84z" />
    <glyph glyph-name="e" unicode="e" horiz-adv-x="692" 
d="M597 197h-389c9 -94 75 -143 202 -143c106 0 134 48 144 67c9 14 17 14 36 14h7c14 0 38 0 38 -25c0 -14 -26 -67 -94 -94c-60 -24 -129 -24 -154 -24c-245 0 -330 128 -330 234c0 107 85 230 309 230c99 0 159 -23 205 -63c42 -38 64 -106 64 -164
c0 -32 -18 -32 -38 -32zM208 248h326c-5 67 -31 152 -167 152c-156 0 -158 -116 -159 -152z" />
    <glyph glyph-name="f" unicode="f" horiz-adv-x="476" 
d="M298 377v-310h90v-67c-35 2 -93 4 -149 4c-46 0 -92 -1 -138 -4v67h72v310h-100v67h100v91c0 114 117 167 252 167c95 0 138 -50 138 -99c0 -48 -37 -74 -74 -74c-32 0 -73 23 -73 74c0 13 3 25 9 37c1 1 1 2 1 3c0 2 0 3 -12 3c-17 0 -58 -3 -90 -28
c-34 -28 -34 -69 -34 -85v-89h159v-67h-151z" />
    <glyph glyph-name="g" unicode="g" 
d="M291 91h58c111 0 173 0 242 -23c99 -34 110 -107 110 -137c0 -105 -175 -134 -322 -134c-219 0 -322 58 -322 131c0 52 53 77 101 89c-21 23 -37 54 -37 95c0 35 13 63 29 83c-18 16 -55 47 -55 104c0 60 52 153 244 153c36 0 102 -2 159 -32c56 36 109 41 133 41
c59 0 90 -41 90 -78c0 -41 -34 -59 -58 -59c-30 0 -59 22 -59 59c0 8 0 10 4 21c-17 -2 -46 -8 -66 -15c7 -6 40 -40 40 -91c0 -60 -52 -153 -244 -153c-43 0 -100 5 -146 26c-3 -6 -4 -8 -4 -20c0 -17 9 -35 23 -46c20 -14 29 -14 80 -14zM339 201c111 0 118 54 118 98
c0 45 -9 97 -119 97c-111 0 -118 -54 -118 -98c0 -45 9 -97 119 -97zM339 -24h-57c-37 0 -120 0 -120 -47c0 -34 63 -76 217 -76s217 42 217 76c0 47 -144 47 -257 47z" />
    <glyph glyph-name="h" unicode="h" horiz-adv-x="838" 
d="M704 295v-228h72v-67c-44 3 -101 4 -138 4c-40 0 -98 -2 -139 -4v67h72v231c0 72 -20 98 -84 98c-62 0 -185 -32 -185 -154v-175h72v-67c-44 3 -101 4 -138 4c-40 0 -98 -2 -139 -4v67h72v513c0 39 -8 39 -72 39v67l197 8v-336c47 59 118 94 216 94c74 0 194 -9 194 -157
z" />
    <glyph glyph-name="i" unicode="i" horiz-adv-x="436" 
d="M307 609c0 -49 -40 -86 -86 -86c-48 0 -86 39 -86 86s39 86 86 86c46 0 86 -37 86 -86zM104 444l194 8v-385h65v-67c-43 3 -86 4 -129 4c-44 0 -89 -1 -133 -4v67h72v271c0 39 -7 39 -69 39v67z" />
    <glyph glyph-name="j" unicode="j" horiz-adv-x="476" 
d="M354 609c0 -47 -39 -86 -86 -86s-86 39 -86 86s39 86 86 86s86 -39 86 -86zM150 444l204 8v-487c0 -118 -118 -167 -223 -167c-98 0 -171 35 -171 106c0 43 31 75 75 75c43 0 75 -31 75 -75c0 -15 -3 -27 -11 -41c0 -1 -1 -2 -1 -3c0 -4 33 -6 38 -6c46 0 93 36 93 114
v369c0 21 0 33 -22 37c-15 3 -39 3 -57 3v67z" />
    <glyph glyph-name="k" unicode="k" horiz-adv-x="798" 
d="M465 265l215 -198h77v-67c-44 4 -73 4 -116 4c-23 0 -88 -1 -135 -4v67h15l-150 138l-99 -64v-74h72v-67c-43 3 -87 4 -130 4c-3 0 -79 -1 -130 -4v67h72v513c0 39 -8 39 -72 39v67l197 8v-449l204 132h-15v67c36 -1 104 -4 147 -4s70 1 108 4v-67h-87z" />
    <glyph glyph-name="l" unicode="l" horiz-adv-x="436" 
d="M298 694v-627h72v-67c-53 4 -131 4 -135 4c-45 0 -89 -1 -134 -4v67h72v513c0 39 -8 39 -72 39v67z" />
    <glyph glyph-name="m" unicode="m" horiz-adv-x="1241" 
d="M1108 295v-228h72v-67c-44 3 -101 4 -138 4c-40 0 -98 -2 -139 -4v67h72v230c0 75 -21 99 -85 99c-60 0 -185 -32 -185 -154v-175h72v-67c-44 3 -101 4 -138 4c-40 0 -98 -2 -139 -4v67h72v230c0 75 -21 99 -85 99c-60 0 -185 -32 -185 -154v-175h72v-67
c-44 3 -101 4 -138 4c-40 0 -98 -2 -139 -4v67h72v271c0 39 -8 39 -72 39v67l188 8v-107c23 35 87 107 226 107c99 0 158 -23 186 -95c66 82 153 95 217 95c76 0 194 -11 194 -157z" />
    <glyph glyph-name="n" unicode="n" horiz-adv-x="838" 
d="M704 295v-228h72v-67c-44 3 -101 4 -138 4c-40 0 -98 -2 -139 -4v67h72v231c0 72 -20 98 -84 98c-62 0 -185 -32 -185 -154v-175h72v-67c-44 3 -101 4 -138 4c-40 0 -98 -2 -139 -4v67h72v271c0 39 -8 39 -72 39v67l188 8v-107c25 39 90 107 225 107
c74 0 194 -9 194 -157z" />
    <glyph glyph-name="o" unicode="o" 
d="M701 217c0 -106 -87 -225 -322 -225c-234 0 -322 119 -322 225c0 110 85 239 322 239c234 0 322 -127 322 -239zM379 54c172 0 172 93 172 175c0 78 0 171 -172 171s-172 -92 -172 -171c0 -82 0 -175 172 -175z" />
    <glyph glyph-name="p" unicode="p" horiz-adv-x="838" 
d="M361 -127v-67c-55 3 -120 4 -139 4c-40 0 -98 -2 -138 -4v67h72v470c0 28 0 34 -55 34h-17v67l197 8v-44c80 41 164 44 203 44c209 0 290 -121 290 -229c0 -122 -105 -231 -314 -231c-85 0 -143 28 -171 45v-164h72zM289 327v-199c49 -65 109 -80 156 -80
c105 0 179 64 179 174c0 96 -56 168 -166 168c-40 0 -118 -10 -169 -63z" />
    <glyph glyph-name="q" unicode="q" horiz-adv-x="798" 
d="M683 452v-579h72v-67c-55 3 -120 4 -139 4c-40 0 -98 -2 -138 -4v67h72v166c-43 -23 -99 -47 -187 -47c-206 0 -298 116 -298 229c0 121 101 231 309 231c88 0 156 -31 203 -73l31 73h75zM558 142v111c0 57 -64 137 -165 137c-97 0 -178 -56 -178 -169
c0 -101 60 -173 165 -173c66 0 139 30 178 94z" />
    <glyph glyph-name="r" unicode="r" horiz-adv-x="622" 
d="M281 197v-130h90v-67c-35 2 -93 4 -149 4c-46 0 -92 -1 -138 -4v67h72v271c0 39 -8 39 -72 39v67l180 8v-121h1c27 59 86 121 174 121c68 0 126 -37 126 -95c0 -44 -32 -73 -73 -73s-73 30 -73 73c0 23 4 29 10 39c-85 -7 -148 -91 -148 -199z" />
    <glyph glyph-name="s" unicode="s" horiz-adv-x="605" 
d="M468 317h-13c-24 0 -33 2 -35 26c-4 36 -23 63 -126 63c-118 0 -148 -29 -148 -55c0 -37 59 -45 128 -55c120 -16 145 -20 195 -47c29 -15 71 -50 71 -109c0 -148 -193 -148 -233 -148c-28 0 -93 0 -149 29c-7 -4 -23 -14 -30 -17c-20 -12 -22 -12 -33 -12
c-30 0 -30 14 -30 35v98c0 31 5 36 36 36h12c25 0 28 -2 36 -21c25 -64 70 -92 160 -92c25 0 150 0 150 67c0 50 -65 58 -184 74c-75 11 -210 29 -210 134c0 30 14 79 76 108c57 25 122 25 159 25c31 0 84 0 127 -15c15 7 34 15 46 15c30 0 30 -14 30 -35v-69
c0 -30 -5 -35 -35 -35z" />
    <glyph glyph-name="t" unicode="t" horiz-adv-x="597" 
d="M285 377v-256c0 -27 0 -67 63 -67c58 0 68 39 68 69v44h83v-48c0 -101 -100 -127 -173 -127c-65 0 -174 13 -174 126v259h-108v56c102 3 156 100 158 202h83v-191h190v-67h-190z" />
    <glyph glyph-name="u" unicode="u" horiz-adv-x="838" 
d="M499 444l205 8v-346c0 -39 8 -39 72 -39v-67l-197 -8v65c-65 -65 -160 -65 -194 -65c-95 0 -216 10 -216 126v220c0 39 -8 39 -72 39v67l205 8v-340c0 -44 0 -64 104 -64c68 0 165 17 165 110v180c0 39 -8 39 -72 39v67z" />
    <glyph glyph-name="v" unicode="v" horiz-adv-x="798" 
d="M673 377l-187 -356c-15 -29 -32 -29 -54 -29h-65c-36 0 -44 9 -55 31l-186 354h-73v67c52 -4 76 -4 125 -4c41 0 99 2 136 4v-67h-47l156 -298l156 298h-47v67c35 -3 78 -4 113 -4c34 0 67 1 101 4v-67h-73z" />
    <glyph glyph-name="w" unicode="w" horiz-adv-x="1080" 
d="M965 377l-150 -354c-13 -31 -33 -31 -52 -31h-63c-19 0 -39 0 -52 30l-108 254l-107 -254c-13 -30 -33 -30 -52 -30h-63c-19 0 -39 0 -52 31l-150 354h-66v67c38 -3 82 -4 120 -4c41 0 99 2 134 4v-67h-52l120 -284l121 284h-62v67c33 -3 72 -4 106 -4c40 0 81 1 121 4
v-67h-52l134 -316l135 316h-60v67c39 -3 79 -4 118 -4c44 0 77 2 98 4v-67h-66z" />
    <glyph glyph-name="x" unicode="x" horiz-adv-x="798" 
d="M464 235l189 -168h88v-67c-46 4 -75 4 -119 4s-88 -1 -132 -4v67c5 0 7 0 12 1l-113 100l-113 -101h16v-67c-41 3 -82 4 -123 4c-40 0 -69 0 -111 -4v67h93l176 157l-173 153h-88v67c46 -4 75 -4 119 -4s88 1 132 4v-67c-5 0 -7 0 -12 -1l97 -86l97 87h-16v67
c41 -3 82 -4 123 -4c40 0 69 0 111 4v-67h-93z" />
    <glyph glyph-name="y" unicode="y" horiz-adv-x="798" 
d="M672 377l-239 -448c-58 -109 -185 -131 -251 -131c-83 0 -137 50 -137 108c0 46 34 71 71 71s71 -25 71 -71c0 -11 -2 -29 -14 -45c-2 -2 -3 -3 -3 -5s8 -2 14 -2c116 0 149 62 168 99c9 16 24 44 24 47c0 1 0 2 -6 12l-236 365h-76v67c42 -3 85 -4 127 -4
c25 0 90 1 138 4v-67h-40l162 -251l133 251h-47v67c36 -3 77 -4 113 -4c42 0 74 2 101 4v-67h-73z" />
    <glyph glyph-name="z" unicode="z" horiz-adv-x="677" 
d="M584 384l-335 -322h98c88 0 156 10 171 116h83l-23 -178h-483c-21 0 -38 0 -38 33c0 19 2 20 13 31l337 324h-91c-82 0 -144 -8 -156 -99h-83l16 155h466c20 0 38 0 38 -31c0 -17 -2 -19 -13 -29z" />
    <glyph glyph-name="endash" unicode="&#x2013;" 
d="M741 246h-724v56h724v-56z" />
    <glyph glyph-name="emdash" unicode="&#x2014;" horiz-adv-x="1516" 
d="M1483 246h-1449v56h1449v-56z" />
    <glyph glyph-name="hungarumlaut" unicode="&#x2dd;" 
d="M352 575l-106 -62l-55 62l76 102c13 18 32 30 53 30c36 0 71 -35 71 -73c0 -16 -5 -39 -39 -59zM433 575l76 102c13 18 32 30 53 30c36 0 71 -35 71 -73c0 -16 -5 -39 -39 -59l-106 -62z" />
    <glyph glyph-name="tilde" unicode="&#x2dc;" 
d="M583 694l37 -43c-64 -53 -46 -41 -70 -60c-22 -18 -63 -52 -108 -52c-29 0 -51 12 -82 30c-17 11 -44 26 -72 26c-45 0 -90 -36 -113 -56l-37 43c64 53 46 41 70 60c22 18 63 52 108 52c29 0 51 -12 82 -30c17 -11 44 -26 72 -26c45 0 90 36 113 56z" />
    <glyph glyph-name="dieresis" unicode="&#xa8;" 
d="M316 617c0 -40 -32 -77 -78 -77c-41 0 -77 33 -77 78c0 39 32 77 78 77c40 0 77 -32 77 -78zM597 617c0 -39 -32 -77 -78 -77c-40 0 -77 32 -77 78c0 40 32 77 78 77c41 0 77 -33 77 -78z" />
    <glyph glyph-name="space" unicode=" " horiz-adv-x="516" 
 />
  </font>
</defs>
</svg>
