<?xml version="1.0" standalone="no"?>
<!DOCTYPE svg PUBLIC "-//W3C//DTD SVG 1.1//EN" "http://www.w3.org/Graphics/SVG/1.1/DTD/svg11.dtd" >
<svg>
<metadata>
Created by FontForge 20060822 at Fri Oct  6 18:22:06 2006
 By Wojciech Mula,,,
Copyright (C) 1997 American Mathematical Society. All Rights Reserved
</metadata>
<defs>
<font id="CMFF10" horiz-adv-x="411" >
  <font-face 
    font-family="Computer Modern"
    font-weight="500"
    font-style="italic"
    font-stretch="normal"
    units-per-em="1000"
    panose-1="2 0 6 3 0 0 0 0 0 0"
    ascent="800"
    descent="-200"
    x-height="528"
    cap-height="625"
    bbox="-53 -361 803 709"
    underline-thickness="0"
    underline-position="0"
    slope="5.71"
    stemh="36"
    stemv="56"
    unicode-range="U+0020-U+FB04"
  />
    <missing-glyph />
    <glyph glyph-name="ff" unicode="ff" horiz-adv-x="488" 
d="M325 481l42 -425c9 -5 15 -8 15 -40c0 -13 -10 -16 -11 -16c-1 1 -7 14 -23 14c-8 0 -14 -6 -16 -14c-11 3 -18 4 -18 42c0 3 1 7 3 10c3 3 2 16 2 20l-41 409h-185l41 -409c2 -15 2 -17 5 -19c9 -8 9 -29 9 -37c0 -10 -7 -15 -10 -15c-2 0 -3 0 -6 5c-2 3 -9 8 -16 8
c-8 0 -14 -6 -16 -14c-11 3 -18 4 -18 42c0 3 1 7 3 10c3 3 2 16 2 20l-41 409h-40c-23 0 -30 0 -30 29c0 18 8 18 28 18h37c0 5 -2 19 -2 22c0 41 155 67 216 67c11 0 40 0 57 -25c27 14 68 25 101 25c35 0 41 -32 41 -43c0 -24 -19 -28 -28 -28c-8 0 -30 4 -34 32
c-26 0 -71 -10 -71 -29c0 -3 2 -17 2 -21h65c23 0 30 0 30 -29c0 -18 -8 -18 -28 -18h-65zM91 528h182c0 17 -3 20 -7 24c-3 3 -9 10 -10 26h-43c-26 0 -124 -8 -124 -30c0 -3 2 -16 2 -20z" />
    <glyph glyph-name="fi" unicode="fi" horiz-adv-x="458" 
d="M324 483l41 -411c2 -15 2 -17 5 -19c9 -8 9 -29 9 -37c0 -10 -7 -15 -10 -15c-2 0 -3 0 -6 5c-2 3 -9 8 -16 8c-8 0 -14 -6 -16 -14c-11 3 -18 4 -18 42c0 3 1 7 3 10c3 3 2 16 2 20l-39 383c-1 6 -1 11 -2 17c-3 2 -6 5 -8 9h-176l41 -409c2 -15 2 -17 5 -19
c9 -8 9 -29 9 -37c0 -10 -7 -15 -10 -15c-2 0 -3 0 -6 5c-2 3 -9 8 -16 8c-8 0 -14 -6 -16 -14c-11 3 -18 4 -18 42c0 3 1 7 3 10c3 3 2 16 2 20l-41 409h-40c-23 0 -30 0 -30 29c0 18 8 18 28 18h37c0 5 -2 19 -2 22c0 41 154 67 213 67c57 0 64 -45 64 -54
c0 -20 -16 -29 -30 -29c-20 0 -35 13 -35 43c-9 1 -11 1 -31 1c-43 0 -131 -9 -131 -30c0 -3 2 -16 2 -20h192c19 0 30 0 30 -27c8 -2 9 -3 11 -18z" />
    <glyph glyph-name="fl" unicode="fl" horiz-adv-x="458" 
d="M317 547l48 -475c2 -15 2 -17 5 -19c9 -8 9 -29 9 -37c0 -10 -7 -15 -10 -15c-2 0 -3 0 -6 5c-2 3 -9 8 -16 8c-8 0 -14 -6 -16 -14c-11 3 -18 4 -18 42c0 3 1 7 3 10c3 3 2 16 2 20l-41 409h-184l41 -409c2 -15 2 -17 5 -19c9 -8 9 -29 9 -37c0 -10 -7 -15 -10 -15
c-2 0 -3 0 -6 5c-2 3 -9 8 -16 8c-8 0 -14 -6 -16 -14c-11 3 -18 4 -18 42c0 3 1 7 3 10c3 3 2 16 2 20l-41 409h-40c-23 0 -30 0 -30 29c0 18 8 18 28 18h37c0 5 -2 19 -2 22c0 41 156 67 215 67c10 0 25 0 38 -7c6 1 8 1 19 1c0 -1 1 -16 3 -23c4 -8 2 -32 3 -41zM91 528
h181c-1 5 -2 18 -2 24c-11 7 -13 20 -14 26h-43c-25 0 -124 -8 -124 -30c0 -3 2 -16 2 -20z" />
    <glyph glyph-name="ffi" unicode="ffi" horiz-adv-x="691" 
d="M558 483l41 -411c2 -15 2 -17 5 -19c9 -8 9 -29 9 -37c0 -10 -7 -15 -10 -15c-2 0 -3 0 -6 5c-2 3 -9 8 -16 8c-8 0 -14 -6 -16 -14c-11 3 -18 4 -18 42c0 3 1 7 3 10c3 3 2 16 2 20l-39 383c-1 6 -1 11 -2 17c-3 2 -6 5 -8 9h-177l41 -409c2 -15 2 -17 5 -19
c9 -8 9 -29 9 -37c0 -10 -7 -15 -10 -15c-2 0 -3 0 -6 5c-2 3 -9 8 -16 8c-8 0 -14 -6 -16 -14c-11 3 -18 4 -18 42c0 3 1 7 3 10c3 3 2 16 2 20l-41 409h-186l41 -409c2 -15 2 -17 5 -19c9 -8 9 -29 9 -37c0 -10 -7 -15 -10 -15c-2 0 -3 0 -6 5c-2 3 -9 8 -16 8
c-8 0 -14 -6 -16 -14c-11 3 -18 4 -18 42c0 3 1 7 3 10c3 3 2 16 2 20l-41 409h-40c-23 0 -30 0 -30 29c0 18 8 18 28 18h37c0 5 -2 19 -2 22c0 41 157 67 217 67c12 0 41 0 59 -31c74 24 131 31 171 31c56 0 64 -44 64 -54c0 -20 -16 -29 -30 -29c-20 0 -35 13 -35 43
c-9 1 -11 1 -32 1c-42 0 -131 -9 -131 -30c0 -3 2 -16 2 -20h193c19 0 30 0 30 -27c8 -2 9 -3 11 -18zM91 528h183l-1 9c-1 2 -2 3 -4 4c-11 11 -14 23 -13 31v5c-10 1 -18 1 -33 1c-43 0 -134 -9 -134 -30c0 -3 2 -16 2 -20z" />
    <glyph glyph-name="ffl" unicode="ffl" horiz-adv-x="691" 
d="M551 547l48 -475c2 -15 2 -17 5 -19c9 -8 9 -29 9 -37c0 -10 -7 -15 -10 -15c-2 0 -3 0 -6 5c-2 3 -9 8 -16 8c-8 0 -14 -6 -16 -14c-11 3 -18 4 -18 42c0 3 1 7 3 10c3 3 2 16 2 20l-41 409h-185l41 -409c2 -15 2 -17 5 -19c9 -8 9 -29 9 -37c0 -10 -7 -15 -10 -15
c-2 0 -3 0 -6 5c-2 3 -9 8 -16 8c-8 0 -14 -6 -16 -14c-11 3 -18 4 -18 42c0 3 1 7 3 10c3 3 2 16 2 20l-41 409h-186l41 -409c2 -15 2 -17 5 -19c9 -8 9 -29 9 -37c0 -10 -7 -15 -10 -15c-2 0 -3 0 -6 5c-2 3 -9 8 -16 8c-8 0 -14 -6 -16 -14c-11 3 -18 4 -18 42
c0 3 1 7 3 10c3 3 2 16 2 20l-41 409h-40c-23 0 -30 0 -30 29c0 18 8 18 28 18h37c0 5 -2 19 -2 22c0 41 157 67 217 67c10 0 45 0 61 -31c26 8 94 31 171 31c9 0 25 0 38 -7c6 1 8 1 19 1c0 -1 1 -16 3 -23c4 -8 2 -32 3 -41zM91 528h183c0 17 -3 20 -7 24
c-3 3 -9 10 -10 26h-43c-24 0 -125 -8 -125 -30c0 -3 2 -16 2 -20zM490 578h-43c-28 0 -125 -8 -125 -30c0 -3 2 -16 2 -20h182c-1 5 -2 18 -2 24c-11 7 -13 20 -14 26z" />
    <glyph glyph-name="Gamma" unicode="&#x393;" horiz-adv-x="533" 
d="M105 572l51 -516c11 -3 18 -4 18 -38c0 -5 0 -17 -13 -18c-13 13 -31 14 -33 14c-21 0 -27 -9 -31 -14c-11 3 -17 5 -17 39c0 4 0 10 5 14s3 19 3 20l-50 499c-9 4 -15 7 -15 42c0 14 13 14 27 14h376c15 0 28 0 28 -14c0 -3 -1 -9 -10 -40c-8 -26 -9 -30 -22 -30
c-11 0 -17 6 -17 18c-5 3 -13 3 -18 3c-10 0 -21 -1 -31 -1c-14 0 -24 0 -59 4c-30 4 -46 4 -52 4h-140z" />
    <glyph glyph-name="Delta" unicode="&#x394;" horiz-adv-x="677" 
d="M305 663l334 -663h-600l202 663h64zM203 387l-97 -326h429l-209 422c-12 23 -50 100 -60 132h-1c-6 -40 -54 -202 -62 -228z" />
    <glyph glyph-name="Theta" unicode="&#x398;" horiz-adv-x="633" 
d="M553 289c0 -122 -110 -300 -236 -300c-124 0 -300 194 -300 352c0 121 111 295 236 295c83 0 147 -65 189 -107c9 -10 111 -113 111 -240zM313 27c54 0 84 45 110 91c13 24 52 93 52 172c0 52 -17 117 -75 196c-48 67 -91 111 -143 111c-50 0 -81 -40 -108 -88
c-15 -26 -54 -92 -54 -169c0 -62 25 -129 74 -198c49 -70 92 -115 144 -115zM172 343h220v7c0 5 0 7 -1 8c0 1 0 16 17 16c13 0 15 -10 16 -14s9 -92 9 -95c0 -7 -5 -15 -16 -15c-14 0 -18 11 -18 31h-221c1 -4 1 -12 1 -16c0 -7 -5 -15 -16 -15c-15 0 -17 12 -18 26l-7 70
v6c0 1 1 4 0 5c-2 5 2 17 16 17s18 -12 18 -31z" />
    <glyph glyph-name="Lambda" unicode="&#x39b;" horiz-adv-x="522" 
d="M226 663l232 -593l7 -14c19 0 27 0 27 -39c0 -5 0 -10 -5 -14l-1 -2l-1 -1c-1 1 -5 1 -6 2c-10 7 -17 12 -30 12c-2 0 -18 0 -29 -14c-13 2 -16 3 -18 29c-1 6 -1 8 -10 32l-145 379c-38 100 -55 156 -59 173h-1c0 -17 0 -28 -16 -125c-7 -47 -14 -93 -23 -139l-56 -294
c-3 -12 -3 -14 -3 -17l2 -24c0 -3 -2 -11 -11 -14c-4 8 -13 14 -22 14c-10 0 -15 -9 -16 -14c-11 3 -18 5 -18 40c0 10 7 15 16 16c8 8 9 15 12 29l111 578h63z" />
    <glyph glyph-name="Xi" unicode="&#x39e;" horiz-adv-x="544" 
d="M382 576h-338c-22 0 -23 -1 -26 -5c-5 -6 -10 -7 -15 -7c-13 0 -15 6 -20 22c-3 12 -7 27 -7 31c0 14 12 14 28 14h413c20 0 28 0 28 -18c0 -48 -9 -49 -19 -49c-9 0 -14 3 -16 11c-8 1 -20 1 -28 1zM482 0h-423c-21 0 -28 0 -28 19c0 50 8 50 19 50c10 0 13 -4 16 -9
s12 -5 31 -5h342c15 0 25 0 28 4c3 5 6 10 16 10c13 0 15 -5 19 -22c5 -17 8 -30 8 -33c0 -14 -13 -14 -28 -14zM366 301h-250c-3 -4 -8 -6 -13 -6c-14 0 -21 11 -21 51c0 10 7 16 17 16c5 0 10 -2 13 -6h250c3 4 9 6 14 6c15 0 20 -15 20 -50c0 -9 -4 -17 -17 -17
c-5 0 -10 2 -13 6z" />
    <glyph glyph-name="Pi" unicode="&#x3a0;" horiz-adv-x="522" 
d="M371 555l50 -499c9 -4 16 -7 16 -41c0 -10 -8 -14 -11 -14c-2 0 -5 2 -7 3c-10 9 -22 10 -26 10c-21 0 -27 -9 -31 -14c-11 3 -17 5 -17 39c0 4 0 10 5 14s3 19 3 20l-50 494h-198l51 -511c9 -4 16 -7 16 -41c0 -10 -8 -14 -11 -14c-2 0 -5 2 -7 3c-10 9 -22 10 -26 10
c-21 0 -27 -9 -31 -14c-11 3 -17 5 -17 39c0 4 0 10 5 14s3 19 3 20l-50 499c-9 4 -15 7 -15 42c0 14 13 14 27 14h298c24 0 31 0 31 -42c0 -4 -2 -9 -6 -12c-3 -3 -3 -5 -2 -8v-11z" />
    <glyph glyph-name="Sigma" unicode="&#x3a3;" horiz-adv-x="588" 
d="M278 312l-143 -255h174c8 0 25 0 58 5c21 3 45 6 64 6c5 0 22 0 38 -4c6 -1 10 -2 16 -2c5 0 11 1 15 3v6c-2 4 3 14 15 14c11 0 14 -5 18 -14c26 -51 26 -55 26 -57c0 -14 -13 -14 -28 -14h-481l163 291l-212 269c-8 9 -8 11 -10 29l-3 36h483c15 0 29 0 29 -14
c0 -4 -7 -27 -11 -40c-8 -26 -9 -30 -22 -30c-16 0 -17 12 -16 15v3c-5 4 -12 5 -19 5c-2 0 -7 0 -17 -2c-16 -4 -22 -4 -40 -4c-13 0 -26 0 -53 4c-19 3 -48 7 -73 7h-174z" />
    <glyph glyph-name="Upsilon" unicode="&#x3a5;" horiz-adv-x="633" 
d="M276 74l-29 285c-3 25 -8 55 -14 79c-9 38 -34 144 -123 144c-66 0 -66 -67 -66 -82h-44c-1 4 -1 6 -1 16c0 58 35 120 105 120c109 0 150 -121 168 -195h1c2 59 13 195 129 195c68 0 123 -62 131 -136h-44c-6 47 -40 82 -82 82c-92 0 -95 -113 -95 -161
c0 -40 2 -64 13 -170c6 -65 13 -130 19 -195c11 -3 18 -4 18 -38c0 -5 0 -17 -13 -18c-12 13 -29 14 -34 14c-8 0 -19 -3 -28 -10c-2 -2 -4 -3 -6 -3c-16 0 -16 28 -16 39c0 4 1 9 3 12c8 3 10 5 8 22z" />
    <glyph glyph-name="Phi" unicode="&#x3a6;" horiz-adv-x="588" 
d="M320 135l8 -79c11 -3 18 -4 18 -38c0 -5 0 -17 -13 -18c-16 14 -35 14 -37 14c-9 0 -21 -3 -31 -10c-3 -3 -4 -3 -6 -3c-16 0 -16 28 -16 39c0 4 1 9 3 12c7 3 10 6 8 22l-9 79c-87 12 -227 86 -227 168c0 57 79 126 192 151c3 1 3 3 3 5c0 3 0 5 -1 13l-8 79
c-11 3 -18 5 -18 40c0 11 8 15 12 15c1 0 3 -1 5 -2c14 -10 27 -11 33 -11c22 0 30 8 36 14c11 -3 17 -5 17 -42c0 -1 0 -8 -8 -13c-3 -1 -3 -2 -3 -5l9 -93c70 -12 221 -81 221 -167c0 -70 -102 -131 -176 -149c-13 -3 -14 -4 -12 -21zM291 429l23 -233h1
c27 10 118 63 118 112c0 55 -117 113 -142 121zM242 194l-25 237c-30 -10 -123 -63 -123 -114c0 -55 113 -112 148 -123z" />
    <glyph glyph-name="Psi" unicode="&#x3a8;" horiz-adv-x="633" 
d="M300 565l37 -370c54 21 84 78 84 151c0 21 -4 49 -4 68c0 74 31 74 55 74h62v-3c1 -3 3 -30 4 -36c-45 -4 -46 -52 -46 -63c0 -13 2 -21 2 -38c0 -92 -45 -167 -145 -193c-6 -2 -9 -3 -7 -20l8 -79c11 -3 18 -4 18 -38c0 -5 0 -17 -13 -18c-16 14 -35 14 -37 14
c-9 0 -21 -3 -31 -10c-3 -3 -4 -3 -6 -3c-16 0 -16 28 -16 39c0 4 1 9 3 12c8 3 10 5 8 22l-8 79c-81 14 -180 70 -202 219c-5 30 -15 73 -61 77l-4 39h62c28 0 62 0 74 -104c10 -83 43 -163 126 -189l-37 374c-11 3 -18 5 -18 40c0 11 8 15 12 15c1 0 3 -1 5 -2
c14 -10 27 -11 33 -11c22 0 30 8 36 14c11 -3 17 -5 17 -42c0 -1 0 -8 -8 -13c-3 -1 -3 -2 -3 -5z" />
    <glyph glyph-name="Omega" unicode="&#x3a9;" horiz-adv-x="588" 
d="M407 60h100c1 4 2 14 17 14c10 0 11 -1 28 -25c8 -12 20 -31 20 -35c0 -14 -13 -14 -28 -14h-177v5c-2 8 -2 10 -2 29c0 59 19 129 29 168c18 66 33 123 33 181c0 35 0 78 -58 137c-39 40 -85 77 -134 77c-74 0 -155 -103 -155 -169c0 -67 42 -158 72 -222
c36 -77 62 -133 70 -206h-180c-17 0 -28 0 -28 14c0 6 9 23 15 35c12 24 13 25 23 25c6 0 15 -2 17 -13c7 -1 9 -1 21 -1h80c-13 39 -26 68 -77 152c-34 57 -85 142 -85 218c0 93 116 206 223 206c78 0 150 -54 184 -84c60 -56 84 -99 84 -162c0 -64 -26 -130 -51 -192
c-27 -68 -36 -101 -41 -138z" />
    <glyph glyph-name="dotlessi" unicode="&#x131;" horiz-adv-x="216" 
d="M78 483l41 -412c1 -14 1 -16 4 -18c9 -8 9 -36 9 -37c0 -6 -1 -12 -6 -16h-7c-4 12 -15 14 -18 14c-8 0 -14 -6 -16 -14c-11 3 -18 4 -18 42c0 3 1 7 3 10c3 3 2 16 2 20l-39 384c0 2 0 3 -1 4l-1 13c-9 10 -11 13 -11 38c0 5 1 17 14 17c4 0 7 -1 24 -18
c8 -8 10 -8 14 -10c3 -1 4 -2 6 -17z" />
    <glyph glyph-name="dotlessj" unicode="&#xf6be;" horiz-adv-x="238" 
d="M95 483l57 -576c1 -15 2 -20 2 -34c0 -96 -40 -157 -103 -157c-49 0 -77 45 -77 77c0 16 11 29 30 29c21 0 37 -15 37 -37c0 -17 -6 -21 -10 -24c10 -4 21 -6 29 -6c47 0 50 49 50 83c0 22 0 24 -3 53l-57 564c-1 6 -1 11 -2 17c-7 6 -12 11 -12 41c0 9 6 15 13 15
c5 0 7 0 23 -15c11 -11 14 -12 17 -13s4 -2 6 -17z" />
    <glyph glyph-name="grave" unicode="`" 
d="M174 556l-106 10c-14 1 -32 3 -32 24c0 13 9 21 21 21c2 0 3 0 13 -2l103 -19c14 -3 19 -7 19 -18c0 -16 -12 -16 -18 -16z" />
    <glyph glyph-name="acute" unicode="&#xb4;" 
d="M228 566l-105 -10c-5 0 -18 0 -18 18c0 12 8 13 21 16l95 19c5 1 11 2 14 2c13 0 22 -11 22 -23c0 -19 -17 -21 -29 -22z" />
    <glyph glyph-name="caron" unicode="&#x2c7;" 
d="M143 581l90 10c15 2 29 1 29 -17c0 -11 -7 -13 -22 -17l-89 -24l-96 24c-14 4 -21 7 -21 18c0 16 12 18 29 16z" />
    <glyph glyph-name="breve" unicode="&#x2d8;" 
d="M276 593c0 -47 -71 -47 -127 -47c-49 0 -133 0 -133 50c0 15 13 15 19 15c12 0 15 -2 19 -10c7 -14 56 -14 94 -14c30 0 84 0 89 11c4 10 6 13 20 13c15 0 19 -5 19 -18z" />
    <glyph glyph-name="macron" unicode="&#xaf;" 
d="M262 572h-230c-21 0 -30 0 -30 24c0 16 12 16 29 16h230c20 0 29 0 29 -23c0 -17 -9 -17 -28 -17z" />
    <glyph glyph-name="ring" unicode="&#x2da;" horiz-adv-x="555" 
d="M299 608c0 -15 -50 -27 -79 -27c-30 0 -85 13 -85 28s48 27 80 27c28 0 84 -12 84 -28zM257 603l10 6c-32 13 -49 13 -51 13c-4 0 -22 0 -49 -14c32 -13 49 -13 51 -13c14 0 37 8 39 8z" />
    <glyph glyph-name="cedilla" unicode="&#xb8;" horiz-adv-x="366" 
d="M232 -46c59 -20 78 -81 78 -112c0 -69 -75 -101 -153 -101c-16 0 -16 16 -16 21c0 15 7 18 21 18c51 1 104 20 104 63c0 38 -25 72 -62 77c-12 2 -13 7 -16 31c0 8 -4 45 -4 51c0 15 13 15 21 15c21 0 21 -5 23 -22c2 -14 3 -27 4 -41z" />
    <glyph glyph-name="germandbls" unicode="&#xdf;" horiz-adv-x="402" 
d="M200 499c54 -47 155 -182 155 -309c0 -74 -51 -196 -122 -196c-47 0 -84 41 -84 76c0 14 11 26 27 26c19 0 32 -15 32 -33c0 -14 -6 -19 -9 -21c6 -5 18 -9 30 -9c47 0 74 118 74 159c0 20 -4 88 -59 183c-56 98 -82 112 -116 114l-4 39c56 1 106 21 114 27c3 1 5 6 7 8
c-38 13 -79 15 -85 15c-17 0 -32 -3 -54 -7c-29 -5 -30 -6 -28 -24l55 -547h-14c0 3 0 14 -12 14c-5 0 -13 -4 -15 -14c-11 3 -18 4 -18 42c0 3 1 7 3 10c3 3 2 16 2 20l-39 385c-1 14 -2 15 -5 17c-9 8 -9 38 -9 39c0 5 3 10 7 13c-1 8 -3 29 -3 36c0 35 87 55 127 55
c46 0 140 -24 140 -57c0 -35 -85 -58 -97 -61z" />
    <glyph glyph-name="ae" unicode="&#xe6;" horiz-adv-x="588" 
d="M544 167h-222c10 -19 70 -137 130 -137c25 0 58 13 68 52h33c-13 -58 -68 -88 -118 -88c-42 0 -75 26 -128 105h-1c1 -7 1 -9 1 -16c0 -33 -21 -58 -63 -73c-44 -16 -102 -16 -107 -16c-85 0 -104 75 -104 95c0 40 48 89 222 98c-7 55 -10 100 -14 126
c-9 49 -55 185 -109 185c-67 0 -68 -82 -68 -117c0 -19 2 -51 3 -61c1 -5 2 -5 9 -7c25 -7 29 -24 29 -36c0 -19 -12 -30 -31 -30c-41 0 -41 49 -41 125c0 42 0 165 95 165c14 0 43 -1 80 -55c20 -27 40 -62 51 -86c32 103 67 141 109 141c86 0 157 -169 176 -370zM304 206
h163c-5 48 -15 114 -33 179c-19 71 -36 113 -63 113c-47 0 -82 -151 -82 -207c0 -29 7 -63 15 -85zM259 148c-44 -1 -164 -13 -164 -61c0 -21 22 -54 78 -54c21 0 92 4 92 55c0 9 -4 47 -6 60z" />
    <glyph glyph-name="oe" unicode="&#x153;" horiz-adv-x="633" 
d="M588 167h-222c10 -19 70 -137 130 -137c25 0 58 13 68 52h33c-13 -58 -68 -88 -118 -88c-34 0 -60 17 -91 55c-35 43 -62 95 -64 99c-6 -20 -45 -154 -122 -154c-82 0 -196 168 -196 300c0 88 59 243 142 243c77 0 143 -135 152 -153c16 59 50 153 112 153
c86 0 157 -169 176 -370zM348 206h163c-5 48 -15 114 -33 179c-19 71 -36 113 -63 113c-47 0 -82 -151 -82 -207c0 -29 7 -63 15 -85zM199 33c53 0 92 156 92 216c0 57 -21 108 -49 157c-33 57 -59 92 -89 92c-49 0 -86 -153 -86 -201c0 -37 11 -91 47 -160
c30 -57 55 -104 85 -104z" />
    <glyph glyph-name="oslash" unicode="&#xf8;" 
d="M299 652l-43 -165l-3 -16c42 -53 93 -135 93 -234c0 -84 -55 -243 -140 -243c-29 0 -54 17 -68 29l-41 -158c-3 -12 -5 -20 -16 -20c-10 0 -24 7 -24 18c0 9 25 100 29 117l20 79c-45 57 -94 138 -94 237c0 88 57 241 140 241c31 0 58 -20 69 -30l40 156c3 10 5 20 16 20
c10 0 24 -7 24 -18c0 -4 -1 -10 -2 -13zM119 110l91 354c-11 14 -32 34 -54 34c-58 0 -100 -152 -100 -208c0 -72 36 -135 63 -180zM239 420l-90 -354c8 -9 29 -33 53 -33c55 0 99 145 99 210c0 26 0 81 -62 177z" />
    <glyph glyph-name="AE" unicode="&#xc6;" horiz-adv-x="711" 
d="M354 269l21 -213h137c26 0 68 4 102 7c15 2 17 2 30 5v6c-2 4 1 14 15 14c10 0 12 -3 18 -13c22 -33 37 -55 37 -61c0 -14 -13 -14 -28 -14h-351c-23 0 -30 0 -30 42c0 3 1 7 3 10c3 3 2 16 2 20l-21 204h-147l-47 -223c0 -2 -4 -18 -4 -19l2 -18c0 -13 -11 -16 -12 -16
c-2 3 -6 14 -22 14c-6 0 -11 -3 -15 -9c-2 -3 -2 -4 -5 -4c-15 0 -15 32 -15 39c0 12 8 14 14 16c4 1 12 4 18 30l114 539h423c15 0 29 0 29 -14c0 -4 -7 -27 -11 -40c-8 -26 -9 -30 -22 -30c-16 0 -17 12 -16 15v2c-7 2 -9 2 -24 4h-10c-27 3 -72 7 -98 7h-117l24 -239h60
l85 5c2 9 9 12 16 12c15 0 16 -6 18 -31c1 -9 5 -40 5 -47c0 -5 0 -17 -16 -17c-9 0 -12 4 -15 8c-3 2 -4 3 -21 5c-39 4 -41 4 -68 4h-58zM204 569l-52 -246h133l-23 228c-2 15 -3 16 -12 17s-20 1 -29 1h-17z" />
    <glyph glyph-name="OE" unicode="&#x152;" horiz-adv-x="800" 
d="M426 295l23 -239h144c8 0 22 0 107 8c28 2 30 2 33 3v6c-2 4 1 15 15 15c10 0 12 -3 18 -13c22 -33 37 -55 37 -61c0 -14 -13 -14 -28 -14h-347c-11 0 -26 0 -65 -6c-8 -1 -37 -5 -55 -5c-72 0 -135 48 -191 111c-60 66 -111 148 -111 241c0 117 108 295 238 295
c23 0 68 -7 70 -7c16 -2 34 -4 51 -4h317c15 0 29 0 29 -14c0 -4 -7 -27 -11 -40c-8 -26 -9 -30 -22 -30c-16 0 -17 12 -16 15v2c-8 4 -17 4 -29 4h-6c-8 0 -20 0 -51 4c-30 3 -51 3 -53 3h-125l21 -213h74c38 0 47 6 87 4h6l1 1c10 12 12 12 20 12c14 0 15 -6 18 -33
c1 -8 5 -41 5 -47c0 -10 -8 -15 -17 -15s-11 3 -15 8s-7 5 -21 4c-15 -1 -52 5 -80 5h-71zM305 28c70 0 75 39 75 90c0 24 -28 359 -45 414c-8 27 -19 65 -87 65c-98 0 -168 -155 -168 -247c0 -38 9 -116 78 -213c52 -73 95 -109 147 -109z" />
    <glyph glyph-name="Oslash" unicode="&#xd8;" horiz-adv-x="633" 
d="M454 677l-46 -114c57 -58 145 -149 145 -274c0 -122 -110 -300 -236 -300c-56 0 -104 33 -124 49l-42 -101c-6 -15 -9 -22 -18 -22c-1 0 -21 3 -21 18c0 2 0 4 6 17l45 114c-12 9 -62 60 -94 113c-13 20 -52 84 -52 164c0 121 111 295 236 295c35 0 76 -12 125 -48
l43 104c5 12 7 17 16 17c6 0 22 -5 22 -17c0 -2 0 -4 -5 -15zM185 117l174 424c-23 24 -57 56 -102 56c-56 0 -88 -48 -116 -93c-17 -29 -57 -95 -57 -168c0 -72 41 -149 101 -219zM385 510l-173 -425c18 -20 54 -57 101 -57c54 0 84 43 113 91c19 30 60 99 60 174
c0 80 -48 154 -101 217z" />
    <glyph glyph-name="suppress" horiz-adv-x="216" 
d="M159 409l-148 -157c-9 -10 -13 -10 -16 -10c-10 0 -29 18 -29 27c0 6 2 7 11 17l146 155c11 12 14 12 18 12c9 0 28 -17 28 -28c0 -5 0 -7 -10 -16z" />
    <glyph glyph-name="exclam" unicode="!" horiz-adv-x="188" 
d="M70 611l22 -405c1 -17 0 -18 -6 -19h-26l-62 424h72zM124 72l7 -72h-72l-7 72h72z" />
    <glyph glyph-name="quotedblright" unicode="&#x201d;" 
d="M50 528l-16 -183h-36v17c0 39 3 138 3 177h-22l-7 72h72c6 -66 7 -73 6 -83zM206 528l-16 -183h-36v17c0 39 3 138 3 177h-22l-7 72h72c6 -66 7 -73 6 -83z" />
    <glyph glyph-name="numbersign" unicode="#" horiz-adv-x="677" 
d="M447 260l-21 -214h162c14 0 38 0 38 -25s-24 -25 -38 -25h-168l-27 -269c-1 -12 -3 -33 -26 -33c-16 0 -27 14 -24 27v11l26 264h-124l-27 -269c-1 -12 -3 -33 -26 -33c-16 0 -27 14 -24 27v11l26 264h-108c-14 0 -38 0 -38 25s24 25 38 25h114l22 214h-163
c-13 0 -37 0 -37 25s24 25 37 25h169l26 267c1 10 3 34 26 34c5 0 25 -2 25 -28l-27 -273h125l26 267c1 10 3 34 26 34c5 0 25 -2 25 -28l-27 -273h108c15 0 38 0 38 -25s-23 -25 -38 -25h-114zM272 260l-21 -214h124l22 214h-125z" />
    <glyph glyph-name="sterling" unicode="&#xa3;" 
d="M173 559l20 -196c1 -6 1 -11 2 -17c126 -31 150 -151 150 -188c0 -69 -62 -146 -115 -161c1 -6 3 -33 3 -36c0 -17 -11 -17 -23 -17c-17 0 -22 2 -24 17c-2 12 -3 23 -4 35c-139 18 -149 167 -149 177c0 20 13 30 30 30c23 0 37 -17 37 -37c0 -16 -9 -26 -27 -29
c10 -33 36 -75 104 -85l-23 222c-2 14 -3 15 -14 19c-119 35 -136 143 -136 171c0 61 58 134 116 150c-1 8 -3 29 -3 36c0 17 10 17 23 17s22 0 24 -15l3 -36c135 -17 149 -149 149 -166c0 -14 -9 -30 -31 -30s-36 18 -36 37c0 24 20 29 26 30c-9 22 -32 64 -102 72z
M146 359l-20 197c-31 -14 -62 -52 -62 -91c0 -36 26 -91 82 -106zM202 276l22 -220c34 17 61 63 61 100c0 29 -17 100 -83 120z" />
    <glyph glyph-name="percent" unicode="%" horiz-adv-x="677" 
d="M491 623l-321 -659c-5 -10 -10 -20 -25 -20c-14 0 -25 12 -25 25c0 4 2 11 6 19l272 560c-25 -12 -61 -20 -91 -20c-43 0 -85 15 -101 23c13 -28 18 -56 18 -85c0 -61 -37 -161 -92 -161s-132 114 -132 200c0 56 39 162 97 162c24 0 42 -17 57 -32
c57 -62 117 -69 148 -69c70 0 118 36 143 80c4 7 11 21 27 21s25 -14 25 -25c0 -7 -3 -14 -6 -19zM126 618c-4 4 -10 10 -25 10c-31 0 -58 -93 -58 -129c0 -15 0 -42 31 -96c35 -59 46 -59 56 -59c37 0 61 79 61 124c0 63 -34 113 -44 122c-2 2 -24 21 -24 25c0 1 2 2 3 3z
M616 105c0 -62 -37 -161 -92 -161c-53 0 -131 108 -131 200c0 65 41 162 96 162c52 0 127 -109 127 -201zM522 -17c36 0 61 78 61 124c0 74 -54 160 -89 160c-33 0 -59 -95 -59 -129c0 -56 57 -155 87 -155z" />
    <glyph glyph-name="ampersand" unicode="&#x26;" horiz-adv-x="625" 
d="M57 228l73 83c7 7 7 9 7 10s0 2 -3 7c-22 52 -39 110 -39 168c0 85 38 126 86 126c69 0 97 -92 97 -139c0 -60 -50 -121 -90 -168c40 -82 124 -177 144 -196c29 39 52 86 79 164c15 40 68 201 71 215c1 3 0 7 0 13c0 3 0 15 12 17c1 -4 7 -14 16 -14c8 0 11 7 11 14
c11 -3 17 -5 17 -39c0 -4 0 -14 -11 -16c-12 -3 -18 -4 -25 -18c-3 -7 -13 -38 -22 -67c-57 -177 -82 -230 -122 -295c53 -45 90 -48 111 -48c23 0 70 3 73 35c1 9 1 17 16 17s17 -8 17 -22c0 -50 -47 -86 -103 -86c-50 0 -95 27 -142 69c-38 -43 -87 -69 -144 -69
c-92 0 -161 78 -161 154c0 14 3 52 32 85zM169 355c49 60 76 102 76 134c0 9 -8 94 -60 94c-38 0 -54 -38 -54 -76c0 -20 9 -91 38 -152zM158 280l-47 -53c-16 -18 -31 -35 -31 -70c0 -62 58 -112 123 -112c18 0 60 3 99 41c-13 14 -51 60 -76 93c-16 20 -43 56 -68 101z
" />
    <glyph glyph-name="quoteright" unicode="&#x2019;" horiz-adv-x="233" 
d="M98 528l-16 -183h-36v17c0 39 3 138 3 177h-22l-7 72h72c6 -66 7 -73 6 -83z" />
    <glyph glyph-name="parenleft" unicode="(" horiz-adv-x="322" 
d="M166 667h39c-109 -136 -111 -316 -111 -382c0 -137 21 -455 214 -646h-39c-163 152 -216 430 -216 644c0 140 24 271 113 384z" />
    <glyph glyph-name="parenright" unicode=")" horiz-adv-x="322" 
d="M125 -361h-39c85 107 112 245 112 381c0 47 -5 187 -40 323c-45 179 -130 281 -175 324h39c53 -54 77 -90 104 -138c98 -170 113 -416 113 -507c0 -146 -31 -283 -114 -383z" />
    <glyph glyph-name="asterisk" unicode="*" 
d="M189 358l20 -182l1 -18c0 -9 -6 -19 -19 -19c-21 0 -23 23 -24 33l-17 186l-81 -84c-7 -7 -13 -10 -19 -10c-10 0 -23 10 -23 23c0 8 3 11 13 21l96 95l-117 96c-11 9 -15 16 -15 24c0 6 4 19 19 19c4 0 10 -2 21 -11l97 -83l-20 189c0 2 0 8 -1 10s1 20 19 20
c21 0 23 -21 24 -32l17 -187l80 82c11 11 16 12 20 12c9 0 23 -7 23 -23c0 -5 0 -9 -11 -20l-98 -96l119 -97c14 -11 14 -20 14 -22c0 -13 -11 -20 -19 -20c-2 0 -10 0 -22 11z" />
    <glyph glyph-name="plus" unicode="+" horiz-adv-x="633" 
d="M329 128l21 -203c2 -15 -1 -38 -24 -38c-8 0 -21 5 -24 20c-2 7 -21 196 -23 221h-206c-15 0 -38 0 -38 25s23 25 38 25h201l-21 214c0 24 19 27 25 27c23 0 25 -24 26 -34l20 -207h206c13 0 38 0 38 -25s-25 -25 -38 -25h-201z" />
    <glyph glyph-name="comma" unicode="," horiz-adv-x="233" 
d="M100 -194v23c0 38 3 133 3 171h-22l-7 72h72c0 -4 3 -36 3 -37c2 -11 4 -26 4 -35c0 -17 -14 -165 -17 -194h-36z" />
    <glyph glyph-name="hyphen" unicode="-" horiz-adv-x="277" 
d="M175 244h-158c-20 0 -29 0 -29 24c0 17 10 17 28 17h156c21 0 30 0 30 -25c0 -16 -9 -16 -27 -16z" />
    <glyph glyph-name="period" unicode="." horiz-adv-x="233" 
d="M146 72l7 -72h-72l-7 72h72z" />
    <glyph glyph-name="slash" unicode="/" 
d="M295 629l-160 -959c-2 -11 -5 -31 -26 -31c-10 0 -25 6 -25 26c0 3 0 5 3 21l158 950c2 12 6 31 27 31c16 0 25 -15 25 -25c0 -2 0 -3 -2 -13z" />
    <glyph glyph-name="zero" unicode="0" 
d="M344 220c0 -131 -50 -231 -138 -231c-107 0 -197 153 -197 376c0 170 73 229 137 229c114 0 198 -162 198 -374zM202 28c81 0 84 203 84 214c0 152 -67 313 -136 313s-85 -146 -85 -200c0 -135 64 -327 137 -327z" />
    <glyph glyph-name="one" unicode="1" 
d="M186 526l45 -451c2 -15 3 -16 18 -18c11 -1 24 -1 35 -1h21c24 0 31 0 31 -41c0 -9 -6 -14 -12 -14c-2 0 -13 2 -16 2c-43 10 -80 11 -99 11c-12 0 -52 0 -106 -12c-4 -1 -6 -2 -8 -2c-12 0 -17 10 -17 39c0 17 10 17 28 17h21c48 0 48 3 48 8l-44 437
c-28 -9 -59 -12 -78 -12c-20 0 -28 0 -28 32c0 14 15 15 22 15c56 1 98 18 122 46c9 10 10 12 17 12c13 0 16 -17 16 -42c0 -6 -4 -12 -14 -20c-2 -2 -2 -4 -2 -6z" />
    <glyph glyph-name="two" unicode="2" 
d="M42 39l151 197c22 29 69 90 69 163c0 103 -91 139 -153 139c-48 0 -59 -42 -62 -68c27 -5 38 -25 38 -45c0 -23 -16 -36 -37 -36c-46 0 -46 47 -46 59c0 75 50 146 134 146c116 0 188 -98 188 -193c0 -74 -45 -128 -97 -187c-47 -52 -92 -106 -136 -161h216
c17 0 18 1 20 4c3 5 6 10 16 10c9 0 10 -1 25 -23c7 -10 17 -26 17 -30c0 -14 -13 -14 -28 -14h-284c-23 0 -31 0 -31 39z" />
    <glyph glyph-name="three" unicode="3" 
d="M109 295l-3 39c1 0 39 3 40 4c90 8 90 94 90 103c0 23 -5 36 -32 61c-26 23 -34 30 -60 30c-8 0 -54 0 -80 -19c28 -10 29 -35 29 -41c0 -25 -19 -35 -36 -35c-2 0 -43 0 -43 50c0 68 66 107 129 107s161 -73 161 -154c0 -70 -51 -110 -88 -126c30 -11 139 -68 139 -156
c0 -70 -71 -169 -152 -169c-97 0 -177 74 -177 146c0 32 26 40 41 40c19 0 49 -14 49 -50c0 -17 -7 -31 -26 -38c37 -36 88 -39 105 -39c19 0 34 3 59 40c15 23 29 46 29 75c0 33 -17 59 -41 88c-38 44 -55 44 -78 44h-55z" />
    <glyph glyph-name="four" unicode="4" 
d="M236 621l40 -402h58c24 0 32 0 32 -46c0 -15 -13 -15 -29 -15h-55l9 -83c2 -15 3 -16 14 -18c9 -1 11 -1 29 -1h9c24 0 31 0 31 -39c0 -7 -2 -16 -12 -16c-2 0 -7 1 -14 3c-23 6 -54 10 -78 10c-34 0 -60 -6 -84 -12c-2 -1 -4 -2 -6 -2c-13 0 -17 16 -17 40
c0 16 12 16 29 16h8c2 0 22 0 39 2l-10 100h-190c-20 0 -27 0 -29 17c-2 15 -3 29 -4 44l172 402h58zM48 219h169l-35 353c0 -3 3 -31 -134 -353z" />
    <glyph glyph-name="five" unicode="5" 
d="M70 512l19 -180c26 30 60 39 88 39c74 0 170 -112 170 -200c0 -79 -76 -182 -156 -182c-95 0 -159 90 -159 150c0 17 11 33 34 33s41 -16 41 -41c0 -23 -15 -31 -28 -33c21 -32 67 -50 104 -50c27 0 41 17 63 49c16 24 34 50 34 80c0 36 -23 72 -37 93
c-33 51 -44 62 -64 62c-7 0 -64 0 -87 -62h-42l-32 324c53 -24 100 -29 131 -29c25 0 72 3 126 29c0 -5 3 -31 3 -33c0 -15 -76 -55 -155 -55c-5 0 -28 0 -53 6z" />
    <glyph glyph-name="six" unicode="6" 
d="M76 339c26 34 70 55 114 55c36 0 61 -13 109 -76c35 -47 51 -87 51 -143c0 -36 -6 -67 -48 -126c-24 -34 -49 -60 -95 -60c-121 0 -196 200 -196 330c0 105 77 275 181 275c81 0 110 -60 110 -95c0 -15 -9 -30 -31 -30c-21 0 -36 16 -36 36c0 6 0 11 5 18c0 1 2 4 2 5
c0 3 -31 4 -35 4c-28 0 -46 -2 -82 -69c-41 -75 -46 -108 -49 -124zM96 196c8 -23 55 -148 104 -148c34 0 89 105 89 141c0 35 -26 72 -45 99c-33 46 -50 67 -72 67c-45 0 -84 -38 -84 -99c0 -25 9 -49 13 -59c-1 0 -2 -1 -5 -1z" />
    <glyph glyph-name="seven" unicode="7" 
d="M161 583h148c21 0 31 0 31 -38l-51 -95c-56 -104 -82 -152 -82 -295c0 -22 0 -58 7 -122c0 -4 1 -11 1 -14c0 -18 -12 -30 -31 -30c-40 0 -40 43 -40 110c0 163 46 248 93 336l51 95h-236c-19 0 -20 -1 -23 -6c-4 -7 -10 -8 -16 -8c-9 0 -12 4 -16 11
c-11 15 -29 41 -29 47s4 14 16 14c4 0 10 -1 13 -5c26 0 28 0 36 2c16 4 18 4 38 4c8 0 21 0 40 -2c27 -4 46 -4 50 -4z" />
    <glyph glyph-name="eight" unicode="8" 
d="M221 322c66 -44 74 -52 86 -64c37 -38 50 -85 50 -114c0 -73 -81 -155 -151 -155s-182 87 -182 169c0 62 51 120 100 152c-43 28 -107 70 -107 149c0 65 71 135 129 135c65 0 158 -81 158 -147c0 -48 -41 -96 -83 -125zM189 344c52 30 74 76 74 104c0 48 -72 84 -111 84
c-37 0 -95 -30 -95 -69c0 -30 23 -45 57 -69zM157 287c-50 -25 -97 -79 -97 -132c0 -60 91 -107 141 -107c49 0 121 40 121 88c0 39 -30 60 -69 86c-37 26 -74 51 -96 65z" />
    <glyph glyph-name="nine" unicode="9" 
d="M278 246c-39 -49 -87 -57 -116 -57c-44 0 -68 26 -101 68c-20 25 -59 74 -59 150c0 55 27 94 48 124c23 32 50 63 100 63c116 0 191 -193 191 -333c0 -61 -16 -115 -46 -171c-38 -68 -73 -101 -124 -101c-83 0 -120 53 -120 95c0 19 12 30 30 30c25 0 37 -19 37 -37
c0 -7 -2 -13 -7 -19c-2 -2 -2 -3 -2 -4c0 -2 16 -6 46 -6c29 0 44 0 80 74c35 73 40 106 43 124zM257 387l-26 61c-8 18 -18 35 -29 51c-10 14 -25 33 -44 33c-22 0 -37 -21 -57 -52c-20 -32 -37 -59 -37 -87c0 -33 23 -67 48 -103c30 -40 45 -62 69 -62c36 0 83 28 83 99
c0 20 -4 40 -12 59c3 0 4 1 5 1z" />
    <glyph glyph-name="colon" unicode=":" horiz-adv-x="233" 
d="M100 528l7 -72h-72l-7 72h72zM146 72l7 -72h-72l-7 72h72z" />
    <glyph glyph-name="semicolon" unicode=";" horiz-adv-x="233" 
d="M100 528l7 -72h-72l-7 72h72zM81 0l-7 72h72c0 -4 3 -36 3 -37c2 -11 4 -26 4 -35c0 -17 -14 -165 -17 -194h-36v23c0 38 3 133 3 171h-22z" />
    <glyph glyph-name="exclamdown" unicode="&#xa1;" horiz-adv-x="188" 
d="M98 333l7 -72h-72l-7 72h72zM97 146l62 -424h-72l-23 424h33z" />
    <glyph glyph-name="equal" unicode="=" horiz-adv-x="633" 
d="M516 260h-457c-13 0 -37 0 -37 25s24 25 37 25h457c15 0 38 0 38 -25s-23 -25 -38 -25zM543 -4h-457c-14 0 -38 0 -38 25s24 25 38 25h457c14 0 38 0 38 -25s-24 -25 -38 -25z" />
    <glyph glyph-name="questiondown" unicode="&#xbf;" horiz-adv-x="388" 
d="M186 333l7 -72h-72l-7 72h72zM152 146h33c6 -63 6 -65 6 -81c0 -30 -2 -102 -50 -164c-9 -11 -19 -24 -19 -53c0 -46 48 -93 90 -93c14 0 83 4 105 50c-17 4 -29 18 -29 37c0 11 6 29 31 29c15 0 37 -9 37 -44c0 -66 -66 -111 -144 -111c-85 0 -146 61 -146 134
c0 40 15 60 30 75c47 50 61 105 61 156c0 11 0 13 -5 65z" />
    <glyph glyph-name="question" unicode="?" horiz-adv-x="388" 
d="M167 187h-19c-6 57 -6 58 -6 74c0 55 12 118 65 170c11 12 27 27 27 56c0 48 -65 91 -110 91c-24 0 -69 -10 -86 -50c27 -7 30 -30 30 -37c0 -8 -5 -29 -31 -29c-31 0 -37 27 -37 45c0 60 50 110 123 110c98 0 167 -63 167 -132c0 -45 -27 -69 -41 -82
c-28 -24 -73 -76 -73 -155c0 -27 4 -43 4 -56c0 -4 -1 -5 -13 -5zM212 72l7 -72h-72l-7 72h72z" />
    <glyph glyph-name="at" unicode="@" horiz-adv-x="633" 
d="M435 411l21 -215c2 -25 10 -46 31 -46c36 0 38 51 38 78c0 117 -29 171 -74 228c-25 31 -104 122 -192 122c-110 0 -208 -150 -208 -251c0 -62 26 -128 99 -204c73 -77 124 -90 170 -90c44 0 114 6 191 34c12 5 14 5 29 5h36c-75 -51 -163 -78 -254 -78
c-39 0 -101 7 -194 106c-59 62 -110 140 -110 230c0 117 113 287 237 287c84 0 160 -71 204 -121c78 -90 97 -157 97 -252c0 -32 -2 -133 -77 -133c-34 0 -61 31 -66 82c-37 -61 -72 -82 -108 -82c-72 0 -179 113 -179 210c0 77 68 179 141 179c63 0 120 -78 128 -89h40z
M302 150c62 0 103 95 103 120c0 7 -5 52 -6 61c-5 44 -73 130 -128 130c-56 0 -101 -84 -101 -142c0 -76 76 -169 132 -169z" />
    <glyph glyph-name="A" unicode="A" horiz-adv-x="566" 
d="M249 663l257 -606c24 0 31 -2 31 -40c0 -15 -9 -16 -10 -16c-2 0 -3 0 -6 2c-8 7 -19 11 -29 11c-3 0 -5 0 -6 -1c-10 -2 -12 -2 -21 -8l-6 -5c-14 4 -14 5 -16 24c-1 10 -9 30 -16 44l-69 165h-223l-40 -183c0 -2 -4 -16 -4 -17l2 -17c0 -14 -11 -16 -12 -16
c-2 3 -6 14 -22 14c-6 0 -11 -3 -15 -9c-2 -3 -2 -4 -5 -4c-15 0 -15 32 -15 39c0 11 7 16 17 16c5 4 12 10 16 30l129 577h63zM338 280l-81 199c-20 49 -39 96 -48 135l-1 -1c-3 -61 -46 -258 -63 -333h193z" />
    <glyph glyph-name="B" unicode="B" horiz-adv-x="555" 
d="M48 625h189c97 0 200 -97 200 -166c0 -55 -62 -111 -119 -131c61 -12 171 -84 171 -169c0 -64 -72 -159 -168 -159h-213c-24 0 -31 0 -31 39c0 4 0 10 5 14s3 19 3 20l-48 482c-1 3 -2 10 -2 14c-9 5 -15 7 -15 39c0 17 10 17 28 17zM109 556l21 -211h114
c70 0 115 71 115 114c0 37 -25 65 -38 79c-36 40 -66 40 -83 40h-127c-3 -8 -3 -10 -2 -11v-11zM165 47h127c80 0 123 77 123 116c0 6 -1 50 -50 100c-41 41 -61 43 -96 43h-135l26 -253c1 -1 4 -2 5 -6z" />
    <glyph glyph-name="C" unicode="C" horiz-adv-x="588" 
d="M475 636l13 -127h-44c-20 74 -123 80 -153 80c-52 0 -86 -25 -133 -89c-56 -78 -68 -127 -68 -169c0 -62 29 -121 97 -195c77 -86 112 -100 164 -100c144 0 144 47 144 74h33c0 -31 0 -67 -63 -97c-42 -19 -104 -24 -136 -24c-85 0 -146 54 -203 113
c-35 37 -108 127 -108 236c0 121 111 298 245 298c38 0 110 -8 159 -42l26 26c4 5 4 7 14 16h13z" />
    <glyph glyph-name="D" unicode="D" horiz-adv-x="600" 
d="M49 625h188c52 0 109 -19 191 -120c62 -76 93 -154 93 -223c0 -26 -3 -101 -73 -194c-65 -87 -120 -88 -149 -88h-190c-24 0 -31 0 -31 39c0 4 0 10 5 14s3 19 3 20l-48 482c-1 3 -2 10 -2 14c-9 5 -15 7 -15 39c0 17 10 17 28 17zM107 556l51 -503c1 -1 4 -2 5 -6h111
c39 0 66 7 113 83c38 60 58 104 58 158c0 77 -43 141 -99 210c-64 80 -95 80 -125 80h-112c-3 -8 -3 -10 -2 -11v-11z" />
    <glyph glyph-name="E" unicode="E" horiz-adv-x="577" 
d="M132 296l24 -240h175c5 0 24 0 56 4c47 6 56 6 69 6c25 0 35 -3 40 -3c1 0 14 0 14 8c0 6 0 17 16 17c10 0 12 -3 18 -13c22 -33 37 -55 37 -61c0 -14 -13 -14 -28 -14h-442c-24 0 -31 0 -31 39c0 4 0 10 5 14s3 19 3 20l-50 499c-9 4 -15 7 -15 42c0 14 13 14 27 14h410
c15 0 28 0 28 -14c0 -3 -1 -9 -10 -40c-8 -26 -9 -30 -22 -30c-10 0 -15 4 -17 13c-1 4 -2 9 -17 9c-6 0 -27 -4 -43 -4c-17 0 -19 0 -48 4c-45 6 -58 6 -69 6h-157l21 -215h86c35 0 43 5 78 5c10 0 24 0 34 -1c1 8 8 13 16 13c15 0 16 -6 19 -33c1 -8 5 -41 5 -47
c0 -9 -7 -15 -17 -15c-7 0 -14 3 -16 12l-2 1c-10 -1 -24 -1 -35 -1c-33 0 -45 5 -79 5h-83z" />
    <glyph glyph-name="F" unicode="F" horiz-adv-x="555" 
d="M134 284l22 -228c11 -3 18 -4 18 -38c0 -5 0 -17 -13 -18c-13 13 -31 14 -33 14c-21 0 -27 -9 -31 -14c-11 3 -17 5 -17 39c0 4 0 10 5 14s3 19 3 20l-50 499c-9 4 -15 7 -15 42c0 14 13 14 27 14h399c15 0 28 0 28 -14c0 -3 -1 -9 -10 -40c-8 -26 -9 -30 -22 -30
c-11 0 -15 5 -17 13c-1 5 -3 9 -17 9c-10 0 -10 -3 -40 -3c-12 0 -21 0 -55 4c-39 5 -47 5 -60 5h-151l22 -227h84c34 0 46 5 77 5c10 0 23 0 33 -1c2 10 10 13 17 13c15 0 15 -6 18 -32c1 -8 5 -42 5 -47c0 -11 -7 -16 -17 -16c-8 0 -14 4 -16 12c-3 1 -8 1 -10 1
c-8 0 -17 -1 -25 -1c-33 0 -45 5 -79 5h-80z" />
    <glyph glyph-name="G" unicode="G" horiz-adv-x="627" 
d="M524 147l15 -147c-11 6 -29 16 -46 32c-40 -43 -137 -43 -161 -43c-75 0 -130 34 -206 113c-35 37 -108 127 -108 236c0 121 111 298 245 298c38 0 110 -8 159 -42l26 26c4 5 4 7 14 16h13l13 -127h-44c-20 74 -123 80 -153 80c-52 0 -86 -25 -133 -89
c-56 -78 -68 -127 -68 -169c0 -62 29 -121 97 -195c86 -96 120 -100 169 -100c64 0 108 7 108 43c0 3 -5 55 -6 62c-2 7 -32 7 -52 7h-22c-23 0 -31 0 -31 40c0 14 10 15 13 15c1 0 3 0 8 -1c59 -12 101 -12 108 -12c11 0 40 0 73 12c3 1 4 2 7 2c11 0 16 -11 16 -39
c0 -15 -7 -16 -19 -17c-10 -1 -24 0 -35 -1z" />
    <glyph glyph-name="H" unicode="H" horiz-adv-x="522" 
d="M370 569l51 -513c9 -4 16 -7 16 -41c0 -10 -8 -14 -11 -14c-2 0 -5 2 -7 3c-10 9 -22 10 -26 10c-21 0 -27 -9 -31 -14c-11 3 -17 5 -17 39c0 4 0 10 5 14s3 15 3 20l-22 222h-198l23 -239c9 -4 16 -7 16 -41c0 -10 -8 -14 -11 -14c-2 0 -5 2 -7 3c-10 9 -22 10 -26 10
c-21 0 -27 -9 -31 -14c-11 3 -17 5 -17 39c0 4 0 10 5 14s3 19 3 20l-50 496c-9 5 -15 7 -15 39c0 3 0 15 13 17c10 -12 26 -14 31 -14c9 0 18 3 25 9c3 3 4 4 7 4c16 0 16 -31 16 -39c0 -12 -7 -15 -10 -16l21 -213h198l-21 213c-9 5 -15 7 -15 39c0 3 0 15 13 17
c10 -12 26 -14 31 -14c9 0 18 3 25 9c3 3 4 4 7 4c16 0 16 -31 16 -39c0 -12 -7 -15 -10 -16z" />
    <glyph glyph-name="I" unicode="I" horiz-adv-x="255" 
d="M105 569l51 -513c10 -4 16 -6 16 -39c0 -4 0 -15 -13 -17c-10 11 -24 14 -32 14c-9 0 -18 -3 -25 -10c-3 -2 -5 -3 -7 -3c-16 0 -16 31 -16 39c0 6 2 10 7 14c4 3 2 17 2 19l-50 496c-9 4 -16 7 -16 41c0 9 7 14 12 14c1 0 4 -2 6 -3c10 -8 23 -10 27 -10
c21 0 27 9 31 14c11 -3 17 -5 17 -39c0 -6 -2 -15 -10 -17z" />
    <glyph glyph-name="J" unicode="J" horiz-adv-x="400" 
d="M261 554l40 -403c2 -20 2 -21 2 -29c0 -59 -66 -133 -133 -133c-80 0 -143 63 -143 120c0 26 19 40 41 40c31 0 50 -24 50 -50c0 -10 -3 -29 -26 -37c27 -34 71 -34 73 -34c41 0 68 57 68 95c0 7 0 8 -2 28l-42 418c-11 2 -18 4 -18 41c0 8 5 14 13 15
c14 -13 32 -14 35 -14c10 0 18 3 25 10c3 3 5 3 7 3c15 0 15 -32 15 -39c0 -4 -1 -8 -4 -12c-2 -2 -3 -3 -3 -6z" />
    <glyph glyph-name="K" unicode="K" horiz-adv-x="588" 
d="M275 386l203 -292c25 -37 33 -37 50 -38c11 -1 20 -1 20 -39c0 -6 0 -9 -5 -14v-2l-1 -1c-1 1 -5 0 -6 1c-22 13 -33 13 -39 13s-19 -1 -32 -9c-5 -4 -7 -4 -9 -4c-14 0 -14 15 -14 18l-214 309l-88 -108l16 -164c9 -4 16 -7 16 -41c0 -10 -8 -14 -11 -14c-2 0 -5 2 -7 3
c-10 9 -22 10 -26 10c-21 0 -27 -9 -31 -14c-11 3 -17 5 -17 39c0 7 2 15 9 17l-51 513c-9 5 -15 7 -15 39c0 3 0 15 13 17c10 -12 26 -14 31 -14c9 0 18 3 25 9c3 3 4 4 7 4c16 0 16 -31 16 -39c0 -12 -7 -15 -10 -16l30 -300l278 342c0 3 2 12 12 14c5 -8 13 -14 23 -14
c9 0 13 7 14 14c12 -3 18 -4 18 -39c0 -15 -7 -16 -19 -17c-21 -2 -35 -6 -54 -22c-9 -8 -110 -133 -132 -161z" />
    <glyph glyph-name="L" unicode="L" horiz-adv-x="533" 
d="M106 565l50 -509h141c8 0 23 0 46 4c41 7 48 7 61 7c25 0 17 -2 32 -2c8 0 16 1 19 3v6c-2 4 0 14 15 14c9 0 12 -1 18 -13c5 -10 26 -54 26 -61c0 -14 -13 -14 -28 -14h-375c-24 0 -31 0 -31 39c0 4 0 10 5 14s3 19 3 20l-48 482c-1 3 -2 10 -2 14c-9 5 -15 7 -15 39
c0 3 0 15 13 17c9 -10 23 -14 32 -14c3 0 4 0 5 1c10 2 12 2 21 8l6 5c11 -3 17 -5 17 -42c0 -1 0 -8 -8 -13c-3 -1 -3 -2 -3 -5z" />
    <glyph glyph-name="M" unicode="M" horiz-adv-x="655" 
d="M433 560l-108 -560h-36l-224 571l-1 -1l49 -490c1 -10 1 -13 5 -25c4 -4 3 1 7 -6c3 -5 6 -28 6 -34c0 -7 -5 -13 -13 -15c-2 13 -12 13 -13 13c-9 0 -11 -7 -11 -13c-11 3 -18 4 -18 39c0 3 0 12 7 15c1 3 1 5 1 12l-48 489c-1 3 -2 10 -2 14c-9 5 -15 7 -15 39
c0 17 10 17 28 17h75l193 -492l94 492h78c23 0 31 0 31 -40c0 -12 -7 -15 -10 -16l51 -513c9 -4 16 -7 16 -41c0 -10 -8 -14 -11 -14c-2 0 -3 0 -5 2c-7 4 -18 11 -33 11c-21 0 -29 -9 -34 -14c-11 3 -17 5 -17 39c0 4 0 10 5 14s3 19 3 20l-49 487h-1z" />
    <glyph glyph-name="N" unicode="N" horiz-adv-x="522" 
d="M373 542l54 -542h-30l-327 561h-1l48 -481c1 -10 1 -13 5 -25c4 -4 3 1 7 -6c3 -5 6 -28 6 -34c0 -7 -5 -13 -13 -15c-2 13 -12 13 -13 13c-9 0 -11 -7 -11 -13c-11 3 -18 4 -18 39c0 3 0 12 7 15c1 3 1 5 1 12l-48 489c-1 3 -2 10 -2 14c-9 5 -15 7 -15 39
c0 17 10 17 28 17h65l263 -450h1l-37 367c-2 23 -7 27 -9 30c-9 7 -9 33 -9 36c0 5 1 15 12 17c0 -1 2 -13 14 -13c2 0 11 0 11 13c10 -3 18 -5 18 -40c0 -6 -2 -11 -8 -14c0 -18 0 -20 1 -29z" />
    <glyph glyph-name="O" unicode="O" horiz-adv-x="677" 
d="M598 291c0 -126 -125 -302 -258 -302c-134 0 -323 193 -323 350c0 123 125 297 259 297c132 0 322 -187 322 -345zM336 24c55 0 92 39 130 98c33 53 59 114 59 178c0 62 -24 125 -88 199c-52 61 -101 101 -158 101c-100 0 -191 -160 -191 -254c0 -104 77 -196 105 -230
c34 -41 83 -92 143 -92z" />
    <glyph glyph-name="P" unicode="P" horiz-adv-x="533" 
d="M133 270l21 -214c9 -4 16 -7 16 -41c0 -10 -8 -14 -11 -14c-2 0 -5 2 -7 3c-10 9 -22 10 -26 10c-21 0 -27 -9 -31 -14c-11 3 -17 5 -17 39c0 4 0 10 5 14s3 19 3 20l-48 482c-1 3 -2 10 -2 14c-9 5 -15 7 -15 39c0 17 10 17 28 17h176c103 0 214 -110 214 -190
c0 -67 -79 -165 -178 -165h-128zM107 556l25 -243h103c28 0 46 2 85 44c24 27 47 51 47 82c0 33 -27 61 -59 90c-50 44 -66 49 -99 49h-100c-3 -8 -3 -10 -2 -11v-11z" />
    <glyph glyph-name="Q" unicode="Q" horiz-adv-x="677" 
d="M634 -17c1 -12 1 -27 1 -39c0 -50 -7 -138 -82 -138c-44 0 -71 26 -88 69c-19 47 -19 74 -39 136c-38 -20 -79 -23 -92 -23c-114 0 -317 184 -317 351c0 123 125 297 259 297c132 0 322 -187 322 -345c0 -113 -87 -227 -162 -273c33 -90 51 -140 116 -140
c54 0 79 48 82 105zM260 52c-1 2 -3 11 -3 22c0 34 24 70 69 70c57 0 79 -49 94 -80c28 26 103 126 103 228c0 68 -32 135 -89 204c-45 55 -95 104 -155 104c-100 0 -187 -169 -187 -262c0 -135 134 -263 168 -286zM338 25c12 1 42 2 72 29c-16 31 -44 51 -79 51
c-32 0 -35 -29 -35 -35c0 -2 0 -37 38 -43l2 -1z" />
    <glyph glyph-name="R" unicode="R" horiz-adv-x="577" 
d="M562 78c1 -4 1 -11 1 -13c0 -7 0 -76 -60 -76c-24 0 -69 4 -109 39c-30 27 -33 61 -39 121c-5 54 -7 70 -26 95c-38 49 -87 49 -104 49h-91l23 -237c9 -4 16 -7 16 -41c0 -10 -8 -14 -11 -14s-4 1 -6 2c-11 9 -22 11 -29 11c-21 0 -28 -9 -32 -14c-11 3 -17 5 -17 39
c0 4 0 10 5 14s3 19 3 20l-48 482c-1 3 -2 10 -2 14c-9 5 -15 7 -15 39c0 17 10 17 28 17h145c104 0 233 -98 233 -179c0 -72 -99 -127 -111 -133c89 -43 99 -106 106 -149c4 -27 10 -63 12 -73c8 -33 31 -63 67 -63c28 0 28 28 28 50h33zM210 332c25 0 48 0 95 42
c28 25 50 48 50 76c0 34 -35 60 -62 81c-56 43 -76 47 -107 47h-77c-3 -8 -3 -10 -2 -11v-11l23 -224h80z" />
    <glyph glyph-name="S" unicode="S" horiz-adv-x="455" 
d="M319 636l22 -218h-33c-22 122 -96 159 -157 159c-48 0 -82 -57 -82 -94c0 -34 23 -88 72 -104c3 0 19 -5 73 -19c64 -18 98 -27 140 -88c16 -25 36 -73 36 -114c0 -65 -62 -169 -142 -169c-70 0 -126 32 -158 68l-25 -68h-14l-22 218h33c14 -127 113 -162 179 -162
c51 0 82 65 82 106c0 34 -13 67 -36 94c-18 21 -32 25 -101 43c-69 19 -99 27 -135 68c-46 54 -48 107 -48 122c0 67 66 158 142 158c42 0 94 -15 136 -67l25 67h13z" />
    <glyph glyph-name="T" unicode="T" horiz-adv-x="633" 
d="M293 575l51 -519c12 -1 20 -2 20 -39c0 -4 0 -16 -13 -17c-13 12 -30 14 -36 14c-11 0 -22 -4 -30 -10c-3 -3 -4 -3 -6 -3c-16 0 -16 30 -16 39c0 6 2 11 8 15c5 2 7 3 5 19l-51 501h-102c-3 0 -70 -2 -112 -10c0 -8 0 -18 -16 -18c-11 0 -12 1 -24 32
c-5 13 -13 34 -13 38c0 14 12 14 28 14h538c17 0 28 0 28 -15c0 -5 -5 -31 -7 -41c-5 -22 -6 -28 -20 -28c-13 0 -16 9 -16 16c-24 8 -89 12 -116 12h-100z" />
    <glyph glyph-name="U" unicode="U" horiz-adv-x="544" 
d="M395 542l32 -321c2 -20 2 -21 2 -31c0 -82 -69 -201 -151 -201c-84 0 -195 124 -204 219l-36 361c-9 5 -15 7 -15 39c0 3 0 15 13 17c10 -12 26 -14 31 -14c9 0 18 3 25 9c3 3 4 4 7 4c16 0 16 -31 16 -39c0 -12 -7 -15 -10 -16l36 -358c4 -35 18 -65 54 -111
c25 -33 49 -64 80 -64c54 0 110 111 110 160l-34 346c-2 23 -6 27 -9 30c-9 7 -9 33 -9 36s0 15 13 17c3 -7 11 -14 20 -14c2 0 14 1 17 14c11 -2 19 -4 19 -40c0 -6 -2 -11 -8 -14c0 -18 0 -20 1 -29z" />
    <glyph glyph-name="V" unicode="V" horiz-adv-x="566" 
d="M457 538l-139 -563h-64l-266 593c-23 0 -32 1 -32 41c0 8 4 11 7 14l1 2c2 -2 6 -2 9 -4c16 -10 22 -10 28 -10c10 0 20 3 29 10c2 2 4 3 6 3c13 0 14 -13 14 -18c1 -12 2 -14 6 -24l118 -265c24 -53 46 -107 68 -161c14 -32 47 -113 54 -144h1c0 58 59 299 62 313
l62 255c2 10 4 17 2 28c0 4 0 15 12 17c4 -8 13 -14 22 -14c8 0 15 6 17 14c11 -3 17 -5 17 -41c0 -12 -8 -14 -14 -15c-4 -1 -13 -3 -20 -31z" />
    <glyph glyph-name="W" unicode="W" horiz-adv-x="788" 
d="M390 567l133 -367c10 -28 21 -63 31 -94c9 -31 21 -70 25 -93v11c0 27 7 85 13 133c7 57 16 114 25 170l39 233c3 16 3 18 3 23c0 7 -2 17 -2 24c0 4 0 16 12 18c1 -5 7 -14 16 -14s11 7 11 14c11 -3 17 -5 17 -41c0 -11 -7 -14 -15 -15c-4 -6 -8 -10 -11 -28l-98 -566
h-51l-204 546h-1c-7 -139 -43 -346 -77 -546h-51l-222 594c-18 0 -27 0 -27 40c0 10 7 15 10 15c2 0 3 0 9 -4c7 -5 16 -9 25 -9c8 0 19 3 28 10c2 2 4 3 6 3c13 0 14 -14 15 -29c1 -6 1 -8 8 -28l129 -359c40 -112 58 -181 60 -195v13c0 32 8 98 11 125c9 64 12 90 23 154
l39 231c1 4 2 14 3 18l-6 15c-18 0 -27 0 -27 40c0 10 7 15 10 15c2 0 3 0 9 -4c7 -5 16 -9 25 -9c8 0 19 3 28 10c2 2 4 3 6 3c13 0 14 -13 15 -29c1 -7 1 -9 8 -28z" />
    <glyph glyph-name="X" unicode="X" horiz-adv-x="566" 
d="M279 342l204 -266c15 -19 18 -20 39 -20c18 0 26 0 26 -38c0 -6 0 -11 -5 -15l-3 -3c-2 2 -9 4 -11 5c-18 9 -28 9 -33 9c-11 0 -23 -3 -33 -10c-5 -3 -7 -3 -8 -3c-5 0 -11 2 -13 11c-1 3 -1 5 -10 16l-190 249l-141 -251c0 -21 -1 -22 -12 -26c-10 12 -25 14 -31 14
c-11 0 -22 -5 -28 -14c-11 4 -17 6 -17 40c0 15 11 16 17 16c17 1 38 6 54 34l127 226l-180 235c-12 16 -15 18 -37 18c-18 0 -27 0 -27 40c0 8 3 11 7 14l1 2c2 -2 9 -3 11 -5c19 -9 25 -9 33 -9c9 0 22 3 33 9c5 4 7 4 9 4c8 0 12 -6 13 -13c1 -1 1 -3 8 -12l166 -217
l115 204c6 10 6 12 6 22c0 3 1 15 12 17c8 -9 20 -14 32 -14c11 0 22 5 28 14c11 -3 17 -5 17 -39c0 -16 -9 -16 -17 -17c-35 -3 -45 -21 -54 -36z" />
    <glyph glyph-name="Y" unicode="Y" horiz-adv-x="566" 
d="M442 536l-148 -286l19 -194c10 -4 15 -7 15 -38c0 -5 -1 -17 -11 -17c-2 0 -3 1 -5 2c-9 8 -21 11 -29 11c-21 0 -28 -9 -32 -14c-11 3 -17 5 -17 39c0 4 0 10 5 14s3 15 3 20l-18 177l-216 301c-13 17 -18 18 -34 18c-18 0 -27 0 -27 40c0 8 3 11 7 14l1 2l10 -4
c19 -10 23 -10 32 -10c7 0 20 2 32 11c4 2 6 2 7 2c3 0 13 -1 13 -18c94 -130 208 -287 223 -345h1c3 39 43 123 62 163c29 62 59 123 92 183v4c-1 5 5 13 10 13c1 0 3 0 6 -4c4 -4 12 -9 20 -9c16 0 19 11 20 14c11 -3 17 -5 17 -38c0 -8 0 -16 -15 -18
c-25 -3 -35 -17 -43 -33z" />
    <glyph glyph-name="Z" unicode="Z" horiz-adv-x="500" 
d="M391 587l-261 -534h128c9 0 23 0 55 4c39 5 48 5 60 5h12c14 0 21 0 30 5v5c-2 4 2 14 15 14c12 0 13 -1 24 -32c4 -14 11 -36 11 -40c0 -14 -13 -14 -28 -14h-387c-1 7 -2 28 -3 36l261 533h-116c-14 0 -20 0 -54 -5c-29 -4 -32 -4 -48 -4c-29 0 -24 2 -34 2
c-15 0 -16 -4 -17 -9c-2 -9 -8 -12 -16 -12c-13 0 -14 4 -21 28c-10 37 -10 39 -10 42c0 14 13 14 28 14h368z" />
    <glyph glyph-name="bracketleft" unicode="[" horiz-adv-x="236" 
d="M79 617l93 -928h45c24 0 31 0 31 -35c0 -15 -13 -15 -29 -15h-65c-23 0 -28 0 -30 25l-97 975v11c-4 17 12 17 27 17h65c23 0 31 0 31 -34c0 -16 -12 -16 -29 -16h-42z" />
    <glyph glyph-name="quotedblleft" unicode="&#x201c;" 
d="M161 611l-1 -118c0 -20 0 -55 -2 -76h22l7 -72h-72l-7 72l17 194h36zM317 611l-1 -118c0 -20 0 -55 -2 -76h22l7 -72h-72l-7 72l17 194h36z" />
    <glyph glyph-name="bracketright" unicode="]" horiz-adv-x="236" 
d="M81 642l97 -969c0 -4 2 -16 2 -19c0 -15 -13 -15 -29 -15h-65c-23 0 -30 0 -30 32c0 18 8 18 28 18h42l-93 928h-45c-23 0 -30 0 -30 33c0 17 9 17 28 17h65c24 0 27 0 30 -25z" />
    <glyph glyph-name="circumflex" unicode="&#x2c6;" 
d="M160 607l86 -31c12 -4 17 -6 17 -17c0 -1 0 -17 -15 -17l-12 2l-88 19l-84 -19c-9 -2 -11 -2 -12 -2c-14 0 -16 15 -16 18c0 9 5 11 17 16l92 35c6 -1 7 -1 15 -4z" />
    <glyph glyph-name="dotaccent" unicode="&#x2d9;" horiz-adv-x="233" 
d="M91 612l2 -17h-72l-2 17h72z" />
    <glyph glyph-name="quoteleft" unicode="&#x2018;" horiz-adv-x="233" 
d="M92 611l-1 -118c0 -20 0 -55 -2 -76h22l7 -72h-72l-7 72l17 194h36z" />
    <glyph glyph-name="a" unicode="a" horiz-adv-x="402" 
d="M270 24c-47 -30 -125 -30 -135 -30c-79 0 -99 74 -99 95c0 65 125 97 217 97c-13 139 -16 165 -48 232c-31 63 -49 80 -74 80c-67 0 -67 -86 -67 -116c0 -10 1 -44 3 -62c1 -5 2 -5 9 -7c25 -7 29 -24 29 -36c0 -19 -12 -30 -31 -30c-33 0 -36 30 -37 48
c-3 27 -5 50 -5 79c0 66 11 163 96 163c64 0 115 -111 125 -132c29 -61 30 -76 44 -214c4 -37 7 -73 11 -110c3 -27 5 -44 31 -44c13 0 23 5 23 19c0 6 -3 26 -3 29c0 9 7 15 17 15c11 0 20 -4 20 -48c0 -30 -29 -55 -69 -55c-23 0 -43 11 -57 27zM262 104l-5 43
c-61 -1 -159 -17 -159 -60c0 -21 22 -54 74 -54c49 0 85 20 85 36c0 3 -2 16 -2 20c0 11 6 15 7 15z" />
    <glyph glyph-name="b" unicode="b" horiz-adv-x="438" 
d="M74 594l13 -129c19 37 51 69 106 69c29 0 63 -8 122 -103c46 -76 61 -141 61 -198c0 -79 -47 -239 -130 -239c-38 0 -86 17 -128 73v-37c0 -19 0 -30 -17 -30c-15 0 -16 10 -18 26l-54 541c0 1 -3 16 -3 18c-1 0 -2 0 -3 1l-2 1c-2 9 -6 23 -6 36s11 16 14 16
c4 0 8 0 28 -21c6 -5 7 -6 11 -7c3 -1 4 -2 6 -17zM91 389l25 -250c4 -40 44 -106 103 -106c30 0 45 23 71 85c8 19 30 73 30 125c0 51 -22 105 -46 150c-57 102 -74 102 -93 102c-71 0 -89 -73 -87 -105c-1 0 -2 0 -3 -1z" />
    <glyph glyph-name="c" unicode="c" horiz-adv-x="366" 
d="M298 83h33c-13 -58 -63 -89 -122 -89c-36 0 -74 16 -132 103c-43 62 -67 129 -67 196c0 86 57 244 143 244c88 0 121 -97 137 -172c7 -39 13 -89 13 -95c0 -8 -5 -29 -31 -29c-24 0 -37 20 -37 37c0 28 23 30 31 31c-10 101 -33 192 -108 192c-32 0 -46 -29 -66 -81
c-19 -53 -26 -97 -26 -129c0 -60 21 -112 51 -161c49 -80 77 -100 109 -100c23 0 61 8 72 53z" />
    <glyph glyph-name="d" unicode="d" horiz-adv-x="438" 
d="M292 611l54 -539c0 -1 3 -16 3 -18c2 -3 4 0 7 -6c1 -5 4 -27 4 -32c0 -13 -10 -16 -14 -16c-5 0 -10 4 -13 7c-4 5 -16 17 -18 18c-2 2 -7 2 -9 3l-4 35c-40 -60 -90 -69 -118 -69c-35 0 -66 17 -120 113c-31 54 -54 122 -54 186c0 80 51 241 139 241
c48 0 83 -26 109 -59l-9 92c0 1 -3 16 -3 18c-1 0 -2 0 -3 1l-2 1c-2 9 -6 23 -6 36s11 16 14 16c4 0 8 0 28 -21c3 -2 5 -4 7 -5c3 -2 7 -2 8 -2zM295 145l-24 234c-1 9 -1 11 -5 16c-8 49 -44 100 -99 100c-28 0 -45 -21 -69 -81c-26 -62 -31 -94 -31 -128
c0 -44 10 -85 48 -154c47 -86 67 -99 90 -99c65 0 94 75 90 112z" />
    <glyph glyph-name="e" unicode="e" horiz-adv-x="366" 
d="M322 167h-226c21 -39 54 -83 54 -84c28 -36 50 -53 77 -53c7 0 57 2 71 52h33c-17 -66 -80 -88 -123 -88c-46 0 -83 31 -127 93c-46 63 -75 133 -75 208c0 85 53 242 135 242c88 0 162 -166 181 -370zM78 206h167c-4 37 -38 292 -100 292c-48 0 -83 -158 -83 -208
c0 -10 1 -45 16 -84z" />
    <glyph glyph-name="f" unicode="f" horiz-adv-x="255" 
d="M87 481l42 -425c9 -5 15 -8 15 -40c0 -13 -10 -16 -11 -16c-1 1 -7 14 -23 14c-8 0 -14 -6 -16 -14c-11 3 -18 4 -18 42c0 3 1 7 3 10c3 3 2 16 2 20l-41 409h-40c-23 0 -30 0 -30 29c0 18 8 18 28 18h37c-1 6 -2 18 -2 23c0 39 99 66 141 66c36 0 41 -33 41 -43
c0 -24 -19 -28 -28 -28c-8 0 -30 4 -34 32c-28 -1 -70 -11 -70 -29c0 -3 2 -17 2 -21h64c23 0 30 0 30 -29c0 -18 -8 -18 -28 -18h-64z" />
    <glyph glyph-name="g" unicode="g" 
d="M230 465l-1 -1c20 -28 53 -79 53 -140c0 -64 -48 -174 -114 -174c-23 0 -47 12 -74 40c-4 -11 -13 -38 -13 -66c0 -78 50 -78 67 -78h52c20 0 92 0 144 -52c51 -51 52 -124 52 -125c0 -68 -83 -154 -162 -154c-75 0 -195 88 -195 179c0 43 21 90 52 126
c-41 31 -48 85 -48 112c0 23 6 60 23 93c-20 29 -49 76 -49 135c0 71 51 174 113 174c34 0 57 -23 80 -46c17 32 51 51 85 51s50 -32 50 -51c0 -14 -11 -22 -23 -22c-4 0 -23 1 -27 25h17c-2 9 -12 9 -15 9c-6 0 -42 -3 -56 -41zM202 3h-48c-23 0 -36 0 -54 -38
c-16 -31 -19 -59 -19 -72c0 -76 94 -142 149 -142c61 0 124 67 124 120c0 4 0 132 -152 132zM165 186c25 0 52 104 52 142c0 60 -61 170 -83 170c-26 0 -53 -109 -53 -141c0 -59 60 -171 84 -171z" />
    <glyph glyph-name="h" unicode="h" horiz-adv-x="438" 
d="M69 592l13 -122h1c22 51 65 64 98 64c34 0 65 -21 92 -68c33 -60 41 -140 46 -186c8 -75 15 -149 22 -224c7 -5 13 -10 13 -40c0 -10 -7 -15 -10 -15c-2 0 -3 1 -5 4c-4 6 -11 9 -15 9c-14 0 -15 -11 -16 -14c-11 3 -17 5 -17 42c0 4 3 10 6 12c-7 75 -14 150 -22 225
c-4 43 -22 216 -103 216c-61 0 -78 -64 -78 -144c0 -20 26 -269 29 -297l2 -2c7 -7 7 -31 7 -36c0 -1 0 -3 -2 -8l-2 -8c-1 2 -7 0 -8 2c-12 11 -13 12 -18 12c-14 0 -15 -11 -16 -14c-11 3 -17 5 -17 42c0 4 3 11 6 13l-51 510c-1 9 -2 13 -3 20c-1 0 -2 0 -3 1l-2 1
c-2 9 -6 23 -6 36s11 16 14 16c4 0 8 0 29 -21c5 -5 5 -6 8 -7c5 -2 6 -3 8 -19z" />
    <glyph glyph-name="i" unicode="i" horiz-adv-x="216" 
d="M76 612l5 -56h-72l-5 56h72zM72 72l-39 384c0 2 0 3 -1 4l-1 13c-9 10 -11 13 -11 38c0 5 1 17 14 17c4 0 7 -1 24 -18c8 -8 10 -8 14 -10c3 -1 4 -2 6 -17l41 -412c1 -14 1 -16 4 -18c9 -8 9 -36 9 -37c0 -6 -1 -12 -6 -16h-7c-4 12 -15 14 -18 14c-8 0 -14 -6 -16 -14
c-11 3 -18 4 -18 42c0 3 1 7 3 10c3 3 2 16 2 20z" />
    <glyph glyph-name="j" unicode="j" horiz-adv-x="238" 
d="M82 612l5 -56h-72l-5 56h72zM107 -109l-57 564c-1 6 -1 11 -2 17c-7 6 -12 11 -12 41c0 9 6 15 13 15c5 0 7 0 23 -15c11 -11 14 -12 17 -13s4 -2 6 -17l57 -576c1 -15 2 -20 2 -34c0 -96 -40 -157 -103 -157c-49 0 -77 45 -77 77c0 16 11 29 30 29c21 0 37 -15 37 -37
c0 -17 -6 -21 -10 -24c10 -4 21 -6 29 -6c47 0 50 49 50 83c0 22 0 24 -3 53z" />
    <glyph glyph-name="k" unicode="k" horiz-adv-x="416" 
d="M114 188l160 321v5c-1 3 2 11 11 14c1 -2 4 -14 19 -14c9 0 9 7 9 14c10 -1 18 -2 18 -39c0 -13 -5 -15 -15 -17c-8 -1 -22 -3 -33 -24c-2 -2 -23 -44 -70 -139l73 -126l63 -107c12 -18 15 -18 32 -20c16 -2 16 -29 16 -41c0 -4 -2 -6 -4 -11c-2 -2 -3 -3 -9 -4
c-1 2 -7 14 -22 14c-9 0 -18 -7 -21 -14c-2 1 -8 2 -10 4c-2 1 -4 3 -4 6c-4 10 -4 12 -17 34l-124 211l-63 -126c1 -15 5 -56 7 -73c7 -5 13 -10 13 -40c0 -10 -7 -15 -10 -15c-2 0 -3 0 -5 3c-5 7 -13 10 -18 10c-9 0 -16 -5 -18 -14c-11 3 -18 4 -18 42c0 4 3 11 6 13
l-51 510c-1 9 -2 13 -3 20c-1 0 -2 0 -3 1l-2 1c-2 9 -6 23 -6 36s11 16 14 16c4 0 8 0 29 -21c5 -5 5 -6 8 -7c5 -2 6 -3 8 -19z" />
    <glyph glyph-name="l" unicode="l" horiz-adv-x="216" 
d="M67 594l52 -522c2 -15 2 -17 5 -19c9 -8 9 -29 9 -37c0 -10 -7 -15 -10 -15c-2 0 -3 0 -6 5c-2 3 -9 8 -16 8c-8 0 -14 -6 -16 -14c-11 3 -18 4 -18 42c0 3 1 7 3 10c3 3 2 16 2 20l-50 495c0 1 -3 16 -3 18c-1 0 -2 0 -3 1l-2 1c-2 9 -6 23 -6 36s11 16 14 16
c4 0 8 0 28 -21c6 -5 7 -6 11 -7c3 -1 4 -2 6 -17z" />
    <glyph glyph-name="m" unicode="m" horiz-adv-x="661" 
d="M96 350l28 -283c1 -12 3 -17 3 -18c4 -10 4 -25 4 -49h-12c-4 11 -14 14 -17 14c-14 0 -15 -11 -16 -14c-11 3 -17 5 -17 42c0 3 1 7 3 10c3 3 2 16 2 20l-39 384c0 2 0 3 -1 4l-1 13c-8 8 -12 12 -12 40c0 9 7 15 14 15c4 0 7 0 31 -22l7 -5c2 -1 6 0 8 -1l3 -26
c19 38 53 60 97 60c58 0 91 -61 109 -106c17 71 56 106 113 106c91 0 126 -135 138 -254c8 -75 15 -149 22 -224c7 -5 13 -10 13 -40c0 -10 -7 -15 -10 -15c-2 0 -3 1 -5 4c-4 6 -11 9 -15 9c-14 0 -15 -11 -16 -14c-11 3 -17 5 -17 42c0 3 1 7 3 10c3 3 2 16 2 20l-24 240
c-4 40 -13 80 -29 118c-13 30 -35 65 -71 65c-61 0 -78 -64 -78 -144c0 -31 0 -33 25 -295c7 -5 13 -10 13 -40c0 -10 -7 -15 -10 -15c-2 0 -3 1 -5 4c-4 6 -11 9 -15 9c-14 0 -15 -11 -16 -14c-11 3 -17 5 -17 42c0 3 1 7 3 10c3 3 2 16 2 20l-24 240c-4 40 -13 80 -29 118
c-13 30 -35 65 -71 65c-68 0 -77 -84 -77 -129z" />
    <glyph glyph-name="n" unicode="n" horiz-adv-x="438" 
d="M96 350l28 -283c1 -12 3 -17 3 -18c4 -10 4 -25 4 -49h-12c-4 11 -14 14 -17 14c-14 0 -15 -11 -16 -14c-11 3 -17 5 -17 42c0 3 1 7 3 10c3 3 2 16 2 20l-39 384c0 2 0 3 -1 4l-1 13c-8 8 -12 12 -12 40c0 9 7 15 14 15c4 0 7 0 31 -22l7 -5c2 -1 6 0 8 -1l3 -26
c19 38 53 60 97 60c91 0 126 -135 138 -254c8 -75 15 -149 22 -224c7 -5 13 -10 13 -40c0 -10 -7 -15 -10 -15c-2 0 -3 1 -5 4c-4 6 -11 9 -15 9c-14 0 -15 -11 -16 -14c-11 3 -17 5 -17 42c0 3 1 7 3 10c3 3 2 16 2 20l-24 240c-4 40 -13 80 -29 118c-13 30 -35 65 -71 65
c-68 0 -77 -84 -77 -129z" />
    <glyph glyph-name="o" unicode="o" 
d="M352 238c0 -86 -59 -244 -146 -244c-50 0 -89 42 -127 95c-42 60 -73 130 -73 206c0 90 61 242 146 242s200 -169 200 -299zM202 30c53 0 93 162 93 219c0 41 -10 87 -48 154c-36 60 -61 95 -91 95c-52 0 -94 -143 -94 -202c0 -45 13 -95 49 -162c37 -69 63 -104 91 -104
z" />
    <glyph glyph-name="p" unicode="p" horiz-adv-x="438" 
d="M106 -205l-66 659c0 3 -2 17 -2 19c-1 0 -5 2 -7 7s-5 27 -5 33c0 9 7 15 14 15c5 0 8 0 27 -20c3 -2 5 -4 6 -6c2 -1 8 -1 10 -2l4 -34c20 37 52 68 105 68c29 0 66 -9 127 -111c50 -84 57 -148 57 -190c0 -48 -10 -95 -34 -148c-28 -61 -53 -91 -96 -91
c-49 0 -93 29 -122 65l27 -264c2 -16 3 -17 5 -19c9 -8 9 -38 9 -39c0 -5 -3 -10 -7 -13c-1 -16 -13 -16 -22 -16c-10 0 -21 0 -22 15c-4 4 -3 -1 -7 6c-3 5 -6 28 -6 34c0 4 2 8 4 11c2 2 3 3 3 7zM91 393c4 -40 23 -244 26 -267c1 -4 30 -93 103 -93c38 0 55 31 75 81
c20 48 25 90 25 121c0 58 -18 117 -44 165c-36 70 -60 98 -94 98c-73 0 -90 -73 -88 -104c-1 -1 -2 -1 -3 -1z" />
    <glyph glyph-name="q" unicode="q" horiz-adv-x="416" 
d="M303 509l72 -716c1 -14 2 -15 5 -17c9 -8 9 -38 9 -39c0 -8 -6 -14 -10 -14c-2 0 -3 1 -5 4c-4 6 -11 9 -15 9c-13 0 -15 -10 -16 -14c-10 3 -18 5 -18 41c0 4 2 8 4 11c3 3 2 16 2 20l-27 260c-32 -37 -78 -60 -127 -60c-40 0 -66 25 -109 102c-49 85 -58 158 -58 196
c0 83 54 242 143 242c48 0 88 -26 115 -70c0 4 0 6 -1 8c-1 10 -1 12 -1 41c0 10 0 21 18 21c16 0 17 -8 19 -25zM296 108l-25 248c-5 49 -36 142 -105 142s-100 -148 -100 -204c0 -33 6 -90 40 -159c52 -102 82 -102 99 -102c37 0 77 24 94 74c-1 1 -2 1 -3 1z" />
    <glyph glyph-name="r" unicode="r" horiz-adv-x="313" 
d="M107 309l14 -143h-5c4 -35 8 -73 11 -110c9 -5 15 -8 15 -40c0 -13 -10 -16 -11 -16c-1 1 -7 14 -23 14c-8 0 -14 -6 -16 -14c-11 3 -18 4 -18 42c0 3 1 7 3 10c3 3 2 16 2 20l-39 384c0 2 0 3 -1 4l-1 13c-8 8 -12 12 -12 40c0 9 7 15 14 15c6 0 10 -3 21 -13
c5 -4 16 -13 19 -14s7 -1 8 -1l2 -16c22 39 58 50 84 50c45 0 65 -45 65 -69c0 -23 -16 -28 -28 -28c-21 0 -33 18 -33 33c0 17 8 22 11 24c-29 0 -84 0 -84 -145c0 -19 0 -21 2 -40z" />
    <glyph glyph-name="s" unicode="s" horiz-adv-x="326" 
d="M220 537l19 -189h-33c-5 56 -20 148 -98 148c-29 0 -66 -19 -66 -78c0 -44 23 -71 25 -73c18 -19 25 -21 77 -36c37 -11 67 -20 100 -64c25 -35 36 -78 36 -115c0 -86 -52 -136 -117 -136c-21 0 -64 4 -97 52l-19 -52h-13l-23 222h33c22 -105 44 -183 115 -183
c43 0 72 36 72 91c0 30 -10 62 -24 83c-21 28 -35 32 -84 47c-33 9 -65 18 -96 57c-33 43 -34 84 -34 101c0 85 58 125 117 125c13 0 51 -1 81 -36l16 36h13z" />
    <glyph glyph-name="t" unicode="t" horiz-adv-x="322" 
d="M91 481l39 -392c6 -58 50 -59 56 -59c29 0 45 25 45 47c0 5 -3 27 -3 31s0 17 16 17c12 0 20 -3 20 -48c0 -61 -65 -83 -104 -83c-36 0 -67 32 -73 90l-40 397h-47c-21 0 -30 0 -30 24c0 13 11 14 18 15c44 5 60 39 59 73c-1 11 3 18 16 18c15 0 15 -5 19 -35
c0 -2 4 -43 4 -48h92c23 0 30 0 30 -29c0 -18 -8 -18 -28 -18h-89z" />
    <glyph glyph-name="u" unicode="u" horiz-adv-x="438" 
d="M299 483l41 -411c0 -1 3 -16 3 -18c2 -3 4 0 7 -6c1 -5 4 -27 4 -32c0 -13 -10 -16 -14 -16c-7 0 -12 5 -18 11c-5 6 -13 13 -17 15c-3 2 -7 2 -8 2v5c-44 -35 -117 -39 -137 -39c-58 0 -82 37 -87 88l-38 374c0 2 0 3 -1 4l-1 13c-8 8 -12 12 -12 40c0 9 7 15 14 15
c3 0 9 0 19 -12c2 -3 11 -14 17 -16c3 -1 5 -2 6 -17l38 -387c2 -23 5 -31 31 -46c25 -15 43 -17 55 -17c31 0 79 14 90 57v3c-1 2 -2 12 -2 18c1 0 2 0 3 1l-35 344c0 2 0 3 -1 4l-1 13c-8 8 -12 12 -12 40c0 9 7 15 14 15c3 0 9 0 19 -12c2 -3 11 -14 17 -16
c3 -1 4 -2 6 -17z" />
    <glyph glyph-name="v" unicode="v" horiz-adv-x="416" 
d="M324 441l-89 -454h-51l-186 472l-6 13c-17 0 -26 0 -26 39c0 3 3 16 5 17c1 -2 6 -1 8 -2c7 -9 10 -12 17 -12c10 0 15 8 17 11c1 1 2 2 4 2c11 0 13 -15 13 -21c0 -5 2 -11 4 -16l145 -376c24 -63 34 -100 35 -104h1c1 27 9 74 16 112c6 36 14 88 18 108l49 253
c3 12 3 14 3 17c0 4 -1 9 -1 13c0 11 7 14 12 15c1 -11 8 -13 13 -13c8 0 8 6 8 13c12 -3 18 -5 18 -39c0 -4 0 -16 -15 -17c-8 -10 -9 -15 -12 -31z" />
    <glyph glyph-name="w" unicode="w" horiz-adv-x="572" 
d="M486 442l-57 -455h-50l-142 436h-1c0 -106 -21 -276 -40 -436h-51l-157 485c-14 0 -22 0 -22 47c3 3 4 6 4 7h1s6 2 7 0c10 -11 11 -12 17 -12c8 0 15 5 17 14c12 -2 16 -3 17 -24c1 -9 1 -10 5 -23l87 -275c21 -66 43 -136 54 -195h1c0 26 0 57 12 171
c8 71 18 161 34 289c-16 0 -23 8 -23 41c0 6 1 12 5 16c2 -2 6 0 9 -2c12 -11 13 -12 20 -12c8 0 14 4 19 10c3 3 4 3 6 3c11 0 12 -16 13 -24s1 -10 5 -23l91 -291c9 -29 16 -56 26 -91c8 -30 16 -63 20 -85v21c0 87 29 325 37 396c3 19 7 53 7 57c0 7 -2 17 -2 24
s3 15 9 17h3c2 -12 10 -13 13 -13c8 0 9 7 9 8c0 2 -1 4 -1 5c12 -3 18 -5 18 -39c0 -9 -6 -17 -14 -18c-3 -7 -5 -18 -6 -29z" />
    <glyph glyph-name="x" unicode="x" horiz-adv-x="416" 
d="M204 282l146 -206c14 -20 18 -20 34 -20c17 0 25 0 25 -42c0 -5 -2 -10 -5 -14h-4l-2 1c-15 13 -22 13 -27 13c-7 0 -19 -3 -25 -14c-2 1 -5 -1 -10 3c-2 2 -4 5 -5 7c-2 4 -2 6 -8 14l-146 205l-103 -195l-5 -14c0 -7 0 -17 -12 -20c-1 3 -6 14 -21 14
c-8 0 -14 -6 -16 -14c-11 3 -18 4 -18 39c0 16 10 16 16 17c28 3 39 18 48 36l88 169l-136 192c-13 19 -17 19 -36 19c-13 0 -23 0 -23 40c0 2 4 15 5 16c2 -2 8 -1 9 -3c14 -10 15 -11 25 -11c12 0 21 9 22 10c2 3 4 3 6 3c7 0 10 -6 12 -11c1 -3 2 -4 7 -11l137 -192
l94 181c6 10 6 12 6 17c0 6 0 8 4 12c4 5 6 3 9 5c3 -7 10 -14 20 -14s15 8 16 14c11 -3 18 -4 18 -40c0 -14 -11 -16 -15 -16c-31 -3 -39 -18 -47 -33z" />
    <glyph glyph-name="y" unicode="y" horiz-adv-x="416" 
d="M324 441l-115 -590c-23 -118 -62 -135 -94 -135c-49 0 -81 49 -81 83c0 20 17 28 29 28c17 0 35 -14 35 -35c0 -11 -5 -21 -15 -26c1 -1 13 -11 28 -11c40 0 54 53 63 96c2 7 29 142 29 147c0 4 0 6 -5 16l-196 444l-7 13c-21 0 -29 3 -29 40c0 3 3 16 5 17
c1 -1 6 -1 8 -2c10 -11 11 -12 18 -12c4 0 14 2 17 14c12 -3 15 -4 16 -16c1 -8 1 -9 6 -20l106 -246c17 -39 32 -78 46 -118c10 -24 32 -84 37 -116h1c0 43 0 103 70 462c5 23 5 25 5 26c0 4 -1 9 -1 13c0 11 7 14 12 15c1 -11 8 -13 13 -13c8 0 8 6 8 13
c12 -3 18 -5 18 -39c0 -4 0 -16 -15 -17c-8 -10 -9 -15 -12 -31z" />
    <glyph glyph-name="z" unicode="z" horiz-adv-x="362" 
d="M274 502l-192 -466h97c2 0 23 0 51 4c19 2 38 2 40 2h19c0 10 5 17 17 17c11 0 13 -4 21 -18c11 -22 11 -24 11 -27c0 -14 -13 -14 -28 -14h-282c-1 6 -2 18 -2 20c0 4 0 6 5 17l186 452h-87c-6 0 -20 0 -39 -3c-11 -1 -38 -3 -42 -3c-8 0 -17 1 -25 1
c-1 -8 -5 -15 -17 -15s-14 6 -19 18c-9 21 -9 23 -9 27c0 14 11 14 28 14h264v-3c1 -5 2 -17 3 -23z" />
    <glyph glyph-name="endash" unicode="&#x2013;" 
d="M344 307h-342c-19 0 -29 0 -29 22c0 17 10 17 28 17h342c21 0 30 0 30 -23c0 -16 -12 -16 -29 -16z" />
    <glyph glyph-name="emdash" unicode="&#x2014;" horiz-adv-x="822" 
d="M749 307h-741c-19 0 -29 0 -29 22c0 17 10 17 28 17h741c21 0 30 0 30 -23c0 -16 -12 -16 -29 -16z" />
    <glyph glyph-name="hungarumlaut" unicode="&#x2dd;" 
d="M147 588c0 -17 -14 -20 -34 -23c-24 -5 -46 -9 -51 -9c-17 0 -17 14 -17 18c0 10 8 13 16 16c12 5 54 21 63 21c17 0 23 -15 23 -23zM280 588c0 -17 -14 -20 -34 -23c-24 -5 -46 -9 -51 -9c-17 0 -17 14 -17 18c0 10 8 13 16 16c12 5 54 21 63 21c17 0 23 -15 23 -23z
" />
    <glyph glyph-name="tilde" unicode="&#x2dc;" 
d="M279 588c0 -12 -13 -18 -43 -33c-15 -8 -42 -21 -63 -21c-23 0 -32 13 -40 24c-5 7 -8 9 -15 9c-16 0 -47 -16 -64 -25c-10 -6 -12 -8 -16 -8c-14 0 -20 20 -20 24c0 8 4 11 16 17c21 13 62 36 90 36c17 0 28 -7 38 -22c6 -10 9 -11 16 -11c16 0 44 14 59 23
c14 8 18 10 22 10c12 0 20 -18 20 -23z" />
    <glyph glyph-name="dieresis" unicode="&#xa8;" 
d="M106 612l2 -17h-78l-2 17h78zM261 612l1 -17h-78l-1 17h78z" />
    <glyph glyph-name="space" unicode=" " horiz-adv-x="277" 
 />
  </font>
</defs>
</svg>
