<?xml version="1.0" standalone="no"?>
<!DOCTYPE svg PUBLIC "-//W3C//DTD SVG 1.1//EN" "http://www.w3.org/Graphics/SVG/1.1/DTD/svg11.dtd" >
<svg>
<metadata>
Created by FontForge 20060822 at Fri Oct  6 18:23:03 2006
 By Wojciech Mula,,,
Copyright (C) 1997 American Mathematical Society. All Rights Reserved
</metadata>
<defs>
<font id="CMMIB10" horiz-adv-x="575" >
  <font-face 
    font-family="Computer Modern"
    font-weight="700"
    font-style="italic"
    font-stretch="normal"
    units-per-em="1000"
    panose-1="2 0 8 3 0 0 0 0 0 0"
    ascent="750"
    descent="-250"
    x-height="452"
    cap-height="686"
    bbox="-15 -250 1216 750"
    underline-thickness="0"
    underline-position="0"
    slope="-14.04"
    stemh="40"
    stemv="113"
    unicode-range="U+0020-U+F739"
  />
    <missing-glyph />
    <glyph glyph-name="Gamma" unicode="&#x393;" horiz-adv-x="656" 
d="M444 631l-145 -580c10 -2 25 -4 63 -4h33c16 0 33 0 33 -18c0 -1 -1 -16 -7 -22c-5 -7 -13 -7 -23 -7c-28 0 -57 2 -86 2c-30 0 -60 1 -90 1c-27 0 -54 -1 -81 -1c-25 0 -51 -2 -76 -2c-21 0 -22 16 -22 18c0 4 0 20 12 27c4 2 6 2 32 2c16 0 36 0 53 1c18 2 19 3 23 19
l141 564c-21 1 -40 2 -61 2c-27 0 -41 0 -41 18c0 6 3 20 9 24c5 5 7 5 27 5h506c16 0 33 0 33 -18l-1 -16l-18 -179c-2 -18 -3 -28 -24 -28c-5 0 -24 0 -24 19s5 45 5 65c0 110 -66 110 -189 110c-27 0 -67 0 -82 -2z" />
    <glyph glyph-name="Delta" unicode="&#x394;" horiz-adv-x="958" 
d="M696 681l204 -651c1 -4 4 -11 4 -15c0 -15 -16 -15 -32 -15h-787c-18 0 -25 0 -25 9c0 3 0 5 9 16l539 663c13 16 19 23 48 23c31 0 33 -7 40 -30zM571 569l-366 -451h508z" />
    <glyph glyph-name="Theta" unicode="&#x398;" horiz-adv-x="867" 
d="M844 440c0 -205 -166 -457 -484 -457c-176 0 -307 81 -307 259c0 195 163 461 486 461c169 0 305 -78 305 -263zM369 21c84 0 177 39 241 124c83 113 105 279 105 331c0 49 -10 98 -44 136c-27 30 -75 55 -141 55c-61 0 -159 -23 -236 -120c-87 -112 -112 -288 -112 -339
c0 -143 97 -187 187 -187zM646 403l-32 -127c-5 -19 -6 -25 -25 -25c-4 0 -24 0 -24 18c0 5 4 15 4 16h-268c0 -1 -6 -22 -7 -25c-6 -9 -15 -9 -21 -9c-4 0 -24 0 -24 18c0 1 0 3 4 16l32 127c5 19 6 25 25 25c4 0 24 0 24 -18c0 -5 -4 -15 -4 -16h268c0 1 6 22 7 25
c6 9 15 9 21 9c4 0 24 0 24 -18c0 -1 0 -3 -4 -16z" />
    <glyph glyph-name="Lambda" unicode="&#x39b;" horiz-adv-x="805" 
d="M485 513l-285 -456c15 -6 41 -10 60 -10c7 0 25 0 25 -18c0 -29 -20 -29 -27 -29c-35 0 -73 3 -109 3c-28 0 -59 -3 -86 -3c-14 0 -18 13 -18 18c0 29 18 29 28 29c64 1 75 18 88 38l375 601c16 25 28 25 44 25c28 0 29 -6 32 -32l79 -630c12 -1 33 -2 47 -2
c18 0 34 0 34 -18c0 -29 -19 -29 -27 -29c-30 0 -104 3 -134 3c-33 0 -117 -3 -150 -3c-21 0 -21 17 -21 18c0 29 16 29 37 29c15 0 46 1 65 5z" />
    <glyph glyph-name="Xi" unicode="&#x39e;" horiz-adv-x="841" 
d="M867 656l-29 -150c-4 -19 -5 -27 -25 -27c-4 0 -24 0 -24 18c0 1 0 3 2 13c6 27 6 42 6 52c-18 2 -53 3 -72 3h-392c-13 0 -70 -1 -79 -5c-9 -3 -24 -50 -26 -58c-6 -16 -8 -23 -26 -23c-4 0 -24 0 -24 18c0 5 3 12 4 16l44 141c7 21 9 21 35 21h572c19 0 34 0 34 -19z
M209 110h394c12 0 77 0 85 6c10 10 22 49 28 68c5 17 7 23 26 23c6 0 23 -1 23 -18c0 -7 -46 -158 -52 -176c-5 -13 -13 -13 -33 -13h-584c-19 0 -34 0 -34 19c0 12 27 142 32 165c3 17 6 23 25 23c6 0 23 -1 23 -18c0 -5 -2 -15 -3 -21c-3 -14 -6 -28 -6 -42
c0 -11 1 -12 10 -13c22 -3 24 -3 66 -3zM229 280l38 149c5 18 7 26 26 26c13 0 23 -6 23 -19c0 -5 -5 -24 -7 -30h351c2 8 7 28 8 34c5 15 18 15 24 15c13 0 23 -6 23 -19c0 -12 -35 -145 -41 -168c-3 -11 -6 -21 -25 -21c-21 0 -23 12 -23 19c0 3 0 5 6 30h-351
c-6 -26 -6 -28 -8 -33c-2 -8 -6 -16 -23 -16c-21 0 -23 12 -23 19c0 4 1 11 2 14z" />
    <glyph glyph-name="Pi" unicode="&#x3a0;" horiz-adv-x="982" 
d="M906 613l-141 -564c21 -1 40 -2 61 -2c27 0 41 0 41 -18c0 -2 -2 -16 -6 -22c-5 -7 -13 -7 -23 -7c-25 0 -52 2 -78 2c-25 0 -51 1 -77 1c-25 0 -51 -1 -76 -1s-51 -2 -76 -2c-22 0 -22 17 -22 18c0 4 0 20 12 27c4 2 6 2 32 2c16 0 36 0 53 1c18 2 19 3 23 19l142 566
h-326l-146 -584c21 -1 40 -2 61 -2c27 0 41 0 41 -18c0 -2 -2 -16 -6 -22c-5 -7 -13 -7 -23 -7c-25 0 -52 2 -78 2c-25 0 -51 1 -77 1c-25 0 -51 -1 -76 -1s-51 -2 -76 -2c-22 0 -22 17 -22 18c0 4 0 20 12 27c4 2 6 2 32 2c16 0 36 0 53 1c18 2 19 3 23 19l141 564
c-21 1 -40 2 -61 2c-27 0 -41 0 -41 18c0 1 2 19 9 24c5 4 6 5 27 5h754c17 0 34 0 34 -18c0 -4 0 -20 -12 -27c-4 -2 -6 -2 -32 -2c-16 0 -36 0 -53 -1c-18 -2 -19 -3 -23 -19z" />
    <glyph glyph-name="Sigma" unicode="&#x3a3;" horiz-adv-x="885" 
d="M558 323l-352 -258h262c149 0 243 20 308 172c8 19 10 22 27 22c6 0 23 -1 23 -18c0 -10 -73 -193 -84 -221c-8 -20 -10 -20 -36 -20h-603c-18 0 -34 0 -34 18c0 5 0 10 15 21l347 253l-195 347c-6 11 -8 13 -8 18c0 1 2 19 10 24c5 4 6 5 27 5h603c26 0 36 0 33 -34
l-18 -177c-2 -20 -3 -30 -25 -30c-14 0 -23 5 -23 21c0 10 2 22 2 32c0 120 -65 141 -208 141h-219l157 -280c6 -11 7 -12 7 -16c0 -9 -3 -10 -16 -20z" />
    <glyph glyph-name="Upsilon" unicode="&#x3a5;" horiz-adv-x="670" 
d="M395 472h1c19 37 54 103 114 157c46 41 105 74 172 74c74 0 120 -50 120 -117c0 -55 -19 -55 -35 -55c-13 0 -23 0 -23 15c0 2 0 9 1 11c-1 14 -3 36 -84 36c-116 0 -184 -119 -214 -202c-14 -41 -65 -249 -81 -315c-5 -20 -5 -22 -5 -23c0 -6 48 -6 62 -6h32
c19 0 34 0 34 -19c0 -28 -18 -28 -30 -28c-30 0 -61 2 -91 2s-60 1 -90 1c-29 0 -59 -1 -88 -1c-30 0 -60 -2 -89 -2c-4 0 -23 0 -23 18c0 29 17 29 36 29h32c15 0 72 0 75 8c1 4 7 27 10 41l49 193c23 92 27 109 27 154c0 14 0 69 -27 107c-26 38 -62 43 -90 43
c-89 0 -99 -28 -104 -43c-7 -19 -18 -19 -31 -19c-12 0 -23 0 -23 14c0 36 70 158 193 158c169 0 170 -195 170 -231z" />
    <glyph glyph-name="Phi" unicode="&#x3a6;" horiz-adv-x="766" 
d="M399 152l-25 -101c10 -2 25 -4 63 -4h33c16 0 33 0 33 -18c0 -1 -2 -16 -7 -22c-5 -7 -13 -7 -23 -7c-28 0 -57 2 -86 2c-30 0 -60 1 -90 1s-60 -1 -90 -1c-27 0 -55 -2 -82 -2c-10 0 -23 4 -23 18c0 9 3 19 9 25c6 4 10 4 28 4h32c42 0 68 3 71 5c5 1 7 13 8 16l20 84
c-139 10 -242 64 -242 160c0 62 58 196 338 223l25 101c-26 3 -28 3 -63 3h-32c-18 0 -34 0 -34 18c0 29 19 29 30 29c28 0 57 -2 86 -2c30 0 60 -1 90 -1c28 0 56 1 84 1c29 0 59 2 88 2c4 0 23 0 23 -18c0 -29 -17 -29 -36 -29h-33c-52 0 -69 -4 -71 -5s-3 -2 -7 -16
l-21 -84c181 -14 243 -89 243 -160c0 -91 -107 -206 -339 -222zM279 189l78 308c-21 -2 -94 -12 -139 -60c-35 -38 -53 -110 -53 -148c0 -32 6 -86 114 -100zM486 497l-77 -308c45 6 103 21 141 63c35 41 51 113 51 146c0 56 -37 90 -115 99z" />
    <glyph glyph-name="Psi" unicode="&#x3a8;" horiz-adv-x="714" 
d="M262 193l110 443c-26 3 -28 3 -63 3h-32c-17 0 -34 0 -34 18c0 29 19 29 30 29c28 0 57 -2 86 -2c30 0 60 -1 90 -1s60 1 90 1c27 0 55 2 82 2c4 0 23 0 23 -18c0 -29 -17 -29 -37 -29h-32c-52 0 -69 -4 -71 -5s-3 -2 -7 -16l-105 -422c131 34 167 169 180 218
c35 133 91 133 121 133h65c18 0 34 0 34 -18c0 -15 -14 -17 -20 -18c-34 -5 -56 -43 -72 -99c-33 -123 -110 -241 -320 -260l-25 -101c10 -2 25 -4 63 -4h32c19 0 34 0 34 -19c0 -28 -18 -28 -30 -28c-28 0 -57 2 -86 2c-30 0 -60 1 -90 1s-60 -1 -90 -1
c-27 0 -55 -2 -82 -2c-11 0 -22 4 -22 18c0 29 17 29 36 29h32c42 0 68 3 71 5c4 1 7 12 8 16l21 85c-16 2 -95 9 -147 56c-44 39 -53 88 -53 132c0 19 0 36 10 76c4 19 7 35 7 53c0 38 -12 40 -24 41c-18 2 -18 17 -18 18c0 18 18 18 34 18h65c24 0 71 0 71 -77
c0 -16 0 -27 -10 -70c-7 -29 -12 -62 -12 -84c0 -78 37 -110 87 -123z" />
    <glyph glyph-name="Omega" unicode="&#x3a9;" horiz-adv-x="878" 
d="M600 100h72c58 0 62 6 69 15c8 11 20 35 34 65c6 12 9 17 25 17c4 0 24 0 24 -18c0 -4 -10 -24 -16 -36c-20 -43 -39 -85 -60 -127c-8 -16 -11 -16 -35 -16h-155c-19 0 -34 0 -34 19c0 8 12 51 41 111c17 33 26 51 72 126c45 76 107 180 107 279c0 109 -88 132 -158 132
c-160 0 -273 -118 -273 -318c0 -42 9 -123 9 -126c3 -25 6 -72 6 -97c0 -1 0 -43 -6 -79c-8 -46 -9 -47 -40 -47h-155c-34 0 -34 2 -34 42l1 59c0 13 0 50 1 62c2 25 2 34 24 34c17 0 24 -6 24 -25c0 -7 -1 -13 -1 -20c0 -4 0 -45 6 -48c10 -4 41 -4 52 -4h83
c-6 38 -17 65 -55 134c-39 73 -56 120 -56 172c0 140 136 297 414 297c220 0 300 -97 300 -200c0 -115 -93 -203 -197 -302c-30 -30 -70 -74 -89 -101z" />
    <glyph glyph-name="alpha" unicode="&#x3b1;" horiz-adv-x="760" 
d="M584 164c0 -20 2 -136 27 -136c2 0 35 3 47 32c5 13 10 13 23 13c9 0 23 0 23 -14c0 -21 -34 -67 -100 -67c-61 0 -102 37 -120 79c-53 -38 -135 -79 -231 -79c-125 0 -207 63 -207 173c0 129 110 287 314 287c47 0 112 -10 164 -63c54 -54 55 -113 56 -161
c22 31 52 86 71 153c5 19 6 21 25 21c9 0 24 0 24 -14c0 -3 -22 -116 -116 -224zM258 28c24 0 68 3 128 29c25 11 86 46 86 58c0 24 -4 68 -5 93c-4 98 -15 208 -108 208c-51 0 -113 -29 -145 -93c-30 -58 -53 -169 -53 -202c0 -66 41 -93 97 -93z" />
    <glyph glyph-name="beta" unicode="&#x3b2;" horiz-adv-x="659" 
d="M20 -164l152 610c36 145 184 256 327 256c94 0 156 -48 156 -133c0 -69 -41 -134 -77 -164c33 -25 64 -63 64 -133c0 -131 -112 -284 -313 -284c-80 0 -157 29 -199 99c-1 -2 -61 -242 -64 -258c-6 -21 -6 -23 -26 -23c-9 0 -24 0 -24 14c0 1 3 14 4 16zM473 401
c-19 7 -31 7 -49 7c-13 0 -62 0 -62 -16c0 -8 44 -8 48 -8c14 0 39 0 63 17zM507 436c22 39 46 142 46 173c0 39 -22 57 -59 57c-119 0 -240 -102 -272 -211c-12 -44 -44 -175 -59 -234c-2 -10 -7 -31 -7 -51c0 -90 78 -146 171 -146c63 0 112 33 143 82
c31 52 57 173 57 209c0 17 -3 37 -11 52c-45 -19 -90 -19 -107 -19c-35 0 -95 0 -95 42c0 54 81 54 113 54c19 0 47 0 80 -8z" />
    <glyph glyph-name="gamma" unicode="&#x3b3;" horiz-adv-x="590" 
d="M449 190c71 161 124 248 126 250c5 4 9 4 19 4c9 0 23 0 23 -14c0 -4 -11 -23 -17 -34c-71 -128 -119 -244 -146 -319c-3 -8 -3 -10 -4 -22c-12 -103 -38 -193 -46 -217c-4 -12 -17 -49 -41 -49s-24 27 -24 35c0 37 31 145 58 226c7 21 9 28 9 68c0 41 -8 123 -35 163
c-34 48 -100 61 -155 61c-52 0 -135 -10 -157 -74c-5 -12 -13 -12 -24 -12c-9 0 -23 0 -23 15c0 41 84 181 225 181c155 0 203 -195 212 -262z" />
    <glyph glyph-name="delta" unicode="&#x3b4;" horiz-adv-x="522" 
d="M284 444c-23 41 -60 108 -60 164c0 72 59 110 113 110c26 0 84 -12 106 -17c54 -11 70 -15 70 -44c0 -25 -23 -54 -53 -54c-22 0 -53 23 -72 38c-17 12 -41 30 -74 30c-37 0 -47 -27 -47 -32c0 -35 88 -117 132 -159c42 -39 77 -82 77 -172c0 -161 -95 -320 -227 -320
c-107 0 -203 52 -203 174c0 88 61 241 238 282zM306 407c-66 -21 -96 -70 -110 -96c-18 -37 -46 -134 -46 -186c0 -12 0 -50 25 -74c28 -25 66 -27 77 -27c83 0 110 174 110 218c0 70 -31 126 -56 165z" />
    <glyph glyph-name="epsilon1" horiz-adv-x="483" 
d="M359 213h-182c-6 -25 -11 -50 -11 -76c0 -104 94 -109 119 -109s56 6 116 42c10 7 12 7 16 7c13 0 19 -19 19 -30c0 -16 -56 -37 -60 -38c-47 -17 -80 -17 -94 -17c-117 0 -232 51 -232 187c0 79 38 145 85 187c87 78 193 78 247 78h42c15 -1 20 -13 20 -21
c0 -26 -27 -26 -41 -26h-42c-119 0 -156 -75 -172 -137h171c19 0 38 0 38 -22c0 -25 -24 -25 -39 -25z" />
    <glyph glyph-name="zeta" unicode="&#x3b6;" horiz-adv-x="508" 
d="M256 68l88 -27c41 -12 108 -32 108 -111c0 -58 -48 -132 -122 -132c-48 0 -119 27 -119 48c0 8 8 18 19 18c6 0 7 -1 15 -5c34 -20 64 -25 85 -25c34 0 36 37 36 41c0 38 -33 48 -76 60c-127 38 -154 46 -193 88c-35 39 -49 90 -49 140c0 175 137 349 275 426
c-4 15 -4 32 -4 38c0 17 0 76 33 76c1 0 21 -1 21 -21c0 -3 0 -4 -2 -12c-1 -4 -8 -34 -6 -62c28 10 48 10 65 10c43 0 92 -3 92 -42c0 -54 -81 -54 -108 -54c-20 0 -53 0 -75 30c-91 -57 -199 -204 -199 -340c0 -109 73 -131 116 -144zM375 571c8 -13 25 -13 39 -13
c2 0 23 0 37 2c16 3 17 5 24 15c-15 6 -19 7 -48 7c-18 0 -32 0 -52 -11z" />
    <glyph glyph-name="eta" unicode="&#x3b7;" horiz-adv-x="600" 
d="M586 280l-108 -430c-15 -60 -56 -61 -67 -61c-21 0 -47 12 -47 44c0 4 0 10 4 26l111 441c4 18 8 32 8 57c0 49 -24 59 -50 59c-42 0 -75 -17 -103 -39c-33 -27 -61 -72 -62 -78c-2 -3 -27 -106 -31 -119c-10 -43 -18 -75 -28 -112c-7 -30 -19 -76 -71 -76
c-31 0 -47 23 -47 44c0 7 5 26 8 40l36 140c5 22 15 62 22 90c10 40 14 56 14 73c0 33 -12 37 -23 37c-25 0 -48 -20 -68 -100c-6 -25 -6 -27 -8 -29c-5 -5 -9 -5 -20 -5c-9 0 -24 0 -24 14c0 5 13 59 38 99c21 36 50 57 87 57c54 0 109 -26 123 -76c71 76 144 76 165 76
c72 0 149 -24 149 -116c0 -25 -3 -38 -8 -56z" />
    <glyph glyph-name="theta" unicode="&#x3b8;" horiz-adv-x="561" 
d="M547 490c0 -75 -27 -234 -111 -357c-69 -102 -157 -141 -224 -141c-90 0 -166 66 -166 211c0 81 31 217 82 311c75 136 175 188 254 188c61 0 165 -36 165 -212zM198 371h209c11 42 33 129 33 192c0 59 -18 103 -60 103c-48 0 -89 -53 -112 -94
c-30 -52 -56 -143 -70 -201zM395 323h-209c-11 -43 -33 -136 -33 -193c0 -1 0 -40 12 -67c14 -31 35 -35 49 -35c35 0 119 27 181 295z" />
    <glyph glyph-name="iota" unicode="&#x3b9;" horiz-adv-x="412" 
d="M378 148c0 -8 -14 -64 -75 -108c-56 -41 -112 -48 -141 -48c-67 0 -116 37 -116 90c0 31 21 64 30 95c12 45 2 3 15 48c5 18 13 45 18 58c5 18 15 64 22 82c2 7 5 27 8 34c6 15 20 53 66 53c31 0 47 -23 47 -44c0 -9 -35 -159 -88 -295c-6 -17 -16 -43 -16 -64
s10 -21 19 -21c36 0 133 24 164 121c4 13 11 13 23 13c9 0 24 0 24 -14z" />
    <glyph glyph-name="kappa" unicode="&#x3ba;" horiz-adv-x="667" 
d="M60 82l44 176l35 141c12 43 48 53 66 53c31 0 47 -23 47 -44c0 -8 -4 -23 -16 -72c-6 -22 -11 -45 -17 -67c35 16 61 35 122 83c46 37 114 92 183 92c46 0 52 -34 52 -47c0 -31 -28 -70 -71 -70c-27 0 -49 16 -49 47c0 8 2 15 3 18c-24 -12 -41 -20 -106 -72
c-35 -27 -63 -50 -90 -66c94 -8 107 -10 143 -21c16 -5 81 -26 81 -90c0 -8 -2 -20 -5 -33c-5 -18 -6 -40 -6 -42c0 -39 16 -40 26 -40c51 0 75 85 83 114c5 18 7 20 25 20c9 0 24 0 24 -14c0 -8 -37 -156 -137 -156c-66 0 -128 39 -128 103c0 10 3 23 4 24c1 6 3 17 3 23
c0 60 -85 73 -170 75l-39 -153c-6 -26 -18 -72 -70 -72c-31 0 -47 23 -47 44c0 7 6 31 10 46z" />
    <glyph glyph-name="lambda" unicode="&#x3bb;" horiz-adv-x="670" 
d="M359 638l256 -577c7 -16 16 -35 24 -43c2 -3 5 -7 5 -12c0 -14 -12 -14 -30 -14h-50c-35 0 -54 10 -63 28c-3 8 -12 27 -15 35l-96 216c-38 -37 -127 -135 -164 -173c-4 -4 -53 -55 -55 -58c-28 -30 -48 -52 -76 -52c-25 0 -48 20 -48 48c0 27 20 44 32 53l289 233
c-23 52 -127 290 -139 309c-16 24 -27 25 -43 27c-1 0 -15 2 -15 17c0 19 17 19 40 19c123 0 136 -28 148 -56z" />
    <glyph glyph-name="mu" unicode="&#x3bc;" horiz-adv-x="707" 
d="M275 332l-40 -156c-4 -18 -10 -42 -10 -69c0 -30 6 -79 74 -79c27 0 57 9 89 36c18 15 35 32 39 50l69 277c11 41 46 53 66 53c31 0 47 -23 47 -44c0 -7 -10 -47 -16 -70c-7 -27 -17 -68 -22 -90l-26 -102c-10 -40 -14 -56 -14 -73c0 -33 12 -37 23 -37
c25 0 48 20 68 100c6 25 6 27 8 29c5 5 9 5 20 5c9 0 24 0 24 -14c0 -5 -13 -59 -38 -99c-21 -36 -50 -57 -87 -57s-93 14 -117 60c-60 -54 -106 -60 -140 -60c-13 0 -58 0 -99 16c-7 -31 -40 -168 -46 -180c-14 -28 -41 -39 -60 -39c-21 0 -47 12 -47 44c0 4 0 10 4 26
l133 531c3 12 16 62 68 62c31 0 47 -23 47 -44c0 -7 -11 -50 -17 -76z" />
    <glyph glyph-name="nu" unicode="&#x3bd;" horiz-adv-x="576" 
d="M259 434l-94 -380c101 33 171 99 203 130c60 61 99 133 122 215c14 46 52 53 66 53c31 0 47 -22 47 -44c0 -11 -22 -136 -155 -248c-111 -93 -245 -143 -352 -160h-28c-11 0 -23 4 -23 18l93 377c-12 1 -30 2 -42 2c-9 0 -27 0 -27 18c0 28 18 29 33 30l125 6
c13 1 32 2 32 -17z" />
    <glyph glyph-name="xi" unicode="&#x3be;" horiz-adv-x="508" 
d="M233 334c46 13 77 13 96 13c33 0 95 0 95 -42c0 -54 -82 -54 -113 -54c-27 0 -59 0 -108 17c-5 2 -6 2 -7 2c-13 0 -88 -71 -88 -130c0 -48 58 -68 93 -80l66 -22c25 -9 119 -41 132 -46c20 -8 50 -32 50 -75c0 -47 -42 -119 -120 -119c-50 0 -134 24 -134 48
c0 6 6 18 20 18c4 0 6 -1 13 -5c45 -24 94 -25 100 -25c29 0 31 27 31 30c0 8 -5 17 -13 21c-7 4 -50 19 -75 27l-115 39c-59 21 -132 61 -132 143c0 38 25 131 130 202c-27 19 -53 57 -53 104c0 76 62 166 187 203c-1 7 -1 16 -1 23c0 18 0 77 33 77c1 0 21 -1 21 -21
c0 -3 0 -4 -2 -12c0 -2 -6 -25 -7 -56c28 4 53 4 63 4c42 0 96 -1 96 -42c0 -54 -81 -54 -108 -54c-24 0 -53 0 -75 30c-54 -38 -84 -114 -84 -167c0 -17 3 -35 9 -51zM342 573c9 -15 25 -15 41 -15c10 0 48 0 58 11c3 4 2 5 3 6c-16 6 -19 7 -50 7c-14 0 -32 0 -52 -9z
M258 301c18 -14 40 -14 56 -14c12 0 49 0 59 11c1 1 2 5 3 6c-16 6 -19 7 -51 7c-17 0 -39 0 -67 -10z" />
    <glyph glyph-name="pi" unicode="&#x3c0;" horiz-adv-x="682" 
d="M312 348l-76 -299c-5 -21 -6 -25 -21 -40c-7 -6 -22 -17 -43 -17c-26 0 -48 18 -48 45c0 14 3 19 19 49c54 101 94 183 119 262h-60c-19 0 -85 0 -123 -47c-9 -11 -10 -12 -25 -12c-11 0 -23 0 -23 14c0 10 39 61 74 93c53 48 96 48 117 48h393c18 0 53 0 53 -39
c0 -23 -13 -35 -20 -42c-15 -15 -31 -15 -50 -15h-124c-6 -40 -6 -50 -6 -74c0 -27 0 -104 46 -185c9 -15 12 -21 12 -33c0 -32 -36 -65 -69 -65c-48 0 -66 76 -66 144c0 59 11 120 33 213h-112z" />
    <glyph glyph-name="rho" unicode="&#x3c1;" horiz-adv-x="611" 
d="M44 -141l93 370c32 129 140 223 275 223c111 0 185 -59 185 -167c0 -130 -105 -293 -291 -293c-56 0 -90 23 -107 39c-31 -125 -48 -193 -52 -202c-14 -31 -43 -40 -60 -40c-21 0 -47 12 -47 44c0 2 0 10 4 26zM255 255l-29 -118c-5 -17 -13 -49 -13 -52
c0 -9 25 -57 92 -57c45 0 98 27 129 99c17 41 49 159 49 208c0 13 0 81 -73 81c-38 0 -73 -21 -90 -39c-18 -17 -43 -43 -65 -122z" />
    <glyph glyph-name="sigma" unicode="&#x3c3;" horiz-adv-x="685" 
d="M339 444h279c18 0 53 0 53 -39c0 -23 -13 -35 -20 -42c-15 -15 -31 -15 -50 -15h-96c10 -24 14 -51 14 -76c0 -142 -106 -280 -289 -280c-107 0 -188 51 -188 159c0 104 91 293 297 293zM232 28c28 0 86 9 127 71c32 49 52 149 52 179c0 36 -10 70 -92 70
c-76 0 -109 -30 -129 -64c-23 -37 -45 -132 -45 -170c0 -16 0 -86 87 -86z" />
    <glyph glyph-name="tau" unicode="&#x3c4;" horiz-adv-x="520" 
d="M349 348l-47 -294c-10 -66 -61 -66 -68 -66c-25 0 -47 16 -47 44c0 11 19 64 30 95c8 26 30 90 39 115l36 106h-90c-19 0 -85 0 -123 -47c-9 -11 -10 -12 -25 -12c-11 0 -23 0 -23 14c0 10 39 61 74 93c53 48 96 48 117 48h329c17 0 53 0 53 -39c0 -2 0 -25 -20 -42
c-16 -15 -29 -15 -50 -15h-185z" />
    <glyph glyph-name="upsilon" unicode="&#x3c5;" horiz-adv-x="630" 
d="M605 362c0 -30 -13 -163 -97 -268c-55 -69 -114 -102 -182 -102c-86 0 -202 21 -202 141c0 42 13 83 60 202c3 8 15 37 15 60c0 21 -10 21 -17 21c-16 0 -71 -10 -103 -121c-4 -13 -11 -13 -23 -13c-9 0 -24 0 -24 14c0 20 50 156 156 156c55 0 113 -32 113 -90
c0 -17 -2 -21 -17 -59c-29 -76 -52 -137 -52 -186c0 -51 24 -89 101 -89c128 0 208 199 208 241c0 22 -11 40 -50 63c-8 4 -30 17 -30 45c0 34 37 76 76 76c1 0 68 0 68 -91z" />
    <glyph glyph-name="phi" unicode="&#x3c6;" horiz-adv-x="712" 
d="M506 665l-52 -210c147 -5 233 -78 233 -185c0 -129 -126 -269 -329 -281c-16 -1 -18 -1 -20 -2c-1 -1 -2 -2 -9 -31l-35 -140c-4 -17 -9 -18 -25 -18c-9 0 -23 0 -23 14l43 177c-147 5 -233 78 -233 185c0 127 123 269 329 281c17 1 18 2 20 3c1 1 1 2 5 15l50 198
c5 21 6 23 26 23c9 0 23 0 23 -14c0 -1 0 -3 -3 -15zM298 25l99 394c-82 -7 -140 -41 -175 -85c-52 -66 -63 -158 -63 -186c0 -81 53 -118 139 -123zM445 419l-99 -394c82 7 140 41 175 85c52 66 63 158 63 186c0 81 -53 118 -139 123z" />
    <glyph glyph-name="chi" unicode="&#x3c7;" horiz-adv-x="718" 
d="M665 399l-253 -252c26 -98 38 -141 70 -204c3 -6 56 -109 90 -109c16 0 41 14 50 40c5 14 7 15 24 15c10 0 23 0 23 -14c0 -7 -18 -77 -113 -77c-88 0 -141 19 -167 64c-21 36 -43 81 -72 190c-129 -125 -233 -233 -245 -241c0 -1 -5 -5 -13 -5c-14 0 -22 11 -22 21
c0 9 3 12 14 23l253 253c-27 102 -36 138 -65 195c-2 4 -59 118 -94 118c-17 0 -41 -15 -51 -40c-4 -14 -6 -15 -24 -15c-11 0 -23 0 -23 14c0 10 21 77 114 77c42 0 124 -3 160 -53c37 -52 62 -143 79 -202l233 232c12 12 15 15 25 15c9 0 21 -7 21 -22
c0 -9 -3 -12 -14 -23z" />
    <glyph glyph-name="psi" unicode="&#x3c8;" horiz-adv-x="758" 
d="M553 659l-158 -631c163 1 274 179 274 241c0 22 -11 40 -50 63c-9 5 -30 17 -30 45c0 36 38 76 76 76c1 0 68 0 68 -91c0 -51 -24 -133 -35 -158c-48 -102 -162 -212 -312 -212l-44 -174c-5 -19 -7 -20 -25 -20c-9 0 -23 0 -23 14c0 4 15 64 23 96c2 10 20 79 20 82
c0 2 -1 3 -10 4c-46 4 -202 18 -202 150c0 33 17 84 52 172c12 31 22 56 22 79c0 21 -11 21 -17 21c-16 0 -70 -10 -103 -121c-4 -13 -11 -13 -23 -13c-9 0 -24 0 -24 14c0 20 50 156 156 156c55 0 113 -32 113 -90c0 -17 -2 -23 -17 -60c-46 -117 -49 -144 -49 -168
c0 -38 11 -92 113 -103l160 640c5 21 6 23 26 23c10 0 23 0 23 -15c0 -4 0 -6 -4 -20z" />
    <glyph glyph-name="omega" unicode="&#x3c9;" horiz-adv-x="717" 
d="M362 140c18 -30 45 -38 74 -38c104 0 190 90 190 156c0 32 -22 56 -48 73c-10 8 -29 20 -29 46c0 36 38 76 76 76c21 0 67 -16 67 -93c0 -14 -9 -142 -70 -237c-44 -68 -121 -131 -207 -131c-66 0 -95 42 -108 72c-22 -24 -78 -72 -149 -72c-85 0 -136 66 -136 167
c0 143 108 274 113 279c1 0 7 6 17 6c11 0 21 -9 21 -21c0 -8 -2 -11 -11 -22c-69 -94 -87 -169 -87 -200c0 -56 38 -99 104 -99c53 0 96 29 111 44c1 1 2 2 3 17c1 27 8 133 70 133c26 0 38 -22 38 -44c0 -17 -14 -66 -39 -112z" />
    <glyph glyph-name="epsilon" unicode="&#x3b5;" horiz-adv-x="528" 
d="M412 108c1 0 5 3 10 3c10 0 17 -8 17 -17c0 -16 -52 -111 -215 -111c-134 0 -189 61 -189 130c0 48 24 89 65 123c-6 7 -21 28 -21 58c0 71 82 167 254 167c15 0 53 0 97 -20c37 -18 53 -31 53 -49c0 -23 -24 -45 -45 -45c-7 0 -14 3 -22 8c-43 30 -75 30 -102 30
c-119 0 -188 -36 -188 -91c0 -11 4 -25 12 -35c53 25 107 25 127 25c31 0 85 0 85 -41c0 -55 -76 -55 -103 -55c-18 0 -72 0 -113 22c-36 -26 -50 -64 -50 -84c0 -67 94 -67 157 -67c86 0 148 4 171 49zM177 235c28 -11 54 -11 71 -11c48 0 51 7 55 19c-12 4 -15 5 -42 5
c-10 0 -48 0 -84 -13z" />
    <glyph glyph-name="theta1" unicode="&#x3d1;" horiz-adv-x="691" 
d="M269 290l-14 -58c-12 -44 -28 -109 -28 -135c0 -39 15 -69 74 -69c52 0 92 59 112 97c32 60 54 144 75 228c-75 23 -186 63 -186 174c0 108 94 175 170 175c61 0 154 -39 154 -206c0 -60 -13 -118 -17 -132c18 -3 20 -3 29 -5c6 -2 17 -4 17 -15s-7 -22 -17 -22
c-7 0 -25 4 -38 6c-47 -181 -156 -336 -307 -336c-58 0 -173 6 -173 122c0 7 0 28 12 78c3 9 16 61 20 76c9 37 23 93 23 111c0 33 -12 37 -23 37c-25 0 -48 -20 -68 -100c-6 -25 -6 -27 -8 -29c-5 -5 -9 -5 -20 -5c-9 0 -24 0 -24 14c0 5 13 59 38 99c21 36 50 57 87 57
c58 0 125 -31 125 -98c0 -12 -8 -43 -13 -64zM497 390c8 34 29 118 29 176c0 36 -7 100 -57 100c-55 0 -120 -57 -120 -137c0 -50 27 -103 148 -139z" />
    <glyph glyph-name="pi1" unicode="&#x3d6;" horiz-adv-x="975" 
d="M222 444h680c18 0 53 0 53 -39c0 -27 -19 -43 -26 -48c-14 -9 -21 -9 -61 -9c5 -24 5 -48 5 -53c0 -133 -116 -303 -255 -303c-81 0 -122 58 -130 145c-61 -90 -145 -145 -228 -145c-74 0 -114 57 -114 138c0 88 50 172 85 218c-59 0 -113 0 -152 -49
c-9 -9 -10 -10 -25 -10c-11 0 -23 0 -23 14c0 10 39 61 74 93c53 48 96 48 117 48zM820 348h-535c-88 -114 -88 -179 -88 -185c0 -32 20 -75 80 -75c68 0 183 51 226 195c4 12 15 12 24 12c7 0 23 0 23 -15c0 -2 0 -4 -2 -11c-4 -19 -7 -41 -7 -59c0 -55 19 -122 94 -122
c78 0 191 73 191 207c0 10 0 27 -6 53z" />
    <glyph glyph-name="rho1" horiz-adv-x="611" 
d="M411 -173l-1 1c-6 3 -23 3 -35 3c-20 0 -22 0 -48 -2c-38 -4 -56 -4 -76 -4c-133 0 -170 28 -170 108c0 96 61 314 63 320c45 132 156 199 268 199c111 0 185 -59 185 -167c0 -128 -102 -293 -292 -293c-80 0 -132 34 -157 77c-12 -60 -12 -77 -12 -91
c0 -41 0 -57 159 -57c109 0 169 0 169 -59c0 -6 -1 -17 -6 -38c-4 -16 -7 -18 -24 -18c-8 0 -29 2 -23 16v5zM307 28c33 0 92 19 127 99c17 41 49 159 49 208c0 13 0 81 -73 81c-38 0 -91 -23 -125 -83c-30 -56 -57 -180 -57 -218c0 -66 40 -87 79 -87z" />
    <glyph glyph-name="sigma1" unicode="&#x3c2;" horiz-adv-x="423" 
d="M393 21c0 -59 -52 -126 -122 -126c-7 0 -76 4 -76 29c0 9 7 18 19 18c4 0 6 0 11 -2c23 -9 44 -9 45 -9c31 0 32 34 32 35c0 10 -5 24 -21 34c-15 8 -48 24 -73 35c-54 25 -99 46 -123 68c-31 29 -50 68 -50 111c0 120 135 238 311 238c14 0 116 0 116 -39
c0 -12 -11 -28 -28 -28c-5 0 -8 0 -22 8c-42 23 -66 23 -77 23c-107 0 -215 -68 -215 -152c0 -22 11 -47 33 -66c18 -14 78 -42 102 -53c23 -11 86 -41 98 -49c19 -14 40 -35 40 -75z" />
    <glyph glyph-name="phi1" unicode="&#x3d5;" horiz-adv-x="747" 
d="M325 -7c-4 -23 -14 -96 -20 -138c-2 -13 -10 -71 -69 -71c-14 0 -47 8 -47 44c0 11 10 38 17 56c15 42 31 88 41 119c-119 24 -195 94 -195 187c0 38 26 156 92 235c17 18 18 19 34 19c9 0 23 0 23 -14c0 -4 0 -6 -14 -20c-62 -71 -86 -183 -86 -206
c0 -64 60 -99 178 -112c54 152 129 360 287 360c90 0 138 -72 138 -157c0 -169 -174 -303 -355 -303c-12 0 -14 0 -24 1zM339 88c53 0 134 0 212 40c83 43 102 104 102 138c0 55 -45 90 -104 90c-60 0 -113 -38 -148 -83c-46 -61 -52 -109 -62 -185z" />
    <glyph glyph-name="arrowlefttophalf" unicode="&#x21bc;" horiz-adv-x="1150" 
d="M209 281h831c17 0 45 0 45 -31c0 -30 -29 -30 -45 -30h-942c-23 0 -34 0 -34 24c0 17 5 19 17 26c124 65 185 150 227 237c6 11 13 11 29 11c14 0 31 0 31 -18c0 -8 -47 -129 -159 -219z" />
    <glyph glyph-name="arrowleftbothalf" unicode="&#x21bd;" horiz-adv-x="1150" 
d="M1040 220h-831c112 -90 159 -211 159 -219c0 -18 -17 -18 -31 -18c-19 0 -23 0 -30 14c-57 117 -136 187 -227 234c-11 7 -16 9 -16 26c0 24 11 24 34 24h942c17 0 45 0 45 -31c0 -30 -29 -30 -45 -30z" />
    <glyph glyph-name="arrowrighttophalf" unicode="&#x21c0;" horiz-adv-x="1150" 
d="M1051 220h-942c-17 0 -45 0 -45 31c0 30 29 30 45 30h831c-112 90 -159 211 -159 219c0 18 17 18 31 18c19 0 23 0 30 -14c49 -102 122 -179 223 -233c18 -9 20 -10 20 -27c0 -24 -11 -24 -34 -24z" />
    <glyph glyph-name="arrowrightbothalf" unicode="&#x21c1;" horiz-adv-x="1150" 
d="M940 220h-831c-17 0 -45 0 -45 31c0 30 29 30 45 30h942c23 0 34 0 34 -24c0 -17 -3 -19 -17 -26c-119 -63 -182 -144 -227 -237c-6 -11 -13 -11 -29 -11c-14 0 -31 0 -31 18c0 8 47 129 159 219z" />
    <glyph glyph-name="arrowhookleft" unicode="&#x21a9;" horiz-adv-x="319" 
d="M254 251c0 -11 -6 -31 -35 -31c-69 0 -155 51 -155 143c0 88 83 142 155 142c29 0 35 -20 35 -31c0 -27 -27 -29 -37 -30c-55 -4 -92 -39 -92 -81c0 -34 25 -78 98 -82c22 -1 31 -18 31 -30z" />
    <glyph glyph-name="arrowhookright" unicode="&#x21aa;" horiz-adv-x="319" 
d="M254 362c0 -88 -83 -142 -155 -142c-29 0 -35 20 -35 31c0 27 27 29 37 30c51 4 92 35 92 82c0 29 -21 77 -98 81c-22 1 -31 18 -31 30c0 11 6 31 35 31c69 0 155 -51 155 -143z" />
    <glyph glyph-name="triangleright" unicode="&#x22b2;" 
d="M519 219l-433 -249c-12 -7 -15 -9 -23 -9c-31 0 -31 31 -31 45v489c0 14 0 45 31 45c3 0 9 0 24 -9l432 -249c19 -11 23 -21 23 -32c0 -10 -5 -21 -23 -31zM451 251l-358 206v-413z" />
    <glyph glyph-name="triangleleft" unicode="&#x22b3;" 
d="M55 282l433 249c11 6 16 9 24 9c30 0 30 -30 30 -45v-489c0 -14 0 -45 -30 -45c-3 0 -10 0 -25 9l-432 249c-19 11 -23 23 -23 32c0 7 2 19 23 31zM123 250l358 -206v413z" />
    <glyph glyph-name="zerooldstyle" unicode="&#xf730;" 
d="M529 219c0 -165 -76 -236 -242 -236c-163 0 -242 69 -242 236c0 169 78 242 242 242c158 0 242 -67 242 -242zM287 19c49 0 94 19 106 61c11 37 11 100 11 148c0 50 0 108 -11 141c-12 36 -51 56 -106 56c-39 0 -92 -11 -107 -58c-10 -33 -10 -88 -10 -139
c0 -45 0 -113 11 -149c12 -38 53 -60 106 -60z" />
    <glyph glyph-name="oneoldstyle" unicode="&#xf731;" 
d="M352 427v-376c1 0 27 -4 72 -4h36c23 0 34 0 34 -24c0 -18 -8 -23 -25 -23c-27 0 -56 2 -84 2c-30 0 -60 1 -90 1c-28 0 -57 -1 -85 -1c-30 0 -60 -2 -89 -2c-22 0 -25 9 -25 23c0 24 10 24 34 24h35c23 0 60 0 68 4c2 1 3 2 3 20v308c-48 -9 -97 -9 -108 -9
c-33 0 -42 0 -42 23c0 24 13 24 38 24c119 0 167 25 193 38c9 6 11 6 16 6c19 0 19 -15 19 -34z" />
    <glyph glyph-name="twooldstyle" unicode="&#xf732;" 
d="M236 113h134c22 0 49 1 70 2c16 1 19 1 28 40c4 16 6 23 25 23c5 0 24 0 24 -18c0 -5 -31 -144 -32 -148c-4 -12 -13 -12 -33 -12h-367c-23 0 -34 0 -34 25c0 13 1 16 11 22c8 6 164 104 186 118c74 47 135 85 135 150c0 70 -71 99 -144 99c-16 0 -62 -1 -96 -22
c3 -2 24 -16 24 -44c0 -36 -29 -52 -51 -52c-23 0 -52 15 -52 53c0 112 174 112 208 112c36 0 245 0 245 -145c0 -27 -9 -54 -36 -79c-21 -19 -30 -22 -122 -62c-27 -12 -91 -44 -123 -61v-1z" />
    <glyph glyph-name="threeoldstyle" unicode="&#xf733;" 
d="M264 133h-43c-21 0 -30 0 -30 18c0 3 0 16 12 17c6 1 8 2 48 4c19 1 54 3 81 43c27 41 29 84 29 109c0 31 0 98 -89 98c-17 0 -78 -4 -117 -43c49 -8 56 -48 56 -64c0 -44 -35 -66 -66 -66c-24 0 -65 17 -65 67c0 78 77 145 198 145c144 0 216 -66 216 -140
c0 -88 -75 -145 -142 -166c118 -22 174 -96 174 -173c0 -95 -77 -193 -250 -193c-133 0 -228 62 -228 152c0 53 42 74 73 74c30 0 72 -22 72 -73c0 -35 -22 -62 -56 -71c37 -28 93 -39 133 -39c109 0 109 104 109 150c0 62 -5 151 -115 151z" />
    <glyph glyph-name="fouroldstyle" unicode="&#xf734;" 
d="M444 435v-388h64c23 0 34 0 34 -24c0 -23 -12 -23 -34 -23h-64v-124c0 -15 0 -17 1 -19c3 -4 48 -4 56 -4c32 0 41 0 41 -24c0 -17 -7 -23 -23 -23c-22 0 -46 2 -69 2s-46 1 -69 1c-26 0 -51 -1 -77 -1c-23 0 -47 -2 -70 -2c-8 0 -24 0 -24 23c0 24 13 24 34 24h20
c23 0 52 3 58 3v144h-256c-26 0 -34 0 -34 29c0 15 0 19 12 33l334 391c13 15 14 16 36 16c29 0 30 -6 30 -34zM333 339l-248 -292h248v292z" />
    <glyph glyph-name="fiveoldstyle" unicode="&#xf735;" 
d="M160 318v-140c24 19 67 39 131 39c144 0 226 -94 226 -211c0 -127 -100 -217 -258 -217c-123 0 -202 87 -202 175c0 46 34 65 63 65c30 0 63 -20 63 -63c0 -28 -15 -59 -61 -63c35 -59 100 -71 133 -71c49 0 81 21 97 41c26 35 26 81 26 135c0 42 -1 87 -11 117
c-7 23 -31 56 -80 56c-85 0 -121 -44 -136 -62c-6 -8 -9 -11 -21 -11c-23 0 -23 14 -23 36v284c0 20 0 33 15 33c3 0 4 -1 12 -4c37 -14 89 -28 156 -28c50 0 101 9 147 25c17 7 19 7 21 7c10 0 14 -9 14 -18c0 -22 -51 -69 -86 -91c-64 -39 -121 -42 -151 -42
c-9 0 -39 0 -75 8z" />
    <glyph glyph-name="sixoldstyle" unicode="&#xf736;" 
d="M180 344c43 80 102 80 124 80c93 0 137 -36 169 -69c50 -52 53 -116 53 -149c0 -81 -24 -123 -67 -164c-58 -54 -125 -59 -168 -59c-243 0 -243 268 -243 334c0 257 166 344 301 344c111 0 148 -66 148 -120c0 -41 -27 -61 -59 -61c-35 0 -58 26 -58 58c0 33 23 53 48 58
c-23 23 -58 26 -77 26c-67 0 -124 -39 -148 -99c-21 -53 -23 -122 -23 -179zM290 26c104 0 104 81 104 181c0 46 0 101 -12 130c-12 27 -38 51 -87 51c-60 0 -113 -53 -113 -176c0 -7 0 -89 14 -123c8 -18 35 -63 94 -63z" />
    <glyph glyph-name="sevenoldstyle" unicode="&#xf737;" 
d="M508 349l-119 -139c-38 -49 -75 -127 -75 -311v-40c0 -13 0 -70 -59 -70c-6 0 -58 0 -58 67c0 65 18 163 68 257c37 70 56 93 155 209h-186c-13 0 -97 0 -102 -6c-5 -4 -12 -24 -18 -58c-4 -25 -6 -33 -26 -33c-5 0 -24 0 -24 18c0 4 0 6 2 15l33 191c3 19 5 27 25 27
c18 0 21 -8 23 -15c3 -9 4 -10 31 -11c47 -2 117 -6 162 -6h184c23 0 34 0 34 -24c0 -11 0 -13 -16 -30c-17 -19 -17 -21 -34 -41z" />
    <glyph glyph-name="eightoldstyle" unicode="&#xf738;" 
d="M390 369c45 -25 65 -35 91 -66c29 -35 45 -75 45 -120c0 -109 -80 -200 -241 -200c-130 0 -237 54 -237 175c0 61 29 126 130 171c-49 27 -98 80 -98 154c0 103 76 178 208 178c122 0 206 -52 206 -150c0 -33 -7 -94 -104 -142zM347 394c36 22 74 56 74 116
c0 72 -53 112 -136 112c-53 0 -132 -12 -132 -82c0 -37 27 -52 80 -83zM224 303c-34 -18 -91 -62 -91 -144c0 -86 62 -133 156 -133c60 0 152 18 152 104c0 51 -37 72 -89 102z" />
    <glyph glyph-name="nineoldstyle" unicode="&#xf739;" 
d="M394 104c-43 -80 -103 -80 -124 -80c-93 0 -136 36 -164 65c-43 43 -58 88 -58 152c0 52 10 107 62 154c41 38 85 66 179 66c237 0 237 -263 237 -329c0 -257 -157 -343 -287 -343c-116 0 -162 58 -162 120c0 37 24 60 59 60s58 -26 58 -58c0 -28 -17 -49 -43 -57
c30 -20 69 -22 86 -22c67 0 114 42 133 86c20 49 24 114 24 186zM279 60c87 0 114 104 114 169c0 11 -2 64 -5 91c-11 81 -60 102 -98 102c-110 0 -110 -87 -110 -182c0 -99 0 -180 99 -180z" />
    <glyph glyph-name="period" unicode="." horiz-adv-x="319" 
d="M237 78c0 -43 -35 -78 -78 -78s-78 35 -78 78s35 78 78 78s78 -35 78 -78z" />
    <glyph glyph-name="comma" unicode="," horiz-adv-x="319" 
d="M214 21c-12 -11 -31 -21 -55 -21c-50 0 -78 38 -78 78c0 43 31 78 77 78c56 0 92 -55 92 -125c0 -138 -106 -225 -120 -225c-8 0 -19 12 -19 19c0 6 1 7 15 19c55 46 85 114 88 177z" />
    <glyph glyph-name="less" unicode="&#x3c;" horiz-adv-x="894" 
d="M772 525l-575 -275l575 -274c14 -7 25 -15 25 -32c0 -14 -12 -30 -31 -30c-2 0 -8 0 -22 7l-623 298c-13 6 -25 14 -25 32s14 26 25 31l626 299c7 4 12 6 19 6c19 0 31 -16 31 -30c0 -17 -11 -25 -25 -32z" />
    <glyph glyph-name="slash" unicode="/" 
d="M503 697l-376 -918c-5 -12 -12 -29 -33 -29c-14 0 -30 12 -30 31c0 4 0 6 7 22l376 917c6 15 12 30 33 30c14 0 30 -12 30 -31c0 -4 0 -6 -7 -22z" />
    <glyph glyph-name="greater" unicode="&#x3e;" horiz-adv-x="894" 
d="M772 219l-626 -299c-7 -4 -12 -6 -19 -6c-19 0 -31 16 -31 30c0 15 8 24 25 32l575 275l-575 274c-16 8 -25 16 -25 32s14 30 30 30c3 0 9 0 23 -7l623 -298c11 -5 25 -13 25 -31s-11 -26 -25 -32z" />
    <glyph glyph-name="star" 
d="M531 286l-162 -86l68 -138c16 -31 16 -33 20 -45c-2 -8 -9 -15 -17 -17c-11 4 -13 4 -23 14l-63 61c-22 22 -51 52 -67 65c-5 -5 -7 -5 -47 -44c-17 -17 -45 -44 -53 -53c-10 -10 -37 -37 -43 -40c-2 -1 -8 -2 -10 -3c-8 2 -15 9 -17 17c4 10 4 12 19 42
c19 42 46 94 69 141c-34 19 -121 64 -156 82c-21 12 -25 14 -25 25c0 12 10 18 18 18c3 0 5 0 15 -2l179 -26l31 178c2 14 5 28 20 28s17 -11 20 -29l31 -177c2 0 27 4 33 5c21 3 151 23 161 23c8 0 18 -6 18 -18c0 -11 -6 -14 -19 -21z" />
    <glyph glyph-name="partialdiff" unicode="&#x2202;" horiz-adv-x="628" 
d="M254 607c13 -2 44 -12 44 -47c0 -29 -26 -70 -71 -70c-43 0 -50 33 -50 46c0 31 46 175 219 175c140 0 261 -77 261 -252c0 -73 -54 -476 -378 -476c-57 0 -108 8 -149 39c-29 22 -71 65 -71 135c0 13 4 130 89 207c75 70 146 91 228 91c21 0 106 0 134 -103
c15 55 29 111 29 167c0 24 0 79 -42 117c-38 33 -86 36 -106 36c-54 0 -101 -20 -137 -65zM284 26c66 0 117 40 144 80c21 32 60 129 60 190c0 25 -4 123 -105 123c-82 0 -122 -49 -136 -69c-34 -51 -66 -200 -66 -238c0 -77 62 -86 103 -86z" />
    <glyph glyph-name="A" unicode="A" horiz-adv-x="869" 
d="M645 682l94 -615c3 -17 4 -18 16 -19c14 -1 25 -1 39 -1c25 0 40 0 40 -18c0 -29 -19 -29 -28 -29c-23 0 -47 2 -70 2s-46 1 -69 1c-33 0 -116 -3 -149 -3c-11 0 -22 5 -22 18c0 29 17 29 37 29c15 0 46 1 65 5l-23 146h-270l-92 -140c22 -11 50 -11 58 -11s26 0 26 -18
c0 -29 -20 -29 -27 -29c-36 0 -74 3 -111 3c-31 0 -65 -3 -95 -3c-12 0 -19 10 -19 18c0 29 18 29 32 29c73 1 85 19 97 38l393 601c14 21 22 25 44 25c25 0 30 -4 34 -29zM524 533l-188 -288h232z" />
    <glyph glyph-name="B" unicode="B" horiz-adv-x="866" 
d="M163 67l143 570c-21 1 -40 2 -61 2c-29 0 -42 0 -42 18c0 29 17 29 37 29h401c141 0 213 -57 213 -139c0 -67 -57 -160 -217 -189c92 -8 167 -51 167 -137c0 -89 -94 -221 -303 -221h-424c-16 0 -34 0 -34 18c0 4 0 20 12 27c4 2 6 2 32 2c16 0 36 0 53 1
c18 2 19 3 23 19zM431 621l-62 -246h158c136 0 192 107 192 177c0 87 -81 87 -101 87h-149c-11 0 -18 0 -27 -1c-6 -1 -7 -2 -11 -17zM312 47h160c142 0 193 113 193 190c0 102 -84 102 -110 102h-195l-72 -291c7 -1 9 -1 24 -1z" />
    <glyph glyph-name="C" unicode="C" horiz-adv-x="816" 
d="M852 673l-57 -225c-5 -21 -6 -22 -28 -22c-14 0 -27 0 -27 15c0 10 3 24 3 35c0 88 -51 180 -173 180c-110 0 -207 -48 -261 -112c-99 -116 -115 -303 -115 -332c0 -27 4 -95 58 -136c41 -32 95 -46 156 -46c114 0 244 72 285 199c5 17 6 19 25 19c9 0 23 0 23 -14
c0 -5 -18 -97 -115 -169c-76 -56 -161 -82 -245 -82c-175 0 -326 81 -326 270c0 205 177 450 499 450c69 0 137 -21 183 -72l93 72c11 0 25 0 25 -14c0 -6 -2 -11 -3 -16z" />
    <glyph glyph-name="D" unicode="D" horiz-adv-x="938" 
d="M163 67l143 570c-21 1 -40 2 -61 2c-29 0 -42 0 -42 18c0 29 17 29 37 29h399c149 0 276 -74 276 -247c0 -203 -160 -439 -447 -439h-391c-16 0 -34 0 -34 18c0 4 0 20 12 27c4 2 6 2 32 2c16 0 36 0 53 1c18 2 19 3 23 19zM436 621l-143 -573c7 -1 9 -1 24 -1h124
c115 0 219 46 277 163c27 56 64 194 64 264c0 23 0 82 -50 124c-48 38 -115 41 -144 41h-114c-11 0 -18 0 -27 -1c-6 -1 -7 -2 -11 -17z" />
    <glyph glyph-name="E" unicode="E" horiz-adv-x="810" 
d="M781 238l-96 -217c-9 -21 -13 -21 -37 -21h-571c-17 0 -34 0 -34 18c0 4 0 20 12 27c4 2 6 2 32 2c16 0 36 0 53 1c18 2 19 3 23 19l141 564c-21 1 -40 2 -61 2c-27 0 -41 0 -41 18c0 1 2 19 9 24c5 4 6 5 27 5h554c16 0 33 0 33 -18l-1 -16l-18 -179
c-2 -18 -3 -28 -24 -28c-5 0 -24 0 -24 19c0 16 4 38 4 56c0 95 -44 119 -153 119h-131c-10 0 -21 0 -34 -2l-63 -255h60c75 0 105 16 125 91c5 19 7 26 26 26c4 0 24 0 24 -18c0 -1 0 -3 -4 -16l-56 -223c-5 -18 -6 -24 -25 -24c-10 0 -23 3 -23 18l1 10c1 3 8 30 8 46
c0 34 -20 43 -79 43h-69l-70 -281c7 -1 9 -1 24 -1h130c169 0 221 66 281 198c12 27 13 29 29 29c5 0 24 0 24 -18c0 -1 0 -5 -6 -18z" />
    <glyph glyph-name="F" unicode="F" horiz-adv-x="688" 
d="M366 317l-67 -266c10 -2 25 -4 63 -4h33c16 0 33 0 33 -18c0 -29 -18 -29 -30 -29c-28 0 -57 2 -86 2c-30 0 -60 1 -90 1c-27 0 -54 -1 -81 -1c-25 0 -51 -2 -76 -2c-22 0 -22 17 -22 18c0 4 0 20 12 27c4 2 6 2 32 2c16 0 36 0 53 1c18 2 19 3 23 19l141 564
c-21 1 -40 2 -61 2c-27 0 -41 0 -41 18c0 1 2 19 9 24c5 4 6 5 27 5h538c16 0 33 0 33 -18l-1 -16l-18 -179c-2 -18 -3 -28 -24 -28c-5 0 -24 0 -24 19c0 4 4 34 4 58c0 88 -35 117 -149 117h-119c-10 0 -21 0 -34 -2l-66 -267h56c72 0 103 15 123 91c5 19 7 26 26 26
c4 0 24 0 24 -18c0 -1 0 -3 -4 -16l-56 -223c-5 -18 -6 -24 -25 -24c-10 0 -23 3 -23 18c0 2 1 7 3 14c3 12 6 31 6 42c0 33 -17 43 -77 43h-65z" />
    <glyph glyph-name="G" unicode="G" horiz-adv-x="886" 
d="M735 210l-47 -187c-4 -15 -6 -23 -16 -23c-7 0 -58 26 -83 52c-32 -34 -102 -69 -207 -69c-186 0 -327 87 -327 270c0 205 178 450 498 450c111 0 163 -52 183 -72l93 72c11 0 25 0 25 -14c0 -6 -2 -11 -3 -16l-57 -225c-5 -21 -6 -22 -28 -22c-14 0 -27 0 -27 15
c0 10 3 25 3 36c0 82 -47 179 -173 179c-102 0 -198 -42 -256 -107c-97 -109 -118 -288 -118 -334c0 -22 0 -91 53 -135c47 -38 107 -50 165 -50c63 0 143 26 160 94c1 1 17 65 18 72c7 24 7 26 7 27c0 6 -55 6 -66 6h-37c-16 0 -34 0 -34 18c0 29 19 29 31 29
c40 0 138 -3 178 -3c22 0 45 1 67 1c23 0 46 2 68 2c18 0 21 -13 21 -18c0 -29 -16 -29 -41 -29c-12 0 -26 0 -38 -2c-7 -1 -8 -2 -12 -17z" />
    <glyph glyph-name="H" unicode="H" horiz-adv-x="982" 
d="M911 635l-146 -586c21 -1 40 -2 61 -2c27 0 41 0 41 -18c0 -2 -2 -16 -6 -22c-5 -7 -13 -7 -23 -7c-25 0 -52 2 -78 2c-25 0 -51 1 -77 1c-25 0 -51 -1 -76 -1s-51 -2 -76 -2c-22 0 -22 17 -22 18c0 4 0 20 12 27c4 2 6 2 32 2c16 0 36 0 53 1c18 2 19 3 23 19l67 266
h-326l-71 -284c21 -1 40 -2 61 -2c27 0 41 0 41 -18c0 -2 -2 -16 -6 -22c-5 -7 -13 -7 -23 -7c-25 0 -52 2 -78 2c-25 0 -51 1 -77 1c-25 0 -51 -1 -76 -1s-51 -2 -76 -2c-22 0 -22 17 -22 18c0 4 0 20 12 27c4 2 6 2 32 2c16 0 36 0 53 1c18 2 19 3 23 19l143 570
c-21 1 -40 2 -61 2c-29 0 -42 0 -42 18c0 29 20 29 29 29c26 0 53 -2 79 -2c25 0 51 -1 77 -1c25 0 50 1 75 1s51 2 76 2c12 0 22 -5 22 -18c0 -1 -1 -19 -11 -26c-4 -3 -24 -3 -37 -3c-11 0 -46 0 -68 -4l-63 -255h326l64 257c-21 1 -40 2 -61 2c-29 0 -42 0 -42 18
c0 29 20 29 29 29c26 0 53 -2 79 -2c25 0 51 -1 77 -1c25 0 50 1 75 1s51 2 76 2c12 0 22 -5 22 -18c0 -1 -1 -19 -11 -26c-4 -3 -24 -3 -37 -3c-11 0 -46 0 -68 -4z" />
    <glyph glyph-name="I" unicode="I" horiz-adv-x="511" 
d="M441 618l-142 -569c13 -1 46 -2 53 -2h21c17 0 34 0 34 -18c0 -29 -20 -29 -30 -29c-25 0 -51 2 -77 2c-28 0 -55 1 -83 1c-27 0 -54 -1 -81 -1c-25 0 -51 -2 -76 -2c-11 0 -22 5 -22 18c0 29 17 29 37 29h21c13 0 31 0 43 2c19 1 20 2 24 18l143 570c-20 1 -44 2 -53 2
h-21c-18 0 -34 0 -34 18c0 29 18 29 29 29c25 0 52 -2 78 -2c27 0 55 -1 83 -1c27 0 54 1 80 1c25 0 51 2 76 2c12 0 22 -6 22 -18c0 -6 -3 -20 -9 -24c-5 -4 -6 -5 -27 -5h-21c-15 0 -28 0 -43 -1c-20 -2 -21 -3 -25 -20z" />
    <glyph glyph-name="J" unicode="J" horiz-adv-x="631" 
d="M602 620l-119 -474c-29 -117 -150 -163 -262 -163c-96 0 -165 40 -165 109c0 63 49 95 89 95c34 0 61 -24 61 -57c0 -27 -18 -74 -72 -87c30 -23 73 -24 82 -24c46 0 109 30 134 132l121 485c-24 3 -26 3 -65 3h-35c-18 0 -34 0 -34 18c0 29 18 29 30 29
c39 0 135 -3 174 -3c23 0 47 1 69 1c21 0 43 2 63 2s21 -16 21 -18c0 -29 -16 -29 -42 -29c-12 0 -26 0 -38 -2c-7 -1 -8 -2 -12 -17z" />
    <glyph glyph-name="K" unicode="K" horiz-adv-x="971" 
d="M589 420l182 -353c8 -16 10 -20 56 -20c15 0 32 0 32 -18c0 -29 -20 -29 -27 -29c-19 0 -40 2 -60 2c-21 0 -43 1 -64 1c-33 0 -115 -3 -148 -3c-21 0 -21 17 -21 18c0 2 2 17 6 22c6 7 12 7 25 7c4 0 34 0 54 6l-149 289l-124 -85l-52 -208c21 -1 40 -2 61 -2
c27 0 41 0 41 -18c0 -2 -2 -16 -6 -22c-6 -7 -13 -7 -23 -7c-25 0 -52 2 -78 2c-25 0 -51 1 -77 1c-25 0 -51 -1 -76 -1s-51 -2 -76 -2c-21 0 -22 16 -22 18c0 4 0 20 12 27c4 2 6 2 32 2c16 0 36 0 53 1c18 2 19 3 23 19l143 570c-21 1 -40 2 -61 2c-29 0 -42 0 -42 18
c0 29 20 29 29 29c26 0 53 -2 79 -2c25 0 51 -1 77 -1c25 0 50 1 75 1s51 2 76 2c12 0 22 -5 22 -18c0 -1 -1 -19 -11 -26c-4 -3 -24 -3 -37 -3c-11 0 -46 0 -68 -4l-79 -318l456 315c-17 6 -38 7 -46 7c-6 0 -24 0 -24 18c0 29 20 29 28 29c41 0 84 -3 125 -3
c26 0 55 3 80 3c10 0 18 -9 18 -18c0 -28 -16 -28 -34 -29c-51 -2 -72 -13 -95 -25c-35 -18 -218 -147 -285 -194z" />
    <glyph glyph-name="L" unicode="L" horiz-adv-x="755" 
d="M441 618l-142 -570c7 -1 9 -1 24 -1h80c170 0 225 132 253 202c8 21 10 25 27 25c9 0 24 -3 24 -18c0 -9 -77 -206 -88 -234c-8 -22 -9 -22 -36 -22h-506c-16 0 -34 0 -34 18c0 4 0 20 12 27c4 2 6 2 32 2c16 0 36 0 53 1c18 2 19 3 23 19l143 570c-21 1 -40 2 -61 2
c-29 0 -42 0 -42 18c0 29 20 29 29 29c25 0 51 -2 77 -2c27 0 55 -1 83 -1s56 1 84 1c30 0 60 2 89 2c4 0 23 0 23 -18c0 -29 -16 -29 -36 -29h-33c-52 0 -69 -4 -71 -5s-3 -2 -7 -16z" />
    <glyph glyph-name="M" unicode="M" horiz-adv-x="1142" 
d="M1100 635l-146 -586c21 -1 40 -2 61 -2c28 0 41 0 41 -18c0 -1 -1 -16 -7 -22c-5 -7 -13 -7 -21 -7c-23 0 -47 2 -71 2c-26 0 -51 1 -77 1c-23 0 -47 -1 -70 -1c-24 0 -49 -2 -73 -2c-21 0 -22 16 -22 18c0 4 0 20 12 27c4 2 6 2 32 2c16 0 36 0 53 1c18 2 19 3 23 19
l142 570l-1 1l-432 -615c-8 -11 -16 -23 -36 -23c-21 0 -24 15 -27 30l-121 594h-1l-141 -567c24 -10 59 -10 70 -10c13 0 30 0 30 -18c0 -29 -19 -29 -27 -29c-25 0 -89 3 -114 3c-37 0 -75 -3 -111 -3c-15 0 -20 12 -20 18c0 29 17 29 36 29c3 0 33 0 57 6
c25 5 25 6 30 26l140 558c-21 1 -40 2 -61 2c-29 0 -42 0 -42 18c0 29 17 29 37 29h188c25 0 34 0 40 -28l107 -529l375 532c15 22 20 25 51 25h178c18 0 34 0 34 -18c0 -29 -13 -29 -48 -29c-11 0 -46 0 -68 -4z" />
    <glyph glyph-name="N" unicode="N" horiz-adv-x="950" 
d="M905 608l-147 -584c-5 -20 -6 -24 -28 -24c-15 0 -19 0 -30 18l-349 584l-136 -545c24 -10 60 -10 69 -10c13 0 31 0 31 -18c0 -29 -20 -29 -27 -29c-25 0 -89 3 -114 3c-37 0 -75 -3 -111 -3c-18 0 -20 15 -20 18c0 29 17 29 36 29c3 0 33 0 57 6c25 5 25 6 30 26
l136 541c1 4 3 10 3 14c0 3 0 5 -44 5h-24c-18 0 -34 0 -34 18c0 29 17 29 37 29h189c24 0 27 0 37 -17l282 -471l108 431c-24 10 -61 10 -70 10c-14 0 -31 0 -31 18c0 29 20 29 27 29c25 0 89 -3 114 -3c37 0 75 3 111 3c13 0 20 -9 20 -18c0 -29 -17 -29 -35 -29
c-16 0 -41 -2 -58 -5c-24 -6 -24 -7 -29 -26z" />
    <glyph glyph-name="O" unicode="O" horiz-adv-x="836" 
d="M815 445c0 -206 -163 -462 -470 -462c-167 0 -292 80 -292 255c0 200 162 465 471 465c173 0 291 -88 291 -258zM355 25c57 0 148 22 223 132c65 94 101 269 101 334c0 127 -82 172 -165 172c-58 0 -141 -23 -208 -105c-82 -103 -112 -290 -112 -353c0 -23 0 -90 44 -134
c38 -39 84 -46 117 -46z" />
    <glyph glyph-name="P" unicode="P" horiz-adv-x="723" 
d="M362 302l-63 -253c21 -1 40 -2 61 -2c29 0 41 0 41 -19c0 -28 -19 -28 -29 -28c-25 0 -52 2 -78 2c-25 0 -51 1 -77 1c-25 0 -51 -1 -76 -1s-51 -2 -76 -2c-22 0 -22 17 -22 18c0 5 0 20 13 26c3 3 5 3 31 3c16 0 36 0 53 1c18 2 19 3 23 19l143 570c-21 1 -40 2 -61 2
c-28 0 -42 0 -42 18c0 29 18 29 37 29h385c132 0 224 -52 224 -154c0 -118 -126 -230 -310 -230h-177zM436 621l-70 -278h137c90 0 135 28 156 55c37 48 50 150 50 162c0 69 -75 79 -131 79h-104c-11 0 -18 0 -27 -1c-6 -1 -7 -2 -11 -17z" />
    <glyph glyph-name="Q" unicode="Q" horiz-adv-x="868" 
d="M444 -57v50c-50 -10 -87 -10 -99 -10c-167 0 -292 80 -292 255c0 200 162 465 471 465c173 0 291 -88 291 -258c0 -114 -63 -345 -305 -434c25 -58 51 -58 73 -58c10 0 84 0 103 50c2 5 6 15 18 15c10 0 18 -8 18 -18c0 -21 -57 -194 -181 -194c-90 0 -97 86 -97 137z
M268 43c-1 4 -1 5 -1 13c0 56 60 99 115 99c61 0 88 -43 108 -92c179 107 192 413 192 420c0 132 -82 180 -168 180c-65 0 -150 -29 -214 -111c-86 -112 -114 -294 -114 -351c0 -67 20 -128 82 -158zM443 39c-2 73 -34 80 -60 80c-41 0 -80 -31 -80 -63c0 -33 34 -33 52 -33
c41 0 81 13 88 16z" />
    <glyph glyph-name="R" unicode="R" horiz-adv-x="872" 
d="M436 621l-65 -260h116c100 0 145 31 159 45c52 52 56 149 56 150c0 83 -94 83 -185 83c-25 0 -69 0 -75 -2c-1 -1 -2 -2 -6 -16zM633 339c65 -24 86 -69 86 -108c0 -9 -3 -28 -5 -40c-13 -80 -14 -96 -14 -111c0 -50 19 -61 46 -61c38 0 74 38 87 78c4 15 7 20 24 20
c6 0 24 0 24 -18c0 -16 -37 -116 -143 -116c-52 0 -186 8 -186 112c0 16 4 31 14 73c7 25 16 61 16 75c0 75 -70 82 -99 82h-121l-69 -276c21 -1 40 -2 61 -2c27 0 41 0 41 -18c0 -1 -2 -17 -7 -22c-5 -7 -13 -7 -21 -7c-34 0 -119 3 -153 3c-24 0 -49 -1 -73 -1
c-25 0 -51 -2 -76 -2c-21 0 -22 16 -22 18c0 4 0 20 12 27c4 2 6 2 32 2c16 0 36 0 53 1c18 2 19 3 23 19l143 570c-21 1 -40 2 -61 2c-29 0 -42 0 -42 18c0 29 17 29 37 29h347c150 0 257 -53 257 -153c0 -51 -32 -146 -211 -194z" />
    <glyph glyph-name="S" unicode="S" horiz-adv-x="692" 
d="M710 668l-48 -188c-5 -20 -6 -22 -25 -22c-10 0 -24 0 -24 15c0 3 3 21 3 39c0 113 -76 148 -159 148c-121 0 -165 -89 -165 -137c0 -39 27 -70 71 -80l78 -18c84 -19 108 -24 144 -60c23 -23 45 -63 45 -117c0 -102 -87 -265 -283 -265c-48 0 -133 8 -189 58
c-16 -13 -54 -46 -57 -48c-11 -9 -11 -10 -20 -10c-8 0 -17 3 -17 14l51 208c5 19 6 23 26 23c9 0 23 0 23 -14c0 -2 -1 -7 -1 -10c-5 -19 -5 -33 -5 -41c0 -20 0 -68 57 -103c46 -27 112 -30 136 -30c130 0 171 105 171 153c0 72 -62 86 -79 90c-28 6 -55 12 -78 18
c-74 17 -98 22 -133 53c-24 23 -48 61 -48 114c0 102 91 245 276 245c67 0 120 -18 159 -58l55 46c13 12 15 12 22 12s18 -2 18 -15c0 -2 -3 -17 -4 -20z" />
    <glyph glyph-name="T" unicode="T" horiz-adv-x="636" 
d="M493 610l-140 -560c24 -3 48 -3 72 -3h41c17 0 34 0 34 -18c0 -29 -19 -29 -31 -29c-32 0 -64 2 -96 2c-34 0 -68 1 -102 1c-33 0 -66 -1 -99 -1c-32 0 -64 -2 -95 -2c-7 0 -24 0 -24 19c0 28 17 28 36 28h42c51 0 77 4 83 5l143 575c-20 1 -22 1 -52 1
c-142 0 -177 -23 -229 -169c-8 -20 -10 -25 -27 -25c-5 0 -24 0 -24 18c0 2 6 17 6 18l64 185c7 20 13 20 36 20h607c20 0 34 0 34 -20l-28 -193c-3 -20 -6 -28 -25 -28c-6 0 -24 0 -24 19c0 2 2 12 2 18c4 24 7 42 7 68c0 84 -49 89 -145 89h-42c-19 -1 -20 -2 -24 -18z
" />
    <glyph glyph-name="U" unicode="U" horiz-adv-x="800" 
d="M755 608l-96 -382c-34 -137 -154 -243 -333 -243c-151 0 -263 64 -263 195c0 19 0 27 9 63l61 247l22 88c5 19 15 56 15 58c0 5 -32 5 -56 5c-33 0 -46 0 -46 18c0 29 19 29 29 29c26 0 53 -2 79 -2c25 0 51 -1 77 -1c25 0 50 1 75 1s51 2 76 2c11 0 22 -5 22 -18
c0 -29 -13 -29 -48 -29c-11 0 -46 0 -68 -4l-105 -419c-6 -25 -10 -50 -10 -75c0 -72 44 -111 138 -111c120 0 238 60 274 205l99 394c-24 10 -61 10 -70 10c-14 0 -31 0 -31 18c0 29 20 29 27 29c25 0 89 -3 114 -3c37 0 75 3 111 3c12 0 20 -7 20 -18
c0 -29 -16 -29 -35 -29c-16 0 -41 -2 -58 -5c-24 -6 -24 -7 -29 -26z" />
    <glyph glyph-name="V" unicode="V" horiz-adv-x="677" 
d="M759 599l-407 -590c-13 -19 -18 -26 -46 -26c-19 0 -30 0 -35 28l-114 608c-3 17 -4 18 -15 19c-14 1 -26 1 -39 1c-21 0 -37 0 -37 18c0 29 19 29 28 29c21 0 44 -2 66 -2c23 0 46 -1 69 -1c24 0 49 1 73 1c25 0 51 2 76 2c12 0 22 -5 22 -18c0 -29 -16 -29 -38 -29
c-7 0 -61 0 -61 -8c0 -3 1 -11 2 -14l88 -468l330 480c-22 10 -51 10 -56 10c-9 0 -26 0 -26 18c0 29 19 29 27 29c35 0 74 -3 110 -3c30 0 62 3 91 3c13 0 18 -12 18 -18c0 -29 -18 -29 -30 -29c-69 -1 -81 -18 -96 -40z" />
    <glyph glyph-name="W" unicode="W" horiz-adv-x="1093" 
d="M1090 601l-373 -592c-11 -18 -19 -26 -41 -26c-24 0 -27 7 -30 30l-59 455l-289 -459c-12 -19 -21 -26 -42 -26c-24 0 -26 10 -29 30l-81 624c-13 1 -33 2 -48 2c-17 0 -33 0 -33 18c0 29 19 29 27 29c1 0 39 -2 66 -2c21 0 43 -1 64 -1c33 0 115 3 148 3
c21 0 21 -17 21 -18s-2 -18 -8 -23c-5 -5 -6 -6 -29 -6c-15 0 -46 -1 -65 -5l60 -463l221 350c8 11 8 13 8 16l-13 100c-13 1 -33 2 -48 2c-16 0 -33 0 -33 18c0 29 20 29 27 29c2 0 38 -2 67 -2c21 0 43 -1 64 -1c33 0 114 3 147 3c21 0 21 -17 21 -18
c0 -29 -16 -29 -37 -29c-15 0 -46 -1 -65 -5l60 -463l289 457c-26 11 -66 11 -70 11c-7 0 -25 0 -25 18c0 29 19 29 27 29c37 0 77 -3 115 -3c28 0 58 3 85 3c10 0 18 -9 18 -18c0 -29 -18 -29 -30 -29c-63 -1 -75 -19 -87 -38z" />
    <glyph glyph-name="X" unicode="X" horiz-adv-x="947" 
d="M582 395l158 -331c7 -13 8 -14 23 -16c15 -1 25 -1 39 -1c24 0 40 0 40 -18c0 -29 -20 -29 -28 -29c-23 0 -47 2 -70 2s-46 1 -69 1c-34 0 -119 -3 -153 -3c-21 0 -22 15 -22 18c0 29 19 29 29 29c24 0 57 6 58 6l-113 236l-233 -232c19 -7 39 -10 59 -10
c8 0 26 0 26 -18c0 -29 -20 -29 -28 -29c-29 0 -101 3 -130 3c-24 0 -85 -3 -109 -3c-15 0 -20 11 -20 18c0 29 17 29 35 29c89 1 110 22 128 39l251 248l-138 289c-6 12 -7 13 -21 15c-14 1 -25 1 -39 1c-28 0 -41 0 -41 19c0 28 19 28 28 28c23 0 47 -2 70 -2s46 -1 69 -1
c34 0 118 3 152 3c13 0 22 -5 22 -19c0 -28 -18 -28 -29 -28c-17 0 -48 -4 -58 -6l92 -193l191 189c-4 1 -30 9 -60 10c-9 0 -25 1 -25 19c0 28 20 28 28 28c29 0 101 -3 130 -3c36 0 74 3 109 3c16 0 20 -12 20 -18c0 -3 -2 -29 -21 -29c-104 -1 -116 -13 -156 -51l-62 -63
z" />
    <glyph glyph-name="Y" unicode="Y" horiz-adv-x="674" 
d="M734 600l-305 -326l-56 -225c21 -1 40 -2 61 -2c28 0 42 0 42 -18c0 -29 -20 -29 -29 -29c-34 0 -119 3 -153 3c-24 0 -49 -1 -73 -1c-25 0 -51 -2 -76 -2c-21 0 -22 16 -22 18c0 7 4 20 10 25c4 4 6 4 36 4c18 0 35 0 52 2c18 1 19 2 23 19l52 206l-152 349
c-6 13 -8 13 -20 15c-14 1 -26 1 -39 1c-27 0 -41 0 -41 18c0 29 18 29 28 29c23 0 48 -2 72 -2c22 0 46 -1 69 -1c34 0 121 3 155 3c11 0 22 -5 22 -18c0 -28 -17 -29 -34 -29c-27 0 -28 0 -56 -4l128 -293l271 290c-15 5 -35 7 -45 7s-27 0 -27 18c0 29 20 29 27 29
c36 0 74 -3 111 -3c30 0 63 3 92 3c13 0 18 -12 18 -18c0 -29 -18 -29 -29 -29c-67 -1 -90 -16 -112 -39z" />
    <glyph glyph-name="Z" unicode="Z" horiz-adv-x="772" 
d="M790 638l-549 -587h144c190 0 237 93 280 220c5 13 16 13 23 13c10 0 23 -3 23 -18c0 -1 0 -3 -3 -14l-74 -229c-7 -23 -10 -23 -36 -23h-500c-20 0 -30 0 -30 14c0 19 10 30 18 38l549 587h-134c-138 0 -213 -50 -258 -177c-5 -14 -9 -17 -24 -17c-6 0 -23 1 -23 18
c0 2 0 5 5 20l55 179c7 24 11 24 37 24h483c18 0 29 0 29 -14s-7 -25 -15 -34z" />
    <glyph glyph-name="flat" horiz-adv-x="447" 
d="M111 716v-275c24 16 64 33 117 33c87 0 154 -61 154 -144c0 -79 -40 -151 -93 -205c-72 -75 -188 -140 -190 -141c-4 -1 -7 -1 -11 -1c-24 0 -24 11 -24 34v699c0 22 0 34 24 34c23 0 23 -12 23 -34zM111 341v-288c77 73 146 170 146 278c0 18 -2 81 -45 81
c-2 0 -41 0 -72 -16c-29 -15 -29 -33 -29 -55z" />
    <glyph glyph-name="natural" horiz-adv-x="447" 
d="M374 535v-712c0 -18 0 -23 -5 -29c-4 -3 -17 -10 -24 -10c-18 0 -18 16 -18 34v167l-219 -104c-5 -2 -12 -6 -18 -6c-18 0 -18 16 -18 34v786c0 18 0 23 5 29c4 3 17 10 24 10c18 0 18 -16 18 -34v-241l219 104c5 2 12 6 18 6c18 0 18 -16 18 -34zM119 15l208 98v316
l-208 -98v-316z" />
    <glyph glyph-name="sharp" horiz-adv-x="447" 
d="M295 -32l-144 -64v-81c0 -18 0 -23 -5 -29c-4 -3 -18 -10 -24 -10c-18 0 -18 17 -18 34v65c-4 -2 -17 -8 -22 -8c-18 0 -18 16 -18 34v57c0 20 0 26 11 32c4 3 27 12 29 13v316c-4 -2 -17 -8 -22 -8c-18 0 -18 16 -18 34v57c0 20 0 26 11 32c4 3 27 12 29 13v137
c0 18 0 23 5 29c5 4 18 10 24 10c18 0 18 -16 18 -34v-121l144 64v137c0 18 0 23 5 29c4 3 18 10 24 10c18 0 18 -17 18 -34v-121c4 2 17 8 22 8c18 0 18 -16 18 -34v-57c0 -20 0 -27 -11 -32l-29 -13v-316c4 2 17 8 22 8c18 0 18 -16 18 -34v-57c0 -20 0 -27 -11 -32
l-29 -13v-81c0 -18 0 -23 -5 -29c-5 -4 -18 -10 -24 -10c-18 0 -18 16 -18 34v65zM295 412l-144 -64v-316l144 64v316z" />
    <glyph glyph-name="slurbelow" unicode="&#x2323;" horiz-adv-x="1150" 
d="M1085 361c0 -8 0 -10 -22 -33c-142 -158 -338 -203 -489 -203c-219 0 -393 91 -491 206c-19 20 -19 22 -19 30c0 14 11 24 24 24c10 0 15 -6 23 -15c119 -139 308 -171 463 -171c154 0 339 31 458 164c20 21 21 22 29 22c13 0 24 -10 24 -24z" />
    <glyph glyph-name="slurabove" unicode="&#x2322;" horiz-adv-x="1150" 
d="M1085 140c0 -14 -11 -24 -24 -24c-9 0 -10 1 -27 21c-128 157 -322 187 -460 187c-150 0 -339 -39 -456 -183c-20 -24 -21 -25 -30 -25c-13 0 -24 10 -24 24c0 18 84 120 201 182c112 60 222 76 310 76c75 0 199 -12 331 -88c101 -58 179 -153 179 -170z" />
    <glyph glyph-name="lscript" unicode="&#x2113;" horiz-adv-x="473" 
d="M102 126l-55 -47c-14 -13 -16 -13 -21 -13c-11 0 -23 22 -23 27c0 6 1 7 14 19c17 16 62 53 79 68c0 196 120 522 274 522c36 0 77 -21 77 -97c0 -145 -159 -304 -212 -356c-7 -8 -28 -26 -35 -34c-5 -30 -9 -53 -9 -86c0 -24 2 -105 60 -105c53 0 110 42 148 73
c10 10 12 10 16 10c12 0 24 -21 24 -27c0 -7 -1 -8 -24 -27c-70 -52 -129 -65 -166 -65c-67 0 -128 41 -147 138zM217 294c12 11 64 65 103 119c71 96 82 164 82 201c0 32 -8 52 -33 52c-44 0 -81 -113 -88 -134c-17 -52 -22 -71 -64 -238z" />
    <glyph glyph-name="a" unicode="a" horiz-adv-x="632" 
d="M515 317l-23 -89c-5 -22 -15 -62 -22 -90c-10 -40 -14 -56 -14 -73c0 -33 12 -37 23 -37c25 0 48 20 68 100c6 25 6 27 8 29c5 5 9 5 20 5c9 0 24 0 24 -14c0 -5 -13 -59 -38 -99c-21 -36 -50 -57 -87 -57c-11 0 -77 0 -115 54c-16 -15 -68 -54 -139 -54
c-83 0 -175 42 -175 165c0 137 108 295 282 295c58 0 91 -26 106 -42c12 15 32 25 51 25c21 0 47 -12 47 -44c0 -9 -10 -49 -16 -74zM349 93l61 251l2 14c0 11 -24 58 -83 58c-41 0 -90 -25 -121 -98c-16 -39 -50 -162 -50 -214c0 -22 5 -76 67 -76c48 0 95 31 124 65z" />
    <glyph glyph-name="b" unicode="b" horiz-adv-x="520" 
d="M281 659l-59 -239c21 13 61 32 109 32c83 0 175 -42 175 -165c0 -132 -103 -295 -284 -295c-75 0 -170 35 -170 163c0 23 0 35 14 91l69 276c10 38 20 81 28 115c-13 2 -31 2 -42 2c-7 0 -26 0 -26 18c0 28 18 29 32 30l129 6c2 1 3 1 7 1c11 0 22 -5 22 -18
c0 -1 0 -3 -4 -17zM224 28c29 0 85 17 119 98c16 39 50 162 50 214c0 22 -5 76 -67 76c-61 0 -118 -51 -123 -68c-7 -30 -24 -99 -34 -137c-7 -31 -17 -68 -17 -100c0 -62 33 -83 72 -83z" />
    <glyph glyph-name="c" unicode="c" horiz-adv-x="513" 
d="M431 396c-26 19 -58 20 -71 20c-42 0 -103 -18 -143 -86c-30 -52 -56 -174 -56 -209c0 -60 33 -93 99 -93c78 0 157 22 211 79c7 8 9 11 15 11c9 0 25 -18 25 -26c0 -12 -40 -53 -98 -76c-60 -23 -129 -24 -155 -24c-156 0 -212 83 -212 173c0 131 112 287 313 287
c88 0 140 -40 140 -93c0 -41 -30 -77 -72 -77c-41 0 -50 31 -50 46c0 2 1 52 54 68z" />
    <glyph glyph-name="d" unicode="d" horiz-adv-x="609" 
d="M600 659l-138 -551c-4 -14 -6 -28 -6 -43c0 -33 12 -37 23 -37c25 0 48 20 68 100c6 25 6 27 8 29c5 5 9 5 20 5c9 0 24 0 24 -14c0 -5 -13 -59 -38 -99c-21 -36 -50 -57 -87 -57c-11 0 -77 0 -115 54c-16 -15 -68 -54 -139 -54c-83 0 -175 42 -175 165
c0 137 108 295 282 295c53 0 86 -22 101 -36l54 221c-13 2 -31 2 -42 2c-8 0 -26 0 -26 18c0 28 18 29 32 30l129 6c2 1 3 1 7 1c11 0 22 -5 22 -18c0 -1 0 -3 -4 -17zM349 93l61 251l2 14c0 11 -24 58 -83 58c-41 0 -90 -25 -121 -98c-16 -39 -50 -162 -50 -214
c0 -22 5 -76 67 -76c48 0 95 31 124 65z" />
    <glyph glyph-name="e" unicode="e" horiz-adv-x="553" 
d="M222 218h-44c-11 -41 -15 -74 -15 -93c0 -57 26 -97 98 -97c78 0 156 22 210 79c7 8 9 11 15 11c9 0 25 -18 25 -26c0 -12 -40 -53 -98 -76c-60 -23 -129 -24 -155 -24c-132 0 -209 65 -209 180c0 155 128 280 309 280c82 0 137 -38 137 -96c0 -32 -14 -89 -99 -118
c-42 -14 -107 -20 -174 -20zM187 254c97 0 248 0 248 101c0 45 -41 61 -77 61c-31 0 -77 -11 -112 -46c-17 -16 -41 -43 -59 -116z" />
    <glyph glyph-name="f" unicode="f" horiz-adv-x="568" 
d="M429 397l-54 -302c-3 -17 -26 -144 -69 -210c-8 -13 -60 -87 -135 -87c-52 0 -109 26 -109 80c0 38 31 74 72 74c25 0 49 -16 49 -46c0 -28 -19 -54 -44 -66c7 -3 15 -6 34 -6c32 0 48 46 50 51c5 14 16 77 18 86l76 426h-92c-16 0 -33 0 -33 18c0 29 17 29 36 29h98
c19 107 25 146 48 183c35 56 91 75 138 75c62 0 114 -29 114 -80c0 -38 -31 -74 -72 -74c-25 0 -49 16 -49 46c0 27 18 53 42 65c-12 5 -21 7 -35 7c-5 0 -16 0 -29 -12c-10 -9 -10 -11 -13 -29l-33 -181h112c17 0 34 0 34 -18c0 -29 -18 -29 -37 -29h-117z" />
    <glyph glyph-name="g" unicode="g" horiz-adv-x="544" 
d="M530 365l-107 -426c-30 -120 -168 -141 -258 -141c-71 0 -159 4 -159 70c0 46 38 74 71 74s50 -24 50 -46c0 -4 -2 -37 -31 -58c26 -4 44 -4 68 -4c27 0 60 0 102 35c35 28 42 58 49 87c7 25 13 50 19 75c-18 -11 -58 -31 -110 -31c-86 0 -175 45 -175 163
c0 131 104 289 281 289c59 0 92 -26 106 -41c13 15 31 24 51 24c21 0 47 -12 47 -44c0 -4 0 -10 -4 -26zM355 113l58 232c3 11 3 13 3 15c0 7 -22 56 -84 56c-30 0 -87 -14 -122 -100c-15 -37 -48 -157 -48 -205c0 -53 29 -75 68 -75c9 0 56 0 109 48c12 11 12 15 16 29z
" />
    <glyph glyph-name="h" unicode="h" horiz-adv-x="667" 
d="M316 659l-67 -269c68 62 129 62 151 62c72 0 149 -24 149 -116c0 -56 -46 -173 -65 -222c-6 -16 -17 -43 -17 -65c0 -21 10 -21 17 -21c16 0 71 10 103 121c4 13 11 13 23 13c9 0 24 0 24 -14c0 -20 -50 -156 -156 -156c-55 0 -113 32 -113 90c0 17 3 24 14 51
c19 49 63 166 63 224c0 49 -24 59 -50 59c-83 0 -133 -68 -149 -90c-15 -20 -15 -22 -20 -41l-60 -237c-14 -56 -59 -56 -65 -56c-29 0 -48 21 -48 45c0 4 3 19 4 23l144 577c-13 2 -31 2 -42 2c-8 0 -26 0 -26 18c0 28 18 29 32 30l129 6c2 1 3 1 7 1c11 0 22 -5 22 -18
c0 -1 0 -3 -4 -17z" />
    <glyph glyph-name="i" unicode="i" horiz-adv-x="404" 
d="M334 646c0 -34 -34 -69 -71 -69c-29 0 -49 21 -49 48c0 34 33 69 71 69c28 0 49 -21 49 -48zM359 148c0 -22 -51 -156 -155 -156c-62 0 -114 37 -114 90c0 9 3 21 8 34l67 173c24 60 33 82 33 105c0 19 -6 22 -16 22c-21 0 -72 -16 -103 -121c-4 -13 -11 -13 -23 -13
c-9 0 -24 0 -24 14c0 22 51 156 155 156c62 0 114 -37 114 -90c0 -9 -3 -21 -8 -34l-67 -173c-24 -60 -33 -82 -33 -105c0 -19 6 -22 16 -22c21 0 72 16 103 121c4 13 11 13 23 13c9 0 24 0 24 -14z" />
    <glyph glyph-name="j" unicode="j" horiz-adv-x="470" 
d="M450 646c0 -34 -33 -69 -71 -69c-28 0 -49 21 -49 48c0 34 34 69 71 69c29 0 49 -21 49 -48zM204 -46l96 382c3 13 6 24 6 43c0 35 -14 37 -24 37c-39 0 -95 -32 -133 -118c-7 -15 -8 -16 -25 -16c-9 0 -24 0 -24 14c0 17 68 156 187 156c62 0 126 -34 126 -98
c0 -14 -2 -23 -5 -34l-92 -366c-31 -125 -165 -156 -228 -156c-62 0 -102 30 -102 71c0 43 36 73 71 73c33 0 50 -24 50 -46c0 -3 0 -38 -35 -60c6 -2 11 -2 16 -2c53 0 100 55 116 120z" />
    <glyph glyph-name="k" unicode="k" horiz-adv-x="603" 
d="M316 659l-96 -386c38 21 86 67 96 78c59 57 114 101 175 101c43 0 76 -30 76 -82c0 -71 -53 -84 -72 -84c-33 0 -50 24 -50 46c0 25 19 65 69 72c0 1 -7 12 -26 12c-30 0 -72 -12 -149 -88c-55 -53 -79 -69 -89 -76c72 -7 173 -23 173 -108c0 -7 0 -14 -3 -25
c-6 -23 -8 -42 -8 -52c0 -30 10 -39 26 -39c51 0 75 85 83 114c5 18 7 20 25 20c9 0 24 0 24 -14c0 -8 -37 -156 -137 -156c-66 0 -128 38 -128 103c0 10 0 11 3 24c3 11 3 14 3 21c0 61 -87 73 -106 75c-29 -116 -43 -174 -46 -183c-14 -31 -43 -40 -61 -40
c-29 0 -48 21 -48 45c0 4 3 19 4 23l144 577c-13 2 -31 2 -42 2c-7 0 -26 0 -26 18c0 28 18 29 32 30l129 6c2 1 3 1 7 1c11 0 22 -5 22 -18c0 -1 0 -3 -4 -17z" />
    <glyph glyph-name="l" unicode="l" horiz-adv-x="348" 
d="M284 659l-138 -551c-3 -14 -6 -24 -6 -44c0 -26 8 -36 23 -36c27 0 49 24 68 100c6 25 6 27 8 29c5 5 9 5 20 5c9 0 24 0 24 -14c0 -6 -14 -60 -38 -99c-22 -36 -50 -57 -87 -57c-59 0 -125 32 -125 98c0 14 2 23 5 34l128 513c-13 2 -31 2 -42 2c-7 0 -26 0 -26 18
c0 28 18 29 32 30l129 6c2 1 3 1 7 1c11 0 22 -5 22 -18c0 -1 0 -3 -4 -17z" />
    <glyph glyph-name="m" unicode="m" horiz-adv-x="1032" 
d="M431 110l45 180c4 15 11 44 11 67c0 49 -24 59 -50 59c-42 0 -75 -17 -103 -39c-33 -27 -61 -72 -62 -78c-2 -3 -27 -106 -31 -119c-10 -43 -18 -75 -28 -112c-7 -30 -19 -76 -71 -76c-31 0 -47 23 -47 44c0 7 5 26 8 40l36 140c5 22 15 62 22 90c10 40 14 56 14 73
c0 27 -8 37 -23 37c-26 0 -48 -22 -68 -100c-6 -25 -6 -27 -8 -29c-5 -5 -9 -5 -20 -5c-9 0 -24 0 -24 14c0 5 13 59 38 99c22 36 50 57 87 57c54 0 109 -26 123 -76c71 76 144 76 165 76c11 0 61 0 97 -21c38 -21 45 -52 48 -65c75 86 151 86 174 86c72 0 149 -24 149 -116
c0 -56 -46 -173 -62 -214c-10 -25 -20 -50 -20 -73c0 -21 10 -21 17 -21c16 0 70 10 103 121c4 13 11 13 23 13c9 0 24 0 24 -14c0 -20 -50 -156 -156 -156c-55 0 -113 32 -113 90c0 17 3 24 14 51c19 50 63 167 63 224c0 49 -24 59 -50 59c-70 0 -117 -48 -143 -82
c-21 -28 -23 -33 -26 -48c-10 -41 -55 -230 -63 -251c-15 -34 -46 -43 -63 -43c-31 0 -47 23 -47 44c0 7 11 49 17 74z" />
    <glyph glyph-name="n" unicode="n" horiz-adv-x="712" 
d="M280 376c71 76 144 76 165 76c72 0 149 -24 149 -116c0 -56 -46 -173 -62 -214c-10 -25 -20 -50 -20 -73c0 -21 10 -21 17 -21c16 0 70 10 103 121c4 13 11 13 23 13c9 0 24 0 24 -14c0 -20 -50 -156 -156 -156c-55 0 -113 32 -113 90c0 17 3 24 14 51
c19 50 63 167 63 224c0 49 -24 59 -50 59c-42 0 -75 -17 -103 -39c-33 -27 -61 -72 -62 -78c-2 -3 -27 -106 -31 -119c-10 -43 -18 -75 -28 -112c-7 -30 -19 -76 -71 -76c-31 0 -47 23 -47 44c0 7 5 26 8 40l36 140c5 22 15 62 22 90c10 40 14 56 14 73c0 27 -8 37 -23 37
c-26 0 -48 -22 -68 -100c-6 -25 -6 -27 -8 -29c-5 -5 -9 -5 -20 -5c-9 0 -24 0 -24 14c0 5 13 59 38 99c22 36 50 57 87 57c54 0 109 -26 123 -76z" />
    <glyph glyph-name="o" unicode="o" horiz-adv-x="584" 
d="M569 279c0 -126 -107 -287 -315 -287c-131 0 -208 66 -208 173c0 126 107 287 315 287c131 0 208 -66 208 -173zM256 28c45 0 105 22 142 87c30 53 56 173 56 208c0 76 -53 93 -95 93c-45 0 -105 -22 -142 -87c-30 -53 -56 -173 -56 -208c0 -76 53 -93 95 -93z" />
    <glyph glyph-name="p" unicode="p" horiz-adv-x="600" 
d="M52 -129l117 465c4 14 6 28 6 43c0 33 -12 37 -23 37c-25 0 -48 -20 -68 -100c-6 -25 -6 -27 -8 -29c-5 -5 -9 -5 -20 -5c-9 0 -24 0 -24 14c0 5 13 59 38 99c21 36 50 57 87 57c11 0 77 0 115 -54c16 15 68 54 139 54c83 0 175 -42 175 -165c0 -137 -108 -295 -282 -295
c-53 0 -86 22 -101 36l-43 -174c13 -1 29 -1 43 -1c10 0 26 -1 26 -18c0 -29 -19 -29 -26 -29c-34 0 -72 3 -107 3c-30 0 -63 -3 -92 -3c-11 0 -19 8 -19 19c0 28 18 28 35 28c9 0 20 0 26 2c1 1 2 2 6 16zM282 351l-61 -251l-2 -14c0 -11 24 -58 83 -58c41 0 90 25 121 98
c16 39 50 162 50 214c0 22 -5 76 -67 76c-48 0 -95 -31 -124 -65z" />
    <glyph glyph-name="q" unicode="q" horiz-adv-x="542" 
d="M543 434l-144 -580c13 -1 29 -1 43 -1c9 0 26 -1 26 -18c0 -29 -19 -29 -26 -29c-36 0 -74 3 -111 3c-35 0 -72 -3 -106 -3c-16 0 -20 12 -20 18c0 1 3 17 8 23s11 6 28 6c11 0 27 0 38 2c7 1 8 2 12 17l38 152c-21 -13 -61 -32 -109 -32c-83 0 -175 42 -175 165
c0 137 108 295 282 295c59 0 93 -27 107 -43c31 29 90 43 91 43c14 0 18 -13 18 -18zM350 107l60 237c1 3 2 10 2 14c0 11 -24 58 -83 58c-41 0 -90 -25 -121 -98c-16 -39 -50 -162 -50 -214c0 -22 5 -76 67 -76c35 0 77 18 109 50c11 10 11 12 16 29z" />
    <glyph glyph-name="r" unicode="r" horiz-adv-x="528" 
d="M444 402c-3 3 -14 14 -39 14c-50 0 -87 -29 -110 -58c-13 -15 -13 -17 -17 -32c-1 -6 -69 -278 -70 -281c-11 -41 -46 -53 -66 -53c-31 0 -47 23 -47 44c0 7 12 52 18 78c5 18 16 63 20 82c7 25 23 91 28 108c11 47 14 58 14 76c0 26 -8 36 -23 36
c-27 0 -49 -24 -68 -100c-6 -25 -6 -27 -8 -29c-5 -5 -9 -5 -20 -5c-9 0 -24 0 -24 14c0 6 14 60 38 99c22 36 50 57 87 57c36 0 93 -14 117 -60c30 32 77 60 133 60c62 0 98 -41 98 -87c0 -51 -38 -79 -72 -79c-33 0 -50 24 -50 46c0 10 6 59 61 70z" />
    <glyph glyph-name="s" unicode="s" horiz-adv-x="531" 
d="M414 394c-27 20 -63 22 -83 22c-112 0 -112 -75 -112 -77c0 -37 39 -44 94 -54c35 -6 73 -13 104 -40c23 -20 40 -47 40 -81c0 -1 0 -172 -228 -172c-102 0 -172 34 -172 99c0 50 38 78 72 78c20 0 49 -10 49 -46c0 -30 -21 -59 -55 -69c22 -16 59 -26 108 -26
c149 0 149 91 149 95c0 45 -60 56 -90 61c-68 13 -85 16 -113 38c-22 18 -36 46 -36 76c0 25 16 83 61 117c46 35 102 37 131 37c90 0 143 -35 143 -88c0 -48 -37 -68 -61 -68c-22 0 -43 15 -43 41c0 14 9 44 42 57z" />
    <glyph glyph-name="t" unicode="t" horiz-adv-x="415" 
d="M252 397l-73 -289c-3 -13 -6 -24 -6 -43c0 -37 15 -37 24 -37c39 0 95 32 133 118c7 15 8 16 25 16c9 0 24 0 24 -14c0 -17 -68 -156 -187 -156c-62 0 -126 33 -126 98c0 11 10 53 17 79l57 228h-81c-18 0 -34 0 -34 18c0 29 17 29 37 29h90l20 82c7 28 19 74 23 82
c16 28 43 35 58 35c21 0 47 -12 47 -44c0 -4 0 -10 -4 -26l-32 -129h80c16 0 33 0 33 -18c0 -6 -3 -20 -9 -24c-5 -5 -7 -5 -27 -5h-89z" />
    <glyph glyph-name="u" unicode="u" horiz-adv-x="681" 
d="M563 317l-23 -89c-5 -22 -15 -62 -22 -90c-10 -40 -14 -56 -14 -73c0 -27 8 -37 23 -37c26 0 48 22 68 100c6 25 6 27 8 29c5 5 9 5 20 5c9 0 24 0 24 -14c0 -5 -13 -59 -38 -99c-21 -36 -50 -57 -87 -57c-24 0 -82 6 -114 55c-54 -51 -98 -55 -127 -55
c-59 0 -159 16 -159 130c0 49 19 105 61 210c4 12 16 40 16 63c0 21 -10 21 -17 21c-16 0 -70 -10 -103 -121c-4 -13 -11 -13 -23 -13c-9 0 -24 0 -24 14c0 20 50 156 156 156c55 0 113 -32 113 -90c0 -17 -3 -24 -13 -50c-28 -72 -59 -150 -59 -211c0 -23 1 -73 60 -73
c51 0 90 41 108 65c2 18 9 47 15 70c8 33 53 214 57 228c13 44 50 53 66 53c31 0 47 -23 47 -44c0 -7 -12 -55 -19 -83z" />
    <glyph glyph-name="v" unicode="v" horiz-adv-x="566" 
d="M541 362c0 -86 -73 -370 -245 -370c-87 0 -173 28 -173 134c0 48 15 93 61 209c3 8 15 37 15 60c0 21 -10 21 -17 21c-18 0 -71 -13 -103 -121c-4 -13 -11 -13 -23 -13c-9 0 -24 0 -24 14c0 20 50 156 156 156c55 0 113 -32 113 -90c0 -16 -3 -25 -11 -45
c-32 -80 -60 -153 -60 -211c0 -18 0 -78 72 -78c117 0 175 219 175 241c0 20 -8 38 -50 63c-9 5 -30 17 -30 45c0 34 36 76 76 76c1 0 68 0 68 -91z" />
    <glyph glyph-name="w" unicode="w" horiz-adv-x="831" 
d="M556 355l-14 -56c-6 -23 -18 -72 -25 -101c-12 -50 -16 -65 -16 -91c0 -20 1 -79 73 -79c43 0 75 26 103 76c31 55 56 150 56 165c0 22 -11 40 -50 63c-9 5 -30 17 -30 45c0 36 38 76 76 76c1 0 68 0 68 -91c0 -52 -31 -178 -71 -253c-46 -88 -99 -117 -159 -117
c-78 0 -123 22 -150 56c-46 -56 -92 -56 -112 -56c-86 0 -182 26 -182 136c0 42 15 91 54 188c12 31 22 56 22 79c0 21 -11 21 -17 21c-16 0 -70 -10 -103 -121c-4 -13 -11 -13 -23 -13c-9 0 -24 0 -24 14c0 20 50 156 156 156c55 0 113 -32 113 -90c0 -17 -10 -41 -18 -61
c-40 -102 -52 -149 -52 -191c0 -21 0 -82 81 -82c58 0 85 61 85 66c0 6 -3 5 -3 32c0 13 0 26 8 61c16 68 34 141 51 204c13 45 50 53 66 53c31 0 47 -22 47 -44c0 -5 -6 -30 -10 -45z" />
    <glyph glyph-name="x" unicode="x" horiz-adv-x="659" 
d="M536 401c-20 15 -43 15 -48 15c-35 0 -70 -31 -85 -91c-5 -16 -28 -110 -35 -136c-9 -37 -22 -90 -22 -111c0 -32 18 -50 56 -50c41 0 113 30 142 121c4 13 11 13 23 13c9 0 24 0 24 -14c0 -33 -68 -156 -194 -156c-57 0 -113 19 -138 61c-13 -18 -50 -61 -107 -61
c-61 0 -114 35 -114 88c0 49 37 78 72 78c33 0 50 -24 50 -46c0 -25 -18 -59 -54 -69c20 -15 43 -15 48 -15c34 0 70 30 85 91l34 137c9 36 23 91 23 110c0 32 -18 50 -56 50c-41 0 -113 -30 -142 -121c-4 -13 -11 -13 -23 -13c-9 0 -24 0 -24 14c0 33 68 156 194 156
c57 0 113 -19 138 -61c13 18 50 61 107 61c61 0 114 -35 114 -88c0 -49 -37 -78 -72 -78c-33 0 -50 24 -50 46c0 25 18 59 54 69z" />
    <glyph glyph-name="y" unicode="y" horiz-adv-x="590" 
d="M577 377l-94 -378c-31 -124 -163 -201 -278 -201c-81 0 -134 36 -134 87c0 44 35 76 72 76c20 0 49 -10 49 -46c0 -27 -16 -54 -48 -67c20 -12 48 -14 61 -14c69 0 144 65 172 188c-37 -26 -71 -30 -96 -30c-59 0 -159 16 -159 130c0 51 21 108 60 208c6 16 17 42 17 65
c0 21 -10 21 -17 21c-15 0 -70 -10 -103 -121c-4 -13 -11 -13 -23 -13c-9 0 -24 0 -24 14c0 20 50 156 156 156c55 0 113 -32 113 -90c0 -17 -3 -24 -13 -50c-28 -72 -59 -150 -59 -211c0 -23 1 -73 60 -73c33 0 57 17 68 24c3 2 34 26 39 48c11 41 30 118 42 166l26 104
c7 27 19 74 71 74c31 0 47 -22 47 -44c0 -3 0 -5 -5 -23z" />
    <glyph glyph-name="z" unicode="z" horiz-adv-x="555" 
d="M241 341h-20c-30 -2 -37 -3 -51 -10c-3 -13 -14 -13 -23 -13c-8 0 -24 0 -24 14c0 31 57 120 145 120c37 0 62 -18 86 -36c23 -16 45 -32 71 -32c24 0 43 23 67 58c6 10 8 10 23 10c9 0 23 0 23 -14c0 -4 -22 -69 -224 -223c-102 -77 -118 -93 -146 -120
c22 1 217 9 223 10c67 8 77 33 86 52c3 9 14 9 21 9s24 0 24 -14c0 -38 -73 -160 -185 -160c-38 0 -63 18 -94 40c-15 11 -38 28 -65 28c-16 0 -53 -7 -89 -57c-7 -10 -8 -11 -24 -11c-9 0 -23 0 -23 14c0 4 22 69 224 223c101 76 117 92 145 119c-40 -1 -89 -4 -129 -6
c-14 -1 -27 0 -41 -1z" />
    <glyph glyph-name="dotlessi" unicode="&#x131;" horiz-adv-x="393" 
d="M359 148c0 -22 -51 -156 -155 -156c-62 0 -114 37 -114 90c0 9 3 21 8 34l67 173c24 60 33 82 33 105c0 19 -6 22 -16 22c-21 0 -72 -16 -103 -121c-4 -13 -11 -13 -23 -13c-9 0 -24 0 -24 14c0 22 51 156 155 156c62 0 114 -37 114 -90c0 -9 -3 -21 -8 -34l-67 -173
c-24 -60 -33 -82 -33 -105c0 -19 6 -22 16 -22c21 0 72 16 103 121c4 13 11 13 23 13c9 0 24 0 24 -14z" />
    <glyph glyph-name="dotlessj" unicode="&#xf6be;" horiz-adv-x="438" 
d="M408 320l-92 -366c-30 -121 -154 -156 -218 -156s-112 25 -112 72c0 39 34 72 71 72c33 0 50 -24 50 -46c0 -5 -2 -38 -34 -60c13 -2 15 -2 24 -2c51 0 90 53 107 121l96 381c3 13 6 24 6 43c0 37 -15 37 -24 37c-39 0 -95 -32 -133 -118c-7 -15 -8 -16 -25 -16
c-9 0 -24 0 -24 14c0 17 68 156 187 156c62 0 126 -33 126 -98c0 -14 -2 -23 -5 -34z" />
    <glyph glyph-name="weierstrass" unicode="&#x2118;" horiz-adv-x="740" 
d="M203 143l69 -77c36 -38 50 -54 50 -100c0 -72 -54 -177 -148 -177c-57 0 -90 43 -90 118c0 21 2 80 38 171c-33 33 -36 74 -36 103c0 122 81 280 181 280c7 0 18 -2 18 -15c0 -19 -13 -20 -18 -21c-70 -10 -105 -141 -105 -198c0 -13 0 -31 11 -48
c78 122 215 238 374 238c112 0 174 -63 174 -155c0 -123 -100 -270 -270 -270c-68 0 -107 43 -107 95c0 20 5 58 41 58c23 0 30 -19 30 -28c0 -25 -23 -36 -24 -37c5 -38 32 -52 60 -52c29 0 88 14 124 93c17 36 44 140 44 181c0 50 -25 79 -77 79
c-133 0 -266 -106 -339 -238zM157 39c-29 -79 -29 -143 -29 -144c0 -48 16 -70 47 -70c49 0 71 64 71 94c0 17 -6 27 -10 31c-7 10 -36 39 -79 89z" />
    <glyph glyph-name="vector" 
d="M554 588h-322c-16 0 -45 0 -45 30c0 31 28 31 45 31h348c-2 2 -20 30 -20 44c0 16 14 31 31 31c19 0 25 -14 31 -25c14 -31 40 -44 52 -51c8 -3 23 -11 23 -29c0 -21 -15 -26 -32 -33c-46 -20 -69 -43 -83 -56c-11 -11 -16 -17 -29 -17c-16 0 -30 14 -30 30
c0 11 5 18 12 25c4 4 4 6 19 20z" />
    <glyph glyph-name="tie" unicode="&#x2040;" horiz-adv-x="319" 
d="M737 569c0 -28 -12 -28 -26 -28c-22 0 -22 6 -22 23c-3 12 -7 29 -65 42c-36 9 -75 9 -101 9c-25 0 -173 0 -202 -62c-5 -12 -9 -12 -23 -12c-8 0 -23 0 -23 14c0 24 44 111 254 111c174 0 208 -61 208 -97z" />
    <glyph glyph-name="space" unicode=" " horiz-adv-x="333" 
 />
  </font>
</defs>
</svg>
