<?xml version="1.0" standalone="no"?>
<!DOCTYPE svg PUBLIC "-//W3C//DTD SVG 1.1//EN" "http://www.w3.org/Graphics/SVG/1.1/DTD/svg11.dtd" >
<svg>
<metadata>
Created by FontForge 20060822 at Fri Oct  6 18:23:09 2006
 By Wojciech Mula,,,
Copyright (C) 1997 American Mathematical Society. All Rights Reserved
</metadata>
<defs>
<font id="CMR10" horiz-adv-x="500" >
  <font-face 
    font-family="Computer Modern"
    font-weight="500"
    font-stretch="normal"
    units-per-em="1000"
    panose-1="2 0 6 3 0 0 0 0 0 0"
    ascent="800"
    descent="-200"
    x-height="431"
    cap-height="683"
    bbox="-40 -250 1009 750"
    underline-thickness="0"
    underline-position="0"
    stemh="31"
    stemv="69"
    unicode-range="U+0020-U+FB04"
  />
    <missing-glyph />
    <glyph glyph-name="ff" unicode="ff" horiz-adv-x="583" 
d="M448 400v-322c0 -36 2 -47 76 -47h21v-31c-40 3 -87 3 -127 3c-28 0 -75 -2 -114 -3v31c67 0 78 0 78 45v324h-210v-324c0 -45 11 -45 78 -45v-31c-37 1 -86 3 -111 3s-78 -2 -111 -3v31c67 0 78 0 78 45v324h-79v31h79v114c0 108 116 160 211 160c27 0 83 -5 112 -42
c5 4 49 42 108 42c56 0 91 -34 91 -70c0 -24 -15 -44 -44 -44c-27 0 -43 20 -43 43c0 25 18 38 30 42c-15 7 -30 7 -33 7c-45 0 -93 -47 -93 -136v-116h118v-31h-115zM169 431h213v115c0 12 0 21 3 34c-27 9 -28 34 -28 40c0 28 20 41 36 44c0 0 -28 19 -77 19
c-65 0 -147 -42 -147 -139v-113z" />
    <glyph glyph-name="fi" unicode="fi" horiz-adv-x="555" 
d="M330 400h-158v-324c0 -45 11 -45 78 -45v-31c-37 1 -86 3 -111 3s-78 -2 -111 -3v31c67 0 78 0 78 45v324h-79v31h79v114c0 109 119 160 212 160c74 0 129 -42 129 -101c0 -30 -23 -46 -46 -46c-19 0 -45 13 -45 46c0 16 6 44 47 46c-20 23 -56 33 -86 33
c-62 0 -148 -40 -148 -139v-113h118c14 0 16 0 18 1c1 0 2 1 18 2l126 9v-367c0 -45 11 -45 78 -45v-31c-37 1 -86 3 -111 3s-78 -2 -111 -3v31c67 0 78 0 78 45v270c0 41 -7 54 -53 54z" />
    <glyph glyph-name="fl" unicode="fl" horiz-adv-x="555" 
d="M383 400h-211v-324c0 -45 11 -45 78 -45v-31c-37 1 -86 3 -111 3s-78 -2 -111 -3v31c67 0 78 0 78 45v324h-79v31h79v114c0 104 109 160 214 160c11 0 52 0 84 -14c4 -2 5 -3 9 -3l36 6v-618c0 -45 11 -45 78 -45v-31c-37 1 -86 3 -111 3s-78 -2 -111 -3v31
c67 0 78 0 78 45v324zM383 431v164c-17 6 -25 21 -25 39c0 26 16 36 25 40c-28 9 -55 9 -64 9c-74 0 -150 -46 -150 -139v-113h214z" />
    <glyph glyph-name="ffi" unicode="ffi" horiz-adv-x="833" 
d="M607 400h-158v-324c0 -45 11 -45 78 -45v-31c-37 1 -86 3 -111 3s-78 -2 -111 -3v31c67 0 78 0 78 45v324h-211v-324c0 -45 11 -45 78 -45v-31c-37 1 -86 3 -111 3s-78 -2 -111 -3v31c67 0 78 0 78 45v324h-79v31h79v114c0 109 117 160 211 160c50 0 92 -20 115 -55
c18 15 75 55 163 55c74 0 129 -42 129 -101c0 -30 -23 -46 -46 -46c-19 0 -45 13 -45 46c0 16 6 44 47 46c-20 23 -56 33 -86 33c-62 0 -148 -40 -148 -139v-113h118c14 0 16 0 18 1c48 4 56 4 105 8l39 3v-367c0 -45 11 -45 78 -45v-31c-37 1 -86 3 -111 3s-78 -2 -111 -3
v31c67 0 78 0 78 45v270c0 41 -7 54 -53 54zM383 431v130c-18 5 -30 21 -30 43c0 20 9 44 48 46c-27 28 -62 33 -86 33c-59 0 -146 -39 -146 -139v-113h214z" />
    <glyph glyph-name="ffl" unicode="ffl" horiz-adv-x="833" 
d="M660 400h-211v-324c0 -45 11 -45 78 -45v-31c-37 1 -86 3 -111 3s-78 -2 -111 -3v31c67 0 78 0 78 45v324h-211v-324c0 -45 11 -45 78 -45v-31c-37 1 -86 3 -111 3s-78 -2 -111 -3v31c67 0 78 0 78 45v324h-79v31h79v114c0 107 114 160 212 160c41 0 97 -11 118 -52
c37 30 91 52 161 52c11 0 52 0 84 -14c4 -2 5 -3 9 -3l36 6v-618c0 -45 11 -45 78 -45v-31c-37 1 -86 3 -111 3s-78 -2 -111 -3v31c67 0 78 0 78 45v324zM383 431v114c0 11 0 24 3 35c-22 8 -28 25 -28 40c0 33 26 42 36 44c-26 16 -60 19 -77 19c-67 0 -148 -42 -148 -139
v-113h214zM660 431v164c-17 6 -25 21 -25 39c0 26 16 36 25 40c-28 9 -55 9 -64 9c-74 0 -150 -46 -150 -139v-113h214z" />
    <glyph glyph-name="Gamma" unicode="&#x393;" horiz-adv-x="625" 
d="M554 680l28 -225h-25c-16 135 -37 194 -180 194h-103c-47 0 -49 -7 -49 -40v-530c0 -35 0 -48 95 -48h33v-31c-36 3 -127 3 -168 3c-39 0 -117 0 -152 -3v31h24c77 0 79 11 79 47v524c0 36 -2 47 -79 47h-24v31h521z" />
    <glyph glyph-name="Delta" unicode="&#x394;" horiz-adv-x="833" 
d="M442 698l338 -678c5 -9 5 -11 5 -12c0 -8 -6 -8 -22 -8h-694c-16 0 -22 0 -22 8c0 1 0 3 5 12l338 678c7 13 9 18 26 18s19 -5 26 -18zM384 616l-270 -540h539z" />
    <glyph glyph-name="Theta" unicode="&#x398;" horiz-adv-x="777" 
d="M721 339c0 -202 -151 -361 -333 -361c-178 0 -332 156 -332 361c0 206 153 366 332 366c182 0 333 -162 333 -366zM389 1c94 0 235 83 235 338c0 253 -135 344 -236 344c-96 0 -235 -87 -235 -344c0 -252 137 -338 236 -338zM567 414v-144h-25v34h-307v-34h-25v144h25
v-34h307v34h25z" />
    <glyph glyph-name="Lambda" unicode="&#x39b;" horiz-adv-x="694" 
d="M370 695l200 -621c12 -37 15 -43 91 -43v-31c-39 1 -84 3 -123 3c-38 0 -109 0 -144 -3v31c26 0 85 0 85 30c0 2 0 4 -5 18l-158 492l-150 -466c-5 -14 -5 -17 -5 -22c0 -24 23 -51 77 -52v-31c-31 1 -84 3 -113 3c-9 0 -60 -1 -93 -3v31c70 0 90 39 100 69l192 595
c5 17 7 21 23 21c11 0 17 -2 23 -21z" />
    <glyph glyph-name="Xi" unicode="&#x39e;" horiz-adv-x="666" 
d="M611 677l8 -156h-25c-2 41 -5 67 -12 78c-6 8 -65 8 -76 8h-346c-9 0 -70 0 -76 -8c-7 -11 -10 -37 -12 -78h-25l8 156h556zM50 0l-8 167h25c2 -44 4 -74 12 -87c7 -10 62 -10 80 -10h348c22 0 74 0 80 11c8 14 9 40 12 86h25l-8 -167h-566zM527 438v-172h-25v51h-338
v-51h-25v172h25v-51h338v51h25z" />
    <glyph glyph-name="Pi" unicode="&#x3a0;" horiz-adv-x="750" 
d="M613 602v-524c0 -36 2 -47 79 -47h24v-31c-35 3 -110 3 -148 3s-112 0 -147 -3v31h24c77 0 79 11 79 47v571h-299v-571c0 -36 2 -47 79 -47h24v-31c-35 3 -110 3 -148 3s-112 0 -147 -3v31h24c77 0 79 11 79 47v524c0 36 -2 47 -79 47h-24v31h683v-31h-24
c-77 0 -79 -11 -79 -47z" />
    <glyph glyph-name="Sigma" unicode="&#x3a3;" horiz-adv-x="722" 
d="M372 326l-251 -284h276c157 0 225 27 243 194h25l-28 -236h-555c-15 0 -25 0 -25 11c0 3 0 5 10 16l238 271l-249 362c0 23 2 23 26 23h555l28 -225h-25c-21 158 -71 194 -240 194h-231l205 -296c3 -4 7 -9 7 -14c0 -2 0 -6 -9 -16z" />
    <glyph glyph-name="Upsilon" unicode="&#x3a5;" horiz-adv-x="777" 
d="M433 351v-272c0 -35 0 -48 95 -48h33v-31c-36 3 -132 3 -173 3s-136 0 -172 -3v31h33c95 0 95 14 95 48v272c0 80 -20 277 -158 277c-5 0 -91 0 -99 -80c-1 -5 -1 -13 -15 -13c-16 0 -16 9 -16 17c0 60 40 153 131 153c159 0 194 -200 201 -243h1c24 152 97 243 201 243
c91 0 131 -93 131 -153c0 -8 0 -17 -16 -17c-13 0 -14 7 -15 16c-7 62 -68 77 -99 77c-132 0 -158 -182 -158 -277z" />
    <glyph glyph-name="Phi" unicode="&#x3a6;" horiz-adv-x="722" 
d="M399 135v-56c0 -35 0 -48 95 -48h33v-31c-36 3 -129 3 -170 3s-133 0 -169 -3v31h33c95 0 95 14 95 48v56c-149 15 -260 104 -260 207c0 99 107 191 260 206v56c0 35 0 48 -95 48h-33v31c36 -3 129 -3 170 -3s133 0 169 3v-31h-33c-95 0 -95 -14 -95 -48v-56
c152 -12 266 -103 266 -207c0 -101 -111 -194 -266 -206zM316 158v367c-150 -20 -160 -132 -160 -184c0 -62 18 -164 160 -183zM399 526v-369c151 18 166 125 166 185c0 76 -28 168 -166 184z" />
    <glyph glyph-name="Psi" unicode="&#x3a8;" horiz-adv-x="777" 
d="M427 604v-444c108 26 141 132 142 242c1 145 50 152 89 152h38c16 0 24 0 24 -11c0 -9 -7 -10 -13 -11c-54 -7 -55 -96 -55 -112c0 -44 -1 -123 -53 -194c-39 -52 -100 -82 -172 -91v-56c0 -35 0 -48 95 -48h33v-31c-36 3 -129 3 -170 3s-133 0 -169 -3v31h33
c95 0 95 14 95 48v56c-68 9 -129 38 -168 92c-48 67 -51 146 -51 169c-1 118 -26 132 -59 136c-6 1 -9 6 -9 11c0 11 10 11 25 11h37c44 0 88 -19 89 -140c0 -65 5 -219 136 -254v444c0 35 0 48 -95 48h-33v31c36 -3 129 -3 170 -3s133 0 169 3v-31h-33
c-95 0 -95 -14 -95 -48z" />
    <glyph glyph-name="Omega" unicode="&#x3a9;" horiz-adv-x="722" 
d="M677 162l-33 -162h-159c-23 0 -26 0 -26 21c0 69 32 159 47 201c29 82 56 158 56 233c0 156 -106 228 -202 228c-91 0 -201 -68 -201 -228c0 -75 28 -154 49 -212c23 -64 54 -152 54 -222c0 -21 -3 -21 -25 -21h-160l-33 162h25c5 -25 10 -51 18 -74c5 -15 8 -23 66 -23
h80c-13 56 -45 104 -89 170c-47 71 -88 140 -88 219c0 137 133 251 305 251c169 0 304 -112 304 -251c0 -79 -41 -148 -88 -219c-45 -66 -76 -114 -89 -170h80c58 0 61 8 66 24c9 24 13 47 18 73h25z" />
    <glyph glyph-name="dotlessi" unicode="&#x131;" horiz-adv-x="277" 
d="M177 442v-367c0 -39 4 -44 70 -44v-31c-34 1 -69 3 -104 3c-24 0 -78 -2 -110 -3v31c67 0 78 0 78 45v269c0 49 -9 55 -74 55v31z" />
    <glyph glyph-name="dotlessj" unicode="&#xf6be;" horiz-adv-x="305" 
d="M210 442v-492c0 -91 -62 -155 -137 -155c-57 0 -113 28 -113 80c0 26 18 46 46 46s46 -20 46 -46c0 -27 -20 -41 -35 -45c26 -13 49 -13 54 -13c64 0 73 86 73 131v396c0 49 -9 56 -86 56v31z" />
    <glyph glyph-name="grave" unicode="`" 
d="M275 510l-151 122c-10 8 -17 18 -17 30c0 18 18 36 36 36c16 0 27 -13 30 -17l120 -154z" />
    <glyph glyph-name="acute" unicode="&#xb4;" 
d="M375 632l-152 -122l-17 18l120 153c4 6 15 17 30 17c18 0 36 -18 36 -36c0 -12 -8 -23 -17 -30z" />
    <glyph glyph-name="caron" unicode="&#x2c7;" 
d="M250 569l117 69l14 -20l-132 -102l-131 102l14 20z" />
    <glyph glyph-name="breve" unicode="&#x2d8;" 
d="M377 694h22c-2 -105 -72 -172 -150 -172c-74 0 -147 64 -149 172h22c2 -85 65 -134 128 -134c59 0 125 47 127 134z" />
    <glyph glyph-name="macron" unicode="&#xaf;" 
d="M430 559h-361v31h361v-31z" />
    <glyph glyph-name="ring" unicode="&#x2da;" horiz-adv-x="750" 
d="M470 629c0 -48 -41 -88 -96 -88c-51 0 -95 38 -95 88c0 44 39 87 96 87c54 0 95 -41 95 -87zM375 563c43 0 70 20 70 66s-28 65 -71 65s-70 -20 -70 -66s28 -65 71 -65z" />
    <glyph glyph-name="cedilla" unicode="&#xb8;" horiz-adv-x="444" 
d="M284 -22v-33c46 -7 83 -28 83 -71c0 -39 -33 -57 -74 -66c-47 -11 -114 -11 -118 -11h-44v22h31c93 0 136 17 136 55c0 31 -29 54 -83 55v49h69z" />
    <glyph glyph-name="germandbls" unicode="&#xdf;" 
d="M310 419c129 -53 161 -173 161 -245c0 -112 -89 -185 -175 -185c-58 0 -95 36 -95 76c0 25 19 37 36 37c20 0 36 -14 36 -36c0 -24 -19 -34 -30 -36c18 -17 41 -19 50 -19c38 0 103 33 103 162c0 104 -40 226 -159 236c-9 1 -9 9 -9 11c0 10 7 10 16 11
c89 8 124 69 124 133c0 88 -55 119 -96 119c-20 0 -100 -11 -100 -125v-558c-18 3 -35 3 -46 3c-13 0 -79 -2 -98 -3v31c67 0 78 0 78 45v324h-78v31h78v125c0 100 89 149 166 149c99 0 171 -67 171 -142c0 -58 -44 -119 -133 -144z" />
    <glyph glyph-name="ae" unicode="&#xe6;" horiz-adv-x="722" 
d="M395 231c0 -217 137 -217 147 -217c62 0 108 47 123 97c5 16 6 20 15 20c5 0 13 -2 13 -12c0 -19 -42 -130 -155 -130c-30 0 -108 8 -167 89c-24 -49 -86 -89 -167 -89c-67 0 -159 24 -159 103c0 96 119 158 281 158v48c0 87 -55 128 -106 128c-36 0 -83 -14 -108 -46
c46 -1 51 -34 51 -46c0 -26 -18 -46 -46 -46c-26 0 -46 17 -46 47c0 67 71 113 151 113c64 0 124 -29 153 -77c51 61 107 77 151 77c109 0 167 -85 167 -196c0 -21 -3 -21 -25 -21h-273zM627 252c-2 39 -7 174 -102 174c-36 0 -119 -28 -129 -174h231zM326 229
c-162 -6 -204 -83 -204 -137c0 -47 40 -81 87 -81c72 0 129 57 129 121c0 3 0 11 -3 22c-9 31 -9 51 -9 75z" />
    <glyph glyph-name="oe" unicode="&#x153;" horiz-adv-x="777" 
d="M724 231h-273c0 -217 137 -217 147 -217c62 0 108 47 123 97c5 16 6 20 15 20c5 0 13 -2 13 -12c0 -19 -42 -130 -155 -130c-61 0 -133 31 -177 104c-33 -56 -96 -104 -176 -104c-115 0 -213 100 -213 230s99 229 213 229c76 0 139 -44 175 -101c40 67 103 101 166 101
c109 0 167 -85 167 -196c0 -21 -3 -21 -25 -21zM452 252h231c-2 39 -7 174 -102 174c-36 0 -119 -28 -129 -174zM242 11c32 0 140 21 140 212c0 195 -122 203 -140 203c-25 0 -137 -10 -137 -203c0 -203 115 -212 137 -212z" />
    <glyph glyph-name="oslash" unicode="&#xf8;" 
d="M439 522l-67 -116c38 -28 92 -95 92 -193c0 -124 -96 -224 -215 -224c-42 0 -79 14 -102 27l-68 -118l-19 12l7 10l62 108c-54 38 -94 105 -94 185c0 129 96 235 215 235c43 0 81 -15 104 -30l66 116zM146 59l192 333c-18 16 -49 34 -89 34c-36 0 -86 -17 -116 -69
c-27 -45 -29 -101 -29 -143c0 -56 5 -113 42 -155zM354 374l-191 -332c28 -24 62 -31 87 -31c39 0 87 18 116 64s29 106 29 139c0 41 -2 114 -41 160z" />
    <glyph glyph-name="AE" unicode="&#xc6;" horiz-adv-x="902" 
d="M874 258l-42 -258h-493v31c66 0 77 0 77 45v237h-161l-75 -210c-5 -13 -5 -14 -5 -22c0 -25 24 -49 74 -50v-31c-32 1 -84 3 -115 3c-40 0 -80 -2 -102 -3v31c70 0 99 28 113 67l198 553c-13 0 -27 1 -40 1h-45v31h560l28 -225h-25c-16 136 -36 194 -178 194h-95
c-47 0 -49 -7 -49 -40v-268h85c94 0 103 33 103 117h25v-265h-25c0 84 -9 117 -103 117h-85v-242c0 -33 2 -40 49 -40h95c168 0 181 79 206 227h25zM375 648l-109 -304h150v260c0 16 0 43 -41 44z" />
    <glyph glyph-name="OE" unicode="&#x152;" horiz-adv-x="1013" 
d="M556 0c-16 0 -29 0 -77 -11c-37 -8 -54 -11 -79 -11c-172 0 -330 152 -330 361c0 211 158 366 330 366c11 0 28 0 70 -10c55 -12 69 -12 86 -12h373l28 -225h-25c-16 135 -38 194 -181 194h-112c-47 0 -49 -7 -49 -40v-242h108c100 0 114 31 114 117h25v-265h-25
c0 86 -14 117 -114 117h-108v-268c0 -33 2 -40 49 -40h110c171 0 186 78 211 227h25l-42 -258h-387zM404 0c84 0 99 43 106 109c4 46 4 105 4 232c0 108 0 193 -5 237c-6 57 -17 105 -105 105c-126 0 -234 -139 -234 -329c0 -198 105 -354 234 -354z" />
    <glyph glyph-name="Oslash" unicode="&#xd8;" horiz-adv-x="777" 
d="M665 725l-69 -101c75 -70 125 -161 125 -285c0 -202 -151 -361 -333 -361c-42 0 -107 8 -180 58c-6 4 -7 4 -8 4c-2 0 -7 -7 -8 -9l-60 -87l-20 14l8 11l60 89c-44 36 -124 132 -124 281c0 206 153 366 332 366c94 0 157 -43 181 -58c5 -5 6 -5 7 -5c2 0 7 6 9 10l59 87z
M206 97l348 510c-19 20 -74 76 -166 76c-70 0 -144 -36 -191 -111c-49 -78 -52 -177 -52 -233c0 -128 26 -193 61 -242zM570 586l-347 -510c43 -49 104 -76 166 -76c72 0 141 38 185 100c56 81 58 188 58 239c0 64 -5 171 -62 247z" />
    <glyph glyph-name="suppress" horiz-adv-x="277" 
d="M262 363l-225 -83l-10 30l224 82z" />
    <glyph glyph-name="exclam" unicode="!" horiz-adv-x="277" 
d="M192 665l-39 -456c-1 -17 -4 -22 -14 -22c-12 0 -13 8 -14 23l-39 455c0 33 27 51 53 51s53 -18 53 -51zM192 53c0 -29 -24 -53 -53 -53s-53 24 -53 53s24 53 53 53s53 -24 53 -53z" />
    <glyph glyph-name="quotedblright" unicode="&#x201d;" 
d="M153 589c0 -118 -83 -194 -94 -194c-5 0 -10 4 -10 11c0 3 0 5 12 17c63 62 70 134 70 166c0 4 0 18 -2 18c-1 0 -2 -1 -3 -3c-6 -6 -20 -16 -40 -16c-36 0 -53 27 -53 53s18 53 53 53c43 0 67 -45 67 -105zM347 589c0 -118 -83 -194 -94 -194c-5 0 -10 4 -10 11
c0 3 0 5 12 17c63 62 70 134 70 166c0 4 0 18 -2 18c-1 0 -2 -1 -3 -3c-6 -6 -20 -16 -40 -16c-36 0 -53 27 -53 53s18 53 53 53c43 0 67 -45 67 -105z" />
    <glyph glyph-name="numbersign" unicode="#" horiz-adv-x="833" 
d="M519 133l-81 -303c-3 -11 -6 -24 -22 -24c-11 0 -20 9 -20 20c0 4 3 16 4 18l78 289h-188l-81 -303c-3 -11 -6 -24 -22 -24c-11 0 -20 9 -20 20c0 4 3 16 4 18l78 289h-160c-14 0 -33 0 -33 20s19 20 34 20h171l40 154h-211c-15 0 -34 0 -34 20s19 20 33 20h224l81 303
c3 11 6 24 22 24c11 0 20 -9 20 -20c0 -4 -3 -16 -4 -18l-78 -289h188l81 303c3 11 6 24 22 24c11 0 20 -9 20 -20c0 -4 -3 -16 -4 -18l-78 -289h160c14 0 33 0 33 -20s-19 -20 -34 -20h-171l-40 -154h211c15 0 34 0 34 -20s-19 -20 -33 -20h-224zM302 173h188l40 154h-188z
" />
    <glyph glyph-name="dollar" unicode="$" 
d="M265 311v-290c79 10 127 77 127 144c0 24 -7 121 -127 146zM234 319c-51 13 -85 21 -123 60c-18 17 -55 65 -55 134c0 91 67 181 178 191v46h31v-45c112 -6 178 -79 178 -176c0 -49 -43 -50 -46 -50c-21 0 -46 15 -46 46c0 28 20 46 46 46c10 0 12 -1 16 -2
c-15 56 -63 100 -148 104v-270c48 -12 84 -21 124 -65c9 -9 54 -60 54 -143c0 -103 -73 -196 -178 -205v-46h-31v45c-125 8 -178 100 -178 189c0 49 40 51 46 51c25 0 46 -18 46 -46c0 -27 -19 -46 -46 -46c-4 0 -12 1 -16 2c13 -62 60 -113 148 -118v298zM234 411v262
c-80 -8 -127 -70 -127 -130c0 -20 4 -106 127 -132z" />
    <glyph glyph-name="percent" unicode="%" horiz-adv-x="833" 
d="M685 712l-506 -753c-8 -11 -10 -15 -20 -15s-20 9 -20 20c0 2 0 7 9 20l449 669l-1 1c-6 -4 -57 -35 -133 -35c-36 0 -86 5 -151 42c21 -52 21 -99 21 -113c0 -112 -57 -201 -130 -201c-75 0 -147 81 -147 202c0 117 71 201 147 201c32 0 53 -15 72 -32
c55 -52 117 -77 187 -77c73 0 140 27 190 95c6 7 11 14 21 14c11 0 20 -9 20 -20c0 -6 -2 -9 -8 -18zM204 369c52 0 104 72 104 180c0 105 -51 179 -104 179c-21 0 -86 -13 -86 -180c0 -166 66 -179 86 -179zM647 -34c52 0 104 72 104 180c0 105 -51 179 -104 179
c-21 0 -86 -13 -86 -180c0 -166 66 -179 86 -179zM776 145c0 -112 -57 -201 -130 -201c-75 0 -147 81 -147 202c0 117 71 201 147 201c71 0 130 -87 130 -202z" />
    <glyph glyph-name="ampersand" unicode="&#x26;" horiz-adv-x="777" 
d="M696 121h25c-2 -86 -65 -143 -141 -143c-48 0 -107 16 -176 76c-37 -33 -96 -76 -181 -76c-99 0 -181 63 -181 150c0 54 26 81 71 127l91 97c-35 89 -41 161 -41 203c0 106 74 161 136 161c71 0 87 -83 87 -129c0 -66 -68 -142 -122 -202c44 -115 153 -252 166 -267
c43 53 88 121 143 218c1 3 6 10 6 20c0 25 -25 44 -71 44v31c27 -2 111 -3 122 -3c6 0 60 1 97 3v-31c-89 -1 -110 -36 -149 -102c-46 -79 -86 -147 -132 -200c32 -38 84 -89 138 -89c45 0 109 33 112 112zM256 409c24 26 105 113 105 179c0 2 0 106 -60 106
c-35 0 -75 -32 -75 -116c0 -31 3 -89 30 -169zM213 329c-54 -52 -88 -88 -88 -169c0 -54 23 -151 106 -151c28 0 90 7 154 64c-37 37 -73 89 -92 117c-43 62 -58 92 -80 139z" />
    <glyph glyph-name="quoteright" unicode="&#x2019;" horiz-adv-x="277" 
d="M206 589c0 -118 -83 -194 -94 -194c-5 0 -10 4 -10 11c0 3 0 5 12 17c63 62 70 134 70 166c0 4 0 18 -2 18c-1 0 -2 -1 -3 -3c-6 -6 -20 -16 -40 -16c-36 0 -53 27 -53 53s18 53 53 53c43 0 67 -45 67 -105z" />
    <glyph glyph-name="parenleft" unicode="(" horiz-adv-x="388" 
d="M331 -240c0 -7 -4 -10 -10 -10c-10 0 -96 65 -156 188c-55 113 -66 234 -66 312c0 84 12 195 63 305c59 127 149 195 159 195c6 0 10 -3 10 -10c0 -3 0 -5 -13 -17c-123 -125 -161 -299 -161 -473c0 -153 32 -342 157 -468c17 -17 17 -19 17 -22z" />
    <glyph glyph-name="parenright" unicode=")" horiz-adv-x="388" 
d="M289 250c0 -84 -12 -195 -63 -305c-59 -127 -149 -195 -159 -195c-6 0 -10 4 -10 10c0 3 0 5 13 17c124 126 161 302 161 473c0 209 -57 368 -155 467c-19 18 -19 20 -19 23c0 6 4 10 10 10c10 0 96 -65 156 -188c55 -113 66 -234 66 -312z" />
    <glyph glyph-name="asterisk" unicode="*" 
d="M272 534l141 -66c17 -8 21 -16 21 -27c0 -13 -11 -28 -27 -28c-8 0 -11 3 -16 6s-80 59 -130 95c2 -22 15 -160 15 -170c0 -13 -11 -25 -27 -25c-13 0 -26 10 -26 25l15 170l-140 -101c-33 0 -33 26 -33 28c0 12 4 19 23 28l139 66l-141 66c-17 8 -21 16 -21 27
c0 13 11 28 27 28c6 0 8 0 22 -11l124 -90c-2 22 -15 160 -15 170c0 13 11 25 27 25c13 0 26 -10 26 -25l-15 -170l111 82c26 19 28 19 35 19c16 0 27 -15 27 -28c0 -12 -4 -19 -23 -28z" />
    <glyph glyph-name="plus" unicode="+" horiz-adv-x="777" 
d="M409 230v-280c0 -14 0 -33 -20 -33s-20 19 -20 33v280h-280c-14 0 -33 0 -33 20s19 20 33 20h280v280c0 14 0 33 20 33s20 -19 20 -33v-280h279c14 0 33 0 33 -20s-19 -20 -33 -20h-279z" />
    <glyph glyph-name="comma" unicode="," horiz-adv-x="277" 
d="M179 16l-2 -2c-10 -8 -22 -14 -38 -14c-36 0 -53 27 -53 53s18 53 53 53c40 0 64 -41 64 -105c0 -115 -79 -194 -91 -194c-5 0 -10 4 -10 11c0 4 1 5 7 11c44 47 72 108 72 172c0 14 -1 15 -2 15z" />
    <glyph glyph-name="hyphen" unicode="-" horiz-adv-x="333" 
d="M276 187h-265v58h265v-58z" />
    <glyph glyph-name="period" unicode="." horiz-adv-x="277" 
d="M192 53c0 -29 -24 -53 -53 -53s-53 24 -53 53s24 53 53 53s53 -24 53 -53z" />
    <glyph glyph-name="slash" unicode="/" 
d="M438 712l-341 -942c-3 -10 -7 -20 -21 -20c-11 0 -20 9 -20 20c0 2 0 5 5 18l341 942c3 10 7 20 21 20c11 0 20 -9 20 -20c0 -2 0 -5 -5 -18z" />
    <glyph glyph-name="zero" unicode="0" 
d="M460 320c0 -79 -5 -157 -37 -226c-44 -95 -120 -116 -174 -116c-49 0 -122 20 -165 101c-41 76 -45 166 -45 241c0 80 5 158 37 227c41 93 114 119 174 119c42 0 124 -16 170 -112c35 -74 40 -154 40 -234zM249 0c45 0 102 30 117 125c11 64 11 132 11 207
c0 63 0 139 -10 195c-19 99 -85 117 -118 117c-25 0 -100 -9 -119 -128c-8 -54 -8 -120 -8 -184c0 -59 0 -151 11 -211c18 -96 77 -121 116 -121z" />
    <glyph glyph-name="one" unicode="1" 
d="M294 640v-561c0 -37 3 -48 93 -48h32v-31c-35 3 -122 3 -162 3s-127 0 -162 -3v31h32c90 0 93 12 93 48v518c-52 -26 -111 -26 -131 -26v31c32 0 120 0 182 64c23 0 23 -2 23 -26z" />
    <glyph glyph-name="two" unicode="2" 
d="M449 174l-28 -174h-371c0 24 0 26 11 37l192 214c55 62 105 141 105 221c0 82 -43 163 -134 163c-58 0 -112 -37 -135 -102c3 1 5 1 13 1c35 0 53 -26 53 -52c0 -41 -35 -53 -52 -53c-3 0 -53 0 -53 56c0 89 74 181 187 181c122 0 212 -80 212 -194
c0 -100 -60 -154 -216 -292l-106 -103h180c22 0 88 0 95 8c10 15 17 59 22 89h25z" />
    <glyph glyph-name="three" unicode="3" 
d="M290 352c104 -21 167 -99 167 -181c0 -102 -91 -193 -213 -193c-109 0 -202 66 -202 157c0 44 32 58 56 58c29 0 56 -20 56 -56c0 -38 -31 -60 -66 -55c35 -59 110 -76 153 -76c44 0 113 29 113 165c0 98 -37 166 -119 166h-44c-17 0 -24 0 -24 11c0 10 7 11 15 12
c7 0 31 2 39 3c25 1 59 4 89 52c26 44 28 102 28 114c0 90 -55 112 -96 112c-36 0 -102 -13 -133 -62c15 0 62 0 62 -50c0 -29 -20 -51 -51 -51c-29 0 -51 19 -51 52c0 76 76 136 177 136c96 0 184 -56 184 -138c0 -79 -58 -149 -140 -176z" />
    <glyph glyph-name="four" unicode="4" 
d="M28 165v31l307 469c8 12 11 12 20 12c16 0 16 -6 16 -26v-455h100v-31h-100v-87c0 -36 2 -47 76 -47h21v-31c-41 3 -94 3 -136 3s-94 0 -135 -3v31h21c74 0 76 11 76 47v87h-266zM300 196v373l-244 -373h244z" />
    <glyph glyph-name="five" unicode="5" 
d="M449 201c0 -127 -102 -223 -218 -223c-112 0 -181 97 -181 183c0 46 35 53 49 53c33 0 50 -25 50 -49s-17 -49 -50 -49c-11 0 -14 1 -17 2c17 -59 74 -112 147 -112c46 0 83 26 107 65c24 42 24 102 24 137c0 50 -2 89 -18 126c-8 18 -33 64 -85 64
c-81 0 -118 -54 -129 -70c-4 -6 -6 -9 -13 -9c-14 0 -14 8 -14 26v296c0 16 0 24 10 24c2 0 4 0 12 -3c47 -21 93 -28 133 -28c67 0 116 20 136 29c5 3 7 3 8 3c7 0 10 -5 10 -11c0 -13 -70 -104 -193 -104c-32 0 -65 7 -85 13v-195c36 35 79 51 127 51
c108 0 190 -100 190 -219z" />
    <glyph glyph-name="six" unicode="6" 
d="M132 328c20 48 57 99 125 99c111 0 200 -96 200 -223c0 -132 -95 -226 -206 -226c-93 0 -209 71 -209 338c0 221 135 350 263 350c83 0 127 -48 127 -108c0 -39 -30 -48 -46 -48c-22 0 -46 15 -46 46c0 45 40 45 55 45c-22 34 -64 40 -88 40c-51 0 -175 -36 -175 -289
v-24zM251 6c23 0 69 5 99 65c17 36 17 86 17 134c0 49 0 100 -18 137c-31 62 -77 62 -93 62c-90 0 -122 -100 -122 -178c0 -18 0 -98 18 -145c6 -15 36 -75 99 -75z" />
    <glyph glyph-name="seven" unicode="7" 
d="M476 609l-135 -190c-44 -62 -58 -148 -62 -171c-8 -54 -11 -109 -11 -164v-51c0 -10 0 -55 -46 -55s-46 45 -46 55c0 102 33 241 123 376c22 33 101 142 112 158h-207c-13 0 -91 0 -98 -6c-13 -12 -22 -75 -25 -91h-25l33 206h25c4 -19 6 -32 128 -32h243
c0 -21 0 -23 -9 -35z" />
    <glyph glyph-name="eight" unicode="8" 
d="M163 457l124 -80c60 35 99 83 99 140c0 72 -64 124 -137 124c-71 0 -136 -42 -136 -103c0 -17 4 -51 50 -81zM309 362c64 -40 80 -50 99 -71c38 -42 49 -87 49 -123c0 -107 -95 -190 -208 -190c-105 0 -207 67 -207 173c0 99 86 155 144 184c-25 17 -62 42 -73 54
c-42 47 -44 92 -44 110c0 93 81 167 181 167c91 0 180 -57 180 -149c0 -66 -49 -118 -121 -155zM209 320c-85 -47 -117 -111 -117 -169c0 -83 72 -145 158 -145c82 0 157 52 157 126c0 61 -47 91 -75 110z" />
    <glyph glyph-name="nine" unicode="9" 
d="M367 318c-23 -58 -64 -100 -125 -100c-112 0 -200 98 -200 223c0 75 23 117 64 162c43 45 92 63 147 63c89 0 204 -68 204 -337c0 -215 -122 -351 -251 -351c-85 0 -139 41 -139 108c0 39 30 48 46 48c22 0 46 -15 46 -46c0 -17 -8 -46 -52 -46c27 -34 81 -36 98 -36
c58 0 162 46 162 280v32zM243 241c88 0 122 97 122 180c0 46 -4 109 -16 141c-17 45 -50 79 -96 79c-35 0 -73 -13 -100 -63c-21 -37 -21 -84 -21 -138c0 -49 0 -99 18 -136c31 -63 77 -63 93 -63z" />
    <glyph glyph-name="colon" unicode=":" horiz-adv-x="277" 
d="M192 378c0 -29 -24 -53 -53 -53s-53 24 -53 53s24 53 53 53s53 -24 53 -53zM192 53c0 -29 -24 -53 -53 -53s-53 24 -53 53s24 53 53 53s53 -24 53 -53z" />
    <glyph glyph-name="semicolon" unicode=";" horiz-adv-x="277" 
d="M192 378c0 -29 -24 -53 -53 -53s-53 24 -53 53s24 53 53 53s53 -24 53 -53zM173 11c-8 -7 -19 -9 -26 -10c-1 -1 -3 -1 -8 -1c-36 0 -53 27 -53 53s18 53 53 53c54 0 56 -74 56 -103c0 -116 -72 -196 -83 -196c-5 0 -10 4 -10 11c0 3 0 5 7 13c64 74 64 152 64 180z" />
    <glyph glyph-name="exclamdown" unicode="&#xa1;" horiz-adv-x="277" 
d="M192 447c0 -29 -24 -53 -53 -53s-53 24 -53 53s24 53 53 53s53 -24 53 -53zM153 290l38 -444l1 -11c0 -33 -27 -51 -53 -51s-53 18 -53 51l39 456c1 17 4 22 14 22c12 0 13 -8 14 -23z" />
    <glyph glyph-name="equal" unicode="=" horiz-adv-x="777" 
d="M687 327h-597c-15 0 -34 0 -34 20s19 20 33 20h599c14 0 33 0 33 -20s-19 -20 -34 -20zM688 133h-599c-14 0 -33 0 -33 20s19 20 34 20h597c15 0 34 0 34 -20s-19 -20 -33 -20z" />
    <glyph glyph-name="questiondown" unicode="&#xbf;" horiz-adv-x="472" 
d="M235 301v-24c0 -76 -7 -168 -70 -257c-15 -21 -26 -36 -26 -97c0 -49 0 -106 86 -106c49 0 123 17 153 68c-36 -4 -55 21 -55 45c0 26 18 46 46 46c23 0 46 -14 46 -48c0 -80 -87 -133 -193 -133c-134 0 -166 78 -166 135c0 62 33 90 51 106c103 88 103 196 103 237v16
c0 18 0 24 12 24c3 0 12 0 13 -12zM275 447c0 -29 -24 -53 -53 -53s-53 24 -53 53s24 53 53 53s53 -24 53 -53z" />
    <glyph glyph-name="question" unicode="?" horiz-adv-x="472" 
d="M235 249v-35c0 -18 0 -27 -13 -27c-12 0 -12 6 -12 24v45c0 61 22 153 88 225c18 18 34 36 34 95c0 39 0 107 -109 107c-42 0 -100 -15 -131 -68c14 0 56 0 56 -45c0 -26 -18 -46 -46 -46c-23 0 -46 14 -46 48c0 65 62 133 170 133c149 0 189 -77 189 -135
c0 -42 -21 -78 -48 -98c-35 -26 -132 -97 -132 -223zM275 53c0 -29 -24 -53 -53 -53s-53 24 -53 53s24 53 53 53s53 -24 53 -53z" />
    <glyph glyph-name="at" unicode="@" horiz-adv-x="777" 
d="M588 457v-241c0 -15 0 -66 35 -66c66 0 73 90 73 182c0 241 -171 351 -308 351c-164 0 -307 -145 -307 -336c0 -179 130 -336 312 -336c94 0 187 24 272 64c5 3 7 3 23 3h9c16 0 23 0 23 -10c0 -16 -120 -51 -146 -57c-64 -15 -128 -22 -180 -22
c-200 0 -338 170 -338 358c0 199 150 358 333 358c161 0 332 -133 332 -367c0 -107 -14 -210 -102 -210c-38 0 -90 19 -100 71c-30 -42 -78 -71 -132 -71c-103 0 -198 93 -198 219s95 219 198 219c39 0 91 -14 137 -77c6 -7 7 -8 23 -8h17c23 0 24 -1 24 -24zM519 262v170
c0 18 0 21 -13 40c-36 56 -84 72 -116 72c-73 0 -132 -86 -132 -197s60 -197 132 -197c20 0 71 6 115 69c14 21 14 25 14 43z" />
    <glyph glyph-name="A" unicode="A" horiz-adv-x="750" 
d="M398 696l216 -625c11 -33 25 -40 85 -40h18v-31c-42 2 -88 3 -131 3c-38 0 -108 0 -144 -3v31c27 0 83 0 83 30c0 4 -2 10 -3 14l-53 153h-247l-46 -131c-1 -2 -2 -12 -2 -15c0 -26 25 -51 75 -51v-31c-32 1 -84 3 -115 3c-36 0 -79 -2 -102 -3v31c54 1 94 16 112 67
l207 598c5 14 8 20 24 20s18 -7 23 -20zM345 584l-112 -325h225z" />
    <glyph glyph-name="B" unicode="B" horiz-adv-x="708" 
d="M222 366h145c111 0 160 84 160 148c0 53 -35 138 -132 138h-124c-47 0 -49 -7 -49 -40v-246zM458 357c111 -12 193 -87 193 -174c0 -94 -90 -183 -223 -183h-392v31h24c77 0 79 11 79 47v527c0 36 -2 47 -79 47h-24v31h366c130 0 222 -82 222 -169
c0 -74 -69 -138 -166 -157zM396 31c103 0 155 82 155 153c0 67 -42 160 -141 160h-188v-273c0 -33 2 -40 49 -40h125z" />
    <glyph glyph-name="C" unicode="C" horiz-adv-x="722" 
d="M665 681v-237c0 -21 0 -24 -16 -24c-14 0 -14 3 -16 17c-20 146 -109 237 -218 237c-61 0 -256 -34 -256 -333c0 -298 196 -332 257 -332c109 0 216 82 224 225c1 10 1 16 12 16c13 0 13 -7 13 -17c0 -116 -98 -255 -261 -255c-186 0 -348 157 -348 364
c0 204 161 363 348 363c96 0 147 -50 184 -86l50 74c8 12 12 12 16 12c11 0 11 -7 11 -24z" />
    <glyph glyph-name="D" unicode="D" horiz-adv-x="763" 
d="M35 683h366c171 0 306 -157 306 -347c0 -188 -138 -336 -306 -336h-366v31h24c77 0 79 11 79 47v527c0 36 -2 47 -79 47h-24v31zM273 31h101c101 0 158 58 178 85c36 49 55 109 55 220c0 78 -9 164 -52 223c-51 71 -120 93 -182 93h-100c-47 0 -49 -7 -49 -40v-541
c0 -33 2 -40 49 -40z" />
    <glyph glyph-name="E" unicode="E" horiz-adv-x="680" 
d="M652 258l-42 -258h-577v31h24c77 0 79 11 79 47v524c0 36 -2 47 -79 47h-24v31h563l28 -225h-25c-16 139 -43 194 -196 194h-129c-47 0 -49 -7 -49 -40v-240h90c97 0 108 31 108 117h25v-265h-25c0 85 -11 117 -108 117h-90v-267c0 -33 2 -40 49 -40h133
c172 0 195 73 220 227h25z" />
    <glyph glyph-name="F" unicode="F" horiz-adv-x="652" 
d="M582 680l28 -225h-25c-16 138 -41 194 -191 194h-120c-47 0 -49 -7 -49 -40v-253h86c96 0 106 33 106 117h25v-265h-25c0 85 -10 117 -106 117h-86v-246c0 -35 0 -48 95 -48h33v-31c-36 3 -127 3 -168 3c-39 0 -117 0 -152 -3v31h24c77 0 79 11 79 47v524
c0 36 -2 47 -79 47h-24v31h549z" />
    <glyph glyph-name="G" unicode="G" horiz-adv-x="784" 
d="M593 63c-34 -59 -114 -85 -187 -85c-190 0 -350 159 -350 364s162 363 348 363c99 0 153 -54 185 -86l50 74c8 12 12 12 16 12c11 0 11 -7 11 -24v-237c0 -21 0 -24 -16 -24c-14 0 -14 3 -16 17c-20 147 -111 237 -218 237c-60 0 -257 -33 -257 -332
c0 -298 198 -333 263 -333c28 0 155 9 155 121v64c0 37 -3 48 -93 48h-32v31c36 -3 121 -3 161 -3c30 0 85 2 122 3v-31c-65 0 -69 -5 -69 -44v-174c0 -15 0 -23 -9 -23c-11 0 -51 40 -64 62z" />
    <glyph glyph-name="H" unicode="H" horiz-adv-x="750" 
d="M613 605v-527c0 -36 2 -47 79 -47h24v-31c-35 3 -110 3 -148 3s-112 0 -147 -3v31h24c77 0 79 11 79 47v262h-299v-262c0 -36 2 -47 79 -47h24v-31c-35 3 -110 3 -148 3s-112 0 -147 -3v31h24c77 0 79 11 79 47v527c0 36 -2 47 -79 47h-24v31c35 -3 110 -3 148 -3
s112 0 147 3v-31h-24c-77 0 -79 -11 -79 -47v-234h299v234c0 36 -2 47 -79 47h-24v31c35 -3 110 -3 148 -3s112 0 147 3v-31h-24c-77 0 -79 -11 -79 -47z" />
    <glyph glyph-name="I" unicode="I" horiz-adv-x="361" 
d="M225 605v-527c0 -36 3 -47 82 -47h26v-31c-35 3 -114 3 -153 3c-38 0 -117 0 -152 -3v31h26c79 0 82 11 82 47v527c0 36 -3 47 -82 47h-26v31c35 -3 114 -3 153 -3c38 0 117 0 152 3v-31h-26c-79 0 -82 -11 -82 -47z" />
    <glyph glyph-name="J" unicode="J" horiz-adv-x="513" 
d="M302 148v456c0 35 0 48 -98 48h-36v31c38 -3 126 -3 168 -3c47 0 85 1 129 3v-31c-63 0 -77 0 -77 -41v-444c0 -34 0 -36 -1 -44c-11 -75 -84 -145 -186 -145c-89 0 -160 60 -160 134c0 44 34 58 56 58c28 0 56 -20 56 -56c0 -26 -12 -56 -64 -56c36 -58 104 -58 110 -58
c53 0 103 56 103 148z" />
    <glyph glyph-name="K" unicode="K" horiz-adv-x="777" 
d="M400 419l231 -340c30 -44 51 -48 105 -48v-31c-42 2 -80 3 -115 3c-38 0 -108 0 -143 -3v31c20 0 59 0 59 30c0 12 -9 25 -15 34l-181 268l-116 -110v-175c0 -36 2 -47 79 -47h24v-31c-35 3 -110 3 -148 3s-112 0 -147 -3v31h24c77 0 79 11 79 47v527c0 36 -2 47 -79 47
h-24v31c35 -3 110 -3 148 -3s112 0 147 3v-31h-24c-77 0 -79 -11 -79 -47v-318l313 299c8 7 18 17 18 33c0 9 -6 32 -46 33v31c34 -3 91 -3 127 -3c27 0 59 0 85 3v-31c-81 -1 -134 -52 -142 -60z" />
    <glyph glyph-name="L" unicode="L" horiz-adv-x="625" 
d="M582 258l-28 -258h-521v31h24c77 0 79 11 79 47v527c0 36 -2 47 -79 47h-24v31c35 -3 113 -3 152 -3c41 0 132 0 168 3v-31h-33c-95 0 -95 -14 -95 -48v-533c0 -33 2 -40 49 -40h82c176 0 190 125 201 227h25z" />
    <glyph glyph-name="M" unicode="M" horiz-adv-x="916" 
d="M241 661l217 -560l219 563c7 18 7 19 33 19h169v-31h-24c-77 0 -79 -11 -79 -47v-527c0 -36 2 -47 79 -47h24v-31c-37 3 -104 3 -143 3s-107 0 -144 -3v31h24c77 0 79 11 79 47v574h-1l-246 -633c-4 -11 -7 -19 -18 -19c-10 0 -15 9 -20 22l-241 622h-1v-539
c0 -27 0 -74 103 -74v-31c-35 1 -84 3 -117 3s-82 -2 -117 -3v31c103 0 103 47 103 74v500c0 36 -2 47 -79 47h-24v31h169c23 0 26 0 35 -22z" />
    <glyph glyph-name="N" unicode="N" horiz-adv-x="750" 
d="M232 670l353 -519v427c0 27 0 74 -103 74v31c35 -1 84 -3 117 -3s82 2 117 3v-31c-103 0 -103 -47 -103 -74v-552c0 -19 0 -26 -14 -26c-7 0 -8 1 -17 13l-408 600c-4 6 -5 7 -10 12v-520c0 -27 0 -74 103 -74v-31c-35 1 -84 3 -117 3s-82 -2 -117 -3v31
c103 0 103 47 103 74v522c0 19 -1 20 -24 23c-15 1 -35 2 -50 2h-29v31h170c19 0 20 -1 29 -13z" />
    <glyph glyph-name="O" unicode="O" horiz-adv-x="777" 
d="M721 339c0 -202 -151 -361 -333 -361c-178 0 -332 156 -332 361c0 206 153 366 332 366c182 0 333 -162 333 -366zM389 4c92 0 229 84 229 349c0 256 -143 327 -230 327c-83 0 -229 -68 -229 -327c0 -261 134 -349 230 -349z" />
    <glyph glyph-name="P" unicode="P" horiz-adv-x="680" 
d="M227 316v-238c0 -36 2 -47 79 -47h24v-31c-35 3 -110 3 -148 3s-112 0 -147 -3v31h24c77 0 79 11 79 47v527c0 36 -2 47 -79 47h-24v31h353c137 0 236 -88 236 -186c0 -100 -108 -181 -228 -181h-169zM224 342h138c159 0 159 108 159 155c0 49 0 155 -159 155h-89
c-47 0 -49 -7 -49 -40v-270z" />
    <glyph glyph-name="Q" unicode="Q" horiz-adv-x="777" 
d="M518 7c24 -64 49 -98 96 -98c43 0 85 30 91 84c1 10 2 18 11 18c11 0 11 -11 11 -21c0 -51 -19 -184 -121 -184c-93 0 -107 92 -122 187c-29 -9 -64 -15 -95 -15c-182 0 -333 159 -333 361c0 206 153 366 332 366c182 0 333 -162 333 -366c0 -151 -85 -279 -203 -332z
M322 16c-1 2 -14 21 -14 48c0 41 31 84 82 84c59 0 91 -50 113 -106c106 78 118 219 118 297c0 255 -136 341 -233 341c-92 0 -232 -81 -232 -341c0 -230 112 -303 166 -323zM477 26c-11 58 -33 100 -87 100c-39 0 -60 -33 -60 -62c0 -15 8 -61 59 -61c22 0 54 4 88 23z" />
    <glyph glyph-name="R" unicode="R" horiz-adv-x="736" 
d="M224 353h111c148 0 172 81 172 150c0 145 -112 149 -202 149c-20 0 -49 0 -59 -2c-22 -3 -22 -15 -22 -38v-259zM435 340c55 -19 104 -52 122 -116l13 -80c14 -93 22 -144 71 -144c25 0 60 18 66 89c1 7 1 16 12 16c13 0 13 -11 13 -17c0 -28 -17 -110 -95 -110
c-30 0 -85 6 -126 42c-41 38 -41 78 -41 143c0 67 0 98 -38 134c-35 34 -77 34 -93 34h-115v-253c0 -36 2 -47 79 -47h24v-31c-36 3 -107 3 -146 3s-110 0 -146 -3v31h24c77 0 79 11 79 47v527c0 36 -2 47 -79 47h-24v31h314c147 0 261 -84 261 -180
c0 -78 -78 -139 -175 -163z" />
    <glyph glyph-name="S" unicode="S" horiz-adv-x="555" 
d="M349 388c84 -20 150 -102 150 -202c0 -110 -80 -208 -197 -208c-89 0 -153 36 -184 70c-33 -53 -36 -56 -36 -57c-7 -11 -8 -13 -15 -13c-11 0 -11 7 -11 24v200c0 18 0 25 13 25c3 0 11 0 12 -10c1 -36 4 -100 62 -154c53 -49 129 -54 158 -54c84 0 134 72 134 143
c0 33 -10 66 -31 92c-28 37 -58 44 -85 51c-70 17 -121 29 -132 33c-78 27 -131 100 -131 183c0 106 84 194 195 194c89 0 130 -41 160 -70l35 57c7 12 8 13 15 13c11 0 11 -7 11 -24v-201c0 -19 0 -24 -13 -24c-11 0 -11 6 -12 12c-6 45 -28 209 -195 209
c-78 0 -132 -61 -132 -131c0 -58 39 -112 101 -127z" />
    <glyph glyph-name="T" unicode="T" horiz-adv-x="722" 
d="M666 677l19 -225h-25c-14 161 -29 194 -180 194c-19 0 -46 0 -57 -2c-18 -4 -18 -18 -18 -38v-527c0 -34 0 -48 105 -48h40v-31c-41 3 -144 3 -190 3s-148 0 -189 -3v31h40c105 0 105 14 105 48v527c0 23 0 34 -21 38c-10 2 -36 2 -54 2c-151 0 -166 -33 -180 -194h-25
l19 225h611z" />
    <glyph glyph-name="U" unicode="U" horiz-adv-x="750" 
d="M582 231v347c0 27 0 74 -103 74v31c36 -1 84 -3 119 -3c34 0 82 2 118 3v-31c-103 0 -103 -45 -103 -78v-320c0 -40 0 -49 -3 -69c-17 -114 -107 -207 -222 -207c-136 0 -252 109 -252 250v377c0 36 -2 47 -79 47h-24v31c35 -3 110 -3 148 -3s112 0 147 3v-31h-24
c-77 0 -79 -11 -79 -47v-381c0 -190 118 -215 165 -215c95 0 192 80 192 222z" />
    <glyph glyph-name="V" unicode="V" horiz-adv-x="750" 
d="M621 585l-223 -588c-5 -14 -7 -19 -24 -19c-13 0 -18 3 -25 22l-232 614c-14 38 -33 38 -98 38v31c36 -1 79 -3 127 -3c38 0 107 0 143 3v-31c-25 0 -82 0 -82 -29c0 -2 0 -4 6 -18l191 -505l183 482c2 6 5 12 5 20c0 23 -21 49 -73 50v31c26 -1 84 -3 114 -3
c26 0 66 1 97 3v-31c-68 -1 -95 -30 -109 -67z" />
    <glyph glyph-name="W" unicode="W" horiz-adv-x="1027" 
d="M909 585l-191 -587c-4 -13 -6 -20 -20 -20c-13 0 -16 10 -19 19l-166 509l-165 -508c-4 -13 -6 -20 -20 -20c-13 0 -16 10 -19 19l-200 613c-12 37 -16 42 -91 42v31c41 -1 84 -3 122 -3s106 0 142 3v-31c-26 0 -84 0 -84 -30c0 -3 1 -10 2 -13l161 -492l139 429l-22 70
c-12 36 -33 36 -90 36v31c41 -1 84 -3 122 -3s106 0 142 3v-31c-26 0 -84 0 -84 -30c0 -5 2 -11 3 -15l160 -490l150 462c2 6 5 14 5 20c0 19 -20 52 -87 53v31c26 -1 90 -3 119 -3c30 0 61 1 91 3v-31c-39 0 -82 -10 -100 -67z" />
    <glyph glyph-name="X" unicode="X" horiz-adv-x="750" 
d="M402 386l211 -319c21 -31 42 -36 94 -36h19v-31c-42 2 -88 3 -130 3c-38 0 -111 0 -146 -3v31c43 1 65 18 65 30c0 3 -3 7 -5 11l-158 239l-142 -210c-7 -11 -10 -15 -10 -24c0 -18 17 -45 63 -46v-31c-36 3 -91 3 -128 3c-33 0 -75 -2 -111 -3v31c101 0 131 46 145 66
l164 242l-184 278c-19 28 -38 35 -93 35h-19v31c37 -2 99 -3 130 -3c38 0 111 0 146 3v-31c-43 -1 -65 -18 -65 -30c0 -4 5 -12 7 -15l129 -193l114 169c7 11 9 13 9 23c0 23 -22 45 -62 46v31c40 -3 88 -3 128 -3c25 0 72 2 111 3v-31c-89 -1 -123 -33 -145 -65z" />
    <glyph glyph-name="Y" unicode="Y" horiz-adv-x="750" 
d="M610 587l-193 -314v-193c0 -39 3 -49 80 -49h23v-31c-36 3 -107 3 -146 3s-110 0 -146 -3v31h24c77 0 79 11 79 47v195l-210 342c-16 26 -24 37 -92 37h-18v31c42 -2 88 -3 130 -3c39 0 112 0 148 3v-31c-45 0 -70 -4 -70 -25c0 -5 0 -7 7 -17l181 -295l165 268
c4 6 10 19 10 30c0 20 -16 39 -57 39v31c26 -1 84 -3 115 -3c27 0 67 1 98 3v-31c-32 0 -91 -4 -128 -65z" />
    <glyph glyph-name="Z" unicode="Z" horiz-adv-x="611" 
d="M547 648l-388 -614h164c185 0 204 94 212 233h25l-17 -267h-461c-21 0 -26 0 -26 17c0 8 0 9 7 20l389 615h-157c-164 0 -194 -81 -201 -194h-25l11 225h448c20 0 26 0 26 -16c0 -7 0 -8 -7 -19z" />
    <glyph glyph-name="bracketleft" unicode="[" horiz-adv-x="277" 
d="M255 -250h-137v1000h137v-40h-97v-920h97v-40z" />
    <glyph glyph-name="quotedblleft" unicode="&#x201c;" 
d="M272 447c0 -26 -18 -53 -53 -53c-43 0 -67 45 -67 105c0 118 83 194 94 194c5 0 10 -4 10 -11c0 -3 0 -5 -12 -17c-63 -62 -70 -134 -70 -166c0 -4 0 -18 2 -18c1 0 2 1 3 3c6 6 20 16 40 16c36 0 53 -27 53 -53zM466 447c0 -26 -18 -53 -53 -53c-43 0 -67 45 -67 105
c0 118 83 194 94 194c5 0 10 -4 10 -11c0 -3 0 -5 -12 -17c-63 -62 -70 -134 -70 -166c0 -4 0 -18 2 -18c1 0 2 1 3 3c6 6 20 16 40 16c36 0 53 -27 53 -53z" />
    <glyph glyph-name="bracketright" unicode="]" horiz-adv-x="277" 
d="M159 750v-1000h-137v40h97v920h-97v40h137z" />
    <glyph glyph-name="circumflex" unicode="&#x2c6;" 
d="M250 694l133 -136l-18 -18l-115 102l-116 -102l-18 18z" />
    <glyph glyph-name="dotaccent" unicode="&#x2d9;" horiz-adv-x="277" 
d="M192 616c0 -25 -20 -53 -54 -53c-30 0 -53 26 -53 53c0 25 20 53 54 53c30 0 53 -26 53 -53z" />
    <glyph glyph-name="quoteleft" unicode="&#x2018;" horiz-adv-x="277" 
d="M192 447c0 -26 -18 -53 -53 -53c-43 0 -67 45 -67 105c0 118 83 194 94 194c5 0 10 -4 10 -11c0 -3 0 -5 -12 -17c-63 -62 -70 -134 -70 -166c0 -4 0 -18 2 -18c1 0 2 1 3 3c6 6 20 16 40 16c36 0 53 -27 53 -53z" />
    <glyph glyph-name="a" unicode="a" 
d="M333 76c-19 -47 -65 -87 -131 -87c-63 0 -160 25 -160 106c0 44 25 96 100 130c63 30 133 33 184 36v37c0 89 -57 128 -106 128c-32 0 -81 -11 -108 -46c46 -1 51 -34 51 -46c0 -26 -18 -46 -46 -46c-26 0 -46 17 -46 47c0 66 69 113 151 113c48 0 98 -16 137 -55
c36 -37 36 -76 36 -118v-200c0 -5 4 -50 37 -50c11 0 36 6 36 64v56h25v-56c0 -81 -61 -95 -82 -95c-47 0 -74 42 -78 82zM326 240c-165 -6 -207 -89 -207 -144c0 -50 41 -85 90 -85c45 0 117 34 117 129v100z" />
    <glyph glyph-name="b" unicode="b" horiz-adv-x="555" 
d="M172 377c16 18 59 65 137 65c114 0 212 -99 212 -226c0 -129 -104 -227 -223 -227c-74 0 -116 50 -131 73c-27 -47 -35 -61 -36 -62h-25v596c0 49 -8 56 -78 56v31l144 11v-317zM175 114c0 -18 0 -21 14 -42c24 -37 60 -61 105 -61c54 0 92 33 113 64
c29 45 31 105 31 142c0 41 -3 98 -29 139c-24 38 -60 64 -105 64c-24 0 -79 -8 -118 -64c-11 -16 -11 -17 -11 -36v-206z" />
    <glyph glyph-name="c" unicode="c" horiz-adv-x="444" 
d="M359 386c-35 36 -98 37 -107 37c-53 0 -135 -42 -135 -205c0 -161 88 -204 141 -204c37 0 102 12 131 105c2 6 4 10 13 10c3 0 13 0 13 -10s-32 -130 -166 -130c-116 0 -215 99 -215 227c0 124 92 232 217 232c77 0 153 -39 153 -107c0 -30 -20 -47 -46 -47
c-28 0 -46 20 -46 46c0 13 6 43 47 46z" />
    <glyph glyph-name="d" unicode="d" horiz-adv-x="555" 
d="M380 55c-25 -32 -70 -66 -134 -66c-114 0 -212 99 -212 226c0 129 105 227 223 227c54 0 97 -26 126 -62v216c0 49 -8 56 -78 56v31l144 11v-607c0 -49 8 -56 78 -56v-31l-147 -11v66zM380 323c0 18 0 20 -11 37c-31 45 -73 60 -108 60c-54 0 -92 -33 -113 -64
c-29 -45 -31 -105 -31 -142c0 -41 3 -98 29 -139c24 -38 60 -64 105 -64c43 0 88 22 118 70c11 17 11 19 11 37v205z" />
    <glyph glyph-name="e" unicode="e" horiz-adv-x="444" 
d="M390 231h-279c0 -36 0 -102 30 -150c23 -37 63 -67 113 -67c10 0 100 0 135 103c2 8 4 14 13 14c5 0 13 -2 13 -12c0 -19 -45 -130 -167 -130c-115 0 -220 97 -220 231c0 125 92 228 208 228c125 0 179 -97 179 -196c0 -21 -3 -21 -25 -21zM112 252h237
c0 39 -10 174 -113 174c-34 0 -118 -25 -124 -174z" />
    <glyph glyph-name="f" unicode="f" horiz-adv-x="305" 
d="M178 400v-322c0 -36 2 -47 76 -47h21v-31c-40 3 -87 3 -127 3c-28 0 -75 -2 -114 -3v31c67 0 78 0 78 45v324h-79v31h79v115c0 106 85 159 155 159c53 0 90 -33 90 -70c0 -24 -15 -44 -44 -44c-27 0 -43 20 -43 43c0 25 18 38 30 42c-15 7 -30 7 -33 7
c-44 0 -92 -48 -92 -136v-116h117v-31h-114z" />
    <glyph glyph-name="g" unicode="g" 
d="M222 172c40 0 63 28 71 40c15 25 16 57 16 84c0 23 0 123 -87 123c-40 0 -63 -28 -71 -40c-15 -25 -16 -57 -16 -84c0 -23 0 -123 87 -123zM123 180c-17 -20 -17 -43 -17 -47c0 -32 21 -63 53 -67c7 -1 50 -1 75 -1c61 0 119 0 172 -28c51 -28 65 -79 65 -114
c0 -78 -104 -129 -222 -129c-122 0 -221 55 -221 127c0 40 32 83 92 100c-31 20 -44 58 -44 89c0 35 18 68 31 83c-25 21 -47 59 -47 103c0 77 69 146 162 146c22 0 64 -3 106 -36c42 41 86 47 106 47c39 0 51 -32 51 -49c0 -23 -19 -30 -29 -30c-16 0 -29 12 -29 29
c0 12 5 23 16 27c-3 1 -8 1 -10 1c-18 0 -54 -5 -90 -39c25 -23 41 -60 41 -97c0 -77 -69 -146 -162 -146c-19 0 -60 3 -99 31zM250 -183c98 0 169 50 169 104c0 86 -112 86 -198 86h-59c-44 -3 -82 -40 -82 -86c0 -53 69 -104 170 -104z" />
    <glyph glyph-name="h" unicode="h" horiz-adv-x="555" 
d="M457 252v-191c1 -30 26 -30 78 -30v-31c-34 1 -86 3 -112 3c-27 0 -78 -2 -113 -3v31c67 0 78 0 78 45v233c0 57 -11 111 -74 111c-64 0 -135 -56 -135 -160v-184c0 -45 11 -45 78 -45v-31c-34 1 -86 3 -112 3c-27 0 -78 -2 -113 -3v31c67 0 78 0 78 45v520
c0 49 -8 56 -78 56v31l144 11v-348h1c16 36 60 96 144 96c58 0 91 -20 105 -37c31 -36 31 -67 31 -153z" />
    <glyph glyph-name="i" unicode="i" horiz-adv-x="277" 
d="M177 442v-367c0 -39 4 -44 70 -44v-31c-34 1 -69 3 -104 3c-24 0 -78 -2 -110 -3v31c67 0 78 0 78 45v269c0 49 -9 55 -74 55v31zM181 616c0 -32 -25 -53 -53 -53c-31 0 -53 26 -53 53c0 26 22 53 53 53c28 0 53 -21 53 -53z" />
    <glyph glyph-name="j" unicode="j" horiz-adv-x="305" 
d="M210 442v-492c0 -91 -62 -155 -137 -155c-57 0 -113 28 -113 80c0 26 18 46 46 46s46 -20 46 -46c0 -27 -20 -41 -35 -45c26 -13 49 -13 54 -13c64 0 73 86 73 131v396c0 49 -9 56 -86 56v31zM210 616c0 -29 -24 -53 -53 -53s-53 24 -53 53s24 53 53 53s53 -24 53 -53z
" />
    <glyph glyph-name="k" unicode="k" horiz-adv-x="527" 
d="M287 263l127 -179c38 -53 60 -53 97 -53v-31c-29 2 -58 3 -87 3c-21 0 -80 -2 -108 -3v31c19 0 36 4 36 23c0 18 -42 74 -119 180l-64 -55v-103c0 -45 11 -45 78 -45v-31c-40 2 -80 3 -110 3c-29 0 -76 -2 -109 -3v31c67 0 78 0 78 45v520c0 49 -8 56 -78 56v31l144 11
v-480l141 122c8 7 22 19 22 39c0 13 -10 24 -29 25v31c14 -1 76 -3 112 -3c28 0 41 0 70 3v-31c-21 -1 -63 -3 -126 -54c-10 -8 -81 -68 -81 -72c0 -3 5 -9 6 -11z" />
    <glyph glyph-name="l" unicode="l" horiz-adv-x="277" 
d="M177 694v-618c0 -45 11 -45 78 -45v-31c-37 1 -86 3 -111 3s-78 -2 -111 -3v31c67 0 78 0 78 45v520c0 49 -8 56 -78 56v31z" />
    <glyph glyph-name="m" unicode="m" horiz-adv-x="833" 
d="M110 344c0 49 -8 56 -78 56v31l141 11v-105c28 62 75 105 148 105c45 0 119 -11 133 -98c17 38 61 98 145 98c58 0 91 -20 105 -37c31 -36 31 -67 31 -153v-191c1 -30 26 -30 78 -30v-31c-34 1 -86 3 -112 3c-27 0 -78 -2 -113 -3v31c67 0 78 0 78 45v233
c0 57 -11 111 -74 111c-64 0 -135 -56 -135 -160v-184c0 -45 11 -45 78 -45v-31c-34 1 -86 3 -112 3c-27 0 -78 -2 -113 -3v31c67 0 78 0 78 45v233c0 57 -11 111 -74 111c-64 0 -135 -56 -135 -160v-184c0 -45 11 -45 78 -45v-31c-34 1 -86 3 -112 3c-27 0 -78 -2 -113 -3
v31c67 0 78 0 78 45v268z" />
    <glyph glyph-name="n" unicode="n" horiz-adv-x="555" 
d="M110 344c0 49 -8 56 -78 56v31l141 11v-105c28 62 75 105 148 105c58 0 91 -20 105 -37c31 -36 31 -67 31 -153v-191c1 -30 26 -30 78 -30v-31c-34 1 -86 3 -112 3c-27 0 -78 -2 -113 -3v31c67 0 78 0 78 45v233c0 57 -11 111 -74 111c-64 0 -135 -56 -135 -160v-184
c0 -45 11 -45 78 -45v-31c-34 1 -86 3 -112 3c-27 0 -78 -2 -113 -3v31c67 0 78 0 78 45v268z" />
    <glyph glyph-name="o" unicode="o" 
d="M471 214c0 -127 -101 -225 -222 -225c-117 0 -221 96 -221 225c0 125 97 234 222 234c121 0 221 -106 221 -234zM250 14c50 0 94 29 116 74c22 44 22 98 22 134c0 38 0 96 -26 139s-69 65 -113 65c-40 0 -87 -21 -114 -67c-24 -44 -24 -98 -24 -137c0 -36 0 -97 25 -141
c27 -46 71 -67 114 -67z" />
    <glyph glyph-name="p" unicode="p" horiz-adv-x="555" 
d="M175 337v-223c0 -20 0 -21 14 -42c27 -41 65 -61 105 -61c74 0 144 84 144 205c0 113 -61 201 -134 201c-51 0 -100 -29 -129 -80zM175 59v-9v-168c0 -45 11 -45 78 -45v-31c-35 1 -86 3 -113 3c-26 0 -78 -2 -112 -3v31c67 0 78 0 78 45v468c0 44 -7 50 -78 50v31
l144 11v-66c20 22 62 66 140 66c112 0 209 -99 209 -226c0 -129 -104 -227 -223 -227c-76 0 -118 54 -123 70z" />
    <glyph glyph-name="q" unicode="q" horiz-adv-x="527" 
d="M380 61c-22 -29 -63 -72 -133 -72c-116 0 -213 101 -213 226c0 130 105 227 221 227c80 0 121 -63 134 -91l38 91h22v-560c0 -45 11 -45 78 -45v-31c-35 1 -86 3 -113 3c-26 0 -78 -2 -112 -3v31c67 0 78 0 78 45v179zM383 277c0 53 -42 140 -122 140
c-74 0 -144 -83 -144 -202c0 -115 61 -204 134 -204c47 0 79 27 92 41c22 24 40 52 40 84v141z" />
    <glyph glyph-name="r" unicode="r" horiz-adv-x="391" 
d="M172 78c0 -36 2 -47 76 -47h21v-31c-40 3 -87 3 -127 3c-28 0 -75 -2 -114 -3v31c67 0 78 0 78 45v268c0 49 -8 56 -78 56v31l139 11v-110c14 43 50 110 123 110c43 0 74 -29 74 -61s-25 -44 -43 -44c-22 0 -43 15 -43 43c0 26 20 38 23 39c-2 1 -4 1 -11 1
c-76 0 -118 -89 -118 -188v-154z" />
    <glyph glyph-name="s" unicode="s" horiz-adv-x="394" 
d="M208 194c-72 14 -100 20 -132 46c-27 22 -43 50 -43 85c0 56 38 123 160 123c15 0 56 0 94 -28c4 3 14 12 17 16c13 12 15 12 20 12c11 0 11 -7 11 -24v-101c0 -19 0 -24 -13 -24c-2 0 -11 0 -12 9c-2 31 -7 121 -117 121c-86 0 -112 -41 -112 -76c0 -58 67 -71 123 -82
c42 -8 81 -16 114 -48c12 -12 42 -42 42 -95c0 -72 -46 -139 -161 -139c-21 0 -66 1 -110 43c-18 -19 -18 -21 -20 -23c-19 -19 -20 -20 -25 -20c-11 0 -11 7 -11 24v132c0 18 0 25 13 25c10 0 11 -4 14 -17c19 -85 55 -142 139 -142c78 0 113 40 113 91
c0 72 -82 88 -104 92z" />
    <glyph glyph-name="t" unicode="t" horiz-adv-x="388" 
d="M173 400v-278c0 -17 0 -108 67 -108c37 0 67 38 67 112v55h25v-57c0 -64 -28 -135 -99 -135c-36 0 -129 12 -129 135v276h-85v22c98 4 128 111 129 193h25v-184h143v-31h-143z" />
    <glyph glyph-name="u" unicode="u" horiz-adv-x="555" 
d="M391 79c-29 -62 -73 -90 -129 -90c-152 0 -152 91 -152 169v150c0 89 0 92 -78 92v31l147 11v-332c0 -52 4 -99 88 -99c73 0 121 68 121 155v178c0 49 -8 56 -78 56v31l147 11v-355c0 -49 8 -56 78 -56v-31l-144 -11v90z" />
    <glyph glyph-name="v" unicode="v" horiz-adv-x="527" 
d="M416 333l-131 -325c-4 -10 -8 -19 -21 -19s-15 5 -21 19l-144 355c-13 31 -17 37 -80 37v31c30 -2 70 -3 97 -3c23 0 79 2 109 3v-31c-18 0 -57 0 -57 -26c0 -2 0 -4 6 -17l112 -279l102 255c4 11 6 15 6 24c0 19 -11 42 -48 43v31c17 -1 63 -3 87 -3c23 0 52 1 75 3v-31
c-66 -1 -83 -44 -92 -67z" />
    <glyph glyph-name="w" unicode="w" horiz-adv-x="722" 
d="M619 336l-117 -328c-4 -10 -7 -19 -20 -19s-16 8 -20 19l-102 284l-101 -283c-5 -14 -7 -20 -20 -20s-16 8 -21 22l-126 354c-12 32 -24 35 -74 35v31c36 -2 89 -3 93 -3c23 0 79 2 109 3v-31c-20 0 -59 0 -59 -27c0 -4 0 -6 5 -18l95 -267l86 242c-7 19 -18 49 -23 55
c-10 13 -26 15 -63 15v31c30 -2 59 -3 89 -3c24 0 75 2 104 3v-31c-20 0 -59 0 -59 -27c0 -5 1 -7 5 -19l99 -279l91 256c5 13 5 15 5 21c0 29 -22 47 -58 48v31c19 -1 64 -3 93 -3c22 0 51 1 73 3v-31c-35 -1 -66 -14 -84 -64z" />
    <glyph glyph-name="x" unicode="x" horiz-adv-x="527" 
d="M287 235l134 -173c23 -29 41 -31 95 -31v-31c-30 2 -69 3 -96 3c-22 0 -78 -2 -108 -3v31c27 1 36 16 36 25c0 6 -13 22 -21 33l-76 100c-61 -72 -90 -105 -90 -127c0 -15 7 -28 29 -31v-31c-24 1 -66 3 -95 3c-26 0 -57 -1 -83 -3v31c21 0 80 2 128 60l94 119l-99 129
c-47 60 -48 61 -118 61v31c27 -2 74 -3 95 -3c16 0 82 2 108 3v-31c-20 -1 -35 -10 -35 -25c0 -6 0 -8 9 -18l78 -101l62 78c5 6 15 19 15 35s-8 29 -29 31v31c13 -1 66 -3 96 -3c26 0 56 1 82 3v-31c-47 -1 -88 -16 -119 -52c-24 -26 -62 -75 -92 -113z" />
    <glyph glyph-name="y" unicode="y" horiz-adv-x="527" 
d="M415 336l-176 -427c-24 -57 -65 -114 -128 -114c-50 0 -92 36 -92 81c0 30 22 43 42 43c23 0 42 -16 42 -42c0 -16 -8 -38 -39 -42c19 -18 42 -18 47 -18c64 0 92 69 114 124c6 13 20 46 25 59l-150 365c-14 35 -33 35 -81 35v31c30 -2 70 -3 97 -3c17 0 83 2 109 3v-31
c-19 0 -56 0 -56 -26c0 -4 2 -8 6 -18l111 -269l101 246c5 12 6 14 6 24c0 25 -16 42 -47 43v31c22 -1 69 -3 87 -3c23 0 52 1 75 3v-31c-16 0 -67 -1 -93 -64z" />
    <glyph glyph-name="z" unicode="z" horiz-adv-x="444" 
d="M390 401l-278 -376h118c116 0 137 44 146 162h25l-17 -187h-330c-19 0 -26 0 -26 14c0 5 0 7 9 18l279 377h-114c-110 0 -129 -37 -135 -139h-25l11 161h320c18 0 26 0 26 -13c0 -4 0 -6 -9 -17z" />
    <glyph glyph-name="endash" unicode="&#x2013;" 
d="M499 255h-499v22h499v-22z" />
    <glyph glyph-name="emdash" unicode="&#x2014;" horiz-adv-x="1000" 
d="M999 255h-999v22h999v-22z" />
    <glyph glyph-name="hungarumlaut" unicode="&#x2dd;" 
d="M241 639l-92 -126c-2 1 -17 9 -21 12l54 145c5 12 11 29 34 29c19 0 37 -16 37 -34c0 -10 -3 -14 -12 -26zM408 639l-92 -126c-2 1 -17 9 -21 12l54 145c5 12 11 29 34 29c19 0 37 -16 37 -34c0 -10 -3 -14 -12 -26z" />
    <glyph glyph-name="tilde" unicode="&#x2dc;" 
d="M400 668l16 -15c-51 -56 -70 -78 -108 -78c-17 0 -35 7 -62 23c-17 10 -42 25 -65 25c-44 0 -82 -47 -82 -48l-16 15c51 56 70 78 108 78c17 0 35 -7 62 -23c17 -10 42 -25 65 -25c44 0 82 47 82 48z" />
    <glyph glyph-name="dieresis" unicode="&#xa8;" 
d="M203 619c0 -24 -20 -50 -50 -50c-28 0 -50 22 -50 50s22 50 50 50c30 0 50 -26 50 -50zM396 619c0 -28 -22 -50 -50 -50c-30 0 -50 26 -50 50s20 50 50 50c28 0 50 -22 50 -50z" />
    <glyph glyph-name="space" unicode=" " horiz-adv-x="333" 
 />
  </font>
</defs>
</svg>
