<?xml version="1.0" standalone="no"?>
<!DOCTYPE svg PUBLIC "-//W3C//DTD SVG 1.1//EN" "http://www.w3.org/Graphics/SVG/1.1/DTD/svg11.dtd" >
<svg>
<metadata>
Created by FontForge 20060822 at Fri Oct  6 18:23:49 2006
 By Wojciech Mula,,,
Copyright (C) 1997 American Mathematical Society. All Rights Reserved
</metadata>
<defs>
<font id="CMR9" horiz-adv-x="513" >
  <font-face 
    font-family="Computer Modern"
    font-weight="500"
    font-stretch="normal"
    units-per-em="1000"
    panose-1="2 0 6 3 0 0 0 0 0 0"
    ascent="750"
    descent="-250"
    x-height="431"
    cap-height="683"
    bbox="-39 -250 1036 750"
    underline-thickness="0"
    underline-position="0"
    stemh="31"
    stemv="74"
    unicode-range="U+0020-U+FB04"
  />
    <missing-glyph />
    <glyph glyph-name="ff" unicode="ff" horiz-adv-x="599" 
d="M463 400v-321c0 -37 3 -48 76 -48h20v-31c-63 2 -87 3 -127 3c-51 0 -64 -1 -117 -3v31c66 0 77 0 77 46v323h-214v-323c0 -46 11 -46 77 -46v-31c-49 2 -66 3 -113 3c-46 0 -65 -1 -112 -3v31c66 0 77 0 77 46v323h-79v31h79v113c0 105 115 161 219 161
c56 0 96 -17 117 -42c40 36 86 42 109 42c58 0 94 -34 94 -71c0 -26 -18 -45 -45 -45c-25 0 -44 18 -44 44c0 25 16 37 26 41c-15 6 -27 6 -30 6c-45 0 -93 -46 -93 -136v-113h120v-31h-117zM175 431h217v115c0 12 0 21 3 33c-23 10 -26 30 -26 40c0 31 24 41 33 44
c-30 16 -64 17 -76 17c-65 0 -151 -38 -151 -139v-110z" />
    <glyph glyph-name="fi" unicode="fi" horiz-adv-x="570" 
d="M333 434l130 9v-366c0 -46 11 -46 77 -46v-31c-49 2 -66 3 -113 3c-46 0 -65 -1 -112 -3v31c66 0 77 0 77 46v269c0 41 -6 54 -53 54h-161v-323c0 -46 11 -46 77 -46v-31c-49 2 -66 3 -113 3c-46 0 -65 -1 -112 -3v31c66 0 77 0 77 46v323h-79v31h79v113
c0 107 120 161 220 161c80 0 135 -45 135 -102c0 -28 -21 -47 -48 -47c-23 0 -47 17 -47 47c0 12 6 43 45 47c-25 24 -63 30 -86 30c-57 0 -151 -35 -151 -139v-110h122c14 0 16 0 18 1c1 0 2 1 18 2z" />
    <glyph glyph-name="fl" unicode="fl" horiz-adv-x="570" 
d="M463 694v-617c0 -46 11 -46 77 -46v-31c-49 2 -66 3 -113 3c-46 0 -65 -1 -112 -3v31c66 0 77 0 77 46v323h-214v-323c0 -46 11 -46 77 -46v-31c-49 2 -66 3 -113 3c-46 0 -65 -1 -112 -3v31c66 0 77 0 77 46v323h-79v31h79v113c0 101 108 161 222 161c16 0 54 -1 85 -13
c8 -3 9 -4 12 -4zM175 431h217v163c-16 9 -23 25 -23 39c0 16 9 32 23 39c-22 6 -43 8 -64 8c-70 0 -153 -41 -153 -139v-110z" />
    <glyph glyph-name="ffi" unicode="ffi" horiz-adv-x="856" 
d="M618 434l130 9v-366c0 -46 11 -46 77 -46v-31c-49 2 -66 3 -113 3c-46 0 -65 -1 -112 -3v31c66 0 77 0 77 46v269c0 41 -6 54 -53 54h-161v-323c0 -46 11 -46 77 -46v-31c-49 2 -66 3 -113 3c-46 0 -65 -1 -112 -3v31c66 0 77 0 77 46v323h-214v-323c0 -46 11 -46 77 -46
v-31c-49 2 -66 3 -113 3c-46 0 -65 -1 -112 -3v31c66 0 77 0 77 46v323h-79v31h79v113c0 106 117 161 218 161c59 0 99 -24 119 -54c49 37 108 54 168 54c80 0 135 -45 135 -102c0 -28 -21 -47 -48 -47c-23 0 -47 17 -47 47c0 12 6 43 45 47c-25 24 -63 30 -86 30
c-57 0 -151 -35 -151 -139v-110h122c14 0 16 0 18 1c1 0 2 1 18 2zM175 431h217v129c-19 8 -28 27 -28 43c0 4 0 42 45 47c-31 29 -73 30 -85 30c-55 0 -149 -33 -149 -139v-110z" />
    <glyph glyph-name="ffl" unicode="ffl" horiz-adv-x="856" 
d="M748 694v-617c0 -46 11 -46 77 -46v-31c-49 2 -66 3 -113 3c-46 0 -65 -1 -112 -3v31c66 0 77 0 77 46v323h-214v-323c0 -46 11 -46 77 -46v-31c-49 2 -66 3 -113 3c-46 0 -65 -1 -112 -3v31c66 0 77 0 77 46v323h-214v-323c0 -46 11 -46 77 -46v-31c-49 2 -66 3 -113 3
c-46 0 -65 -1 -112 -3v31c66 0 77 0 77 46v323h-79v31h79v113c0 105 115 161 219 161c38 0 94 -6 123 -51c34 27 89 51 165 51c16 0 54 -1 85 -13c8 -3 9 -4 12 -4zM175 431h217v113c0 12 0 22 4 35c-26 10 -27 38 -27 40c0 29 24 41 33 44c-30 16 -65 17 -76 17
c-62 0 -151 -37 -151 -139v-110zM460 541v-110h217v163c-16 9 -23 25 -23 39c0 16 9 32 23 39c-22 6 -43 8 -64 8c-70 0 -153 -41 -153 -139z" />
    <glyph glyph-name="Gamma" unicode="&#x393;" horiz-adv-x="642" 
d="M570 680l28 -225h-28c-16 135 -37 194 -183 194h-108c-47 0 -49 -7 -49 -41v-528c0 -37 4 -49 95 -49h32v-31c-35 3 -126 3 -166 3c-46 0 -108 0 -153 -3v31h23c77 0 79 11 79 48v522c0 37 -2 48 -79 48h-23v31h532z" />
    <glyph glyph-name="Delta" unicode="&#x394;" horiz-adv-x="856" 
d="M457 693l344 -671c5 -10 5 -12 5 -13c0 -9 -7 -9 -23 -9h-711c-16 0 -23 0 -23 9c0 2 2 7 6 15l345 673c7 14 13 19 27 19c16 0 21 -5 30 -23zM394 617l-277 -540h555z" />
    <glyph glyph-name="Theta" unicode="&#x398;" horiz-adv-x="799" 
d="M741 339c0 -203 -156 -361 -342 -361s-342 158 -342 361s155 366 342 366s342 -162 342 -366zM399 5c104 0 246 87 246 334c0 246 -138 341 -246 341c-107 0 -246 -94 -246 -341s143 -334 246 -334zM587 415v-145h-28v34h-320v-34h-28v145h28v-34h320v34h28z" />
    <glyph glyph-name="Lambda" unicode="&#x39b;" horiz-adv-x="713" 
d="M380 695l208 -622c14 -42 31 -42 92 -42v-31c-77 3 -78 3 -125 3c-46 0 -97 0 -142 -3v31c28 0 83 0 83 31c0 4 0 6 -5 19l-166 494l-157 -471c-5 -14 -5 -16 -5 -21c0 -28 26 -51 75 -52v-31c-52 2 -69 3 -111 3c-32 0 -62 0 -94 -3v31c70 0 91 39 101 70l199 594
c4 12 7 21 23 21s19 -8 24 -21z" />
    <glyph glyph-name="Xi" unicode="&#x39e;" horiz-adv-x="685" 
d="M626 677l9 -157h-28c-1 26 -4 67 -14 78c-6 8 -73 8 -75 8h-352c-11 0 -71 0 -76 -9c-9 -13 -11 -51 -13 -77h-28l9 157h568zM52 0l-9 168h28c1 -29 4 -72 13 -88c6 -9 72 -9 81 -9h354c23 0 76 0 82 11c9 17 11 61 12 86h28l-9 -168h-580zM541 439v-173h-28v51h-342v-51
h-28v173h28v-51h342v51h28z" />
    <glyph glyph-name="Pi" unicode="&#x3a0;" horiz-adv-x="770" 
d="M630 601v-522c0 -37 2 -48 79 -48h23v-31c-45 3 -101 3 -147 3s-102 0 -147 -3v31h23c77 0 79 11 79 48v570h-310v-570c0 -37 2 -48 79 -48h23v-31c-45 3 -101 3 -147 3s-102 0 -147 -3v31h23c77 0 79 11 79 48v522c0 37 -2 48 -79 48h-23v31h694v-31h-23
c-77 0 -79 -11 -79 -48z" />
    <glyph glyph-name="Sigma" unicode="&#x3a3;" horiz-adv-x="742" 
d="M379 326l-257 -283h285c168 0 229 30 249 194h28l-28 -237h-572c-16 0 -27 0 -27 13c0 4 2 6 11 16l245 269l-256 363c0 22 5 22 27 22h572l28 -225h-28c-20 169 -90 194 -246 194h-237l209 -295c7 -9 7 -14 7 -15c0 -4 0 -6 -10 -16z" />
    <glyph glyph-name="Upsilon" unicode="&#x3a5;" horiz-adv-x="799" 
d="M444 350v-270c0 -37 4 -49 95 -49h32v-31c-35 3 -131 3 -172 3s-137 0 -172 -3v31h32c91 0 95 12 95 49v270c0 75 -20 278 -164 278c-47 0 -96 -24 -102 -76c-1 -11 -2 -18 -15 -18c-16 0 -16 10 -16 18c0 61 43 153 134 153c161 0 199 -198 207 -243h2
c8 45 46 243 207 243c91 0 134 -91 134 -153c0 -8 0 -18 -16 -18c-13 0 -14 8 -15 16c-6 57 -59 78 -102 78c-140 0 -164 -193 -164 -278z" />
    <glyph glyph-name="Phi" unicode="&#x3a6;" horiz-adv-x="742" 
d="M410 135v-55c0 -37 4 -49 95 -49h32v-31c-35 3 -129 3 -169 3s-134 0 -169 -3v31h32c91 0 95 12 95 49v55c-164 16 -269 109 -269 207c0 94 100 189 269 206v55c0 37 -4 49 -95 49h-32v31c35 -3 129 -3 169 -3s134 0 169 3v-31h-32c-91 0 -95 -12 -95 -49v-55
c160 -12 274 -104 274 -207c0 -99 -111 -194 -274 -206zM326 161v361c-119 -15 -170 -81 -170 -181c0 -108 61 -167 170 -180zM410 523v-363c108 12 175 68 175 182c0 124 -80 171 -175 181z" />
    <glyph glyph-name="Psi" unicode="&#x3a8;" horiz-adv-x="799" 
d="M438 603v-440c117 25 146 141 147 237c1 134 45 155 94 155h35c16 0 27 0 27 -13c0 -10 -10 -11 -15 -12c-56 -8 -57 -95 -57 -109c-1 -110 -30 -262 -231 -286v-55c0 -37 4 -49 95 -49h32v-31c-35 3 -129 3 -169 3s-134 0 -169 -3v31h32c91 0 95 12 95 49v55
c-76 10 -135 38 -178 100c-39 56 -47 133 -47 160c0 40 -1 127 -53 135c-10 1 -19 2 -19 12c0 13 11 13 27 13h35c19 0 50 0 72 -37c20 -36 22 -87 22 -103c0 -53 1 -220 141 -252v440c0 37 -4 49 -95 49h-32v31c35 -3 129 -3 169 -3s134 0 169 3v-31h-32
c-91 0 -95 -12 -95 -49z" />
    <glyph glyph-name="Omega" unicode="&#x3a9;" horiz-adv-x="742" 
d="M695 163l-34 -163h-164c-22 0 -27 0 -27 21c0 71 32 153 61 230c24 61 51 130 51 204c0 148 -106 225 -212 225c-101 0 -211 -73 -211 -225c0 -70 24 -137 50 -204c30 -76 62 -159 62 -230c0 -21 -5 -21 -27 -21h-164l-34 163h28c5 -26 13 -61 19 -76c5 -13 8 -21 66 -21
h80c-12 47 -32 83 -84 159c-48 70 -98 142 -98 229c0 136 135 251 314 251c175 0 313 -113 313 -251c0 -86 -48 -156 -100 -231c-47 -69 -69 -107 -82 -157h80c58 0 61 8 67 24c5 14 12 46 18 73h28z" />
    <glyph glyph-name="dotlessi" unicode="&#x131;" horiz-adv-x="285" 
d="M184 442v-367c0 -39 4 -44 69 -44v-31c-49 3 -91 3 -107 3c-44 0 -65 -1 -110 -3v31c66 0 77 0 77 46v268c0 49 -9 55 -73 55v31z" />
    <glyph glyph-name="dotlessj" unicode="&#xf6be;" horiz-adv-x="314" 
d="M218 442v-490c0 -92 -63 -157 -142 -157c-57 0 -115 28 -115 80c0 27 18 47 47 47c27 0 46 -20 46 -46c0 -6 0 -34 -32 -44c24 -12 50 -12 53 -12c68 0 72 100 72 129v395c0 49 -9 56 -85 56v31z" />
    <glyph glyph-name="grave" unicode="`" 
d="M282 508l-153 120c-10 8 -19 15 -19 31c0 22 20 39 38 39c17 0 24 -9 34 -21l119 -148z" />
    <glyph glyph-name="acute" unicode="&#xb4;" 
d="M382 626l-151 -118l-19 21l122 151c9 11 14 18 31 18c18 0 38 -16 38 -39c0 -15 -8 -23 -21 -33z" />
    <glyph glyph-name="caron" unicode="&#x2c7;" 
d="M257 571l120 69l16 -24l-137 -100l-136 100l16 24z" />
    <glyph glyph-name="breve" unicode="&#x2d8;" 
d="M386 694h25c-2 -105 -74 -174 -155 -174c-77 0 -152 66 -154 174h25c2 -86 67 -133 130 -133c59 0 126 45 129 133z" />
    <glyph glyph-name="macron" unicode="&#xaf;" 
d="M442 558h-371v35h371v-35z" />
    <glyph glyph-name="ring" unicode="&#x2da;" horiz-adv-x="770" 
d="M485 628c0 -46 -42 -87 -100 -87c-55 0 -100 39 -100 88c0 46 42 87 100 87c55 0 100 -39 100 -88zM385 566c31 0 72 7 72 63c0 59 -50 62 -72 62c-31 0 -72 -7 -72 -63c0 -59 50 -62 72 -62z" />
    <glyph glyph-name="cedilla" unicode="&#xb8;" horiz-adv-x="456" 
d="M294 -22v-30c47 -8 85 -29 85 -73s-39 -64 -100 -73c-58 -9 -103 -4 -145 -7v25c7 1 14 1 23 1h22c32 0 126 1 126 54c0 28 -27 53 -85 54v49h74z" />
    <glyph glyph-name="germandbls" unicode="&#xdf;" 
d="M325 417c97 -39 159 -136 159 -243c0 -109 -87 -185 -180 -185c-59 0 -96 38 -96 76c0 31 25 39 37 39c20 0 37 -16 37 -37c0 -29 -19 -34 -28 -37c13 -10 32 -16 48 -16c33 0 103 27 103 160c0 145 -73 224 -149 232c-15 1 -21 1 -21 12c0 12 7 12 19 13
c78 7 123 59 123 132c0 84 -53 117 -98 117c-12 0 -101 -4 -101 -124v-556c-15 3 -29 3 -53 3c-29 0 -67 -2 -95 -3v31c66 0 77 0 77 46v323h-77v31h77v125c0 96 88 149 173 149c101 0 176 -68 176 -143c0 -70 -61 -124 -131 -145z" />
    <glyph glyph-name="ae" unicode="&#xe6;" horiz-adv-x="742" 
d="M685 229h-277c0 -211 138 -212 150 -212c16 0 94 3 126 104c1 4 3 11 14 11c9 0 14 -6 14 -13c0 -20 -44 -130 -159 -130c-61 0 -127 29 -170 86c-6 -10 -51 -86 -174 -86c-72 0 -163 27 -163 105c0 98 126 157 288 157v46c0 88 -57 126 -108 126c-17 0 -68 -3 -105 -35
c1 0 45 -5 45 -48c0 -26 -19 -46 -46 -46c-26 0 -47 17 -47 48c0 63 69 106 155 106c85 0 137 -44 160 -75c19 21 66 75 153 75c113 0 171 -89 171 -197c0 -22 -4 -22 -27 -22zM409 253h236c-2 36 -7 170 -105 170c-46 0 -122 -38 -131 -170zM334 227
c-163 -6 -208 -79 -208 -133c0 -44 38 -80 90 -80c63 0 130 47 130 118c0 10 0 12 -3 20c-9 37 -9 52 -9 75z" />
    <glyph glyph-name="oe" unicode="&#x153;" horiz-adv-x="799" 
d="M742 229h-277c0 -211 138 -212 150 -212c16 0 94 3 126 104c1 4 3 11 14 11c9 0 14 -6 14 -13c0 -20 -44 -130 -159 -130c-88 0 -153 56 -182 102c-40 -65 -108 -102 -180 -102c-119 0 -219 102 -219 230c0 130 101 229 219 229c93 0 154 -60 179 -99c25 40 82 99 171 99
c113 0 171 -89 171 -197c0 -22 -4 -22 -27 -22zM466 253h236c-2 36 -7 170 -105 170c-46 0 -122 -38 -131 -170zM249 14c29 0 142 18 142 209c0 185 -114 200 -142 200c-25 0 -140 -9 -140 -200c0 -193 109 -209 140 -209z" />
    <glyph glyph-name="oslash" unicode="&#xf8;" 
d="M453 522l-69 -117c40 -27 95 -95 95 -192c0 -124 -99 -224 -223 -224c-45 0 -79 14 -104 26l-71 -118l-21 13l70 118c-81 60 -96 138 -96 185c0 128 98 235 223 235c31 0 68 -7 106 -29l68 115zM150 61l196 330c-21 17 -52 32 -90 32c-32 0 -85 -12 -119 -67
c-28 -46 -29 -107 -29 -142c0 -57 5 -112 42 -153zM364 372l-195 -330c11 -8 44 -28 87 -28c54 0 93 26 115 56c32 44 34 103 34 144c0 64 -7 116 -41 158z" />
    <glyph glyph-name="AE" unicode="&#xc6;" horiz-adv-x="927" 
d="M898 258l-43 -258h-503v31c65 0 76 0 76 46v236h-167l-79 -210c-5 -12 -5 -13 -5 -21c0 -32 31 -50 72 -51v-31c-50 2 -69 3 -113 3c-7 0 -59 0 -102 -3v31c78 0 101 36 114 70l207 550c-12 0 -30 1 -41 1h-45v31h573l28 -225h-28c-16 134 -36 194 -179 194h-102
c-47 0 -49 -7 -49 -41v-267h88c95 0 105 33 105 117h28v-265h-28c0 85 -10 117 -105 117h-88v-241c0 -34 2 -41 49 -41h100c163 0 184 72 209 227h28zM387 648l-114 -304h155v258c0 19 0 44 -41 46z" />
    <glyph glyph-name="OE" unicode="&#x152;" horiz-adv-x="1041" 
d="M1012 258l-43 -258h-398c-22 0 -36 -1 -92 -13c-36 -8 -55 -9 -68 -9c-178 0 -340 153 -340 361s160 366 340 366c13 0 32 -1 68 -9c57 -12 70 -13 92 -13h385l28 -225h-28c-16 137 -39 194 -185 194h-116c-47 0 -49 -7 -49 -41v-241h111c102 0 116 31 116 117h28v-265
h-28c0 87 -15 117 -116 117h-111v-267c0 -34 2 -41 49 -41h115c167 0 189 71 214 227h28zM415 3c95 0 102 51 109 114c4 36 4 121 4 225c0 107 0 190 -5 233c-7 61 -20 105 -108 105c-132 0 -245 -138 -245 -326c0 -195 110 -351 245 -351z" />
    <glyph glyph-name="Oslash" unicode="&#xd8;" horiz-adv-x="799" 
d="M682 724l-69 -100c79 -67 128 -172 128 -285c0 -203 -156 -361 -342 -361c-44 0 -117 9 -193 63l-68 -98l-22 16l68 99c-71 60 -127 159 -127 281c0 203 155 366 342 366c89 0 152 -36 193 -63l68 98zM211 97l356 511c-30 31 -88 72 -168 72c-40 0 -252 -13 -252 -341
c0 -114 22 -186 64 -242zM586 585l-355 -510c27 -31 88 -72 168 -72c67 0 141 30 192 99c55 76 60 175 60 237c0 113 -22 188 -65 246z" />
    <glyph glyph-name="suppress" horiz-adv-x="285" 
d="M270 363l-234 -83l-10 30l234 82z" />
    <glyph glyph-name="exclam" unicode="!" horiz-adv-x="285" 
d="M196 664l-39 -454c-1 -14 -2 -21 -15 -21s-14 7 -15 21l-39 454c0 35 30 52 54 52s54 -17 54 -52zM196 54c0 -30 -24 -54 -54 -54s-54 24 -54 54s24 54 54 54s54 -24 54 -54z" />
    <glyph glyph-name="quotedblright" unicode="&#x201d;" 
d="M156 588c0 -120 -85 -195 -95 -195c-7 0 -13 7 -13 12s3 8 5 10c48 45 78 106 78 172c0 9 0 15 -2 15c-1 0 -2 -1 -4 -3c-11 -9 -24 -13 -37 -13c-35 0 -54 27 -54 54s19 54 54 54c42 0 68 -42 68 -106zM356 588c0 -120 -85 -195 -95 -195c-7 0 -13 7 -13 12s3 8 5 10
c48 45 78 106 78 172c0 9 0 15 -2 15c-1 0 -2 -1 -4 -3c-11 -9 -24 -13 -37 -13c-35 0 -54 27 -54 54s19 54 54 54c42 0 68 -42 68 -106z" />
    <glyph glyph-name="numbersign" unicode="#" horiz-adv-x="856" 
d="M533 127l-83 -297c-3 -12 -7 -24 -22 -24c-13 0 -22 9 -22 22c0 4 0 6 4 18l78 281h-190l-83 -297c-3 -12 -7 -24 -22 -24c-13 0 -22 9 -22 22c0 4 0 6 4 18l78 281h-159c-15 0 -37 0 -37 22c0 21 20 21 33 21h176l44 161h-220c-13 0 -33 0 -33 21c0 22 22 22 37 22h228
l83 296c3 12 7 24 22 24c13 0 22 -9 22 -22c0 -4 0 -6 -4 -18l-78 -280h190l83 296c3 12 7 24 22 24c13 0 22 -9 22 -22c0 -4 0 -6 -4 -18l-78 -280h159c15 0 37 0 37 -22c0 -21 -19 -21 -33 -21h-176l-44 -161h220c14 0 33 0 33 -21c0 -22 -22 -22 -37 -22h-228zM310 170
h191l44 161h-191z" />
    <glyph glyph-name="dollar" unicode="$" 
d="M272 674v-271c47 -11 86 -19 131 -67c16 -18 53 -67 53 -141c0 -101 -73 -195 -184 -205v-46h-31v45c-127 8 -184 97 -184 189c0 42 29 51 47 51c26 0 46 -19 46 -46c0 -31 -23 -47 -47 -47c-5 0 -12 2 -13 2c21 -87 92 -114 151 -117v297c-65 18 -90 24 -126 60
c-32 31 -58 76 -58 135c0 90 69 182 184 191v46h31v-45c131 -8 184 -93 184 -175c0 -40 -26 -51 -47 -51c-26 0 -46 19 -46 46c0 31 24 47 47 47c3 0 9 -1 12 -2c-18 70 -84 100 -150 104zM241 411v262c-85 -9 -132 -72 -132 -130c0 -18 4 -107 132 -132zM272 311v-290
c79 8 132 74 132 144c0 21 -6 120 -132 146z" />
    <glyph glyph-name="percent" unicode="%" horiz-adv-x="856" 
d="M704 710l-517 -750c-6 -8 -11 -16 -22 -16c-12 0 -22 9 -22 22c0 7 8 18 9 20l456 661l-1 1c-42 -23 -88 -33 -132 -33c-35 0 -91 7 -153 42c20 -49 20 -94 20 -109c0 -113 -60 -201 -134 -201c-75 0 -151 80 -151 202c0 118 74 201 151 201c18 0 44 -5 71 -29
c35 -33 99 -81 196 -81c46 0 130 11 194 95c6 9 11 15 22 15c9 0 21 -8 21 -22c0 -7 -3 -11 -8 -18zM210 372c51 0 104 71 104 177c0 102 -51 176 -104 176c-21 0 -87 -12 -87 -177c0 -163 66 -176 87 -176zM798 145c0 -113 -60 -201 -134 -201c-75 0 -151 80 -151 202
c0 118 74 201 151 201c73 0 134 -85 134 -202zM666 -31c51 0 104 71 104 177c0 102 -51 176 -104 176c-21 0 -87 -12 -87 -177c0 -163 66 -176 87 -176z" />
    <glyph glyph-name="ampersand" unicode="&#x26;" horiz-adv-x="799" 
d="M620 334l-41 -68c-35 -57 -75 -119 -120 -169c46 -47 87 -88 140 -88c50 0 112 36 114 112h28c-2 -86 -68 -143 -145 -143c-38 0 -105 9 -181 75c-55 -47 -118 -75 -186 -75c-101 0 -186 64 -186 151c0 54 24 78 66 122l98 100c-37 95 -41 171 -41 201
c0 108 77 164 142 164c73 0 90 -87 90 -130c0 -62 -46 -114 -125 -203c46 -116 159 -254 167 -264c35 36 64 78 90 121l53 87c10 16 12 19 12 30c0 22 -21 43 -69 43v31c62 -2 87 -3 121 -3c1 0 65 0 100 3v-31c-56 -1 -97 -19 -127 -66zM263 410c13 13 107 107 107 176
c0 9 -2 105 -61 105c-48 0 -76 -55 -76 -111c0 -13 1 -89 30 -170zM218 326c-59 -57 -89 -87 -89 -168c0 -57 25 -149 106 -149c68 0 126 35 159 64c-39 39 -52 53 -90 106c-19 26 -60 83 -86 147z" />
    <glyph glyph-name="quoteright" unicode="&#x2019;" horiz-adv-x="285" 
d="M210 588c0 -120 -85 -195 -95 -195c-7 0 -13 7 -13 12s3 8 5 10c48 45 78 106 78 172c0 9 0 15 -2 15c-1 0 -2 -1 -4 -3c-11 -9 -24 -13 -37 -13c-35 0 -54 27 -54 54s19 54 54 54c42 0 68 -42 68 -106z" />
    <glyph glyph-name="parenleft" unicode="(" horiz-adv-x="399" 
d="M341 -238c0 -7 -5 -11 -12 -11c-12 0 -105 73 -164 196c-55 118 -64 232 -64 304c0 119 24 222 72 318c54 109 144 181 156 181c7 0 12 -4 12 -11c0 -5 -2 -8 -6 -12c-141 -134 -171 -322 -171 -477c0 -175 39 -355 168 -473c6 -7 9 -10 9 -15z" />
    <glyph glyph-name="parenright" unicode=")" horiz-adv-x="399" 
d="M298 251c0 -120 -24 -223 -72 -319c-54 -109 -144 -181 -156 -181c-10 0 -12 8 -12 11c0 5 4 9 6 12c145 135 171 334 171 477c0 285 -110 421 -168 473c-7 7 -9 10 -9 15c0 3 2 11 12 11c12 0 105 -73 164 -196c52 -111 64 -221 64 -303z" />
    <glyph glyph-name="asterisk" unicode="*" 
d="M270 511l14 -152l2 -13c0 -11 -9 -27 -30 -27c-17 0 -29 14 -29 27l2 13l14 153l-125 -91c-12 -9 -17 -9 -22 -9c-18 0 -29 16 -29 30c0 18 12 23 22 28l141 65l-141 64c-10 5 -22 10 -22 28c0 14 11 30 29 30c7 0 9 0 22 -10l125 -89l-14 152l-2 13c0 11 9 27 30 27
c17 0 29 -14 29 -27l-2 -13l-14 -153l125 91c12 9 17 9 22 9c18 0 29 -16 29 -30c0 -18 -12 -23 -22 -28l-141 -65l141 -64c10 -5 22 -10 22 -28c0 -14 -11 -30 -29 -30c-7 0 -9 0 -22 10z" />
    <glyph glyph-name="plus" unicode="+" horiz-adv-x="799" 
d="M421 229v-286c0 -14 0 -35 -21 -35c-22 0 -22 19 -22 35v286h-286c-16 0 -35 0 -35 22c0 21 21 21 35 21h286v286c0 14 0 35 21 35c22 0 22 -19 22 -35v-286h285c16 0 35 0 35 -22c0 -21 -21 -21 -35 -21h-285z" />
    <glyph glyph-name="comma" unicode="," horiz-adv-x="285" 
d="M182 16c0 -1 -15 -16 -40 -16c-35 0 -54 27 -54 54s19 54 54 54c39 0 65 -37 65 -106c0 -118 -81 -195 -92 -195c-7 0 -13 7 -13 12c0 1 0 5 4 10c76 72 76 154 76 187z" />
    <glyph glyph-name="hyphen" unicode="-" horiz-adv-x="342" 
d="M285 185h-274v62h274v-62z" />
    <glyph glyph-name="period" unicode="." horiz-adv-x="285" 
d="M196 54c0 -30 -24 -54 -54 -54s-54 24 -54 54c0 29 24 54 54 54s54 -25 54 -54z" />
    <glyph glyph-name="slash" unicode="/" 
d="M451 711l-349 -938c-4 -12 -8 -23 -24 -23c-9 0 -21 7 -21 22c0 4 2 8 5 17l349 938c4 12 8 23 24 23c9 0 21 -7 21 -22c0 -4 -2 -8 -5 -17z" />
    <glyph glyph-name="zero" unicode="0" 
d="M473 320c0 -80 -6 -155 -36 -222c-42 -92 -116 -120 -181 -120c-46 0 -124 16 -171 101c-43 79 -45 176 -45 241c0 76 5 157 37 226c44 96 120 120 180 120c58 0 134 -24 178 -118c35 -75 38 -161 38 -228zM257 3c25 0 99 10 120 124c10 59 10 143 10 205
c0 63 0 141 -11 196c-19 93 -82 113 -120 113c-34 0 -98 -18 -118 -107c-12 -55 -12 -134 -12 -202c0 -57 0 -143 10 -202c19 -113 91 -127 121 -127z" />
    <glyph glyph-name="one" unicode="1" 
d="M304 639v-559c0 -37 3 -49 96 -49h32v-31c-36 3 -126 3 -167 3s-130 0 -166 -3v31h32c93 0 96 12 96 49v517c-54 -26 -115 -26 -134 -26v31c31 0 123 0 185 64c25 0 26 -2 26 -27z" />
    <glyph glyph-name="two" unicode="2" 
d="M462 177l-28 -177h-383c0 23 0 25 11 36l183 198c48 52 125 135 125 237c0 69 -35 164 -137 164c-54 0 -118 -32 -142 -103c4 1 7 1 12 1c31 0 52 -22 52 -52c0 -36 -30 -52 -52 -52c-9 0 -52 5 -52 55c0 91 78 182 193 182c123 0 218 -80 218 -195
c0 -102 -61 -155 -225 -297l-99 -94h178c20 0 89 0 95 9c13 16 21 75 23 88h28z" />
    <glyph glyph-name="three" unicode="3" 
d="M243 335h-47c-17 0 -25 0 -25 13c0 11 8 12 17 13c8 0 10 0 35 2c29 2 64 4 95 49c25 38 31 86 31 116c0 47 -16 113 -99 113c-49 0 -110 -20 -136 -62c34 0 58 -15 58 -50c0 -29 -21 -50 -50 -50s-51 19 -51 52c0 76 78 135 182 135s189 -60 189 -137
c0 -69 -44 -142 -137 -177c96 -21 165 -95 165 -182c0 -102 -93 -192 -218 -192c-116 0 -209 69 -209 158c0 42 30 57 55 57c29 0 54 -21 54 -54c0 -34 -28 -59 -64 -54c45 -74 142 -79 161 -79c51 0 119 36 119 164c0 95 -38 165 -125 165z" />
    <glyph glyph-name="four" unicode="4" 
d="M382 650v-454h102v-31h-102v-86c0 -37 3 -48 78 -48h22v-31c-63 3 -135 3 -140 3c-7 0 -77 0 -140 -3v31h22c75 0 78 11 78 48v86h-273v31l312 466c9 14 10 15 22 15c19 0 19 -7 19 -27zM308 566l-247 -370h247v370z" />
    <glyph glyph-name="five" unicode="5" 
d="M135 565v-197c35 36 84 52 132 52c109 0 195 -99 195 -220c0 -124 -103 -222 -224 -222c-111 0 -187 92 -187 183c0 40 28 52 49 52c27 0 49 -18 49 -49c0 -36 -29 -49 -49 -49c-7 0 -13 2 -14 2c24 -74 91 -111 150 -111c39 0 81 19 108 61c28 45 28 107 28 138
c0 36 0 190 -107 190c-52 0 -100 -24 -130 -66c-6 -9 -9 -13 -17 -13c-14 0 -14 11 -14 29v294c0 17 0 27 12 27c1 0 3 0 13 -5c46 -19 91 -27 134 -27c42 0 88 8 135 27c9 5 11 5 13 5c5 0 11 -4 11 -13c0 -13 -72 -102 -195 -102c-31 0 -62 5 -92 14z" />
    <glyph glyph-name="six" unicode="6" 
d="M134 331c28 60 71 95 131 95c113 0 205 -96 205 -223c0 -132 -100 -225 -211 -225c-94 0 -216 67 -216 338c0 223 141 350 270 350c91 0 131 -53 131 -109c0 -30 -19 -48 -47 -48s-46 20 -46 46c0 27 16 46 53 46c-23 36 -69 40 -89 40c-74 0 -123 -58 -143 -99
c-27 -52 -38 -109 -38 -211zM258 6c27 0 71 7 102 64c19 37 19 86 19 134s0 97 -19 135c-32 62 -81 62 -97 62c-96 0 -127 -108 -127 -175c0 -16 1 -99 20 -144c12 -29 45 -76 102 -76z" />
    <glyph glyph-name="seven" unicode="7" 
d="M490 610l-140 -191c-53 -72 -75 -188 -75 -335v-49c0 -13 0 -57 -47 -57c-46 0 -46 45 -46 56c0 57 12 220 142 399l96 131h-210c-14 0 -93 0 -100 -6c-13 -12 -21 -68 -25 -91h-28l33 209h28c3 -19 6 -32 132 -32h249c0 -21 0 -23 -9 -34z" />
    <glyph glyph-name="eight" unicode="8" 
d="M319 362c12 -7 41 -25 52 -33c25 -16 99 -64 99 -161c0 -108 -98 -190 -214 -190c-108 0 -213 67 -213 173c0 82 59 143 147 185c-58 37 -64 41 -81 60c-24 29 -38 65 -38 103c0 92 82 167 187 167c90 0 184 -55 184 -149c0 -81 -73 -131 -123 -155zM172 454l122 -76
c40 23 100 69 100 139s-62 124 -139 124c-66 0 -136 -39 -136 -104c0 -37 23 -64 53 -83zM217 319c-70 -36 -120 -96 -120 -168c0 -83 73 -145 160 -145c79 0 159 48 159 127c0 61 -50 93 -73 108z" />
    <glyph glyph-name="nine" unicode="9" 
d="M379 293v22c-18 -43 -58 -96 -131 -96c-113 0 -205 96 -205 223c0 131 102 224 217 224c90 0 210 -66 210 -337c0 -219 -129 -351 -258 -351c-90 0 -143 43 -143 109c0 30 19 48 47 48s46 -20 46 -46c0 -40 -39 -48 -47 -46h-4c26 -33 77 -37 100 -37
c57 0 168 43 168 287zM250 244c94 0 127 104 127 177c0 43 -4 104 -18 141c-4 10 -31 79 -99 79c-36 0 -75 -13 -105 -64c-21 -38 -21 -88 -21 -136s0 -97 19 -135c32 -62 81 -62 97 -62z" />
    <glyph glyph-name="colon" unicode=":" horiz-adv-x="285" 
d="M196 377c0 -29 -24 -54 -54 -54s-54 25 -54 54c0 30 24 54 54 54s54 -24 54 -54zM196 54c0 -30 -24 -54 -54 -54s-54 24 -54 54c0 29 24 54 54 54s54 -25 54 -54z" />
    <glyph glyph-name="semicolon" unicode=";" horiz-adv-x="285" 
d="M196 377c0 -29 -24 -54 -54 -54s-54 25 -54 54c0 30 24 54 54 54s54 -24 54 -54zM174 9c-6 -5 -12 -9 -32 -9c-35 0 -54 27 -54 54c0 30 22 54 53 54c58 0 58 -79 58 -104c0 -120 -75 -197 -84 -197c-7 0 -13 7 -13 12c0 4 0 5 8 14c63 72 64 152 64 176z" />
    <glyph glyph-name="exclamdown" unicode="&#xa1;" horiz-adv-x="285" 
d="M196 446c0 -30 -24 -54 -54 -54s-54 24 -54 54s24 54 54 54s54 -24 54 -54zM88 -164l39 454c1 14 2 21 15 21s14 -7 15 -21l38 -443l1 -11c0 -35 -30 -52 -54 -52s-54 17 -54 52z" />
    <glyph glyph-name="equal" unicode="=" horiz-adv-x="799" 
d="M708 331h-618c-13 0 -33 0 -33 21c0 22 22 22 37 22h610c15 0 37 0 37 -22c0 -21 -19 -21 -33 -21zM704 127h-610c-15 0 -37 0 -37 22c0 21 20 21 33 21h618c14 0 33 0 33 -21c0 -22 -22 -22 -37 -22z" />
    <glyph glyph-name="questiondown" unicode="&#xbf;" horiz-adv-x="485" 
d="M282 446c0 -30 -24 -54 -54 -54s-54 24 -54 54s24 54 54 54s54 -24 54 -54zM242 295v-30c0 -128 -32 -190 -78 -253c-21 -30 -21 -68 -21 -88c0 -48 1 -104 87 -104c54 0 125 18 155 63c-20 0 -51 11 -51 48c0 27 20 46 46 46c23 0 47 -14 47 -49
c0 -78 -85 -133 -199 -133c-132 0 -171 72 -171 136c0 62 35 91 50 103c61 51 107 123 107 221v31c0 18 0 25 14 25s14 -9 14 -16z" />
    <glyph glyph-name="question" unicode="?" horiz-adv-x="485" 
d="M242 244v-30c0 -18 0 -25 -14 -25s-14 9 -14 16v28c0 41 0 154 92 248c17 17 35 36 35 93c0 40 -1 106 -111 106c-30 0 -98 -7 -132 -64c44 0 52 -31 52 -47c0 -27 -20 -46 -46 -46c-23 0 -47 14 -47 49c0 66 64 133 175 133c152 0 195 -75 195 -136
c0 -51 -27 -82 -58 -104c-75 -52 -127 -125 -127 -221zM282 54c0 -30 -24 -54 -54 -54s-54 24 -54 54s24 54 54 54s54 -24 54 -54z" />
    <glyph glyph-name="at" unicode="@" horiz-adv-x="799" 
d="M604 457v-239c0 -33 6 -66 35 -66c61 0 74 81 74 183c0 229 -168 345 -314 345c-171 0 -314 -147 -314 -333c0 -175 130 -333 319 -333c94 0 186 22 272 60c14 7 16 7 31 7h9c16 0 24 0 24 -11c0 -8 -5 -10 -13 -14c-110 -47 -227 -67 -322 -67c-208 0 -348 172 -348 358
c0 200 155 358 342 358c171 0 342 -138 342 -366c0 -103 -14 -212 -107 -212c-28 0 -89 11 -103 68c-18 -23 -63 -68 -133 -68c-108 0 -204 95 -204 220s96 220 204 220c66 0 117 -41 144 -84h34c28 0 28 -1 28 -26zM530 261v172c0 19 0 20 -12 39c-35 52 -83 70 -118 70
c-72 0 -132 -86 -132 -195s60 -195 132 -195c36 0 82 19 116 67c14 21 14 24 14 42z" />
    <glyph glyph-name="A" unicode="A" horiz-adv-x="770" 
d="M409 695l227 -627c10 -28 21 -37 83 -37h17v-31c-83 3 -86 3 -131 3c-46 0 -98 0 -143 -3v31c26 0 82 0 82 30c0 5 -1 8 -5 18l-54 151h-259l-47 -129c-2 -5 -4 -10 -4 -19c0 -19 17 -50 74 -51v-31c-56 2 -78 3 -113 3c-37 0 -64 0 -102 -3v31c77 1 100 36 112 69
l215 594c6 16 8 22 24 22s19 -8 24 -21zM355 588l-118 -327h236z" />
    <glyph glyph-name="B" unicode="B" horiz-adv-x="727" 
d="M41 683h372c132 0 228 -81 228 -169c0 -74 -70 -137 -169 -157c111 -12 198 -85 198 -175c0 -93 -94 -182 -229 -182h-400v31h23c77 0 79 11 79 48v525c0 37 -2 48 -79 48h-23v31zM227 368h157c94 0 161 69 161 146c0 60 -41 138 -139 138h-130c-47 0 -49 -7 -49 -41
v-243zM276 31h132c103 0 163 76 163 153c0 61 -39 159 -155 159h-189v-271c0 -34 2 -41 49 -41z" />
    <glyph glyph-name="C" unicode="C" horiz-adv-x="742" 
d="M684 679v-234c0 -21 0 -26 -16 -26c-13 0 -14 5 -16 18c-24 162 -129 237 -228 237c-83 0 -265 -53 -265 -332c0 -280 181 -333 266 -333c103 0 223 74 231 226c1 9 1 16 14 16c14 0 14 -9 14 -19c0 -117 -103 -254 -269 -254c-192 0 -358 158 -358 364
c0 202 164 363 358 363c101 0 158 -56 190 -87l51 75c6 9 9 12 16 12c12 0 12 -9 12 -26z" />
    <glyph glyph-name="D" unicode="D" horiz-adv-x="785" 
d="M40 683h372c176 0 315 -157 315 -347c0 -188 -142 -336 -315 -336h-372v31h23c77 0 79 11 79 48v525c0 37 -2 48 -79 48h-23v31zM278 31h108c63 0 135 21 187 89c55 70 55 175 55 216c0 99 -15 171 -59 229c-27 36 -87 87 -184 87h-107c-47 0 -49 -7 -49 -41v-539
c0 -34 2 -41 49 -41z" />
    <glyph glyph-name="E" unicode="E" horiz-adv-x="699" 
d="M669 258l-43 -258h-588v31h23c77 0 79 11 79 48v522c0 37 -2 48 -79 48h-23v31h575l28 -225h-28c-16 140 -44 194 -200 194h-134c-47 0 -49 -7 -49 -41v-239h93c98 0 110 31 110 117h28v-265h-28c0 86 -12 117 -110 117h-93v-266c0 -34 2 -41 49 -41h140
c171 0 197 72 222 227h28z" />
    <glyph glyph-name="F" unicode="F" horiz-adv-x="670" 
d="M599 680l28 -225h-28c-16 138 -41 194 -194 194h-126c-47 0 -49 -7 -49 -41v-252h90c97 0 108 32 108 117h28v-265h-28c0 85 -11 117 -108 117h-90v-245c0 -37 4 -49 95 -49h32v-31c-35 3 -126 3 -166 3c-46 0 -108 0 -153 -3v31h23c77 0 79 11 79 48v522
c0 37 -2 48 -79 48h-23v31h561z" />
    <glyph glyph-name="G" unicode="G" horiz-adv-x="806" 
d="M684 198v-172c0 -16 0 -25 -11 -25c-10 0 -46 35 -63 62c-28 -49 -100 -85 -194 -85c-196 0 -359 160 -359 364c0 202 164 363 358 363c101 0 158 -56 190 -87l51 75c6 9 9 12 16 12c12 0 12 -9 12 -26v-234c0 -21 0 -26 -16 -26c-13 0 -14 5 -16 18
c-24 162 -129 237 -228 237c-83 0 -265 -53 -265 -332c0 -284 188 -333 270 -333c13 0 165 0 165 122v63c0 37 -3 49 -96 49h-32v31c35 -3 121 -3 160 -3c53 0 64 0 129 3v-31c-67 0 -71 -5 -71 -45z" />
    <glyph glyph-name="H" unicode="H" horiz-adv-x="770" 
d="M630 604v-525c0 -37 2 -48 79 -48h23v-31c-45 3 -101 3 -147 3s-102 0 -147 -3v31h23c77 0 79 11 79 48v261h-310v-261c0 -37 2 -48 79 -48h23v-31c-45 3 -101 3 -147 3s-102 0 -147 -3v31h23c77 0 79 11 79 48v525c0 37 -2 48 -79 48h-23v31c45 -3 101 -3 147 -3
s102 0 147 3v-31h-23c-77 0 -79 -11 -79 -48v-233h310v233c0 37 -2 48 -79 48h-23v31c45 -3 101 -3 147 -3s102 0 147 3v-31h-23c-77 0 -79 -11 -79 -48z" />
    <glyph glyph-name="I" unicode="I" horiz-adv-x="370" 
d="M230 604v-525c0 -36 2 -48 82 -48h25v-31c-41 3 -109 3 -152 3s-111 0 -152 -3v31h25c80 0 82 12 82 48v525c0 36 -2 48 -82 48h-25v31c41 -3 109 -3 152 -3s111 0 152 3v-31h-25c-80 0 -82 -12 -82 -48z" />
    <glyph glyph-name="J" unicode="J" horiz-adv-x="528" 
d="M312 148v455c0 37 -3 49 -98 49h-34v31c35 -3 123 -3 163 -3c54 0 66 0 132 3v-31c-61 0 -76 0 -76 -41v-407c0 -26 0 -70 -1 -78c-14 -96 -103 -148 -188 -148c-92 0 -162 61 -162 134c0 35 24 56 55 56c32 0 54 -24 54 -54c0 -31 -23 -58 -62 -54
c25 -38 73 -57 113 -57c52 0 104 53 104 145z" />
    <glyph glyph-name="K" unicode="K" horiz-adv-x="799" 
d="M412 418l234 -332c32 -46 46 -55 109 -55v-31c-51 3 -91 3 -117 3c-45 0 -95 0 -139 -3v31c18 0 57 0 57 29c0 11 -9 26 -17 37l-187 266l-122 -113v-171c0 -37 2 -48 79 -48h23v-31c-45 3 -101 3 -147 3s-102 0 -147 -3v31h23c77 0 79 11 79 48v525c0 37 -2 48 -79 48
h-23v31c45 -3 101 -3 147 -3s102 0 147 3v-31h-23c-77 0 -79 -11 -79 -48v-316l333 308c5 7 8 15 8 23c0 19 -15 32 -43 33v31c45 -2 82 -3 124 -3c10 0 60 0 89 3v-31c-17 -1 -79 -2 -142 -61z" />
    <glyph glyph-name="L" unicode="L" horiz-adv-x="642" 
d="M598 258l-28 -258h-532v31h23c77 0 79 11 79 48v525c0 37 -2 48 -79 48h-23v31c45 -3 107 -3 153 -3c40 0 131 0 166 3v-31h-32c-91 0 -95 -12 -95 -49v-531c0 -34 2 -41 49 -41h87c179 0 193 126 204 227h28z" />
    <glyph glyph-name="M" unicode="M" horiz-adv-x="941" 
d="M247 661l224 -563l224 567c7 18 14 18 35 18h168v-31h-23c-77 0 -79 -11 -79 -48v-525c0 -37 2 -48 79 -48h23v-31c-63 3 -137 3 -143 3c-15 0 -82 0 -142 -3v31h23c77 0 79 11 79 48v570l-1 1l-250 -632c-4 -9 -9 -18 -20 -18c-12 0 -16 9 -21 22l-246 620l-1 -1v-535
c0 -27 0 -75 102 -75v-31c-54 2 -69 3 -117 3c-49 0 -63 -1 -118 -3v31c102 0 102 48 102 75v498c0 37 -2 48 -79 48h-23v31h168c27 0 28 -2 36 -22z" />
    <glyph glyph-name="N" unicode="N" horiz-adv-x="770" 
d="M236 671l363 -521v427c0 27 0 75 -102 75v31c56 -2 69 -3 118 -3c48 0 63 1 117 3v-31c-102 0 -102 -48 -102 -75v-550c0 -19 0 -27 -16 -27c-5 0 -10 0 -18 12l-425 610v-516c0 -27 0 -75 102 -75v-31c-54 2 -69 3 -117 3c-49 0 -63 -1 -118 -3v31c102 0 102 48 102 75
v539c-1 0 -26 7 -74 7h-28v31h168c19 0 22 0 30 -12z" />
    <glyph glyph-name="O" unicode="O" horiz-adv-x="799" 
d="M741 339c0 -203 -156 -361 -342 -361s-342 158 -342 361s155 366 342 366s342 -162 342 -366zM399 8c101 0 240 88 240 346c0 244 -143 323 -240 323s-240 -79 -240 -323c0 -258 139 -346 240 -346z" />
    <glyph glyph-name="P" unicode="P" horiz-adv-x="699" 
d="M232 314v-235c0 -37 2 -48 79 -48h23v-31c-45 3 -101 3 -147 3s-102 0 -147 -3v31h23c77 0 79 11 79 48v525c0 37 -2 48 -79 48h-23v31h359c139 0 242 -87 242 -186c0 -96 -102 -183 -242 -183h-167zM229 342h144c166 0 166 110 166 155s0 155 -165 155h-96
c-47 0 -49 -7 -49 -41v-269z" />
    <glyph glyph-name="Q" unicode="Q" horiz-adv-x="799" 
d="M532 7c23 -56 44 -99 98 -99c16 0 84 6 92 93c1 5 5 11 12 11c13 0 13 -12 13 -21c0 -51 -21 -185 -125 -185c-93 0 -108 87 -126 186c-24 -7 -62 -14 -97 -14c-186 0 -342 158 -342 361s155 366 342 366s342 -162 342 -366c0 -165 -102 -288 -209 -332zM327 20
c-1 1 -12 20 -12 44c0 46 36 85 85 85c65 0 96 -56 116 -106c86 58 126 164 126 296c0 249 -139 338 -243 338s-243 -90 -243 -338c0 -179 74 -282 171 -319zM488 27c-13 55 -34 97 -87 97c-39 0 -61 -30 -61 -60c0 -16 10 -58 59 -58c26 0 60 6 89 21z" />
    <glyph glyph-name="R" unicode="R" horiz-adv-x="756" 
d="M454 339c111 -35 120 -102 128 -164c6 -45 15 -113 24 -135c8 -17 19 -37 51 -37c31 0 62 24 67 87c1 8 1 17 14 17c14 0 14 -12 14 -18c0 -24 -15 -111 -99 -111c-11 0 -71 0 -118 37c-48 38 -48 82 -48 149c0 71 0 86 -30 123c-4 4 -36 42 -108 42h-120v-250
c0 -37 2 -48 79 -48h23v-31c-48 3 -98 3 -146 3s-98 0 -145 -3v31h23c77 0 79 11 79 48v525c0 37 -2 48 -79 48h-23v31h319c147 0 268 -81 268 -180c0 -78 -78 -137 -173 -164zM345 354c136 0 180 63 180 149c0 149 -127 149 -213 149c-21 0 -53 0 -62 -2
c-19 -4 -21 -13 -21 -39v-257h116z" />
    <glyph glyph-name="S" unicode="S" horiz-adv-x="570" 
d="M484 677v-193c0 -21 0 -28 -14 -28c-12 0 -13 5 -16 24c-14 101 -66 197 -195 197c-84 0 -138 -64 -138 -131c0 -44 26 -108 106 -128l88 -21c65 -15 110 -26 153 -81c24 -30 45 -74 45 -131c0 -107 -81 -207 -203 -207c-49 0 -128 10 -190 70c-33 -52 -23 -39 -36 -57
c-7 -12 -8 -13 -15 -13c-12 0 -12 8 -12 28v193c0 20 0 28 14 28c13 0 13 -6 14 -21c8 -165 147 -197 224 -197c91 0 140 75 140 143c0 59 -34 96 -35 97c-33 34 -42 36 -123 55c-119 28 -137 33 -182 77c-5 5 -52 53 -52 131c0 102 84 193 201 193c94 0 146 -50 163 -70
c33 52 23 39 36 57c7 12 8 13 15 13c12 0 12 -8 12 -28z" />
    <glyph glyph-name="T" unicode="T" horiz-adv-x="742" 
d="M684 677l20 -225h-28c-14 165 -34 194 -184 194c-18 0 -45 0 -55 -2c-20 -4 -21 -13 -21 -39v-525c0 -34 0 -49 105 -49h39v-31c-36 3 -146 3 -189 3s-153 0 -189 -3v31h39c105 0 105 15 105 49v525c0 25 -1 35 -19 39c-10 2 -39 2 -58 2c-150 0 -170 -29 -184 -194h-28
l20 225h627z" />
    <glyph glyph-name="U" unicode="U" horiz-adv-x="770" 
d="M599 230v347c0 27 0 75 -102 75v31c56 -2 69 -3 118 -3c48 0 63 1 117 3v-31c-102 0 -102 -47 -102 -77v-360c0 -100 -84 -237 -231 -237c-138 0 -259 106 -259 252v374c0 37 -2 48 -79 48h-23v31c45 -3 101 -3 147 -3s102 0 147 3v-31h-23c-77 0 -79 -11 -79 -48v-380
c0 -180 113 -215 171 -215c100 0 198 85 198 221z" />
    <glyph glyph-name="V" unicode="V" horiz-adv-x="770" 
d="M641 585l-232 -587c-5 -14 -8 -20 -24 -20s-19 7 -25 22l-242 613c-14 35 -25 39 -98 39v31c71 -2 86 -3 128 -3c46 0 97 0 142 3v-31c-29 0 -80 0 -80 -30c0 -1 0 -7 5 -19l200 -506l191 485c4 10 5 12 5 20c0 26 -22 49 -71 50v31c49 -2 69 -3 112 -3c34 0 63 0 98 3
v-31c-47 0 -88 -14 -109 -67z" />
    <glyph glyph-name="W" unicode="W" horiz-adv-x="1056" 
d="M935 581l-194 -583c-5 -14 -10 -20 -22 -20c-14 0 -16 7 -22 24l-170 506l-169 -509c-6 -19 -14 -21 -22 -21c-12 0 -17 6 -22 20l-205 616c-13 38 -33 38 -90 38v31c62 -3 69 -3 124 -3c45 0 95 0 140 3v-31c-27 0 -84 0 -84 -31c0 -3 0 -5 5 -18l163 -488l141 424
c1 2 4 12 4 13s-20 68 -29 81c-11 17 -30 19 -81 19v31c62 -3 69 -3 124 -3c45 0 95 0 140 3v-31c-27 0 -84 0 -84 -31c0 -4 3 -11 4 -15l164 -491l156 467c2 7 4 11 4 16c0 23 -23 53 -86 54v31c58 -2 86 -3 118 -3c31 0 63 0 94 3v-31c-59 -1 -86 -26 -101 -71z" />
    <glyph glyph-name="X" unicode="X" horiz-adv-x="770" 
d="M413 385l220 -319c21 -31 46 -35 94 -35h17v-31c-84 3 -86 3 -130 3c-46 0 -99 0 -144 -3v31c40 1 62 18 62 30c0 3 0 5 -8 15l-162 236l-149 -211c-5 -7 -10 -14 -10 -25c0 -15 14 -43 60 -45v-31c-65 2 -87 3 -125 3c-22 0 -61 0 -112 -3v31c23 0 101 1 147 66l170 242
l-189 272c-20 29 -28 41 -97 41h-17v31c84 -3 86 -3 130 -3c43 0 104 0 145 3v-31c-45 -1 -63 -20 -63 -30c0 -6 5 -13 8 -17l134 -193l119 168c8 11 11 18 11 27c0 19 -18 44 -60 45v31c68 -2 87 -3 126 -3c23 0 60 0 111 3v-31c-21 0 -101 -1 -146 -65z" />
    <glyph glyph-name="Y" unicode="Y" horiz-adv-x="770" 
d="M627 583l-198 -310v-195c0 -36 3 -47 79 -47h23v-31c-48 3 -98 3 -146 3s-98 0 -145 -3v31h23c77 0 79 11 79 48v194l-220 343c-18 28 -32 36 -92 36h-17v31c83 -3 86 -3 132 -3c43 0 104 0 145 3v-31c-31 0 -68 -1 -68 -25c0 -5 3 -10 9 -20l188 -292l171 269
c8 12 11 17 11 29c0 23 -19 39 -55 39v31c56 -2 78 -3 113 -3c34 0 63 0 98 3v-31c-79 -1 -110 -37 -130 -69z" />
    <glyph glyph-name="Z" unicode="Z" horiz-adv-x="628" 
d="M562 646l-400 -612h171c188 0 207 95 215 233h28l-17 -267h-475c-20 0 -27 0 -27 18c0 7 0 9 8 21l401 613h-162c-154 0 -198 -67 -205 -194h-28l11 225h461c19 0 27 0 27 -17c0 -6 0 -8 -8 -20z" />
    <glyph glyph-name="bracketleft" unicode="[" horiz-adv-x="285" 
d="M262 -250h-142v1000h142v-43h-99v-914h99v-43z" />
    <glyph glyph-name="quotedblleft" unicode="&#x201c;" 
d="M279 446c0 -27 -19 -54 -54 -54c-42 0 -68 42 -68 106c0 120 85 195 95 195c7 0 13 -7 13 -12s-3 -8 -5 -10c-48 -45 -78 -106 -78 -172c0 -9 0 -15 2 -15c1 0 2 1 4 3c11 9 24 13 37 13c35 0 54 -27 54 -54zM479 446c0 -27 -19 -54 -54 -54c-42 0 -68 42 -68 106
c0 120 85 195 95 195c7 0 13 -7 13 -12s-3 -8 -5 -10c-48 -45 -78 -106 -78 -172c0 -9 0 -15 2 -15c1 0 2 1 4 3c11 9 24 13 37 13c35 0 54 -27 54 -54z" />
    <glyph glyph-name="bracketright" unicode="]" horiz-adv-x="285" 
d="M164 750v-1000h-142v43h99v914h-99v43h142z" />
    <glyph glyph-name="circumflex" unicode="&#x2c6;" 
d="M257 694l137 -135l-18 -21l-119 101l-120 -101l-18 21z" />
    <glyph glyph-name="dotaccent" unicode="&#x2d9;" horiz-adv-x="285" 
d="M196 616c0 -30 -24 -54 -54 -54s-54 24 -54 54s24 54 54 54s54 -24 54 -54z" />
    <glyph glyph-name="quoteleft" unicode="&#x2018;" horiz-adv-x="285" 
d="M196 446c0 -27 -19 -54 -54 -54c-42 0 -68 42 -68 106c0 120 85 195 95 195c7 0 13 -7 13 -12s-3 -8 -5 -10c-48 -45 -78 -106 -78 -172c0 -9 0 -15 2 -15c1 0 2 1 4 3c11 9 24 13 37 13c35 0 54 -27 54 -54z" />
    <glyph glyph-name="a" unicode="a" 
d="M407 268v-175c0 -16 0 -64 36 -64s36 50 36 61v55h28v-56c0 -80 -63 -95 -88 -95c-43 0 -72 36 -77 78c-14 -28 -52 -83 -135 -83c-67 0 -164 27 -164 109c0 40 22 92 94 127c67 32 142 37 196 39v33c0 88 -57 126 -108 126c-29 0 -77 -9 -104 -35c1 0 45 -5 45 -48
c0 -26 -19 -46 -46 -46c-26 0 -47 17 -47 48c0 64 70 106 154 106c50 0 98 -15 135 -48c45 -41 45 -75 45 -132zM333 141v99c-153 -6 -210 -76 -210 -142c0 -50 44 -84 91 -84c44 0 119 30 119 127z" />
    <glyph glyph-name="b" unicode="b" horiz-adv-x="570" 
d="M178 694v-314c24 27 71 62 139 62c120 0 219 -101 219 -226c0 -131 -110 -227 -229 -227c-54 0 -104 28 -135 72l-37 -61h-28v596c0 49 -9 56 -77 56v31zM181 319v-203c0 -19 0 -20 14 -41c24 -37 62 -61 107 -61c53 0 94 31 116 63c26 40 32 93 32 140
c0 32 -2 91 -28 134c-26 42 -66 66 -109 66c-38 0 -87 -16 -121 -62c-11 -16 -11 -17 -11 -36z" />
    <glyph glyph-name="c" unicode="c" horiz-adv-x="456" 
d="M364 393c-37 25 -91 27 -104 27c-60 0 -140 -47 -140 -203c0 -148 82 -200 146 -200c51 0 107 26 130 95c6 17 6 19 17 19c3 0 14 0 14 -12c0 -9 -32 -130 -171 -130c-118 0 -222 98 -222 227c0 125 96 232 224 232c88 0 158 -38 158 -100c0 -31 -21 -48 -47 -48
s-46 20 -46 46c0 29 20 43 41 47z" />
    <glyph glyph-name="d" unicode="d" horiz-adv-x="570" 
d="M315 683l148 11v-607c0 -49 9 -56 77 -56v-31l-151 -11v64c-18 -21 -63 -64 -136 -64c-119 0 -219 101 -219 226c0 129 107 227 230 227c78 0 123 -53 128 -59v213c0 49 -9 56 -77 56v31zM389 120v202c0 19 0 20 -12 36c-27 38 -67 59 -109 59c-53 0 -94 -31 -116 -63
c-26 -40 -32 -93 -32 -140c0 -32 2 -91 28 -134c26 -42 66 -66 109 -66c40 0 86 19 117 64c15 21 15 24 15 42z" />
    <glyph glyph-name="e" unicode="e" horiz-adv-x="457" 
d="M400 229h-285c0 -42 1 -102 34 -151c23 -34 64 -61 112 -61c15 0 104 2 138 104c1 4 4 11 14 11c9 0 14 -6 14 -13c0 -23 -49 -130 -171 -130s-227 100 -227 231c0 124 94 228 214 228c128 0 184 -95 184 -198c0 -21 -5 -21 -27 -21zM116 253h243
c-1 128 -61 170 -116 170c-28 0 -118 -16 -127 -170z" />
    <glyph glyph-name="f" unicode="f" horiz-adv-x="314" 
d="M184 400v-321c0 -37 3 -48 76 -48h20v-31c-63 2 -87 3 -127 3c-51 0 -64 -1 -117 -3v31c66 0 77 0 77 46v323h-79v31h79v115c0 100 82 159 160 159c55 0 93 -33 93 -71c0 -26 -18 -45 -45 -45c-25 0 -44 18 -44 44c0 25 16 37 26 41c-10 4 -20 6 -30 6
c-43 0 -92 -45 -92 -136v-113h119v-31h-116z" />
    <glyph glyph-name="g" unicode="g" 
d="M125 179c-9 -13 -14 -28 -14 -44c0 -32 19 -59 48 -65c8 -2 40 -2 60 -2c95 0 153 0 209 -35c37 -24 56 -68 56 -109c0 -77 -105 -130 -228 -130c-128 0 -227 57 -227 128c0 47 40 84 91 100c-27 18 -43 54 -43 88c0 46 28 81 30 83c-16 15 -46 51 -46 102
c0 79 72 147 167 147c42 0 81 -14 108 -36c35 36 80 47 109 47c40 0 54 -31 54 -50c0 -21 -16 -31 -30 -31c-23 0 -30 19 -30 30c0 18 8 23 13 26c-12 0 -59 0 -99 -36c13 -14 41 -48 41 -97c0 -79 -72 -147 -167 -147c-46 0 -77 15 -102 31zM227 175c90 0 90 97 90 120
s0 120 -90 120c-28 0 -55 -15 -70 -35c-17 -24 -19 -58 -19 -85c0 -22 0 -120 89 -120zM273 5h-92c-86 0 -96 -66 -96 -82c0 -55 74 -102 172 -102c94 0 171 45 171 102c0 81 -123 82 -155 82z" />
    <glyph glyph-name="h" unicode="h" horiz-adv-x="570" 
d="M470 254v-192c1 -31 26 -31 77 -31v-31c-53 2 -66 3 -114 3s-67 -1 -114 -3v31c66 0 77 0 77 46v231c0 60 -13 109 -72 109c-63 0 -138 -52 -138 -158v-182c0 -46 11 -46 77 -46v-31c-53 2 -66 3 -114 3s-67 -1 -114 -3v31c66 0 77 0 77 46v519c0 49 -9 56 -77 56v31
l148 11v-343h1c31 56 80 91 147 91c50 0 88 -13 111 -41c28 -35 28 -64 28 -147z" />
    <glyph glyph-name="i" unicode="i" horiz-adv-x="285" 
d="M187 616c0 -30 -24 -54 -54 -54c-31 0 -54 25 -54 54s23 54 54 54c30 0 54 -24 54 -54zM40 431l144 11v-367c0 -39 4 -44 69 -44v-31c-49 3 -91 3 -107 3c-44 0 -65 -1 -110 -3v31c66 0 77 0 77 46v268c0 49 -9 55 -73 55v31z" />
    <glyph glyph-name="j" unicode="j" horiz-adv-x="314" 
d="M218 616c0 -30 -24 -54 -54 -54s-54 24 -54 54s24 54 54 54s54 -24 54 -54zM62 431l156 11v-490c0 -92 -63 -157 -142 -157c-57 0 -115 28 -115 80c0 27 18 47 47 47c27 0 46 -20 46 -46c0 -6 0 -34 -32 -44c24 -12 50 -12 53 -12c68 0 72 100 72 129v395
c0 49 -9 56 -85 56v31z" />
    <glyph glyph-name="k" unicode="k" horiz-adv-x="542" 
d="M289 273l142 -193c36 -48 60 -49 93 -49v-31c-29 3 -61 3 -90 3c-39 0 -63 -1 -108 -3v31c31 0 34 12 34 22c0 14 -8 26 -24 48l-97 131l-64 -54v-101c0 -46 11 -46 77 -46v-31c-45 2 -70 3 -111 3c-42 0 -67 -1 -111 -3v31c66 0 77 0 77 46v519c0 49 -9 56 -77 56v31
l148 11v-477l141 119c9 8 25 21 25 40c0 16 -12 23 -27 24v31c54 -2 80 -3 110 -3c37 0 39 0 74 3v-31c-68 -3 -114 -42 -212 -127z" />
    <glyph glyph-name="l" unicode="l" horiz-adv-x="285" 
d="M184 694v-617c0 -46 11 -46 77 -46v-31c-49 2 -66 3 -113 3c-46 0 -65 -1 -112 -3v31c66 0 77 0 77 46v519c0 49 -9 56 -77 56v31z" />
    <glyph glyph-name="m" unicode="m" horiz-adv-x="856" 
d="M756 254v-192c1 -31 26 -31 77 -31v-31c-53 2 -66 3 -114 3s-67 -1 -114 -3v31c66 0 77 0 77 46v231c0 70 -18 109 -73 109c-60 0 -138 -50 -138 -158v-182c0 -46 11 -46 77 -46v-31c-53 2 -66 3 -114 3s-67 -1 -114 -3v31c66 0 77 0 77 46v231c0 70 -18 109 -73 109
c-60 0 -138 -50 -138 -158v-182c0 -46 11 -46 77 -46v-31c-53 2 -66 3 -114 3s-67 -1 -114 -3v31c66 0 77 0 77 46v267c0 49 -9 56 -77 56v31l145 11v-98h1c21 46 70 98 150 98c84 0 124 -36 136 -95c28 53 77 95 149 95c46 0 86 -12 107 -36c33 -37 33 -65 33 -152z" />
    <glyph glyph-name="n" unicode="n" horiz-adv-x="570" 
d="M470 254v-192c1 -31 26 -31 77 -31v-31c-53 2 -66 3 -114 3s-67 -1 -114 -3v31c66 0 77 0 77 46v231c0 60 -13 109 -72 109c-63 0 -138 -52 -138 -158v-182c0 -46 11 -46 77 -46v-31c-53 2 -66 3 -114 3s-67 -1 -114 -3v31c66 0 77 0 77 46v267c0 49 -9 56 -77 56v31
l145 11v-97h1c14 28 57 97 150 97c50 0 88 -13 111 -41c28 -35 28 -64 28 -147z" />
    <glyph glyph-name="o" unicode="o" 
d="M484 213c0 -123 -101 -224 -228 -224c-123 0 -227 99 -227 224c0 128 101 235 228 235c123 0 227 -104 227 -235zM257 17c42 0 88 20 116 66c25 44 25 102 25 139c0 42 -1 93 -24 135c-20 34 -61 66 -118 66c-36 0 -86 -15 -116 -66c-25 -41 -25 -98 -25 -135
c0 -46 1 -99 27 -141c23 -39 65 -64 115 -64z" />
    <glyph glyph-name="p" unicode="p" horiz-adv-x="570" 
d="M258 -163v-31c-53 2 -66 3 -114 3s-67 -1 -114 -3v31c66 0 77 0 77 46v468c0 43 -6 49 -77 49v31l148 11v-63c38 41 88 63 142 63c118 0 216 -100 216 -226c0 -131 -110 -227 -229 -227c-66 0 -100 33 -126 59v-165c0 -46 11 -46 77 -46zM181 336v-220
c0 -19 0 -21 13 -41c24 -35 62 -61 107 -61c81 0 149 88 149 202c0 108 -60 198 -138 198c-42 0 -97 -20 -131 -78z" />
    <glyph glyph-name="q" unicode="q" horiz-adv-x="542" 
d="M463 442v-559c0 -46 11 -46 77 -46v-31c-53 2 -66 3 -114 3s-67 -1 -114 -3v31c66 0 77 0 77 46v176c-43 -55 -94 -70 -136 -70c-117 0 -219 99 -219 226c0 131 109 227 227 227c35 0 92 -9 139 -88l38 88h25zM392 138v138c0 55 -46 138 -124 138
c-77 0 -148 -83 -148 -199c0 -113 63 -201 137 -201c53 0 95 32 120 75c15 27 15 31 15 49z" />
    <glyph glyph-name="r" unicode="r" horiz-adv-x="402" 
d="M178 229v-150c0 -37 3 -48 76 -48h20v-31c-63 2 -87 3 -127 3c-51 0 -64 -1 -117 -3v31c66 0 77 0 77 46v267c0 49 -9 56 -77 56v31l142 11v-104h1c23 62 65 104 125 104c45 0 75 -30 75 -62c0 -30 -23 -45 -44 -45c-23 0 -44 17 -44 44c0 24 16 36 18 37v1
c-114 0 -125 -147 -125 -188z" />
    <glyph glyph-name="s" unicode="s" horiz-adv-x="405" 
d="M344 422v-96c0 -19 0 -26 -14 -26c-13 0 -13 6 -14 18c-2 25 -9 108 -117 108c-91 0 -114 -42 -114 -74c0 -57 73 -70 99 -75c74 -14 110 -21 144 -54c22 -23 42 -50 42 -95c0 -67 -43 -139 -166 -139c-25 0 -71 3 -113 44c-5 -5 -16 -18 -20 -24
c-18 -19 -19 -20 -25 -20c-12 0 -12 9 -12 26v128c0 18 0 26 14 26c12 0 13 -6 16 -16c12 -54 38 -139 140 -139c14 0 115 0 115 88c0 38 -25 57 -35 65c-22 17 -39 20 -90 30c-51 9 -89 16 -123 47c-23 22 -37 48 -37 80c0 51 33 124 165 124c34 0 65 -6 96 -28
c6 5 15 14 17 16c13 12 15 12 20 12c12 0 12 -9 12 -26z" />
    <glyph glyph-name="t" unicode="t" horiz-adv-x="399" 
d="M180 400v-277c0 -18 0 -106 67 -106c36 0 67 36 67 110v54h28v-57c0 -71 -35 -135 -102 -135c-53 0 -134 23 -134 135v276h-87v25c97 3 132 106 133 190h28v-184h145v-31h-145z" />
    <glyph glyph-name="u" unicode="u" horiz-adv-x="570" 
d="M319 431l151 11v-355c0 -49 9 -56 77 -56v-31l-148 -11v83h-1c-29 -60 -78 -83 -130 -83c-40 0 -81 7 -110 27c-46 35 -46 77 -46 142v150c0 89 0 92 -77 92v31l151 11v-331c0 -54 5 -97 88 -97c72 0 122 64 122 153v177c0 49 -9 56 -77 56v31z" />
    <glyph glyph-name="v" unicode="v" horiz-adv-x="542" 
d="M430 336l-136 -328c-7 -17 -15 -19 -24 -19s-17 3 -23 19l-146 355c-15 37 -34 37 -81 37v31c36 -3 65 -3 100 -3c44 0 67 1 110 3v-31c-19 0 -55 0 -55 -26c0 -7 2 -13 5 -19l114 -273l104 252c4 11 5 13 5 23c0 26 -17 41 -46 43v31c28 -2 59 -3 87 -3c2 0 47 0 77 3
v-31c-35 -1 -70 -13 -91 -64z" />
    <glyph glyph-name="w" unicode="w" horiz-adv-x="742" 
d="M637 334l-119 -325c-4 -10 -7 -20 -22 -20s-19 11 -23 21l-103 280l-102 -280c-4 -10 -8 -21 -23 -21s-18 10 -23 22l-129 353c-12 34 -25 36 -73 36v31c34 -3 63 -3 96 -3c40 0 63 1 109 3v-31c-19 0 -58 0 -58 -27c0 -4 0 -6 6 -21l95 -260l82 225c0 1 5 12 5 14
c0 3 -13 43 -22 54c-11 14 -31 15 -63 15v31c32 -3 61 -3 92 -3c16 0 57 0 103 3v-31c-26 0 -57 -2 -57 -28c0 -3 0 -6 5 -19l101 -274l92 250c3 7 5 13 5 23c0 20 -14 47 -57 48v31c40 -3 54 -3 92 -3c33 0 35 0 75 3v-31c-21 -1 -62 -5 -84 -66z" />
    <glyph glyph-name="x" unicode="x" horiz-adv-x="542" 
d="M305 225l131 -166c22 -28 52 -28 92 -28v-31c-39 3 -96 3 -98 3c-43 0 -67 -1 -109 -3v31c24 1 34 14 34 25c0 6 0 8 -19 30l-79 101c-25 -30 -51 -60 -75 -91c-15 -18 -15 -32 -15 -35c0 -10 3 -27 28 -30v-31c-32 2 -64 3 -96 3c-29 0 -56 0 -85 -3v31
c21 0 78 2 128 62c22 25 75 91 97 117l-103 129c-46 59 -48 61 -117 61v31c39 -3 96 -3 98 -3c45 0 71 1 109 3v-31c-23 -1 -34 -13 -34 -25c0 -7 2 -9 9 -18l78 -99l64 79c5 6 14 17 14 33c0 20 -13 28 -28 30v31c40 -3 58 -3 96 -3c29 0 56 0 85 3v-31
c-61 -1 -95 -25 -126 -59c-8 -8 -86 -103 -86 -105c0 -1 0 -2 7 -11z" />
    <glyph glyph-name="y" unicode="y" horiz-adv-x="542" 
d="M427 331l-181 -423c-24 -55 -67 -113 -132 -113c-52 0 -94 37 -94 82c0 27 18 43 43 43c23 0 42 -16 42 -42c0 -34 -28 -42 -36 -43c3 -2 20 -15 45 -15c65 0 94 68 116 121l25 59l-158 371c-12 27 -31 29 -76 29v31c39 -3 96 -3 99 -3c42 0 62 1 111 3v-31
c-21 0 -55 0 -55 -26c0 -2 0 -7 6 -21l112 -262l101 238c4 8 8 18 8 29c0 4 0 40 -46 42v31c28 -2 59 -3 87 -3c13 0 44 0 76 3v-31c-64 -2 -82 -43 -93 -69z" />
    <glyph glyph-name="z" unicode="z" horiz-adv-x="456" 
d="M401 399l-281 -371h117c125 0 138 51 148 162h28l-17 -190h-340c-18 0 -27 0 -27 16c0 5 0 7 9 18l282 372h-112c-113 0 -131 -37 -137 -139h-28l11 164h329c17 0 27 0 27 -15c0 -4 0 -6 -9 -17z" />
    <glyph glyph-name="endash" unicode="&#x2013;" 
d="M513 254h-513v25h513v-25z" />
    <glyph glyph-name="emdash" unicode="&#x2014;" horiz-adv-x="1027" 
d="M1027 254h-1027v25h1027v-25z" />
    <glyph glyph-name="hungarumlaut" unicode="&#x2dd;" 
d="M248 634l-93 -122l-24 13c25 69 56 150 58 156c5 9 15 19 31 19s40 -14 40 -38c0 -5 -1 -14 -12 -28zM419 634l-93 -122l-24 13c25 69 56 150 58 156c5 9 15 19 31 19s40 -14 40 -38c0 -5 -1 -14 -12 -28z" />
    <glyph glyph-name="tilde" unicode="&#x2dc;" 
d="M409 669l18 -17c-54 -59 -73 -79 -110 -79c-24 0 -47 13 -60 20c-31 17 -50 26 -72 26c-31 0 -54 -19 -81 -46l-18 17c54 59 73 79 110 79c24 0 47 -13 60 -20c31 -17 50 -26 72 -26c31 0 54 19 81 46z" />
    <glyph glyph-name="dieresis" unicode="&#xa8;" 
d="M208 619c0 -28 -23 -51 -51 -51s-51 23 -51 51s23 51 51 51s51 -23 51 -51zM407 619c0 -28 -23 -51 -51 -51s-51 23 -51 51s23 51 51 51s51 -23 51 -51z" />
    <glyph glyph-name="space" unicode=" " horiz-adv-x="342" 
 />
  </font>
</defs>
</svg>
