<?xml version="1.0" standalone="no"?>
<!DOCTYPE svg PUBLIC "-//W3C//DTD SVG 1.1//EN" "http://www.w3.org/Graphics/SVG/1.1/DTD/svg11.dtd" >
<svg>
<metadata>
Created by FontForge 20060822 at Fri Oct  6 18:24:58 2006
 By Wojciech Mula,,,
Copyright (C) 1997 American Mathematical Society. All Rights Reserved
</metadata>
<defs>
<font id="CMSSI17" horiz-adv-x="470" >
  <font-face 
    font-family="Computer Modern"
    font-weight="500"
    font-style="italic"
    font-stretch="normal"
    units-per-em="1000"
    panose-1="2 0 6 3 0 0 0 0 0 0"
    ascent="800"
    descent="-200"
    x-height="430"
    cap-height="694"
    bbox="-94 -250 1019 758"
    underline-thickness="0"
    underline-position="0"
    slope="-12"
    stemh="61"
    stemv="77"
    unicode-range="U+0020-U+FB04"
  />
    <missing-glyph />
    <glyph glyph-name="ff" unicode="ff" horiz-adv-x="548" 
d="M247 372l-79 -372h-74l79 372h-69l12 58h69l23 104c18 85 96 168 194 168c6 0 36 0 72 -8l-14 -66c-24 9 -48 13 -72 13c-38 0 -89 -20 -102 -78l-29 -133h105l-12 -58h-103zM507 372l-79 -372h-74l113 531c19 88 97 171 195 171c6 0 36 0 72 -8l-14 -66
c-24 9 -48 13 -72 13c-38 0 -89 -20 -102 -78l-29 -133h105l-12 -58h-103z" />
    <glyph glyph-name="fi" unicode="fi" horiz-adv-x="503" 
d="M577 695l-17 -80h-80l17 80h80zM353 0l91 430h74l-91 -430h-74zM287 567l-30 -137h111l-12 -58h-109l-79 -372h-74l79 372h-69l12 58h69l23 105c17 81 83 167 163 167c28 0 51 -7 53 -8l-14 -67c-5 3 -25 14 -52 14c-33 0 -61 -29 -71 -74z" />
    <glyph glyph-name="fl" unicode="fl" horiz-adv-x="503" 
d="M247 372l-79 -372h-74l79 372h-69l12 58h69l23 105c17 81 83 167 163 167c28 0 51 -7 53 -8l-14 -66c-9 5 -28 13 -52 13c-33 0 -61 -29 -71 -74l-30 -137h111l-12 -58h-109zM575 694l-148 -694h-74l148 694h74z" />
    <glyph glyph-name="ffi" unicode="ffi" horiz-adv-x="764" 
d="M838 695l-17 -80h-80l17 80h80zM614 0l91 430h74l-91 -430h-74zM354 0l113 531c19 91 87 171 164 171c30 0 38 -2 53 -7l-14 -67c-16 9 -34 13 -52 13c-33 0 -61 -29 -71 -74l-30 -137h111l-12 -58h-109l-79 -372h-74zM247 372l-79 -372h-74l79 372h-69l12 58h69l23 104
c19 89 93 168 177 168c20 0 41 -3 62 -8l-14 -66c-21 10 -45 13 -61 13c-34 0 -74 -21 -86 -78l-29 -133h111l-12 -58h-109z" />
    <glyph glyph-name="ffl" unicode="ffl" horiz-adv-x="764" 
d="M247 372l-79 -372h-74l79 372h-69l12 58h69l23 104c19 89 93 168 177 168c20 0 41 -3 62 -8l-14 -66c-21 10 -45 13 -61 13c-34 0 -74 -21 -86 -78l-29 -133h111l-12 -58h-109zM836 694l-148 -694h-74l148 694h74zM507 372l-79 -372h-74l113 531c19 91 87 171 164 171
c28 0 51 -7 53 -8l-14 -66c-9 5 -28 13 -52 13c-33 0 -61 -29 -71 -74l-30 -137h111l-12 -58h-109z" />
    <glyph glyph-name="Gamma" unicode="&#x393;" horiz-adv-x="508" 
d="M305 628l-133 -628h-84l147 692h381l-14 -65h-151c-12 0 -24 1 -36 1h-110z" />
    <glyph glyph-name="Delta" unicode="&#x394;" horiz-adv-x="783" 
d="M584 694l160 -694h-705l455 694h90zM385 410l-216 -331h464l-78 346c-2 8 -35 158 -39 195c-18 -37 -130 -209 -131 -210z" />
    <glyph glyph-name="Theta" unicode="&#x398;" horiz-adv-x="731" 
d="M761 434c0 -236 -201 -450 -399 -450c-142 0 -246 112 -246 275c0 229 198 451 400 451c142 0 245 -113 245 -276zM375 46c157 0 305 186 305 385c0 136 -76 218 -178 218c-158 0 -305 -193 -305 -387c0 -135 77 -216 178 -216zM626 387l-17 -79h-358l17 79h358z" />
    <glyph glyph-name="Lambda" unicode="&#x39b;" horiz-adv-x="572" 
d="M259 304l-158 -304h-75l364 694h86l69 -694h-89l-37 408c0 1 -10 126 -10 176c0 11 0 22 1 30h-1c-17 -54 -149 -308 -150 -310z" />
    <glyph glyph-name="Xi" unicode="&#x39e;" horiz-adv-x="626" 
d="M729 691l-15 -71h-117c-51 0 -102 1 -153 1c-50 0 -102 -1 -152 -1h-116l15 71h538zM602 71l-15 -71h-548l15 71h119c51 0 104 -1 155 -1s104 1 155 1h119zM188 394h418l-15 -70h-418z" />
    <glyph glyph-name="Pi" unicode="&#x3a0;" horiz-adv-x="663" 
d="M721 692l-147 -692h-84l134 631h-318l-134 -631h-84l147 692h486z" />
    <glyph glyph-name="Sigma" unicode="&#x3a3;" horiz-adv-x="679" 
d="M439 347l-239 -279h179c12 0 24 1 36 1h226l-15 -69h-574l288 337l-154 293l13 64h574l-13 -65h-243c-12 0 -24 1 -36 1h-191z" />
    <glyph glyph-name="Upsilon" unicode="&#x3a5;" horiz-adv-x="731" 
d="M492 397l-85 -397h-84l91 436c10 50 11 88 11 98c0 35 -3 113 -83 113c-51 0 -87 -49 -96 -92h-76c20 91 104 155 183 155c72 0 120 -44 120 -167c0 -1 -1 -29 -2 -39l1 -1c38 106 99 207 206 207c78 0 122 -58 122 -122c0 -13 -2 -21 -4 -33h-76c1 7 3 16 3 24
c0 5 -1 68 -60 68c-108 0 -148 -140 -171 -250z" />
    <glyph glyph-name="Phi" unicode="&#x3a6;" horiz-adv-x="679" 
d="M525 694l-22 -106c114 -14 201 -89 201 -199c0 -138 -143 -266 -304 -283l-22 -106h-81l23 107c-120 14 -199 96 -199 198c0 136 144 266 301 282l22 107h81zM332 168l77 358c-135 -22 -205 -126 -205 -217c0 -84 56 -128 128 -141zM490 526l-76 -358
c132 18 208 124 208 217c0 78 -52 129 -132 141z" />
    <glyph glyph-name="Psi" unicode="&#x3a8;" horiz-adv-x="731" 
d="M552 694l-112 -523c135 33 171 196 185 261c39 181 74 181 115 181h68l-13 -61c-43 -3 -69 -34 -92 -133c-16 -69 -63 -277 -276 -313l-23 -106h-81l23 107c-123 19 -154 114 -154 201c0 28 3 62 12 104c9 46 10 67 10 77c0 60 -30 62 -45 63l13 61h69c26 0 55 0 55 -65
c0 -36 -12 -92 -21 -133c-10 -46 -12 -83 -12 -97c0 -54 13 -124 86 -147l112 523h81z" />
    <glyph glyph-name="Omega" unicode="&#x3a9;" horiz-adv-x="679" 
d="M650 68l-14 -68h-231c17 77 56 141 126 243c49 73 113 174 113 257c0 100 -80 149 -167 149c-102 0 -250 -71 -250 -255c0 -56 17 -125 26 -161c17 -67 27 -114 27 -164c0 -9 0 -36 -7 -69h-231l14 68h79c12 0 24 -1 36 -1h47c-2 43 -7 76 -33 153
c-20 59 -41 123 -41 183c0 184 182 307 346 307c141 0 239 -87 239 -203c0 -98 -72 -195 -134 -276c-35 -46 -85 -113 -106 -164h47c12 0 24 1 36 1h78z" />
    <glyph glyph-name="dotlessi" unicode="&#x131;" horiz-adv-x="222" 
d="M239 430l-91 -430h-74l91 430h74z" />
    <glyph glyph-name="dotlessj" unicode="&#xf6be;" horiz-adv-x="248" 
d="M265 430l-104 -493c-15 -71 -76 -140 -149 -140c-15 0 -64 2 -106 35l33 60c14 -20 35 -31 62 -31c22 0 71 9 84 68l106 501h74z" />
    <glyph glyph-name="grave" unicode="`" 
d="M301 694l87 -176h-61l-102 176h76z" />
    <glyph glyph-name="acute" unicode="&#xb4;" 
d="M539 694l-177 -176h-61l162 176h76z" />
    <glyph glyph-name="caron" unicode="&#x2c7;" 
d="M534 644l-170 -176h-60l-95 176h60l75 -128l129 128h61z" />
    <glyph glyph-name="breve" unicode="&#x2d8;" 
d="M481 694h61c-23 -108 -111 -193 -201 -193c-82 0 -125 68 -125 145c0 26 2 33 5 48h61c-3 -13 -3 -15 -3 -34c0 -59 32 -93 76 -93c58 0 112 58 126 127z" />
    <glyph glyph-name="macron" unicode="&#xaf;" 
d="M535 616l-14 -64h-339l14 64h339z" />
    <glyph glyph-name="ring" unicode="&#x2da;" horiz-adv-x="699" 
d="M584 621c0 -56 -63 -103 -124 -103c-57 0 -89 35 -89 73c0 51 58 103 125 103c47 0 88 -26 88 -73zM469 563c62 0 62 51 62 53c0 28 -23 33 -45 33c-46 0 -61 -31 -61 -53c0 -13 3 -33 44 -33z" />
    <glyph glyph-name="cedilla" unicode="&#xb8;" horiz-adv-x="417" 
d="M261 -18l-97 -168h-69l105 168h61z" />
    <glyph glyph-name="germandbls" unicode="&#xdf;" horiz-adv-x="450" 
d="M394 397c42 -31 73 -85 73 -163c0 -155 -117 -242 -210 -242c-20 0 -49 3 -79 15l34 58c27 -12 52 -12 57 -12c68 0 123 74 123 177c0 75 -36 137 -112 139l12 61c107 3 151 93 151 143c0 40 -26 68 -71 68c-11 0 -86 0 -107 -98l-116 -543h-74l116 548
c18 85 104 154 194 154c76 0 133 -49 133 -122c0 -19 -3 -101 -109 -173c-1 0 -14 -9 -15 -10z" />
    <glyph glyph-name="ae" unicode="&#xe6;" horiz-adv-x="679" 
d="M699 219h-276c-2 -9 -5 -36 -5 -45c0 -56 30 -121 102 -121c43 0 96 16 143 52l-7 -64c-58 -39 -112 -49 -150 -49c-79 0 -121 47 -137 72c-66 -72 -201 -72 -219 -72c-14 0 -86 0 -86 94c0 135 191 157 282 160c7 0 7 1 9 9c4 19 10 44 10 58c0 17 -4 70 -65 70
c-40 0 -90 -9 -150 -46l7 65c61 31 111 40 157 40c67 0 102 -34 118 -71c35 35 94 71 155 71c65 0 122 -36 122 -140c0 -28 -4 -56 -10 -83zM443 274h201c0 32 0 107 -70 107c-54 0 -110 -56 -131 -107zM342 192c-43 -2 -203 -10 -203 -86c0 -31 26 -53 71 -53
s103 18 117 58c3 8 11 54 15 81z" />
    <glyph glyph-name="oe" unicode="&#x153;" horiz-adv-x="731" 
d="M751 219h-276c-2 -9 -5 -36 -5 -45c0 -56 30 -121 102 -121c43 0 96 16 143 52l-7 -64c-58 -39 -112 -49 -150 -49c-69 0 -123 37 -148 94c-69 -78 -141 -94 -184 -94c-96 0 -159 76 -159 173c0 139 124 277 254 277c57 0 115 -28 143 -92c73 82 142 92 175 92
c65 0 122 -36 122 -140c0 -28 -4 -56 -10 -83zM495 274h201c0 32 0 107 -70 107c-54 0 -110 -56 -131 -107zM239 53c101 0 167 123 167 218c0 85 -54 110 -98 110c-97 0 -167 -103 -167 -213c0 -76 43 -115 98 -115z" />
    <glyph glyph-name="oslash" unicode="&#xf8;" 
d="M540 513l-92 -122c28 -30 45 -73 45 -126c0 -144 -129 -273 -260 -273c-14 0 -43 2 -75 16l-90 -120l-47 30l92 123c-15 16 -46 56 -46 123c0 140 128 278 261 278c25 0 52 -5 75 -17l90 118zM158 100l204 271c-15 7 -31 10 -47 10c-102 0 -172 -114 -172 -215
c0 -23 4 -46 15 -66zM200 63c19 -10 41 -10 46 -10c97 0 171 100 171 212c0 11 0 40 -14 66l-103 -135z" />
    <glyph glyph-name="AE" unicode="&#xc6;" horiz-adv-x="808" 
d="M234 222l-132 -222h-76l413 694h464l-13 -65h-143c-12 0 -24 1 -36 1h-101l-51 -239h254l-13 -61h-254l-56 -263c11 1 32 1 108 1l186 1l-15 -69h-376l47 222h-206zM477 630l-209 -352h184l75 352h-50z" />
    <glyph glyph-name="OE" unicode="&#x152;" horiz-adv-x="913" 
d="M595 330l-56 -263c21 1 54 1 135 1l214 1l-15 -69h-387c-11 0 -28 0 -76 -8c-31 -5 -54 -8 -76 -8c-138 0 -245 109 -245 275c0 231 200 451 399 451c15 0 33 -1 60 -6c51 -9 64 -10 86 -10h373l-13 -65h-170c-12 0 -24 1 -36 1h-129l-51 -239h309l-13 -61h-309zM484 198
l64 301c11 52 11 78 11 83c0 40 -11 67 -82 67c-145 0 -303 -167 -303 -377c0 -128 66 -227 176 -227c81 0 108 31 134 153z" />
    <glyph glyph-name="Oslash" unicode="&#xd8;" horiz-adv-x="731" 
d="M758 728l-69 -92c43 -46 72 -116 72 -202c0 -236 -201 -450 -399 -450c-47 0 -91 12 -130 37l-63 -85l-49 30l68 92c-57 61 -72 140 -72 201c0 229 198 451 400 451c40 0 86 -10 130 -37l62 85zM234 120l369 497c-23 17 -57 32 -100 32c-167 0 -304 -200 -304 -394
c0 -51 13 -101 35 -135zM643 573l-369 -496c34 -25 70 -32 101 -32c165 0 303 195 303 392c0 78 -25 119 -35 136z" />
    <glyph glyph-name="suppress" horiz-adv-x="222" 
d="M301 331l-237 -69l-5 56l237 68z" />
    <glyph glyph-name="exclam" unicode="!" horiz-adv-x="299" 
d="M338 694l-120 -525h-64l103 525h81zM110 0l17 80h80l-17 -80h-80z" />
    <glyph glyph-name="quotedblright" unicode="&#x201d;" 
d="M236 605l-62 -116h-40l52 125h-24l16 80h80c-3 -15 -6 -32 -9 -46c-7 -31 -7 -33 -13 -43zM419 605l-62 -116h-40l52 125h-24l16 80h80c-3 -15 -6 -32 -9 -46c-7 -31 -7 -33 -13 -43z" />
    <glyph glyph-name="numbersign" unicode="#" horiz-adv-x="783" 
d="M523 143l-149 -318c-6 -12 -9 -20 -20 -20c-9 0 -17 7 -17 18c0 1 0 5 5 17l142 303h-178l-149 -318c-6 -12 -9 -20 -20 -20c-9 0 -17 7 -17 18c0 1 0 5 5 17l142 303h-147c-14 0 -34 0 -34 18c0 17 17 17 30 17h168l65 143h-196c-14 0 -29 0 -29 17c0 18 17 18 34 18
h209l148 318c6 12 9 20 20 20c9 0 18 -7 18 -18c0 -2 0 -4 -6 -15l-142 -305h179l148 318c6 12 9 20 20 20c9 0 18 -7 18 -18c0 -2 0 -4 -6 -15l-142 -305h147c14 0 34 0 34 -18c0 -17 -17 -17 -30 -17h-168l-65 -143h196c14 0 29 0 29 -17c0 -18 -17 -18 -34 -18h-208z
M501 178l65 143h-178l-65 -143h178z" />
    <glyph glyph-name="dollar" unicode="$" 
d="M399 637l-51 -241c116 -28 116 -137 116 -154c0 -107 -85 -226 -201 -247c-4 -17 -7 -33 -11 -50h-58l10 48c-48 5 -104 23 -149 69l26 66h1c15 -18 53 -61 136 -70l57 267c-89 21 -118 84 -118 147c0 91 67 196 188 226c9 2 10 3 13 17l7 34h58l-10 -48
c57 -5 91 -24 125 -56l-25 -64c-33 34 -69 51 -114 56zM293 412l48 222c-64 -17 -109 -76 -109 -135c0 -48 25 -76 61 -87zM330 309l-53 -248c70 21 112 95 112 155c0 10 0 73 -59 93z" />
    <glyph glyph-name="percent" unicode="%" horiz-adv-x="783" 
d="M764 712l-569 -753c-7 -10 -12 -14 -19 -14c-9 0 -18 7 -18 18c0 5 1 7 10 18l571 755c7 10 10 13 18 13c7 0 17 -6 17 -18c0 -6 -2 -8 -10 -19zM769 209c0 -134 -94 -264 -179 -264c-59 0 -96 60 -96 138c0 132 93 264 181 264c53 0 94 -53 94 -138zM603 6
c46 0 94 123 94 204c0 9 0 76 -36 76c-62 0 -94 -163 -94 -213c0 -24 4 -67 36 -67zM437 611c0 -126 -90 -264 -180 -264c-63 0 -96 68 -96 138c0 129 92 264 181 264c63 0 95 -69 95 -138zM270 408c46 0 94 120 94 203c0 23 -3 77 -35 77c-66 0 -95 -173 -95 -214
c0 -7 0 -66 36 -66z" />
    <glyph glyph-name="ampersand" unicode="&#x26;" horiz-adv-x="712" 
d="M662 391l44 -14c-56 -113 -130 -217 -231 -292c37 -37 72 -37 87 -37c44 0 95 12 111 17l-14 -66c-45 -12 -90 -15 -112 -15s-82 0 -139 56c-38 -22 -115 -56 -199 -56c-89 0 -142 58 -142 130c0 69 44 118 64 137c3 3 108 84 124 96c-5 34 -5 63 -5 73
c0 179 95 290 184 290c64 0 100 -51 100 -116c0 -38 0 -107 -196 -251c20 -87 87 -196 100 -215c98 73 163 174 201 251c7 12 7 13 8 14l2 1c4 0 10 -2 13 -3zM323 457c0 -3 0 -51 5 -51c3 0 53 41 81 71c34 38 52 65 52 115c0 26 -7 57 -40 57c-36 0 -98 -36 -98 -192z
M268 288c-17 -13 -71 -54 -78 -60c-23 -22 -45 -58 -45 -99c0 -33 17 -81 78 -81c21 0 78 3 145 37c-14 20 -68 103 -100 203z" />
    <glyph glyph-name="quoteright" unicode="&#x2019;" horiz-adv-x="261" 
d="M295 605l-62 -116h-40l52 125h-24l16 80h80c-3 -15 -6 -32 -9 -46c-7 -31 -7 -33 -13 -43z" />
    <glyph glyph-name="parenleft" unicode="(" horiz-adv-x="365" 
d="M411 749h61c-52 -46 -134 -123 -201 -279c-59 -139 -93 -308 -93 -436c0 -56 3 -178 82 -284h-43c-17 0 -18 1 -24 8c-68 84 -89 190 -89 292c0 132 47 496 307 699z" />
    <glyph glyph-name="parenright" unicode=")" horiz-adv-x="365" 
d="M211 749h43c17 0 18 -1 24 -8c76 -93 89 -211 89 -292c0 -137 -49 -498 -307 -699h-61c90 78 151 166 195 265c71 162 99 337 99 450c0 56 -2 177 -82 284z" />
    <glyph glyph-name="asterisk" unicode="*" 
d="M363 488l-19 -125c-2 -12 -7 -44 -42 -44c-11 0 -27 7 -27 26c0 1 0 6 4 20l34 123l-100 -64c-18 -11 -23 -14 -32 -14c-16 0 -28 12 -28 28c0 23 19 33 28 37l120 59l-93 58c-11 7 -17 10 -17 24c0 23 23 42 42 42c9 0 17 -6 23 -11l77 -67l19 125c2 12 7 44 42 44
c11 0 27 -7 27 -26c0 -1 0 -6 -4 -20l-34 -123l100 64c19 11 23 14 32 14c16 0 28 -12 28 -28c0 -23 -19 -33 -28 -37l-120 -59l93 -58c11 -7 17 -10 17 -24c0 -23 -23 -42 -42 -42c-9 0 -17 6 -23 11z" />
    <glyph glyph-name="plus" unicode="+" horiz-adv-x="731" 
d="M433 232l-58 -274c-2 -11 -7 -22 -19 -22c-10 0 -18 8 -18 18c0 1 0 3 3 14l56 264h-260c-15 0 -32 0 -32 18c0 17 18 17 32 17h267l58 274c2 11 7 22 19 22c9 0 18 -8 18 -18l-59 -278h260c15 0 31 0 31 -18c0 -17 -17 -17 -31 -17h-267z" />
    <glyph glyph-name="comma" unicode="," horiz-adv-x="261" 
d="M63 -125l52 125h-25l17 80h80c-6 -28 -16 -78 -20 -84c-7 -15 -53 -100 -64 -121h-40z" />
    <glyph glyph-name="hyphen" unicode="-" horiz-adv-x="313" 
d="M312 244l-12 -58h-250l12 58h250z" />
    <glyph glyph-name="period" unicode="." horiz-adv-x="261" 
d="M187 80l-17 -80h-80l17 80h80z" />
    <glyph glyph-name="slash" unicode="/" 
d="M566 714l-526 -947c-6 -11 -11 -16 -20 -16c-7 0 -17 6 -17 18c0 3 0 5 7 16l525 947c5 9 9 17 20 17c7 0 17 -6 17 -18c0 -7 -4 -13 -6 -17z" />
    <glyph glyph-name="zero" unicode="0" 
d="M521 484c0 -79 -32 -254 -85 -352c-53 -101 -127 -148 -205 -148c-144 0 -144 155 -144 187c0 89 37 256 76 333c19 39 83 168 214 168c144 0 144 -155 144 -188zM244 45c81 0 124 98 135 123c32 73 70 254 70 322c0 23 0 121 -85 121c-88 0 -131 -107 -145 -143
c-16 -47 -57 -214 -57 -297c0 -25 0 -126 82 -126z" />
    <glyph glyph-name="one" unicode="1" 
d="M427 672l-131 -614h118l-12 -58h-313l13 58h117l109 514c-49 -21 -100 -23 -127 -24l12 58c39 1 126 5 194 66h20z" />
    <glyph glyph-name="two" unicode="2" 
d="M436 68l-14 -68h-375c9 40 9 42 13 64l95 82c31 27 109 91 139 118c69 60 151 133 151 234c0 67 -40 110 -107 110c-93 0 -136 -90 -161 -149c-18 32 -18 34 -29 55c51 101 122 158 216 158c108 0 162 -72 162 -160c0 -93 -54 -157 -112 -210
c-36 -32 -183 -145 -284 -235h101c12 0 24 1 36 1h169z" />
    <glyph glyph-name="three" unicode="3" 
d="M239 385l50 4c111 11 149 113 149 154c0 43 -29 68 -76 68c-48 0 -123 -27 -167 -103c-10 21 -10 23 -23 55c40 56 119 109 203 109c87 0 143 -55 143 -123c0 -47 -34 -139 -142 -195c59 -21 97 -72 97 -135c0 -106 -110 -235 -244 -235c-89 0 -148 51 -171 103
c15 40 15 42 23 61c34 -81 112 -102 159 -102c94 0 150 100 150 178c0 100 -82 100 -96 100h-68z" />
    <glyph glyph-name="four" unicode="4" 
d="M388 171l-36 -171h-79l36 171h-247c2 8 6 28 8 38c5 21 5 23 13 32l320 415h88l-90 -424h91l-13 -61h-91zM153 232h172l82 382h-2c-17 -61 -79 -148 -109 -190c-61 -87 -100 -133 -143 -192z" />
    <glyph glyph-name="five" unicode="5" 
d="M272 592l-44 -207c32 22 67 36 105 36c78 0 138 -63 138 -163c0 -150 -131 -274 -259 -274c-35 0 -119 10 -160 98l43 57c19 -64 75 -93 130 -93c106 0 164 119 164 220c0 63 -29 94 -69 94c-45 0 -90 -27 -118 -73h-68l79 369h317l-13 -64h-245z" />
    <glyph glyph-name="six" unicode="6" 
d="M528 652l-13 -62c-29 14 -59 21 -94 21c-108 0 -189 -117 -221 -234c72 69 140 79 175 79c26 0 60 -5 85 -53c22 -42 27 -81 27 -104c0 -174 -129 -315 -254 -315c-143 0 -143 167 -143 195c0 44 8 209 103 343c46 66 132 150 240 150c22 0 56 -2 95 -20zM168 220
c-3 -23 -4 -25 -4 -53c0 -23 1 -121 82 -121c125 0 162 182 162 246c0 17 -2 103 -84 103c-77 0 -146 -81 -156 -175z" />
    <glyph glyph-name="seven" unicode="7" 
d="M342 588h-178l14 68h391c-11 -57 -13 -61 -13 -63c-2 -2 -19 -21 -28 -29c-1 -2 -93 -96 -171 -229c-88 -149 -119 -269 -136 -343h-80c71 321 280 534 352 597h-115c-12 0 -24 -1 -36 -1z" />
    <glyph glyph-name="eight" unicode="8" 
d="M377 354c54 -20 96 -68 96 -135c0 -107 -110 -235 -242 -235c-86 0 -157 60 -157 158c0 103 75 179 168 213c-59 21 -87 68 -87 116c0 92 101 201 222 201c89 0 150 -60 150 -140c0 -93 -81 -156 -150 -178zM317 385c84 0 138 71 138 142c0 63 -46 84 -91 84
c-86 0 -138 -72 -138 -141c0 -61 42 -85 91 -85zM244 46c98 0 152 99 152 179c0 78 -56 99 -93 99c-83 0 -151 -83 -151 -180c0 -94 75 -98 92 -98z" />
    <glyph glyph-name="nine" unicode="9" 
d="M74 31l43 53c28 -34 64 -38 86 -38c64 0 156 57 206 234c-52 -53 -119 -80 -175 -80c-106 0 -112 140 -112 158c0 42 9 142 85 225c54 59 108 89 173 89c139 0 139 -164 139 -192c0 -31 -6 -213 -104 -351c-66 -91 -145 -145 -225 -145c-62 0 -92 23 -116 47zM438 435
l1 2c4 5 6 47 6 56c0 35 -4 118 -78 118c-56 0 -96 -39 -120 -76c-40 -62 -47 -166 -47 -171c0 -10 1 -103 84 -103c78 0 145 80 154 174z" />
    <glyph glyph-name="colon" unicode=":" horiz-adv-x="261" 
d="M261 430l-17 -80h-80l17 80h80zM90 0l17 80h80l-17 -80h-80z" />
    <glyph glyph-name="semicolon" unicode=";" horiz-adv-x="261" 
d="M261 430l-17 -80h-80l17 80h80zM63 -125l52 125h-25l17 80h80c-6 -28 -16 -78 -20 -84c-7 -15 -53 -100 -64 -121h-40z" />
    <glyph glyph-name="exclamdown" unicode="&#xa1;" horiz-adv-x="299" 
d="M296 500l-17 -80h-80l17 80h80zM69 -195l119 526h64l-103 -526h-80z" />
    <glyph glyph-name="equal" unicode="=" horiz-adv-x="731" 
d="M720 321h-567c-14 0 -29 0 -29 17c0 18 17 18 34 18h558c14 0 34 0 34 -18c0 -17 -17 -17 -30 -17zM678 143h-558c-14 0 -34 0 -34 18c0 17 17 17 30 17h567c14 0 29 0 29 -17c0 -18 -17 -18 -34 -18z" />
    <glyph glyph-name="questiondown" unicode="&#xbf;" horiz-adv-x="444" 
d="M354 500l-17 -80h-80l17 80h80zM350 -88l9 -62c-7 -4 -91 -53 -192 -53c-89 0 -130 43 -130 112c0 9 0 100 72 161c101 85 120 179 137 261h64c-19 -93 -38 -189 -152 -303c-16 -16 -45 -49 -45 -114c0 -33 13 -56 67 -56c67 0 132 29 170 54z" />
    <glyph glyph-name="question" unicode="?" horiz-adv-x="444" 
d="M199 587l-9 62c53 34 109 53 169 53c67 0 152 -21 152 -119c0 -41 -16 -106 -76 -152c-123 -93 -139 -169 -159 -262h-64c19 89 43 202 167 300c18 14 56 44 56 107c0 53 -40 65 -89 65c-53 0 -104 -20 -147 -54zM265 80l-17 -80h-80l17 80h80z" />
    <glyph glyph-name="at" unicode="@" horiz-adv-x="626" 
d="M544 87h47c-54 -52 -140 -95 -227 -95c-138 0 -247 104 -247 272c0 231 203 438 395 438c139 0 158 -113 158 -187c0 -28 -11 -182 -60 -265c-51 -84 -123 -128 -186 -128c-78 0 -134 69 -134 165c0 146 117 285 229 285c36 0 61 -15 71 -22c-7 56 -39 91 -91 91
c-148 0 -306 -178 -306 -370c0 -110 62 -218 186 -218c35 0 82 6 140 30c8 4 10 4 25 4zM437 183c69 0 140 113 140 219c0 48 -18 109 -71 109c-65 0 -139 -108 -139 -218c0 -75 33 -110 70 -110z" />
    <glyph glyph-name="A" unicode="A" horiz-adv-x="624" 
d="M215 202l-113 -202h-76l390 694h87l95 -694h-87l-28 202h-268zM438 620l-191 -362h227z" />
    <glyph glyph-name="B" unicode="B" horiz-adv-x="625" 
d="M237 694h223c117 0 200 -63 200 -148c0 -90 -94 -159 -192 -183c83 -15 148 -69 148 -147c0 -103 -124 -216 -278 -216h-249zM306 638l-53 -247h106c148 0 223 88 223 144c0 52 -58 103 -161 103h-115zM182 56h140c117 0 214 74 214 154c0 69 -70 120 -163 120h-133z" />
    <glyph glyph-name="C" unicode="C" horiz-adv-x="600" 
d="M570 108l-8 -68c-69 -38 -105 -56 -194 -56c-159 0 -242 128 -242 273c0 225 186 453 395 453c84 0 130 -20 165 -35l-31 -80c-43 35 -88 51 -148 51c-158 0 -297 -200 -297 -384c0 -71 30 -214 173 -214c73 0 115 14 187 60z" />
    <glyph glyph-name="D" unicode="D" horiz-adv-x="677" 
d="M237 694h246c135 0 224 -110 224 -263c0 -229 -186 -431 -371 -431h-247zM307 638l-124 -582h142c172 0 300 186 300 374c0 130 -70 208 -177 208h-141z" />
    <glyph glyph-name="E" unicode="E" horiz-adv-x="561" 
d="M242 329l-56 -262c18 1 55 1 135 1l215 1l-15 -69h-433l147 692h420l-14 -65h-171c-12 0 -24 1 -36 1h-129l-50 -238h310l-13 -61h-310z" />
    <glyph glyph-name="F" unicode="F" horiz-adv-x="534" 
d="M239 316l-67 -316h-84l147 692h407l-14 -65h-164c-12 0 -24 1 -36 1h-123l-53 -251h284l-13 -61h-284z" />
    <glyph glyph-name="G" unicode="G" horiz-adv-x="626" 
d="M625 294l-55 -261c-61 -29 -136 -49 -205 -49c-147 0 -239 118 -239 273c0 226 188 453 394 453c57 0 114 -10 175 -49l-31 -80c-49 53 -104 65 -158 65c-157 0 -296 -200 -296 -383c0 -101 49 -215 169 -215c47 0 89 10 122 19l36 166h-122l12 61h198z" />
    <glyph glyph-name="H" unicode="H" horiz-adv-x="663" 
d="M722 694l-148 -694h-84l70 330h-318l-70 -330h-84l148 694h84l-65 -303h318l65 303h84z" />
    <glyph glyph-name="I" unicode="I" horiz-adv-x="258" 
d="M319 694l-148 -694h-84l148 694h84z" />
    <glyph glyph-name="J" unicode="J" horiz-adv-x="442" 
d="M513 694l-118 -551c-19 -89 -89 -159 -198 -159c-33 0 -98 6 -152 43l29 73c25 -41 72 -55 109 -55c54 0 116 28 132 103l116 546h82z" />
    <glyph glyph-name="K" unicode="K" horiz-adv-x="650" 
d="M438 419l173 -419h-93l-148 358l-150 -133l-48 -225h-84l148 694h83l-77 -363l407 363h97z" />
    <glyph glyph-name="L" unicode="L" horiz-adv-x="508" 
d="M320 694l-134 -630h53c12 0 24 1 36 1h208l-14 -65h-381l148 694h84z" />
    <glyph glyph-name="M" unicode="M" horiz-adv-x="819" 
d="M877 694l-148 -694h-79l130 612h-1c-1 -6 -69 -131 -73 -138l-82 -149l-175 -309h-75l-47 339c-11 81 -27 212 -27 249v11l-132 -615h-78l148 694h117l58 -425c7 -50 16 -124 16 -176h1c11 30 55 110 81 157l83 151l166 293h117z" />
    <glyph glyph-name="N" unicode="N" horiz-adv-x="663" 
d="M722 694l-148 -694h-123l-109 435c-25 102 -39 155 -44 182h-1l-131 -617h-78l148 694h123l127 -507c10 -40 19 -75 26 -110h1l131 617h78z" />
    <glyph glyph-name="O" unicode="O" horiz-adv-x="692" 
d="M724 439c0 -233 -191 -455 -381 -455c-137 0 -228 116 -228 269c0 230 189 457 382 457c134 0 227 -114 227 -271zM356 47c151 0 286 213 286 399c0 129 -71 201 -159 201c-141 0 -282 -177 -282 -387c0 -125 62 -213 155 -213z" />
    <glyph glyph-name="P" unicode="P" horiz-adv-x="599" 
d="M234 289l-61 -289h-84l148 694h233c121 0 186 -79 186 -164c0 -121 -129 -241 -265 -241h-157zM307 638l-62 -291h130c136 0 201 100 201 177c0 64 -44 114 -139 114h-130z" />
    <glyph glyph-name="Q" unicode="Q" horiz-adv-x="692" 
d="M489 -125l-57 125c-25 -8 -54 -16 -89 -16c-137 0 -228 116 -228 269c0 230 189 457 382 457c134 0 227 -114 227 -271c0 -126 -63 -300 -216 -402l79 -162h-98zM430 194l50 -101h1c131 99 161 267 161 345c0 124 -63 209 -159 209c-148 0 -286 -198 -286 -393
c0 -119 61 -207 160 -207c22 0 44 6 50 8l-63 139h86z" />
    <glyph glyph-name="R" unicode="R" horiz-adv-x="606" 
d="M463 327l116 -327h-84l-110 317h-147l-67 -317h-82l148 694h225c123 0 202 -70 202 -156c0 -69 -56 -168 -201 -211zM307 638l-56 -260h133c132 0 200 82 200 154c0 70 -59 106 -145 106h-132z" />
    <glyph glyph-name="S" unicode="S" horiz-adv-x="522" 
d="M577 661l-31 -80c-49 58 -110 63 -145 63c-92 0 -163 -70 -163 -139c0 -42 26 -64 28 -66c21 -18 26 -19 83 -35c65 -19 94 -27 122 -58c23 -26 43 -60 43 -113c0 -125 -121 -249 -259 -249c-73 0 -145 23 -202 70l32 79c46 -52 113 -81 183 -81c96 0 167 84 167 157
c0 79 -63 96 -93 105c-95 26 -112 31 -142 62c-22 22 -42 58 -42 105c0 110 113 229 257 229c67 0 114 -16 162 -49z" />
    <glyph glyph-name="T" unicode="T" horiz-adv-x="640" 
d="M495 627l-133 -627h-84l133 627h-83c-12 0 -24 -1 -36 -1h-125l14 65h572l-14 -65h-125c-12 0 -24 1 -36 1h-83z" />
    <glyph glyph-name="U" unicode="U" horiz-adv-x="643" 
d="M703 694l-100 -467c-27 -125 -150 -243 -283 -243c-112 0 -189 83 -189 194c0 11 3 40 5 50l100 466h84l-100 -466c-5 -23 -5 -52 -5 -54c0 -114 78 -134 117 -134c94 0 174 84 196 188l99 466h76z" />
    <glyph glyph-name="V" unicode="V" horiz-adv-x="624" 
d="M758 694l-402 -694h-88l-107 694h88l56 -377c1 -10 26 -175 28 -240h1c18 42 70 134 107 199l36 65l204 353h77z" />
    <glyph glyph-name="W" unicode="W" horiz-adv-x="885" 
d="M1019 694l-337 -694h-87l-17 294c-5 82 -8 165 -8 247c0 27 0 60 1 71h-1c-5 -16 -22 -68 -149 -332l-134 -280h-84l-42 694h85l18 -310c4 -73 7 -153 7 -226c0 -26 0 -58 -3 -77h1c11 39 61 147 85 199c19 43 42 90 63 134l134 280h84l19 -325c4 -71 7 -151 7 -222
c0 -25 0 -46 -2 -67h1c13 44 73 172 83 195l62 130l139 289h75z" />
    <glyph glyph-name="X" unicode="X" horiz-adv-x="624" 
d="M424 366l187 -366h-99l-142 305l-265 -305h-92l329 366l-168 328h98l125 -260l231 260h91z" />
    <glyph glyph-name="Y" unicode="Y" horiz-adv-x="624" 
d="M769 694l-357 -416l-59 -278h-82l59 278l-180 416h98l145 -342c21 27 26 34 63 77l226 265h87z" />
    <glyph glyph-name="Z" unicode="Z" horiz-adv-x="574" 
d="M653 644l-481 -580h29c83 0 168 2 251 2h89l-14 -66h-475c1 4 6 27 6 29c3 12 3 14 12 24l480 579h-128c-12 0 -24 -1 -36 -1h-187l13 63h457c-1 -4 -5 -27 -6 -28c-2 -12 -2 -14 -10 -22z" />
    <glyph glyph-name="bracketleft" unicode="[" horiz-adv-x="272" 
d="M312 688l-186 -876h86l-13 -61h-159l212 998h159l-13 -61h-86z" />
    <glyph glyph-name="quotedblleft" unicode="&#x201c;" 
d="M403 694l-52 -125h25l-17 -80h-80c4 17 6 27 9 45c7 30 7 32 13 43l62 117h40zM586 694l-52 -125h25l-17 -80h-80c4 17 6 27 9 45c7 30 7 32 13 43l62 117h40z" />
    <glyph glyph-name="bracketright" unicode="]" horiz-adv-x="272" 
d="M338 749l-212 -998h-159l13 61h86l186 876h-86l13 61h159z" />
    <glyph glyph-name="circumflex" unicode="&#x2c6;" 
d="M372 646l-129 -128h-61l170 176h60l95 -176h-60z" />
    <glyph glyph-name="dotaccent" unicode="&#x2d9;" horiz-adv-x="261" 
d="M312 658l-18 -84h-84l18 84h84z" />
    <glyph glyph-name="quoteleft" unicode="&#x2018;" horiz-adv-x="261" 
d="M318 694l-52 -125h25l-17 -80h-80c4 17 6 27 9 45c7 30 7 32 13 43l62 117h40z" />
    <glyph glyph-name="a" unicode="a" horiz-adv-x="450" 
d="M436 285l-60 -285h-74l8 37c-64 -42 -144 -45 -163 -45c-86 0 -86 85 -86 93c0 136 199 157 291 159c5 23 12 57 12 69c0 22 -8 70 -64 70c-57 0 -102 -18 -150 -46l7 65c64 33 115 40 156 40c92 0 128 -65 128 -121c0 -12 -1 -16 -5 -36zM341 194
c-32 -1 -204 -9 -204 -88c0 -41 41 -53 71 -53c38 0 99 15 116 60c3 9 14 66 17 81z" />
    <glyph glyph-name="b" unicode="b" horiz-adv-x="483" 
d="M297 694l-66 -309c69 46 132 53 163 53c80 0 110 -83 110 -153c0 -158 -117 -293 -229 -293c-44 0 -86 18 -115 53l-9 -45h-76l148 694h74zM220 326l-43 -201c-1 -4 -2 -8 -2 -13s14 -59 75 -59c106 0 176 108 176 215c0 76 -46 109 -98 109c-32 0 -71 -13 -108 -51z" />
    <glyph glyph-name="c" unicode="c" horiz-adv-x="417" 
d="M471 402l-25 -64c-46 34 -76 41 -124 41c-113 0 -172 -120 -172 -210c0 -73 39 -114 100 -114c79 0 137 38 157 51c-2 -22 -5 -44 -7 -66c-42 -24 -95 -48 -164 -48c-106 0 -163 81 -163 172c0 127 111 278 262 278c57 0 88 -8 136 -40z" />
    <glyph glyph-name="d" unicode="d" horiz-adv-x="483" 
d="M556 694l-148 -694h-76l11 50c-66 -52 -126 -58 -151 -58c-79 0 -120 74 -120 158c0 145 107 288 217 288c23 0 80 -4 128 -50l65 306h74zM357 116l45 214c-11 22 -34 47 -78 47c-100 0 -175 -100 -175 -214c0 -97 67 -110 97 -110c55 0 96 43 111 63z" />
    <glyph glyph-name="e" unicode="e" horiz-adv-x="417" 
d="M438 219h-272c-20 0 -23 0 -23 -43c0 -70 39 -123 106 -123c24 0 86 5 153 52l-7 -64c-64 -39 -120 -49 -161 -49c-90 0 -163 65 -163 174c0 140 121 276 245 276c55 0 131 -25 131 -143c0 -27 -3 -54 -9 -80zM167 274h217c0 24 0 107 -82 107c-47 0 -103 -41 -135 -107z
" />
    <glyph glyph-name="f" unicode="f" horiz-adv-x="287" 
d="M247 372l-79 -372h-74l79 372h-69l12 58h69l23 104c18 84 95 168 193 168c35 0 62 -6 71 -8l-14 -66c-30 12 -58 13 -71 13c-30 0 -87 -13 -101 -79l-29 -132h103l-12 -58h-101z" />
    <glyph glyph-name="g" unicode="g" 
d="M411 378l-1 -1c10 -17 14 -40 14 -62c0 -99 -94 -189 -188 -189c-38 0 -66 15 -82 28c-5 -6 -18 -24 -18 -47c0 -38 28 -38 46 -38h80c126 0 169 -42 169 -109c0 -114 -139 -164 -240 -164c-108 0 -182 51 -182 115c0 42 33 92 82 119c-4 6 -12 23 -12 48
c0 40 22 80 49 108c-15 26 -16 57 -16 63c0 96 92 189 189 189c16 0 52 -2 84 -31c29 12 81 30 153 31l-2 -62c-26 3 -31 4 -62 4c-18 0 -42 -3 -59 -3c-1 0 -3 0 -4 1zM247 181c75 0 107 82 107 134c0 49 -31 68 -64 68c-73 0 -107 -78 -107 -134c0 -48 30 -68 64 -68z
M246 -4h-80c-75 0 -85 -68 -85 -77c0 -41 54 -68 122 -68c79 0 155 38 155 88c0 43 -46 57 -112 57z" />
    <glyph glyph-name="h" unicode="h" horiz-adv-x="483" 
d="M472 294l-63 -294h-76l63 294c1 5 2 9 2 23c0 39 -23 60 -76 60c-91 0 -117 -118 -126 -161l-46 -216h-76l148 694h74l-69 -320h1c3 3 61 64 145 64c69 0 104 -30 104 -93c0 -25 -1 -34 -5 -51z" />
    <glyph glyph-name="i" unicode="i" horiz-adv-x="222" 
d="M292 658l-17 -84h-84l17 84h84zM74 0l91 430h74l-91 -430h-74z" />
    <glyph glyph-name="j" unicode="j" horiz-adv-x="248" 
d="M314 658l-18 -84h-84l18 84h84zM85 -69l106 499h74l-105 -494c-17 -81 -82 -139 -148 -139c-60 0 -105 31 -105 35c0 2 1 3 5 12l22 48c12 -17 32 -31 65 -31c29 0 48 12 58 20c21 17 24 30 28 50z" />
    <glyph glyph-name="k" unicode="k" horiz-adv-x="457" 
d="M321 265l120 -265h-85l-96 211l-82 -71l-30 -140h-73l148 694h74l-96 -450l214 186h96z" />
    <glyph glyph-name="l" unicode="l" horiz-adv-x="222" 
d="M296 694l-148 -694h-74l148 694h74z" />
    <glyph glyph-name="m" unicode="m" horiz-adv-x="745" 
d="M733 294l-63 -294h-76l63 294c1 5 2 9 2 23c0 44 -30 60 -76 60c-92 0 -118 -117 -127 -161l-46 -216h-76l63 294c1 5 2 9 2 23c0 44 -30 60 -76 60c-92 0 -118 -117 -127 -161l-46 -216h-76l92 433h73l-13 -62c18 19 73 67 148 67c58 0 96 -21 104 -75
c26 26 78 75 156 75c104 0 104 -68 104 -94c0 -18 -3 -42 -5 -50z" />
    <glyph glyph-name="n" unicode="n" horiz-adv-x="483" 
d="M472 294l-63 -294h-76l63 294c1 5 2 9 2 23c0 39 -23 60 -76 60c-91 0 -117 -118 -126 -161l-46 -216h-76l92 433h73l-13 -62c4 4 62 67 147 67c69 0 104 -30 104 -93c0 -25 -1 -34 -5 -51z" />
    <glyph glyph-name="o" unicode="o" 
d="M493 265c0 -144 -129 -273 -260 -273c-98 0 -166 73 -166 172c0 140 128 278 261 278c94 0 165 -70 165 -177zM246 55c108 0 173 122 173 215c0 71 -44 111 -104 111c-101 0 -171 -104 -171 -210c0 -77 45 -116 102 -116z" />
    <glyph glyph-name="p" unicode="p" horiz-adv-x="483" 
d="M160 45l-50 -240h-76l132 625h74l-9 -46c68 47 137 54 165 54c87 0 108 -98 108 -152c0 -156 -114 -294 -229 -294c-61 0 -100 34 -115 53zM220 325l-45 -215c12 -38 38 -57 75 -57c82 0 174 92 174 204c0 72 -40 118 -97 118c-27 0 -67 -11 -107 -50z" />
    <glyph glyph-name="q" unicode="q" horiz-adv-x="483" 
d="M501 438l-134 -633h-76l51 244c-63 -48 -117 -57 -151 -57c-85 0 -120 84 -120 158c0 149 115 288 228 288c66 0 102 -40 115 -61l13 61h74zM362 134l32 146c2 8 2 11 2 15c0 3 -2 32 -19 55c-14 19 -34 25 -53 25c-83 0 -174 -92 -174 -203c0 -72 40 -119 96 -119
c32 0 69 15 102 53c10 10 10 12 14 28z" />
    <glyph glyph-name="r" unicode="r" horiz-adv-x="320" 
d="M186 175l-37 -175h-74l92 433h71l-17 -80c29 28 84 83 178 85l-14 -66c-70 -2 -115 -38 -132 -54c-46 -44 -52 -76 -67 -143z" />
    <glyph glyph-name="s" unicode="s" horiz-adv-x="360" 
d="M409 412l-25 -64c-44 26 -83 34 -125 34c-90 0 -90 -65 -90 -68c0 -37 33 -44 77 -53c39 -8 121 -25 121 -111c0 -45 -33 -158 -185 -158c-63 0 -115 20 -148 43l26 67c47 -40 102 -47 135 -47c85 0 99 55 99 74c0 41 -34 48 -86 59c-31 7 -112 24 -112 105
c0 34 24 149 185 149c53 0 90 -10 128 -30z" />
    <glyph glyph-name="t" unicode="t" horiz-adv-x="339" 
d="M246 372l-52 -248c-2 -8 -3 -14 -3 -25c0 -30 11 -44 34 -44c25 0 58 9 91 33l3 -59c-19 -9 -77 -37 -147 -37c-29 0 -59 11 -59 74c0 22 2 31 11 75c3 16 42 197 49 231h-77l12 58h79l27 123h71l-27 -123h130l-12 -58h-130z" />
    <glyph glyph-name="u" unicode="u" horiz-adv-x="483" 
d="M500 430l-91 -430h-74l10 49c-52 -37 -113 -57 -177 -57c-33 0 -77 8 -77 70c0 21 2 30 5 44l69 324h76l-68 -322c0 -1 -3 -14 -3 -22c0 -27 17 -36 63 -36c65 0 119 40 131 98l60 282h76z" />
    <glyph glyph-name="v" unicode="v" horiz-adv-x="431" 
d="M509 430l-249 -430h-89l-67 430h80l31 -214c7 -47 13 -90 13 -139v-20l1 -1c18 59 164 308 203 374h77z" />
    <glyph glyph-name="w" unicode="w" horiz-adv-x="640" 
d="M718 430l-221 -430h-87l-12 144c-5 58 -8 99 -8 159c0 25 1 51 4 69h-1c-11 -51 -81 -188 -128 -281c-12 -24 -39 -78 -46 -91h-76l-39 430h78l14 -172c3 -36 6 -78 6 -134c0 -36 0 -48 -3 -66h1c22 80 163 349 175 372h69l14 -174c1 -8 8 -101 8 -150
c0 -17 -1 -36 -2 -48h1c10 34 40 100 68 155l109 217h76z" />
    <glyph glyph-name="x" unicode="x" horiz-adv-x="431" 
d="M295 222l136 -222h-88l-93 176l-163 -176h-87l225 222l-128 208h88l88 -151c2 3 6 7 10 11l136 140h88z" />
    <glyph glyph-name="y" unicode="y" horiz-adv-x="431" 
d="M509 430l-302 -517c-68 -116 -120 -116 -143 -116c-21 0 -46 3 -67 8l9 66c29 -11 64 -12 70 -12c15 0 31 0 66 59c17 27 32 54 48 82l-85 430h80c23 -117 52 -263 52 -341c0 -11 -2 -33 -2 -33c11 39 43 102 77 164c2 5 97 171 119 210h78z" />
    <glyph glyph-name="z" unicode="z" horiz-adv-x="408" 
d="M448 381l-313 -320h82c12 0 24 1 36 1h138l-13 -62h-352c1 7 5 22 6 27c3 14 3 16 10 22l317 322h-75c-12 0 -24 -1 -36 -1h-130l12 60h336c-1 -6 -5 -24 -5 -28c-3 -10 -3 -12 -13 -21z" />
    <glyph glyph-name="endash" unicode="&#x2013;" 
d="M532 296l-13 -61h-469l13 61h469z" />
    <glyph glyph-name="emdash" unicode="&#x2014;" horiz-adv-x="940" 
d="M1002 296l-13 -61h-939l13 61h939z" />
    <glyph glyph-name="hungarumlaut" unicode="&#x2dd;" 
d="M382 694l-112 -176h-61l97 176h76zM539 694l-112 -176h-61l97 176h76z" />
    <glyph glyph-name="tilde" unicode="&#x2dc;" 
d="M469 655h61c-14 -66 -66 -117 -117 -117c-26 0 -44 15 -62 30c-13 11 -31 26 -52 26c-34 0 -45 -51 -46 -56h-61c15 66 66 117 117 117c18 0 34 -6 59 -27c14 -12 33 -29 55 -29c31 0 43 39 46 56z" />
    <glyph glyph-name="dieresis" unicode="&#xa8;" 
d="M324 658l-17 -81h-81l17 81h81zM506 658l-18 -81h-81l18 81h81z" />
    <glyph glyph-name="space" unicode=" " horiz-adv-x="313" 
 />
  </font>
</defs>
</svg>
