<?xml version="1.0" standalone="no"?>
<!DOCTYPE svg PUBLIC "-//W3C//DTD SVG 1.1//EN" "http://www.w3.org/Graphics/SVG/1.1/DTD/svg11.dtd" >
<svg>
<metadata>
Created by FontForge 20060822 at Fri Oct  6 18:24:47 2006
 By Wojciech Mula,,,
Copyright (C) 1997 American Mathematical Society. All Rights Reserved
</metadata>
<defs>
<font id="CMSSI10" horiz-adv-x="500" >
  <font-face 
    font-family="Computer Modern"
    font-weight="500"
    font-style="italic"
    font-stretch="normal"
    units-per-em="1000"
    panose-1="2 0 6 3 0 0 0 0 0 0"
    ascent="800"
    descent="-200"
    x-height="444"
    cap-height="694"
    bbox="-97 -250 1077 759"
    underline-thickness="0"
    underline-position="0"
    slope="-12"
    stemh="61"
    stemv="80"
    unicode-range="U+0020-U+FB04"
  />
    <missing-glyph />
    <glyph glyph-name="ff" unicode="ff" horiz-adv-x="583" 
d="M258 386l-82 -386h-75l82 386h-74l12 58h74l21 95c19 89 102 166 201 166c25 0 52 -4 77 -11l-14 -67c-33 16 -64 17 -77 17c-51 0 -100 -27 -110 -77l-26 -123h113l-12 -58h-110zM535 386l-82 -386h-75l115 539c19 87 101 166 201 166c25 0 52 -4 77 -11l-14 -67
c-33 16 -64 17 -77 17c-51 0 -100 -27 -110 -77l-26 -123h113l-12 -58h-110z" />
    <glyph glyph-name="fi" unicode="fi" horiz-adv-x="536" 
d="M604 695l-17 -83h-83l17 83h83zM378 0l94 444h75l-94 -444h-75zM294 567l-27 -123h121l-12 -58h-118l-82 -386h-75l82 386h-74l12 58h74l22 99c19 85 89 162 167 162c18 0 56 -5 56 -15l-13 -64c-15 12 -36 18 -56 18c-15 0 -62 -5 -77 -77z" />
    <glyph glyph-name="fl" unicode="fl" horiz-adv-x="536" 
d="M258 386l-82 -386h-75l82 386h-74l12 58h74l22 99c19 85 89 162 167 162c18 0 56 -5 56 -15l-13 -62c-4 3 -27 16 -56 16c-15 0 -61 -5 -77 -77l-27 -123h121l-12 -58h-118zM601 694l-148 -694h-75l148 694h75z" />
    <glyph glyph-name="ffi" unicode="ffi" horiz-adv-x="813" 
d="M882 695l-17 -83h-83l17 83h83zM656 0l94 444h75l-94 -444h-75zM379 0l115 540c18 86 88 165 168 165c19 0 39 -3 57 -10l-14 -68c-5 4 -26 17 -56 17c-15 0 -61 -5 -77 -77l-27 -123h121l-12 -58h-118l-82 -386h-75zM258 386l-82 -386h-75l82 386h-74l12 58h74l21 95
c20 94 100 166 183 166c34 0 60 -8 67 -11l-14 -66c-11 6 -35 16 -66 16c-18 0 -77 -6 -92 -77l-27 -123h121l-12 -58h-118z" />
    <glyph glyph-name="ffl" unicode="ffl" horiz-adv-x="813" 
d="M258 386l-82 -386h-75l82 386h-74l12 58h74l21 95c20 94 100 166 183 166c34 0 60 -8 67 -11l-14 -66c-11 6 -35 16 -66 16c-18 0 -77 -6 -92 -77l-27 -123h121l-12 -58h-118zM879 694l-148 -694h-75l148 694h75zM536 386l-82 -386h-75l115 540c18 86 88 165 168 165
c18 0 56 -5 56 -15l-13 -62c-4 3 -27 16 -56 16c-15 0 -61 -5 -77 -77l-27 -123h121l-12 -58h-118z" />
    <glyph glyph-name="Gamma" unicode="&#x393;" horiz-adv-x="541" 
d="M316 627l-133 -627h-89l147 691h405l-14 -65h-162c-12 0 -24 1 -36 1h-118z" />
    <glyph glyph-name="Delta" unicode="&#x394;" horiz-adv-x="833" 
d="M609 694l181 -694h-748l476 694h91zM379 380l-203 -297h494l-82 317c-17 64 -43 168 -50 224c-23 -46 -107 -167 -159 -244z" />
    <glyph glyph-name="Theta" unicode="&#x398;" horiz-adv-x="777" 
d="M804 430c0 -232 -207 -452 -420 -452c-151 0 -264 114 -264 283c0 230 207 455 420 455c156 0 264 -121 264 -286zM397 40c163 0 323 180 323 388c0 153 -92 227 -193 227c-169 0 -324 -195 -324 -392c0 -133 80 -223 194 -223zM664 389l-18 -83h-385l18 83h385z" />
    <glyph glyph-name="Lambda" unicode="&#x39b;" horiz-adv-x="611" 
d="M270 310l-168 -310h-74l381 694h87l86 -694h-94l-35 289c-7 57 -12 114 -18 171c-7 78 -9 124 -9 138c0 5 1 21 1 21h-1c-4 -12 -25 -58 -42 -91z" />
    <glyph glyph-name="Xi" unicode="&#x39e;" horiz-adv-x="666" 
d="M765 688l-16 -75h-125c-53 0 -108 1 -161 1s-108 -1 -161 -1h-125l16 75h572zM640 75l-16 -75h-582l16 75h127c54 0 110 -1 164 -1s109 1 163 1h128zM195 395h444l-16 -74h-444z" />
    <glyph glyph-name="Pi" unicode="&#x3a0;" horiz-adv-x="708" 
d="M760 691l-147 -691h-89l134 630h-341l-134 -630h-89l147 691h519z" />
    <glyph glyph-name="Sigma" unicode="&#x3a3;" horiz-adv-x="722" 
d="M465 347l-252 -278h191c12 0 24 1 36 1h240l-15 -70h-609l303 335l-169 295l13 64h609l-13 -65h-259c-12 0 -24 1 -36 1h-201z" />
    <glyph glyph-name="Upsilon" unicode="&#x3a5;" horiz-adv-x="777" 
d="M515 382l-82 -382h-89l87 416c7 32 12 78 12 109c0 42 -5 124 -89 124c-56 0 -93 -51 -102 -94h-78c22 98 113 161 192 161c93 0 129 -72 129 -182c0 -25 0 -27 -2 -34v-4h1c32 87 96 220 220 220c83 0 129 -61 129 -127c0 -14 -2 -22 -4 -34h-78c2 8 2 19 2 23
c0 40 -21 71 -64 71c-111 0 -157 -141 -184 -267z" />
    <glyph glyph-name="Phi" unicode="&#x3a6;" horiz-adv-x="722" 
d="M546 694l-22 -106c140 -15 219 -102 219 -201c0 -134 -146 -265 -322 -281l-22 -106h-83l23 107c-119 11 -214 91 -214 200c0 129 139 261 316 280l22 107h83zM351 168l77 358c-157 -25 -216 -138 -216 -214c0 -93 72 -134 139 -144zM511 527l-76 -360
c146 19 222 127 222 216c0 78 -58 133 -146 144z" />
    <glyph glyph-name="Psi" unicode="&#x3a8;" horiz-adv-x="777" 
d="M575 694l-112 -524c113 27 169 127 194 245c34 156 56 198 123 198h71l-13 -61c-67 -6 -85 -83 -99 -145c-33 -138 -110 -274 -289 -301l-23 -106h-83l23 107c-135 19 -166 120 -166 205c0 3 0 44 12 102c7 34 9 58 9 68c0 66 -31 69 -49 70l13 61h71c27 0 59 0 59 -68
c0 -19 -3 -50 -16 -112c-10 -44 -15 -77 -15 -111c0 -42 8 -128 95 -152l112 524h83z" />
    <glyph glyph-name="Omega" unicode="&#x3a9;" horiz-adv-x="722" 
d="M692 71l-15 -71h-245c17 75 54 135 117 225c59 85 129 185 129 275c0 102 -82 155 -179 155c-101 0 -262 -68 -262 -258c0 -49 8 -88 31 -174c10 -34 28 -100 28 -158c0 -33 -1 -38 -7 -65h-245l15 71h85c12 0 24 -1 36 -1h53c-1 28 -4 60 -37 150
c-31 82 -47 127 -47 187c0 185 192 309 363 309c155 0 256 -93 256 -210c0 -100 -72 -190 -152 -290c-67 -84 -85 -117 -98 -146h53c12 0 24 1 36 1h85z" />
    <glyph glyph-name="dotlessi" unicode="&#x131;" horiz-adv-x="238" 
d="M250 444l-94 -444h-75l94 444h75z" />
    <glyph glyph-name="dotlessj" unicode="&#xf6be;" horiz-adv-x="266" 
d="M278 444l-108 -508c-17 -79 -83 -141 -155 -141c-26 0 -72 6 -112 34l34 61c18 -25 46 -31 67 -31c32 0 79 17 90 68l109 517h75z" />
    <glyph glyph-name="grave" unicode="`" 
d="M345 527l-115 167h78l98 -167h-61z" />
    <glyph glyph-name="acute" unicode="&#xb4;" 
d="M564 694l-186 -167h-61l169 167h78z" />
    <glyph glyph-name="caron" unicode="&#x2c7;" 
d="M561 654l-177 -167h-62l-106 167h61l85 -123l138 123h61z" />
    <glyph glyph-name="breve" unicode="&#x2d8;" 
d="M504 694h61c-23 -107 -119 -178 -206 -178c-84 0 -135 64 -135 139c0 15 0 18 4 39h61c-2 -9 -2 -11 -2 -24c0 -48 33 -87 87 -87c55 0 117 46 130 111z" />
    <glyph glyph-name="macron" unicode="&#xaf;" 
d="M564 631l-13 -64h-361l13 64h361z" />
    <glyph glyph-name="ring" unicode="&#x2da;" horiz-adv-x="737" 
d="M611 623c0 -49 -61 -96 -130 -96c-62 0 -96 34 -96 71c0 48 60 96 130 96c58 0 96 -30 96 -71zM490 569c63 0 65 46 65 50c0 29 -29 33 -48 33c-58 0 -65 -38 -65 -50c0 -26 22 -33 48 -33z" />
    <glyph glyph-name="cedilla" unicode="&#xb8;" horiz-adv-x="444" 
d="M275 -24l-101 -168h-70l110 168h61z" />
    <glyph glyph-name="germandbls" unicode="&#xdf;" horiz-adv-x="480" 
d="M416 411c23 -19 80 -64 80 -172c0 -158 -124 -250 -223 -250c-23 0 -54 4 -85 18l34 58c29 -15 57 -15 64 -15c67 0 133 71 133 185c0 84 -43 146 -124 148l12 61c113 2 161 86 161 133c0 40 -28 67 -79 67c-26 0 -98 -11 -115 -92l-117 -552h-75l118 557
c17 80 105 148 202 148c91 0 144 -58 144 -120c0 -11 -2 -105 -130 -174z" />
    <glyph glyph-name="ae" unicode="&#xe6;" horiz-adv-x="722" 
d="M740 219h-275c-17 0 -18 -1 -20 -11c-2 -13 -2 -22 -2 -28c0 -70 39 -130 112 -130c29 0 88 8 149 56c-2 -15 -5 -52 -7 -65c-55 -37 -109 -52 -156 -52c-80 0 -126 43 -148 77c-35 -42 -90 -56 -106 -61c-44 -11 -94 -16 -128 -16c-19 0 -45 0 -69 27
c-14 17 -22 44 -22 69c0 149 242 159 307 162c13 65 13 67 13 76c0 15 -5 79 -68 79c-55 0 -107 -16 -162 -50c1 4 5 37 8 66c52 26 101 43 166 43c72 0 109 -39 124 -78c43 43 107 78 169 78c53 0 84 -25 100 -47c24 -34 26 -80 26 -102c0 -20 -3 -54 -11 -93zM463 274h229
c1 7 1 10 1 21c0 16 0 105 -81 105c-61 0 -123 -63 -149 -126zM364 191c-16 0 -222 -2 -222 -87c0 -25 22 -54 80 -54c13 0 116 0 132 76c2 9 7 43 10 65z" />
    <glyph glyph-name="oe" unicode="&#x153;" horiz-adv-x="777" 
d="M796 219h-276c-17 0 -18 -1 -20 -10c-2 -13 -2 -25 -2 -28c0 -71 39 -131 113 -131c23 0 85 5 149 56c-2 -15 -5 -52 -7 -65c-59 -39 -113 -52 -157 -52c-64 0 -127 29 -161 101c-65 -78 -144 -101 -196 -101c-92 0 -167 69 -167 182c0 148 132 290 267 290
c73 0 127 -42 154 -99c42 53 115 99 188 99c46 0 78 -20 97 -43c16 -21 29 -56 29 -106c0 -20 -3 -54 -11 -93zM518 274h230c1 6 1 17 1 20c0 32 -8 106 -81 106c-57 0 -120 -54 -150 -126zM252 50c108 0 180 128 180 232c0 81 -49 118 -106 118c-100 0 -181 -103 -181 -225
c0 -98 61 -125 107 -125z" />
    <glyph glyph-name="oslash" unicode="&#xf8;" 
d="M568 527l-94 -122c41 -46 46 -105 46 -130c0 -153 -137 -286 -272 -286c-25 0 -54 4 -83 19l-93 -120l-46 30l95 123c-41 43 -48 95 -48 128c0 142 132 292 274 292c9 0 44 0 85 -20l89 116zM166 100l223 287c-17 9 -36 13 -55 13c-111 0 -186 -125 -186 -229
c0 -10 0 -44 18 -71zM428 347l-221 -286c17 -8 35 -11 53 -11c107 0 185 108 185 225c0 13 -1 44 -17 72z" />
    <glyph glyph-name="AE" unicode="&#xc6;" horiz-adv-x="861" 
d="M241 222l-138 -222h-75l431 694h492l-13 -65h-153c-12 0 -24 1 -36 1h-108l-51 -239h270l-13 -61h-270l-55 -260h170c12 0 24 1 36 1h105l-15 -71h-399l47 222h-225zM495 630l-219 -352h202l75 352h-58z" />
    <glyph glyph-name="OE" unicode="&#x152;" horiz-adv-x="972" 
d="M629 330l-55 -260h209c12 0 24 1 36 1h125l-15 -71h-410c-22 0 -37 -1 -91 -12c-29 -7 -49 -10 -74 -10c-143 0 -262 108 -262 283c0 231 208 455 419 455c10 0 28 0 70 -10c49 -11 63 -12 86 -12h395l-13 -65h-182c-12 0 -24 1 -36 1h-138l-51 -239h329l-13 -61h-329z
M512 192l65 308c11 52 11 71 11 84c0 37 -4 71 -86 71c-160 0 -321 -174 -321 -381c0 -128 69 -235 190 -235c76 0 113 21 141 153z" />
    <glyph glyph-name="Oslash" unicode="&#xd8;" horiz-adv-x="777" 
d="M800 727l-71 -90c62 -68 75 -151 75 -207c0 -232 -207 -452 -420 -452c-37 0 -89 7 -145 41l-66 -84l-48 32l70 89c-61 66 -75 147 -75 205c0 230 207 455 420 455c19 0 79 0 145 -41l66 84zM243 117l397 502c-33 25 -73 36 -113 36c-171 0 -322 -192 -322 -397
c0 -22 0 -84 38 -141zM681 576l-397 -502c16 -12 56 -35 113 -35c173 0 322 189 322 394c0 35 -4 90 -38 143z" />
    <glyph glyph-name="suppress" horiz-adv-x="238" 
d="M318 343l-250 -77l-7 55l250 77z" />
    <glyph glyph-name="exclam" unicode="!" horiz-adv-x="319" 
d="M349 694l-119 -519h-66l101 519h84zM118 0l18 83h83l-18 -83h-83z" />
    <glyph glyph-name="quotedblright" unicode="&#x201d;" 
d="M240 601l-62 -115h-41l51 125h-25l17 83h83c-3 -17 -7 -34 -10 -50c-7 -30 -7 -32 -13 -43zM434 601l-62 -115h-41l51 125h-25l17 83h83c-3 -17 -7 -34 -10 -50c-7 -30 -7 -32 -13 -43z" />
    <glyph glyph-name="numbersign" unicode="#" horiz-adv-x="833" 
d="M547 130l-147 -305c-6 -13 -9 -19 -21 -19c-11 0 -20 9 -20 20c0 3 0 5 7 18l137 286h-185l-147 -305c-6 -13 -9 -19 -21 -19c-11 0 -20 9 -20 20c0 3 0 5 7 18l137 286h-153c-14 0 -33 0 -33 20s19 20 33 20h173l77 160h-207c-14 0 -33 0 -33 20s19 20 33 20h227
l147 306c4 8 9 18 21 18s20 -9 20 -20c0 -4 0 -6 -6 -17l-138 -287h185l147 306c4 8 9 18 21 18s20 -9 20 -20c0 -4 0 -6 -6 -17l-138 -287h153c15 0 33 0 33 -20s-18 -20 -33 -20h-173l-76 -160h206c14 0 34 0 34 -20s-20 -20 -34 -20h-227zM523 170l77 160h-185l-76 -160
h184z" />
    <glyph glyph-name="dollar" unicode="$" 
d="M415 640l-51 -241c95 -20 125 -94 125 -158c0 -121 -101 -232 -211 -249l-11 -48h-58l10 46c-39 3 -107 17 -163 69l27 66c43 -43 93 -64 150 -71l56 268c-95 22 -128 86 -128 152c0 106 94 212 210 229l9 47h58l-9 -46c62 -5 101 -26 136 -56l-26 -65
c-43 45 -94 54 -124 57zM309 414l47 223c-78 -17 -118 -85 -118 -134c0 -20 8 -73 71 -89zM344 308l-53 -251c79 22 121 97 121 154c0 40 -19 82 -68 97z" />
    <glyph glyph-name="percent" unicode="%" horiz-adv-x="833" 
d="M804 710l-594 -751c-8 -9 -12 -15 -22 -15s-19 9 -19 20c0 7 1 8 11 21l593 750c8 10 12 15 21 15c11 0 20 -9 20 -20c0 -7 -3 -11 -10 -20zM814 206c0 -128 -94 -262 -187 -262c-65 0 -104 65 -104 142c0 130 97 261 189 261c67 0 102 -69 102 -141zM640 5
c50 0 104 104 104 196c0 43 -11 85 -45 85c-69 0 -103 -148 -103 -208c0 -41 14 -73 44 -73zM456 609c0 -136 -97 -262 -186 -262c-62 0 -104 59 -104 142c0 133 98 261 189 261c54 0 101 -50 101 -141zM283 408c51 0 104 108 104 196c0 29 -7 85 -45 85
c-68 0 -103 -144 -103 -207c0 -50 17 -74 44 -74z" />
    <glyph glyph-name="ampersand" unicode="&#x26;" horiz-adv-x="758" 
d="M689 405l58 -18c-60 -119 -142 -227 -248 -308c39 -34 72 -37 96 -37c56 0 114 17 119 18l-15 -67c-51 -13 -99 -15 -118 -15c-30 0 -88 2 -150 58c-1 0 -97 -58 -210 -58c-102 0 -152 68 -152 135c0 21 5 95 91 159l108 78c-4 24 -6 49 -6 74c0 169 92 292 190 292
c67 0 100 -56 100 -118c0 -66 -27 -127 -201 -254c25 -104 108 -221 108 -222c130 88 204 232 230 283zM335 461c0 -5 0 -55 6 -55c1 0 49 33 95 81c32 34 47 66 47 107c0 10 0 61 -45 61c-27 0 -103 -22 -103 -194zM282 292c-56 -40 -77 -55 -88 -65
c-31 -31 -44 -68 -44 -98c0 -43 24 -87 85 -87c39 0 102 10 155 39c-1 1 -72 92 -108 211z" />
    <glyph glyph-name="quoteright" unicode="&#x2019;" horiz-adv-x="277" 
d="M304 601l-62 -115h-41l51 125h-25l17 83h83c-3 -17 -7 -34 -10 -50c-7 -30 -7 -32 -13 -43z" />
    <glyph glyph-name="parenleft" unicode="(" horiz-adv-x="388" 
d="M430 750h61c-49 -43 -138 -120 -206 -271c-76 -167 -98 -329 -98 -432c0 -81 10 -197 92 -297h-61c-66 72 -107 173 -107 314c0 146 54 490 319 686z" />
    <glyph glyph-name="parenright" unicode=")" horiz-adv-x="388" 
d="M215 750h61c90 -96 107 -223 107 -314c0 -95 -19 -256 -106 -430c-50 -101 -124 -187 -213 -256h-61c305 251 305 681 305 703c0 90 -17 205 -93 297z" />
    <glyph glyph-name="asterisk" unicode="*" 
d="M378 481l-20 -133c-6 -38 -35 -42 -43 -42c-17 0 -29 11 -29 26c0 4 2 11 3 15l36 133l-105 -64c-26 -16 -28 -16 -36 -16c-9 0 -28 5 -28 29s18 33 29 38l127 61l-100 60c-9 5 -17 10 -17 25c0 26 25 43 42 43c5 0 12 0 25 -11l84 -70l19 130c6 37 28 45 44 45
c13 0 28 -8 28 -27c0 -1 0 -6 -4 -20l-35 -128l105 64c26 17 28 17 36 17c17 0 29 -12 29 -29c0 -18 -14 -31 -30 -39l-126 -60l100 -61c9 -6 17 -10 17 -24c0 -21 -22 -43 -43 -43c-7 0 -12 1 -24 11z" />
    <glyph glyph-name="plus" unicode="+" horiz-adv-x="777" 
d="M458 230l-61 -287c-3 -13 -5 -26 -21 -26c-9 0 -20 6 -20 21c0 1 4 17 4 19l57 273h-274c-14 0 -34 0 -34 20s20 20 34 20h283l61 286c3 15 6 27 22 27c10 0 20 -9 20 -20l-62 -293h274c14 0 33 0 33 -20s-19 -20 -33 -20h-283z" />
    <glyph glyph-name="comma" unicode="," horiz-adv-x="277" 
d="M198 83l-11 -51c-7 -30 -7 -32 -10 -37c-9 -17 -51 -92 -65 -120h-41l51 125h-25l18 83h83z" />
    <glyph glyph-name="hyphen" unicode="-" horiz-adv-x="333" 
d="M329 251l-12 -58h-265l12 58h265z" />
    <glyph glyph-name="period" unicode="." horiz-adv-x="277" 
d="M198 83l-18 -83h-83l18 83h83z" />
    <glyph glyph-name="slash" unicode="/" 
d="M591 711l-542 -943c-6 -10 -10 -18 -22 -18c-10 0 -20 8 -20 20c0 6 7 17 7 18l543 946c4 8 10 16 21 16c12 0 20 -9 20 -20c0 -1 0 -7 -7 -19z" />
    <glyph glyph-name="zero" unicode="0" 
d="M547 483c0 -62 -25 -232 -83 -348c-55 -109 -140 -157 -219 -157c-154 0 -154 160 -154 193c0 73 28 231 77 336c62 131 156 171 225 171c150 0 154 -152 154 -195zM258 39c78 0 127 82 153 149c24 63 62 232 62 301c0 23 0 128 -92 128c-76 0 -124 -70 -149 -134
c-27 -67 -64 -236 -64 -311c0 -25 0 -133 90 -133z" />
    <glyph glyph-name="one" unicode="1" 
d="M443 678l-132 -620h125l-12 -58h-329l12 58h125l111 521c-53 -21 -91 -23 -136 -25l12 58c47 2 135 5 204 66h20z" />
    <glyph glyph-name="two" unicode="2" 
d="M63 64l157 129c39 32 112 82 165 135c56 57 84 113 84 171c0 63 -38 115 -116 115c-80 0 -134 -63 -171 -155l-31 55c54 106 130 164 229 164c118 0 173 -79 173 -165c0 -103 -64 -167 -125 -218c-23 -19 -85 -63 -109 -81l-182 -144h109c12 0 24 1 36 1h182l-15 -71
h-399c9 40 9 42 13 64z" />
    <glyph glyph-name="three" unicode="3" 
d="M201 514l-24 54c40 51 120 110 215 110c93 0 153 -56 153 -125c0 -51 -40 -146 -151 -199c73 -25 105 -83 105 -139c0 -110 -116 -237 -257 -237c-128 0 -181 97 -181 105c0 3 13 39 21 59c31 -63 96 -103 172 -103c94 0 157 97 157 181c0 42 -16 104 -102 104h-73l13 61
c18 1 35 2 53 4c121 10 161 119 161 159c0 39 -27 72 -84 72c-47 0 -124 -23 -178 -106z" />
    <glyph glyph-name="four" unicode="4" 
d="M408 171l-36 -171h-79l36 171h-265c3 14 5 25 9 39c5 21 5 23 13 32l334 414h91l-90 -424h99l-13 -61h-99zM155 232h193l83 387h-2c-19 -73 -174 -264 -274 -387z" />
    <glyph glyph-name="five" unicode="5" 
d="M278 592l-43 -206c26 20 66 41 116 41c83 0 147 -67 147 -169c0 -155 -138 -280 -273 -280c-82 0 -142 43 -170 99l45 55c26 -74 93 -93 137 -93c112 0 174 120 174 228c0 68 -33 99 -74 99c-54 0 -100 -34 -129 -79h-66l78 369h335l-13 -64h-264z" />
    <glyph glyph-name="six" unicode="6" 
d="M555 658l-13 -59c-38 17 -71 21 -101 21c-118 0 -204 -128 -234 -240c51 48 116 82 186 82c113 0 120 -144 120 -164c0 -16 -2 -136 -80 -222c-59 -65 -116 -98 -186 -98c-56 0 -94 26 -114 54c-36 48 -40 115 -40 148c0 14 0 191 98 334c53 78 147 164 262 164
c33 0 63 -4 102 -20zM174 220c-3 -21 -3 -45 -3 -52c0 -26 0 -129 88 -129c78 0 134 72 155 146c9 36 18 67 18 107c0 19 -4 109 -91 109c-80 0 -155 -79 -167 -181z" />
    <glyph glyph-name="seven" unicode="7" 
d="M356 585h-190l15 71h415c-10 -52 -12 -61 -13 -63s-21 -21 -31 -32c-193 -193 -287 -417 -318 -572h-84c46 235 186 437 363 597h-121c-12 0 -24 -1 -36 -1z" />
    <glyph glyph-name="eight" unicode="8" 
d="M395 354c48 -16 104 -61 104 -139c0 -111 -117 -237 -254 -237c-100 0 -169 69 -169 162c0 95 71 179 178 215c-66 23 -94 72 -94 121c0 94 106 202 233 202c90 0 160 -56 160 -143c0 -90 -77 -156 -158 -181zM332 385c96 0 151 78 151 145c0 59 -41 90 -102 90
c-93 0 -151 -73 -151 -145c0 -61 43 -90 102 -90zM258 39c99 0 161 95 161 182c0 78 -57 103 -101 103c-91 0 -161 -87 -161 -183c0 -73 50 -102 101 -102z" />
    <glyph glyph-name="nine" unicode="9" 
d="M77 25l42 52c29 -28 57 -38 95 -38c90 0 179 95 218 238c-21 -19 -89 -83 -186 -83c-116 0 -121 150 -121 164c0 186 142 320 272 320c121 0 149 -113 149 -199c0 -26 -6 -208 -100 -341c-71 -102 -157 -160 -245 -160c-70 0 -102 27 -124 47zM465 437c4 29 4 33 4 57
s0 126 -84 126c-47 0 -88 -22 -125 -73c-47 -66 -54 -177 -54 -184c0 -10 1 -108 92 -108c82 0 156 84 167 182z" />
    <glyph glyph-name="colon" unicode=":" horiz-adv-x="277" 
d="M274 444l-17 -83h-83l17 83h83zM97 0l18 83h83l-18 -83h-83z" />
    <glyph glyph-name="semicolon" unicode=";" horiz-adv-x="277" 
d="M274 444l-17 -83h-83l17 83h83zM71 -125l51 125h-25l18 83h83l-11 -51c-7 -30 -7 -32 -10 -37c-9 -17 -51 -92 -65 -120h-41z" />
    <glyph glyph-name="exclamdown" unicode="&#xa1;" horiz-adv-x="319" 
d="M307 500l-17 -83h-83l17 83h83zM77 -194l119 519h66l-102 -519h-83z" />
    <glyph glyph-name="equal" unicode="=" horiz-adv-x="777" 
d="M762 330h-598c-14 0 -33 0 -33 20s19 20 33 20h598c15 0 33 0 33 -20s-18 -20 -33 -20zM719 130h-598c-14 0 -33 0 -33 20s19 20 33 20h598c14 0 34 0 34 -20s-20 -20 -34 -20z" />
    <glyph glyph-name="questiondown" unicode="&#xbf;" horiz-adv-x="472" 
d="M369 500l-17 -83h-83l17 83h83zM373 -89l10 -63c-81 -42 -152 -53 -203 -53c-81 0 -139 32 -139 114c0 56 25 118 68 153c115 93 131 178 148 263h66c-14 -72 -37 -193 -154 -297c-14 -13 -50 -46 -50 -114c0 -40 21 -58 74 -58c34 0 103 7 180 55z" />
    <glyph glyph-name="question" unicode="?" horiz-adv-x="472" 
d="M204 589l-10 63c35 20 96 53 179 53c27 0 163 0 163 -120c0 -92 -66 -140 -89 -157c-45 -32 -75 -65 -101 -102c-33 -49 -39 -80 -54 -151h-66c18 88 41 201 178 302c31 22 53 52 53 100c0 42 -22 67 -96 67c-52 0 -104 -16 -157 -55zM281 83l-18 -83h-83l18 83h83z" />
    <glyph glyph-name="at" unicode="@" horiz-adv-x="666" 
d="M580 85h48c-64 -57 -154 -96 -241 -96c-157 0 -266 117 -266 278c0 227 208 438 416 438c156 0 169 -127 169 -193c0 -22 -5 -170 -63 -266c-37 -62 -112 -126 -192 -126c-90 0 -144 78 -144 169c0 144 119 285 240 285c29 0 54 -8 79 -25c-3 19 -15 95 -103 95
c-158 0 -326 -175 -326 -368c0 -128 79 -226 204 -226c71 0 128 21 154 31c8 4 10 4 25 4zM464 181c72 0 150 108 150 217c0 65 -30 115 -80 115c-74 0 -151 -109 -151 -217c0 -62 29 -115 81 -115z" />
    <glyph glyph-name="A" unicode="A" horiz-adv-x="666" 
d="M525 694l113 -694h-92l-33 204h-291l-120 -204h-74l408 694h89zM457 625l-201 -365h247z" />
    <glyph glyph-name="B" unicode="B" horiz-adv-x="666" 
d="M245 694h237c126 0 214 -66 214 -149c0 -90 -99 -158 -202 -182c90 -14 159 -72 159 -148c0 -103 -130 -215 -292 -215h-264zM263 391h116c152 0 238 82 238 143c0 60 -76 104 -175 104h-126zM192 56h153c123 0 227 74 227 152c0 70 -78 122 -177 122h-145z" />
    <glyph glyph-name="C" unicode="C" horiz-adv-x="638" 
d="M722 681l-32 -81h-1c-51 41 -104 52 -158 52c-161 0 -310 -193 -310 -388c0 -109 52 -222 184 -222c85 0 127 18 199 61l-9 -69c-89 -50 -142 -56 -204 -56c-179 0 -260 141 -260 281c0 225 192 457 415 457c87 0 136 -19 176 -35z" />
    <glyph glyph-name="D" unicode="D" horiz-adv-x="722" 
d="M244 694h262c150 0 241 -121 241 -268c0 -222 -191 -426 -388 -426h-263zM318 638l-124 -582h153c179 0 314 182 314 370c0 115 -63 212 -191 212h-152z" />
    <glyph glyph-name="E" unicode="E" horiz-adv-x="597" 
d="M253 329l-55 -259h209c12 0 24 1 36 1h126l-15 -71h-460l147 691h446l-14 -65h-183c-12 0 -24 1 -36 1h-138l-50 -237h330l-13 -61h-330z" />
    <glyph glyph-name="F" unicode="F" horiz-adv-x="569" 
d="M250 315l-67 -315h-89l147 691h432l-14 -65h-176c-12 0 -24 1 -36 1h-131l-53 -251h302l-13 -61h-302z" />
    <glyph glyph-name="G" unicode="G" horiz-adv-x="666" 
d="M663 299l-58 -272c-90 -39 -165 -49 -218 -49c-160 0 -256 127 -256 281c0 227 195 457 414 457c71 0 128 -13 188 -50l-32 -80c-44 42 -91 66 -170 66c-160 0 -310 -193 -310 -388c0 -125 66 -222 180 -222c40 0 91 8 123 18c10 3 11 4 14 19l34 159h-132l12 61h211z
" />
    <glyph glyph-name="H" unicode="H" horiz-adv-x="708" 
d="M761 694l-148 -694h-89l70 330h-341l-70 -330h-89l148 694h89l-65 -303h341l65 303h89z" />
    <glyph glyph-name="I" unicode="I" horiz-adv-x="277" 
d="M331 694l-148 -694h-89l148 694h89z" />
    <glyph glyph-name="J" unicode="J" horiz-adv-x="472" 
d="M536 694l-117 -550c-14 -68 -73 -166 -211 -166c-85 0 -138 30 -162 43l30 74c41 -54 96 -56 116 -56c28 0 120 7 142 111l116 544h86z" />
    <glyph glyph-name="K" unicode="K" horiz-adv-x="694" 
d="M458 420l193 -420h-92l-167 364l-163 -137l-48 -227h-85l148 694h85l-79 -371l441 371h94z" />
    <glyph glyph-name="L" unicode="L" horiz-adv-x="541" 
d="M331 694l-134 -630h48c89 0 179 1 268 2l-14 -66h-405l148 694h89z" />
    <glyph glyph-name="M" unicode="M" horiz-adv-x="875" 
d="M922 694l-148 -694h-78l132 620l-34 -61c-30 -54 -34 -60 -119 -203l-199 -334h-72l-60 351c-12 71 -31 183 -33 246h-1l-132 -619h-78l148 694h113l62 -363c12 -71 30 -173 34 -237h1c13 34 73 134 146 258l203 342h115z" />
    <glyph glyph-name="N" unicode="N" horiz-adv-x="708" 
d="M759 694l-148 -694h-125l-179 619h-1l-132 -619h-78l148 694h124l179 -619h1l133 619h78z" />
    <glyph glyph-name="O" unicode="O" horiz-adv-x="736" 
d="M762 436c0 -241 -202 -458 -399 -458c-147 0 -244 120 -244 277c0 229 196 461 401 461c135 0 242 -107 242 -280zM377 43c158 0 299 214 299 401c0 129 -73 208 -170 208c-144 0 -295 -171 -295 -389c0 -147 78 -220 166 -220z" />
    <glyph glyph-name="P" unicode="P" horiz-adv-x="638" 
d="M246 289l-61 -289h-89l148 694h249c121 0 197 -74 197 -166c0 -125 -138 -239 -276 -239h-168zM318 638l-62 -291h141c138 0 212 94 212 174c0 75 -60 117 -150 117h-141z" />
    <glyph glyph-name="Q" unicode="Q" horiz-adv-x="736" 
d="M522 -125l-60 121c-38 -14 -75 -18 -99 -18c-147 0 -244 120 -244 277c0 229 196 461 401 461c135 0 242 -107 242 -280c0 -121 -55 -290 -222 -403l85 -158h-103zM453 194l57 -105c107 78 166 221 166 346c0 146 -81 217 -170 217c-158 0 -301 -201 -301 -396
c0 -123 67 -214 172 -214c20 0 39 3 58 9l-70 143h88z" />
    <glyph glyph-name="R" unicode="R" horiz-adv-x="645" 
d="M488 326l129 -326h-89l-120 317h-159l-67 -317h-86l148 694h241c127 0 215 -69 215 -158c0 -77 -71 -171 -212 -210zM318 638l-56 -260h145c141 0 212 84 212 152c0 55 -45 108 -158 108h-143z" />
    <glyph glyph-name="S" unicode="S" horiz-adv-x="555" 
d="M607 667l-32 -81c-44 46 -91 64 -156 64c-96 0 -173 -68 -173 -140s64 -89 105 -100c91 -24 118 -31 151 -68c38 -43 42 -90 42 -112c0 -121 -121 -252 -274 -252c-83 0 -164 28 -216 70l32 80c57 -59 135 -81 198 -81c103 0 177 84 177 157c0 21 -6 46 -26 70
c-20 23 -38 27 -111 46c-59 16 -87 23 -123 61c-30 32 -39 73 -39 102c0 110 116 233 272 233c70 0 118 -15 173 -49z" />
    <glyph glyph-name="T" unicode="T" horiz-adv-x="680" 
d="M518 624l-133 -624h-89l133 624h-90c-12 0 -24 -1 -36 -1h-135l14 65h608l-14 -65h-133c-12 0 -24 1 -36 1h-89z" />
    <glyph glyph-name="U" unicode="U" horiz-adv-x="687" 
d="M741 694l-100 -466c-29 -137 -164 -250 -299 -250c-120 0 -205 84 -205 201c0 27 1 32 5 49l100 466h89l-100 -466c-1 -4 -5 -30 -5 -54c0 -106 70 -140 128 -140c86 0 182 68 209 194l100 466h78z" />
    <glyph glyph-name="V" unicode="V" horiz-adv-x="666" 
d="M800 694l-421 -694h-92l-126 694h93l69 -387c7 -40 13 -81 19 -121c13 -87 13 -92 13 -114h1c4 10 15 38 162 283l204 339h78z" />
    <glyph glyph-name="W" unicode="W" horiz-adv-x="944" 
d="M1077 694l-351 -694h-87l-28 372c-5 63 -11 173 -11 215v31h-1c-15 -48 -130 -277 -144 -305l-157 -313h-81l-56 694h86l26 -343c6 -76 11 -152 11 -228c0 -10 0 -40 -1 -47h1c5 18 30 76 74 166l158 322c1 1 60 117 66 130h81l27 -354c12 -160 12 -219 12 -230
c0 -26 0 -28 -1 -36h1c18 52 99 215 118 252l184 368h73z" />
    <glyph glyph-name="X" unicode="X" horiz-adv-x="666" 
d="M447 366l205 -366h-104l-157 306l-281 -306h-96l346 366l-185 328h105l138 -261l244 261h96z" />
    <glyph glyph-name="Y" unicode="Y" horiz-adv-x="666" 
d="M811 694l-376 -416l-59 -278h-86l59 278l-199 416h105l24 -49l105 -226c11 -24 24 -52 31 -72c30 38 62 75 95 111l213 236h88z" />
    <glyph glyph-name="Z" unicode="Z" horiz-adv-x="611" 
d="M684 643l-501 -579h32c87 0 176 2 263 2h96l-14 -66h-504c1 4 6 27 6 29c3 13 3 15 12 24l502 580h-137c-12 0 -24 -1 -36 -1h-200l13 62h485c-1 -5 -5 -25 -6 -28c-2 -12 -2 -14 -11 -23z" />
    <glyph glyph-name="bracketleft" unicode="[" horiz-adv-x="288" 
d="M321 689l-187 -878h92l-13 -61h-164l212 1000h164l-12 -61h-92z" />
    <glyph glyph-name="quotedblleft" unicode="&#x201c;" 
d="M419 694l-51 -125h25l-18 -83h-83c8 34 10 45 10 48c7 30 7 32 13 43l63 117h41zM613 694l-51 -125h25l-18 -83h-83c8 34 10 45 10 48c7 30 7 32 13 43l63 117h41z" />
    <glyph glyph-name="bracketright" unicode="]" horiz-adv-x="288" 
d="M345 750l-212 -1000h-164l13 61h91l187 878h-91l12 61h164z" />
    <glyph glyph-name="circumflex" unicode="&#x2c6;" 
d="M388 650l-138 -123h-61l177 167h62l106 -167h-61z" />
    <glyph glyph-name="dotaccent" unicode="&#x2d9;" horiz-adv-x="277" 
d="M328 680l-19 -89h-89l19 89h89z" />
    <glyph glyph-name="quoteleft" unicode="&#x2018;" horiz-adv-x="277" 
d="M327 694l-51 -125h25l-18 -83h-83c8 34 10 45 10 48c7 30 7 32 13 43l63 117h41z" />
    <glyph glyph-name="a" unicode="a" horiz-adv-x="480" 
d="M462 294l-63 -294h-75c2 8 5 26 7 35c-64 -41 -149 -46 -175 -46c-87 0 -91 80 -91 96c0 136 210 156 283 159c4 0 21 1 24 2c3 2 15 60 15 77s-6 79 -68 79c-64 0 -115 -21 -161 -50c1 4 5 37 8 66c44 22 94 43 166 43c85 0 133 -58 133 -131c0 -13 0 -22 -3 -36z
M349 130l13 64c-46 -2 -223 -10 -223 -90c0 -32 31 -54 81 -54c14 0 111 0 129 80z" />
    <glyph glyph-name="b" unicode="b" horiz-adv-x="516" 
d="M305 694l-64 -298c49 36 115 59 173 59c84 0 121 -82 121 -163c0 -164 -124 -303 -243 -303c-56 0 -94 24 -122 57l-10 -46h-78l148 694h75zM232 336l-47 -222c12 -40 39 -64 82 -64c113 0 189 114 189 227c0 77 -47 117 -106 117c-63 0 -108 -47 -118 -58z" />
    <glyph glyph-name="c" unicode="c" horiz-adv-x="444" 
d="M499 417l-26 -64c-45 33 -72 44 -132 44c-124 0 -185 -135 -185 -222c0 -71 38 -122 108 -122c73 0 129 29 168 54l-8 -67c-63 -37 -121 -51 -174 -51c-115 0 -173 89 -173 180c0 133 117 292 277 292c54 0 92 -6 145 -44z" />
    <glyph glyph-name="d" unicode="d" horiz-adv-x="516" 
d="M582 694l-148 -694h-78l11 52c-69 -56 -131 -63 -161 -63c-82 0 -130 74 -130 167c0 151 114 299 234 299c45 0 97 -16 134 -55l63 294h75zM385 134l40 191c2 8 2 11 2 13s-18 56 -84 56c-108 0 -188 -108 -188 -226c0 -96 64 -118 105 -118c65 0 120 58 125 84z" />
    <glyph glyph-name="e" unicode="e" horiz-adv-x="444" 
d="M461 219h-310c-3 -13 -3 -24 -3 -37c0 -81 47 -132 114 -132c66 0 128 30 164 56c-2 -15 -5 -52 -7 -65c-39 -25 -103 -52 -170 -52c-106 0 -172 79 -172 182c0 146 127 290 256 290c51 0 87 -21 106 -44c32 -40 32 -92 32 -110c0 -32 -6 -71 -10 -88zM168 274h248
c0 32 0 126 -95 126c-55 0 -118 -46 -153 -126z" />
    <glyph glyph-name="f" unicode="f" horiz-adv-x="305" 
d="M258 386l-82 -386h-75l82 386h-74l12 58h74l21 95c19 89 102 166 201 166c25 0 52 -4 77 -11l-14 -67c-33 16 -64 17 -77 17c-51 0 -100 -27 -110 -77l-26 -123h113l-12 -58h-110z" />
    <glyph glyph-name="g" unicode="g" 
d="M192 69h88c118 0 179 -35 179 -111c0 -111 -143 -164 -253 -164c-118 0 -195 53 -195 117c0 37 28 90 88 121c-9 13 -13 35 -13 50c0 18 5 62 50 110c-11 20 -16 43 -16 66c0 98 94 197 198 197c27 0 60 -7 88 -32c39 15 94 32 165 32c0 -9 -1 -45 -2 -51
c-1 -10 -2 -11 -6 -11c-16 0 -36 2 -53 2c-24 0 -53 -4 -75 -4c-1 0 -4 3 -5 3c8 -14 17 -39 17 -68c0 -100 -96 -197 -197 -197c-29 0 -59 7 -87 30c-12 -14 -19 -32 -19 -50c0 -40 31 -40 48 -40zM261 186c78 0 116 79 116 139c0 51 -33 73 -71 73
c-78 0 -116 -80 -116 -139c0 -51 33 -73 71 -73zM265 -3h-90c-75 0 -93 -61 -93 -78c0 -39 59 -68 136 -68c87 0 169 37 169 87c0 48 -61 59 -122 59z" />
    <glyph glyph-name="h" unicode="h" horiz-adv-x="516" 
d="M499 304l-64 -304h-78l65 307c0 2 2 18 2 21c0 50 -34 66 -81 66c-65 0 -112 -57 -136 -167l-48 -227h-78l148 694h74l-65 -311c26 27 81 72 157 72c80 0 110 -39 110 -100c0 -15 0 -23 -6 -51z" />
    <glyph glyph-name="i" unicode="i" horiz-adv-x="238" 
d="M307 680l-19 -89h-89l19 89h89zM81 0l94 444h75l-94 -444h-75z" />
    <glyph glyph-name="j" unicode="j" horiz-adv-x="266" 
d="M329 680l-19 -89h-89l19 89h89zM94 -69l109 513h75l-108 -508c-17 -79 -83 -141 -155 -141c-26 0 -72 6 -112 34l28 61c18 -21 42 -31 71 -31c22 0 43 6 61 19c23 18 27 35 31 53z" />
    <glyph glyph-name="k" unicode="k" horiz-adv-x="488" 
d="M339 272l132 -272h-82l-108 223l-98 -81l-30 -142h-69l148 694h72l-98 -458l248 208h89z" />
    <glyph glyph-name="l" unicode="l" horiz-adv-x="238" 
d="M304 694l-148 -694h-75l148 694h75z" />
    <glyph glyph-name="m" unicode="m" horiz-adv-x="794" 
d="M777 304l-64 -304h-78l65 307c0 2 2 18 2 21c0 53 -39 66 -81 66c-76 0 -117 -75 -137 -167l-48 -227h-78l65 307c0 2 2 18 2 21c0 53 -39 66 -81 66c-76 0 -117 -75 -137 -167l-48 -227h-78l96 450h72l-15 -71c22 24 81 76 161 76c86 0 106 -43 110 -83
c24 25 80 83 167 83c81 0 111 -39 111 -100c0 -23 -2 -33 -6 -51z" />
    <glyph glyph-name="n" unicode="n" horiz-adv-x="516" 
d="M499 304l-64 -304h-78l65 307c0 2 2 18 2 21c0 50 -34 66 -81 66c-65 0 -112 -57 -136 -167l-48 -227h-78l96 450h72l-15 -71c42 45 99 76 161 76c80 0 110 -39 110 -100c0 -15 0 -23 -6 -51z" />
    <glyph glyph-name="o" unicode="o" 
d="M522 275c0 -154 -139 -286 -274 -286c-107 0 -177 79 -177 180c0 143 133 292 276 292c108 0 175 -85 175 -186zM261 53c114 0 185 127 185 227c0 74 -45 120 -112 120c-103 0 -183 -105 -183 -223c0 -97 63 -124 110 -124z" />
    <glyph glyph-name="p" unicode="p" horiz-adv-x="516" 
d="M170 46l-51 -240h-78l135 638h75l-10 -49c47 35 115 60 177 60c79 0 117 -77 117 -162c0 -166 -125 -304 -243 -304c-71 0 -107 40 -122 57zM228 318l-40 -188c0 -2 -3 -13 -3 -14c0 -4 14 -66 82 -66c92 0 187 102 187 215c0 75 -43 126 -105 126c-20 0 -60 -5 -104 -43
c-12 -12 -13 -13 -17 -30z" />
    <glyph glyph-name="q" unicode="q" horiz-adv-x="516" 
d="M531 455l-138 -649h-78l51 243c-32 -24 -93 -60 -163 -60c-80 0 -127 72 -127 166c0 162 125 300 242 300c70 0 110 -45 124 -67l14 67h75zM388 137l30 143l4 18c0 1 0 93 -80 93c-89 0 -186 -98 -186 -214c0 -68 37 -127 105 -127c22 0 51 8 79 28c20 14 43 35 48 59z
" />
    <glyph glyph-name="r" unicode="r" horiz-adv-x="341" 
d="M424 455l-15 -67c-110 -3 -184 -89 -202 -154c-4 -15 -24 -111 -50 -234h-75l96 450h70l-19 -88h1c2 2 76 91 194 93z" />
    <glyph glyph-name="s" unicode="s" horiz-adv-x="383" 
d="M434 429l-25 -65h-1c-40 26 -79 38 -133 38c-100 0 -100 -71 -100 -73c0 -40 37 -48 77 -56c55 -12 72 -15 100 -37c9 -8 38 -34 38 -82c0 -41 -31 -165 -196 -165c-96 0 -158 42 -158 45c0 4 3 10 4 13l22 54c50 -41 108 -49 144 -49c110 0 110 79 110 80
c0 44 -46 54 -73 60c-60 12 -85 17 -110 42c-20 19 -33 42 -33 72c0 29 17 83 59 115c47 36 100 40 137 40c57 0 93 -10 138 -32z" />
    <glyph glyph-name="t" unicode="t" horiz-adv-x="361" 
d="M257 386l-55 -262c-1 -6 -3 -14 -3 -24c0 -47 27 -47 38 -47c26 0 61 8 97 33l4 -59c-49 -23 -101 -38 -154 -38c-38 0 -62 20 -62 77c0 38 50 263 63 320h-84l12 58h87l27 127h69l-27 -127h141l-12 -58h-141z" />
    <glyph glyph-name="u" unicode="u" horiz-adv-x="516" 
d="M529 444l-94 -444h-75l10 48c-55 -41 -128 -59 -185 -59c-75 0 -86 39 -86 76c0 14 1 28 4 41l72 338h78l-71 -336c-3 -14 -3 -21 -3 -24c0 -28 17 -40 68 -40c87 0 133 61 142 104l62 296h78z" />
    <glyph glyph-name="v" unicode="v" horiz-adv-x="461" 
d="M540 444l-266 -444h-88l-78 444h78l36 -213c1 -4 20 -118 20 -178l1 -1c5 13 13 36 106 194l117 198h74z" />
    <glyph glyph-name="w" unicode="w" horiz-adv-x="683" 
d="M762 444l-231 -444h-87l-18 198c-4 47 -8 102 -8 148c0 21 2 40 2 42h-1c-11 -37 -53 -122 -97 -209c-21 -43 -87 -169 -92 -179h-79l-43 444h76l17 -190c8 -90 8 -141 8 -151c0 -20 0 -39 -1 -45l1 -1c16 52 45 109 74 165l114 222h71l19 -207c5 -54 9 -97 9 -154v-28h1
c12 39 47 107 74 159l118 230h73z" />
    <glyph glyph-name="x" unicode="x" horiz-adv-x="461" 
d="M309 229l151 -229h-83l-110 188l-185 -188h-82l243 229l-143 215h83l104 -165l168 165h83z" />
    <glyph glyph-name="y" unicode="y" horiz-adv-x="461" 
d="M540 444l-329 -532c-70 -113 -111 -117 -140 -117c-16 0 -43 2 -70 8l8 65c26 -12 58 -16 75 -16c25 0 41 17 70 61c8 12 54 83 54 89c0 1 -3 10 -3 12l-97 430h79l34 -157c11 -52 29 -152 29 -204c0 -11 0 -18 -1 -25h1c9 35 48 106 79 161l136 225h75z" />
    <glyph glyph-name="z" unicode="z" horiz-adv-x="434" 
d="M477 396l-338 -335h92c12 0 24 1 36 1h148l-13 -62h-374c1 7 5 26 7 31c2 9 2 11 14 22l335 333h-84c-12 0 -24 -1 -36 -1h-140l12 59h358l-5 -28c-3 -10 -3 -11 -12 -20z" />
    <glyph glyph-name="endash" unicode="&#x2013;" 
d="M564 305l-13 -61h-499l13 61h499z" />
    <glyph glyph-name="emdash" unicode="&#x2014;" horiz-adv-x="1000" 
d="M1064 305l-13 -61h-999l13 61h999z" />
    <glyph glyph-name="hungarumlaut" unicode="&#x2dd;" 
d="M397 694l-116 -167h-61l99 167h78zM564 694l-116 -167h-61l99 167h78z" />
    <glyph glyph-name="tilde" unicode="&#x2dc;" 
d="M499 677h61c-18 -76 -75 -119 -123 -119c-28 0 -46 15 -71 34c-7 7 -29 24 -52 24c-24 0 -44 -22 -51 -58h-61c15 70 72 119 122 119c23 0 40 -9 64 -28c17 -14 36 -30 60 -30c29 0 45 31 51 58z" />
    <glyph glyph-name="dieresis" unicode="&#xa8;" 
d="M339 680l-18 -83h-83l18 83h83zM532 680l-17 -83h-83l17 83h83z" />
    <glyph glyph-name="space" unicode=" " horiz-adv-x="333" 
 />
  </font>
</defs>
</svg>
