<?xml version="1.0" standalone="no"?>
<!DOCTYPE svg PUBLIC "-//W3C//DTD SVG 1.1//EN" "http://www.w3.org/Graphics/SVG/1.1/DTD/svg11.dtd" >
<svg>
<metadata>
Created by FontForge 20060822 at Fri Oct  6 18:24:31 2006
 By Wojciech Mula,,,
Copyright (C) 1997 American Mathematical Society. All Rights Reserved
</metadata>
<defs>
<font id="CMSS8" horiz-adv-x="531" >
  <font-face 
    font-family="Computer Modern"
    font-weight="500"
    font-stretch="normal"
    units-per-em="1000"
    panose-1="2 0 6 3 0 0 0 0 0 0"
    ascent="800"
    descent="-200"
    x-height="444"
    cap-height="694"
    bbox="-65 -250 1062 761"
    underline-thickness="0"
    underline-position="0"
    stemh="66"
    stemv="87"
    unicode-range="U+0020-U+FB04"
  />
    <missing-glyph />
    <glyph glyph-name="ff" unicode="ff" horiz-adv-x="619" 
d="M190 381v-381h-84v381h-77v63h77v87c0 99 75 173 179 173c27 0 58 -4 84 -10v-73c-35 14 -62 17 -86 17c-28 0 -96 -7 -96 -79v-115h118v-63h-115zM484 381v-381h-84v531c0 99 75 173 179 173c27 0 58 -4 84 -10v-73c-35 14 -62 17 -86 17c-28 0 -96 -7 -96 -79v-115h118
v-63h-115z" />
    <glyph glyph-name="fi" unicode="fi" horiz-adv-x="569" 
d="M486 695v-90h-90v90h90zM483 444v-444h-84v444h84zM190 381v-381h-84v381h-77v63h77v88c0 103 66 172 143 172c33 0 61 -9 64 -10v-75c-22 15 -47 19 -64 19c-24 0 -62 -13 -62 -77v-117h126v-63h-123z" />
    <glyph glyph-name="fl" unicode="fl" horiz-adv-x="569" 
d="M190 381v-381h-84v381h-77v63h77v88c0 103 66 172 143 172c33 0 61 -9 64 -10v-73c-7 4 -32 17 -63 17c-30 0 -63 -17 -63 -77v-117h126v-63h-123zM483 694v-694h-84v694h84z" />
    <glyph glyph-name="ffi" unicode="ffi" horiz-adv-x="864" 
d="M782 695v-90h-90v90h90zM779 444v-444h-84v444h84zM485 381v-381h-84v532c0 100 63 172 144 172c32 0 39 -2 63 -9v-75c-9 6 -33 18 -63 18s-63 -17 -63 -77v-117h126v-63h-123zM190 381v-381h-84v381h-77v63h77v88c0 98 68 172 160 172c33 0 62 -7 73 -10v-73
c-24 11 -49 17 -74 17c-27 0 -78 -10 -78 -78v-116h126v-63h-123z" />
    <glyph glyph-name="ffl" unicode="ffl" horiz-adv-x="864" 
d="M190 381v-381h-84v381h-77v63h77v88c0 98 68 172 160 172c33 0 62 -7 73 -10v-73c-24 11 -49 17 -74 17c-27 0 -78 -10 -78 -78v-116h126v-63h-123zM779 694v-694h-84v694h84zM485 381v-381h-84v532c0 103 66 172 143 172c33 0 61 -9 64 -10v-73c-7 4 -32 17 -63 17
c-30 0 -63 -17 -63 -77v-117h126v-63h-123z" />
    <glyph glyph-name="Gamma" unicode="&#x393;" horiz-adv-x="578" 
d="M322 622h-124v-622h-101v691h436v-70h-175c-12 0 -24 1 -36 1z" />
    <glyph glyph-name="Delta" unicode="&#x394;" horiz-adv-x="885" 
d="M492 694l348 -694h-796l348 694h100zM321 384l-144 -290h502l-186 377c-23 46 -53 108 -65 147c-13 -44 -75 -169 -107 -234z" />
    <glyph glyph-name="Theta" unicode="&#x398;" horiz-adv-x="826" 
d="M766 344c0 -203 -159 -365 -354 -365c-191 0 -353 160 -353 365c0 204 158 371 354 371c193 0 353 -165 353 -371zM413 47c137 0 259 118 259 297c0 180 -120 305 -260 305c-137 0 -259 -122 -259 -305c0 -176 119 -297 260 -297zM213 395h399v-94h-399v94z" />
    <glyph glyph-name="Lambda" unicode="&#x39b;" horiz-adv-x="649" 
d="M372 694l246 -694h-107l-124 354c-11 32 -28 87 -42 130c-17 54 -31 107 -33 129h-1c-4 -37 -32 -125 -46 -165c-19 -59 -37 -118 -58 -176l-96 -272h-81l246 694h96z" />
    <glyph glyph-name="Xi" unicode="&#x39e;" horiz-adv-x="708" 
d="M184 602h-134v85h607v-85h-134c-56 0 -114 1 -170 1s-113 -1 -169 -1zM526 85h137v-85h-619v85h137c57 0 116 -1 173 -1s115 1 172 1zM118 399h471v-84h-471v84z" />
    <glyph glyph-name="Pi" unicode="&#x3a0;" horiz-adv-x="750" 
d="M652 691v-691h-101v625h-353v-625h-101v691h555z" />
    <glyph glyph-name="Sigma" unicode="&#x3a3;" horiz-adv-x="767" 
d="M427 347l-203 -272h195c12 0 24 1 36 1h252v-76h-648l248 332l-248 293v69h648v-70h-273c-12 0 -24 1 -36 1h-207z" />
    <glyph glyph-name="Upsilon" unicode="&#x3a5;" horiz-adv-x="826" 
d="M463 370v-370h-101v370c0 170 -40 269 -132 269c-46 0 -82 -33 -84 -84h-87c2 100 86 160 169 160c140 0 172 -159 184 -224h1c8 47 37 224 184 224c83 0 167 -60 169 -160h-87c-2 51 -38 84 -84 84c-96 0 -132 -108 -132 -269z" />
    <glyph glyph-name="Phi" unicode="&#x3a6;" horiz-adv-x="767" 
d="M427 694v-106c162 -16 280 -122 280 -241s-118 -225 -280 -241v-106h-94v107c-155 17 -274 120 -274 240s119 223 274 240v107h94zM333 174v346c-108 -14 -176 -86 -176 -173c0 -88 69 -159 176 -173zM427 521v-348c123 15 182 95 182 174c0 80 -59 159 -182 174z" />
    <glyph glyph-name="Psi" unicode="&#x3a8;" horiz-adv-x="826" 
d="M456 694v-518c144 36 145 189 145 264c0 163 35 176 81 176h84v-66c-65 -3 -71 -92 -71 -122c0 -67 -2 -290 -239 -321v-107h-94v107c-156 22 -231 141 -232 295c0 49 -1 145 -71 148v66h84c65 0 81 -45 81 -193c0 -68 6 -211 138 -247v518h94z" />
    <glyph glyph-name="Omega" unicode="&#x3a9;" horiz-adv-x="767" 
d="M719 77v-77h-262c1 84 34 149 73 228c39 77 76 152 76 233c0 107 -94 188 -223 188c-128 0 -223 -80 -223 -188c0 -81 36 -153 81 -242c37 -75 67 -138 68 -219h-262v77h91c12 0 24 -1 36 -1h57c-13 42 -29 75 -75 147c-52 82 -97 154 -97 239c0 135 139 253 324 253
s324 -117 324 -253c0 -84 -44 -155 -94 -235c-47 -72 -64 -107 -78 -151h57c12 0 24 1 36 1h91z" />
    <glyph glyph-name="dotlessi" unicode="&#x131;" horiz-adv-x="253" 
d="M168 444v-444h-84v444h84z" />
    <glyph glyph-name="dotlessj" unicode="&#xf6be;" horiz-adv-x="282" 
d="M198 444v-503c0 -92 -65 -145 -134 -145c-38 0 -83 9 -129 34l24 66c10 -10 36 -30 77 -30c38 0 78 14 78 67v511h84z" />
    <glyph glyph-name="grave" unicode="`" 
d="M247 527l-158 167h87l137 -167h-66z" />
    <glyph glyph-name="acute" unicode="&#xb4;" 
d="M441 694l-158 -167h-66l137 167h87z" />
    <glyph glyph-name="caron" unicode="&#x2c7;" 
d="M446 653l-146 -167h-70l-146 167h66l115 -121l115 121h66z" />
    <glyph glyph-name="breve" unicode="&#x2d8;" 
d="M379 694h66c-2 -112 -89 -182 -180 -182c-90 0 -178 70 -180 182h66c2 -70 60 -109 114 -109s112 38 114 109z" />
    <glyph glyph-name="macron" unicode="&#xaf;" 
d="M456 566h-382v70h382v-70z" />
    <glyph glyph-name="ring" unicode="&#x2da;" horiz-adv-x="708" 
d="M472 610c0 -42 -48 -83 -119 -83c-65 0 -118 37 -118 84c0 42 48 83 119 83c65 0 118 -37 118 -84zM354 569c14 0 58 2 58 42c0 41 -49 41 -59 41c-14 0 -58 -2 -58 -42c0 -41 49 -41 59 -41z" />
    <glyph glyph-name="cedilla" unicode="&#xb8;" horiz-adv-x="472" 
d="M298 -23l-69 -168h-76l79 168h66z" />
    <glyph glyph-name="germandbls" unicode="&#xdf;" horiz-adv-x="510" 
d="M353 409c104 -67 126 -171 126 -229c0 -109 -85 -190 -186 -190c-9 0 -46 0 -93 17l23 63c34 -14 64 -14 69 -14c57 0 101 45 101 123c0 102 -59 196 -165 199v66c101 2 136 67 136 112c0 54 -45 82 -97 82c-20 0 -48 -4 -71 -23c-27 -22 -27 -51 -27 -67v-548h-84v550
c0 103 97 154 182 154c104 0 183 -68 183 -147c0 -72 -55 -125 -97 -148z" />
    <glyph glyph-name="ae" unicode="&#xe6;" horiz-adv-x="767" 
d="M725 109l6 -71c-26 -18 -82 -48 -155 -48c-92 0 -148 50 -172 73c-52 -73 -204 -73 -232 -73c-108 0 -123 103 -123 128c0 80 108 126 291 131c0 64 0 78 -17 104c-26 42 -64 42 -74 42c-83 0 -133 -33 -161 -52l-6 73c55 29 105 43 167 43c80 0 127 -42 149 -75
c19 19 73 75 162 75c43 0 100 -16 136 -72c38 -58 40 -129 40 -168h-309c5 -99 73 -163 151 -163c47 0 102 16 147 53zM434 279h238c-17 101 -82 114 -111 114c-56 0 -108 -44 -127 -114zM342 189c-63 -2 -97 -6 -134 -15c-55 -13 -79 -27 -79 -54c0 -35 35 -64 96 -64
c25 0 122 0 122 68c0 15 -3 49 -5 65z" />
    <glyph glyph-name="oe" unicode="&#x153;" horiz-adv-x="826" 
d="M795 219h-309c5 -99 73 -163 151 -163c47 0 102 16 147 53c0 -5 2 -20 2 -24c0 -6 3 -38 4 -47c-26 -18 -82 -48 -155 -48c-41 0 -123 9 -192 97c-33 -46 -98 -97 -186 -97c-125 0 -227 104 -227 235c0 127 100 234 227 234c88 0 153 -51 185 -96c65 92 153 96 177 96
c176 0 176 -206 176 -240zM493 279h238c-17 101 -82 114 -111 114c-56 0 -108 -44 -127 -114zM256 56c74 0 143 57 143 174c0 113 -71 163 -143 163c-75 0 -146 -52 -146 -163c0 -116 71 -174 146 -174z" />
    <glyph glyph-name="oslash" unicode="&#xf8;" 
d="M485 525l-72 -121c52 -48 84 -114 84 -185c0 -127 -104 -229 -232 -229c-31 0 -63 6 -90 18l-73 -122l-57 34l73 122c-56 45 -85 111 -85 177c0 132 104 240 232 240c36 0 70 -9 92 -20l71 120zM154 102l168 280c-1 1 -25 11 -57 11c-82 0 -151 -63 -151 -173
c0 -24 3 -76 40 -118zM376 343l-166 -277c26 -10 48 -10 55 -10c78 0 151 52 151 164c0 42 -10 86 -40 123z" />
    <glyph glyph-name="AE" unicode="&#xc6;" horiz-adv-x="914" 
d="M208 219l-95 -219h-83l300 694h525v-70h-162c-12 0 -24 1 -36 1h-112v-231h280v-66h-280v-252h34c72 0 146 2 218 2h73v-78h-425v219h-237zM384 625l-151 -347h212v347h-61z" />
    <glyph glyph-name="OE" unicode="&#x152;" horiz-adv-x="1033" 
d="M599 328v-252h52c82 0 166 2 248 2h89v-78h-435c-18 0 -36 -1 -91 -11c-32 -6 -55 -10 -81 -10c-186 0 -352 157 -352 365c0 209 164 371 352 371c10 0 32 0 80 -9c56 -12 75 -12 92 -12h420v-70h-194c-12 0 -24 1 -36 1h-144v-231h344v-66h-344zM501 202v290
c0 135 -31 157 -114 157c-151 0 -260 -133 -260 -289c0 -168 109 -315 260 -315c83 0 114 22 114 157z" />
    <glyph glyph-name="Oslash" unicode="&#xd8;" horiz-adv-x="826" 
d="M682 725l-53 -88c42 -32 137 -133 137 -293c0 -203 -159 -365 -354 -365c-79 0 -135 27 -159 39l-52 -85l-58 36l52 87c-52 41 -136 138 -136 288c0 204 158 371 354 371c76 0 135 -27 159 -40l52 86zM234 120l301 496c-21 13 -66 33 -123 33c-135 0 -259 -113 -259 -305
c0 -142 73 -216 81 -224zM590 572l-300 -494c45 -27 93 -33 123 -33c133 0 259 108 259 299c0 99 -33 178 -82 228z" />
    <glyph glyph-name="suppress" horiz-adv-x="253" 
d="M261 337l-252 -72l-18 61l253 72z" />
    <glyph glyph-name="exclam" unicode="!" horiz-adv-x="336" 
d="M213 694l-9 -514h-72l-9 514h90zM123 0v90h90v-90h-90z" />
    <glyph glyph-name="quotedblright" unicode="&#x201d;" 
d="M125 605l-46 -129h-45l29 128h-28v90h90v-89zM332 605l-46 -129h-45l29 128h-28v90h90v-89z" />
    <glyph glyph-name="numbersign" unicode="#" horiz-adv-x="885" 
d="M548 118l-82 -287c-4 -13 -7 -25 -24 -25c-13 0 -23 10 -23 23c0 3 1 10 4 19l78 270h-195l-82 -287c-4 -13 -7 -25 -24 -25c-13 0 -23 10 -23 23c0 3 1 10 4 19l78 270h-164c-14 0 -36 0 -36 23s22 23 36 23h178l49 172h-227c-14 0 -36 0 -36 23s22 23 36 23h241l82 287
c4 13 7 25 24 25c13 0 23 -10 23 -23c0 -3 -1 -10 -4 -19l-78 -270h195l82 287c4 13 7 25 24 25c13 0 23 -10 23 -23c0 -3 -1 -10 -4 -19l-78 -270h164c14 0 36 0 36 -23s-22 -23 -36 -23h-178l-49 -172h227c14 0 36 0 36 -23s-22 -23 -36 -23h-241zM320 164h195l49 172
h-195z" />
    <glyph glyph-name="dollar" unicode="$" 
d="M297 634v-229c116 -22 174 -118 174 -206c0 -101 -72 -190 -174 -206v-49h-63v47c-51 5 -120 20 -187 69l14 74c38 -33 94 -65 173 -73v255c-140 29 -175 133 -175 193c0 96 73 178 175 193v48h63v-47c62 -5 105 -22 156 -55l-13 -72c-38 29 -83 53 -143 58zM234 420v212
c-59 -14 -95 -59 -95 -106c0 -55 45 -95 95 -106zM297 301v-238c65 18 94 72 94 119c0 39 -21 99 -94 119z" />
    <glyph glyph-name="percent" unicode="%" horiz-adv-x="885" 
d="M694 706l-464 -746c-6 -10 -10 -16 -22 -16c-13 0 -23 10 -23 23c0 7 3 11 9 21l462 743c8 13 12 19 24 19c13 0 23 -10 23 -23c0 -7 -2 -10 -9 -21zM825 145c0 -113 -67 -201 -146 -201c-73 0 -148 80 -148 202c0 118 73 201 148 201c78 0 146 -86 146 -202zM679 10
c41 0 72 61 72 136c0 71 -29 135 -72 135c-15 0 -67 -9 -67 -136c0 -30 2 -61 13 -90c12 -27 32 -45 54 -45zM353 548c0 -113 -67 -201 -146 -201c-75 0 -148 82 -148 201c0 122 75 202 148 202c78 0 146 -86 146 -202zM207 413c41 0 72 61 72 136c0 71 -29 135 -72 135
c-15 0 -67 -9 -67 -136c0 -30 2 -61 13 -90c12 -27 32 -45 54 -45z" />
    <glyph glyph-name="ampersand" unicode="&#x26;" horiz-adv-x="805" 
d="M641 406l67 -19c-49 -168 -143 -265 -195 -305c49 -32 89 -34 110 -34c27 0 70 3 123 19v-73c-56 -14 -106 -15 -123 -15c-34 0 -96 4 -174 58c-82 -48 -161 -58 -210 -58c-112 0 -195 77 -195 170c0 76 49 114 83 142l76 60c-20 55 -31 109 -31 161
c0 107 56 203 148 203c82 0 137 -80 137 -159c0 -82 -87 -154 -161 -215c47 -92 123 -177 163 -215c69 53 139 140 182 280zM268 404c93 75 115 118 115 153c0 33 -15 92 -64 92c-39 0 -77 -36 -77 -99c0 -32 5 -81 26 -146zM232 289c-71 -53 -101 -75 -101 -133
c0 -46 33 -108 110 -108c22 0 84 3 150 36c-45 43 -121 129 -159 205z" />
    <glyph glyph-name="quoteright" unicode="&#x2019;" horiz-adv-x="295" 
d="M192 605l-46 -129h-45l29 128h-28v90h90v-89z" />
    <glyph glyph-name="parenleft" unicode="(" horiz-adv-x="413" 
d="M305 750h48c-20 -17 -182 -154 -182 -500c0 -99 12 -181 36 -259c46 -156 143 -239 146 -241h-48c-17 0 -19 0 -32 13c-132 116 -189 298 -189 487c0 201 64 379 190 489c12 11 14 11 31 11z" />
    <glyph glyph-name="parenright" unicode=")" horiz-adv-x="413" 
d="M107 -250h-48c20 17 182 154 182 500c0 99 -12 181 -36 259c-46 156 -143 239 -146 241h48c17 0 19 0 32 -13c132 -116 189 -298 189 -487c0 -201 -64 -379 -190 -489c-12 -11 -14 -11 -31 -11z" />
    <glyph glyph-name="asterisk" unicode="*" 
d="M294 477l8 -124l1 -9c0 -28 -23 -38 -38 -38s-38 10 -38 38l9 133c-60 -39 -68 -46 -97 -64c-22 -16 -24 -16 -33 -16c-16 0 -38 14 -38 40c0 22 14 29 26 35l112 56l-112 56c-12 6 -26 13 -26 35c0 26 22 40 38 40c10 0 16 -4 26 -11l104 -69l-9 133c0 28 23 38 38 38
s38 -10 38 -38l-9 -133l104 69c10 7 16 11 26 11c16 0 38 -14 38 -40c0 -22 -14 -29 -26 -35l-112 -56l112 -56c12 -6 26 -13 26 -35c0 -26 -22 -40 -38 -40c-10 0 -16 4 -26 11z" />
    <glyph glyph-name="plus" unicode="+" horiz-adv-x="826" 
d="M436 227v-295c0 -14 0 -36 -23 -36s-23 22 -23 36v295h-295c-14 0 -36 0 -36 23s22 23 36 23h295v295c0 14 0 36 23 36s23 -22 23 -36v-295h294c14 0 36 0 36 -23s-22 -23 -36 -23h-294z" />
    <glyph glyph-name="comma" unicode="," horiz-adv-x="295" 
d="M192 1l-46 -129h-45l29 128h-28v90h90v-89z" />
    <glyph glyph-name="hyphen" unicode="-" horiz-adv-x="354" 
d="M294 191h-282v63h282v-63z" />
    <glyph glyph-name="period" unicode="." horiz-adv-x="295" 
d="M192 90v-90h-90v90h90z" />
    <glyph glyph-name="slash" unicode="/" 
d="M466 709l-359 -935c-5 -12 -9 -24 -25 -24c-13 0 -23 10 -23 23c0 2 0 6 5 18l359 935c5 12 9 24 25 24c13 0 23 -10 23 -23c0 -2 0 -6 -5 -18z" />
    <glyph glyph-name="zero" unicode="0" 
d="M488 325c0 -62 -3 -154 -38 -225c-30 -63 -85 -121 -185 -121c-59 0 -133 24 -177 105c-42 76 -46 167 -46 241c0 63 2 172 50 252c50 86 128 100 173 100c48 0 125 -15 176 -105c47 -82 47 -199 47 -247zM265 45c33 0 84 16 112 88c24 64 24 139 24 205
c0 92 0 273 -136 273s-136 -181 -136 -273c0 -73 1 -136 21 -197c25 -72 73 -96 115 -96z" />
    <glyph glyph-name="one" unicode="1" 
d="M321 677v-614h133v-63h-356v63h133v508c-50 -20 -100 -22 -139 -23v63c60 2 142 6 207 66h22z" />
    <glyph glyph-name="two" unicode="2" 
d="M283 77h194v-77h-424v69c29 25 98 92 127 118c21 20 75 65 95 85c60 57 109 104 109 187c0 90 -64 149 -148 149c-87 0 -122 -65 -145 -149l-47 59c34 102 100 159 206 159c143 0 227 -103 227 -216c0 -87 -59 -139 -103 -179c-19 -16 -68 -53 -86 -69l-155 -137h114
c12 0 24 1 36 1z" />
    <glyph glyph-name="three" unicode="3" 
d="M100 513l-41 58c42 60 115 106 203 106c107 0 194 -68 194 -153c0 -65 -39 -132 -115 -171c79 -23 145 -89 145 -171c0 -105 -94 -203 -225 -203c-78 0 -159 34 -217 99l13 65c50 -64 131 -98 202 -98c78 0 126 60 126 138c0 63 -35 138 -130 138h-78v66c66 5 70 5 75 6
c76 13 112 78 112 131c0 57 -44 91 -103 91c-48 0 -120 -22 -161 -102z" />
    <glyph glyph-name="four" unicode="4" 
d="M396 167v-167h-86v167h-280v66l267 423h99v-423h104v-66h-104zM115 233h202v374c0 -60 -172 -327 -202 -374z" />
    <glyph glyph-name="five" unicode="5" 
d="M164 587v-201c30 25 68 40 111 40c110 0 202 -99 202 -223c0 -122 -103 -224 -235 -224c-79 0 -153 37 -202 98l38 60c34 -57 98 -92 164 -92c51 0 134 29 134 160c0 127 -62 155 -103 155c-45 0 -92 -24 -116 -78h-73v374h357v-69h-277z" />
    <glyph glyph-name="six" unicode="6" 
d="M439 657v-63c-50 19 -90 21 -110 21c-108 0 -178 -95 -191 -232c29 29 82 80 180 80c97 0 168 -109 168 -240c0 -35 -1 -106 -65 -174c-31 -32 -73 -70 -154 -70c-101 0 -223 73 -223 344c0 211 132 354 284 354c19 0 57 0 111 -20zM139 220c5 -44 22 -175 128 -175
c46 0 76 20 100 56c27 42 27 84 27 122c0 34 0 174 -122 174c-89 0 -132 -83 -132 -151c-1 -5 -1 -20 -1 -26z" />
    <glyph glyph-name="seven" unicode="7" 
d="M247 579h-203v77h442v-70c-90 -94 -232 -304 -232 -596h-94c0 232 97 441 249 590h-126c-12 0 -24 -1 -36 -1z" />
    <glyph glyph-name="eight" unicode="8" 
d="M342 354c87 -27 144 -95 144 -172c0 -107 -95 -203 -221 -203s-221 96 -221 203c0 77 56 145 144 172c-64 20 -129 73 -129 148c0 91 87 175 206 175s206 -84 206 -175c0 -74 -63 -127 -129 -148zM265 387c73 0 129 43 129 114c0 64 -46 114 -129 114
c-84 0 -129 -50 -129 -114c0 -73 58 -114 129 -114zM265 45c68 0 130 44 130 138c0 89 -58 138 -130 138s-130 -48 -130 -138c0 -94 61 -138 130 -138z" />
    <glyph glyph-name="nine" unicode="9" 
d="M77 25l34 58c23 -19 55 -38 107 -38c82 0 160 70 174 229c-5 -6 -67 -81 -180 -81c-98 0 -168 111 -168 240c0 39 2 108 66 173c29 29 70 71 159 71c96 0 217 -69 217 -342c0 -215 -128 -356 -268 -356c-47 0 -92 10 -141 46zM389 434c-3 64 -24 181 -121 181
c-50 0 -80 -24 -101 -54c-31 -44 -31 -89 -31 -128c0 -45 2 -83 28 -122c26 -41 56 -52 94 -52c87 0 132 79 132 153c0 6 0 16 -1 22z" />
    <glyph glyph-name="colon" unicode=":" horiz-adv-x="295" 
d="M192 444v-90h-90v90h90zM102 90h90v-90h-90v90z" />
    <glyph glyph-name="semicolon" unicode=";" horiz-adv-x="295" 
d="M192 444v-90h-90v90h90zM101 -128l29 128h-28v90h90v-89l-46 -129h-45z" />
    <glyph glyph-name="exclamdown" unicode="&#xa1;" horiz-adv-x="336" 
d="M213 500v-90h-90v90h90zM123 -194l9 514h72l9 -514h-90z" />
    <glyph glyph-name="equal" unicode="=" horiz-adv-x="826" 
d="M730 336h-635c-14 0 -36 0 -36 23s22 23 36 23h635c14 0 36 0 36 -23s-22 -23 -36 -23zM730 118h-635c-14 0 -36 0 -36 23s22 23 36 23h635c14 0 36 0 36 -23s-22 -23 -36 -23z" />
    <glyph glyph-name="questiondown" unicode="&#xbf;" horiz-adv-x="501" 
d="M281 500v-90h-90v90h90zM418 -84l24 -68c-72 -38 -144 -52 -204 -52c-30 0 -84 2 -128 37c-36 29 -51 73 -51 119c0 34 8 80 47 114c62 57 94 129 94 206v48h72v-51c0 -101 -43 -190 -96 -245c-15 -15 -30 -30 -30 -75c0 -70 34 -87 92 -87c46 0 107 10 180 54z" />
    <glyph glyph-name="question" unicode="?" horiz-adv-x="501" 
d="M272 226v-46h-72v50c0 100 46 189 115 245c20 16 40 33 40 75c0 84 -74 88 -115 88c-22 0 -86 0 -157 -54l-24 68c59 37 118 52 179 52c152 0 204 -77 204 -156c0 -45 -18 -86 -54 -115c-30 -23 -116 -91 -116 -207zM191 0v90h90v-90h-90z" />
    <glyph glyph-name="at" unicode="@" horiz-adv-x="708" 
d="M594 88h54c-58 -60 -144 -98 -236 -98c-193 0 -353 159 -353 357c0 200 162 357 352 357c230 0 237 -242 237 -343c0 -178 -119 -241 -197 -241c-103 0 -196 97 -196 227c0 127 90 227 197 227c26 0 57 -7 85 -23c-33 80 -99 87 -127 87c-140 0 -270 -123 -270 -291
c0 -155 115 -291 276 -291c53 0 104 11 153 28c8 4 10 4 25 4zM452 186c59 0 115 66 115 161c0 92 -54 161 -116 161c-59 0 -115 -66 -115 -161c0 -92 54 -161 116 -161z" />
    <glyph glyph-name="A" unicode="A" horiz-adv-x="708" 
d="M402 694l275 -694h-105l-78 198h-304l-78 -198h-82l275 694h97zM343 618l-128 -361h254z" />
    <glyph glyph-name="B" unicode="B" horiz-adv-x="708" 
d="M100 694h256c147 0 262 -82 262 -174c0 -72 -70 -132 -174 -157c111 -16 204 -87 204 -175c0 -100 -115 -188 -263 -188h-285v694zM194 394h133c113 0 204 58 204 125c0 64 -93 116 -205 116h-132v-241zM194 59h160c110 0 203 56 203 130c0 75 -94 139 -220 139h-143
v-269z" />
    <glyph glyph-name="C" unicode="C" horiz-adv-x="678" 
d="M618 111l7 -76c-77 -43 -118 -56 -205 -56c-213 0 -352 179 -352 368c0 192 142 368 351 368c49 0 113 -5 194 -35l-16 -90c-50 34 -102 56 -180 56c-146 0 -248 -139 -248 -299c0 -149 92 -299 252 -299c84 0 127 15 197 63z" />
    <glyph glyph-name="D" unicode="D" horiz-adv-x="767" 
d="M98 694h284c179 0 325 -157 325 -353c0 -189 -145 -341 -325 -341h-284v694zM196 59h159c132 0 254 97 254 283c0 184 -117 293 -254 293h-159v-576z" />
    <glyph glyph-name="E" unicode="E" horiz-adv-x="637" 
d="M547 326h-349v-250h52c84 0 168 2 252 2h90v-78h-495v691h480v-70h-197c-12 0 -24 1 -36 1h-146v-230h349v-66z" />
    <glyph glyph-name="F" unicode="F" horiz-adv-x="607" 
d="M518 313h-320v-313h-101v691h466v-70h-190c-12 0 -24 1 -36 1h-139v-243h320v-66z" />
    <glyph glyph-name="G" unicode="G" horiz-adv-x="708" 
d="M636 299v-271c-79 -36 -158 -49 -220 -49c-200 0 -348 170 -348 368c0 196 146 368 349 368c66 0 135 -11 210 -50l-16 -89c-64 53 -126 70 -194 70c-146 0 -248 -140 -248 -299s102 -299 248 -299c9 0 65 0 132 20v165h-136v66h223z" />
    <glyph glyph-name="H" unicode="H" horiz-adv-x="750" 
d="M652 694v-694h-101v328h-353v-328h-101v694h101v-300h353v300h101z" />
    <glyph glyph-name="I" unicode="I" horiz-adv-x="295" 
d="M198 694v-694h-101v694h101z" />
    <glyph glyph-name="J" unicode="J" horiz-adv-x="501" 
d="M413 694v-545c0 -116 -81 -170 -187 -170c-62 0 -128 16 -182 42l15 82c20 -21 63 -57 134 -57c122 0 122 86 122 107v541h98z" />
    <glyph glyph-name="K" unicode="K" horiz-adv-x="737" 
d="M394 420l299 -420h-103l-257 361l-139 -133v-228h-94v694h94v-368l382 368h102z" />
    <glyph glyph-name="L" unicode="L" horiz-adv-x="578" 
d="M198 694v-625h50c95 0 190 2 285 2v-71h-436v694h101z" />
    <glyph glyph-name="M" unicode="M" horiz-adv-x="927" 
d="M557 347l141 347h123v-694h-84v615h-1c-17 -55 -86 -225 -86 -226l-149 -368h-79l-167 415c-5 11 -57 143 -65 178h-1v-614h-84v694h122l172 -425c10 -26 56 -141 63 -170h1c10 42 82 218 94 248z" />
    <glyph glyph-name="N" unicode="N" horiz-adv-x="750" 
d="M236 694l328 -615h1v615h84v-694h-136l-328 615h-1v-615h-84v694h136z" />
    <glyph glyph-name="O" unicode="O" horiz-adv-x="784" 
d="M725 344c0 -206 -153 -365 -333 -365c-179 0 -333 158 -333 365s152 371 333 371s333 -164 333 -371zM392 50c121 0 232 120 232 310c0 177 -112 286 -232 286s-232 -109 -232 -286c0 -189 111 -310 232 -310z" />
    <glyph glyph-name="P" unicode="P" horiz-adv-x="678" 
d="M375 285h-176v-285h-101v694h270c145 0 251 -96 251 -203c0 -115 -115 -206 -244 -206zM343 635h-147v-288h147c117 0 185 62 185 144c0 84 -72 144 -185 144z" />
    <glyph glyph-name="Q" unicode="Q" horiz-adv-x="784" 
d="M568 33l127 -161h-118l-89 122c-10 -3 -51 -15 -96 -15c-179 0 -333 158 -333 365s152 371 333 371s333 -164 333 -371c0 -129 -59 -241 -157 -311zM444 55l-101 139h98l80 -100c63 51 106 137 106 250c0 184 -112 302 -235 302s-235 -118 -235 -302
c0 -182 113 -296 235 -296c13 0 35 2 52 7z" />
    <glyph glyph-name="R" unicode="R" horiz-adv-x="687" 
d="M449 324l208 -324h-101l-195 314h-165v-314h-98v694h263c145 0 267 -83 267 -187c0 -54 -36 -141 -179 -183zM196 380h152c120 0 189 57 189 127c0 74 -74 128 -189 128h-152v-255z" />
    <glyph glyph-name="S" unicode="S" horiz-adv-x="590" 
d="M494 666l-16 -90c-51 43 -104 67 -180 67c-97 0 -153 -58 -153 -114c0 -38 23 -61 36 -74c24 -23 56 -31 117 -45c77 -18 123 -29 165 -70c20 -21 67 -67 67 -148c0 -112 -99 -213 -238 -213c-112 0 -195 40 -245 69l16 90c79 -67 171 -84 228 -84c97 0 153 64 153 126
c0 34 -16 62 -35 81c-29 30 -52 35 -136 55c-62 15 -108 25 -152 66c-49 46 -62 94 -62 135c0 96 89 198 240 198c74 0 131 -16 195 -49z" />
    <glyph glyph-name="T" unicode="T" horiz-adv-x="725" 
d="M413 618v-618h-101v618h-94c-12 0 -24 -1 -36 -1h-144v70h649v-70h-144c-12 0 -24 1 -36 1h-94z" />
    <glyph glyph-name="U" unicode="U" horiz-adv-x="729" 
d="M631 694v-460c0 -146 -121 -255 -264 -255c-144 0 -270 108 -270 255v460h101v-462c0 -132 84 -194 170 -194s176 61 176 195v461h87z" />
    <glyph glyph-name="V" unicode="V" horiz-adv-x="708" 
d="M692 694l-288 -694h-101l-288 694h106l128 -312c4 -10 104 -252 114 -303h1c9 50 108 291 115 308l126 307h87z" />
    <glyph glyph-name="W" unicode="W" horiz-adv-x="1003" 
d="M987 694l-217 -694h-92l-48 153l-83 273c-18 59 -43 141 -49 188h-1c-4 -27 -12 -59 -28 -112l-49 -167l-103 -335h-85l-217 694h95l93 -302c3 -11 77 -250 83 -311h1c7 64 73 279 84 313l93 300h84l100 -322c2 -6 74 -241 80 -292h1c7 54 77 278 83 299l97 315h78z" />
    <glyph glyph-name="X" unicode="X" horiz-adv-x="708" 
d="M395 366l297 -366h-119l-227 301l-222 -301h-109l282 366l-267 328h119l197 -256l193 256h109z" />
    <glyph glyph-name="Y" unicode="Y" horiz-adv-x="708" 
d="M704 694l-301 -416v-278h-98v278l-302 416h121l241 -336l239 336h100z" />
    <glyph glyph-name="Z" unicode="Z" horiz-adv-x="649" 
d="M589 650l-400 -581c102 0 204 2 306 2h100v-71h-536v46l401 582h-137c-14 0 -26 -1 -40 -1h-209v67h515v-44z" />
    <glyph glyph-name="bracketleft" unicode="[" horiz-adv-x="309" 
d="M285 -250h-178v1000h178v-66h-98v-868h98v-66z" />
    <glyph glyph-name="quotedblleft" unicode="&#x201c;" 
d="M289 694l-29 -128h28v-90h-90v89l46 129h45zM496 694l-29 -128h28v-90h-90v89l46 129h45z" />
    <glyph glyph-name="bracketright" unicode="]" horiz-adv-x="309" 
d="M201 750v-1000h-178v66h98v868h-98v66h178z" />
    <glyph glyph-name="circumflex" unicode="&#x2c6;" 
d="M300 694l146 -167h-66l-115 121l-115 -121h-66l146 167h70z" />
    <glyph glyph-name="dotaccent" unicode="&#x2d9;" horiz-adv-x="295" 
d="M198 686v-101h-101v101h101z" />
    <glyph glyph-name="quoteleft" unicode="&#x2018;" horiz-adv-x="295" 
d="M193 694l-29 -128h28v-90h-90v89l46 129h45z" />
    <glyph glyph-name="a" unicode="a" horiz-adv-x="510" 
d="M426 288v-288h-84v38c-53 -39 -132 -48 -175 -48c-88 0 -122 78 -122 128c0 93 146 124 294 129v40c0 75 -46 108 -90 108c-79 0 -128 -30 -161 -52l-6 73c56 30 104 43 167 43c99 0 177 -69 177 -171zM339 142v49c-45 -2 -214 -8 -214 -72c0 -38 42 -63 97 -63
c11 0 50 1 82 19c35 21 35 47 35 67z" />
    <glyph glyph-name="b" unicode="b" horiz-adv-x="548" 
d="M169 694v-297c50 37 111 57 174 57c100 0 169 -110 169 -231c0 -131 -88 -233 -197 -233c-73 0 -121 38 -143 57v-47h-87v694h84zM172 315v-197c28 -45 63 -62 100 -62c70 0 153 45 153 167c0 120 -75 165 -142 165c-34 0 -61 -13 -76 -22c-35 -23 -35 -35 -35 -51z" />
    <glyph glyph-name="c" unicode="c" horiz-adv-x="472" 
d="M435 109l6 -73c-43 -25 -103 -46 -173 -46c-136 0 -232 110 -232 232c0 116 86 237 236 237c78 0 104 -13 164 -43l-13 -72c-51 32 -83 46 -151 46c-109 0 -149 -90 -149 -167c0 -90 54 -164 146 -164c62 0 116 18 166 50z" />
    <glyph glyph-name="d" unicode="d" horiz-adv-x="548" 
d="M463 694v-694h-87v52c-38 -34 -96 -62 -158 -62c-103 0 -182 105 -182 232s80 232 185 232c29 0 94 -6 158 -53v293h84zM376 124v213c-26 34 -60 51 -100 51c-68 0 -153 -42 -153 -167c0 -116 72 -165 142 -165c48 0 86 27 111 68z" />
    <glyph glyph-name="e" unicode="e" horiz-adv-x="472" 
d="M430 109l6 -71c-51 -31 -111 -48 -169 -48c-132 0 -232 107 -232 235c0 127 94 234 216 234c49 0 109 -19 145 -70c39 -57 44 -124 44 -170h-328c3 -92 69 -163 156 -163c43 0 106 13 162 53zM119 279h260c-19 93 -84 114 -128 114c-50 0 -109 -34 -132 -114z" />
    <glyph glyph-name="f" unicode="f" horiz-adv-x="324" 
d="M190 381v-381h-84v381h-77v63h77v87c0 99 75 173 178 173c27 0 58 -4 84 -10v-73c-37 14 -64 17 -85 17c-33 0 -96 -10 -96 -79v-115h117v-63h-114z" />
    <glyph glyph-name="g" unicode="g" 
d="M503 454l12 -68c-36 4 -74 4 -75 4c-5 0 -65 0 -65 -4c0 -1 0 -2 4 -8c18 -27 27 -56 27 -88c0 -86 -73 -163 -171 -163c-27 0 -62 7 -97 29c-1 -2 -8 -12 -8 -32c0 -52 43 -52 59 -52h93c43 0 218 0 218 -141c0 -76 -104 -136 -235 -136c-130 0 -235 60 -235 136
c0 24 11 70 66 102c-9 12 -25 37 -25 76c0 38 15 66 29 83c-23 28 -35 64 -35 99c0 86 73 163 171 163c29 0 64 -7 100 -31l2 1c76 29 143 30 165 30zM236 189c43 0 93 24 93 102c0 67 -40 101 -94 101c-43 0 -93 -24 -93 -102c0 -67 40 -101 94 -101zM283 -6h-96
c-81 0 -81 -59 -81 -64c0 -43 75 -73 159 -73s159 30 159 73c0 64 -118 64 -141 64z" />
    <glyph glyph-name="h" unicode="h" horiz-adv-x="548" 
d="M465 296v-296h-87v289c0 29 0 99 -103 99c-77 0 -105 -79 -105 -145v-243h-87v694h84v-311c20 21 66 71 152 71c123 0 146 -80 146 -158z" />
    <glyph glyph-name="i" unicode="i" horiz-adv-x="253" 
d="M176 686v-101h-101v101h101zM168 444v-444h-84v444h84z" />
    <glyph glyph-name="j" unicode="j" horiz-adv-x="282" 
d="M198 686v-101h-101v101h101zM-65 -170l18 66c12 -11 38 -30 80 -30c9 0 37 0 60 17c21 17 21 33 21 51v510h84v-503c0 -92 -65 -145 -134 -145c-38 0 -83 9 -129 34z" />
    <glyph glyph-name="k" unicode="k" horiz-adv-x="519" 
d="M299 272l201 -272h-88l-165 222l-85 -82v-140h-74v694h78v-457l214 207h97z" />
    <glyph glyph-name="l" unicode="l" horiz-adv-x="253" 
d="M168 694v-694h-84v694h84z" />
    <glyph glyph-name="m" unicode="m" horiz-adv-x="843" 
d="M760 296v-296h-87v289c0 29 0 99 -103 99c-77 0 -105 -79 -105 -145v-243h-87v289c0 29 0 99 -103 99c-77 0 -105 -79 -105 -145v-243h-87v451h80v-73c44 53 99 76 156 76c100 0 125 -54 135 -81c24 32 76 81 160 81c123 0 146 -80 146 -158z" />
    <glyph glyph-name="n" unicode="n" horiz-adv-x="548" 
d="M465 296v-296h-87v289c0 29 0 99 -103 99c-77 0 -105 -79 -105 -145v-243h-87v451h80v-73c44 53 99 76 156 76c123 0 146 -80 146 -158z" />
    <glyph glyph-name="o" unicode="o" 
d="M500 219c0 -127 -105 -229 -235 -229c-129 0 -235 102 -235 229c0 131 105 240 235 240s235 -108 235 -240zM265 59c77 0 148 57 148 171c0 111 -73 163 -148 163c-74 0 -148 -50 -148 -163s69 -171 148 -171z" />
    <glyph glyph-name="p" unicode="p" horiz-adv-x="548" 
d="M172 47v-241h-87v638h84v-48c58 45 133 58 178 58c99 0 165 -111 165 -231c0 -132 -90 -233 -196 -233c-34 0 -91 9 -144 57zM172 332v-196c0 -19 4 -34 34 -57c26 -21 51 -23 66 -23c78 0 153 68 153 167c0 88 -63 162 -143 162c-48 0 -87 -25 -110 -53z" />
    <glyph glyph-name="q" unicode="q" horiz-adv-x="548" 
d="M463 454v-648h-87v243c-63 -51 -130 -59 -164 -59c-100 0 -176 106 -176 231c0 133 90 233 196 233c58 0 111 -27 147 -67v67h84zM379 123v155c0 42 -37 107 -103 107c-78 0 -153 -66 -153 -164c0 -89 62 -165 143 -165c29 0 77 11 113 67z" />
    <glyph glyph-name="r" unicode="r" horiz-adv-x="362" 
d="M169 213v-213h-84v451h77v-92c40 53 101 94 185 95v-74c-88 -1 -178 -59 -178 -167z" />
    <glyph glyph-name="s" unicode="s" horiz-adv-x="407" 
d="M365 428l-13 -71c-50 26 -94 38 -151 38c-15 0 -88 0 -88 -57c0 -44 46 -53 105 -64c48 -9 84 -16 121 -49c42 -38 44 -77 44 -95c0 -34 -12 -78 -49 -106c-37 -27 -81 -34 -126 -34c-83 0 -144 27 -178 44l14 75c40 -28 100 -51 164 -51c14 0 97 0 97 63
c0 48 -54 58 -101 67c-53 10 -95 18 -130 53c-13 12 -39 38 -39 85c0 133 151 133 176 133c36 0 86 -3 154 -31z" />
    <glyph glyph-name="t" unicode="t" horiz-adv-x="383" 
d="M188 381v-235c0 -46 11 -87 53 -87c28 0 63 8 96 32l17 -64c-30 -14 -85 -37 -157 -37s-89 71 -89 138v253h-88v63h91v127h77v-127h148v-63h-148z" />
    <glyph glyph-name="u" unicode="u" horiz-adv-x="548" 
d="M465 444v-444h-84v46c-60 -48 -148 -56 -189 -56c-70 0 -109 30 -109 119v335h87v-329c0 -46 8 -66 82 -66c58 0 126 25 126 105v290h87z" />
    <glyph glyph-name="v" unicode="v" horiz-adv-x="489" 
d="M474 444l-183 -444h-93l-183 444h84l80 -199c31 -77 59 -147 67 -186h1c4 23 10 50 147 385h80z" />
    <glyph glyph-name="w" unicode="w" horiz-adv-x="725" 
d="M710 444l-146 -444h-92l-77 241c-7 23 -14 50 -21 75s-13 47 -15 68l-1 -1c-5 -44 -35 -140 -50 -189c-35 -111 -62 -190 -63 -194h-84l-146 444h82c5 -17 5 -19 13 -43c16 -48 90 -269 98 -340h1c8 73 83 297 112 383h76l74 -229c2 -7 37 -115 43 -156h1
c3 23 13 55 21 84c31 104 87 273 96 301h78z" />
    <glyph glyph-name="x" unicode="x" horiz-adv-x="489" 
d="M277 229l212 -229h-90l-158 188l-152 -188h-89l206 229l-200 215h90l145 -164l142 164h88z" />
    <glyph glyph-name="y" unicode="y" horiz-adv-x="489" 
d="M474 444l-235 -537c-42 -96 -78 -111 -118 -111c-31 0 -68 6 -77 8l-6 70c43 -18 80 -18 84 -18c27 0 41 14 62 56c6 13 26 59 38 88l-207 444h86l63 -137c18 -39 34 -79 50 -119c18 -47 36 -97 38 -125c4 61 60 190 141 381h81z" />
    <glyph glyph-name="z" unicode="z" horiz-adv-x="461" 
d="M424 402l-275 -336h87c12 0 24 1 36 1h155v-67h-397v44l275 337h-78c-12 0 -24 -1 -36 -1h-147v64h380v-42z" />
    <glyph glyph-name="endash" unicode="&#x2013;" 
d="M530 241h-530v66h530v-66z" />
    <glyph glyph-name="emdash" unicode="&#x2014;" horiz-adv-x="1062" 
d="M1062 241h-1062v66h1062v-66z" />
    <glyph glyph-name="hungarumlaut" unicode="&#x2dd;" 
d="M264 694l-84 -167h-66l63 167h87zM441 694l-84 -167h-66l63 167h87z" />
    <glyph glyph-name="tilde" unicode="&#x2dc;" 
d="M375 680h66c-1 -79 -53 -125 -104 -125c-28 0 -51 15 -81 34c-11 8 -36 25 -61 25c-28 0 -39 -27 -40 -59h-66c1 79 53 125 104 125c28 0 51 -15 81 -34c11 -8 36 -25 61 -25c28 0 39 27 40 59z" />
    <glyph glyph-name="dieresis" unicode="&#xa8;" 
d="M209 686v-94h-94v94h94zM415 686v-94h-94v94h94z" />
    <glyph glyph-name="space" unicode=" " horiz-adv-x="354" 
 />
  </font>
</defs>
</svg>
