<?xml version="1.0" standalone="no"?>
<!DOCTYPE svg PUBLIC "-//W3C//DTD SVG 1.1//EN" "http://www.w3.org/Graphics/SVG/1.1/DTD/svg11.dtd" >
<svg>
<metadata>
Created by FontForge 20060822 at Fri Oct  6 18:24:35 2006
 By Wojciech Mula,,,
Copyright (C) 1997 American Mathematical Society. All Rights Reserved
</metadata>
<defs>
<font id="CMSS9" horiz-adv-x="513" >
  <font-face 
    font-family="Computer Modern"
    font-weight="500"
    font-stretch="normal"
    units-per-em="1000"
    panose-1="2 0 6 3 0 0 0 0 0 0"
    ascent="800"
    descent="-200"
    x-height="444"
    cap-height="694"
    bbox="-63 -250 1027 760"
    underline-thickness="0"
    underline-position="0"
    stemh="65"
    stemv="83"
    unicode-range="U+0020-U+FB04"
  />
    <missing-glyph />
    <glyph glyph-name="ff" unicode="ff" horiz-adv-x="599" 
d="M183 382v-382h-80v382h-75v62h75v88c0 98 72 173 172 173c32 0 62 -6 82 -11v-71c-42 17 -73 17 -83 17c-30 0 -94 -9 -94 -80v-116h115v-62h-112zM468 382v-382h-80v532c0 98 72 173 172 173c32 0 62 -6 82 -11v-71c-42 17 -73 17 -83 17c-30 0 -94 -9 -94 -80v-116h115
v-62h-112z" />
    <glyph glyph-name="fi" unicode="fi" horiz-adv-x="550" 
d="M470 695v-86h-86v86h86zM467 444v-444h-80v444h80zM183 382v-382h-80v382h-75v62h75v89c0 101 62 172 138 172c29 0 54 -8 62 -11v-73c-21 15 -44 19 -62 19c-24 0 -61 -14 -61 -78v-118h123v-62h-120z" />
    <glyph glyph-name="fl" unicode="fl" horiz-adv-x="550" 
d="M183 382v-382h-80v382h-75v62h75v89c0 101 62 172 138 172c29 0 54 -8 62 -11v-71c-12 7 -36 17 -62 17c-24 0 -61 -14 -61 -78v-118h123v-62h-120zM467 694v-694h-80v694h80z" />
    <glyph glyph-name="ffi" unicode="ffi" horiz-adv-x="836" 
d="M755 695v-86h-86v86h86zM752 444v-444h-80v444h80zM468 382v-382h-80v533c0 99 60 172 138 172c31 0 39 -3 61 -10v-73c-1 1 -27 18 -61 18c-26 0 -61 -15 -61 -78v-118h122v-62h-119zM183 382v-382h-80v382h-75v62h75v88c0 102 68 173 154 173c24 0 51 -5 71 -11v-71
c-1 1 -33 17 -72 17c-24 0 -76 -10 -76 -79v-117h122v-62h-119z" />
    <glyph glyph-name="ffl" unicode="ffl" horiz-adv-x="836" 
d="M183 382v-382h-80v382h-75v62h75v88c0 102 68 173 154 173c24 0 51 -5 71 -11v-71c-1 1 -33 17 -72 17c-24 0 -76 -10 -76 -79v-117h122v-62h-119zM752 694v-694h-80v694h80zM468 382v-382h-80v533c0 102 63 172 137 172c30 0 55 -8 62 -11v-71c-7 4 -32 17 -61 17
c-26 0 -61 -15 -61 -78v-118h122v-62h-119z" />
    <glyph glyph-name="Gamma" unicode="&#x393;" horiz-adv-x="560" 
d="M191 623v-623h-96v691h421v-70h-75c-74 0 -149 2 -223 2h-27z" />
    <glyph glyph-name="Delta" unicode="&#x394;" horiz-adv-x="856" 
d="M475 694l337 -694h-769l337 694h95zM310 385l-141 -295h493l-137 285c-44 91 -97 202 -110 245c-13 -42 -60 -140 -105 -235z" />
    <glyph glyph-name="Theta" unicode="&#x398;" horiz-adv-x="799" 
d="M741 344c0 -205 -156 -366 -342 -366s-342 161 -342 366c0 208 156 372 342 372s342 -163 342 -372zM399 45c134 0 252 119 252 299c0 184 -119 307 -252 307s-252 -122 -252 -307c0 -179 118 -299 252 -299zM205 393h388v-90h-388v90z" />
    <glyph glyph-name="Lambda" unicode="&#x39b;" horiz-adv-x="629" 
d="M360 694l240 -694h-101l-101 294l-55 169c-36 118 -40 152 -40 154h-1c-2 -17 -4 -36 -38 -148c-16 -53 -33 -106 -51 -158l-106 -311h-78l240 694h91z" />
    <glyph glyph-name="Xi" unicode="&#x39e;" horiz-adv-x="685" 
d="M178 607h-129v81h586v-81h-129c-54 0 -110 1 -164 1s-110 -1 -164 -1zM509 81h132v-81h-598v81h132c55 0 112 -1 167 -1s112 1 167 1zM114 398h456v-80h-456v80z" />
    <glyph glyph-name="Pi" unicode="&#x3a0;" horiz-adv-x="726" 
d="M631 691v-691h-96v626h-344v-626h-96v691h536z" />
    <glyph glyph-name="Sigma" unicode="&#x3a3;" horiz-adv-x="742" 
d="M409 347l-197 -273h60c99 0 200 2 299 2h113v-76h-627l239 333l-239 293v68h627v-70h-123c-106 0 -213 2 -319 2h-61z" />
    <glyph glyph-name="Upsilon" unicode="&#x3a5;" horiz-adv-x="799" 
d="M447 375v-375h-96v375c0 175 -38 269 -129 269c-39 0 -79 -29 -82 -89h-83c3 105 86 161 164 161c118 0 160 -116 177 -219h1c14 82 50 219 178 219c77 0 161 -56 164 -161h-83c-3 60 -43 89 -82 89c-81 0 -129 -74 -129 -269z" />
    <glyph glyph-name="Phi" unicode="&#x3a6;" horiz-adv-x="742" 
d="M413 694v-106c150 -15 271 -117 271 -241s-121 -226 -271 -241v-106h-90v107c-153 17 -266 121 -266 240s113 223 266 240v107h90zM323 172v350c-122 -20 -173 -99 -173 -175s51 -155 173 -175zM413 522v-350c129 17 178 103 178 175s-48 157 -178 175z" />
    <glyph glyph-name="Psi" unicode="&#x3a8;" horiz-adv-x="799" 
d="M441 694v-519c140 35 141 191 141 265c0 165 36 175 79 175h80v-65c-63 -4 -69 -87 -69 -124c0 -64 -2 -289 -231 -319v-107h-90v107c-175 24 -224 174 -225 296c0 66 -5 143 -69 147v65h80c64 0 79 -44 79 -193c0 -48 0 -212 135 -247v519h90z" />
    <glyph glyph-name="Omega" unicode="&#x3a9;" horiz-adv-x="742" 
d="M695 75v-75h-252c1 56 13 110 65 215c41 85 80 163 80 246c0 109 -92 190 -218 190c-122 0 -217 -79 -217 -190c0 -76 32 -148 75 -234c47 -97 69 -155 70 -227h-252v75h87c12 0 24 -1 36 -1h53c-15 50 -30 80 -81 163c-49 82 -84 149 -84 225c0 136 134 254 314 254
c177 0 313 -117 313 -254c0 -85 -44 -158 -93 -240c-51 -84 -61 -113 -72 -148h53c12 0 24 1 36 1h87z" />
    <glyph glyph-name="dotlessi" unicode="&#x131;" horiz-adv-x="245" 
d="M162 444v-444h-80v444h80z" />
    <glyph glyph-name="dotlessj" unicode="&#xf6be;" horiz-adv-x="273" 
d="M191 444v-503c0 -92 -62 -146 -130 -146c-26 0 -74 6 -124 34l23 65c22 -20 47 -31 75 -31c16 0 76 3 76 69v512h80z" />
    <glyph glyph-name="grave" unicode="`" 
d="M238 527l-152 167h83l134 -167h-65z" />
    <glyph glyph-name="acute" unicode="&#xb4;" 
d="M427 694l-152 -167h-65l134 167h83z" />
    <glyph glyph-name="caron" unicode="&#x2c7;" 
d="M433 654l-143 -167h-67l-143 167h65l112 -121l111 121h65z" />
    <glyph glyph-name="breve" unicode="&#x2d8;" 
d="M366 694h65c-2 -109 -85 -180 -175 -180c-86 0 -172 68 -174 180h65c3 -74 61 -109 110 -109c46 0 106 33 109 109z" />
    <glyph glyph-name="macron" unicode="&#xaf;" 
d="M442 566h-371v69h371v-69z" />
    <glyph glyph-name="ring" unicode="&#x2da;" horiz-adv-x="686" 
d="M458 610c0 -42 -47 -83 -115 -83c-65 0 -115 38 -115 84c0 42 47 83 115 83c65 0 115 -38 115 -84zM343 569c22 0 57 5 57 42c0 35 -36 41 -57 41c-22 0 -57 -5 -57 -42c0 -35 36 -41 57 -41z" />
    <glyph glyph-name="cedilla" unicode="&#xb8;" horiz-adv-x="456" 
d="M289 -24l-67 -168h-74l76 168h65z" />
    <glyph glyph-name="germandbls" unicode="&#xdf;" horiz-adv-x="493" 
d="M341 409c70 -43 123 -129 123 -230c0 -106 -79 -190 -181 -190c-24 0 -59 5 -90 18l23 62c29 -13 57 -15 67 -15c52 0 99 41 99 126c0 104 -61 197 -162 199v65c99 2 134 67 134 113c0 50 -39 83 -95 83c-96 0 -96 -77 -96 -93v-547h-80v549c0 111 100 156 176 156
c98 0 177 -66 177 -148c0 -39 -19 -102 -95 -148z" />
    <glyph glyph-name="ae" unicode="&#xe6;" horiz-adv-x="742" 
d="M712 219h-300c5 -99 70 -165 147 -165c24 0 85 5 142 53l6 -69c-41 -30 -94 -49 -149 -49c-75 0 -133 36 -168 75c-55 -75 -194 -75 -224 -75c-103 0 -119 99 -119 128c0 91 140 130 282 131c0 65 0 80 -16 107c-25 43 -61 43 -73 43c-73 0 -121 -27 -154 -52l-7 71
c50 28 97 44 162 44c62 0 111 -27 144 -76c58 65 119 76 157 76c46 0 101 -19 134 -77c35 -59 36 -129 36 -165zM418 278h232c-15 94 -69 118 -108 118c-57 0 -107 -50 -124 -118zM218 54c17 0 54 3 81 15c35 17 35 40 35 61c0 27 0 29 -3 50c-1 9 -2 10 -8 10
c-41 0 -81 -5 -121 -15c-55 -14 -78 -29 -78 -57c0 -33 32 -64 94 -64z" />
    <glyph glyph-name="oe" unicode="&#x153;" horiz-adv-x="799" 
d="M769 219h-300c5 -99 70 -165 147 -165c24 0 85 5 142 53l6 -69c-41 -30 -94 -49 -149 -49c-79 0 -149 42 -186 99c-53 -74 -123 -99 -181 -99c-118 0 -218 103 -218 236c0 132 100 236 218 236c86 0 148 -52 179 -97c37 57 101 97 172 97c46 0 101 -19 134 -77
c35 -59 36 -129 36 -165zM475 278h232c-15 94 -69 118 -108 118c-57 0 -107 -50 -124 -118zM248 54c70 0 138 56 138 176c0 118 -71 166 -138 166c-70 0 -141 -51 -141 -166c0 -117 68 -176 141 -176z" />
    <glyph glyph-name="oslash" unicode="&#xf8;" 
d="M470 526l-70 -121c52 -46 81 -115 81 -185c0 -131 -103 -231 -225 -231c-38 0 -72 11 -87 18l-69 -120l-57 32l71 123c-23 21 -82 75 -82 178c0 131 99 241 225 241c41 0 75 -13 89 -20l67 117zM149 103l163 282c-17 7 -36 11 -55 11c-79 0 -146 -63 -146 -176
c0 -25 3 -76 38 -117zM364 344l-161 -280c17 -7 36 -10 54 -10c71 0 145 50 145 166c0 43 -10 90 -38 124z" />
    <glyph glyph-name="AE" unicode="&#xc6;" horiz-adv-x="885" 
d="M200 219l-91 -219h-80l291 694h508v-70h-69c-70 0 -141 2 -211 2h-22v-233h273v-65h-273v-254c14 1 55 1 122 1l194 1v-76h-411v219h-231zM371 626l-146 -348h206v348h-60z" />
    <glyph glyph-name="OE" unicode="&#x152;" horiz-adv-x="1000" 
d="M579 328v-254c93 0 186 2 279 2h98v-76h-420c-10 0 -35 0 -87 -11c-46 -11 -67 -11 -80 -11c-178 0 -340 156 -340 366c0 212 160 372 341 372c17 0 40 -2 79 -11c52 -11 76 -11 87 -11h406v-70h-84c-80 0 -161 2 -241 2h-38v-233h334v-65h-334zM374 43
c104 0 110 45 111 184c0 40 1 79 1 119c0 91 0 178 -4 210c-8 65 -24 95 -108 95c-141 0 -252 -128 -252 -292c0 -170 108 -316 252 -316z" />
    <glyph glyph-name="Oslash" unicode="&#xd8;" horiz-adv-x="799" 
d="M660 726l-51 -89c78 -64 132 -171 132 -293c0 -205 -156 -366 -342 -366c-56 0 -106 14 -154 39l-48 -83l-59 34l51 88c-66 52 -132 155 -132 288c0 208 156 372 342 372c58 0 114 -18 154 -39l48 83zM226 119l292 499c-45 25 -84 33 -119 33c-129 0 -251 -110 -251 -307
c0 -82 23 -164 78 -225zM571 573l-291 -497c35 -20 73 -33 119 -33c130 0 251 109 251 301c0 54 -9 152 -79 229z" />
    <glyph glyph-name="suppress" horiz-adv-x="245" 
d="M252 338l-243 -73l-17 60l243 73z" />
    <glyph glyph-name="exclam" unicode="!" horiz-adv-x="325" 
d="M206 694l-8 -517h-70l-8 517h86zM120 0v86h86v-86h-86z" />
    <glyph glyph-name="quotedblright" unicode="&#x201d;" 
d="M120 609l-44 -128h-43l27 127h-26v86h86v-85zM320 609l-44 -128h-43l27 127h-26v86h86v-85z" />
    <glyph glyph-name="numbersign" unicode="#" horiz-adv-x="856" 
d="M532 124l-82 -294c-3 -12 -7 -24 -22 -24c-13 0 -22 9 -22 22c0 4 0 6 4 18l77 278h-190l-82 -294c-3 -12 -7 -24 -22 -24c-13 0 -22 9 -22 22c0 4 0 6 4 18l77 278h-158c-15 0 -37 0 -37 22c0 21 20 21 33 21h175l45 167h-220c-13 0 -33 0 -33 21c0 22 22 22 37 22h229
l82 293c3 12 7 24 22 24c13 0 22 -9 22 -22c0 -4 0 -6 -4 -18l-77 -277h190l82 293c3 12 7 24 22 24c13 0 22 -9 22 -22c0 -4 0 -6 -4 -18l-77 -277h158c15 0 37 0 37 -22c0 -21 -19 -21 -33 -21h-175l-45 -167h220c14 0 33 0 33 -21c0 -22 -22 -22 -37 -22h-229zM310 167
h190l45 167h-190z" />
    <glyph glyph-name="dollar" unicode="$" 
d="M288 636v-234c120 -24 168 -126 168 -205c0 -95 -63 -187 -168 -205v-48h-62v46c-52 5 -117 22 -180 69l13 72c24 -21 83 -64 167 -72v260c-128 26 -169 125 -169 192c0 97 73 177 169 192v47h62v-46c49 -4 97 -17 151 -56l-13 -69c-37 29 -79 51 -138 57zM226 418v215
c-68 -16 -91 -70 -91 -107c0 -48 33 -94 91 -108zM288 304v-243c60 18 90 71 90 122c0 58 -38 107 -90 121z" />
    <glyph glyph-name="percent" unicode="%" horiz-adv-x="856" 
d="M671 710l-447 -749c-5 -8 -10 -17 -22 -17s-22 9 -22 22c0 5 1 7 9 20l445 747c5 8 10 17 23 17c9 0 21 -8 21 -22c0 -2 0 -7 -7 -18zM798 145c0 -115 -67 -201 -141 -201s-144 83 -144 202c0 116 69 201 144 201c73 0 141 -84 141 -202zM657 9c38 0 68 61 68 137
c0 72 -29 136 -68 136c-15 0 -65 -7 -65 -137c0 -131 52 -136 65 -136zM342 548c0 -115 -67 -201 -141 -201s-144 83 -144 202c0 116 69 201 144 201c73 0 141 -84 141 -202zM201 412c38 0 68 61 68 137c0 72 -29 136 -68 136c-15 0 -65 -7 -65 -137c0 -131 52 -136 65 -136
z" />
    <glyph glyph-name="ampersand" unicode="&#x26;" horiz-adv-x="779" 
d="M618 406l66 -19c-49 -169 -138 -264 -187 -306c48 -35 89 -35 106 -35c22 0 66 3 118 18v-71c-26 -7 -74 -15 -119 -15c-40 0 -98 7 -167 58c-47 -28 -120 -58 -204 -58c-110 0 -188 79 -188 170c0 64 39 106 51 118c22 20 80 66 103 85c-20 53 -31 110 -31 163
c0 106 53 202 143 202c83 0 134 -82 134 -159c0 -82 -82 -152 -156 -216c46 -95 140 -200 158 -216c86 72 142 173 173 281zM260 404c72 61 110 107 110 154c0 23 -9 93 -62 93c-43 0 -74 -45 -74 -98c0 -11 0 -69 26 -149zM224 289c-56 -46 -59 -48 -63 -52
c-28 -28 -35 -57 -35 -82c0 -47 32 -109 107 -109c33 0 94 8 146 37c-29 27 -54 59 -79 90c-16 22 -42 54 -76 116z" />
    <glyph glyph-name="quoteright" unicode="&#x2019;" horiz-adv-x="285" 
d="M185 609l-44 -128h-43l27 127h-26v86h86v-85z" />
    <glyph glyph-name="parenleft" unicode="(" horiz-adv-x="399" 
d="M277 750h65c-54 -56 -178 -183 -178 -500c0 -316 124 -444 178 -499h-65c-113 95 -196 262 -196 500c0 229 78 400 196 499z" />
    <glyph glyph-name="parenright" unicode=")" horiz-adv-x="399" 
d="M122 -249h-65c54 56 178 183 178 500c0 316 -124 444 -178 499h65c113 -95 196 -262 196 -500c0 -229 -78 -400 -196 -499z" />
    <glyph glyph-name="asterisk" unicode="*" 
d="M284 479l8 -128l1 -9c0 -23 -18 -36 -37 -36c-15 0 -36 11 -36 36l9 137l-95 -66c-20 -14 -22 -14 -32 -14c-19 0 -36 15 -36 37s14 29 25 35l112 57l-113 58c-12 6 -24 12 -24 34s17 37 36 37c9 0 11 0 26 -11l101 -69l-9 137c0 23 18 36 37 36c15 0 36 -11 36 -36
l-9 -137l101 70c12 8 16 10 26 10c19 0 36 -15 36 -37s-14 -29 -25 -35l-112 -57l113 -58c12 -6 24 -12 24 -34s-17 -37 -36 -37c-9 0 -11 0 -26 11z" />
    <glyph glyph-name="plus" unicode="+" horiz-adv-x="799" 
d="M421 229v-286c0 -14 0 -35 -21 -35c-22 0 -22 19 -22 35v286h-286c-16 0 -35 0 -35 22c0 21 21 21 35 21h286v286c0 14 0 35 21 35c22 0 22 -19 22 -35v-286h285c16 0 35 0 35 -22c0 -21 -21 -21 -35 -21h-285z" />
    <glyph glyph-name="comma" unicode="," horiz-adv-x="285" 
d="M185 1l-44 -128h-43l27 127h-26v86h86v-85z" />
    <glyph glyph-name="hyphen" unicode="-" horiz-adv-x="342" 
d="M285 191h-274v62h274v-62z" />
    <glyph glyph-name="period" unicode="." horiz-adv-x="285" 
d="M185 86v-86h-86v86h86z" />
    <glyph glyph-name="slash" unicode="/" 
d="M451 711l-349 -938c-4 -12 -8 -23 -24 -23c-9 0 -21 7 -21 22c0 4 2 8 5 17l349 938c4 12 8 23 24 23c9 0 21 -7 21 -22c0 -4 -2 -8 -5 -17z" />
    <glyph glyph-name="zero" unicode="0" 
d="M472 325c0 -80 -5 -167 -43 -240c-43 -83 -115 -107 -173 -107c-44 0 -120 14 -170 102c-45 81 -45 195 -45 245c0 69 3 175 50 254c45 78 116 97 166 97c66 0 128 -34 161 -89c47 -79 54 -167 54 -262zM257 43c39 0 86 23 109 92c23 65 23 134 23 202
c0 93 0 274 -133 274c-57 0 -98 -39 -117 -108c-15 -52 -15 -103 -15 -166c0 -94 0 -294 133 -294z" />
    <glyph glyph-name="one" unicode="1" 
d="M309 676v-614h128v-62h-341v62h128v510c-55 -23 -106 -23 -134 -23v62c35 0 131 0 198 65h21z" />
    <glyph glyph-name="two" unicode="2" 
d="M274 75h188v-75h-411v68l185 175c74 66 138 124 138 215c0 82 -56 150 -145 150c-62 0 -114 -33 -140 -150l-46 58c31 99 94 160 200 160c136 0 219 -101 219 -216c0 -97 -65 -151 -170 -237c-31 -26 -134 -120 -164 -149h110c12 0 24 1 36 1z" />
    <glyph glyph-name="three" unicode="3" 
d="M96 513l-39 57c42 63 113 106 197 106c103 0 188 -67 188 -153c0 -69 -42 -134 -112 -170c82 -27 140 -93 140 -172c0 -105 -91 -203 -217 -203c-85 0 -161 41 -210 100c4 22 4 24 12 64c38 -54 114 -99 196 -99c76 0 123 60 123 139c0 60 -31 139 -128 139h-75v65
c19 1 35 2 54 4c108 10 129 96 129 133c0 63 -50 91 -101 91c-37 0 -113 -14 -157 -101z" />
    <glyph glyph-name="four" unicode="4" 
d="M384 167v-167h-84v167h-271v65l258 422h97v-422h100v-65h-100zM112 232h194v376c0 -51 -103 -225 -133 -276z" />
    <glyph glyph-name="five" unicode="5" 
d="M158 586v-200c47 40 96 40 109 40c106 0 195 -99 195 -223c0 -125 -102 -225 -227 -225c-113 0 -180 76 -196 98l36 59c39 -67 107 -92 159 -92c60 0 132 39 132 161c0 126 -60 157 -101 157c-19 0 -80 -5 -112 -79h-72v372h346v-68h-269z" />
    <glyph glyph-name="six" unicode="6" 
d="M426 656v-63c-51 20 -88 21 -108 21c-107 0 -175 -99 -186 -233c62 71 136 82 174 82c47 0 82 -17 122 -80c34 -54 42 -104 42 -160c0 -79 -19 -125 -67 -178c-40 -45 -84 -67 -145 -67c-94 0 -215 69 -215 343c0 215 130 355 274 355c22 0 61 -2 109 -20zM133 219
c3 -33 18 -176 125 -176c52 0 80 27 99 57c26 43 26 84 26 123c0 46 -2 78 -22 114c-26 47 -60 61 -98 61c-81 0 -129 -76 -129 -152c-1 -11 -1 -13 -1 -27z" />
    <glyph glyph-name="seven" unicode="7" 
d="M239 579h-196v75h427v-69c-115 -127 -225 -338 -225 -596h-90c0 226 87 427 243 591h-123c-12 0 -24 -1 -36 -1z" />
    <glyph glyph-name="eight" unicode="8" 
d="M330 354c102 -37 140 -110 140 -173c0 -108 -92 -203 -214 -203c-118 0 -213 93 -213 203c0 59 34 135 140 173c-63 18 -126 72 -126 147c0 90 83 175 200 175c113 0 199 -83 199 -175c0 -75 -63 -129 -126 -147zM256 386c83 0 126 52 126 114c0 64 -44 114 -126 114
c-77 0 -125 -47 -125 -114c0 -66 47 -114 125 -114zM257 43c66 0 127 45 127 138c0 103 -71 140 -128 140c-51 0 -127 -33 -127 -140c0 -90 57 -138 128 -138z" />
    <glyph glyph-name="nine" unicode="9" 
d="M74 25l33 56c38 -32 76 -38 104 -38c66 0 154 52 170 231c-27 -33 -88 -83 -174 -83c-48 0 -82 19 -117 73c-34 51 -47 99 -47 168c0 75 17 121 66 176c45 49 94 68 151 68c93 0 210 -70 210 -342c0 -217 -125 -356 -259 -356c-47 0 -92 11 -137 47zM378 433
c-1 36 -14 181 -118 181c-59 0 -85 -35 -97 -52c-32 -44 -33 -87 -33 -130c0 -42 1 -82 26 -122c16 -25 40 -54 94 -54c78 0 129 72 129 154c0 7 0 17 -1 23z" />
    <glyph glyph-name="colon" unicode=":" horiz-adv-x="285" 
d="M185 444v-86h-86v86h86zM99 86h86v-86h-86v86z" />
    <glyph glyph-name="semicolon" unicode=";" horiz-adv-x="285" 
d="M185 444v-86h-86v86h86zM98 -127l27 127h-26v86h86v-85l-44 -128h-43z" />
    <glyph glyph-name="exclamdown" unicode="&#xa1;" horiz-adv-x="325" 
d="M206 500v-86h-86v86h86zM198 280l8 -474h-86l8 474v43h70v-43z" />
    <glyph glyph-name="equal" unicode="=" horiz-adv-x="799" 
d="M708 334h-618c-13 0 -33 0 -33 21c0 22 22 22 37 22h610c15 0 37 0 37 -22c0 -21 -19 -21 -33 -21zM704 124h-610c-15 0 -37 0 -37 22c0 21 20 21 33 21h618c14 0 33 0 33 -21c0 -22 -22 -22 -37 -22z" />
    <glyph glyph-name="questiondown" unicode="&#xbf;" horiz-adv-x="485" 
d="M271 500v-86h-86v86h86zM403 -85l24 -67c-72 -41 -144 -53 -197 -53c-132 0 -173 78 -173 156c0 70 30 100 51 122c77 77 85 159 85 195v55h70v-32c0 -75 -11 -175 -96 -269c-13 -13 -27 -29 -27 -73c0 -66 29 -89 89 -89c41 0 108 9 174 55z" />
    <glyph glyph-name="question" unicode="?" horiz-adv-x="485" 
d="M263 230v-53h-70v32c0 66 10 181 115 268c14 12 36 29 36 73c0 82 -65 90 -113 90c-54 0 -106 -17 -150 -55l-24 67c66 44 127 53 173 53c152 0 197 -83 197 -156c0 -72 -40 -105 -55 -118c-78 -64 -109 -135 -109 -201zM185 0v86h86v-86h-86z" />
    <glyph glyph-name="at" unicode="@" horiz-adv-x="685" 
d="M575 87h52c-40 -44 -121 -98 -228 -98c-187 0 -342 158 -342 358c0 202 158 358 341 358c227 0 229 -253 229 -344c0 -182 -119 -242 -190 -242c-103 0 -191 99 -191 228s88 228 191 228c18 0 49 -4 82 -22c-21 56 -68 87 -122 87c-135 0 -261 -123 -261 -293
c0 -158 113 -293 266 -293c36 0 89 6 147 29c8 4 10 4 26 4zM436 184c61 0 112 71 112 163s-51 163 -112 163c-58 0 -111 -68 -111 -163s53 -163 111 -163z" />
    <glyph glyph-name="A" unicode="A" horiz-adv-x="686" 
d="M389 694l268 -694h-99l-77 199h-297l-76 -199h-79l268 694h92zM332 620l-124 -362h249z" />
    <glyph glyph-name="B" unicode="B" horiz-adv-x="685" 
d="M98 694h247c143 0 254 -82 254 -174c0 -73 -70 -132 -169 -157c107 -16 198 -86 198 -175c0 -96 -106 -188 -256 -188h-274v694zM188 393h117c139 0 210 67 210 125c0 70 -97 117 -199 117h-128v-242zM188 59h155c111 0 198 59 198 130c0 79 -100 139 -206 139h-147v-269
z" />
    <glyph glyph-name="C" unicode="C" horiz-adv-x="656" 
d="M599 108l6 -74c-70 -41 -109 -56 -199 -56c-203 0 -340 176 -340 369c0 195 139 369 339 369c64 0 122 -10 188 -35l-16 -87c-54 36 -106 54 -173 54c-143 0 -242 -141 -242 -301c0 -152 92 -301 245 -301c97 0 132 23 192 62z" />
    <glyph glyph-name="D" unicode="D" horiz-adv-x="743" 
d="M97 694h273c174 0 315 -157 315 -353c0 -189 -141 -341 -315 -341h-273v694zM190 59h155c136 0 247 107 247 282c0 181 -110 294 -248 294h-154v-576z" />
    <glyph glyph-name="E" unicode="E" horiz-adv-x="617" 
d="M530 327h-339v-253c94 0 188 2 282 2h100v-76h-478v691h464v-70h-86c-81 0 -163 2 -244 2h-38v-231h339v-65z" />
    <glyph glyph-name="F" unicode="F" horiz-adv-x="588" 
d="M502 313h-311v-313h-96v691h450v-70h-83c-79 0 -158 2 -237 2h-34v-245h311v-65z" />
    <glyph glyph-name="G" unicode="G" horiz-adv-x="685" 
d="M615 299v-272c-68 -32 -144 -49 -213 -49c-189 0 -336 167 -336 369c0 197 141 369 338 369c55 0 128 -8 203 -50l-16 -86c-52 42 -107 68 -188 68c-140 0 -241 -139 -241 -301c0 -163 101 -301 241 -301c58 0 106 13 129 20v168h-133v65h216z" />
    <glyph glyph-name="H" unicode="H" horiz-adv-x="726" 
d="M631 694v-694h-96v328h-344v-328h-96v694h96v-301h344v301h96z" />
    <glyph glyph-name="I" unicode="I" horiz-adv-x="287" 
d="M191 694v-694h-96v694h96z" />
    <glyph glyph-name="J" unicode="J" horiz-adv-x="486" 
d="M399 694v-545c0 -116 -77 -171 -180 -171c-39 0 -104 6 -176 42l14 80c29 -31 77 -57 130 -57c119 0 119 92 119 109v542h93z" />
    <glyph glyph-name="K" unicode="K" horiz-adv-x="715" 
d="M382 420l289 -420h-99l-249 361l-134 -133v-228h-91v694h91v-368l369 368h98z" />
    <glyph glyph-name="L" unicode="L" horiz-adv-x="560" 
d="M191 694v-626h38c81 0 162 2 243 2h44v-70h-421v694h96z" />
    <glyph glyph-name="M" unicode="M" horiz-adv-x="898" 
d="M541 352l134 342h120v-694h-82v616h-1c-13 -47 -74 -205 -89 -242l-138 -352h-76c-6 14 -25 64 -33 84l-110 282c-11 28 -69 177 -81 228h-1v-616h-82v694h120l18 -45l133 -341c19 -48 65 -169 75 -210h1c12 49 66 187 92 254z" />
    <glyph glyph-name="N" unicode="N" horiz-adv-x="726" 
d="M281 595l264 -517h1v616h82v-694h-132c-6 11 -20 40 -26 52c-5 7 -17 31 -25 47l-264 517h-1v-616h-82v694h132c6 -11 20 -40 26 -52c5 -7 17 -31 25 -47z" />
    <glyph glyph-name="O" unicode="O" horiz-adv-x="759" 
d="M701 344c0 -208 -149 -366 -322 -366c-172 0 -322 158 -322 366c0 211 149 372 322 372s322 -161 322 -372zM379 48c119 0 226 123 226 311c0 182 -112 289 -226 289s-226 -106 -226 -289c0 -188 107 -311 226 -311z" />
    <glyph glyph-name="P" unicode="P" horiz-adv-x="657" 
d="M356 285h-163v-285h-96v694h259c142 0 243 -97 243 -203c0 -109 -102 -206 -243 -206zM332 635h-142v-288h142c116 0 180 64 180 144s-65 144 -180 144z" />
    <glyph glyph-name="Q" unicode="Q" horiz-adv-x="759" 
d="M549 33l123 -160h-112l-85 121c-26 -9 -65 -16 -96 -16c-172 0 -322 158 -322 366c0 211 149 372 322 372s322 -161 322 -372c0 -135 -63 -248 -152 -311zM431 53l-99 141h94l78 -101c50 39 104 123 104 252c0 183 -109 303 -229 303s-229 -119 -229 -303
c0 -187 112 -299 229 -299c18 0 35 2 52 7z" />
    <glyph glyph-name="R" unicode="R" horiz-adv-x="665" 
d="M434 325l202 -325h-96l-190 315h-160v-315h-93v694h252c143 0 259 -84 259 -187c0 -82 -72 -154 -174 -182zM190 380h147c123 0 184 62 184 127c0 72 -68 128 -184 128h-147v-255z" />
    <glyph glyph-name="S" unicode="S" horiz-adv-x="570" 
d="M244 420l101 -24c75 -18 168 -92 168 -205c0 -111 -94 -213 -231 -213c-47 0 -138 8 -236 69l16 87c63 -51 139 -82 220 -82c89 0 146 62 146 128c0 62 -50 106 -96 120c-8 2 -70 17 -84 21c-41 10 -106 25 -152 85c-34 46 -39 86 -39 111c0 100 90 199 232 199
c91 0 139 -24 189 -49l-16 -87c-52 44 -102 65 -174 65c-91 0 -146 -58 -146 -115c0 -58 51 -98 102 -110z" />
    <glyph glyph-name="T" unicode="T" horiz-adv-x="702" 
d="M399 620v-620h-96v620c-68 0 -137 -2 -205 -2h-61v70h627v-70h-60c-68 0 -137 2 -205 2z" />
    <glyph glyph-name="U" unicode="U" horiz-adv-x="706" 
d="M611 694v-461c0 -145 -117 -255 -255 -255s-261 107 -261 256v460h96v-462c0 -133 83 -195 166 -195c84 0 171 62 171 196v461h83z" />
    <glyph glyph-name="V" unicode="V" horiz-adv-x="686" 
d="M672 694l-281 -694h-96l-281 694h101l122 -306c25 -63 104 -259 114 -312h1c13 59 101 279 112 306l125 312h83z" />
    <glyph glyph-name="W" unicode="W" horiz-adv-x="972" 
d="M957 694l-210 -694h-90l-92 307c-21 69 -76 254 -82 309h-1c0 -4 -5 -35 -29 -120l-43 -153l-102 -343h-84l-210 694h92l86 -288c24 -81 77 -264 85 -328l1 1c6 62 65 262 85 329l85 286h84l92 -308l47 -162c32 -116 36 -147 36 -147c7 58 57 227 77 293l96 324h77z" />
    <glyph glyph-name="X" unicode="X" horiz-adv-x="686" 
d="M382 366l290 -366h-113l-223 303l-219 -303h-103l275 366l-260 328h113l194 -258l190 258h103z" />
    <glyph glyph-name="Y" unicode="Y" horiz-adv-x="686" 
d="M683 694l-293 -416v-278h-93v278l-294 416h114l171 -244l65 -97l71 105l165 236h94z" />
    <glyph glyph-name="Z" unicode="Z" horiz-adv-x="628" 
d="M570 651l-390 -583h29c89 0 180 2 269 2h98v-70h-519v45l390 584h-24c-86 0 -173 -2 -259 -2h-93v67h499v-43z" />
    <glyph glyph-name="bracketleft" unicode="[" horiz-adv-x="298" 
d="M276 -250h-173v1000h173v-65h-96v-870h96v-65z" />
    <glyph glyph-name="quotedblleft" unicode="&#x201c;" 
d="M280 694l-27 -127h26v-86h-86v85l44 128h43zM480 694l-27 -127h26v-86h-86v85l44 128h43z" />
    <glyph glyph-name="bracketright" unicode="]" horiz-adv-x="298" 
d="M195 750v-1000h-173v65h96v870h-96v65h173z" />
    <glyph glyph-name="circumflex" unicode="&#x2c6;" 
d="M290 694l143 -167h-65l-112 121l-111 -121h-65l143 167h67z" />
    <glyph glyph-name="dotaccent" unicode="&#x2d9;" horiz-adv-x="285" 
d="M190 684v-96h-96v96h96z" />
    <glyph glyph-name="quoteleft" unicode="&#x2018;" horiz-adv-x="285" 
d="M186 694l-27 -127h26v-86h-86v85l44 128h43z" />
    <glyph glyph-name="a" unicode="a" horiz-adv-x="493" 
d="M412 289v-289h-80v38c-63 -47 -150 -49 -170 -49c-87 0 -118 80 -118 127c0 81 113 126 285 130v42c0 65 -34 110 -90 110c-55 0 -104 -15 -154 -52l-6 71c48 27 96 44 161 44c99 0 172 -73 172 -172zM329 140v52c-13 0 -208 -3 -208 -74c0 -40 43 -64 94 -64
c20 0 53 4 78 19c36 21 36 46 36 67z" />
    <glyph glyph-name="b" unicode="b" horiz-adv-x="530" 
d="M163 694v-297c68 53 140 58 167 58c98 0 164 -111 164 -232c0 -133 -86 -234 -190 -234c-74 0 -125 44 -138 58v-47h-83v694h80zM166 334v-218c5 -9 34 -62 98 -62c61 0 147 40 147 169c0 125 -77 167 -137 167c-57 0 -93 -35 -108 -56z" />
    <glyph glyph-name="c" unicode="c" horiz-adv-x="456" 
d="M421 108l6 -71c-45 -27 -98 -48 -168 -48c-130 0 -223 109 -223 233c0 119 85 239 227 239c72 0 103 -12 159 -44l-13 -70c-50 34 -82 46 -145 46c-107 0 -145 -93 -145 -170c0 -95 56 -166 141 -166c60 0 113 18 161 51z" />
    <glyph glyph-name="d" unicode="d" horiz-adv-x="530" 
d="M447 694v-694h-83v52c-60 -56 -123 -63 -153 -63c-98 0 -175 104 -175 233c0 128 78 233 179 233c32 0 96 -8 152 -55v294h80zM364 141v197c-19 26 -51 52 -97 52c-63 0 -148 -41 -148 -169c0 -120 72 -167 137 -167c36 0 70 16 97 52c11 14 11 16 11 35z" />
    <glyph glyph-name="e" unicode="e" horiz-adv-x="456" 
d="M427 219h-318c3 -92 67 -165 150 -165c35 0 94 8 157 53l6 -69c-58 -37 -116 -49 -164 -49c-125 0 -223 105 -223 237c0 128 92 235 208 235c38 0 102 -12 144 -75c39 -60 40 -136 40 -167zM115 278h252c-19 101 -87 118 -124 118c-63 0 -112 -54 -128 -118z" />
    <glyph glyph-name="f" unicode="f" horiz-adv-x="314" 
d="M183 382v-382h-80v382h-75v62h75v88c0 100 74 173 171 173c38 0 70 -8 82 -11v-71c-41 17 -74 17 -83 17c-28 0 -93 -8 -93 -80v-116h114v-62h-111z" />
    <glyph glyph-name="g" unicode="g" 
d="M487 455l12 -67c-29 4 -66 4 -74 4c-13 0 -62 0 -62 -5c0 -1 0 -2 4 -7c16 -27 26 -55 26 -89c0 -88 -73 -163 -165 -163c-34 0 -68 11 -95 29c-5 -8 -9 -14 -9 -34c0 -52 45 -52 58 -52h92c44 0 210 -2 210 -141c0 -75 -99 -136 -228 -136s-227 62 -227 135
c0 28 12 71 64 104c-15 19 -25 47 -25 75s10 58 29 83c-28 39 -34 76 -34 101c0 88 73 163 165 163c47 0 84 -21 99 -32c74 32 141 32 160 32zM228 188c40 0 91 23 91 104c0 74 -45 103 -91 103c-40 0 -91 -23 -91 -104c0 -74 45 -103 91 -103zM274 -5h-94
c-77 0 -77 -63 -77 -65c0 -47 76 -76 154 -76c80 0 153 31 153 75c0 66 -115 66 -136 66z" />
    <glyph glyph-name="h" unicode="h" horiz-adv-x="530" 
d="M449 297v-297h-83v290c0 29 0 100 -100 100c-76 0 -102 -80 -102 -146v-244h-83v694h80v-311c36 45 90 72 147 72c121 0 141 -84 141 -158z" />
    <glyph glyph-name="i" unicode="i" horiz-adv-x="245" 
d="M170 684v-96h-96v96h96zM162 444v-444h-80v444h80z" />
    <glyph glyph-name="j" unicode="j" horiz-adv-x="273" 
d="M191 684v-96h-96v96h96zM-63 -171l17 65c25 -23 55 -31 78 -31c25 0 43 7 58 19c21 16 21 34 21 51v511h80v-503c0 -92 -62 -146 -130 -146c-26 0 -74 6 -124 34z" />
    <glyph glyph-name="k" unicode="k" horiz-adv-x="502" 
d="M289 272l195 -272h-86l-159 222l-81 -80v-142h-73v694h76v-456l205 206h95z" />
    <glyph glyph-name="l" unicode="l" horiz-adv-x="245" 
d="M162 694v-694h-80v694h80z" />
    <glyph glyph-name="m" unicode="m" horiz-adv-x="816" 
d="M734 297v-297h-83v290c0 29 0 100 -100 100c-76 0 -102 -80 -102 -146v-244h-83v290c0 29 0 100 -100 100c-76 0 -102 -80 -102 -146v-244h-83v450h77v-71c23 30 71 76 150 76c102 0 123 -62 130 -82c24 31 71 82 155 82c121 0 141 -84 141 -158z" />
    <glyph glyph-name="n" unicode="n" horiz-adv-x="530" 
d="M449 297v-297h-83v290c0 29 0 100 -100 100c-76 0 -102 -80 -102 -146v-244h-83v450h77v-71c23 30 71 76 150 76c121 0 141 -84 141 -158z" />
    <glyph glyph-name="o" unicode="o" 
d="M483 220c0 -130 -103 -231 -227 -231c-121 0 -226 99 -226 231c0 133 102 241 226 241c127 0 227 -110 227 -241zM257 57c73 0 143 57 143 173c0 115 -72 166 -144 166c-68 0 -143 -49 -143 -166c0 -113 67 -173 144 -173z" />
    <glyph glyph-name="p" unicode="p" horiz-adv-x="530" 
d="M166 46v-240h-83v638h80v-48c69 54 143 59 171 59c97 0 160 -112 160 -232c0 -135 -88 -234 -189 -234c-52 0 -102 22 -139 57zM166 332v-216c29 -49 65 -62 97 -62c78 0 148 72 148 168c0 94 -63 165 -138 165c-57 0 -94 -37 -107 -55z" />
    <glyph glyph-name="q" unicode="q" horiz-adv-x="530" 
d="M447 455v-649h-83v243c-34 -30 -92 -60 -157 -60c-99 0 -171 107 -171 232c0 135 88 234 189 234c79 0 124 -49 142 -68v68h80zM367 141v138c0 41 -34 108 -100 108c-76 0 -148 -67 -148 -166c0 -92 62 -167 138 -167c27 0 54 10 75 28c35 28 35 45 35 59z" />
    <glyph glyph-name="r" unicode="r" horiz-adv-x="351" 
d="M163 213v-213h-80v450h74v-91c41 59 107 95 179 96v-72c-91 -1 -173 -65 -173 -170z" />
    <glyph glyph-name="s" unicode="s" horiz-adv-x="393" 
d="M353 429l-13 -70c-29 16 -72 39 -145 39c-15 0 -86 0 -86 -59c0 -47 50 -56 86 -63c62 -12 92 -18 126 -47c35 -30 49 -65 49 -100c0 -119 -104 -140 -169 -140c-51 0 -112 12 -172 44l13 73c43 -30 100 -50 159 -50c13 0 94 0 94 65c0 51 -57 62 -89 68
c-68 13 -94 18 -132 51c-11 11 -40 41 -40 89c0 132 147 132 170 132c41 0 87 -4 149 -32z" />
    <glyph glyph-name="t" unicode="t" horiz-adv-x="371" 
d="M181 382v-238c0 -52 13 -87 52 -87c31 0 66 12 92 32l17 -63c-56 -28 -108 -37 -152 -37c-73 0 -86 78 -86 137v256h-85v62h88v127h74v-127h144v-62h-144z" />
    <glyph glyph-name="u" unicode="u" horiz-adv-x="530" 
d="M449 444v-444h-80v48c-47 -42 -125 -59 -183 -59c-71 0 -105 35 -105 120v335h83v-330c0 -43 7 -66 79 -66c60 0 123 27 123 107v289h83z" />
    <glyph glyph-name="v" unicode="v" horiz-adv-x="473" 
d="M459 444l-176 -444h-93l-176 444h82c2 -6 51 -128 81 -209c55 -144 58 -163 60 -180h2c5 37 42 134 62 186l79 203h79z" />
    <glyph glyph-name="w" unicode="w" horiz-adv-x="702" 
d="M687 444l-141 -444h-91l-76 247c-8 26 -8 28 -19 72c-2 10 -11 49 -13 68h-1c-3 -43 -27 -123 -48 -194c-6 -23 -43 -138 -60 -193h-83l-141 444h80l60 -195c19 -62 45 -153 48 -190h1c4 63 75 287 107 385h74l69 -222c17 -56 38 -124 44 -166h1c7 60 89 316 112 388h77z
" />
    <glyph glyph-name="x" unicode="x" horiz-adv-x="473" 
d="M268 229l205 -229h-88l-151 187l-147 -187h-87l199 229l-193 215h87l141 -163l135 163h87z" />
    <glyph glyph-name="y" unicode="y" horiz-adv-x="473" 
d="M459 444l-222 -530c-50 -119 -93 -119 -120 -119c-34 0 -71 7 -74 8l-6 69c30 -13 65 -17 81 -17c14 0 33 0 59 56l37 89l-200 444h84c31 -71 48 -105 89 -207c12 -29 54 -132 57 -178c5 70 60 203 136 385h79z" />
    <glyph glyph-name="z" unicode="z" horiz-adv-x="446" 
d="M410 403l-267 -338h84c12 0 24 1 36 1h150v-66h-384v43l268 339h-77c-12 0 -24 -1 -36 -1h-141v63h367v-41z" />
    <glyph glyph-name="endash" unicode="&#x2013;" 
d="M513 242h-513v65h513v-65z" />
    <glyph glyph-name="emdash" unicode="&#x2014;" horiz-adv-x="1027" 
d="M1027 242h-1027v65h1027v-65z" />
    <glyph glyph-name="hungarumlaut" unicode="&#x2dd;" 
d="M256 694l-81 -167h-65l63 167h83zM427 694l-81 -167h-65l63 167h83z" />
    <glyph glyph-name="tilde" unicode="&#x2dc;" 
d="M362 678h65c-1 -77 -50 -123 -101 -123c-27 0 -49 15 -74 31c-17 12 -40 27 -63 27c-31 0 -38 -36 -38 -58h-65c1 77 50 123 101 123c27 0 49 -15 74 -31c17 -12 40 -27 63 -27c31 0 38 36 38 58z" />
    <glyph glyph-name="dieresis" unicode="&#xa8;" 
d="M202 684v-90h-90v90h90zM401 684v-90h-90v90h90z" />
    <glyph glyph-name="space" unicode=" " horiz-adv-x="342" 
 />
  </font>
</defs>
</svg>
