<?xml version="1.0" standalone="no"?>
<!DOCTYPE svg PUBLIC "-//W3C//DTD SVG 1.1//EN" "http://www.w3.org/Graphics/SVG/1.1/DTD/svg11.dtd" >
<svg>
<metadata>
Created by FontForge 20060822 at Fri Oct  6 18:25:53 2006
 By Wojciech Mula,,,
Copyright (C) 1997 American Mathematical Society. All Rights Reserved
</metadata>
<defs>
<font id="CMTEX10" horiz-adv-x="525" >
  <font-face 
    font-family="Computer Modern"
    font-weight="500"
    font-stretch="normal"
    units-per-em="1000"
    panose-1="2 0 6 9 0 0 0 0 0 0"
    ascent="800"
    descent="-200"
    x-height="431"
    cap-height="611"
    bbox="-23 -233 537 694"
    underline-thickness="0"
    underline-position="0"
    stemh="61"
    stemv="69"
    unicode-range="U+0020-U+25CA"
  />
    <missing-glyph />
    <glyph glyph-name="dotmath" unicode="&#x22c5;" 
d="M325 306c0 -31 -25 -62 -63 -62c-32 0 -62 26 -62 63c0 31 25 62 63 62c32 0 62 -26 62 -63z" />
    <glyph glyph-name="arrowdown" unicode="&#x2193;" 
d="M297 564v-437c47 44 121 78 140 78c13 0 28 -9 28 -30c0 -22 -11 -26 -31 -34c-91 -33 -130 -98 -147 -126c-2 -3 -9 -15 -25 -15c-14 0 -21 8 -26 18c-15 23 -55 90 -146 123c-20 8 -31 12 -31 34c0 21 15 30 28 30c18 0 93 -33 140 -78v437c0 12 0 47 35 47
s35 -35 35 -47z" />
    <glyph glyph-name="alpha" unicode="&#x3b1;" 
d="M412 140v-29c0 -13 0 -36 8 -56c2 1 9 0 13 10c9 18 23 18 33 18c18 0 35 -8 35 -28c0 -25 -31 -61 -83 -61c-42 0 -64 31 -71 66c-42 -39 -96 -66 -154 -66c-79 0 -121 69 -121 154c0 139 106 289 216 289c99 0 119 -101 125 -140h1l17 57c6 23 9 35 37 35
c22 0 34 -10 34 -28c0 -12 -32 -134 -90 -221zM343 151c0 32 2 96 2 101c0 59 -8 124 -58 124c-65 0 -147 -121 -147 -231c0 -15 3 -90 55 -90c74 0 126 66 148 96z" />
    <glyph glyph-name="beta" unicode="&#x3b2;" 
d="M-20 -180l153 614c29 116 154 183 257 183c80 0 126 -50 126 -107c0 -44 -28 -89 -76 -118c16 -15 45 -53 45 -123c0 -143 -119 -278 -236 -278c-87 0 -131 52 -140 64l-61 -248c-6 -25 -17 -29 -36 -29c-30 0 -35 17 -35 28c0 3 1 8 3 14zM367 366c-15 -2 -17 -2 -45 -2
c-59 0 -97 0 -97 33c0 34 40 34 98 34c14 0 34 -2 46 -2c19 0 78 35 78 81c0 26 -19 46 -59 46c-17 0 -80 -3 -141 -57c-34 -32 -40 -54 -63 -144c-6 -27 -13 -54 -20 -80c-9 -37 -22 -90 -22 -111c0 -68 43 -111 106 -111c87 0 169 117 169 218c0 19 -4 76 -50 95z" />
    <glyph glyph-name="logicaland" unicode="&#x2227;" 
d="M298 503l177 -460c4 -10 5 -13 5 -19c0 -18 -15 -35 -35 -35c-24 0 -30 17 -36 32l-147 381l-148 -384c-4 -10 -11 -29 -35 -29c-20 0 -35 17 -35 35c0 7 1 10 6 22l177 460c4 10 11 29 35 29s30 -17 36 -32z" />
    <glyph glyph-name="logicalnot" unicode="&#xac;" 
d="M480 313v-230c0 -12 0 -47 -35 -47s-35 35 -35 47v207h-319c-12 0 -47 0 -47 35s35 35 47 35h342c35 0 47 -10 47 -47z" />
    <glyph glyph-name="element" unicode="&#x2208;" 
d="M411 271h-272c11 -57 59 -146 173 -146h99c12 0 47 0 47 -35s-35 -35 -47 -35h-103c-142 0 -242 119 -242 251s99 251 242 251h103c12 0 47 0 47 -35s-35 -35 -47 -35h-99c-114 0 -162 -89 -173 -146h272c12 0 47 0 47 -35s-35 -35 -47 -35z" />
    <glyph glyph-name="pi" unicode="&#x3c0;" 
d="M287 364l-32 -124c-9 -34 -56 -183 -81 -229c-3 -5 -13 -17 -31 -17s-33 15 -33 33c0 5 0 7 5 20c47 108 71 197 101 317c-41 0 -65 0 -107 -77c-10 -17 -14 -21 -35 -21s-35 10 -35 28c0 5 52 137 161 137h278c13 0 44 0 44 -32c0 -35 -35 -35 -47 -35h-74
c-23 -92 -33 -157 -33 -215c0 -16 0 -58 12 -99c5 -14 5 -16 5 -20c0 -21 -18 -36 -36 -36c-29 0 -35 27 -42 62c-9 41 -9 80 -9 88c0 78 18 156 32 220h-43z" />
    <glyph glyph-name="lambda" unicode="&#x3bb;" 
d="M308 562l157 -500c0 -1 4 -12 9 -16c11 -7 14 -15 14 -24c0 -18 -13 -28 -34 -28c-41 0 -50 30 -60 61l-64 202l-219 -247c-5 -6 -14 -16 -30 -16c-22 0 -34 18 -34 33c0 12 6 19 15 29l245 275l-63 200c-5 14 -6 19 -56 19c-12 0 -40 0 -40 30c0 31 29 31 46 31
c84 0 104 -18 114 -49z" />
    <glyph glyph-name="gamma" unicode="&#x3b3;" 
d="M379 238l66 166c11 27 24 27 37 27c31 0 35 -18 35 -28c0 -5 0 -7 -14 -37c-20 -48 -49 -117 -84 -210c-34 -95 -55 -164 -56 -167c-21 -113 -42 -180 -47 -194c-5 -11 -13 -28 -33 -28c-2 0 -29 0 -29 35c0 27 31 139 40 174c18 65 18 153 18 169c0 21 0 72 -11 138
c-13 72 -36 87 -63 87c-36 0 -91 -30 -111 -98c-7 -23 -23 -23 -34 -23c-6 0 -35 0 -35 28c0 37 68 160 183 160c101 0 127 -103 137 -199h1z" />
    <glyph glyph-name="delta" unicode="&#x3b4;" 
d="M271 421c-25 15 -44 35 -44 70c0 50 52 126 145 126c89 0 131 -44 131 -67c0 -28 -27 -28 -34 -28c-15 0 -20 1 -30 12c-16 19 -47 22 -68 22c-53 0 -76 -41 -76 -58c0 -7 1 -8 20 -22c21 -15 40 -29 41 -29c42 -30 94 -69 94 -163c0 -84 -61 -293 -196 -293
c-86 0 -158 64 -158 170c0 109 75 215 175 260zM335 375c-93 -16 -170 -118 -170 -215c0 -73 43 -107 88 -107c90 0 128 183 128 226s-14 69 -46 96z" />
    <glyph glyph-name="arrowup" unicode="&#x2191;" 
d="M297 484v-437c0 -12 0 -47 -35 -47s-35 35 -35 47v437c-47 -44 -121 -78 -140 -78c-13 0 -28 9 -28 30c0 22 11 26 31 34c91 33 130 98 147 126c5 9 14 15 25 15c16 0 22 -11 26 -18c15 -23 55 -90 146 -123c20 -8 31 -12 31 -34c0 -21 -15 -30 -28 -30
c-18 0 -93 33 -140 78z" />
    <glyph glyph-name="plusminus" unicode="&#xb1;" 
d="M297 207h142c12 0 47 0 47 -35s-35 -35 -47 -35h-354c-12 0 -47 0 -47 35s35 35 47 35h142v120h-142c-12 0 -47 0 -47 35s35 35 47 35h142v143c0 12 0 47 35 47s35 -35 35 -47v-143h142c12 0 47 0 47 -35s-35 -35 -47 -35h-142v-120z" />
    <glyph glyph-name="circleplus" unicode="&#x2295;" 
d="M486 306c0 -124 -100 -225 -224 -225s-224 101 -224 225s100 225 224 225s224 -101 224 -225zM99 335h134v135c-81 -15 -124 -77 -134 -135zM291 470v-135h134c-10 58 -53 120 -134 135zM233 142v135h-134c10 -58 53 -120 134 -135zM425 277h-134v-135
c81 15 124 77 134 135z" />
    <glyph glyph-name="infinity" unicode="&#x221e;" 
d="M270 372c11 20 48 65 110 65c115 0 115 -150 115 -221c0 -73 -1 -222 -116 -222c-47 0 -96 24 -125 65c-11 -20 -48 -65 -110 -65c-115 0 -115 150 -115 221c0 73 1 222 116 222c47 0 96 -24 125 -65zM297 247v-98c0 -78 61 -93 83 -93c37 0 54 39 54 161
c0 159 -33 159 -54 159c-61 0 -83 -85 -83 -129zM227 184v98c0 78 -61 93 -83 93c-37 0 -54 -39 -54 -161c0 -159 33 -159 54 -159c61 0 83 85 83 129z" />
    <glyph glyph-name="partialdiff" unicode="&#x2202;" 
d="M262 514c3 -4 7 -9 7 -24c0 -22 -18 -48 -49 -48c-27 0 -41 20 -41 40c0 29 42 140 161 140c106 0 189 -87 189 -227c0 -122 -87 -406 -287 -406c-124 0 -163 103 -163 156c0 123 112 251 243 251c65 0 105 -30 123 -51c2 -1 7 -7 8 -7c3 0 7 34 7 59
c0 105 -53 164 -121 164c-28 0 -58 -13 -77 -47zM243 50c87 0 140 93 154 119c6 10 6 12 14 37c5 17 7 12 9 29c1 5 2 11 2 17c0 45 -33 82 -98 82c-92 0 -176 -98 -176 -189c0 -24 16 -95 95 -95z" />
    <glyph glyph-name="propersubset" unicode="&#x2282;" 
d="M270 125h151c12 0 47 0 47 -35s-35 -35 -47 -35h-155c-138 0 -210 131 -210 251c0 121 73 251 210 251h155c12 0 47 0 47 -35s-35 -35 -47 -35h-151c-115 0 -144 -122 -144 -181s29 -181 144 -181z" />
    <glyph glyph-name="propersuperset" unicode="&#x2283;" 
d="M254 487h-151c-12 0 -47 0 -47 35s35 35 47 35h155c138 0 210 -131 210 -251c0 -121 -73 -251 -210 -251h-155c-12 0 -47 0 -47 35s35 35 47 35h151c115 0 144 122 144 181s-29 181 -144 181z" />
    <glyph glyph-name="intersection" unicode="&#x2229;" 
d="M480 337v-301c0 -12 0 -47 -35 -47s-35 35 -35 47v297c0 104 -97 132 -148 132c-50 0 -148 -28 -148 -132v-297c0 -12 0 -47 -35 -47s-35 35 -35 47v301c0 127 112 198 218 198s218 -71 218 -198z" />
    <glyph glyph-name="union" unicode="&#x222a;" 
d="M480 488v-301c0 -127 -112 -198 -218 -198s-218 71 -218 198v301c0 12 0 47 35 47s35 -35 35 -47v-297c0 -104 97 -132 148 -132c50 0 148 28 148 132v297c0 12 0 47 35 47s35 -35 35 -47z" />
    <glyph glyph-name="universal" unicode="&#x2200;" 
d="M518 554l-221 -536c-5 -12 -12 -29 -35 -29c-19 0 -29 13 -36 29l-221 539c-3 7 -5 12 -5 19c0 19 16 35 35 35s30 -13 36 -29l47 -116h288l48 116c5 12 12 29 35 29c20 0 35 -17 35 -35c0 -5 -1 -9 -6 -22zM147 396l114 -278h2l114 278h-230z" />
    <glyph glyph-name="existential" unicode="&#x2203;" 
d="M472 564v-517c0 -41 -16 -47 -47 -47h-326c-12 0 -47 0 -47 35s35 35 47 35h303v201h-292c-11 0 -45 0 -45 35s38 35 51 35h286v200h-303c-12 0 -47 0 -47 35s35 35 47 35h326c35 0 47 -10 47 -47z" />
    <glyph glyph-name="circlemultiply" unicode="&#x2297;" 
d="M486 306c0 -124 -100 -225 -224 -225s-224 101 -224 225s100 225 224 225s224 -101 224 -225zM167 443l95 -95l95 95c-33 23 -69 30 -95 30c-25 0 -61 -6 -95 -30zM126 211l95 95l-95 95c-17 -25 -30 -54 -30 -95c0 -40 13 -70 30 -95zM398 401l-95 -95l95 -95
c17 25 30 54 30 95c0 40 -13 70 -30 95zM357 169l-95 95l-95 -95c33 -23 69 -30 95 -30c25 0 61 6 95 30z" />
    <glyph glyph-name="arrowboth" unicode="&#x2194;" 
d="M448 454h-318c37 -59 45 -106 45 -111c0 -14 -9 -29 -31 -29c-23 0 -28 17 -31 28c-5 20 -19 70 -67 118c-11 12 -17 17 -17 29s6 17 16 28c44 44 60 87 68 119c3 11 8 28 31 28c22 0 31 -15 31 -29c0 -4 -8 -51 -45 -111h318c12 0 47 0 47 -35s-35 -35 -47 -35zM394 88
h-318c-12 0 -47 0 -47 35s35 35 47 35h318c-37 59 -45 106 -45 111c0 14 9 29 31 29c23 0 28 -17 31 -28c5 -19 19 -70 66 -117c14 -14 18 -18 18 -30s-5 -16 -16 -28c-44 -44 -60 -88 -68 -119c-3 -11 -8 -28 -31 -28c-22 0 -31 15 -31 29c0 4 8 51 45 111z" />
    <glyph glyph-name="arrowleft" unicode="&#x2190;" 
d="M448 271h-318c37 -59 45 -106 45 -111c0 -14 -9 -29 -31 -29c-23 0 -28 17 -31 28c-5 20 -19 70 -67 118c-11 12 -17 17 -17 29s6 17 16 28c44 44 60 87 68 119c3 11 8 28 31 28c22 0 31 -15 31 -29c0 -4 -8 -51 -45 -111h318c12 0 47 0 47 -35s-35 -35 -47 -35z" />
    <glyph glyph-name="arrowright" unicode="&#x2192;" 
d="M394 271h-318c-12 0 -47 0 -47 35s35 35 47 35h318c-37 59 -45 106 -45 111c0 14 9 29 31 29c23 0 28 -17 31 -28c5 -19 19 -70 66 -117c14 -14 18 -18 18 -30s-5 -16 -16 -28c-44 -44 -60 -88 -68 -119c-3 -11 -8 -28 -31 -28c-22 0 -31 15 -31 29c0 4 8 51 45 111z" />
    <glyph glyph-name="notequal" unicode="&#x2260;" 
d="M265 195l-64 -208c-5 -16 -16 -29 -35 -29c-20 0 -35 17 -35 35c0 8 2 14 4 20l56 182h-102c-14 0 -51 0 -51 35s33 35 45 35h130l25 82h-155c-12 0 -45 0 -45 35s37 35 51 35h171l62 202c4 14 10 34 36 34c20 0 35 -17 35 -35c0 -8 -2 -14 -4 -20l-56 -181h102
c14 0 51 0 51 -35s-33 -35 -45 -35h-130l-25 -82h155c12 0 45 0 45 -35s-37 -35 -51 -35h-170z" />
    <glyph glyph-name="lozenge" unicode="&#x25ca;" 
d="M492 275l-201 -201c-9 -9 -15 -15 -29 -15s-20 6 -31 17l-200 199c-12 12 -16 20 -16 31c0 14 6 20 17 31l199 200c12 12 20 16 31 16c14 0 20 -6 30 -16l201 -200c12 -12 16 -20 16 -31c0 -14 -6 -20 -17 -31zM100 306l162 -162l162 162l-162 162z" />
    <glyph glyph-name="lessequal" unicode="&#x2264;" 
d="M446 563l-289 -183l293 -184c11 -7 18 -19 18 -31c0 -18 -15 -35 -35 -35c-10 0 -13 2 -27 11l-326 205c-12 7 -24 15 -24 35c0 19 13 27 24 34l326 205c14 9 17 11 27 11c20 0 35 -17 35 -35c0 -19 -13 -27 -22 -33zM421 -21h-318c-12 0 -47 0 -47 35s35 35 47 35h318
c12 0 47 0 47 -35s-35 -35 -47 -35z" />
    <glyph glyph-name="greaterequal" unicode="&#x2265;" 
d="M444 346l-326 -205c-14 -9 -17 -11 -27 -11c-20 0 -35 17 -35 35c0 19 13 27 22 33l289 183l-289 182c-9 6 -22 14 -22 33c0 18 15 35 35 35c10 0 17 -4 26 -10l327 -206c11 -7 24 -15 24 -34c0 -20 -12 -28 -24 -35zM421 -21h-318c-12 0 -47 0 -47 35s35 35 47 35h318
c12 0 47 0 47 -35s-35 -35 -47 -35z" />
    <glyph glyph-name="equivalence" unicode="&#x2261;" 
d="M439 422h-354c-12 0 -47 0 -47 35s35 35 47 35h354c12 0 47 0 47 -35s-35 -35 -47 -35zM439 120h-354c-12 0 -47 0 -47 35s35 35 47 35h354c12 0 47 0 47 -35s-35 -35 -47 -35zM439 271h-354c-12 0 -47 0 -47 35s35 35 47 35h354c12 0 47 0 47 -35s-35 -35 -47 -35z" />
    <glyph glyph-name="logicalor" unicode="&#x2228;" 
d="M474 478l-177 -460c-4 -10 -11 -29 -35 -29s-30 17 -36 32l-177 460c-4 10 -5 13 -5 19c0 18 15 35 35 35c24 0 30 -17 36 -32l147 -381l148 384c4 10 11 29 35 29c20 0 35 -17 35 -35c0 -7 -1 -10 -6 -22z" />
    <glyph glyph-name="space" unicode=" " 
d="M0 0v0z" />
    <glyph glyph-name="exclam" unicode="!" 
d="M312 565c0 -53 -4 -108 -5 -160c-1 -54 -2 -119 -4 -173c-2 -40 -5 -48 -41 -48c-13 0 -39 0 -40 26c-2 41 -2 80 -3 121c-2 45 -7 200 -7 234c0 53 41 57 50 57s50 -4 50 -57zM312 50c0 -28 -22 -50 -50 -50s-50 22 -50 50s22 50 50 50s50 -22 50 -50z" />
    <glyph glyph-name="quotedbl" unicode="&#x22;" 
d="M218 567l-13 -204c-1 -17 -6 -35 -31 -35c-28 0 -31 21 -32 36l-13 203c-3 44 26 55 45 55c13 0 47 -8 44 -55zM395 567l-13 -204c-1 -17 -6 -35 -31 -35c-28 0 -31 21 -32 36l-13 203c-3 44 26 55 45 55c13 0 47 -8 44 -55z" />
    <glyph glyph-name="numbersign" unicode="#" 
d="M366 163l-16 -122c-2 -12 -5 -41 -36 -41c-21 0 -35 17 -35 35c0 1 0 5 16 128h-103l-16 -122c-2 -12 -5 -41 -36 -41c-21 0 -35 17 -35 35c0 1 0 5 16 128h-39c-12 0 -47 0 -47 35s35 35 47 35h49l18 146h-67c-12 0 -47 0 -47 35s35 35 47 35h77l15 121c1 12 5 41 36 41
c15 0 39 -10 34 -47l-14 -115h103l15 121c1 12 5 41 36 41c15 0 39 -10 34 -47l-14 -115h38c12 0 47 0 47 -35s-35 -35 -47 -35h-48l-18 -146h66c12 0 47 0 47 -35s-35 -35 -47 -35h-76zM220 379l-18 -146h103l18 146h-103z" />
    <glyph glyph-name="dollar" unicode="$" 
d="M293 554v-208c145 -27 173 -126 173 -175c0 -70 -51 -156 -173 -175v-38c0 -16 0 -41 -30 -41c-31 0 -31 25 -31 41v37c-116 11 -174 88 -174 171c0 46 36 50 45 50c20 0 44 -17 44 -45c0 -23 -10 -31 -16 -35c15 -51 56 -73 101 -79v232c-168 31 -174 139 -174 163
c0 74 64 150 174 163v38c0 16 0 41 31 41c30 0 30 -25 30 -41v-37c118 -10 173 -82 173 -159c0 -37 -24 -49 -45 -49c-27 0 -44 21 -44 44c0 13 5 25 15 33c-16 51 -66 65 -99 69zM232 359v195c-62 -10 -110 -50 -110 -98c0 -51 53 -87 110 -97zM293 276v-218
c64 11 109 58 109 109s-43 96 -109 109z" />
    <glyph glyph-name="percent" unicode="%" 
d="M431 637l-274 -691c-4 -11 -11 -29 -35 -29c-19 0 -35 16 -35 35c0 7 2 12 6 22l273 689c5 12 12 31 36 31c20 0 35 -17 35 -35c0 -7 -2 -12 -6 -22zM489 50c0 -74 -37 -133 -87 -133s-87 59 -87 133s37 133 87 133s87 -59 87 -133zM402 -21c12 0 31 27 31 71
s-19 71 -31 71s-31 -27 -31 -71s19 -71 31 -71zM209 560c0 -75 -38 -133 -87 -133c-48 0 -87 56 -87 134c0 75 38 133 87 133c48 0 87 -56 87 -134zM122 489c12 0 31 28 31 72c0 41 -18 71 -31 71s-31 -30 -31 -71c0 -44 19 -72 31 -72z" />
    <glyph glyph-name="ampersand" unicode="&#x26;" 
d="M419 370l-60 -156c-10 -25 -30 -71 -51 -106c9 -12 47 -58 84 -58c16 0 35 13 39 57c0 5 2 31 28 31c2 0 28 0 28 -33c0 -48 -29 -116 -95 -116c-58 0 -101 51 -117 70c-31 -38 -72 -70 -124 -70c-76 0 -123 72 -123 148c0 46 16 81 35 105c2 1 60 65 68 73
c-21 63 -28 119 -28 162c0 100 54 145 104 145c71 0 92 -76 92 -137c0 -23 0 -82 -101 -187c20 -54 61 -117 74 -138c27 53 60 139 87 210c-17 0 -41 0 -41 31c0 30 25 30 40 30h92c16 0 40 0 40 -31c0 -30 -25 -30 -40 -30h-31zM175 364c50 56 68 92 68 121
c0 9 -2 76 -36 76c-22 0 -48 -26 -48 -84c0 -8 1 -61 16 -113zM155 252c-47 -52 -58 -64 -58 -112c0 -27 10 -90 55 -90c14 0 50 5 87 58c-17 24 -22 33 -44 72c-14 23 -33 56 -40 72z" />
    <glyph glyph-name="quoteright" unicode="&#x2019;" 
d="M341 497c0 -126 -106 -195 -130 -195c-14 0 -31 14 -31 32c0 16 10 21 18 26c79 46 82 118 82 137c0 6 0 15 -4 15c-2 0 -7 -1 -14 -1c-30 0 -50 23 -50 50c0 24 18 50 51 50c41 0 78 -37 78 -114z" />
    <glyph glyph-name="parenleft" unicode="(" 
d="M437 -54c0 -8 -5 -28 -31 -28c-24 0 -99 56 -152 129c-35 50 -81 140 -81 259c0 256 204 388 233 388c26 0 31 -20 31 -28c0 -15 -7 -19 -23 -30c-134 -91 -172 -230 -172 -330c0 -112 46 -245 170 -329c18 -12 25 -16 25 -31z" />
    <glyph glyph-name="parenright" unicode=")" 
d="M352 306c0 -256 -204 -388 -233 -388c-25 0 -31 20 -31 28c0 15 8 20 23 30c135 91 172 230 172 330c0 65 -15 226 -179 335c-5 3 -16 10 -16 25c0 8 6 28 31 28c24 0 99 -56 152 -129c35 -50 81 -140 81 -259z" />
    <glyph glyph-name="asterisk" unicode="*" 
d="M431 364l-108 -59c26 -14 94 -47 119 -64c2 -1 14 -10 14 -27c0 -15 -13 -33 -33 -33c-8 0 -10 0 -37 16c-70 42 -33 22 -94 56c2 -26 3 -92 3 -121c0 -9 0 -42 -33 -42s-33 33 -33 42c0 29 1 95 3 121l-124 -72c-40 0 -40 29 -40 33c0 20 13 26 25 33l108 59l-109 59
c-13 7 -24 13 -24 32c0 15 13 33 33 33c7 0 9 0 23 -9l108 -63c-2 26 -3 92 -3 121c0 9 0 42 33 42s33 -33 33 -42c0 -29 -1 -95 -3 -121l124 72c40 0 40 -29 40 -33c0 -19 -13 -26 -25 -33z" />
    <glyph glyph-name="plus" unicode="+" 
d="M297 271v-143c0 -12 0 -47 -35 -47s-35 35 -35 47v143h-142c-12 0 -47 0 -47 35s35 35 47 35h142v143c0 12 0 47 35 47s35 -35 35 -47v-143h142c12 0 47 0 47 -35s-35 -35 -47 -35h-142z" />
    <glyph glyph-name="comma" unicode="," 
d="M282 3c-7 -2 -14 -3 -20 -3c-33 0 -62 25 -62 63c0 32 23 62 63 62c44 0 83 -39 83 -100c0 -110 -102 -164 -134 -164c-17 0 -32 17 -32 32c0 20 18 25 28 28c12 4 59 20 74 82z" />
    <glyph glyph-name="minus" unicode="&#x2212;" 
d="M421 271h-318c-12 0 -47 0 -47 35s35 35 47 35h318c12 0 47 0 47 -35s-35 -35 -47 -35z" />
    <glyph glyph-name="period" unicode="." 
d="M325 62c0 -31 -25 -62 -63 -62c-32 0 -62 26 -62 63c0 31 25 62 63 62c32 0 62 -26 62 -63z" />
    <glyph glyph-name="slash" unicode="/" 
d="M458 635l-330 -690c-6 -13 -13 -28 -35 -28c-20 0 -35 17 -35 35c0 8 1 8 8 24l330 690c6 13 13 28 35 28c20 0 35 -17 35 -35c0 -8 -1 -8 -8 -24z" />
    <glyph glyph-name="zero" unicode="0" 
d="M474 305c0 -182 -100 -316 -212 -316c-110 0 -212 131 -212 317c0 182 100 316 212 316c110 0 212 -131 212 -317zM262 50c78 0 143 118 143 266c0 147 -70 245 -143 245c-74 0 -143 -99 -143 -245c0 -148 65 -266 143 -266z" />
    <glyph glyph-name="one" unicode="1" 
d="M311 581v-520h91c16 0 40 0 40 -31c0 -30 -25 -30 -40 -30h-251c-15 0 -40 0 -40 30c0 31 24 31 40 31h91v422c-44 -38 -85 -44 -104 -44c-15 0 -33 5 -33 30c0 28 21 30 37 31c19 2 71 13 109 98c5 12 11 24 30 24c30 0 30 -25 30 -41z" />
    <glyph glyph-name="two" unicode="2" 
d="M67 58l221 186c66 55 115 113 115 183c0 88 -77 134 -159 134c-55 0 -102 -31 -117 -77c9 -7 14 -20 14 -32c0 -28 -23 -45 -44 -45c-17 0 -45 11 -45 48c0 85 79 167 197 167c122 0 223 -75 223 -195c0 -80 -46 -144 -109 -200c-43 -40 -139 -115 -198 -166h238
c0 28 0 47 35 47c34 0 34 -22 34 -41v-26c0 -32 -7 -41 -40 -41h-339c-16 0 -41 0 -41 31c0 14 6 19 15 27z" />
    <glyph glyph-name="three" unicode="3" 
d="M261 299h-46c-16 0 -40 0 -40 31c0 29 15 29 72 33c36 2 61 4 93 30c27 22 42 57 42 87c0 45 -50 81 -118 81c-9 0 -80 0 -111 -31c3 -3 9 -13 9 -27c0 -28 -23 -45 -44 -45c-20 0 -45 14 -45 47c0 69 70 117 190 117c115 0 188 -67 188 -141c0 -54 -28 -111 -84 -147
c66 -30 113 -89 113 -160c0 -93 -85 -185 -216 -185c-123 0 -220 58 -220 147c0 32 22 47 45 47c25 0 44 -20 44 -44c0 -20 -7 -26 -12 -31c26 -47 103 -58 143 -58c91 0 147 63 147 124c0 58 -51 125 -150 125z" />
    <glyph glyph-name="four" unicode="4" 
d="M38 244l228 358c13 20 18 21 42 21h28c34 0 41 -8 41 -41v-352h78c16 0 40 0 40 -31c0 -30 -25 -30 -40 -30h-78v-108h62c16 0 40 0 40 -31c0 -30 -25 -30 -40 -30h-180c-15 0 -40 0 -40 30c0 31 24 31 40 31h62v108h-252c-31 0 -40 7 -40 40c0 20 0 22 9 35zM99 230h222
v349z" />
    <glyph glyph-name="five" unicode="5" 
d="M397 550h-240v-190c41 22 85 29 120 29c118 0 195 -98 195 -199c0 -111 -99 -201 -224 -201c-112 0 -196 70 -196 153c0 39 30 48 45 48c21 0 44 -16 44 -45c0 -20 -8 -27 -13 -32c28 -55 92 -63 120 -63c84 0 155 60 155 140c0 65 -45 138 -127 138
c-58 0 -99 -18 -126 -50c-8 -10 -12 -15 -30 -15c-32 0 -32 23 -32 41v266c0 32 7 41 40 41h269c16 0 40 0 40 -31c0 -30 -25 -30 -40 -30z" />
    <glyph glyph-name="six" unicode="6" 
d="M124 338c45 41 97 58 149 58c110 0 198 -89 198 -203c0 -120 -98 -204 -207 -204c-99 0 -211 73 -211 310c0 202 134 323 268 323c97 0 133 -54 133 -103c0 -30 -20 -47 -45 -47c-26 0 -44 20 -44 44c0 18 5 24 10 29c-5 5 -21 16 -55 16c-88 0 -182 -82 -196 -223z
M134 182l1 -4c2 -6 3 -12 5 -18c20 -61 59 -110 124 -110c72 0 138 57 138 143c0 74 -53 141 -134 141c-76 0 -136 -50 -136 -112c0 -7 2 -24 3 -31z" />
    <glyph glyph-name="seven" unicode="7" 
d="M377 550h-264c0 -28 0 -47 -35 -47c-34 0 -34 22 -34 41v42c0 19 0 41 34 41c8 0 26 0 32 -16h330c16 0 40 0 40 -31c0 -14 -2 -16 -22 -34c-61 -59 -214 -233 -219 -517c0 -29 -17 -40 -34 -40c-35 0 -35 33 -35 47c0 110 34 330 207 514z" />
    <glyph glyph-name="eight" unicode="8" 
d="M341 329c74 -21 139 -80 139 -155c0 -97 -92 -185 -218 -185c-125 0 -218 88 -218 185c0 75 64 134 139 155c-79 26 -125 76 -125 133c0 81 84 160 204 160c119 0 204 -78 204 -160c0 -57 -45 -106 -125 -133zM262 360c73 0 135 44 135 101c0 52 -57 100 -135 100
c-79 0 -135 -48 -135 -100c0 -56 62 -101 135 -101zM262 50c83 0 149 56 149 125c0 61 -57 124 -149 124c-91 0 -149 -63 -149 -124c0 -69 66 -125 149 -125z" />
    <glyph glyph-name="nine" unicode="9" 
d="M400 273c-45 -41 -97 -58 -149 -58c-110 0 -198 89 -198 203c0 121 101 204 212 204c95 0 206 -69 206 -310c0 -198 -123 -323 -255 -323c-128 0 -146 71 -146 103c0 30 20 47 45 47c26 0 44 -20 44 -44c0 -17 -5 -23 -9 -28c21 -16 57 -17 66 -17c96 0 174 99 184 223z
M256 277c83 0 137 57 137 112c0 9 -4 25 -4 30s1 7 1 9c0 6 -12 57 -38 90c-16 20 -44 43 -87 43c-72 0 -143 -56 -143 -143c0 -74 53 -141 134 -141z" />
    <glyph glyph-name="colon" unicode=":" 
d="M325 368c0 -31 -25 -62 -63 -62c-32 0 -62 26 -62 63c0 31 25 62 63 62c32 0 62 -26 62 -63zM325 62c0 -31 -25 -62 -63 -62c-32 0 -62 26 -62 63c0 31 25 62 63 62c32 0 62 -26 62 -63z" />
    <glyph glyph-name="semicolon" unicode=";" 
d="M325 368c0 -31 -25 -62 -63 -62c-32 0 -62 26 -62 63c0 31 25 62 63 62c32 0 62 -26 62 -63zM266 0c-49 0 -66 35 -66 63c0 34 26 62 62 62c38 0 68 -32 68 -98c0 -112 -96 -166 -118 -166c-17 0 -32 17 -32 32c0 16 14 23 20 26c15 8 53 27 66 81z" />
    <glyph glyph-name="less" unicode="&#x3c;" 
d="M444 487l-287 -181l287 -181c11 -7 24 -15 24 -34c0 -23 -19 -35 -35 -35c-9 0 -12 1 -26 10l-333 209c-10 7 -18 18 -18 31c0 19 13 27 22 33l329 207c14 9 17 10 26 10c16 0 35 -12 35 -35c0 -19 -13 -27 -24 -34z" />
    <glyph glyph-name="equal" unicode="=" 
d="M441 347h-358c-12 0 -45 0 -45 35s37 35 51 35h346c14 0 51 0 51 -35s-33 -35 -45 -35zM435 195h-346c-14 0 -51 0 -51 35s33 35 45 35h358c12 0 45 0 45 -35s-37 -35 -51 -35z" />
    <glyph glyph-name="greater" unicode="&#x3e;" 
d="M446 273l-329 -207c-14 -9 -17 -10 -26 -10c-16 0 -35 12 -35 35c0 19 13 27 24 34l287 181l-287 181c-11 7 -24 15 -24 34c0 23 19 35 35 35c9 0 12 -1 26 -10l333 -209c10 -7 18 -18 18 -31c0 -19 -13 -27 -22 -33z" />
    <glyph glyph-name="question" unicode="?" 
d="M287 241v-17c0 -34 -10 -40 -40 -40c-40 0 -40 13 -40 52c0 40 0 129 145 209c19 10 41 22 41 48c0 31 -39 63 -141 63c-39 0 -86 -7 -111 -35c5 -6 10 -16 10 -28c0 -28 -23 -45 -44 -45s-45 15 -45 47c0 56 49 122 190 122c185 0 210 -87 210 -124
c0 -52 -37 -81 -66 -97c-93 -51 -109 -108 -109 -155zM297 50c0 -28 -22 -50 -50 -50s-50 22 -50 50s22 50 50 50s50 -22 50 -50z" />
    <glyph glyph-name="at" unicode="@" 
d="M400 485c-23 61 -68 71 -96 71c-103 0 -204 -102 -204 -251c0 -142 97 -250 205 -250c34 0 72 11 107 43c10 10 13 10 30 10c10 0 38 0 38 -28c0 -29 -84 -86 -174 -86c-140 0 -262 133 -262 312c0 180 124 311 260 311c176 0 176 -231 176 -296
c0 -173 -96 -215 -145 -215c-74 0 -144 81 -144 200c0 113 65 199 145 199c33 0 61 -18 64 -20zM336 167c43 0 88 57 88 138s-44 139 -89 139c-42 0 -88 -55 -88 -139c0 -78 42 -138 89 -138z" />
    <glyph glyph-name="A" unicode="A" 
d="M316 586l121 -525h19c15 0 41 0 41 -31c0 -30 -27 -30 -41 -30h-106c-15 0 -40 0 -40 30c0 31 20 31 56 31l-23 104h-162l-23 -104c36 0 56 0 56 -31c0 -30 -25 -30 -40 -30h-106c-14 0 -41 0 -41 30c0 31 26 31 41 31h19l122 525c8 35 20 37 53 37c27 0 45 0 54 -37z
M328 226l-47 214c0 1 -16 75 -19 98h-1c-2 -22 -15 -83 -28 -145l-37 -167h132z" />
    <glyph glyph-name="B" unicode="B" 
d="M63 611h226c111 0 172 -82 172 -155c0 -62 -44 -114 -108 -136c81 -19 129 -84 129 -153c0 -78 -60 -167 -173 -167h-246c-14 0 -40 0 -40 30c0 31 25 31 41 31h27v489h-27c-16 0 -41 0 -41 31c0 30 26 30 40 30zM160 348h103c97 0 129 66 129 107c0 33 -22 95 -107 95
h-125v-202zM160 61h127c87 0 126 59 126 108c0 45 -30 118 -115 118h-138v-226z" />
    <glyph glyph-name="C" unicode="C" 
d="M484 581v-139c0 -20 0 -41 -35 -41c-30 0 -32 16 -35 33c-14 81 -69 127 -129 127c-89 0 -176 -106 -176 -255c0 -150 86 -256 177 -256c41 0 122 24 129 122c2 29 25 29 34 29c11 0 35 0 35 -33c0 -90 -86 -179 -202 -179c-130 0 -242 134 -242 317
c0 182 112 316 241 316c51 0 97 -20 130 -48c13 25 13 27 15 31c5 7 10 17 28 17c30 0 30 -25 30 -41z" />
    <glyph glyph-name="D" unicode="D" 
d="M60 611h206c133 0 219 -150 219 -310c0 -161 -88 -301 -219 -301h-206c-15 0 -41 0 -41 30c0 31 25 31 41 31h22v489h-22c-15 0 -41 0 -41 30c0 31 25 31 41 31zM151 61h96c111 0 169 123 169 240c0 116 -56 249 -169 249h-96v-489z" />
    <glyph glyph-name="E" unicode="E" 
d="M166 286v-225h267v69c0 20 0 41 35 41c34 0 34 -22 34 -41v-89c0 -32 -7 -41 -40 -41h-395c-15 0 -41 0 -41 30c0 31 25 31 41 31h30v489h-30c-15 0 -41 0 -41 31c0 30 26 30 41 30h373c34 0 40 -10 40 -41v-73c0 -20 0 -41 -35 -41c-34 0 -34 22 -34 41v53h-245v-203
h131c0 41 0 57 35 57c34 0 34 -22 34 -41v-93c0 -19 0 -41 -34 -41c-35 0 -35 16 -35 57h-131z" />
    <glyph glyph-name="F" unicode="F" 
d="M171 275v-214h52c16 0 40 0 40 -31c0 -30 -25 -30 -40 -30h-154c-15 0 -41 0 -41 30c0 31 25 31 41 31h33v489h-33c-15 0 -41 0 -41 30c0 31 25 31 41 31h381c34 0 40 -10 40 -41v-73c0 -20 0 -41 -35 -41c-34 0 -34 22 -34 41v53h-250v-214h136c0 41 0 57 35 57
c34 0 34 -22 34 -41v-93c0 -19 0 -41 -34 -41c-35 0 -35 16 -35 57h-136z" />
    <glyph glyph-name="G" unicode="G" 
d="M449 209v-168c0 -19 0 -41 -34 -41c-35 0 -35 20 -35 42c-20 -23 -62 -53 -119 -53c-119 0 -223 133 -223 317c0 181 103 316 223 316c42 0 82 -15 117 -45c15 34 20 45 41 45c30 0 30 -25 30 -41v-139c0 -20 0 -41 -35 -41c-26 0 -32 12 -34 29
c-17 108 -80 131 -115 131c-78 0 -158 -103 -158 -256c0 -147 76 -255 157 -255c53 0 102 47 114 159h-42c-16 0 -40 0 -40 31c0 30 25 30 40 30h119c15 0 41 0 41 -30c0 -31 -23 -31 -47 -31z" />
    <glyph glyph-name="H" unicode="H" 
d="M437 550v-489h25c16 0 40 0 40 -31c0 -30 -25 -30 -40 -30h-119c-16 0 -40 0 -40 31c0 30 25 30 40 30h25v226h-212v-226h25c16 0 40 0 40 -31c0 -30 -25 -30 -40 -30h-119c-15 0 -40 0 -40 30c0 31 24 31 40 31h25v489h-25c-15 0 -40 0 -40 30c0 31 24 31 40 31h119
c16 0 40 0 40 -31c0 -30 -25 -30 -40 -30h-25v-202h212v202h-25c-16 0 -40 0 -40 31c0 30 25 30 40 30h119c16 0 40 0 40 -31c0 -30 -25 -30 -40 -30h-25z" />
    <glyph glyph-name="I" unicode="I" 
d="M297 550v-489h108c15 0 41 0 41 -31c0 -30 -26 -30 -41 -30h-285c-15 0 -41 0 -41 31c0 30 26 30 41 30h108v489h-108c-15 0 -41 0 -41 31c0 30 26 30 41 30h285c15 0 41 0 41 -31c0 -30 -26 -30 -41 -30h-108z" />
    <glyph glyph-name="J" unicode="J" 
d="M407 550v-416c0 -91 -81 -145 -170 -145c-100 0 -166 47 -166 110c0 32 22 47 45 47c25 0 44 -20 44 -44c0 -16 -4 -21 -8 -26c29 -26 77 -26 85 -26c19 0 101 5 101 90v410h-82c-15 0 -41 0 -41 31c0 30 26 30 41 30h181c15 0 41 0 41 -30c0 -31 -25 -31 -41 -31h-30z
" />
    <glyph glyph-name="K" unicode="K" 
d="M276 358l160 -285c1 -2 5 -8 7 -12c29 0 52 0 52 -31c0 -30 -26 -30 -41 -30h-75c-16 0 -41 0 -41 31c0 30 26 30 40 30l-140 250l-93 -117v-133h22c16 0 41 0 41 -31c0 -30 -26 -30 -41 -30h-100c-16 0 -41 0 -41 31c0 30 26 30 41 30h22v489h-22c-16 0 -41 0 -41 31
c0 30 26 30 41 30h100c16 0 41 0 41 -31c0 -30 -26 -30 -41 -30h-22v-266l211 266c-14 0 -41 0 -41 30c0 31 26 31 41 31h88c14 0 41 0 41 -30c0 -31 -21 -31 -57 -31z" />
    <glyph glyph-name="L" unicode="L" 
d="M178 550v-489h241v69c0 21 0 41 35 41c34 0 34 -21 34 -41v-89c0 -32 -7 -41 -40 -41h-376c-15 0 -40 0 -40 30c0 31 24 31 40 31h37v489h-37c-15 0 -40 0 -40 30c0 31 24 31 40 31h162c15 0 41 0 41 -31c0 -30 -27 -30 -41 -30h-56z" />
    <glyph glyph-name="M" unicode="M" 
d="M290 369l67 202c9 26 13 40 54 40h56c15 0 40 0 40 -30c0 -31 -21 -31 -53 -31v-489c32 0 53 0 53 -31c0 -30 -25 -30 -40 -30h-82c-15 0 -40 0 -40 30c0 31 21 31 53 31v477h-1c-12 -53 -97 -306 -100 -312c-8 -14 -22 -22 -35 -22c-12 0 -24 7 -30 15
c-5 7 -18 45 -26 68c-4 13 -68 205 -79 251h-1v-477c32 0 53 0 53 -31c0 -30 -25 -30 -40 -30h-82c-15 0 -40 0 -40 30c0 31 21 31 53 31v489c-32 0 -53 0 -53 31c0 30 25 30 40 30h56c14 0 39 0 49 -24c2 -6 90 -265 100 -312h1c6 29 15 58 27 94z" />
    <glyph glyph-name="N" unicode="N" 
d="M190 575l184 -500h1v475h-25c-15 0 -40 0 -40 30c0 31 24 31 40 31h106c16 0 40 0 40 -31c0 -30 -25 -30 -40 -30h-25v-509c0 -38 -12 -41 -42 -41c-26 0 -42 1 -55 36l-184 500h-1v-475h25c16 0 40 0 40 -31c0 -30 -25 -30 -40 -30h-106c-16 0 -40 0 -40 31
c0 30 25 30 40 30h25v489h-25c-16 0 -40 0 -40 31c0 30 25 30 40 30h68c27 0 42 -3 54 -36z" />
    <glyph glyph-name="O" unicode="O" 
d="M468 305c0 -289 -22 -316 -206 -316c-185 0 -206 27 -206 316c0 290 21 317 206 317s206 -28 206 -317zM262 50c89 0 115 21 126 77c11 54 11 125 11 187c0 61 0 136 -12 183c-15 55 -50 64 -125 64c-82 0 -113 -12 -126 -71c-11 -46 -11 -114 -11 -176
c0 -55 0 -142 12 -193c12 -50 37 -71 125 -71z" />
    <glyph glyph-name="P" unicode="P" 
d="M166 245v-184h30c15 0 41 0 41 -31c0 -30 -26 -30 -41 -30h-129c-15 0 -41 0 -41 30c0 31 25 31 41 31h30v489h-30c-15 0 -41 0 -41 31c0 30 26 30 41 30h224c115 0 189 -90 189 -183s-73 -183 -189 -183h-125zM166 550v-244h106c96 0 139 69 139 122s-43 122 -139 122
h-106z" />
    <glyph glyph-name="Q" unicode="Q" 
d="M423 -139h-9c-16 0 -27 0 -35 12c-2 4 -55 104 -61 117c-11 -1 -43 -1 -56 -1c-185 0 -206 27 -206 316c0 290 21 317 206 317s206 -28 206 -317c0 -46 0 -113 -6 -167c-9 -81 -27 -116 -71 -134c7 -13 25 -47 33 -60c11 -22 31 -58 31 -64c0 -19 -17 -19 -32 -19z
M286 50l-46 89c-3 5 -4 8 -4 13c0 19 18 19 32 19h11c20 0 21 -1 30 -16l48 -87c22 15 42 29 42 238c0 54 0 122 -9 173c-11 65 -39 82 -128 82c-92 0 -114 -20 -127 -75c-10 -48 -10 -125 -10 -181c0 -54 0 -122 9 -173c10 -54 30 -82 120 -82h32z" />
    <glyph glyph-name="R" unicode="R" 
d="M348 304c14 -11 37 -32 49 -61c9 -23 9 -31 9 -94c0 -53 0 -99 28 -99c17 0 19 37 19 45c1 30 24 30 34 30c11 0 35 0 35 -32c0 -38 -24 -104 -87 -104c-34 0 -62 16 -79 46c-19 32 -19 62 -19 127c0 42 0 64 -22 85c-32 28 -62 28 -81 28h-78v-214h25c16 0 40 0 40 -31
c0 -30 -25 -30 -40 -30h-119c-15 0 -40 0 -40 30c0 31 24 31 40 31h25v489h-25c-15 0 -40 0 -40 30c0 31 24 31 40 31h177c118 0 194 -82 194 -168c0 -41 -19 -102 -85 -139zM228 336c91 0 136 58 136 107c0 48 -44 107 -136 107h-72v-214h72z" />
    <glyph glyph-name="S" unicode="S" 
d="M445 581v-132c0 -20 0 -41 -35 -41c-20 0 -31 6 -34 28c-6 31 -21 125 -139 125c-71 0 -120 -48 -120 -99c0 -47 38 -82 80 -94l81 -18c78 -18 105 -25 146 -65c12 -13 48 -55 48 -119c0 -89 -72 -177 -188 -177c-64 0 -125 16 -165 46c-9 -32 -15 -46 -37 -46
c-30 0 -30 25 -30 41v132c0 20 0 41 35 41c32 0 33 -18 34 -35c1 -18 5 -60 47 -87c40 -27 89 -31 117 -31c79 0 122 59 122 111c0 87 -83 107 -111 113c-14 3 -111 26 -115 27c-83 24 -129 90 -129 157c0 85 75 164 186 164c45 0 99 -12 140 -47c8 30 13 47 37 47
c30 0 30 -25 30 -41z" />
    <glyph glyph-name="T" unicode="T" 
d="M297 550v-489h52c16 0 40 0 40 -31c0 -30 -25 -30 -40 -30h-173c-16 0 -40 0 -40 31c0 30 25 30 40 30h52v489h-133v-53c0 -20 0 -41 -35 -41c-34 0 -34 22 -34 41v73c0 33 8 41 41 41h391c34 0 40 -10 40 -41v-73c0 -20 0 -41 -35 -41c-34 0 -34 22 -34 41v53h-132z" />
    <glyph glyph-name="U" unicode="U" 
d="M449 550v-346c0 -123 -87 -215 -187 -215s-187 92 -187 215v346h-30c-15 0 -41 0 -41 31c0 30 26 30 41 30h129c15 0 41 0 41 -30c0 -31 -26 -31 -41 -31h-30v-341c0 -107 65 -159 118 -159c52 0 118 52 118 159v341h-30c-15 0 -41 0 -41 31c0 30 26 30 41 30h129
c15 0 41 0 41 -30c0 -31 -25 -31 -41 -31h-30z" />
    <glyph glyph-name="V" unicode="V" 
d="M449 550l-132 -521c-9 -37 -28 -37 -55 -37c-29 0 -45 0 -55 38l-132 520c-36 0 -57 0 -57 31c0 30 26 30 41 30h102c15 0 41 0 41 -30c0 -31 -21 -31 -56 -31l97 -389c9 -37 13 -54 18 -89h1c7 43 26 119 39 172l77 306c-35 0 -56 0 -56 31c0 30 26 30 41 30h102
c15 0 41 0 41 -30c0 -31 -21 -31 -57 -31z" />
    <glyph glyph-name="W" unicode="W" 
d="M475 550l-72 -523c-5 -35 -29 -35 -41 -35c-7 0 -33 0 -40 25c-1 2 -55 231 -59 276h-1c-4 -40 -58 -274 -61 -281c-10 -20 -30 -20 -39 -20c-12 0 -36 0 -41 35l-72 523h-1c-9 0 -37 0 -37 30c0 31 26 31 41 31h79c16 0 40 0 40 -31c0 -30 -25 -30 -40 -30h-25l52 -396
c7 -54 8 -73 8 -78h1c5 62 52 262 55 269c10 22 30 22 40 22c9 0 32 0 41 -23c1 -6 48 -204 54 -268h1c1 28 8 80 16 141l44 333h-25c-15 0 -40 0 -40 30c0 31 24 31 40 31h79c15 0 41 0 41 -31c0 -30 -27 -30 -38 -30z" />
    <glyph glyph-name="X" unicode="X" 
d="M291 326l141 -265h23c15 0 41 0 41 -31c0 -30 -26 -30 -41 -30h-104c-15 0 -40 0 -40 30c0 31 22 31 45 31l-99 194l-92 -194c23 0 47 0 47 -31c0 -30 -26 -30 -41 -30h-104c-15 0 -40 0 -40 30c0 31 24 31 40 31h22l133 264l-120 225h-23c-15 0 -41 0 -41 31
c0 30 26 30 41 30h104c15 0 40 0 40 -30c0 -31 -23 -31 -43 -31l77 -146l71 146c-23 0 -46 0 -46 31c0 30 25 30 40 30h104c15 0 41 0 41 -31c0 -30 -26 -30 -41 -30h-22z" />
    <glyph glyph-name="Y" unicode="Y" 
d="M444 550l-147 -306v-183h25c16 0 40 0 40 -31c0 -30 -25 -30 -40 -30h-119c-16 0 -40 0 -40 31c0 30 25 30 40 30h25v183l-148 306h-21c-16 0 -40 0 -40 31c0 30 25 30 40 30h104c15 0 40 0 40 -30c0 -31 -22 -31 -46 -31c10 -21 91 -185 105 -236l105 236
c-24 0 -46 0 -46 31c0 30 25 30 40 30h104c16 0 40 0 40 -31c0 -30 -25 -30 -40 -30h-21z" />
    <glyph glyph-name="Z" unicode="Z" 
d="M466 546l-329 -485h275v72c0 20 0 41 35 41c34 0 34 -22 34 -41v-92c0 -32 -7 -41 -40 -41h-352c-19 0 -41 0 -41 34c0 10 0 16 10 31l329 485h-258v-53c0 -20 0 -41 -35 -41c-34 0 -34 22 -34 41v73c0 33 8 41 41 41h334c19 0 41 0 41 -34c0 -10 0 -16 -10 -31z" />
    <glyph glyph-name="bracketleft" unicode="[" 
d="M443 633h-152v-655h152c16 0 40 0 40 -31c0 -30 -25 -30 -40 -30h-181c-34 0 -40 10 -40 41v695c0 32 7 41 40 41h181c16 0 40 0 40 -31c0 -30 -25 -30 -40 -30z" />
    <glyph glyph-name="backslash" unicode="\" 
d="M128 667l331 -691c3 -6 7 -16 7 -24c0 -18 -15 -35 -35 -35c-22 0 -30 17 -35 27l-331 691c-3 6 -7 16 -7 24c0 18 15 35 35 35c22 0 30 -17 35 -27z" />
    <glyph glyph-name="bracketright" unicode="]" 
d="M302 653v-695c0 -32 -7 -41 -40 -41h-181c-16 0 -40 0 -40 31c0 30 25 30 40 30h152v655h-152c-16 0 -40 0 -40 31c0 30 25 30 40 30h181c34 0 40 -10 40 -41z" />
    <glyph glyph-name="asciicircum" unicode="^" 
d="M283 604l120 -66c12 -7 21 -11 21 -28c0 -7 -10 -39 -34 -39c-6 0 -8 0 -22 9l-106 61l-106 -62c-12 -7 -18 -8 -22 -8c-24 0 -34 32 -34 39c0 17 8 21 23 29l122 66c9 5 11 6 17 6c3 0 9 0 21 -7z" />
    <glyph glyph-name="underscore" unicode="_" 
d="M421 -95h-318c-12 0 -47 0 -47 35s35 35 47 35h318c12 0 47 0 47 -35s-35 -35 -47 -35z" />
    <glyph glyph-name="quoteleft" unicode="&#x2018;" 
d="M312 422c0 -24 -18 -50 -51 -50c-41 0 -78 37 -78 114c0 126 106 195 130 195c14 0 31 -14 31 -32c0 -16 -10 -21 -18 -26c-79 -46 -82 -118 -82 -137c0 -6 0 -15 4 -15c2 0 7 1 14 1c30 0 50 -23 50 -50z" />
    <glyph glyph-name="a" unicode="a" 
d="M424 285v-216c8 -3 18 -8 60 -8c15 0 40 0 40 -30c0 -31 -22 -31 -50 -31c-38 0 -86 1 -108 32c-47 -31 -109 -38 -146 -38c-102 0 -165 65 -165 134c0 96 123 146 300 149c0 71 -52 102 -128 102c-9 0 -22 0 -36 -1c-20 -2 -21 -3 -21 -11c-1 -37 -29 -46 -44 -46
c-24 0 -45 16 -45 46c0 73 102 73 145 73c144 0 198 -84 198 -155zM355 134v84c-145 -4 -231 -41 -231 -90c0 -39 41 -73 103 -73c8 0 53 0 89 17c39 18 39 39 39 62z" />
    <glyph glyph-name="b" unicode="b" 
d="M166 570v-182c34 31 79 49 127 49c106 0 195 -98 195 -221c0 -127 -97 -222 -206 -222c-32 0 -75 9 -116 51c0 -25 0 -45 -34 -45c-35 0 -35 21 -35 41v509h-45c-14 0 -40 0 -40 30c0 31 25 31 41 31h73c34 0 40 -10 40 -41zM166 264v-73c0 -48 35 -136 113 -136
c70 0 140 65 140 161c0 87 -58 160 -132 160c-63 0 -121 -53 -121 -112z" />
    <glyph glyph-name="c" unicode="c" 
d="M466 109c0 -17 -34 -115 -173 -115c-126 0 -220 102 -220 222c0 88 60 224 232 224c45 0 149 0 149 -73c0 -29 -21 -46 -45 -46s-43 14 -44 49c0 9 -39 9 -60 9c-135 0 -163 -115 -163 -163c0 -91 72 -161 157 -161c74 0 93 47 99 60c7 20 17 22 33 22c6 0 35 0 35 -28z
" />
    <glyph glyph-name="d" unicode="d" 
d="M427 570v-509h45c14 0 40 0 40 -30c0 -31 -25 -31 -41 -31h-73c-40 0 -40 14 -40 50c-28 -29 -70 -56 -126 -56c-106 0 -196 97 -196 221c0 127 96 222 205 222c43 0 84 -16 117 -45v158h-45c-14 0 -40 0 -40 30c0 31 25 31 41 31h73c34 0 40 -10 40 -41zM358 194v71
c0 55 -49 111 -113 111c-70 0 -140 -65 -140 -161c0 -89 60 -160 131 -160c77 0 122 83 122 139z" />
    <glyph glyph-name="e" unicode="e" 
d="M424 191h-298c16 -86 91 -136 166 -136c28 0 82 9 104 60c7 19 15 22 33 22c6 0 35 0 35 -28c0 -25 -47 -115 -179 -115c-129 0 -230 101 -230 223c0 123 96 223 215 223c130 0 194 -98 194 -212c0 -37 -19 -37 -40 -37zM127 251h266c-9 103 -71 128 -123 128
c-70 0 -129 -55 -143 -128z" />
    <glyph glyph-name="f" unicode="f" 
d="M253 370v-309h101c15 0 41 0 41 -31c0 -30 -26 -30 -41 -30h-271c-15 0 -41 0 -41 31c0 30 26 30 41 30h101v309h-101c-15 0 -40 0 -40 30c0 31 25 31 41 31h100v53c0 87 77 133 157 133c16 0 96 0 96 -60c0 -28 -23 -44 -43 -44c-35 0 -44 39 -44 43
c-30 0 -97 0 -97 -78v-47h122c16 0 40 0 40 -31c0 -30 -25 -30 -40 -30h-122z" />
    <glyph glyph-name="g" unicode="g" 
d="M211 61h70c90 0 132 -22 145 -29c51 -27 69 -77 69 -114c0 -85 -105 -147 -233 -147s-233 61 -233 147c0 11 0 79 74 124c-9 12 -23 37 -23 72c0 30 9 52 20 68c-15 19 -32 52 -32 95c0 85 71 160 165 160c46 0 81 -19 97 -30c46 34 95 35 106 35c54 0 73 -31 73 -54
c0 -29 -23 -41 -40 -41c-10 0 -33 7 -39 34c-13 -1 -37 -5 -58 -17c17 -28 26 -57 26 -87c0 -89 -73 -161 -165 -161c-49 0 -87 23 -90 25c-4 -10 -6 -24 -6 -28c0 -2 1 -22 12 -36c12 -14 18 -14 33 -14c8 -2 21 -2 29 -2zM233 176c52 0 96 44 96 101c0 53 -42 100 -96 100
c-52 0 -96 -44 -96 -101c0 -53 42 -100 96 -100zM262 -169c100 0 175 43 175 87c0 86 -113 86 -202 86c-73 0 -82 0 -107 -16c-32 -20 -41 -52 -41 -70c0 -44 75 -87 175 -87z" />
    <glyph glyph-name="h" unicode="h" 
d="M427 293v-232h44c16 0 41 0 41 -31c0 -30 -26 -30 -40 -30h-153c-14 0 -41 0 -41 30c0 31 25 31 41 31h39v227c0 60 -14 88 -67 88c-51 0 -125 -38 -125 -138v-177h44c16 0 41 0 41 -31c0 -30 -26 -30 -40 -30h-159c-14 0 -40 0 -40 30c0 31 25 31 41 31h44v489h-45
c-14 0 -40 0 -40 30c0 31 25 31 41 31h73c34 0 40 -10 40 -41v-186c19 19 64 53 131 53c79 0 130 -43 130 -144z" />
    <glyph glyph-name="i" unicode="i" 
d="M309 562c0 -28 -22 -50 -50 -50s-50 22 -50 50s22 50 50 50s50 -22 50 -50zM127 431h142c34 0 40 -10 40 -41v-329h105c15 0 41 0 41 -31c0 -30 -26 -30 -41 -30h-295c-15 0 -41 0 -41 30c0 31 25 31 41 31h121v309h-113c-15 0 -41 0 -41 31c0 30 26 30 41 30z" />
    <glyph glyph-name="j" unicode="j" 
d="M368 562c0 -28 -22 -50 -50 -50s-50 22 -50 50s22 50 50 50s50 -22 50 -50zM170 431h158c34 0 40 -10 40 -41v-434c0 -64 -36 -184 -181 -184c-41 0 -139 0 -139 76c0 29 22 46 45 46c21 0 44 -17 44 -45c0 -7 0 -9 -1 -12c15 -2 27 -4 56 -4c23 0 54 0 81 38
c26 35 26 73 26 90v409h-130c-15 0 -40 0 -40 30c0 31 25 31 41 31z" />
    <glyph glyph-name="k" unicode="k" 
d="M287 255l149 -194h31c15 0 41 0 41 -31c0 -30 -26 -30 -41 -30h-118c-15 0 -40 0 -40 30c0 31 20 31 56 31l-119 155l-80 -74v-81h49c16 0 40 0 40 -31c0 -30 -25 -30 -40 -30h-154c-16 0 -40 0 -40 31c0 30 25 30 40 30h49v489h-49c-16 0 -40 0 -40 31c0 30 25 30 40 30
h65c34 0 40 -10 40 -41v-352l162 152h-37c-15 0 -40 0 -40 30c0 31 24 31 40 31h154c15 0 41 0 41 -31c0 -30 -26 -30 -41 -30h-35z" />
    <glyph glyph-name="l" unicode="l" 
d="M297 570v-509h130c16 0 40 0 40 -31c0 -30 -25 -30 -40 -30h-329c-14 0 -40 0 -40 30c0 31 25 31 41 31h129v489h-130c-14 0 -40 0 -40 30c0 31 25 31 41 31h158c34 0 40 -10 40 -41z" />
    <glyph glyph-name="m" unicode="m" 
d="M459 303v-242c36 0 57 0 57 -31c0 -30 -26 -30 -41 -30h-75c-14 0 -41 0 -41 30c0 31 25 31 44 31v233c0 65 -14 82 -37 82c-41 0 -82 -47 -82 -136v-179c36 0 57 0 57 -31c0 -30 -26 -30 -41 -30h-75c-14 0 -41 0 -41 30c0 31 25 31 44 31v233c0 65 -14 82 -37 82
c-41 0 -82 -47 -82 -136v-179c36 0 57 0 57 -31c0 -30 -26 -30 -41 -30h-88c-14 0 -41 0 -41 30c0 31 21 31 57 31v309c-36 0 -57 0 -57 31c0 30 26 30 41 30h32c18 0 38 0 40 -30c24 22 54 36 86 36c33 0 61 -18 76 -52c28 39 69 52 99 52c89 0 89 -114 89 -134z" />
    <glyph glyph-name="n" unicode="n" 
d="M427 293v-232h44c16 0 41 0 41 -31c0 -30 -26 -30 -40 -30h-153c-14 0 -41 0 -41 30c0 31 25 31 41 31h39v227c0 60 -14 88 -67 88c-51 0 -125 -38 -125 -138v-177h44c16 0 41 0 41 -31c0 -30 -26 -30 -40 -30h-159c-14 0 -40 0 -40 30c0 31 25 31 41 31h44v309h-45
c-14 0 -40 0 -40 30c0 31 25 31 41 31h73c40 0 40 -15 40 -47c19 19 64 53 131 53c79 0 130 -43 130 -144z" />
    <glyph glyph-name="o" unicode="o" 
d="M467 216c0 -126 -95 -222 -205 -222s-205 95 -205 222c0 125 93 224 205 224s205 -99 205 -224zM262 55c74 0 136 75 136 168c0 91 -64 156 -136 156c-71 0 -136 -65 -136 -156c0 -93 62 -168 136 -168z" />
    <glyph glyph-name="p" unicode="p" 
d="M211 -222h-159c-14 0 -40 0 -40 30c0 31 25 31 41 31h44v531h-45c-14 0 -40 0 -40 30c0 31 25 31 41 31h73c38 0 40 -14 40 -43c34 31 79 49 127 49c106 0 195 -98 195 -221c0 -127 -97 -222 -206 -222c-32 0 -75 9 -116 51v-206h44c16 0 41 0 41 -31
c0 -30 -26 -30 -40 -30zM166 264v-73c0 -48 35 -136 113 -136c70 0 140 65 140 161c0 87 -58 160 -132 160c-63 0 -121 -53 -121 -112z" />
    <glyph glyph-name="q" unicode="q" 
d="M448 396v-557h49c16 0 40 0 40 -31c0 -30 -25 -30 -40 -30h-167c-16 0 -40 0 -40 31c0 30 25 30 40 30h49v215c-21 -23 -67 -60 -135 -60c-110 0 -204 97 -204 221c0 127 102 222 214 222c57 0 98 -26 125 -55c0 38 0 55 35 55c34 0 34 -22 34 -41zM379 194v39
c0 66 -45 143 -120 143c-80 0 -150 -69 -150 -161c0 -90 65 -160 139 -160c82 0 131 82 131 139z" />
    <glyph glyph-name="r" unicode="r" 
d="M222 186v-125h111c15 0 41 0 41 -31c0 -30 -26 -30 -41 -30h-261c-16 0 -40 0 -40 31c0 30 25 30 40 30h81v309h-81c-16 0 -40 0 -40 31c0 30 25 30 40 30h110c34 0 40 -10 40 -41v-34c55 63 119 81 170 81c83 0 95 -42 95 -62c0 -27 -20 -43 -42 -43
c-25 0 -42 20 -43 44c-121 0 -180 -96 -180 -190z" />
    <glyph glyph-name="s" unicode="s" 
d="M429 399v-69c0 -20 0 -41 -35 -41c-31 0 -33 17 -34 34c-3 26 -17 56 -100 56c-95 0 -127 -31 -127 -57c0 -39 68 -51 97 -55c25 -5 45 -8 68 -12c32 -5 161 -26 161 -130c0 -48 -32 -131 -190 -131c-28 0 -81 2 -130 38c-12 -37 -28 -38 -37 -38c-30 0 -30 25 -30 41v97
c0 20 0 41 35 41c26 0 30 -11 35 -29c25 -78 81 -89 128 -89c91 0 128 33 128 70c0 53 -80 66 -129 74c-92 14 -197 31 -197 123c0 36 23 118 190 118c19 0 63 0 107 -21c2 7 6 21 30 21c30 0 30 -25 30 -41z" />
    <glyph glyph-name="t" unicode="t" 
d="M222 370v-238c0 -25 0 -77 77 -77c23 0 80 10 81 72c0 17 1 38 34 38c35 0 35 -21 35 -39c0 -89 -81 -132 -155 -132c-73 0 -141 36 -141 132v244h-88c-15 0 -40 0 -40 30c0 31 25 31 41 31h87v82c0 20 0 41 35 41c34 0 34 -22 34 -41v-82h164c16 0 40 0 40 -31
c0 -30 -25 -30 -40 -30h-164z" />
    <glyph glyph-name="u" unicode="u" 
d="M427 390v-329h45c14 0 40 0 40 -30c0 -31 -25 -31 -41 -31h-73c-18 0 -39 0 -40 32c-37 -28 -78 -38 -119 -38c-73 0 -142 24 -142 120v256h-45c-14 0 -40 0 -40 30c0 31 25 31 41 31h73c34 0 40 -10 40 -41v-270c0 -32 0 -65 79 -65c32 0 113 12 113 102v213h-45
c-14 0 -40 0 -40 30c0 31 25 31 41 31h73c34 0 40 -10 40 -41z" />
    <glyph glyph-name="v" unicode="v" 
d="M430 370l-115 -341c-11 -33 -34 -33 -53 -33c-21 0 -41 0 -53 34l-115 340h-30c-15 0 -40 0 -40 30c0 31 24 31 40 31h117c16 0 40 0 40 -31c0 -30 -25 -30 -40 -30h-28l109 -322l109 322h-28c-16 0 -40 0 -40 31c0 30 25 30 40 30h117c16 0 40 0 40 -31
c0 -30 -25 -30 -40 -30h-30z" />
    <glyph glyph-name="w" unicode="w" 
d="M457 370l-60 -338c-5 -26 -14 -36 -44 -36c-39 0 -41 8 -60 76c-10 34 -25 85 -29 114h-1c-2 -18 -3 -32 -28 -120c-18 -61 -21 -70 -61 -70c-25 0 -41 2 -47 36l-60 338c-30 0 -51 0 -51 31c0 30 25 30 40 30h119c16 0 40 0 40 -31c0 -30 -25 -30 -40 -30h-51l49 -282
c1 -7 1 -9 3 -17h1l43 153c4 14 10 35 44 35c35 0 38 -11 56 -74c12 -41 25 -87 29 -113h1l50 298h-51c-15 0 -40 0 -40 30c0 31 24 31 40 31h119c15 0 40 0 40 -30c0 -31 -21 -31 -51 -31z" />
    <glyph glyph-name="x" unicode="x" 
d="M287 222l128 -161h40c15 0 41 0 41 -31c0 -30 -27 -30 -41 -30h-117c-15 0 -40 0 -40 30c0 31 22 31 50 31l-89 123l-86 -123c31 0 52 0 52 -31c0 -30 -25 -30 -40 -30h-117c-14 0 -41 0 -41 30c0 31 26 31 41 31h40l124 161l-118 148h-40c-14 0 -41 0 -41 30
c0 31 26 31 41 31h117c15 0 40 0 40 -30c0 -31 -22 -31 -48 -31l76 -101l74 101c-27 0 -49 0 -49 31c0 30 25 30 40 30h117c15 0 41 0 41 -31c0 -30 -27 -30 -41 -30h-40z" />
    <glyph glyph-name="y" unicode="y" 
d="M430 370l-155 -455c-4 -11 -49 -143 -149 -143c-49 0 -83 40 -83 82c0 26 17 44 44 44c25 0 43 -18 43 -43c0 -13 -5 -21 -5 -22c15 1 51 3 80 58c13 25 38 107 38 109c0 1 0 3 -4 13l-142 357h-31c-15 0 -40 0 -40 30c0 31 24 31 40 31h117c16 0 40 0 40 -31
c0 -30 -25 -30 -40 -30h-25l93 -240c7 -19 16 -40 21 -59h1c7 31 13 49 26 86l72 213h-28c-16 0 -40 0 -40 31c0 30 25 30 40 30h117c16 0 40 0 40 -31c0 -30 -25 -30 -40 -30h-30z" />
    <glyph glyph-name="z" unicode="z" 
d="M449 357l-312 -296h269v38c0 20 0 41 35 41c34 0 34 -22 34 -41v-58c0 -15 0 -35 -22 -41h-379c-19 0 -41 0 -41 34c0 17 1 20 22 40l312 296h-249v-26c0 -20 0 -41 -35 -41c-34 0 -34 22 -34 41v46c0 33 8 41 41 41h340c19 0 41 0 41 -34c0 -17 -1 -20 -22 -40z" />
    <glyph glyph-name="braceleft" unicode="{" 
d="M297 520v-132c-1 -25 -16 -58 -58 -83c55 -30 58 -71 58 -96v-161c0 -31 0 -67 136 -70c9 0 34 -1 34 -30c0 -31 -24 -31 -42 -31c-48 0 -103 7 -145 30c-52 29 -52 74 -52 104v166c-2 54 -111 57 -137 58c-10 0 -34 1 -34 31c0 24 20 30 26 30c23 0 73 1 109 16
c36 16 36 31 36 67v90c0 28 0 78 1 84c17 88 126 101 196 101c18 0 42 0 42 -31c0 -24 -20 -30 -26 -30c-35 0 -123 -2 -141 -40c-3 -8 -3 -48 -3 -73z" />
    <glyph glyph-name="bar" unicode="|" 
d="M297 647v-683c0 -12 0 -47 -35 -47s-35 35 -35 47v683c0 12 0 47 35 47s35 -35 35 -47z" />
    <glyph glyph-name="braceright" unicode="}" 
d="M297 562v-167c2 -56 112 -58 136 -59c10 0 34 -1 34 -31c0 -24 -20 -30 -26 -30c-24 0 -72 -1 -108 -16c-36 -16 -36 -31 -36 -67v-90c0 -28 0 -78 -1 -84c-15 -81 -110 -101 -197 -101c-17 0 -42 0 -42 31c0 24 20 30 26 30c145 2 145 38 145 67v178c0 4 2 51 58 83
c-43 23 -58 55 -58 95v161c0 33 0 69 -138 71c-14 0 -33 4 -33 30c0 31 25 31 42 31c35 0 98 -4 146 -30c52 -29 52 -74 52 -102z" />
    <glyph glyph-name="asciitilde" unicode="~" 
d="M437 579c0 -18 -29 -40 -49 -55c-23 -17 -51 -33 -78 -33c-34 0 -54 21 -67 34c-13 12 -21 21 -31 21c-14 0 -40 -16 -70 -44c-7 -6 -13 -11 -24 -11c-16 0 -31 16 -31 32c0 18 29 40 49 55c23 17 51 33 78 33c34 0 54 -21 67 -34c13 -12 21 -21 31 -21c14 0 40 16 70 44
c7 6 13 11 24 11c16 0 31 -16 31 -32z" />
    <glyph glyph-name="integral" unicode="&#x222b;" 
d="M340 467l-86 -550c-2 -14 -23 -150 -120 -150c-70 0 -79 82 -79 111c0 37 26 41 34 41c35 0 35 -34 35 -43c0 -7 0 -30 7 -48c12 1 26 3 38 35c11 27 12 34 16 59l85 540c5 33 25 160 120 160c70 0 79 -82 79 -111c0 -37 -26 -41 -34 -41c-35 0 -35 34 -35 43
c0 7 0 30 -7 48c-13 -1 -25 -3 -38 -34c-10 -26 -11 -36 -15 -60z" />
  </font>
</defs>
</svg>
