<?xml version="1.0" standalone="no"?>
<!DOCTYPE svg PUBLIC "-//W3C//DTD SVG 1.1//EN" "http://www.w3.org/Graphics/SVG/1.1/DTD/svg11.dtd" >
<svg>
<metadata>
Created by FontForge 20060822 at Fri Oct  6 18:26:26 2006
 By Wojciech Mula,,,
Copyright (C) 1997 American Mathematical Society. All Rights Reserved
</metadata>
<defs>
<font id="CMTI9" horiz-adv-x="524" >
  <font-face 
    font-family="Computer Modern"
    font-weight="500"
    font-style="italic"
    font-stretch="normal"
    units-per-em="1000"
    panose-1="2 0 6 3 0 0 0 0 0 0"
    ascent="750"
    descent="-250"
    x-height="442"
    cap-height="683"
    bbox="-35 -250 1148 750"
    underline-thickness="0"
    underline-position="0"
    slope="-14.04"
    stemh="31"
    stemv="70"
    unicode-range="U+0020-U+FB04"
  />
    <missing-glyph />
    <glyph glyph-name="ff" unicode="ff" horiz-adv-x="629" 
d="M587 400l-59 -308c-1 -5 -28 -147 -65 -206c-22 -35 -78 -91 -147 -91c-44 0 -100 17 -100 67c0 33 25 53 49 53c18 0 34 -12 34 -32c0 -17 -11 -39 -37 -47c11 -9 33 -16 55 -16c29 0 53 19 70 38c20 23 26 38 39 83c14 54 15 56 25 110l67 349h-235l-61 -319
c-23 -122 -67 -286 -164 -286c-40 0 -83 22 -83 66c0 37 27 54 49 54c18 0 34 -12 34 -32c0 -6 -3 -37 -39 -47c14 -16 36 -16 39 -16c24 0 47 7 84 203l72 377h-63c-16 0 -27 0 -27 13c0 18 11 18 28 18h68l23 119c4 22 13 44 23 64c29 61 83 91 160 91
c63 0 112 -22 112 -67c0 -33 -25 -53 -49 -53c-18 0 -34 12 -34 32c0 32 32 46 35 47c-21 13 -46 16 -63 16c-55 0 -84 -34 -84 -35c-17 -20 -26 -67 -31 -94l-23 -120h235l22 114c6 33 32 160 137 160c38 0 91 -18 91 -67c0 -33 -25 -53 -49 -53c-18 0 -34 12 -34 32
c0 17 11 39 37 47c-17 16 -41 16 -45 16c-25 0 -41 -27 -44 -33c-9 -16 -29 -122 -46 -216h79c16 0 27 0 27 -13c0 -18 -11 -18 -28 -18h-84z" />
    <glyph glyph-name="fi" unicode="fi" horiz-adv-x="577" 
d="M283 400l-62 -323c-25 -131 -71 -282 -163 -282c-43 0 -83 24 -83 66c0 37 27 54 49 54c18 0 34 -12 34 -32c0 -6 -3 -37 -39 -47c14 -16 36 -16 39 -16c35 0 48 53 56 80c17 65 17 67 28 126l72 374h-63c-16 0 -27 0 -27 13c0 18 11 18 28 18h68l19 100
c32 166 147 174 221 174c30 0 149 0 149 -74c0 -40 -29 -56 -49 -56c-19 0 -34 11 -34 32c0 34 32 46 39 48c-30 25 -90 25 -102 25c-67 0 -111 -17 -131 -65c-19 -43 -32 -122 -43 -184h244c16 0 25 0 25 -12c0 -3 -2 -7 -3 -13l-75 -300c-5 -20 -8 -42 -8 -51
c0 -25 7 -41 26 -41c33 0 51 52 68 118c4 19 5 23 20 23c4 0 17 0 17 -12c0 -3 -13 -60 -31 -97c-8 -17 -29 -57 -75 -57c-55 0 -89 43 -89 91c0 15 5 33 5 34l71 286h-201z" />
    <glyph glyph-name="fl" unicode="fl" horiz-adv-x="603" 
d="M647 669l-141 -563c-5 -20 -8 -42 -8 -51c0 -25 7 -41 26 -41c33 0 51 52 68 118c4 19 5 23 20 23c4 0 17 0 17 -12c0 -3 -13 -60 -31 -97c-8 -17 -29 -57 -75 -57c-55 0 -89 43 -89 91c0 15 5 33 5 34l71 286h-227l-61 -317c-26 -137 -71 -288 -165 -288
c-40 0 -82 22 -82 66c0 37 27 54 49 54c18 0 34 -12 34 -32c0 -6 -3 -37 -39 -47c14 -16 36 -16 39 -16c35 0 48 52 56 82c15 60 17 64 28 124l72 374h-63c-16 0 -27 0 -27 13c0 18 11 18 28 18h68l19 101c26 133 98 173 203 173c61 0 126 -11 127 -65h1c6 24 2 7 9 34
c5 19 6 20 28 20h17c16 0 26 0 26 -12c0 -2 -2 -10 -3 -13zM289 431h229l44 177h-1c-4 -7 -18 -23 -41 -23c-18 0 -34 12 -34 32c0 21 14 40 34 47c-27 15 -65 16 -77 16c-92 0 -109 -51 -116 -73c-9 -26 -13 -39 -38 -176z" />
    <glyph glyph-name="ffi" unicode="ffi" horiz-adv-x="905" 
d="M597 400l-66 -343c-10 -50 -23 -99 -44 -145c-33 -71 -103 -117 -166 -117c-48 0 -105 17 -105 67c0 33 25 53 49 53c18 0 34 -12 34 -32c0 -21 -16 -40 -36 -47c23 -16 56 -16 58 -16c55 0 94 61 100 75c20 49 31 109 42 164l65 341h-245l-61 -319
c-23 -122 -67 -286 -164 -286c-40 0 -83 22 -83 66c0 37 27 54 49 54c18 0 34 -12 34 -32c0 -6 -3 -37 -39 -47c14 -16 36 -16 39 -16c24 0 46 7 84 203l72 377h-63c-16 0 -27 0 -27 13c0 18 11 18 28 18h68l19 99c23 120 82 175 200 175c45 0 125 -7 125 -67
c0 -33 -25 -53 -49 -53c-18 0 -34 12 -34 32c0 21 14 40 34 47c-27 16 -67 16 -75 16c-98 0 -114 -58 -129 -134l-22 -115h245l19 97c33 172 153 177 228 177c38 0 156 0 156 -74c0 -40 -29 -56 -49 -56c-19 0 -34 11 -34 32c0 34 32 46 39 48c-28 23 -82 25 -109 25
c-113 0 -141 -41 -160 -141l-21 -108h258c16 0 25 0 25 -12c0 -3 -2 -7 -3 -13l-75 -300c-5 -20 -8 -42 -8 -51c0 -25 7 -41 26 -41c33 0 51 52 68 118c4 19 5 23 20 23c4 0 17 0 17 -12c0 -3 -13 -60 -31 -97c-8 -17 -29 -57 -75 -57c-55 0 -89 43 -89 91c0 15 5 33 5 34
l71 286h-215z" />
    <glyph glyph-name="ffl" unicode="ffl" horiz-adv-x="918" 
d="M962 669l-141 -563c-5 -20 -8 -42 -8 -51c0 -25 7 -41 26 -41c33 0 51 52 68 118c4 19 5 23 20 23c4 0 17 0 17 -12c0 -3 -13 -60 -31 -97c-8 -17 -29 -57 -75 -57c-55 0 -89 43 -89 91c0 15 5 33 5 34l71 286h-228l-65 -338c-11 -55 -25 -110 -50 -160
c-27 -52 -91 -107 -161 -107c-48 0 -105 17 -105 67c0 33 25 53 49 53c18 0 34 -12 34 -32c0 -21 -16 -40 -36 -47c23 -16 56 -16 58 -16c53 0 92 56 101 77c10 26 28 96 43 174l63 329h-245l-61 -319c-25 -129 -69 -286 -164 -286c-40 0 -83 22 -83 66c0 37 27 54 49 54
c18 0 34 -12 34 -32c0 -6 -3 -37 -39 -47c14 -16 36 -16 39 -16c35 0 49 54 56 79c16 65 16 67 28 126l72 375h-63c-16 0 -27 0 -27 13c0 18 11 18 28 18h68c23 124 32 170 61 211c22 30 67 63 145 63c63 0 112 -22 112 -67c0 -33 -25 -53 -49 -53c-18 0 -34 12 -34 32
c0 32 32 46 35 47c-21 13 -46 16 -63 16c-45 0 -82 -25 -91 -47c-11 -24 -21 -58 -47 -202h245l19 98c26 134 95 176 204 176c60 0 126 -10 127 -65h1c6 24 2 7 9 34c5 19 6 20 28 20h17c16 0 26 0 26 -12c0 -2 -2 -10 -3 -13zM603 431h230l44 177h-1c-4 -7 -18 -23 -41 -23
c-18 0 -34 12 -34 32c0 21 14 40 34 47c-27 15 -65 16 -77 16c-101 0 -115 -57 -129 -119c-4 -16 -6 -23 -26 -130z" />
    <glyph glyph-name="Gamma" unicode="&#x393;" horiz-adv-x="643" 
d="M391 615l-135 -541c-4 -15 -4 -17 -4 -22c0 -13 0 -21 72 -21h8c16 0 27 0 27 -13c0 -18 -13 -18 -20 -18c-44 0 -91 3 -136 3c-40 0 -83 -3 -122 -3c-8 0 -15 4 -15 13c0 18 11 18 27 18c67 0 73 7 82 42l134 538c4 15 4 17 4 21c0 11 0 17 -58 17c-16 0 -26 0 -26 13
c0 18 12 18 28 18h435c16 0 27 0 27 -14l-23 -188c-2 -17 -3 -23 -18 -23c-6 0 -17 0 -17 15l1 12c4 23 6 46 6 69c0 64 -17 98 -125 98h-104c-32 0 -40 0 -48 -34z" />
    <glyph glyph-name="Delta" unicode="&#x394;" horiz-adv-x="839" 
d="M622 693l145 -665l4 -16c0 -12 -10 -12 -26 -12h-651c-15 0 -21 0 -21 7c0 2 0 4 8 14l486 677c8 11 13 18 31 18c19 0 20 -5 24 -23zM550 622l-398 -553h518z" />
    <glyph glyph-name="Theta" unicode="&#x398;" horiz-adv-x="787" 
d="M806 441c0 -236 -212 -463 -418 -463c-137 0 -238 102 -238 261c0 234 212 466 419 466c141 0 237 -109 237 -264zM395 5c85 0 173 65 226 141c85 122 103 264 103 326c0 152 -85 208 -161 208c-184 0 -331 -259 -331 -470c0 -146 81 -205 163 -205zM665 384l-23 -90
c-4 -15 -5 -20 -19 -20c-5 0 -17 0 -17 14c0 6 3 15 4 20h-281c-1 -15 -5 -34 -22 -34c-4 0 -17 0 -17 13c0 2 0 4 4 18l21 86c5 19 10 20 20 20c4 0 16 0 16 -13c0 -6 -2 -16 -4 -21h281c1 15 6 34 23 34c3 0 16 0 16 -13z" />
    <glyph glyph-name="Lambda" unicode="&#x39b;" horiz-adv-x="710" 
d="M182 114l323 583c10 19 21 19 29 19c18 0 18 -6 19 -26l35 -629c1 -24 7 -30 47 -30c11 0 23 0 23 -13c0 -18 -15 -18 -19 -18c-31 0 -66 3 -99 3c-37 0 -75 -3 -111 -3c-8 0 -15 4 -15 13c0 18 12 18 23 18c70 1 68 27 67 48l-28 500l-264 -474c-14 -25 -14 -36 -14 -40
c0 -23 18 -32 43 -34c3 0 14 -1 14 -13c0 -18 -14 -18 -18 -18c-28 0 -60 3 -90 3c-24 0 -51 -3 -74 -3c-7 0 -13 5 -13 13c0 3 1 17 13 18c28 2 66 6 109 83z" />
    <glyph glyph-name="Xi" unicode="&#x39e;" horiz-adv-x="682" 
d="M766 651l-20 -104c-3 -16 -4 -20 -18 -20c-5 0 -17 0 -17 14c0 2 3 15 4 21c4 23 4 32 4 48c-2 0 -34 3 -61 3h-323c-13 0 -51 -1 -63 -3c-9 -2 -19 -31 -31 -68c-3 -10 -5 -15 -18 -15c-4 0 -17 0 -17 13c0 2 2 8 4 13l33 105c6 18 7 19 29 19h469c17 0 27 0 27 -14
c0 -2 -2 -9 -2 -12zM77 13l24 128c3 16 4 20 18 20c5 0 17 0 17 -14c0 -2 -1 -3 -2 -10c-4 -22 -8 -50 -8 -63c0 -10 26 -10 64 -10h327c11 0 66 0 72 7c10 14 23 57 25 62c8 27 9 28 22 28c4 0 17 0 17 -13c0 -6 -36 -120 -41 -134s-7 -14 -28 -14h-481c-16 0 -26 0 -26 13
zM626 405l-28 -112c-5 -20 -10 -20 -20 -20c-4 0 -16 0 -16 13c0 2 6 30 7 34h-298c-5 -23 -6 -27 -7 -30c-4 -14 -7 -17 -19 -17c-4 0 -16 0 -16 13c0 3 0 5 2 13l28 112c5 18 9 20 20 20c4 0 16 0 16 -13c0 -2 -6 -30 -7 -34h298c5 23 6 27 7 30c4 14 7 17 19 17
c4 0 16 0 16 -13z" />
    <glyph glyph-name="Pi" unicode="&#x3a0;" horiz-adv-x="762" 
d="M756 604l-133 -532c-2 -8 -4 -16 -4 -24c0 -11 0 -17 58 -17c16 0 26 0 26 -13c0 -18 -14 -18 -19 -18c-38 0 -79 3 -118 3s-79 -3 -117 -3c-8 0 -15 4 -15 13c0 18 11 18 27 18c67 0 73 7 82 42l144 576h-287l-145 -580c-4 -15 -4 -17 -4 -21c0 -11 0 -17 58 -17
c16 0 26 0 26 -13c0 -18 -14 -18 -19 -18c-38 0 -79 3 -118 3s-79 -3 -117 -3c-8 0 -15 4 -15 13c0 18 11 18 27 18c67 0 73 7 82 42l134 538c4 15 4 17 4 21c0 11 0 17 -58 17c-16 0 -26 0 -26 13c0 18 12 18 28 18h582c16 0 27 0 27 -13c0 -18 -11 -18 -29 -18
c-66 0 -72 -8 -81 -45z" />
    <glyph glyph-name="Sigma" unicode="&#x3a3;" horiz-adv-x="734" 
d="M452 325l-299 -284h250c176 0 218 42 275 184c4 10 12 10 17 10c4 0 16 0 16 -13c0 -2 -1 -5 -4 -13l-71 -190c-7 -18 -8 -19 -30 -19h-498c-16 0 -26 0 -26 13c0 5 2 8 11 16l293 278l-142 356c0 20 12 20 29 20h498c15 0 26 0 26 -13l-1 -15l-21 -174
c-2 -16 -3 -23 -18 -23c-8 0 -17 1 -17 15c0 8 4 28 4 59c0 91 -33 120 -177 120h-226l118 -297c4 -10 4 -12 4 -13c0 -6 -2 -8 -11 -17z" />
    <glyph glyph-name="Upsilon" unicode="&#x3a5;" horiz-adv-x="787" 
d="M515 325l-63 -251c-4 -15 -4 -17 -4 -22c0 -13 0 -21 72 -21h8c16 0 27 0 27 -13c0 -18 -13 -18 -20 -18c-46 0 -95 3 -142 3c-46 0 -94 -3 -139 -3c-7 0 -15 3 -15 13c0 18 11 18 28 18h9c81 0 87 10 96 46l73 293c5 19 17 81 17 130c0 63 -16 135 -98 135
c-43 0 -95 -26 -115 -86c-2 -8 -5 -15 -20 -15c-6 0 -14 0 -14 10c0 24 56 161 167 161c130 0 130 -145 130 -182c0 -18 0 -28 -3 -55h1c26 62 102 237 247 237c71 0 94 -61 94 -110c0 -39 -6 -61 -26 -61c-5 0 -14 0 -14 10c0 5 2 8 2 23c0 38 -26 68 -74 68
c-146 0 -203 -226 -224 -310z" />
    <glyph glyph-name="Phi" unicode="&#x3a6;" horiz-adv-x="734" 
d="M658 652h-9c-84 0 -86 -8 -99 -58c-8 -31 -3 -14 -11 -45c135 -13 207 -88 207 -171c0 -114 -138 -228 -311 -244c-7 -27 -19 -75 -19 -82c0 -13 0 -21 72 -21h8c16 0 27 0 27 -13c0 -18 -13 -18 -20 -18c-45 0 -92 3 -138 3c-45 0 -93 -3 -137 -3c-7 0 -15 3 -15 13
c0 18 11 18 28 18h9c84 0 86 8 99 59c8 31 3 14 11 45c-115 11 -201 77 -201 170c0 112 132 226 305 243c6 26 6 28 10 41c3 14 9 38 9 43c0 14 -6 15 -29 18c-13 1 -30 2 -43 2h-9c-16 0 -26 0 -26 13c0 18 13 18 20 18c45 0 92 -3 138 -3c45 0 92 3 136 3
c6 0 16 -2 16 -13c0 -18 -11 -18 -28 -18zM366 161l91 361c-212 -26 -212 -235 -212 -240c0 -81 60 -113 121 -121zM532 523l-90 -363c218 26 218 233 218 241c0 84 -64 115 -128 122z" />
    <glyph glyph-name="Psi" unicode="&#x3a8;" horiz-adv-x="787" 
d="M579 607l-111 -444c143 35 185 189 200 248c28 102 61 144 123 144h26c16 0 26 0 26 -13c0 -3 -3 -10 -10 -11c-22 -4 -60 -10 -88 -111c-19 -72 -70 -261 -284 -285c-7 -28 -19 -77 -19 -83c0 -13 0 -21 72 -21h8c16 0 27 0 27 -13c0 -18 -13 -18 -20 -18
c-45 0 -92 3 -138 3c-45 0 -93 -3 -137 -3c-7 0 -15 3 -15 13c0 18 11 18 28 18h9c73 0 80 11 86 19c6 10 17 57 24 86c-106 15 -151 86 -151 179c0 13 2 48 13 92c5 24 11 52 11 73c0 45 -19 49 -29 50c-6 1 -16 2 -16 12c0 13 11 13 27 13h25c21 0 67 0 67 -75
c0 -29 -8 -62 -14 -87c-9 -35 -13 -71 -13 -96c0 -89 39 -123 87 -135l112 449c4 15 4 17 4 21c0 14 -6 15 -29 18c-13 1 -30 2 -43 2h-9c-16 0 -26 0 -26 13c0 18 13 18 20 18c45 0 92 -3 138 -3c45 0 92 3 136 3c6 0 16 -2 16 -13c0 -18 -11 -18 -28 -18h-9
c-80 0 -87 -10 -96 -45z" />
    <glyph glyph-name="Omega" unicode="&#x3a9;" horiz-adv-x="734" 
d="M696 129l-55 -113c-8 -15 -9 -16 -30 -16h-126c-16 0 -26 0 -26 13c0 6 11 49 35 96c14 29 24 49 79 137c57 92 113 183 113 282c0 114 -81 152 -146 152c-116 0 -267 -112 -267 -324c0 -1 0 -41 11 -121c10 -80 10 -122 10 -123c0 -46 -9 -97 -14 -105
c-3 -7 -9 -7 -25 -7h-126c-24 0 -27 0 -27 25l1 60c0 11 0 49 1 59c2 13 12 13 17 13c17 0 17 -7 17 -27v-27c0 -23 0 -37 8 -40c12 -3 41 -3 42 -3h76c0 47 0 68 -38 166c-33 88 -41 122 -41 170c0 178 185 309 355 309c141 0 236 -86 236 -201c0 -105 -82 -199 -155 -281
c-70 -79 -98 -118 -120 -163h69c50 0 54 7 59 13c8 11 20 35 25 47c12 23 12 25 14 26c4 8 6 11 17 11c4 0 17 0 17 -13c0 -4 -2 -6 -6 -15z" />
    <glyph glyph-name="dotlessi" unicode="&#x131;" horiz-adv-x="314" 
d="M341 143c0 -7 -37 -154 -132 -154c-41 0 -79 28 -79 82c0 20 9 44 17 65c3 9 19 51 25 69l35 93c17 47 24 67 24 91c0 26 -11 28 -21 28c-59 0 -86 -98 -93 -124c-4 -12 -5 -17 -19 -17c-5 0 -17 0 -17 12c0 9 37 154 132 154c45 0 79 -33 79 -82c0 -19 -11 -49 -20 -72
l-34 -94c-17 -42 -17 -44 -31 -81c-11 -31 -17 -54 -17 -71c0 -27 13 -28 21 -28c54 0 82 81 92 117c6 21 7 24 21 24c4 0 17 0 17 -12z" />
    <glyph glyph-name="dotlessj" unicode="&#xf6be;" horiz-adv-x="341" 
d="M323 318l-92 -370c-20 -81 -93 -153 -176 -153c-40 0 -90 14 -90 59c0 34 28 51 48 51c19 0 34 -11 34 -32c0 -30 -26 -43 -30 -45c11 -6 16 -8 38 -8c72 0 103 111 106 125l95 381c1 4 7 30 7 51c0 35 -14 40 -27 40c-40 0 -84 -38 -118 -124c-6 -14 -7 -17 -20 -17
c-5 0 -17 0 -17 12c0 9 56 154 157 154c48 0 89 -33 89 -91c0 -11 0 -17 -4 -33z" />
    <glyph glyph-name="grave" unicode="`" 
d="M404 516l-99 117c-8 9 -11 13 -11 24c0 22 24 39 40 39c19 0 25 -12 31 -24l71 -137c2 -3 4 -8 4 -13c0 -9 -13 -18 -20 -18c-5 0 -6 0 -16 12z" />
    <glyph glyph-name="acute" unicode="&#xb4;" 
d="M538 631l-162 -121c-1 -1 -9 -6 -14 -6c-8 0 -17 10 -17 18c0 5 1 6 11 16l143 141c9 9 17 17 31 17c21 0 31 -16 31 -30c0 -16 -12 -27 -23 -35z" />
    <glyph glyph-name="caron" unicode="&#x2c7;" 
d="M533 596l-127 -85c-10 -7 -13 -7 -15 -7c-3 0 -7 0 -17 11l-82 83c-9 8 -9 10 -9 14c0 7 12 19 19 19c6 0 12 -4 15 -7l82 -65l131 73c9 -3 17 -8 17 -20c0 -6 -2 -8 -14 -16z" />
    <glyph glyph-name="breve" unicode="&#x2d8;" 
d="M576 681c0 -34 -68 -160 -180 -160c-73 0 -113 56 -113 121c0 5 0 52 18 52c2 0 12 -2 12 -14c0 -4 -4 -18 -4 -31c0 -50 34 -89 90 -89c46 0 123 32 152 121c2 6 4 13 13 13c4 0 12 -4 12 -13z" />
    <glyph glyph-name="macron" unicode="&#xaf;" 
d="M547 557h-286c-15 0 -26 0 -26 13c0 21 12 21 29 21h286c16 0 26 0 26 -13c0 -21 -12 -21 -29 -21z" />
    <glyph glyph-name="ring" unicode="&#x2da;" horiz-adv-x="850" 
d="M681 648c0 -54 -59 -107 -120 -107c-45 0 -77 27 -77 68c0 57 60 107 120 107c47 0 77 -31 77 -68zM567 566c81 0 81 83 81 87c0 28 -19 38 -51 38c-81 0 -81 -84 -81 -87c0 -31 24 -38 51 -38z" />
    <glyph glyph-name="cedilla" unicode="&#xb8;" horiz-adv-x="472" 
d="M252 3h14c16 0 27 0 27 -13c0 -3 -6 -27 -10 -41c35 -6 63 -22 63 -56c0 -81 -127 -85 -202 -85h-27c-10 1 -12 9 -12 13c0 12 11 12 26 12h12c32 0 135 0 135 60c0 24 -23 34 -50 36c-3 0 -14 1 -14 13c0 4 6 31 9 42c5 19 6 19 29 19z" />
    <glyph glyph-name="germandbls" unicode="&#xdf;" horiz-adv-x="550" 
d="M308 531l-86 -448c-12 -64 -26 -127 -53 -186c-22 -47 -69 -102 -121 -102c-37 0 -68 24 -68 64c0 45 32 56 49 56c18 0 34 -12 34 -32c0 -9 -5 -40 -43 -48c8 -13 22 -15 28 -15c54 0 75 108 94 209l72 371h-63c-16 0 -27 0 -27 13c0 18 11 18 28 18h68l18 96
c24 124 86 178 208 178c89 0 143 -50 143 -115c0 -70 -67 -151 -93 -181c-23 -28 -44 -52 -44 -74c0 -24 22 -49 42 -73c25 -29 42 -61 42 -97c0 -76 -81 -176 -181 -176c-50 0 -101 24 -101 75c0 41 28 46 37 46c18 0 27 -12 27 -25c0 -9 -4 -28 -28 -35
c14 -36 60 -36 64 -36c72 0 101 126 101 146c0 27 -11 44 -25 63c-29 35 -29 65 -29 83c0 52 13 72 61 120c42 43 60 159 60 172c0 32 -13 82 -76 82c-28 0 -75 -8 -102 -38c-3 -4 -19 -23 -36 -111z" />
    <glyph glyph-name="ae" unicode="&#xe6;" horiz-adv-x="734" 
d="M492 229h-37c-9 -36 -13 -68 -13 -92c0 -63 24 -123 85 -123c30 0 100 15 160 96c6 8 8 10 13 10c8 0 18 -11 18 -18c0 -13 -78 -113 -192 -113c-52 0 -90 26 -113 67c-16 -54 -20 -67 -46 -67c-17 0 -26 12 -26 25c0 10 6 28 8 37c-48 -51 -86 -62 -116 -62
c-75 0 -140 44 -140 113c0 44 43 209 347 312c6 22 25 28 34 28c21 0 27 -16 27 -25c0 -8 -3 -18 -5 -25c44 33 91 50 135 50c67 0 106 -41 106 -86c0 -11 -3 -76 -83 -106c-40 -15 -99 -21 -162 -21zM461 254h20c57 0 215 0 215 103c0 34 -25 60 -65 60
c-48 0 -134 -38 -170 -163zM373 146l59 238c-156 -62 -263 -201 -263 -308c0 -59 55 -62 66 -62c68 0 130 101 138 132z" />
    <glyph glyph-name="oe" unicode="&#x153;" horiz-adv-x="734" 
d="M495 229h-36c-10 -42 -14 -71 -14 -97c0 -62 24 -118 82 -118c30 0 100 15 160 96c6 8 8 10 13 10c8 0 18 -11 18 -18c0 -13 -78 -113 -192 -113c-68 0 -111 44 -130 98c-50 -66 -109 -99 -160 -99c-66 0 -126 52 -126 158c0 150 121 297 234 297c60 0 96 -44 110 -87
c26 25 88 86 177 86c67 0 106 -41 106 -86c0 -15 -5 -77 -83 -107c-39 -14 -97 -20 -159 -20zM465 254c76 0 231 0 231 103c0 34 -25 60 -65 60c-34 0 -126 -24 -166 -163zM237 13c46 0 91 51 119 110c23 51 48 154 48 199c0 17 -3 96 -61 96c-42 0 -87 -46 -114 -107
c-19 -43 -49 -159 -49 -208c0 -24 5 -90 57 -90z" />
    <glyph glyph-name="oslash" unicode="&#xf8;" 
d="M563 523l-92 -122c20 -21 44 -59 44 -123c0 -146 -127 -290 -253 -290c-43 0 -74 18 -83 25l-74 -98c-18 -23 -19 -24 -24 -24c-7 0 -12 6 -12 12c0 5 13 22 21 32l70 95c-31 34 -43 78 -43 123c0 148 129 290 253 290c20 0 48 -2 83 -25l82 110c6 8 10 12 16 12
c12 0 12 -12 12 -17zM188 67l242 321c-17 24 -40 30 -61 30c-122 0 -190 -194 -190 -295c0 -13 2 -37 9 -56zM444 364l-234 -311c-2 -2 -7 -10 -8 -11c23 -29 51 -29 61 -29c122 0 190 194 190 295c0 16 -4 41 -9 56z" />
    <glyph glyph-name="AE" unicode="&#xc6;" horiz-adv-x="906" 
d="M196 115l318 536c-8 1 -20 1 -28 1h-19c-16 0 -27 0 -27 13c0 18 11 18 28 18h474c15 0 26 0 26 -13l-1 -15l-21 -174c-2 -16 -3 -23 -18 -23c-8 0 -17 1 -17 15c0 1 0 4 1 14c3 20 6 49 6 69c0 61 -14 96 -123 96h-98c-31 0 -39 0 -48 -36l-67 -272h81
c74 0 97 18 115 92c6 21 7 25 21 25c4 0 17 0 17 -13c0 -3 -2 -8 -3 -13l-55 -219c-4 -16 -5 -20 -19 -20c-4 0 -16 0 -16 13c0 3 1 10 4 21c1 5 6 25 6 42c0 21 0 41 -72 41h-87l-63 -250c-4 -14 -4 -19 -4 -29c10 -3 12 -3 29 -3h99c147 0 181 66 237 198
c11 23 11 25 13 26c4 3 7 3 12 3c4 0 17 0 17 -13c0 -1 0 -3 -6 -16l-87 -211c-7 -18 -9 -18 -31 -18h-410c-16 0 -27 0 -27 13c0 18 10 18 27 18c45 0 50 8 57 38l61 244h-149l-124 -209c-7 -12 -15 -28 -15 -41c0 -29 31 -31 41 -32c3 0 14 -1 14 -13
c0 -18 -14 -18 -18 -18c-29 0 -62 3 -92 3c-27 0 -56 -3 -81 -3c-11 0 -13 9 -13 13c0 17 11 17 19 18c39 3 75 16 116 84zM368 344h138l67 270c1 4 2 10 2 15c0 14 -6 16 -19 18c-1 1 -7 2 -8 2z" />
    <glyph glyph-name="OE" unicode="&#x152;" horiz-adv-x="1011" 
d="M1013 229l-87 -211c-7 -18 -9 -18 -31 -18h-342c-22 0 -35 -1 -76 -10c-35 -8 -52 -12 -78 -12c-124 0 -235 93 -235 261c0 237 216 466 417 466c22 0 37 -2 80 -13c32 -9 46 -9 63 -9h323c15 0 26 0 26 -13l-1 -15l-21 -174c-2 -16 -3 -23 -18 -23c-8 0 -17 1 -17 15
c0 4 1 11 2 14c4 33 4 62 4 65c0 57 -6 100 -125 100h-112c-31 0 -39 0 -48 -36l-61 -246h102c81 0 107 17 126 92c5 21 6 25 21 25c4 0 16 0 16 -13l-57 -232c-4 -17 -6 -20 -19 -20c-5 0 -17 0 -17 14c0 2 0 3 3 16c5 19 7 33 7 43c0 29 -9 44 -82 44h-108l-69 -276
c-4 -14 -4 -19 -4 -29c10 -3 12 -3 29 -3h111c150 0 186 64 242 198c11 23 11 25 13 26c4 3 7 3 12 3c4 0 17 0 17 -13c0 -1 0 -3 -6 -16zM554 168l89 359c7 29 12 48 12 88c0 23 0 65 -78 65c-150 0 -323 -214 -323 -453c0 -129 57 -224 155 -224c87 0 107 53 126 106
c9 24 14 37 19 59z" />
    <glyph glyph-name="Oslash" unicode="&#xd8;" horiz-adv-x="787" 
d="M729 643l80 91c8 10 11 11 16 11c8 0 14 -7 14 -14c0 -6 -13 -21 -44 -55c-5 -5 -23 -24 -47 -54c48 -61 58 -131 58 -181c0 -236 -212 -463 -418 -463c-85 0 -135 38 -161 61l-81 -91c-8 -9 -9 -10 -14 -10c-8 0 -14 7 -14 14s31 41 58 71c15 15 15 17 32 37
c-25 31 -58 88 -58 179c0 234 212 466 419 466c48 0 109 -13 160 -62zM242 97l457 514c-22 31 -65 69 -136 69c-95 0 -190 -68 -245 -154c-75 -119 -96 -275 -96 -326c0 -17 1 -58 20 -103zM713 585l-456 -513c22 -33 66 -69 137 -69c70 0 157 38 225 125
c83 107 114 276 114 352c0 20 0 64 -20 105z" />
    <glyph glyph-name="suppress" horiz-adv-x="262" 
d="M333 359l-213 -74c-12 -5 -14 -5 -17 -5c-10 0 -13 10 -13 17c0 10 7 12 18 16l215 76c4 1 10 4 15 4c6 0 13 -5 13 -17c0 -6 -1 -11 -18 -17z" />
    <glyph glyph-name="exclam" unicode="!" horiz-adv-x="314" 
d="M374 653l-147 -447c-6 -17 -9 -17 -20 -17c-7 0 -17 0 -17 12c0 1 0 3 2 13l75 442c9 54 55 60 66 60c31 0 46 -24 46 -42c0 -7 -2 -13 -5 -21zM226 64c0 -32 -32 -64 -65 -64c-31 0 -46 22 -46 44c0 32 32 64 65 64c31 0 46 -22 46 -44z" />
    <glyph glyph-name="quotedblright" unicode="&#x201d;" horiz-adv-x="527" 
d="M302 601c-3 -3 -19 -15 -41 -15c-23 0 -45 12 -45 43c0 34 29 65 65 65c32 0 50 -23 50 -64c0 -118 -126 -238 -144 -238c-8 0 -12 9 -12 13c0 5 1 6 11 15c50 40 101 102 116 181zM489 601c-3 -3 -19 -15 -41 -15c-23 0 -45 12 -45 43c0 34 29 65 65 65
c32 0 50 -23 50 -64c0 -118 -126 -238 -144 -238c-8 0 -12 9 -12 13c0 5 1 6 11 15c50 40 101 102 116 181z" />
    <glyph glyph-name="numbersign" unicode="#" horiz-adv-x="839" 
d="M551 127l-152 -302c-5 -10 -9 -19 -23 -19c-11 0 -21 9 -21 21c0 7 2 10 7 20l141 280h-167l-152 -302c-5 -10 -9 -19 -23 -19c-11 0 -21 9 -21 21c0 7 2 10 7 20l141 280h-135c-15 0 -38 0 -38 22c0 21 20 21 33 21h163l80 161h-192c-13 0 -33 0 -33 21
c0 22 22 22 37 22h210l152 301c5 10 9 19 23 19c9 0 21 -7 21 -22c0 -6 -2 -9 -6 -17l-141 -281h166l152 301c5 10 9 19 23 19c9 0 21 -7 21 -22c0 -6 -2 -9 -6 -17l-141 -281h135c15 0 37 0 37 -22c0 -21 -19 -21 -33 -21h-162l-80 -161h191c15 0 33 0 33 -21
c0 -22 -21 -22 -37 -22h-210zM526 170l80 161h-167l-80 -161h167z" />
    <glyph glyph-name="sterling" unicode="&#xa3;" horiz-adv-x="786" 
d="M405 332l-39 -160c-6 -26 -17 -50 -31 -72c69 -46 100 -67 147 -67c53 0 111 39 132 101c4 14 5 16 19 16c4 0 17 0 17 -11c0 -34 -69 -150 -185 -150c-19 0 -49 2 -91 25c-26 15 -46 31 -71 46c-65 -68 -127 -71 -145 -71c-33 0 -69 14 -69 50c0 43 56 100 133 100
c31 0 60 -11 61 -11c13 36 48 184 53 204h-52c-16 0 -26 0 -26 12c0 19 11 19 28 19h58l41 163c22 90 111 180 208 180c81 0 120 -65 120 -135c0 -34 -6 -90 -54 -90c-16 0 -34 10 -34 32c0 5 4 47 53 47c1 5 1 7 1 15c0 36 -13 106 -86 106c-31 0 -103 -18 -140 -158
l-40 -160h79c16 0 26 0 26 -12c0 -19 -11 -19 -28 -19h-85zM261 82c-27 13 -52 13 -56 13c-39 0 -75 -29 -75 -57c0 -21 18 -24 29 -24c27 0 64 15 102 68z" />
    <glyph glyph-name="percent" unicode="%" horiz-adv-x="839" 
d="M852 706l-661 -750c-6 -7 -13 -12 -21 -12c-13 0 -21 11 -21 22c0 2 1 8 2 11l587 666v1c-46 -20 -82 -26 -119 -26c-42 0 -89 9 -134 41c3 -15 3 -29 3 -37c0 -129 -93 -275 -182 -275c-61 0 -100 57 -100 135c0 129 100 268 194 268c37 0 54 -21 64 -35
c37 -47 95 -73 155 -73c62 0 143 28 200 92c8 10 13 16 24 16c9 0 21 -7 21 -22c0 -4 0 -9 -12 -22zM308 372c66 0 147 140 147 254c0 5 0 99 -55 99c-33 0 -75 -40 -101 -107c-16 -41 -38 -127 -38 -168c0 -6 0 -78 47 -78zM807 219c0 -131 -93 -275 -182 -275
c-61 0 -100 58 -100 135c0 128 100 268 195 268c50 0 87 -46 87 -128zM627 -31c65 0 147 138 147 254c0 15 -2 99 -55 99c-37 0 -75 -50 -92 -86c-21 -43 -46 -138 -46 -188c0 -41 12 -79 46 -79z" />
    <glyph glyph-name="ampersand" unicode="&#x26;" horiz-adv-x="787" 
d="M692 466c40 -53 58 -98 58 -157c0 -113 -83 -331 -358 -331c-163 0 -264 89 -264 199c0 74 49 164 97 210c-12 29 -12 51 -12 68c0 133 112 261 216 261c57 0 109 -39 109 -116c0 -14 0 -77 -51 -77c-8 0 -34 2 -34 32c0 14 9 47 52 47c-2 74 -47 89 -75 89
c-96 0 -151 -167 -155 -262c32 20 66 32 98 32c42 0 66 -28 66 -62c0 -43 -44 -92 -99 -92c-28 0 -58 9 -84 33c-27 -50 -51 -137 -51 -181c0 -111 92 -156 188 -156c273 0 323 235 323 303c0 53 -21 100 -53 140c-86 -52 -129 -78 -129 -134c0 -13 1 -17 3 -22
c8 19 26 32 46 32c23 0 34 -16 34 -32c0 -19 -15 -48 -50 -48c-36 0 -67 28 -67 73c0 70 73 114 119 143c56 33 109 65 151 155c-18 2 -33 15 -33 33c0 23 21 48 48 48c29 0 35 -23 35 -32c0 -20 -34 -129 -128 -196zM341 332c42 0 65 42 65 72c0 18 -11 32 -33 32
c-46 0 -90 -52 -90 -58s18 -46 58 -46z" />
    <glyph glyph-name="quoteright" unicode="&#x2019;" horiz-adv-x="314" 
d="M348 601c-3 -3 -19 -15 -41 -15c-23 0 -45 12 -45 43c0 34 29 65 65 65c32 0 50 -23 50 -64c0 -118 -126 -238 -144 -238c-8 0 -12 9 -12 13c0 5 1 6 11 15c50 40 101 102 116 181z" />
    <glyph glyph-name="parenleft" unicode="(" horiz-adv-x="419" 
d="M281 -238c0 -1 0 -11 -12 -11c-16 0 -60 62 -84 122c-21 57 -30 119 -30 180c0 109 30 266 111 421c97 184 237 276 247 276s12 -8 12 -11c0 -5 -2 -7 -10 -14c-279 -234 -307 -641 -307 -709c0 -145 51 -219 67 -241c4 -7 6 -10 6 -13z" />
    <glyph glyph-name="parenright" unicode=")" horiz-adv-x="419" 
d="M389 448c0 -208 -98 -460 -242 -604c-41 -40 -102 -93 -116 -93c-8 0 -12 5 -12 11c0 5 1 6 21 23c237 199 296 568 296 700c0 85 -18 169 -65 240c-8 9 -8 11 -8 14c0 5 4 11 12 11c16 0 59 -59 82 -118c29 -73 32 -140 32 -184z" />
    <glyph glyph-name="asterisk" unicode="*" 
d="M403 511l-26 -157c-5 -31 -25 -35 -35 -35c-12 0 -22 8 -22 20c0 5 3 12 4 16l53 156l-152 -97c-11 0 -28 0 -28 22c0 19 15 25 27 31l148 68l-113 65c-12 7 -16 12 -16 21c0 14 15 34 35 34c8 0 9 -1 20 -11l91 -86l25 156c3 19 14 36 35 36c13 0 22 -8 22 -20
c0 -2 0 -4 -5 -17l-52 -155l152 97c11 0 28 0 28 -22c0 -19 -15 -26 -25 -31l-149 -68l112 -65c14 -8 16 -12 16 -21c0 -15 -16 -34 -35 -34c-9 0 -10 1 -20 11z" />
    <glyph glyph-name="plus" unicode="+" horiz-adv-x="787" 
d="M473 229l-66 -266c-3 -13 -8 -27 -24 -27c-13 0 -22 11 -22 22l67 271h-252c-16 0 -35 0 -35 22c0 21 20 21 35 21h263l67 268c2 8 6 25 23 25c13 0 22 -11 22 -22l-67 -271h252c13 0 34 0 34 -21c0 -22 -20 -22 -34 -22h-263z" />
    <glyph glyph-name="comma" unicode="," horiz-adv-x="314" 
d="M198 12c-8 -6 -16 -12 -38 -12c-27 0 -45 17 -45 43c0 28 25 65 66 65c36 0 47 -30 47 -61c0 -119 -124 -241 -142 -241c-6 0 -11 6 -13 12c1 1 1 4 2 5c1 2 2 3 8 9c47 39 96 96 115 180z" />
    <glyph glyph-name="hyphen" unicode="-" horiz-adv-x="367" 
d="M308 185h-193c-16 0 -29 0 -29 13c0 5 5 26 7 33c4 14 8 14 28 14h198c16 0 27 0 27 -13c0 -5 -6 -28 -8 -35c-4 -12 -10 -12 -30 -12z" />
    <glyph glyph-name="period" unicode="." horiz-adv-x="314" 
d="M226 64c0 -30 -30 -64 -66 -64c-28 0 -45 21 -45 44c0 30 30 64 66 64c28 0 45 -21 45 -44z" />
    <glyph glyph-name="slash" unicode="/" 
d="M620 710l-555 -942c-6 -11 -10 -18 -23 -18c-9 0 -21 7 -21 22c0 4 0 6 8 18l555 942c6 10 10 18 23 18c9 0 21 -7 21 -22c0 -4 0 -6 -8 -18z" />
    <glyph glyph-name="zero" unicode="0" 
d="M566 493c0 -80 -37 -250 -92 -356c-60 -115 -145 -159 -217 -159c-127 0 -139 119 -139 172c0 91 47 262 80 331c20 39 91 185 230 185c138 0 138 -143 138 -173zM263 3c71 0 120 69 149 150c18 54 90 308 90 393c0 72 -44 95 -80 95c-29 0 -87 -14 -131 -102
c-30 -61 -106 -351 -106 -438c0 -80 48 -98 78 -98z" />
    <glyph glyph-name="one" unicode="1" 
d="M466 634l-140 -560c-4 -15 -4 -17 -4 -22c0 -13 0 -21 72 -21h9c16 0 26 0 26 -13c0 -18 -13 -18 -20 -18c-44 0 -92 3 -137 3c-44 0 -91 -3 -134 -3c-13 0 -16 7 -16 13c0 18 13 18 29 18h9c82 0 87 11 96 46l117 469c-45 -30 -89 -40 -113 -40c-14 0 -16 9 -16 13
c0 16 11 17 17 18c66 6 124 42 178 115c9 12 10 14 18 14c5 0 13 -3 13 -14c0 -3 -1 -5 -4 -18z" />
    <glyph glyph-name="two" unicode="2" 
d="M158 77c6 1 9 2 19 2c8 0 37 -1 98 -15c21 -5 65 -15 98 -15c54 0 100 45 121 110c4 13 5 16 19 16c5 0 17 0 17 -12c0 -13 -49 -185 -167 -185c-41 0 -73 21 -106 43c-17 12 -49 33 -82 33c-23 0 -42 -22 -54 -59c-4 -15 -5 -17 -19 -17c-4 0 -17 0 -17 11
c0 1 26 151 198 249c97 55 206 130 206 292c0 87 -52 111 -91 111c-122 0 -200 -178 -200 -247c0 -18 3 -33 21 -33c62 0 99 104 99 132c0 3 -1 17 -8 32c-3 7 -4 9 -4 11c0 7 7 13 13 13c13 0 24 -32 24 -56c0 -37 -44 -157 -125 -157c-28 0 -53 19 -53 65
c0 74 89 265 235 265c91 0 163 -66 163 -171c0 -132 -100 -195 -254 -280c-29 -16 -100 -55 -151 -138z" />
    <glyph glyph-name="three" unicode="3" 
d="M308 350h25c23 0 77 0 125 54c42 48 52 128 52 149c0 58 -38 88 -86 88c-99 0 -190 -90 -190 -167c0 -14 2 -37 25 -37c27 0 60 25 60 59c0 12 -5 23 -10 32c-2 2 -3 6 -3 8c0 7 7 13 13 13c12 0 25 -29 25 -52c0 -51 -48 -85 -85 -85c-40 0 -59 32 -59 66
c0 81 100 188 225 188c88 0 149 -56 149 -136c0 -76 -61 -165 -162 -199c40 -18 80 -62 80 -129c0 -120 -129 -224 -257 -224c-92 0 -139 64 -139 129c0 12 0 77 52 77c7 0 34 -4 34 -33c0 -6 -4 -46 -52 -47c4 -75 57 -101 104 -101s99 26 130 67c50 66 54 164 54 165
c0 84 -66 84 -80 84h-29c-16 0 -28 0 -28 12c0 19 10 19 27 19z" />
    <glyph glyph-name="four" unicode="4" 
d="M270 -146l37 148c-38 14 -54 20 -63 23c-33 11 -52 11 -73 11c-55 0 -68 -6 -79 -15c-11 -8 -28 -21 -33 -21c-9 0 -15 14 -15 17c0 16 30 33 41 39c8 4 30 24 42 35c66 63 131 152 175 241c33 64 62 130 81 199l28 101c6 22 23 34 41 34c16 0 29 -11 29 -28
c0 -9 -41 -192 -162 -372c-65 -97 -118 -147 -173 -200c13 1 15 1 28 1c24 0 41 0 79 -12c19 -5 18 -7 62 -22c14 59 23 94 40 160c5 21 12 49 44 49c15 0 29 -11 29 -28c0 -4 -6 -30 -10 -45c-5 -17 -5 -19 -11 -43c-3 -12 -26 -102 -26 -106c0 -3 1 -4 15 -4
c20 0 44 5 65 13c8 3 10 3 12 3c9 0 15 -12 15 -17c0 -17 -67 -30 -96 -30c-6 0 -14 0 -20 1l-28 -112c-11 -46 -17 -68 -49 -68c-16 0 -29 11 -29 28c0 4 0 6 4 20z" />
    <glyph glyph-name="five" unicode="5" 
d="M296 572l-49 -197c42 31 84 45 127 45c82 0 135 -66 135 -157c0 -158 -141 -285 -266 -285c-86 0 -135 64 -135 141c0 21 2 87 55 87c20 0 36 -11 36 -34c0 -20 -17 -52 -57 -49c1 -93 58 -117 101 -117c50 0 107 36 142 98c34 61 53 166 53 199c0 19 -4 92 -65 92
c-54 0 -105 -28 -139 -67c-8 -10 -10 -12 -18 -12s-14 4 -14 13c0 3 0 5 2 13l76 304c3 14 6 20 14 20c2 0 4 0 16 -7c39 -19 79 -25 113 -25c62 0 112 20 130 27c10 5 12 5 13 5c9 0 11 -7 11 -11c0 -17 -91 -97 -200 -97c-37 0 -64 7 -81 14z" />
    <glyph glyph-name="six" unicode="6" 
d="M235 341c32 46 79 85 138 85c122 0 146 -116 146 -158c0 -148 -128 -290 -258 -290c-129 0 -140 133 -140 183c0 40 12 196 92 323c66 103 166 182 265 182c68 0 101 -34 101 -79c0 -55 -35 -65 -50 -65c-29 0 -35 23 -35 32c0 1 1 44 49 48c-9 37 -50 39 -65 39
c-33 0 -173 -19 -243 -300zM262 6c68 0 111 61 129 93c23 42 54 173 54 213c0 64 -32 89 -75 89c-124 0 -181 -192 -181 -298c0 -62 29 -97 73 -97z" />
    <glyph glyph-name="seven" unicode="7" 
d="M272 628l-10 -22c32 28 80 60 134 60c39 0 48 -26 52 -66c5 -40 9 -50 29 -50c50 0 95 61 126 104c8 11 8 12 20 12c4 0 16 0 16 -11c0 -2 0 -4 -12 -21c-115 -169 -198 -357 -259 -591c-8 -32 -16 -65 -56 -65c-21 0 -36 13 -36 34c0 10 26 123 105 282
c38 76 50 95 140 241c-13 -6 -20 -10 -45 -10c-30 0 -41 19 -58 45c-11 19 -17 25 -34 25c-35 0 -131 -20 -206 -165c-5 -8 -6 -10 -18 -10c-6 0 -17 0 -17 11c0 1 0 4 6 16l97 203c7 15 9 16 21 16c4 0 16 0 16 -11c0 -5 -8 -21 -11 -27z" />
    <glyph glyph-name="eight" unicode="8" 
d="M405 359c64 -55 65 -56 71 -63c9 -13 30 -43 30 -90c0 -115 -119 -228 -247 -228c-91 0 -161 56 -161 138c0 49 28 150 192 223c-52 44 -77 65 -77 126c0 105 106 201 213 201c78 0 139 -48 139 -119c0 -84 -76 -150 -160 -188zM299 446l84 -69c73 36 134 101 134 173
c0 59 -41 91 -93 91c-75 0 -154 -63 -154 -134c0 -31 14 -48 29 -61zM261 6c91 0 182 78 182 162c0 46 -17 60 -78 110c-18 15 -50 41 -53 41c-14 0 -160 -84 -160 -206c0 -65 46 -107 109 -107z" />
    <glyph glyph-name="nine" unicode="9" 
d="M450 303c-16 -23 -65 -84 -138 -84c-123 0 -146 120 -146 158c0 151 132 289 262 289c136 0 136 -150 136 -181c0 -84 -29 -237 -104 -344c-65 -95 -151 -163 -242 -163c-73 0 -112 32 -112 80c0 51 32 64 50 64c29 0 35 -23 35 -32c0 -3 -3 -43 -48 -48
c13 -33 58 -36 76 -36c70 0 126 64 152 101c46 67 64 138 79 196zM487 461l9 63c1 8 2 14 2 24c0 6 0 93 -70 93c-65 0 -109 -55 -130 -89c-29 -49 -58 -184 -58 -218c0 -3 0 -38 17 -64c18 -26 44 -26 58 -26c101 0 160 134 172 217z" />
    <glyph glyph-name="colon" unicode=":" horiz-adv-x="314" 
d="M307 387c0 -31 -32 -64 -66 -64c-25 0 -45 17 -45 44c0 33 32 64 66 64c30 0 45 -23 45 -44zM226 64c0 -30 -30 -64 -66 -64c-28 0 -45 21 -45 44c0 30 30 64 66 64c28 0 45 -21 45 -44z" />
    <glyph glyph-name="semicolon" unicode=";" horiz-adv-x="314" 
d="M307 387c0 -31 -32 -64 -66 -64c-25 0 -45 17 -45 44c0 33 32 64 66 64c30 0 45 -23 45 -44zM77 -173l9 9c42 38 88 100 104 171c-7 -4 -12 -7 -30 -7c-27 0 -45 17 -45 43c0 28 25 65 66 65c29 0 42 -22 42 -53c0 -120 -119 -248 -137 -248c-6 0 -11 5 -13 11z" />
    <glyph glyph-name="exclamdown" unicode="&#xa1;" horiz-adv-x="314" 
d="M324 456c0 -32 -32 -64 -65 -64c-31 0 -46 22 -46 44c0 32 32 64 65 64c31 0 46 -22 46 -44zM65 -153l147 447c6 17 9 17 20 17c7 0 17 0 17 -12c0 -1 0 -3 -2 -13l-75 -442c-9 -54 -55 -60 -66 -60c-31 0 -46 24 -46 42c0 7 2 13 5 21z" />
    <glyph glyph-name="equal" unicode="=" horiz-adv-x="787" 
d="M763 331h-564c-13 0 -33 0 -33 21c0 22 22 22 37 22h556c15 0 37 0 37 -22c0 -21 -19 -21 -33 -21zM708 127h-555c-15 0 -38 0 -38 22c0 21 20 21 33 21h564c15 0 33 0 33 -21c0 -22 -21 -22 -37 -22z" />
    <glyph glyph-name="questiondown" unicode="&#xbf;" 
d="M429 456c0 -32 -32 -64 -65 -64c-31 0 -46 22 -46 44c0 32 32 64 65 64c31 0 46 -22 46 -44zM406 -11c-33 3 -34 26 -34 32c0 25 22 48 48 48c19 0 34 -11 34 -32c0 -45 -86 -253 -243 -253c-75 0 -124 55 -124 126c0 53 24 113 96 170l57 44c10 7 89 68 93 71
c16 14 27 37 27 59c0 17 -6 32 -26 32c-27 0 -64 -24 -79 -68c-3 -11 -4 -14 -18 -14c-7 0 -17 0 -17 12c0 23 44 95 115 95c50 0 63 -44 63 -71c0 -63 -41 -95 -83 -128c-10 -7 -34 -26 -44 -34c-15 -11 -52 -39 -66 -51c-27 -20 -80 -62 -80 -131c0 -53 37 -87 87 -87
c87 0 161 89 194 180z" />
    <glyph glyph-name="question" unicode="?" 
d="M305 365l159 124c47 37 60 87 60 115c0 53 -37 87 -87 87c-87 0 -161 -89 -194 -180c33 -3 34 -26 34 -32c0 -25 -22 -48 -48 -48c-19 0 -34 11 -34 32c0 45 86 253 243 253c75 0 124 -55 124 -126c0 -53 -24 -113 -96 -170l-57 -44c-10 -7 -89 -68 -93 -71
c-16 -14 -27 -37 -27 -59c0 -17 6 -32 26 -32c27 0 64 24 79 68c3 11 4 14 18 14c7 0 17 0 17 -12c0 -23 -44 -95 -115 -95c-50 0 -63 44 -63 71c0 22 8 69 54 105zM331 64c0 -32 -32 -64 -65 -64c-31 0 -46 22 -46 44c0 32 32 64 65 64c31 0 46 -22 46 -44z" />
    <glyph glyph-name="at" unicode="@" horiz-adv-x="787" 
d="M697 458l-63 -253c-3 -11 -4 -18 -4 -28c0 -23 7 -25 17 -25c88 0 126 241 126 292c0 147 -90 236 -208 236c-186 0 -379 -215 -379 -430c0 -122 68 -236 212 -236c71 0 168 16 267 60c16 7 18 7 34 7s26 0 26 -11c0 -7 -6 -10 -10 -12c-110 -48 -225 -69 -317 -69
c-168 0 -246 131 -246 262c0 228 208 454 414 454c139 0 241 -104 241 -263c0 -92 -43 -201 -48 -212c-19 -46 -52 -103 -117 -103c-20 0 -72 8 -78 64c-18 -18 -71 -64 -137 -64c-82 0 -144 65 -144 161c0 141 126 279 248 279c58 0 98 -36 117 -84h24c16 0 28 0 28 -12
c0 -3 -1 -6 -3 -13zM581 269l40 161c2 9 3 11 3 15c0 16 -19 97 -92 97c-86 0 -183 -139 -183 -270c0 -64 26 -120 80 -120c69 0 142 78 152 117z" />
    <glyph glyph-name="A" unicode="A" horiz-adv-x="762" 
d="M196 117l334 579c11 20 21 20 30 20c16 0 19 -5 20 -23l49 -628c2 -27 4 -34 57 -34c12 0 23 0 23 -13c0 -18 -14 -18 -18 -18c-33 0 -70 3 -105 3c-37 0 -76 -3 -112 -3c-12 0 -15 8 -15 13c0 18 13 18 26 18c56 1 63 23 63 31l-13 170h-238c-26 -47 -69 -119 -73 -127
c-12 -23 -15 -29 -15 -41c0 -21 15 -31 42 -33c3 0 14 -1 14 -13c0 -18 -14 -18 -18 -18c-29 0 -62 3 -93 3c-49 0 -77 -3 -81 -3c-7 0 -12 6 -12 13c0 16 10 17 21 18c27 2 69 8 114 86zM316 263h217l-26 330z" />
    <glyph glyph-name="B" unicode="B" horiz-adv-x="722" 
d="M178 73l135 542c4 14 4 16 4 20c0 10 0 17 -58 17c-16 0 -27 0 -27 13c0 18 11 18 28 18h316c116 0 174 -68 174 -136c0 -83 -83 -165 -199 -190c85 -11 143 -64 143 -139c0 -103 -118 -218 -263 -218h-335c-16 0 -27 0 -27 13c0 18 11 18 27 18c67 0 73 7 82 42z
M327 368h144c102 0 192 89 192 183c0 44 -20 101 -101 101h-126c-31 0 -39 0 -48 -36zM275 31h134c111 0 197 100 197 198c0 84 -53 114 -112 114h-174l-70 -280c-4 -14 -4 -19 -4 -29c10 -3 12 -3 29 -3z" />
    <glyph glyph-name="C" unicode="C" horiz-adv-x="734" 
d="M827 680l-61 -242c-4 -15 -5 -19 -19 -19c-6 0 -17 0 -17 12c0 6 4 22 4 56c0 105 -48 187 -148 187c-74 0 -165 -41 -236 -130c-85 -107 -112 -267 -112 -333c0 -146 92 -202 177 -202c69 0 209 46 267 234c3 8 10 8 17 8s17 0 17 -12c0 -7 -16 -61 -49 -108
c-69 -100 -169 -153 -263 -153c-148 0 -253 111 -253 269c0 233 217 458 428 458c51 0 114 -16 157 -87l75 87c6 0 18 0 18 -11c0 -5 -1 -10 -2 -14z" />
    <glyph glyph-name="D" unicode="D" horiz-adv-x="775" 
d="M177 73l135 542c4 14 4 16 4 20c0 10 0 17 -58 17c-16 0 -27 0 -27 13c0 18 11 18 28 18h316c142 0 218 -115 218 -247c0 -223 -193 -436 -388 -436h-310c-16 0 -27 0 -27 13c0 18 11 18 27 18c67 0 73 7 82 42zM390 616l-138 -553c-4 -14 -4 -19 -4 -29
c10 -3 12 -3 29 -3h111c92 0 173 50 226 123c70 97 97 264 97 318c0 114 -66 180 -168 180h-105c-31 0 -39 0 -48 -36z" />
    <glyph glyph-name="E" unicode="E" horiz-adv-x="696" 
d="M698 229l-87 -211c-7 -18 -9 -18 -31 -18h-487c-16 0 -27 0 -27 13c0 18 11 18 27 18c67 0 73 7 82 42l134 538c4 15 4 17 4 21c0 11 0 17 -58 17c-16 0 -26 0 -26 13c0 18 12 18 28 18h474c16 0 27 0 27 -14l-23 -188c-2 -17 -3 -23 -18 -23c-6 0 -17 0 -17 15
c0 4 2 17 3 21c3 26 3 52 3 54c0 67 -15 104 -135 104h-132c-32 0 -40 0 -48 -34l-61 -246h86c80 0 101 20 120 95c5 18 6 22 20 22c4 0 17 0 17 -13c0 -3 0 -4 -4 -18l-53 -214c-5 -19 -10 -20 -20 -20c-4 0 -16 0 -16 13c0 3 2 11 4 18c6 24 6 37 6 44c0 26 -7 42 -76 42
h-92l-69 -275c-4 -14 -4 -19 -4 -29c10 -3 12 -3 29 -3h131c156 0 195 60 253 197c11 24 11 26 13 27c4 3 7 3 12 3c4 0 17 0 17 -13c0 -1 0 -3 -6 -16z" />
    <glyph glyph-name="F" unicode="F" horiz-adv-x="670" 
d="M319 325l-63 -251c-4 -15 -4 -17 -4 -22c0 -13 0 -21 72 -21h8c16 0 27 0 27 -13c0 -18 -13 -18 -20 -18c-44 0 -91 3 -136 3c-40 0 -83 -3 -122 -3c-8 0 -15 4 -15 13c0 18 11 18 27 18c67 0 73 7 82 42l134 538c4 15 4 17 4 21c0 11 0 17 -58 17c-16 0 -26 0 -26 13
c0 18 12 18 28 18h461c16 0 27 0 27 -14l-23 -188c-2 -17 -3 -23 -18 -23c-6 0 -17 0 -17 15l1 12c5 33 5 58 5 64c0 62 -10 103 -130 103h-124c-32 0 -40 0 -48 -34l-64 -259h83c75 0 99 19 117 92c6 21 7 25 21 25c4 0 17 0 17 -13c0 -3 -2 -8 -3 -13l-55 -219
c-4 -16 -5 -20 -19 -20c-4 0 -16 0 -16 13c0 3 2 11 3 15c3 14 7 33 7 47c0 26 -5 42 -74 42h-89z" />
    <glyph glyph-name="G" unicode="G" horiz-adv-x="794" 
d="M826 681l-61 -243c-4 -15 -5 -19 -19 -19c-6 0 -17 0 -17 12c0 6 4 22 4 56c0 104 -47 187 -148 187c-52 0 -141 -22 -224 -117c-96 -110 -123 -283 -123 -345c0 -140 87 -203 181 -203c50 0 162 22 187 119c4 15 23 86 23 95c0 13 -4 15 -29 18c-18 2 -27 2 -43 2h-9
c-16 0 -27 0 -27 13c0 18 13 18 20 18c42 0 87 -3 130 -3c33 0 69 3 101 3c10 0 14 -7 14 -13c0 -9 -5 -18 -16 -18c-36 -1 -50 -1 -57 -19c-6 -13 -22 -83 -29 -110c-7 -31 -13 -54 -22 -90c-5 -17 -6 -23 -15 -23c-13 0 -33 39 -39 57c-57 -62 -144 -80 -203 -80
c-153 0 -254 115 -254 269c0 232 215 458 428 458c65 0 120 -27 156 -87l75 87c6 0 18 0 18 -11c0 -3 -1 -10 -2 -13z" />
    <glyph glyph-name="H" unicode="H" horiz-adv-x="762" 
d="M757 608l-134 -536c-2 -8 -4 -16 -4 -24c0 -11 0 -17 58 -17c16 0 26 0 26 -13c0 -18 -14 -18 -19 -18c-38 0 -79 3 -118 3s-79 -3 -117 -3c-8 0 -15 4 -15 13c0 18 11 18 27 18c67 0 73 7 82 42l66 267h-287l-67 -271c-4 -15 -4 -17 -4 -21c0 -11 0 -17 58 -17
c16 0 26 0 26 -13c0 -18 -14 -18 -19 -18c-38 0 -79 3 -118 3s-79 -3 -117 -3c-8 0 -15 4 -15 13c0 18 11 18 27 18c67 0 73 7 82 42l135 542c4 14 4 16 4 20c0 10 0 17 -58 17c-16 0 -27 0 -27 13c0 18 13 18 19 18c38 0 80 -3 119 -3s79 3 117 3c13 0 14 -10 14 -13
c0 -18 -11 -18 -29 -18c-65 0 -71 -8 -79 -41l-60 -240h287l61 244c4 14 4 16 4 20c0 10 0 17 -58 17c-16 0 -27 0 -27 13c0 18 13 18 19 18c38 0 80 -3 119 -3s79 3 117 3c13 0 14 -10 14 -13c0 -18 -11 -18 -28 -18c-66 0 -72 -8 -81 -44z" />
    <glyph glyph-name="I" unicode="I" horiz-adv-x="395" 
d="M391 610l-135 -541c-4 -14 -4 -16 -4 -20c0 -11 0 -18 62 -18c16 0 27 0 27 -13c0 -18 -13 -18 -19 -18c-40 0 -82 3 -123 3c-40 0 -83 -3 -122 -3c-13 0 -14 10 -14 13c0 18 10 18 32 18c66 0 73 9 81 42l135 540c4 15 4 21 4 22c0 17 -28 17 -63 17c-16 0 -26 0 -26 13
c0 18 14 18 19 18c40 0 82 -3 123 -3c40 0 82 3 121 3c8 0 15 -4 15 -13c0 -18 -10 -18 -29 -18c-72 0 -76 -10 -84 -42z" />
    <glyph glyph-name="J" unicode="J" horiz-adv-x="538" 
d="M546 612l-118 -473c-22 -87 -113 -161 -205 -161c-69 0 -120 44 -120 108c0 71 50 74 58 74c19 0 39 -12 39 -37c0 -3 -3 -55 -62 -55c10 -50 52 -65 83 -65c56 0 113 70 131 142l116 466c4 14 4 16 4 20c0 13 -3 16 -29 19c-20 2 -28 2 -46 2h-10c-16 0 -27 0 -27 13
c0 18 13 18 20 18c43 0 89 -3 133 -3c34 0 71 3 104 3c8 0 14 -5 14 -13c0 -18 -11 -18 -25 -18c-46 0 -52 -7 -60 -40z" />
    <glyph glyph-name="K" unicode="K" horiz-adv-x="789" 
d="M510 415l138 -343c12 -31 22 -40 59 -41c9 0 20 0 20 -13c0 -18 -13 -18 -18 -18c-28 0 -61 3 -91 3c-36 0 -73 -3 -108 -3c-14 0 -14 11 -14 13c0 18 12 18 20 18c11 0 49 1 49 31c0 3 0 7 -6 21l-113 281l-148 -120l-34 -140c-5 -18 -13 -50 -13 -56
c0 -11 0 -17 58 -17c16 0 26 0 26 -13c0 -18 -14 -18 -19 -18c-38 0 -79 3 -118 3s-79 -3 -117 -3c-8 0 -15 4 -15 13c0 18 11 18 27 18c67 0 73 7 82 42l135 542c4 14 4 16 4 20c0 10 0 17 -58 17c-16 0 -27 0 -27 13c0 18 13 18 19 18c38 0 80 -3 119 -3s79 3 117 3
c13 0 14 -10 14 -13c0 -18 -11 -18 -29 -18c-65 0 -71 -8 -79 -41l-79 -318l362 292c4 4 5 5 9 8c2 3 3 4 6 6c5 5 20 20 20 34c0 5 0 17 -24 19c-4 0 -15 1 -15 13c0 18 13 18 19 18c33 0 69 -3 104 -3c58 0 65 3 72 3c8 0 13 -6 13 -13c0 -16 -10 -17 -19 -18
c-62 -6 -132 -62 -160 -85z" />
    <glyph glyph-name="L" unicode="L" horiz-adv-x="643" 
d="M389 607l-136 -544c-4 -14 -4 -19 -4 -29c10 -3 12 -3 29 -3h88c160 0 202 116 236 207c6 16 7 20 20 20c4 0 17 0 17 -13c0 -2 0 -4 -5 -17l-76 -209c-7 -18 -8 -19 -30 -19h-435c-16 0 -27 0 -27 13c0 18 11 18 27 18c67 0 73 7 82 42l135 542c4 14 4 16 4 20
c0 10 0 17 -58 17c-16 0 -27 0 -27 13c0 18 13 18 19 18c40 0 83 -3 124 -3c45 0 90 3 134 3c6 0 16 -2 16 -13c0 -18 -11 -18 -28 -18h-9c-80 0 -87 -10 -96 -45z" />
    <glyph glyph-name="M" unicode="M" horiz-adv-x="920" 
d="M909 608l-134 -536c-2 -8 -4 -16 -4 -24c0 -11 0 -17 58 -17c16 0 26 0 26 -13c0 -18 -13 -18 -19 -18c-36 0 -76 3 -114 3c-37 0 -76 -3 -112 -3c-8 0 -15 4 -15 13c0 18 11 18 27 18c67 0 73 7 82 42l140 562h-1l-375 -616c-6 -9 -11 -19 -26 -19c-16 0 -17 7 -19 25
l-66 602h-1l-132 -528c-4 -16 -4 -22 -4 -26c0 -18 5 -40 59 -42c7 0 18 -1 18 -13c0 -18 -14 -18 -18 -18c-31 0 -66 3 -98 3s-66 -3 -96 -3c-9 0 -14 5 -14 13c0 17 12 18 16 18c37 1 84 7 100 71l128 513c4 14 4 16 4 20c0 10 0 17 -58 17c-16 0 -27 0 -27 13
c0 18 11 18 28 18h130c26 0 27 -1 30 -25l61 -563l347 569c12 19 16 19 38 19h124c16 0 26 0 26 -13c0 -18 -11 -18 -28 -18c-66 0 -72 -8 -81 -44z" />
    <glyph glyph-name="N" unicode="N" horiz-adv-x="762" 
d="M749 577l-139 -557c-4 -17 -5 -20 -20 -20s-15 2 -21 17l-222 592l-128 -510c-4 -16 -4 -22 -4 -26c0 -18 5 -40 59 -42c7 0 18 -1 18 -13c0 -18 -14 -18 -18 -18c-31 0 -66 3 -98 3s-66 -3 -96 -3c-9 0 -14 5 -14 13c0 17 12 18 16 18c37 1 84 7 100 71l132 529
c3 10 3 12 3 13c0 8 -51 8 -57 8c-21 0 -31 0 -31 13c0 18 11 18 28 18h120c22 0 23 -1 30 -19l196 -523l112 451c2 7 3 12 3 18c0 22 -11 40 -58 42c-9 0 -20 1 -20 13c0 18 13 18 18 18c31 0 66 -3 99 -3c32 0 65 3 96 3c10 0 13 -8 13 -13c0 -17 -12 -18 -19 -18
c-43 -2 -82 -13 -98 -75z" />
    <glyph glyph-name="O" unicode="O" horiz-adv-x="787" 
d="M806 441c0 -236 -212 -463 -418 -463c-137 0 -238 102 -238 261c0 234 212 466 419 466c141 0 237 -109 237 -264zM395 8c187 0 326 277 326 471c0 139 -79 198 -159 198c-72 0 -154 -47 -215 -128c-83 -112 -107 -263 -107 -336c0 -149 79 -205 155 -205z" />
    <glyph glyph-name="P" unicode="P" horiz-adv-x="696" 
d="M318 314l-61 -245c-4 -15 -4 -17 -4 -21c0 -11 0 -17 58 -17c16 0 26 0 26 -13c0 -18 -14 -18 -19 -18c-38 0 -79 3 -118 3s-79 -3 -117 -3c-8 0 -15 4 -15 13c0 18 11 18 27 18c67 0 73 7 82 42l135 542c4 14 4 16 4 20c0 10 0 17 -58 17c-16 0 -27 0 -27 13
c0 18 11 18 28 18h304c115 0 183 -67 183 -149c0 -109 -127 -220 -275 -220h-153zM390 616l-68 -274h133c91 0 136 43 147 56c49 55 56 153 56 161c0 71 -59 93 -126 93h-94c-31 0 -39 0 -48 -36z" />
    <glyph glyph-name="Q" unicode="Q" horiz-adv-x="787" 
d="M514 5c4 -89 26 -106 61 -106c51 0 95 46 112 97c2 9 5 16 13 16c6 0 13 -4 13 -12c0 -6 -43 -194 -161 -194c-71 0 -81 56 -81 98c0 22 5 64 8 88c-28 -8 -61 -14 -91 -14c-137 0 -238 102 -238 261c0 234 212 466 419 466c141 0 237 -109 237 -264
c0 -153 -98 -350 -292 -436zM333 19c-3 6 -4 17 -4 26c0 54 48 104 99 104c49 0 78 -31 84 -106c169 106 209 341 209 429c0 152 -85 205 -159 205c-76 0 -163 -52 -228 -148c-76 -112 -100 -259 -100 -321c0 -54 15 -152 99 -189zM483 27c0 57 0 97 -54 97
c-40 0 -75 -40 -75 -79s28 -39 41 -39c38 0 74 14 88 21z" />
    <glyph glyph-name="R" unicode="R" horiz-adv-x="748" 
d="M525 339c50 -22 84 -59 84 -117c0 -20 -5 -65 -8 -87c-2 -15 -6 -57 -6 -75c0 -43 11 -57 34 -57c29 0 60 28 79 89c3 12 5 15 18 15c3 0 16 0 16 -12c0 -11 -31 -117 -117 -117c-19 0 -123 4 -123 107c0 27 10 64 25 120c4 15 5 23 5 36c0 32 -15 88 -99 88h-114
l-65 -260c-4 -15 -4 -17 -4 -21c0 -11 0 -17 58 -17c16 0 26 0 26 -13c0 -18 -13 -18 -19 -18c-37 0 -78 3 -117 3c-38 0 -78 -3 -115 -3c-8 0 -15 4 -15 13c0 18 11 18 27 18c67 0 73 7 82 42l135 542c4 14 4 16 4 20c0 10 0 17 -58 17c-16 0 -27 0 -27 13
c0 18 11 18 28 18h268c124 0 207 -66 207 -149c0 -88 -97 -169 -209 -195zM432 354c45 0 101 9 149 47c44 37 63 113 63 154c0 17 0 50 -38 75c-28 17 -67 22 -99 22h-69c-31 0 -39 0 -48 -36l-65 -262h107z" />
    <glyph glyph-name="S" unicode="S" horiz-adv-x="577" 
d="M642 681l-51 -205c-5 -19 -9 -20 -20 -20c-7 0 -17 0 -17 13c0 2 0 3 2 11c3 23 4 26 4 54c0 72 -26 143 -125 143c-88 0 -169 -87 -169 -171c0 -43 22 -79 61 -92l64 -18c81 -22 99 -27 125 -58c34 -41 34 -89 34 -104c0 -128 -116 -256 -241 -256c-31 0 -113 5 -159 70
c-4 -6 -22 -30 -46 -58c-7 -9 -9 -12 -16 -12c-8 0 -13 5 -13 12c0 2 2 10 3 13l51 204c4 18 7 20 20 20c7 0 17 0 17 -12c0 -2 -1 -3 -1 -5c-3 -16 -8 -38 -8 -61c0 -106 78 -140 154 -140c89 0 174 95 174 190c0 72 -44 93 -65 99l-121 33c-13 4 -98 34 -98 139
c0 116 112 235 236 235c46 0 100 -13 133 -68l46 57c8 10 9 11 16 11c12 0 12 -10 12 -11c0 -3 -1 -10 -2 -13z" />
    <glyph glyph-name="T" unicode="T" horiz-adv-x="734" 
d="M560 611l-134 -538c-4 -14 -4 -16 -4 -20c0 -16 8 -17 31 -20c15 -1 35 -2 50 -2h15c16 0 26 0 26 -13c0 -18 -13 -18 -21 -18c-50 0 -104 3 -155 3s-104 -3 -154 -3c-3 0 -17 0 -17 13c0 18 13 18 29 18h14c90 0 97 11 106 46l134 538c4 15 4 17 4 28c-16 3 -39 3 -58 3
c-134 0 -159 -20 -209 -163c-9 -24 -9 -26 -12 -28c-3 -3 -8 -3 -12 -3s-16 0 -16 13c0 1 4 13 4 14l60 180c6 18 9 18 30 18h524c17 0 27 0 27 -14c0 -1 -2 -10 -2 -12l-28 -178c-3 -19 -7 -21 -19 -21c-3 0 -17 0 -17 13c0 4 3 20 4 25c1 8 8 54 8 80c0 68 -35 76 -131 76
c-18 0 -47 0 -54 -2c-9 -1 -16 -4 -23 -33z" />
    <glyph glyph-name="U" unicode="U" horiz-adv-x="762" 
d="M749 577l-88 -356c-29 -118 -144 -243 -272 -243c-102 0 -183 74 -183 189c0 21 4 46 9 67l95 381c4 14 4 16 4 20c0 10 0 17 -58 17c-16 0 -27 0 -27 13c0 18 13 18 19 18c38 0 80 -3 119 -3s79 3 117 3c13 0 14 -10 14 -13c0 -18 -11 -18 -29 -18c-65 0 -71 -9 -79 -41
l-99 -397c-5 -18 -10 -49 -10 -77c0 -95 58 -128 111 -128c100 0 206 98 236 220l90 363c2 7 3 12 3 18c0 22 -11 40 -58 42c-9 0 -20 1 -20 13c0 18 13 18 18 18c31 0 65 -3 97 -3c31 0 65 3 95 3c10 0 13 -8 13 -13c0 -17 -12 -18 -19 -18c-41 -2 -82 -11 -98 -75z" />
    <glyph glyph-name="V" unicode="V" horiz-adv-x="762" 
d="M753 568l-348 -571c-7 -11 -12 -19 -29 -19c-18 0 -19 6 -21 25l-68 618c-2 23 -3 31 -53 31c-12 0 -23 0 -23 13c0 18 13 18 18 18c32 0 68 -3 101 -3c37 0 76 3 112 3c12 0 15 -8 15 -13c0 -18 -13 -18 -26 -18c-61 -1 -63 -22 -61 -44l57 -516l297 487
c7 11 16 26 16 42c0 28 -32 30 -41 31c-3 0 -14 1 -14 13c0 18 14 18 18 18c29 0 62 -3 92 -3c50 0 73 3 77 3c7 0 13 -5 13 -13c0 -16 -9 -17 -20 -18c-39 -4 -72 -19 -112 -84z" />
    <glyph glyph-name="W" unicode="W" horiz-adv-x="1025" 
d="M1025 565l-313 -568c-10 -19 -20 -19 -29 -19c-18 0 -18 7 -19 27l-26 500l-280 -508c-6 -11 -11 -19 -28 -19c-18 0 -18 6 -19 25l-32 615c-1 27 -2 34 -46 34c-12 0 -23 0 -23 13c0 18 13 18 18 18c31 0 66 -3 98 -3c36 0 74 3 109 3c8 0 15 -4 15 -13
c0 -18 -11 -18 -25 -18c-67 -1 -66 -28 -65 -48l26 -493l243 441c6 11 6 14 6 20c0 8 -3 57 -4 63c-3 11 -6 17 -46 17c-10 0 -22 0 -22 13c0 18 15 18 19 18c30 0 65 -3 97 -3c36 0 75 3 110 3c13 0 14 -10 14 -13c0 -18 -12 -18 -23 -18c-69 -1 -68 -29 -67 -46l26 -495
l257 467c5 9 14 25 14 37c0 34 -42 36 -52 37c-4 0 -15 1 -15 13c0 18 13 18 19 18c31 0 65 -3 97 -3c52 0 71 3 76 3c7 0 13 -5 13 -13c0 -9 -4 -17 -14 -18c-44 -4 -70 -17 -109 -87z" />
    <glyph glyph-name="X" unicode="X" horiz-adv-x="762" 
d="M502 380l127 -320c7 -18 11 -29 63 -29c14 0 25 0 25 -13c0 -18 -13 -18 -18 -18c-33 0 -70 3 -104 3c-37 0 -76 -3 -112 -3c-8 0 -15 4 -15 13c0 17 10 17 19 18c29 2 52 19 52 30c0 4 -2 10 -3 12l-95 239l-190 -211c-5 -5 -23 -25 -23 -42c0 -25 27 -28 33 -28
c2 0 13 -1 13 -13c0 -18 -13 -18 -19 -18c-32 0 -68 3 -101 3c-29 0 -60 -3 -87 -3c-8 0 -14 5 -14 13c0 16 9 17 21 18c27 2 79 6 150 85l204 227l-111 280c-7 18 -11 29 -63 29c-14 0 -25 0 -25 13c0 18 13 18 18 18c33 0 70 -3 104 -3c37 0 76 3 112 3c8 0 15 -4 15 -13
c0 -17 -10 -17 -19 -18c-32 -3 -53 -21 -53 -30c0 -1 3 -11 4 -12l79 -199l153 170c2 2 23 25 23 43c0 25 -25 27 -32 28c-3 0 -14 1 -14 13c0 18 13 18 19 18c32 0 67 -3 101 -3c29 0 61 3 88 3c11 0 13 -9 13 -13c0 -16 -9 -17 -22 -18c-29 -2 -82 -11 -137 -75
c-3 -2 -9 -7 -12 -10z" />
    <glyph glyph-name="Y" unicode="Y" horiz-adv-x="762" 
d="M743 575l-255 -303l-43 -173c-4 -16 -11 -43 -11 -50c0 -12 0 -18 58 -18c16 0 26 0 26 -13c0 -18 -13 -18 -19 -18c-37 0 -78 3 -117 3c-38 0 -78 -3 -115 -3c-8 0 -15 4 -15 13c0 18 11 18 26 18c73 1 74 4 87 59c5 19 46 178 46 183c0 1 -4 12 -5 14l-115 336
c-7 21 -14 29 -63 29c-12 0 -23 0 -23 13c0 18 14 18 18 18c33 0 70 -3 104 -3c38 0 77 3 114 3c13 0 14 -10 14 -13c0 -18 -12 -18 -23 -18c-13 0 -53 -1 -53 -23c0 -2 0 -4 5 -17l102 -295l222 264c4 4 27 32 27 50c0 14 -12 20 -28 21c-7 0 -17 1 -17 13
c0 18 13 18 18 18c1 0 47 -3 92 -3c51 0 74 3 79 3c8 0 12 -7 12 -13c0 -16 -10 -17 -20 -18c-19 -2 -68 -6 -128 -77z" />
    <glyph glyph-name="Z" unicode="Z" horiz-adv-x="629" 
d="M707 649l-528 -615h153c166 0 207 80 247 202c8 24 9 25 12 28s8 3 12 3s16 0 16 -13c0 -1 0 -3 -3 -13l-70 -222c-6 -19 -7 -19 -30 -19h-411c-17 0 -24 0 -24 11c0 1 0 12 12 26l530 615h-147c-152 0 -196 -74 -229 -173c-6 -18 -7 -21 -20 -21c-4 0 -17 0 -17 13
c0 5 0 7 4 18l53 174c6 19 7 20 30 20h398c16 0 24 0 24 -10c0 -11 -5 -16 -12 -24z" />
    <glyph glyph-name="bracketleft" unicode="[" horiz-adv-x="314" 
d="M355 707l-228 -914h59c16 0 27 0 27 -13c0 -30 -14 -30 -31 -30h-79c-17 0 -27 0 -27 14c0 3 1 5 4 18l237 948c5 20 6 20 29 20h79c17 0 27 0 27 -14c0 -29 -14 -29 -31 -29h-66z" />
    <glyph glyph-name="quotedblleft" unicode="&#x201c;" horiz-adv-x="527" 
d="M309 485c8 7 17 15 42 15c27 0 45 -17 45 -43c0 -28 -25 -65 -66 -65c-49 0 -49 52 -49 64c0 121 126 238 144 238c6 0 11 -6 13 -12c-1 -1 -1 -4 -2 -5c-1 -2 -2 -3 -7 -8c-59 -48 -104 -108 -120 -184zM496 485c8 7 17 15 42 15c27 0 45 -17 45 -43
c0 -28 -25 -65 -66 -65c-49 0 -49 52 -49 64c0 121 126 238 144 238c6 0 11 -6 13 -12c-1 -1 -1 -4 -2 -5c-1 -2 -2 -3 -7 -8c-59 -48 -104 -108 -120 -184z" />
    <glyph glyph-name="bracketright" unicode="]" horiz-adv-x="314" 
d="M359 718l-237 -948c-5 -20 -6 -20 -29 -20h-79c-17 0 -27 0 -27 14c0 29 14 29 31 29h66l228 914h-59c-16 0 -27 0 -27 13c0 30 14 30 31 30h79c17 0 27 0 27 -14c0 -3 -1 -5 -4 -18z" />
    <glyph glyph-name="circumflex" unicode="&#x2c6;" 
d="M448 682l78 -114c7 -10 7 -14 7 -15c0 -10 -14 -19 -20 -19s-7 1 -15 11l-75 92l-124 -95c-9 -8 -11 -8 -15 -8c-10 0 -17 13 -17 18c0 4 1 8 11 16l141 118c9 7 9 8 13 8c2 0 8 0 16 -12z" />
    <glyph glyph-name="dotaccent" unicode="&#x2d9;" horiz-adv-x="314" 
d="M366 626c0 -36 -34 -64 -65 -64c-23 0 -45 16 -45 44c0 36 34 64 65 64c23 0 45 -16 45 -44z" />
    <glyph glyph-name="quoteleft" unicode="&#x2018;" horiz-adv-x="314" 
d="M237 485c8 7 17 15 42 15c27 0 45 -17 45 -43c0 -28 -25 -65 -66 -65c-49 0 -49 52 -49 64c0 121 126 238 144 238c6 0 11 -6 13 -12c-1 -1 -1 -4 -2 -5c-1 -2 -2 -3 -7 -8c-59 -48 -104 -108 -120 -184z" />
    <glyph glyph-name="a" unicode="a" 
d="M495 374l-67 -268c-5 -20 -8 -42 -8 -51c0 -25 7 -41 26 -41c33 0 51 52 68 118c4 19 5 23 20 23c4 0 17 0 17 -12c0 -3 -13 -60 -31 -97c-8 -17 -29 -57 -75 -57c-41 0 -76 25 -87 69c-19 -21 -63 -69 -123 -69c-66 0 -125 55 -125 157c0 151 121 296 233 296
c50 0 76 -36 86 -56c6 28 28 36 41 36c16 0 29 -11 29 -28c0 -4 0 -6 -4 -20zM364 125l46 185c3 10 3 11 3 16c0 7 -9 91 -70 91c-44 0 -92 -52 -118 -115c-15 -38 -45 -148 -45 -199c0 -15 3 -89 58 -89c54 0 117 77 126 111z" />
    <glyph glyph-name="b" unicode="b" horiz-adv-x="472" 
d="M305 662l-67 -270c8 7 53 50 106 50c70 0 125 -60 125 -157c0 -147 -119 -296 -233 -296c-77 0 -121 71 -121 155c0 16 3 46 9 70l100 399c2 7 4 15 4 22c0 9 0 17 -47 17c-17 0 -27 0 -27 13c0 17 10 18 25 19l104 9c17 2 26 0 26 -13c0 -3 -1 -4 -4 -18zM236 14
c34 0 83 33 118 116c13 31 45 147 45 198c0 6 0 89 -57 89c-31 0 -75 -23 -120 -94c-2 -3 -12 -39 -17 -59c-19 -80 -29 -117 -29 -155s13 -95 60 -95z" />
    <glyph glyph-name="c" unicode="c" horiz-adv-x="472" 
d="M482 101c-38 -62 -126 -112 -218 -112c-100 0 -153 78 -153 166c0 145 130 287 258 287c68 0 111 -39 111 -86c0 -45 -31 -60 -50 -60c-7 0 -34 4 -34 33c0 4 2 42 46 47c-17 39 -60 41 -72 41c-50 0 -101 -42 -130 -93c-36 -64 -56 -164 -56 -206c0 -66 31 -104 81 -104
c46 0 127 22 184 95c7 9 9 11 14 11c6 0 15 -6 19 -19z" />
    <glyph glyph-name="d" unicode="d" 
d="M567 662l-139 -556c-5 -20 -8 -42 -8 -51c0 -25 7 -41 26 -41c33 0 51 52 68 118c4 19 5 23 20 23c4 0 17 0 17 -12c0 -3 -13 -60 -31 -97c-8 -17 -29 -57 -75 -57c-41 0 -76 25 -87 69c-19 -21 -63 -69 -123 -69c-66 0 -125 55 -125 157c0 151 121 296 233 296
c50 0 76 -36 86 -56l57 227c4 14 4 16 4 22c0 9 0 17 -47 17c-17 0 -27 0 -27 13c0 17 10 18 25 19l104 9c17 2 26 0 26 -13c0 -3 -1 -5 -4 -18zM364 125l46 185c3 10 3 11 3 16c0 7 -9 91 -70 91c-44 0 -92 -52 -118 -115c-15 -38 -45 -148 -45 -199c0 -15 3 -89 58 -89
c54 0 117 77 126 111z" />
    <glyph glyph-name="e" unicode="e" horiz-adv-x="472" 
d="M232 229h-29c-16 -64 -16 -96 -16 -104c0 -35 10 -111 78 -111c46 0 127 22 184 95c7 9 9 11 14 11c6 0 15 -6 19 -19c-38 -62 -126 -112 -218 -112c-85 0 -148 66 -148 178c0 181 150 275 252 275c68 0 106 -41 106 -86c0 -21 -9 -77 -79 -105c-36 -14 -88 -22 -163 -22
zM209 254c65 0 224 0 224 103c0 30 -21 60 -65 60c-14 0 -113 -3 -159 -163z" />
    <glyph glyph-name="f" unicode="f" horiz-adv-x="314" 
d="M283 400l-63 -327c-25 -128 -69 -278 -163 -278c-40 0 -82 22 -82 66c0 37 27 54 49 54c18 0 34 -12 34 -32c0 -6 -3 -37 -39 -47c14 -16 36 -16 39 -16c35 0 49 54 56 81c18 69 18 71 30 135l70 364h-63c-16 0 -27 0 -27 13c0 18 11 18 28 18h68l22 115
c0 1 14 72 40 107c7 10 41 52 92 52c39 0 85 -21 85 -66c0 -37 -27 -54 -49 -54c-18 0 -34 12 -34 32c0 6 3 37 39 47c-16 16 -39 16 -41 16c-35 0 -45 -46 -55 -91c-3 -15 -11 -52 -30 -158h79c16 0 27 0 27 -13c0 -18 -11 -18 -28 -18h-84z" />
    <glyph glyph-name="g" unicode="g" horiz-adv-x="472" 
d="M494 374l-110 -440c-17 -68 -91 -139 -205 -139c-81 0 -123 16 -123 58c0 38 30 52 48 52c19 0 34 -11 34 -32c0 -29 -25 -43 -28 -44c13 -4 39 -9 70 -9c35 0 66 11 94 43c32 34 37 54 49 103l21 84c-30 -28 -67 -50 -107 -50c-60 0 -125 48 -125 155
c0 149 122 287 230 287c48 0 74 -31 86 -54c5 19 21 34 41 34c16 0 29 -11 29 -28c0 -4 0 -6 -4 -20zM365 133l45 181c2 8 3 11 3 14c0 4 -8 89 -71 89c-37 0 -84 -39 -114 -107c-17 -39 -46 -150 -46 -197c0 -15 3 -88 58 -88c54 0 116 74 125 108z" />
    <glyph glyph-name="h" unicode="h" 
d="M305 662l-70 -282c35 37 79 62 134 62c70 0 110 -39 110 -106c0 -57 -41 -168 -59 -216c-8 -22 -20 -54 -20 -78c0 -27 13 -28 21 -28c54 0 82 81 92 117c6 21 7 24 21 24c4 0 17 0 17 -12c0 -7 -37 -154 -132 -154c-41 0 -79 28 -79 82c0 21 2 27 14 60
c17 45 60 163 60 221c0 32 -9 65 -47 65c-54 0 -87 -33 -102 -48c-30 -30 -50 -68 -61 -109c-8 -35 -21 -87 -32 -130c-10 -41 -10 -43 -22 -86c-7 -30 -13 -55 -44 -55c-19 0 -30 13 -30 28c0 4 0 6 4 20l144 576c4 15 4 21 4 22c0 9 0 17 -47 17c-17 0 -27 0 -27 13
c0 17 10 18 25 19l104 9c17 2 26 0 26 -13c0 -3 -1 -4 -4 -18z" />
    <glyph glyph-name="i" unicode="i" horiz-adv-x="314" 
d="M329 623c0 -24 -22 -47 -47 -47c-11 0 -34 6 -34 34c0 25 24 46 48 46c21 0 33 -17 33 -33zM341 143c0 -7 -37 -154 -132 -154c-41 0 -79 28 -79 82c0 20 9 44 17 65c3 9 19 51 25 69l35 93c17 47 24 67 24 91c0 26 -11 28 -21 28c-59 0 -86 -98 -93 -124
c-4 -12 -5 -17 -19 -17c-5 0 -17 0 -17 12c0 9 37 154 132 154c45 0 79 -33 79 -82c0 -19 -11 -49 -20 -72l-34 -94c-17 -42 -17 -44 -31 -81c-11 -31 -17 -54 -17 -71c0 -27 13 -28 21 -28c54 0 82 81 92 117c6 21 7 24 21 24c4 0 17 0 17 -12z" />
    <glyph glyph-name="j" unicode="j" horiz-adv-x="314" 
d="M364 622c0 -25 -24 -46 -48 -46c-14 0 -33 9 -33 33c0 28 26 47 47 47c11 0 34 -6 34 -34zM162 -51l94 377c1 4 7 30 7 51c0 35 -14 40 -27 40c-40 0 -84 -38 -118 -124c-6 -14 -7 -17 -20 -17c-5 0 -17 0 -17 12c0 9 56 154 157 154c48 0 89 -33 89 -91
c0 -11 0 -17 -4 -33l-92 -370c-22 -88 -105 -153 -183 -153c-40 0 -83 17 -83 59c0 34 28 51 48 51c19 0 34 -11 34 -32c0 -24 -17 -39 -31 -45c13 -8 26 -8 31 -8c63 0 102 78 115 129z" />
    <glyph glyph-name="k" unicode="k" horiz-adv-x="472" 
d="M305 662l-99 -398c24 11 42 25 91 78c47 52 90 100 150 100c40 0 65 -27 65 -62c0 -42 -30 -56 -49 -56s-34 12 -34 32c0 19 13 43 43 48c-6 10 -16 13 -27 13c-48 0 -94 -51 -100 -58c-64 -70 -87 -92 -112 -109c52 -8 135 -30 135 -105c0 -11 0 -15 -4 -31
c-9 -35 -9 -37 -9 -59c0 -37 16 -41 29 -41c43 0 63 62 77 118c4 19 5 23 20 23c4 0 17 0 17 -12c0 -5 -15 -64 -38 -102c-19 -30 -43 -52 -79 -52c-46 0 -88 34 -88 98c0 9 0 17 4 34c3 14 3 18 3 23c0 51 -49 76 -104 83c-45 -183 -52 -210 -56 -218
c-6 -10 -18 -20 -34 -20c-19 0 -30 13 -30 28c0 4 0 6 4 20l144 576c4 15 4 21 4 22c0 9 0 17 -47 17c-17 0 -27 0 -27 13c0 17 10 18 25 19l104 9c17 2 26 0 26 -13c0 -3 -1 -5 -4 -18z" />
    <glyph glyph-name="l" unicode="l" horiz-adv-x="262" 
d="M305 662l-139 -556c-5 -20 -8 -42 -8 -51c0 -25 7 -41 26 -41c25 0 44 26 67 118c4 19 5 23 20 23c4 0 17 0 17 -12c0 -3 -13 -62 -31 -98c-9 -19 -29 -56 -74 -56c-55 0 -89 43 -89 91c0 15 5 33 5 34l125 499c4 15 4 21 4 22c0 9 0 17 -47 17c-17 0 -27 0 -27 13
c0 17 10 18 25 19l104 9c17 2 26 0 26 -13c0 -3 -1 -5 -4 -18z" />
    <glyph glyph-name="m" unicode="m" horiz-adv-x="839" 
d="M395 38l63 252c3 13 9 43 9 61c0 46 -18 66 -48 66s-64 -12 -92 -38c-39 -37 -64 -92 -66 -99c-6 -27 -24 -97 -32 -130c-3 -14 -17 -67 -22 -86c-13 -55 -18 -75 -50 -75c-15 0 -29 10 -29 28c0 5 0 7 4 21l72 288c1 4 7 30 7 51c0 31 -10 40 -26 40
c-28 0 -47 -37 -67 -117c-5 -20 -5 -24 -20 -24c-6 0 -17 0 -17 13c0 4 14 60 30 95c18 38 43 58 76 58c41 0 79 -25 88 -77c42 53 92 77 147 77c58 0 101 -28 109 -86c35 48 84 86 153 86c70 0 110 -39 110 -106c0 -57 -41 -168 -59 -216c-8 -22 -20 -54 -20 -78
c0 -27 13 -28 21 -28c54 0 82 81 92 117c6 21 7 24 21 24c4 0 17 0 17 -12c0 -7 -37 -154 -132 -154c-41 0 -79 28 -79 82c0 21 2 27 14 60c17 45 60 163 60 221c0 32 -9 65 -47 65c-54 0 -87 -33 -102 -48c-24 -24 -52 -76 -56 -89c-6 -27 -24 -97 -32 -130
c-3 -14 -17 -67 -22 -86c-13 -55 -18 -75 -50 -75c-15 0 -29 10 -29 28c0 5 0 7 4 21z" />
    <glyph glyph-name="n" unicode="n" horiz-adv-x="577" 
d="M132 38l72 288c1 4 7 30 7 51c0 31 -10 40 -26 40c-28 0 -47 -37 -67 -117c-5 -20 -5 -24 -20 -24c-6 0 -17 0 -17 13c0 4 14 60 30 95c18 38 43 58 76 58c42 0 79 -26 88 -76c26 32 74 76 146 76c70 0 110 -39 110 -106c0 -57 -41 -168 -59 -216c-8 -22 -20 -54 -20 -78
c0 -27 13 -28 21 -28c54 0 82 81 92 117c6 21 7 24 21 24c4 0 17 0 17 -12c0 -7 -37 -154 -132 -154c-41 0 -79 28 -79 82c0 21 2 27 14 60c17 45 60 163 60 221c0 32 -9 65 -47 65c-54 0 -87 -33 -102 -48c-24 -24 -52 -76 -56 -89c-6 -27 -24 -97 -32 -130
c-3 -14 -17 -67 -22 -86c-13 -55 -18 -75 -50 -75c-15 0 -29 10 -29 28c0 5 0 7 4 21z" />
    <glyph glyph-name="o" unicode="o" 
d="M521 275c0 -141 -128 -286 -258 -286c-94 0 -152 73 -152 166c0 146 131 287 258 287c92 0 152 -72 152 -167zM263 14c42 0 89 32 121 81c45 69 64 183 64 218c0 68 -35 104 -79 104c-42 0 -93 -32 -126 -89c-39 -65 -59 -170 -59 -209c0 -81 44 -105 79 -105z" />
    <glyph glyph-name="p" unicode="p" 
d="M91 -127l113 453c1 4 7 30 7 51c0 31 -10 40 -26 40c-28 0 -47 -37 -67 -117c-5 -20 -5 -24 -20 -24c-6 0 -17 0 -17 13c0 4 14 60 30 95c18 38 43 58 76 58c28 0 72 -13 86 -68c32 31 70 68 123 68c72 0 126 -61 126 -158c0 -146 -119 -295 -233 -295
c-35 0 -65 17 -86 55c-5 -20 -47 -180 -47 -191c0 -9 0 -16 47 -16c16 0 27 0 27 -13c0 -18 -13 -18 -18 -18c-31 0 -65 3 -98 3c-28 0 -59 -3 -85 -3c-11 0 -13 8 -13 13c0 18 12 18 21 18c39 0 46 4 54 36zM268 305l-47 -186c-1 -3 -2 -11 -2 -13s3 -36 18 -60
c13 -21 30 -32 52 -32c42 0 87 48 112 102c20 44 51 160 51 212c0 13 -3 89 -58 89c-15 0 -43 -7 -75 -38c-22 -21 -43 -44 -51 -74z" />
    <glyph glyph-name="q" unicode="q" horiz-adv-x="472" 
d="M503 410l-134 -537c-4 -14 -4 -16 -4 -20c0 -9 0 -16 47 -16c16 0 27 0 27 -13c0 -18 -13 -18 -18 -18c-33 0 -69 3 -103 3c-33 0 -68 -3 -100 -3c-14 0 -14 11 -14 13c0 18 12 18 24 18c63 1 64 3 78 58c4 18 35 142 35 144c-6 -6 -52 -50 -106 -50
c-65 0 -125 54 -125 158c0 148 121 295 232 295c48 0 76 -32 90 -63c19 33 54 63 63 63c2 0 12 -2 12 -14c0 -3 -1 -5 -4 -18zM363 125l46 185c0 2 3 13 3 14c0 3 -7 93 -70 93c-42 0 -87 -50 -110 -100c-24 -54 -52 -169 -52 -213c0 -30 8 -90 57 -90c54 0 117 76 126 111z
" />
    <glyph glyph-name="r" unicode="r" horiz-adv-x="432" 
d="M263 287l-65 -261c-8 -31 -27 -37 -41 -37c-15 0 -29 10 -29 28c0 5 0 7 4 21l72 288c1 4 7 30 7 51c0 31 -10 40 -26 40c-28 0 -47 -37 -67 -117c-5 -20 -5 -24 -20 -24c-6 0 -17 0 -17 13c0 4 14 60 30 95c18 38 43 58 76 58c41 0 76 -25 87 -70c24 34 64 70 124 70
c54 0 101 -23 101 -65c0 -31 -23 -53 -49 -53c-19 0 -34 12 -34 32c0 12 5 36 35 46c-21 15 -49 15 -55 15c-87 0 -131 -123 -133 -130z" />
    <glyph glyph-name="s" unicode="s" horiz-adv-x="419" 
d="M392 370c-10 35 -46 47 -76 47c-87 0 -103 -71 -103 -89c0 -43 36 -50 66 -57c45 -9 68 -14 94 -40c20 -21 30 -47 30 -75c0 -45 -39 -167 -192 -167c-82 0 -135 41 -135 97c0 59 44 62 50 62c11 0 34 -6 34 -33c0 -1 0 -42 -47 -47c16 -47 72 -54 98 -54
c109 0 133 80 133 109c0 52 -45 62 -92 72c-30 7 -97 21 -97 99c0 55 44 148 161 148c72 0 112 -41 112 -86c0 -37 -21 -54 -43 -54c-24 0 -30 19 -30 28c0 2 0 33 37 40z" />
    <glyph glyph-name="t" unicode="t" horiz-adv-x="341" 
d="M265 400l-73 -294c-5 -20 -8 -42 -8 -51c0 -39 17 -41 28 -41c48 0 90 54 118 124c6 14 7 17 20 17c3 0 16 0 16 -11c0 -10 -55 -155 -156 -155c-59 0 -90 46 -90 91c0 15 5 33 5 34l71 286h-79c-16 0 -26 0 -26 13c0 18 11 18 28 18h85l39 156c4 17 15 39 42 39
c16 0 29 -11 29 -28c0 -4 0 -6 -4 -20l-37 -147h80c16 0 26 0 26 -13c0 -18 -11 -18 -28 -18h-86z" />
    <glyph glyph-name="u" unicode="u" horiz-adv-x="550" 
d="M523 382l-69 -276c-5 -20 -8 -42 -8 -51c0 -25 7 -41 26 -41c33 0 51 52 68 118c4 19 5 23 20 23c4 0 17 0 17 -12c0 -3 -13 -60 -31 -97c-8 -17 -29 -57 -75 -57c-33 0 -69 16 -84 60c-34 -41 -71 -60 -113 -60c-46 0 -117 20 -117 118c0 44 10 85 56 208
c7 19 18 49 18 74c0 26 -11 28 -21 28c-59 0 -86 -98 -93 -124c-4 -12 -5 -17 -19 -17c-5 0 -17 0 -17 12c0 9 37 154 132 154c45 0 79 -33 79 -82c0 -20 -4 -31 -13 -54c-34 -93 -57 -162 -57 -215c0 -25 4 -77 55 -77c60 0 101 63 108 90l71 287c2 9 10 40 42 40
c15 0 29 -10 29 -28c0 -5 0 -7 -4 -21z" />
    <glyph glyph-name="v" unicode="v" horiz-adv-x="472" 
d="M503 373c0 -43 -51 -384 -217 -384c-21 0 -63 4 -94 32c-34 30 -34 76 -34 91c0 31 0 55 55 203c7 19 18 49 18 74c0 26 -11 28 -21 28c-59 0 -86 -98 -93 -124c-4 -12 -5 -17 -19 -17c-5 0 -17 0 -17 12c0 9 37 154 132 154c45 0 79 -33 79 -82c0 -20 -4 -31 -13 -53
c-35 -96 -56 -162 -56 -210c0 -26 5 -83 66 -83c115 0 163 246 163 276c0 47 -19 69 -30 82c-8 9 -10 14 -10 24c0 25 27 46 48 46c16 0 43 -13 43 -69z" />
    <glyph glyph-name="w" unicode="w" horiz-adv-x="682" 
d="M389 175l55 219c7 29 25 37 41 37c15 0 29 -10 29 -28c0 -6 -10 -44 -15 -66l-39 -156c-7 -27 -14 -55 -14 -84c0 -22 3 -83 66 -83c59 0 88 60 102 92c15 34 48 145 48 184c0 47 -19 69 -30 82c-8 9 -10 14 -10 24c0 25 27 46 48 46c16 0 43 -13 43 -69
s-37 -198 -68 -270c-19 -46 -59 -114 -136 -114c-31 0 -90 8 -117 63c-26 -43 -59 -63 -99 -63c-48 0 -135 18 -135 125c0 40 10 80 55 201c7 19 18 49 18 74c0 26 -11 28 -21 28c-59 0 -86 -98 -93 -124c-4 -12 -5 -17 -19 -17c-5 0 -17 0 -17 12c0 9 37 154 132 154
c45 0 79 -33 79 -82c0 -20 -4 -30 -14 -56c-39 -107 -54 -158 -54 -203c0 -17 0 -87 72 -87c22 0 41 12 58 36c19 27 27 47 27 67c0 25 7 53 8 58z" />
    <glyph glyph-name="x" unicode="x" horiz-adv-x="473" 
d="M350 316l-35 -136c-16 -68 -20 -82 -20 -103c0 -35 15 -63 49 -63c37 0 92 34 120 124c4 13 5 17 19 17c4 0 17 0 17 -12c0 -21 -54 -154 -159 -154c-46 0 -83 26 -99 65c-16 -27 -49 -65 -98 -65c-42 0 -90 20 -90 65c0 33 25 53 49 53c18 0 34 -12 34 -32
c0 -17 -11 -39 -36 -47c0 0 17 -14 44 -14c39 0 69 37 86 106l35 136c13 55 19 78 19 99c0 33 -15 62 -48 62c-47 0 -98 -49 -120 -123c-4 -14 -5 -18 -19 -18c-5 0 -17 0 -17 12c0 23 55 154 158 154c37 0 79 -18 99 -66c14 25 47 66 98 66c48 0 91 -23 91 -65
c0 -31 -23 -53 -49 -53c-19 0 -34 12 -34 32c0 19 12 39 37 47c-7 6 -25 14 -46 14c-34 0 -68 -33 -85 -101z" />
    <glyph glyph-name="y" unicode="y" horiz-adv-x="498" 
d="M522 382l-96 -386c-23 -93 -115 -201 -225 -201c-56 0 -98 34 -98 87c0 50 33 61 50 61c18 0 34 -12 34 -32c0 -3 -1 -43 -48 -48c8 -29 35 -43 62 -43c56 0 129 55 162 204c-36 -32 -71 -35 -90 -35c-33 0 -116 12 -116 118c0 44 10 85 56 208c7 19 18 49 18 74
c0 26 -11 28 -21 28c-59 0 -86 -98 -93 -124c-4 -12 -5 -17 -19 -17c-5 0 -17 0 -17 12c0 9 37 154 132 154c45 0 79 -33 79 -82c0 -20 -4 -31 -13 -54c-34 -93 -57 -162 -57 -215c0 -27 5 -77 55 -77c51 0 96 49 106 90l73 290c7 28 24 37 41 37c15 0 29 -10 29 -28
c0 -4 0 -6 -4 -21z" />
    <glyph glyph-name="z" unicode="z" horiz-adv-x="419" 
d="M161 87c4 1 6 1 16 1c25 0 48 -9 70 -18c19 -8 35 -13 53 -13c45 0 93 35 109 79c6 17 7 20 20 20c5 0 17 0 17 -12c0 -26 -58 -155 -156 -155c-29 0 -45 14 -62 36c-18 22 -31 38 -52 38c-35 0 -65 -38 -79 -62c-6 -11 -7 -12 -19 -12c-6 0 -16 0 -16 11
c0 12 47 77 81 114c33 36 34 37 124 122c65 61 82 77 107 107c-21 2 -32 4 -63 16c-16 7 -36 15 -57 15c-22 0 -63 -11 -77 -47c-3 -9 -4 -13 -18 -13c-4 0 -16 0 -16 12c0 20 43 116 121 116c31 0 48 -19 62 -37c15 -19 30 -37 50 -37c19 0 34 14 58 55c12 18 13 19 24 19
c4 0 16 0 16 -11c0 -3 -18 -55 -144 -178l-97 -90c-25 -24 -50 -49 -72 -76z" />
    <glyph glyph-name="endash" unicode="&#x2013;" 
d="M538 254h-418c-15 0 -27 0 -27 12c0 13 11 13 27 13h418c16 0 26 0 26 -13c0 -12 -11 -12 -26 -12z" />
    <glyph glyph-name="emdash" unicode="&#x2014;" horiz-adv-x="1049" 
d="M1036 254h-890c-15 0 -27 0 -27 12c0 13 11 13 27 13h890c16 0 26 0 26 -13c0 -12 -11 -12 -26 -12z" />
    <glyph glyph-name="hungarumlaut" unicode="&#x2dd;" 
d="M414 636l-108 -121c-9 -10 -12 -10 -16 -10c-1 0 -19 3 -19 16c0 3 0 4 7 15l83 133c7 11 17 27 38 27c16 0 31 -11 31 -29c0 -11 -6 -20 -16 -31zM571 636l-108 -121c-9 -10 -12 -10 -16 -10c-1 0 -19 3 -19 16c0 3 0 4 7 15l83 133c7 11 17 27 38 27
c16 0 31 -11 31 -29c0 -11 -6 -20 -16 -31z" />
    <glyph glyph-name="tilde" unicode="&#x2dc;" 
d="M583 656c0 -10 -45 -46 -52 -52c-20 -16 -51 -39 -79 -39s-39 18 -57 43c-7 11 -14 23 -29 23c-26 0 -67 -35 -88 -56c-6 -5 -10 -10 -16 -10c-9 0 -12 8 -12 13c0 11 42 45 56 55c11 9 45 36 74 36c24 0 39 -15 52 -37c14 -22 23 -29 34 -29c29 0 80 48 85 52
c14 14 16 14 20 14c5 0 12 -4 12 -13z" />
    <glyph glyph-name="dieresis" unicode="&#xa8;" 
d="M377 628c0 -32 -31 -60 -61 -60c-25 0 -43 17 -43 42c0 32 31 60 61 60c25 0 43 -17 43 -42zM561 628c0 -28 -28 -60 -62 -60c-26 0 -43 20 -43 42c0 28 28 60 62 60c27 0 43 -21 43 -42z" />
    <glyph glyph-name="space" unicode=" " horiz-adv-x="367" 
 />
  </font>
</defs>
</svg>
