<?xml version="1.0" standalone="no"?>
<!DOCTYPE svg PUBLIC "-//W3C//DTD SVG 1.1//EN" "http://www.w3.org/Graphics/SVG/1.1/DTD/svg11.dtd" >
<svg>
<metadata>
Created by FontForge 20060822 at Fri Oct  6 18:26:44 2006
 By Wojciech Mula,,,
Copyright (C) 1997 American Mathematical Society. All Rights Reserved
</metadata>
<defs>
<font id="CMTT9" horiz-adv-x="525" >
  <font-face 
    font-family="Computer Modern"
    font-weight="500"
    font-stretch="normal"
    units-per-em="1000"
    panose-1="2 0 6 9 0 0 0 0 0 0"
    ascent="800"
    descent="-200"
    x-height="431"
    cap-height="611"
    bbox="-6 -233 542 698"
    underline-thickness="0"
    underline-position="0"
    stemh="65"
    stemv="74"
    unicode-range="U+0020-U+F6BE"
  />
    <missing-glyph />
    <glyph glyph-name="Gamma" unicode="&#x393;" 
d="M180 546v-481h55c16 0 43 0 43 -33c0 -32 -28 -32 -43 -32h-165c-16 0 -42 0 -42 33c0 32 27 32 42 32h36v481h-36c-16 0 -42 0 -42 33c0 32 27 32 42 32h376c34 0 42 -9 42 -42v-77c0 -19 0 -42 -37 -42s-37 23 -37 42v54h-234z" />
    <glyph glyph-name="Delta" unicode="&#x394;" 
d="M321 587l169 -564c-3 -23 -20 -23 -37 -23h-382c-13 0 -37 0 -37 23c0 4 2 10 4 16l166 548c11 37 27 38 58 38c26 0 48 0 59 -38zM228 416l-103 -344h274l-103 344c-24 80 -32 111 -33 118h-2c0 -2 -6 -27 -33 -118z" />
    <glyph glyph-name="Theta" unicode="&#x398;" 
d="M468 305c0 -289 -22 -316 -206 -316c-185 0 -206 27 -206 316c0 290 21 317 206 317s206 -28 206 -317zM262 54c87 0 111 19 123 76c9 48 9 119 9 176c0 51 0 125 -9 173c-11 57 -34 78 -123 78c-87 0 -111 -19 -123 -76c-9 -48 -9 -119 -9 -176c0 -51 0 -125 9 -173
c11 -57 34 -78 123 -78zM356 330v-49c0 -18 0 -43 -37 -43c-25 0 -35 11 -37 31h-40c-2 -20 -13 -31 -37 -31c-37 0 -37 25 -37 43v49c0 18 0 43 37 43c25 0 35 -11 37 -31h40c2 20 13 31 37 31c37 0 37 -25 37 -43z" />
    <glyph glyph-name="Lambda" unicode="&#x39b;" 
d="M320 585l117 -520c34 0 58 0 58 -33c0 -32 -29 -32 -43 -32h-111c-16 0 -43 0 -43 33c0 32 28 32 43 32h20l-64 290c-6 29 -31 145 -34 177h-1c-4 -35 -33 -167 -35 -177l-64 -290h20c16 0 43 0 43 -33c0 -32 -28 -32 -43 -32h-111c-14 0 -43 0 -43 32c0 33 24 33 58 33
l118 520c6 27 13 40 51 40h12c21 0 43 0 52 -40z" />
    <glyph glyph-name="Xi" unicode="&#x39e;" 
d="M413 548h-302c0 -20 0 -43 -37 -43s-37 23 -37 42v21c0 35 9 43 43 43h365c34 0 42 -9 42 -42v-22c0 -19 0 -42 -37 -42s-37 23 -37 43zM449 0h-373c-35 0 -43 9 -43 43v26c0 19 0 42 37 42s37 -21 37 -48h310c0 27 0 48 37 48s37 -23 37 -42v-27c0 -34 -9 -42 -42 -42z
M341 286h-158c0 -33 -20 -36 -37 -36c-37 0 -37 23 -37 43v49c0 20 0 43 37 43c17 0 37 -4 37 -36h158c0 33 20 36 37 36c37 0 37 -23 37 -43v-49c0 -20 0 -43 -37 -43c-17 0 -37 4 -37 36z" />
    <glyph glyph-name="Pi" unicode="&#x3a0;" 
d="M440 546v-481h24c16 0 42 0 42 -33c0 -32 -27 -32 -42 -32h-122c-15 0 -42 0 -42 32c0 33 26 33 42 33h24v481h-208v-481h24c16 0 42 0 42 -33c0 -32 -27 -32 -42 -32h-122c-16 0 -42 0 -42 33c0 32 27 32 42 32h24v481h-24c-16 0 -42 0 -42 33c0 32 27 32 42 32h404
c16 0 42 0 42 -33c0 -32 -27 -32 -42 -32h-24z" />
    <glyph glyph-name="Sigma" unicode="&#x3a3;" 
d="M268 282l-125 -215h267v54c0 19 0 42 37 42s37 -23 37 -42v-79c0 -34 -9 -42 -42 -42h-359c-14 0 -43 0 -43 30c0 1 0 10 8 23l148 252l-149 250c-7 12 -7 19 -7 23c0 33 27 33 43 33h359c34 0 42 -9 42 -42v-77c0 -19 0 -42 -37 -42s-37 23 -37 42v54h-271l138 -233
c0 -15 0 -17 -9 -31z" />
    <glyph glyph-name="Upsilon" unicode="&#x3a5;" 
d="M299 356v-291h34c16 0 43 0 43 -33c0 -32 -28 -32 -43 -32h-142c-16 0 -43 0 -43 33c0 32 28 32 43 32h34v291c0 52 0 210 -70 210c-38 0 -43 -49 -44 -74c-1 -33 -26 -33 -37 -33c-9 0 -37 0 -37 33c0 61 45 130 117 130c60 0 93 -45 107 -135h1c14 86 45 135 108 135
c72 0 117 -69 117 -130c0 -33 -28 -33 -37 -33c-28 0 -36 12 -37 36c-1 23 -7 71 -44 71c-70 0 -70 -158 -70 -210z" />
    <glyph glyph-name="Phi" unicode="&#x3a6;" 
d="M185 611h154c16 0 43 0 43 -33c0 -32 -28 -32 -43 -32h-40v-94c108 -12 185 -75 185 -147c0 -68 -73 -133 -185 -146v-94h40c16 0 43 0 43 -33c0 -32 -28 -32 -43 -32h-154c-16 0 -43 0 -43 33c0 32 28 32 43 32h40v94c-108 12 -185 75 -185 147c0 68 73 133 185 146v94
h-40c-16 0 -43 0 -43 33c0 32 28 32 43 32zM225 225v161c-72 -10 -111 -46 -111 -81c0 -31 35 -69 111 -80zM299 386v-161c72 10 111 46 111 81c0 31 -35 69 -111 80z" />
    <glyph glyph-name="Psi" unicode="&#x3a8;" 
d="M299 546v-318c75 22 76 110 76 141c0 59 11 112 74 112c10 0 38 0 38 -33c0 -24 -17 -29 -28 -32c-10 -3 -10 -40 -10 -46c0 -39 -2 -184 -150 -210v-95h34c16 0 43 0 43 -33c0 -32 -28 -32 -43 -32h-142c-16 0 -43 0 -43 33c0 32 28 32 43 32h34v95
c-117 21 -149 120 -150 199c0 17 0 54 -10 56c-11 4 -28 9 -28 33c0 33 28 33 39 33c64 0 73 -58 73 -110c0 -34 1 -121 76 -143v318h-34c-16 0 -43 0 -43 33c0 32 28 32 43 32h142c16 0 43 0 43 -33c0 -32 -28 -32 -43 -32h-34z" />
    <glyph glyph-name="Omega" unicode="&#x3a9;" 
d="M492 71v-29c0 -34 -9 -42 -42 -42h-101c-20 0 -43 0 -43 37c0 65 30 136 57 201c22 51 47 110 47 168c0 87 -69 151 -148 151s-148 -64 -148 -151c0 -58 24 -116 50 -178c22 -50 54 -125 54 -192c0 -36 -24 -36 -42 -36h-101c-35 0 -43 9 -43 43v28c0 13 0 42 30 42
s30 -28 30 -48h58c-6 37 -19 72 -44 126c-37 80 -66 143 -66 215c0 122 101 216 222 216s222 -94 222 -216c0 -71 -30 -136 -57 -195c-28 -60 -46 -99 -53 -146h58c0 20 0 48 30 48s30 -29 30 -42z" />
    <glyph glyph-name="arrowup" unicode="&#x2191;" 
d="M300 477v-428c0 -12 0 -49 -38 -49c-37 0 -37 38 -37 49v428c-56 -50 -123 -75 -137 -75c-11 0 -30 6 -30 32c0 24 11 28 32 36c48 17 100 50 140 115c11 17 16 26 33 26c16 0 23 -11 29 -20c13 -22 52 -88 143 -122c22 -8 32 -11 32 -35c0 -26 -19 -32 -30 -32
c-14 0 -81 25 -137 75z" />
    <glyph glyph-name="arrowdown" unicode="&#x2193;" 
d="M300 562v-428c56 50 123 75 137 75c11 0 30 -6 30 -32c0 -24 -11 -28 -32 -36c-90 -33 -128 -96 -147 -127c-5 -8 -15 -14 -25 -14c-17 0 -24 11 -30 20c-15 26 -54 88 -143 122c-22 8 -32 11 -32 35c0 26 19 32 30 32c14 0 81 -25 137 -75v428c0 12 0 49 38 49
c37 0 37 -38 37 -49z" />
    <glyph glyph-name="quotesingle" unicode="'" 
d="M308 562l-13 -194c-1 -18 -3 -40 -33 -40s-32 22 -33 40l-12 188l-2 19c0 27 22 47 47 47c12 0 50 -4 46 -60z" />
    <glyph glyph-name="exclamdown" unicode="&#xa1;" 
d="M313 338c0 -28 -23 -51 -51 -51s-51 23 -51 51s23 51 51 51s51 -23 51 -51zM313 -176c0 -53 -42 -57 -51 -57c-8 0 -51 4 -51 57c0 52 4 106 5 158c1 56 2 115 4 171c1 34 2 51 42 51s41 -18 42 -48c0 -16 1 -55 2 -71c2 -59 7 -210 7 -261z" />
    <glyph glyph-name="questiondown" unicode="&#xbf;" 
d="M298 338c0 -28 -23 -51 -51 -51s-51 23 -51 51s23 51 51 51s51 -23 51 -51zM206 144v17c0 22 0 43 41 43s41 -18 41 -54c0 -37 0 -124 -120 -205c-15 -11 -32 -22 -32 -47c0 -60 92 -60 113 -60c13 0 94 0 128 31c0 1 -8 11 -8 29c0 26 21 46 46 46c23 0 47 -15 47 -49
c0 -122 -181 -122 -213 -122c-26 0 -79 0 -126 26c-47 25 -61 68 -61 99s14 68 54 94c61 40 90 86 90 152z" />
    <glyph glyph-name="dotlessi" unicode="&#x131;" 
d="M312 389v-324h105c15 0 43 0 43 -33c0 -32 -29 -32 -43 -32h-301c-15 0 -42 0 -42 33c0 32 28 32 42 32h122v301h-113c-16 0 -43 0 -43 33c0 32 28 32 43 32h145c34 0 42 -9 42 -42z" />
    <glyph glyph-name="dotlessj" unicode="&#xf6be;" 
d="M371 389v-430c0 -68 -38 -186 -183 -186c-40 0 -140 0 -140 77c0 32 25 48 47 48c12 0 45 -9 46 -48c0 -8 1 -9 17 -11c15 -1 21 -1 35 -1c23 0 52 0 78 34c26 36 26 74 26 90v404h-130c-16 0 -42 0 -42 33c0 32 27 32 42 32h162c34 0 42 -9 42 -42z" />
    <glyph glyph-name="grave" unicode="`" 
d="M275 485l-127 52c-14 6 -31 13 -31 37c0 17 13 37 37 37c7 0 13 -2 22 -6l128 -51c13 -5 27 -13 27 -32c0 -20 -15 -42 -36 -42c-6 0 -14 2 -20 5z" />
    <glyph glyph-name="acute" unicode="&#xb4;" 
d="M375 536l-126 -51c-6 -3 -14 -5 -20 -5c-21 0 -36 22 -36 42s14 26 27 31l131 53c8 3 12 5 19 5c23 0 37 -19 37 -37c0 -25 -19 -33 -32 -38z" />
    <glyph glyph-name="caron" unicode="&#x2c7;" 
d="M399 499l-119 -43c-12 -5 -14 -5 -18 -5s-6 0 -21 6l-115 42c-12 5 -27 10 -27 30s13 44 35 44c4 0 7 -1 18 -6l110 -44l110 44c11 5 14 6 18 6c22 0 35 -24 35 -44s-17 -27 -26 -30z" />
    <glyph glyph-name="breve" unicode="&#x2d8;" 
d="M374 582c0 2 4 29 33 29c25 0 33 -18 33 -31c0 -78 -106 -78 -178 -78c-70 0 -178 0 -178 77c0 17 10 32 33 32c29 0 33 -27 33 -29c26 -12 62 -12 112 -12s86 0 112 12z" />
    <glyph glyph-name="macron" unicode="&#xaf;" 
d="M409 513h-293c-17 0 -43 0 -43 34c0 33 27 33 42 33h294c16 0 42 0 42 -34c0 -33 -27 -33 -42 -33z" />
    <glyph glyph-name="ring" unicode="&#x2da;" 
d="M343 560c0 -31 -34 -60 -81 -60s-81 29 -81 60s34 60 81 60s81 -29 81 -60zM262 531c20 0 40 12 40 29s-20 29 -40 29s-40 -12 -40 -29s20 -29 40 -29z" />
    <glyph glyph-name="cedilla" unicode="&#xb8;" 
d="M258 -24v31c0 19 0 42 37 42s37 -20 37 -55c74 -15 98 -60 98 -98c0 -104 -140 -104 -237 -104c-20 0 -34 12 -34 33c0 33 26 33 62 33c38 0 135 0 135 38c0 22 -27 36 -65 38c-33 2 -33 24 -33 42z" />
    <glyph glyph-name="germandbls" unicode="&#xdf;" 
d="M388 394c98 -75 107 -179 107 -219c0 -110 -92 -180 -182 -180c-64 0 -100 37 -100 76c0 28 20 44 43 44c15 0 27 -8 33 -15c8 -11 8 -15 8 -38c4 -1 6 -2 16 -2c47 0 108 39 108 115c0 17 -2 78 -41 130c-42 56 -86 59 -113 61c-4 1 -26 6 -26 32c0 31 24 32 38 33
c72 3 113 44 113 74c0 22 -44 46 -105 46c-19 0 -45 -2 -68 -12c-36 -15 -36 -28 -36 -46v-451c0 -34 -9 -42 -42 -42h-85c-15 0 -43 0 -43 33c0 32 29 32 43 32h53v301h-53c-15 0 -43 0 -43 33c0 32 29 32 43 32h53v67c0 102 129 118 179 118c92 0 178 -41 178 -110
c0 -34 -19 -81 -78 -112z" />
    <glyph glyph-name="ae" unicode="&#xe6;" 
d="M462 189h-168c8 -77 55 -129 99 -129c26 0 43 24 51 50c2 10 7 29 30 29c17 0 30 -13 30 -30c0 -22 -32 -114 -116 -114c-63 0 -103 53 -112 66c-28 -46 -86 -66 -128 -66c-78 0 -117 71 -117 127c0 86 98 127 201 128v31c0 62 -32 93 -77 93c-7 0 -16 0 -23 -1
c0 -22 0 -27 -9 -40c-4 -4 -17 -16 -36 -16c-27 0 -47 20 -47 47c0 57 60 75 117 75c56 0 92 -30 115 -69c39 60 80 69 106 69c68 0 126 -67 126 -208c0 -34 -9 -42 -42 -42zM294 253h149c-6 91 -37 121 -65 121c-39 0 -75 -56 -84 -121zM232 187c-35 -1 -141 -12 -141 -65
c0 -26 21 -62 62 -62c17 0 42 6 58 21c20 18 20 29 20 60c0 19 0 34 1 46z" />
    <glyph glyph-name="oe" unicode="&#x153;" 
d="M463 189h-150c7 -76 49 -129 88 -129c20 0 36 20 44 50c2 9 7 29 30 29c17 0 30 -13 30 -30c0 -21 -28 -114 -108 -114c-61 0 -99 53 -116 85c-23 -44 -63 -85 -116 -85c-79 0 -146 93 -146 222s67 222 146 222c40 0 82 -23 115 -83c30 60 69 83 107 83
c68 0 118 -71 118 -207c0 -32 -6 -43 -42 -43zM313 253h131c-3 71 -26 121 -57 121c-33 0 -66 -55 -74 -121zM165 60c42 0 86 69 86 163c0 93 -46 151 -86 151s-86 -58 -86 -151c0 -94 44 -163 86 -163z" />
    <glyph glyph-name="oslash" unicode="&#xf8;" 
d="M466 503l-66 -114c45 -37 81 -100 81 -173c0 -123 -99 -221 -219 -221c-43 0 -79 14 -81 15l-75 -130c-8 -12 -14 -22 -31 -22c-12 0 -34 10 -34 32c0 7 0 9 15 34l69 120c-42 32 -82 94 -82 172c0 122 98 223 219 223c21 0 50 -3 82 -16c24 39 69 119 74 128
c9 13 14 22 31 22c12 0 34 -10 34 -32c0 -8 0 -10 -17 -38zM156 99l155 267c-22 8 -42 8 -49 8c-88 0 -159 -72 -159 -158c0 -45 20 -87 53 -117zM367 333l-153 -266c12 -4 31 -7 48 -7c87 0 159 69 159 156c0 10 0 73 -54 117z" />
    <glyph glyph-name="AE" unicode="&#xc6;" 
d="M157 179l-23 -114c20 0 46 0 46 -33c0 -32 -28 -32 -43 -32h-71c-15 0 -43 0 -43 32c0 33 25 33 50 33l96 481c-12 0 -40 0 -40 32c0 33 27 33 42 33h278c34 0 42 -9 42 -42v-77c0 -13 0 -42 -30 -42s-30 29 -30 42v54h-107v-197h109c15 0 42 0 42 -33
c0 -32 -28 -32 -42 -32h-109v-219h115v70c0 13 0 42 30 42s30 -29 30 -42v-93c0 -34 -9 -42 -42 -42h-191c-16 0 -42 0 -42 33c0 32 27 32 40 32v114h-107zM230 546l-60 -302h94v302h-34z" />
    <glyph glyph-name="OE" unicode="&#x152;" 
d="M322 284v-219h120v70c0 13 0 42 30 42s30 -29 30 -42v-93c0 -34 -9 -42 -42 -42h-161c-12 0 -23 0 -48 -5c-31 -6 -39 -6 -58 -6c-110 0 -137 31 -150 92c-14 63 -14 144 -14 225c0 126 3 178 15 231c15 65 56 85 149 85c22 0 25 0 59 -6c26 -5 32 -5 47 -5h154
c34 0 42 -9 42 -42v-77c0 -13 0 -42 -30 -42s-30 29 -30 42v54h-113v-197h116c15 0 42 0 42 -33c0 -32 -28 -32 -42 -32h-116zM262 173v265c0 100 -15 119 -64 119c-109 0 -109 -53 -109 -243c0 -199 0 -260 110 -260c49 0 63 21 63 119z" />
    <glyph glyph-name="Oslash" unicode="&#xd8;" 
d="M199 -9c-1 -4 -9 -33 -15 -50c-3 -10 -9 -28 -31 -28c-1 0 -34 2 -34 32c0 3 0 5 16 59c-38 15 -62 39 -73 129c-6 55 -6 118 -6 172c0 290 21 317 206 317c39 0 41 0 63 -2c1 4 9 33 15 50c3 10 9 28 31 28c18 0 34 -14 34 -32c0 -3 0 -5 -16 -59c38 -15 62 -39 73 -129
c6 -55 6 -118 6 -173c0 -289 -22 -316 -206 -316c-39 0 -41 0 -63 2zM156 74l149 482c-12 1 -36 1 -43 1c-73 0 -116 -6 -133 -64c-13 -47 -13 -129 -13 -188c0 -103 0 -199 40 -231zM367 537l-148 -482c12 -1 36 -1 43 -1c73 0 116 6 133 64c13 47 13 129 13 188
c0 200 -20 215 -41 231z" />
    <glyph glyph-name="visiblespace" unicode="&#x2420;" 
d="M480 206v-303c0 -31 -5 -36 -36 -36h-364c-31 0 -36 5 -36 36v303c0 16 0 35 22 35c23 0 23 -18 23 -35v-294h346v294c0 16 0 35 22 35c23 0 23 -18 23 -35z" />
    <glyph glyph-name="exclam" unicode="!" 
d="M313 565c0 -52 -4 -106 -5 -158c-1 -56 -2 -115 -4 -171c-1 -34 -2 -51 -42 -51s-41 18 -42 48c0 16 -1 55 -2 71c-2 59 -7 210 -7 261c0 53 42 57 51 57c8 0 51 -4 51 -57zM313 51c0 -28 -23 -51 -51 -51s-51 23 -51 51s23 51 51 51s51 -23 51 -51z" />
    <glyph glyph-name="quotedbl" unicode="&#x22;" 
d="M220 574l-13 -210c-1 -24 -13 -36 -33 -36c-23 0 -32 12 -34 37l-13 200c-3 48 33 57 47 57c17 0 46 -13 46 -48zM397 574l-13 -210c-1 -24 -13 -36 -33 -36c-23 0 -32 12 -34 37l-13 200c-3 48 33 57 47 57c17 0 46 -13 46 -48z" />
    <glyph glyph-name="numbersign" unicode="#" 
d="M394 376l-17 -141h62c13 0 50 0 50 -38c0 -37 -38 -37 -49 -37h-73c-4 -36 -7 -63 -12 -98c-4 -36 -8 -62 -40 -62c-22 0 -38 17 -38 38c0 2 0 4 14 122h-96c-4 -36 -7 -63 -12 -98c-4 -36 -8 -62 -40 -62c-22 0 -38 17 -38 38c0 2 0 4 14 122h-35c-11 0 -49 0 -49 37
c0 38 37 38 50 38h44l17 141h-61c-13 0 -50 0 -50 38c0 37 38 37 49 37h72l15 117c1 11 5 43 38 43c17 0 42 -11 37 -50l-14 -110h96l15 117c1 11 5 43 38 43c17 0 42 -11 37 -50l-14 -110h36c11 0 49 0 49 -37c0 -38 -37 -38 -50 -38h-45zM222 376l-17 -141h96l17 141h-96z
" />
    <glyph glyph-name="dollar" unicode="$" 
d="M295 549v-200c132 -26 171 -115 171 -176c0 -85 -70 -161 -171 -176v-38c0 -15 0 -42 -32 -42c-33 0 -33 27 -33 43v37c-126 12 -172 99 -172 171c0 43 31 51 47 51c25 0 46 -20 46 -46c0 -18 -9 -30 -15 -35c15 -52 58 -70 94 -76v225c-141 25 -172 114 -172 163
c0 77 64 149 172 164v37c0 16 0 43 33 43c32 0 32 -27 32 -42v-38c131 -11 171 -96 171 -159c0 -44 -34 -51 -47 -51c-21 0 -46 16 -46 47c0 21 8 29 14 34c-14 41 -54 58 -92 64zM230 362v186c-72 -13 -104 -57 -104 -93c0 -48 48 -82 104 -93zM295 273v-210
c64 13 103 59 103 105c0 48 -40 91 -103 105z" />
    <glyph glyph-name="percent" unicode="%" 
d="M433 634l-273 -686c-5 -11 -12 -31 -37 -31c-21 0 -38 17 -38 38c0 9 3 15 5 21l274 687c4 11 12 31 38 31c18 0 37 -15 37 -38c0 -7 -2 -13 -6 -22zM489 50c0 -73 -35 -133 -87 -133c-51 0 -87 60 -87 133s35 133 87 133c51 0 87 -60 87 -133zM402 -17c8 0 27 23 27 67
s-19 67 -27 67s-27 -23 -27 -67s19 -67 27 -67zM209 560c0 -71 -35 -133 -87 -133c-51 0 -87 59 -87 134c0 71 35 133 87 133c51 0 87 -59 87 -134zM122 493c8 0 27 23 27 68c0 43 -18 67 -27 67c-8 0 -27 -23 -27 -68c0 -43 18 -67 27 -67z" />
    <glyph glyph-name="ampersand" unicode="&#x26;" 
d="M418 366l-52 -137c-3 -7 -23 -61 -56 -119c13 -17 47 -56 82 -56c19 0 33 20 35 52c0 6 2 33 30 33c2 0 30 0 30 -34c0 -45 -27 -116 -95 -116c-45 0 -84 30 -118 68c-27 -32 -67 -68 -123 -68c-75 0 -123 71 -123 150c0 35 10 74 37 107c13 16 50 52 64 68
c-15 43 -28 106 -28 161c0 94 50 147 108 147c68 0 94 -73 94 -139c0 -61 -30 -112 -103 -188c20 -47 57 -107 71 -130c28 50 58 135 82 201c-17 2 -31 9 -31 33c0 32 27 32 42 32h84c15 0 42 0 42 -33c0 -32 -28 -32 -42 -32h-30zM177 365c50 58 66 88 66 117
c0 1 0 75 -35 75c-23 0 -47 -29 -47 -82c0 -9 0 -55 16 -110zM155 248c-45 -44 -53 -66 -53 -106c0 -33 11 -88 49 -88c36 0 65 28 85 54c-20 29 -68 113 -81 140z" />
    <glyph glyph-name="quoteright" unicode="&#x2019;" 
d="M342 496c0 -128 -107 -196 -131 -196c-16 0 -33 15 -33 33s10 24 20 29c71 42 79 107 79 134c0 6 0 12 -2 13c-1 1 -12 0 -13 0c-49 3 -51 45 -51 51c0 22 16 51 52 51c44 0 79 -41 79 -115z" />
    <glyph glyph-name="parenleft" unicode="(" 
d="M437 -53c0 -10 -6 -30 -33 -30c-25 0 -104 60 -153 132c-66 95 -80 190 -80 257c0 71 17 160 70 243c56 87 140 145 163 145c27 0 33 -20 33 -30c0 -11 -6 -20 -13 -25c-47 -31 -96 -72 -136 -148c-22 -45 -43 -110 -43 -186c0 -104 41 -242 173 -329c9 -7 19 -13 19 -29
z" />
    <glyph glyph-name="parenright" unicode=")" 
d="M353 305c0 -71 -17 -160 -70 -243c-56 -87 -140 -145 -163 -145c-27 0 -33 21 -33 30s5 19 13 25c47 31 96 72 136 148c22 45 43 110 43 186c0 104 -41 242 -173 329c-9 6 -19 13 -19 29c0 8 5 30 33 30c26 0 104 -60 153 -132c66 -95 80 -190 80 -257z" />
    <glyph glyph-name="asterisk" unicode="*" 
d="M294 361l108 64c5 3 10 6 19 6c20 0 35 -16 35 -35c0 -6 0 -22 -23 -34l-106 -57c10 -5 87 -46 109 -59c6 -3 20 -11 20 -31c0 -19 -15 -35 -35 -35c-9 0 -11 0 -35 15c-27 17 -73 44 -92 55c2 -25 3 -90 3 -117c0 -8 0 -43 -35 -43s-35 35 -35 43c0 27 1 92 3 117
l-108 -64c-5 -3 -10 -6 -19 -6c-20 0 -35 16 -35 35c0 5 0 22 23 34l106 57l-106 56c-18 10 -23 22 -23 34c0 19 15 35 35 35c9 0 11 -2 24 -9l103 -61c-2 25 -3 90 -3 117c0 8 0 43 35 43s35 -35 35 -43c0 -27 -1 -92 -3 -117z" />
    <glyph glyph-name="plus" unicode="+" 
d="M300 268v-139c0 -12 0 -49 -38 -49c-37 0 -37 38 -37 49v139h-139c-12 0 -49 0 -49 38c0 37 38 37 49 37h139v139c0 12 0 49 38 49c37 0 37 -38 37 -49v-139h138c12 0 49 0 49 -38c0 -37 -38 -37 -49 -37h-138z" />
    <glyph glyph-name="comma" unicode="," 
d="M279 2c-2 -1 -9 -2 -16 -2c-37 0 -64 27 -64 64c0 33 25 63 64 63c47 0 84 -43 84 -101c0 -112 -103 -165 -135 -165c-19 0 -34 18 -34 33c0 22 18 28 27 31c51 17 69 55 74 77z" />
    <glyph glyph-name="hyphen" unicode="-" 
d="M419 268h-314c-12 0 -49 0 -49 38c0 37 38 37 49 37h314c12 0 49 0 49 -38c0 -37 -38 -37 -49 -37z" />
    <glyph glyph-name="period" unicode="." 
d="M326 63c0 -32 -27 -63 -64 -63c-32 0 -63 27 -63 64c0 32 27 63 64 63c32 0 63 -27 63 -64z" />
    <glyph glyph-name="slash" unicode="/" 
d="M458 632l-325 -686c-5 -11 -14 -29 -38 -29c-18 0 -37 15 -37 38c0 7 0 8 8 24l325 686c5 10 14 29 38 29c18 0 37 -15 37 -38c0 -7 0 -8 -8 -24z" />
    <glyph glyph-name="zero" unicode="0" 
d="M476 305c0 -182 -101 -316 -214 -316c-112 0 -214 131 -214 317c0 182 101 316 214 316c112 0 214 -131 214 -317zM262 54c78 0 140 117 140 262c0 144 -68 241 -140 241s-140 -96 -140 -241c0 -144 62 -262 140 -262z" />
    <glyph glyph-name="one" unicode="1" 
d="M314 580v-515h89c16 0 42 0 42 -33c0 -32 -27 -32 -42 -32h-252c-15 0 -42 0 -42 32c0 33 26 33 42 33h89v411c-23 -20 -62 -41 -102 -41c-24 0 -35 12 -35 32c0 30 22 32 37 33c40 3 80 30 111 100c6 13 14 22 31 22c32 0 32 -27 32 -42z" />
    <glyph glyph-name="two" unicode="2" 
d="M67 62l237 200c40 33 94 93 94 163c0 86 -74 132 -154 132c-51 0 -95 -26 -112 -70c5 -5 13 -12 13 -33c0 -30 -26 -47 -46 -47c-15 0 -47 10 -47 50c0 85 80 165 197 165c124 0 223 -78 223 -197c0 -99 -72 -166 -109 -202c-25 -23 -137 -112 -190 -158h225
c0 27 0 48 37 48s37 -23 37 -42v-29c0 -34 -9 -42 -42 -42h-335c-16 0 -43 0 -43 33c0 15 7 22 15 29z" />
    <glyph glyph-name="three" unicode="3" 
d="M259 297h-42c-15 0 -42 0 -42 33c0 30 20 32 59 34c47 3 65 4 91 21c39 25 52 66 52 94c0 41 -45 78 -115 78c-6 0 -71 0 -104 -27c5 -7 8 -18 8 -27c0 -26 -21 -46 -46 -46s-47 18 -47 48c0 68 66 117 189 117c113 0 189 -66 189 -143c0 -27 -7 -93 -80 -145
c47 -21 109 -77 109 -159c0 -95 -87 -186 -217 -186c-125 0 -219 57 -219 145c0 34 23 49 47 49c26 0 46 -21 46 -46c0 -4 0 -6 -1 -7c-2 -10 -2 -12 -8 -21c0 -1 -2 -2 -2 -3c35 -48 111 -52 137 -52c86 0 143 59 143 122c0 51 -44 121 -147 121z" />
    <glyph glyph-name="four" unicode="4" 
d="M38 247l225 356c13 21 19 22 44 22h29c35 0 43 -9 43 -43v-349h74c15 0 42 0 42 -33c0 -32 -28 -32 -42 -32h-74v-103h60c15 0 42 0 42 -33c0 -32 -28 -32 -42 -32h-180c-15 0 -42 0 -42 33c0 32 28 32 42 32h60v103h-248c-38 0 -42 14 -42 43c0 21 0 23 9 36zM104 233
h215v341z" />
    <glyph glyph-name="five" unicode="5" 
d="M395 546h-236v-184c43 22 84 27 117 27c117 0 196 -97 196 -199c0 -111 -100 -201 -225 -201c-113 0 -195 71 -195 152c0 38 28 50 47 50c26 0 46 -20 46 -46c0 -4 0 -6 -1 -7c-2 -12 -3 -14 -10 -24l-1 -1c22 -43 74 -59 114 -59c82 0 151 59 151 136
c0 64 -44 134 -123 134c-49 0 -94 -14 -124 -50c-8 -10 -13 -15 -31 -15c-35 0 -35 26 -35 46v260c0 38 9 46 43 46h267c15 0 42 0 42 -33c0 -32 -28 -32 -42 -32z" />
    <glyph glyph-name="six" unicode="6" 
d="M126 341c41 36 92 55 147 55c112 0 201 -90 201 -203c0 -121 -100 -204 -209 -204c-104 0 -215 75 -215 311c0 199 135 322 270 322c102 0 134 -59 134 -105c0 -30 -20 -49 -47 -49c-29 0 -46 23 -46 46c0 9 3 20 9 27c-16 16 -41 16 -50 16c-90 0 -179 -83 -194 -216z
M138 192l-1 -9c0 -1 22 -129 127 -129c72 0 136 57 136 139c0 72 -52 137 -132 137c-77 0 -134 -51 -134 -108c0 -18 4 -21 4 -30z" />
    <glyph glyph-name="seven" unicode="7" 
d="M369 546h-251c0 -27 0 -48 -37 -48s-37 23 -37 42v45c0 19 0 42 37 42c9 0 26 0 33 -16h324c15 0 42 0 42 -33c0 -15 -3 -17 -22 -35c-104 -101 -213 -279 -217 -504c0 -16 -1 -50 -37 -50c-37 0 -37 36 -37 49c0 46 8 164 60 286c35 81 83 156 142 222z" />
    <glyph glyph-name="eight" unicode="8" 
d="M341 330c63 -18 139 -72 139 -155c0 -97 -92 -186 -218 -186s-218 88 -218 186c0 81 74 136 139 155c-58 16 -125 62 -125 131c0 82 84 161 204 161s204 -79 204 -161c0 -69 -67 -114 -125 -131zM262 362c70 0 130 43 130 98c0 50 -54 97 -130 97s-130 -47 -130 -97
c0 -55 60 -98 130 -98zM262 54c81 0 144 56 144 122c0 61 -56 121 -144 121c-87 0 -144 -60 -144 -121c0 -66 63 -122 144 -122z" />
    <glyph glyph-name="nine" unicode="9" 
d="M398 270c-49 -42 -102 -55 -147 -55c-112 0 -201 90 -201 203c0 120 102 204 215 204c101 0 209 -75 209 -311c0 -195 -123 -322 -258 -322c-114 0 -146 59 -146 105c0 30 20 49 47 49c29 0 46 -23 46 -46c0 -17 -4 -22 -8 -27c20 -15 49 -16 62 -16c89 0 168 89 181 216
zM388 427l-1 5c-1 5 -2 11 -4 17c-17 53 -51 108 -118 108c-72 0 -141 -55 -141 -139c0 -72 52 -137 132 -137c77 0 134 51 134 109c0 7 -2 23 -3 30z" />
    <glyph glyph-name="colon" unicode=":" 
d="M326 367c0 -32 -27 -63 -64 -63c-32 0 -63 27 -63 64c0 32 27 63 64 63c32 0 63 -27 63 -64zM326 63c0 -32 -27 -63 -64 -63c-32 0 -63 27 -63 64c0 32 27 63 64 63c32 0 63 -27 63 -64z" />
    <glyph glyph-name="semicolon" unicode=";" 
d="M326 367c0 -32 -27 -63 -64 -63c-32 0 -63 27 -63 64c0 32 27 63 64 63c32 0 63 -27 63 -64zM263 0c-50 2 -64 40 -64 64c0 35 27 63 63 63c42 0 69 -38 69 -99c0 -113 -97 -167 -119 -167c-19 0 -34 18 -34 33c0 19 15 26 22 29c30 15 54 43 63 77z" />
    <glyph glyph-name="less" unicode="&#x3c;" 
d="M444 485l-281 -180l282 -179c10 -7 23 -16 23 -36c0 -23 -20 -38 -38 -38c-1 0 -9 1 -16 4l-336 215c-8 5 -22 14 -22 34s11 27 23 35l323 208c16 11 27 11 29 11c15 0 37 -13 37 -38c0 -21 -14 -29 -24 -36z" />
    <glyph glyph-name="equal" unicode="=" 
d="M440 344h-356c-11 0 -47 0 -47 37c0 38 39 38 53 38h344c14 0 53 0 53 -38c0 -37 -36 -37 -47 -37zM434 192h-344c-14 0 -53 0 -53 38c0 37 36 37 47 37h356c11 0 47 0 47 -37c0 -38 -39 -38 -53 -38z" />
    <glyph glyph-name="greater" unicode="&#x3e;" 
d="M445 271l-336 -215c-6 -2 -11 -4 -16 -4c-15 0 -37 13 -37 38c0 19 8 25 12 28l293 188l-282 179c-10 7 -23 16 -23 36c0 23 20 38 38 38c1 0 9 -1 16 -4l336 -215c8 -5 22 -14 22 -34s-11 -27 -23 -35z" />
    <glyph glyph-name="question" unicode="?" 
d="M288 244v-16c0 -22 0 -43 -41 -43s-41 18 -41 53c0 41 0 128 140 207c23 13 42 23 42 46c0 34 -45 60 -136 60c-21 0 -77 -1 -105 -32c4 -6 8 -11 8 -28c0 -26 -21 -46 -46 -46s-47 18 -47 48c0 58 50 123 190 123c210 0 210 -112 210 -125c0 -33 -18 -70 -63 -95
c-99 -54 -111 -107 -111 -152zM298 51c0 -28 -23 -51 -51 -51s-51 23 -51 51s23 51 51 51s51 -23 51 -51z" />
    <glyph glyph-name="at" unicode="@" 
d="M394 488c-14 37 -47 63 -90 63c-100 0 -200 -99 -200 -246c0 -140 96 -245 201 -245c40 0 76 17 100 40c14 13 17 13 35 13c10 0 40 0 40 -30s-84 -88 -174 -88c-141 0 -262 134 -262 311c0 178 123 310 260 310c176 0 176 -231 176 -295c0 -172 -96 -215 -146 -215
c-76 0 -145 82 -145 200c0 111 64 199 146 199c25 0 46 -9 59 -17zM335 171c41 0 85 54 85 135c0 75 -40 134 -86 134c-41 0 -85 -54 -85 -135c0 -75 40 -134 86 -134z" />
    <glyph glyph-name="A" unicode="A" 
d="M318 586l118 -521h18c16 0 42 0 42 -33c0 -32 -27 -32 -42 -32h-109c-15 0 -42 0 -42 32c0 33 22 33 57 33l-21 94h-154l-21 -94c35 0 57 0 57 -33c0 -32 -27 -32 -42 -32h-109c-16 0 -42 0 -42 33c0 32 27 32 42 32h18l118 521c7 31 17 39 51 39h10c34 0 44 -9 51 -39z
M324 224l-48 230c-1 7 -11 55 -13 78h-1c-4 -39 -37 -193 -63 -308h125z" />
    <glyph glyph-name="B" unicode="B" 
d="M63 611h226c111 0 172 -82 172 -156c0 -49 -30 -108 -106 -134c90 -25 127 -94 127 -153c0 -77 -59 -168 -173 -168h-246c-16 0 -43 0 -43 33c0 32 28 32 43 32h26v481h-26c-16 0 -43 0 -43 33c0 32 28 32 43 32zM163 350h100c97 0 124 68 124 104c0 31 -20 92 -102 92
h-122v-196zM163 65h124c84 0 121 57 121 105c0 44 -28 115 -110 115h-135v-220z" />
    <glyph glyph-name="C" unicode="C" 
d="M484 580v-139c0 -19 0 -42 -37 -42c-8 0 -33 0 -37 25c-19 124 -103 133 -125 133c-86 0 -171 -103 -171 -252c0 -144 82 -251 172 -251c11 0 116 2 124 123c2 26 32 26 37 26c10 0 37 0 37 -34c0 -95 -89 -180 -202 -180c-132 0 -242 137 -242 317s111 316 241 316
c59 0 104 -27 127 -46c16 34 22 46 44 46c32 0 32 -27 32 -42z" />
    <glyph glyph-name="D" unicode="D" 
d="M59 611h207c133 0 219 -150 219 -310s-88 -301 -219 -301h-207c-16 0 -43 0 -43 33c0 32 28 32 43 32h21v481h-21c-16 0 -43 0 -43 33c0 32 28 32 43 32zM154 65h92c107 0 165 120 165 236c0 111 -52 245 -166 245h-91v-481z" />
    <glyph glyph-name="E" unicode="E" 
d="M168 284v-219h260v70c0 19 0 42 37 42s37 -23 37 -42v-93c0 -34 -9 -42 -42 -42h-395c-16 0 -43 0 -43 33c0 32 28 32 43 32h29v481h-29c-16 0 -43 0 -43 33c0 32 28 32 43 32h373c34 0 42 -9 42 -42v-77c0 -19 0 -42 -37 -42s-37 23 -37 42v54h-238v-197h126
c0 38 0 57 37 57s37 -23 37 -42v-95c0 -19 0 -42 -37 -42s-37 19 -37 57h-126z" />
    <glyph glyph-name="F" unicode="F" 
d="M174 273v-208h51c15 0 43 0 43 -33c0 -32 -29 -32 -43 -32h-157c-15 0 -43 0 -43 32c0 33 27 33 43 33h32v481h-32c-15 0 -43 0 -43 32c0 33 27 33 43 33h380c34 0 42 -9 42 -42v-77c0 -19 0 -42 -37 -42s-37 23 -37 42v54h-242v-208h130c0 38 0 57 37 57s37 -23 37 -42
v-95c0 -19 0 -42 -37 -42s-37 19 -37 57h-130z" />
    <glyph glyph-name="G" unicode="G" 
d="M449 206v-164c0 -19 0 -42 -37 -42c-27 0 -37 11 -37 37c-17 -17 -57 -48 -115 -48c-119 0 -223 132 -223 317c0 181 103 316 223 316c55 0 92 -24 115 -43c13 28 19 43 42 43c32 0 32 -27 32 -42v-139c0 -19 0 -42 -37 -42c-33 0 -35 18 -37 33c-11 77 -57 125 -111 125
c-76 0 -153 -103 -153 -252c0 -147 76 -251 152 -251c67 0 102 73 110 152h-40c-16 0 -42 0 -42 33c0 32 27 32 42 32h120c15 0 43 0 43 -32c0 -33 -26 -33 -47 -33z" />
    <glyph glyph-name="H" unicode="H" 
d="M440 546v-481h24c16 0 42 0 42 -33c0 -32 -27 -32 -42 -32h-122c-15 0 -42 0 -42 32c0 33 26 33 42 33h24v220h-208v-220h24c16 0 42 0 42 -33c0 -32 -27 -32 -42 -32h-122c-16 0 -42 0 -42 33c0 32 27 32 42 32h24v481h-24c-16 0 -42 0 -42 33c0 32 27 32 42 32h122
c16 0 42 0 42 -33c0 -32 -27 -32 -42 -32h-24v-196h208v196h-24c-15 0 -42 0 -42 32c0 33 26 33 42 33h122c16 0 42 0 42 -33c0 -32 -27 -32 -42 -32h-24z" />
    <glyph glyph-name="I" unicode="I" 
d="M299 546v-481h108c15 0 43 0 43 -33c0 -32 -29 -32 -43 -32h-290c-15 0 -43 0 -43 33c0 32 29 32 43 32h108v481h-108c-15 0 -43 0 -43 33c0 32 29 32 43 32h290c15 0 43 0 43 -33c0 -32 -29 -32 -43 -32h-108z" />
    <glyph glyph-name="J" unicode="J" 
d="M407 546v-411c0 -95 -86 -146 -172 -146c-101 0 -168 45 -168 111c0 28 19 48 47 48s46 -22 46 -46c0 -15 -3 -20 -7 -26c28 -21 72 -22 82 -22c20 0 98 6 98 85v407h-82c-15 0 -42 0 -42 32c0 33 26 33 42 33h185c16 0 43 0 43 -33c0 -32 -28 -32 -43 -32h-29z" />
    <glyph glyph-name="K" unicode="K" 
d="M277 357l165 -292c30 0 53 0 53 -33c0 -32 -27 -32 -42 -32h-77c-16 0 -43 0 -43 33c0 32 29 32 40 32l-136 241l-90 -113v-128h21c16 0 43 0 43 -33c0 -32 -28 -32 -43 -32h-102c-16 0 -43 0 -43 33c0 32 28 32 43 32h21v481h-21c-16 0 -43 0 -43 33c0 32 28 32 43 32
h102c16 0 43 0 43 -33c0 -32 -28 -32 -43 -32h-21v-256l203 256c-10 0 -40 0 -40 32c0 33 28 33 43 33h90c15 0 42 0 42 -32c0 -33 -21 -33 -58 -33z" />
    <glyph glyph-name="L" unicode="L" 
d="M180 546v-481h234v69c0 19 0 43 37 43s37 -24 37 -43v-92c0 -34 -9 -42 -42 -42h-376c-16 0 -42 0 -42 33c0 32 27 32 42 32h36v481h-36c-16 0 -42 0 -42 33c0 32 27 32 42 32h165c16 0 43 0 43 -33c0 -32 -28 -32 -43 -32h-55z" />
    <glyph glyph-name="M" unicode="M" 
d="M295 393l59 180c10 30 20 38 55 38h58c15 0 43 0 43 -32c0 -33 -24 -33 -54 -33v-481c30 0 54 0 54 -33c0 -32 -28 -32 -43 -32h-82c-15 0 -43 0 -43 32c0 33 24 33 54 33v467h-1c-5 -24 -28 -96 -28 -97l-63 -193c-4 -12 -12 -38 -42 -38s-38 26 -42 38l-68 208
c-9 29 -18 58 -23 82h-1v-467c30 0 54 0 54 -33c0 -32 -28 -32 -43 -32h-82c-15 0 -43 0 -43 32c0 33 24 33 54 33v481c-30 0 -54 0 -54 33c0 32 28 32 43 32h58c36 0 45 -9 55 -38l65 -199c11 -33 21 -64 27 -93h1c6 31 19 72 32 112z" />
    <glyph glyph-name="N" unicode="N" 
d="M195 573l129 -356c17 -47 34 -95 48 -140h1v469h-24c-16 0 -42 0 -42 33c0 32 27 32 42 32h108c16 0 42 0 42 -33c0 -32 -27 -32 -42 -32h-24v-504c0 -41 -18 -42 -45 -42c-24 0 -45 0 -59 38l-129 356c-17 47 -34 95 -48 140h-1v-469h24c16 0 42 0 42 -33
c0 -32 -27 -32 -42 -32h-108c-16 0 -42 0 -42 33c0 32 27 32 42 32h24v481h-24c-16 0 -42 0 -42 33c0 32 27 32 42 32h71c22 0 43 0 57 -38z" />
    <glyph glyph-name="O" unicode="O" 
d="M468 305c0 -289 -22 -316 -206 -316c-185 0 -206 27 -206 316c0 290 21 317 206 317s206 -28 206 -317zM262 54c86 0 110 22 120 70c12 53 12 122 12 190c0 60 0 131 -11 177c-13 54 -44 66 -121 66c-78 0 -107 -12 -120 -63c-12 -45 -12 -117 -12 -180
c0 -60 0 -140 12 -192c11 -46 34 -68 120 -68z" />
    <glyph glyph-name="P" unicode="P" 
d="M168 241v-176h29c16 0 43 0 43 -33c0 -32 -28 -32 -43 -32h-132c-16 0 -43 0 -43 33c0 32 28 32 43 32h29v481h-29c-16 0 -43 0 -43 33c0 32 28 32 43 32h225c119 0 190 -93 190 -185s-71 -185 -190 -185h-122zM168 546v-240h102c95 0 136 68 136 120s-41 120 -136 120
h-102z" />
    <glyph glyph-name="Q" unicode="Q" 
d="M421 -139h-12c-14 0 -27 0 -35 11c-4 6 -54 105 -61 118c-13 -1 -34 -1 -51 -1c-185 0 -206 27 -206 316c0 290 21 317 206 317s206 -28 206 -317c0 -46 0 -113 -6 -167c-8 -76 -25 -114 -70 -134l33 -61c27 -52 29 -55 29 -61c0 -21 -18 -21 -33 -21zM255 54h25
c-46 90 -46 92 -46 96c0 21 19 21 33 21h14c21 0 22 0 29 -11l45 -87c33 25 39 87 39 233c0 51 0 125 -9 173c-11 57 -34 78 -123 78c-87 0 -111 -19 -123 -76c-9 -48 -9 -119 -9 -176c0 -46 0 -113 7 -160c9 -57 22 -91 118 -91z" />
    <glyph glyph-name="R" unicode="R" 
d="M351 303c4 -3 33 -26 46 -59c9 -24 9 -30 9 -94c0 -49 0 -96 25 -96c15 0 17 36 17 42c1 33 27 33 37 33c9 0 37 0 37 -34c0 -43 -27 -106 -89 -106c-35 0 -64 16 -83 48c-18 32 -18 65 -18 126c0 41 0 64 -22 83c-29 26 -53 27 -77 27h-75v-208h24c16 0 42 0 42 -33
c0 -32 -27 -32 -42 -32h-122c-16 0 -42 0 -42 33c0 32 27 32 42 32h24v481h-24c-16 0 -42 0 -42 33c0 32 27 32 42 32h179c117 0 194 -83 194 -169c0 -55 -30 -106 -82 -139zM227 338c93 0 132 60 132 104c0 45 -40 104 -132 104h-69v-208h69z" />
    <glyph glyph-name="S" unicode="S" 
d="M445 580v-130c0 -19 0 -42 -37 -42c-16 0 -33 1 -37 31c-4 25 -19 118 -134 118c-68 0 -115 -47 -115 -96c0 -44 36 -80 81 -91c13 -4 86 -21 107 -26c36 -8 83 -19 122 -66c31 -39 40 -79 40 -111c0 -90 -72 -178 -188 -178c-51 0 -116 11 -162 43
c-7 -30 -16 -43 -38 -43c-32 0 -32 27 -32 42v129c0 20 0 43 37 43c35 0 36 -20 37 -36c1 -19 5 -60 51 -88c27 -16 67 -25 108 -25c74 0 117 56 117 108c0 34 -19 85 -83 105c-3 0 -72 16 -82 19c-75 17 -105 24 -146 68c-10 12 -39 49 -39 103c0 86 76 165 185 165
c25 0 84 -3 138 -43c7 30 16 43 38 43c32 0 32 -27 32 -42z" />
    <glyph glyph-name="T" unicode="T" 
d="M299 546v-481h51c15 0 43 0 43 -33c0 -32 -29 -32 -43 -32h-176c-15 0 -43 0 -43 33c0 32 29 32 43 32h51v481h-125v-54c0 -19 0 -42 -37 -42s-37 23 -37 42v76c0 35 9 43 43 43h387c34 0 42 -9 42 -42v-77c0 -19 0 -42 -37 -42s-37 23 -37 42v54h-125z" />
    <glyph glyph-name="U" unicode="U" 
d="M452 546v-341c0 -125 -89 -216 -190 -216s-190 91 -190 216v341h-29c-15 0 -43 0 -43 32c0 33 27 33 43 33h132c16 0 43 0 43 -33c0 -32 -28 -32 -43 -32h-29v-337c0 -103 63 -155 116 -155s116 52 116 155v337h-29c-15 0 -43 0 -43 32c0 33 27 33 43 33h132
c16 0 43 0 43 -33c0 -32 -28 -32 -43 -32h-29z" />
    <glyph glyph-name="V" unicode="V" 
d="M448 546l-129 -519c-9 -36 -31 -36 -57 -36c-28 0 -48 0 -58 39l-128 516c-34 0 -58 0 -58 33c0 32 29 32 43 32h105c15 0 43 0 43 -32c0 -33 -23 -33 -57 -33l94 -387c6 -26 13 -59 15 -81h1c5 41 27 132 40 184l70 284c-34 0 -57 0 -57 33c0 32 28 32 43 32h105
c14 0 43 0 43 -32c0 -33 -24 -33 -58 -33z" />
    <glyph glyph-name="W" unicode="W" 
d="M474 546l-70 -515c-2 -18 -5 -40 -43 -40c-8 0 -31 0 -41 23c-4 8 -54 232 -58 273c-4 -41 -55 -265 -58 -272c-10 -24 -32 -24 -41 -24c-37 0 -40 21 -43 41l-70 514h-1c-9 0 -37 0 -37 32c0 33 26 33 42 33h80c16 0 43 0 43 -33c0 -32 -28 -32 -43 -32h-23l43 -335
c6 -46 12 -91 15 -130c2 64 47 257 53 268c10 18 30 18 40 18s30 0 40 -18c7 -12 51 -206 53 -268h1c3 49 9 92 16 147l42 318h-24c-16 0 -43 0 -43 33c0 32 28 32 43 32h80c16 0 42 0 42 -33c0 -32 -28 -32 -38 -32z" />
    <glyph glyph-name="X" unicode="X" 
d="M294 326l136 -261h22c16 0 43 0 43 -33c0 -32 -28 -32 -43 -32h-106c-14 0 -43 0 -43 32c0 33 27 33 45 33l-91 184l-85 -184c22 0 47 0 47 -33c0 -32 -28 -32 -42 -32h-107c-16 0 -42 0 -42 33c0 32 27 32 42 32h22l128 261l-116 220h-22c-16 0 -43 0 -43 33
c0 32 28 32 43 32h106c15 0 43 0 43 -32c0 -33 -27 -33 -44 -33l70 -134l64 134c-21 0 -46 0 -46 33c0 32 27 32 42 32h107c15 0 42 0 42 -33c0 -32 -28 -32 -42 -32h-22z" />
    <glyph glyph-name="Y" unicode="Y" 
d="M442 546l-143 -302v-179h24c16 0 42 0 42 -33c0 -32 -27 -32 -42 -32h-122c-15 0 -42 0 -42 32c0 33 26 33 42 33h24v179l-143 302h-20c-15 0 -43 0 -43 33c0 32 29 32 43 32h106c15 0 43 0 43 -32c0 -33 -26 -33 -47 -33c29 -61 89 -186 97 -226h2c8 40 68 164 97 226
c-21 0 -47 0 -47 33c0 32 28 32 43 32h106c15 0 43 0 43 -33c0 -32 -29 -32 -43 -32h-20z" />
    <glyph glyph-name="Z" unicode="Z" 
d="M466 543l-323 -478h264v73c0 19 0 42 37 42s37 -23 37 -42v-96c0 -34 -9 -42 -42 -42h-348c-20 0 -43 0 -43 37c0 10 0 16 10 31l323 478h-247v-54c0 -19 0 -42 -37 -42s-37 23 -37 42v76c0 35 9 43 43 43h330c20 0 43 0 43 -37c0 -10 0 -16 -10 -31z" />
    <glyph glyph-name="bracketleft" unicode="[" 
d="M442 629h-150v-647h150c14 0 42 0 42 -32c0 -33 -27 -33 -42 -33h-182c-34 0 -42 9 -42 42v693c0 34 9 42 42 42h182c14 0 42 0 42 -32c0 -33 -27 -33 -42 -33z" />
    <glyph glyph-name="backslash" unicode="\" 
d="M133 665l328 -691c1 -3 5 -11 5 -19c0 -23 -19 -38 -37 -38c-17 0 -29 9 -39 30l-327 690c-1 3 -5 11 -5 19c0 23 19 38 37 38c24 0 33 -18 38 -29z" />
    <glyph glyph-name="bracketright" unicode="]" 
d="M306 652v-693c0 -34 -9 -42 -42 -42h-182c-15 0 -42 0 -42 33c0 32 28 32 42 32h150v647h-150c-15 0 -42 0 -42 33c0 32 28 32 42 32h182c34 0 42 -9 42 -42z" />
    <glyph glyph-name="asciicircum" unicode="^" 
d="M283 604l121 -65c13 -7 22 -12 22 -29c0 -9 -9 -42 -36 -42c-7 0 -9 0 -22 8l-106 61l-120 -69c-13 0 -23 0 -32 12c-3 4 -12 18 -12 30c0 17 9 22 22 29l120 64c11 6 15 8 22 8c5 0 9 0 21 -7z" />
    <glyph glyph-name="underscore" unicode="_" 
d="M419 -97h-314c-12 0 -49 0 -49 38c0 37 38 37 49 37h314c12 0 49 0 49 -38c0 -37 -38 -37 -49 -37z" />
    <glyph glyph-name="quoteleft" unicode="&#x2018;" 
d="M313 421c0 -22 -16 -51 -52 -51c-44 0 -79 41 -79 115c0 128 107 196 131 196c16 0 33 -15 33 -33s-10 -24 -20 -29c-71 -42 -79 -107 -79 -134c0 -6 0 -12 2 -13c1 -1 12 0 13 0c49 -3 51 -45 51 -51z" />
    <glyph glyph-name="a" unicode="a" 
d="M426 283v-211c19 -7 40 -7 55 -7c16 0 43 0 43 -32c0 -33 -24 -33 -52 -33c-33 0 -87 0 -111 34c-54 -39 -130 -39 -142 -39c-97 0 -166 62 -166 138c0 98 132 145 299 147c0 61 -46 94 -125 94c-9 0 -27 0 -55 -3c0 -48 -31 -54 -47 -54c-24 0 -46 18 -46 47
c0 75 101 75 147 75c140 0 200 -78 200 -156zM352 141v76c-124 -1 -225 -35 -225 -84c0 -40 41 -73 100 -73c4 0 49 0 85 17c40 20 40 41 40 64z" />
    <glyph glyph-name="b" unicode="b" 
d="M168 569v-179c35 29 77 46 124 46c112 0 198 -101 198 -220c0 -126 -97 -221 -208 -221c-44 0 -83 18 -114 48c0 -20 0 -43 -37 -43s-37 23 -37 43v503h-44c-15 0 -42 0 -42 33c0 32 28 32 42 32h76c34 0 42 -9 42 -42zM168 263v-70c0 -52 39 -133 110 -133
c73 0 138 67 138 156c0 87 -59 155 -128 155c-61 0 -120 -49 -120 -108z" />
    <glyph glyph-name="c" unicode="c" 
d="M466 109c0 -15 -31 -114 -174 -114c-123 0 -221 99 -221 221c0 88 61 223 234 223c47 0 149 0 149 -75c0 -27 -20 -47 -47 -47c-16 0 -43 10 -46 44c-1 9 -2 10 -22 12c-4 0 -18 1 -35 1c-128 0 -159 -107 -159 -158c0 -87 69 -156 154 -156c70 0 87 42 94 57
c9 22 23 22 36 22c22 0 37 -9 37 -30z" />
    <glyph glyph-name="d" unicode="d" 
d="M430 569v-504h44c15 0 42 0 42 -33c0 -32 -28 -32 -42 -32h-76c-42 0 -42 17 -42 48c-36 -36 -79 -53 -124 -53c-108 0 -198 97 -198 220c0 125 96 221 207 221c53 0 93 -23 115 -42v152h-44c-15 0 -42 0 -42 33c0 32 28 32 42 32h76c34 0 42 -9 42 -42zM356 195v70
c0 54 -50 106 -110 106c-73 0 -138 -67 -138 -156c0 -87 59 -155 128 -155c75 0 120 81 120 135z" />
    <glyph glyph-name="e" unicode="e" 
d="M422 189h-292c20 -95 104 -129 162 -129c11 0 75 0 99 57c9 22 22 22 36 22c22 0 37 -9 37 -30c0 -24 -45 -114 -179 -114c-128 0 -232 99 -232 223c0 119 95 221 217 221c129 0 194 -96 194 -212c0 -38 -22 -38 -42 -38zM131 253h257c-7 75 -48 121 -118 121
c-57 0 -120 -39 -139 -121z" />
    <glyph glyph-name="f" unicode="f" 
d="M256 366v-301h101c15 0 43 0 43 -33c0 -32 -29 -32 -43 -32h-276c-15 0 -43 0 -43 33c0 32 29 32 43 32h101v301h-97c-15 0 -42 0 -42 32c0 33 27 33 43 33h96v50c0 92 81 135 158 135c15 0 97 0 97 -62c0 -32 -26 -46 -45 -46c-21 0 -42 16 -45 43c-30 0 -91 -1 -91 -74
v-46h117c15 0 42 0 42 -33c0 -32 -28 -32 -42 -32h-117z" />
    <glyph glyph-name="g" unicode="g" 
d="M211 63h71c29 0 213 0 213 -143c0 -88 -107 -148 -233 -148c-127 0 -233 60 -233 148c0 15 3 80 71 122c-2 2 -23 30 -23 72c0 26 10 52 19 68c-18 24 -31 56 -31 93c0 88 74 161 168 161c35 0 69 -11 97 -29c37 29 81 35 104 35c53 0 75 -31 75 -58
c0 -24 -19 -42 -42 -42c-14 0 -35 8 -41 34c-14 -1 -29 -3 -51 -15c17 -26 26 -54 26 -86c0 -88 -74 -161 -168 -161c-31 0 -62 9 -89 24c-5 -9 -5 -21 -5 -25c0 -13 3 -26 12 -35c11 -12 15 -12 31 -12c8 -3 21 -3 29 -3zM233 178c51 0 94 43 94 97s-43 97 -94 97
s-94 -43 -94 -97s43 -97 94 -97zM234 2h-60c-51 -4 -83 -45 -83 -82c0 -43 73 -84 171 -84c101 0 171 43 171 83c0 83 -109 83 -199 83z" />
    <glyph glyph-name="h" unicode="h" 
d="M430 292v-227h44c15 0 42 0 42 -33c0 -32 -28 -32 -42 -32h-150c-15 0 -43 0 -43 33c0 32 29 32 43 32h32v223c0 59 -14 83 -63 83s-125 -35 -125 -133v-173h44c15 0 42 0 42 -33c0 -32 -28 -32 -42 -32h-162c-15 0 -42 0 -42 33c0 32 28 32 42 32h44v481h-44
c-15 0 -42 0 -42 33c0 32 28 32 42 32h76c34 0 42 -9 42 -42v-183c38 33 84 50 131 50c82 0 131 -45 131 -144z" />
    <glyph glyph-name="i" unicode="i" 
d="M312 561c0 -28 -23 -51 -51 -51s-51 23 -51 51s23 51 51 51s51 -23 51 -51zM125 431h145c34 0 42 -9 42 -42v-324h105c15 0 43 0 43 -33c0 -32 -29 -32 -43 -32h-301c-15 0 -42 0 -42 33c0 32 28 32 42 32h122v301h-113c-16 0 -43 0 -43 33c0 32 28 32 43 32z" />
    <glyph glyph-name="j" unicode="j" 
d="M371 561c0 -28 -23 -51 -51 -51s-51 23 -51 51s23 51 51 51s51 -23 51 -51zM167 431h162c34 0 42 -9 42 -42v-430c0 -68 -38 -186 -183 -186c-40 0 -140 0 -140 77c0 32 25 48 47 48c12 0 45 -9 46 -48c0 -8 1 -9 17 -11c15 -1 21 -1 35 -1c23 0 52 0 78 34
c26 36 26 74 26 90v404h-130c-16 0 -42 0 -42 33c0 32 27 32 42 32z" />
    <glyph glyph-name="k" unicode="k" 
d="M289 254l145 -189h31c16 0 42 0 42 -33c0 -32 -27 -32 -42 -32h-120c-14 0 -43 0 -43 32c0 33 24 33 56 33l-113 148l-77 -73v-75h48c15 0 43 0 43 -33c0 -32 -29 -32 -43 -32h-156c-15 0 -43 0 -43 33c0 32 29 32 43 32h48v481h-48c-15 0 -43 0 -43 33c0 32 29 32 43 32
h66c34 0 42 -9 42 -42v-346l152 143h-33c-16 0 -43 0 -43 33c0 32 28 32 43 32h156c16 0 42 0 42 -33c0 -32 -27 -32 -42 -32h-35z" />
    <glyph glyph-name="l" unicode="l" 
d="M299 569v-504h130c16 0 42 0 42 -33c0 -32 -27 -32 -42 -32h-334c-16 0 -42 0 -42 33c0 32 27 32 42 32h130v481h-130c-16 0 -42 0 -42 33c0 32 27 32 42 32h162c34 0 42 -9 42 -42z" />
    <glyph glyph-name="m" unicode="m" 
d="M459 302v-237c35 0 57 0 57 -33c0 -32 -27 -32 -42 -32h-71c-15 0 -42 0 -42 33c0 32 29 32 38 32v230c0 62 -13 76 -33 76c-40 0 -81 -46 -81 -130v-176c35 0 57 0 57 -33c0 -32 -27 -32 -42 -32h-71c-15 0 -42 0 -42 33c0 32 29 32 38 32v230c0 62 -13 76 -33 76
c-40 0 -81 -46 -81 -130v-176c35 0 57 0 57 -33c0 -32 -27 -32 -42 -32h-90c-15 0 -42 0 -42 32c0 33 22 33 57 33v301c-35 0 -57 0 -57 33c0 32 27 32 42 32h33c18 0 38 0 42 -29c29 26 62 34 85 34c54 0 73 -46 75 -50c41 50 89 50 99 50c89 0 89 -112 89 -134z" />
    <glyph glyph-name="n" unicode="n" 
d="M430 292v-227h44c15 0 42 0 42 -33c0 -32 -28 -32 -42 -32h-150c-15 0 -43 0 -43 33c0 32 29 32 43 32h32v223c0 59 -14 83 -63 83s-125 -35 -125 -133v-173h44c15 0 42 0 42 -33c0 -32 -28 -32 -42 -32h-162c-15 0 -42 0 -42 33c0 32 28 32 42 32h44v301h-44
c-15 0 -42 0 -42 33c0 32 28 32 42 32h76c41 0 42 -17 42 -45c38 33 84 50 131 50c82 0 131 -45 131 -144z" />
    <glyph glyph-name="o" unicode="o" 
d="M469 216c0 -124 -95 -221 -207 -221s-207 97 -207 221s94 223 207 223s207 -99 207 -223zM262 60c73 0 133 73 133 163c0 89 -63 151 -133 151c-69 0 -133 -62 -133 -151c0 -90 60 -163 133 -163z" />
    <glyph glyph-name="p" unicode="p" 
d="M212 -222h-162c-15 0 -42 0 -42 33c0 32 28 32 42 32h44v523h-44c-15 0 -42 0 -42 33c0 32 28 32 42 32h76c29 0 42 -5 42 -41c35 29 77 46 124 46c112 0 198 -101 198 -220c0 -126 -97 -221 -208 -221c-44 0 -83 18 -114 48v-200h44c15 0 42 0 42 -33
c0 -32 -28 -32 -42 -32zM168 263v-70c0 -52 39 -133 110 -133c73 0 138 67 138 156c0 87 -59 155 -128 155c-61 0 -120 -49 -120 -108z" />
    <glyph glyph-name="q" unicode="q" 
d="M451 394v-551h48c15 0 43 0 43 -33c0 -32 -29 -32 -43 -32h-170c-15 0 -43 0 -43 33c0 32 29 32 43 32h48v208c-14 -14 -61 -56 -133 -56c-114 0 -206 99 -206 220c0 126 102 221 216 221c52 0 91 -21 123 -51c0 31 0 51 37 51s37 -23 37 -42zM377 193v41
c0 60 -43 137 -119 137c-75 0 -146 -65 -146 -156c0 -87 64 -155 136 -155c80 0 129 78 129 133z" />
    <glyph glyph-name="r" unicode="r" 
d="M224 184v-119h111c15 0 43 0 43 -33c0 -32 -29 -32 -43 -32h-265c-16 0 -43 0 -43 33c0 32 28 32 43 32h80v301h-80c-16 0 -43 0 -43 33c0 32 28 32 43 32h112c34 0 42 -9 42 -42v-31c48 54 111 78 168 78c83 0 95 -45 95 -64c0 -28 -21 -45 -44 -45c-13 0 -41 7 -44 44
c-108 0 -175 -86 -175 -187z" />
    <glyph glyph-name="s" unicode="s" 
d="M429 397v-65c0 -19 0 -42 -37 -42c-8 0 -35 0 -37 28c-1 22 -4 56 -95 56s-123 -28 -123 -54c0 -37 66 -48 108 -54c94 -15 119 -20 159 -45c24 -15 55 -46 55 -95c0 -39 -24 -131 -190 -131c-20 0 -78 0 -128 35c-8 -28 -22 -35 -37 -35c-32 0 -32 27 -32 42v91
c0 20 0 43 37 43c28 0 32 -11 39 -31c20 -59 60 -80 121 -80c96 0 125 35 125 66c0 50 -79 63 -105 67c-103 16 -131 21 -165 42c-12 8 -52 32 -52 85c0 28 15 119 190 119c17 0 66 0 104 -19c3 7 8 19 31 19c32 0 32 -27 32 -42z" />
    <glyph glyph-name="t" unicode="t" 
d="M225 366v-228c0 -24 0 -78 74 -78c34 0 74 22 76 70c1 32 21 34 37 34c11 0 37 0 37 -35c0 -74 -69 -134 -155 -134c-71 0 -143 35 -143 139v232h-84c-15 0 -42 0 -42 32c0 33 27 33 43 33h83v80c0 20 0 43 37 43s37 -23 37 -42v-81h159c15 0 42 0 42 -33
c0 -32 -28 -32 -42 -32h-159z" />
    <glyph glyph-name="u" unicode="u" 
d="M430 389v-324h44c15 0 42 0 42 -33c0 -32 -28 -32 -42 -32h-76c-18 0 -38 0 -42 30c-43 -30 -83 -35 -118 -35c-77 0 -144 26 -144 120v251h-44c-15 0 -42 0 -42 33c0 32 28 32 42 32h76c34 0 42 -9 42 -42v-269c0 -31 0 -60 77 -60c34 0 111 12 111 96v210h-44
c-15 0 -42 0 -42 33c0 32 28 32 42 32h76c34 0 42 -9 42 -42z" />
    <glyph glyph-name="v" unicode="v" 
d="M428 366l-110 -335c-12 -36 -37 -36 -56 -36c-21 0 -44 0 -56 37l-110 334h-29c-16 0 -43 0 -43 33c0 32 28 32 43 32h118c15 0 43 0 43 -33c0 -32 -29 -32 -43 -32h-26l103 -312l103 312h-26c-15 0 -43 0 -43 33c0 32 29 32 43 32h118c16 0 43 0 43 -33
c0 -32 -28 -32 -43 -32h-29z" />
    <glyph glyph-name="w" unicode="w" 
d="M456 366l-58 -333c-7 -38 -29 -38 -47 -38c-41 0 -44 13 -61 73c-6 22 -23 84 -26 112h-1c-1 -14 -2 -34 -25 -115c-17 -60 -20 -70 -63 -70c-20 0 -42 0 -49 38l-58 333c-28 0 -52 0 -52 33c0 32 27 32 42 32h121c15 0 43 0 43 -33c0 -32 -29 -32 -43 -32h-50l50 -289h1
c4 25 17 72 28 109c16 58 20 73 56 73c37 0 41 -16 56 -69c8 -30 24 -86 28 -113h1l46 289h-50c-15 0 -43 0 -43 33c0 32 29 32 43 32h121c15 0 42 0 42 -32c0 -33 -24 -33 -52 -33z" />
    <glyph glyph-name="x" unicode="x" 
d="M289 222l123 -157h40c16 0 42 0 42 -33c0 -32 -27 -32 -42 -32h-119c-15 0 -42 0 -42 32c0 33 24 33 50 33l-82 116l-79 -116c29 0 52 0 52 -33c0 -32 -27 -32 -42 -32h-119c-15 0 -42 0 -42 32c0 33 26 33 42 33h40l119 157l-113 144h-40c-16 0 -42 0 -42 33
c0 32 27 32 42 32h119c15 0 42 0 42 -32c0 -33 -24 -33 -48 -33l69 -93l67 93c-25 0 -49 0 -49 33c0 32 27 32 42 32h119c16 0 42 0 42 -33c0 -32 -27 -32 -42 -32h-40z" />
    <glyph glyph-name="y" unicode="y" 
d="M428 366l-149 -445c-29 -86 -83 -148 -153 -148c-52 0 -83 43 -83 83c0 27 18 46 46 46c18 0 43 -10 45 -45l-7 -19c25 2 54 13 76 53c15 29 38 108 38 109s-4 13 -5 15l-137 351c-18 0 -47 0 -52 2c-9 3 -21 12 -21 31c0 32 29 32 45 32h114c18 0 45 0 45 -32
c0 -15 -7 -26 -20 -31c-6 -2 -31 -2 -46 -2l54 -139c26 -70 46 -122 53 -151h1c5 20 16 54 44 140l49 150c-16 0 -43 0 -48 2c-15 4 -21 18 -21 31c0 32 28 32 45 32h114c17 0 45 0 45 -32c0 -22 -14 -29 -22 -31c-5 -2 -33 -2 -50 -2z" />
    <glyph glyph-name="z" unicode="z" 
d="M457 361l-312 -296h256v38c0 19 0 42 37 42s37 -23 37 -42v-61c0 -34 -9 -42 -42 -42h-357c-20 0 -43 0 -43 37c0 11 0 20 14 33l312 296h-236v-26c0 -19 0 -42 -37 -42s-37 23 -37 42v48c0 35 9 43 43 43h336c20 0 43 0 43 -37c0 -11 0 -20 -14 -33z" />
    <glyph glyph-name="braceleft" unicode="{" 
d="M299 207v-160c0 -27 0 -63 134 -65c8 0 36 -1 36 -32c0 -33 -26 -33 -44 -33c-24 0 -90 2 -135 24c-63 30 -65 76 -65 102v160c0 25 0 67 -134 70c-9 0 -36 1 -36 33c0 31 27 32 37 32c133 2 133 46 133 70v160c0 19 0 68 58 98c50 26 117 28 142 28c18 0 44 0 44 -33
c0 -32 -27 -32 -39 -32c-131 -2 -131 -40 -131 -65v-160c0 -19 0 -67 -56 -99c56 -30 56 -79 56 -98z" />
    <glyph glyph-name="bar" unicode="|" 
d="M300 645v-679c0 -12 0 -49 -38 -49c-37 0 -37 38 -37 49v679c0 12 0 49 38 49c37 0 37 -38 37 -49z" />
    <glyph glyph-name="braceright" unicode="}" 
d="M299 203v-160c0 -19 0 -68 -58 -98c-50 -26 -117 -28 -142 -28c-18 0 -44 0 -44 33c0 32 27 32 39 32c131 2 131 40 131 65v160c0 19 0 67 56 99c-56 30 -56 79 -56 98v160c0 27 0 63 -134 65c-8 0 -36 1 -36 32c0 33 26 33 44 33c24 0 90 -2 135 -24
c63 -30 65 -76 65 -102v-160c0 -25 0 -67 134 -70c9 0 36 -1 36 -33c0 -31 -27 -32 -37 -32c-133 -2 -133 -46 -133 -70z" />
    <glyph glyph-name="asciitilde" unicode="~" 
d="M437 577c0 -10 -2 -20 -49 -57c-28 -21 -55 -33 -79 -33c-34 0 -54 21 -66 33c-17 16 -21 21 -31 21c-19 0 -48 -24 -63 -38c-9 -9 -16 -16 -29 -16c-17 0 -33 17 -33 34c0 10 2 20 49 57c28 21 55 33 79 33c34 0 54 -21 66 -33c17 -16 21 -21 31 -21c19 0 48 24 63 38
c9 9 16 16 29 16c17 0 33 -17 33 -34z" />
    <glyph glyph-name="dieresis" unicode="&#xa8;" 
d="M211 561c0 -34 -28 -51 -51 -51c-31 0 -51 27 -51 51c0 23 20 51 51 51c24 0 51 -18 51 -51zM415 561c0 -23 -20 -51 -51 -51c-24 0 -51 18 -51 51c0 34 28 51 51 51c31 0 51 -27 51 -51z" />
    <glyph glyph-name="space" unicode=" " 
 />
  </font>
</defs>
</svg>
