<?xml version="1.0" standalone="no"?>
<!DOCTYPE svg PUBLIC "-//W3C//DTD SVG 1.1//EN" "http://www.w3.org/Graphics/SVG/1.1/DTD/svg11.dtd" >
<svg>
<metadata>
Created by FontForge 20060822 at Fri Oct  6 18:26:40 2006
 By Wojciech Mula,,,
Copyright (C) 1997 American Mathematical Society. All Rights Reserved
</metadata>
<defs>
<font id="CMTT8" horiz-adv-x="531" >
  <font-face 
    font-family="Computer Modern"
    font-weight="500"
    font-stretch="normal"
    units-per-em="1000"
    panose-1="2 0 6 9 0 0 0 0 0 0"
    ascent="800"
    descent="-200"
    x-height="431"
    cap-height="611"
    bbox="-5 -232 545 699"
    underline-thickness="0"
    underline-position="0"
    stemh="66"
    stemv="76"
    unicode-range="U+0020-U+F6BE"
  />
    <missing-glyph />
    <glyph glyph-name="Gamma" unicode="&#x393;" 
d="M183 545v-479h52c15 0 44 0 44 -33s-29 -33 -44 -33h-161c-14 0 -44 0 -44 33s29 33 44 33h33v479h-33c-14 0 -44 0 -44 33s29 33 44 33h377c33 0 43 -9 43 -43v-74c0 -19 0 -43 -38 -43s-38 24 -38 43v51h-235z" />
    <glyph glyph-name="Delta" unicode="&#x394;" 
d="M325 586l166 -543c4 -11 4 -13 4 -19c0 -24 -24 -24 -37 -24h-386c-13 0 -37 0 -37 24c0 6 0 8 4 19l166 543c12 40 31 40 60 40c30 0 48 0 60 -40zM232 418l-103 -344h272l-103 344c-5 18 -26 86 -33 115h-1c-6 -28 -27 -100 -32 -115z" />
    <glyph glyph-name="Theta" unicode="&#x398;" 
d="M473 305c0 -288 -22 -315 -208 -315c-187 0 -208 27 -208 316c0 288 22 315 208 315c187 0 208 -27 208 -316zM265 56c90 0 111 20 123 76c9 47 9 118 9 174c0 45 0 119 -8 166c-11 61 -31 83 -124 83c-90 0 -111 -20 -123 -76c-9 -47 -9 -118 -9 -174
c0 -45 0 -119 8 -166c11 -61 31 -83 124 -83zM358 331v-51c0 -17 0 -43 -38 -43c-28 0 -36 14 -38 31h-34c-2 -19 -12 -31 -38 -31c-38 0 -38 26 -38 43v51c0 17 0 43 38 43c28 0 36 -14 38 -31h34c2 19 12 31 38 31c38 0 38 -26 38 -43z" />
    <glyph glyph-name="Lambda" unicode="&#x39b;" 
d="M324 587l119 -521c31 0 57 0 57 -33s-29 -33 -44 -33h-108c-15 0 -44 0 -44 33s29 33 44 33h17l-65 290c-4 16 -32 145 -34 173h-2c-2 -28 -29 -152 -34 -173l-65 -290h17c15 0 44 0 44 -33s-29 -33 -44 -33h-108c-15 0 -44 0 -44 33s26 33 57 33l119 521
c9 39 33 39 53 39h12c20 0 44 0 53 -39z" />
    <glyph glyph-name="Xi" unicode="&#x39e;" 
d="M416 546h-302c0 -18 0 -42 -38 -42s-38 24 -38 43v21c0 37 13 43 44 43h367c33 0 43 -9 43 -43v-21c0 -19 0 -43 -38 -43s-38 24 -38 42zM454 0h-377c-33 0 -44 8 -44 43v26c0 19 0 43 38 43s38 -23 38 -47h312c0 24 0 47 38 47s38 -24 38 -43v-26c0 -35 -10 -43 -43 -43
zM187 350h156c1 35 26 35 38 35c38 0 38 -24 38 -43v-49c0 -19 0 -43 -38 -43c-12 0 -37 0 -38 35h-156c-1 -35 -26 -35 -38 -35c-38 0 -38 24 -38 43v49c0 19 0 43 38 43c12 0 37 0 38 -35z" />
    <glyph glyph-name="Pi" unicode="&#x3a0;" 
d="M445 545v-479h21c15 0 44 0 44 -33s-29 -33 -44 -33h-118c-15 0 -44 0 -44 33s29 33 44 33h21v479h-208v-479h21c15 0 44 0 44 -33s-29 -33 -44 -33h-118c-15 0 -44 0 -44 33s29 33 44 33h21v479h-21c-15 0 -44 0 -44 33s29 33 44 33h402c15 0 44 0 44 -33
s-29 -33 -44 -33h-21z" />
    <glyph glyph-name="Sigma" unicode="&#x3a3;" 
d="M272 280l-126 -212h267v51c0 19 0 43 38 43s38 -24 38 -43v-76c0 -35 -10 -43 -43 -43h-361c-13 0 -44 0 -44 31c0 8 2 12 10 25l148 249l-149 246c-9 15 -9 22 -9 27c0 33 29 33 44 33h361c33 0 43 -9 43 -43v-74c0 -19 0 -43 -38 -43s-38 24 -38 43v51h-270l139 -232
c0 -15 0 -17 -10 -33z" />
    <glyph glyph-name="Upsilon" unicode="&#x3a5;" 
d="M303 356v-290h32c16 0 43 0 43 -33s-27 -33 -43 -33h-140c-16 0 -43 0 -43 33s27 33 43 33h32v290c0 49 0 208 -69 208c-42 0 -44 -60 -44 -72c-1 -34 -27 -34 -38 -34c-10 0 -38 0 -38 34c0 61 47 129 119 129c52 0 92 -33 107 -134h1c15 95 52 134 108 134
c72 0 119 -68 119 -129c0 -34 -28 -34 -38 -34c-13 0 -37 0 -38 35c0 13 -3 71 -44 71c-69 0 -69 -159 -69 -208z" />
    <glyph glyph-name="Phi" unicode="&#x3a6;" 
d="M189 611h152c15 0 43 0 43 -33s-28 -33 -43 -33h-38v-94c106 -12 186 -73 186 -146c0 -68 -75 -133 -186 -145v-94h38c15 0 43 0 43 -33s-28 -33 -43 -33h-152c-15 0 -43 0 -43 33s28 33 43 33h38v94c-106 12 -186 73 -186 146c0 68 75 133 186 145v94h-38
c-15 0 -43 0 -43 33s28 33 43 33zM227 227v157c-55 -7 -110 -37 -110 -79c0 -39 51 -71 110 -78zM303 384v-157c55 7 110 37 110 79c0 39 -51 71 -110 78z" />
    <glyph glyph-name="Psi" unicode="&#x3a8;" 
d="M303 545v-315c61 19 75 79 75 137c0 53 8 113 75 113c10 0 39 0 39 -33c0 -19 -10 -31 -31 -33c-7 -18 -7 -30 -7 -46c-1 -60 -15 -184 -151 -207v-95h32c16 0 43 0 43 -33s-27 -33 -43 -33h-140c-16 0 -43 0 -43 33s27 33 43 33h32v95c-96 16 -150 90 -151 201
c0 23 0 34 -7 52c-21 2 -31 14 -31 33c0 33 30 33 40 33c66 0 74 -62 74 -110c0 -44 6 -119 75 -140v315h-32c-16 0 -43 0 -43 33s27 33 43 33h140c16 0 43 0 43 -33s-27 -33 -43 -33h-32z" />
    <glyph glyph-name="Omega" unicode="&#x3a9;" 
d="M497 70v-27c0 -35 -10 -43 -43 -43h-101c-19 0 -44 0 -44 38c0 65 32 140 51 184c29 69 53 126 53 184c0 86 -70 149 -148 149s-148 -63 -148 -149c0 -58 25 -118 52 -180c21 -48 52 -123 52 -189c0 -37 -25 -37 -43 -37h-101c-33 0 -44 8 -44 43v27c0 13 0 43 31 43
s31 -29 31 -47h57c-8 46 -21 76 -54 145c-33 71 -57 131 -57 195c0 122 102 215 224 215s224 -93 224 -215c0 -73 -30 -137 -69 -219c-32 -68 -38 -98 -42 -121h57c0 18 0 47 31 47s31 -30 31 -43z" />
    <glyph glyph-name="arrowup" unicode="&#x2191;" 
d="M304 475v-425c0 -12 0 -50 -39 -50c-38 0 -38 39 -38 50v425c-55 -49 -124 -75 -139 -75c-14 0 -31 12 -31 33c0 13 7 26 21 31c31 12 103 37 155 121c10 17 15 26 33 26c17 0 25 -13 29 -19c53 -90 122 -114 156 -127c15 -5 23 -17 23 -32c0 -21 -17 -33 -31 -33
c-15 0 -84 26 -139 75z" />
    <glyph glyph-name="arrowdown" unicode="&#x2193;" 
d="M304 561v-425c55 49 124 75 139 75c14 0 31 -12 31 -33c0 -13 -7 -26 -21 -31c-30 -11 -104 -38 -155 -121c-9 -16 -15 -26 -32 -26c-18 0 -22 7 -35 29c-51 81 -123 107 -151 117c-15 5 -23 17 -23 32c0 21 17 33 31 33c15 0 84 -26 139 -75v425c0 12 0 50 39 50
c38 0 38 -39 38 -50z" />
    <glyph glyph-name="quotesingle" unicode="'" 
d="M313 561l-14 -196c-1 -12 -4 -38 -34 -38s-33 25 -34 38l-13 193c-2 7 -2 10 -2 16c0 29 23 49 49 49c11 0 52 -3 48 -62z" />
    <glyph glyph-name="exclamdown" unicode="&#xa1;" 
d="M319 335c0 -30 -24 -54 -54 -54s-54 24 -54 54s24 54 54 54s54 -24 54 -54zM211 -168l11 328c1 39 20 39 43 39c24 0 42 -1 43 -39l11 -328c2 -60 -46 -64 -54 -64c-10 0 -56 5 -54 64z" />
    <glyph glyph-name="questiondown" unicode="&#xbf;" 
d="M303 335c0 -30 -24 -54 -54 -54s-54 24 -54 54s24 54 54 54s54 -24 54 -54zM206 138v18c0 40 15 43 43 43c43 0 43 -16 43 -53c0 -35 0 -124 -118 -202c-20 -13 -35 -24 -35 -47c0 -58 92 -58 112 -58c29 0 97 2 129 29c-4 5 -9 15 -9 29c0 29 23 48 48 48
c24 0 49 -16 49 -50c0 -122 -176 -122 -217 -122c-91 0 -188 29 -188 124c0 37 21 72 51 91c43 28 92 69 92 150z" />
    <glyph glyph-name="dotlessi" unicode="&#x131;" 
d="M316 388v-322h101c14 0 44 0 44 -33s-30 -33 -44 -33h-294c-14 0 -44 0 -44 33s29 33 44 33h117v299h-109c-14 0 -44 0 -44 33s29 33 44 33h142c33 0 43 -9 43 -43z" />
    <glyph glyph-name="dotlessj" unicode="&#xf6be;" 
d="M375 388v-427c0 -74 -42 -188 -184 -188c-41 0 -143 0 -143 79c0 34 27 50 49 50c1 0 22 0 36 -17c11 -12 11 -19 11 -43c25 -3 43 -3 51 -3c22 0 52 0 78 34c26 36 26 74 26 90v402h-125c-14 0 -44 0 -44 33s29 33 44 33h158c33 0 43 -9 43 -43z" />
    <glyph glyph-name="grave" unicode="`" 
d="M179 605l129 -50c10 -4 27 -10 27 -31c0 -1 -4 -44 -36 -44c-8 0 -150 54 -161 59c-20 12 -20 30 -20 34c0 20 16 38 38 38c6 0 9 -1 23 -6z" />
    <glyph glyph-name="acute" unicode="&#xb4;" 
d="M223 555l129 50c14 5 15 6 22 6c22 0 38 -18 38 -38c0 -26 -20 -34 -30 -38l-72 -27c-26 -10 -73 -28 -79 -28c-32 0 -36 43 -36 44c0 20 15 26 28 31z" />
    <glyph glyph-name="caron" unicode="&#x2c7;" 
d="M265 523l111 44c13 6 15 6 18 6c31 0 36 -40 36 -44c0 -23 -14 -28 -33 -34c-13 -5 -46 -17 -60 -21c-24 -9 -66 -24 -72 -24c-5 0 -7 0 -20 5l-117 41c-15 5 -28 13 -28 33c0 4 4 44 36 44c3 0 5 0 18 -6z" />
    <glyph glyph-name="breve" unicode="&#x2d8;" 
d="M445 579c0 -76 -106 -76 -180 -76s-180 0 -180 76c0 17 12 32 33 32c23 0 29 -15 32 -21c5 -13 19 -14 47 -16c23 -2 39 -2 68 -2c28 0 45 0 68 2c42 3 44 8 47 16c5 11 13 21 32 21c22 0 33 -16 33 -32z" />
    <glyph glyph-name="macron" unicode="&#xaf;" 
d="M413 513h-295c-16 0 -44 0 -44 34s27 34 43 34h296c16 0 43 0 43 -34s-27 -34 -43 -34z" />
    <glyph glyph-name="ring" unicode="&#x2da;" 
d="M347 561c0 -33 -37 -60 -82 -60s-82 27 -82 60s37 60 82 60s82 -27 82 -60zM265 532c23 0 41 13 41 29s-18 29 -41 29s-41 -13 -41 -29s18 -29 41 -29z" />
    <glyph glyph-name="cedilla" unicode="&#xb8;" 
d="M204 -140h22c25 0 134 0 134 38c0 19 -25 35 -65 37c-35 2 -35 25 -35 45v27c0 20 0 45 38 45s38 -20 38 -55c79 -17 100 -64 100 -99c0 -101 -137 -104 -218 -104c-34 0 -57 0 -57 33s27 33 43 33z" />
    <glyph glyph-name="germandbls" unicode="&#xdf;" 
d="M394 393c41 -29 106 -105 106 -218c0 -110 -92 -180 -183 -180c-63 0 -100 37 -100 78c0 28 21 45 44 45c24 0 44 -18 44 -44c0 -7 0 -9 -1 -11c4 -2 9 -2 13 -2c49 0 107 41 107 114c0 79 -45 184 -148 190c-22 1 -31 17 -31 33c0 31 27 33 39 33c69 3 111 43 111 74
c0 19 -40 45 -105 45c-18 0 -44 -2 -68 -12c-36 -15 -36 -28 -36 -46v-449c0 -35 -10 -43 -43 -43h-83c-14 0 -44 0 -44 33s29 33 44 33h50v299h-50c-14 0 -44 0 -44 33s29 33 44 33h50v66c0 22 0 62 61 93c42 21 85 26 120 26c93 0 180 -41 180 -110
c0 -39 -23 -81 -77 -113z" />
    <glyph glyph-name="ae" unicode="&#xe6;" 
d="M467 188h-169c11 -88 63 -127 98 -127c26 0 44 23 52 49c2 9 7 29 31 29c18 0 31 -14 31 -31c0 -24 -34 -113 -117 -113c-57 0 -96 41 -114 65c-35 -55 -100 -65 -129 -65c-76 0 -120 67 -120 128s51 122 204 128v30c0 66 -37 92 -76 92c-6 0 -15 0 -21 -1
c1 -2 1 -4 1 -10c0 -30 -22 -49 -48 -49c-30 0 -49 22 -49 49c0 43 37 77 118 77c61 0 96 -35 115 -67c23 32 58 67 108 67c70 0 128 -67 128 -208c0 -35 -10 -43 -43 -43zM298 253h149c-6 95 -40 120 -65 120c-36 0 -74 -50 -84 -120zM233 132v20c0 10 0 24 1 34
c-102 -5 -142 -34 -142 -63c0 -27 21 -62 63 -62c12 0 36 3 57 20c21 16 21 32 21 51z" />
    <glyph glyph-name="oe" unicode="&#x153;" 
d="M468 188h-151c11 -94 60 -127 87 -127c25 0 39 27 45 49c2 8 7 29 31 29c18 0 31 -14 31 -31c0 -21 -28 -113 -110 -113c-53 0 -93 39 -117 84c-17 -33 -57 -84 -117 -84c-80 0 -148 93 -148 222c0 128 67 222 148 222c57 0 96 -46 116 -81c20 39 56 81 108 81
c70 0 120 -74 120 -207c0 -33 -7 -44 -43 -44zM317 253h131c-3 67 -24 120 -57 120c-30 0 -65 -50 -74 -120zM167 61c41 0 86 67 86 162c0 94 -47 150 -86 150s-86 -57 -86 -150c0 -95 45 -162 86 -162z" />
    <glyph glyph-name="oslash" unicode="&#xf8;" 
d="M481 518l-76 -129c61 -50 82 -119 82 -173c0 -123 -100 -221 -222 -221c-27 0 -55 5 -81 15c-47 -77 -65 -112 -77 -130c-8 -13 -14 -23 -31 -23c-16 0 -35 13 -35 33c0 7 0 9 15 35l70 119c-48 36 -83 100 -83 172c0 122 98 223 222 223c33 0 63 -8 83 -16l76 130
c4 7 12 21 30 21c15 0 35 -12 35 -33c0 -7 -4 -17 -8 -23zM159 100l155 266c-18 6 -23 7 -49 7c-89 0 -160 -71 -160 -157c0 -35 12 -79 54 -116zM372 332l-155 -264c13 -4 32 -7 48 -7c87 0 160 68 160 155c0 22 -5 75 -53 116z" />
    <glyph glyph-name="AE" unicode="&#xc6;" 
d="M159 178l-23 -112c16 0 45 0 45 -33s-30 -33 -44 -33h-70c-16 0 -43 0 -43 33s26 33 48 33l99 479c-8 0 -39 0 -39 33s29 33 44 33h278c33 0 43 -9 43 -43v-74c0 -13 0 -43 -31 -43s-31 30 -31 43v51h-106v-196h108c15 0 43 0 43 -33s-28 -33 -43 -33h-108v-217h114v66
c0 13 0 43 31 43s31 -30 31 -43v-89c0 -35 -10 -43 -43 -43h-191c-14 0 -44 0 -44 33s31 33 40 33v112h-108zM234 545l-62 -301h95v301h-33z" />
    <glyph glyph-name="OE" unicode="&#x152;" 
d="M327 283v-217h119v66c0 13 0 43 31 43s31 -30 31 -43v-89c0 -35 -10 -43 -43 -43h-163c-10 0 -22 0 -45 -4c-35 -6 -41 -6 -62 -6c-114 0 -138 33 -151 92c-14 60 -14 148 -14 224c0 66 0 162 13 222c14 62 39 93 152 93c18 0 27 0 56 -5s39 -5 51 -5h155
c33 0 43 -9 43 -43v-74c0 -13 0 -43 -31 -43s-31 30 -31 43v51h-111v-196h116c15 0 43 0 43 -33s-28 -33 -43 -33h-116zM265 174v263c0 99 -15 118 -64 118c-109 0 -109 -51 -109 -241c0 -198 0 -258 110 -258c48 0 63 21 63 118z" />
    <glyph glyph-name="Oslash" unicode="&#xd8;" 
d="M203 -9c-10 -30 -12 -40 -14 -47c-5 -13 -11 -32 -33 -32c-11 0 -35 8 -35 33c0 6 11 39 17 59c-42 16 -64 44 -75 130c-6 55 -6 114 -6 172c0 288 22 315 208 315c16 0 47 0 62 -1c10 30 12 40 14 47c5 13 11 32 33 32c11 0 35 -8 35 -33c0 -6 -11 -39 -17 -59
c42 -16 64 -44 75 -130c6 -55 6 -114 6 -172c0 -288 -22 -315 -208 -315c-16 0 -47 0 -62 1zM160 76l147 478c-12 1 -25 1 -42 1c-60 0 -114 -1 -132 -60c-14 -49 -14 -125 -14 -190c0 -199 21 -214 41 -229zM370 535l-147 -478c12 -1 25 -1 42 -1c60 0 114 1 132 60
c14 49 14 125 14 190c0 199 -21 214 -41 229z" />
    <glyph glyph-name="visiblespace" unicode="&#x2420;" 
d="M486 206v-304c0 -31 -6 -36 -36 -36h-370c-31 0 -36 6 -36 36v304c0 16 0 36 23 36s23 -20 23 -36v-294h350v294c0 16 0 36 23 36s23 -20 23 -36z" />
    <glyph glyph-name="exclam" unicode="!" 
d="M319 557l-11 -328c-1 -39 -20 -39 -43 -39c-24 0 -42 1 -43 39l-11 328c-2 60 46 64 54 64c10 0 56 -5 54 -64zM319 54c0 -30 -24 -54 -54 -54s-54 24 -54 54s24 54 54 54s54 -24 54 -54z" />
    <glyph glyph-name="quotedbl" unicode="&#x22;" 
d="M224 573l-15 -207c-1 -15 -3 -39 -34 -39c-30 0 -32 23 -33 43l-15 204c0 35 28 49 48 49c23 0 49 -16 49 -50zM403 574l-15 -205c-1 -19 -3 -42 -33 -42c-31 0 -32 22 -34 43l-15 203c0 34 26 50 49 50c20 0 48 -14 48 -49z" />
    <glyph glyph-name="numbersign" unicode="#" 
d="M399 375l-17 -139h63c12 0 50 0 50 -39c0 -38 -39 -38 -50 -38h-73c-2 -17 -9 -75 -12 -96c-4 -37 -8 -63 -41 -63c-22 0 -39 17 -39 39c0 9 12 103 14 120h-96c-2 -17 -9 -75 -12 -96c-4 -37 -8 -63 -41 -63c-22 0 -39 17 -39 39c0 9 12 103 14 120h-35
c-11 0 -50 0 -50 38c0 39 38 39 50 39h46l17 139h-63c-12 0 -50 0 -50 39c0 38 39 38 50 38h73l14 115c1 11 5 44 39 44c19 0 43 -12 38 -52l-13 -107h96l14 115c1 11 5 44 39 44c19 0 43 -12 38 -52l-13 -107h35c12 0 50 0 50 -39c0 -38 -39 -38 -50 -38h-46zM225 375
l-17 -139h97l17 139h-97z" />
    <glyph glyph-name="dollar" unicode="$" 
d="M298 548v-198c130 -25 173 -112 173 -176c0 -89 -74 -163 -173 -177v-37c0 -15 0 -43 -33 -43s-33 29 -33 43v37c-143 16 -173 116 -173 172c0 38 25 52 49 52c29 0 48 -22 48 -48c0 -16 -7 -29 -16 -36c13 -42 44 -65 92 -73v222c-147 27 -173 119 -173 164
c0 79 70 151 173 164v37c0 14 0 43 33 43s33 -28 33 -43v-36c146 -16 173 -108 173 -161c0 -39 -28 -52 -49 -52c-27 0 -48 21 -48 48c0 24 9 32 15 37c-13 32 -42 53 -91 61zM232 363v184c-74 -14 -103 -59 -103 -92c0 -45 44 -80 103 -92zM298 272v-208
c62 13 103 58 103 104c0 52 -47 92 -103 104z" />
    <glyph glyph-name="percent" unicode="%" 
d="M439 633l-278 -686c-5 -11 -12 -30 -37 -30c-22 0 -39 17 -39 39c0 6 2 11 6 22l276 682c6 15 14 34 40 34c18 0 38 -15 38 -39c0 -6 -2 -11 -6 -22zM495 50c0 -76 -38 -133 -88 -133c-53 0 -89 61 -89 133s36 133 89 133c50 0 88 -57 88 -133zM407 -16c7 0 26 22 26 66
c0 42 -18 66 -27 66c-7 0 -26 -22 -26 -66c0 -42 18 -66 27 -66zM212 560c0 -71 -35 -133 -89 -133c-49 0 -88 56 -88 134c0 71 35 133 89 133c49 0 88 -56 88 -134zM124 494c7 0 26 22 26 67c0 40 -17 66 -27 66c-7 0 -26 -24 -26 -66c0 -43 18 -67 27 -67z" />
    <glyph glyph-name="ampersand" unicode="&#x26;" 
d="M425 365l-52 -134c-7 -19 -34 -84 -58 -121c18 -22 50 -54 81 -54c21 0 32 25 34 50c0 7 2 34 31 34c13 0 31 -7 31 -35c0 -42 -25 -115 -96 -115c-57 0 -101 48 -118 66c-26 -30 -68 -66 -125 -66c-78 0 -125 74 -125 149c0 73 29 102 102 175c-22 62 -28 124 -28 160
c0 94 51 147 110 147c69 0 96 -73 96 -139c0 -27 0 -81 -104 -187c22 -54 68 -124 71 -129c24 44 39 84 83 199c-21 2 -31 14 -31 33c0 33 28 33 43 33h83c15 0 43 0 43 -33s-28 -33 -43 -33h-28zM179 366c35 37 67 78 67 116c0 7 -3 73 -35 73c-21 0 -47 -26 -47 -81
c0 -26 4 -68 15 -108zM157 246l-38 -41c-12 -21 -15 -46 -15 -63c0 -28 10 -86 49 -86c44 0 78 42 85 52c-30 44 -57 91 -81 138z" />
    <glyph glyph-name="quoteright" unicode="&#x2019;" 
d="M283 506c-3 -1 -10 -3 -18 -3c-33 0 -54 26 -54 54c0 26 18 54 55 54c48 0 83 -46 83 -117c0 -130 -110 -200 -136 -200c-17 0 -33 16 -33 34s12 25 22 30c81 46 81 121 81 148z" />
    <glyph glyph-name="parenleft" unicode="(" 
d="M441 -52c0 -13 -9 -31 -33 -31c-33 0 -236 134 -236 389c0 254 203 388 236 388c24 0 33 -18 33 -31c0 -6 -2 -18 -14 -26c-51 -34 -95 -73 -132 -142c-41 -76 -47 -150 -47 -190c0 -80 24 -229 176 -329c6 -4 17 -11 17 -28z" />
    <glyph glyph-name="parenright" unicode=")" 
d="M358 305c0 -254 -203 -388 -236 -388c-23 0 -33 17 -33 31c0 16 8 21 26 34c132 91 167 228 167 324c0 63 -15 130 -46 189c-42 78 -94 116 -132 141c-9 6 -15 16 -15 27c0 14 10 31 33 31c33 0 236 -134 236 -389z" />
    <glyph glyph-name="asterisk" unicode="*" 
d="M435 360l-103 -55l110 -57c12 -8 19 -17 19 -32c0 -26 -21 -37 -36 -37c-7 0 -9 0 -35 15l-92 55c2 -37 3 -79 3 -116c0 -30 -15 -43 -36 -43c-24 0 -36 17 -36 43c0 37 1 79 3 116l-95 -56c-22 -13 -23 -14 -32 -14c-15 0 -36 11 -36 37c0 21 14 29 26 35l103 55
l-104 55c-13 7 -25 13 -25 34c0 26 21 37 36 37c8 0 11 -2 25 -10l102 -60c-2 37 -3 79 -3 116c0 30 15 43 36 43c24 0 36 -17 36 -43c0 -37 -1 -79 -3 -116l95 56c22 13 23 14 32 14c15 0 36 -11 36 -37c0 -21 -14 -29 -26 -35z" />
    <glyph glyph-name="plus" unicode="+" 
d="M304 267v-139c0 -12 0 -50 -39 -50c-38 0 -38 39 -38 50v139h-139c-12 0 -50 0 -50 39c0 38 39 38 50 38h139v139c0 12 0 50 39 50c38 0 38 -39 38 -50v-139h138c12 0 50 0 50 -39c0 -38 -39 -38 -50 -38h-138z" />
    <glyph glyph-name="comma" unicode="," 
d="M284 2c-5 -1 -8 -2 -18 -2c-45 0 -68 35 -68 67c0 36 25 68 68 68c48 0 88 -43 88 -104c0 -115 -106 -170 -140 -170c-18 0 -34 17 -34 34c0 22 19 28 28 31c39 13 63 38 76 76z" />
    <glyph glyph-name="hyphen" unicode="-" 
d="M423 267h-316c-12 0 -50 0 -50 39c0 38 39 38 50 38h316c12 0 50 0 50 -39c0 -38 -39 -38 -50 -38z" />
    <glyph glyph-name="period" unicode="." 
d="M333 67c0 -35 -28 -67 -68 -67c-35 0 -67 28 -67 68c0 35 28 67 68 67c35 0 67 -28 67 -68z" />
    <glyph glyph-name="slash" unicode="/" 
d="M463 631l-328 -686c-5 -11 -13 -28 -38 -28c-18 0 -38 15 -38 39c0 8 1 8 8 24l328 686c5 11 13 28 38 28c18 0 38 -15 38 -39c0 -8 -1 -8 -8 -24z" />
    <glyph glyph-name="zero" unicode="0" 
d="M482 305c0 -182 -103 -315 -217 -315c-113 0 -217 131 -217 316c0 182 103 315 217 315c113 0 217 -131 217 -316zM265 56c77 0 141 116 141 260c0 143 -68 239 -141 239s-141 -97 -141 -239c0 -144 63 -260 141 -260z" />
    <glyph glyph-name="one" unicode="1" 
d="M318 578v-512h89c14 0 44 0 44 -33s-29 -33 -44 -33h-254c-14 0 -44 0 -44 33s29 33 44 33h89v407c-13 -11 -55 -40 -103 -40c-30 0 -36 21 -36 33c0 20 15 32 29 33c31 2 77 6 121 99c5 10 11 23 32 23c33 0 33 -28 33 -43z" />
    <glyph glyph-name="two" unicode="2" 
d="M72 65l211 176c61 51 118 110 118 184c0 84 -73 130 -153 130c-54 0 -95 -28 -112 -65c9 -8 14 -22 14 -34c0 -33 -27 -49 -48 -49c-15 0 -49 9 -49 52c0 85 81 162 199 162c125 0 225 -78 225 -196c0 -89 -56 -154 -113 -206c-33 -29 -113 -91 -186 -153h223
c0 24 0 47 38 47s38 -24 38 -43v-27c0 -35 -10 -43 -43 -43h-337c-15 0 -44 0 -44 33c0 16 6 21 19 32z" />
    <glyph glyph-name="three" unicode="3" 
d="M262 297h-42c-15 0 -43 0 -43 33c0 31 17 32 75 36c32 2 60 4 89 29c35 31 39 68 39 83c0 39 -45 77 -114 77c-8 0 -71 0 -103 -26c4 -6 8 -11 8 -28c0 -27 -21 -48 -48 -48c-26 0 -49 18 -49 50c0 73 72 118 191 118c114 0 191 -65 191 -143c0 -60 -35 -113 -79 -143
c79 -39 109 -104 109 -159c0 -93 -85 -186 -221 -186c-125 0 -221 53 -221 142c0 34 23 51 49 51c29 0 48 -23 48 -48c0 -4 0 -6 -1 -7c-2 -10 -2 -12 -8 -22c-1 -1 -1 -2 -2 -3c38 -47 122 -47 135 -47c91 0 145 62 145 121c0 49 -44 120 -148 120z" />
    <glyph glyph-name="four" unicode="4" 
d="M39 248l227 356c13 21 19 22 44 22h31c34 0 43 -9 43 -43v-349h73c15 0 43 0 43 -33s-28 -33 -43 -33h-73v-102h60c16 0 43 0 43 -33s-27 -33 -43 -33h-182c-16 0 -43 0 -43 33s27 33 43 33h60v102h-249c-38 0 -43 13 -43 44c0 21 0 23 9 36zM106 234h216v338z" />
    <glyph glyph-name="five" unicode="5" 
d="M162 545v-183c44 22 86 26 117 26c118 0 198 -96 198 -198c0 -111 -101 -200 -228 -200c-110 0 -196 66 -196 152c0 36 26 51 49 51c24 0 48 -18 48 -49c0 -15 -8 -28 -12 -32c19 -39 70 -56 111 -56c83 0 152 60 152 134c0 63 -45 132 -123 132c-81 0 -112 -35 -126 -51
c-9 -9 -15 -13 -31 -13c-35 0 -35 26 -35 43v267c0 35 10 43 43 43h269c15 0 43 0 43 -33s-28 -33 -43 -33h-236z" />
    <glyph glyph-name="six" unicode="6" 
d="M129 341c7 6 60 53 147 53c114 0 203 -90 203 -201c0 -120 -100 -203 -212 -203c-97 0 -216 68 -216 310c0 199 137 321 273 321c96 0 135 -55 135 -108c0 -29 -19 -50 -49 -50s-48 23 -48 48c0 12 5 24 10 30c-11 9 -29 14 -49 14c-77 0 -175 -67 -194 -214zM139 182
c16 -61 53 -126 128 -126c72 0 136 57 136 136c0 78 -59 136 -132 136s-134 -49 -134 -106c0 -15 4 -21 4 -30c0 -4 -1 -8 -2 -10z" />
    <glyph glyph-name="seven" unicode="7" 
d="M372 545h-252c0 -24 0 -47 -38 -47s-38 24 -38 43v43c0 19 0 43 38 43c8 0 27 0 34 -16h327c15 0 43 0 43 -33c0 -12 -3 -18 -12 -26c-33 -33 -111 -108 -166 -230c-39 -89 -62 -184 -63 -281c0 -16 -1 -51 -38 -51c-38 0 -38 38 -38 49c0 188 76 367 203 506z" />
    <glyph glyph-name="eight" unicode="8" 
d="M347 329c72 -20 139 -77 139 -154c0 -94 -91 -185 -221 -185s-221 91 -221 185c0 76 66 134 139 154c-13 4 -124 41 -124 131c0 82 85 161 206 161c122 0 206 -80 206 -161c0 -66 -62 -111 -124 -131zM265 363c75 0 130 45 130 96c0 50 -55 96 -130 96s-130 -46 -130 -96
c0 -51 55 -96 130 -96zM265 56c83 0 145 57 145 120c0 67 -65 121 -145 121s-145 -55 -145 -121c0 -62 61 -120 145 -120z" />
    <glyph glyph-name="nine" unicode="9" 
d="M401 270c-7 -6 -60 -53 -147 -53c-114 0 -203 90 -203 201c0 121 104 203 217 203c99 0 211 -71 211 -310c0 -193 -123 -321 -261 -321c-106 0 -147 53 -147 108c0 29 19 50 49 50s48 -23 48 -48c0 -16 -8 -28 -9 -29c21 -15 56 -15 60 -15c91 0 169 91 182 214zM259 283
c69 0 134 46 134 107c0 4 0 9 -1 13c-2 11 -2 13 -2 23c0 11 -24 129 -122 129c-72 0 -141 -54 -141 -137c0 -75 57 -135 132 -135z" />
    <glyph glyph-name="colon" unicode=":" 
d="M333 363c0 -35 -28 -67 -68 -67c-35 0 -67 28 -67 68c0 35 28 67 68 67c35 0 67 -28 67 -68zM333 67c0 -35 -28 -67 -68 -67c-35 0 -67 28 -67 68c0 35 28 67 68 67c35 0 67 -28 67 -68z" />
    <glyph glyph-name="semicolon" unicode=";" 
d="M333 363c0 -35 -28 -67 -68 -67c-35 0 -67 28 -67 68c0 35 28 67 68 67c35 0 67 -28 67 -68zM267 0c-61 2 -69 52 -69 67c0 39 28 68 67 68c48 0 73 -45 73 -102c0 -116 -100 -172 -124 -172c-19 0 -34 17 -34 34c0 20 16 27 22 30c28 13 53 36 65 75z" />
    <glyph glyph-name="less" unicode="&#x3c;" 
d="M167 305l282 -179c11 -7 24 -15 24 -36c0 -23 -19 -39 -38 -39c-1 0 -2 0 -3 1c-10 1 -13 2 -27 11l-325 207c-10 7 -23 15 -23 36c0 20 14 29 23 35l326 207c13 8 18 12 29 12c19 0 38 -16 38 -39c0 -21 -13 -29 -24 -36z" />
    <glyph glyph-name="equal" unicode="=" 
d="M444 343h-358c-10 0 -48 0 -48 38c0 39 40 39 54 39h346c14 0 54 0 54 -39c0 -38 -38 -38 -48 -38zM438 191h-346c-14 0 -54 0 -54 39c0 38 38 38 48 38h358c10 0 48 0 48 -38c0 -39 -40 -39 -54 -39z" />
    <glyph glyph-name="greater" unicode="&#x3e;" 
d="M450 270l-329 -210c-13 -9 -25 -9 -26 -9c-19 0 -38 16 -38 39c0 21 13 29 24 36l282 180l-282 179c-11 7 -24 15 -24 36c0 23 19 39 38 39c1 0 13 0 26 -9l329 -210c10 -7 23 -15 23 -36c0 -20 -13 -29 -23 -35z" />
    <glyph glyph-name="question" unicode="?" 
d="M292 249v-16c0 -40 -15 -43 -43 -43c-43 0 -43 16 -43 53c0 49 2 129 154 210c8 4 32 17 32 39c0 30 -42 58 -137 58c-18 0 -74 0 -104 -30c9 -11 9 -24 9 -28c0 -29 -23 -48 -48 -48c-24 0 -49 16 -49 50c0 54 44 122 192 122c168 0 213 -70 213 -124
c0 -58 -48 -86 -71 -98c-101 -53 -105 -114 -105 -145zM303 54c0 -30 -24 -54 -54 -54s-54 24 -54 54s24 54 54 54s54 -24 54 -54z" />
    <glyph glyph-name="at" unicode="@" 
d="M397 489c-14 35 -46 61 -89 61c-100 0 -202 -99 -202 -245c0 -140 97 -244 203 -244c33 0 68 10 101 40c11 11 14 13 35 13c10 0 41 0 41 -31c0 -32 -87 -88 -176 -88c-144 0 -266 134 -266 311s125 310 264 310c178 0 178 -231 178 -295c0 -175 -100 -215 -148 -215
c-81 0 -148 86 -148 199c0 117 69 200 148 200c25 0 47 -9 59 -16zM338 172c42 0 86 54 86 134c0 77 -43 133 -86 133c-42 0 -86 -54 -86 -134c0 -77 43 -133 86 -133z" />
    <glyph glyph-name="A" unicode="A" 
d="M323 587l119 -521c34 0 60 0 60 -33s-30 -33 -44 -33h-106c-14 0 -44 0 -44 33s27 33 56 33l-20 91h-158l-20 -91c29 0 56 0 56 -33s-30 -33 -44 -33h-106c-14 0 -44 0 -44 33s26 33 60 33l120 521c9 39 26 39 57 39c27 0 49 0 58 -39zM328 223l-49 230
c-6 28 -12 54 -14 75h-1c-3 -44 -54 -267 -63 -305h127z" />
    <glyph glyph-name="B" unicode="B" 
d="M66 611h227c110 0 173 -81 173 -156c0 -63 -46 -114 -107 -135c72 -16 128 -77 128 -152c0 -78 -60 -168 -174 -168h-247c-14 0 -44 0 -44 33s30 33 44 33h24v479h-24c-14 0 -44 0 -44 33s30 33 44 33zM166 351h106c82 0 118 59 118 103c0 29 -19 91 -101 91h-123v-194z
M166 66h124c87 0 121 59 121 104c0 26 -14 115 -115 115h-130v-219z" />
    <glyph glyph-name="C" unicode="C" 
d="M489 578v-137c0 -19 0 -43 -38 -43c-33 0 -36 16 -39 36c-13 75 -66 121 -124 121c-88 0 -171 -104 -171 -250c0 -141 80 -249 172 -249c16 0 117 7 124 121c2 23 24 27 38 27c10 0 38 0 38 -35c0 -94 -90 -179 -204 -179c-134 0 -244 137 -244 316
c0 178 111 315 243 315c41 0 84 -12 127 -44c20 36 24 44 45 44c33 0 33 -28 33 -43z" />
    <glyph glyph-name="D" unicode="D" 
d="M61 611h208c136 0 222 -151 222 -310c0 -160 -89 -301 -222 -301h-208c-17 0 -43 0 -43 33s27 33 43 33h19v479h-19c-16 0 -43 0 -43 33s26 33 43 33zM156 66h92c110 0 167 120 167 235c0 114 -55 244 -167 244h-92v-479z" />
    <glyph glyph-name="E" unicode="E" 
d="M171 283v-217h261v66c0 19 0 43 38 43s38 -24 38 -43v-89c0 -35 -10 -43 -43 -43h-397c-16 0 -43 0 -43 33s27 33 43 33h27v479h-27c-16 0 -43 0 -43 33s27 33 43 33h375c33 0 43 -9 43 -43v-74c0 -19 0 -43 -38 -43s-38 24 -38 43v51h-239v-196h126c0 36 0 56 38 56
s38 -24 38 -43v-92c0 -19 0 -43 -38 -43s-38 20 -38 56h-126z" />
    <glyph glyph-name="F" unicode="F" 
d="M177 273v-207h48c14 0 44 0 44 -33s-29 -33 -44 -33h-154c-16 0 -43 0 -43 33s27 33 43 33h30v479h-30c-16 0 -43 0 -43 33s27 33 43 33h381c33 0 43 -9 43 -43v-74c0 -19 0 -43 -38 -43s-38 24 -38 43v51h-242v-206h130c0 36 0 56 38 56s38 -24 38 -43v-92
c0 -19 0 -43 -38 -43s-38 20 -38 56h-130z" />
    <glyph glyph-name="G" unicode="G" 
d="M454 206v-163c0 -19 0 -43 -38 -43c-12 0 -38 0 -38 36c-20 -18 -60 -46 -115 -46c-120 0 -225 132 -225 316c0 180 104 315 225 315c36 0 75 -10 115 -41c17 34 24 41 43 41c33 0 33 -28 33 -43v-137c0 -19 0 -43 -38 -43c-11 0 -34 0 -38 29c-16 106 -78 128 -111 128
c-76 0 -153 -102 -153 -250c0 -145 75 -249 152 -249c60 0 100 62 110 150h-40c-16 0 -43 0 -43 33s27 33 43 33h122c16 0 43 0 43 -33s-25 -33 -47 -33z" />
    <glyph glyph-name="H" unicode="H" 
d="M445 545v-479h21c15 0 44 0 44 -33s-29 -33 -44 -33h-118c-15 0 -44 0 -44 33s29 33 44 33h21v219h-208v-219h21c15 0 44 0 44 -33s-29 -33 -44 -33h-118c-15 0 -44 0 -44 33s29 33 44 33h21v479h-21c-15 0 -44 0 -44 33s29 33 44 33h118c15 0 44 0 44 -33
s-29 -33 -44 -33h-21v-194h208v194h-21c-15 0 -44 0 -44 33s29 33 44 33h118c15 0 44 0 44 -33s-29 -33 -44 -33h-21z" />
    <glyph glyph-name="I" unicode="I" 
d="M303 545v-479h104c14 0 44 0 44 -33s-29 -33 -44 -33h-284c-14 0 -44 0 -44 33s29 33 44 33h104v479h-104c-14 0 -44 0 -44 33s29 33 44 33h284c14 0 44 0 44 -33s-29 -33 -44 -33h-104z" />
    <glyph glyph-name="J" unicode="J" 
d="M412 545v-409c0 -99 -91 -146 -176 -146c-104 0 -171 43 -171 110c0 30 20 50 49 50s48 -23 48 -48c0 -16 -3 -20 -7 -26c27 -18 69 -20 81 -20c33 0 55 9 72 23c28 21 28 41 28 61v405h-78c-15 0 -44 0 -44 33s29 33 44 33h181c16 0 43 0 43 -33s-27 -33 -43 -33h-27z
" />
    <glyph glyph-name="K" unicode="K" 
d="M282 357l166 -291c26 0 53 0 53 -33s-30 -33 -44 -33h-75c-14 0 -44 0 -44 33c0 19 14 34 38 34l-136 238l-91 -112v-127h19c14 0 44 0 44 -33s-30 -33 -44 -33h-100c-17 0 -43 0 -43 33s27 33 43 33h19v479h-19c-16 0 -43 0 -43 33s26 33 43 33h100c14 0 44 0 44 -33
s-30 -33 -44 -33h-19v-254l204 254c-16 0 -37 5 -37 33c0 33 28 33 43 33h88c14 0 44 0 44 -33s-26 -33 -58 -33z" />
    <glyph glyph-name="L" unicode="L" 
d="M183 545v-479h235v66c0 21 0 43 38 43s38 -22 38 -43v-89c0 -35 -10 -43 -43 -43h-377c-14 0 -44 0 -44 33s29 33 44 33h33v479h-33c-14 0 -44 0 -44 33s29 33 44 33h161c15 0 44 0 44 -33s-29 -33 -44 -33h-52z" />
    <glyph glyph-name="M" unicode="M" 
d="M298 396l57 177c12 38 37 38 57 38h58c14 0 44 0 44 -33s-27 -33 -53 -33v-479c26 0 53 0 53 -33s-29 -33 -44 -33h-80c-14 0 -44 0 -44 33s27 33 53 33v462c0 -10 -90 -287 -96 -300c-10 -19 -29 -24 -38 -24c-32 0 -41 31 -44 39l-71 221c-10 30 -13 41 -18 66h-1v-464
c26 0 53 0 53 -33s-29 -33 -44 -33h-80c-14 0 -44 0 -44 33s27 33 53 33v479c-26 0 -53 0 -53 33s29 33 44 33h58c40 0 48 -13 57 -41l66 -202c12 -37 17 -53 23 -85h1c6 31 33 112 33 113z" />
    <glyph glyph-name="N" unicode="N" 
d="M200 571l134 -371c20 -56 20 -58 41 -121h1v466h-21c-15 0 -44 0 -44 33s29 33 44 33h104c15 0 44 0 44 -33s-29 -33 -44 -33h-21v-502c0 -42 -18 -43 -46 -43c-26 0 -48 0 -62 40l-134 371c-20 56 -20 58 -41 121h-1v-466h21c15 0 44 0 44 -33s-29 -33 -44 -33h-104
c-15 0 -44 0 -44 33s29 33 44 33h21v479h-21c-15 0 -44 0 -44 33s29 33 44 33h70c22 0 45 0 59 -40z" />
    <glyph glyph-name="O" unicode="O" 
d="M473 305c0 -288 -22 -315 -208 -315c-187 0 -208 27 -208 316c0 288 22 315 208 315c187 0 208 -27 208 -316zM265 56c92 0 111 25 122 75c10 50 10 125 10 183c0 54 0 124 -9 169c-13 58 -40 72 -123 72c-74 0 -108 -10 -121 -67c-11 -48 -11 -107 -11 -174
c0 -58 0 -140 12 -191c11 -46 35 -67 120 -67z" />
    <glyph glyph-name="P" unicode="P" 
d="M171 240v-174h27c16 0 43 0 43 -33s-27 -33 -43 -33h-130c-16 0 -43 0 -43 33s27 33 43 33h27v479h-27c-16 0 -43 0 -43 33s27 33 43 33h226c117 0 192 -91 192 -186c0 -92 -73 -185 -192 -185h-123zM171 545v-239h102c95 0 137 67 137 120c0 49 -40 119 -137 119h-102z
" />
    <glyph glyph-name="Q" unicode="Q" 
d="M425 -139h-13c-28 0 -29 1 -48 35c-17 31 -34 63 -49 95c-13 -1 -15 -1 -50 -1c-187 0 -208 27 -208 316c0 288 22 315 208 315c187 0 208 -27 208 -316c0 -47 0 -113 -6 -165c-11 -95 -33 -118 -71 -134c42 -81 36 -67 49 -93c14 -25 14 -27 14 -31
c0 -21 -20 -21 -34 -21zM258 56h23c-17 36 -17 38 -28 56c-1 2 -17 29 -17 38c0 21 21 21 35 21h14c21 0 22 -1 30 -14c11 -18 2 -6 44 -81c10 7 29 21 35 102c3 46 3 84 3 128c0 45 0 119 -8 166c-11 61 -31 83 -124 83c-90 0 -111 -20 -123 -76c-9 -47 -9 -118 -9 -174
c0 -45 0 -119 8 -166c9 -52 24 -83 117 -83z" />
    <glyph glyph-name="R" unicode="R" 
d="M356 304c21 -16 37 -38 47 -62c8 -22 8 -29 8 -92c0 -48 0 -94 25 -94c14 0 16 36 16 43c1 32 30 32 38 32s38 0 38 -34c0 -45 -27 -107 -91 -107c-19 0 -52 6 -75 37c-27 35 -27 70 -27 138c0 40 0 63 -23 82c-30 26 -55 26 -76 26h-75v-207h21c15 0 44 0 44 -33
s-29 -33 -44 -33h-118c-15 0 -44 0 -44 33s29 33 44 33h21v479h-21c-15 0 -44 0 -44 33s29 33 44 33h178c118 0 196 -83 196 -169c0 -60 -37 -111 -82 -138zM230 339c90 0 132 57 132 103s-42 103 -132 103h-69v-206h69z" />
    <glyph glyph-name="S" unicode="S" 
d="M450 578v-127c0 -19 0 -43 -38 -43c-10 0 -33 0 -38 27c-5 31 -19 120 -134 120c-69 0 -116 -46 -116 -94c0 -47 40 -79 78 -90c6 -1 35 -8 72 -16c85 -20 116 -27 154 -66c33 -35 49 -79 49 -121c0 -89 -72 -178 -190 -178c-49 0 -115 10 -162 41
c-10 -38 -27 -41 -39 -41c-33 0 -33 28 -33 43v127c0 18 0 43 38 43c36 0 37 -20 38 -39c6 -99 117 -108 159 -108c75 0 118 54 118 107c0 31 -15 58 -32 74c-24 22 -36 25 -95 38l-40 10c-74 17 -103 23 -144 65c-9 9 -42 48 -42 105c0 89 78 166 187 166
c77 0 120 -29 138 -42c9 35 22 42 39 42c33 0 33 -28 33 -43z" />
    <glyph glyph-name="T" unicode="T" 
d="M303 545v-479h48c14 0 44 0 44 -33s-29 -33 -44 -33h-172c-14 0 -44 0 -44 33s29 33 44 33h48v479h-124v-51c0 -19 0 -43 -38 -43s-38 24 -38 43v74c0 37 13 43 44 43h389c33 0 43 -9 43 -43v-74c0 -19 0 -43 -38 -43s-38 24 -38 43v51h-124z" />
    <glyph glyph-name="U" unicode="U" 
d="M457 545v-339c0 -129 -92 -216 -192 -216s-192 88 -192 216v339h-27c-16 0 -43 0 -43 33s27 33 43 33h130c16 0 43 0 43 -33s-27 -33 -43 -33h-27v-337c0 -100 63 -152 116 -152s116 52 116 152v337h-27c-16 0 -43 0 -43 33s27 33 43 33h130c16 0 43 0 43 -33
s-27 -33 -43 -33h-27z" />
    <glyph glyph-name="V" unicode="V" 
d="M454 545l-130 -516c-10 -39 -32 -39 -59 -39s-49 0 -59 39l-130 516c-31 0 -57 0 -57 33s29 33 44 33h103c15 0 43 0 43 -33s-25 -33 -55 -33l72 -288c13 -52 34 -135 39 -177h1c5 43 26 127 39 181l71 284c-30 0 -55 0 -55 33s28 33 43 33h103c15 0 44 0 44 -33
s-26 -33 -57 -33z" />
    <glyph glyph-name="W" unicode="W" 
d="M478 529l-69 -499c-3 -18 -6 -40 -44 -40c-9 0 -30 0 -41 20c-6 12 -55 232 -59 275h-1c-3 -40 -52 -264 -59 -276c-12 -19 -31 -19 -40 -19c-38 0 -41 21 -44 41l-69 498l-3 16c-16 0 -37 5 -37 33c0 33 28 33 43 33h79c15 0 43 0 43 -33s-28 -33 -43 -33h-22l48 -366
c5 -38 8 -64 10 -96h1c3 70 47 255 53 265c11 19 32 19 41 19c16 0 33 -2 43 -24c2 -3 48 -186 51 -260c3 42 11 100 18 153l41 309h-22c-15 0 -43 0 -43 33s28 33 43 33h79c15 0 43 0 43 -33c0 -20 -13 -31 -29 -33c-8 -1 -9 -2 -11 -16z" />
    <glyph glyph-name="X" unicode="X" 
d="M297 326l139 -260h20c14 0 44 0 44 -33s-29 -33 -44 -33h-104c-14 0 -44 0 -44 33s30 33 44 33l-92 182l-85 -182c16 0 45 0 45 -33s-29 -33 -44 -33h-104c-15 0 -43 0 -43 33s28 33 43 33h20l129 260l-117 219h-20c-14 0 -44 0 -44 33s29 33 44 33h104c14 0 44 0 44 -33
s-30 -33 -42 -33l70 -132l64 132c-16 0 -45 0 -45 33s30 33 44 33h104c14 0 44 0 44 -33s-29 -33 -44 -33h-19z" />
    <glyph glyph-name="Y" unicode="Y" 
d="M448 545l-145 -301v-178h21c15 0 44 0 44 -33s-29 -33 -44 -33h-118c-15 0 -44 0 -44 33s29 33 44 33h21v178l-145 301h-18c-14 0 -44 0 -44 33s29 33 44 33h104c16 0 43 0 43 -33s-26 -33 -44 -33l27 -56c36 -78 63 -136 70 -166h1c8 32 42 103 73 169c8 18 24 52 25 53
c-18 0 -44 0 -44 33s27 33 43 33h104c14 0 44 0 44 -33s-29 -33 -44 -33h-18z" />
    <glyph glyph-name="Z" unicode="Z" 
d="M473 544l-327 -478h265v70c0 19 0 43 38 43s38 -24 38 -43v-93c0 -35 -10 -43 -43 -43h-353c-18 0 -43 0 -43 38c0 15 1 17 9 29l327 478h-248v-51c0 -19 0 -43 -38 -43s-38 24 -38 43v74c0 37 13 43 44 43h335c18 0 43 0 43 -38c0 -15 -1 -17 -9 -29z" />
    <glyph glyph-name="bracketleft" unicode="[" 
d="M446 628h-151v-645h151c15 0 43 0 43 -33s-28 -33 -43 -33h-184c-33 0 -43 9 -43 43v691c0 35 10 43 43 43h184c15 0 43 0 43 -33s-28 -33 -43 -33z" />
    <glyph glyph-name="backslash" unicode="\" 
d="M135 666l329 -686c5 -11 7 -19 7 -24c0 -24 -20 -39 -38 -39c-25 0 -33 17 -38 28l-329 686c-5 11 -7 19 -7 24c0 24 20 39 38 39c25 0 33 -17 38 -28z" />
    <glyph glyph-name="bracketright" unicode="]" 
d="M311 651v-691c0 -35 -10 -43 -43 -43h-184c-15 0 -43 0 -43 33s28 33 43 33h151v645h-151c-15 0 -43 0 -43 33s28 33 43 33h184c33 0 43 -9 43 -43z" />
    <glyph glyph-name="asciicircum" unicode="^" 
d="M286 604l122 -64c12 -6 23 -12 23 -31c0 -10 -11 -43 -37 -43c-7 0 -9 0 -23 9l-106 60l-106 -61c-12 -7 -18 -8 -23 -8c-26 0 -37 33 -37 43c0 20 13 26 24 32l120 62c13 7 15 8 22 8c8 0 12 -2 21 -7z" />
    <glyph glyph-name="underscore" unicode="_" 
d="M423 -99h-316c-12 0 -50 0 -50 39c0 38 39 38 50 38h316c12 0 50 0 50 -39c0 -38 -39 -38 -50 -38z" />
    <glyph glyph-name="quoteleft" unicode="&#x2018;" 
d="M247 469c3 1 10 3 18 3c33 0 54 -26 54 -54c0 -26 -18 -54 -55 -54c-48 0 -83 46 -83 117c0 130 110 200 136 200c17 0 33 -16 33 -34s-12 -25 -22 -30c-81 -46 -81 -121 -81 -148z" />
    <glyph glyph-name="a" unicode="a" 
d="M431 282v-209c10 -4 19 -7 57 -7c14 0 42 0 42 -33s-26 -33 -53 -33c-48 0 -90 3 -111 34c-13 -9 -63 -39 -143 -39c-101 0 -170 64 -170 138c0 123 195 148 302 148c0 55 -43 92 -125 92c-12 0 -29 0 -40 -1c-13 -2 -14 -3 -14 -11c-2 -36 -29 -48 -48 -48
c-30 0 -49 22 -49 49c0 77 103 77 150 77c137 0 202 -74 202 -157zM355 143v74c-116 -1 -226 -31 -226 -84c0 -37 41 -72 100 -72c13 0 52 1 87 19c39 19 39 42 39 63z" />
    <glyph glyph-name="b" unicode="b" 
d="M171 568v-177c36 28 77 45 124 45c112 0 201 -99 201 -220c0 -127 -100 -221 -211 -221c-44 0 -83 17 -114 47c0 -18 0 -42 -38 -42s-38 25 -38 43v502h-41c-16 0 -43 0 -43 33s27 33 43 33h74c33 0 43 -9 43 -43zM171 263v-69c0 -50 37 -133 111 -133
c70 0 138 64 138 155c0 86 -59 154 -129 154c-61 0 -120 -49 -120 -107z" />
    <glyph glyph-name="c" unicode="c" 
d="M470 108c0 -17 -32 -113 -174 -113c-128 0 -224 101 -224 221c0 85 59 223 237 223c46 0 150 0 150 -77c0 -27 -19 -49 -49 -49c-25 0 -46 17 -48 46c0 9 -1 10 -4 11c-5 1 -22 3 -51 3c-127 0 -159 -106 -159 -157c0 -87 70 -155 153 -155c36 0 76 11 94 55
c9 23 23 23 37 23c21 0 38 -9 38 -31z" />
    <glyph glyph-name="d" unicode="d" 
d="M435 568v-502h41c16 0 43 0 43 -33s-27 -33 -43 -33h-74c-43 0 -43 19 -43 47c-29 -28 -71 -52 -124 -52c-110 0 -201 98 -201 220c0 127 99 221 210 221c27 0 69 -5 115 -41v150h-41c-16 0 -43 0 -43 33s27 33 43 33h74c33 0 43 -9 43 -43zM359 197v67
c0 55 -51 106 -110 106c-73 0 -139 -66 -139 -155c0 -88 61 -154 128 -154c75 0 121 79 121 136z" />
    <glyph glyph-name="e" unicode="e" 
d="M427 188h-295c16 -79 89 -127 162 -127c32 0 81 10 101 55c10 22 20 23 37 23c21 0 38 -9 38 -31c0 -25 -44 -113 -181 -113c-136 0 -236 103 -236 222c0 122 97 222 220 222c129 0 197 -93 197 -213c0 -38 -24 -38 -43 -38zM133 253h259c-6 50 -29 120 -119 120
c-66 0 -125 -50 -140 -120z" />
    <glyph glyph-name="f" unicode="f" 
d="M259 365v-299h97c14 0 44 0 44 -33s-30 -33 -44 -33h-270c-14 0 -44 0 -44 33s30 33 44 33h97v299h-97c-15 0 -43 0 -43 33s29 33 44 33h96v49c0 94 83 136 160 136c16 0 100 0 100 -64c0 -32 -26 -48 -47 -48c-18 0 -44 14 -47 46c-42 0 -90 -10 -90 -73v-46h119
c15 0 43 0 43 -33s-28 -33 -43 -33h-119z" />
    <glyph glyph-name="g" unicode="g" 
d="M145 138c-2 -5 -5 -12 -5 -24c0 -1 0 -48 44 -48c29 -4 103 -2 133 -3c107 -4 183 -56 183 -143c0 -88 -108 -148 -235 -148s-235 60 -235 148c0 49 29 98 71 122c-12 15 -24 43 -24 72c0 28 12 55 20 68c-21 26 -32 61 -32 93c0 87 74 161 171 161c51 0 89 -23 98 -29
c35 26 78 34 105 34c51 0 76 -28 76 -59c0 -24 -19 -43 -43 -43c-19 0 -37 11 -43 35c-17 -2 -28 -3 -48 -14c12 -19 25 -50 25 -85c0 -87 -74 -161 -171 -161c-40 0 -73 14 -90 24zM235 179c53 0 95 44 95 96c0 53 -43 96 -95 96c-50 0 -94 -42 -94 -96s44 -96 94 -96z
M237 1h-55c-53 -1 -89 -42 -89 -81c0 -40 71 -83 172 -83c100 0 172 42 172 83c0 81 -112 81 -200 81z" />
    <glyph glyph-name="h" unicode="h" 
d="M435 291v-225h41c16 0 43 0 43 -33s-27 -33 -43 -33h-150c-15 0 -43 0 -43 33s28 33 43 33h33v223c0 59 -15 81 -61 81c-50 0 -127 -36 -127 -132v-172h41c16 0 43 0 43 -33s-27 -33 -43 -33h-158c-16 0 -43 0 -43 33s27 33 43 33h41v479h-41c-16 0 -43 0 -43 33
s27 33 43 33h74c33 0 43 -9 43 -43v-182c10 10 58 50 132 50c82 0 132 -45 132 -145z" />
    <glyph glyph-name="i" unicode="i" 
d="M316 558c0 -30 -24 -54 -54 -54s-54 24 -54 54s24 54 54 54s54 -24 54 -54zM131 431h142c33 0 43 -9 43 -43v-322h101c14 0 44 0 44 -33s-30 -33 -44 -33h-294c-14 0 -44 0 -44 33s29 33 44 33h117v299h-109c-14 0 -44 0 -44 33s29 33 44 33z" />
    <glyph glyph-name="j" unicode="j" 
d="M375 558c0 -30 -24 -54 -54 -54s-54 24 -54 54s24 54 54 54s54 -24 54 -54zM174 431h158c33 0 43 -9 43 -43v-427c0 -74 -42 -188 -184 -188c-41 0 -143 0 -143 79c0 34 27 50 49 50c1 0 22 0 36 -17c11 -12 11 -19 11 -43c25 -3 43 -3 51 -3c22 0 52 0 78 34
c26 36 26 74 26 90v402h-125c-14 0 -44 0 -44 33s29 33 44 33z" />
    <glyph glyph-name="k" unicode="k" 
d="M296 251l145 -185h29c16 0 43 0 43 -33s-27 -33 -43 -33h-117c-14 0 -44 0 -44 33s27 33 53 33l-113 145l-78 -72v-73h45c14 0 44 0 44 -33s-29 -33 -44 -33h-152c-14 0 -44 0 -44 33s29 33 44 33h45v479h-45c-14 0 -44 0 -44 33s29 33 44 33h64c33 0 43 -9 43 -43v-344
l152 141h-28c-16 0 -43 0 -43 33s27 33 43 33h153c16 0 43 0 43 -33s-27 -33 -43 -33h-33l-120 -112z" />
    <glyph glyph-name="l" unicode="l" 
d="M303 568v-502h125c14 0 44 0 44 -33s-29 -33 -44 -33h-326c-14 0 -44 0 -44 33s29 33 44 33h125v479h-125c-14 0 -44 0 -44 33s29 33 44 33h158c33 0 43 -9 43 -43z" />
    <glyph glyph-name="m" unicode="m" 
d="M465 301v-235c32 0 56 0 56 -33s-28 -33 -43 -33h-71c-15 0 -43 0 -43 33s29 33 39 33v230c0 51 -10 74 -31 74c-40 0 -83 -46 -83 -129v-175c32 0 56 0 56 -33s-28 -33 -43 -33h-71c-15 0 -43 0 -43 33s29 33 39 33v230c0 51 -10 74 -31 74c-40 0 -83 -46 -83 -129v-175
c32 0 56 0 56 -33s-28 -33 -43 -33h-88c-15 0 -43 0 -43 33s24 33 56 33v299c-32 0 -56 0 -56 33s28 33 43 33h32c15 0 38 0 44 -28c31 27 64 33 85 33c29 0 57 -13 76 -49c26 34 67 49 100 49c90 0 90 -112 90 -135z" />
    <glyph glyph-name="n" unicode="n" 
d="M435 291v-225h41c16 0 43 0 43 -33s-27 -33 -43 -33h-150c-15 0 -43 0 -43 33s28 33 43 33h33v223c0 59 -15 81 -61 81c-50 0 -127 -36 -127 -132v-172h41c16 0 43 0 43 -33s-27 -33 -43 -33h-158c-16 0 -43 0 -43 33s27 33 43 33h41v299h-41c-16 0 -43 0 -43 33
s27 33 43 33h74c40 0 43 -15 43 -45c10 10 58 50 132 50c82 0 132 -45 132 -145z" />
    <glyph glyph-name="o" unicode="o" 
d="M475 216c0 -125 -96 -221 -210 -221s-210 96 -210 221c0 122 94 223 210 223s210 -101 210 -223zM265 61c72 0 134 71 134 162c0 87 -63 150 -134 150s-134 -63 -134 -150c0 -91 62 -162 134 -162z" />
    <glyph glyph-name="p" unicode="p" 
d="M212 -222h-158c-16 0 -43 0 -43 33s27 33 43 33h41v521h-41c-16 0 -43 0 -43 33s27 33 43 33h74c21 0 43 0 43 -40c36 28 77 45 124 45c112 0 201 -99 201 -220c0 -127 -100 -221 -211 -221c-44 0 -83 17 -114 47v-198h41c16 0 43 0 43 -33s-27 -33 -43 -33zM171 263v-69
c0 -50 37 -133 111 -133c70 0 138 64 138 155c0 86 -59 154 -129 154c-61 0 -120 -49 -120 -107z" />
    <glyph glyph-name="q" unicode="q" 
d="M456 393v-549h45c14 0 44 0 44 -33s-29 -33 -44 -33h-166c-14 0 -44 0 -44 33s29 33 44 33h45v206c-4 -4 -52 -55 -133 -55c-114 0 -210 98 -210 220c0 124 101 221 221 221c53 0 94 -23 122 -50c0 28 0 50 38 50s38 -24 38 -43zM380 194v39c0 62 -44 137 -119 137
c-76 0 -148 -65 -148 -155c0 -86 64 -154 138 -154c76 0 129 73 129 133z" />
    <glyph glyph-name="r" unicode="r" 
d="M226 183v-117h106c16 0 43 0 43 -33s-27 -33 -43 -33h-258c-14 0 -44 0 -44 33s30 33 44 33h76v299h-76c-14 0 -44 0 -44 33s30 33 44 33h109c33 0 43 -9 43 -43v-30c25 25 79 78 171 78c78 0 96 -41 96 -66c0 -29 -21 -47 -46 -47c-16 0 -44 8 -46 47
c-97 0 -175 -78 -175 -187z" />
    <glyph glyph-name="s" unicode="s" 
d="M433 396v-62c0 -19 0 -43 -38 -43c-11 0 -36 0 -38 32c-1 18 -4 50 -94 50c-100 0 -124 -33 -124 -53c0 -36 61 -46 129 -57c70 -12 109 -18 149 -48c38 -29 46 -65 46 -89c0 -37 -22 -131 -192 -131c-20 0 -76 0 -127 33c-10 -30 -28 -33 -38 -33c-33 0 -33 28 -33 43
v89c0 18 0 43 38 43c29 0 33 -12 38 -28c21 -60 61 -81 123 -81c87 0 125 30 125 66c0 49 -77 61 -131 70c-88 14 -193 30 -193 123c0 35 22 119 192 119c23 0 63 0 104 -18c3 6 8 18 31 18c33 0 33 -28 33 -43z" />
    <glyph glyph-name="t" unicode="t" 
d="M228 365v-226c0 -23 0 -78 74 -78c38 0 74 27 76 68c1 25 12 35 38 35c9 0 38 0 38 -34c0 -72 -66 -135 -156 -135c-70 0 -146 34 -146 142v228h-84c-15 0 -43 0 -43 33s29 33 44 33h83v80c0 18 0 43 38 43s38 -24 38 -43v-80h160c15 0 43 0 43 -33s-28 -33 -43 -33h-160
z" />
    <glyph glyph-name="u" unicode="u" 
d="M435 388v-322h41c16 0 43 0 43 -33s-27 -33 -43 -33h-74c-15 0 -39 0 -44 29c-25 -19 -63 -34 -116 -34c-84 0 -147 29 -147 121v249h-41c-16 0 -43 0 -43 33s27 33 43 33h74c33 0 43 -9 43 -43v-269c0 -29 0 -58 77 -58c38 0 111 15 111 94v210h-41c-16 0 -43 0 -43 33
s27 33 43 33h74c33 0 43 -9 43 -43z" />
    <glyph glyph-name="v" unicode="v" 
d="M435 365l-112 -332c-13 -38 -37 -38 -58 -38s-45 0 -58 38l-112 332h-27c-15 0 -43 0 -43 33s28 33 43 33h116c16 0 43 0 43 -33s-27 -33 -43 -33h-23l104 -308l104 308h-23c-16 0 -43 0 -43 33s27 33 43 33h116c15 0 43 0 43 -33s-28 -33 -43 -33h-27z" />
    <glyph glyph-name="w" unicode="w" 
d="M463 365l-59 -331c-7 -39 -30 -39 -48 -39c-42 0 -46 15 -60 65c-21 73 -28 106 -29 118h-1c-2 -19 -3 -31 -28 -118c-15 -53 -19 -65 -62 -65c-24 0 -43 2 -50 40l-59 330c-23 0 -51 0 -51 33s29 33 44 33h118c15 0 43 0 43 -33s-28 -33 -43 -33h-47l48 -286h1
c3 16 5 26 30 112c15 51 19 68 57 68c37 0 42 -16 57 -70c10 -32 25 -84 28 -109h1l46 285h-47c-15 0 -43 0 -43 33s28 33 43 33h118c14 0 44 0 44 -33s-28 -33 -51 -33z" />
    <glyph glyph-name="x" unicode="x" 
d="M293 222l124 -156h38c14 0 44 0 44 -33s-30 -33 -44 -33h-116c-15 0 -43 0 -43 33s27 33 48 33l-82 114l-79 -114c22 0 50 0 50 -33s-29 -33 -44 -33h-115c-14 0 -44 0 -44 33s29 33 44 33h37l121 156l-114 143h-38c-14 0 -44 0 -44 33s30 33 44 33h116c15 0 43 0 43 -33
s-28 -33 -45 -33l68 -90l67 90c-20 0 -47 0 -47 33s28 33 43 33h116c14 0 44 0 44 -33s-30 -33 -44 -33h-37z" />
    <glyph glyph-name="y" unicode="y" 
d="M434 365l-153 -448c-23 -67 -75 -144 -154 -144c-52 0 -84 44 -84 84c0 30 20 48 47 48c24 0 46 -15 47 -47l-9 -19c37 3 63 26 80 60c9 18 35 98 35 101c0 2 -1 5 -4 13l-140 352c-17 0 -45 0 -51 2c-19 6 -21 26 -21 31c0 33 29 33 46 33h111c17 0 46 0 46 -33
c0 -17 -10 -27 -19 -30c-7 -3 -30 -3 -45 -3l58 -147c41 -108 47 -126 50 -140h1c6 25 28 91 43 137c16 46 39 117 51 150c-17 0 -42 0 -49 3c-17 8 -18 27 -18 30c0 33 29 33 46 33h111c17 0 46 0 46 -33c0 -18 -10 -27 -21 -31c-6 -2 -33 -2 -50 -2z" />
    <glyph glyph-name="z" unicode="z" 
d="M462 359l-314 -293h256v35c0 19 0 43 38 43s38 -24 38 -43v-58c0 -35 -10 -43 -43 -43h-361c-18 0 -43 0 -43 37c0 13 0 21 15 35l314 293h-236v-24c0 -19 0 -43 -38 -43s-38 24 -38 43v47c0 37 13 43 44 43h340c18 0 43 0 43 -37c0 -13 0 -21 -15 -35z" />
    <glyph glyph-name="braceleft" unicode="{" 
d="M303 207v-159c0 -24 0 -63 130 -65c14 0 41 -1 41 -33c0 -33 -28 -33 -44 -33c-13 0 -87 0 -139 25c-64 30 -64 82 -64 102v159c0 23 0 68 -129 69c-12 0 -42 0 -42 33c0 34 29 34 45 34c30 0 67 5 91 15c35 15 35 32 35 54v159c0 20 0 73 65 103c52 24 124 24 138 24
c16 0 44 0 44 -33s-28 -33 -40 -33c-131 -2 -131 -41 -131 -65v-159c0 -17 0 -69 -54 -99c54 -28 54 -81 54 -98z" />
    <glyph glyph-name="bar" unicode="|" 
d="M304 644v-677c0 -12 0 -50 -39 -50c-38 0 -38 39 -38 50v677c0 12 0 50 39 50c38 0 38 -39 38 -50z" />
    <glyph glyph-name="braceright" unicode="}" 
d="M303 203v-159c0 -20 0 -68 -56 -99c-46 -25 -116 -28 -146 -28c-16 0 -45 0 -45 33s28 33 40 33c131 2 131 41 131 65v159c0 17 0 69 54 99c-54 28 -54 81 -54 98v159c0 24 0 63 -130 65c-14 0 -41 1 -41 33c0 33 29 33 45 33c11 0 86 0 138 -25c64 -30 64 -82 64 -102
v-159c0 -22 0 -40 37 -55c34 -13 77 -14 91 -14s43 0 43 -34c0 -33 -30 -33 -46 -33c-31 0 -68 -6 -91 -15c-34 -15 -34 -32 -34 -54z" />
    <glyph glyph-name="asciitilde" unicode="~" 
d="M441 577c0 -20 -31 -43 -51 -58c-33 -25 -58 -33 -79 -33c-34 0 -54 20 -71 37c-11 11 -17 17 -24 17c-23 0 -49 -24 -64 -38c-8 -8 -16 -16 -29 -16c-19 0 -34 17 -34 34c0 20 31 43 51 58c33 25 58 33 79 33c34 0 54 -20 71 -37c11 -11 17 -17 24 -17c23 0 49 24 64 38
c8 8 16 16 29 16c19 0 34 -17 34 -34z" />
    <glyph glyph-name="dieresis" unicode="&#xa8;" 
d="M216 559c0 -29 -24 -52 -54 -52c-31 0 -54 25 -54 53c0 25 21 52 54 52c28 0 54 -21 54 -53zM422 559c0 -25 -21 -52 -54 -52c-28 0 -54 21 -54 53c0 29 24 52 54 52c31 0 54 -25 54 -53z" />
    <glyph glyph-name="space" unicode=" " 
 />
  </font>
</defs>
</svg>
