<?xml version="1.0" standalone="no"?>
<!DOCTYPE svg PUBLIC "-//W3C//DTD SVG 1.1//EN" "http://www.w3.org/Graphics/SVG/1.1/DTD/svg11.dtd" >
<svg>
<metadata>
Created by FontForge 20060822 at Fri Oct  6 18:26:47 2006
 By Wojciech Mula,,,
Copyright (C) 1997 American Mathematical Society. All Rights Reserved
</metadata>
<defs>
<font id="CMU10" horiz-adv-x="555" >
  <font-face 
    font-family="Computer Modern"
    font-weight="500"
    font-stretch="normal"
    units-per-em="1000"
    panose-1="2 0 6 3 0 0 0 0 0 0"
    ascent="750"
    descent="-250"
    x-height="442"
    cap-height="683"
    bbox="-14 -250 1054 750"
    underline-thickness="0"
    underline-position="0"
    stemh="31"
    stemv="69"
    unicode-range="U+0020-U+FB04"
  />
    <missing-glyph />
    <glyph glyph-name="ff" unicode="ff" horiz-adv-x="666" 
d="M514 400l20 -320c1 -12 1 -42 1 -55c0 -112 -21 -146 -28 -157c-25 -40 -67 -73 -123 -73c-59 0 -120 30 -120 85c0 35 27 47 46 47c22 0 46 -15 46 -46c0 -25 -15 -41 -39 -46c28 -18 62 -18 66 -18c27 0 49 12 68 39c18 26 18 41 18 99c0 38 -1 54 -3 89l-21 356h-254
l20 -313c1 -23 2 -53 2 -76c0 -42 0 -216 -103 -216c-51 0 -101 35 -101 85c0 35 27 47 46 47c22 0 46 -15 46 -46c0 -30 -22 -44 -43 -47c15 -11 33 -17 52 -17c40 0 40 63 40 87c0 31 -1 67 -3 98l-25 398h-86v31h84c-3 34 -6 83 -6 116c0 47 1 158 155 158
c76 0 133 -32 133 -85c0 -35 -27 -47 -46 -47c-22 0 -46 15 -46 46c0 25 15 41 39 46c-24 14 -56 18 -78 18c-43 0 -62 -15 -70 -22c-12 -9 -20 -16 -20 -74c0 -7 2 -58 8 -156h254l-7 127c0 40 5 79 23 104c15 21 43 43 83 43c52 0 110 -31 110 -85c0 -35 -27 -47 -46 -47
c-22 0 -46 15 -46 46c0 22 12 41 41 46c-25 18 -56 18 -58 18c-23 0 -44 -18 -42 -58l11 -194h104v-31h-102z" />
    <glyph glyph-name="fi" unicode="fi" horiz-adv-x="611" 
d="M191 400l20 -318c1 -16 1 -50 1 -68c0 -44 0 -101 -18 -148c-15 -38 -41 -71 -84 -71c-51 0 -101 35 -101 85c0 35 27 47 46 47c22 0 46 -15 46 -46c0 -30 -22 -44 -43 -47c15 -11 33 -17 52 -17c40 0 40 64 40 85c0 28 -3 86 -4 95l-24 403h-87v31h85
c-1 22 -6 92 -6 107c0 155 104 167 189 167c68 0 175 -14 175 -95c0 -35 -27 -47 -46 -47c-22 0 -46 15 -46 46s23 44 42 47c-38 25 -96 27 -121 27c-124 0 -125 -49 -125 -115c0 -40 4 -96 7 -137h265c23 0 24 -1 24 -24v-297c0 -28 4 -99 49 -99c25 0 42 24 42 107v11
c0 18 0 24 12 24c4 0 12 0 13 -10v-22c0 -81 -14 -132 -69 -132c-45 0 -116 34 -116 125v286h-218z" />
    <glyph glyph-name="fl" unicode="fl" horiz-adv-x="638" 
d="M191 400l20 -315c1 -22 2 -52 2 -74c0 -41 0 -216 -103 -216c-51 0 -101 35 -101 85c0 35 27 47 46 47c22 0 46 -15 46 -46c0 -30 -22 -44 -43 -47c15 -11 33 -17 52 -17c40 0 40 64 40 86c0 31 -1 66 -3 97l-25 400h-86v31h84c-3 35 -6 78 -6 113c0 98 38 161 172 161
c41 0 139 -5 150 -71h1v36c0 23 1 24 24 24h21c23 0 24 -1 24 -24v-560c0 -28 4 -99 49 -99c25 0 42 24 42 107v11c0 18 0 24 12 24c4 0 12 0 13 -10v-22c0 -81 -14 -132 -69 -132c-45 0 -116 34 -116 125v286h-246zM437 431v174s-9 -16 -15 -21c-9 -7 -20 -11 -31 -11
c-22 0 -46 15 -46 46c0 32 25 43 37 46c-36 18 -83 18 -93 18c-107 0 -107 -48 -107 -107c0 -42 4 -97 7 -145h248z" />
    <glyph glyph-name="ffi" unicode="ffi" horiz-adv-x="958" 
d="M525 400l19 -311c1 -16 1 -43 1 -60c0 -35 0 -111 -25 -156c-15 -25 -58 -78 -131 -78c-59 0 -126 27 -126 85c0 35 27 47 46 47c22 0 46 -15 46 -46c0 -25 -15 -41 -39 -46c21 -13 53 -18 72 -18c27 0 54 12 77 47c8 14 15 24 15 91c0 31 -1 69 -3 100l-22 345h-264
l20 -323c1 -16 1 -47 1 -64c0 -48 0 -218 -102 -218c-51 0 -101 35 -101 85c0 35 27 47 46 47c22 0 46 -15 46 -46c0 -30 -22 -44 -43 -47c2 -1 24 -17 51 -17c41 0 41 64 41 82c0 25 -2 61 -4 92l-24 409h-87v31h85l-6 112c0 53 0 162 168 162c102 0 148 -37 148 -85
c0 -35 -27 -47 -46 -47c-22 0 -46 15 -46 46c0 32 25 43 37 46c-33 16 -70 18 -90 18c-104 0 -104 -51 -104 -104l8 -148h264c-2 34 -5 82 -5 103c0 157 98 171 195 171c36 0 182 0 182 -95c0 -35 -27 -47 -46 -47c-22 0 -46 15 -46 46s23 44 42 47c-35 24 -91 27 -128 27
c-120 0 -132 -38 -132 -116l8 -136h278c23 0 24 -1 24 -24v-297c0 -28 4 -99 49 -99c25 0 42 24 42 107v11c0 18 0 24 12 24c4 0 12 0 13 -10v-22c0 -81 -14 -132 -69 -132c-45 0 -116 34 -116 125v286h-231z" />
    <glyph glyph-name="ffl" unicode="ffl" horiz-adv-x="972" 
d="M525 400l19 -309c1 -16 1 -45 1 -62c0 -38 0 -113 -27 -158c-22 -37 -67 -76 -129 -76c-59 0 -126 27 -126 85c0 35 27 47 46 47c22 0 46 -15 46 -46c0 -25 -15 -41 -39 -46c25 -15 60 -18 72 -18c29 0 55 14 76 46c9 14 16 24 16 92c0 31 -1 69 -3 100l-22 345h-264
l19 -322c2 -33 2 -34 2 -65c0 -48 0 -218 -102 -218c-51 0 -101 35 -101 85c0 35 27 47 46 47c22 0 46 -15 46 -46c0 -30 -22 -44 -43 -47c2 -1 24 -17 51 -17c39 0 41 58 41 82c0 26 -2 62 -4 93l-24 408h-87v31h85l-7 117c0 58 10 157 155 157c80 0 134 -34 134 -85
c0 -35 -27 -47 -46 -47c-22 0 -46 15 -46 46c0 25 15 41 39 46c-25 14 -58 18 -78 18c-24 0 -50 -5 -70 -21c-16 -13 -20 -20 -20 -77c0 -18 7 -133 8 -154h264l-6 115c0 121 66 159 172 159c40 0 139 -5 150 -71h1v36c0 23 1 24 24 24h21c23 0 24 -1 24 -24v-560
c0 -28 4 -99 49 -99c25 0 42 24 42 107v11c0 18 0 24 12 24c4 0 12 0 13 -10v-22c0 -81 -14 -132 -69 -132c-45 0 -116 34 -116 125v286h-245zM515 577l8 -146h247v174s-9 -16 -15 -21c-9 -7 -20 -11 -31 -11c-22 0 -46 15 -46 46c0 32 25 43 37 46c-36 18 -83 18 -93 18
c-20 0 -59 -1 -85 -22c-14 -12 -22 -21 -22 -84z" />
    <glyph glyph-name="Gamma" unicode="&#x393;" horiz-adv-x="680" 
d="M582 680l28 -225h-25c-16 135 -37 194 -180 194h-103c-47 0 -49 -7 -49 -40v-530c0 -35 0 -48 95 -48h33v-31c-36 3 -127 3 -168 3c-39 0 -117 0 -152 -3v31h24c77 0 79 11 79 47v524c0 36 -2 47 -79 47h-24v31h521z" />
    <glyph glyph-name="Delta" unicode="&#x394;" horiz-adv-x="888" 
d="M470 698l338 -678c5 -9 5 -11 5 -12c0 -8 -6 -8 -22 -8h-694c-16 0 -22 0 -22 8c0 1 0 3 5 12l338 678c7 13 9 18 26 18s19 -5 26 -18zM412 616l-270 -540h539z" />
    <glyph glyph-name="Theta" unicode="&#x398;" horiz-adv-x="833" 
d="M748 339c0 -204 -153 -361 -332 -361s-332 157 -332 361c0 206 152 366 332 366s332 -160 332 -366zM416 1c97 0 235 85 235 338c0 254 -136 344 -235 344c-98 0 -235 -89 -235 -344c0 -253 138 -338 235 -338zM594 414v-144h-25v34h-306v-34h-25v144h25v-34h306v34h25z
" />
    <glyph glyph-name="Lambda" unicode="&#x39b;" horiz-adv-x="750" 
d="M398 695l200 -621c12 -37 15 -43 91 -43v-31c-39 1 -84 3 -123 3c-38 0 -109 0 -144 -3v31c26 0 85 0 85 30c0 2 0 4 -5 18l-158 492l-150 -466c-5 -14 -5 -17 -5 -22c0 -24 23 -51 77 -52v-31c-31 1 -84 3 -113 3c-9 0 -60 -1 -93 -3v31c70 0 90 39 100 69l192 595
c5 17 7 21 23 21c11 0 17 -2 23 -21z" />
    <glyph glyph-name="Xi" unicode="&#x39e;" horiz-adv-x="722" 
d="M638 677l8 -156h-25c-2 46 -5 68 -12 78c-6 8 -65 8 -76 8h-345c-9 0 -70 0 -76 -8c-6 -10 -10 -31 -12 -78h-25l8 156h555zM78 0l-8 167h25c2 -44 4 -74 12 -87c7 -10 62 -10 80 -10h347c22 0 74 0 80 11c8 14 9 40 12 86h25l-8 -167h-565zM554 438v-172h-25v51h-337
v-51h-25v172h25v-51h337v51h25z" />
    <glyph glyph-name="Pi" unicode="&#x3a0;" horiz-adv-x="805" 
d="M641 602v-524c0 -36 2 -47 79 -47h24v-31c-35 3 -110 3 -148 3s-112 0 -147 -3v31h24c77 0 79 11 79 47v571h-299v-571c0 -36 2 -47 79 -47h24v-31c-35 3 -110 3 -148 3s-112 0 -147 -3v31h24c77 0 79 11 79 47v524c0 36 -2 47 -79 47h-24v31h683v-31h-24
c-77 0 -79 -11 -79 -47z" />
    <glyph glyph-name="Sigma" unicode="&#x3a3;" horiz-adv-x="777" 
d="M400 326l-251 -284h276c157 0 225 27 243 194h25l-28 -236h-555c-15 0 -25 0 -25 11c0 3 0 5 10 16l238 271l-249 362c0 23 2 23 26 23h555l28 -225h-25c-21 158 -71 194 -240 194h-231l205 -296c3 -4 7 -9 7 -14c0 -2 0 -6 -9 -16z" />
    <glyph glyph-name="Upsilon" unicode="&#x3a5;" horiz-adv-x="833" 
d="M461 351v-272c0 -35 0 -48 95 -48h33v-31c-36 3 -132 3 -173 3s-136 0 -172 -3v31h33c95 0 95 14 95 48v272c0 80 -20 277 -158 277c-5 0 -91 0 -99 -80c-1 -5 -1 -13 -15 -13c-16 0 -16 9 -16 17c0 60 40 153 131 153c159 0 194 -200 201 -243h1c15 103 69 243 200 243
c91 0 131 -93 131 -153c0 -8 0 -17 -16 -17c-13 0 -14 7 -15 16c-7 62 -68 77 -99 77c-137 0 -157 -195 -157 -277z" />
    <glyph glyph-name="Phi" unicode="&#x3a6;" horiz-adv-x="777" 
d="M427 135v-56c0 -35 0 -48 95 -48h33v-31c-36 3 -129 3 -170 3s-133 0 -169 -3v31h33c95 0 95 14 95 48v56c-149 15 -260 104 -260 207c0 99 107 191 260 206v56c0 35 0 48 -95 48h-33v31c36 -3 129 -3 170 -3s133 0 169 3v-31h-33c-95 0 -95 -14 -95 -48v-56
c152 -12 266 -103 266 -207c0 -101 -111 -194 -266 -206zM344 158v367c-150 -20 -160 -132 -160 -184c0 -62 18 -164 160 -183zM427 526v-369c151 18 166 125 166 185c0 76 -28 168 -166 184z" />
    <glyph glyph-name="Psi" unicode="&#x3a8;" horiz-adv-x="833" 
d="M455 604v-444c111 26 140 140 141 242c1 145 50 152 89 152h38c16 0 24 0 24 -11c0 -9 -7 -10 -13 -11c-54 -7 -55 -96 -55 -112c-1 -99 -23 -259 -224 -285v-56c0 -35 0 -48 95 -48h33v-31c-36 3 -129 3 -170 3s-133 0 -169 -3v31h33c95 0 95 14 95 48v56
c-68 9 -129 38 -168 92c-48 67 -51 146 -51 169c-1 118 -26 132 -59 136c-6 1 -9 6 -9 11c0 11 10 11 25 11h37c44 0 88 -19 89 -140c0 -65 5 -219 136 -254v444c0 35 0 48 -95 48h-33v31c36 -3 129 -3 170 -3s133 0 169 3v-31h-33c-95 0 -95 -14 -95 -48z" />
    <glyph glyph-name="Omega" unicode="&#x3a9;" horiz-adv-x="777" 
d="M705 162l-33 -162h-159c-23 0 -26 0 -26 21c0 69 32 159 47 201c29 82 56 158 56 233c0 156 -106 228 -202 228c-91 0 -201 -68 -201 -228c0 -75 28 -154 49 -212c23 -64 54 -152 54 -222c0 -21 -3 -21 -25 -21h-160l-33 162h25c5 -25 10 -51 18 -74c5 -15 8 -23 66 -23
h80c-13 56 -45 104 -89 170c-47 71 -88 140 -88 219c0 137 133 251 305 251c169 0 304 -112 304 -251c0 -79 -41 -148 -88 -219c-45 -66 -76 -114 -89 -170h80c58 0 61 8 66 24c9 24 13 47 18 73h25z" />
    <glyph glyph-name="dotlessi" unicode="&#x131;" horiz-adv-x="333" 
d="M316 135c0 -20 -6 -146 -95 -146c-57 0 -104 47 -104 106c0 7 0 12 5 52c6 37 25 179 25 205c0 21 -1 68 -38 68c-53 0 -66 -74 -68 -126c0 -9 -1 -16 -12 -16c-13 0 -13 7 -13 18c0 20 6 146 95 146c57 0 104 -47 104 -106c0 -7 0 -12 -5 -52c-6 -37 -25 -179 -25 -205
c0 -21 1 -68 38 -68c53 0 66 74 68 126c0 9 1 16 12 16c13 0 13 -7 13 -18z" />
    <glyph glyph-name="dotlessj" unicode="&#xf6be;" horiz-adv-x="361" 
d="M255 317v-367c0 -97 -71 -155 -145 -155c-56 0 -110 27 -110 75c0 35 27 47 46 47c22 0 46 -15 46 -46c0 -20 -13 -39 -32 -45c14 -5 33 -9 48 -9c67 0 78 88 78 130v374c0 37 -6 99 -50 99c-36 0 -77 -27 -94 -124c-2 -14 -3 -18 -13 -18c-4 0 -13 0 -13 11
c0 7 18 153 122 153c48 0 117 -36 117 -125z" />
    <glyph glyph-name="grave" unicode="`" 
d="M303 510l-151 122c-10 8 -17 18 -17 30c0 18 18 36 36 36c16 0 27 -13 30 -17l120 -154z" />
    <glyph glyph-name="acute" unicode="&#xb4;" 
d="M403 632l-152 -122l-17 18l120 153c4 6 15 17 30 17c18 0 36 -18 36 -36c0 -12 -8 -23 -17 -30z" />
    <glyph glyph-name="caron" unicode="&#x2c7;" 
d="M278 569l117 69l14 -20l-132 -102l-131 102l14 20z" />
    <glyph glyph-name="breve" unicode="&#x2d8;" 
d="M405 694h22c-2 -105 -72 -172 -150 -172c-74 0 -147 64 -149 172h22c2 -85 65 -134 128 -134c59 0 125 47 127 134z" />
    <glyph glyph-name="macron" unicode="&#xaf;" 
d="M458 559h-361v31h361v-31z" />
    <glyph glyph-name="ring" unicode="&#x2da;" horiz-adv-x="805" 
d="M498 628c0 -44 -39 -87 -96 -87c-51 0 -95 38 -95 88c0 44 39 87 96 87c51 0 95 -38 95 -88zM403 563c43 0 70 20 70 66s-28 65 -71 65s-70 -20 -70 -66s28 -65 71 -65z" />
    <glyph glyph-name="cedilla" unicode="&#xb8;" horiz-adv-x="500" 
d="M312 -22v-33c46 -7 83 -28 83 -71c0 -39 -33 -57 -74 -66c-47 -11 -114 -11 -118 -11h-44v22h31c93 0 136 17 136 55c0 31 -29 54 -83 55v49h69z" />
    <glyph glyph-name="germandbls" unicode="&#xdf;" horiz-adv-x="583" 
d="M183 528l28 -444c1 -16 1 -50 1 -67c0 -37 0 -97 -16 -140c-14 -36 -46 -82 -97 -82c-47 0 -85 40 -85 85c0 35 27 47 46 47c22 0 46 -15 46 -46c0 -17 -7 -44 -48 -46c13 -14 29 -18 40 -18c30 0 51 30 51 99c0 32 -2 66 -4 99l-23 385h-86v31h84c-3 33 -6 80 -6 112
c0 118 59 162 175 162c111 0 182 -67 182 -141c0 -31 -15 -70 -56 -145c-16 -30 -28 -51 -28 -71c0 -27 42 -63 60 -79c30 -26 79 -70 79 -131c0 -81 -68 -149 -154 -149c-63 0 -124 34 -124 91c0 25 19 34 33 34c8 0 32 -6 32 -33c0 -17 -13 -31 -29 -33
c28 -35 76 -37 86 -37c73 0 73 115 73 123c0 32 -11 55 -46 88c-52 47 -52 106 -52 120c0 18 0 33 34 79c12 15 23 30 23 124c0 118 -73 138 -113 138c-44 0 -69 -10 -85 -24c-15 -12 -22 -23 -22 -86c0 -16 0 -29 1 -45z" />
    <glyph glyph-name="ae" unicode="&#xe6;" horiz-adv-x="777" 
d="M475 231h-57c2 -40 4 -95 32 -147c17 -30 51 -73 107 -73s117 33 147 96c6 11 7 13 13 13c5 0 13 -6 13 -12c0 -16 -54 -119 -174 -119c-62 0 -109 36 -138 72v-31c0 -14 0 -41 -29 -41s-29 27 -29 41v36c-25 -43 -64 -77 -113 -77c-84 0 -177 50 -177 138
c0 173 206 256 290 287c3 25 21 28 29 28c29 0 29 -23 29 -57c49 46 100 57 136 57c68 0 129 -42 129 -106c0 -67 -61 -105 -208 -105zM418 253h51c143 0 180 36 180 83s-42 84 -94 84c-41 0 -131 -27 -137 -167zM360 142v248c-84 -35 -207 -123 -207 -267
c0 -21 0 -112 96 -112c29 0 55 16 76 45c11 14 35 50 35 86z" />
    <glyph glyph-name="oe" unicode="&#x153;" horiz-adv-x="777" 
d="M478 231h-55c5 -205 105 -220 134 -220c56 0 117 33 147 96c6 11 7 13 13 13c5 0 13 -6 13 -12c0 -16 -54 -119 -174 -119c-70 0 -127 44 -162 100c-27 -55 -80 -101 -144 -101c-97 0 -180 97 -180 228c0 127 82 227 180 227c50 0 102 -29 138 -89c53 75 127 88 166 88
c68 0 129 -42 129 -106c0 -66 -57 -105 -205 -105zM423 253h50c140 0 176 36 176 83s-42 84 -94 84c-20 0 -125 -5 -132 -167zM250 10c29 0 104 19 104 206c0 184 -74 205 -104 205c-48 0 -73 -51 -80 -70c-17 -43 -17 -92 -17 -136c0 -47 0 -96 19 -139
c7 -17 31 -66 78 -66z" />
    <glyph glyph-name="oslash" unicode="&#xf8;" 
d="M453 522l-63 -118c52 -39 88 -108 88 -189c0 -126 -90 -227 -201 -227c-15 0 -49 1 -94 26l-62 -116c-6 3 -8 3 -19 11l63 118c-52 39 -88 108 -88 189c0 128 92 227 200 227c16 0 50 0 95 -26l62 116c6 -3 8 -3 19 -11zM183 63l173 324c-26 25 -53 34 -78 34
c-38 0 -132 -25 -132 -206c0 -24 0 -101 37 -152zM372 368l-173 -324c26 -25 53 -34 78 -34c38 0 132 25 132 206c0 24 0 101 -37 152z" />
    <glyph glyph-name="AE" unicode="&#xc6;" horiz-adv-x="958" 
d="M901 258l-42 -258h-492v31c66 0 77 0 77 45v237h-161l-75 -210c-5 -13 -5 -14 -5 -22c0 -25 24 -49 74 -50v-31c-32 1 -84 3 -115 3c-40 0 -80 -2 -102 -3v31c70 0 99 28 113 67l198 553c-13 0 -27 1 -40 1h-45v31h559l28 -225h-25c-22 185 -61 194 -225 194
c-22 0 -59 0 -65 -1c-27 -2 -31 -7 -31 -39v-268h84c95 0 103 34 103 117h25v-265h-25c0 83 -8 117 -103 117h-84v-242c0 -33 2 -40 49 -40h95c167 0 181 80 205 227h25zM403 648l-109 -304h150v260c0 16 0 43 -41 44z" />
    <glyph glyph-name="OE" unicode="&#x152;" horiz-adv-x="1069" 
d="M1012 258l-42 -258h-387c-24 0 -39 -2 -76 -11c-45 -10 -61 -11 -80 -11c-170 0 -329 151 -329 361s157 366 330 366c8 0 28 0 70 -9c42 -10 57 -13 85 -13h373l28 -225h-25c-16 135 -38 194 -181 194h-112c-47 0 -49 -7 -49 -40v-242h108c100 0 114 31 114 117h25v-265
h-25c0 86 -14 117 -114 117h-108v-268c0 -33 2 -40 49 -40h110c171 0 186 78 211 227h25zM541 187v309c0 150 -25 187 -110 187c-123 0 -233 -137 -233 -329c0 -200 107 -354 233 -354c85 0 110 37 110 187z" />
    <glyph glyph-name="Oslash" unicode="&#xd8;" horiz-adv-x="833" 
d="M692 724l-68 -100c9 -8 124 -105 124 -285c0 -204 -153 -361 -332 -361c-65 0 -131 21 -189 64l-67 -98l-20 15l68 99c-55 46 -124 143 -124 281c0 206 152 366 332 366c66 0 133 -23 189 -64l67 98zM234 97l347 510c-16 18 -74 76 -165 76c-59 0 -133 -26 -186 -103
c-55 -81 -57 -190 -57 -241c0 -100 15 -180 61 -242zM597 586l-346 -510c34 -40 94 -76 165 -76c73 0 139 38 181 94c54 75 62 171 62 245c0 95 -13 181 -62 247z" />
    <glyph glyph-name="suppress" horiz-adv-x="277" 
d="M262 363l-225 -82l-10 29l225 82z" />
    <glyph glyph-name="exclam" unicode="!" horiz-adv-x="333" 
d="M219 665l-39 -456c-1 -17 -4 -22 -14 -22c-12 0 -13 8 -14 23l-39 455c0 33 27 51 53 51s53 -18 53 -51zM219 53c0 -29 -24 -53 -53 -53s-53 24 -53 53s24 53 53 53s53 -24 53 -53z" />
    <glyph glyph-name="quotedblright" unicode="&#x201d;" 
d="M181 589c0 -118 -83 -194 -94 -194c-5 0 -10 4 -10 11c0 3 0 5 12 17c63 62 70 134 70 166c0 4 0 18 -2 18c-1 0 -2 -1 -3 -3c-6 -6 -20 -16 -40 -16c-36 0 -53 27 -53 53s18 53 53 53c43 0 67 -45 67 -105zM375 589c0 -118 -83 -194 -94 -194c-5 0 -10 4 -10 11
c0 3 0 5 12 17c63 62 70 134 70 166c0 4 0 18 -2 18c-1 0 -2 -1 -3 -3c-6 -6 -20 -16 -40 -16c-36 0 -53 27 -53 53s18 53 53 53c43 0 67 -45 67 -105z" />
    <glyph glyph-name="numbersign" unicode="#" horiz-adv-x="888" 
d="M547 133l-81 -303c-3 -11 -6 -24 -22 -24c-11 0 -20 9 -20 20c0 4 3 16 4 18l78 289h-188l-81 -303c-3 -11 -6 -24 -22 -24c-11 0 -20 9 -20 20c0 4 3 16 4 18l78 289h-160c-14 0 -33 0 -33 20s19 20 34 20h171l40 154h-211c-15 0 -34 0 -34 20s19 20 33 20h224l81 303
c3 11 6 24 22 24c11 0 20 -9 20 -20c0 -4 -3 -16 -4 -18l-78 -289h188l81 303c3 11 6 24 22 24c11 0 20 -9 20 -20c0 -4 -3 -16 -4 -18l-78 -289h160c14 0 33 0 33 -20s-19 -20 -34 -20h-171l-40 -154h211c15 0 34 0 34 -20s-19 -20 -33 -20h-224zM330 173h188l40 154h-188z
" />
    <glyph glyph-name="sterling" unicode="&#xa3;" horiz-adv-x="694" 
d="M339 332v-155c0 -11 0 -40 -13 -75c96 -52 127 -69 178 -69c55 0 107 33 114 100c1 9 2 15 13 15c12 0 12 -8 12 -15c0 -65 -58 -144 -152 -144c-41 0 -77 15 -105 27c-33 16 -40 23 -83 44c-37 -50 -91 -71 -135 -71c-41 0 -84 17 -84 59c0 49 48 91 119 91
c32 0 41 -3 65 -11c2 17 2 24 2 40v164h-60c-21 0 -25 0 -25 16c0 15 5 15 25 15h60v154c0 117 86 189 173 189c105 0 167 -98 167 -181c0 -48 -38 -50 -46 -50c-24 0 -46 17 -46 45c0 32 25 46 46 46c5 0 11 -1 16 -2c-16 65 -66 120 -135 120c-42 0 -106 -29 -106 -159
v-162h89c21 0 24 0 24 -16c0 -15 -4 -15 -24 -15h-89zM257 82c-8 3 -36 13 -67 13c-55 0 -70 -32 -70 -47c0 -26 27 -37 47 -37c38 0 74 28 90 71z" />
    <glyph glyph-name="percent" unicode="%" horiz-adv-x="888" 
d="M804 145c0 -112 -57 -201 -130 -201c-75 0 -147 81 -147 202c0 117 71 201 147 201c71 0 130 -87 130 -202zM675 -34c52 0 104 72 104 180c0 105 -51 179 -104 179c-21 0 -86 -13 -86 -180c0 -166 66 -179 86 -179zM713 712l-506 -753c-8 -11 -10 -15 -20 -15
s-20 9 -20 20c0 2 0 7 9 20l449 669l-1 1c-6 -4 -57 -35 -133 -35c-36 0 -86 5 -151 42c21 -52 21 -99 21 -113c0 -112 -57 -201 -130 -201c-75 0 -147 81 -147 202c0 117 71 201 147 201c32 0 53 -15 72 -32c55 -52 117 -77 187 -77c73 0 140 27 190 95c6 7 11 14 21 14
c11 0 20 -9 20 -20c0 -6 -2 -9 -8 -18zM232 369c52 0 104 72 104 180c0 105 -51 179 -104 179c-21 0 -86 -13 -86 -180c0 -166 66 -179 86 -179z" />
    <glyph glyph-name="ampersand" unicode="&#x26;" horiz-adv-x="833" 
d="M601 466c67 -65 120 -129 120 -226c0 -123 -70 -262 -304 -262c-188 0 -333 109 -333 244c0 46 10 106 53 164c-34 46 -40 96 -40 127c0 116 80 203 171 203c90 0 148 -79 148 -150c0 -45 -36 -49 -46 -49c-24 0 -46 17 -46 45c0 32 25 46 46 46c3 0 11 0 14 -1
c-15 46 -58 87 -115 87c-22 0 -103 -11 -103 -179c0 -19 0 -55 10 -90c21 17 59 36 100 36c54 0 85 -40 85 -75c0 -38 -33 -76 -85 -76c-44 0 -82 21 -97 32c-7 -26 -12 -64 -12 -111c0 -198 169 -231 252 -231c198 0 277 108 277 240c0 52 -16 90 -39 123
c-22 33 -48 63 -77 89c-35 -24 -47 -29 -67 -44c-19 -15 -44 -36 -44 -72c0 -4 0 -28 14 -47c4 26 24 36 41 36c29 0 42 -22 42 -41c0 -24 -16 -42 -42 -42c-47 0 -80 45 -80 94c0 58 49 90 93 117c47 31 109 70 127 160c-4 -1 -9 -2 -13 -2c-22 0 -41 17 -41 41
c0 29 22 42 41 42c6 0 42 -1 42 -46c0 -56 -28 -131 -92 -182zM196 380c11 -16 39 -48 81 -48c34 0 59 23 59 54c0 27 -22 53 -59 53c-11 0 -51 -2 -81 -59z" />
    <glyph glyph-name="quoteright" unicode="&#x2019;" horiz-adv-x="333" 
d="M233 589c0 -118 -83 -194 -94 -194c-5 0 -10 4 -10 11c0 3 0 5 12 17c63 62 70 134 70 166c0 4 0 18 -2 18c-1 0 -2 -1 -3 -3c-6 -6 -20 -16 -40 -16c-36 0 -53 27 -53 53s18 53 53 53c43 0 67 -45 67 -105z" />
    <glyph glyph-name="parenleft" unicode="(" horiz-adv-x="444" 
d="M358 -240c0 -7 -4 -10 -10 -10c-10 0 -96 65 -156 188c-55 113 -66 234 -66 312c0 84 12 195 63 305c59 127 149 195 159 195c6 0 10 -3 10 -10c0 -3 0 -5 -13 -17c-123 -125 -161 -299 -161 -473c0 -153 32 -342 157 -468c17 -17 17 -19 17 -22z" />
    <glyph glyph-name="parenright" unicode=")" horiz-adv-x="444" 
d="M317 250c0 -84 -12 -195 -63 -305c-59 -127 -149 -195 -159 -195c-6 0 -10 4 -10 10c0 3 0 5 13 17c124 126 161 302 161 473c0 209 -57 368 -155 467c-19 18 -19 20 -19 23c0 6 4 10 10 10c10 0 96 -65 156 -188c55 -113 66 -234 66 -312z" />
    <glyph glyph-name="asterisk" unicode="*" 
d="M289 514l14 -156l1 -14c0 -13 -11 -25 -27 -25c-13 0 -26 10 -26 25l15 170l-125 -92c-12 -9 -17 -9 -21 -9c-16 0 -27 15 -27 28c0 17 10 21 22 27l140 67l-142 67c-9 4 -20 9 -20 26c0 13 11 28 27 28c7 0 9 0 21 -10l125 -91l-15 170c0 13 11 25 27 25
c13 0 26 -10 26 -25l-15 -170l125 92c12 9 17 9 21 9c16 0 27 -15 27 -28c0 -17 -10 -21 -22 -27l-140 -67l142 -67c9 -4 20 -9 20 -26c0 -13 -11 -28 -27 -28c-7 0 -9 0 -21 10z" />
    <glyph glyph-name="plus" unicode="+" horiz-adv-x="833" 
d="M436 230v-280c0 -14 0 -33 -20 -33s-20 19 -20 33v280h-279c-14 0 -33 0 -33 20s19 20 33 20h279v280c0 14 0 33 20 33s20 -19 20 -33v-280h279c14 0 33 0 33 -20s-19 -20 -33 -20h-279z" />
    <glyph glyph-name="comma" unicode="," horiz-adv-x="333" 
d="M206 16l-2 -2c-10 -8 -22 -14 -38 -14c-36 0 -53 27 -53 53s18 53 53 53c40 0 64 -41 64 -105c0 -115 -79 -194 -91 -194c-5 0 -10 4 -10 11c0 4 1 5 7 11c44 47 72 108 72 172c0 14 -1 15 -2 15z" />
    <glyph glyph-name="hyphen" unicode="-" horiz-adv-x="388" 
d="M304 187h-265v58h265v-58z" />
    <glyph glyph-name="period" unicode="." horiz-adv-x="333" 
d="M219 53c0 -29 -24 -53 -53 -53s-53 24 -53 53s24 53 53 53s53 -24 53 -53z" />
    <glyph glyph-name="slash" unicode="/" 
d="M466 712l-341 -942c-3 -10 -7 -20 -21 -20c-11 0 -20 9 -20 20c0 2 0 5 5 18l341 942c3 10 7 20 21 20c11 0 20 -9 20 -20c0 -2 0 -5 -5 -18z" />
    <glyph glyph-name="zero" unicode="0" 
d="M485 320c0 -78 -5 -153 -34 -221c-41 -94 -114 -121 -174 -121c-114 0 -158 90 -171 116c-36 75 -36 183 -36 226c0 77 5 154 34 222c43 100 117 124 174 124c52 0 129 -23 171 -118c31 -72 36 -144 36 -228zM277 0c36 0 97 19 115 129c10 58 10 138 10 203
c0 66 0 150 -12 206c-16 75 -68 106 -113 106c-30 0 -96 -16 -114 -117c-10 -55 -10 -125 -10 -195c0 -72 0 -151 11 -211c18 -106 86 -121 113 -121z" />
    <glyph glyph-name="one" unicode="1" 
d="M322 640v-561c0 -37 3 -48 93 -48h32v-31c-35 3 -122 3 -162 3s-127 0 -162 -3v31h32c90 0 93 12 93 48v483c-56 -53 -110 -55 -131 -56v31c82 3 143 49 182 129c23 0 23 -2 23 -26z" />
    <glyph glyph-name="two" unicode="2" 
d="M139 71c10 7 25 7 35 7c16 0 41 -1 91 -11c43 -7 88 -15 119 -15c40 0 96 22 103 112c1 9 10 9 12 9c13 0 13 -7 13 -18c0 -49 -23 -177 -125 -177c-37 0 -72 17 -109 37c-36 20 -72 41 -108 41c-35 0 -44 -37 -46 -64c0 -7 -1 -14 -12 -14c-13 0 -13 7 -13 17
c0 58 24 108 40 136c34 59 84 91 112 108c76 48 137 114 137 207c0 180 -107 198 -139 198c-98 0 -153 -109 -153 -210c0 -39 12 -76 44 -76c47 0 71 61 71 112c0 11 0 30 -22 56c-2 3 -4 6 -4 10c0 7 5 11 10 11c10 0 38 -36 38 -76c0 -61 -29 -135 -93 -135
c-43 0 -69 41 -69 98c0 104 58 232 180 232s220 -104 220 -224c0 -94 -99 -159 -200 -220c-35 -21 -101 -61 -132 -151z" />
    <glyph glyph-name="three" unicode="3" 
d="M236 350h28c97 0 138 55 138 145c0 131 -88 149 -126 149c-86 0 -167 -59 -167 -143c0 -34 19 -67 51 -67c23 0 51 17 51 47c0 17 -10 32 -20 44c-6 7 -6 9 -6 11c0 7 5 11 10 11c11 0 38 -36 38 -66c0 -42 -37 -69 -73 -69c-42 0 -76 38 -76 90c0 93 89 164 193 164
c110 0 194 -79 194 -171c0 -61 -38 -135 -126 -164c101 -39 126 -120 126 -169c0 -103 -99 -184 -220 -184c-109 0 -181 83 -181 162c0 47 39 50 46 50c23 0 46 -17 46 -46c0 -26 -18 -46 -46 -46c-8 0 -10 0 -13 1c23 -65 86 -99 146 -99c48 0 86 21 109 51
c24 30 30 68 30 113c0 31 0 155 -116 155h-34c-19 0 -26 0 -26 16c0 15 5 15 24 15z" />
    <glyph glyph-name="four" unicode="4" 
d="M395 196v-179c6 -1 15 -1 21 -1c16 0 39 2 70 12c6 2 6 3 9 3c7 0 17 -12 17 -17c0 -16 -66 -29 -96 -29c-6 0 -15 0 -21 1v-134c0 -14 0 -46 -35 -46c-34 0 -34 33 -34 46v149c-38 12 -46 16 -70 23c-43 12 -65 12 -86 12c-66 0 -73 -6 -88 -20c-8 -7 -16 -15 -22 -15
c-7 0 -17 10 -17 17c0 17 24 31 35 37c3 2 38 36 76 93c98 150 117 353 117 464v8c0 13 0 46 34 46c35 0 35 -31 35 -48c0 -203 -71 -400 -206 -552c9 1 25 1 35 1c48 0 63 -3 157 -34v163c0 12 0 46 34 46c35 0 35 -32 35 -46z" />
    <glyph glyph-name="five" unicode="5" 
d="M160 564v-195c36 35 79 51 127 51c108 0 190 -100 190 -219c0 -127 -102 -223 -218 -223c-112 0 -181 97 -181 183c0 46 35 53 49 53c33 0 50 -25 50 -49s-17 -49 -50 -49c-11 0 -14 1 -17 2c17 -59 74 -112 147 -112c46 0 83 26 107 65c24 42 24 102 24 137
c0 50 -2 89 -18 126c-8 18 -33 64 -85 64c-81 0 -118 -54 -129 -70c-4 -6 -6 -9 -13 -9c-14 0 -14 8 -14 26v296c0 16 0 24 10 24c2 0 4 0 12 -3c47 -21 93 -28 133 -28c67 0 116 20 136 29c5 3 7 3 8 3c7 0 10 -5 10 -11c0 -13 -70 -104 -193 -104c-32 0 -65 7 -85 13z" />
    <glyph glyph-name="six" unicode="6" 
d="M160 352v-24c20 48 57 99 125 99c111 0 200 -96 200 -223c0 -132 -95 -226 -206 -226c-93 0 -209 71 -209 338c0 221 135 350 263 350c83 0 127 -48 127 -108c0 -39 -30 -48 -46 -48c-22 0 -46 15 -46 46c0 45 40 45 55 45c-22 34 -64 40 -88 40
c-51 0 -175 -36 -175 -289zM279 6c23 0 69 5 99 65c17 36 17 86 17 134c0 49 0 100 -18 137c-31 62 -77 62 -93 62c-90 0 -122 -100 -122 -178c0 -18 0 -98 18 -145c6 -15 36 -75 99 -75z" />
    <glyph glyph-name="seven" unicode="7" 
d="M46 445l49 204c3 14 6 17 15 17c5 0 12 -1 12 -11c0 -4 -11 -49 -16 -70l1 -1c31 45 81 82 140 82c40 0 52 -28 68 -66c14 -35 24 -51 47 -51c39 0 74 32 109 104c5 11 6 13 14 13c3 0 12 0 12 -9c0 -2 0 -4 -5 -14c-25 -57 -115 -254 -115 -589v-21c0 -12 0 -55 -44 -55
c-16 0 -45 9 -45 49c0 194 77 398 132 517l-1 1c-15 -11 -36 -18 -57 -18c-28 0 -46 17 -66 37s-30 28 -49 28c-20 0 -132 -4 -179 -162c-2 -7 -6 -8 -12 -8c-3 0 -12 0 -12 10c0 2 0 4 2 13z" />
    <glyph glyph-name="eight" unicode="8" 
d="M337 362c64 -40 80 -50 99 -71c38 -42 49 -87 49 -123c0 -107 -95 -190 -208 -190c-105 0 -207 67 -207 173c0 99 86 155 144 184c-25 17 -62 42 -73 54c-42 47 -44 92 -44 110c0 93 81 167 181 167c91 0 180 -57 180 -149c0 -66 -49 -118 -121 -155zM191 457l124 -80
c60 35 99 83 99 140c0 72 -64 124 -137 124c-71 0 -136 -42 -136 -103c0 -17 4 -51 50 -81zM237 320c-85 -47 -117 -111 -117 -169c0 -83 72 -145 158 -145c82 0 157 52 157 126c0 61 -47 91 -75 110z" />
    <glyph glyph-name="nine" unicode="9" 
d="M395 286v32c-23 -58 -64 -100 -125 -100c-112 0 -200 98 -200 223c0 75 23 117 64 162c43 45 92 63 147 63c89 0 204 -68 204 -337c0 -215 -122 -351 -251 -351c-85 0 -139 41 -139 108c0 39 30 48 46 48c22 0 46 -15 46 -46c0 -17 -8 -46 -52 -46c27 -34 81 -36 98 -36
c58 0 162 46 162 280zM271 241c88 0 122 97 122 180c0 46 -4 109 -16 141c-17 45 -50 79 -96 79c-35 0 -73 -13 -100 -63c-21 -37 -21 -84 -21 -138c0 -49 0 -99 18 -136c31 -63 77 -63 93 -63z" />
    <glyph glyph-name="colon" unicode=":" horiz-adv-x="333" 
d="M219 378c0 -29 -24 -53 -53 -53s-53 24 -53 53s24 53 53 53s53 -24 53 -53zM219 53c0 -29 -24 -53 -53 -53s-53 24 -53 53s24 53 53 53s53 -24 53 -53z" />
    <glyph glyph-name="semicolon" unicode=";" horiz-adv-x="333" 
d="M219 378c0 -29 -24 -53 -53 -53s-53 24 -53 53s24 53 53 53s53 -24 53 -53zM200 11c-8 -7 -19 -9 -26 -10c-1 -1 -3 -1 -8 -1c-36 0 -53 27 -53 53s18 53 53 53c54 0 56 -74 56 -103c0 -116 -72 -196 -83 -196c-5 0 -10 4 -10 11c0 3 0 5 7 13c64 74 64 152 64 180z" />
    <glyph glyph-name="exclamdown" unicode="&#xa1;" horiz-adv-x="333" 
d="M219 447c0 -29 -24 -53 -53 -53s-53 24 -53 53s24 53 53 53s53 -24 53 -53zM180 290l38 -444l1 -11c0 -33 -27 -51 -53 -51s-53 18 -53 51l39 456c1 17 4 22 14 22c12 0 13 -8 14 -23z" />
    <glyph glyph-name="equal" unicode="=" horiz-adv-x="833" 
d="M714 327h-596c-15 0 -34 0 -34 20s19 20 33 20h598c14 0 33 0 33 -20s-19 -20 -34 -20zM715 133h-598c-14 0 -33 0 -33 20s19 20 34 20h596c15 0 34 0 34 -20s-19 -20 -33 -20z" />
    <glyph glyph-name="questiondown" unicode="&#xbf;" 
d="M331 447c0 -29 -24 -53 -53 -53s-53 24 -53 53s24 53 53 53s53 -24 53 -53zM161 68l126 115c24 22 33 30 33 56c0 23 -15 52 -44 52c-26 0 -64 -20 -69 -68c-1 -10 -1 -15 -12 -15s-13 6 -13 14c0 42 39 91 94 91c49 0 85 -45 85 -97c0 -46 -23 -68 -37 -82
c-13 -12 -45 -40 -57 -52l-69 -63c-17 -16 -46 -42 -46 -93c0 -63 54 -120 126 -120c92 0 152 85 165 174c-5 -2 -13 -3 -18 -3c-22 0 -46 15 -46 46s24 46 46 46c9 0 46 -3 46 -51c0 -108 -70 -234 -193 -234c-95 0 -167 76 -167 165c0 55 27 96 50 119z" />
    <glyph glyph-name="question" unicode="?" 
d="M394 432l-126 -115c-24 -22 -33 -30 -33 -56c0 -23 15 -52 44 -52c26 0 64 20 69 68c1 10 1 15 12 15s13 -5 13 -14c0 -41 -39 -91 -94 -91c-49 0 -85 45 -85 97c0 46 23 68 37 82c13 12 45 40 57 52l69 63c17 16 46 42 46 93c0 63 -54 120 -126 120
c-92 0 -152 -85 -165 -174c5 2 13 3 18 3c22 0 46 -15 46 -46s-24 -46 -46 -46c-9 0 -46 3 -46 51c0 108 70 234 193 234c95 0 167 -76 167 -165c0 -55 -27 -96 -50 -119zM331 53c0 -29 -24 -53 -53 -53s-53 24 -53 53s24 53 53 53s53 -24 53 -53z" />
    <glyph glyph-name="at" unicode="@" horiz-adv-x="833" 
d="M615 457v-241c0 -15 0 -66 35 -66c66 0 73 90 73 182c0 242 -172 351 -307 351c-167 0 -307 -148 -307 -336c0 -179 131 -336 311 -336c137 0 239 48 272 64c5 3 7 3 23 3h9c16 0 23 0 23 -10c0 -16 -121 -51 -158 -60c-62 -14 -121 -19 -167 -19
c-203 0 -338 172 -338 358c0 200 150 358 332 358c164 0 332 -136 332 -367c0 -107 -14 -210 -102 -210c-38 0 -90 19 -100 71c-33 -46 -82 -71 -131 -71c-104 0 -198 94 -198 219s93 219 198 219c62 0 112 -38 141 -85h35c23 0 24 -1 24 -24zM546 261v172c0 18 0 20 -13 39
c-40 63 -93 72 -116 72c-70 0 -131 -85 -131 -197s60 -197 131 -197c21 0 73 8 115 69c14 22 14 23 14 42z" />
    <glyph glyph-name="A" unicode="A" horiz-adv-x="805" 
d="M426 696l216 -625c11 -33 25 -40 85 -40h18v-31c-42 2 -88 3 -131 3c-38 0 -108 0 -144 -3v31c27 0 83 0 83 30c0 4 -2 10 -3 14l-53 153h-247l-46 -131c-1 -2 -2 -12 -2 -15c0 -26 25 -51 75 -51v-31c-32 1 -84 3 -115 3c-36 0 -79 -2 -102 -3v31c54 1 94 16 112 67
l207 598c5 14 8 20 24 20s18 -7 23 -20zM373 584l-112 -325h225z" />
    <glyph glyph-name="B" unicode="B" horiz-adv-x="763" 
d="M64 683h366c130 0 222 -82 222 -169c0 -74 -69 -138 -166 -157c111 -12 193 -87 193 -174c0 -94 -90 -183 -223 -183h-392v31h24c77 0 79 11 79 47v527c0 36 -2 47 -79 47h-24v31zM250 366h145c111 0 160 84 160 148c0 53 -35 138 -132 138h-124c-47 0 -49 -7 -49 -40
v-246zM299 31h125c103 0 155 82 155 153c0 67 -42 160 -141 160h-188v-273c0 -33 2 -40 49 -40z" />
    <glyph glyph-name="C" unicode="C" horiz-adv-x="777" 
d="M693 681v-237c0 -21 0 -24 -16 -24c-14 0 -14 3 -16 17c-20 146 -109 237 -218 237c-61 0 -256 -34 -256 -333c0 -298 196 -332 257 -332c109 0 216 82 224 225c1 10 1 16 12 16c13 0 13 -7 13 -17c0 -116 -98 -255 -261 -255c-186 0 -348 157 -348 364
c0 204 161 363 348 363c96 0 147 -50 184 -86l50 74c8 12 12 12 16 12c11 0 11 -7 11 -24z" />
    <glyph glyph-name="D" unicode="D" horiz-adv-x="819" 
d="M63 683h365c172 0 306 -157 306 -347c0 -187 -136 -336 -306 -336h-365v31h24c77 0 79 11 79 47v527c0 36 -2 47 -79 47h-24v31zM301 31h100c80 0 139 36 174 80c45 55 59 127 59 225c0 104 -16 171 -51 223c-31 45 -91 93 -182 93h-100c-47 0 -49 -7 -49 -40v-541
c0 -33 2 -40 49 -40z" />
    <glyph glyph-name="E" unicode="E" horiz-adv-x="736" 
d="M679 258l-42 -258h-576v31h24c77 0 79 11 79 47v524c0 36 -2 47 -79 47h-24v31h562l28 -225h-25c-16 140 -43 194 -196 194h-128c-47 0 -49 -7 -49 -40v-240h89c97 0 108 31 108 117h25v-265h-25c0 86 -11 117 -108 117h-89v-267c0 -33 2 -40 49 -40h132
c173 0 195 73 220 227h25z" />
    <glyph glyph-name="F" unicode="F" horiz-adv-x="708" 
d="M609 680l28 -225h-25c-16 137 -40 194 -190 194h-120c-47 0 -49 -7 -49 -40v-253h86c96 0 105 34 105 117h25v-265h-25c0 84 -10 117 -105 117h-86v-246c0 -35 0 -48 95 -48h33v-31c-36 3 -127 3 -168 3c-39 0 -117 0 -152 -3v31h24c77 0 79 11 79 47v524
c0 36 -2 47 -79 47h-24v31h548z" />
    <glyph glyph-name="G" unicode="G" horiz-adv-x="840" 
d="M693 198v-174c0 -15 0 -23 -9 -23c-11 0 -51 40 -64 62c-39 -66 -126 -85 -187 -85c-189 0 -349 159 -349 364c0 204 161 363 348 363c96 0 147 -50 184 -86l50 74c8 12 12 12 16 12c11 0 11 -7 11 -24v-237c0 -21 0 -24 -16 -24c-14 0 -14 3 -16 17
c-20 146 -109 237 -218 237c-64 0 -256 -37 -256 -332c0 -299 198 -333 262 -333c28 0 155 9 155 121v64c0 37 -3 48 -93 48h-32v31c36 -3 121 -3 161 -3c30 0 85 2 122 3v-31c-65 0 -69 -5 -69 -44z" />
    <glyph glyph-name="H" unicode="H" horiz-adv-x="805" 
d="M641 605v-527c0 -36 2 -47 79 -47h24v-31c-35 3 -110 3 -148 3s-112 0 -147 -3v31h24c77 0 79 11 79 47v262h-299v-262c0 -36 2 -47 79 -47h24v-31c-35 3 -110 3 -148 3s-112 0 -147 -3v31h24c77 0 79 11 79 47v527c0 36 -2 47 -79 47h-24v31c35 -3 110 -3 148 -3
s112 0 147 3v-31h-24c-77 0 -79 -11 -79 -47v-234h299v234c0 36 -2 47 -79 47h-24v31c35 -3 110 -3 148 -3s112 0 147 3v-31h-24c-77 0 -79 -11 -79 -47z" />
    <glyph glyph-name="I" unicode="I" horiz-adv-x="416" 
d="M253 605v-527c0 -36 3 -47 82 -47h26v-31c-35 3 -114 3 -153 3c-38 0 -117 0 -152 -3v31h26c79 0 82 11 82 47v527c0 36 -3 47 -82 47h-26v31c35 -3 114 -3 153 -3c38 0 117 0 152 3v-31h-26c-79 0 -82 -11 -82 -47z" />
    <glyph glyph-name="J" unicode="J" horiz-adv-x="569" 
d="M329 148v456c0 35 0 48 -98 48h-36v31c38 -3 126 -3 168 -3c47 0 85 1 129 3v-31c-63 0 -77 0 -77 -41v-444c0 -34 0 -36 -1 -44c-11 -77 -86 -145 -185 -145c-90 0 -160 61 -160 134c0 44 34 58 56 58c28 0 56 -20 56 -56c0 -56 -54 -56 -65 -56c36 -54 96 -58 110 -58
c54 0 103 57 103 148z" />
    <glyph glyph-name="K" unicode="K" horiz-adv-x="833" 
d="M428 419l230 -340c30 -45 52 -48 105 -48v-31c-42 2 -80 3 -115 3c-39 0 -107 0 -143 -3v31c20 0 59 0 59 30c0 13 -12 31 -13 32l-183 270l-115 -110v-175c0 -36 2 -47 79 -47h24v-31c-35 3 -110 3 -148 3s-112 0 -147 -3v31h24c77 0 79 11 79 47v527c0 36 -2 47 -79 47
h-24v31c35 -3 110 -3 148 -3s112 0 147 3v-31h-24c-77 0 -79 -11 -79 -47v-318l313 299c14 14 17 26 17 32c0 13 -9 33 -46 34v31c34 -3 91 -3 127 -3c27 0 59 0 85 3v-31c-77 -1 -120 -41 -151 -70c-8 -7 -26 -25 -33 -32c-47 -43 -101 -93 -137 -131z" />
    <glyph glyph-name="L" unicode="L" horiz-adv-x="680" 
d="M610 258l-28 -258h-521v31h24c77 0 79 11 79 47v527c0 36 -2 47 -79 47h-24v31c35 -3 113 -3 152 -3c41 0 132 0 168 3v-31h-33c-95 0 -95 -14 -95 -48v-533c0 -33 2 -40 49 -40h82c176 0 190 125 201 227h25z" />
    <glyph glyph-name="M" unicode="M" horiz-adv-x="972" 
d="M269 661l217 -560l218 563c7 18 7 19 33 19h169v-31h-24c-77 0 -79 -11 -79 -47v-527c0 -36 2 -47 79 -47h24v-31c-37 3 -104 3 -143 3s-107 0 -144 -3v31h24c77 0 79 11 79 47v574h-1l-245 -631c-6 -14 -8 -21 -18 -21c-11 0 -13 6 -19 21l-242 623h-1v-539
c0 -27 0 -74 103 -74v-31c-35 1 -84 3 -117 3s-82 -2 -117 -3v31c103 0 103 47 103 74v500c0 36 -2 47 -79 47h-24v31h169c23 0 26 0 35 -22z" />
    <glyph glyph-name="N" unicode="N" horiz-adv-x="805" 
d="M260 670l353 -519v427c0 27 0 74 -103 74v31c35 -1 84 -3 117 -3s82 2 117 3v-31c-103 0 -103 -47 -103 -74v-552c0 -19 0 -26 -14 -26c-7 0 -8 1 -17 13l-408 600c-4 6 -5 7 -10 12v-520c0 -27 0 -74 103 -74v-31c-35 1 -84 3 -117 3s-82 -2 -117 -3v31
c103 0 103 47 103 74v522c0 19 -1 20 -24 23c-15 1 -35 2 -50 2h-29v31h170c19 0 20 -1 29 -13z" />
    <glyph glyph-name="O" unicode="O" horiz-adv-x="833" 
d="M748 339c0 -204 -153 -361 -332 -361s-332 157 -332 361c0 206 152 366 332 366s332 -160 332 -366zM416 4c93 0 229 85 229 349c0 259 -146 327 -229 327s-229 -67 -229 -327c0 -264 136 -349 229 -349z" />
    <glyph glyph-name="P" unicode="P" horiz-adv-x="736" 
d="M255 316v-238c0 -36 2 -47 79 -47h24v-31c-35 3 -110 3 -148 3s-112 0 -147 -3v31h24c77 0 79 11 79 47v527c0 36 -2 47 -79 47h-24v31h353c135 0 235 -88 235 -186c0 -101 -108 -181 -228 -181h-168zM252 342h138c158 0 158 108 158 155c0 49 0 155 -158 155h-89
c-47 0 -49 -7 -49 -40v-270z" />
    <glyph glyph-name="Q" unicode="Q" horiz-adv-x="833" 
d="M545 6c29 -76 57 -97 96 -97c42 0 85 29 91 84c1 10 2 18 11 18c11 0 11 -11 11 -21c0 -48 -17 -184 -121 -184c-91 0 -105 86 -122 187c-37 -11 -64 -15 -95 -15c-179 0 -332 157 -332 361c0 206 152 366 332 366s332 -160 332 -366c0 -134 -68 -269 -203 -333zM350 16
c-1 2 -14 21 -14 48c0 43 33 84 81 84c64 0 94 -56 113 -106c42 30 118 108 118 297c0 258 -139 341 -232 341c-94 0 -232 -83 -232 -341c0 -206 90 -294 166 -323zM505 26c-11 53 -31 100 -87 100c-40 0 -60 -35 -60 -62c0 -14 8 -61 58 -61c30 0 61 8 89 23z" />
    <glyph glyph-name="R" unicode="R" horiz-adv-x="791" 
d="M463 340c55 -19 104 -52 122 -116l13 -80c14 -93 22 -144 71 -144c25 0 60 18 66 89c1 7 1 16 12 16c13 0 13 -11 13 -17c0 -28 -17 -110 -95 -110c-30 0 -85 6 -126 42c-41 38 -41 78 -41 143c0 67 0 98 -38 134c-35 34 -77 34 -93 34h-115v-253c0 -36 2 -47 79 -47h24
v-31c-36 3 -107 3 -146 3s-110 0 -146 -3v31h24c77 0 79 11 79 47v527c0 36 -2 47 -79 47h-24v31h314c147 0 261 -84 261 -180c0 -78 -78 -139 -175 -163zM363 353c148 0 172 81 172 150c0 145 -112 149 -202 149c-20 0 -49 0 -59 -2c-22 -3 -22 -15 -22 -38v-259h111z" />
    <glyph glyph-name="S" unicode="S" horiz-adv-x="611" 
d="M246 415l130 -31c80 -19 150 -97 150 -201c0 -107 -80 -205 -196 -205c-90 0 -153 37 -184 70c-33 -53 -36 -56 -36 -57c-7 -11 -8 -13 -15 -13c-11 0 -11 7 -11 24v200c0 18 0 25 13 25c3 0 11 0 12 -10c1 -36 4 -101 64 -156c42 -37 105 -52 156 -52
c85 0 137 72 137 145c0 75 -51 127 -98 140l-123 30c-147 36 -161 151 -161 189c0 104 83 192 195 192c104 0 155 -65 159 -70l35 57c7 12 8 13 15 13c11 0 11 -7 11 -24v-201c0 -19 0 -24 -13 -24c-11 0 -11 6 -12 12c-6 46 -28 209 -195 209c-78 0 -135 -61 -135 -133
c0 -69 52 -117 102 -129z" />
    <glyph glyph-name="T" unicode="T" horiz-adv-x="777" 
d="M694 677l19 -225h-25c-14 161 -29 194 -180 194c-19 0 -46 0 -57 -2c-18 -4 -18 -18 -18 -38v-527c0 -34 0 -48 105 -48h40v-31c-41 3 -144 3 -190 3s-148 0 -189 -3v31h40c105 0 105 14 105 48v527c0 23 0 34 -21 38c-10 2 -36 2 -54 2c-151 0 -166 -33 -180 -194h-25
l19 225h611z" />
    <glyph glyph-name="U" unicode="U" horiz-adv-x="805" 
d="M610 231v347c0 27 0 74 -103 74v31c36 -1 84 -3 119 -3c34 0 82 2 118 3v-31c-103 0 -103 -45 -103 -78v-320c0 -40 0 -49 -3 -69c-17 -114 -107 -207 -222 -207c-136 0 -252 109 -252 250v377c0 36 -2 47 -79 47h-24v31c35 -3 110 -3 148 -3s112 0 147 3v-31h-24
c-77 0 -79 -11 -79 -47v-381c0 -190 118 -215 165 -215c95 0 192 80 192 222z" />
    <glyph glyph-name="V" unicode="V" horiz-adv-x="805" 
d="M649 585l-223 -588c-5 -14 -7 -19 -24 -19c-13 0 -18 3 -25 22l-232 614c-14 38 -33 38 -98 38v31c36 -1 79 -3 127 -3c38 0 107 0 143 3v-31c-25 0 -82 0 -82 -29c0 -2 0 -4 6 -18l191 -505l183 482c2 6 5 12 5 20c0 23 -21 49 -73 50v31c26 -1 84 -3 114 -3
c26 0 66 1 97 3v-31c-68 -1 -95 -30 -109 -67z" />
    <glyph glyph-name="W" unicode="W" horiz-adv-x="1083" 
d="M936 585l-191 -587c-4 -13 -6 -20 -20 -20c-13 0 -16 10 -19 19l-165 507l-165 -506c-4 -13 -6 -20 -20 -20c-13 0 -16 10 -19 19l-200 613c-12 37 -16 42 -91 42v31c41 -1 84 -3 122 -3s106 0 142 3v-31c-26 0 -84 0 -84 -30c0 -3 1 -10 2 -13l161 -492l139 428l-23 71
c-12 36 -33 36 -90 36v31c41 -1 84 -3 122 -3s106 0 142 3v-31c-26 0 -84 0 -84 -30c0 -5 2 -11 3 -15l160 -490l150 461c2 6 5 14 5 21c0 19 -20 52 -87 53v31c26 -1 90 -3 119 -3c30 0 61 1 91 3v-31c-39 0 -82 -10 -100 -67z" />
    <glyph glyph-name="X" unicode="X" horiz-adv-x="805" 
d="M430 386l211 -319c21 -31 42 -36 94 -36h19v-31c-42 2 -88 3 -130 3c-38 0 -111 0 -146 -3v31c43 1 65 18 65 30c0 3 -3 7 -5 11l-158 239l-142 -210c-7 -11 -10 -15 -10 -24c0 -18 17 -45 63 -46v-31c-36 3 -91 3 -128 3c-33 0 -75 -2 -111 -3v31c101 0 131 46 145 66
l164 242l-184 278c-19 28 -38 35 -93 35h-19v31c37 -2 99 -3 130 -3c38 0 111 0 146 3v-31c-43 -1 -65 -18 -65 -30c0 -4 5 -12 7 -15l129 -193l114 169c7 11 9 13 9 23c0 23 -22 45 -62 46v31c40 -3 88 -3 128 -3c25 0 72 2 111 3v-31c-89 -1 -123 -33 -145 -65z" />
    <glyph glyph-name="Y" unicode="Y" horiz-adv-x="805" 
d="M638 587l-193 -314v-193c0 -39 3 -49 80 -49h23v-31c-36 3 -107 3 -146 3s-110 0 -146 -3v31h24c77 0 79 11 79 47v195l-210 342c-16 26 -24 37 -92 37h-18v31c42 -2 88 -3 130 -3c39 0 112 0 148 3v-31c-45 0 -70 -4 -70 -25c0 -5 0 -7 7 -17l181 -295l165 268
c4 6 10 19 10 30c0 20 -16 39 -57 39v31c26 -1 84 -3 115 -3c27 0 67 1 98 3v-31c-32 0 -91 -4 -128 -65z" />
    <glyph glyph-name="Z" unicode="Z" horiz-adv-x="666" 
d="M575 648l-388 -614h164c185 0 204 94 212 233h25l-17 -267h-461c-21 0 -26 0 -26 17c0 8 0 9 7 20l389 615h-157c-164 0 -194 -81 -201 -194h-25l11 225h448c20 0 26 0 26 -16c0 -7 0 -8 -7 -19z" />
    <glyph glyph-name="bracketleft" unicode="[" horiz-adv-x="333" 
d="M282 -250h-136v1000h136v-40h-96v-920h96v-40z" />
    <glyph glyph-name="quotedblleft" unicode="&#x201c;" 
d="M300 447c0 -26 -18 -53 -53 -53c-43 0 -67 45 -67 105c0 118 83 194 94 194c5 0 10 -4 10 -11c0 -3 0 -5 -12 -17c-63 -62 -70 -134 -70 -166c0 -4 0 -18 2 -18c1 0 2 1 3 3c6 6 20 16 40 16c36 0 53 -27 53 -53zM494 447c0 -26 -18 -53 -53 -53c-43 0 -67 45 -67 105
c0 118 83 194 94 194c5 0 10 -4 10 -11c0 -3 0 -5 -12 -17c-63 -62 -70 -134 -70 -166c0 -4 0 -18 2 -18c1 0 2 1 3 3c6 6 20 16 40 16c36 0 53 -27 53 -53z" />
    <glyph glyph-name="bracketright" unicode="]" horiz-adv-x="333" 
d="M186 750v-1000h-136v40h96v920h-96v40h136z" />
    <glyph glyph-name="circumflex" unicode="&#x2c6;" 
d="M278 694l133 -136l-18 -18l-115 102l-116 -102l-18 18z" />
    <glyph glyph-name="dotaccent" unicode="&#x2d9;" horiz-adv-x="333" 
d="M219 616c0 -29 -24 -53 -53 -53s-53 24 -53 53s24 53 53 53s53 -24 53 -53z" />
    <glyph glyph-name="quoteleft" unicode="&#x2018;" horiz-adv-x="333" 
d="M219 447c0 -26 -18 -53 -53 -53c-43 0 -67 45 -67 105c0 118 83 194 94 194c5 0 10 -4 10 -11c0 -3 0 -5 -12 -17c-63 -62 -70 -134 -70 -166c0 -4 0 -18 2 -18c1 0 2 1 3 3c6 6 20 16 40 16c36 0 53 -27 53 -53z" />
    <glyph glyph-name="a" unicode="a" 
d="M423 376v-266c0 -28 4 -99 49 -99c25 0 42 24 42 107v11c0 18 0 24 12 24c4 0 12 0 13 -10v-22c0 -81 -14 -132 -69 -132c-37 0 -85 22 -108 74c-23 -38 -62 -74 -113 -74c-91 0 -179 93 -179 227c0 131 86 226 179 226c46 0 83 -30 104 -61c0 20 10 41 35 41
c35 0 35 -32 35 -46zM354 117v197c0 25 -11 45 -34 72c-6 6 -33 34 -69 34c-40 0 -68 -36 -82 -71c-16 -42 -16 -93 -16 -134c0 -59 2 -100 20 -141c8 -19 34 -63 78 -63c26 0 51 15 70 37c33 38 33 54 33 69z" />
    <glyph glyph-name="b" unicode="b" horiz-adv-x="500" 
d="M146 694v-313c25 34 59 61 105 61c90 0 178 -92 178 -227c0 -129 -84 -226 -179 -226c-63 0 -109 44 -131 77c-42 67 -42 107 -42 225v288c0 65 0 73 -78 73v31zM146 314v-111c0 -163 73 -192 103 -192c44 0 70 44 80 69c17 43 17 91 17 136c0 50 -1 96 -19 140
c-4 10 -29 64 -78 64c-35 0 -61 -25 -71 -36c-32 -38 -32 -57 -32 -70z" />
    <glyph glyph-name="c" unicode="c" horiz-adv-x="500" 
d="M372 382c-33 38 -86 38 -93 38c-53 0 -85 -40 -98 -62c-24 -42 -28 -91 -28 -143c0 -44 2 -98 27 -140c8 -16 39 -64 100 -64c14 0 122 0 175 101c3 4 5 8 11 8c5 0 13 -6 13 -12c0 -16 -59 -119 -200 -119c-118 0 -209 102 -209 227c0 126 94 226 207 226
c79 0 138 -47 138 -104c0 -37 -29 -48 -46 -48c-23 0 -46 17 -46 46c0 12 3 45 49 46z" />
    <glyph glyph-name="d" unicode="d" 
d="M276 683l147 11v-584c0 -28 4 -99 49 -99c25 0 42 24 42 107v11c0 18 0 24 12 24c4 0 12 0 13 -10v-22c0 -81 -14 -132 -69 -132c-37 0 -85 22 -108 74c-23 -38 -62 -74 -113 -74c-91 0 -179 93 -179 227c0 131 86 226 179 226c54 0 92 -42 105 -61v215
c0 49 -8 56 -78 56v31zM354 117v197c0 25 -11 45 -34 72c-6 6 -33 34 -69 34c-40 0 -68 -36 -82 -71c-16 -42 -16 -93 -16 -134c0 -59 2 -100 20 -141c8 -19 34 -63 78 -63c26 0 51 15 70 37c33 38 33 54 33 69z" />
    <glyph glyph-name="e" unicode="e" horiz-adv-x="500" 
d="M206 231h-53c1 -51 3 -96 25 -145c4 -7 35 -75 103 -75c13 0 121 0 174 101c3 4 5 8 11 8c5 0 13 -6 13 -12c0 -17 -60 -119 -199 -119c-125 0 -210 122 -210 250c0 121 100 203 206 203c68 0 129 -42 129 -106c0 -74 -71 -105 -199 -105zM153 253h44
c143 0 174 39 174 83c0 47 -42 84 -94 84c-28 0 -65 -11 -94 -50c-25 -35 -29 -81 -30 -117z" />
    <glyph glyph-name="f" unicode="f" horiz-adv-x="333" 
d="M191 400l20 -315c1 -22 2 -52 2 -74c0 -41 0 -216 -103 -216c-51 0 -101 35 -101 85c0 35 27 47 46 47c22 0 46 -15 46 -46c0 -30 -22 -44 -43 -47c15 -11 33 -17 52 -17c40 0 40 64 40 86c0 31 -1 66 -3 97l-25 400h-86v31h84c-3 37 -7 93 -7 129c0 13 0 69 21 101
c16 23 43 44 80 44c52 0 104 -33 104 -85c0 -35 -27 -47 -46 -47c-22 0 -46 15 -46 46s23 44 42 47c-9 7 -31 17 -53 17c-16 0 -37 -12 -37 -48c0 -10 0 -25 1 -35l10 -169h104v-31h-102z" />
    <glyph glyph-name="g" unicode="g" horiz-adv-x="500" 
d="M422 376v-434c0 -96 -82 -147 -180 -147c-56 0 -149 6 -149 75c0 35 27 47 46 47c22 0 46 -15 46 -46c0 -33 -28 -43 -30 -44c22 -7 55 -10 85 -10c85 0 113 67 113 125v117c-30 -38 -65 -59 -105 -59c-91 0 -178 91 -178 221s87 221 178 221c44 0 78 -25 104 -59
c0 19 11 39 35 39c35 0 35 -32 35 -46zM353 125v192c0 23 -9 41 -34 69c-3 3 -30 34 -69 34c-41 0 -69 -38 -81 -71c-16 -41 -16 -87 -16 -128c0 -47 1 -92 17 -133c9 -21 35 -66 80 -66c36 0 62 26 71 35c32 37 32 55 32 68z" />
    <glyph glyph-name="h" unicode="h" 
d="M146 694v-330c31 56 79 78 132 78c145 0 145 -141 145 -168c0 -4 0 -59 -11 -144c-3 -23 -5 -38 -5 -51c0 -28 5 -68 38 -68c64 0 68 103 69 126c0 9 1 16 12 16c13 0 13 -7 13 -18c0 -16 -5 -146 -96 -146c-58 0 -104 49 -104 106c0 5 2 19 3 28c12 91 12 145 12 154
c0 28 0 143 -79 143c-96 0 -129 -97 -129 -134v-252c0 -13 0 -45 -35 -45c-34 0 -34 33 -34 45v562c0 49 -8 56 -78 56v31z" />
    <glyph glyph-name="i" unicode="i" horiz-adv-x="333" 
d="M212 616c0 -26 -20 -46 -46 -46s-46 20 -46 46s20 46 46 46s46 -20 46 -46zM316 135c0 -20 -6 -146 -95 -146c-57 0 -104 47 -104 106c0 7 0 12 5 52c6 37 25 179 25 205c0 21 -1 68 -38 68c-53 0 -66 -74 -68 -126c0 -9 -1 -16 -12 -16c-13 0 -13 7 -13 18
c0 20 6 146 95 146c57 0 104 -47 104 -106c0 -7 0 -12 -5 -52c-6 -37 -25 -179 -25 -205c0 -21 1 -68 38 -68c53 0 66 74 68 126c0 9 1 16 12 16c13 0 13 -7 13 -18z" />
    <glyph glyph-name="j" unicode="j" horiz-adv-x="333" 
d="M255 616c0 -26 -20 -46 -46 -46s-46 20 -46 46s20 46 46 46s46 -20 46 -46zM186 -51v372c0 37 -6 99 -50 99c-36 0 -77 -27 -94 -124c-2 -14 -3 -18 -13 -18c-4 0 -13 0 -13 11c0 7 18 153 122 153c48 0 117 -36 117 -125v-367c0 -104 -84 -155 -153 -155
c-59 0 -102 33 -102 75c0 35 27 47 46 47c22 0 46 -15 46 -46c0 -28 -20 -41 -34 -45c7 -3 24 -9 42 -9c55 0 86 58 86 132z" />
    <glyph glyph-name="k" unicode="k" horiz-adv-x="500" 
d="M146 694v-434c30 13 50 37 77 76c40 57 74 106 136 106c50 0 84 -40 84 -80c0 -35 -27 -47 -46 -47c-22 0 -46 15 -46 46c0 28 19 43 44 47c-1 1 -15 12 -36 12c-52 0 -82 -44 -115 -91c-20 -28 -42 -59 -70 -79c34 -4 177 -20 179 -125c0 -34 2 -114 52 -114
c31 0 52 27 53 119c0 18 0 23 13 23c12 0 12 -7 12 -22c0 -67 -15 -142 -80 -142c-23 0 -113 13 -119 137c-3 60 -67 95 -138 103v-195c0 -13 0 -45 -35 -45c-34 0 -34 33 -34 45v562c0 49 -8 56 -78 56v31z" />
    <glyph glyph-name="l" unicode="l" horiz-adv-x="277" 
d="M146 694v-584c0 -28 4 -99 49 -99c23 0 41 21 41 104v14c0 18 0 24 12 24c4 0 12 0 13 -10v-23c0 -79 -13 -131 -68 -131c-68 0 -116 60 -116 114v476c0 33 0 35 -1 42c-5 31 -33 31 -77 31v31z" />
    <glyph glyph-name="m" unicode="m" horiz-adv-x="888" 
d="M201 285v-250c0 -14 0 -46 -35 -46c-34 0 -34 33 -34 46v286c0 28 -4 99 -49 99c-25 0 -42 -24 -42 -107v-11c0 -18 0 -24 -12 -24c-4 0 -12 0 -13 10v22c0 81 14 132 69 132c29 0 89 -16 112 -87c21 44 63 87 136 87c51 0 114 -21 137 -96c29 62 74 96 141 96
c145 0 145 -141 145 -168c0 -4 0 -59 -11 -144c-3 -23 -5 -38 -5 -51c0 -28 5 -68 38 -68c64 0 68 103 69 126c0 9 1 16 12 16c13 0 13 -7 13 -18c0 -16 -5 -146 -96 -146c-58 0 -104 49 -104 106c0 5 2 19 3 28c12 91 12 145 12 154c0 28 0 143 -79 143
c-64 0 -101 -41 -121 -94c-8 -20 -8 -22 -8 -46v-245c0 -14 0 -46 -35 -46c-34 0 -34 33 -34 46v249c0 72 -21 136 -80 136c-95 0 -129 -96 -129 -135z" />
    <glyph glyph-name="n" unicode="n" horiz-adv-x="611" 
d="M201 286v-251c0 -14 0 -46 -35 -46c-34 0 -34 33 -34 46v286c0 28 -4 99 -49 99c-25 0 -42 -24 -42 -107v-11c0 -18 0 -24 -12 -24c-4 0 -12 0 -13 10v22c0 81 14 132 69 132c28 0 88 -14 112 -86c28 54 71 86 136 86c145 0 145 -141 145 -168c0 -4 0 -59 -11 -144
c-3 -23 -5 -38 -5 -51c0 -28 5 -68 38 -68c64 0 68 103 69 126c0 9 1 16 12 16c13 0 13 -7 13 -18c0 -16 -5 -146 -96 -146c-58 0 -104 49 -104 106c0 5 2 19 3 28c12 91 12 145 12 154c0 28 0 143 -79 143c-96 0 -129 -97 -129 -134z" />
    <glyph glyph-name="o" unicode="o" 
d="M485 216c0 -128 -94 -227 -208 -227c-110 0 -207 97 -207 227c0 124 92 226 208 226c112 0 207 -99 207 -226zM278 11c44 0 81 32 101 70c21 42 23 91 23 135c0 50 -4 95 -23 133c-18 35 -53 71 -102 71c-44 0 -81 -32 -101 -70c-21 -42 -23 -91 -23 -135
c0 -50 4 -95 23 -133c18 -35 53 -71 102 -71z" />
    <glyph glyph-name="p" unicode="p" 
d="M132 -122v443c0 28 -4 99 -49 99c-25 0 -42 -24 -42 -107v-11c0 -18 0 -24 -12 -24c-4 0 -12 0 -13 10v22c0 81 14 132 69 132c37 0 85 -22 108 -74c23 38 62 74 113 74c91 0 179 -93 179 -227c0 -131 -86 -226 -179 -226c-54 0 -92 42 -105 61v-168c0 -45 11 -45 78 -45
v-31c-31 1 -86 3 -109 3c-30 0 -66 -1 -96 -3v31c55 0 58 6 58 41zM201 314v-197c0 -25 11 -45 34 -72c6 -6 33 -34 69 -34c40 0 68 36 82 71c16 42 16 93 16 134c0 59 -2 100 -20 141c-8 19 -34 63 -78 63c-26 0 -51 -15 -70 -37c-33 -38 -33 -54 -33 -69z" />
    <glyph glyph-name="q" unicode="q" horiz-adv-x="500" 
d="M422 416v-534c0 -45 11 -45 78 -45v-31c-35 1 -86 3 -113 3c-26 0 -78 -2 -112 -3v31c67 0 78 0 78 45v168c-25 -34 -59 -61 -105 -61c-90 0 -178 92 -178 227c0 131 86 226 178 226c43 0 82 -25 109 -68c10 25 42 68 54 68c11 0 11 -10 11 -26zM353 117v197
c0 19 0 20 -11 39c-24 42 -57 67 -92 67c-44 0 -70 -44 -80 -69c-17 -43 -17 -91 -17 -136c0 -50 1 -96 19 -140c4 -10 29 -64 78 -64c35 0 61 25 71 36c32 38 32 57 32 70z" />
    <glyph glyph-name="r" unicode="r" horiz-adv-x="458" 
d="M201 300v-265c0 -14 0 -46 -35 -46c-34 0 -34 33 -34 46v286c0 28 -4 99 -49 99c-25 0 -42 -24 -42 -107v-11c0 -18 0 -24 -12 -24c-4 0 -12 0 -13 10v22c0 81 14 132 69 132c31 0 83 -16 109 -76c24 53 63 76 112 76c56 0 123 -23 123 -80c0 -35 -27 -47 -46 -47
c-22 0 -46 15 -46 46c0 28 20 41 34 45c-28 14 -59 14 -65 14c-83 0 -105 -92 -105 -120z" />
    <glyph glyph-name="s" unicode="s" horiz-adv-x="444" 
d="M322 375c-23 32 -64 45 -102 45c-37 0 -95 -12 -95 -76c0 -61 64 -73 105 -81c47 -9 84 -16 120 -52c11 -11 37 -41 37 -87c0 -59 -35 -135 -164 -135c-96 0 -167 49 -167 117c0 38 31 48 46 48c22 0 46 -16 46 -46c0 -21 -9 -46 -52 -46c25 -34 75 -51 127 -51
c16 0 123 0 123 94c0 30 -17 52 -29 62c-29 23 -43 26 -101 37c-33 6 -132 26 -132 121c0 56 34 117 136 117c84 0 139 -49 139 -104c0 -26 -17 -39 -38 -39s-37 16 -37 37c0 35 36 39 38 39z" />
    <glyph glyph-name="t" unicode="t" horiz-adv-x="361" 
d="M174 400v-290c0 -37 6 -99 50 -99c36 0 77 27 94 124c2 14 3 18 13 18c4 0 13 0 13 -11c0 -7 -18 -153 -122 -153c-48 0 -117 36 -117 125v286h-119v31h119v149c0 14 0 46 35 46c34 0 34 -33 34 -46v-149h116v-31h-116z" />
    <glyph glyph-name="u" unicode="u" horiz-adv-x="583" 
d="M450 385v-275c0 -28 4 -99 49 -99c25 0 42 24 42 107v11c0 18 0 24 12 24c4 0 12 0 13 -10v-22c0 -81 -14 -132 -69 -132c-44 0 -86 28 -104 66c-22 -44 -58 -66 -104 -66c-37 0 -91 13 -122 57c-33 46 -35 99 -35 128c0 41 8 109 11 127c5 38 5 46 5 51
c0 28 -5 68 -38 68c-64 0 -68 -103 -69 -126c0 -9 -1 -16 -12 -16c-13 0 -13 7 -13 18c0 16 5 146 96 146c58 0 104 -49 104 -106c0 -5 -1 -17 -3 -28c-7 -49 -12 -85 -12 -137c0 -65 15 -160 91 -160c50 0 75 40 85 64c4 8 4 10 4 39v271c0 14 0 46 35 46
c34 0 34 -33 34 -46z" />
    <glyph glyph-name="v" unicode="v" horiz-adv-x="500" 
d="M443 258c0 -154 -40 -269 -141 -269c-65 0 -170 30 -170 185c0 41 8 109 11 127c5 38 5 46 5 51c0 28 -5 68 -38 68c-64 0 -68 -103 -69 -126c0 -9 -1 -16 -12 -16c-13 0 -13 7 -13 18c0 16 5 146 96 146c58 0 104 -49 104 -106c0 -5 -1 -17 -3 -28
c-6 -45 -12 -90 -12 -136c0 -23 0 -161 104 -161c105 0 113 182 113 228c0 22 0 77 -67 126c-5 4 -19 15 -19 35c0 23 20 43 42 43c69 0 69 -140 69 -185z" />
    <glyph glyph-name="w" unicode="w" horiz-adv-x="722" 
d="M437 385v-216c0 -127 59 -158 103 -158c60 0 100 50 100 221c0 30 0 84 -65 133c-8 5 -21 15 -21 35c0 23 20 43 42 43c69 0 69 -137 69 -191c0 -117 -11 -263 -127 -263c-34 0 -102 9 -140 68c-24 -67 -67 -68 -88 -68c-75 0 -178 36 -178 186c0 39 8 106 11 126
c5 38 5 46 5 51c0 28 -5 68 -38 68c-64 0 -68 -103 -69 -126c0 -9 -1 -16 -12 -16c-13 0 -13 7 -13 18c0 16 5 146 96 146c58 0 104 -49 104 -106c0 -5 -1 -17 -3 -28c-6 -45 -12 -90 -12 -136c0 -22 0 -161 112 -161c33 0 57 22 68 80c-12 35 -13 63 -13 81v213
c0 14 0 46 35 46c34 0 34 -33 34 -46z" />
    <glyph glyph-name="x" unicode="x" horiz-adv-x="508" 
d="M288 317v-181c0 -66 21 -125 79 -125c45 0 93 40 99 126c1 10 1 16 12 16c13 0 13 -7 13 -16c0 -54 -37 -148 -126 -148c-42 0 -96 21 -126 77c-11 -37 -36 -77 -88 -77c-48 0 -109 26 -109 80c0 35 27 47 46 47c22 0 46 -15 46 -46c0 -18 -9 -39 -37 -45
c24 -14 51 -14 55 -14c40 0 67 38 67 103v181c0 66 -21 125 -79 125c-45 0 -93 -40 -99 -126c-1 -10 -1 -16 -12 -16c-13 0 -13 7 -13 16c0 54 37 148 126 148c42 0 96 -21 126 -77c11 37 36 77 88 77c48 0 109 -26 109 -80c0 -35 -27 -47 -46 -47c-22 0 -46 15 -46 46
c0 18 9 39 37 45c-24 14 -51 14 -55 14c-40 0 -67 -38 -67 -103z" />
    <glyph glyph-name="y" unicode="y" horiz-adv-x="527" 
d="M450 385v-383c0 -118 -85 -207 -186 -207c-72 0 -129 47 -129 107c0 35 27 47 46 47c22 0 46 -15 46 -46c0 -17 -8 -45 -51 -46c18 -25 53 -40 87 -40c79 0 118 90 118 184v34c-19 -24 -44 -46 -92 -46c-37 0 -91 13 -122 57c-33 46 -35 99 -35 128c0 41 8 109 11 127
c5 38 5 46 5 51c0 28 -5 68 -38 68c-64 0 -68 -103 -69 -126c0 -9 -1 -16 -12 -16c-13 0 -13 7 -13 18c0 16 5 146 96 146c58 0 104 -49 104 -106c0 -5 -1 -17 -3 -28c-7 -49 -12 -85 -12 -137c0 -65 15 -160 91 -160c36 0 53 18 63 28c18 19 26 40 26 62v284
c0 14 0 46 35 46c34 0 34 -33 34 -46z" />
    <glyph glyph-name="z" unicode="z" horiz-adv-x="444" 
d="M138 81c10 5 25 5 31 5c12 0 26 0 70 -15c32 -10 50 -13 65 -13c39 0 91 22 98 79c1 10 2 16 12 16c13 0 13 -9 13 -17c0 -57 -39 -147 -122 -147c-27 0 -48 13 -72 37c-36 33 -49 38 -66 38c-36 0 -58 -33 -70 -64c-2 -7 -4 -11 -13 -11c-3 0 -12 0 -12 9
c0 5 16 61 75 139l71 85c62 69 76 88 100 124c-6 -1 -8 -1 -17 -1s-25 0 -65 13c-22 7 -47 15 -69 15c-15 0 -64 -4 -71 -43c-1 -7 -2 -13 -12 -13c-12 0 -13 7 -13 15c0 46 34 110 95 110c21 0 43 -9 72 -37c35 -34 49 -38 65 -38c20 0 40 12 57 61c3 10 5 14 14 14
c3 0 12 0 12 -9c0 -5 -14 -59 -74 -137c-16 -22 -47 -58 -72 -87c-39 -43 -73 -81 -102 -128z" />
    <glyph glyph-name="endash" unicode="&#x2013;" 
d="M527 255h-499v22h499v-22z" />
    <glyph glyph-name="emdash" unicode="&#x2014;" horiz-adv-x="1111" 
d="M1054 255h-998v22h998v-22z" />
    <glyph glyph-name="hungarumlaut" unicode="&#x2dd;" 
d="M269 639l-92 -126c-2 1 -17 9 -21 12l54 145c5 12 11 29 34 29c19 0 37 -16 37 -34c0 -10 -3 -14 -12 -26zM436 639l-92 -126c-2 1 -17 9 -21 12l54 145c5 12 11 29 34 29c19 0 37 -16 37 -34c0 -10 -3 -14 -12 -26z" />
    <glyph glyph-name="tilde" unicode="&#x2dc;" 
d="M428 668l16 -15c-51 -56 -70 -78 -108 -78c-17 0 -35 7 -62 23c-17 10 -42 25 -65 25c-44 0 -82 -47 -82 -48l-16 15c51 56 70 78 108 78c17 0 35 -7 62 -23c17 -10 42 -25 65 -25c44 0 82 47 82 48z" />
    <glyph glyph-name="dieresis" unicode="&#xa8;" 
d="M231 619c0 -24 -20 -50 -50 -50c-28 0 -50 22 -50 50s22 50 50 50c30 0 50 -26 50 -50zM424 619c0 -28 -22 -50 -50 -50c-30 0 -50 26 -50 50s20 50 50 50c28 0 50 -22 50 -50z" />
    <glyph glyph-name="space" unicode=" " horiz-adv-x="388" 
 />
  </font>
</defs>
</svg>
