<?xml version="1.0" standalone="no"?>
<!DOCTYPE svg PUBLIC "-//W3C//DTD SVG 1.1//EN" "http://www.w3.org/Graphics/SVG/1.1/DTD/svg11.dtd" >
<svg>
<metadata>
Created by FontForge 20060822 at Fri Oct  6 18:26:51 2006
 By Wojciech Mula,,,
Copyright (C) 1997 American Mathematical Society. All Rights Reserved
</metadata>
<defs>
<font id="CMVTT10" horiz-adv-x="525" >
  <font-face 
    font-family="Computer Modern"
    font-weight="500"
    font-stretch="normal"
    units-per-em="1000"
    panose-1="2 0 6 3 0 0 0 0 0 0"
    ascent="800"
    descent="-200"
    x-height="431"
    cap-height="611"
    bbox="-46 -233 1049 696"
    underline-thickness="0"
    underline-position="0"
    stemh="61"
    stemv="69"
    unicode-range="U+0020-U+FB04"
  />
    <missing-glyph />
    <glyph glyph-name="ff" unicode="ff" horiz-adv-x="612" 
d="M471 370v-309h78c16 0 40 0 40 -31c0 -30 -25 -30 -40 -30h-201c-16 0 -40 0 -40 31c0 30 25 30 40 30h54v423c0 9 0 19 2 28c-18 12 -18 30 -18 41c-22 3 -43 3 -53 3c-21 0 -62 0 -100 -16c-53 -22 -53 -42 -53 -63v-46h81c16 0 40 0 40 -31c0 -30 -25 -30 -40 -30h-81
v-309h54c16 0 40 0 40 -31c0 -30 -25 -30 -40 -30h-177c-15 0 -40 0 -40 30c0 31 24 31 40 31h54v309h-43c-15 0 -40 0 -40 30c0 31 25 31 41 31h42v52c0 96 117 134 229 134c35 0 91 0 117 -30c37 27 78 30 101 30c15 0 95 0 95 -60c0 -28 -23 -44 -43 -44
c-35 0 -44 39 -44 43c-29 0 -95 0 -95 -78v-47h81c16 0 40 0 40 -31c0 -30 -25 -30 -40 -30h-81z" />
    <glyph glyph-name="fi" unicode="fi" horiz-adv-x="583" 
d="M471 390v-329h54c16 0 40 0 40 -31c0 -30 -25 -30 -40 -30h-177c-16 0 -40 0 -40 31c0 30 25 30 40 30h54v309h-222v-309h54c16 0 40 0 40 -31c0 -30 -25 -30 -40 -30h-177c-15 0 -40 0 -40 30c0 31 24 31 40 31h54v309h-43c-15 0 -40 0 -40 30c0 31 25 31 41 31h42v52
c0 103 136 134 222 134c25 0 138 0 138 -80c0 -29 -21 -46 -45 -46c-23 0 -44 17 -44 45c0 7 1 8 1 11c0 9 -53 9 -57 9c-21 0 -60 -1 -99 -19c-47 -21 -47 -40 -47 -60v-46h251c34 0 40 -10 40 -41z" />
    <glyph glyph-name="fl" unicode="fl" horiz-adv-x="583" 
d="M471 570v-509h54c16 0 40 0 40 -31c0 -30 -25 -30 -40 -30h-177c-16 0 -40 0 -40 31c0 30 25 30 40 30h54v309h-222v-309h54c16 0 40 0 40 -31c0 -30 -25 -30 -40 -30h-177c-15 0 -40 0 -40 30c0 31 24 31 40 31h54v309h-43c-15 0 -40 0 -40 30c0 31 25 31 41 31h42v52
c0 94 112 134 231 134c26 0 47 0 75 -6h13c0 -1 0 -2 1 -3c4 2 8 3 12 3c28 0 28 -27 28 -41zM180 431h222v92c-12 8 -15 21 -16 31c-20 2 -33 2 -52 2c-22 0 -63 0 -101 -16c-53 -22 -53 -42 -53 -63v-46z" />
    <glyph glyph-name="ffi" unicode="ffi" horiz-adv-x="875" 
d="M763 390v-329h54c16 0 40 0 40 -31c0 -30 -25 -30 -40 -30h-177c-16 0 -40 0 -40 31c0 30 25 30 40 30h54v309h-222v-309h54c16 0 40 0 40 -31c0 -30 -25 -30 -40 -30h-177c-15 0 -40 0 -40 30c0 31 24 31 40 31h54v309h-223v-309h54c16 0 40 0 40 -31
c0 -30 -25 -30 -40 -30h-177c-15 0 -40 0 -40 30c0 31 24 31 40 31h54v309h-43c-15 0 -40 0 -40 30c0 31 25 31 41 31h42v52c0 105 139 134 222 134c46 0 100 -5 126 -41c51 31 108 41 166 41c25 0 138 0 138 -80c0 -29 -21 -46 -45 -46c-23 0 -44 17 -44 45c0 7 1 8 1 11
c0 9 -53 9 -57 9c-21 0 -60 -1 -99 -19c-47 -21 -47 -40 -47 -60v-46h251c34 0 40 -10 40 -41zM180 431h223v67c-7 4 -20 16 -20 38c0 7 1 8 1 11c0 9 -53 9 -57 9c-14 0 -60 0 -100 -19c-47 -21 -47 -39 -47 -60v-46z" />
    <glyph glyph-name="ffl" unicode="ffl" horiz-adv-x="875" 
d="M763 570v-509h54c16 0 40 0 40 -31c0 -30 -25 -30 -40 -30h-177c-16 0 -40 0 -40 31c0 30 25 30 40 30h54v309h-222v-309h54c16 0 40 0 40 -31c0 -30 -25 -30 -40 -30h-177c-15 0 -40 0 -40 30c0 31 24 31 40 31h54v309h-223v-309h54c16 0 40 0 40 -31
c0 -30 -25 -30 -40 -30h-177c-15 0 -40 0 -40 30c0 31 24 31 40 31h54v309h-43c-15 0 -40 0 -40 30c0 31 25 31 41 31h42v52c0 96 118 134 230 134c53 0 100 -3 122 -38c67 38 139 38 171 38c26 0 47 0 75 -6h13c0 -1 0 -2 1 -3c4 2 8 3 12 3c28 0 28 -27 28 -41zM180 431
h223v52c0 8 0 21 2 29c-18 12 -18 30 -18 41c-23 3 -42 3 -54 3c-20 0 -61 0 -100 -16c-53 -22 -53 -42 -53 -63v-46zM472 431h222v92c-12 8 -15 21 -16 31c-20 2 -33 2 -52 2c-22 0 -63 0 -101 -16c-53 -22 -53 -42 -53 -63v-46z" />
    <glyph glyph-name="Gamma" unicode="&#x393;" horiz-adv-x="641" 
d="M209 550v-489h78c16 0 40 0 40 -31c0 -30 -25 -30 -40 -30h-201c-15 0 -40 0 -40 30c0 31 24 31 40 31h54v489h-54c-15 0 -40 0 -40 30c0 31 24 31 40 31h471c34 0 40 -10 40 -41v-73c0 -20 0 -41 -35 -41c-34 0 -34 22 -34 41v53h-319z" />
    <glyph glyph-name="Delta" unicode="&#x394;" horiz-adv-x="875" 
d="M509 588l302 -552c6 -10 6 -14 6 -17c0 -19 -17 -19 -32 -19h-696c-15 0 -32 0 -32 19c0 3 0 7 7 19l303 553c17 30 34 32 59 32h22c36 0 47 -9 61 -35zM437 576l-278 -509h556z" />
    <glyph glyph-name="Theta" unicode="&#x398;" horiz-adv-x="816" 
d="M758 305c0 -169 -152 -316 -350 -316c-196 0 -350 144 -350 317c0 169 152 316 350 316c196 0 350 -144 350 -317zM408 50c156 0 281 115 281 256c0 137 -122 255 -281 255c-156 0 -281 -115 -281 -256c0 -137 122 -255 281 -255zM255 339h306c2 31 23 31 34 31
c35 0 35 -21 35 -41v-47c0 -20 0 -41 -35 -41c-12 0 -32 1 -34 31h-306c-2 -31 -23 -31 -34 -31c-35 0 -35 21 -35 41v47c0 20 0 41 35 41c12 0 32 -1 34 -31z" />
    <glyph glyph-name="Lambda" unicode="&#x39b;" horiz-adv-x="700" 
d="M411 590l173 -529h35c16 0 40 0 40 -31c0 -30 -25 -30 -40 -30h-150c-15 0 -40 0 -40 30c0 31 24 31 40 31h42l-162 494l-161 -494h42c16 0 40 0 40 -31c0 -30 -25 -30 -40 -30h-150c-15 0 -40 0 -40 30c0 31 24 31 40 31h35l173 529c11 33 34 33 52 33h19
c18 0 41 0 52 -33z" />
    <glyph glyph-name="Xi" unicode="&#x39e;" horiz-adv-x="700" 
d="M580 552h-461c0 -22 0 -42 -35 -42c-34 0 -34 22 -34 41v19c0 33 8 41 41 41h518c34 0 40 -10 40 -41v-19c0 -19 0 -41 -34 -41c-35 0 -35 20 -35 42zM615 0h-530c-33 0 -41 8 -41 41v24c0 19 0 41 34 41c35 0 35 -19 35 -47h473c0 28 0 47 35 47c34 0 34 -22 34 -41v-24
c0 -32 -7 -41 -40 -41zM215 347h269c0 28 0 47 35 47c34 0 34 -21 34 -41v-71c0 -20 0 -41 -34 -41c-35 0 -35 19 -35 47h-269c0 -28 0 -47 -35 -47c-34 0 -34 21 -34 41v71c0 20 0 41 34 41c35 0 35 -19 35 -47z" />
    <glyph glyph-name="Pi" unicode="&#x3a0;" horiz-adv-x="758" 
d="M617 550v-489h54c16 0 40 0 40 -31c0 -30 -25 -30 -40 -30h-177c-15 0 -40 0 -40 30c0 31 24 31 40 31h54v489h-339v-489h54c16 0 40 0 40 -31c0 -30 -25 -30 -40 -30h-177c-15 0 -40 0 -40 30c0 31 24 31 40 31h54v489h-54c-15 0 -40 0 -40 30c0 31 24 31 40 31h585
c16 0 40 0 40 -31c0 -30 -25 -30 -40 -30h-54z" />
    <glyph glyph-name="Sigma" unicode="&#x3a3;" horiz-adv-x="758" 
d="M352 280l-183 -217h461v53c0 20 0 41 35 41c34 0 34 -22 34 -41v-75c0 -32 -7 -41 -40 -41h-560c-13 0 -41 0 -41 28c0 10 4 15 12 24l212 253l-213 250c-7 9 -11 13 -11 25c0 31 25 31 41 31h560c34 0 40 -10 40 -41v-73c0 -20 0 -41 -35 -41c-34 0 -34 22 -34 41v53
h-466l188 -220c7 -8 12 -14 12 -25c0 -2 0 -11 -12 -25z" />
    <glyph glyph-name="Upsilon" unicode="&#x3a5;" horiz-adv-x="816" 
d="M443 312v-251h78c16 0 40 0 40 -31c0 -30 -25 -30 -40 -30h-225c-16 0 -40 0 -40 31c0 30 25 30 40 30h78v251c0 98 -31 258 -151 258c-55 0 -92 -34 -96 -75c-1 -17 -3 -34 -34 -34c-10 0 -35 0 -35 31c0 71 73 130 162 130c117 0 169 -110 188 -221h1
c19 124 79 221 187 221c89 0 162 -59 162 -130c0 -31 -25 -31 -35 -31c-31 0 -33 17 -34 33c-5 45 -44 76 -96 76c-117 0 -150 -154 -150 -258z" />
    <glyph glyph-name="Phi" unicode="&#x3a6;" horiz-adv-x="758" 
d="M266 611h225c16 0 40 0 40 -31c0 -30 -25 -30 -40 -30h-78v-93c136 -5 286 -62 286 -152c0 -86 -146 -146 -286 -151v-93h78c16 0 40 0 40 -31c0 -30 -25 -30 -40 -30h-225c-15 0 -40 0 -40 30c0 31 24 31 40 31h78v93c-136 5 -286 62 -286 152c0 86 146 146 286 151v93
h-78c-15 0 -40 0 -40 30c0 31 24 31 40 31zM344 215v181c-75 -2 -217 -29 -217 -90c0 -65 151 -89 217 -91zM413 396v-181c66 2 217 26 217 91c0 61 -143 88 -217 90z" />
    <glyph glyph-name="Psi" unicode="&#x3a8;" horiz-adv-x="816" 
d="M443 550v-335c84 7 160 47 164 142c1 25 2 62 31 90c14 15 36 36 83 36c12 0 37 0 37 -31c0 -19 -12 -28 -28 -30c-52 -5 -53 -43 -54 -68c-5 -126 -104 -190 -233 -200v-93h78c16 0 40 0 40 -31c0 -30 -25 -30 -40 -30h-225c-16 0 -40 0 -40 31c0 30 25 30 40 30h78v93
c-60 5 -112 16 -167 59c-42 34 -65 97 -67 139c-1 30 -2 65 -58 70c-4 1 -24 6 -24 30c0 31 26 31 37 31c42 0 110 -22 114 -123c4 -92 71 -137 165 -145v335h-78c-16 0 -40 0 -40 31c0 30 25 30 40 30h225c16 0 40 0 40 -31c0 -30 -25 -30 -40 -30h-78z" />
    <glyph glyph-name="Omega" unicode="&#x3a9;" horiz-adv-x="758" 
d="M525 61h129c0 21 0 47 28 47s28 -27 28 -41v-26c0 -32 -7 -41 -40 -41h-169c-19 0 -41 0 -41 34c0 76 54 150 89 199c41 55 81 111 81 173c0 82 -107 155 -252 155c-142 0 -251 -72 -251 -155c0 -62 40 -118 80 -173c37 -50 90 -123 90 -199c0 -34 -22 -34 -40 -34h-169
c-33 0 -41 8 -41 41v26c0 14 0 41 28 41s28 -26 28 -47h129c-8 38 -25 69 -77 137c-46 60 -97 126 -97 208c0 120 138 216 321 216c179 0 320 -95 320 -216c0 -82 -51 -148 -96 -207c-54 -71 -70 -100 -78 -138z" />
    <glyph glyph-name="dotlessi" unicode="&#x131;" horiz-adv-x="291" 
d="M180 390v-329h44c16 0 41 0 41 -31c0 -30 -25 -30 -40 -30h-168c-15 0 -40 0 -40 30c0 31 24 31 40 31h54v309h-49c-15 0 -41 0 -41 31c0 30 26 30 41 30h78c34 0 40 -10 40 -41z" />
    <glyph glyph-name="dotlessj" unicode="&#xf6be;" horiz-adv-x="320" 
d="M209 390v-437c0 -73 -33 -181 -138 -181c-73 0 -117 30 -117 76c0 29 22 46 45 46c9 0 44 -2 44 -53c0 -1 0 -3 1 -3c3 -4 24 -5 30 -5c60 0 66 87 66 124v413h-63c-16 0 -41 0 -41 31c0 30 26 30 41 30h92c34 0 40 -10 40 -41z" />
    <glyph glyph-name="grave" unicode="`" 
d="M276 484l-131 57c-16 7 -28 17 -28 35c0 20 15 35 35 35c1 0 9 0 22 -6l132 -59c15 -7 23 -15 23 -29c0 -7 -7 -40 -33 -40c-3 0 -5 0 -20 7z" />
    <glyph glyph-name="acute" unicode="&#xb4;" 
d="M379 541l-133 -59c-6 -3 -11 -5 -18 -5c-26 0 -33 32 -33 40c0 18 11 23 25 29l133 60c11 5 17 5 19 5c20 0 35 -15 35 -35c0 -11 -4 -24 -28 -35z" />
    <glyph glyph-name="caron" unicode="&#x2c7;" 
d="M262 522l110 45c12 5 16 5 18 5c29 0 33 -36 33 -40c0 -19 -14 -24 -26 -29l-119 -45c-5 -2 -10 -4 -16 -4c-7 0 -58 19 -136 49c-10 4 -25 9 -25 29c0 4 4 40 33 40c1 0 7 0 21 -6z" />
    <glyph glyph-name="breve" unicode="&#x2d8;" 
d="M438 580c0 -82 -110 -82 -176 -82s-176 0 -176 82c0 19 12 31 31 31c24 0 28 -17 30 -29c5 -20 72 -20 115 -20c42 0 110 0 115 20c2 12 6 29 30 29c20 0 31 -12 31 -31z" />
    <glyph glyph-name="macron" unicode="&#xaf;" 
d="M411 514h-297c-17 0 -41 0 -41 32c0 31 24 31 40 31h298c17 0 40 0 40 -32c0 -31 -24 -31 -40 -31z" />
    <glyph glyph-name="ring" unicode="&#x2da;" horiz-adv-x="758" 
d="M495 559c0 -32 -49 -60 -117 -60c-64 0 -116 27 -116 60c0 32 49 60 117 60c64 0 116 -27 116 -60zM379 530c27 0 57 11 57 29c0 17 -27 29 -58 29c-27 0 -57 -11 -57 -29c0 -17 27 -29 58 -29z" />
    <glyph glyph-name="cedilla" unicode="&#xb8;" horiz-adv-x="466" 
d="M228 -27v33c0 18 0 39 34 39c35 0 35 -18 35 -55c48 -13 87 -45 87 -97c0 -101 -129 -101 -213 -101c-11 0 -31 7 -31 31c0 31 25 31 56 31c98 0 119 16 119 40c0 22 -24 38 -57 40c-30 2 -30 22 -30 39z" />
    <glyph glyph-name="germandbls" unicode="&#xdf;" 
d="M383 395c97 -68 112 -171 112 -220c0 -110 -91 -181 -183 -181c-68 0 -102 38 -102 75c0 27 20 42 41 42c13 0 25 -7 32 -16c7 -10 7 -12 7 -36c6 -3 15 -4 22 -4c53 0 114 43 114 120c0 55 -29 187 -164 195c-2 0 -24 5 -24 30c0 23 16 30 28 31c102 3 131 54 131 76
c0 24 -47 49 -109 49c-26 0 -51 -4 -74 -14c-34 -15 -34 -28 -34 -48v-453c0 -32 -7 -41 -40 -41h-83c-15 0 -40 0 -40 30c0 31 24 31 40 31h54v309h-54c-15 0 -40 0 -40 30c0 31 24 31 40 31h54v70c0 93 114 116 178 116c96 0 177 -44 177 -109c0 -30 -14 -76 -83 -113z
" />
    <glyph glyph-name="ae" unicode="&#xe6;" horiz-adv-x="758" 
d="M688 191h-273c13 -83 85 -136 157 -136c12 0 64 0 88 60c7 20 18 22 33 22c6 0 35 0 35 -28c0 -26 -46 -115 -162 -115c-43 0 -113 13 -170 79c-33 -68 -134 -79 -183 -79c-99 0 -160 60 -160 124c0 122 228 129 291 131v30c0 65 -45 100 -123 100c-14 0 -23 0 -38 -1
c-15 -2 -16 -3 -16 -11c-1 -36 -28 -46 -44 -46c-24 0 -45 16 -45 46c0 73 100 73 142 73c28 0 122 0 172 -80c57 69 121 80 159 80c114 0 177 -91 177 -211c0 -38 -18 -38 -40 -38zM416 251h242c-5 66 -35 128 -107 128c-60 0 -120 -50 -135 -128zM345 189
c-48 -2 -87 -3 -134 -14c-15 -4 -89 -21 -89 -56c0 -36 41 -64 100 -64c11 0 50 1 84 15c43 17 43 42 43 57c0 7 -1 17 -4 62z" />
    <glyph glyph-name="oe" unicode="&#x153;" horiz-adv-x="816" 
d="M747 191h-273c13 -83 85 -136 157 -136c12 0 64 0 88 60c7 20 18 22 33 22c6 0 35 0 35 -28c0 -26 -46 -115 -162 -115c-99 0 -163 64 -187 102c-38 -58 -103 -102 -183 -102c-119 0 -217 99 -217 223s98 223 217 223c71 0 139 -36 182 -101c36 61 102 101 173 101
c114 0 177 -91 177 -211c0 -38 -18 -38 -40 -38zM475 251h242c-5 66 -35 128 -107 128c-60 0 -120 -50 -135 -128zM255 55c81 0 148 76 148 168c0 90 -69 156 -148 156s-148 -66 -148 -156c0 -92 67 -168 148 -168z" />
    <glyph glyph-name="oslash" unicode="&#xf8;" 
d="M474 520l-75 -130c49 -45 80 -107 80 -174c0 -124 -99 -222 -217 -222c-18 0 -49 2 -83 17c-17 -29 -59 -103 -77 -132c-4 -8 -11 -19 -27 -19c-12 0 -32 10 -32 30c0 8 10 26 17 38l66 114c-59 51 -81 116 -81 174c0 122 96 224 217 224c40 0 68 -11 85 -18l75 130
c5 9 11 19 27 19c12 0 32 -10 32 -30c0 -3 0 -9 -7 -21zM156 94l160 276c-20 7 -26 9 -54 9c-88 0 -161 -73 -161 -163c0 -35 11 -81 55 -122zM368 338l-158 -275c19 -6 25 -8 52 -8c88 0 161 71 161 161c0 36 -13 85 -55 122z" />
    <glyph glyph-name="AE" unicode="&#xc6;" horiz-adv-x="933" 
d="M260 183l-53 -122h37c16 0 40 0 40 -31c0 -30 -25 -30 -40 -30h-159c-16 0 -41 0 -41 31c0 30 26 30 41 30h47l214 489h-17c-14 0 -41 0 -41 30c0 31 26 31 41 31h505c34 0 40 -10 40 -41v-73c0 -20 0 -41 -35 -41c-34 0 -34 22 -34 41v53h-267v-203h147c0 41 0 57 35 57
c34 0 34 -22 34 -41v-93c0 -19 0 -41 -34 -41c-35 0 -35 16 -35 57h-147v-225h296v69c0 20 0 41 35 41c34 0 34 -22 34 -41v-89c0 -32 -7 -41 -40 -41h-424c-15 0 -41 0 -41 30c0 31 25 31 41 31h30v122h-209zM422 550l-135 -306h182v306h-47z" />
    <glyph glyph-name="OE" unicode="&#x152;" horiz-adv-x="1050" 
d="M594 286v-225h357v69c0 20 0 41 35 41c34 0 34 -22 34 -41v-89c0 -32 -7 -41 -40 -41h-422c-18 0 -46 -2 -61 -4c-20 -2 -60 -7 -89 -7c-196 0 -350 144 -350 317c0 169 151 316 350 316c1 0 28 0 61 -4c2 0 59 -7 89 -7h393c34 0 40 -10 40 -41v-73c0 -20 0 -41 -35 -41
c-34 0 -34 22 -34 41v53h-328v-203h222c0 41 0 57 35 57c34 0 34 -22 34 -41v-93c0 -19 0 -41 -34 -41c-35 0 -35 16 -35 57h-222zM413 50c100 0 110 32 111 149c0 36 1 71 1 107c0 35 -1 69 -1 104c-1 119 -10 151 -111 151c-176 0 -286 -121 -286 -244
c0 -134 111 -267 286 -267z" />
    <glyph glyph-name="Oslash" unicode="&#xd8;" horiz-adv-x="816" 
d="M688 640l-63 -86c100 -73 133 -170 133 -249c0 -169 -152 -316 -350 -316c-80 0 -141 25 -164 37l-68 -94c-11 -15 -18 -17 -27 -17c-14 0 -32 11 -32 31c0 8 0 10 15 30l59 81c-100 73 -133 170 -133 249c0 169 152 316 350 316c93 0 160 -35 165 -37l65 92
c13 19 23 19 29 19c14 0 32 -11 32 -31c0 -2 0 -10 -11 -25zM225 105l311 431c-32 12 -73 25 -128 25c-165 0 -294 -117 -294 -256c0 -87 52 -159 111 -200zM590 506l-310 -431c32 -12 73 -25 128 -25c165 0 294 117 294 256c0 89 -54 162 -112 200z" />
    <glyph glyph-name="suppress" horiz-adv-x="291" 
d="M262 327l-212 -61c-12 -4 -14 -4 -20 -4c-25 0 -30 25 -30 32c0 22 18 27 29 30l216 61c5 1 13 4 16 4c21 0 30 -20 30 -33c0 -21 -16 -25 -29 -29z" />
    <glyph glyph-name="exclam" unicode="!" horiz-adv-x="291" 
d="M196 565c0 -53 -4 -108 -5 -160c-1 -54 -2 -119 -4 -173c-2 -40 -5 -48 -41 -48c-13 0 -39 0 -40 26c-2 41 -2 80 -3 121c-2 45 -7 200 -7 234c0 53 41 57 50 57s50 -4 50 -57zM196 50c0 -28 -22 -50 -50 -50s-50 22 -50 50s22 50 50 50s50 -22 50 -50z" />
    <glyph glyph-name="quotedblright" unicode="&#x201d;" 
d="M88 511c-52 2 -53 44 -53 50c0 27 21 50 50 50c36 0 65 -32 65 -91c0 -89 -70 -148 -92 -148c-17 0 -32 17 -32 31c0 15 9 21 17 27c14 11 41 35 45 81zM292 511c-52 2 -53 44 -53 50c0 27 21 50 50 50c36 0 65 -32 65 -91c0 -89 -70 -148 -92 -148c-17 0 -32 17 -32 31
c0 15 9 21 17 27c14 11 41 35 45 81z" />
    <glyph glyph-name="numbersign" unicode="#" horiz-adv-x="875" 
d="M542 195l-70 -166c-5 -13 -12 -29 -35 -29c-20 0 -35 17 -35 35c0 3 0 8 6 22l58 138h-151l-70 -166c-5 -13 -12 -29 -35 -29c-20 0 -35 17 -35 35c0 3 0 8 6 22l58 138h-130c-14 0 -51 0 -51 35s33 35 45 35h166l34 82h-200c-12 0 -45 0 -45 35s37 35 51 35h224l69 165
c5 13 12 29 35 29c20 0 35 -17 35 -35c0 -4 0 -8 -6 -22l-57 -137h151l69 165c5 13 12 29 35 29c20 0 35 -17 35 -35c0 -4 0 -8 -6 -22l-57 -137h129c14 0 51 0 51 -35s-33 -35 -45 -35h-165l-34 -82h199c12 0 45 0 45 -35s-37 -35 -51 -35h-223zM345 265h151l34 82h-151z
" />
    <glyph glyph-name="dollar" unicode="$" 
d="M293 554v-208c145 -27 173 -126 173 -175c0 -70 -51 -156 -173 -175v-38c0 -16 0 -41 -30 -41c-31 0 -31 25 -31 41v37c-116 11 -174 88 -174 171c0 46 36 50 45 50c20 0 44 -17 44 -45c0 -23 -10 -31 -16 -35c15 -51 56 -73 101 -79v232c-168 31 -174 139 -174 163
c0 74 64 150 174 163v38c0 16 0 41 31 41c30 0 30 -25 30 -41v-37c118 -10 173 -82 173 -159c0 -37 -24 -49 -45 -49c-27 0 -44 21 -44 44c0 13 5 25 15 33c-16 51 -66 65 -99 69zM232 359v195c-62 -10 -110 -50 -110 -98c0 -51 53 -87 110 -97zM293 276v-218
c64 11 109 58 109 109s-43 96 -109 109z" />
    <glyph glyph-name="percent" unicode="%" horiz-adv-x="875" 
d="M695 633l-459 -695c-7 -11 -14 -21 -32 -21c-19 0 -35 16 -35 35c0 7 2 13 10 26l460 698c10 15 23 18 31 18c20 0 35 -17 35 -35c0 -7 -1 -13 -10 -26zM816 111c0 -110 -67 -194 -146 -194c-78 0 -146 81 -146 195c0 110 67 194 146 194c78 0 146 -81 146 -195zM670 -22
c45 0 90 55 90 134c0 76 -44 133 -90 133c-45 0 -90 -55 -90 -134c0 -76 44 -133 90 -133zM350 499c0 -110 -67 -194 -146 -194c-78 0 -146 81 -146 195c0 110 67 194 146 194c78 0 146 -81 146 -195zM204 366c45 0 90 55 90 134c0 76 -44 133 -90 133
c-45 0 -90 -55 -90 -134c0 -76 44 -133 90 -133z" />
    <glyph glyph-name="ampersand" unicode="&#x26;" horiz-adv-x="816" 
d="M655 370l-83 -134c-15 -24 -32 -47 -49 -69c-28 -38 -50 -61 -57 -68c53 -36 105 -49 144 -49c41 0 87 17 92 55c1 11 4 33 28 33c1 0 28 0 28 -32c0 -55 -54 -117 -148 -117c-50 0 -109 14 -189 69c-54 -43 -118 -69 -187 -69c-103 0 -190 61 -190 149
c0 50 30 88 59 109c23 17 83 58 107 75c-22 52 -34 108 -34 157c0 96 77 143 138 143c79 0 121 -74 121 -137c0 -61 -51 -114 -151 -186c47 -87 127 -157 135 -164c64 62 99 119 169 235h-76c-15 0 -40 0 -40 30c0 31 24 31 40 31h212c16 0 40 0 40 -31
c0 -30 -25 -30 -40 -30h-69zM257 356c45 31 122 90 122 129c0 31 -20 76 -65 76c-27 0 -82 -19 -82 -82c0 -4 0 -62 25 -123zM238 266c-88 -57 -125 -80 -125 -126c0 -51 54 -90 122 -90c71 0 121 35 140 48c-6 5 -42 40 -70 73c-19 23 -46 56 -67 95z" />
    <glyph glyph-name="quoteright" unicode="&#x2019;" horiz-adv-x="291" 
d="M149 511c-52 2 -53 44 -53 50c0 27 21 50 50 50c36 0 65 -32 65 -91c0 -89 -70 -148 -92 -148c-17 0 -32 17 -32 31c0 15 9 21 17 27c14 11 41 35 45 81z" />
    <glyph glyph-name="parenleft" unicode="(" horiz-adv-x="408" 
d="M349 -54c0 -8 -5 -28 -31 -28c-24 0 -99 56 -152 129c-35 50 -81 140 -81 259c0 256 204 388 233 388c26 0 31 -20 31 -28c0 -15 -7 -19 -23 -30c-134 -91 -172 -230 -172 -330c0 -112 46 -245 170 -329c18 -12 25 -16 25 -31z" />
    <glyph glyph-name="parenright" unicode=")" horiz-adv-x="408" 
d="M322 306c0 -256 -204 -388 -233 -388c-25 0 -31 20 -31 28c0 15 8 20 23 30c135 91 172 230 172 330c0 65 -15 226 -179 335c-5 3 -16 10 -16 25c0 8 6 28 31 28c24 0 99 -56 152 -129c35 -50 81 -140 81 -259z" />
    <glyph glyph-name="asterisk" unicode="*" 
d="M431 364l-108 -59c26 -14 94 -47 119 -64c2 -1 14 -10 14 -27c0 -15 -13 -33 -33 -33c-8 0 -10 0 -37 16c-70 42 -33 22 -94 56c2 -26 3 -92 3 -121c0 -9 0 -42 -33 -42s-33 33 -33 42c0 29 1 95 3 121l-124 -72c-40 0 -40 29 -40 33c0 20 13 26 25 33l108 59l-109 59
c-13 7 -24 13 -24 32c0 15 13 33 33 33c7 0 9 0 23 -9l108 -63c-2 26 -3 92 -3 121c0 9 0 42 33 42s33 -33 33 -42c0 -29 -1 -95 -3 -121l124 72c40 0 40 -29 40 -33c0 -19 -13 -26 -25 -33z" />
    <glyph glyph-name="plus" unicode="+" horiz-adv-x="816" 
d="M443 271v-268c0 -12 0 -47 -35 -47s-35 35 -35 47v268h-268c-12 0 -47 0 -47 35s35 35 47 35h268v268c0 12 0 47 35 47s35 -35 35 -47v-268h268c12 0 47 0 47 -35s-35 -35 -47 -35h-268z" />
    <glyph glyph-name="comma" unicode="," horiz-adv-x="291" 
d="M146 0c-49 4 -50 44 -50 50c0 27 20 50 50 50c32 0 62 -26 62 -90c0 -89 -67 -149 -89 -149c-17 0 -32 17 -32 31s8 20 15 26c39 32 42 65 44 82z" />
    <glyph glyph-name="hyphen" unicode="-" horiz-adv-x="350" 
d="M251 185h-199c-16 0 -40 0 -40 31c0 30 25 30 40 30h199c16 0 40 0 40 -31c0 -30 -25 -30 -40 -30z" />
    <glyph glyph-name="period" unicode="." horiz-adv-x="291" 
d="M196 50c0 -28 -22 -50 -50 -50s-50 22 -50 50s22 50 50 50s50 -22 50 -50z" />
    <glyph glyph-name="slash" unicode="/" 
d="M458 635l-330 -690c-6 -13 -13 -28 -35 -28c-20 0 -35 17 -35 35c0 8 1 8 8 24l330 690c6 13 13 28 35 28c20 0 35 -17 35 -35c0 -8 -1 -8 -8 -24z" />
    <glyph glyph-name="zero" unicode="0" 
d="M474 305c0 -66 0 -316 -212 -316s-212 250 -212 317c0 66 0 316 212 316s212 -250 212 -317zM262 50c143 0 143 212 143 265c0 55 0 246 -143 246s-143 -191 -143 -246c0 -53 0 -265 143 -265z" />
    <glyph glyph-name="one" unicode="1" 
d="M311 581v-520h91c16 0 40 0 40 -31c0 -30 -25 -30 -40 -30h-251c-15 0 -40 0 -40 30c0 31 24 31 40 31h91v463c-30 -16 -74 -24 -102 -24c-8 0 -35 0 -35 30c0 22 15 30 29 31c21 1 81 3 119 44c10 12 15 17 28 17c30 0 30 -25 30 -41z" />
    <glyph glyph-name="two" unicode="2" 
d="M67 58l221 186c66 55 115 113 115 183c0 88 -77 134 -159 134c-55 0 -102 -31 -117 -77c9 -7 14 -20 14 -32c0 -28 -23 -45 -44 -45c-17 0 -45 11 -45 48c0 85 79 167 197 167c122 0 223 -75 223 -195c0 -80 -46 -144 -109 -200c-43 -40 -139 -115 -198 -166h238
c0 28 0 47 35 47c34 0 34 -22 34 -41v-26c0 -32 -7 -41 -40 -41h-339c-16 0 -41 0 -41 31c0 14 6 19 15 27z" />
    <glyph glyph-name="three" unicode="3" 
d="M261 299h-46c-16 0 -40 0 -40 31c0 29 15 29 72 33c36 2 61 4 93 30c27 22 42 57 42 87c0 45 -50 81 -118 81c-9 0 -80 0 -111 -31c3 -3 9 -13 9 -27c0 -28 -23 -45 -44 -45c-20 0 -45 14 -45 47c0 69 70 117 190 117c115 0 188 -67 188 -141c0 -54 -28 -111 -84 -147
c66 -30 113 -89 113 -160c0 -93 -85 -185 -216 -185c-123 0 -220 58 -220 147c0 32 22 47 45 47c25 0 44 -20 44 -44c0 -20 -7 -26 -12 -31c26 -47 103 -58 143 -58c91 0 147 63 147 124c0 58 -51 125 -150 125z" />
    <glyph glyph-name="four" unicode="4" 
d="M38 244l228 358c13 20 18 21 42 21h28c34 0 41 -8 41 -41v-352h78c16 0 40 0 40 -31c0 -30 -25 -30 -40 -30h-78v-108h62c16 0 40 0 40 -31c0 -30 -25 -30 -40 -30h-180c-15 0 -40 0 -40 30c0 31 24 31 40 31h62v108h-252c-31 0 -40 7 -40 40c0 20 0 22 9 35zM99 230h222
v349z" />
    <glyph glyph-name="five" unicode="5" 
d="M397 550h-240v-190c41 22 85 29 120 29c118 0 195 -98 195 -199c0 -111 -99 -201 -224 -201c-112 0 -196 70 -196 153c0 39 30 48 45 48c21 0 44 -16 44 -45c0 -20 -8 -27 -13 -32c28 -55 92 -63 120 -63c84 0 155 60 155 140c0 65 -45 138 -127 138
c-58 0 -99 -18 -126 -50c-8 -10 -12 -15 -30 -15c-32 0 -32 23 -32 41v266c0 32 7 41 40 41h269c16 0 40 0 40 -31c0 -30 -25 -30 -40 -30z" />
    <glyph glyph-name="six" unicode="6" 
d="M124 338c45 41 97 58 149 58c110 0 198 -89 198 -203c0 -120 -98 -204 -207 -204c-99 0 -211 73 -211 310c0 202 134 323 268 323c97 0 133 -54 133 -103c0 -30 -20 -47 -45 -47c-26 0 -44 20 -44 44c0 18 5 24 10 29c-5 5 -21 16 -55 16c-88 0 -182 -82 -196 -223z
M134 182l1 -4c2 -6 3 -12 5 -18c20 -61 59 -110 124 -110c72 0 138 57 138 143c0 74 -53 141 -134 141c-76 0 -136 -50 -136 -112c0 -7 2 -24 3 -31z" />
    <glyph glyph-name="seven" unicode="7" 
d="M377 550h-264c0 -28 0 -47 -35 -47c-34 0 -34 22 -34 41v42c0 19 0 41 34 41c8 0 26 0 32 -16h330c16 0 40 0 40 -31c0 -14 -2 -16 -22 -34c-61 -59 -214 -233 -219 -517c0 -29 -17 -40 -34 -40c-35 0 -35 33 -35 47c0 110 34 330 207 514z" />
    <glyph glyph-name="eight" unicode="8" 
d="M341 329c74 -21 139 -80 139 -155c0 -97 -92 -185 -218 -185c-125 0 -218 88 -218 185c0 75 64 134 139 155c-79 26 -125 76 -125 133c0 81 84 160 204 160c119 0 204 -78 204 -160c0 -57 -45 -106 -125 -133zM262 360c73 0 135 44 135 101c0 52 -57 100 -135 100
c-79 0 -135 -48 -135 -100c0 -56 62 -101 135 -101zM262 50c83 0 149 56 149 125c0 61 -57 124 -149 124c-91 0 -149 -63 -149 -124c0 -69 66 -125 149 -125z" />
    <glyph glyph-name="nine" unicode="9" 
d="M400 273c-45 -41 -97 -58 -149 -58c-110 0 -198 89 -198 203c0 121 101 204 212 204c95 0 206 -69 206 -310c0 -198 -123 -323 -255 -323c-128 0 -146 71 -146 103c0 30 20 47 45 47c26 0 44 -20 44 -44c0 -17 -5 -23 -9 -28c21 -16 57 -17 66 -17c96 0 174 99 184 223z
M256 277c83 0 137 57 137 112c0 9 -4 25 -4 30s1 7 1 9c0 6 -12 57 -38 90c-16 20 -44 43 -87 43c-72 0 -143 -56 -143 -143c0 -74 53 -141 134 -141z" />
    <glyph glyph-name="colon" unicode=":" horiz-adv-x="291" 
d="M196 381c0 -28 -22 -50 -50 -50s-50 22 -50 50s22 50 50 50s50 -22 50 -50zM196 50c0 -28 -22 -50 -50 -50s-50 22 -50 50s22 50 50 50s50 -22 50 -50z" />
    <glyph glyph-name="semicolon" unicode=";" horiz-adv-x="291" 
d="M196 381c0 -28 -22 -50 -50 -50s-50 22 -50 50s22 50 50 50s50 -22 50 -50zM138 1c-42 9 -42 44 -42 49c0 27 20 50 50 50c53 0 53 -62 53 -84c0 -96 -58 -155 -80 -155c-16 0 -32 16 -32 32c0 7 3 13 9 19c11 12 38 40 42 89z" />
    <glyph glyph-name="exclamdown" unicode="&#xa1;" horiz-adv-x="291" 
d="M196 339c0 -28 -22 -50 -50 -50s-50 22 -50 50s22 50 50 50s50 -22 50 -50zM186 180l3 -122c2 -45 7 -200 7 -234c0 -53 -41 -57 -50 -57s-50 4 -50 57s4 108 5 160c1 54 2 119 4 173c2 40 6 48 41 48c12 0 39 0 40 -25z" />
    <glyph glyph-name="equal" unicode="=" horiz-adv-x="816" 
d="M713 347h-610c-12 0 -45 0 -45 35s37 35 51 35h598c14 0 51 0 51 -35s-33 -35 -45 -35zM707 195h-598c-14 0 -51 0 -51 35s33 35 45 35h610c12 0 45 0 45 -35s-37 -35 -51 -35z" />
    <glyph glyph-name="questiondown" unicode="&#xbf;" horiz-adv-x="495" 
d="M283 339c0 -28 -22 -50 -50 -50s-50 22 -50 50s22 50 50 50s50 -22 50 -50zM193 147v17c0 36 10 41 40 41c40 0 40 -13 40 -52c0 -50 -4 -127 -123 -212c-15 -12 -23 -27 -23 -45c0 -63 88 -63 107 -63c14 0 93 0 123 36c-3 3 -9 13 -9 27c0 28 23 45 44 45
s45 -15 45 -47c0 -62 -56 -122 -203 -122c-159 0 -176 90 -176 124c0 40 18 71 53 96c80 57 82 125 82 155z" />
    <glyph glyph-name="question" unicode="?" horiz-adv-x="495" 
d="M273 241v-17c0 -34 -10 -40 -40 -40c-40 0 -40 13 -40 52c0 56 7 130 144 212c9 6 31 19 31 45c0 33 -38 63 -130 63c-55 0 -86 -17 -101 -35c5 -6 10 -16 10 -28c0 -28 -23 -45 -44 -45s-45 15 -45 47c0 60 56 122 180 122c166 0 199 -79 199 -124
c0 -36 -19 -71 -60 -95c-54 -32 -104 -75 -104 -157zM283 50c0 -28 -22 -50 -50 -50s-50 22 -50 50s22 50 50 50s50 -22 50 -50z" />
    <glyph glyph-name="at" unicode="@" horiz-adv-x="700" 
d="M557 472c-15 32 -32 49 -54 61c-29 17 -63 23 -97 23c-160 0 -292 -112 -292 -251c0 -133 128 -250 293 -250c39 0 99 7 163 43c16 10 18 10 33 10c10 0 38 0 38 -28c0 -17 -11 -23 -28 -32c-51 -29 -122 -54 -205 -54c-197 0 -350 142 -350 312s156 311 348 311
c213 0 235 -187 235 -301c0 -148 -107 -210 -189 -210c-101 0 -188 86 -188 200c0 108 83 199 189 199c32 0 69 -9 104 -33zM453 167c70 0 132 60 132 139c0 74 -57 138 -133 138c-70 0 -132 -60 -132 -139c0 -74 57 -138 133 -138z" />
    <glyph glyph-name="A" unicode="A" horiz-adv-x="758" 
d="M441 589l189 -528h46c16 0 40 0 40 -31c0 -30 -25 -30 -40 -30h-159c-15 0 -41 0 -41 31c0 30 26 30 41 30h40l-40 111h-277l-40 -111h40c15 0 41 0 41 -31c0 -30 -26 -30 -41 -30h-159c-16 0 -40 0 -40 31c0 30 25 30 40 30h46l189 529c12 33 34 33 53 33h19
c21 0 41 0 53 -34zM378 559l-116 -326h233z" />
    <glyph glyph-name="B" unicode="B" horiz-adv-x="729" 
d="M86 611h323c133 0 232 -74 232 -155c0 -73 -80 -119 -149 -136c114 -20 178 -85 178 -153c0 -86 -97 -167 -233 -167h-351c-15 0 -40 0 -40 30c0 31 24 31 40 31h54v489h-54c-15 0 -40 0 -40 30c0 31 24 31 40 31zM209 348h166c118 0 197 51 197 107c0 50 -69 95 -165 95
h-198v-202zM209 61h200c103 0 192 46 192 108s-77 118 -176 118h-216v-226z" />
    <glyph glyph-name="C" unicode="C" horiz-adv-x="758" 
d="M699 581v-139c0 -20 0 -41 -35 -41c-9 0 -28 0 -33 23c-7 28 -16 68 -76 103c-36 21 -87 34 -140 34c-165 0 -288 -120 -288 -255s121 -256 290 -256c48 0 104 9 142 28c66 32 69 70 71 94c2 29 24 29 34 29c11 0 35 0 35 -33c0 -102 -109 -179 -289 -179
c-206 0 -352 150 -352 317c0 168 149 316 350 316c96 0 171 -30 212 -62c9 20 9 22 18 37c7 15 12 25 31 25c30 0 30 -25 30 -41z" />
    <glyph glyph-name="D" unicode="D" horiz-adv-x="787" 
d="M86 611h322c176 0 320 -140 320 -311c0 -164 -142 -300 -320 -300h-322c-15 0 -40 0 -40 30c0 31 24 31 40 31h54v489h-54c-15 0 -40 0 -40 30c0 31 24 31 40 31zM209 61h181c151 0 269 109 269 240c0 130 -113 249 -270 249h-180v-489z" />
    <glyph glyph-name="E" unicode="E" horiz-adv-x="700" 
d="M209 286v-225h392v69c0 20 0 41 35 41c34 0 34 -22 34 -41v-89c0 -32 -7 -41 -40 -41h-544c-15 0 -40 0 -40 30c0 31 24 31 40 31h54v489h-54c-15 0 -40 0 -40 30c0 31 24 31 40 31h515c34 0 40 -10 40 -41v-73c0 -20 0 -41 -35 -41c-34 0 -34 22 -34 41v53h-363v-203
h199c0 41 0 57 35 57c34 0 34 -22 34 -41v-93c0 -19 0 -41 -34 -41c-35 0 -35 16 -35 57h-199z" />
    <glyph glyph-name="F" unicode="F" horiz-adv-x="670" 
d="M209 275v-214h78c16 0 40 0 40 -31c0 -30 -25 -30 -40 -30h-201c-15 0 -40 0 -40 30c0 31 24 31 40 31h54v489h-54c-15 0 -40 0 -40 30c0 31 24 31 40 31h500c34 0 40 -10 40 -41v-73c0 -20 0 -41 -35 -41c-34 0 -34 22 -34 41v53h-348v-214h193c0 41 0 57 35 57
c34 0 34 -22 34 -41v-93c0 -19 0 -41 -34 -41c-35 0 -35 16 -35 57h-193z" />
    <glyph glyph-name="G" unicode="G" horiz-adv-x="816" 
d="M699 209v-168c0 -19 0 -41 -34 -41c-35 0 -35 21 -35 41v36c-36 -36 -111 -88 -224 -88c-192 0 -348 142 -348 317c0 168 149 316 350 316c96 0 171 -30 212 -62c9 20 9 22 18 37c7 15 12 25 31 25c30 0 30 -25 30 -41v-139c0 -20 0 -41 -35 -41c-9 0 -28 0 -33 23
c-7 28 -16 68 -76 103c-36 21 -87 34 -140 34c-163 0 -288 -117 -288 -256s127 -255 284 -255c107 0 197 65 216 159h-88c-16 0 -40 0 -40 31c0 30 25 30 40 30h192c16 0 41 0 41 -31c0 -30 -26 -30 -41 -30h-32z" />
    <glyph glyph-name="H" unicode="H" horiz-adv-x="758" 
d="M617 550v-489h54c16 0 40 0 40 -31c0 -30 -25 -30 -40 -30h-177c-15 0 -40 0 -40 30c0 31 24 31 40 31h54v226h-339v-226h54c16 0 40 0 40 -31c0 -30 -25 -30 -40 -30h-177c-15 0 -40 0 -40 30c0 31 24 31 40 31h54v489h-54c-15 0 -40 0 -40 30c0 31 24 31 40 31h177
c16 0 40 0 40 -31c0 -30 -25 -30 -40 -30h-54v-202h339v202h-54c-15 0 -40 0 -40 30c0 31 24 31 40 31h177c16 0 40 0 40 -31c0 -30 -25 -30 -40 -30h-54z" />
    <glyph glyph-name="I" unicode="I" horiz-adv-x="350" 
d="M209 550v-489h59c16 0 40 0 40 -31c0 -30 -25 -30 -40 -30h-187c-15 0 -40 0 -40 30c0 31 24 31 40 31h59v489h-59c-15 0 -40 0 -40 30c0 31 24 31 40 31h187c16 0 40 0 40 -31c0 -30 -25 -30 -40 -30h-59z" />
    <glyph glyph-name="J" unicode="J" 
d="M407 550v-416c0 -91 -81 -145 -170 -145c-100 0 -166 47 -166 110c0 32 22 47 45 47c25 0 44 -20 44 -44c0 -16 -4 -21 -8 -26c29 -26 77 -26 85 -26c19 0 101 5 101 90v410h-82c-15 0 -41 0 -41 31c0 30 26 30 41 30h181c15 0 41 0 41 -30c0 -31 -25 -31 -41 -31h-30z
" />
    <glyph glyph-name="K" unicode="K" horiz-adv-x="787" 
d="M409 357l257 -296h36c15 0 41 0 41 -31c0 -30 -26 -30 -41 -30h-126c-15 0 -40 0 -40 30c0 31 20 31 56 31l-227 261l-162 -132v-129h54c16 0 40 0 40 -31c0 -30 -25 -30 -40 -30h-164c-15 0 -40 0 -40 30c0 31 24 31 40 31h54v489h-54c-15 0 -40 0 -40 30
c0 31 24 31 40 31h164c16 0 40 0 40 -31c0 -30 -25 -30 -40 -30h-54v-288l354 288c-35 0 -55 0 -55 31c0 30 25 30 40 30h145c15 0 41 0 41 -31c0 -30 -26 -30 -41 -30h-40z" />
    <glyph glyph-name="L" unicode="L" horiz-adv-x="641" 
d="M209 550v-489h319v69c0 21 0 41 35 41c34 0 34 -21 34 -41v-89c0 -32 -7 -41 -40 -41h-471c-15 0 -40 0 -40 30c0 31 24 31 40 31h54v489h-54c-15 0 -40 0 -40 30c0 31 24 31 40 31h201c16 0 40 0 40 -31c0 -30 -25 -30 -40 -30h-78z" />
    <glyph glyph-name="M" unicode="M" horiz-adv-x="933" 
d="M247 574l219 -499l219 501c15 35 38 35 58 35h96c16 0 40 0 40 -31c0 -30 -25 -30 -40 -30h-54v-489h54c16 0 40 0 40 -31c0 -30 -25 -30 -40 -30h-164c-16 0 -40 0 -40 31c0 30 25 30 40 30h54v484h-1l-218 -499c-14 -31 -35 -35 -44 -35c-28 0 -39 25 -44 37l-218 497
h-1v-484h54c16 0 40 0 40 -31c0 -30 -25 -30 -40 -30h-164c-15 0 -40 0 -40 30c0 31 24 31 40 31h54v489h-54c-15 0 -40 0 -40 30c0 31 24 31 40 31h96c33 0 45 -7 58 -37z" />
    <glyph glyph-name="N" unicode="N" horiz-adv-x="758" 
d="M251 577l302 -526h1v499h-54c-15 0 -40 0 -40 30c0 31 24 31 40 31h164c16 0 40 0 40 -31c0 -30 -25 -30 -40 -30h-54v-509c0 -35 -9 -41 -41 -41c-21 0 -43 0 -63 34l-302 526h-1v-499h54c16 0 40 0 40 -31c0 -30 -25 -30 -40 -30h-164c-15 0 -40 0 -40 30
c0 31 24 31 40 31h54v489h-54c-15 0 -40 0 -40 30c0 31 24 31 40 31h95c21 0 43 0 63 -34z" />
    <glyph glyph-name="O" unicode="O" horiz-adv-x="816" 
d="M758 305c0 -169 -152 -316 -350 -316c-196 0 -350 144 -350 317c0 169 152 316 350 316c196 0 350 -144 350 -317zM408 50c157 0 281 122 281 267c0 133 -124 244 -281 244s-281 -111 -281 -244c0 -144 123 -267 281 -267z" />
    <glyph glyph-name="P" unicode="P" horiz-adv-x="700" 
d="M209 245v-184h54c16 0 40 0 40 -31c0 -30 -25 -30 -40 -30h-177c-15 0 -40 0 -40 30c0 31 24 31 40 31h54v489h-54c-15 0 -40 0 -40 30c0 31 24 31 40 31h308c142 0 247 -86 247 -183s-105 -183 -247 -183h-185zM377 550h-168v-244h168c110 0 195 57 195 122
s-84 122 -195 122z" />
    <glyph glyph-name="Q" unicode="Q" horiz-adv-x="816" 
d="M631 -121l-99 109c-14 15 -14 16 -15 16s-3 0 -7 -2c-40 -10 -73 -13 -102 -13c-196 0 -350 144 -350 317c0 169 152 316 350 316c196 0 350 -144 350 -317c0 -56 -18 -189 -180 -277l108 -119c9 -10 22 -24 22 -31c0 -17 -16 -17 -31 -17c-21 0 -30 0 -46 18zM471 56
l-81 93c0 22 10 22 32 22c23 0 24 -1 35 -11c11 -11 28 -32 76 -83c93 41 156 130 156 229c0 137 -122 255 -281 255c-156 0 -281 -115 -281 -256c0 -137 122 -255 281 -255c1 0 33 0 63 6z" />
    <glyph glyph-name="R" unicode="R" horiz-adv-x="758" 
d="M511 307c22 -11 42 -26 56 -46c20 -30 20 -46 20 -100c0 -61 0 -111 54 -111c21 0 41 14 44 45c3 30 22 30 34 30c10 0 35 0 35 -31c0 -48 -42 -105 -113 -105c-41 0 -77 18 -97 45c-26 36 -26 63 -26 123s0 72 -40 95c-22 11 -69 23 -126 23h-143v-214h54
c16 0 40 0 40 -31c0 -30 -25 -30 -40 -30h-177c-15 0 -40 0 -40 30c0 31 24 31 40 31h54v489h-54c-15 0 -40 0 -40 30c0 31 24 31 40 31h268c145 0 272 -74 272 -168c0 -55 -43 -105 -115 -136zM345 336c107 0 212 44 212 107s-105 107 -212 107h-136v-214h136z" />
    <glyph glyph-name="S" unicode="S" horiz-adv-x="583" 
d="M222 367l148 -31c90 -19 154 -90 154 -170c0 -87 -76 -177 -209 -177c-47 0 -130 6 -188 48c-14 -38 -17 -48 -39 -48c-30 0 -30 25 -30 41v132c0 20 0 41 35 41c32 0 33 -19 34 -33c3 -45 19 -70 55 -92c28 -16 79 -28 134 -28c92 0 143 58 143 112c0 43 -31 71 -32 71
c-33 28 -48 31 -110 44l-43 9c-91 19 -126 26 -167 64c-23 22 -49 58 -49 108c0 84 81 164 206 164c40 0 110 -7 162 -51c15 44 17 51 39 51c30 0 30 -25 30 -41v-132c0 -20 0 -41 -35 -41c-29 0 -32 15 -35 32c-13 68 -57 121 -162 121c-84 0 -140 -49 -140 -99
c0 -62 72 -89 99 -95z" />
    <glyph glyph-name="T" unicode="T" horiz-adv-x="758" 
d="M413 550v-489h93c15 0 41 0 41 -31c0 -30 -27 -30 -41 -30h-255c-15 0 -41 0 -41 31c0 30 27 30 41 30h93v489h-237v-53c0 -20 0 -41 -35 -41c-34 0 -34 22 -34 41v73c0 33 8 41 41 41h600c34 0 40 -10 40 -41v-73c0 -20 0 -41 -35 -41c-34 0 -34 22 -34 41v53h-237z" />
    <glyph glyph-name="U" unicode="U" horiz-adv-x="758" 
d="M617 550v-344c0 -124 -108 -217 -239 -217c-127 0 -238 91 -238 217v344h-54c-15 0 -40 0 -40 30c0 31 24 31 40 31h177c16 0 40 0 40 -31c0 -30 -25 -30 -40 -30h-54v-338c0 -112 94 -162 170 -162c72 0 169 48 169 162v338h-54c-15 0 -40 0 -40 30c0 31 24 31 40 31
h177c16 0 40 0 40 -31c0 -30 -25 -30 -40 -30h-54z" />
    <glyph glyph-name="V" unicode="V" horiz-adv-x="758" 
d="M648 550l-205 -523c-13 -34 -31 -35 -55 -35h-19c-38 0 -45 11 -55 36l-205 522h-41c-16 0 -40 0 -40 31c0 30 25 30 40 30h154c16 0 41 0 41 -31c0 -30 -26 -30 -41 -30h-39l196 -499l195 499h-39c-15 0 -41 0 -41 30c0 31 25 31 41 31h154c16 0 40 0 40 -31
c0 -30 -25 -30 -40 -30h-41z" />
    <glyph glyph-name="W" unicode="W" horiz-adv-x="1050" 
d="M950 550l-157 -524c-10 -34 -32 -34 -54 -34c-37 0 -45 7 -54 38l-161 532l-160 -533c-11 -36 -26 -37 -54 -37c-17 0 -39 0 -50 22l-161 536h-34c-15 0 -41 0 -41 31c0 30 26 30 41 30h135c15 0 41 0 41 -31c0 -30 -26 -30 -41 -30h-42l152 -507l161 534
c10 34 27 34 54 34c22 0 44 0 54 -34l160 -534l152 507h-42c-14 0 -41 0 -41 30c0 31 25 31 41 31h135c15 0 41 0 41 -31c0 -30 -26 -30 -41 -30h-34z" />
    <glyph glyph-name="X" unicode="X" horiz-adv-x="758" 
d="M410 324l212 -263h50c15 0 41 0 41 -31c0 -30 -27 -30 -41 -30h-157c-15 0 -40 0 -40 30c0 31 24 31 40 31h21l-165 212l-155 -212h23c16 0 41 0 41 -31c0 -30 -26 -30 -41 -30h-156c-14 0 -41 0 -41 30c0 31 26 31 41 31h49l200 263l-183 226h-49c-16 0 -41 0 -41 31
c0 30 26 30 41 30h156c16 0 41 0 41 -31c0 -30 -26 -30 -41 -30h-19l134 -168l125 168h-22c-15 0 -41 0 -41 31c0 30 26 30 41 30h156c15 0 41 0 41 -31c0 -30 -26 -30 -41 -30h-49z" />
    <glyph glyph-name="Y" unicode="Y" horiz-adv-x="758" 
d="M638 550l-225 -306v-183h54c16 0 40 0 40 -31c0 -30 -25 -30 -40 -30h-177c-15 0 -40 0 -40 30c0 31 24 31 40 31h54v183l-225 306h-48c-15 0 -41 0 -41 31c0 30 26 30 41 30h156c15 0 41 0 41 -31c0 -30 -26 -30 -41 -30h-23l174 -236l175 236h-23c-15 0 -41 0 -41 31
c0 30 26 30 41 30h156c15 0 41 0 41 -31c0 -30 -26 -30 -41 -30h-48z" />
    <glyph glyph-name="Z" unicode="Z" horiz-adv-x="641" 
d="M571 546l-416 -485h365v72c0 20 0 41 35 41c34 0 34 -22 34 -41v-92c0 -32 -7 -41 -40 -41h-450c-19 0 -41 0 -41 34c0 16 1 19 12 31l416 485h-344v-53c0 -20 0 -41 -35 -41c-34 0 -34 22 -34 41v73c0 33 8 41 41 41h428c19 0 41 0 41 -34c0 -16 -1 -19 -12 -31z" />
    <glyph glyph-name="bracketleft" unicode="[" horiz-adv-x="297" 
d="M179 633v-655h54c16 0 40 0 40 -31c0 -30 -25 -30 -40 -30h-83c-34 0 -40 10 -40 41v695c0 32 7 41 40 41h83c16 0 40 0 40 -31c0 -30 -25 -30 -40 -30h-54z" />
    <glyph glyph-name="quotedblleft" unicode="&#x201c;" 
d="M232 472c52 -2 53 -44 53 -50c0 -27 -21 -50 -50 -50c-36 0 -65 32 -65 91c0 89 70 148 92 148c17 0 32 -17 32 -31c0 -15 -9 -21 -17 -27c-14 -11 -41 -35 -45 -81zM436 472c52 -2 53 -44 53 -50c0 -27 -21 -50 -50 -50c-36 0 -65 32 -65 91c0 89 70 148 92 148
c17 0 32 -17 32 -31c0 -15 -9 -21 -17 -27c-14 -11 -41 -35 -45 -81z" />
    <glyph glyph-name="bracketright" unicode="]" horiz-adv-x="297" 
d="M186 653v-695c0 -32 -7 -41 -40 -41h-83c-16 0 -40 0 -40 31c0 30 25 30 40 30h54v655h-54c-16 0 -40 0 -40 31c0 30 25 30 40 30h83c34 0 40 -10 40 -41z" />
    <glyph glyph-name="circumflex" unicode="&#x2c6;" 
d="M283 604l120 -66c12 -7 21 -11 21 -28c0 -7 -10 -39 -34 -39c-6 0 -8 0 -22 9l-106 61l-106 -62c-12 -7 -18 -8 -22 -8c-24 0 -34 32 -34 39c0 17 8 21 23 29l122 66c9 5 11 6 17 6c3 0 9 0 21 -7z" />
    <glyph glyph-name="dotaccent" unicode="&#x2d9;" horiz-adv-x="291" 
d="M196 562c0 -25 -20 -50 -51 -50c-27 0 -50 23 -50 50c0 25 20 50 51 50c27 0 50 -23 50 -50z" />
    <glyph glyph-name="quoteleft" unicode="&#x2018;" horiz-adv-x="291" 
d="M143 472c52 -2 53 -44 53 -50c0 -27 -21 -50 -50 -50c-36 0 -65 32 -65 91c0 89 70 148 92 148c17 0 32 -17 32 -31c0 -15 -9 -21 -17 -27c-14 -11 -41 -35 -45 -81z" />
    <glyph glyph-name="a" unicode="a" horiz-adv-x="510" 
d="M413 285v-216c9 -4 18 -8 56 -8c15 0 40 0 40 -30c0 -31 -22 -31 -49 -31c-43 0 -85 3 -105 32c-26 -18 -76 -38 -142 -38c-97 0 -160 64 -160 134c0 91 111 146 291 149c0 71 -50 102 -123 102c-12 0 -25 0 -37 -1c-16 -2 -17 -3 -17 -11c-1 -36 -27 -46 -44 -46
c-24 0 -45 16 -45 46c0 73 100 73 142 73c138 0 193 -82 193 -155zM344 134v84c-157 -5 -222 -46 -222 -90c0 -38 39 -73 99 -73c7 0 49 0 84 16c39 18 39 41 39 63z" />
    <glyph glyph-name="b" unicode="b" horiz-adv-x="583" 
d="M180 570v-187c45 39 98 54 145 54c119 0 213 -101 213 -221c0 -126 -105 -222 -224 -222c-65 0 -109 32 -134 59c0 -35 0 -53 -34 -53c-35 0 -35 21 -35 41v509h-54c-15 0 -40 0 -40 30c0 31 24 31 40 31h83c34 0 40 -10 40 -41zM180 262v-67c0 -55 46 -140 130 -140
c83 0 159 68 159 161c0 84 -63 160 -150 160c-70 0 -139 -51 -139 -114z" />
    <glyph glyph-name="c" unicode="c" horiz-adv-x="466" 
d="M437 109c0 -17 -34 -115 -173 -115c-126 0 -220 102 -220 222c0 88 60 224 232 224c45 0 149 0 149 -73c0 -29 -21 -46 -45 -46s-43 14 -44 49c0 9 -39 9 -60 9c-135 0 -163 -115 -163 -163c0 -91 72 -161 157 -161c74 0 93 47 99 60c7 20 17 22 33 22c6 0 35 0 35 -28z
" />
    <glyph glyph-name="d" unicode="d" horiz-adv-x="583" 
d="M471 570v-509h54c16 0 40 0 40 -31c0 -30 -25 -30 -40 -30h-83c-34 0 -40 10 -40 41v17c-25 -27 -74 -64 -145 -64c-116 0 -213 98 -213 221c0 124 101 222 224 222c45 0 93 -15 134 -51v164h-54c-16 0 -40 0 -40 31c0 30 25 30 40 30h83c34 0 40 -10 40 -41zM402 197v66
c0 59 -59 113 -129 113c-86 0 -160 -70 -160 -161c0 -87 66 -160 149 -160c85 0 140 82 140 142z" />
    <glyph glyph-name="e" unicode="e" horiz-adv-x="466" 
d="M397 191h-288c14 -82 85 -136 160 -136c32 0 80 12 100 60c7 20 17 22 33 22c6 0 35 0 35 -28c0 -26 -47 -115 -174 -115c-126 0 -225 100 -225 224c0 120 92 222 210 222c123 0 189 -93 189 -212c0 -37 -19 -37 -40 -37zM110 251h256c-8 103 -68 128 -118 128
c-66 0 -124 -53 -138 -128z" />
    <glyph glyph-name="f" unicode="f" horiz-adv-x="320" 
d="M180 370v-309h78c16 0 40 0 40 -31c0 -30 -25 -30 -40 -30h-201c-15 0 -40 0 -40 30c0 31 24 31 40 31h54v309h-43c-15 0 -40 0 -40 30c0 31 25 31 41 31h42v53c0 87 76 133 156 133c15 0 95 0 95 -60c0 -28 -23 -44 -43 -44c-35 0 -44 39 -44 43c-29 0 -95 0 -95 -78
v-47h81c16 0 40 0 40 -31c0 -30 -25 -30 -40 -30h-81z" />
    <glyph glyph-name="g" unicode="g" 
d="M211 61h70c90 0 132 -22 145 -29c51 -27 69 -77 69 -114c0 -85 -105 -147 -233 -147s-233 61 -233 147c0 11 0 79 74 124c-9 12 -23 37 -23 72c0 30 9 52 20 68c-15 19 -32 52 -32 95c0 85 71 160 165 160c46 0 81 -19 97 -30c46 34 95 35 106 35c54 0 73 -31 73 -54
c0 -29 -23 -41 -40 -41c-10 0 -33 7 -39 34c-13 -1 -37 -5 -58 -17c17 -28 26 -57 26 -87c0 -89 -73 -161 -165 -161c-49 0 -87 23 -90 25c-4 -10 -6 -24 -6 -28c0 -2 1 -22 12 -36c12 -14 18 -14 33 -14c8 -2 21 -2 29 -2zM233 176c52 0 96 44 96 101c0 53 -42 100 -96 100
c-52 0 -96 -44 -96 -101c0 -53 42 -100 96 -100zM262 -169c100 0 175 43 175 87c0 86 -113 86 -202 86c-73 0 -82 0 -107 -16c-32 -20 -41 -52 -41 -70c0 -44 75 -87 175 -87z" />
    <glyph glyph-name="h" unicode="h" horiz-adv-x="583" 
d="M471 291v-230h54c16 0 40 0 40 -31c0 -30 -25 -30 -40 -30h-177c-16 0 -40 0 -40 31c0 30 25 30 40 30h54v224c0 56 -11 91 -81 91c-55 0 -141 -34 -141 -139v-176h54c16 0 40 0 40 -31c0 -30 -25 -30 -40 -30h-177c-15 0 -40 0 -40 30c0 31 24 31 40 31h54v489h-54
c-15 0 -40 0 -40 30c0 31 24 31 40 31h83c34 0 40 -10 40 -41v-190c39 36 89 57 147 57c82 0 144 -38 144 -146z" />
    <glyph glyph-name="i" unicode="i" horiz-adv-x="291" 
d="M180 562c0 -28 -22 -50 -50 -50s-50 22 -50 50s22 50 50 50s50 -22 50 -50zM62 431h78c34 0 40 -10 40 -41v-329h44c16 0 41 0 41 -31c0 -30 -25 -30 -40 -30h-168c-15 0 -40 0 -40 30c0 31 24 31 40 31h54v309h-49c-15 0 -41 0 -41 31c0 30 26 30 41 30z" />
    <glyph glyph-name="j" unicode="j" horiz-adv-x="320" 
d="M209 562c0 -28 -22 -50 -50 -50s-50 22 -50 50s22 50 50 50s50 -22 50 -50zM77 431h92c34 0 40 -10 40 -41v-437c0 -73 -33 -181 -138 -181c-73 0 -117 30 -117 76c0 29 22 46 45 46c9 0 44 -2 44 -53c0 -1 0 -3 1 -3c3 -4 24 -5 30 -5c60 0 66 87 66 124v413h-63
c-16 0 -41 0 -41 31c0 30 26 30 41 30z" />
    <glyph glyph-name="k" unicode="k" horiz-adv-x="554" 
d="M303 255l157 -194h35c15 0 41 0 41 -31c0 -30 -26 -30 -41 -30h-126c-16 0 -40 0 -40 31c0 30 25 30 40 30h19l-127 157l-87 -77v-80h54c16 0 40 0 40 -31c0 -30 -25 -30 -40 -30h-164c-15 0 -40 0 -40 30c0 31 24 31 40 31h54v489h-54c-15 0 -40 0 -40 30
c0 31 24 31 40 31h70c34 0 40 -10 40 -41v-354l174 154h-40c-15 0 -40 0 -40 30c0 31 24 31 40 31h164c15 0 41 0 41 -31c0 -30 -26 -30 -41 -30h-39z" />
    <glyph glyph-name="l" unicode="l" horiz-adv-x="291" 
d="M180 570v-509h54c16 0 40 0 40 -31c0 -30 -25 -30 -40 -30h-177c-15 0 -40 0 -40 30c0 31 24 31 40 31h54v489h-54c-15 0 -40 0 -40 30c0 31 24 31 40 31h83c34 0 40 -10 40 -41z" />
    <glyph glyph-name="m" unicode="m" horiz-adv-x="875" 
d="M764 291v-230h54c16 0 40 0 40 -31c0 -30 -25 -30 -40 -30h-177c-15 0 -40 0 -40 30c0 31 24 31 40 31h54v224c0 58 -13 91 -82 91c-53 0 -141 -33 -141 -139v-176h54c16 0 40 0 40 -31c0 -30 -25 -30 -40 -30h-177c-15 0 -40 0 -40 30c0 31 24 31 40 31h54v224
c0 58 -13 91 -82 91c-53 0 -141 -33 -141 -139v-176h54c16 0 40 0 40 -31c0 -30 -25 -30 -40 -30h-177c-15 0 -40 0 -40 30c0 31 24 31 40 31h54v309h-54c-15 0 -40 0 -40 30c0 31 24 31 40 31h83c40 0 40 -14 40 -51c42 38 92 57 147 57c53 0 106 -15 131 -71
c49 52 106 71 161 71c91 0 145 -46 145 -146z" />
    <glyph glyph-name="n" unicode="n" horiz-adv-x="583" 
d="M471 291v-230h54c16 0 40 0 40 -31c0 -30 -25 -30 -40 -30h-177c-16 0 -40 0 -40 31c0 30 25 30 40 30h54v224c0 56 -11 91 -81 91c-55 0 -141 -34 -141 -139v-176h54c16 0 40 0 40 -31c0 -30 -25 -30 -40 -30h-177c-15 0 -40 0 -40 30c0 31 24 31 40 31h54v309h-54
c-15 0 -40 0 -40 30c0 31 24 31 40 31h83c40 0 40 -14 40 -51c39 36 89 57 147 57c82 0 144 -38 144 -146z" />
    <glyph glyph-name="o" unicode="o" 
d="M486 216c0 -124 -101 -222 -224 -222s-224 98 -224 222c0 122 99 224 224 224s224 -102 224 -224zM262 55c86 0 155 77 155 168c0 90 -72 156 -155 156s-155 -66 -155 -156c0 -91 68 -168 155 -168z" />
    <glyph glyph-name="p" unicode="p" horiz-adv-x="583" 
d="M234 -222h-177c-15 0 -40 0 -40 30c0 31 24 31 40 31h54v531h-54c-15 0 -40 0 -40 30c0 31 24 31 40 31h83c40 0 40 -15 40 -48c45 39 98 54 145 54c119 0 213 -101 213 -221c0 -126 -105 -222 -224 -222c-65 0 -109 32 -134 59v-214h54c16 0 40 0 40 -31
c0 -30 -25 -30 -40 -30zM180 262v-67c0 -55 46 -140 130 -140c83 0 159 68 159 161c0 84 -63 160 -150 160c-70 0 -139 -51 -139 -114z" />
    <glyph glyph-name="q" unicode="q" horiz-adv-x="554" 
d="M471 396v-557h54c16 0 40 0 40 -31c0 -30 -25 -30 -40 -30h-177c-16 0 -40 0 -40 31c0 30 25 30 40 30h54v218c-42 -41 -90 -63 -145 -63c-116 0 -213 98 -213 221c0 126 104 222 224 222c76 0 119 -44 134 -59v18c0 20 0 41 35 41c34 0 34 -22 34 -41zM402 195v37
c0 66 -49 144 -130 144c-83 0 -159 -68 -159 -161c0 -87 66 -160 149 -160c85 0 140 81 140 140z" />
    <glyph glyph-name="r" unicode="r" horiz-adv-x="408" 
d="M180 188v-127h78c16 0 40 0 40 -31c0 -30 -25 -30 -40 -30h-201c-15 0 -40 0 -40 30c0 31 24 31 40 31h54v309h-54c-15 0 -40 0 -40 30c0 31 24 31 40 31h83c40 0 40 -13 40 -55c30 35 71 61 123 61c50 0 75 -34 75 -62c0 -27 -20 -43 -42 -43c-13 0 -40 7 -42 43
c-77 -9 -114 -99 -114 -187z" />
    <glyph glyph-name="s" unicode="s" horiz-adv-x="414" 
d="M352 399v-69c0 -20 0 -41 -35 -41c-31 0 -33 18 -34 32c-2 20 -7 58 -82 58c-74 0 -105 -26 -105 -57c0 -41 53 -51 131 -65c32 -6 151 -28 151 -132c0 -55 -37 -131 -169 -131c-38 0 -77 8 -109 34c-2 -8 -10 -34 -35 -34c-30 0 -30 25 -30 41v96c0 20 0 41 35 41
c27 0 31 -13 34 -25c12 -42 31 -92 106 -92c14 0 107 0 107 70c0 40 -43 60 -76 68c-4 0 -53 9 -61 11c-37 7 -145 27 -145 118c0 38 24 118 168 118c31 0 64 -5 90 -20c2 6 9 20 29 20c30 0 30 -25 30 -41z" />
    <glyph glyph-name="t" unicode="t" horiz-adv-x="408" 
d="M180 370v-241c0 -22 0 -74 49 -74c25 0 51 22 51 71c0 18 0 39 34 39c35 0 35 -21 35 -40c0 -77 -57 -131 -124 -131c-47 0 -114 27 -114 129v247h-52c-15 0 -40 0 -40 30c0 31 25 31 41 31h51v82c0 20 0 41 35 41c34 0 34 -22 34 -41v-82h111c16 0 40 0 40 -31
c0 -30 -25 -30 -40 -30h-111z" />
    <glyph glyph-name="u" unicode="u" horiz-adv-x="583" 
d="M471 390v-329h54c16 0 40 0 40 -31c0 -30 -25 -30 -40 -30h-83c-19 0 -40 0 -40 35c-26 -20 -69 -41 -137 -41c-55 0 -154 9 -154 121v255h-54c-15 0 -40 0 -40 30c0 31 24 31 40 31h83c34 0 40 -10 40 -41v-269c0 -31 0 -66 91 -66c34 0 131 8 131 102v213h-54
c-16 0 -40 0 -40 31c0 30 25 30 40 30h83c34 0 40 -10 40 -41z" />
    <glyph glyph-name="v" unicode="v" horiz-adv-x="554" 
d="M447 370l-115 -340c-11 -34 -33 -34 -55 -34c-25 0 -44 0 -56 35l-115 339h-40c-15 0 -40 0 -40 30c0 31 24 31 40 31h140c16 0 41 0 41 -31c0 -30 -26 -30 -41 -30h-41l112 -328l111 328h-41c-16 0 -41 0 -41 31c0 30 26 30 41 30h140c16 0 40 0 40 -31
c0 -30 -25 -30 -40 -30h-40z" />
    <glyph glyph-name="w" unicode="w" horiz-adv-x="758" 
d="M660 370l-93 -340c-9 -34 -28 -34 -52 -34c-43 0 -46 11 -56 49c-14 51 -28 102 -41 153c-33 129 -38 162 -38 162c-7 -66 -83 -338 -87 -345c-10 -19 -29 -19 -49 -19c-27 0 -45 0 -55 36l-92 338h-33c-15 0 -41 0 -41 31c0 30 26 30 41 30h135c15 0 41 0 41 -31
c0 -30 -26 -30 -41 -30h-44l87 -318l93 343c7 25 16 36 46 36c35 0 40 -18 45 -35l92 -336l84 310h-44c-15 0 -41 0 -41 31c0 30 26 30 41 30h135c15 0 41 0 41 -31c0 -30 -26 -30 -41 -30h-33z" />
    <glyph glyph-name="x" unicode="x" horiz-adv-x="554" 
d="M302 223l131 -162h50c15 0 41 0 41 -31c0 -30 -26 -30 -41 -30h-140c-16 0 -40 0 -40 31c0 30 25 30 40 30h23l-93 125l-89 -125h25c16 0 40 0 40 -31c0 -30 -25 -30 -40 -30h-140c-15 0 -41 0 -41 30c0 31 25 31 41 31h50l126 162l-119 147h-50c-16 0 -41 0 -41 31
c0 30 26 30 41 30h140c16 0 40 0 40 -31c0 -30 -25 -30 -40 -30h-21l79 -100l75 100h-22c-15 0 -41 0 -41 31c0 30 26 30 41 30h140c16 0 40 0 40 -31c0 -30 -25 -30 -40 -30h-50z" />
    <glyph glyph-name="y" unicode="y" horiz-adv-x="554" 
d="M447 370l-155 -453c-21 -62 -82 -145 -174 -145c-58 0 -98 39 -98 82c0 26 17 44 44 44c23 0 43 -16 43 -44c0 -8 -2 -13 -2 -16c0 -5 11 -5 15 -5c84 0 112 82 119 105c13 37 13 39 22 62l-151 370h-41c-15 0 -41 0 -41 31c0 30 26 30 41 30h140c16 0 40 0 40 -31
c0 -30 -25 -30 -40 -30h-38l95 -238c8 -21 16 -42 23 -63l98 301h-41c-15 0 -40 0 -40 30c0 31 24 31 40 31h141c16 0 40 0 40 -31c0 -30 -25 -30 -40 -30h-40z" />
    <glyph glyph-name="z" unicode="z" horiz-adv-x="466" 
d="M416 376l-289 -315h226v38c0 20 0 41 35 41c34 0 34 -22 34 -41v-58c0 -32 -7 -41 -40 -41h-312c-20 0 -41 0 -41 35c0 5 1 15 3 20l289 315h-208v-26c0 -20 0 -41 -35 -41c-34 0 -34 22 -34 41v46c0 33 8 41 41 41h293c20 0 41 0 41 -35c0 -5 -1 -15 -3 -20z" />
    <glyph glyph-name="endash" unicode="&#x2013;" 
d="M484 236h-444c-15 0 -40 0 -40 30c0 31 24 31 40 31h444c16 0 40 0 40 -31c0 -30 -25 -30 -40 -30z" />
    <glyph glyph-name="emdash" unicode="&#x2014;" horiz-adv-x="1050" 
d="M1009 236h-969c-15 0 -40 0 -40 30c0 31 24 31 40 31h969c16 0 40 0 40 -31c0 -30 -25 -30 -40 -30z" />
    <glyph glyph-name="hungarumlaut" unicode="&#x2dd;" 
d="M243 545l-70 -56c-11 -9 -14 -11 -23 -11c-19 0 -36 24 -36 38s6 18 17 27l70 56c11 9 15 12 26 12c20 0 35 -15 35 -35c0 -16 -9 -23 -19 -31zM418 545l-70 -56c-11 -9 -14 -11 -23 -11c-19 0 -36 24 -36 38s6 18 17 27l70 56c11 9 15 12 26 12c20 0 35 -15 35 -35
c0 -16 -9 -23 -19 -31z" />
    <glyph glyph-name="tilde" unicode="&#x2dc;" 
d="M437 579c0 -18 -29 -40 -49 -55c-23 -17 -51 -33 -78 -33c-34 0 -54 21 -67 34c-13 12 -21 21 -31 21c-14 0 -40 -16 -70 -44c-7 -6 -13 -11 -24 -11c-16 0 -31 16 -31 32c0 18 29 40 49 55c23 17 51 33 78 33c34 0 54 -21 67 -34c13 -12 21 -21 31 -21c14 0 40 16 70 44
c7 6 13 11 24 11c16 0 31 -16 31 -32z" />
    <glyph glyph-name="dieresis" unicode="&#xa8;" 
d="M210 562c0 -32 -25 -50 -50 -50c-30 0 -50 26 -50 50s20 50 50 50c25 0 50 -18 50 -50zM414 562c0 -24 -20 -50 -50 -50c-25 0 -50 18 -50 50s25 50 50 50c30 0 50 -26 50 -50z" />
    <glyph glyph-name="space" unicode=" " horiz-adv-x="350" 
 />
  </font>
</defs>
</svg>
