<?xml version="1.0" ?><!DOCTYPE svg  PUBLIC '-//W3C//DTD SVG 1.1//EN'  'http://www.w3.org/Graphics/SVG/1.1/DTD/svg11.dtd'><svg height="52.928" viewBox="361.818 109.835 43.442 52.928" width="43.442" xmlns="http://www.w3.org/2000/svg" xmlns:xlink="http://www.w3.org/1999/xlink"><defs><path d="M470 670l-164 -660c30 0 107 0 191 94c64 72 84 146 84 182c0 52 -27 79 -36 88c-4 4 -11 11 -11 23c0 20 22 44 46 44c10 0 40 -7 40 -67c0 -51 -24 -140 -34 -166c-17 -43 -47 -89 -80 -125c-90 -93 -169 -93 -206 -93c-4 -18 -45 -186 -49 -190c-2 -4 -6 -4 -8 -4 c-3 0 -11 0 -11 9c0 4 7 32 23 92c8 31 15 63 23 94c-90 7 -170 44 -170 140c0 23 0 45 54 187c17 44 17 66 17 70c0 32 -17 33 -26 33c-37 0 -77 -37 -101 -124c-4 -14 -5 -18 -14 -18c-7 0 -11 5 -11 9c0 8 37 153 129 153c47 0 79 -36 79 -81c0 -18 -5 -31 -18 -67 c-47 -124 -47 -147 -47 -169c0 -60 31 -102 114 -112l165 662c4 15 5 20 14 20c3 0 11 0 11 -9c0 -1 -4 -14 -4 -15z" id="2018"/></defs><g transform="scale(1.25)"><g transform="scale(0.02488,-0.02488)"><g transform="translate(12008.931,-4627.612)"><use xlink:href="#2018"/></g></g></g></svg>