<?xml version="1.0" ?><!DOCTYPE svg  PUBLIC '-//W3C//DTD SVG 1.1//EN'  'http://www.w3.org/Graphics/SVG/1.1/DTD/svg11.dtd'><svg height="87.432" viewBox="333.703 96.664 100.579 87.432" width="100.579" xmlns="http://www.w3.org/2000/svg" xmlns:xlink="http://www.w3.org/1999/xlink"><defs><path d="M446 402h-85c-5 -30 -54 -296 -72 -373c-11 -50 -53 -233 -155 -233c-39 0 -83 22 -83 65c0 38 30 55 50 55c19 0 34 -12 34 -32c0 -1 0 -45 -51 -49c18 -19 47 -19 50 -19c50 0 65 73 82 160c23 107 64 333 82 426h-64c-20 0 -26 0 -26 11c0 18 10 18 29 18h67 c23 131 33 167 51 202c20 39 62 71 105 71c44 0 86 -23 86 -65c0 -38 -30 -55 -50 -55c-19 0 -34 12 -34 32c0 17 12 46 51 50c-10 9 -31 18 -52 18c-26 0 -47 -23 -53 -47c-8 -32 -22 -103 -41 -206h81c18 0 26 0 26 -10c0 -19 -8 -19 -28 -19z" id="6618"/><path d="M309 623l201 -575c4 -12 11 -30 20 -41c4 -4 5 -5 5 -9c0 -8 -7 -8 -11 -8h-19c-28 0 -30 0 -40 9c-14 13 -19 27 -24 42c-31 84 -63 176 -89 254c-91 -108 -234 -283 -250 -298c-6 -6 -17 -8 -21 -8c-16 0 -28 12 -28 26c0 13 8 21 20 33l260 263c8 8 9 9 9 10 c0 2 -103 301 -113 320c-16 29 -28 31 -43 33c-5 1 -11 2 -11 10c0 10 11 10 17 10c13 0 92 0 117 -71z" id="1518"/><path d="M643 321h-567c-15 0 -30 0 -30 17c0 18 17 18 34 18h559c17 0 34 0 34 -18c0 -17 -15 -17 -30 -17zM639 143h-559c-17 0 -34 0 -34 18c0 17 15 17 30 17h567c15 0 30 0 30 -17c0 -18 -17 -18 -34 -18z" id="3d15"/><path d="M457 374c0 -57 -57 -384 -223 -384c-9 0 -59 0 -95 31c-31 28 -34 69 -34 91c0 24 0 55 48 183c15 38 26 67 26 93c0 33 -17 33 -26 33c-38 0 -77 -38 -101 -124c-4 -14 -5 -18 -14 -18c-7 0 -11 5 -11 9c0 8 37 153 129 153c49 0 79 -38 79 -80c0 -20 -4 -30 -20 -71 c-27 -72 -50 -142 -50 -192c0 -37 12 -88 73 -88c120 0 180 234 180 276c0 52 -26 79 -36 88c-4 4 -11 11 -11 23c0 20 22 44 46 44c8 0 40 -4 40 -67z" id="7618"/></defs><g transform="scale(1.25)"><rect height="0.995" width="14.664" x="322.761" y="108.417"/><g transform="scale(0.02488,-0.02488)"><g transform="translate(11078.938,-4627.612)"><use xlink:href="#1518"/></g></g><g transform="scale(0.02488,-0.02488)"><g transform="translate(11927.715,-4627.612)"><use xlink:href="#3d15"/></g></g><g transform="scale(0.02488,-0.02488)"><g transform="translate(13012.799,-3951.104)"><use xlink:href="#7618"/></g><g transform="translate(12972.723,-5313.562)"><use xlink:href="#6618"/></g></g></g></svg>