<?xml version="1.0" ?><!DOCTYPE svg  PUBLIC '-//W3C//DTD SVG 1.1//EN'  'http://www.w3.org/Graphics/SVG/1.1/DTD/svg11.dtd'><svg height="109.049" viewBox="79.337 110.177 667.16 109.049" width="667.16" xmlns="http://www.w3.org/2000/svg" xmlns:xlink="http://www.w3.org/1999/xlink"><defs><path d="M206 293l-33 -132l-22 -90c-5 -20 -14 -55 -16 -60c-8 -15 -22 -21 -34 -21c-15 0 -26 11 -26 25c0 5 11 52 18 78c5 18 16 63 20 82l28 108c7 31 17 70 17 92c0 30 -8 46 -31 46c-40 0 -58 -57 -74 -118c-6 -23 -7 -24 -15 -24c-7 0 -11 5 -11 9s14 64 32 100 c17 34 39 53 71 53c44 0 85 -31 88 -88c18 25 65 88 154 88c76 0 111 -45 111 -105c0 -57 -42 -169 -62 -224c-6 -14 -17 -44 -17 -69c0 -32 16 -33 26 -33c39 0 77 40 100 122c5 17 6 20 15 20c6 0 10 -4 10 -9c0 -6 -35 -153 -128 -153c-48 0 -79 36 -79 81 c0 18 5 31 14 55c20 54 61 168 61 225c0 40 -14 70 -54 70c-39 0 -73 -16 -99 -40c-37 -32 -62 -82 -64 -88z" id="6e18"/><path d="M417 155l-24 -155h-352v23l199 225c57 65 108 140 108 227c0 91 -57 160 -144 160c-61 0 -119 -42 -138 -127c4 2 10 3 16 3c14 0 40 -9 40 -40c0 -35 -30 -41 -40 -41c-12 0 -41 5 -41 44c0 90 67 187 177 187c105 0 199 -68 199 -186c0 -99 -71 -167 -132 -225 c-85 -82 -155 -153 -191 -192h192c14 0 86 0 91 8c4 6 12 18 22 89h18z" id="3215"/><path d="M155 616c0 -23 -19 -41 -41 -41c-23 0 -41 19 -41 41c0 23 19 41 41 41c23 0 41 -19 41 -41zM38 427l115 11v-370c0 -36 2 -42 61 -42v-26c-23 2 -64 2 -88 2c-25 0 -68 0 -92 -2v26c64 0 68 5 68 43v278c0 48 -8 54 -64 54v26z" id="6915"/><path d="M417 155l-24 -155h-352v23l199 225c57 65 108 140 108 227c0 91 -57 160 -144 160c-61 0 -119 -42 -138 -127c4 2 10 3 16 3c14 0 40 -9 40 -40c0 -35 -30 -41 -40 -41c-12 0 -41 5 -41 44c0 90 67 187 177 187c105 0 199 -68 199 -186c0 -99 -71 -167 -132 -225 c-85 -82 -155 -153 -191 -192h192c14 0 86 0 91 8c4 6 12 18 22 89h18z" id="3216"/><path d="M700 -2349c0 -10 -7 -10 -21 -10s-16 0 -28 12c-41 36 -79 77 -99 100c-254 299 -344 695 -344 1088c0 421 105 879 440 1184c15 15 17 15 31 15s21 0 21 -10c0 -3 0 -5 -3 -8c-44 -44 -126 -126 -205 -268c-165 -298 -201 -645 -201 -914c0 -385 73 -710 234 -968 c67 -108 134 -175 171 -212c2 -3 4 -5 4 -9z" id="1224"/><path d="M151 404v-283c0 -91 40 -111 69 -111c42 0 69 46 69 115v56h18v-57c0 -74 -34 -132 -93 -132c-116 0 -116 112 -116 131v281h-87v16c85 2 120 92 122 195h18v-185h140v-26h-140z" id="7415"/><path d="M643 321h-567c-15 0 -30 0 -30 17c0 18 17 18 34 18h559c17 0 34 0 34 -18c0 -17 -15 -17 -30 -17zM639 143h-559c-17 0 -34 0 -34 18c0 17 15 17 30 17h567c15 0 30 0 30 -17c0 -18 -17 -18 -34 -18z" id="3d15"/><path d="M197 612v-541c0 -45 12 -45 84 -45v-26c-32 2 -83 2 -117 2s-85 0 -117 -2v26c72 0 84 0 84 45v541c0 45 -12 45 -84 45v26c32 -2 83 -2 117 -2s85 0 117 2v-26c-72 0 -84 0 -84 -45z" id="4915"/><path d="M903 572l-329 -574c-8 -14 -11 -19 -21 -19c-12 0 -13 6 -14 23l-37 517l-298 -521c-9 -15 -11 -19 -21 -19c-12 0 -13 6 -14 23l-44 614c-2 32 -3 38 -50 38c-14 0 -22 0 -22 10c0 19 12 19 18 19c15 0 33 -2 48 -2h52c36 0 73 2 108 2c6 0 15 0 15 -11 c0 -18 -11 -18 -22 -18c-68 -1 -68 -26 -68 -37l37 -516l259 455l-3 36c-4 61 -4 62 -50 62c-17 0 -24 0 -24 10c0 19 12 19 18 19c15 0 33 -2 48 -2h52c36 0 73 2 108 2c5 0 15 0 15 -10c0 -19 -10 -19 -23 -19c-56 -1 -67 -20 -67 -32l36 -521l273 478c10 17 14 24 14 37 c0 31 -32 37 -52 38c-6 0 -14 1 -14 10c0 19 12 19 18 19c29 0 60 -2 90 -2c66 0 73 2 75 2c3 0 12 0 12 -11c0 -16 -9 -17 -18 -18c-60 -6 -82 -43 -105 -82z" id="5719"/><path d="M381 235h-290c0 -47 0 -106 31 -157c27 -44 70 -68 113 -68c52 0 107 34 129 102c4 12 5 14 12 14c2 0 8 0 8 -7c0 -21 -44 -127 -156 -127c-106 0 -201 96 -201 226c0 123 84 224 190 224c114 0 168 -89 168 -191c0 -10 0 -12 -4 -16zM92 250h239 c-1 112 -47 176 -115 176c-40 0 -117 -32 -124 -176z" id="6515"/><path d="M301 119l49 196c1 2 4 15 4 16c0 8 -13 90 -79 90c-39 0 -86 -36 -120 -106c-19 -42 -50 -154 -50 -209c0 -59 23 -96 64 -96c47 0 91 43 113 71c14 19 14 21 19 38zM365 375c2 12 10 47 42 47c15 0 26 -11 26 -25c0 -6 -9 -42 -46 -192c-8 -29 -13 -51 -20 -76 c-9 -39 -12 -50 -12 -73c0 -20 2 -46 31 -46c41 0 60 63 75 122c4 15 5 20 14 20c6 0 10 -4 10 -9c0 -4 -14 -65 -30 -99c-18 -36 -42 -54 -72 -54s-77 17 -87 76c-28 -33 -75 -76 -130 -76c-68 0 -126 58 -126 157c0 148 122 294 235 294c52 0 79 -40 90 -66z" id="6118"/><path d="M266 639v-566c0 -36 2 -47 88 -47h30v-26c-48 1 -98 2 -146 2s-98 -1 -146 -2v26h30c86 0 88 12 88 47v527c-40 -24 -92 -30 -123 -30c0 21 0 23 1 25s6 2 9 2c56 2 115 17 154 64c14 0 15 -1 15 -22z" id="3115"/><path d="M344 61c-40 -71 -85 -71 -102 -71c-51 0 -137 19 -137 124c0 38 10 79 57 204c17 44 17 65 17 70c0 32 -16 33 -26 33c-37 0 -76 -36 -101 -124c-4 -14 -5 -18 -14 -18c-7 0 -11 5 -11 9c0 8 37 153 129 153c49 0 79 -38 79 -80c0 -20 -5 -33 -17 -64 c-45 -119 -52 -163 -52 -195c0 -17 0 -92 79 -92c31 0 47 17 58 28c1 2 33 40 33 64c0 22 0 33 4 50c4 22 46 191 56 230c6 24 13 49 42 49c15 0 27 -10 27 -25c0 -4 -9 -39 -14 -59l-42 -168c-4 -17 -13 -52 -13 -81c0 -46 18 -88 74 -88c52 0 89 40 117 101 c21 47 49 141 49 175c0 52 -26 79 -35 88c-5 4 -12 11 -12 23c0 20 22 44 46 44c9 0 40 -6 40 -67c0 -59 -37 -191 -60 -249c-28 -69 -73 -135 -149 -135c-38 0 -100 11 -122 71z" id="7718"/><path d="M527 -1160c0 -421 -105 -879 -440 -1184c-15 -15 -17 -15 -31 -15c-12 0 -21 0 -21 10c0 3 2 6 4 9c42 42 125 125 204 267c165 298 201 645 201 914c0 385 -73 710 -234 968c-67 108 -134 175 -169 211c-2 2 -6 6 -6 10c0 10 9 10 21 10c14 0 16 0 28 -12 c41 -36 79 -77 99 -100c254 -299 344 -695 344 -1088z" id="1324"/><path d="M661 230h-545c-14 0 -33 0 -33 20s19 20 33 20h545c14 0 33 0 33 -20s-19 -20 -33 -20z" id="0021"/><path d="M179 232h-53c-15 -64 -15 -89 -15 -103c0 -74 30 -119 87 -119c38 0 133 15 197 100c9 9 10 10 13 10c4 0 10 -5 10 -11c0 -13 -86 -119 -222 -119c-91 0 -151 73 -151 178c0 178 151 273 256 273c66 0 104 -40 104 -84c0 -18 -7 -76 -83 -105c-48 -18 -116 -20 -143 -20 zM131 252h42c42 0 202 0 202 105c0 38 -30 64 -74 64c-32 0 -127 -15 -170 -169z" id="6518"/><path d="M150 236v-165c0 -45 12 -45 84 -45v-26c-27 2 -78 2 -107 2c-26 0 -72 0 -96 -2v26c64 0 68 5 68 43v278c0 48 -9 54 -68 54v26l116 11v-109h1c10 35 43 109 119 109c34 0 66 -20 66 -52c0 -28 -22 -35 -34 -35c-15 0 -34 10 -34 34c0 26 22 33 22 33c-7 3 -14 4 -21 4 c-75 0 -116 -90 -116 -186z" id="7215"/><path d="M309 422v-112c0 -17 0 -20 -9 -20c-3 0 -8 1 -9 6c-2 32 -8 132 -115 132c-101 0 -115 -55 -115 -81c0 -61 70 -75 125 -87c42 -8 77 -15 107 -46c13 -12 40 -39 40 -90c0 -78 -53 -132 -152 -132c-56 0 -91 26 -111 53c-6 -10 -21 -34 -27 -43c-5 -8 -6 -9 -11 -9 c-6 0 -7 1 -7 19v144c0 20 1 21 9 21s8 -1 11 -15c18 -88 49 -154 136 -154c92 0 116 54 116 96c0 36 -22 58 -35 70c-21 18 -43 22 -106 35c-29 6 -131 27 -131 117c0 58 40 116 151 116c17 0 62 -1 94 -35c3 4 12 14 15 18c12 15 13 16 17 16c6 0 7 -1 7 -19z" id="7315"/><path d="M281 669l-77 -307c41 52 91 79 148 79c76 0 111 -45 111 -105c0 -58 -45 -176 -63 -224c-4 -11 -16 -43 -16 -69c0 -32 16 -33 26 -33c40 0 77 42 100 122c5 17 6 20 15 20c6 0 10 -4 10 -9c0 -6 -35 -153 -128 -153c-48 0 -79 36 -79 81c0 18 5 31 14 55 c22 60 61 169 61 225c0 40 -14 70 -54 70c-77 0 -122 -60 -141 -89s-19 -30 -30 -72c-5 -22 -11 -43 -16 -65l-45 -181c-5 -11 -18 -24 -35 -24c-10 0 -27 4 -27 26c0 6 0 8 4 23l145 579c1 3 3 11 3 17c0 10 -1 19 -50 19c-14 0 -22 0 -22 10c0 18 7 19 32 21 c18 1 33 3 50 4c5 1 54 5 55 5c2 0 12 0 12 -10c0 -5 -2 -11 -3 -15z" id="6818"/><path d="M903 572l-329 -574c-8 -14 -11 -19 -21 -19c-12 0 -13 6 -14 23l-37 517l-298 -521c-9 -15 -11 -19 -21 -19c-12 0 -13 6 -14 23l-44 614c-2 32 -3 38 -50 38c-14 0 -22 0 -22 10c0 19 12 19 18 19c15 0 33 -2 48 -2h52c36 0 73 2 108 2c6 0 15 0 15 -11 c0 -18 -11 -18 -22 -18c-68 -1 -68 -26 -68 -37l37 -516l259 455l-3 36c-4 61 -4 62 -50 62c-17 0 -24 0 -24 10c0 19 12 19 18 19c15 0 33 -2 48 -2h52c36 0 73 2 108 2c5 0 15 0 15 -10c0 -19 -10 -19 -23 -19c-56 -1 -67 -20 -67 -32l36 -521l273 478c10 17 14 24 14 37 c0 31 -32 37 -52 38c-6 0 -14 1 -14 10c0 19 12 19 18 19c29 0 60 -2 90 -2c66 0 73 2 75 2c3 0 12 0 12 -11c0 -16 -9 -17 -18 -18c-60 -6 -82 -43 -105 -82z" id="5718"/><path d="M420 321c0 -73 -4 -154 -34 -223c-41 -95 -111 -114 -157 -114c-39 0 -116 14 -159 117c-31 76 -32 163 -32 220c0 78 4 171 44 246c38 72 99 94 147 94c52 0 111 -25 148 -95c42 -80 43 -184 43 -245zM229 0c35 0 94 19 115 128c12 59 12 139 12 204 c0 80 -1 147 -14 204c-19 82 -72 109 -113 109c-39 0 -95 -26 -114 -111c-13 -61 -13 -125 -13 -202c0 -56 0 -142 11 -201c14 -76 52 -131 116 -131z" id="3016"/><path d="M259 377l-58 -226c-10 -40 -10 -42 -26 -93c-12 -42 -20 -68 -49 -68c-9 0 -27 5 -27 26c0 6 0 8 8 24c82 175 107 262 129 337h-57c-25 0 -77 0 -129 -82c-5 -6 -6 -9 -13 -9c-6 0 -11 2 -11 8s32 59 58 88c46 49 80 49 103 49h329c18 0 37 0 37 -22 c0 -32 -33 -32 -46 -32h-112c-21 -90 -21 -161 -21 -167c0 -7 0 -93 27 -162c7 -15 7 -17 7 -22c0 -17 -18 -36 -39 -36c-41 0 -41 108 -41 122c0 80 17 153 44 265h-113z" id="1918"/><path d="M474 408c-21 13 -49 13 -51 13c-46 0 -80 -44 -95 -104l-35 -136c-16 -66 -20 -82 -20 -104c0 -41 19 -67 54 -67c45 0 103 41 130 129c3 8 4 13 13 13c6 0 10 -4 10 -9c0 -22 -54 -153 -156 -153c-37 0 -87 20 -103 79c-21 -41 -55 -79 -103 -79c-43 0 -90 19 -90 61 c0 32 26 53 50 53c19 0 34 -12 34 -32c0 -12 -8 -42 -44 -49c21 -13 46 -13 51 -13c53 0 82 55 97 115l34 137c12 48 18 71 18 93c0 24 -9 66 -54 66c-29 0 -96 -21 -130 -132c-2 -4 -4 -10 -12 -10c-7 0 -11 5 -11 9c0 22 54 153 156 153c18 0 80 -4 103 -79 c9 19 43 79 104 79c42 0 90 -19 90 -61c0 -27 -21 -53 -51 -53c-14 0 -33 8 -33 32c0 19 12 43 44 49z" id="7818"/><path d="M111 180c-19 -22 -19 -44 -19 -53c0 -35 21 -63 52 -68c5 -1 46 -1 69 -1c77 0 225 0 225 -136c0 -75 -99 -126 -209 -126c-114 0 -209 53 -209 125c0 50 41 90 93 103c-34 21 -44 59 -44 85c0 5 0 46 30 81c-10 10 -43 46 -43 103c0 83 68 145 147 145 c32 0 68 -10 98 -37c28 26 63 45 103 45c32 0 47 -20 47 -39c0 -13 -8 -23 -23 -23c-13 0 -22 9 -22 22c0 16 9 20 13 21c-5 3 -11 3 -15 3c-23 0 -64 -10 -92 -40c30 -31 38 -71 38 -97c0 -83 -68 -145 -147 -145c-40 0 -73 17 -92 32zM203 165c88 0 88 108 88 128 s0 128 -88 128s-88 -108 -88 -128s0 -128 88 -128zM229 -187c100 0 169 53 169 108c0 93 -114 93 -196 93c-68 0 -78 0 -103 -17c-22 -16 -39 -45 -39 -76c0 -55 69 -108 169 -108z" id="6715"/><path d="M188 -16v-568c0 -17 0 -37 -22 -37c-21 0 -21 21 -21 37v568c0 17 0 37 22 37c21 0 21 -21 21 -37z" id="0c24"/><path d="M415 304v-235c0 -39 4 -43 68 -43v-26c-24 2 -69 2 -95 2s-70 0 -94 -2v26c64 0 68 5 68 43v239c0 48 -8 114 -82 114c-70 0 -126 -69 -126 -161v-192c0 -39 4 -43 68 -43v-26c-24 2 -69 2 -95 2s-70 0 -94 -2v26c64 0 68 5 68 43v278c0 48 -9 54 -68 54v26l118 11v-101 h1c15 40 56 101 135 101c118 0 128 -83 128 -134z" id="6e15"/><path d="M550 230h-426c12 -134 127 -230 267 -230h159c14 0 33 0 33 -20s-19 -20 -33 -20h-162c-163 0 -305 124 -305 290c0 168 144 290 304 290h163c14 0 33 0 33 -20s-19 -20 -33 -20h-160c-136 0 -254 -94 -266 -230h426c14 0 33 0 33 -20s-19 -20 -33 -20z" id="3221"/></defs><g transform="scale(1.25)"><rect height="0.995" width="22.8" x="73.47" y="133.658"/><rect height="0.995" width="11.41" x="130.381" y="133.658"/><rect height="0.995" width="11.41" x="189.896" y="133.658"/><rect height="0.995" width="40.664" x="209.053" y="133.658"/><rect height="0.995" width="40.664" x="306.587" y="133.658"/><g transform="scale(0.02488,-0.02488)"><g transform="translate(3181.865,-4965.603)"><use xlink:href="#3115"/></g></g><g transform="scale(0.02488,-0.02488)"><g transform="translate(2952.974,-6358.342)"><use xlink:href="#6118"/></g></g><g transform="scale(0.02074,-0.02074)"><g transform="translate(4159.031,-7281.003)"><use xlink:href="#3216"/></g></g><g transform="scale(0.02488,-0.02488)"><g transform="translate(4195.381,-5642.111)"><use xlink:href="#3d15"/></g><g transform="translate(5240.389,-4965.603)"><use xlink:href="#3115"/></g><g transform="translate(5240.389,-6328.061)"><use xlink:href="#3215"/></g></g><g transform="scale(0.02488,-0.02488)"><g transform="translate(5747.238,-5642.111)"><use xlink:href="#5718"/><use x="1059.994" xlink:href="#0021"/></g></g><g transform="scale(0.02488,-0.02488)"><g transform="translate(7632.464,-4965.603)"><use xlink:href="#3115"/></g><g transform="translate(7632.464,-6328.061)"><use xlink:href="#3215"/></g></g><g transform="scale(0.02488,-0.02488)"><g transform="translate(8689.447,-4965.603)"><use xlink:href="#5718"/></g></g><g transform="scale(0.02488,-0.02488)"><g transform="translate(8402.442,-6328.061)"><use xlink:href="#3215"/></g></g><g transform="scale(0.02488,-0.02488)"><g transform="translate(8860.442,-6328.061)"><use xlink:href="#6e18"/><use x="584" xlink:href="#1918"/></g></g><g transform="scale(0.02488,-0.02488)"><g transform="translate(10251.756,-5642.111)"><use xlink:href="#7315"/><use x="359" xlink:href="#6915"/><use x="608" xlink:href="#6e15"/></g></g><g transform="scale(0.02488,-0.02488)"><g transform="translate(11538.282,-4232.098)"><use xlink:href="#1224"/></g></g><g transform="scale(0.02488,-0.02488)"><g transform="translate(12322.628,-4965.603)"><use xlink:href="#3215"/></g></g><g transform="scale(0.02488,-0.02488)"><g transform="translate(12780.628,-4965.603)"><use xlink:href="#6e18"/><use x="584" xlink:href="#1918"/></g><g transform="translate(12609.633,-6328.061)"><use xlink:href="#5718"/></g><g transform="translate(14005.276,-5642.111)"><use xlink:href="#7818"/></g><g transform="translate(14561.276,-4232.098)"><use xlink:href="#1324"/></g><g transform="translate(15297.809,-4192.099)"><use xlink:href="#0c24"/></g><g transform="translate(15297.809,-4792.105)"><use xlink:href="#0c24"/></g><g transform="translate(15297.809,-5392.111)"><use xlink:href="#0c24"/></g><g transform="translate(15297.809,-5992.117)"><use xlink:href="#0c24"/></g></g><g transform="scale(0.02074,-0.02074)"><g transform="translate(18751.341,-5415.01)"><use xlink:href="#5719"/></g></g><g transform="scale(0.02074,-0.02074)"><g transform="translate(18751.341,-7958.004)"><use xlink:href="#3016"/></g></g><g transform="scale(0.02488,-0.02488)"><g transform="translate(16701.862,-5642.111)"><use xlink:href="#7718"/><use x="725.91" xlink:href="#6818"/><use x="1288.91" xlink:href="#6518"/><use x="1741.91" xlink:href="#6e18"/><use x="2325.91" xlink:href="#6e18"/><use x="3187.686" xlink:href="#3221"/></g></g><g transform="scale(0.02488,-0.02488)"><g transform="translate(20833.325,-5642.111)"><use xlink:href="#4915"/><use x="327" xlink:href="#6e15"/><use x="810.877" xlink:href="#7415"/><use x="1164.877" xlink:href="#6515"/><use x="1570.877" xlink:href="#6715"/><use x="2028.877" xlink:href="#6515"/><use x="2434.877" xlink:href="#7215"/></g></g></g></svg>