<?xml version="1.0" ?><!DOCTYPE svg  PUBLIC '-//W3C//DTD SVG 1.1//EN'  'http://www.w3.org/Graphics/SVG/1.1/DTD/svg11.dtd'><svg height="97.39" viewBox="110.65 109.744 544.983 97.39" width="544.983" xmlns="http://www.w3.org/2000/svg" xmlns:xlink="http://www.w3.org/1999/xlink"><defs><path d="M454 334h1c10 37 29 111 29 175c0 112 -56 182 -144 182c-27 0 -103 -7 -144 -81c13 0 44 0 44 -31c0 -17 -15 -49 -50 -49c-28 0 -34 22 -34 31c0 27 43 154 188 154c128 0 209 -111 209 -255c0 -137 -101 -481 -337 -481c-136 0 -178 115 -178 176 c0 159 144 302 285 302c90 0 125 -67 131 -123zM219 6c154 0 219 224 219 298c0 54 -21 133 -112 133c-104 0 -161 -101 -174 -131c-15 -37 -43 -140 -43 -184c0 -42 16 -116 110 -116z" id="4018"/><path d="M381 235h-290c0 -47 0 -106 31 -157c27 -44 70 -68 113 -68c52 0 107 34 129 102c4 12 5 14 12 14c2 0 8 0 8 -7c0 -21 -44 -127 -156 -127c-106 0 -201 96 -201 226c0 123 84 224 190 224c114 0 168 -89 168 -191c0 -10 0 -12 -4 -16zM92 250h239 c-1 112 -47 176 -115 176c-40 0 -117 -32 -124 -176z" id="6515"/><path d="M260 233l134 -174c24 -31 39 -33 89 -33v-26c-22 2 -54 2 -81 2c-25 0 -68 0 -92 -2v26c16 1 28 9 28 23c0 7 -12 22 -20 33l-87 113l-83 -102c-9 -12 -17 -23 -17 -41c0 -23 16 -25 22 -26v-26c-18 2 -62 2 -82 2c-18 0 -53 -1 -70 -2v26c27 1 74 5 119 59 c11 14 98 121 98 125c0 3 -5 9 -7 11l-115 149c-24 30 -36 34 -90 34v26c22 -2 54 -2 81 -2c25 0 68 0 92 2v-26c-17 -1 -27 -11 -27 -23c0 -5 0 -7 9 -18l88 -115l74 94c5 7 15 18 15 36c0 14 -8 24 -22 26v26c23 -2 54 -2 81 -2c18 0 53 1 70 2v-26 c-44 -1 -82 -17 -115 -55c-28 -33 -62 -77 -92 -116z" id="7815"/><path d="M144 22l-47 -186c-7 -28 -13 -51 -42 -51c-15 0 -27 10 -27 25c0 6 2 12 3 17l145 579c8 32 30 35 39 35c13 0 26 -9 26 -25c0 -6 -8 -38 -13 -57l-45 -180c-4 -17 -13 -52 -13 -81c0 -47 18 -88 74 -88c63 0 102 54 114 71c13 16 13 18 18 38l70 278c8 30 29 34 38 34 c15 0 27 -10 27 -25c0 -4 -11 -47 -17 -71c-5 -18 -16 -63 -20 -82l-28 -108c-7 -30 -16 -66 -16 -89c0 -20 2 -46 31 -46c41 0 60 63 75 122c4 15 5 20 14 20c6 0 10 -4 10 -9c0 -4 -14 -65 -30 -99c-18 -36 -42 -54 -72 -54c-35 0 -77 21 -87 74c-23 -31 -67 -74 -131 -74 c-34 0 -71 9 -96 32z" id="1618"/><path d="M220 -169v-26c-24 2 -69 2 -95 2s-70 0 -94 -2v26c64 0 68 5 68 43v473c0 48 -9 54 -68 54v26l119 11v-73c28 40 77 73 137 73c103 0 190 -96 190 -222c0 -136 -101 -224 -201 -224c-53 0 -95 27 -124 69v-187c0 -39 4 -43 68 -43zM152 314v-198c0 -16 0 -22 13 -44 c30 -47 69 -64 105 -64c79 0 143 93 143 207s-60 205 -133 205c-50 0 -84 -30 -89 -34c-39 -37 -39 -58 -39 -72z" id="7015"/><path d="M695 232l-91 -215c-7 -16 -8 -17 -30 -17h-502c-20 0 -26 0 -26 11c0 18 10 18 29 18c70 0 72 10 81 45l135 540c3 11 4 15 4 20c0 11 0 18 -62 18c-17 0 -24 0 -24 11c0 18 10 18 29 18h488c18 0 27 0 27 -11c0 -2 -2 -12 -2 -15l-21 -175c-2 -18 -6 -22 -13 -22 c-6 0 -11 3 -11 11c0 2 1 8 2 12c4 33 4 61 4 62c0 76 -25 109 -148 109h-143c-41 0 -43 -3 -52 -38l-62 -246h95c89 0 109 22 129 99c4 14 5 18 14 18c6 0 10 -5 10 -10l-57 -232c-4 -14 -5 -21 -14 -21c-6 0 -11 3 -11 10c0 3 1 7 3 11c7 30 7 39 7 49c0 30 -6 47 -84 47 h-99l-69 -276c-2 -9 -4 -15 -4 -22c0 -8 1 -10 12 -11c6 -1 8 -1 22 -1h146c160 0 203 60 262 200c9 20 9 22 11 23c3 3 5 4 9 4c6 0 10 -5 10 -10c0 -4 -3 -11 -4 -14z" id="4518"/><path d="M263 249c0 -96 -14 -204 -64 -315c-49 -110 -134 -184 -145 -184c-3 0 -7 1 -7 6c0 2 1 3 2 5c49 50 170 177 170 489c0 311 -122 438 -170 488c-1 2 -2 3 -2 5c0 5 4 6 7 6c12 0 94 -73 142 -177c60 -129 67 -251 67 -323z" id="2915"/><path d="M201 402l-78 -313c-3 -12 -3 -31 -3 -32c0 -22 2 -47 32 -47c58 0 104 70 125 120c7 16 8 17 9 18c2 4 6 4 8 4c6 0 10 -3 10 -9c0 -7 -54 -153 -155 -153c-56 0 -89 43 -89 90c0 13 3 23 11 58l66 264h-89c-19 0 -26 0 -26 10c0 19 9 19 29 19h94l39 159 c8 32 31 35 39 35c13 0 26 -9 26 -25c0 -7 0 -9 -4 -23l-37 -146h88c20 0 26 0 26 -11c0 -18 -10 -18 -29 -18h-92z" id="7418"/><path d="M291 227h-166c-9 -40 -11 -66 -11 -85c0 -97 56 -132 109 -132c30 0 67 12 105 37c5 4 7 5 10 5c6 0 9 -6 9 -12c0 -10 -63 -50 -127 -50c-99 0 -174 75 -174 186c0 157 135 255 258 255h34c18 0 29 0 29 -13c0 -16 -15 -16 -32 -16h-29c-89 0 -148 -55 -173 -146h162 c18 0 28 0 28 -13c0 -16 -17 -16 -32 -16z" id="0f18"/><path d="M420 321c0 -73 -4 -154 -34 -223c-41 -95 -111 -114 -157 -114c-39 0 -116 14 -159 117c-31 76 -32 163 -32 220c0 78 4 171 44 246c38 72 99 94 147 94c52 0 111 -25 148 -95c42 -80 43 -184 43 -245zM229 0c35 0 94 19 115 128c12 59 12 139 12 204 c0 80 -1 147 -14 204c-19 82 -72 109 -113 109c-39 0 -95 -26 -114 -111c-13 -61 -13 -125 -13 -202c0 -56 0 -142 11 -201c14 -76 52 -131 116 -131z" id="3016"/><path d="M643 321h-567c-15 0 -30 0 -30 17c0 18 17 18 34 18h559c17 0 34 0 34 -18c0 -17 -15 -17 -30 -17zM639 143h-559c-17 0 -34 0 -34 18c0 17 15 17 30 17h567c15 0 30 0 30 -17c0 -18 -17 -18 -34 -18z" id="3d15"/><path d="M306 -244c0 -4 -2 -6 -7 -6c-12 0 -94 73 -142 177c-60 129 -67 251 -67 323c0 96 14 204 64 315c49 110 134 184 145 184c4 0 7 -2 7 -5s-2 -5 -2 -6c-49 -50 -170 -177 -170 -489s123 -440 169 -487c3 -3 3 -5 3 -6z" id="2815"/><path d="M283 143c0 -7 -36 -153 -128 -153c-48 0 -79 36 -79 81c0 18 6 34 12 50l70 186c8 22 21 55 21 81c0 32 -17 33 -26 33c-39 0 -77 -40 -101 -124c-4 -14 -5 -18 -14 -18c-7 0 -11 5 -11 9c0 8 37 153 129 153c49 0 79 -38 79 -80c0 -19 -7 -37 -10 -45l-70 -186 c-11 -30 -23 -60 -23 -87c0 -30 14 -33 26 -33c33 0 74 31 100 122c5 17 6 20 15 20c6 0 10 -4 10 -9zM275 624c0 -22 -23 -48 -50 -48c-12 0 -33 8 -33 33c0 26 26 48 49 48c22 0 34 -18 34 -33z" id="6918"/><path d="M389 409c-13 9 -29 12 -45 12c-41 0 -67 -23 -79 -34c-25 -22 -52 -71 -55 -80c-3 -13 -7 -29 -11 -43c-5 -22 -11 -43 -16 -65c-6 -23 -43 -174 -46 -182c-6 -20 -25 -27 -36 -27c-15 0 -26 11 -26 25c0 5 11 52 18 78c5 18 16 63 20 82l28 108c7 31 17 70 17 92 c0 29 -7 46 -31 46c-40 0 -59 -58 -74 -118c-6 -23 -7 -24 -15 -24c-7 0 -11 5 -11 9c0 5 15 65 32 101c12 22 32 52 71 52c40 0 80 -26 87 -79c42 61 88 79 128 79c50 0 81 -28 81 -60c0 -30 -23 -54 -51 -54c-14 0 -33 8 -33 32c0 22 16 44 47 50z" id="7218"/><path d="M535 597h-320c-16 0 -34 0 -34 18c0 19 17 19 34 19h336c-19 27 -25 51 -25 60c0 15 12 19 18 19c14 0 17 -12 20 -20c3 -12 10 -39 38 -58c6 -5 14 -10 14 -19c0 -11 -7 -14 -17 -20c-23 -13 -50 -32 -74 -62c-7 -10 -11 -16 -20 -16c-10 0 -19 9 -19 19 c0 14 37 49 49 60z" id="7e18"/><path d="M780 663l-338 -678c-7 -13 -9 -18 -26 -18s-19 5 -26 18l-338 678c-5 9 -5 11 -5 12c0 8 6 8 22 8h694c16 0 22 0 22 -8c0 -1 0 -3 -5 -12zM170 612l275 -551h1l274 551h-550z" id="7221"/><path d="M417 155l-24 -155h-352v23l199 225c57 65 108 140 108 227c0 91 -57 160 -144 160c-61 0 -119 -42 -138 -127c4 2 10 3 16 3c14 0 40 -9 40 -40c0 -35 -30 -41 -40 -41c-12 0 -41 5 -41 44c0 90 67 187 177 187c105 0 199 -68 199 -186c0 -99 -71 -167 -132 -225 c-85 -82 -155 -153 -191 -192h192c14 0 86 0 91 8c4 6 12 18 22 89h18z" id="3216"/><path d="M288 144c6 -83 49 -88 75 -88c109 0 191 143 191 229c0 39 -14 68 -35 89c-4 4 -11 11 -11 23c0 21 23 44 46 44c15 0 40 -12 40 -67c0 -85 -68 -384 -244 -384c-56 0 -86 36 -91 98c-32 -50 -80 -98 -146 -98c-101 0 -101 114 -101 137c0 33 4 136 73 253 c13 23 30 50 39 50c7 0 10 -5 10 -10c0 -2 0 -4 -8 -16c-70 -102 -86 -186 -86 -234c0 -14 2 -53 19 -79c22 -35 52 -35 67 -35c58 0 103 43 134 92c2 20 4 37 14 82c7 34 15 60 35 60c7 0 17 -5 17 -21c0 -14 -14 -69 -38 -125z" id="2118"/></defs><g transform="scale(1.25)"><rect height="0.995" width="33.023" x="344.026" y="130.647"/><g transform="scale(0.02488,-0.02488)"><g transform="translate(3912.806,-5521.08)"><use xlink:href="#7221"/></g></g><g transform="scale(0.02074,-0.02074)"><g transform="translate(5693.137,-6127.855)"><use xlink:href="#3216"/></g></g><g transform="scale(0.02488,-0.02488)"><g transform="translate(5148.207,-5521.08)"><use xlink:href="#4518"/></g></g><g transform="scale(0.02488,-0.02488)"><g transform="translate(5930.83,-5521.08)"><use xlink:href="#2815"/></g></g><g transform="scale(0.02488,-0.02488)"><g transform="translate(6251.758,-5521.08)"><use xlink:href="#7e18"/><use x="33.073" xlink:href="#7218"/></g></g><g transform="scale(0.02488,-0.02488)"><g transform="translate(6753.286,-5521.08)"><use xlink:href="#2915"/><use x="520.666" xlink:href="#6515"/><use x="926.666" xlink:href="#7815"/><use x="1410.666" xlink:href="#7015"/><use x="1922.642" xlink:href="#2815"/></g></g><g transform="scale(0.02488,-0.02488)"><g transform="translate(9029.929,-5521.08)"><use xlink:href="#6918"/><use x="334" xlink:href="#2118"/><use x="978.88" xlink:href="#7418"/></g></g><g transform="scale(0.02488,-0.02488)"><g transform="translate(10361.808,-5521.08)"><use xlink:href="#2915"/><use x="631.777" xlink:href="#3d15"/></g></g><g transform="scale(0.02488,-0.02488)"><g transform="translate(11990.362,-5521.08)"><use xlink:href="#1618"/></g></g><g transform="scale(0.02074,-0.02074)"><g transform="translate(15090.381,-6854.577)"><use xlink:href="#3016"/></g></g><g transform="scale(0.02488,-0.02488)"><g transform="translate(12981.762,-5521.08)"><use xlink:href="#0f18"/></g></g><g transform="scale(0.02074,-0.02074)"><g transform="translate(16046.954,-6854.577)"><use xlink:href="#3016"/></g></g><g transform="scale(0.02488,-0.02488)"><g transform="translate(14004.187,-4844.572)"><use xlink:href="#4018"/></g></g><g transform="scale(0.02074,-0.02074)"><g transform="translate(17483.878,-5376.288)"><use xlink:href="#3216"/></g></g><g transform="scale(0.02488,-0.02488)"><g transform="translate(13827.395,-6237.311)"><use xlink:href="#4018"/><use x="570.397" xlink:href="#7418"/></g></g><g transform="scale(0.02074,-0.02074)"><g transform="translate(17695.259,-7135.813)"><use xlink:href="#3216"/></g></g><g transform="scale(0.02488,-0.02488)"><g transform="translate(15202.9,-5521.08)"><use xlink:href="#4518"/></g></g><g transform="scale(0.02488,-0.02488)"><g transform="translate(15985.523,-5521.08)"><use xlink:href="#2815"/></g></g><g transform="scale(0.02488,-0.02488)"><g transform="translate(16306.45,-5521.08)"><use xlink:href="#7e18"/><use x="33.073" xlink:href="#7218"/></g></g><g transform="scale(0.02488,-0.02488)"><g transform="translate(16807.979,-5521.08)"><use xlink:href="#2915"/><use x="520.666" xlink:href="#6515"/><use x="926.666" xlink:href="#7815"/><use x="1410.666" xlink:href="#7015"/><use x="1922.642" xlink:href="#2815"/></g></g><g transform="scale(0.02488,-0.02488)"><g transform="translate(19084.621,-5521.08)"><use xlink:href="#6918"/><use x="334" xlink:href="#2118"/><use x="978.88" xlink:href="#7418"/></g></g><g transform="scale(0.02488,-0.02488)"><g transform="translate(20416.501,-5521.08)"><use xlink:href="#2915"/></g></g></g></svg>