<?xml version="1.0" ?><!DOCTYPE svg  PUBLIC '-//W3C//DTD SVG 1.1//EN'  'http://www.w3.org/Graphics/SVG/1.1/DTD/svg11.dtd'><svg height="89.267" viewBox="324.291 95.183 116.784 89.267" width="116.784" xmlns="http://www.w3.org/2000/svg" xmlns:xlink="http://www.w3.org/1999/xlink"><defs><path d="M259 377l-58 -226c-10 -40 -10 -42 -26 -93c-12 -42 -20 -68 -49 -68c-9 0 -27 5 -27 26c0 6 0 8 8 24c82 175 107 262 129 337h-57c-25 0 -77 0 -129 -82c-5 -6 -6 -9 -13 -9c-6 0 -11 2 -11 8s32 59 58 88c46 49 80 49 103 49h329c18 0 37 0 37 -22 c0 -32 -33 -32 -46 -32h-112c-21 -90 -21 -161 -21 -167c0 -7 0 -93 27 -162c7 -15 7 -17 7 -22c0 -17 -18 -36 -39 -36c-41 0 -41 108 -41 122c0 80 17 153 44 265h-113z" id="1918"/><path d="M43 -127l113 450c4 18 7 28 7 52c0 30 -8 46 -31 46c-40 0 -59 -59 -74 -118c-6 -23 -7 -24 -15 -24c-7 0 -11 5 -11 9s14 65 32 101c19 38 42 52 71 52c40 0 79 -26 87 -76c11 14 65 76 129 76c75 0 127 -65 127 -157c0 -147 -122 -294 -235 -294c-52 0 -79 39 -90 67 c-6 -23 -51 -195 -51 -207c0 -8 3 -15 49 -15c17 0 24 0 24 -11c0 -18 -12 -18 -18 -18c-21 0 -72 2 -93 2h-43c-13 0 -27 -2 -40 -2c-11 0 -12 8 -12 10c0 19 10 19 22 19c41 0 45 8 52 38zM216 312l-49 -196c-1 -5 -3 -13 -3 -16c0 -4 11 -90 79 -90c46 0 92 48 117 102 c25 52 53 165 53 213c0 52 -20 96 -64 96c-38 0 -71 -28 -82 -38c-16 -14 -44 -43 -51 -71z" id="7018"/><path d="M643 321h-567c-15 0 -30 0 -30 17c0 18 17 18 34 18h559c17 0 34 0 34 -18c0 -17 -15 -17 -30 -17zM639 143h-559c-17 0 -34 0 -34 18c0 17 15 17 30 17h567c15 0 30 0 30 -17c0 -18 -17 -18 -34 -18z" id="3d15"/><path d="M417 155l-24 -155h-352v23l199 225c57 65 108 140 108 227c0 91 -57 160 -144 160c-61 0 -119 -42 -138 -127c4 2 10 3 16 3c14 0 40 -9 40 -40c0 -35 -30 -41 -40 -41c-12 0 -41 5 -41 44c0 90 67 187 177 187c105 0 199 -68 199 -186c0 -99 -71 -167 -132 -225 c-85 -82 -155 -153 -191 -192h192c14 0 86 0 91 8c4 6 12 18 22 89h18z" id="3215"/><path d="M281 669l-77 -307c41 52 91 79 148 79c76 0 111 -45 111 -105c0 -58 -45 -176 -63 -224c-4 -11 -16 -43 -16 -69c0 -32 16 -33 26 -33c40 0 77 42 100 122c5 17 6 20 15 20c6 0 10 -4 10 -9c0 -6 -35 -153 -128 -153c-48 0 -79 36 -79 81c0 18 5 31 14 55 c22 60 61 169 61 225c0 40 -14 70 -54 70c-77 0 -122 -60 -141 -89s-19 -30 -30 -72c-5 -22 -11 -43 -16 -65l-45 -181c-5 -11 -18 -24 -35 -24c-10 0 -27 4 -27 26c0 6 0 8 4 23l145 579c1 3 3 11 3 17c0 10 -1 19 -50 19c-14 0 -22 0 -22 10c0 18 7 19 32 21 c18 1 33 3 50 4c5 1 54 5 55 5c2 0 12 0 12 -10c0 -5 -2 -11 -3 -15z" id="6818"/><path d="M281 669l-103 -411c37 14 74 52 84 64c71 80 116 119 171 119c45 0 68 -30 68 -59c0 -32 -24 -55 -51 -55c-14 0 -33 8 -33 32c0 20 14 46 51 50c-7 6 -13 12 -36 12c-46 0 -85 -32 -142 -96c-14 -15 -50 -54 -86 -76c92 -12 145 -45 145 -104c0 -12 0 -13 -4 -31 c-4 -15 -8 -37 -8 -56c0 -38 13 -48 33 -48c51 0 72 70 86 122c4 16 5 20 14 20c6 0 10 -4 10 -9c0 -4 -13 -60 -34 -97c-8 -14 -32 -56 -78 -56c-51 0 -89 39 -89 97c0 5 0 17 4 32c3 15 3 19 3 25c0 48 -43 78 -115 86l-47 -187c-8 -31 -14 -53 -42 -53 c-10 0 -27 4 -27 26c0 6 0 8 4 23l143 572c5 18 5 20 5 24c0 10 0 19 -51 19c-10 0 -20 0 -20 10c0 18 7 19 31 21c18 1 33 3 50 4c18 2 54 5 55 5c2 0 12 0 12 -10c0 -5 -2 -11 -3 -15z" id="6b18"/></defs><g transform="scale(1.25)"><rect height="0.995" width="27.529" x="315.331" y="113.527"/><g transform="scale(0.02488,-0.02488)"><g transform="translate(10860.277,-4832.968)"><use xlink:href="#7018"/></g></g><g transform="scale(0.02488,-0.02488)"><g transform="translate(11629.054,-4832.968)"><use xlink:href="#3d15"/></g></g><g transform="scale(0.02488,-0.02488)"><g transform="translate(12674.062,-4156.461)"><use xlink:href="#6818"/><use x="563" xlink:href="#6b18"/></g></g><g transform="scale(0.02488,-0.02488)"><g transform="translate(12702.331,-5518.919)"><use xlink:href="#3215"/></g></g><g transform="scale(0.02488,-0.02488)"><g transform="translate(13160.331,-5518.919)"><use xlink:href="#1918"/></g></g></g></svg>