<?xml version="1.0" ?><!DOCTYPE svg  PUBLIC '-//W3C//DTD SVG 1.1//EN'  'http://www.w3.org/Graphics/SVG/1.1/DTD/svg11.dtd'><svg height="56.069" viewBox="296.557 108.125 172.702 56.069" width="172.702" xmlns="http://www.w3.org/2000/svg" xmlns:xlink="http://www.w3.org/1999/xlink"><defs><path d="M153 694v-625c0 -39 4 -43 68 -43v-26c-24 2 -68 2 -94 2c-25 0 -69 0 -93 -2v26c64 0 68 5 68 43v534c0 48 -9 54 -68 54v26z" id="6c15"/><path d="M263 -112c35 49 45 88 60 147l-1 1c-35 -37 -71 -46 -100 -46c-50 0 -118 22 -118 117c0 24 0 57 49 188c15 38 26 67 26 93c0 33 -17 33 -26 33c-39 0 -77 -40 -101 -124c-4 -14 -5 -18 -14 -18c-7 0 -11 5 -11 9c0 8 37 153 129 153c49 0 79 -38 79 -80 c0 -20 -6 -34 -17 -63c-27 -72 -54 -149 -54 -206c0 -27 5 -82 61 -82c48 0 81 34 101 62c8 11 8 13 13 31l74 294c8 30 29 34 38 34c15 0 27 -10 27 -25c0 -6 -2 -12 -3 -17l-98 -390c-28 -111 -129 -203 -229 -203c-57 0 -100 35 -100 86c0 49 35 61 51 61 c15 0 34 -8 34 -31s-20 -49 -50 -49c-2 0 -7 0 -10 1c15 -46 63 -48 75 -48c49 0 88 34 115 72z" id="7918"/><path d="M474 408c-21 13 -49 13 -51 13c-46 0 -80 -44 -95 -104l-35 -136c-16 -66 -20 -82 -20 -104c0 -41 19 -67 54 -67c45 0 103 41 130 129c3 8 4 13 13 13c6 0 10 -4 10 -9c0 -22 -54 -153 -156 -153c-37 0 -87 20 -103 79c-21 -41 -55 -79 -103 -79c-43 0 -90 19 -90 61 c0 32 26 53 50 53c19 0 34 -12 34 -32c0 -12 -8 -42 -44 -49c21 -13 46 -13 51 -13c53 0 82 55 97 115l34 137c12 48 18 71 18 93c0 24 -9 66 -54 66c-29 0 -96 -21 -130 -132c-2 -4 -4 -10 -12 -10c-7 0 -11 5 -11 9c0 22 54 153 156 153c18 0 80 -4 103 -79 c9 19 43 79 104 79c42 0 90 -19 90 -61c0 -27 -21 -53 -51 -53c-14 0 -33 8 -33 32c0 19 12 43 44 49z" id="7818"/><path d="M643 321h-567c-15 0 -30 0 -30 17c0 18 17 18 34 18h559c17 0 34 0 34 -18c0 -17 -15 -17 -30 -17zM639 143h-559c-17 0 -34 0 -34 18c0 17 15 17 30 17h567c15 0 30 0 30 -17c0 -18 -17 -18 -34 -18z" id="3d15"/><path d="M306 -244c0 -4 -2 -6 -7 -6c-12 0 -94 73 -142 177c-60 129 -67 251 -67 323c0 96 14 204 64 315c49 110 134 184 145 184c4 0 7 -2 7 -5s-2 -5 -2 -6c-49 -50 -170 -177 -170 -489s123 -440 169 -487c3 -3 3 -5 3 -6z" id="2815"/><path d="M111 180c-19 -22 -19 -44 -19 -53c0 -35 21 -63 52 -68c5 -1 46 -1 69 -1c77 0 225 0 225 -136c0 -75 -99 -126 -209 -126c-114 0 -209 53 -209 125c0 50 41 90 93 103c-34 21 -44 59 -44 85c0 5 0 46 30 81c-10 10 -43 46 -43 103c0 83 68 145 147 145 c32 0 68 -10 98 -37c28 26 63 45 103 45c32 0 47 -20 47 -39c0 -13 -8 -23 -23 -23c-13 0 -22 9 -22 22c0 16 9 20 13 21c-5 3 -11 3 -15 3c-23 0 -64 -10 -92 -40c30 -31 38 -71 38 -97c0 -83 -68 -145 -147 -145c-40 0 -73 17 -92 32zM203 165c88 0 88 108 88 128 s0 128 -88 128s-88 -108 -88 -128s0 -128 88 -128zM229 -187c100 0 169 53 169 108c0 93 -114 93 -196 93c-68 0 -78 0 -103 -17c-22 -16 -39 -45 -39 -76c0 -55 69 -108 169 -108z" id="6715"/><path d="M283 143c0 -7 -36 -153 -128 -153c-48 0 -79 36 -79 81c0 18 6 34 12 50l70 186c8 22 21 55 21 81c0 32 -17 33 -26 33c-39 0 -77 -40 -101 -124c-4 -14 -5 -18 -14 -18c-7 0 -11 5 -11 9c0 8 37 153 129 153c49 0 79 -38 79 -80c0 -19 -7 -37 -10 -45l-70 -186 c-11 -30 -23 -60 -23 -87c0 -30 14 -33 26 -33c33 0 74 31 100 122c5 17 6 20 15 20c6 0 10 -4 10 -9zM275 624c0 -22 -23 -48 -50 -48c-12 0 -33 8 -33 33c0 26 26 48 49 48c22 0 34 -18 34 -33z" id="6918"/><path d="M263 249c0 -96 -14 -204 -64 -315c-49 -110 -134 -184 -145 -184c-3 0 -7 1 -7 6c0 2 1 3 2 5c49 50 170 177 170 489c0 311 -122 438 -170 488c-1 2 -2 3 -2 5c0 5 4 6 7 6c12 0 94 -73 142 -177c60 -129 67 -251 67 -323z" id="2915"/><path d="M431 214c0 -126 -93 -222 -202 -222s-202 96 -202 222c0 128 93 228 202 228s202 -100 202 -228zM229 10c38 0 81 19 109 65c27 48 29 108 29 147c0 31 0 97 -31 144c-24 35 -62 60 -107 60c-51 0 -90 -32 -110 -65c-26 -45 -28 -97 -28 -139c0 -44 3 -100 28 -145 c23 -39 63 -67 110 -67z" id="6f15"/></defs><g transform="scale(1.25)"><g transform="scale(0.02488,-0.02488)"><g transform="translate(9910.537,-4627.612)"><use xlink:href="#6918"/><use x="635.887" xlink:href="#7818"/></g></g><g transform="scale(0.02488,-0.02488)"><g transform="translate(11380.201,-4627.612)"><use xlink:href="#3d15"/><use x="996.777" xlink:href="#6c15"/><use x="1245.777" xlink:href="#6f15"/><use x="1703.777" xlink:href="#6715"/><use x="2176.716" xlink:href="#2815"/></g></g><g transform="scale(0.02488,-0.02488)"><g transform="translate(13910.917,-4627.612)"><use xlink:href="#7918"/></g></g><g transform="scale(0.02488,-0.02488)"><g transform="translate(14423.797,-4627.612)"><use xlink:href="#2915"/></g></g></g></svg>