<?xml version="1.0" ?><!DOCTYPE svg  PUBLIC '-//W3C//DTD SVG 1.1//EN'  'http://www.w3.org/Graphics/SVG/1.1/DTD/svg11.dtd'><svg height="81.399" viewBox="333.333 96.664 101.38 81.399" width="101.38" xmlns="http://www.w3.org/2000/svg" xmlns:xlink="http://www.w3.org/1999/xlink"><defs><path d="M643 321h-567c-15 0 -30 0 -30 17c0 18 17 18 34 18h559c17 0 34 0 34 -18c0 -17 -15 -17 -30 -17zM639 143h-559c-17 0 -34 0 -34 18c0 17 15 17 30 17h567c15 0 30 0 30 -17c0 -18 -17 -18 -34 -18z" id="3d15"/><path d="M281 669l-103 -411c37 14 74 52 84 64c71 80 116 119 171 119c45 0 68 -30 68 -59c0 -32 -24 -55 -51 -55c-14 0 -33 8 -33 32c0 20 14 46 51 50c-7 6 -13 12 -36 12c-46 0 -85 -32 -142 -96c-14 -15 -50 -54 -86 -76c92 -12 145 -45 145 -104c0 -12 0 -13 -4 -31 c-4 -15 -8 -37 -8 -56c0 -38 13 -48 33 -48c51 0 72 70 86 122c4 16 5 20 14 20c6 0 10 -4 10 -9c0 -4 -13 -60 -34 -97c-8 -14 -32 -56 -78 -56c-51 0 -89 39 -89 97c0 5 0 17 4 32c3 15 3 19 3 25c0 48 -43 78 -115 86l-47 -187c-8 -31 -14 -53 -42 -53 c-10 0 -27 4 -27 26c0 6 0 8 4 23l143 572c5 18 5 20 5 24c0 10 0 19 -51 19c-10 0 -20 0 -20 10c0 18 7 19 31 21c18 1 33 3 50 4c18 2 54 5 55 5c2 0 12 0 12 -10c0 -5 -2 -11 -3 -15z" id="6b18"/><path d="M457 374c0 -57 -57 -384 -223 -384c-9 0 -59 0 -95 31c-31 28 -34 69 -34 91c0 24 0 55 48 183c15 38 26 67 26 93c0 33 -17 33 -26 33c-38 0 -77 -38 -101 -124c-4 -14 -5 -18 -14 -18c-7 0 -11 5 -11 9c0 8 37 153 129 153c49 0 79 -38 79 -80c0 -20 -4 -30 -20 -71 c-27 -72 -50 -142 -50 -192c0 -37 12 -88 73 -88c120 0 180 234 180 276c0 52 -26 79 -36 88c-4 4 -11 11 -11 23c0 20 22 44 46 44c8 0 40 -4 40 -67z" id="7618"/><path d="M288 144c6 -83 49 -88 75 -88c109 0 191 143 191 229c0 39 -14 68 -35 89c-4 4 -11 11 -11 23c0 21 23 44 46 44c15 0 40 -12 40 -67c0 -85 -68 -384 -244 -384c-56 0 -86 36 -91 98c-32 -50 -80 -98 -146 -98c-101 0 -101 114 -101 137c0 33 4 136 73 253 c13 23 30 50 39 50c7 0 10 -5 10 -10c0 -2 0 -4 -8 -16c-70 -102 -86 -186 -86 -234c0 -14 2 -53 19 -79c22 -35 52 -35 67 -35c58 0 103 43 134 92c2 20 4 37 14 82c7 34 15 60 35 60c7 0 17 -5 17 -21c0 -14 -14 -69 -38 -125z" id="2118"/></defs><g transform="scale(1.25)"><rect height="0.995" width="16.062" x="321.708" y="108.417"/><g transform="scale(0.02488,-0.02488)"><g transform="translate(11065.021,-4627.612)"><use xlink:href="#6b18"/></g></g><g transform="scale(0.02488,-0.02488)"><g transform="translate(11885.363,-4627.612)"><use xlink:href="#3d15"/></g></g><g transform="scale(0.02488,-0.02488)"><g transform="translate(12930.371,-3951.104)"><use xlink:href="#2118"/></g><g transform="translate(12998.542,-5313.562)"><use xlink:href="#7618"/></g></g></g></svg>