<?xml version="1.0" ?><!DOCTYPE svg  PUBLIC '-//W3C//DTD SVG 1.1//EN'  'http://www.w3.org/Graphics/SVG/1.1/DTD/svg11.dtd'><svg height="67.406" viewBox="117.078 115.586 532.166 67.406" width="532.166" xmlns="http://www.w3.org/2000/svg" xmlns:xlink="http://www.w3.org/1999/xlink"><defs><path d="M283 143c0 -7 -36 -153 -128 -153c-48 0 -79 36 -79 81c0 18 6 34 12 50l70 186c8 22 21 55 21 81c0 32 -17 33 -26 33c-39 0 -77 -40 -101 -124c-4 -14 -5 -18 -14 -18c-7 0 -11 5 -11 9c0 8 37 153 129 153c49 0 79 -38 79 -80c0 -19 -7 -37 -10 -45l-70 -186 c-11 -30 -23 -60 -23 -87c0 -30 14 -33 26 -33c33 0 74 31 100 122c5 17 6 20 15 20c6 0 10 -4 10 -9zM275 624c0 -22 -23 -48 -50 -48c-12 0 -33 8 -33 33c0 26 26 48 49 48c22 0 34 -18 34 -33z" id="6919"/><path d="M661 230h-545c-14 0 -33 0 -33 20s19 20 33 20h545c14 0 33 0 33 -20s-19 -20 -33 -20z" id="0021"/><path d="M291 227h-166c-9 -40 -11 -66 -11 -85c0 -97 56 -132 109 -132c30 0 67 12 105 37c5 4 7 5 10 5c6 0 9 -6 9 -12c0 -10 -63 -50 -127 -50c-99 0 -174 75 -174 186c0 157 135 255 258 255h34c18 0 29 0 29 -13c0 -16 -15 -16 -32 -16h-29c-89 0 -148 -55 -173 -146h162 c18 0 28 0 28 -13c0 -16 -17 -16 -32 -16z" id="0f18"/><path d="M474 408c-21 13 -49 13 -51 13c-46 0 -80 -44 -95 -104l-35 -136c-16 -66 -20 -82 -20 -104c0 -41 19 -67 54 -67c45 0 103 41 130 129c3 8 4 13 13 13c6 0 10 -4 10 -9c0 -22 -54 -153 -156 -153c-37 0 -87 20 -103 79c-21 -41 -55 -79 -103 -79c-43 0 -90 19 -90 61 c0 32 26 53 50 53c19 0 34 -12 34 -32c0 -12 -8 -42 -44 -49c21 -13 46 -13 51 -13c53 0 82 55 97 115l34 137c12 48 18 71 18 93c0 24 -9 66 -54 66c-29 0 -96 -21 -130 -132c-2 -4 -4 -10 -12 -10c-7 0 -11 5 -11 9c0 22 54 153 156 153c18 0 80 -4 103 -79 c9 19 43 79 104 79c42 0 90 -19 90 -61c0 -27 -21 -53 -51 -53c-14 0 -33 8 -33 32c0 19 12 43 44 49z" id="7818"/><path d="M695 232l-91 -215c-7 -16 -8 -17 -30 -17h-502c-20 0 -26 0 -26 11c0 18 10 18 29 18c70 0 72 10 81 45l135 540c3 11 4 15 4 20c0 11 0 18 -62 18c-17 0 -24 0 -24 11c0 18 10 18 29 18h488c18 0 27 0 27 -11c0 -2 -2 -12 -2 -15l-21 -175c-2 -18 -6 -22 -13 -22 c-6 0 -11 3 -11 11c0 2 1 8 2 12c4 33 4 61 4 62c0 76 -25 109 -148 109h-143c-41 0 -43 -3 -52 -38l-62 -246h95c89 0 109 22 129 99c4 14 5 18 14 18c6 0 10 -5 10 -10l-57 -232c-4 -14 -5 -21 -14 -21c-6 0 -11 3 -11 10c0 3 1 7 3 11c7 30 7 39 7 49c0 30 -6 47 -84 47 h-99l-69 -276c-2 -9 -4 -15 -4 -22c0 -8 1 -10 12 -11c6 -1 8 -1 22 -1h146c160 0 203 60 262 200c9 20 9 22 11 23c3 3 5 4 9 4c6 0 10 -5 10 -10c0 -4 -3 -11 -4 -14z" id="4518"/><path d="M418 250l199 -200c11 -11 13 -13 13 -21c0 -11 -8 -20 -20 -20c-6 0 -12 3 -22 13l-200 200l-200 -200c-11 -11 -13 -13 -21 -13c-10 0 -20 9 -20 20c0 6 3 12 13 22l199 199l-199 200c-9 9 -13 13 -13 21c0 11 10 20 20 20c8 0 10 -2 21 -13l201 -200l200 200 c9 9 13 13 21 13c11 0 20 -9 20 -20c0 -8 -2 -10 -13 -21z" id="0221"/><path d="M195 -4c0 -115 -77 -189 -85 -189c-5 0 -10 5 -10 10c0 2 0 4 11 16c58 65 64 130 64 163c0 5 0 19 -2 19c-1 0 -2 0 -4 -2c-9 -9 -20 -13 -33 -13c-34 0 -49 27 -49 49s16 48 48 48c41 0 60 -43 60 -101z" id="3b19"/><path d="M417 155l-24 -155h-352v23l199 225c57 65 108 140 108 227c0 91 -57 160 -144 160c-61 0 -119 -42 -138 -127c4 2 10 3 16 3c14 0 40 -9 40 -40c0 -35 -30 -41 -40 -41c-12 0 -41 5 -41 44c0 90 67 187 177 187c105 0 199 -68 199 -186c0 -99 -71 -167 -132 -225 c-85 -82 -155 -153 -191 -192h192c14 0 86 0 91 8c4 6 12 18 22 89h18z" id="3216"/><path d="M192 250c0 -29 -24 -53 -53 -53s-53 24 -53 53s24 53 53 53s53 -24 53 -53z" id="0121"/><path d="M643 321h-567c-15 0 -30 0 -30 17c0 18 17 18 34 18h559c17 0 34 0 34 -18c0 -17 -15 -17 -30 -17zM639 143h-559c-17 0 -34 0 -34 18c0 17 15 17 30 17h567c15 0 30 0 30 -17c0 -18 -17 -18 -34 -18z" id="3d15"/><path d="M306 -244c0 -4 -2 -6 -7 -6c-12 0 -94 73 -142 177c-60 129 -67 251 -67 323c0 96 14 204 64 315c49 110 134 184 145 184c4 0 7 -2 7 -5s-2 -5 -2 -6c-49 -50 -170 -177 -170 -489s123 -440 169 -487c3 -3 3 -5 3 -6z" id="2815"/><path d="M263 249c0 -96 -14 -204 -64 -315c-49 -110 -134 -184 -145 -184c-3 0 -7 1 -7 6c0 2 1 3 2 5c49 50 170 177 170 489c0 311 -122 438 -170 488c-1 2 -2 3 -2 5c0 5 4 6 7 6c12 0 94 -73 142 -177c60 -129 67 -251 67 -323z" id="2915"/><path d="M350 317l-93 -370c-25 -100 -116 -151 -185 -151c-41 0 -85 17 -85 58c0 30 24 52 50 52c22 0 34 -16 34 -32c0 -24 -19 -43 -43 -48c19 -10 40 -10 44 -10c55 0 102 56 121 130l95 377c4 18 7 28 7 52c0 35 -11 46 -32 46c-38 0 -88 -31 -128 -128 c-5 -10 -6 -14 -14 -14c-6 0 -10 4 -10 9c0 7 54 153 155 153c45 0 88 -32 88 -90c0 -4 0 -18 -4 -34zM391 624c0 -26 -26 -48 -49 -48c-22 0 -34 18 -34 33c0 22 23 48 50 48c12 0 33 -8 33 -33z" id="6a19"/><path d="M535 597h-320c-16 0 -34 0 -34 18c0 19 17 19 34 19h336c-19 27 -25 51 -25 60c0 15 12 19 18 19c14 0 17 -12 20 -20c3 -12 10 -39 38 -58c6 -5 14 -10 14 -19c0 -11 -7 -14 -17 -20c-23 -13 -50 -32 -74 -62c-7 -10 -11 -16 -20 -16c-10 0 -19 9 -19 19 c0 14 37 49 49 60z" id="7e18"/><path d="M780 663l-338 -678c-7 -13 -9 -18 -26 -18s-19 5 -26 18l-338 678c-5 9 -5 11 -5 12c0 8 6 8 22 8h694c16 0 22 0 22 -8c0 -1 0 -3 -5 -12zM170 612l275 -551h1l274 551h-550z" id="7221"/><path d="M281 669l-103 -411c37 14 74 52 84 64c71 80 116 119 171 119c45 0 68 -30 68 -59c0 -32 -24 -55 -51 -55c-14 0 -33 8 -33 32c0 20 14 46 51 50c-7 6 -13 12 -36 12c-46 0 -85 -32 -142 -96c-14 -15 -50 -54 -86 -76c92 -12 145 -45 145 -104c0 -12 0 -13 -4 -31 c-4 -15 -8 -37 -8 -56c0 -38 13 -48 33 -48c51 0 72 70 86 122c4 16 5 20 14 20c6 0 10 -4 10 -9c0 -4 -13 -60 -34 -97c-8 -14 -32 -56 -78 -56c-51 0 -89 39 -89 97c0 5 0 17 4 32c3 15 3 19 3 25c0 48 -43 78 -115 86l-47 -187c-8 -31 -14 -53 -42 -53 c-10 0 -27 4 -27 26c0 6 0 8 4 23l143 572c5 18 5 20 5 24c0 10 0 19 -51 19c-10 0 -20 0 -20 10c0 18 7 19 31 21c18 1 33 3 50 4c18 2 54 5 55 5c2 0 12 0 12 -10c0 -5 -2 -11 -3 -15z" id="6b19"/></defs><g transform="scale(1.25)"><g transform="scale(0.02488,-0.02488)"><g transform="translate(4120.493,-5109.927)"><use xlink:href="#0f18"/></g></g><g transform="scale(0.02074,-0.02074)"><g transform="translate(5416.85,-5634.63)"><use xlink:href="#6919"/><use x="334" xlink:href="#3b19"/><use x="605" xlink:href="#6a19"/><use x="1011.86" xlink:href="#3b19"/><use x="1282.86" xlink:href="#6b19"/></g></g><g transform="scale(0.02488,-0.02488)"><g transform="translate(6059.227,-5109.927)"><use xlink:href="#7818"/></g></g><g transform="scale(0.02074,-0.02074)"><g transform="translate(7935.721,-6372.331)"><use xlink:href="#6919"/></g></g><g transform="scale(0.02488,-0.02488)"><g transform="translate(6914.194,-5109.927)"><use xlink:href="#7221"/></g></g><g transform="scale(0.02074,-0.02074)"><g transform="translate(9293.643,-6372.331)"><use xlink:href="#6a19"/></g></g><g transform="scale(0.02488,-0.02488)"><g transform="translate(8151.87,-5109.927)"><use xlink:href="#2815"/></g></g><g transform="scale(0.02488,-0.02488)"><g transform="translate(8600.84,-4857.15)"><use xlink:href="#7e18"/></g><g transform="translate(8505.87,-5109.927)"><use xlink:href="#7221"/><use x="1055.557" xlink:href="#0221"/></g><g transform="translate(10712.268,-4857.15)"><use xlink:href="#7e18"/></g><g transform="translate(10560.649,-5109.927)"><use xlink:href="#4518"/></g></g><g transform="scale(0.02488,-0.02488)"><g transform="translate(11344.092,-5109.927)"><use xlink:href="#2915"/></g></g><g transform="scale(0.02074,-0.02074)"><g transform="translate(14033.197,-6411.184)"><use xlink:href="#6b19"/></g></g><g transform="scale(0.02488,-0.02488)"><g transform="translate(12448.46,-5109.927)"><use xlink:href="#3d15"/></g></g><g transform="scale(0.02488,-0.02488)"><g transform="translate(13540.207,-4857.15)"><use xlink:href="#7e18"/></g><g transform="translate(13445.237,-5109.927)"><use xlink:href="#7221"/></g></g><g transform="scale(0.02488,-0.02488)"><g transform="translate(14278.572,-5109.927)"><use xlink:href="#2815"/></g></g><g transform="scale(0.02488,-0.02488)"><g transform="translate(14727.542,-4857.15)"><use xlink:href="#7e18"/></g><g transform="translate(14632.572,-5109.927)"><use xlink:href="#7221"/><use x="1055.557" xlink:href="#0121"/></g><g transform="translate(16338.97,-4857.15)"><use xlink:href="#7e18"/></g><g transform="translate(16187.351,-5109.927)"><use xlink:href="#4518"/><use x="1005.664" xlink:href="#0021"/><use x="2004.886" xlink:href="#7221"/></g></g><g transform="scale(0.02074,-0.02074)"><g transform="translate(22822.944,-5634.63)"><use xlink:href="#3216"/></g></g><g transform="scale(0.02488,-0.02488)"><g transform="translate(19579.257,-4857.15)"><use xlink:href="#7e18"/></g><g transform="translate(19427.638,-5109.927)"><use xlink:href="#4518"/></g></g><g transform="scale(0.02488,-0.02488)"><g transform="translate(20211.081,-5109.927)"><use xlink:href="#2915"/></g></g></g></svg>