<?xml version="1.0" ?><!DOCTYPE svg  PUBLIC '-//W3C//DTD SVG 1.1//EN'  'http://www.w3.org/Graphics/SVG/1.1/DTD/svg11.dtd'><svg height="59.754" viewBox="291.809 109.244 180.688 59.754" width="180.688" xmlns="http://www.w3.org/2000/svg" xmlns:xlink="http://www.w3.org/1999/xlink"><defs><path d="M266 639v-566c0 -36 2 -47 88 -47h30v-26c-48 1 -98 2 -146 2s-98 -1 -146 -2v26h30c86 0 88 12 88 47v527c-40 -24 -92 -30 -123 -30c0 21 0 23 1 25s6 2 9 2c56 2 115 17 154 64c14 0 15 -1 15 -22z" id="3116"/><path d="M389 409c-13 9 -29 12 -45 12c-41 0 -67 -23 -79 -34c-25 -22 -52 -71 -55 -80c-3 -13 -7 -29 -11 -43c-5 -22 -11 -43 -16 -65c-6 -23 -43 -174 -46 -182c-6 -20 -25 -27 -36 -27c-15 0 -26 11 -26 25c0 5 11 52 18 78c5 18 16 63 20 82l28 108c7 31 17 70 17 92 c0 29 -7 46 -31 46c-40 0 -59 -58 -74 -118c-6 -23 -7 -24 -15 -24c-7 0 -11 5 -11 9c0 5 15 65 32 101c12 22 32 52 71 52c40 0 80 -26 87 -79c42 61 88 79 128 79c50 0 81 -28 81 -60c0 -30 -23 -54 -51 -54c-14 0 -33 8 -33 32c0 22 16 44 47 50z" id="7219"/><path d="M446 402h-85c-5 -30 -54 -296 -72 -373c-11 -50 -53 -233 -155 -233c-39 0 -83 22 -83 65c0 38 30 55 50 55c19 0 34 -12 34 -32c0 -1 0 -45 -51 -49c18 -19 47 -19 50 -19c50 0 65 73 82 160c23 107 64 333 82 426h-64c-20 0 -26 0 -26 11c0 18 10 18 29 18h67 c23 131 33 167 51 202c20 39 62 71 105 71c44 0 86 -23 86 -65c0 -38 -30 -55 -50 -55c-19 0 -34 12 -34 32c0 17 12 46 51 50c-10 9 -31 18 -52 18c-26 0 -47 -23 -53 -47c-8 -32 -22 -103 -41 -206h81c18 0 26 0 26 -10c0 -19 -8 -19 -28 -19z" id="6619"/><path d="M456 275c0 -141 -129 -285 -262 -285c-91 0 -153 71 -153 166c0 141 130 285 262 285c91 0 153 -71 153 -166zM195 10c39 0 94 26 135 93c38 61 59 168 59 208c0 70 -38 110 -87 110c-41 0 -97 -26 -142 -103c-28 -50 -52 -152 -52 -198c0 -70 37 -110 87 -110z" id="6f19"/><path d="M179 232h-53c-15 -64 -15 -89 -15 -103c0 -74 30 -119 87 -119c38 0 133 15 197 100c9 9 10 10 13 10c4 0 10 -5 10 -11c0 -13 -86 -119 -222 -119c-91 0 -151 73 -151 178c0 178 151 273 256 273c66 0 104 -40 104 -84c0 -18 -7 -76 -83 -105c-48 -18 -116 -20 -143 -20 zM131 252h42c42 0 202 0 202 105c0 38 -30 64 -74 64c-32 0 -127 -15 -170 -169z" id="6519"/><path d="M43 -127l113 450c4 18 7 28 7 52c0 30 -8 46 -31 46c-40 0 -59 -59 -74 -118c-6 -23 -7 -24 -15 -24c-7 0 -11 5 -11 9s14 65 32 101c19 38 42 52 71 52c40 0 79 -26 87 -76c11 14 65 76 129 76c75 0 127 -65 127 -157c0 -147 -122 -294 -235 -294c-52 0 -79 39 -90 67 c-6 -23 -51 -195 -51 -207c0 -8 3 -15 49 -15c17 0 24 0 24 -11c0 -18 -12 -18 -18 -18c-21 0 -72 2 -93 2h-43c-13 0 -27 -2 -40 -2c-11 0 -12 8 -12 10c0 19 10 19 22 19c41 0 45 8 52 38zM216 312l-49 -196c-1 -5 -3 -13 -3 -16c0 -4 11 -90 79 -90c46 0 92 48 117 102 c25 52 53 165 53 213c0 52 -20 96 -64 96c-38 0 -71 -28 -82 -38c-16 -14 -44 -43 -51 -71z" id="7018"/><path d="M231 669l-73 -291c19 20 66 63 118 63c75 0 127 -65 127 -157c0 -145 -120 -294 -236 -294c-65 0 -122 53 -122 155c0 13 0 30 5 55c4 18 61 245 71 285l24 96c4 18 12 47 12 54c0 10 0 19 -51 19c-10 0 -20 0 -20 10c0 18 7 19 31 21c18 1 33 3 50 4c18 2 54 5 55 5 c2 0 12 0 12 -10c0 -5 -2 -11 -3 -15zM168 10c46 0 92 48 117 102c25 52 53 165 53 213c0 52 -20 96 -64 96c-68 0 -127 -89 -129 -97c-4 -13 -20 -77 -23 -90c-18 -70 -21 -89 -21 -122c0 -78 35 -102 67 -102z" id="6219"/><path d="M643 321h-567c-15 0 -30 0 -30 17c0 18 17 18 34 18h559c17 0 34 0 34 -18c0 -17 -15 -17 -30 -17zM639 143h-559c-17 0 -34 0 -34 18c0 17 15 17 30 17h567c15 0 30 0 30 -17c0 -18 -17 -18 -34 -18z" id="3d15"/><path d="M535 597h-320c-16 0 -34 0 -34 18c0 19 17 19 34 19h336c-19 27 -25 51 -25 60c0 15 12 19 18 19c14 0 17 -12 20 -20c3 -12 10 -39 38 -58c6 -5 14 -10 14 -19c0 -11 -7 -14 -17 -20c-23 -13 -50 -32 -74 -62c-7 -10 -11 -16 -20 -16c-10 0 -19 9 -19 19 c0 14 37 49 49 60z" id="7e18"/></defs><g transform="scale(1.25)"><g transform="scale(0.02488,-0.02488)"><g transform="translate(9821.462,-4627.612)"><use xlink:href="#7e18"/><use x="-5.613" xlink:href="#7018"/></g></g><g transform="scale(0.02074,-0.02074)"><g transform="translate(12364.242,-5832.592)"><use xlink:href="#6219"/><use x="416" xlink:href="#6519"/><use x="869" xlink:href="#6619"/><use x="1457.77" xlink:href="#6f19"/><use x="1927.77" xlink:href="#7219"/><use x="2395.968" xlink:href="#6519"/></g></g><g transform="scale(0.02488,-0.02488)"><g transform="translate(12983.014,-4627.612)"><use xlink:href="#3d15"/></g></g><g transform="scale(0.02488,-0.02488)"><g transform="translate(13985.404,-4627.612)"><use xlink:href="#7e18"/><use x="-5.613" xlink:href="#7018"/></g></g><g transform="scale(0.02074,-0.02074)"><g transform="translate(17359.366,-5782.76)"><use xlink:href="#3116"/></g></g></g></svg>