<?xml version="1.0" ?><!DOCTYPE svg  PUBLIC '-//W3C//DTD SVG 1.1//EN'  'http://www.w3.org/Graphics/SVG/1.1/DTD/svg11.dtd'><svg height="94.104" viewBox="288.028 95.169 192.171 94.104" width="192.171" xmlns="http://www.w3.org/2000/svg" xmlns:xlink="http://www.w3.org/1999/xlink"><defs><path d="M474 408c-21 13 -49 13 -51 13c-46 0 -80 -44 -95 -104l-35 -136c-16 -66 -20 -82 -20 -104c0 -41 19 -67 54 -67c45 0 103 41 130 129c3 8 4 13 13 13c6 0 10 -4 10 -9c0 -22 -54 -153 -156 -153c-37 0 -87 20 -103 79c-21 -41 -55 -79 -103 -79c-43 0 -90 19 -90 61 c0 32 26 53 50 53c19 0 34 -12 34 -32c0 -12 -8 -42 -44 -49c21 -13 46 -13 51 -13c53 0 82 55 97 115l34 137c12 48 18 71 18 93c0 24 -9 66 -54 66c-29 0 -96 -21 -130 -132c-2 -4 -4 -10 -12 -10c-7 0 -11 5 -11 9c0 22 54 153 156 153c18 0 80 -4 103 -79 c9 19 43 79 104 79c42 0 90 -19 90 -61c0 -27 -21 -53 -51 -53c-14 0 -33 8 -33 32c0 19 12 43 44 49z" id="7818"/><path d="M503 669l-141 -560c-7 -28 -7 -49 -7 -53c0 -20 2 -46 31 -46c41 0 60 63 75 122c4 15 5 20 14 20c6 0 10 -4 10 -9c0 -4 -14 -65 -30 -99c-18 -36 -42 -54 -72 -54s-77 17 -87 76c-28 -33 -75 -76 -130 -76c-68 0 -126 58 -126 157c0 148 122 294 235 294 c52 0 79 -40 90 -66l61 243c1 3 3 11 3 17c0 10 -1 19 -50 19c-14 0 -22 0 -22 10c0 18 7 19 32 21c18 1 33 3 50 4c5 1 54 5 55 5c2 0 12 0 12 -10c0 -5 -2 -11 -3 -15zM301 119l49 196c1 2 4 15 4 16c0 8 -13 90 -79 90c-39 0 -86 -36 -120 -106 c-19 -42 -50 -154 -50 -209c0 -59 23 -96 64 -96c47 0 91 43 113 71c14 19 14 21 19 38z" id="6418"/><path d="M104 -2177c0 0 25 -23 61 -23c81 0 127 188 145 261c33 139 62 306 88 459c110 654 246 1156 249 1167c55 204 111 313 187 313c55 0 109 -39 109 -93c0 -35 -25 -50 -49 -50c-23 0 -48 16 -48 49c0 25 17 47 50 49c-4 4 -29 23 -60 23c-39 0 -73 -129 -85 -178 c-34 -129 -71 -329 -108 -542c-54 -321 -119 -640 -196 -956c-71 -290 -128 -524 -280 -524c-61 0 -111 42 -111 93c0 35 25 50 49 50c23 0 48 -16 48 -49c0 -25 -17 -47 -49 -49z" id="5a24"/><path d="M643 321h-567c-15 0 -30 0 -30 17c0 18 17 18 34 18h559c17 0 34 0 34 -18c0 -17 -15 -17 -30 -17zM639 143h-559c-17 0 -34 0 -34 18c0 17 15 17 30 17h567c15 0 30 0 30 -17c0 -18 -17 -18 -34 -18z" id="3d15"/><path d="M417 155l-24 -155h-352v23l199 225c57 65 108 140 108 227c0 91 -57 160 -144 160c-61 0 -119 -42 -138 -127c4 2 10 3 16 3c14 0 40 -9 40 -40c0 -35 -30 -41 -40 -41c-12 0 -41 5 -41 44c0 90 67 187 177 187c105 0 199 -68 199 -186c0 -99 -71 -167 -132 -225 c-85 -82 -155 -153 -191 -192h192c14 0 86 0 91 8c4 6 12 18 22 89h18z" id="3215"/><path d="M266 639v-566c0 -36 2 -47 88 -47h30v-26c-48 1 -98 2 -146 2s-98 -1 -146 -2v26h30c86 0 88 12 88 47v527c-40 -24 -92 -30 -123 -30c0 21 0 23 1 25s6 2 9 2c56 2 115 17 154 64c14 0 15 -1 15 -22z" id="3115"/></defs><g transform="scale(1.25)"><rect height="0.995" width="11.41" x="269.256" y="113.282"/><rect height="0.995" width="11.41" x="348.761" y="113.282"/><g transform="scale(0.02488,-0.02488)"><g transform="translate(9607.286,-3462.017)"><use xlink:href="#5a24"/></g></g><g transform="scale(0.02488,-0.02488)"><g transform="translate(10822.186,-4146.633)"><use xlink:href="#3115"/></g><g transform="translate(10822.186,-5509.091)"><use xlink:href="#3215"/></g></g><g transform="scale(0.02488,-0.02488)"><g transform="translate(11630.922,-4823.14)"><use xlink:href="#6418"/><use x="508" xlink:href="#7818"/></g></g><g transform="scale(0.02488,-0.02488)"><g transform="translate(12972.699,-4823.14)"><use xlink:href="#3d15"/></g><g transform="translate(14017.707,-4146.633)"><use xlink:href="#3115"/></g><g transform="translate(14017.707,-5509.091)"><use xlink:href="#3215"/></g></g><g transform="scale(0.02488,-0.02488)"><g transform="translate(14524.557,-4823.14)"><use xlink:href="#7818"/></g></g></g></svg>