<?xml version="1.0" ?><!DOCTYPE svg  PUBLIC '-//W3C//DTD SVG 1.1//EN'  'http://www.w3.org/Graphics/SVG/1.1/DTD/svg11.dtd'><svg height="62.752" viewBox="208.991 101.441 348.822 62.752" width="348.822" xmlns="http://www.w3.org/2000/svg" xmlns:xlink="http://www.w3.org/1999/xlink"><defs><path d="M474 408c-21 13 -49 13 -51 13c-46 0 -80 -44 -95 -104l-35 -136c-16 -66 -20 -82 -20 -104c0 -41 19 -67 54 -67c45 0 103 41 130 129c3 8 4 13 13 13c6 0 10 -4 10 -9c0 -22 -54 -153 -156 -153c-37 0 -87 20 -103 79c-21 -41 -55 -79 -103 -79c-43 0 -90 19 -90 61 c0 32 26 53 50 53c19 0 34 -12 34 -32c0 -12 -8 -42 -44 -49c21 -13 46 -13 51 -13c53 0 82 55 97 115l34 137c12 48 18 71 18 93c0 24 -9 66 -54 66c-29 0 -96 -21 -130 -132c-2 -4 -4 -10 -12 -10c-7 0 -11 5 -11 9c0 22 54 153 156 153c18 0 80 -4 103 -79 c9 19 43 79 104 79c42 0 90 -19 90 -61c0 -27 -21 -53 -51 -53c-14 0 -33 8 -33 32c0 19 12 43 44 49z" id="7818"/><path d="M377 232v-265c0 -15 0 -31 -18 -31c-17 0 -17 17 -17 31v265h-265c-15 0 -31 0 -31 18c0 17 17 17 31 17h265v265c0 15 0 31 18 31c17 0 17 -17 17 -31v-265h265c15 0 31 0 31 -18c0 -17 -17 -17 -31 -17h-265z" id="2b15"/><path d="M643 321h-567c-15 0 -30 0 -30 17c0 18 17 18 34 18h559c17 0 34 0 34 -18c0 -17 -15 -17 -30 -17zM639 143h-559c-17 0 -34 0 -34 18c0 17 15 17 30 17h567c15 0 30 0 30 -17c0 -18 -17 -18 -34 -18z" id="3d15"/><path d="M306 -244c0 -4 -2 -6 -7 -6c-12 0 -94 73 -142 177c-60 129 -67 251 -67 323c0 96 14 204 64 315c49 110 134 184 145 184c4 0 7 -2 7 -5s-2 -5 -2 -6c-49 -50 -170 -177 -170 -489s123 -440 169 -487c3 -3 3 -5 3 -6z" id="2815"/><path d="M417 155l-24 -155h-352v23l199 225c57 65 108 140 108 227c0 91 -57 160 -144 160c-61 0 -119 -42 -138 -127c4 2 10 3 16 3c14 0 40 -9 40 -40c0 -35 -30 -41 -40 -41c-12 0 -41 5 -41 44c0 90 67 187 177 187c105 0 199 -68 199 -186c0 -99 -71 -167 -132 -225 c-85 -82 -155 -153 -191 -192h192c14 0 86 0 91 8c4 6 12 18 22 89h18z" id="3215"/><path d="M263 249c0 -96 -14 -204 -64 -315c-49 -110 -134 -184 -145 -184c-3 0 -7 1 -7 6c0 2 1 3 2 5c49 50 170 177 170 489c0 311 -122 438 -170 488c-1 2 -2 3 -2 5c0 5 4 6 7 6c12 0 94 -73 142 -177c60 -129 67 -251 67 -323z" id="2915"/><path d="M281 669l-77 -307c41 52 91 79 148 79c76 0 111 -45 111 -105c0 -58 -45 -176 -63 -224c-4 -11 -16 -43 -16 -69c0 -32 16 -33 26 -33c40 0 77 42 100 122c5 17 6 20 15 20c6 0 10 -4 10 -9c0 -6 -35 -153 -128 -153c-48 0 -79 36 -79 81c0 18 5 31 14 55 c22 60 61 169 61 225c0 40 -14 70 -54 70c-77 0 -122 -60 -141 -89s-19 -30 -30 -72c-5 -22 -11 -43 -16 -65l-45 -181c-5 -11 -18 -24 -35 -24c-10 0 -27 4 -27 26c0 6 0 8 4 23l145 579c1 3 3 11 3 17c0 10 -1 19 -50 19c-14 0 -22 0 -22 10c0 18 7 19 32 21 c18 1 33 3 50 4c5 1 54 5 55 5c2 0 12 0 12 -10c0 -5 -2 -11 -3 -15z" id="6818"/><path d="M417 155l-24 -155h-352v23l199 225c57 65 108 140 108 227c0 91 -57 160 -144 160c-61 0 -119 -42 -138 -127c4 2 10 3 16 3c14 0 40 -9 40 -40c0 -35 -30 -41 -40 -41c-12 0 -41 5 -41 44c0 90 67 187 177 187c105 0 199 -68 199 -186c0 -99 -71 -167 -132 -225 c-85 -82 -155 -153 -191 -192h192c14 0 86 0 91 8c4 6 12 18 22 89h18z" id="3216"/></defs><g transform="scale(1.25)"><g transform="scale(0.02488,-0.02488)"><g transform="translate(7093.893,-4627.612)"><use xlink:href="#7818"/></g></g><g transform="scale(0.02074,-0.02074)"><g transform="translate(9176.921,-5056.038)"><use xlink:href="#3216"/></g></g><g transform="scale(0.02488,-0.02488)"><g transform="translate(8274.516,-4627.612)"><use xlink:href="#2b15"/><use x="941.221" xlink:href="#3215"/></g></g><g transform="scale(0.02488,-0.02488)"><g transform="translate(9673.737,-4627.612)"><use xlink:href="#7818"/><use x="556" xlink:href="#6818"/></g></g><g transform="scale(0.02488,-0.02488)"><g transform="translate(11014.959,-4627.612)"><use xlink:href="#2b15"/></g></g><g transform="scale(0.02488,-0.02488)"><g transform="translate(11956.18,-4627.612)"><use xlink:href="#6818"/></g></g><g transform="scale(0.02074,-0.02074)"><g transform="translate(15018.186,-5056.038)"><use xlink:href="#3216"/></g></g><g transform="scale(0.02488,-0.02488)"><g transform="translate(13199.357,-4627.612)"><use xlink:href="#3d15"/><use x="996.777" xlink:href="#2815"/></g></g><g transform="scale(0.02488,-0.02488)"><g transform="translate(14550.134,-4627.612)"><use xlink:href="#7818"/></g></g><g transform="scale(0.02488,-0.02488)"><g transform="translate(15328.356,-4627.612)"><use xlink:href="#2b15"/></g></g><g transform="scale(0.02488,-0.02488)"><g transform="translate(16269.577,-4627.612)"><use xlink:href="#6818"/></g></g><g transform="scale(0.02488,-0.02488)"><g transform="translate(16832.577,-4627.612)"><use xlink:href="#2915"/></g></g><g transform="scale(0.02074,-0.02074)"><g transform="translate(20617.262,-5056.038)"><use xlink:href="#3216"/></g></g></g></svg>