<?xml version="1.0" ?><!DOCTYPE svg  PUBLIC '-//W3C//DTD SVG 1.1//EN'  'http://www.w3.org/Graphics/SVG/1.1/DTD/svg11.dtd'><svg height="101.352" viewBox="134.598 111.632 498.623 101.352" width="498.623" xmlns="http://www.w3.org/2000/svg" xmlns:xlink="http://www.w3.org/1999/xlink"><defs><path d="M166 389c0 -25 -21 -41 -41 -41c-21 0 -41 16 -41 41s21 41 41 41c21 0 41 -16 41 -41zM153 -11v21c-7 -7 -18 -10 -28 -10c-22 0 -41 15 -41 41s19 41 41 41c41 0 44 -52 44 -91c0 -116 -63 -185 -68 -185c-4 0 -8 4 -8 9c0 1 0 3 6 10c34 48 54 100 54 164z" id="3b15"/><path d="M206 293l-33 -132l-22 -90c-5 -20 -14 -55 -16 -60c-8 -15 -22 -21 -34 -21c-15 0 -26 11 -26 25c0 5 11 52 18 78c5 18 16 63 20 82l28 108c7 31 17 70 17 92c0 30 -8 46 -31 46c-40 0 -59 -59 -74 -118c-6 -23 -7 -24 -15 -24c-7 0 -11 5 -11 9s14 65 32 101 c19 38 42 52 71 52c44 0 85 -31 88 -88c18 25 65 88 154 88c75 0 108 -43 111 -97c40 59 94 97 161 97c76 0 111 -45 111 -105c0 -58 -45 -176 -63 -224c-4 -11 -16 -43 -16 -69c0 -32 16 -33 26 -33c40 0 77 42 100 122c5 17 6 20 15 20c6 0 10 -4 10 -9 c0 -6 -35 -153 -128 -153c-48 0 -79 36 -79 81c0 18 5 31 14 55c22 60 61 169 61 225c0 40 -14 70 -54 70c-110 0 -162 -125 -164 -133l-60 -239c-9 -36 -14 -59 -44 -59c-15 0 -26 11 -26 25c0 4 6 30 10 45c2 11 21 85 29 115l25 103c12 47 12 67 12 73 c0 40 -14 70 -54 70c-39 0 -73 -16 -99 -40c-37 -32 -62 -82 -64 -88z" id="6d18"/><path d="M255 479l-179 -420c-6 -14 -11 -14 -13 -14c-8 0 -34 7 -34 18c0 5 2 10 3 14l121 436c4 13 13 46 53 46c28 0 56 -22 56 -52c0 -4 0 -13 -7 -28z" id="3023"/><path d="M661 230h-545c-14 0 -33 0 -33 20s19 20 33 20h545c14 0 33 0 33 -20s-19 -20 -33 -20z" id="0021"/><path d="M349 350c-22 55 -80 74 -119 74c-59 0 -133 -55 -133 -207c0 -148 77 -207 141 -207c43 0 100 20 126 101c4 13 5 14 12 14s8 -3 8 -7c0 -11 -31 -126 -155 -126c-102 0 -196 91 -196 224c0 128 90 226 196 226c77 0 145 -54 145 -125c0 -35 -29 -38 -36 -38 c-13 0 -36 8 -36 36c0 35 28 35 47 35z" id="6315"/><path d="M155 616c0 -23 -19 -41 -41 -41c-23 0 -41 19 -41 41c0 23 19 41 41 41c23 0 41 -19 41 -41zM38 427l115 11v-370c0 -36 2 -42 61 -42v-26c-23 2 -64 2 -88 2c-25 0 -68 0 -92 -2v26c64 0 68 5 68 43v278c0 48 -8 54 -64 54v26z" id="6915"/><path d="M474 408c-21 13 -49 13 -51 13c-46 0 -80 -44 -95 -104l-35 -136c-16 -66 -20 -82 -20 -104c0 -41 19 -67 54 -67c45 0 103 41 130 129c3 8 4 13 13 13c6 0 10 -4 10 -9c0 -22 -54 -153 -156 -153c-37 0 -87 20 -103 79c-21 -41 -55 -79 -103 -79c-43 0 -90 19 -90 61 c0 32 26 53 50 53c19 0 34 -12 34 -32c0 -12 -8 -42 -44 -49c21 -13 46 -13 51 -13c53 0 82 55 97 115l34 137c12 48 18 71 18 93c0 24 -9 66 -54 66c-29 0 -96 -21 -130 -132c-2 -4 -4 -10 -12 -10c-7 0 -11 5 -11 9c0 22 54 153 156 153c18 0 80 -4 103 -79 c9 19 43 79 104 79c42 0 90 -19 90 -61c0 -27 -21 -53 -51 -53c-14 0 -33 8 -33 32c0 19 12 43 44 49z" id="7819"/><path d="M43 -127l113 450c4 18 7 28 7 52c0 30 -8 46 -31 46c-40 0 -59 -59 -74 -118c-6 -23 -7 -24 -15 -24c-7 0 -11 5 -11 9s14 65 32 101c19 38 42 52 71 52c40 0 79 -26 87 -76c11 14 65 76 129 76c75 0 127 -65 127 -157c0 -147 -122 -294 -235 -294c-52 0 -79 39 -90 67 c-6 -23 -51 -195 -51 -207c0 -8 3 -15 49 -15c17 0 24 0 24 -11c0 -18 -12 -18 -18 -18c-21 0 -72 2 -93 2h-43c-13 0 -27 -2 -40 -2c-11 0 -12 8 -12 10c0 19 10 19 22 19c41 0 45 8 52 38zM216 312l-49 -196c-1 -5 -3 -13 -3 -16c0 -4 11 -90 79 -90c46 0 92 48 117 102 c25 52 53 165 53 213c0 52 -20 96 -64 96c-38 0 -71 -28 -82 -38c-16 -14 -44 -43 -51 -71z" id="7018"/><path d="M263 -112c35 49 45 88 60 147l-1 1c-35 -37 -71 -46 -100 -46c-50 0 -118 22 -118 117c0 24 0 57 49 188c15 38 26 67 26 93c0 33 -17 33 -26 33c-39 0 -77 -40 -101 -124c-4 -14 -5 -18 -14 -18c-7 0 -11 5 -11 9c0 8 37 153 129 153c49 0 79 -38 79 -80 c0 -20 -6 -34 -17 -63c-27 -72 -54 -149 -54 -206c0 -27 5 -82 61 -82c48 0 81 34 101 62c8 11 8 13 13 31l74 294c8 30 29 34 38 34c15 0 27 -10 27 -25c0 -6 -2 -12 -3 -17l-98 -390c-28 -111 -129 -203 -229 -203c-57 0 -100 35 -100 86c0 49 35 61 51 61 c15 0 34 -8 34 -31s-20 -49 -50 -49c-2 0 -7 0 -10 1c15 -46 63 -48 75 -48c49 0 88 34 115 72z" id="7919"/><path d="M170 111l350 586c9 15 15 17 25 17c11 0 15 -2 17 -22l61 -624c3 -30 4 -39 59 -39c15 0 24 0 24 -10c0 -19 -11 -19 -18 -19c-1 0 -45 2 -106 2h-57c-17 0 -37 -2 -54 -2c-6 0 -15 0 -15 11c0 18 11 18 22 18c16 0 67 2 67 32c0 19 -12 123 -15 149c-1 9 -1 17 -2 26 h-255l-76 -126c-13 -22 -19 -33 -19 -47c0 -24 19 -32 42 -34c6 0 14 -1 14 -10c0 -19 -12 -19 -18 -19c-28 0 -60 2 -89 2c-18 0 -63 -2 -81 -2c-7 0 -12 4 -12 10c0 18 8 18 19 19c48 3 82 23 117 82zM290 265h235l-34 336z" id="4118"/><path d="M643 321h-567c-15 0 -30 0 -30 17c0 18 17 18 34 18h559c17 0 34 0 34 -18c0 -17 -15 -17 -30 -17zM639 143h-559c-17 0 -34 0 -34 18c0 17 15 17 30 17h567c15 0 30 0 30 -17c0 -18 -17 -18 -34 -18z" id="3d15"/><path d="M443 503c0 -227 -152 -513 -288 -513c-105 0 -115 155 -115 201c0 220 149 513 289 513c82 0 114 -99 114 -201zM140 362h211c29 112 32 162 32 198c0 96 -22 124 -55 124c-44 0 -79 -48 -112 -108c-40 -71 -61 -155 -76 -214zM344 332h-212c-16 -66 -32 -134 -32 -199 c0 -99 25 -123 56 -123c42 0 77 47 106 98c36 63 57 126 82 224z" id="1218"/><path d="M309 422v-112c0 -17 0 -20 -9 -20c-3 0 -8 1 -9 6c-2 32 -8 132 -115 132c-101 0 -115 -55 -115 -81c0 -61 70 -75 125 -87c42 -8 77 -15 107 -46c13 -12 40 -39 40 -90c0 -78 -53 -132 -152 -132c-56 0 -91 26 -111 53c-6 -10 -21 -34 -27 -43c-5 -8 -6 -9 -11 -9 c-6 0 -7 1 -7 19v144c0 20 1 21 9 21s8 -1 11 -15c18 -88 49 -154 136 -154c92 0 116 54 116 96c0 36 -22 58 -35 70c-21 18 -43 22 -106 35c-29 6 -131 27 -131 117c0 58 40 116 151 116c17 0 62 -1 94 -35c3 4 12 14 15 18c12 15 13 16 17 16c6 0 7 -1 7 -19z" id="7315"/><path d="M415 304v-235c0 -39 4 -43 68 -43v-26c-24 2 -69 2 -95 2s-70 0 -94 -2v26c64 0 68 5 68 43v239c0 48 -8 114 -82 114c-70 0 -126 -69 -126 -161v-192c0 -39 4 -43 68 -43v-26c-24 2 -69 2 -95 2s-70 0 -94 -2v26c64 0 68 5 68 43v278c0 48 -9 54 -68 54v26l118 11v-101 h1c15 40 56 101 135 101c118 0 128 -83 128 -134z" id="6e15"/><path d="M222 -2304v2289h-208v55h263v-2399h-263v55h208z" id="1524"/><path d="M431 214c0 -126 -93 -222 -202 -222s-202 96 -202 222c0 128 93 228 202 228s202 -100 202 -228zM229 10c38 0 81 19 109 65c27 48 29 108 29 147c0 31 0 97 -31 144c-24 35 -62 60 -107 60c-51 0 -90 -32 -110 -65c-26 -45 -28 -97 -28 -139c0 -44 3 -100 28 -145 c23 -39 63 -67 110 -67z" id="6f15"/><path d="M301 119l49 196c1 2 4 15 4 16c0 8 -13 90 -79 90c-39 0 -86 -36 -120 -106c-19 -42 -50 -154 -50 -209c0 -59 23 -96 64 -96c47 0 91 43 113 71c14 19 14 21 19 38zM365 375c2 12 10 47 42 47c15 0 26 -11 26 -25c0 -6 -9 -42 -46 -192c-8 -29 -13 -51 -20 -76 c-9 -39 -12 -50 -12 -73c0 -20 2 -46 31 -46c41 0 60 63 75 122c4 15 5 20 14 20c6 0 10 -4 10 -9c0 -4 -14 -65 -30 -99c-18 -36 -42 -54 -72 -54s-77 17 -87 76c-28 -33 -75 -76 -130 -76c-68 0 -126 58 -126 157c0 148 122 294 235 294c52 0 79 -40 90 -66z" id="6118"/><path d="M250 -2359v2399h263v-55h-208v-2289h208v-55h-263z" id="1424"/></defs><g transform="scale(1.25)"><g transform="scale(0.02488,-0.02488)"><g transform="translate(4479.832,-4031.394)"><use xlink:href="#1424"/></g></g><g transform="scale(0.02488,-0.02488)"><g transform="translate(5628.557,-4829.667)"><use xlink:href="#6315"/><use x="406" xlink:href="#6f15"/><use x="864" xlink:href="#7315"/></g></g><g transform="scale(0.02488,-0.02488)"><g transform="translate(7019.571,-4829.667)"><use xlink:href="#1218"/><use x="1357.653" xlink:href="#6118"/><use x="1871.653" xlink:href="#6d18"/><use x="2727.653" xlink:href="#7018"/></g></g><g transform="scale(0.02488,-0.02488)"><g transform="translate(10238.224,-4829.667)"><use xlink:href="#3b15"/><use x="415.666" xlink:href="#7315"/><use x="774.666" xlink:href="#6915"/><use x="1023.666" xlink:href="#6e15"/></g></g><g transform="scale(0.02488,-0.02488)"><g transform="translate(11940.416,-4829.667)"><use xlink:href="#1218"/></g><g transform="translate(5208.577,-6035.455)"><use xlink:href="#0021"/></g></g><g transform="scale(0.02488,-0.02488)"><g transform="translate(6152.243,-6035.455)"><use xlink:href="#7315"/><use x="359" xlink:href="#6915"/><use x="608" xlink:href="#6e15"/></g></g><g transform="scale(0.02488,-0.02488)"><g transform="translate(7438.77,-6035.455)"><use xlink:href="#1218"/><use x="886.21" xlink:href="#6118"/><use x="1400.21" xlink:href="#6d18"/><use x="2256.21" xlink:href="#7018"/></g></g><g transform="scale(0.02488,-0.02488)"><g transform="translate(10185.98,-6035.455)"><use xlink:href="#3b15"/><use x="415.666" xlink:href="#6315"/><use x="821.666" xlink:href="#6f15"/><use x="1279.666" xlink:href="#7315"/></g></g><g transform="scale(0.02488,-0.02488)"><g transform="translate(11992.66,-6035.455)"><use xlink:href="#1218"/></g><g transform="translate(12678.669,-4031.394)"><use xlink:href="#1524"/><use x="694.446" xlink:href="#1424"/></g><g transform="translate(14101.861,-4829.667)"><use xlink:href="#4118"/></g></g><g transform="scale(0.02074,-0.02074)"><g transform="translate(17797.309,-5973.679)"><use xlink:href="#7819"/></g></g><g transform="scale(0.02488,-0.02488)"><g transform="translate(14119.831,-6035.455)"><use xlink:href="#4118"/></g></g><g transform="scale(0.02074,-0.02074)"><g transform="translate(17818.866,-7420.159)"><use xlink:href="#7919"/></g></g><g transform="scale(0.02488,-0.02488)"><g transform="translate(15520.774,-4031.394)"><use xlink:href="#1524"/></g></g><g transform="scale(0.02488,-0.02488)"><g transform="translate(16326.331,-5441.407)"><use xlink:href="#3d15"/></g></g><g transform="scale(0.02488,-0.02488)"><g transform="translate(17323.108,-4031.394)"><use xlink:href="#1424"/></g><g transform="translate(18051.853,-4788.38)"><use xlink:href="#4118"/></g></g><g transform="scale(0.02074,-0.02074)"><g transform="translate(22535.776,-6082.772)"><use xlink:href="#7819"/></g></g><g transform="scale(0.01728,-0.01728)"><g transform="translate(27715.486,-6954.004)"><use xlink:href="#3023"/></g></g><g transform="scale(0.02488,-0.02488)"><g transform="translate(18069.823,-5994.167)"><use xlink:href="#4118"/></g></g><g transform="scale(0.02074,-0.02074)"><g transform="translate(22557.333,-7529.252)"><use xlink:href="#7919"/></g></g><g transform="scale(0.01728,-0.01728)"><g transform="translate(27689.605,-8690.115)"><use xlink:href="#3023"/></g></g><g transform="scale(0.02488,-0.02488)"><g transform="translate(19681.859,-4031.394)"><use xlink:href="#1524"/></g></g></g></svg>