<?xml version="1.0" ?><!DOCTYPE svg  PUBLIC '-//W3C//DTD SVG 1.1//EN'  'http://www.w3.org/Graphics/SVG/1.1/DTD/svg11.dtd'><svg height="36.375" viewBox="174.25 147.775 70.441 36.375" width="70.441" xmlns="http://www.w3.org/2000/svg" xmlns:xlink="http://www.w3.org/1999/xlink"><defs><path d="M265 373l-56 -221c-13 -50 -13 -52 -27 -98c-12 -37 -20 -65 -50 -65c-13 0 -29 8 -29 27c0 7 0 9 8 24c42 91 96 212 128 333h-57c-20 0 -78 0 -127 -77c-6 -8 -8 -12 -16 -12c-12 0 -12 9 -12 10c0 5 26 51 61 90c44 47 82 47 104 47h335c19 0 40 0 40 -24 c0 -34 -36 -34 -49 -34h-114c-11 -52 -18 -106 -18 -159c0 -28 0 -93 29 -165c6 -14 6 -16 6 -22c0 -20 -21 -38 -41 -38c-15 0 -26 6 -36 50c-8 34 -8 61 -8 76c0 67 9 110 42 258h-113z" id="1910"/><path d="M687 327h-597c-15 0 -34 0 -34 20s19 20 33 20h599c14 0 33 0 33 -20s-19 -20 -34 -20zM688 133h-599c-14 0 -33 0 -33 20s19 20 34 20h597c15 0 34 0 34 -20s-19 -20 -33 -20z" id="3d7"/><path d="M449 174l-28 -174h-371c0 24 0 26 11 37l192 214c55 62 105 141 105 221c0 82 -43 163 -134 163c-58 0 -112 -37 -135 -102c3 1 5 1 13 1c35 0 53 -26 53 -52c0 -41 -35 -53 -52 -53c-3 0 -53 0 -53 56c0 89 74 181 187 181c122 0 212 -80 212 -194 c0 -100 -60 -154 -216 -292l-106 -103h180c22 0 88 0 95 8c10 15 17 59 22 89h25z" id="327"/><path d="M264 82c-32 -47 -80 -93 -145 -93c-76 0 -106 62 -106 142c0 9 1 91 38 180c14 32 60 120 76 120c6 0 12 -4 12 -12c0 -3 0 -5 -10 -19c-47 -67 -84 -150 -84 -225c0 -59 22 -114 88 -114c34 0 80 16 124 77c7 7 7 9 9 27c7 52 19 96 21 101c8 16 17 25 28 25 c14 0 21 -11 21 -23c0 -13 -14 -68 -33 -113c-6 -11 -6 -13 -6 -16c0 -20 8 -39 20 -55c18 -23 46 -23 55 -23c105 0 190 134 190 219c0 22 -3 54 -35 87c-9 8 -15 14 -15 27c0 22 25 48 50 48c6 0 43 0 43 -71c0 -34 -19 -185 -94 -289c-40 -55 -94 -93 -153 -93 c-51 0 -85 30 -94 93z" id="2110"/><path d="M367 400l-60 -317c-1 -7 -24 -128 -56 -191c-18 -38 -58 -97 -113 -97c-41 0 -85 24 -85 69c0 38 29 60 55 60c19 0 37 -12 37 -35c0 -15 -9 -51 -55 -54c19 -18 44 -18 48 -18c52 0 69 91 87 188l75 395h-66c-19 0 -28 0 -28 12c0 19 11 19 30 19h69 c24 126 27 136 33 157c30 99 93 117 127 117c41 0 87 -23 87 -69c0 -38 -29 -60 -55 -60c-19 0 -37 12 -37 35c0 15 10 50 54 54c-19 18 -45 18 -49 18c-21 0 -38 -15 -47 -34c-6 -12 -20 -83 -24 -104l-21 -114h83c17 0 27 0 27 -11c0 -20 -10 -20 -30 -20h-86z" id="6610"/></defs><g transform="scale(1.25)"><g transform="scale(0.01,-0.01)"><g transform="translate(14927,-13527)"><use xlink:href="#2110"/><use x="935.649" xlink:href="#3d7"/><use x="1990.42" xlink:href="#327"/><use x="2490.42" xlink:href="#1910"/><use x="3096.298" xlink:href="#6610"/></g></g></g></svg>