<?xml version="1.0" ?><!DOCTYPE svg  PUBLIC '-//W3C//DTD SVG 1.1//EN'  'http://www.w3.org/Graphics/SVG/1.1/DTD/svg11.dtd'><svg height="30.663" viewBox="174.75 151.062 53.327 30.663" width="53.327" xmlns="http://www.w3.org/2000/svg" xmlns:xlink="http://www.w3.org/1999/xlink"><defs><path d="M224 431l-98 -398c114 37 266 149 330 376c8 29 31 33 39 33c17 0 29 -10 29 -27c0 -9 -27 -145 -159 -268c-103 -96 -212 -135 -282 -147h-14c-6 0 -16 1 -16 12c0 2 7 30 11 45l61 245c7 27 19 74 19 81c0 10 -2 17 -50 17c-15 0 -24 0 -24 12c0 18 11 19 19 20 c26 2 99 10 122 10c13 0 13 -10 13 -11z" id="1710"/><path d="M687 327h-597c-15 0 -34 0 -34 20s19 20 33 20h599c14 0 33 0 33 -20s-19 -20 -34 -20zM688 133h-599c-14 0 -33 0 -33 20s19 20 34 20h597c15 0 34 0 34 -20s-19 -20 -33 -20z" id="3d7"/><path d="M396 380c-14 27 -52 40 -86 40c-55 0 -110 -43 -141 -100c-34 -62 -54 -159 -54 -200c0 -60 27 -109 90 -109c12 0 121 0 200 99c6 8 8 10 13 10c6 0 12 -7 12 -13c0 -12 -84 -118 -227 -118c-104 0 -162 79 -162 169c0 141 133 284 268 284c71 0 118 -37 118 -86 c0 -40 -27 -64 -56 -64c-19 0 -37 11 -37 35c0 7 2 24 18 39c14 14 28 14 44 14z" id="6310"/></defs><g transform="scale(1.25)"><g transform="scale(0.01,-0.01)"><g transform="translate(14927,-13527)"><use xlink:href="#1710"/><use x="834.428" xlink:href="#3d7"/><use x="1889.199" xlink:href="#6310"/></g></g></g></svg>