<?xml version="1.0" ?><!DOCTYPE svg  PUBLIC '-//W3C//DTD SVG 1.1//EN'  'http://www.w3.org/Graphics/SVG/1.1/DTD/svg11.dtd'><svg height="37.5" viewBox="174.775 147.212 84.486 37.5" width="84.486" xmlns="http://www.w3.org/2000/svg" xmlns:xlink="http://www.w3.org/1999/xlink"><defs><path d="M287 683l-104 -422c38 15 77 55 111 93c72 80 118 88 146 88c45 0 68 -33 68 -63c0 -39 -29 -61 -55 -61c-27 0 -38 19 -38 35c0 12 9 51 57 54c-2 2 -2 3 -4 4c-8 6 -9 6 -21 8c-2 1 -3 1 -9 1c-49 0 -95 -43 -143 -96c-23 -24 -55 -56 -86 -74c85 -11 148 -40 148 -105 c0 -10 0 -14 -4 -31c-4 -16 -8 -39 -8 -56c0 -36 13 -47 32 -47c44 0 67 51 87 124c3 14 4 18 14 18c3 0 12 0 12 -10c0 -2 -11 -57 -36 -101c-22 -37 -49 -53 -79 -53c-52 0 -92 40 -92 99c0 11 2 23 4 35c3 10 3 14 3 21c0 66 -82 82 -116 85c-6 -25 -51 -210 -56 -219 c-6 -12 -21 -21 -34 -21c-9 0 -29 5 -29 28c0 6 0 8 4 22l145 576l3 20c0 10 -2 17 -50 17c-15 0 -24 0 -24 12c0 18 11 19 19 20c26 2 99 10 122 10c13 0 13 -10 13 -11z" id="6b10"/><path d="M265 373l-56 -221c-13 -50 -13 -52 -27 -98c-12 -37 -20 -65 -50 -65c-13 0 -29 8 -29 27c0 7 0 9 8 24c42 91 96 212 128 333h-57c-20 0 -78 0 -127 -77c-6 -8 -8 -12 -16 -12c-12 0 -12 9 -12 10c0 5 26 51 61 90c44 47 82 47 104 47h335c19 0 40 0 40 -24 c0 -34 -36 -34 -49 -34h-114c-11 -52 -18 -106 -18 -159c0 -28 0 -93 29 -165c6 -14 6 -16 6 -22c0 -20 -21 -38 -41 -38c-15 0 -26 6 -36 50c-8 34 -8 61 -8 76c0 67 9 110 42 258h-113z" id="1910"/><path d="M357 292l-241 -284c-8 -10 -17 -21 -33 -21s-30 12 -30 29c0 13 6 19 18 31l276 274l-97 272c-25 68 -32 74 -65 80c-1 0 -9 2 -9 10c0 11 13 11 18 11c47 0 101 -13 122 -71l204 -569c7 -20 13 -35 23 -46c3 -4 5 -6 5 -9s-1 -9 -11 -10h-22c-27 0 -37 0 -53 22 c-16 23 -64 176 -105 281z" id="1510"/><path d="M449 174l-28 -174h-371c0 24 0 26 11 37l192 214c55 62 105 141 105 221c0 82 -43 163 -134 163c-58 0 -112 -37 -135 -102c3 1 5 1 13 1c35 0 53 -26 53 -52c0 -41 -35 -53 -52 -53c-3 0 -53 0 -53 56c0 89 74 181 187 181c122 0 212 -80 212 -194 c0 -100 -60 -154 -216 -292l-106 -103h180c22 0 88 0 95 8c10 15 17 59 22 89h25z" id="327"/><path d="M439 712l-342 -938c-6 -17 -9 -24 -22 -24c-11 0 -20 9 -20 20c0 1 0 5 5 18l347 953c3 6 10 9 17 9c11 0 20 -9 20 -20c0 -1 0 -5 -5 -18z" id="3d10"/><path d="M687 327h-597c-15 0 -34 0 -34 20s19 20 33 20h599c14 0 33 0 33 -20s-19 -20 -34 -20zM688 133h-599c-14 0 -33 0 -33 20s19 20 34 20h597c15 0 34 0 34 -20s-19 -20 -33 -20z" id="3d7"/><path d="M331 -240c0 -7 -4 -10 -10 -10c-10 0 -96 65 -156 188c-55 113 -66 234 -66 312c0 84 12 195 63 305c59 127 149 195 159 195c6 0 10 -3 10 -10c0 -3 0 -5 -13 -17c-123 -125 -161 -299 -161 -473c0 -153 32 -342 157 -468c17 -17 17 -19 17 -22z" id="287"/><path d="M289 250c0 -84 -12 -195 -63 -305c-59 -127 -149 -195 -159 -195c-6 0 -10 4 -10 10c0 3 0 5 13 17c124 126 161 302 161 473c0 209 -57 368 -155 467c-19 18 -19 20 -19 23c0 6 4 10 10 10c10 0 96 -65 156 -188c55 -113 66 -234 66 -312z" id="297"/></defs><g transform="scale(1.25)"><g transform="scale(0.01,-0.01)"><g transform="translate(14927,-13527)"><use xlink:href="#6b10"/><use x="829.251" xlink:href="#3d7"/><use x="1884.022" xlink:href="#287"/><use x="2272.022" xlink:href="#327"/><use x="2772.022" xlink:href="#1910"/><use x="3377.9" xlink:href="#297"/><use x="3765.9" xlink:href="#3d10"/><use x="4265.9" xlink:href="#1510"/></g></g></g></svg>